solid Exported from Blender-3.1.0
facet normal -1.000000 0.000281 0.000000
outer loop
vertex -189.014008 -89.320549 -468.733215
vertex -189.014008 -79.700729 -399.845734
vertex -189.014008 -79.460129 -398.619202
endloop
endfacet
facet normal 0.000000 -0.981297 0.192500
outer loop
vertex -16.315111 -79.700729 -399.845734
vertex -189.014008 -79.460129 -398.619202
vertex -189.014008 -79.700729 -399.845734
endloop
endfacet
facet normal -1.000000 0.000000 0.000000
outer loop
vertex -189.014008 -76.717834 -399.157135
vertex -189.014008 -89.320549 -468.733215
vertex -189.014008 -79.460129 -398.619202
endloop
endfacet
facet normal -0.923854 0.073674 0.375587
outer loop
vertex -188.794312 -79.358047 -398.098785
vertex -189.014008 -76.717834 -399.157135
vertex -189.014008 -79.460129 -398.619202
endloop
endfacet
facet normal -0.000000 -0.981301 0.192479
outer loop
vertex -188.794312 -79.358047 -398.098785
vertex -189.014008 -79.460129 -398.619202
vertex -16.315111 -79.700729 -399.845734
endloop
endfacet
facet normal -1.000000 -0.000034 0.000000
outer loop
vertex -189.014008 -89.320549 -468.733215
vertex -189.014008 -79.798859 -399.826477
vertex -189.014008 -79.700729 -399.845734
endloop
endfacet
facet normal 0.000000 0.192559 0.981285
outer loop
vertex -16.315111 -79.798859 -399.826477
vertex -189.014008 -79.700729 -399.845734
vertex -189.014008 -79.798859 -399.826477
endloop
endfacet
facet normal 0.000000 0.192581 0.981281
outer loop
vertex -16.315111 -79.700729 -399.845734
vertex -189.014008 -79.700729 -399.845734
vertex -16.315111 -79.798859 -399.826477
endloop
endfacet
facet normal -1.000000 0.000000 0.000000
outer loop
vertex -189.014008 -92.896706 -463.700714
vertex -189.014008 -92.975632 -463.685211
vertex -189.014008 -79.798859 -399.826477
endloop
endfacet
facet normal 0.000000 -0.979368 0.202085
outer loop
vertex -172.205002 -90.550323 -451.931427
vertex -189.014008 -79.798859 -399.826477
vertex -189.014008 -92.975632 -463.685211
endloop
endfacet
facet normal -1.000000 0.000000 0.000000
outer loop
vertex -189.014008 -89.320549 -468.733215
vertex -189.014008 -92.896706 -463.700714
vertex -189.014008 -79.798859 -399.826477
endloop
endfacet
facet normal 0.000000 -0.979368 0.202085
outer loop
vertex -73.903358 -90.032829 -449.423462
vertex -16.315111 -79.798859 -399.826477
vertex -189.014008 -79.798859 -399.826477
endloop
endfacet
facet normal 0.000000 -0.979368 0.202085
outer loop
vertex -172.205002 -89.944038 -448.993195
vertex -74.963997 -89.944038 -448.993195
vertex -189.014008 -79.798859 -399.826477
endloop
endfacet
facet normal -0.000311 -0.979612 0.200898
outer loop
vertex -73.903358 -90.032829 -449.423462
vertex -189.014008 -79.798859 -399.826477
vertex -74.963997 -89.944038 -448.993195
endloop
endfacet
facet normal 0.000000 -0.979366 0.202096
outer loop
vertex -172.205002 -90.550323 -451.931427
vertex -172.205002 -89.944038 -448.993195
vertex -189.014008 -79.798859 -399.826477
endloop
endfacet
facet normal 0.000000 -0.192722 -0.981254
outer loop
vertex -16.079903 -92.896706 -463.700714
vertex -189.014008 -92.975632 -463.685211
vertex -189.014008 -92.896706 -463.700714
endloop
endfacet
facet normal 0.000000 -0.979368 0.202087
outer loop
vertex -172.205002 -90.550323 -451.931427
vertex -189.014008 -92.975632 -463.685211
vertex -16.079903 -92.975632 -463.685211
endloop
endfacet
facet normal 0.000000 -0.192775 -0.981243
outer loop
vertex -16.079903 -92.896706 -463.700714
vertex -16.079903 -92.975632 -463.685211
vertex -189.014008 -92.975632 -463.685211
endloop
endfacet
facet normal -1.000000 0.000000 0.000000
outer loop
vertex -189.014008 -92.216858 -465.107880
vertex -189.014008 -93.137321 -464.927338
vertex -189.014008 -92.896706 -463.700714
endloop
endfacet
facet normal -0.000056 -0.981298 0.192495
outer loop
vertex -188.794312 -93.239403 -465.447723
vertex -189.014008 -92.896706 -463.700714
vertex -189.014008 -93.137321 -464.927338
endloop
endfacet
facet normal -1.000000 0.000076 0.000000
outer loop
vertex -189.014008 -89.320549 -468.733215
vertex -189.014008 -92.216858 -465.107880
vertex -189.014008 -92.896706 -463.700714
endloop
endfacet
facet normal 0.000000 -0.981299 0.192487
outer loop
vertex -17.180431 -93.281693 -465.663300
vertex -189.014008 -92.896706 -463.700714
vertex -188.264008 -93.281693 -465.663300
endloop
endfacet
facet normal 0.000000 -0.981299 0.192489
outer loop
vertex -188.794312 -93.239403 -465.447723
vertex -188.264008 -93.281693 -465.663300
vertex -189.014008 -92.896706 -463.700714
endloop
endfacet
facet normal 0.000000 -0.981259 0.192693
outer loop
vertex -16.723717 -93.251831 -465.511078
vertex -189.014008 -92.896706 -463.700714
vertex -17.180431 -93.281693 -465.663300
endloop
endfacet
facet normal 0.000000 -0.981302 0.192475
outer loop
vertex -16.267580 -93.037277 -464.417328
vertex -189.014008 -92.896706 -463.700714
vertex -16.455885 -93.174614 -465.117432
endloop
endfacet
facet normal 0.000000 -0.981305 0.192457
outer loop
vertex -16.723717 -93.251831 -465.511078
vertex -16.455885 -93.174614 -465.117432
vertex -189.014008 -92.896706 -463.700714
endloop
endfacet
facet normal 0.000000 -0.981297 0.192499
outer loop
vertex -16.079903 -92.896706 -463.700714
vertex -189.014008 -92.896706 -463.700714
vertex -16.267580 -93.037277 -464.417328
endloop
endfacet
facet normal -0.923858 -0.073696 -0.375572
outer loop
vertex -188.794312 -92.318939 -465.628296
vertex -189.014008 -93.137321 -464.927338
vertex -189.014008 -92.216858 -465.107880
endloop
endfacet
facet normal -0.923880 -0.073618 -0.375535
outer loop
vertex -188.794312 -93.239403 -465.447723
vertex -189.014008 -93.137321 -464.927338
vertex -188.794312 -92.318939 -465.628296
endloop
endfacet
facet normal -1.000000 0.000000 0.000000
outer loop
vertex -189.014008 -89.320549 -468.733215
vertex -189.014008 -92.794342 -468.051788
vertex -189.014008 -92.216858 -465.107880
endloop
endfacet
facet normal 0.000000 -0.981304 0.192467
outer loop
vertex -188.794312 -92.318939 -465.628296
vertex -189.014008 -92.216858 -465.107880
vertex -189.014008 -92.794342 -468.051788
endloop
endfacet
facet normal 0.000000 -0.192493 -0.981298
outer loop
vertex -17.244732 -89.320549 -468.733215
vertex -189.014008 -92.794342 -468.051788
vertex -189.014008 -89.320549 -468.733215
endloop
endfacet
facet normal 0.000000 -0.192494 -0.981298
outer loop
vertex -17.244732 -89.320549 -468.733215
vertex -17.244732 -92.794342 -468.051788
vertex -189.014008 -92.794342 -468.051788
endloop
endfacet
facet normal 0.000000 -0.981298 0.192493
outer loop
vertex -188.264008 -92.361229 -465.843872
vertex -189.014008 -92.794342 -468.051788
vertex -17.244732 -92.794342 -468.051788
endloop
endfacet
facet normal 0.000000 -0.981297 0.192500
outer loop
vertex -188.794312 -92.318939 -465.628296
vertex -189.014008 -92.794342 -468.051788
vertex -188.264008 -92.361229 -465.843872
endloop
endfacet
facet normal -1.000000 -0.000025 0.000000
outer loop
vertex -189.014008 -75.947861 -395.231934
vertex -189.014008 -74.719681 -394.300934
vertex -189.014008 -89.320549 -468.733215
endloop
endfacet
facet normal 0.000000 0.981298 -0.192494
outer loop
vertex -172.205002 -85.614868 -449.842407
vertex -189.014008 -89.320549 -468.733215
vertex -189.014008 -74.719681 -394.300934
endloop
endfacet
facet normal -1.000000 0.000000 0.000000
outer loop
vertex -189.014008 -76.717834 -399.157135
vertex -189.014008 -75.947861 -395.231934
vertex -189.014008 -89.320549 -468.733215
endloop
endfacet
facet normal 0.000000 0.981298 -0.192493
outer loop
vertex -74.963997 -86.192352 -452.786316
vertex -17.244732 -89.320549 -468.733215
vertex -189.014008 -89.320549 -468.733215
endloop
endfacet
facet normal 0.000000 0.981298 -0.192496
outer loop
vertex -172.205002 -86.192352 -452.786316
vertex -74.963997 -86.192352 -452.786316
vertex -189.014008 -89.320549 -468.733215
endloop
endfacet
facet normal 0.000000 0.981298 -0.192495
outer loop
vertex -172.205002 -85.614868 -449.842407
vertex -172.205002 -86.192352 -452.786316
vertex -189.014008 -89.320549 -468.733215
endloop
endfacet
facet normal -1.000000 0.000004 0.000000
outer loop
vertex -189.014008 -75.947861 -395.231934
vertex -189.014008 -77.810768 -393.694580
vertex -189.014008 -74.719681 -394.300934
endloop
endfacet
facet normal 0.000000 0.192494 0.981298
outer loop
vertex -117.963997 -77.810768 -393.694580
vertex -189.014008 -74.719681 -394.300934
vertex -189.014008 -77.810768 -393.694580
endloop
endfacet
facet normal 0.000000 0.192492 0.981299
outer loop
vertex -117.963997 -74.719681 -394.300934
vertex -189.014008 -74.719681 -394.300934
vertex -117.963997 -77.810768 -393.694580
endloop
endfacet
facet normal 0.000000 0.981298 -0.192495
outer loop
vertex -172.205002 -85.614868 -449.842407
vertex -189.014008 -74.719681 -394.300934
vertex -117.963997 -74.719681 -394.300934
endloop
endfacet
facet normal -1.000000 0.000000 0.000000
outer loop
vertex -189.014008 -75.947861 -395.231934
vertex -189.014008 -78.032135 -394.823090
vertex -189.014008 -77.810768 -393.694580
endloop
endfacet
facet normal -0.000060 -0.981295 0.192509
outer loop
vertex -188.794312 -78.134216 -395.343475
vertex -189.014008 -77.810768 -393.694580
vertex -189.014008 -78.032135 -394.823090
endloop
endfacet
facet normal 0.000000 -0.981299 0.192492
outer loop
vertex -117.963997 -77.810768 -393.694580
vertex -189.014008 -77.810768 -393.694580
vertex -188.264008 -78.176506 -395.559052
endloop
endfacet
facet normal 0.000000 -0.981299 0.192489
outer loop
vertex -188.794312 -78.134216 -395.343475
vertex -188.264008 -78.176506 -395.559052
vertex -189.014008 -77.810768 -393.694580
endloop
endfacet
facet normal -0.923867 -0.073685 -0.375553
outer loop
vertex -188.794312 -76.049942 -395.752350
vertex -189.014008 -78.032135 -394.823090
vertex -189.014008 -75.947861 -395.231934
endloop
endfacet
facet normal -0.923854 -0.073667 -0.375588
outer loop
vertex -188.794312 -78.134216 -395.343475
vertex -189.014008 -78.032135 -394.823090
vertex -188.794312 -76.049942 -395.752350
endloop
endfacet
facet normal 0.000000 -0.981297 0.192502
outer loop
vertex -188.794312 -76.615753 -398.636719
vertex -189.014008 -75.947861 -395.231934
vertex -189.014008 -76.717834 -399.157135
endloop
endfacet
facet normal 0.000012 -0.981300 0.192483
outer loop
vertex -188.794312 -76.615753 -398.636719
vertex -188.794312 -76.049942 -395.752350
vertex -189.014008 -75.947861 -395.231934
endloop
endfacet
facet normal -0.923888 0.073668 0.375506
outer loop
vertex -188.794312 -79.358047 -398.098785
vertex -188.794312 -76.615753 -398.636719
vertex -189.014008 -76.717834 -399.157135
endloop
endfacet
facet normal 0.970957 -0.046055 -0.234780
outer loop
vertex -14.760621 -87.379974 -458.840576
vertex -17.244732 -92.794342 -468.051788
vertex -17.244732 -89.320549 -468.733215
endloop
endfacet
facet normal 0.000000 -0.981297 0.192498
outer loop
vertex -17.180431 -92.361229 -465.843872
vertex -188.264008 -92.361229 -465.843872
vertex -17.244732 -92.794342 -468.051788
endloop
endfacet
facet normal 0.000038 -0.981299 0.192490
outer loop
vertex -16.850077 -92.530708 -466.707825
vertex -17.180431 -92.361229 -465.843872
vertex -17.244732 -92.794342 -468.051788
endloop
endfacet
facet normal 0.954696 0.058415 -0.291792
outer loop
vertex -14.760621 -87.379974 -458.840576
vertex -16.850077 -92.530708 -466.707825
vertex -17.244732 -92.794342 -468.051788
endloop
endfacet
facet normal -0.000006 0.981298 -0.192495
outer loop
vertex -14.411604 -77.915123 -410.590668
vertex -14.760621 -87.379974 -458.840576
vertex -17.244732 -89.320549 -468.733215
endloop
endfacet
facet normal 0.000004 0.981298 -0.192494
outer loop
vertex -17.509912 -74.931419 -395.380371
vertex -14.411604 -77.915123 -410.590668
vertex -17.244732 -89.320549 -468.733215
endloop
endfacet
facet normal 0.000000 0.981298 -0.192494
outer loop
vertex -73.903343 -86.107780 -452.355194
vertex -17.509912 -74.931419 -395.380371
vertex -17.244732 -89.320549 -468.733215
endloop
endfacet
facet normal 0.000000 0.981294 -0.192516
outer loop
vertex -74.963997 -86.192352 -452.786316
vertex -73.903343 -86.107780 -452.355194
vertex -17.244732 -89.320549 -468.733215
endloop
endfacet
facet normal 0.000000 -0.192508 -0.981295
outer loop
vertex -188.264008 -93.281693 -465.663300
vertex -188.264008 -92.361229 -465.843872
vertex -17.180431 -92.361229 -465.843872
endloop
endfacet
facet normal -0.382681 -0.177865 -0.906598
outer loop
vertex -188.794312 -93.239403 -465.447723
vertex -188.794312 -92.318939 -465.628296
vertex -188.264008 -92.361229 -465.843872
endloop
endfacet
facet normal -0.382707 -0.177849 -0.906590
outer loop
vertex -188.794312 -93.239403 -465.447723
vertex -188.264008 -92.361229 -465.843872
vertex -188.264008 -93.281693 -465.663300
endloop
endfacet
facet normal 0.000000 -0.981299 0.192490
outer loop
vertex -16.850077 -92.530708 -466.707825
vertex -16.723717 -92.331367 -465.691650
vertex -17.180431 -92.361229 -465.843872
endloop
endfacet
facet normal 0.321700 -0.182273 -0.929132
outer loop
vertex -17.180431 -93.281693 -465.663300
vertex -17.180431 -92.361229 -465.843872
vertex -16.723717 -92.331367 -465.691650
endloop
endfacet
facet normal 0.000000 -0.192506 -0.981296
outer loop
vertex -17.180431 -93.281693 -465.663300
vertex -188.264008 -93.281693 -465.663300
vertex -17.180431 -92.361229 -465.843872
endloop
endfacet
facet normal 0.000000 -0.981300 0.192484
outer loop
vertex -16.850077 -92.530708 -466.707825
vertex -16.455885 -92.254150 -465.298004
vertex -16.723717 -92.331367 -465.691650
endloop
endfacet
facet normal 0.831676 -0.106887 -0.544876
outer loop
vertex -16.723717 -93.251831 -465.511078
vertex -16.723717 -92.331367 -465.691650
vertex -16.455885 -92.254150 -465.298004
endloop
endfacet
facet normal 0.321609 -0.182279 -0.929162
outer loop
vertex -16.723717 -93.251831 -465.511078
vertex -17.180431 -93.281693 -465.663300
vertex -16.723717 -92.331367 -465.691650
endloop
endfacet
facet normal 0.961136 0.029379 -0.274509
outer loop
vertex -14.760621 -87.379974 -458.840576
vertex -16.455885 -92.254150 -465.298004
vertex -16.850077 -92.530708 -466.707825
endloop
endfacet
facet normal 0.973909 -0.043688 -0.222694
outer loop
vertex -16.455885 -93.174614 -465.117432
vertex -16.455885 -92.254150 -465.298004
vertex -14.760621 -87.379974 -458.840576
endloop
endfacet
facet normal 0.831711 -0.106884 -0.544824
outer loop
vertex -16.723717 -93.251831 -465.511078
vertex -16.455885 -92.254150 -465.298004
vertex -16.455885 -93.174614 -465.117432
endloop
endfacet
facet normal -0.000006 -0.979368 0.202085
outer loop
vertex -14.095022 -91.061447 -454.408508
vertex -14.063513 -82.321297 -412.050964
vertex -16.315111 -79.798859 -399.826477
endloop
endfacet
facet normal 0.984126 0.034185 0.174149
outer loop
vertex -16.315111 -79.700729 -399.845734
vertex -16.315111 -79.798859 -399.826477
vertex -14.063513 -82.321297 -412.050964
endloop
endfacet
facet normal 0.000007 -0.979368 0.202086
outer loop
vertex -16.079903 -92.975632 -463.685211
vertex -14.095022 -91.061447 -454.408508
vertex -16.315111 -79.798859 -399.826477
endloop
endfacet
facet normal 0.000000 -0.979368 0.202085
outer loop
vertex -73.463997 -90.247185 -450.462311
vertex -16.079903 -92.975632 -463.685211
vertex -16.315111 -79.798859 -399.826477
endloop
endfacet
facet normal 0.000000 -0.979368 0.202084
outer loop
vertex -73.903358 -90.032829 -449.423462
vertex -73.463997 -90.247185 -450.462311
vertex -16.315111 -79.798859 -399.826477
endloop
endfacet
facet normal 0.000000 -0.979368 0.202085
outer loop
vertex -12.844003 -89.025757 -444.542877
vertex -12.844003 -84.503830 -422.628235
vertex -14.063513 -82.321297 -412.050964
endloop
endfacet
facet normal 0.993460 0.043497 0.105567
outer loop
vertex -14.411604 -77.915123 -410.590668
vertex -14.063513 -82.321297 -412.050964
vertex -12.844003 -84.503830 -422.628235
endloop
endfacet
facet normal 0.000000 -0.979368 0.202085
outer loop
vertex -14.095022 -91.061447 -454.408508
vertex -12.844003 -89.025757 -444.542877
vertex -14.063513 -82.321297 -412.050964
endloop
endfacet
facet normal 0.983947 0.018921 0.177455
outer loop
vertex -16.315111 -79.700729 -399.845734
vertex -14.063513 -82.321297 -412.050964
vertex -14.411604 -77.915123 -410.590668
endloop
endfacet
facet normal 0.707098 -0.692526 0.142896
outer loop
vertex -12.393974 -86.386391 -433.978638
vertex -12.844003 -84.503830 -422.628235
vertex -12.844003 -89.025757 -444.542877
endloop
endfacet
facet normal 0.992896 0.022905 0.116763
outer loop
vertex -14.411604 -77.915123 -410.590668
vertex -12.844003 -84.503830 -422.628235
vertex -12.843998 -80.433098 -423.426819
endloop
endfacet
facet normal 0.999235 0.007527 0.038370
outer loop
vertex -12.393974 -86.386391 -433.978638
vertex -12.843998 -80.433098 -423.426819
vertex -12.844003 -84.503830 -422.628235
endloop
endfacet
facet normal 0.992376 -0.023724 -0.120944
outer loop
vertex -12.843998 -84.740196 -445.383484
vertex -12.844003 -89.025757 -444.542877
vertex -14.095022 -91.061447 -454.408508
endloop
endfacet
facet normal 0.999144 -0.007964 -0.040594
outer loop
vertex -12.393979 -83.089531 -434.630920
vertex -12.844003 -89.025757 -444.542877
vertex -12.843998 -84.740196 -445.383484
endloop
endfacet
facet normal 0.999145 -0.008023 -0.040557
outer loop
vertex -12.393979 -83.089531 -434.630920
vertex -12.393974 -86.386391 -433.978638
vertex -12.844003 -89.025757 -444.542877
endloop
endfacet
facet normal 0.978563 -0.060192 -0.196957
outer loop
vertex -14.760621 -87.379974 -458.840576
vertex -14.095022 -91.061447 -454.408508
vertex -16.079903 -92.975632 -463.685211
endloop
endfacet
facet normal 0.989776 0.007473 -0.142434
outer loop
vertex -12.843998 -84.740196 -445.383484
vertex -14.095022 -91.061447 -454.408508
vertex -14.760621 -87.379974 -458.840576
endloop
endfacet
facet normal 0.000000 -0.979368 0.202084
outer loop
vertex -74.963997 -90.550323 -451.931427
vertex -172.205002 -90.550323 -451.931427
vertex -16.079903 -92.975632 -463.685211
endloop
endfacet
facet normal 0.000000 -0.979365 0.202099
outer loop
vertex -73.903358 -90.461540 -451.501160
vertex -74.963997 -90.550323 -451.931427
vertex -16.079903 -92.975632 -463.685211
endloop
endfacet
facet normal 0.000000 -0.979369 0.202077
outer loop
vertex -73.463997 -90.247185 -450.462311
vertex -73.903358 -90.461540 -451.501160
vertex -16.079903 -92.975632 -463.685211
endloop
endfacet
facet normal 0.975314 -0.042543 -0.216684
outer loop
vertex -16.079903 -92.896706 -463.700714
vertex -14.760621 -87.379974 -458.840576
vertex -16.079903 -92.975632 -463.685211
endloop
endfacet
facet normal 0.000000 -0.192491 -0.981299
outer loop
vertex -74.963997 -85.614868 -449.842407
vertex -74.963997 -89.944038 -448.993195
vertex -172.205002 -89.944038 -448.993195
endloop
endfacet
facet normal -0.382706 -0.177843 -0.906592
outer loop
vertex -73.903343 -85.699440 -450.273529
vertex -73.903358 -90.032829 -449.423462
vertex -74.963997 -89.944038 -448.993195
endloop
endfacet
facet normal -0.382727 -0.177835 -0.906584
outer loop
vertex -73.903343 -85.699440 -450.273529
vertex -74.963997 -89.944038 -448.993195
vertex -74.963997 -85.614868 -449.842407
endloop
endfacet
facet normal 1.000000 0.000000 0.000000
outer loop
vertex -172.205002 -86.192352 -452.786316
vertex -172.205002 -89.944038 -448.993195
vertex -172.205002 -90.550323 -451.931427
endloop
endfacet
facet normal 0.000000 -0.192492 -0.981298
outer loop
vertex -172.205002 -85.614868 -449.842407
vertex -74.963997 -85.614868 -449.842407
vertex -172.205002 -89.944038 -448.993195
endloop
endfacet
facet normal 1.000000 0.000000 0.000000
outer loop
vertex -172.205002 -85.614868 -449.842407
vertex -172.205002 -89.944038 -448.993195
vertex -172.205002 -86.192352 -452.786316
endloop
endfacet
facet normal 0.000000 0.192498 0.981297
outer loop
vertex -172.205002 -86.192352 -452.786316
vertex -172.205002 -90.550323 -451.931427
vertex -74.963997 -90.550323 -451.931427
endloop
endfacet
facet normal -0.382662 0.177847 0.906609
outer loop
vertex -74.963997 -86.192352 -452.786316
vertex -74.963997 -90.550323 -451.931427
vertex -73.903358 -90.461540 -451.501160
endloop
endfacet
facet normal 0.000000 0.192498 0.981297
outer loop
vertex -172.205002 -86.192352 -452.786316
vertex -74.963997 -90.550323 -451.931427
vertex -74.963997 -86.192352 -452.786316
endloop
endfacet
facet normal -0.923872 0.073667 0.375545
outer loop
vertex -73.903343 -86.107780 -452.355194
vertex -73.903358 -90.461540 -451.501160
vertex -73.463997 -90.247185 -450.462311
endloop
endfacet
facet normal -0.382723 0.177836 0.906585
outer loop
vertex -74.963997 -86.192352 -452.786316
vertex -73.903358 -90.461540 -451.501160
vertex -73.903343 -86.107780 -452.355194
endloop
endfacet
facet normal -0.923874 -0.073670 -0.375540
outer loop
vertex -73.463997 -85.903610 -451.314362
vertex -73.463997 -90.247185 -450.462311
vertex -73.903358 -90.032829 -449.423462
endloop
endfacet
facet normal -0.923883 0.073665 0.375517
outer loop
vertex -73.903343 -86.107780 -452.355194
vertex -73.463997 -90.247185 -450.462311
vertex -73.463997 -85.903610 -451.314362
endloop
endfacet
facet normal -0.923871 -0.073666 -0.375548
outer loop
vertex -73.463997 -85.903610 -451.314362
vertex -73.903358 -90.032829 -449.423462
vertex -73.903343 -85.699440 -450.273529
endloop
endfacet
facet normal 0.000000 0.192493 0.981298
outer loop
vertex -188.264008 -76.573463 -398.421143
vertex -188.264008 -79.315758 -397.883209
vertex -17.352695 -79.315758 -397.883209
endloop
endfacet
facet normal 0.000000 -0.981299 0.192490
outer loop
vertex -16.315111 -79.700729 -399.845734
vertex -17.352695 -79.315758 -397.883209
vertex -188.264008 -79.315758 -397.883209
endloop
endfacet
facet normal 0.000000 0.192493 0.981298
outer loop
vertex -17.352695 -76.573463 -398.421143
vertex -188.264008 -76.573463 -398.421143
vertex -17.352695 -79.315758 -397.883209
endloop
endfacet
facet normal 0.332062 0.181570 0.925617
outer loop
vertex -16.882675 -79.347626 -398.045685
vertex -17.352695 -76.573463 -398.421143
vertex -17.352695 -79.315758 -397.883209
endloop
endfacet
facet normal 0.000040 -0.981299 0.192488
outer loop
vertex -16.882675 -79.347626 -398.045685
vertex -17.352695 -79.315758 -397.883209
vertex -16.315111 -79.700729 -399.845734
endloop
endfacet
facet normal -0.382640 0.177840 0.906620
outer loop
vertex -188.794312 -76.615753 -398.636719
vertex -188.264008 -79.315758 -397.883209
vertex -188.264008 -76.573463 -398.421143
endloop
endfacet
facet normal -0.382644 0.177833 0.906620
outer loop
vertex -188.794312 -79.358047 -398.098785
vertex -188.264008 -79.315758 -397.883209
vertex -188.794312 -76.615753 -398.636719
endloop
endfacet
facet normal 0.000000 -0.981293 0.192520
outer loop
vertex -188.794312 -79.358047 -398.098785
vertex -16.315111 -79.700729 -399.845734
vertex -188.264008 -79.315758 -397.883209
endloop
endfacet
facet normal 0.000000 -0.981298 0.192495
outer loop
vertex -188.264008 -76.092232 -395.967926
vertex -188.264008 -76.573463 -398.421143
vertex -17.352695 -76.573463 -398.421143
endloop
endfacet
facet normal 0.000000 -0.981299 0.192490
outer loop
vertex -188.264008 -76.092232 -395.967926
vertex -188.794312 -76.049942 -395.752350
vertex -188.264008 -76.573463 -398.421143
endloop
endfacet
facet normal 0.000000 -0.981297 0.192500
outer loop
vertex -188.794312 -76.615753 -398.636719
vertex -188.264008 -76.573463 -398.421143
vertex -188.794312 -76.049942 -395.752350
endloop
endfacet
facet normal 0.000000 -0.981298 0.192496
outer loop
vertex -18.258244 -76.092232 -395.967926
vertex -188.264008 -76.092232 -395.967926
vertex -17.352695 -76.573463 -398.421143
endloop
endfacet
facet normal 0.000000 -0.981298 0.192496
outer loop
vertex -17.710535 -76.046478 -395.734680
vertex -18.258244 -76.092232 -395.967926
vertex -17.352695 -76.573463 -398.421143
endloop
endfacet
facet normal 0.000041 -0.981298 0.192493
outer loop
vertex -17.509912 -75.938232 -395.182861
vertex -17.710535 -76.046478 -395.734680
vertex -17.352695 -76.573463 -398.421143
endloop
endfacet
facet normal 0.000000 -0.981298 0.192493
outer loop
vertex -17.053467 -76.314850 -397.102783
vertex -17.509912 -75.938232 -395.182861
vertex -17.352695 -76.573463 -398.421143
endloop
endfacet
facet normal 0.000022 -0.981297 0.192502
outer loop
vertex -16.882675 -76.605331 -398.583618
vertex -17.053467 -76.314850 -397.102783
vertex -17.352695 -76.573463 -398.421143
endloop
endfacet
facet normal 0.332382 0.181550 0.925506
outer loop
vertex -16.882675 -79.347626 -398.045685
vertex -16.882675 -76.605331 -398.583618
vertex -17.352695 -76.573463 -398.421143
endloop
endfacet
facet normal -0.382736 -0.177846 -0.906578
outer loop
vertex -188.794312 -78.134216 -395.343475
vertex -188.794312 -76.049942 -395.752350
vertex -188.264008 -76.092232 -395.967926
endloop
endfacet
facet normal 0.000000 -0.192501 -0.981297
outer loop
vertex -188.264008 -78.176506 -395.559052
vertex -188.264008 -76.092232 -395.967926
vertex -18.258244 -76.092232 -395.967926
endloop
endfacet
facet normal -0.382678 -0.177847 -0.906602
outer loop
vertex -188.794312 -78.134216 -395.343475
vertex -188.264008 -76.092232 -395.967926
vertex -188.264008 -78.176506 -395.559052
endloop
endfacet
facet normal 0.398119 -0.176587 -0.900177
outer loop
vertex -18.258244 -78.176506 -395.559052
vertex -18.258244 -76.092232 -395.967926
vertex -17.710535 -76.046478 -395.734680
endloop
endfacet
facet normal 0.000000 -0.192502 -0.981296
outer loop
vertex -18.258244 -78.176506 -395.559052
vertex -188.264008 -78.176506 -395.559052
vertex -18.258244 -76.092232 -395.967926
endloop
endfacet
facet normal 0.941871 -0.064671 -0.329692
outer loop
vertex -17.710535 -78.130760 -395.325836
vertex -17.710535 -76.046478 -395.734680
vertex -17.509912 -75.938232 -395.182861
endloop
endfacet
facet normal 0.397960 -0.176590 -0.900247
outer loop
vertex -17.710535 -78.130760 -395.325836
vertex -18.258244 -78.176506 -395.559052
vertex -17.710535 -76.046478 -395.734680
endloop
endfacet
facet normal 0.973849 0.043735 0.222946
outer loop
vertex -17.509912 -74.931419 -395.380371
vertex -17.509912 -75.938232 -395.182861
vertex -17.053467 -76.314850 -397.102783
endloop
endfacet
facet normal 0.941838 -0.064689 -0.329783
outer loop
vertex -17.710535 -78.130760 -395.325836
vertex -17.509912 -75.938232 -395.182861
vertex -17.509912 -78.022514 -394.774017
endloop
endfacet
facet normal 0.000000 0.192489 0.981299
outer loop
vertex -117.814003 -74.931419 -395.380371
vertex -17.509912 -78.022514 -394.774017
vertex -17.509912 -75.938232 -395.182861
endloop
endfacet
facet normal 0.000000 0.192503 0.981296
outer loop
vertex -117.814003 -74.931419 -395.380371
vertex -17.509912 -75.938232 -395.182861
vertex -17.509912 -74.931419 -395.380371
endloop
endfacet
facet normal 0.000000 -0.981294 0.192515
outer loop
vertex -16.882675 -76.605331 -398.583618
vertex -16.620153 -76.686867 -398.999268
vertex -17.053467 -76.314850 -397.102783
endloop
endfacet
facet normal 0.975637 0.058696 0.211394
outer loop
vertex -17.509912 -74.931419 -395.380371
vertex -17.053467 -76.314850 -397.102783
vertex -16.620153 -76.686867 -398.999268
endloop
endfacet
facet normal 0.850004 0.101408 0.516924
outer loop
vertex -16.620153 -79.429161 -398.461304
vertex -16.620153 -76.686867 -398.999268
vertex -16.882675 -76.605331 -398.583618
endloop
endfacet
facet normal 0.974996 0.142299 0.170689
outer loop
vertex -17.509912 -74.931419 -395.380371
vertex -16.620153 -76.686867 -398.999268
vertex -14.411604 -77.915123 -410.590668
endloop
endfacet
facet normal 0.982111 0.048284 0.182007
outer loop
vertex -16.315111 -79.700729 -399.845734
vertex -14.411604 -77.915123 -410.590668
vertex -16.620153 -76.686867 -398.999268
endloop
endfacet
facet normal 0.977751 0.041212 0.205679
outer loop
vertex -16.465860 -79.565453 -399.156097
vertex -16.315111 -79.700729 -399.845734
vertex -16.620153 -76.686867 -398.999268
endloop
endfacet
facet normal 0.977072 0.040986 0.208927
outer loop
vertex -16.620153 -79.429161 -398.461304
vertex -16.465860 -79.565453 -399.156097
vertex -16.620153 -76.686867 -398.999268
endloop
endfacet
facet normal 0.849964 0.101411 0.516988
outer loop
vertex -16.882675 -79.347626 -398.045685
vertex -16.620153 -79.429161 -398.461304
vertex -16.882675 -76.605331 -398.583618
endloop
endfacet
facet normal 0.000000 -0.981299 0.192492
outer loop
vertex -117.814003 -78.022514 -394.774017
vertex -188.264008 -78.176506 -395.559052
vertex -18.258244 -78.176506 -395.559052
endloop
endfacet
facet normal -0.000000 -0.981297 0.192497
outer loop
vertex -117.914001 -78.003265 -394.675873
vertex -117.963997 -77.810768 -393.694580
vertex -188.264008 -78.176506 -395.559052
endloop
endfacet
facet normal 0.000003 -0.981330 0.192332
outer loop
vertex -117.884697 -78.016869 -394.745270
vertex -117.914001 -78.003265 -394.675873
vertex -188.264008 -78.176506 -395.559052
endloop
endfacet
facet normal -0.000004 -0.981295 0.192508
outer loop
vertex -117.814003 -78.022514 -394.774017
vertex -117.884697 -78.016869 -394.745270
vertex -188.264008 -78.176506 -395.559052
endloop
endfacet
facet normal 0.000000 -0.981307 0.192449
outer loop
vertex -17.710535 -78.130760 -395.325836
vertex -117.814003 -78.022514 -394.774017
vertex -18.258244 -78.176506 -395.559052
endloop
endfacet
facet normal -0.000060 -0.981298 0.192495
outer loop
vertex -117.914001 -78.003265 -394.675873
vertex -117.914001 -77.820389 -393.743652
vertex -117.963997 -77.810768 -393.694580
endloop
endfacet
facet normal 0.707082 0.136095 0.693912
outer loop
vertex -117.914001 -74.729301 -394.350006
vertex -117.963997 -77.810768 -393.694580
vertex -117.914001 -77.820389 -393.743652
endloop
endfacet
facet normal 0.707064 0.136206 0.693908
outer loop
vertex -117.914001 -74.729301 -394.350006
vertex -117.963997 -74.719681 -394.300934
vertex -117.963997 -77.810768 -393.694580
endloop
endfacet
facet normal 1.000000 -0.000005 0.000000
outer loop
vertex -117.914001 -74.912170 -395.282257
vertex -117.914001 -77.820389 -393.743652
vertex -117.914001 -78.003265 -394.675873
endloop
endfacet
facet normal 1.000000 0.000000 0.000000
outer loop
vertex -117.914001 -74.729301 -394.350006
vertex -117.914001 -77.820389 -393.743652
vertex -117.914001 -74.912170 -395.282257
endloop
endfacet
facet normal 0.923824 0.073689 0.375658
outer loop
vertex -117.914001 -74.912170 -395.282257
vertex -117.914001 -78.003265 -394.675873
vertex -117.884697 -78.016869 -394.745270
endloop
endfacet
facet normal 0.382302 0.177837 0.906763
outer loop
vertex -117.884697 -74.925781 -395.351624
vertex -117.884697 -78.016869 -394.745270
vertex -117.814003 -78.022514 -394.774017
endloop
endfacet
facet normal 0.923757 0.073751 0.375810
outer loop
vertex -117.914001 -74.912170 -395.282257
vertex -117.884697 -78.016869 -394.745270
vertex -117.884697 -74.925781 -395.351624
endloop
endfacet
facet normal 0.000000 -0.981299 0.192492
outer loop
vertex -17.710535 -78.130760 -395.325836
vertex -17.509912 -78.022514 -394.774017
vertex -117.814003 -78.022514 -394.774017
endloop
endfacet
facet normal 0.000000 0.192493 0.981298
outer loop
vertex -117.814003 -74.931419 -395.380371
vertex -117.814003 -78.022514 -394.774017
vertex -17.509912 -78.022514 -394.774017
endloop
endfacet
facet normal 0.383709 0.177744 0.906187
outer loop
vertex -117.884697 -74.925781 -395.351624
vertex -117.814003 -78.022514 -394.774017
vertex -117.814003 -74.931419 -395.380371
endloop
endfacet
facet normal -0.000078 0.981276 -0.192605
outer loop
vertex -172.205002 -85.614868 -449.842407
vertex -117.963997 -74.719681 -394.300934
vertex -117.914001 -74.729301 -394.350006
endloop
endfacet
facet normal 0.000000 0.981298 -0.192495
outer loop
vertex -12.843998 -80.433098 -423.426819
vertex -12.843998 -84.740196 -445.383484
vertex -14.760621 -87.379974 -458.840576
endloop
endfacet
facet normal 0.000006 0.981298 -0.192494
outer loop
vertex -14.411604 -77.915123 -410.590668
vertex -12.843998 -80.433098 -423.426819
vertex -14.760621 -87.379974 -458.840576
endloop
endfacet
facet normal 0.965742 -0.001481 -0.259501
outer loop
vertex -16.267580 -93.037277 -464.417328
vertex -16.455885 -93.174614 -465.117432
vertex -14.760621 -87.379974 -458.840576
endloop
endfacet
facet normal 0.967817 -0.009842 -0.251462
outer loop
vertex -16.079903 -92.896706 -463.700714
vertex -16.267580 -93.037277 -464.417328
vertex -14.760621 -87.379974 -458.840576
endloop
endfacet
facet normal 0.707102 0.693887 -0.136115
outer loop
vertex -12.393979 -83.089531 -434.630920
vertex -12.843998 -84.740196 -445.383484
vertex -12.843998 -80.433098 -423.426819
endloop
endfacet
facet normal 0.999236 0.007586 0.038336
outer loop
vertex -12.393979 -83.089531 -434.630920
vertex -12.843998 -80.433098 -423.426819
vertex -12.393974 -86.386391 -433.978638
endloop
endfacet
facet normal 0.000000 0.981298 -0.192495
outer loop
vertex -74.963997 -85.614868 -449.842407
vertex -117.814003 -74.931419 -395.380371
vertex -17.509912 -74.931419 -395.380371
endloop
endfacet
facet normal 0.000000 0.981300 -0.192484
outer loop
vertex -73.903343 -85.699440 -450.273529
vertex -74.963997 -85.614868 -449.842407
vertex -17.509912 -74.931419 -395.380371
endloop
endfacet
facet normal 0.000000 0.981298 -0.192496
outer loop
vertex -73.463997 -85.903610 -451.314362
vertex -73.903343 -85.699440 -450.273529
vertex -17.509912 -74.931419 -395.380371
endloop
endfacet
facet normal -0.000057 0.981294 -0.192516
outer loop
vertex -73.903343 -86.107780 -452.355194
vertex -73.463997 -85.903610 -451.314362
vertex -17.509912 -74.931419 -395.380371
endloop
endfacet
facet normal -0.000043 0.981282 -0.192577
outer loop
vertex -172.205002 -85.614868 -449.842407
vertex -117.884697 -74.925781 -395.351624
vertex -117.814003 -74.931419 -395.380371
endloop
endfacet
facet normal 0.000000 0.981298 -0.192494
outer loop
vertex -172.205002 -85.614868 -449.842407
vertex -117.814003 -74.931419 -395.380371
vertex -74.963997 -85.614868 -449.842407
endloop
endfacet
facet normal -0.000082 0.981305 -0.192458
outer loop
vertex -172.205002 -85.614868 -449.842407
vertex -117.914001 -74.912170 -395.282257
vertex -117.884697 -74.925781 -395.351624
endloop
endfacet
facet normal 0.000004 0.981300 -0.192482
outer loop
vertex -172.205002 -85.614868 -449.842407
vertex -117.914001 -74.729301 -394.350006
vertex -117.914001 -74.912170 -395.282257
endloop
endfacet
facet normal 0.004491 -0.981383 0.192010
outer loop
vertex -16.620153 -79.429161 -398.461304
vertex -16.315111 -79.700729 -399.845734
vertex -16.465860 -79.565453 -399.156097
endloop
endfacet
facet normal -0.000127 -0.981303 0.192471
outer loop
vertex -16.882675 -79.347626 -398.045685
vertex -16.315111 -79.700729 -399.845734
vertex -16.620153 -79.429161 -398.461304
endloop
endfacet
endsolid Exported from Blender-3.1.0
