solid P1040852002
  facet normal -1.000000e+00 4.015144e-13 2.677684e-12
    outer loop
      vertex -1.890140e+02 -8.459559e+01 -4.687083e+02
      vertex -1.890140e+02 -7.565015e+01 -3.997300e+02
      vertex -1.890140e+02 -7.542156e+01 -3.985012e+02
    endloop
  endfacet
  facet normal 5.010478e-13 -9.831342e-01 1.828854e-01
    outer loop
      vertex -1.631511e+01 -7.565015e+01 -3.997300e+02
      vertex -1.890140e+02 -7.542156e+01 -3.985012e+02
      vertex -1.890140e+02 -7.565015e+01 -3.997300e+02
    endloop
  endfacet
  facet normal -1.000000e+00 -9.149868e-15 2.731346e-12
    outer loop
      vertex -1.890140e+02 -7.267413e+01 -3.990123e+02
      vertex -1.890140e+02 -8.459559e+01 -4.687083e+02
      vertex -1.890140e+02 -7.542156e+01 -3.985012e+02
    endloop
  endfacet
  facet normal -9.238695e-01 6.999165e-02 3.762530e-01
    outer loop
      vertex -1.887943e+02 -7.532457e+01 -3.979798e+02
      vertex -1.890140e+02 -7.267413e+01 -3.990123e+02
      vertex -1.890140e+02 -7.542156e+01 -3.985012e+02
    endloop
  endfacet
  facet normal 5.011676e-13 -9.831342e-01 1.828854e-01
    outer loop
      vertex -1.887943e+02 -7.532457e+01 -3.979798e+02
      vertex -1.890140e+02 -7.542156e+01 -3.985012e+02
      vertex -1.631511e+01 -7.565015e+01 -3.997300e+02
    endloop
  endfacet
  facet normal -1.000000e+00 -6.873099e-14 2.738668e-12
    outer loop
      vertex -1.890140e+02 -8.459559e+01 -4.687083e+02
      vertex -1.890140e+02 -7.574846e+01 -3.997117e+02
      vertex -1.890140e+02 -7.565015e+01 -3.997300e+02
    endloop
  endfacet
  facet normal 2.684223e-12 1.828854e-01 9.831342e-01
    outer loop
      vertex -1.631511e+01 -7.574846e+01 -3.997117e+02
      vertex -1.890140e+02 -7.565015e+01 -3.997300e+02
      vertex -1.890140e+02 -7.574846e+01 -3.997117e+02
    endloop
  endfacet
  facet normal 2.683576e-12 1.828854e-01 9.831342e-01
    outer loop
      vertex -1.631511e+01 -7.565015e+01 -3.997300e+02
      vertex -1.890140e+02 -7.565015e+01 -3.997300e+02
      vertex -1.631511e+01 -7.574846e+01 -3.997117e+02
    endloop
  endfacet
  facet normal -1.000000e+00 -2.036417e-13 2.769532e-12
    outer loop
      vertex -1.890140e+02 -8.822081e+01 -4.637110e+02
      vertex -1.890140e+02 -8.829988e+01 -4.636963e+02
      vertex -1.890140e+02 -7.574846e+01 -3.997117e+02
    endloop
  endfacet
  facet normal 5.282062e-13 -9.812980e-01 1.924945e-01
    outer loop
      vertex -1.722050e+02 -7.984881e+01 -4.206145e+02
      vertex -1.890140e+02 -7.574846e+01 -3.997117e+02
      vertex -1.890140e+02 -8.829988e+01 -4.636963e+02
    endloop
  endfacet
  facet normal -1.000000e+00 -1.327651e-16 2.729872e-12
    outer loop
      vertex -1.890140e+02 -8.459559e+01 -4.687083e+02
      vertex -1.890140e+02 -8.822081e+01 -4.637110e+02
      vertex -1.890140e+02 -7.574846e+01 -3.997117e+02
    endloop
  endfacet
  facet normal 5.274040e-13 -9.812980e-01 1.924945e-01
    outer loop
      vertex -7.496400e+01 -7.927130e+01 -4.176704e+02
      vertex -1.631511e+01 -7.574846e+01 -3.997117e+02
      vertex -1.890140e+02 -7.574846e+01 -3.997117e+02
    endloop
  endfacet
  facet normal 5.274378e-13 -9.812980e-01 1.924945e-01
    outer loop
      vertex -1.722050e+02 -7.927130e+01 -4.176704e+02
      vertex -7.496400e+01 -7.927130e+01 -4.176704e+02
      vertex -1.890140e+02 -7.574846e+01 -3.997117e+02
    endloop
  endfacet
  facet normal 5.210426e-13 -9.812980e-01 1.924945e-01
    outer loop
      vertex -1.722050e+02 -7.984881e+01 -4.206145e+02
      vertex -1.722050e+02 -7.927130e+01 -4.176704e+02
      vertex -1.890140e+02 -7.574846e+01 -3.997117e+02
    endloop
  endfacet
  facet normal -2.683804e-12 -1.828854e-01 -9.831342e-01
    outer loop
      vertex -1.607990e+01 -8.822081e+01 -4.637110e+02
      vertex -1.890140e+02 -8.829988e+01 -4.636963e+02
      vertex -1.890140e+02 -8.822081e+01 -4.637110e+02
    endloop
  endfacet
  facet normal 5.273148e-13 -9.812980e-01 1.924945e-01
    outer loop
      vertex -1.722050e+02 -7.984881e+01 -4.206145e+02
      vertex -1.890140e+02 -8.829988e+01 -4.636963e+02
      vertex -1.607990e+01 -8.829988e+01 -4.636963e+02
    endloop
  endfacet
  facet normal -2.683804e-12 -1.828854e-01 -9.831342e-01
    outer loop
      vertex -1.607990e+01 -8.822081e+01 -4.637110e+02
      vertex -1.607990e+01 -8.829988e+01 -4.636963e+02
      vertex -1.890140e+02 -8.829988e+01 -4.636963e+02
    endloop
  endfacet
  facet normal -1.000000e+00 1.405713e-14 2.726422e-12
    outer loop
      vertex -1.890140e+02 -8.752723e+01 -4.651115e+02
      vertex -1.890140e+02 -8.844941e+01 -4.649399e+02
      vertex -1.890140e+02 -8.822081e+01 -4.637110e+02
    endloop
  endfacet
  facet normal 5.582413e-13 -9.831342e-01 1.828854e-01
    outer loop
      vertex -1.887943e+02 -8.854640e+01 -4.654613e+02
      vertex -1.890140e+02 -8.822081e+01 -4.637110e+02
      vertex -1.890140e+02 -8.844941e+01 -4.649399e+02
    endloop
  endfacet
  facet normal -1.000000e+00 -4.564933e-14 2.696852e-12
    outer loop
      vertex -1.890140e+02 -8.459559e+01 -4.687083e+02
      vertex -1.890140e+02 -8.752723e+01 -4.651115e+02
      vertex -1.890140e+02 -8.822081e+01 -4.637110e+02
    endloop
  endfacet
  facet normal 5.009573e-13 -9.831342e-01 1.828854e-01
    outer loop
      vertex -1.718043e+01 -8.858658e+01 -4.656773e+02
      vertex -1.890140e+02 -8.822081e+01 -4.637110e+02
      vertex -1.882640e+02 -8.858658e+01 -4.656773e+02
    endloop
  endfacet
  facet normal 5.227971e-13 -9.831342e-01 1.828854e-01
    outer loop
      vertex -1.887943e+02 -8.854640e+01 -4.654613e+02
      vertex -1.882640e+02 -8.858658e+01 -4.656773e+02
      vertex -1.890140e+02 -8.822081e+01 -4.637110e+02
    endloop
  endfacet
  facet normal 5.021618e-13 -9.831342e-01 1.828854e-01
    outer loop
      vertex -1.672372e+01 -8.855821e+01 -4.655248e+02
      vertex -1.890140e+02 -8.822081e+01 -4.637110e+02
      vertex -1.718043e+01 -8.858658e+01 -4.656773e+02
    endloop
  endfacet
  facet normal 5.010350e-13 -9.831342e-01 1.828854e-01
    outer loop
      vertex -1.626758e+01 -8.835436e+01 -4.644290e+02
      vertex -1.890140e+02 -8.822081e+01 -4.637110e+02
      vertex -1.645588e+01 -8.848484e+01 -4.651304e+02
    endloop
  endfacet
  facet normal 5.009502e-13 -9.831342e-01 1.828854e-01
    outer loop
      vertex -1.672372e+01 -8.855821e+01 -4.655248e+02
      vertex -1.645588e+01 -8.848484e+01 -4.651304e+02
      vertex -1.890140e+02 -8.822081e+01 -4.637110e+02
    endloop
  endfacet
  facet normal 5.010877e-13 -9.831342e-01 1.828854e-01
    outer loop
      vertex -1.607990e+01 -8.822081e+01 -4.637110e+02
      vertex -1.890140e+02 -8.822081e+01 -4.637110e+02
      vertex -1.626758e+01 -8.835436e+01 -4.644290e+02
    endloop
  endfacet
  facet normal -9.238695e-01 -6.999165e-02 -3.762530e-01
    outer loop
      vertex -1.887943e+02 -8.762422e+01 -4.656329e+02
      vertex -1.890140e+02 -8.844941e+01 -4.649399e+02
      vertex -1.890140e+02 -8.752723e+01 -4.651115e+02
    endloop
  endfacet
  facet normal -9.238695e-01 -6.999165e-02 -3.762530e-01
    outer loop
      vertex -1.887943e+02 -8.854640e+01 -4.654613e+02
      vertex -1.890140e+02 -8.844941e+01 -4.649399e+02
      vertex -1.887943e+02 -8.762422e+01 -4.656329e+02
    endloop
  endfacet
  facet normal -1.000000e+00 2.683529e-15 2.736247e-12
    outer loop
      vertex -1.890140e+02 -8.459559e+01 -4.687083e+02
      vertex -1.890140e+02 -8.807589e+01 -4.680609e+02
      vertex -1.890140e+02 -8.752723e+01 -4.651115e+02
    endloop
  endfacet
  facet normal 5.020516e-13 -9.831342e-01 1.828854e-01
    outer loop
      vertex -1.887943e+02 -8.762422e+01 -4.656329e+02
      vertex -1.890140e+02 -8.752723e+01 -4.651115e+02
      vertex -1.890140e+02 -8.807589e+01 -4.680609e+02
    endloop
  endfacet
  facet normal -2.683784e-12 -1.828854e-01 -9.831342e-01
    outer loop
      vertex -1.724473e+01 -8.459559e+01 -4.687083e+02
      vertex -1.890140e+02 -8.807589e+01 -4.680609e+02
      vertex -1.890140e+02 -8.459559e+01 -4.687083e+02
    endloop
  endfacet
  facet normal -2.683784e-12 -1.828854e-01 -9.831342e-01
    outer loop
      vertex -1.724473e+01 -8.459559e+01 -4.687083e+02
      vertex -1.724473e+01 -8.807589e+01 -4.680609e+02
      vertex -1.890140e+02 -8.807589e+01 -4.680609e+02
    endloop
  endfacet
  facet normal 5.010965e-13 -9.831342e-01 1.828854e-01
    outer loop
      vertex -1.882640e+02 -8.766439e+01 -4.658488e+02
      vertex -1.890140e+02 -8.807589e+01 -4.680609e+02
      vertex -1.724473e+01 -8.807589e+01 -4.680609e+02
    endloop
  endfacet
  facet normal 5.199043e-13 -9.831342e-01 1.828854e-01
    outer loop
      vertex -1.887943e+02 -8.762422e+01 -4.656329e+02
      vertex -1.890140e+02 -8.807589e+01 -4.680609e+02
      vertex -1.882640e+02 -8.766439e+01 -4.658488e+02
    endloop
  endfacet
  facet normal -1.000000e+00 -1.536384e-14 2.732536e-12
    outer loop
      vertex -1.890140e+02 -7.194259e+01 -3.950797e+02
      vertex -1.890140e+02 -7.072358e+01 -3.941368e+02
      vertex -1.890140e+02 -8.459559e+01 -4.687083e+02
    endloop
  endfacet
  facet normal -5.002982e-13 9.831342e-01 -1.828854e-01
    outer loop
      vertex -1.722050e+02 -7.524085e+01 -4.184202e+02
      vertex -1.890140e+02 -8.459559e+01 -4.687083e+02
      vertex -1.890140e+02 -7.072358e+01 -3.941368e+02
    endloop
  endfacet
  facet normal -1.000000e+00 1.433734e-13 2.705257e-12
    outer loop
      vertex -1.890140e+02 -7.267413e+01 -3.990123e+02
      vertex -1.890140e+02 -7.194259e+01 -3.950797e+02
      vertex -1.890140e+02 -8.459559e+01 -4.687083e+02
    endloop
  endfacet
  facet normal -5.010996e-13 9.831342e-01 -1.828854e-01
    outer loop
      vertex -7.496400e+01 -7.578951e+01 -4.213696e+02
      vertex -1.724473e+01 -8.459559e+01 -4.687083e+02
      vertex -1.890140e+02 -8.459559e+01 -4.687083e+02
    endloop
  endfacet
  facet normal -5.013416e-13 9.831342e-01 -1.828854e-01
    outer loop
      vertex -1.722050e+02 -7.578951e+01 -4.213696e+02
      vertex -7.496400e+01 -7.578951e+01 -4.213696e+02
      vertex -1.890140e+02 -8.459559e+01 -4.687083e+02
    endloop
  endfacet
  facet normal -4.623100e-13 9.831342e-01 -1.828854e-01
    outer loop
      vertex -1.722050e+02 -7.524085e+01 -4.184202e+02
      vertex -1.722050e+02 -7.578951e+01 -4.213696e+02
      vertex -1.890140e+02 -8.459559e+01 -4.687083e+02
    endloop
  endfacet
  facet normal -1.000000e+00 -7.516058e-15 2.722390e-12
    outer loop
      vertex -1.890140e+02 -7.194259e+01 -3.950797e+02
      vertex -1.890140e+02 -7.382045e+01 -3.935607e+02
      vertex -1.890140e+02 -7.072358e+01 -3.941368e+02
    endloop
  endfacet
  facet normal 2.685042e-12 1.828854e-01 9.831342e-01
    outer loop
      vertex -1.179640e+02 -7.382045e+01 -3.935607e+02
      vertex -1.890140e+02 -7.072358e+01 -3.941368e+02
      vertex -1.890140e+02 -7.382045e+01 -3.935607e+02
    endloop
  endfacet
  facet normal 2.683395e-12 1.828854e-01 9.831342e-01
    outer loop
      vertex -1.179640e+02 -7.072358e+01 -3.941368e+02
      vertex -1.890140e+02 -7.072358e+01 -3.941368e+02
      vertex -1.179640e+02 -7.382045e+01 -3.935607e+02
    endloop
  endfacet
  facet normal -5.010099e-13 9.831342e-01 -1.828854e-01
    outer loop
      vertex -1.722050e+02 -7.524085e+01 -4.184202e+02
      vertex -1.890140e+02 -7.072358e+01 -3.941368e+02
      vertex -1.179640e+02 -7.072358e+01 -3.941368e+02
    endloop
  endfacet
  facet normal -1.000000e+00 5.917293e-15 2.738997e-12
    outer loop
      vertex -1.890140e+02 -7.194259e+01 -3.950797e+02
      vertex -1.890140e+02 -7.403077e+01 -3.946913e+02
      vertex -1.890140e+02 -7.382045e+01 -3.935607e+02
    endloop
  endfacet
  facet normal 5.538291e-13 -9.831342e-01 1.828854e-01
    outer loop
      vertex -1.887943e+02 -7.412776e+01 -3.952127e+02
      vertex -1.890140e+02 -7.382045e+01 -3.935607e+02
      vertex -1.890140e+02 -7.403077e+01 -3.946913e+02
    endloop
  endfacet
  facet normal 5.009032e-13 -9.831342e-01 1.828854e-01
    outer loop
      vertex -1.179640e+02 -7.382045e+01 -3.935607e+02
      vertex -1.890140e+02 -7.382045e+01 -3.935607e+02
      vertex -1.882640e+02 -7.416793e+01 -3.954286e+02
    endloop
  endfacet
  facet normal 4.800494e-13 -9.831342e-01 1.828854e-01
    outer loop
      vertex -1.887943e+02 -7.412776e+01 -3.952127e+02
      vertex -1.882640e+02 -7.416793e+01 -3.954286e+02
      vertex -1.890140e+02 -7.382045e+01 -3.935607e+02
    endloop
  endfacet
  facet normal -9.238695e-01 -6.999165e-02 -3.762530e-01
    outer loop
      vertex -1.887943e+02 -7.203958e+01 -3.956011e+02
      vertex -1.890140e+02 -7.403077e+01 -3.946913e+02
      vertex -1.890140e+02 -7.194259e+01 -3.950797e+02
    endloop
  endfacet
  facet normal -9.238695e-01 -6.999165e-02 -3.762530e-01
    outer loop
      vertex -1.887943e+02 -7.412776e+01 -3.952127e+02
      vertex -1.890140e+02 -7.403077e+01 -3.946913e+02
      vertex -1.887943e+02 -7.203958e+01 -3.956011e+02
    endloop
  endfacet
  facet normal 4.940076e-13 -9.831342e-01 1.828854e-01
    outer loop
      vertex -1.887943e+02 -7.257715e+01 -3.984909e+02
      vertex -1.890140e+02 -7.194259e+01 -3.950797e+02
      vertex -1.890140e+02 -7.267413e+01 -3.990123e+02
    endloop
  endfacet
  facet normal 5.202746e-13 -9.831342e-01 1.828854e-01
    outer loop
      vertex -1.887943e+02 -7.257715e+01 -3.984909e+02
      vertex -1.887943e+02 -7.203958e+01 -3.956011e+02
      vertex -1.890140e+02 -7.194259e+01 -3.950797e+02
    endloop
  endfacet
  facet normal -9.238695e-01 6.999165e-02 3.762530e-01
    outer loop
      vertex -1.887943e+02 -7.532457e+01 -3.979798e+02
      vertex -1.887943e+02 -7.257715e+01 -3.984909e+02
      vertex -1.890140e+02 -7.267413e+01 -3.990123e+02
    endloop
  endfacet
  facet normal 9.709570e-01 -4.375606e-02 -2.352188e-01
    outer loop
      vertex -1.476062e+01 -8.275189e+01 -4.587971e+02
      vertex -1.724473e+01 -8.807589e+01 -4.680609e+02
      vertex -1.724473e+01 -8.459559e+01 -4.687083e+02
    endloop
  endfacet
  facet normal 5.010389e-13 -9.831342e-01 1.828854e-01
    outer loop
      vertex -1.718043e+01 -8.766439e+01 -4.658488e+02
      vertex -1.882640e+02 -8.766439e+01 -4.658488e+02
      vertex -1.724473e+01 -8.807589e+01 -4.680609e+02
    endloop
  endfacet
  facet normal 4.536114e-13 -9.831342e-01 1.828854e-01
    outer loop
      vertex -1.685008e+01 -8.782541e+01 -4.667144e+02
      vertex -1.718043e+01 -8.766439e+01 -4.658488e+02
      vertex -1.724473e+01 -8.807589e+01 -4.680609e+02
    endloop
  endfacet
  facet normal 9.546893e-01 6.128597e-02 -2.912256e-01
    outer loop
      vertex -1.476062e+01 -8.275189e+01 -4.587971e+02
      vertex -1.685008e+01 -8.782541e+01 -4.667144e+02
      vertex -1.724473e+01 -8.807589e+01 -4.680609e+02
    endloop
  endfacet
  facet normal -4.897327e-13 9.831342e-01 -1.828854e-01
    outer loop
      vertex -1.441160e+01 -7.375951e+01 -4.104570e+02
      vertex -1.476062e+01 -8.275189e+01 -4.587971e+02
      vertex -1.724473e+01 -8.459559e+01 -4.687083e+02
    endloop
  endfacet
  facet normal -4.997427e-13 9.831342e-01 -1.828854e-01
    outer loop
      vertex -1.750991e+01 -7.092475e+01 -3.952182e+02
      vertex -1.441160e+01 -7.375951e+01 -4.104570e+02
      vertex -1.724473e+01 -8.459559e+01 -4.687083e+02
    endloop
  endfacet
  facet normal -5.012225e-13 9.831342e-01 -1.828854e-01
    outer loop
      vertex -7.496400e+01 -7.578951e+01 -4.213696e+02
      vertex -1.750991e+01 -7.092475e+01 -3.952182e+02
      vertex -1.724473e+01 -8.459559e+01 -4.687083e+02
    endloop
  endfacet
  facet normal -2.683435e-12 -1.828854e-01 -9.831342e-01
    outer loop
      vertex -1.882640e+02 -8.858658e+01 -4.656773e+02
      vertex -1.882640e+02 -8.766439e+01 -4.658488e+02
      vertex -1.718043e+01 -8.766439e+01 -4.658488e+02
    endloop
  endfacet
  facet normal -3.827076e-01 -1.689623e-01 -9.082877e-01
    outer loop
      vertex -1.887943e+02 -8.854640e+01 -4.654613e+02
      vertex -1.887943e+02 -8.762422e+01 -4.656329e+02
      vertex -1.882640e+02 -8.766439e+01 -4.658488e+02
    endloop
  endfacet
  facet normal -3.827076e-01 -1.689623e-01 -9.082877e-01
    outer loop
      vertex -1.887943e+02 -8.854640e+01 -4.654613e+02
      vertex -1.882640e+02 -8.766439e+01 -4.658488e+02
      vertex -1.882640e+02 -8.858658e+01 -4.656773e+02
    endloop
  endfacet
  facet normal 5.132879e-13 -9.831342e-01 1.828854e-01
    outer loop
      vertex -1.685008e+01 -8.782541e+01 -4.667144e+02
      vertex -1.672372e+01 -8.763602e+01 -4.656963e+02
      vertex -1.718043e+01 -8.766439e+01 -4.658488e+02
    endloop
  endfacet
  facet normal 3.216048e-01 -1.731695e-01 -9.309042e-01
    outer loop
      vertex -1.718043e+01 -8.858658e+01 -4.656773e+02
      vertex -1.718043e+01 -8.766439e+01 -4.658488e+02
      vertex -1.672372e+01 -8.763602e+01 -4.656963e+02
    endloop
  endfacet
  facet normal -2.683450e-12 -1.828854e-01 -9.831342e-01
    outer loop
      vertex -1.718043e+01 -8.858658e+01 -4.656773e+02
      vertex -1.882640e+02 -8.858658e+01 -4.656773e+02
      vertex -1.718043e+01 -8.766439e+01 -4.658488e+02
    endloop
  endfacet
  facet normal 4.623732e-13 -9.831342e-01 1.828854e-01
    outer loop
      vertex -1.685008e+01 -8.782541e+01 -4.667144e+02
      vertex -1.645588e+01 -8.756266e+01 -4.653020e+02
      vertex -1.672372e+01 -8.763602e+01 -4.656963e+02
    endloop
  endfacet
  facet normal 8.316669e-01 -1.015517e-01 -5.459098e-01
    outer loop
      vertex -1.672372e+01 -8.855821e+01 -4.655248e+02
      vertex -1.672372e+01 -8.763602e+01 -4.656963e+02
      vertex -1.645588e+01 -8.756266e+01 -4.653020e+02
    endloop
  endfacet
  facet normal 3.216048e-01 -1.731695e-01 -9.309042e-01
    outer loop
      vertex -1.672372e+01 -8.855821e+01 -4.655248e+02
      vertex -1.718043e+01 -8.858658e+01 -4.656773e+02
      vertex -1.672372e+01 -8.763602e+01 -4.656963e+02
    endloop
  endfacet
  facet normal 9.611395e-01 3.205479e-02 -2.741960e-01
    outer loop
      vertex -1.476062e+01 -8.275189e+01 -4.587971e+02
      vertex -1.645588e+01 -8.756266e+01 -4.653020e+02
      vertex -1.685008e+01 -8.782541e+01 -4.667144e+02
    endloop
  endfacet
  facet normal 9.739069e-01 -4.150548e-02 -2.231203e-01
    outer loop
      vertex -1.645588e+01 -8.848484e+01 -4.651304e+02
      vertex -1.645588e+01 -8.756266e+01 -4.653020e+02
      vertex -1.476062e+01 -8.275189e+01 -4.587971e+02
    endloop
  endfacet
  facet normal 8.316669e-01 -1.015517e-01 -5.459098e-01
    outer loop
      vertex -1.672372e+01 -8.855821e+01 -4.655248e+02
      vertex -1.645588e+01 -8.756266e+01 -4.653020e+02
      vertex -1.645588e+01 -8.848484e+01 -4.651304e+02
    endloop
  endfacet
  facet normal 5.121888e-13 -9.812980e-01 1.924945e-01
    outer loop
      vertex -1.409502e+01 -8.647655e+01 -4.544013e+02
      vertex -1.406351e+01 -7.815119e+01 -4.119603e+02
      vertex -1.631511e+01 -7.574846e+01 -3.997117e+02
    endloop
  endfacet
  facet normal 9.841153e-01 3.246769e-02 1.745360e-01
    outer loop
      vertex -1.631511e+01 -7.565015e+01 -3.997300e+02
      vertex -1.631511e+01 -7.574846e+01 -3.997117e+02
      vertex -1.406351e+01 -7.815119e+01 -4.119603e+02
    endloop
  endfacet
  facet normal 5.212618e-13 -9.812980e-01 1.924945e-01
    outer loop
      vertex -1.607990e+01 -8.829988e+01 -4.636963e+02
      vertex -1.409502e+01 -8.647655e+01 -4.544013e+02
      vertex -1.631511e+01 -7.574846e+01 -3.997117e+02
    endloop
  endfacet
  facet normal 5.271315e-13 -9.812980e-01 1.924945e-01
    outer loop
      vertex -7.346400e+01 -7.956006e+01 -4.191424e+02
      vertex -1.607990e+01 -8.829988e+01 -4.636963e+02
      vertex -1.631511e+01 -7.574846e+01 -3.997117e+02
    endloop
  endfacet
  facet normal 5.291567e-13 -9.812980e-01 1.924945e-01
    outer loop
      vertex -7.346400e+01 -7.956006e+01 -4.191424e+02
      vertex -1.631511e+01 -7.574846e+01 -3.997117e+02
      vertex -7.496400e+01 -7.927130e+01 -4.176704e+02
    endloop
  endfacet
  facet normal 5.593068e-13 -9.812980e-01 1.924945e-01
    outer loop
      vertex -1.284400e+01 -8.453746e+01 -4.445163e+02
      vertex -1.284400e+01 -8.023014e+01 -4.225584e+02
      vertex -1.406351e+01 -7.815119e+01 -4.119603e+02
    endloop
  endfacet
  facet normal 9.934605e-01 4.246245e-02 1.059868e-01
    outer loop
      vertex -1.441160e+01 -7.375951e+01 -4.104570e+02
      vertex -1.406351e+01 -7.815119e+01 -4.119603e+02
      vertex -1.284400e+01 -8.023014e+01 -4.225584e+02
    endloop
  endfacet
  facet normal 5.252222e-13 -9.812980e-01 1.924945e-01
    outer loop
      vertex -1.409502e+01 -8.647655e+01 -4.544013e+02
      vertex -1.284400e+01 -8.453746e+01 -4.445163e+02
      vertex -1.406351e+01 -7.815119e+01 -4.119603e+02
    endloop
  endfacet
  facet normal 9.839472e-01 1.718373e-02 1.776306e-01
    outer loop
      vertex -1.631511e+01 -7.565015e+01 -3.997300e+02
      vertex -1.406351e+01 -7.815119e+01 -4.119603e+02
      vertex -1.441160e+01 -7.375951e+01 -4.104570e+02
    endloop
  endfacet
  facet normal 7.071068e-01 -6.938825e-01 1.361142e-01
    outer loop
      vertex -1.239397e+01 -8.200157e+01 -4.339267e+02
      vertex -1.284400e+01 -8.023014e+01 -4.225584e+02
      vertex -1.284400e+01 -8.453746e+01 -4.445163e+02
    endloop
  endfacet
  facet normal 9.928956e-01 2.176194e-02 1.169822e-01
    outer loop
      vertex -1.441160e+01 -7.375951e+01 -4.104570e+02
      vertex -1.284400e+01 -8.023014e+01 -4.225584e+02
      vertex -1.284400e+01 -7.615179e+01 -4.233171e+02
    endloop
  endfacet
  facet normal 9.992353e-01 7.150509e-03 3.844187e-02
    outer loop
      vertex -1.239397e+01 -8.200157e+01 -4.339267e+02
      vertex -1.284400e+01 -7.615179e+01 -4.233171e+02
      vertex -1.284400e+01 -8.023014e+01 -4.225584e+02
    endloop
  endfacet
  facet normal 9.923758e-01 -2.253991e-02 -1.211702e-01
    outer loop
      vertex -1.284400e+01 -8.024388e+01 -4.453149e+02
      vertex -1.284400e+01 -8.453746e+01 -4.445163e+02
      vertex -1.409502e+01 -8.647655e+01 -4.544013e+02
    endloop
  endfacet
  facet normal 9.991440e-01 -7.566038e-03 -4.066979e-02
    outer loop
      vertex -1.239398e+01 -7.869849e+01 -4.345467e+02
      vertex -1.284400e+01 -8.453746e+01 -4.445163e+02
      vertex -1.284400e+01 -8.024388e+01 -4.453149e+02
    endloop
  endfacet
  facet normal 9.991450e-01 -7.625679e-03 -4.063490e-02
    outer loop
      vertex -1.239398e+01 -7.869849e+01 -4.345467e+02
      vertex -1.239397e+01 -8.200157e+01 -4.339267e+02
      vertex -1.284400e+01 -8.453746e+01 -4.445163e+02
    endloop
  endfacet
  facet normal 9.785627e-01 -5.826185e-02 -1.975361e-01
    outer loop
      vertex -1.476062e+01 -8.275189e+01 -4.587971e+02
      vertex -1.409502e+01 -8.647655e+01 -4.544013e+02
      vertex -1.607990e+01 -8.829988e+01 -4.636963e+02
    endloop
  endfacet
  facet normal 9.897760e-01 8.866591e-03 -1.423550e-01
    outer loop
      vertex -1.284400e+01 -8.024388e+01 -4.453149e+02
      vertex -1.409502e+01 -8.647655e+01 -4.544013e+02
      vertex -1.476062e+01 -8.275189e+01 -4.587971e+02
    endloop
  endfacet
  facet normal 5.272128e-13 -9.812980e-01 1.924945e-01
    outer loop
      vertex -7.496400e+01 -7.984881e+01 -4.206145e+02
      vertex -1.722050e+02 -7.984881e+01 -4.206145e+02
      vertex -1.607990e+01 -8.829988e+01 -4.636963e+02
    endloop
  endfacet
  facet normal 5.318537e-13 -9.812980e-01 1.924945e-01
    outer loop
      vertex -7.346400e+01 -7.956006e+01 -4.191424e+02
      vertex -7.496400e+01 -7.984881e+01 -4.206145e+02
      vertex -1.607990e+01 -8.829988e+01 -4.636963e+02
    endloop
  endfacet
  facet normal 9.753489e-01 -4.035705e-02 -2.169467e-01
    outer loop
      vertex -1.607990e+01 -8.822081e+01 -4.637110e+02
      vertex -1.476062e+01 -8.275189e+01 -4.587971e+02
      vertex -1.607990e+01 -8.829988e+01 -4.636963e+02
    endloop
  endfacet
  facet normal -2.684693e-12 -1.828854e-01 -9.831342e-01
    outer loop
      vertex -7.496400e+01 -7.524085e+01 -4.184202e+02
      vertex -7.496400e+01 -7.927130e+01 -4.176704e+02
      vertex -1.722050e+02 -7.927130e+01 -4.176704e+02
    endloop
  endfacet
  facet normal -7.071068e-01 -1.293195e-01 -6.951809e-01
    outer loop
      vertex -7.346400e+01 -7.551518e+01 -4.198949e+02
      vertex -7.346400e+01 -7.956006e+01 -4.191424e+02
      vertex -7.496400e+01 -7.927130e+01 -4.176704e+02
    endloop
  endfacet
  facet normal -7.071068e-01 -1.293195e-01 -6.951809e-01
    outer loop
      vertex -7.346400e+01 -7.551518e+01 -4.198949e+02
      vertex -7.496400e+01 -7.927130e+01 -4.176704e+02
      vertex -7.496400e+01 -7.524085e+01 -4.184202e+02
    endloop
  endfacet
  facet normal 1.000000e+00 -3.968205e-15 -2.731303e-12
    outer loop
      vertex -1.722050e+02 -7.578951e+01 -4.213696e+02
      vertex -1.722050e+02 -7.927130e+01 -4.176704e+02
      vertex -1.722050e+02 -7.984881e+01 -4.206145e+02
    endloop
  endfacet
  facet normal -2.683516e-12 -1.828854e-01 -9.831342e-01
    outer loop
      vertex -1.722050e+02 -7.524085e+01 -4.184202e+02
      vertex -7.496400e+01 -7.524085e+01 -4.184202e+02
      vertex -1.722050e+02 -7.927130e+01 -4.176704e+02
    endloop
  endfacet
  facet normal 1.000000e+00 4.069304e-16 -2.727185e-12
    outer loop
      vertex -1.722050e+02 -7.524085e+01 -4.184202e+02
      vertex -1.722050e+02 -7.927130e+01 -4.176704e+02
      vertex -1.722050e+02 -7.578951e+01 -4.213696e+02
    endloop
  endfacet
  facet normal 2.683543e-12 1.828854e-01 9.831342e-01
    outer loop
      vertex -1.722050e+02 -7.578951e+01 -4.213696e+02
      vertex -1.722050e+02 -7.984881e+01 -4.206145e+02
      vertex -7.496400e+01 -7.984881e+01 -4.206145e+02
    endloop
  endfacet
  facet normal -7.071068e-01 1.293195e-01 6.951809e-01
    outer loop
      vertex -7.496400e+01 -7.578951e+01 -4.213696e+02
      vertex -7.496400e+01 -7.984881e+01 -4.206145e+02
      vertex -7.346400e+01 -7.956006e+01 -4.191424e+02
    endloop
  endfacet
  facet normal 2.684666e-12 1.828854e-01 9.831342e-01
    outer loop
      vertex -1.722050e+02 -7.578951e+01 -4.213696e+02
      vertex -7.496400e+01 -7.984881e+01 -4.206145e+02
      vertex -7.496400e+01 -7.578951e+01 -4.213696e+02
    endloop
  endfacet
  facet normal -7.071068e-01 1.293195e-01 6.951809e-01
    outer loop
      vertex -7.496400e+01 -7.578951e+01 -4.213696e+02
      vertex -7.346400e+01 -7.956006e+01 -4.191424e+02
      vertex -7.346400e+01 -7.551518e+01 -4.198949e+02
    endloop
  endfacet
  facet normal 2.684178e-12 1.828854e-01 9.831342e-01
    outer loop
      vertex -1.882640e+02 -7.253697e+01 -3.982749e+02
      vertex -1.882640e+02 -7.528440e+01 -3.977638e+02
      vertex -1.735269e+01 -7.528440e+01 -3.977638e+02
    endloop
  endfacet
  facet normal 5.011789e-13 -9.831342e-01 1.828854e-01
    outer loop
      vertex -1.631511e+01 -7.565015e+01 -3.997300e+02
      vertex -1.735269e+01 -7.528440e+01 -3.977638e+02
      vertex -1.882640e+02 -7.528440e+01 -3.977638e+02
    endloop
  endfacet
  facet normal 2.683524e-12 1.828854e-01 9.831342e-01
    outer loop
      vertex -1.735269e+01 -7.253697e+01 -3.982749e+02
      vertex -1.882640e+02 -7.253697e+01 -3.982749e+02
      vertex -1.735269e+01 -7.528440e+01 -3.977638e+02
    endloop
  endfacet
  facet normal 3.322145e-01 1.724982e-01 9.272960e-01
    outer loop
      vertex -1.688268e+01 -7.531467e+01 -3.979266e+02
      vertex -1.735269e+01 -7.253697e+01 -3.982749e+02
      vertex -1.735269e+01 -7.528440e+01 -3.977638e+02
    endloop
  endfacet
  facet normal 4.871272e-13 -9.831342e-01 1.828854e-01
    outer loop
      vertex -1.688268e+01 -7.531467e+01 -3.979266e+02
      vertex -1.735269e+01 -7.528440e+01 -3.977638e+02
      vertex -1.631511e+01 -7.565015e+01 -3.997300e+02
    endloop
  endfacet
  facet normal -3.827076e-01 1.689623e-01 9.082877e-01
    outer loop
      vertex -1.887943e+02 -7.257715e+01 -3.984909e+02
      vertex -1.882640e+02 -7.528440e+01 -3.977638e+02
      vertex -1.882640e+02 -7.253697e+01 -3.982749e+02
    endloop
  endfacet
  facet normal -3.827076e-01 1.689623e-01 9.082877e-01
    outer loop
      vertex -1.887943e+02 -7.532457e+01 -3.979798e+02
      vertex -1.882640e+02 -7.528440e+01 -3.977638e+02
      vertex -1.887943e+02 -7.257715e+01 -3.984909e+02
    endloop
  endfacet
  facet normal 5.007749e-13 -9.831342e-01 1.828854e-01
    outer loop
      vertex -1.887943e+02 -7.532457e+01 -3.979798e+02
      vertex -1.631511e+01 -7.565015e+01 -3.997300e+02
      vertex -1.882640e+02 -7.528440e+01 -3.977638e+02
    endloop
  endfacet
  facet normal 5.010575e-13 -9.831342e-01 1.828854e-01
    outer loop
      vertex -1.882640e+02 -7.207976e+01 -3.958171e+02
      vertex -1.882640e+02 -7.253697e+01 -3.982749e+02
      vertex -1.735269e+01 -7.253697e+01 -3.982749e+02
    endloop
  endfacet
  facet normal 4.514951e-13 -9.831342e-01 1.828854e-01
    outer loop
      vertex -1.882640e+02 -7.207976e+01 -3.958171e+02
      vertex -1.887943e+02 -7.203958e+01 -3.956011e+02
      vertex -1.882640e+02 -7.253697e+01 -3.982749e+02
    endloop
  endfacet
  facet normal 5.223138e-13 -9.831342e-01 1.828854e-01
    outer loop
      vertex -1.887943e+02 -7.257715e+01 -3.984909e+02
      vertex -1.882640e+02 -7.253697e+01 -3.982749e+02
      vertex -1.887943e+02 -7.203958e+01 -3.956011e+02
    endloop
  endfacet
  facet normal 5.011579e-13 -9.831342e-01 1.828854e-01
    outer loop
      vertex -1.825824e+01 -7.207976e+01 -3.958171e+02
      vertex -1.882640e+02 -7.207976e+01 -3.958171e+02
      vertex -1.735269e+01 -7.253697e+01 -3.982749e+02
    endloop
  endfacet
  facet normal 5.057698e-13 -9.831342e-01 1.828854e-01
    outer loop
      vertex -1.771054e+01 -7.203629e+01 -3.955834e+02
      vertex -1.825824e+01 -7.207976e+01 -3.958171e+02
      vertex -1.735269e+01 -7.253697e+01 -3.982749e+02
    endloop
  endfacet
  facet normal 4.620847e-13 -9.831342e-01 1.828854e-01
    outer loop
      vertex -1.750991e+01 -7.193345e+01 -3.950306e+02
      vertex -1.771054e+01 -7.203629e+01 -3.955834e+02
      vertex -1.735269e+01 -7.253697e+01 -3.982749e+02
    endloop
  endfacet
  facet normal 5.015423e-13 -9.831342e-01 1.828854e-01
    outer loop
      vertex -1.705347e+01 -7.229126e+01 -3.969541e+02
      vertex -1.750991e+01 -7.193345e+01 -3.950306e+02
      vertex -1.735269e+01 -7.253697e+01 -3.982749e+02
    endloop
  endfacet
  facet normal 5.177266e-13 -9.831342e-01 1.828854e-01
    outer loop
      vertex -1.688268e+01 -7.256725e+01 -3.984377e+02
      vertex -1.705347e+01 -7.229126e+01 -3.969541e+02
      vertex -1.735269e+01 -7.253697e+01 -3.982749e+02
    endloop
  endfacet
  facet normal 3.322145e-01 1.724982e-01 9.272960e-01
    outer loop
      vertex -1.688268e+01 -7.531467e+01 -3.979266e+02
      vertex -1.688268e+01 -7.256725e+01 -3.984377e+02
      vertex -1.735269e+01 -7.253697e+01 -3.982749e+02
    endloop
  endfacet
  facet normal -3.827076e-01 -1.689623e-01 -9.082877e-01
    outer loop
      vertex -1.887943e+02 -7.412776e+01 -3.952127e+02
      vertex -1.887943e+02 -7.203958e+01 -3.956011e+02
      vertex -1.882640e+02 -7.207976e+01 -3.958171e+02
    endloop
  endfacet
  facet normal -2.684011e-12 -1.828854e-01 -9.831342e-01
    outer loop
      vertex -1.882640e+02 -7.416793e+01 -3.954286e+02
      vertex -1.882640e+02 -7.207976e+01 -3.958171e+02
      vertex -1.825824e+01 -7.207976e+01 -3.958171e+02
    endloop
  endfacet
  facet normal -3.827076e-01 -1.689623e-01 -9.082877e-01
    outer loop
      vertex -1.887943e+02 -7.412776e+01 -3.952127e+02
      vertex -1.882640e+02 -7.207976e+01 -3.958171e+02
      vertex -1.882640e+02 -7.416793e+01 -3.954286e+02
    endloop
  endfacet
  facet normal 3.980660e-01 -1.677712e-01 -9.018849e-01
    outer loop
      vertex -1.825824e+01 -7.416793e+01 -3.954286e+02
      vertex -1.825824e+01 -7.207976e+01 -3.958171e+02
      vertex -1.771054e+01 -7.203629e+01 -3.955834e+02
    endloop
  endfacet
  facet normal -2.684011e-12 -1.828854e-01 -9.831342e-01
    outer loop
      vertex -1.825824e+01 -7.416793e+01 -3.954286e+02
      vertex -1.882640e+02 -7.416793e+01 -3.954286e+02
      vertex -1.825824e+01 -7.207976e+01 -3.958171e+02
    endloop
  endfacet
  facet normal 9.418537e-01 -6.145376e-02 -3.303560e-01
    outer loop
      vertex -1.771054e+01 -7.412447e+01 -3.951950e+02
      vertex -1.771054e+01 -7.203629e+01 -3.955834e+02
      vertex -1.750991e+01 -7.193345e+01 -3.950306e+02
    endloop
  endfacet
  facet normal 3.980660e-01 -1.677712e-01 -9.018849e-01
    outer loop
      vertex -1.771054e+01 -7.412447e+01 -3.951950e+02
      vertex -1.825824e+01 -7.416793e+01 -3.954286e+02
      vertex -1.771054e+01 -7.203629e+01 -3.955834e+02
    endloop
  endfacet
  facet normal 9.738488e-01 4.155105e-02 2.233653e-01
    outer loop
      vertex -1.750991e+01 -7.092475e+01 -3.952182e+02
      vertex -1.750991e+01 -7.193345e+01 -3.950306e+02
      vertex -1.705347e+01 -7.229126e+01 -3.969541e+02
    endloop
  endfacet
  facet normal 9.418537e-01 -6.145376e-02 -3.303560e-01
    outer loop
      vertex -1.771054e+01 -7.412447e+01 -3.951950e+02
      vertex -1.750991e+01 -7.193345e+01 -3.950306e+02
      vertex -1.750991e+01 -7.402163e+01 -3.946421e+02
    endloop
  endfacet
  facet normal 2.681064e-12 1.828854e-01 9.831342e-01
    outer loop
      vertex -1.178140e+02 -7.092475e+01 -3.952182e+02
      vertex -1.750991e+01 -7.402163e+01 -3.946421e+02
      vertex -1.750991e+01 -7.193345e+01 -3.950306e+02
    endloop
  endfacet
  facet normal 2.682911e-12 1.828854e-01 9.831342e-01
    outer loop
      vertex -1.178140e+02 -7.092475e+01 -3.952182e+02
      vertex -1.750991e+01 -7.193345e+01 -3.950306e+02
      vertex -1.750991e+01 -7.092475e+01 -3.952182e+02
    endloop
  endfacet
  facet normal 4.746347e-13 -9.831342e-01 1.828854e-01
    outer loop
      vertex -1.688268e+01 -7.256725e+01 -3.984377e+02
      vertex -1.662015e+01 -7.264471e+01 -3.988541e+02
      vertex -1.705347e+01 -7.229126e+01 -3.969541e+02
    endloop
  endfacet
  facet normal 9.756352e-01 5.662979e-02 2.119647e-01
    outer loop
      vertex -1.750991e+01 -7.092475e+01 -3.952182e+02
      vertex -1.705347e+01 -7.229126e+01 -3.969541e+02
      vertex -1.662015e+01 -7.264471e+01 -3.988541e+02
    endloop
  endfacet
  facet normal 8.499821e-01 9.634617e-02 5.179265e-01
    outer loop
      vertex -1.662015e+01 -7.539214e+01 -3.983430e+02
      vertex -1.662015e+01 -7.264471e+01 -3.988541e+02
      vertex -1.688268e+01 -7.256725e+01 -3.984377e+02
    endloop
  endfacet
  facet normal 9.749950e-01 1.406247e-01 1.720741e-01
    outer loop
      vertex -1.750991e+01 -7.092475e+01 -3.952182e+02
      vertex -1.662015e+01 -7.264471e+01 -3.988541e+02
      vertex -1.441160e+01 -7.375951e+01 -4.104570e+02
    endloop
  endfacet
  facet normal 9.821108e-01 4.650119e-02 1.824719e-01
    outer loop
      vertex -1.631511e+01 -7.565015e+01 -3.997300e+02
      vertex -1.441160e+01 -7.375951e+01 -4.104570e+02
      vertex -1.662015e+01 -7.264471e+01 -3.988541e+02
    endloop
  endfacet
  facet normal 9.777574e-01 3.918903e-02 2.060454e-01
    outer loop
      vertex -1.646586e+01 -7.552162e+01 -3.990391e+02
      vertex -1.631511e+01 -7.565015e+01 -3.997300e+02
      vertex -1.662015e+01 -7.264471e+01 -3.988541e+02
    endloop
  endfacet
  facet normal 9.770688e-01 3.894069e-02 2.093329e-01
    outer loop
      vertex -1.662015e+01 -7.539214e+01 -3.983430e+02
      vertex -1.646586e+01 -7.552162e+01 -3.990391e+02
      vertex -1.662015e+01 -7.264471e+01 -3.988541e+02
    endloop
  endfacet
  facet normal 8.499821e-01 9.634617e-02 5.179265e-01
    outer loop
      vertex -1.688268e+01 -7.531467e+01 -3.979266e+02
      vertex -1.662015e+01 -7.539214e+01 -3.983430e+02
      vertex -1.688268e+01 -7.256725e+01 -3.984377e+02
    endloop
  endfacet
  facet normal 5.011580e-13 -9.831342e-01 1.828854e-01
    outer loop
      vertex -1.178140e+02 -7.402163e+01 -3.946421e+02
      vertex -1.882640e+02 -7.416793e+01 -3.954286e+02
      vertex -1.825824e+01 -7.416793e+01 -3.954286e+02
    endloop
  endfacet
  facet normal 5.013364e-13 -9.831342e-01 1.828854e-01
    outer loop
      vertex -1.179140e+02 -7.400334e+01 -3.945438e+02
      vertex -1.179640e+02 -7.382045e+01 -3.935607e+02
      vertex -1.882640e+02 -7.416793e+01 -3.954286e+02
    endloop
  endfacet
  facet normal 4.951129e-13 -9.831342e-01 1.828854e-01
    outer loop
      vertex -1.178847e+02 -7.401627e+01 -3.946133e+02
      vertex -1.179140e+02 -7.400334e+01 -3.945438e+02
      vertex -1.882640e+02 -7.416793e+01 -3.954286e+02
    endloop
  endfacet
  facet normal 5.038846e-13 -9.831342e-01 1.828854e-01
    outer loop
      vertex -1.178140e+02 -7.402163e+01 -3.946421e+02
      vertex -1.178847e+02 -7.401627e+01 -3.946133e+02
      vertex -1.882640e+02 -7.416793e+01 -3.954286e+02
    endloop
  endfacet
  facet normal 5.010055e-13 -9.831342e-01 1.828854e-01
    outer loop
      vertex -1.771054e+01 -7.412447e+01 -3.951950e+02
      vertex -1.178140e+02 -7.402163e+01 -3.946421e+02
      vertex -1.825824e+01 -7.416793e+01 -3.954286e+02
    endloop
  endfacet
  facet normal 4.341556e-13 -9.831342e-01 1.828854e-01
    outer loop
      vertex -1.179140e+02 -7.400334e+01 -3.945438e+02
      vertex -1.179140e+02 -7.382960e+01 -3.936098e+02
      vertex -1.179640e+02 -7.382045e+01 -3.935607e+02
    endloop
  endfacet
  facet normal 7.071068e-01 1.293195e-01 6.951809e-01
    outer loop
      vertex -1.179140e+02 -7.073272e+01 -3.941859e+02
      vertex -1.179640e+02 -7.382045e+01 -3.935607e+02
      vertex -1.179140e+02 -7.382960e+01 -3.936098e+02
    endloop
  endfacet
  facet normal 7.071068e-01 1.293195e-01 6.951809e-01
    outer loop
      vertex -1.179140e+02 -7.073272e+01 -3.941859e+02
      vertex -1.179640e+02 -7.072358e+01 -3.941368e+02
      vertex -1.179640e+02 -7.382045e+01 -3.935607e+02
    endloop
  endfacet
  facet normal 1.000000e+00 2.619255e-15 -2.724046e-12
    outer loop
      vertex -1.179140e+02 -7.090646e+01 -3.951199e+02
      vertex -1.179140e+02 -7.382960e+01 -3.936098e+02
      vertex -1.179140e+02 -7.400334e+01 -3.945438e+02
    endloop
  endfacet
  facet normal 1.000000e+00 2.619255e-15 -2.724046e-12
    outer loop
      vertex -1.179140e+02 -7.073272e+01 -3.941859e+02
      vertex -1.179140e+02 -7.382960e+01 -3.936098e+02
      vertex -1.179140e+02 -7.090646e+01 -3.951199e+02
    endloop
  endfacet
  facet normal 9.237749e-01 7.003341e-02 3.764775e-01
    outer loop
      vertex -1.179140e+02 -7.090646e+01 -3.951199e+02
      vertex -1.179140e+02 -7.400334e+01 -3.945438e+02
      vertex -1.178847e+02 -7.401627e+01 -3.946133e+02
    endloop
  endfacet
  facet normal 3.829360e-01 1.689450e-01 9.081947e-01
    outer loop
      vertex -1.178847e+02 -7.091939e+01 -3.951894e+02
      vertex -1.178847e+02 -7.401627e+01 -3.946133e+02
      vertex -1.178140e+02 -7.402163e+01 -3.946421e+02
    endloop
  endfacet
  facet normal 9.237749e-01 7.003341e-02 3.764775e-01
    outer loop
      vertex -1.179140e+02 -7.090646e+01 -3.951199e+02
      vertex -1.178847e+02 -7.401627e+01 -3.946133e+02
      vertex -1.178847e+02 -7.091939e+01 -3.951894e+02
    endloop
  endfacet
  facet normal 5.011635e-13 -9.831342e-01 1.828854e-01
    outer loop
      vertex -1.771054e+01 -7.412447e+01 -3.951950e+02
      vertex -1.750991e+01 -7.402163e+01 -3.946421e+02
      vertex -1.178140e+02 -7.402163e+01 -3.946421e+02
    endloop
  endfacet
  facet normal 2.684025e-12 1.828854e-01 9.831342e-01
    outer loop
      vertex -1.178140e+02 -7.092475e+01 -3.952182e+02
      vertex -1.178140e+02 -7.402163e+01 -3.946421e+02
      vertex -1.750991e+01 -7.402163e+01 -3.946421e+02
    endloop
  endfacet
  facet normal 3.829360e-01 1.689450e-01 9.081947e-01
    outer loop
      vertex -1.178847e+02 -7.091939e+01 -3.951894e+02
      vertex -1.178140e+02 -7.402163e+01 -3.946421e+02
      vertex -1.178140e+02 -7.092475e+01 -3.952182e+02
    endloop
  endfacet
  facet normal -3.096321e-13 9.831342e-01 -1.828854e-01
    outer loop
      vertex -1.722050e+02 -7.524085e+01 -4.184202e+02
      vertex -1.179640e+02 -7.072358e+01 -3.941368e+02
      vertex -1.179140e+02 -7.073272e+01 -3.941859e+02
    endloop
  endfacet
  facet normal -5.136287e-13 9.831342e-01 -1.828854e-01
    outer loop
      vertex -1.284400e+01 -7.615179e+01 -4.233171e+02
      vertex -1.284400e+01 -8.024388e+01 -4.453149e+02
      vertex -1.476062e+01 -8.275189e+01 -4.587971e+02
    endloop
  endfacet
  facet normal -5.028575e-13 9.831342e-01 -1.828854e-01
    outer loop
      vertex -1.441160e+01 -7.375951e+01 -4.104570e+02
      vertex -1.284400e+01 -7.615179e+01 -4.233171e+02
      vertex -1.476062e+01 -8.275189e+01 -4.587971e+02
    endloop
  endfacet
  facet normal 9.657519e-01 1.056685e-03 -2.594653e-01
    outer loop
      vertex -1.626758e+01 -8.835436e+01 -4.644290e+02
      vertex -1.645588e+01 -8.848484e+01 -4.651304e+02
      vertex -1.476062e+01 -8.275189e+01 -4.587971e+02
    endloop
  endfacet
  facet normal 9.678005e-01 -7.390754e-03 -2.516101e-01
    outer loop
      vertex -1.607990e+01 -8.822081e+01 -4.637110e+02
      vertex -1.626758e+01 -8.835436e+01 -4.644290e+02
      vertex -1.476062e+01 -8.275189e+01 -4.587971e+02
    endloop
  endfacet
  facet normal 7.071068e-01 6.951809e-01 -1.293195e-01
    outer loop
      vertex -1.239398e+01 -7.869849e+01 -4.345467e+02
      vertex -1.284400e+01 -8.024388e+01 -4.453149e+02
      vertex -1.284400e+01 -7.615179e+01 -4.233171e+02
    endloop
  endfacet
  facet normal 9.992361e-01 7.211125e-03 3.840849e-02
    outer loop
      vertex -1.239398e+01 -7.869849e+01 -4.345467e+02
      vertex -1.284400e+01 -7.615179e+01 -4.233171e+02
      vertex -1.239397e+01 -8.200157e+01 -4.339267e+02
    endloop
  endfacet
  facet normal -5.009568e-13 9.831342e-01 -1.828854e-01
    outer loop
      vertex -7.496400e+01 -7.524085e+01 -4.184202e+02
      vertex -1.178140e+02 -7.092475e+01 -3.952182e+02
      vertex -1.750991e+01 -7.092475e+01 -3.952182e+02
    endloop
  endfacet
  facet normal -4.965951e-13 9.831342e-01 -1.828854e-01
    outer loop
      vertex -7.346400e+01 -7.551518e+01 -4.198949e+02
      vertex -7.496400e+01 -7.524085e+01 -4.184202e+02
      vertex -1.750991e+01 -7.092475e+01 -3.952182e+02
    endloop
  endfacet
  facet normal -5.039733e-13 9.831342e-01 -1.828854e-01
    outer loop
      vertex -7.496400e+01 -7.578951e+01 -4.213696e+02
      vertex -7.346400e+01 -7.551518e+01 -4.198949e+02
      vertex -1.750991e+01 -7.092475e+01 -3.952182e+02
    endloop
  endfacet
  facet normal -6.054882e-13 9.831342e-01 -1.828854e-01
    outer loop
      vertex -1.722050e+02 -7.524085e+01 -4.184202e+02
      vertex -1.178847e+02 -7.091939e+01 -3.951894e+02
      vertex -1.178140e+02 -7.092475e+01 -3.952182e+02
    endloop
  endfacet
  facet normal -5.011278e-13 9.831342e-01 -1.828854e-01
    outer loop
      vertex -1.722050e+02 -7.524085e+01 -4.184202e+02
      vertex -1.178140e+02 -7.092475e+01 -3.952182e+02
      vertex -7.496400e+01 -7.524085e+01 -4.184202e+02
    endloop
  endfacet
  facet normal -4.326632e-13 9.831342e-01 -1.828854e-01
    outer loop
      vertex -1.722050e+02 -7.524085e+01 -4.184202e+02
      vertex -1.179140e+02 -7.090646e+01 -3.951199e+02
      vertex -1.178847e+02 -7.091939e+01 -3.951894e+02
    endloop
  endfacet
  facet normal -5.094548e-13 9.831342e-01 -1.828854e-01
    outer loop
      vertex -1.722050e+02 -7.524085e+01 -4.184202e+02
      vertex -1.179140e+02 -7.073272e+01 -3.941859e+02
      vertex -1.179140e+02 -7.090646e+01 -3.951199e+02
    endloop
  endfacet
  facet normal -5.606604e-12 -9.831342e-01 1.828854e-01
    outer loop
      vertex -1.662015e+01 -7.539214e+01 -3.983430e+02
      vertex -1.631511e+01 -7.565015e+01 -3.997300e+02
      vertex -1.646586e+01 -7.552162e+01 -3.990391e+02
    endloop
  endfacet
  facet normal 6.823868e-13 -9.831342e-01 1.828854e-01
    outer loop
      vertex -1.688268e+01 -7.531467e+01 -3.979266e+02
      vertex -1.631511e+01 -7.565015e+01 -3.997300e+02
      vertex -1.662015e+01 -7.539214e+01 -3.983430e+02
    endloop
  endfacet
endsolid P1040852002
