solid P1040852002
  facet normal 1.000000e+00 -7.517007e-13 1.545235e-14
    outer loop
      vertex 2.724500e+02 7.933196e+01 -4.686527e+02
      vertex 2.724500e+02 7.190610e+01 -3.994943e+02
      vertex 2.724500e+02 7.170460e+01 -3.982607e+02
    endloop
  endfacet
  facet normal 8.819465e-13 9.869195e-01 1.612137e-01
    outer loop
      vertex 9.975111e+01 7.190610e+01 -3.994943e+02
      vertex 2.724500e+02 7.170460e+01 -3.982607e+02
      vertex 2.724500e+02 7.190610e+01 -3.994943e+02
    endloop
  endfacet
  facet normal 1.000000e+00 -9.066371e-13 -1.335868e-15
    outer loop
      vertex 2.724500e+02 6.894660e+01 -3.987112e+02
      vertex 2.724500e+02 7.933196e+01 -4.686527e+02
      vertex 2.724500e+02 7.170460e+01 -3.982607e+02
    endloop
  endfacet
  facet normal 9.238695e-01 -6.169770e-02 3.777016e-01
    outer loop
      vertex 2.722303e+02 7.161911e+01 -3.977373e+02
      vertex 2.724500e+02 6.894660e+01 -3.987112e+02
      vertex 2.724500e+02 7.170460e+01 -3.982607e+02
    endloop
  endfacet
  facet normal 8.816706e-13 9.869195e-01 1.612137e-01
    outer loop
      vertex 2.722303e+02 7.161911e+01 -3.977373e+02
      vertex 2.724500e+02 7.170460e+01 -3.982607e+02
      vertex 9.975111e+01 7.190610e+01 -3.994943e+02
    endloop
  endfacet
  facet normal 1.000000e+00 -1.147518e-12 -2.704836e-14
    outer loop
      vertex 2.724500e+02 7.933196e+01 -4.686527e+02
      vertex 2.724500e+02 7.200480e+01 -3.994782e+02
      vertex 2.724500e+02 7.190610e+01 -3.994943e+02
    endloop
  endfacet
  facet normal -1.440663e-13 -1.612137e-01 9.869195e-01
    outer loop
      vertex 9.975111e+01 7.200480e+01 -3.994782e+02
      vertex 2.724500e+02 7.190610e+01 -3.994943e+02
      vertex 2.724500e+02 7.200480e+01 -3.994782e+02
    endloop
  endfacet
  facet normal -1.440663e-13 -1.612137e-01 9.869195e-01
    outer loop
      vertex 9.975111e+01 7.190610e+01 -3.994943e+02
      vertex 2.724500e+02 7.190610e+01 -3.994943e+02
      vertex 9.975111e+01 7.200480e+01 -3.994782e+02
    endloop
  endfacet
  facet normal 1.000000e+00 -7.209515e-13 2.981715e-14
    outer loop
      vertex 2.724500e+02 8.306623e+01 -4.637363e+02
      vertex 2.724500e+02 8.314561e+01 -4.637234e+02
      vertex 2.724500e+02 7.200480e+01 -3.994782e+02
    endloop
  endfacet
  facet normal 8.795311e-13 9.852952e-01 1.708608e-01
    outer loop
      vertex 2.556410e+02 7.938635e+01 -4.420450e+02
      vertex 2.724500e+02 7.200480e+01 -3.994782e+02
      vertex 2.724500e+02 8.314561e+01 -4.637234e+02
    endloop
  endfacet
  facet normal 1.000000e+00 -8.973756e-13 -5.525780e-16
    outer loop
      vertex 2.724500e+02 7.933196e+01 -4.686527e+02
      vertex 2.724500e+02 8.306623e+01 -4.637363e+02
      vertex 2.724500e+02 7.200480e+01 -3.994782e+02
    endloop
  endfacet
  facet normal 8.804910e-13 9.852952e-01 1.708608e-01
    outer loop
      vertex 1.584000e+02 7.887375e+01 -4.390890e+02
      vertex 9.975111e+01 7.200480e+01 -3.994782e+02
      vertex 2.724500e+02 7.200480e+01 -3.994782e+02
    endloop
  endfacet
  facet normal 8.805086e-13 9.852952e-01 1.708608e-01
    outer loop
      vertex 2.556410e+02 7.887375e+01 -4.390890e+02
      vertex 1.584000e+02 7.887375e+01 -4.390890e+02
      vertex 2.724500e+02 7.200480e+01 -3.994782e+02
    endloop
  endfacet
  facet normal 8.740637e-13 9.852952e-01 1.708608e-01
    outer loop
      vertex 2.556410e+02 7.938635e+01 -4.420450e+02
      vertex 2.556410e+02 7.887375e+01 -4.390890e+02
      vertex 2.724500e+02 7.200480e+01 -3.994782e+02
    endloop
  endfacet
  facet normal 1.440690e-13 1.612137e-01 -9.869195e-01
    outer loop
      vertex 9.951590e+01 8.306623e+01 -4.637363e+02
      vertex 2.724500e+02 8.314561e+01 -4.637234e+02
      vertex 2.724500e+02 8.306623e+01 -4.637363e+02
    endloop
  endfacet
  facet normal 8.803997e-13 9.852952e-01 1.708608e-01
    outer loop
      vertex 2.556410e+02 7.938635e+01 -4.420450e+02
      vertex 2.724500e+02 8.314561e+01 -4.637234e+02
      vertex 9.951590e+01 8.314561e+01 -4.637234e+02
    endloop
  endfacet
  facet normal 1.447179e-13 1.612137e-01 -9.869195e-01
    outer loop
      vertex 9.951590e+01 8.306623e+01 -4.637363e+02
      vertex 9.951590e+01 8.314561e+01 -4.637234e+02
      vertex 2.724500e+02 8.314561e+01 -4.637234e+02
    endloop
  endfacet
  facet normal 1.000000e+00 -8.593007e-13 -2.134738e-15
    outer loop
      vertex 2.724500e+02 8.234201e+01 -4.651212e+02
      vertex 2.724500e+02 8.326775e+01 -4.649700e+02
      vertex 2.724500e+02 8.306623e+01 -4.637363e+02
    endloop
  endfacet
  facet normal 8.258898e-13 9.869195e-01 1.612137e-01
    outer loop
      vertex 2.722303e+02 8.335324e+01 -4.654934e+02
      vertex 2.724500e+02 8.306623e+01 -4.637363e+02
      vertex 2.724500e+02 8.326775e+01 -4.649700e+02
    endloop
  endfacet
  facet normal 1.000000e+00 -9.748396e-13 5.828643e-14
    outer loop
      vertex 2.724500e+02 7.933196e+01 -4.686527e+02
      vertex 2.724500e+02 8.234201e+01 -4.651212e+02
      vertex 2.724500e+02 8.306623e+01 -4.637363e+02
    endloop
  endfacet
  facet normal 8.819119e-13 9.869195e-01 1.612137e-01
    outer loop
      vertex 1.006164e+02 8.338866e+01 -4.657102e+02
      vertex 2.724500e+02 8.306623e+01 -4.637363e+02
      vertex 2.717000e+02 8.338866e+01 -4.657102e+02
    endloop
  endfacet
  facet normal 8.748398e-13 9.869195e-01 1.612137e-01
    outer loop
      vertex 2.722303e+02 8.335324e+01 -4.654934e+02
      vertex 2.717000e+02 8.338866e+01 -4.657102e+02
      vertex 2.724500e+02 8.306623e+01 -4.637363e+02
    endloop
  endfacet
  facet normal 8.818959e-13 9.869195e-01 1.612137e-01
    outer loop
      vertex 1.001597e+02 8.336365e+01 -4.655571e+02
      vertex 2.724500e+02 8.306623e+01 -4.637363e+02
      vertex 1.006164e+02 8.338866e+01 -4.657102e+02
    endloop
  endfacet
  facet normal 8.820190e-13 9.869195e-01 1.612137e-01
    outer loop
      vertex 9.970358e+01 8.318396e+01 -4.644571e+02
      vertex 2.724500e+02 8.306623e+01 -4.637363e+02
      vertex 9.989188e+01 8.329898e+01 -4.651612e+02
    endloop
  endfacet
  facet normal 8.821058e-13 9.869195e-01 1.612137e-01
    outer loop
      vertex 1.001597e+02 8.336365e+01 -4.655571e+02
      vertex 9.989188e+01 8.329898e+01 -4.651612e+02
      vertex 2.724500e+02 8.306623e+01 -4.637363e+02
    endloop
  endfacet
  facet normal 8.819634e-13 9.869195e-01 1.612137e-01
    outer loop
      vertex 9.951590e+01 8.306623e+01 -4.637363e+02
      vertex 2.724500e+02 8.306623e+01 -4.637363e+02
      vertex 9.970358e+01 8.318396e+01 -4.644571e+02
    endloop
  endfacet
  facet normal 9.238695e-01 6.169770e-02 -3.777016e-01
    outer loop
      vertex 2.722303e+02 8.242751e+01 -4.656446e+02
      vertex 2.724500e+02 8.326775e+01 -4.649700e+02
      vertex 2.724500e+02 8.234201e+01 -4.651212e+02
    endloop
  endfacet
  facet normal 9.238695e-01 6.169770e-02 -3.777016e-01
    outer loop
      vertex 2.722303e+02 8.335324e+01 -4.654934e+02
      vertex 2.724500e+02 8.326775e+01 -4.649700e+02
      vertex 2.722303e+02 8.242751e+01 -4.656446e+02
    endloop
  endfacet
  facet normal 1.000000e+00 -8.929908e-13 -1.147782e-14
    outer loop
      vertex 2.724500e+02 7.933196e+01 -4.686527e+02
      vertex 2.724500e+02 8.282565e+01 -4.680820e+02
      vertex 2.724500e+02 8.234201e+01 -4.651212e+02
    endloop
  endfacet
  facet normal 9.361719e-13 9.869195e-01 1.612137e-01
    outer loop
      vertex 2.722303e+02 8.242751e+01 -4.656446e+02
      vertex 2.724500e+02 8.234201e+01 -4.651212e+02
      vertex 2.724500e+02 8.282565e+01 -4.680820e+02
    endloop
  endfacet
  facet normal 1.440591e-13 1.612137e-01 -9.869195e-01
    outer loop
      vertex 1.006807e+02 7.933196e+01 -4.686527e+02
      vertex 2.724500e+02 8.282565e+01 -4.680820e+02
      vertex 2.724500e+02 7.933196e+01 -4.686527e+02
    endloop
  endfacet
  facet normal 1.440591e-13 1.612137e-01 -9.869195e-01
    outer loop
      vertex 1.006807e+02 7.933196e+01 -4.686527e+02
      vertex 1.006807e+02 8.282565e+01 -4.680820e+02
      vertex 2.724500e+02 8.282565e+01 -4.680820e+02
    endloop
  endfacet
  facet normal 8.819020e-13 9.869195e-01 1.612137e-01
    outer loop
      vertex 2.717000e+02 8.246292e+01 -4.658614e+02
      vertex 2.724500e+02 8.282565e+01 -4.680820e+02
      vertex 1.006807e+02 8.282565e+01 -4.680820e+02
    endloop
  endfacet
  facet normal 8.605186e-13 9.869195e-01 1.612137e-01
    outer loop
      vertex 2.722303e+02 8.242751e+01 -4.656446e+02
      vertex 2.724500e+02 8.282565e+01 -4.680820e+02
      vertex 2.717000e+02 8.246292e+01 -4.658614e+02
    endloop
  endfacet
  facet normal 1.000000e+00 -9.029161e-13 -1.697775e-15
    outer loop
      vertex 2.724500e+02 6.830174e+01 -3.947636e+02
      vertex 2.724500e+02 6.710377e+01 -3.937940e+02
      vertex 2.724500e+02 7.933196e+01 -4.686527e+02
    endloop
  endfacet
  facet normal -8.805096e-13 -9.869195e-01 -1.612137e-01
    outer loop
      vertex 2.556410e+02 7.461633e+01 -4.397845e+02
      vertex 2.724500e+02 7.933196e+01 -4.686527e+02
      vertex 2.724500e+02 6.710377e+01 -3.937940e+02
    endloop
  endfacet
  facet normal 1.000000e+00 2.485697e-13 1.701968e-13
    outer loop
      vertex 2.724500e+02 6.894660e+01 -3.987112e+02
      vertex 2.724500e+02 6.830174e+01 -3.947636e+02
      vertex 2.724500e+02 7.933196e+01 -4.686527e+02
    endloop
  endfacet
  facet normal -8.819009e-13 -9.869195e-01 -1.612137e-01
    outer loop
      vertex 1.584000e+02 7.509997e+01 -4.427452e+02
      vertex 1.006807e+02 7.933196e+01 -4.686527e+02
      vertex 2.724500e+02 7.933196e+01 -4.686527e+02
    endloop
  endfacet
  facet normal -8.819602e-13 -9.869195e-01 -1.612137e-01
    outer loop
      vertex 2.556410e+02 7.509997e+01 -4.427452e+02
      vertex 1.584000e+02 7.509997e+01 -4.427452e+02
      vertex 2.724500e+02 7.933196e+01 -4.686527e+02
    endloop
  endfacet
  facet normal -8.877381e-13 -9.869195e-01 -1.612137e-01
    outer loop
      vertex 2.556410e+02 7.461633e+01 -4.397845e+02
      vertex 2.556410e+02 7.509997e+01 -4.427452e+02
      vertex 2.724500e+02 7.933196e+01 -4.686527e+02
    endloop
  endfacet
  facet normal 1.000000e+00 -8.968895e-13 5.748698e-15
    outer loop
      vertex 2.724500e+02 6.830174e+01 -3.947636e+02
      vertex 2.724500e+02 7.021257e+01 -3.932862e+02
      vertex 2.724500e+02 6.710377e+01 -3.937940e+02
    endloop
  endfacet
  facet normal -1.457129e-13 -1.612137e-01 9.869195e-01
    outer loop
      vertex 2.014000e+02 7.021257e+01 -3.932862e+02
      vertex 2.724500e+02 6.710377e+01 -3.937940e+02
      vertex 2.724500e+02 7.021257e+01 -3.932862e+02
    endloop
  endfacet
  facet normal -1.440692e-13 -1.612137e-01 9.869195e-01
    outer loop
      vertex 2.014000e+02 6.710377e+01 -3.937940e+02
      vertex 2.724500e+02 6.710377e+01 -3.937940e+02
      vertex 2.014000e+02 7.021257e+01 -3.932862e+02
    endloop
  endfacet
  facet normal -8.819586e-13 -9.869195e-01 -1.612137e-01
    outer loop
      vertex 2.556410e+02 7.461633e+01 -4.397845e+02
      vertex 2.724500e+02 6.710377e+01 -3.937940e+02
      vertex 2.014000e+02 6.710377e+01 -3.937940e+02
    endloop
  endfacet
  facet normal 1.000000e+00 -8.955142e-13 3.969977e-15
    outer loop
      vertex 2.724500e+02 6.830174e+01 -3.947636e+02
      vertex 2.724500e+02 7.039796e+01 -3.944211e+02
      vertex 2.724500e+02 7.021257e+01 -3.932862e+02
    endloop
  endfacet
  facet normal 8.122314e-13 9.869195e-01 1.612137e-01
    outer loop
      vertex 2.722303e+02 7.048346e+01 -3.949445e+02
      vertex 2.724500e+02 7.021257e+01 -3.932862e+02
      vertex 2.724500e+02 7.039796e+01 -3.944211e+02
    endloop
  endfacet
  facet normal 8.821012e-13 9.869195e-01 1.612137e-01
    outer loop
      vertex 2.014000e+02 7.021257e+01 -3.932862e+02
      vertex 2.724500e+02 7.021257e+01 -3.932862e+02
      vertex 2.717000e+02 7.051887e+01 -3.951613e+02
    endloop
  endfacet
  facet normal 8.926812e-13 9.869195e-01 1.612137e-01
    outer loop
      vertex 2.722303e+02 7.048346e+01 -3.949445e+02
      vertex 2.717000e+02 7.051887e+01 -3.951613e+02
      vertex 2.724500e+02 7.021257e+01 -3.932862e+02
    endloop
  endfacet
  facet normal 9.238695e-01 6.169770e-02 -3.777016e-01
    outer loop
      vertex 2.722303e+02 6.838724e+01 -3.952869e+02
      vertex 2.724500e+02 7.039796e+01 -3.944211e+02
      vertex 2.724500e+02 6.830174e+01 -3.947636e+02
    endloop
  endfacet
  facet normal 9.238695e-01 6.169770e-02 -3.777016e-01
    outer loop
      vertex 2.722303e+02 7.048346e+01 -3.949445e+02
      vertex 2.724500e+02 7.039796e+01 -3.944211e+02
      vertex 2.722303e+02 6.838724e+01 -3.952869e+02
    endloop
  endfacet
  facet normal 8.600281e-13 9.869195e-01 1.612137e-01
    outer loop
      vertex 2.722303e+02 6.886110e+01 -3.981879e+02
      vertex 2.724500e+02 6.830174e+01 -3.947636e+02
      vertex 2.724500e+02 6.894660e+01 -3.987112e+02
    endloop
  endfacet
  facet normal 8.644880e-13 9.869195e-01 1.612137e-01
    outer loop
      vertex 2.722303e+02 6.886110e+01 -3.981879e+02
      vertex 2.722303e+02 6.838724e+01 -3.952869e+02
      vertex 2.724500e+02 6.830174e+01 -3.947636e+02
    endloop
  endfacet
  facet normal 9.238695e-01 -6.169770e-02 3.777016e-01
    outer loop
      vertex 2.722303e+02 7.161911e+01 -3.977373e+02
      vertex 2.722303e+02 6.886110e+01 -3.981879e+02
      vertex 2.724500e+02 6.894660e+01 -3.987112e+02
    endloop
  endfacet
  facet normal -9.709570e-01 3.857101e-02 -2.361244e-01
    outer loop
      vertex 9.819662e+01 7.770673e+01 -4.587033e+02
      vertex 1.006807e+02 8.282565e+01 -4.680820e+02
      vertex 1.006807e+02 7.933196e+01 -4.686527e+02
    endloop
  endfacet
  facet normal 8.819119e-13 9.869195e-01 1.612137e-01
    outer loop
      vertex 1.006164e+02 8.246292e+01 -4.658614e+02
      vertex 2.717000e+02 8.246292e+01 -4.658614e+02
      vertex 1.006807e+02 8.282565e+01 -4.680820e+02
    endloop
  endfacet
  facet normal 9.251272e-13 9.869195e-01 1.612137e-01
    outer loop
      vertex 1.002861e+02 8.260486e+01 -4.667303e+02
      vertex 1.006164e+02 8.246292e+01 -4.658614e+02
      vertex 1.006807e+02 8.282565e+01 -4.680820e+02
    endloop
  endfacet
  facet normal -9.546893e-01 -6.767767e-02 -2.898069e-01
    outer loop
      vertex 9.819662e+01 7.770673e+01 -4.587033e+02
      vertex 1.002861e+02 8.260486e+01 -4.667303e+02
      vertex 1.006807e+02 8.282565e+01 -4.680820e+02
    endloop
  endfacet
  facet normal -8.778770e-13 -9.869195e-01 -1.612137e-01
    outer loop
      vertex 9.784760e+01 6.977995e+01 -4.101771e+02
      vertex 9.819662e+01 7.770673e+01 -4.587033e+02
      vertex 1.006807e+02 7.933196e+01 -4.686527e+02
    endloop
  endfacet
  facet normal -8.804217e-13 -9.869195e-01 -1.612137e-01
    outer loop
      vertex 1.009459e+02 6.728110e+01 -3.948796e+02
      vertex 9.784760e+01 6.977995e+01 -4.101771e+02
      vertex 1.006807e+02 7.933196e+01 -4.686527e+02
    endloop
  endfacet
  facet normal -8.820979e-13 -9.869195e-01 -1.612137e-01
    outer loop
      vertex 1.584000e+02 7.509997e+01 -4.427452e+02
      vertex 1.009459e+02 6.728110e+01 -3.948796e+02
      vertex 1.006807e+02 7.933196e+01 -4.686527e+02
    endloop
  endfacet
  facet normal 1.440606e-13 1.612137e-01 -9.869195e-01
    outer loop
      vertex 2.717000e+02 8.338866e+01 -4.657102e+02
      vertex 2.717000e+02 8.246292e+01 -4.658614e+02
      vertex 1.006164e+02 8.246292e+01 -4.658614e+02
    endloop
  endfacet
  facet normal 3.827076e-01 1.489404e-01 -9.117849e-01
    outer loop
      vertex 2.722303e+02 8.335324e+01 -4.654934e+02
      vertex 2.722303e+02 8.242751e+01 -4.656446e+02
      vertex 2.717000e+02 8.246292e+01 -4.658614e+02
    endloop
  endfacet
  facet normal 3.827076e-01 1.489404e-01 -9.117849e-01
    outer loop
      vertex 2.722303e+02 8.335324e+01 -4.654934e+02
      vertex 2.717000e+02 8.246292e+01 -4.658614e+02
      vertex 2.717000e+02 8.338866e+01 -4.657102e+02
    endloop
  endfacet
  facet normal 8.948867e-13 9.869195e-01 1.612137e-01
    outer loop
      vertex 1.002861e+02 8.260486e+01 -4.667303e+02
      vertex 1.001597e+02 8.243792e+01 -4.657083e+02
      vertex 1.006164e+02 8.246292e+01 -4.658614e+02
    endloop
  endfacet
  facet normal -3.216048e-01 1.526490e-01 -9.344884e-01
    outer loop
      vertex 1.006164e+02 8.338866e+01 -4.657102e+02
      vertex 1.006164e+02 8.246292e+01 -4.658614e+02
      vertex 1.001597e+02 8.243792e+01 -4.657083e+02
    endloop
  endfacet
  facet normal 1.440606e-13 1.612137e-01 -9.869195e-01
    outer loop
      vertex 1.006164e+02 8.338866e+01 -4.657102e+02
      vertex 2.717000e+02 8.338866e+01 -4.657102e+02
      vertex 1.006164e+02 8.246292e+01 -4.658614e+02
    endloop
  endfacet
  facet normal 9.148279e-13 9.869195e-01 1.612137e-01
    outer loop
      vertex 1.002861e+02 8.260486e+01 -4.667303e+02
      vertex 9.989188e+01 8.237325e+01 -4.653124e+02
      vertex 1.001597e+02 8.243792e+01 -4.657083e+02
    endloop
  endfacet
  facet normal -8.316669e-01 8.951790e-02 -5.480117e-01
    outer loop
      vertex 1.001597e+02 8.336365e+01 -4.655571e+02
      vertex 1.001597e+02 8.243792e+01 -4.657083e+02
      vertex 9.989188e+01 8.237325e+01 -4.653124e+02
    endloop
  endfacet
  facet normal -3.216048e-01 1.526490e-01 -9.344884e-01
    outer loop
      vertex 1.001597e+02 8.336365e+01 -4.655571e+02
      vertex 1.006164e+02 8.338866e+01 -4.657102e+02
      vertex 1.001597e+02 8.243792e+01 -4.657083e+02
    endloop
  endfacet
  facet normal -9.611395e-01 -3.807894e-02 -2.734245e-01
    outer loop
      vertex 9.819662e+01 7.770673e+01 -4.587033e+02
      vertex 9.989188e+01 8.237325e+01 -4.653124e+02
      vertex 1.002861e+02 8.260486e+01 -4.667303e+02
    endloop
  endfacet
  facet normal -9.739069e-01 3.658712e-02 -2.239794e-01
    outer loop
      vertex 9.989188e+01 8.329898e+01 -4.651612e+02
      vertex 9.989188e+01 8.237325e+01 -4.653124e+02
      vertex 9.819662e+01 7.770673e+01 -4.587033e+02
    endloop
  endfacet
  facet normal -8.316669e-01 8.951790e-02 -5.480117e-01
    outer loop
      vertex 1.001597e+02 8.336365e+01 -4.655571e+02
      vertex 9.989188e+01 8.237325e+01 -4.653124e+02
      vertex 9.989188e+01 8.329898e+01 -4.651612e+02
    endloop
  endfacet
  facet normal 8.772904e-13 9.852952e-01 1.708608e-01
    outer loop
      vertex 9.753102e+01 8.152719e+01 -4.543905e+02
      vertex 9.749951e+01 7.413749e+01 -4.117766e+02
      vertex 9.975111e+01 7.200480e+01 -3.994782e+02
    endloop
  endfacet
  facet normal -9.841153e-01 -2.862030e-02 1.752080e-01
    outer loop
      vertex 9.975111e+01 7.190610e+01 -3.994943e+02
      vertex 9.975111e+01 7.200480e+01 -3.994782e+02
      vertex 9.749951e+01 7.413749e+01 -4.117766e+02
    endloop
  endfacet
  facet normal 8.788805e-13 9.852952e-01 1.708608e-01
    outer loop
      vertex 9.951590e+01 8.314561e+01 -4.637234e+02
      vertex 9.753102e+01 8.152719e+01 -4.543905e+02
      vertex 9.975111e+01 7.200480e+01 -3.994782e+02
    endloop
  endfacet
  facet normal 8.806199e-13 9.852952e-01 1.708608e-01
    outer loop
      vertex 1.569000e+02 7.913005e+01 -4.405670e+02
      vertex 9.951590e+01 8.314561e+01 -4.637234e+02
      vertex 9.975111e+01 7.200480e+01 -3.994782e+02
    endloop
  endfacet
  facet normal 8.817659e-13 9.852952e-01 1.708608e-01
    outer loop
      vertex 1.569000e+02 7.913005e+01 -4.405670e+02
      vertex 9.975111e+01 7.200480e+01 -3.994782e+02
      vertex 1.584000e+02 7.887375e+01 -4.390890e+02
    endloop
  endfacet
  facet normal 8.957241e-13 9.852952e-01 1.708608e-01
    outer loop
      vertex 9.628000e+01 7.980603e+01 -4.444652e+02
      vertex 9.628000e+01 7.598280e+01 -4.224179e+02
      vertex 9.749951e+01 7.413749e+01 -4.117766e+02
    endloop
  endfacet
  facet normal -9.934605e-01 -4.012062e-02 1.068953e-01
    outer loop
      vertex 9.784760e+01 6.977995e+01 -4.101771e+02
      vertex 9.749951e+01 7.413749e+01 -4.117766e+02
      vertex 9.628000e+01 7.598280e+01 -4.224179e+02
    endloop
  endfacet
  facet normal 8.776601e-13 9.852952e-01 1.708608e-01
    outer loop
      vertex 9.753102e+01 8.152719e+01 -4.543905e+02
      vertex 9.628000e+01 7.980603e+01 -4.444652e+02
      vertex 9.749951e+01 7.413749e+01 -4.117766e+02
    endloop
  endfacet
  facet normal -9.839472e-01 -1.327196e-02 1.779656e-01
    outer loop
      vertex 9.975111e+01 7.190610e+01 -3.994943e+02
      vertex 9.749951e+01 7.413749e+01 -4.117766e+02
      vertex 9.784760e+01 6.977995e+01 -4.101771e+02
    endloop
  endfacet
  facet normal -7.071068e-01 6.967089e-01 1.208168e-01
    outer loop
      vertex 9.582997e+01 7.750371e+01 -4.338224e+02
      vertex 9.628000e+01 7.598280e+01 -4.224179e+02
      vertex 9.628000e+01 7.980603e+01 -4.444652e+02
    endloop
  endfacet
  facet normal -9.928956e-01 -1.918324e-02 1.174326e-01
    outer loop
      vertex 9.784760e+01 6.977995e+01 -4.101771e+02
      vertex 9.628000e+01 7.598280e+01 -4.224179e+02
      vertex 9.628000e+01 7.188874e+01 -4.230867e+02
    endloop
  endfacet
  facet normal -9.992353e-01 -6.303114e-03 3.858987e-02
    outer loop
      vertex 9.582997e+01 7.750371e+01 -4.338224e+02
      vertex 9.628000e+01 7.188874e+01 -4.230867e+02
      vertex 9.628000e+01 7.598280e+01 -4.224179e+02
    endloop
  endfacet
  facet normal -9.923758e-01 1.986888e-02 -1.216367e-01
    outer loop
      vertex 9.628000e+01 7.549592e+01 -4.451692e+02
      vertex 9.628000e+01 7.980603e+01 -4.444652e+02
      vertex 9.753102e+01 8.152719e+01 -4.543905e+02
    endloop
  endfacet
  facet normal -9.991440e-01 6.669532e-03 -4.082638e-02
    outer loop
      vertex 9.582998e+01 7.418779e+01 -4.343696e+02
      vertex 9.628000e+01 7.980603e+01 -4.444652e+02
      vertex 9.628000e+01 7.549592e+01 -4.451692e+02
    endloop
  endfacet
  facet normal -9.991450e-01 6.729926e-03 -4.079282e-02
    outer loop
      vertex 9.582998e+01 7.418779e+01 -4.343696e+02
      vertex 9.582997e+01 7.750371e+01 -4.338224e+02
      vertex 9.628000e+01 7.980603e+01 -4.444652e+02
    endloop
  endfacet
  facet normal -9.785627e-01 5.390225e-02 -1.987700e-01
    outer loop
      vertex 9.819662e+01 7.770673e+01 -4.587033e+02
      vertex 9.753102e+01 8.152719e+01 -4.543905e+02
      vertex 9.951590e+01 8.314561e+01 -4.637234e+02
    endloop
  endfacet
  facet normal -9.897760e-01 -1.199604e-02 -1.421255e-01
    outer loop
      vertex 9.628000e+01 7.549592e+01 -4.451692e+02
      vertex 9.753102e+01 8.152719e+01 -4.543905e+02
      vertex 9.819662e+01 7.770673e+01 -4.587033e+02
    endloop
  endfacet
  facet normal 8.803646e-13 9.852952e-01 1.708608e-01
    outer loop
      vertex 1.584000e+02 7.938635e+01 -4.420450e+02
      vertex 2.556410e+02 7.938635e+01 -4.420450e+02
      vertex 9.951590e+01 8.314561e+01 -4.637234e+02
    endloop
  endfacet
  facet normal 8.827381e-13 9.852952e-01 1.708608e-01
    outer loop
      vertex 1.569000e+02 7.913005e+01 -4.405670e+02
      vertex 1.584000e+02 7.938635e+01 -4.420450e+02
      vertex 9.951590e+01 8.314561e+01 -4.637234e+02
    endloop
  endfacet
  facet normal -9.753489e-01 3.557477e-02 -2.177820e-01
    outer loop
      vertex 9.951590e+01 8.306623e+01 -4.637363e+02
      vertex 9.819662e+01 7.770673e+01 -4.587033e+02
      vertex 9.951590e+01 8.314561e+01 -4.637234e+02
    endloop
  endfacet
  facet normal 1.440686e-13 1.612137e-01 -9.869195e-01
    outer loop
      vertex 1.584000e+02 7.461633e+01 -4.397845e+02
      vertex 1.584000e+02 7.887375e+01 -4.390890e+02
      vertex 2.556410e+02 7.887375e+01 -4.390890e+02
    endloop
  endfacet
  facet normal 7.071068e-01 1.139953e-01 -6.978575e-01
    outer loop
      vertex 1.569000e+02 7.485815e+01 -4.412648e+02
      vertex 1.569000e+02 7.913005e+01 -4.405670e+02
      vertex 1.584000e+02 7.887375e+01 -4.390890e+02
    endloop
  endfacet
  facet normal 7.071068e-01 1.139953e-01 -6.978575e-01
    outer loop
      vertex 1.569000e+02 7.485815e+01 -4.412648e+02
      vertex 1.584000e+02 7.887375e+01 -4.390890e+02
      vertex 1.584000e+02 7.461633e+01 -4.397845e+02
    endloop
  endfacet
  facet normal -1.000000e+00 8.869473e-13 9.583719e-15
    outer loop
      vertex 2.556410e+02 7.509997e+01 -4.427452e+02
      vertex 2.556410e+02 7.887375e+01 -4.390890e+02
      vertex 2.556410e+02 7.938635e+01 -4.420450e+02
    endloop
  endfacet
  facet normal 1.440685e-13 1.612137e-01 -9.869195e-01
    outer loop
      vertex 2.556410e+02 7.461633e+01 -4.397845e+02
      vertex 1.584000e+02 7.461633e+01 -4.397845e+02
      vertex 2.556410e+02 7.887375e+01 -4.390890e+02
    endloop
  endfacet
  facet normal -1.000000e+00 9.022479e-13 -6.208968e-15
    outer loop
      vertex 2.556410e+02 7.461633e+01 -4.397845e+02
      vertex 2.556410e+02 7.887375e+01 -4.390890e+02
      vertex 2.556410e+02 7.509997e+01 -4.427452e+02
    endloop
  endfacet
  facet normal -1.440456e-13 -1.612137e-01 9.869195e-01
    outer loop
      vertex 2.556410e+02 7.509997e+01 -4.427452e+02
      vertex 2.556410e+02 7.938635e+01 -4.420450e+02
      vertex 1.584000e+02 7.938635e+01 -4.420450e+02
    endloop
  endfacet
  facet normal 7.071068e-01 -1.139953e-01 6.978575e-01
    outer loop
      vertex 1.584000e+02 7.509997e+01 -4.427452e+02
      vertex 1.584000e+02 7.938635e+01 -4.420450e+02
      vertex 1.569000e+02 7.913005e+01 -4.405670e+02
    endloop
  endfacet
  facet normal -1.440685e-13 -1.612137e-01 9.869195e-01
    outer loop
      vertex 2.556410e+02 7.509997e+01 -4.427452e+02
      vertex 1.584000e+02 7.938635e+01 -4.420450e+02
      vertex 1.584000e+02 7.509997e+01 -4.427452e+02
    endloop
  endfacet
  facet normal 7.071068e-01 -1.139953e-01 6.978575e-01
    outer loop
      vertex 1.584000e+02 7.509997e+01 -4.427452e+02
      vertex 1.569000e+02 7.913005e+01 -4.405670e+02
      vertex 1.569000e+02 7.485815e+01 -4.412648e+02
    endloop
  endfacet
  facet normal -1.440719e-13 -1.612137e-01 9.869195e-01
    outer loop
      vertex 2.717000e+02 6.882569e+01 -3.979711e+02
      vertex 2.717000e+02 7.158369e+01 -3.975205e+02
      vertex 1.007887e+02 7.158369e+01 -3.975205e+02
    endloop
  endfacet
  facet normal 8.819804e-13 9.869195e-01 1.612137e-01
    outer loop
      vertex 9.975111e+01 7.190610e+01 -3.994943e+02
      vertex 1.007887e+02 7.158369e+01 -3.975205e+02
      vertex 2.717000e+02 7.158369e+01 -3.975205e+02
    endloop
  endfacet
  facet normal -1.440584e-13 -1.612137e-01 9.869195e-01
    outer loop
      vertex 1.007887e+02 6.882569e+01 -3.979711e+02
      vertex 2.717000e+02 6.882569e+01 -3.979711e+02
      vertex 1.007887e+02 7.158369e+01 -3.975205e+02
    endloop
  endfacet
  facet normal -3.322145e-01 -1.520574e-01 9.308663e-01
    outer loop
      vertex 1.003187e+02 7.161038e+01 -3.976839e+02
      vertex 1.007887e+02 6.882569e+01 -3.979711e+02
      vertex 1.007887e+02 7.158369e+01 -3.975205e+02
    endloop
  endfacet
  facet normal 8.552613e-13 9.869195e-01 1.612137e-01
    outer loop
      vertex 1.003187e+02 7.161038e+01 -3.976839e+02
      vertex 1.007887e+02 7.158369e+01 -3.975205e+02
      vertex 9.975111e+01 7.190610e+01 -3.994943e+02
    endloop
  endfacet
  facet normal 3.827076e-01 -1.489404e-01 9.117849e-01
    outer loop
      vertex 2.722303e+02 6.886110e+01 -3.981879e+02
      vertex 2.717000e+02 7.158369e+01 -3.975205e+02
      vertex 2.717000e+02 6.882569e+01 -3.979711e+02
    endloop
  endfacet
  facet normal 3.827076e-01 -1.489404e-01 9.117849e-01
    outer loop
      vertex 2.722303e+02 7.161911e+01 -3.977373e+02
      vertex 2.717000e+02 7.158369e+01 -3.975205e+02
      vertex 2.722303e+02 6.886110e+01 -3.981879e+02
    endloop
  endfacet
  facet normal 8.821073e-13 9.869195e-01 1.612137e-01
    outer loop
      vertex 2.722303e+02 7.161911e+01 -3.977373e+02
      vertex 9.975111e+01 7.190610e+01 -3.994943e+02
      vertex 2.717000e+02 7.158369e+01 -3.975205e+02
    endloop
  endfacet
  facet normal 8.818982e-13 9.869195e-01 1.612137e-01
    outer loop
      vertex 2.717000e+02 6.842265e+01 -3.955038e+02
      vertex 2.717000e+02 6.882569e+01 -3.979711e+02
      vertex 1.007887e+02 6.882569e+01 -3.979711e+02
    endloop
  endfacet
  facet normal 8.976413e-13 9.869195e-01 1.612137e-01
    outer loop
      vertex 2.717000e+02 6.842265e+01 -3.955038e+02
      vertex 2.722303e+02 6.838724e+01 -3.952869e+02
      vertex 2.717000e+02 6.882569e+01 -3.979711e+02
    endloop
  endfacet
  facet normal 8.929671e-13 9.869195e-01 1.612137e-01
    outer loop
      vertex 2.722303e+02 6.886110e+01 -3.981879e+02
      vertex 2.717000e+02 6.882569e+01 -3.979711e+02
      vertex 2.722303e+02 6.838724e+01 -3.952869e+02
    endloop
  endfacet
  facet normal 8.817854e-13 9.869195e-01 1.612137e-01
    outer loop
      vertex 1.016942e+02 6.842265e+01 -3.955038e+02
      vertex 2.717000e+02 6.842265e+01 -3.955038e+02
      vertex 1.007887e+02 6.882569e+01 -3.979711e+02
    endloop
  endfacet
  facet normal 9.099582e-13 9.869195e-01 1.612137e-01
    outer loop
      vertex 1.011465e+02 6.838434e+01 -3.952692e+02
      vertex 1.016942e+02 6.842265e+01 -3.955038e+02
      vertex 1.007887e+02 6.882569e+01 -3.979711e+02
    endloop
  endfacet
  facet normal 8.763115e-13 9.869195e-01 1.612137e-01
    outer loop
      vertex 1.009459e+02 6.829368e+01 -3.947142e+02
      vertex 1.011465e+02 6.838434e+01 -3.952692e+02
      vertex 1.007887e+02 6.882569e+01 -3.979711e+02
    endloop
  endfacet
  facet normal 9.095375e-13 9.869195e-01 1.612137e-01
    outer loop
      vertex 1.004895e+02 6.860910e+01 -3.966451e+02
      vertex 1.009459e+02 6.829368e+01 -3.947142e+02
      vertex 1.007887e+02 6.882569e+01 -3.979711e+02
    endloop
  endfacet
  facet normal 9.291609e-13 9.869195e-01 1.612137e-01
    outer loop
      vertex 1.003187e+02 6.885238e+01 -3.981344e+02
      vertex 1.004895e+02 6.860910e+01 -3.966451e+02
      vertex 1.007887e+02 6.882569e+01 -3.979711e+02
    endloop
  endfacet
  facet normal -3.322145e-01 -1.520574e-01 9.308663e-01
    outer loop
      vertex 1.003187e+02 7.161038e+01 -3.976839e+02
      vertex 1.003187e+02 6.885238e+01 -3.981344e+02
      vertex 1.007887e+02 6.882569e+01 -3.979711e+02
    endloop
  endfacet
  facet normal 3.827076e-01 1.489404e-01 -9.117849e-01
    outer loop
      vertex 2.722303e+02 7.048346e+01 -3.949445e+02
      vertex 2.722303e+02 6.838724e+01 -3.952869e+02
      vertex 2.717000e+02 6.842265e+01 -3.955038e+02
    endloop
  endfacet
  facet normal 1.447174e-13 1.612137e-01 -9.869195e-01
    outer loop
      vertex 2.717000e+02 7.051887e+01 -3.951613e+02
      vertex 2.717000e+02 6.842265e+01 -3.955038e+02
      vertex 1.016942e+02 6.842265e+01 -3.955038e+02
    endloop
  endfacet
  facet normal 3.827076e-01 1.489404e-01 -9.117849e-01
    outer loop
      vertex 2.722303e+02 7.048346e+01 -3.949445e+02
      vertex 2.717000e+02 6.842265e+01 -3.955038e+02
      vertex 2.717000e+02 7.051887e+01 -3.951613e+02
    endloop
  endfacet
  facet normal -3.980660e-01 1.478905e-01 -9.053573e-01
    outer loop
      vertex 1.016942e+02 7.051887e+01 -3.951613e+02
      vertex 1.016942e+02 6.842265e+01 -3.955038e+02
      vertex 1.011465e+02 6.838434e+01 -3.952692e+02
    endloop
  endfacet
  facet normal 1.440576e-13 1.612137e-01 -9.869195e-01
    outer loop
      vertex 1.016942e+02 7.051887e+01 -3.951613e+02
      vertex 2.717000e+02 7.051887e+01 -3.951613e+02
      vertex 1.016942e+02 6.842265e+01 -3.955038e+02
    endloop
  endfacet
  facet normal -9.418537e-01 5.417155e-02 -3.316280e-01
    outer loop
      vertex 1.011465e+02 7.048056e+01 -3.949268e+02
      vertex 1.011465e+02 6.838434e+01 -3.952692e+02
      vertex 1.009459e+02 6.829368e+01 -3.947142e+02
    endloop
  endfacet
  facet normal -3.980660e-01 1.478905e-01 -9.053573e-01
    outer loop
      vertex 1.011465e+02 7.048056e+01 -3.949268e+02
      vertex 1.016942e+02 7.051887e+01 -3.951613e+02
      vertex 1.011465e+02 6.838434e+01 -3.952692e+02
    endloop
  endfacet
  facet normal -9.738488e-01 -3.662729e-02 2.242253e-01
    outer loop
      vertex 1.009459e+02 6.728110e+01 -3.948796e+02
      vertex 1.009459e+02 6.829368e+01 -3.947142e+02
      vertex 1.004895e+02 6.860910e+01 -3.966451e+02
    endloop
  endfacet
  facet normal -9.418537e-01 5.417155e-02 -3.316280e-01
    outer loop
      vertex 1.011465e+02 7.048056e+01 -3.949268e+02
      vertex 1.009459e+02 6.829368e+01 -3.947142e+02
      vertex 1.009459e+02 7.038990e+01 -3.943718e+02
    endloop
  endfacet
  facet normal -1.417319e-13 -1.612137e-01 9.869195e-01
    outer loop
      vertex 2.012500e+02 6.728110e+01 -3.948796e+02
      vertex 1.009459e+02 7.038990e+01 -3.943718e+02
      vertex 1.009459e+02 6.829368e+01 -3.947142e+02
    endloop
  endfacet
  facet normal -1.440771e-13 -1.612137e-01 9.869195e-01
    outer loop
      vertex 2.012500e+02 6.728110e+01 -3.948796e+02
      vertex 1.009459e+02 6.829368e+01 -3.947142e+02
      vertex 1.009459e+02 6.728110e+01 -3.948796e+02
    endloop
  endfacet
  facet normal 8.234858e-13 9.869195e-01 1.612137e-01
    outer loop
      vertex 1.003187e+02 6.885238e+01 -3.981344e+02
      vertex 1.000562e+02 6.892066e+01 -3.985525e+02
      vertex 1.004895e+02 6.860910e+01 -3.966451e+02
    endloop
  endfacet
  facet normal -9.756352e-01 -5.195318e-02 2.131592e-01
    outer loop
      vertex 1.009459e+02 6.728110e+01 -3.948796e+02
      vertex 1.004895e+02 6.860910e+01 -3.966451e+02
      vertex 1.000562e+02 6.892066e+01 -3.985525e+02
    endloop
  endfacet
  facet normal -8.499821e-01 -8.492923e-02 5.199207e-01
    outer loop
      vertex 1.000562e+02 7.167867e+01 -3.981019e+02
      vertex 1.000562e+02 6.892066e+01 -3.985525e+02
      vertex 1.003187e+02 6.885238e+01 -3.981344e+02
    endloop
  endfacet
  facet normal -9.749950e-01 -1.368053e-01 1.751260e-01
    outer loop
      vertex 1.009459e+02 6.728110e+01 -3.948796e+02
      vertex 1.000562e+02 6.892066e+01 -3.985525e+02
      vertex 9.784760e+01 6.977995e+01 -4.101771e+02
    endloop
  endfacet
  facet normal -9.821108e-01 -4.247582e-02 1.834507e-01
    outer loop
      vertex 9.975111e+01 7.190610e+01 -3.994943e+02
      vertex 9.784760e+01 6.977995e+01 -4.101771e+02
      vertex 1.000562e+02 6.892066e+01 -3.985525e+02
    endloop
  endfacet
  facet normal -9.777574e-01 -3.464685e-02 2.068576e-01
    outer loop
      vertex 9.990186e+01 7.179281e+01 -3.988007e+02
      vertex 9.975111e+01 7.190610e+01 -3.994943e+02
      vertex 1.000562e+02 6.892066e+01 -3.985525e+02
    endloop
  endfacet
  facet normal -9.770688e-01 -3.432626e-02 2.101388e-01
    outer loop
      vertex 1.000562e+02 7.167867e+01 -3.981019e+02
      vertex 9.990186e+01 7.179281e+01 -3.988007e+02
      vertex 1.000562e+02 6.892066e+01 -3.985525e+02
    endloop
  endfacet
  facet normal -8.499821e-01 -8.492923e-02 5.199207e-01
    outer loop
      vertex 1.003187e+02 7.161038e+01 -3.976839e+02
      vertex 1.000562e+02 7.167867e+01 -3.981019e+02
      vertex 1.003187e+02 6.885238e+01 -3.981344e+02
    endloop
  endfacet
  facet normal 8.818932e-13 9.869195e-01 1.612137e-01
    outer loop
      vertex 2.012500e+02 7.038990e+01 -3.943718e+02
      vertex 2.717000e+02 7.051887e+01 -3.951613e+02
      vertex 1.016942e+02 7.051887e+01 -3.951613e+02
    endloop
  endfacet
  facet normal 8.818608e-13 9.869195e-01 1.612137e-01
    outer loop
      vertex 2.013500e+02 7.037378e+01 -3.942731e+02
      vertex 2.014000e+02 7.021257e+01 -3.932862e+02
      vertex 2.717000e+02 7.051887e+01 -3.951613e+02
    endloop
  endfacet
  facet normal 8.818324e-13 9.869195e-01 1.612137e-01
    outer loop
      vertex 2.013207e+02 7.038518e+01 -3.943429e+02
      vertex 2.013500e+02 7.037378e+01 -3.942731e+02
      vertex 2.717000e+02 7.051887e+01 -3.951613e+02
    endloop
  endfacet
  facet normal 8.769253e-13 9.869195e-01 1.612137e-01
    outer loop
      vertex 2.012500e+02 7.038990e+01 -3.943718e+02
      vertex 2.013207e+02 7.038518e+01 -3.943429e+02
      vertex 2.717000e+02 7.051887e+01 -3.951613e+02
    endloop
  endfacet
  facet normal 8.814122e-13 9.869195e-01 1.612137e-01
    outer loop
      vertex 1.011465e+02 7.048056e+01 -3.949268e+02
      vertex 2.012500e+02 7.038990e+01 -3.943718e+02
      vertex 1.016942e+02 7.051887e+01 -3.951613e+02
    endloop
  endfacet
  facet normal 9.401836e-13 9.869195e-01 1.612137e-01
    outer loop
      vertex 2.013500e+02 7.037378e+01 -3.942731e+02
      vertex 2.013500e+02 7.022063e+01 -3.933355e+02
      vertex 2.014000e+02 7.021257e+01 -3.932862e+02
    endloop
  endfacet
  facet normal -7.071068e-01 -1.139953e-01 6.978575e-01
    outer loop
      vertex 2.013500e+02 6.711183e+01 -3.938434e+02
      vertex 2.014000e+02 7.021257e+01 -3.932862e+02
      vertex 2.013500e+02 7.022063e+01 -3.933355e+02
    endloop
  endfacet
  facet normal -7.071068e-01 -1.139953e-01 6.978575e-01
    outer loop
      vertex 2.013500e+02 6.711183e+01 -3.938434e+02
      vertex 2.014000e+02 6.710377e+01 -3.937940e+02
      vertex 2.014000e+02 7.021257e+01 -3.932862e+02
    endloop
  endfacet
  facet normal -1.000000e+00 8.878757e-13 -6.535741e-15
    outer loop
      vertex 2.013500e+02 6.726498e+01 -3.947809e+02
      vertex 2.013500e+02 7.022063e+01 -3.933355e+02
      vertex 2.013500e+02 7.037378e+01 -3.942731e+02
    endloop
  endfacet
  facet normal -1.000000e+00 8.878757e-13 -6.535741e-15
    outer loop
      vertex 2.013500e+02 6.711183e+01 -3.938434e+02
      vertex 2.013500e+02 7.022063e+01 -3.933355e+02
      vertex 2.013500e+02 6.726498e+01 -3.947809e+02
    endloop
  endfacet
  facet normal -9.237749e-01 -6.173451e-02 3.779270e-01
    outer loop
      vertex 2.013500e+02 6.726498e+01 -3.947809e+02
      vertex 2.013500e+02 7.037378e+01 -3.942731e+02
      vertex 2.013207e+02 7.038518e+01 -3.943429e+02
    endloop
  endfacet
  facet normal -3.829360e-01 -1.489251e-01 9.116915e-01
    outer loop
      vertex 2.013207e+02 6.727638e+01 -3.948507e+02
      vertex 2.013207e+02 7.038518e+01 -3.943429e+02
      vertex 2.012500e+02 7.038990e+01 -3.943718e+02
    endloop
  endfacet
  facet normal -9.237749e-01 -6.173451e-02 3.779270e-01
    outer loop
      vertex 2.013500e+02 6.726498e+01 -3.947809e+02
      vertex 2.013207e+02 7.038518e+01 -3.943429e+02
      vertex 2.013207e+02 6.727638e+01 -3.948507e+02
    endloop
  endfacet
  facet normal 8.820131e-13 9.869195e-01 1.612137e-01
    outer loop
      vertex 1.011465e+02 7.048056e+01 -3.949268e+02
      vertex 1.009459e+02 7.038990e+01 -3.943718e+02
      vertex 2.012500e+02 7.038990e+01 -3.943718e+02
    endloop
  endfacet
  facet normal -1.440770e-13 -1.612137e-01 9.869195e-01
    outer loop
      vertex 2.012500e+02 6.728110e+01 -3.948796e+02
      vertex 2.012500e+02 7.038990e+01 -3.943718e+02
      vertex 1.009459e+02 7.038990e+01 -3.943718e+02
    endloop
  endfacet
  facet normal -3.829360e-01 -1.489251e-01 9.116915e-01
    outer loop
      vertex 2.013207e+02 6.727638e+01 -3.948507e+02
      vertex 2.012500e+02 7.038990e+01 -3.943718e+02
      vertex 2.012500e+02 6.728110e+01 -3.948796e+02
    endloop
  endfacet
  facet normal -9.470051e-13 -9.869195e-01 -1.612137e-01
    outer loop
      vertex 2.556410e+02 7.461633e+01 -4.397845e+02
      vertex 2.014000e+02 6.710377e+01 -3.937940e+02
      vertex 2.013500e+02 6.711183e+01 -3.938434e+02
    endloop
  endfacet
  facet normal -8.814532e-13 -9.869195e-01 -1.612137e-01
    outer loop
      vertex 9.628000e+01 7.188874e+01 -4.230867e+02
      vertex 9.628000e+01 7.549592e+01 -4.451692e+02
      vertex 9.819662e+01 7.770673e+01 -4.587033e+02
    endloop
  endfacet
  facet normal -8.772592e-13 -9.869195e-01 -1.612137e-01
    outer loop
      vertex 9.784760e+01 6.977995e+01 -4.101771e+02
      vertex 9.628000e+01 7.188874e+01 -4.230867e+02
      vertex 9.819662e+01 7.770673e+01 -4.587033e+02
    endloop
  endfacet
  facet normal -9.657519e-01 -6.764282e-03 -2.593792e-01
    outer loop
      vertex 9.970358e+01 8.318396e+01 -4.644571e+02
      vertex 9.989188e+01 8.329898e+01 -4.651612e+02
      vertex 9.819662e+01 7.770673e+01 -4.587033e+02
    endloop
  endfacet
  facet normal -9.678005e-01 1.853916e-03 -2.517118e-01
    outer loop
      vertex 9.951590e+01 8.306623e+01 -4.637363e+02
      vertex 9.970358e+01 8.318396e+01 -4.644571e+02
      vertex 9.819662e+01 7.770673e+01 -4.587033e+02
    endloop
  endfacet
  facet normal -7.071068e-01 -6.978575e-01 -1.139953e-01
    outer loop
      vertex 9.582998e+01 7.418779e+01 -4.343696e+02
      vertex 9.628000e+01 7.549592e+01 -4.451692e+02
      vertex 9.628000e+01 7.188874e+01 -4.230867e+02
    endloop
  endfacet
  facet normal -9.992361e-01 -6.364450e-03 3.855783e-02
    outer loop
      vertex 9.582998e+01 7.418779e+01 -4.343696e+02
      vertex 9.628000e+01 7.188874e+01 -4.230867e+02
      vertex 9.582997e+01 7.750371e+01 -4.338224e+02
    endloop
  endfacet
  facet normal -8.820139e-13 -9.869195e-01 -1.612137e-01
    outer loop
      vertex 1.584000e+02 7.461633e+01 -4.397845e+02
      vertex 2.012500e+02 6.728110e+01 -3.948796e+02
      vertex 1.009459e+02 6.728110e+01 -3.948796e+02
    endloop
  endfacet
  facet normal -8.895867e-13 -9.869195e-01 -1.612137e-01
    outer loop
      vertex 1.569000e+02 7.485815e+01 -4.412648e+02
      vertex 1.584000e+02 7.461633e+01 -4.397845e+02
      vertex 1.009459e+02 6.728110e+01 -3.948796e+02
    endloop
  endfacet
  facet normal -8.394331e-13 -9.869195e-01 -1.612137e-01
    outer loop
      vertex 1.584000e+02 7.509997e+01 -4.427452e+02
      vertex 1.569000e+02 7.485815e+01 -4.412648e+02
      vertex 1.009459e+02 6.728110e+01 -3.948796e+02
    endloop
  endfacet
  facet normal -8.035151e-13 -9.869195e-01 -1.612137e-01
    outer loop
      vertex 2.556410e+02 7.461633e+01 -4.397845e+02
      vertex 2.013207e+02 6.727638e+01 -3.948507e+02
      vertex 2.012500e+02 6.728110e+01 -3.948796e+02
    endloop
  endfacet
  facet normal -8.819602e-13 -9.869195e-01 -1.612137e-01
    outer loop
      vertex 2.556410e+02 7.461633e+01 -4.397845e+02
      vertex 2.012500e+02 6.728110e+01 -3.948796e+02
      vertex 1.584000e+02 7.461633e+01 -4.397845e+02
    endloop
  endfacet
  facet normal -1.010665e-12 -9.869195e-01 -1.612137e-01
    outer loop
      vertex 2.556410e+02 7.461633e+01 -4.397845e+02
      vertex 2.013500e+02 6.726498e+01 -3.947809e+02
      vertex 2.013207e+02 6.727638e+01 -3.948507e+02
    endloop
  endfacet
  facet normal -8.728788e-13 -9.869195e-01 -1.612137e-01
    outer loop
      vertex 2.556410e+02 7.461633e+01 -4.397845e+02
      vertex 2.013500e+02 6.711183e+01 -3.938434e+02
      vertex 2.013500e+02 6.726498e+01 -3.947809e+02
    endloop
  endfacet
  facet normal -1.667270e-11 9.869195e-01 1.612137e-01
    outer loop
      vertex 1.000562e+02 7.167867e+01 -3.981019e+02
      vertex 9.975111e+01 7.190610e+01 -3.994943e+02
      vertex 9.990186e+01 7.179281e+01 -3.988007e+02
    endloop
  endfacet
  facet normal 9.560781e-13 9.869195e-01 1.612137e-01
    outer loop
      vertex 1.003187e+02 7.161038e+01 -3.976839e+02
      vertex 9.975111e+01 7.190610e+01 -3.994943e+02
      vertex 1.000562e+02 7.167867e+01 -3.981019e+02
    endloop
  endfacet
endsolid P1040852002
