solid P1040852002
  facet normal 1.000000e+00 -7.069984e-13 1.130389e-14
    outer loop
      vertex 2.724500e+02 5.591652e+01 -4.685309e+02
      vertex 2.724500e+02 5.188108e+01 -3.990921e+02
      vertex 2.724500e+02 5.174014e+01 -3.978502e+02
    endloop
  endfacet
  facet normal 8.878540e-13 9.936217e-01 1.127650e-01
    outer loop
      vertex 9.975111e+01 5.188108e+01 -3.990921e+02
      vertex 2.724500e+02 5.174014e+01 -3.978502e+02
      vertex 2.724500e+02 5.188108e+01 -3.990921e+02
    endloop
  endfacet
  facet normal 1.000000e+00 -8.803873e-13 1.058673e-15
    outer loop
      vertex 2.724500e+02 4.896340e+01 -3.981653e+02
      vertex 2.724500e+02 5.591652e+01 -4.685309e+02
      vertex 2.724500e+02 5.174014e+01 -3.978502e+02
    endloop
  endfacet
  facet normal 9.238695e-01 -4.315601e-02 3.802666e-01
    outer loop
      vertex 2.722303e+02 5.168033e+01 -3.973233e+02
      vertex 2.724500e+02 4.896340e+01 -3.981653e+02
      vertex 2.724500e+02 5.174014e+01 -3.978502e+02
    endloop
  endfacet
  facet normal 8.880597e-13 9.936217e-01 1.127650e-01
    outer loop
      vertex 2.722303e+02 5.168033e+01 -3.973233e+02
      vertex 2.724500e+02 5.174014e+01 -3.978502e+02
      vertex 9.975111e+01 5.188108e+01 -3.990921e+02
    endloop
  endfacet
  facet normal 1.000000e+00 -1.142576e-12 -1.400977e-14
    outer loop
      vertex 2.724500e+02 5.591652e+01 -4.685309e+02
      vertex 2.724500e+02 5.198044e+01 -3.990809e+02
      vertex 2.724500e+02 5.188108e+01 -3.990921e+02
    endloop
  endfacet
  facet normal -1.007708e-13 -1.127650e-01 9.936217e-01
    outer loop
      vertex 9.975111e+01 5.198044e+01 -3.990809e+02
      vertex 2.724500e+02 5.188108e+01 -3.990921e+02
      vertex 2.724500e+02 5.198044e+01 -3.990809e+02
    endloop
  endfacet
  facet normal -1.007615e-13 -1.127650e-01 9.936217e-01
    outer loop
      vertex 9.975111e+01 5.188108e+01 -3.990921e+02
      vertex 2.724500e+02 5.188108e+01 -3.990921e+02
      vertex 9.975111e+01 5.198044e+01 -3.990809e+02
    endloop
  endfacet
  facet normal 1.000000e+00 -1.415241e-12 -6.397642e-14
    outer loop
      vertex 2.724500e+02 5.988671e+01 -4.638031e+02
      vertex 2.724500e+02 5.996663e+01 -4.637940e+02
      vertex 2.724500e+02 5.198044e+01 -3.990809e+02
    endloop
  endfacet
  facet normal 8.863771e-13 9.924710e-01 1.224800e-01
    outer loop
      vertex 2.556410e+02 5.594287e+01 -4.311889e+02
      vertex 2.724500e+02 5.198044e+01 -3.990809e+02
      vertex 2.724500e+02 5.996663e+01 -4.637940e+02
    endloop
  endfacet
  facet normal 1.000000e+00 -8.881745e-13 4.084456e-16
    outer loop
      vertex 2.724500e+02 5.591652e+01 -4.685309e+02
      vertex 2.724500e+02 5.988671e+01 -4.638031e+02
      vertex 2.724500e+02 5.198044e+01 -3.990809e+02
    endloop
  endfacet
  facet normal 8.869064e-13 9.924710e-01 1.224800e-01
    outer loop
      vertex 1.584000e+02 5.557541e+01 -4.282114e+02
      vertex 9.975111e+01 5.198044e+01 -3.990809e+02
      vertex 2.724500e+02 5.198044e+01 -3.990809e+02
    endloop
  endfacet
  facet normal 8.869213e-13 9.924710e-01 1.224800e-01
    outer loop
      vertex 2.556410e+02 5.557541e+01 -4.282114e+02
      vertex 1.584000e+02 5.557541e+01 -4.282114e+02
      vertex 2.724500e+02 5.198044e+01 -3.990809e+02
    endloop
  endfacet
  facet normal 8.832573e-13 9.924710e-01 1.224800e-01
    outer loop
      vertex 2.556410e+02 5.594287e+01 -4.311889e+02
      vertex 2.556410e+02 5.557541e+01 -4.282114e+02
      vertex 2.724500e+02 5.198044e+01 -3.990809e+02
    endloop
  endfacet
  facet normal 1.014213e-13 1.127650e-01 -9.936217e-01
    outer loop
      vertex 9.951590e+01 5.988671e+01 -4.638031e+02
      vertex 2.724500e+02 5.996663e+01 -4.637940e+02
      vertex 2.724500e+02 5.988671e+01 -4.638031e+02
    endloop
  endfacet
  facet normal 8.869246e-13 9.924710e-01 1.224800e-01
    outer loop
      vertex 2.556410e+02 5.594287e+01 -4.311889e+02
      vertex 2.724500e+02 5.996663e+01 -4.637940e+02
      vertex 9.951590e+01 5.996663e+01 -4.637940e+02
    endloop
  endfacet
  facet normal 1.007727e-13 1.127650e-01 -9.936217e-01
    outer loop
      vertex 9.951590e+01 5.988671e+01 -4.638031e+02
      vertex 9.951590e+01 5.996663e+01 -4.637940e+02
      vertex 2.724500e+02 5.996663e+01 -4.637940e+02
    endloop
  endfacet
  facet normal 1.000000e+00 -9.185911e-13 3.305012e-14
    outer loop
      vertex 2.724500e+02 5.909565e+01 -4.651509e+02
      vertex 2.724500e+02 6.002767e+01 -4.650451e+02
      vertex 2.724500e+02 5.988671e+01 -4.638031e+02
    endloop
  endfacet
  facet normal 8.402931e-13 9.936217e-01 1.127650e-01
    outer loop
      vertex 2.722303e+02 6.008747e+01 -4.655720e+02
      vertex 2.724500e+02 5.988671e+01 -4.638031e+02
      vertex 2.724500e+02 6.002767e+01 -4.650451e+02
    endloop
  endfacet
  facet normal 1.000000e+00 -9.466729e-13 4.953219e-14
    outer loop
      vertex 2.724500e+02 5.591652e+01 -4.685309e+02
      vertex 2.724500e+02 5.909565e+01 -4.651509e+02
      vertex 2.724500e+02 5.988671e+01 -4.638031e+02
    endloop
  endfacet
  facet normal 8.878260e-13 9.936217e-01 1.127650e-01
    outer loop
      vertex 1.006164e+02 6.011224e+01 -4.657903e+02
      vertex 2.724500e+02 5.988671e+01 -4.638031e+02
      vertex 2.717000e+02 6.011224e+01 -4.657903e+02
    endloop
  endfacet
  facet normal 8.985329e-13 9.936217e-01 1.127650e-01
    outer loop
      vertex 2.722303e+02 6.008747e+01 -4.655720e+02
      vertex 2.717000e+02 6.011224e+01 -4.657903e+02
      vertex 2.724500e+02 5.988671e+01 -4.638031e+02
    endloop
  endfacet
  facet normal 8.884654e-13 9.936217e-01 1.127650e-01
    outer loop
      vertex 1.001597e+02 6.009475e+01 -4.656362e+02
      vertex 2.724500e+02 5.988671e+01 -4.638031e+02
      vertex 1.006164e+02 6.011224e+01 -4.657903e+02
    endloop
  endfacet
  facet normal 8.879461e-13 9.936217e-01 1.127650e-01
    outer loop
      vertex 9.970358e+01 5.996906e+01 -4.645287e+02
      vertex 2.724500e+02 5.988671e+01 -4.638031e+02
      vertex 9.989188e+01 6.004952e+01 -4.652376e+02
    endloop
  endfacet
  facet normal 8.878734e-13 9.936217e-01 1.127650e-01
    outer loop
      vertex 1.001597e+02 6.009475e+01 -4.656362e+02
      vertex 9.989188e+01 6.004952e+01 -4.652376e+02
      vertex 2.724500e+02 5.988671e+01 -4.638031e+02
    endloop
  endfacet
  facet normal 8.878379e-13 9.936217e-01 1.127650e-01
    outer loop
      vertex 9.951590e+01 5.988671e+01 -4.638031e+02
      vertex 2.724500e+02 5.988671e+01 -4.638031e+02
      vertex 9.970358e+01 5.996906e+01 -4.645287e+02
    endloop
  endfacet
  facet normal 9.238695e-01 4.315601e-02 -3.802666e-01
    outer loop
      vertex 2.722303e+02 5.915545e+01 -4.656778e+02
      vertex 2.724500e+02 6.002767e+01 -4.650451e+02
      vertex 2.724500e+02 5.909565e+01 -4.651509e+02
    endloop
  endfacet
  facet normal 9.238695e-01 4.315601e-02 -3.802666e-01
    outer loop
      vertex 2.722303e+02 6.008747e+01 -4.655720e+02
      vertex 2.724500e+02 6.002767e+01 -4.650451e+02
      vertex 2.722303e+02 5.915545e+01 -4.656778e+02
    endloop
  endfacet
  facet normal 1.000000e+00 -8.882106e-13 -5.454800e-15
    outer loop
      vertex 2.724500e+02 5.591652e+01 -4.685309e+02
      vertex 2.724500e+02 5.943394e+01 -4.681317e+02
      vertex 2.724500e+02 5.909565e+01 -4.651509e+02
    endloop
  endfacet
  facet normal 9.309496e-13 9.936217e-01 1.127650e-01
    outer loop
      vertex 2.722303e+02 5.915545e+01 -4.656778e+02
      vertex 2.724500e+02 5.909565e+01 -4.651509e+02
      vertex 2.724500e+02 5.943394e+01 -4.681317e+02
    endloop
  endfacet
  facet normal 1.007657e-13 1.127650e-01 -9.936217e-01
    outer loop
      vertex 1.006807e+02 5.591652e+01 -4.685309e+02
      vertex 2.724500e+02 5.943394e+01 -4.681317e+02
      vertex 2.724500e+02 5.591652e+01 -4.685309e+02
    endloop
  endfacet
  facet normal 1.007704e-13 1.127650e-01 -9.936217e-01
    outer loop
      vertex 1.006807e+02 5.591652e+01 -4.685309e+02
      vertex 1.006807e+02 5.943394e+01 -4.681317e+02
      vertex 2.724500e+02 5.943394e+01 -4.681317e+02
    endloop
  endfacet
  facet normal 8.879323e-13 9.936217e-01 1.127650e-01
    outer loop
      vertex 2.717000e+02 5.918022e+01 -4.658961e+02
      vertex 2.724500e+02 5.943394e+01 -4.681317e+02
      vertex 1.006807e+02 5.943394e+01 -4.681317e+02
    endloop
  endfacet
  facet normal 8.745142e-13 9.936217e-01 1.127650e-01
    outer loop
      vertex 2.722303e+02 5.915545e+01 -4.656778e+02
      vertex 2.724500e+02 5.943394e+01 -4.681317e+02
      vertex 2.717000e+02 5.918022e+01 -4.658961e+02
    endloop
  endfacet
  facet normal 1.000000e+00 -8.903764e-13 1.788194e-17
    outer loop
      vertex 2.724500e+02 4.851234e+01 -3.941909e+02
      vertex 2.724500e+02 4.736321e+01 -3.931639e+02
      vertex 2.724500e+02 5.591652e+01 -4.685309e+02
    endloop
  endfacet
  facet normal -8.874870e-13 -9.936217e-01 -1.127650e-01
    outer loop
      vertex 2.556410e+02 5.139455e+01 -4.286859e+02
      vertex 2.724500e+02 5.591652e+01 -4.685309e+02
      vertex 2.724500e+02 4.736321e+01 -3.931639e+02
    endloop
  endfacet
  facet normal 1.000000e+00 -8.219020e-13 6.837848e-15
    outer loop
      vertex 2.724500e+02 4.896340e+01 -3.981653e+02
      vertex 2.724500e+02 4.851234e+01 -3.941909e+02
      vertex 2.724500e+02 5.591652e+01 -4.685309e+02
    endloop
  endfacet
  facet normal -8.878910e-13 -9.936217e-01 -1.127650e-01
    outer loop
      vertex 1.584000e+02 5.173285e+01 -4.316667e+02
      vertex 1.006807e+02 5.591652e+01 -4.685309e+02
      vertex 2.724500e+02 5.591652e+01 -4.685309e+02
    endloop
  endfacet
  facet normal -8.879496e-13 -9.936217e-01 -1.127650e-01
    outer loop
      vertex 2.556410e+02 5.173285e+01 -4.316667e+02
      vertex 1.584000e+02 5.173285e+01 -4.316667e+02
      vertex 2.724500e+02 5.591652e+01 -4.685309e+02
    endloop
  endfacet
  facet normal -8.889710e-13 -9.936217e-01 -1.127650e-01
    outer loop
      vertex 2.556410e+02 5.139455e+01 -4.286859e+02
      vertex 2.556410e+02 5.173285e+01 -4.316667e+02
      vertex 2.724500e+02 5.591652e+01 -4.685309e+02
    endloop
  endfacet
  facet normal 1.000000e+00 -8.738468e-13 1.851382e-14
    outer loop
      vertex 2.724500e+02 4.851234e+01 -3.941909e+02
      vertex 2.724500e+02 5.049312e+01 -3.928087e+02
      vertex 2.724500e+02 4.736321e+01 -3.931639e+02
    endloop
  endfacet
  facet normal -1.023853e-13 -1.127650e-01 9.936217e-01
    outer loop
      vertex 2.014000e+02 5.049312e+01 -3.928087e+02
      vertex 2.724500e+02 4.736321e+01 -3.931639e+02
      vertex 2.724500e+02 5.049312e+01 -3.928087e+02
    endloop
  endfacet
  facet normal -1.007728e-13 -1.127650e-01 9.936217e-01
    outer loop
      vertex 2.014000e+02 4.736321e+01 -3.931639e+02
      vertex 2.724500e+02 4.736321e+01 -3.931639e+02
      vertex 2.014000e+02 5.049312e+01 -3.928087e+02
    endloop
  endfacet
  facet normal -8.879527e-13 -9.936217e-01 -1.127650e-01
    outer loop
      vertex 2.556410e+02 5.139455e+01 -4.286859e+02
      vertex 2.724500e+02 4.736321e+01 -3.931639e+02
      vertex 2.014000e+02 4.736321e+01 -3.931639e+02
    endloop
  endfacet
  facet normal 1.000000e+00 -8.942490e-13 4.775180e-14
    outer loop
      vertex 2.724500e+02 4.851234e+01 -3.941909e+02
      vertex 2.724500e+02 5.062279e+01 -3.939513e+02
      vertex 2.724500e+02 5.049312e+01 -3.928087e+02
    endloop
  endfacet
  facet normal 9.264360e-13 9.936217e-01 1.127650e-01
    outer loop
      vertex 2.722303e+02 5.068260e+01 -3.944783e+02
      vertex 2.724500e+02 5.049312e+01 -3.928087e+02
      vertex 2.724500e+02 5.062279e+01 -3.939513e+02
    endloop
  endfacet
  facet normal 8.879721e-13 9.936217e-01 1.127650e-01
    outer loop
      vertex 2.014000e+02 5.049312e+01 -3.928087e+02
      vertex 2.724500e+02 5.049312e+01 -3.928087e+02
      vertex 2.717000e+02 5.070737e+01 -3.946966e+02
    endloop
  endfacet
  facet normal 8.888612e-13 9.936217e-01 1.127650e-01
    outer loop
      vertex 2.722303e+02 5.068260e+01 -3.944783e+02
      vertex 2.717000e+02 5.070737e+01 -3.946966e+02
      vertex 2.724500e+02 5.049312e+01 -3.928087e+02
    endloop
  endfacet
  facet normal 9.238695e-01 4.315601e-02 -3.802666e-01
    outer loop
      vertex 2.722303e+02 4.857214e+01 -3.947178e+02
      vertex 2.724500e+02 5.062279e+01 -3.939513e+02
      vertex 2.724500e+02 4.851234e+01 -3.941909e+02
    endloop
  endfacet
  facet normal 9.238695e-01 4.315601e-02 -3.802666e-01
    outer loop
      vertex 2.722303e+02 5.068260e+01 -3.944783e+02
      vertex 2.724500e+02 5.062279e+01 -3.939513e+02
      vertex 2.722303e+02 4.857214e+01 -3.947178e+02
    endloop
  endfacet
  facet normal 8.816331e-13 9.936217e-01 1.127650e-01
    outer loop
      vertex 2.722303e+02 4.890360e+01 -3.976384e+02
      vertex 2.724500e+02 4.851234e+01 -3.941909e+02
      vertex 2.724500e+02 4.896340e+01 -3.981653e+02
    endloop
  endfacet
  facet normal 9.105665e-13 9.936217e-01 1.127650e-01
    outer loop
      vertex 2.722303e+02 4.890360e+01 -3.976384e+02
      vertex 2.722303e+02 4.857214e+01 -3.947178e+02
      vertex 2.724500e+02 4.851234e+01 -3.941909e+02
    endloop
  endfacet
  facet normal 9.238695e-01 -4.315601e-02 3.802666e-01
    outer loop
      vertex 2.722303e+02 5.168033e+01 -3.973233e+02
      vertex 2.722303e+02 4.890360e+01 -3.976384e+02
      vertex 2.724500e+02 4.896340e+01 -3.981653e+02
    endloop
  endfacet
  facet normal -9.709570e-01 2.697946e-02 -2.377279e-01
    outer loop
      vertex 9.819662e+01 5.477972e+01 -4.585140e+02
      vertex 1.006807e+02 5.943394e+01 -4.681317e+02
      vertex 1.006807e+02 5.591652e+01 -4.685309e+02
    endloop
  endfacet
  facet normal 8.879422e-13 9.936217e-01 1.127650e-01
    outer loop
      vertex 1.006164e+02 5.918022e+01 -4.658961e+02
      vertex 2.717000e+02 5.918022e+01 -4.658961e+02
      vertex 1.006807e+02 5.943394e+01 -4.681317e+02
    endloop
  endfacet
  facet normal 8.676320e-13 9.936217e-01 1.127650e-01
    outer loop
      vertex 1.002861e+02 5.927951e+01 -4.667709e+02
      vertex 1.006164e+02 5.918022e+01 -4.658961e+02
      vertex 1.006807e+02 5.943394e+01 -4.681317e+02
    endloop
  endfacet
  facet normal -9.546893e-01 -8.176696e-02 -2.861511e-01
    outer loop
      vertex 9.819662e+01 5.477972e+01 -4.585140e+02
      vertex 1.002861e+02 5.927951e+01 -4.667709e+02
      vertex 1.006807e+02 5.943394e+01 -4.681317e+02
    endloop
  endfacet
  facet normal -8.884192e-13 -9.936217e-01 -1.127650e-01
    outer loop
      vertex 9.784760e+01 4.923513e+01 -4.096582e+02
      vertex 9.819662e+01 5.477972e+01 -4.585140e+02
      vertex 1.006807e+02 5.591652e+01 -4.685309e+02
    endloop
  endfacet
  facet normal -8.836700e-13 -9.936217e-01 -1.127650e-01
    outer loop
      vertex 1.009459e+02 4.748725e+01 -3.942569e+02
      vertex 9.784760e+01 4.923513e+01 -4.096582e+02
      vertex 1.006807e+02 5.591652e+01 -4.685309e+02
    endloop
  endfacet
  facet normal -8.880817e-13 -9.936217e-01 -1.127650e-01
    outer loop
      vertex 1.584000e+02 5.173285e+01 -4.316667e+02
      vertex 1.009459e+02 4.748725e+01 -3.942569e+02
      vertex 1.006807e+02 5.591652e+01 -4.685309e+02
    endloop
  endfacet
  facet normal 1.007715e-13 1.127650e-01 -9.936217e-01
    outer loop
      vertex 2.717000e+02 6.011224e+01 -4.657903e+02
      vertex 2.717000e+02 5.918022e+01 -4.658961e+02
      vertex 1.006164e+02 5.918022e+01 -4.658961e+02
    endloop
  endfacet
  facet normal 3.827076e-01 1.041801e-01 -9.179768e-01
    outer loop
      vertex 2.722303e+02 6.008747e+01 -4.655720e+02
      vertex 2.722303e+02 5.915545e+01 -4.656778e+02
      vertex 2.717000e+02 5.918022e+01 -4.658961e+02
    endloop
  endfacet
  facet normal 3.827076e-01 1.041801e-01 -9.179768e-01
    outer loop
      vertex 2.722303e+02 6.008747e+01 -4.655720e+02
      vertex 2.717000e+02 5.918022e+01 -4.658961e+02
      vertex 2.717000e+02 6.011224e+01 -4.657903e+02
    endloop
  endfacet
  facet normal 8.842646e-13 9.936217e-01 1.127650e-01
    outer loop
      vertex 1.002861e+02 5.927951e+01 -4.667709e+02
      vertex 1.001597e+02 5.916273e+01 -4.657419e+02
      vertex 1.006164e+02 5.918022e+01 -4.658961e+02
    endloop
  endfacet
  facet normal -3.216048e-01 1.067742e-01 -9.408345e-01
    outer loop
      vertex 1.006164e+02 6.011224e+01 -4.657903e+02
      vertex 1.006164e+02 5.918022e+01 -4.658961e+02
      vertex 1.001597e+02 5.916273e+01 -4.657419e+02
    endloop
  endfacet
  facet normal 1.014271e-13 1.127650e-01 -9.936217e-01
    outer loop
      vertex 1.006164e+02 6.011224e+01 -4.657903e+02
      vertex 2.717000e+02 6.011224e+01 -4.657903e+02
      vertex 1.006164e+02 5.918022e+01 -4.658961e+02
    endloop
  endfacet
  facet normal 8.430719e-13 9.936217e-01 1.127650e-01
    outer loop
      vertex 1.002861e+02 5.927951e+01 -4.667709e+02
      vertex 9.989188e+01 5.911749e+01 -4.653434e+02
      vertex 1.001597e+02 5.916273e+01 -4.657419e+02
    endloop
  endfacet
  facet normal -8.316669e-01 6.261555e-02 -5.517332e-01
    outer loop
      vertex 1.001597e+02 6.009475e+01 -4.656362e+02
      vertex 1.001597e+02 5.916273e+01 -4.657419e+02
      vertex 9.989188e+01 5.911749e+01 -4.653434e+02
    endloop
  endfacet
  facet normal -3.216048e-01 1.067742e-01 -9.408345e-01
    outer loop
      vertex 1.001597e+02 6.009475e+01 -4.656362e+02
      vertex 1.006164e+02 6.011224e+01 -4.657903e+02
      vertex 1.001597e+02 5.916273e+01 -4.657419e+02
    endloop
  endfacet
  facet normal -9.611395e-01 -5.140260e-02 -2.712356e-01
    outer loop
      vertex 9.819662e+01 5.477972e+01 -4.585140e+02
      vertex 9.989188e+01 5.911749e+01 -4.653434e+02
      vertex 1.002861e+02 5.927951e+01 -4.667709e+02
    endloop
  endfacet
  facet normal -9.739069e-01 2.559178e-02 -2.255004e-01
    outer loop
      vertex 9.989188e+01 6.004952e+01 -4.652376e+02
      vertex 9.989188e+01 5.911749e+01 -4.653434e+02
      vertex 9.819662e+01 5.477972e+01 -4.585140e+02
    endloop
  endfacet
  facet normal -8.316669e-01 6.261555e-02 -5.517332e-01
    outer loop
      vertex 1.001597e+02 6.009475e+01 -4.656362e+02
      vertex 9.989188e+01 5.911749e+01 -4.653434e+02
      vertex 9.989188e+01 6.004952e+01 -4.652376e+02
    endloop
  endfacet
  facet normal 8.778718e-13 9.924710e-01 1.224800e-01
    outer loop
      vertex 9.753102e+01 5.880649e+01 -4.543932e+02
      vertex 9.749951e+01 5.350924e+01 -4.114689e+02
      vertex 9.975111e+01 5.198044e+01 -3.990809e+02
    endloop
  endfacet
  facet normal -9.841153e-01 -2.001919e-02 1.763979e-01
    outer loop
      vertex 9.975111e+01 5.188108e+01 -3.990921e+02
      vertex 9.975111e+01 5.198044e+01 -3.990809e+02
      vertex 9.749951e+01 5.350924e+01 -4.114689e+02
    endloop
  endfacet
  facet normal 8.918338e-13 9.924710e-01 1.224800e-01
    outer loop
      vertex 9.951590e+01 5.996663e+01 -4.637940e+02
      vertex 9.753102e+01 5.880649e+01 -4.543932e+02
      vertex 9.975111e+01 5.198044e+01 -3.990809e+02
    endloop
  endfacet
  facet normal 8.869692e-13 9.924710e-01 1.224800e-01
    outer loop
      vertex 1.569000e+02 5.575914e+01 -4.297002e+02
      vertex 9.951590e+01 5.996663e+01 -4.637940e+02
      vertex 9.975111e+01 5.198044e+01 -3.990809e+02
    endloop
  endfacet
  facet normal 8.893506e-13 9.924710e-01 1.224800e-01
    outer loop
      vertex 1.569000e+02 5.575914e+01 -4.297002e+02
      vertex 9.975111e+01 5.198044e+01 -3.990809e+02
      vertex 1.584000e+02 5.557541e+01 -4.282114e+02
    endloop
  endfacet
  facet normal 8.936411e-13 9.924710e-01 1.224800e-01
    outer loop
      vertex 9.628000e+01 5.757269e+01 -4.443955e+02
      vertex 9.628000e+01 5.483204e+01 -4.221877e+02
      vertex 9.749951e+01 5.350924e+01 -4.114689e+02
    endloop
  endfacet
  facet normal -9.934605e-01 -3.484594e-02 1.087291e-01
    outer loop
      vertex 9.784760e+01 4.923513e+01 -4.096582e+02
      vertex 9.749951e+01 5.350924e+01 -4.114689e+02
      vertex 9.628000e+01 5.483204e+01 -4.221877e+02
    endloop
  endfacet
  facet normal 8.870390e-13 9.924710e-01 1.224800e-01
    outer loop
      vertex 9.753102e+01 5.880649e+01 -4.543932e+02
      vertex 9.628000e+01 5.757269e+01 -4.443955e+02
      vertex 9.749951e+01 5.350924e+01 -4.114689e+02
    endloop
  endfacet
  facet normal -9.839472e-01 -4.554380e-03 1.784017e-01
    outer loop
      vertex 9.975111e+01 5.188108e+01 -3.990921e+02
      vertex 9.749951e+01 5.350924e+01 -4.114689e+02
      vertex 9.784760e+01 4.923513e+01 -4.096582e+02
    endloop
  endfacet
  facet normal -7.071068e-01 7.017830e-01 8.660644e-02
    outer loop
      vertex 9.582997e+01 5.579351e+01 -4.336529e+02
      vertex 9.628000e+01 5.483204e+01 -4.221877e+02
      vertex 9.628000e+01 5.757269e+01 -4.443955e+02
    endloop
  endfacet
  facet normal -9.928956e-01 -1.341838e-02 1.182301e-01
    outer loop
      vertex 9.784760e+01 4.923513e+01 -4.096582e+02
      vertex 9.628000e+01 5.483204e+01 -4.221877e+02
      vertex 9.628000e+01 5.071018e+01 -4.226555e+02
    endloop
  endfacet
  facet normal -9.992353e-01 -4.408706e-03 3.885191e-02
    outer loop
      vertex 9.582997e+01 5.579351e+01 -4.336529e+02
      vertex 9.628000e+01 5.071018e+01 -4.226555e+02
      vertex 9.628000e+01 5.483204e+01 -4.221877e+02
    endloop
  endfacet
  facet normal -9.923758e-01 1.389764e-02 -1.224627e-01
    outer loop
      vertex 9.628000e+01 5.323331e+01 -4.448880e+02
      vertex 9.628000e+01 5.757269e+01 -4.443955e+02
      vertex 9.753102e+01 5.880649e+01 -4.543932e+02
    endloop
  endfacet
  facet normal -9.991440e-01 4.665330e-03 -4.110366e-02
    outer loop
      vertex 9.582998e+01 5.245479e+01 -4.340373e+02
      vertex 9.628000e+01 5.757269e+01 -4.443955e+02
      vertex 9.628000e+01 5.323331e+01 -4.448880e+02
    endloop
  endfacet
  facet normal -9.991450e-01 4.727293e-03 -4.107309e-02
    outer loop
      vertex 9.582998e+01 5.245479e+01 -4.340373e+02
      vertex 9.582997e+01 5.579351e+01 -4.336529e+02
      vertex 9.628000e+01 5.757269e+01 -4.443955e+02
    endloop
  endfacet
  facet normal -9.785627e-01 4.411883e-02 -2.011678e-01
    outer loop
      vertex 9.819662e+01 5.477972e+01 -4.585140e+02
      vertex 9.753102e+01 5.880649e+01 -4.543932e+02
      vertex 9.951590e+01 5.996663e+01 -4.637940e+02
    endloop
  endfacet
  facet normal -9.897760e-01 -1.893099e-02 -1.413690e-01
    outer loop
      vertex 9.628000e+01 5.323331e+01 -4.448880e+02
      vertex 9.753102e+01 5.880649e+01 -4.543932e+02
      vertex 9.819662e+01 5.477972e+01 -4.585140e+02
    endloop
  endfacet
  facet normal 8.869213e-13 9.924710e-01 1.224800e-01
    outer loop
      vertex 1.584000e+02 5.594287e+01 -4.311889e+02
      vertex 2.556410e+02 5.594287e+01 -4.311889e+02
      vertex 9.951590e+01 5.996663e+01 -4.637940e+02
    endloop
  endfacet
  facet normal 8.883206e-13 9.924710e-01 1.224800e-01
    outer loop
      vertex 1.569000e+02 5.575914e+01 -4.297002e+02
      vertex 1.584000e+02 5.594287e+01 -4.311889e+02
      vertex 9.951590e+01 5.996663e+01 -4.637940e+02
    endloop
  endfacet
  facet normal -9.753489e-01 2.488367e-02 -2.192610e-01
    outer loop
      vertex 9.951590e+01 5.988671e+01 -4.638031e+02
      vertex 9.819662e+01 5.477972e+01 -4.585140e+02
      vertex 9.951590e+01 5.996663e+01 -4.637940e+02
    endloop
  endfacet
  facet normal 1.007724e-13 1.127650e-01 -9.936217e-01
    outer loop
      vertex 1.584000e+02 5.139455e+01 -4.286859e+02
      vertex 1.584000e+02 5.557541e+01 -4.282114e+02
      vertex 2.556410e+02 5.557541e+01 -4.282114e+02
    endloop
  endfacet
  facet normal 7.071068e-01 7.973688e-02 -7.025966e-01
    outer loop
      vertex 1.569000e+02 5.156370e+01 -4.301763e+02
      vertex 1.569000e+02 5.575914e+01 -4.297002e+02
      vertex 1.584000e+02 5.557541e+01 -4.282114e+02
    endloop
  endfacet
  facet normal 7.071068e-01 7.973687e-02 -7.025966e-01
    outer loop
      vertex 1.569000e+02 5.156370e+01 -4.301763e+02
      vertex 1.584000e+02 5.557541e+01 -4.282114e+02
      vertex 1.584000e+02 5.139455e+01 -4.286859e+02
    endloop
  endfacet
  facet normal -1.000000e+00 8.916386e-13 -4.507440e-15
    outer loop
      vertex 2.556410e+02 5.173285e+01 -4.316667e+02
      vertex 2.556410e+02 5.557541e+01 -4.282114e+02
      vertex 2.556410e+02 5.594287e+01 -4.311889e+02
    endloop
  endfacet
  facet normal 1.007724e-13 1.127650e-01 -9.936217e-01
    outer loop
      vertex 2.556410e+02 5.139455e+01 -4.286859e+02
      vertex 1.584000e+02 5.139455e+01 -4.286859e+02
      vertex 2.556410e+02 5.557541e+01 -4.282114e+02
    endloop
  endfacet
  facet normal -1.000000e+00 8.909723e-13 -3.766502e-15
    outer loop
      vertex 2.556410e+02 5.139455e+01 -4.286859e+02
      vertex 2.556410e+02 5.557541e+01 -4.282114e+02
      vertex 2.556410e+02 5.173285e+01 -4.316667e+02
    endloop
  endfacet
  facet normal -1.007723e-13 -1.127650e-01 9.936217e-01
    outer loop
      vertex 2.556410e+02 5.173285e+01 -4.316667e+02
      vertex 2.556410e+02 5.594287e+01 -4.311889e+02
      vertex 1.584000e+02 5.594287e+01 -4.311889e+02
    endloop
  endfacet
  facet normal 7.071068e-01 -7.973687e-02 7.025966e-01
    outer loop
      vertex 1.584000e+02 5.173285e+01 -4.316667e+02
      vertex 1.584000e+02 5.594287e+01 -4.311889e+02
      vertex 1.569000e+02 5.575914e+01 -4.297002e+02
    endloop
  endfacet
  facet normal -1.007724e-13 -1.127650e-01 9.936217e-01
    outer loop
      vertex 2.556410e+02 5.173285e+01 -4.316667e+02
      vertex 1.584000e+02 5.594287e+01 -4.311889e+02
      vertex 1.584000e+02 5.173285e+01 -4.316667e+02
    endloop
  endfacet
  facet normal 7.071068e-01 -7.973688e-02 7.025966e-01
    outer loop
      vertex 1.584000e+02 5.173285e+01 -4.316667e+02
      vertex 1.569000e+02 5.575914e+01 -4.297002e+02
      vertex 1.569000e+02 5.156370e+01 -4.301763e+02
    endloop
  endfacet
  facet normal -1.007747e-13 -1.127650e-01 9.936217e-01
    outer loop
      vertex 2.717000e+02 4.887883e+01 -3.974201e+02
      vertex 2.717000e+02 5.165556e+01 -3.971050e+02
      vertex 1.007887e+02 5.165556e+01 -3.971050e+02
    endloop
  endfacet
  facet normal 8.879696e-13 9.936217e-01 1.127650e-01
    outer loop
      vertex 9.975111e+01 5.188108e+01 -3.990921e+02
      vertex 1.007887e+02 5.165556e+01 -3.971050e+02
      vertex 2.717000e+02 5.165556e+01 -3.971050e+02
    endloop
  endfacet
  facet normal -1.007653e-13 -1.127650e-01 9.936217e-01
    outer loop
      vertex 1.007887e+02 4.887883e+01 -3.974201e+02
      vertex 2.717000e+02 4.887883e+01 -3.974201e+02
      vertex 1.007887e+02 5.165556e+01 -3.971050e+02
    endloop
  endfacet
  facet normal -3.322145e-01 -1.063603e-01 9.371878e-01
    outer loop
      vertex 1.003187e+02 5.167423e+01 -3.972695e+02
      vertex 1.007887e+02 4.887883e+01 -3.974201e+02
      vertex 1.007887e+02 5.165556e+01 -3.971050e+02
    endloop
  endfacet
  facet normal 8.795675e-13 9.936217e-01 1.127650e-01
    outer loop
      vertex 1.003187e+02 5.167423e+01 -3.972695e+02
      vertex 1.007887e+02 5.165556e+01 -3.971050e+02
      vertex 9.975111e+01 5.188108e+01 -3.990921e+02
    endloop
  endfacet
  facet normal 3.827076e-01 -1.041801e-01 9.179768e-01
    outer loop
      vertex 2.722303e+02 4.890360e+01 -3.976384e+02
      vertex 2.717000e+02 5.165556e+01 -3.971050e+02
      vertex 2.717000e+02 4.887883e+01 -3.974201e+02
    endloop
  endfacet
  facet normal 3.827076e-01 -1.041801e-01 9.179768e-01
    outer loop
      vertex 2.722303e+02 5.168033e+01 -3.973233e+02
      vertex 2.717000e+02 5.165556e+01 -3.971050e+02
      vertex 2.722303e+02 4.890360e+01 -3.976384e+02
    endloop
  endfacet
  facet normal 8.867989e-13 9.936217e-01 1.127650e-01
    outer loop
      vertex 2.722303e+02 5.168033e+01 -3.973233e+02
      vertex 9.975111e+01 5.188108e+01 -3.990921e+02
      vertex 2.717000e+02 5.165556e+01 -3.971050e+02
    endloop
  endfacet
  facet normal 8.878871e-13 9.936217e-01 1.127650e-01
    outer loop
      vertex 2.717000e+02 4.859692e+01 -3.949361e+02
      vertex 2.717000e+02 4.887883e+01 -3.974201e+02
      vertex 1.007887e+02 4.887883e+01 -3.974201e+02
    endloop
  endfacet
  facet normal 8.655270e-13 9.936217e-01 1.127650e-01
    outer loop
      vertex 2.717000e+02 4.859692e+01 -3.949361e+02
      vertex 2.722303e+02 4.857214e+01 -3.947178e+02
      vertex 2.717000e+02 4.887883e+01 -3.974201e+02
    endloop
  endfacet
  facet normal 8.719919e-13 9.936217e-01 1.127650e-01
    outer loop
      vertex 2.722303e+02 4.890360e+01 -3.976384e+02
      vertex 2.717000e+02 4.887883e+01 -3.974201e+02
      vertex 2.722303e+02 4.857214e+01 -3.947178e+02
    endloop
  endfacet
  facet normal 8.879652e-13 9.936217e-01 1.127650e-01
    outer loop
      vertex 1.016942e+02 4.859692e+01 -3.949361e+02
      vertex 2.717000e+02 4.859692e+01 -3.949361e+02
      vertex 1.007887e+02 4.887883e+01 -3.974201e+02
    endloop
  endfacet
  facet normal 8.887889e-13 9.936217e-01 1.127650e-01
    outer loop
      vertex 1.011465e+02 4.857012e+01 -3.946999e+02
      vertex 1.016942e+02 4.859692e+01 -3.949361e+02
      vertex 1.007887e+02 4.887883e+01 -3.974201e+02
    endloop
  endfacet
  facet normal 9.091168e-13 9.936217e-01 1.127650e-01
    outer loop
      vertex 1.009459e+02 4.850670e+01 -3.941412e+02
      vertex 1.011465e+02 4.857012e+01 -3.946999e+02
      vertex 1.007887e+02 4.887883e+01 -3.974201e+02
    endloop
  endfacet
  facet normal 9.423716e-13 9.936217e-01 1.127650e-01
    outer loop
      vertex 1.004895e+02 4.872733e+01 -3.960852e+02
      vertex 1.009459e+02 4.850670e+01 -3.941412e+02
      vertex 1.007887e+02 4.887883e+01 -3.974201e+02
    endloop
  endfacet
  facet normal 9.413165e-13 9.936217e-01 1.127650e-01
    outer loop
      vertex 1.003187e+02 4.889750e+01 -3.975846e+02
      vertex 1.004895e+02 4.872733e+01 -3.960852e+02
      vertex 1.007887e+02 4.887883e+01 -3.974201e+02
    endloop
  endfacet
  facet normal -3.322145e-01 -1.063603e-01 9.371878e-01
    outer loop
      vertex 1.003187e+02 5.167423e+01 -3.972695e+02
      vertex 1.003187e+02 4.889750e+01 -3.975846e+02
      vertex 1.007887e+02 4.887883e+01 -3.974201e+02
    endloop
  endfacet
  facet normal 3.827076e-01 1.041801e-01 -9.179768e-01
    outer loop
      vertex 2.722303e+02 5.068260e+01 -3.944783e+02
      vertex 2.722303e+02 4.857214e+01 -3.947178e+02
      vertex 2.717000e+02 4.859692e+01 -3.949361e+02
    endloop
  endfacet
  facet normal 1.007742e-13 1.127650e-01 -9.936217e-01
    outer loop
      vertex 2.717000e+02 5.070737e+01 -3.946966e+02
      vertex 2.717000e+02 4.859692e+01 -3.949361e+02
      vertex 1.016942e+02 4.859692e+01 -3.949361e+02
    endloop
  endfacet
  facet normal 3.827076e-01 1.041801e-01 -9.179768e-01
    outer loop
      vertex 2.722303e+02 5.068260e+01 -3.944783e+02
      vertex 2.717000e+02 4.859692e+01 -3.949361e+02
      vertex 2.717000e+02 5.070737e+01 -3.946966e+02
    endloop
  endfacet
  facet normal -3.980660e-01 1.034457e-01 -9.115056e-01
    outer loop
      vertex 1.016942e+02 5.070737e+01 -3.946966e+02
      vertex 1.016942e+02 4.859692e+01 -3.949361e+02
      vertex 1.011465e+02 4.857012e+01 -3.946999e+02
    endloop
  endfacet
  facet normal 1.007647e-13 1.127650e-01 -9.936217e-01
    outer loop
      vertex 1.016942e+02 5.070737e+01 -3.946966e+02
      vertex 2.717000e+02 5.070737e+01 -3.946966e+02
      vertex 1.016942e+02 4.859692e+01 -3.949361e+02
    endloop
  endfacet
  facet normal -9.418537e-01 3.789165e-02 -3.338800e-01
    outer loop
      vertex 1.011465e+02 5.068057e+01 -3.944604e+02
      vertex 1.011465e+02 4.857012e+01 -3.946999e+02
      vertex 1.009459e+02 4.850670e+01 -3.941412e+02
    endloop
  endfacet
  facet normal -3.980660e-01 1.034457e-01 -9.115056e-01
    outer loop
      vertex 1.011465e+02 5.068057e+01 -3.944604e+02
      vertex 1.016942e+02 5.070737e+01 -3.946966e+02
      vertex 1.011465e+02 4.857012e+01 -3.946999e+02
    endloop
  endfacet
  facet normal -9.738488e-01 -2.561988e-02 2.257481e-01
    outer loop
      vertex 1.009459e+02 4.748725e+01 -3.942569e+02
      vertex 1.009459e+02 4.850670e+01 -3.941412e+02
      vertex 1.004895e+02 4.872733e+01 -3.960852e+02
    endloop
  endfacet
  facet normal -9.418537e-01 3.789165e-02 -3.338800e-01
    outer loop
      vertex 1.011465e+02 5.068057e+01 -3.944604e+02
      vertex 1.009459e+02 4.850670e+01 -3.941412e+02
      vertex 1.009459e+02 5.061716e+01 -3.939017e+02
    endloop
  endfacet
  facet normal -9.825025e-14 -1.127650e-01 9.936217e-01
    outer loop
      vertex 2.012500e+02 4.748725e+01 -3.942569e+02
      vertex 1.009459e+02 5.061716e+01 -3.939017e+02
      vertex 1.009459e+02 4.850670e+01 -3.941412e+02
    endloop
  endfacet
  facet normal -1.007784e-13 -1.127650e-01 9.936217e-01
    outer loop
      vertex 2.012500e+02 4.748725e+01 -3.942569e+02
      vertex 1.009459e+02 4.850670e+01 -3.941412e+02
      vertex 1.009459e+02 4.748725e+01 -3.942569e+02
    endloop
  endfacet
  facet normal 9.192270e-13 9.936217e-01 1.127650e-01
    outer loop
      vertex 1.003187e+02 4.889750e+01 -3.975846e+02
      vertex 1.000562e+02 4.894526e+01 -3.980055e+02
      vertex 1.004895e+02 4.872733e+01 -3.960852e+02
    endloop
  endfacet
  facet normal -9.756352e-01 -4.146852e-02 2.154445e-01
    outer loop
      vertex 1.009459e+02 4.748725e+01 -3.942569e+02
      vertex 1.004895e+02 4.872733e+01 -3.960852e+02
      vertex 1.000562e+02 4.894526e+01 -3.980055e+02
    endloop
  endfacet
  facet normal -8.499821e-01 -5.940589e-02 5.234515e-01
    outer loop
      vertex 1.000562e+02 5.172199e+01 -3.976904e+02
      vertex 1.000562e+02 4.894526e+01 -3.980055e+02
      vertex 1.003187e+02 4.889750e+01 -3.975846e+02
    endloop
  endfacet
  facet normal -9.749950e-01 -1.280788e-01 1.816057e-01
    outer loop
      vertex 1.009459e+02 4.748725e+01 -3.942569e+02
      vertex 1.000562e+02 4.894526e+01 -3.980055e+02
      vertex 9.784760e+01 4.923513e+01 -4.096582e+02
    endloop
  endfacet
  facet normal -9.821108e-01 -3.345511e-02 1.853082e-01
    outer loop
      vertex 9.975111e+01 5.188108e+01 -3.990921e+02
      vertex 9.784760e+01 4.923513e+01 -4.096582e+02
      vertex 1.000562e+02 4.894526e+01 -3.980055e+02
    endloop
  endfacet
  facet normal -9.777574e-01 -2.449101e-02 2.083043e-01
    outer loop
      vertex 9.990186e+01 5.180183e+01 -3.983939e+02
      vertex 9.975111e+01 5.188108e+01 -3.990921e+02
      vertex 1.000562e+02 4.894526e+01 -3.980055e+02
    endloop
  endfacet
  facet normal -9.770688e-01 -2.401037e-02 2.115659e-01
    outer loop
      vertex 1.000562e+02 5.172199e+01 -3.976904e+02
      vertex 9.990186e+01 5.180183e+01 -3.983939e+02
      vertex 1.000562e+02 4.894526e+01 -3.980055e+02
    endloop
  endfacet
  facet normal -8.499821e-01 -5.940589e-02 5.234515e-01
    outer loop
      vertex 1.003187e+02 5.167423e+01 -3.972695e+02
      vertex 1.000562e+02 5.172199e+01 -3.976904e+02
      vertex 1.003187e+02 4.889750e+01 -3.975846e+02
    endloop
  endfacet
  facet normal 8.878821e-13 9.936217e-01 1.127650e-01
    outer loop
      vertex 2.012500e+02 5.061716e+01 -3.939017e+02
      vertex 2.717000e+02 5.070737e+01 -3.946966e+02
      vertex 1.016942e+02 5.070737e+01 -3.946966e+02
    endloop
  endfacet
  facet normal 8.877908e-13 9.936217e-01 1.127650e-01
    outer loop
      vertex 2.013500e+02 5.060588e+01 -3.938023e+02
      vertex 2.014000e+02 5.049312e+01 -3.928087e+02
      vertex 2.717000e+02 5.070737e+01 -3.946966e+02
    endloop
  endfacet
  facet normal 8.930768e-13 9.936217e-01 1.127650e-01
    outer loop
      vertex 2.013207e+02 5.061385e+01 -3.938725e+02
      vertex 2.013500e+02 5.060588e+01 -3.938023e+02
      vertex 2.717000e+02 5.070737e+01 -3.946966e+02
    endloop
  endfacet
  facet normal 8.778666e-13 9.936217e-01 1.127650e-01
    outer loop
      vertex 2.012500e+02 5.061716e+01 -3.939017e+02
      vertex 2.013207e+02 5.061385e+01 -3.938725e+02
      vertex 2.717000e+02 5.070737e+01 -3.946966e+02
    endloop
  endfacet
  facet normal 8.884554e-13 9.936217e-01 1.127650e-01
    outer loop
      vertex 1.011465e+02 5.068057e+01 -3.944604e+02
      vertex 2.012500e+02 5.061716e+01 -3.939017e+02
      vertex 1.016942e+02 5.070737e+01 -3.946966e+02
    endloop
  endfacet
  facet normal 9.325873e-13 9.936217e-01 1.127650e-01
    outer loop
      vertex 2.013500e+02 5.060588e+01 -3.938023e+02
      vertex 2.013500e+02 5.049875e+01 -3.928584e+02
      vertex 2.014000e+02 5.049312e+01 -3.928087e+02
    endloop
  endfacet
  facet normal -7.071068e-01 -7.973687e-02 7.025966e-01
    outer loop
      vertex 2.013500e+02 4.736885e+01 -3.932136e+02
      vertex 2.014000e+02 5.049312e+01 -3.928087e+02
      vertex 2.013500e+02 5.049875e+01 -3.928584e+02
    endloop
  endfacet
  facet normal -7.071068e-01 -7.973687e-02 7.025966e-01
    outer loop
      vertex 2.013500e+02 4.736885e+01 -3.932136e+02
      vertex 2.014000e+02 4.736321e+01 -3.931639e+02
      vertex 2.014000e+02 5.049312e+01 -3.928087e+02
    endloop
  endfacet
  facet normal -1.000000e+00 8.920857e-13 -1.919679e-14
    outer loop
      vertex 2.013500e+02 4.747597e+01 -3.941575e+02
      vertex 2.013500e+02 5.049875e+01 -3.928584e+02
      vertex 2.013500e+02 5.060588e+01 -3.938023e+02
    endloop
  endfacet
  facet normal -1.000000e+00 8.920857e-13 -1.919679e-14
    outer loop
      vertex 2.013500e+02 4.736885e+01 -3.932136e+02
      vertex 2.013500e+02 5.049875e+01 -3.928584e+02
      vertex 2.013500e+02 4.747597e+01 -3.941575e+02
    endloop
  endfacet
  facet normal -9.237749e-01 -4.318176e-02 3.804935e-01
    outer loop
      vertex 2.013500e+02 4.747597e+01 -3.941575e+02
      vertex 2.013500e+02 5.060588e+01 -3.938023e+02
      vertex 2.013207e+02 5.061385e+01 -3.938725e+02
    endloop
  endfacet
  facet normal -3.829360e-01 -1.041694e-01 9.178828e-01
    outer loop
      vertex 2.013207e+02 4.748394e+01 -3.942277e+02
      vertex 2.013207e+02 5.061385e+01 -3.938725e+02
      vertex 2.012500e+02 5.061716e+01 -3.939017e+02
    endloop
  endfacet
  facet normal -9.237749e-01 -4.318176e-02 3.804935e-01
    outer loop
      vertex 2.013500e+02 4.747597e+01 -3.941575e+02
      vertex 2.013207e+02 5.061385e+01 -3.938725e+02
      vertex 2.013207e+02 4.748394e+01 -3.942277e+02
    endloop
  endfacet
  facet normal 8.880027e-13 9.936217e-01 1.127650e-01
    outer loop
      vertex 1.011465e+02 5.068057e+01 -3.944604e+02
      vertex 1.009459e+02 5.061716e+01 -3.939017e+02
      vertex 2.012500e+02 5.061716e+01 -3.939017e+02
    endloop
  endfacet
  facet normal -1.007788e-13 -1.127650e-01 9.936217e-01
    outer loop
      vertex 2.012500e+02 4.748725e+01 -3.942569e+02
      vertex 2.012500e+02 5.061716e+01 -3.939017e+02
      vertex 1.009459e+02 5.061716e+01 -3.939017e+02
    endloop
  endfacet
  facet normal -3.829360e-01 -1.041694e-01 9.178828e-01
    outer loop
      vertex 2.013207e+02 4.748394e+01 -3.942277e+02
      vertex 2.012500e+02 5.061716e+01 -3.939017e+02
      vertex 2.012500e+02 4.748725e+01 -3.942569e+02
    endloop
  endfacet
  facet normal -8.843194e-13 -9.936217e-01 -1.127650e-01
    outer loop
      vertex 2.556410e+02 5.139455e+01 -4.286859e+02
      vertex 2.014000e+02 4.736321e+01 -3.931639e+02
      vertex 2.013500e+02 4.736885e+01 -3.932136e+02
    endloop
  endfacet
  facet normal -8.857610e-13 -9.936217e-01 -1.127650e-01
    outer loop
      vertex 9.628000e+01 5.071018e+01 -4.226555e+02
      vertex 9.628000e+01 5.323331e+01 -4.448880e+02
      vertex 9.819662e+01 5.477972e+01 -4.585140e+02
    endloop
  endfacet
  facet normal -8.929245e-13 -9.936217e-01 -1.127650e-01
    outer loop
      vertex 9.784760e+01 4.923513e+01 -4.096582e+02
      vertex 9.628000e+01 5.071018e+01 -4.226555e+02
      vertex 9.819662e+01 5.477972e+01 -4.585140e+02
    endloop
  endfacet
  facet normal -9.657519e-01 -1.943866e-02 -2.587383e-01
    outer loop
      vertex 9.970358e+01 5.996906e+01 -4.645287e+02
      vertex 9.989188e+01 6.004952e+01 -4.652376e+02
      vertex 9.819662e+01 5.477972e+01 -4.585140e+02
    endloop
  endfacet
  facet normal -9.678005e-01 -1.045586e-02 -2.515013e-01
    outer loop
      vertex 9.951590e+01 5.988671e+01 -4.638031e+02
      vertex 9.970358e+01 5.996906e+01 -4.645287e+02
      vertex 9.819662e+01 5.477972e+01 -4.585140e+02
    endloop
  endfacet
  facet normal -7.071068e-01 -7.025966e-01 -7.973687e-02
    outer loop
      vertex 9.582998e+01 5.245479e+01 -4.340373e+02
      vertex 9.628000e+01 5.323331e+01 -4.448880e+02
      vertex 9.628000e+01 5.071018e+01 -4.226555e+02
    endloop
  endfacet
  facet normal -9.992361e-01 -4.471535e-03 3.882290e-02
    outer loop
      vertex 9.582998e+01 5.245479e+01 -4.340373e+02
      vertex 9.628000e+01 5.071018e+01 -4.226555e+02
      vertex 9.582997e+01 5.579351e+01 -4.336529e+02
    endloop
  endfacet
  facet normal -8.880106e-13 -9.936217e-01 -1.127650e-01
    outer loop
      vertex 1.584000e+02 5.139455e+01 -4.286859e+02
      vertex 2.012500e+02 4.748725e+01 -3.942569e+02
      vertex 1.009459e+02 4.748725e+01 -3.942569e+02
    endloop
  endfacet
  facet normal -8.906398e-13 -9.936217e-01 -1.127650e-01
    outer loop
      vertex 1.569000e+02 5.156370e+01 -4.301763e+02
      vertex 1.584000e+02 5.139455e+01 -4.286859e+02
      vertex 1.009459e+02 4.748725e+01 -3.942569e+02
    endloop
  endfacet
  facet normal -8.789058e-13 -9.936217e-01 -1.127650e-01
    outer loop
      vertex 1.584000e+02 5.173285e+01 -4.316667e+02
      vertex 1.569000e+02 5.156370e+01 -4.301763e+02
      vertex 1.009459e+02 4.748725e+01 -3.942569e+02
    endloop
  endfacet
  facet normal -1.012170e-12 -9.936217e-01 -1.127650e-01
    outer loop
      vertex 2.556410e+02 5.139455e+01 -4.286859e+02
      vertex 2.013207e+02 4.748394e+01 -3.942277e+02
      vertex 2.012500e+02 4.748725e+01 -3.942569e+02
    endloop
  endfacet
  facet normal -8.879496e-13 -9.936217e-01 -1.127650e-01
    outer loop
      vertex 2.556410e+02 5.139455e+01 -4.286859e+02
      vertex 2.012500e+02 4.748725e+01 -3.942569e+02
      vertex 1.584000e+02 5.139455e+01 -4.286859e+02
    endloop
  endfacet
  facet normal -7.139891e-13 -9.936217e-01 -1.127650e-01
    outer loop
      vertex 2.556410e+02 5.139455e+01 -4.286859e+02
      vertex 2.013500e+02 4.747597e+01 -3.941575e+02
      vertex 2.013207e+02 4.748394e+01 -3.942277e+02
    endloop
  endfacet
  facet normal -9.015339e-13 -9.936217e-01 -1.127650e-01
    outer loop
      vertex 2.556410e+02 5.139455e+01 -4.286859e+02
      vertex 2.013500e+02 4.736885e+01 -3.932136e+02
      vertex 2.013500e+02 4.747597e+01 -3.941575e+02
    endloop
  endfacet
  facet normal 9.145466e-12 9.936217e-01 1.127650e-01
    outer loop
      vertex 1.000562e+02 5.172199e+01 -3.976904e+02
      vertex 9.975111e+01 5.188108e+01 -3.990921e+02
      vertex 9.990186e+01 5.180183e+01 -3.983939e+02
    endloop
  endfacet
  facet normal 9.263266e-13 9.936217e-01 1.127650e-01
    outer loop
      vertex 1.003187e+02 5.167423e+01 -3.972695e+02
      vertex 9.975111e+01 5.188108e+01 -3.990921e+02
      vertex 1.000562e+02 5.172199e+01 -3.976904e+02
    endloop
  endfacet
endsolid P1040852002
