solid P1040852002
  facet normal 1.000000e+00 -4.264565e-14 4.130389e-14
    outer loop
      vertex 2.724500e+02 5.125227e+01 -4.685069e+02
      vertex 2.724500e+02 4.789633e+01 -3.990320e+02
      vertex 2.724500e+02 4.776754e+01 -3.977887e+02
    endloop
  endfacet
  facet normal 8.888113e-13 9.946773e-01 1.030391e-01
    outer loop
      vertex 9.975111e+01 4.789633e+01 -3.990320e+02
      vertex 2.724500e+02 4.776754e+01 -3.977887e+02
      vertex 2.724500e+02 4.789633e+01 -3.990320e+02
    endloop
  endfacet
  facet normal 1.000000e+00 -8.996864e-13 -9.278962e-16
    outer loop
      vertex 2.724500e+02 4.498785e+01 -3.980767e+02
      vertex 2.724500e+02 5.125227e+01 -4.685069e+02
      vertex 2.724500e+02 4.776754e+01 -3.977887e+02
    endloop
  endfacet
  facet normal 9.238695e-01 -3.943386e-02 3.806706e-01
    outer loop
      vertex 2.722303e+02 4.771289e+01 -3.972612e+02
      vertex 2.724500e+02 4.498785e+01 -3.980767e+02
      vertex 2.724500e+02 4.776754e+01 -3.977887e+02
    endloop
  endfacet
  facet normal 8.886119e-13 9.946773e-01 1.030391e-01
    outer loop
      vertex 2.722303e+02 4.771289e+01 -3.972612e+02
      vertex 2.724500e+02 4.776754e+01 -3.977887e+02
      vertex 9.975111e+01 4.789633e+01 -3.990320e+02
    endloop
  endfacet
  facet normal 1.000000e+00 -1.141731e-12 -1.178670e-14
    outer loop
      vertex 2.724500e+02 5.125227e+01 -4.685069e+02
      vertex 2.724500e+02 4.799579e+01 -3.990217e+02
      vertex 2.724500e+02 4.789633e+01 -3.990320e+02
    endloop
  endfacet
  facet normal -9.207944e-14 -1.030391e-01 9.946773e-01
    outer loop
      vertex 9.975111e+01 4.799579e+01 -3.990217e+02
      vertex 2.724500e+02 4.789633e+01 -3.990320e+02
      vertex 2.724500e+02 4.799579e+01 -3.990217e+02
    endloop
  endfacet
  facet normal -9.273423e-14 -1.030391e-01 9.946773e-01
    outer loop
      vertex 9.975111e+01 4.789633e+01 -3.990320e+02
      vertex 2.724500e+02 4.789633e+01 -3.990320e+02
      vertex 9.975111e+01 4.799579e+01 -3.990217e+02
    endloop
  endfacet
  facet normal 1.000000e+00 -7.125708e-13 2.002915e-14
    outer loop
      vertex 2.724500e+02 5.526852e+01 -4.638181e+02
      vertex 2.724500e+02 5.534853e+01 -4.638098e+02
      vertex 2.724500e+02 4.799579e+01 -3.990217e+02
    endloop
  endfacet
  facet normal 8.876219e-13 9.936217e-01 1.127650e-01
    outer loop
      vertex 2.556410e+02 5.399519e+01 -4.518850e+02
      vertex 2.724500e+02 4.799579e+01 -3.990217e+02
      vertex 2.724500e+02 5.534853e+01 -4.638098e+02
    endloop
  endfacet
  facet normal 1.000000e+00 -8.915865e-13 -6.350859e-17
    outer loop
      vertex 2.724500e+02 5.125227e+01 -4.685069e+02
      vertex 2.724500e+02 5.526852e+01 -4.638181e+02
      vertex 2.724500e+02 4.799579e+01 -3.990217e+02
    endloop
  endfacet
  facet normal 8.879330e-13 9.936217e-01 1.127650e-01
    outer loop
      vertex 1.584000e+02 5.365688e+01 -4.489040e+02
      vertex 9.975111e+01 4.799579e+01 -3.990217e+02
      vertex 2.724500e+02 4.799579e+01 -3.990217e+02
    endloop
  endfacet
  facet normal 8.879496e-13 9.936217e-01 1.127650e-01
    outer loop
      vertex 2.556410e+02 5.365688e+01 -4.489040e+02
      vertex 1.584000e+02 5.365688e+01 -4.489040e+02
      vertex 2.724500e+02 4.799579e+01 -3.990217e+02
    endloop
  endfacet
  facet normal 8.937895e-13 9.936217e-01 1.127650e-01
    outer loop
      vertex 2.556410e+02 5.399519e+01 -4.518850e+02
      vertex 2.556410e+02 5.365688e+01 -4.489040e+02
      vertex 2.724500e+02 4.799579e+01 -3.990217e+02
    endloop
  endfacet
  facet normal 9.208121e-14 1.030391e-01 -9.946773e-01
    outer loop
      vertex 9.951590e+01 5.526852e+01 -4.638181e+02
      vertex 2.724500e+02 5.534853e+01 -4.638098e+02
      vertex 2.724500e+02 5.526852e+01 -4.638181e+02
    endloop
  endfacet
  facet normal 8.879526e-13 9.936217e-01 1.127650e-01
    outer loop
      vertex 2.556410e+02 5.399519e+01 -4.518850e+02
      vertex 2.724500e+02 5.534853e+01 -4.638098e+02
      vertex 9.951590e+01 5.534853e+01 -4.638098e+02
    endloop
  endfacet
  facet normal 9.208120e-14 1.030391e-01 -9.946773e-01
    outer loop
      vertex 9.951590e+01 5.526852e+01 -4.638181e+02
      vertex 9.951590e+01 5.534853e+01 -4.638098e+02
      vertex 2.724500e+02 5.534853e+01 -4.638098e+02
    endloop
  endfacet
  facet normal 1.000000e+00 -9.182238e-13 4.203496e-14
    outer loop
      vertex 2.724500e+02 5.446431e+01 -4.651581e+02
      vertex 2.724500e+02 5.539732e+01 -4.650615e+02
      vertex 2.724500e+02 5.526852e+01 -4.638181e+02
    endloop
  endfacet
  facet normal 7.857122e-13 9.946773e-01 1.030391e-01
    outer loop
      vertex 2.722303e+02 5.545196e+01 -4.655890e+02
      vertex 2.724500e+02 5.526852e+01 -4.638181e+02
      vertex 2.724500e+02 5.539732e+01 -4.650615e+02
    endloop
  endfacet
  facet normal 1.000000e+00 -9.934247e-13 8.716753e-14
    outer loop
      vertex 2.724500e+02 5.125227e+01 -4.685069e+02
      vertex 2.724500e+02 5.446431e+01 -4.651581e+02
      vertex 2.724500e+02 5.526852e+01 -4.638181e+02
    endloop
  endfacet
  facet normal 8.888855e-13 9.946773e-01 1.030391e-01
    outer loop
      vertex 1.006164e+02 5.547460e+01 -4.658075e+02
      vertex 2.724500e+02 5.526852e+01 -4.638181e+02
      vertex 2.717000e+02 5.547460e+01 -4.658075e+02
    endloop
  endfacet
  facet normal 8.899433e-13 9.946773e-01 1.030391e-01
    outer loop
      vertex 2.722303e+02 5.545196e+01 -4.655890e+02
      vertex 2.717000e+02 5.547460e+01 -4.658075e+02
      vertex 2.724500e+02 5.526852e+01 -4.638181e+02
    endloop
  endfacet
  facet normal 8.893900e-13 9.946773e-01 1.030391e-01
    outer loop
      vertex 1.001597e+02 5.545862e+01 -4.656532e+02
      vertex 2.724500e+02 5.526852e+01 -4.638181e+02
      vertex 1.006164e+02 5.547460e+01 -4.658075e+02
    endloop
  endfacet
  facet normal 8.888652e-13 9.946773e-01 1.030391e-01
    outer loop
      vertex 9.970358e+01 5.534377e+01 -4.645445e+02
      vertex 2.724500e+02 5.526852e+01 -4.638181e+02
      vertex 9.989188e+01 5.541728e+01 -4.652542e+02
    endloop
  endfacet
  facet normal 8.888103e-13 9.946773e-01 1.030391e-01
    outer loop
      vertex 1.001597e+02 5.545862e+01 -4.656532e+02
      vertex 9.989188e+01 5.541728e+01 -4.652542e+02
      vertex 2.724500e+02 5.526852e+01 -4.638181e+02
    endloop
  endfacet
  facet normal 8.888962e-13 9.946773e-01 1.030391e-01
    outer loop
      vertex 9.951590e+01 5.526852e+01 -4.638181e+02
      vertex 2.724500e+02 5.526852e+01 -4.638181e+02
      vertex 9.970358e+01 5.534377e+01 -4.645445e+02
    endloop
  endfacet
  facet normal 9.238695e-01 3.943386e-02 -3.806706e-01
    outer loop
      vertex 2.722303e+02 5.451895e+01 -4.656856e+02
      vertex 2.724500e+02 5.539732e+01 -4.650615e+02
      vertex 2.724500e+02 5.446431e+01 -4.651581e+02
    endloop
  endfacet
  facet normal 9.238695e-01 3.943386e-02 -3.806706e-01
    outer loop
      vertex 2.722303e+02 5.545196e+01 -4.655890e+02
      vertex 2.724500e+02 5.539732e+01 -4.650615e+02
      vertex 2.722303e+02 5.451895e+01 -4.656856e+02
    endloop
  endfacet
  facet normal 1.000000e+00 -9.041935e-13 1.580133e-15
    outer loop
      vertex 2.724500e+02 5.125227e+01 -4.685069e+02
      vertex 2.724500e+02 5.477343e+01 -4.681421e+02
      vertex 2.724500e+02 5.446431e+01 -4.651581e+02
    endloop
  endfacet
  facet normal 9.303179e-13 9.946773e-01 1.030391e-01
    outer loop
      vertex 2.722303e+02 5.451895e+01 -4.656856e+02
      vertex 2.724500e+02 5.446431e+01 -4.651581e+02
      vertex 2.724500e+02 5.477343e+01 -4.681421e+02
    endloop
  endfacet
  facet normal 9.207908e-14 1.030391e-01 -9.946773e-01
    outer loop
      vertex 1.006807e+02 5.125227e+01 -4.685069e+02
      vertex 2.724500e+02 5.477343e+01 -4.681421e+02
      vertex 2.724500e+02 5.125227e+01 -4.685069e+02
    endloop
  endfacet
  facet normal 9.207904e-14 1.030391e-01 -9.946773e-01
    outer loop
      vertex 1.006807e+02 5.125227e+01 -4.685069e+02
      vertex 1.006807e+02 5.477343e+01 -4.681421e+02
      vertex 2.724500e+02 5.477343e+01 -4.681421e+02
    endloop
  endfacet
  facet normal 8.888757e-13 9.946773e-01 1.030391e-01
    outer loop
      vertex 2.717000e+02 5.454159e+01 -4.659041e+02
      vertex 2.724500e+02 5.477343e+01 -4.681421e+02
      vertex 1.006807e+02 5.477343e+01 -4.681421e+02
    endloop
  endfacet
  facet normal 8.888776e-13 9.946773e-01 1.030391e-01
    outer loop
      vertex 2.722303e+02 5.451895e+01 -4.656856e+02
      vertex 2.724500e+02 5.477343e+01 -4.681421e+02
      vertex 2.717000e+02 5.454159e+01 -4.659041e+02
    endloop
  endfacet
  facet normal 1.000000e+00 -8.986748e-13 -4.234148e-16
    outer loop
      vertex 2.724500e+02 4.457570e+01 -3.940980e+02
      vertex 2.724500e+02 4.343666e+01 -3.930598e+02
      vertex 2.724500e+02 5.125227e+01 -4.685069e+02
    endloop
  endfacet
  facet normal -8.891812e-13 -9.946773e-01 -1.030391e-01
    outer loop
      vertex 2.556410e+02 4.926868e+01 -4.493585e+02
      vertex 2.724500e+02 5.125227e+01 -4.685069e+02
      vertex 2.724500e+02 4.343666e+01 -3.930598e+02
    endloop
  endfacet
  facet normal 1.000000e+00 -1.427984e-12 -4.791733e-14
    outer loop
      vertex 2.724500e+02 4.498785e+01 -3.980767e+02
      vertex 2.724500e+02 4.457570e+01 -3.940980e+02
      vertex 2.724500e+02 5.125227e+01 -4.685069e+02
    endloop
  endfacet
  facet normal -8.888756e-13 -9.946773e-01 -1.030391e-01
    outer loop
      vertex 1.584000e+02 4.957780e+01 -4.523426e+02
      vertex 1.006807e+02 5.125227e+01 -4.685069e+02
      vertex 2.724500e+02 5.125227e+01 -4.685069e+02
    endloop
  endfacet
  facet normal -8.888203e-13 -9.946773e-01 -1.030391e-01
    outer loop
      vertex 2.556410e+02 4.957780e+01 -4.523426e+02
      vertex 1.584000e+02 4.957780e+01 -4.523426e+02
      vertex 2.724500e+02 5.125227e+01 -4.685069e+02
    endloop
  endfacet
  facet normal -8.876500e-13 -9.946773e-01 -1.030391e-01
    outer loop
      vertex 2.556410e+02 4.926868e+01 -4.493585e+02
      vertex 2.556410e+02 4.957780e+01 -4.523426e+02
      vertex 2.724500e+02 5.125227e+01 -4.685069e+02
    endloop
  endfacet
  facet normal 1.000000e+00 -8.899144e-13 9.188179e-15
    outer loop
      vertex 2.724500e+02 4.457570e+01 -3.940980e+02
      vertex 2.724500e+02 4.656990e+01 -3.927352e+02
      vertex 2.724500e+02 4.343666e+01 -3.930598e+02
    endloop
  endfacet
  facet normal -9.369349e-14 -1.030391e-01 9.946773e-01
    outer loop
      vertex 2.014000e+02 4.656990e+01 -3.927352e+02
      vertex 2.724500e+02 4.343666e+01 -3.930598e+02
      vertex 2.724500e+02 4.656990e+01 -3.927352e+02
    endloop
  endfacet
  facet normal -9.208130e-14 -1.030391e-01 9.946773e-01
    outer loop
      vertex 2.014000e+02 4.343666e+01 -3.930598e+02
      vertex 2.724500e+02 4.343666e+01 -3.930598e+02
      vertex 2.014000e+02 4.656990e+01 -3.927352e+02
    endloop
  endfacet
  facet normal -8.889015e-13 -9.946773e-01 -1.030391e-01
    outer loop
      vertex 2.556410e+02 4.926868e+01 -4.493585e+02
      vertex 2.724500e+02 4.343666e+01 -3.930598e+02
      vertex 2.014000e+02 4.343666e+01 -3.930598e+02
    endloop
  endfacet
  facet normal 1.000000e+00 -8.886459e-13 7.331843e-15
    outer loop
      vertex 2.724500e+02 4.457570e+01 -3.940980e+02
      vertex 2.724500e+02 4.668839e+01 -3.938791e+02
      vertex 2.724500e+02 4.656990e+01 -3.927352e+02
    endloop
  endfacet
  facet normal 9.459370e-13 9.946773e-01 1.030391e-01
    outer loop
      vertex 2.722303e+02 4.674304e+01 -3.944066e+02
      vertex 2.724500e+02 4.656990e+01 -3.927352e+02
      vertex 2.724500e+02 4.668839e+01 -3.938791e+02
    endloop
  endfacet
  facet normal 8.889312e-13 9.946773e-01 1.030391e-01
    outer loop
      vertex 2.014000e+02 4.656990e+01 -3.927352e+02
      vertex 2.724500e+02 4.656990e+01 -3.927352e+02
      vertex 2.717000e+02 4.676567e+01 -3.946251e+02
    endloop
  endfacet
  facet normal 8.936527e-13 9.946773e-01 1.030391e-01
    outer loop
      vertex 2.722303e+02 4.674304e+01 -3.944066e+02
      vertex 2.717000e+02 4.676567e+01 -3.946251e+02
      vertex 2.724500e+02 4.656990e+01 -3.927352e+02
    endloop
  endfacet
  facet normal 9.238695e-01 3.943386e-02 -3.806706e-01
    outer loop
      vertex 2.722303e+02 4.463034e+01 -3.946255e+02
      vertex 2.724500e+02 4.668839e+01 -3.938791e+02
      vertex 2.724500e+02 4.457570e+01 -3.940980e+02
    endloop
  endfacet
  facet normal 9.238695e-01 3.943386e-02 -3.806706e-01
    outer loop
      vertex 2.722303e+02 4.674304e+01 -3.944066e+02
      vertex 2.724500e+02 4.668839e+01 -3.938791e+02
      vertex 2.722303e+02 4.463034e+01 -3.946255e+02
    endloop
  endfacet
  facet normal 8.875397e-13 9.946773e-01 1.030391e-01
    outer loop
      vertex 2.722303e+02 4.493321e+01 -3.975492e+02
      vertex 2.724500e+02 4.457570e+01 -3.940980e+02
      vertex 2.724500e+02 4.498785e+01 -3.980767e+02
    endloop
  endfacet
  facet normal 8.431681e-13 9.946773e-01 1.030391e-01
    outer loop
      vertex 2.722303e+02 4.493321e+01 -3.975492e+02
      vertex 2.722303e+02 4.463034e+01 -3.946255e+02
      vertex 2.724500e+02 4.457570e+01 -3.940980e+02
    endloop
  endfacet
  facet normal 9.238695e-01 -3.943386e-02 3.806706e-01
    outer loop
      vertex 2.722303e+02 4.771289e+01 -3.972612e+02
      vertex 2.722303e+02 4.493321e+01 -3.975492e+02
      vertex 2.724500e+02 4.498785e+01 -3.980767e+02
    endloop
  endfacet
  facet normal -9.709570e-01 2.465252e-02 -2.379805e-01
    outer loop
      vertex 9.819662e+01 5.021351e+01 -4.584794e+02
      vertex 1.006807e+02 5.477343e+01 -4.681421e+02
      vertex 1.006807e+02 5.125227e+01 -4.685069e+02
    endloop
  endfacet
  facet normal 8.888855e-13 9.946773e-01 1.030391e-01
    outer loop
      vertex 1.006164e+02 5.454159e+01 -4.659041e+02
      vertex 2.717000e+02 5.454159e+01 -4.659041e+02
      vertex 1.006807e+02 5.477343e+01 -4.681421e+02
    endloop
  endfacet
  facet normal 9.021569e-13 9.946773e-01 1.030391e-01
    outer loop
      vertex 1.002861e+02 5.463231e+01 -4.667799e+02
      vertex 1.006164e+02 5.454159e+01 -4.659041e+02
      vertex 1.006807e+02 5.477343e+01 -4.681421e+02
    endloop
  endfacet
  facet normal -9.546893e-01 -8.456242e-02 -2.853375e-01
    outer loop
      vertex 9.819662e+01 5.021351e+01 -4.584794e+02
      vertex 1.002861e+02 5.463231e+01 -4.667799e+02
      vertex 1.006807e+02 5.477343e+01 -4.681421e+02
    endloop
  endfacet
  facet normal -8.888984e-13 -9.946773e-01 -1.030391e-01
    outer loop
      vertex 9.784760e+01 4.514713e+01 -4.095716e+02
      vertex 9.819662e+01 5.021351e+01 -4.584794e+02
      vertex 1.006807e+02 5.125227e+01 -4.685069e+02
    endloop
  endfacet
  facet normal -8.860438e-13 -9.946773e-01 -1.030391e-01
    outer loop
      vertex 1.009459e+02 4.355001e+01 -3.941539e+02
      vertex 9.784760e+01 4.514713e+01 -4.095716e+02
      vertex 1.006807e+02 5.125227e+01 -4.685069e+02
    endloop
  endfacet
  facet normal -8.889804e-13 -9.946773e-01 -1.030391e-01
    outer loop
      vertex 1.569000e+02 4.942324e+01 -4.508506e+02
      vertex 1.009459e+02 4.355001e+01 -3.941539e+02
      vertex 1.006807e+02 5.125227e+01 -4.685069e+02
    endloop
  endfacet
  facet normal -8.890698e-13 -9.946773e-01 -1.030391e-01
    outer loop
      vertex 1.584000e+02 4.957780e+01 -4.523426e+02
      vertex 1.569000e+02 4.942324e+01 -4.508506e+02
      vertex 1.006807e+02 5.125227e+01 -4.685069e+02
    endloop
  endfacet
  facet normal 9.208013e-14 1.030391e-01 -9.946773e-01
    outer loop
      vertex 2.717000e+02 5.547460e+01 -4.658075e+02
      vertex 2.717000e+02 5.454159e+01 -4.659041e+02
      vertex 1.006164e+02 5.454159e+01 -4.659041e+02
    endloop
  endfacet
  facet normal 3.827076e-01 9.519471e-02 -9.189520e-01
    outer loop
      vertex 2.722303e+02 5.545196e+01 -4.655890e+02
      vertex 2.722303e+02 5.451895e+01 -4.656856e+02
      vertex 2.717000e+02 5.454159e+01 -4.659041e+02
    endloop
  endfacet
  facet normal 3.827076e-01 9.519471e-02 -9.189520e-01
    outer loop
      vertex 2.722303e+02 5.545196e+01 -4.655890e+02
      vertex 2.717000e+02 5.454159e+01 -4.659041e+02
      vertex 2.717000e+02 5.547460e+01 -4.658075e+02
    endloop
  endfacet
  facet normal 8.860094e-13 9.946773e-01 1.030391e-01
    outer loop
      vertex 1.002861e+02 5.463231e+01 -4.667799e+02
      vertex 1.001597e+02 5.452560e+01 -4.657498e+02
      vertex 1.006164e+02 5.454159e+01 -4.659041e+02
    endloop
  endfacet
  facet normal -3.216048e-01 9.756507e-02 -9.418341e-01
    outer loop
      vertex 1.006164e+02 5.547460e+01 -4.658075e+02
      vertex 1.006164e+02 5.454159e+01 -4.659041e+02
      vertex 1.001597e+02 5.452560e+01 -4.657498e+02
    endloop
  endfacet
  facet normal 9.208010e-14 1.030391e-01 -9.946773e-01
    outer loop
      vertex 1.006164e+02 5.547460e+01 -4.658075e+02
      vertex 2.717000e+02 5.547460e+01 -4.658075e+02
      vertex 1.006164e+02 5.454159e+01 -4.659041e+02
    endloop
  endfacet
  facet normal 9.164197e-13 9.946773e-01 1.030391e-01
    outer loop
      vertex 1.002861e+02 5.463231e+01 -4.667799e+02
      vertex 9.989188e+01 5.448427e+01 -4.653508e+02
      vertex 1.001597e+02 5.452560e+01 -4.657498e+02
    endloop
  endfacet
  facet normal -8.316669e-01 5.721504e-02 -5.523194e-01
    outer loop
      vertex 1.001597e+02 5.545862e+01 -4.656532e+02
      vertex 1.001597e+02 5.452560e+01 -4.657498e+02
      vertex 9.989188e+01 5.448427e+01 -4.653508e+02
    endloop
  endfacet
  facet normal -3.216048e-01 9.756507e-02 -9.418341e-01
    outer loop
      vertex 1.001597e+02 5.545862e+01 -4.656532e+02
      vertex 1.006164e+02 5.547460e+01 -4.658075e+02
      vertex 1.001597e+02 5.452560e+01 -4.657498e+02
    endloop
  endfacet
  facet normal -9.611395e-01 -5.405360e-02 -2.707197e-01
    outer loop
      vertex 9.819662e+01 5.021351e+01 -4.584794e+02
      vertex 9.989188e+01 5.448427e+01 -4.653508e+02
      vertex 1.002861e+02 5.463231e+01 -4.667799e+02
    endloop
  endfacet
  facet normal -9.739069e-01 2.338452e-02 -2.257400e-01
    outer loop
      vertex 9.989188e+01 5.541728e+01 -4.652542e+02
      vertex 9.989188e+01 5.448427e+01 -4.653508e+02
      vertex 9.819662e+01 5.021351e+01 -4.584794e+02
    endloop
  endfacet
  facet normal -8.316669e-01 5.721504e-02 -5.523194e-01
    outer loop
      vertex 1.001597e+02 5.545862e+01 -4.656532e+02
      vertex 9.989188e+01 5.448427e+01 -4.653508e+02
      vertex 9.989188e+01 5.541728e+01 -4.652542e+02
    endloop
  endfacet
  facet normal 8.889179e-13 9.936217e-01 1.127650e-01
    outer loop
      vertex 9.753102e+01 5.428040e+01 -4.543981e+02
      vertex 9.749951e+01 4.940333e+01 -4.114241e+02
      vertex 9.975111e+01 4.799579e+01 -3.990217e+02
    endloop
  endfacet
  facet normal -9.841153e-01 -1.829256e-02 1.765853e-01
    outer loop
      vertex 9.975111e+01 4.789633e+01 -3.990320e+02
      vertex 9.975111e+01 4.799579e+01 -3.990217e+02
      vertex 9.749951e+01 4.940333e+01 -4.114241e+02
    endloop
  endfacet
  facet normal 8.863286e-13 9.936217e-01 1.127650e-01
    outer loop
      vertex 9.951590e+01 5.534853e+01 -4.638098e+02
      vertex 9.753102e+01 5.428040e+01 -4.543981e+02
      vertex 9.975111e+01 4.799579e+01 -3.990217e+02
    endloop
  endfacet
  facet normal 8.879837e-13 9.936217e-01 1.127650e-01
    outer loop
      vertex 1.569000e+02 5.382603e+01 -4.503945e+02
      vertex 9.951590e+01 5.534853e+01 -4.638098e+02
      vertex 9.975111e+01 4.799579e+01 -3.990217e+02
    endloop
  endfacet
  facet normal 8.872576e-13 9.936217e-01 1.127650e-01
    outer loop
      vertex 1.569000e+02 5.382603e+01 -4.503945e+02
      vertex 9.975111e+01 4.799579e+01 -3.990217e+02
      vertex 1.584000e+02 5.365688e+01 -4.489040e+02
    endloop
  endfacet
  facet normal 8.847880e-13 9.936217e-01 1.127650e-01
    outer loop
      vertex 9.628000e+01 5.314447e+01 -4.443889e+02
      vertex 9.628000e+01 5.062120e+01 -4.221553e+02
      vertex 9.749951e+01 4.940333e+01 -4.114241e+02
    endloop
  endfacet
  facet normal -9.934605e-01 -3.378059e-02 1.090648e-01
    outer loop
      vertex 9.784760e+01 4.514713e+01 -4.095716e+02
      vertex 9.749951e+01 4.940333e+01 -4.114241e+02
      vertex 9.628000e+01 5.062120e+01 -4.221553e+02
    endloop
  endfacet
  facet normal 8.758107e-13 9.936217e-01 1.127650e-01
    outer loop
      vertex 9.753102e+01 5.428040e+01 -4.543981e+02
      vertex 9.628000e+01 5.314447e+01 -4.443889e+02
      vertex 9.749951e+01 4.940333e+01 -4.114241e+02
    endloop
  endfacet
  facet normal -9.839472e-01 -2.808888e-03 1.784377e-01
    outer loop
      vertex 9.975111e+01 4.789633e+01 -3.990320e+02
      vertex 9.749951e+01 4.940333e+01 -4.114241e+02
      vertex 9.784760e+01 4.514713e+01 -4.095716e+02
    endloop
  endfacet
  facet normal -7.071068e-01 7.025966e-01 7.973687e-02
    outer loop
      vertex 9.582997e+01 5.147046e+01 -4.336294e+02
      vertex 9.628000e+01 5.062120e+01 -4.221553e+02
      vertex 9.628000e+01 5.314447e+01 -4.443889e+02
    endloop
  endfacet
  facet normal -9.928956e-01 -1.226111e-02 1.183557e-01
    outer loop
      vertex 9.784760e+01 4.514713e+01 -4.095716e+02
      vertex 9.628000e+01 5.062120e+01 -4.221553e+02
      vertex 9.628000e+01 4.649496e+01 -4.225828e+02
    endloop
  endfacet
  facet normal -9.992353e-01 -4.028413e-03 3.889318e-02
    outer loop
      vertex 9.582997e+01 5.147046e+01 -4.336294e+02
      vertex 9.628000e+01 4.649496e+01 -4.225828e+02
      vertex 9.628000e+01 5.062120e+01 -4.221553e+02
    endloop
  endfacet
  facet normal -9.923758e-01 1.269894e-02 -1.225928e-01
    outer loop
      vertex 9.628000e+01 4.880048e+01 -4.448388e+02
      vertex 9.628000e+01 5.314447e+01 -4.443889e+02
      vertex 9.753102e+01 5.428040e+01 -4.543981e+02
    endloop
  endfacet
  facet normal -9.991440e-01 4.262997e-03 -4.114734e-02
    outer loop
      vertex 9.582998e+01 4.812815e+01 -4.339811e+02
      vertex 9.628000e+01 5.314447e+01 -4.443889e+02
      vertex 9.628000e+01 4.880048e+01 -4.448388e+02
    endloop
  endfacet
  facet normal -9.991450e-01 4.325256e-03 -4.111737e-02
    outer loop
      vertex 9.582998e+01 4.812815e+01 -4.339811e+02
      vertex 9.582997e+01 5.147046e+01 -4.336294e+02
      vertex 9.628000e+01 5.314447e+01 -4.443889e+02
    endloop
  endfacet
  facet normal -9.785627e-01 4.214872e-02 -2.015898e-01
    outer loop
      vertex 9.819662e+01 5.021351e+01 -4.584794e+02
      vertex 9.753102e+01 5.428040e+01 -4.543981e+02
      vertex 9.951590e+01 5.534853e+01 -4.638098e+02
    endloop
  endfacet
  facet normal -9.897760e-01 -2.031307e-02 -1.411770e-01
    outer loop
      vertex 9.628000e+01 4.880048e+01 -4.448388e+02
      vertex 9.753102e+01 5.428040e+01 -4.543981e+02
      vertex 9.819662e+01 5.021351e+01 -4.584794e+02
    endloop
  endfacet
  facet normal 8.878770e-13 9.936217e-01 1.127650e-01
    outer loop
      vertex 1.584000e+02 5.399519e+01 -4.518850e+02
      vertex 2.556410e+02 5.399519e+01 -4.518850e+02
      vertex 9.951590e+01 5.534853e+01 -4.638098e+02
    endloop
  endfacet
  facet normal 8.893522e-13 9.936217e-01 1.127650e-01
    outer loop
      vertex 1.569000e+02 5.382603e+01 -4.503945e+02
      vertex 1.584000e+02 5.399519e+01 -4.518850e+02
      vertex 9.951590e+01 5.534853e+01 -4.638098e+02
    endloop
  endfacet
  facet normal -9.753489e-01 2.273749e-02 -2.194939e-01
    outer loop
      vertex 9.951590e+01 5.526852e+01 -4.638181e+02
      vertex 9.819662e+01 5.021351e+01 -4.584794e+02
      vertex 9.951590e+01 5.534853e+01 -4.638098e+02
    endloop
  endfacet
  facet normal 9.208100e-14 1.030391e-01 -9.946773e-01
    outer loop
      vertex 1.584000e+02 4.926868e+01 -4.493585e+02
      vertex 1.584000e+02 5.365688e+01 -4.489040e+02
      vertex 2.556410e+02 5.365688e+01 -4.489040e+02
    endloop
  endfacet
  facet normal 7.071068e-01 7.285967e-02 -7.033431e-01
    outer loop
      vertex 1.569000e+02 4.942324e+01 -4.508506e+02
      vertex 1.569000e+02 5.382603e+01 -4.503945e+02
      vertex 1.584000e+02 5.365688e+01 -4.489040e+02
    endloop
  endfacet
  facet normal 7.071068e-01 7.285967e-02 -7.033431e-01
    outer loop
      vertex 1.569000e+02 4.942324e+01 -4.508506e+02
      vertex 1.584000e+02 5.365688e+01 -4.489040e+02
      vertex 1.584000e+02 4.926868e+01 -4.493585e+02
    endloop
  endfacet
  facet normal -1.000000e+00 8.946786e-13 -3.340857e-15
    outer loop
      vertex 2.556410e+02 4.957780e+01 -4.523426e+02
      vertex 2.556410e+02 5.365688e+01 -4.489040e+02
      vertex 2.556410e+02 5.399519e+01 -4.518850e+02
    endloop
  endfacet
  facet normal 9.207334e-14 1.030391e-01 -9.946773e-01
    outer loop
      vertex 2.556410e+02 4.926868e+01 -4.493585e+02
      vertex 1.584000e+02 4.926868e+01 -4.493585e+02
      vertex 2.556410e+02 5.365688e+01 -4.489040e+02
    endloop
  endfacet
  facet normal -1.000000e+00 8.940777e-13 -2.628032e-15
    outer loop
      vertex 2.556410e+02 4.926868e+01 -4.493585e+02
      vertex 2.556410e+02 5.365688e+01 -4.489040e+02
      vertex 2.556410e+02 4.957780e+01 -4.523426e+02
    endloop
  endfacet
  facet normal -9.207352e-14 -1.030391e-01 9.946773e-01
    outer loop
      vertex 2.556410e+02 4.957780e+01 -4.523426e+02
      vertex 2.556410e+02 5.399519e+01 -4.518850e+02
      vertex 1.584000e+02 5.399519e+01 -4.518850e+02
    endloop
  endfacet
  facet normal 7.071068e-01 -7.285967e-02 7.033431e-01
    outer loop
      vertex 1.584000e+02 4.957780e+01 -4.523426e+02
      vertex 1.584000e+02 5.399519e+01 -4.518850e+02
      vertex 1.569000e+02 5.382603e+01 -4.503945e+02
    endloop
  endfacet
  facet normal -9.207334e-14 -1.030391e-01 9.946773e-01
    outer loop
      vertex 2.556410e+02 4.957780e+01 -4.523426e+02
      vertex 1.584000e+02 5.399519e+01 -4.518850e+02
      vertex 1.584000e+02 4.957780e+01 -4.523426e+02
    endloop
  endfacet
  facet normal 7.071068e-01 -7.285967e-02 7.033431e-01
    outer loop
      vertex 1.584000e+02 4.957780e+01 -4.523426e+02
      vertex 1.569000e+02 5.382603e+01 -4.503945e+02
      vertex 1.569000e+02 4.942324e+01 -4.508506e+02
    endloop
  endfacet
  facet normal -9.207881e-14 -1.030391e-01 9.946773e-01
    outer loop
      vertex 2.717000e+02 4.491058e+01 -3.973307e+02
      vertex 2.717000e+02 4.769026e+01 -3.970427e+02
      vertex 1.007887e+02 4.769026e+01 -3.970427e+02
    endloop
  endfacet
  facet normal 8.888717e-13 9.946773e-01 1.030391e-01
    outer loop
      vertex 9.975111e+01 4.789633e+01 -3.990320e+02
      vertex 1.007887e+02 4.769026e+01 -3.970427e+02
      vertex 2.717000e+02 4.769026e+01 -3.970427e+02
    endloop
  endfacet
  facet normal -9.207439e-14 -1.030391e-01 9.946773e-01
    outer loop
      vertex 1.007887e+02 4.491058e+01 -3.973307e+02
      vertex 2.717000e+02 4.491058e+01 -3.973307e+02
      vertex 1.007887e+02 4.769026e+01 -3.970427e+02
    endloop
  endfacet
  facet normal -3.322145e-01 -9.718691e-02 9.381835e-01
    outer loop
      vertex 1.003187e+02 4.770732e+01 -3.972074e+02
      vertex 1.007887e+02 4.491058e+01 -3.973307e+02
      vertex 1.007887e+02 4.769026e+01 -3.970427e+02
    endloop
  endfacet
  facet normal 8.669989e-13 9.946773e-01 1.030391e-01
    outer loop
      vertex 1.003187e+02 4.770732e+01 -3.972074e+02
      vertex 1.007887e+02 4.769026e+01 -3.970427e+02
      vertex 9.975111e+01 4.789633e+01 -3.990320e+02
    endloop
  endfacet
  facet normal 3.827076e-01 -9.519471e-02 9.189520e-01
    outer loop
      vertex 2.722303e+02 4.493321e+01 -3.975492e+02
      vertex 2.717000e+02 4.769026e+01 -3.970427e+02
      vertex 2.717000e+02 4.491058e+01 -3.973307e+02
    endloop
  endfacet
  facet normal 3.827076e-01 -9.519471e-02 9.189520e-01
    outer loop
      vertex 2.722303e+02 4.771289e+01 -3.972612e+02
      vertex 2.717000e+02 4.769026e+01 -3.970427e+02
      vertex 2.722303e+02 4.493321e+01 -3.975492e+02
    endloop
  endfacet
  facet normal 8.893136e-13 9.946773e-01 1.030391e-01
    outer loop
      vertex 2.722303e+02 4.771289e+01 -3.972612e+02
      vertex 9.975111e+01 4.789633e+01 -3.990320e+02
      vertex 2.717000e+02 4.769026e+01 -3.970427e+02
    endloop
  endfacet
  facet normal 8.888303e-13 9.946773e-01 1.030391e-01
    outer loop
      vertex 2.717000e+02 4.465298e+01 -3.948440e+02
      vertex 2.717000e+02 4.491058e+01 -3.973307e+02
      vertex 1.007887e+02 4.491058e+01 -3.973307e+02
    endloop
  endfacet
  facet normal 8.964899e-13 9.946773e-01 1.030391e-01
    outer loop
      vertex 2.717000e+02 4.465298e+01 -3.948440e+02
      vertex 2.722303e+02 4.463034e+01 -3.946255e+02
      vertex 2.717000e+02 4.491058e+01 -3.973307e+02
    endloop
  endfacet
  facet normal 8.940978e-13 9.946773e-01 1.030391e-01
    outer loop
      vertex 2.722303e+02 4.493321e+01 -3.975492e+02
      vertex 2.717000e+02 4.491058e+01 -3.973307e+02
      vertex 2.722303e+02 4.463034e+01 -3.946255e+02
    endloop
  endfacet
  facet normal 8.889086e-13 9.946773e-01 1.030391e-01
    outer loop
      vertex 1.016942e+02 4.465298e+01 -3.948440e+02
      vertex 2.717000e+02 4.465298e+01 -3.948440e+02
      vertex 1.007887e+02 4.491058e+01 -3.973307e+02
    endloop
  endfacet
  facet normal 8.866343e-13 9.946773e-01 1.030391e-01
    outer loop
      vertex 1.011465e+02 4.462849e+01 -3.946076e+02
      vertex 1.016942e+02 4.465298e+01 -3.948440e+02
      vertex 1.007887e+02 4.491058e+01 -3.973307e+02
    endloop
  endfacet
  facet normal 8.843741e-13 9.946773e-01 1.030391e-01
    outer loop
      vertex 1.009459e+02 4.457055e+01 -3.940482e+02
      vertex 1.011465e+02 4.462849e+01 -3.946076e+02
      vertex 1.007887e+02 4.491058e+01 -3.973307e+02
    endloop
  endfacet
  facet normal 8.823069e-13 9.946773e-01 1.030391e-01
    outer loop
      vertex 1.004895e+02 4.477214e+01 -3.959943e+02
      vertex 1.009459e+02 4.457055e+01 -3.940482e+02
      vertex 1.007887e+02 4.491058e+01 -3.973307e+02
    endloop
  endfacet
  facet normal 9.084975e-13 9.946773e-01 1.030391e-01
    outer loop
      vertex 1.003187e+02 4.492763e+01 -3.974953e+02
      vertex 1.004895e+02 4.477214e+01 -3.959943e+02
      vertex 1.007887e+02 4.491058e+01 -3.973307e+02
    endloop
  endfacet
  facet normal -3.322145e-01 -9.718691e-02 9.381835e-01
    outer loop
      vertex 1.003187e+02 4.770732e+01 -3.972074e+02
      vertex 1.003187e+02 4.492763e+01 -3.974953e+02
      vertex 1.007887e+02 4.491058e+01 -3.973307e+02
    endloop
  endfacet
  facet normal 3.827076e-01 9.519471e-02 -9.189520e-01
    outer loop
      vertex 2.722303e+02 4.674304e+01 -3.944066e+02
      vertex 2.722303e+02 4.463034e+01 -3.946255e+02
      vertex 2.717000e+02 4.465298e+01 -3.948440e+02
    endloop
  endfacet
  facet normal 9.208255e-14 1.030391e-01 -9.946773e-01
    outer loop
      vertex 2.717000e+02 4.676567e+01 -3.946251e+02
      vertex 2.717000e+02 4.465298e+01 -3.948440e+02
      vertex 1.016942e+02 4.465298e+01 -3.948440e+02
    endloop
  endfacet
  facet normal 3.827076e-01 9.519471e-02 -9.189520e-01
    outer loop
      vertex 2.722303e+02 4.674304e+01 -3.944066e+02
      vertex 2.717000e+02 4.465298e+01 -3.948440e+02
      vertex 2.717000e+02 4.676567e+01 -3.946251e+02
    endloop
  endfacet
  facet normal -3.980660e-01 9.452364e-02 -9.124740e-01
    outer loop
      vertex 1.016942e+02 4.676567e+01 -3.946251e+02
      vertex 1.016942e+02 4.465298e+01 -3.948440e+02
      vertex 1.011465e+02 4.462849e+01 -3.946076e+02
    endloop
  endfacet
  facet normal 9.207388e-14 1.030391e-01 -9.946773e-01
    outer loop
      vertex 1.016942e+02 4.676567e+01 -3.946251e+02
      vertex 2.717000e+02 4.676567e+01 -3.946251e+02
      vertex 1.016942e+02 4.465298e+01 -3.948440e+02
    endloop
  endfacet
  facet normal -9.418537e-01 3.462355e-02 -3.342347e-01
    outer loop
      vertex 1.011465e+02 4.674118e+01 -3.943887e+02
      vertex 1.011465e+02 4.462849e+01 -3.946076e+02
      vertex 1.009459e+02 4.457055e+01 -3.940482e+02
    endloop
  endfacet
  facet normal -3.980660e-01 9.452364e-02 -9.124740e-01
    outer loop
      vertex 1.011465e+02 4.674118e+01 -3.943887e+02
      vertex 1.016942e+02 4.676567e+01 -3.946251e+02
      vertex 1.011465e+02 4.462849e+01 -3.946076e+02
    endloop
  endfacet
  facet normal -9.738488e-01 -2.341020e-02 2.259879e-01
    outer loop
      vertex 1.009459e+02 4.355001e+01 -3.941539e+02
      vertex 1.009459e+02 4.457055e+01 -3.940482e+02
      vertex 1.004895e+02 4.477214e+01 -3.959943e+02
    endloop
  endfacet
  facet normal -9.418537e-01 3.462355e-02 -3.342347e-01
    outer loop
      vertex 1.011465e+02 4.674118e+01 -3.943887e+02
      vertex 1.009459e+02 4.457055e+01 -3.940482e+02
      vertex 1.009459e+02 4.668324e+01 -3.938294e+02
    endloop
  endfacet
  facet normal -8.994205e-14 -1.030391e-01 9.946773e-01
    outer loop
      vertex 2.012500e+02 4.355001e+01 -3.941539e+02
      vertex 1.009459e+02 4.668324e+01 -3.938294e+02
      vertex 1.009459e+02 4.457055e+01 -3.940482e+02
    endloop
  endfacet
  facet normal -9.208639e-14 -1.030391e-01 9.946773e-01
    outer loop
      vertex 2.012500e+02 4.355001e+01 -3.941539e+02
      vertex 1.009459e+02 4.457055e+01 -3.940482e+02
      vertex 1.009459e+02 4.355001e+01 -3.941539e+02
    endloop
  endfacet
  facet normal 8.683136e-13 9.946773e-01 1.030391e-01
    outer loop
      vertex 1.003187e+02 4.492763e+01 -3.974953e+02
      vertex 1.000562e+02 4.497128e+01 -3.979166e+02
      vertex 1.004895e+02 4.477214e+01 -3.959943e+02
    endloop
  endfacet
  facet normal -9.756352e-01 -3.935888e-02 2.158398e-01
    outer loop
      vertex 1.009459e+02 4.355001e+01 -3.941539e+02
      vertex 1.004895e+02 4.477214e+01 -3.959943e+02
      vertex 1.000562e+02 4.497128e+01 -3.979166e+02
    endloop
  endfacet
  facet normal -8.499821e-01 -5.428221e-02 5.240076e-01
    outer loop
      vertex 1.000562e+02 4.775096e+01 -3.976287e+02
      vertex 1.000562e+02 4.497128e+01 -3.979166e+02
      vertex 1.003187e+02 4.492763e+01 -3.974953e+02
    endloop
  endfacet
  facet normal -9.749950e-01 -1.262960e-01 1.828500e-01
    outer loop
      vertex 1.009459e+02 4.355001e+01 -3.941539e+02
      vertex 1.000562e+02 4.497128e+01 -3.979166e+02
      vertex 9.784760e+01 4.514713e+01 -4.095716e+02
    endloop
  endfacet
  facet normal -9.821108e-01 -3.164067e-02 1.856266e-01
    outer loop
      vertex 9.975111e+01 4.789633e+01 -3.990320e+02
      vertex 9.784760e+01 4.514713e+01 -4.095716e+02
      vertex 1.000562e+02 4.497128e+01 -3.979166e+02
    endloop
  endfacet
  facet normal -9.777574e-01 -2.245203e-02 2.085339e-01
    outer loop
      vertex 9.990186e+01 4.782391e+01 -3.983330e+02
      vertex 9.975111e+01 4.789633e+01 -3.990320e+02
      vertex 1.000562e+02 4.497128e+01 -3.979166e+02
    endloop
  endfacet
  facet normal -9.770688e-01 -2.193950e-02 2.117907e-01
    outer loop
      vertex 1.000562e+02 4.775096e+01 -3.976287e+02
      vertex 9.990186e+01 4.782391e+01 -3.983330e+02
      vertex 1.000562e+02 4.497128e+01 -3.979166e+02
    endloop
  endfacet
  facet normal -8.499821e-01 -5.428221e-02 5.240076e-01
    outer loop
      vertex 1.003187e+02 4.770732e+01 -3.972074e+02
      vertex 1.000562e+02 4.775096e+01 -3.976287e+02
      vertex 1.003187e+02 4.492763e+01 -3.974953e+02
    endloop
  endfacet
  facet normal 8.888255e-13 9.946773e-01 1.030391e-01
    outer loop
      vertex 2.012500e+02 4.668324e+01 -3.938294e+02
      vertex 2.717000e+02 4.676567e+01 -3.946251e+02
      vertex 1.016942e+02 4.676567e+01 -3.946251e+02
    endloop
  endfacet
  facet normal 8.891935e-13 9.946773e-01 1.030391e-01
    outer loop
      vertex 2.013500e+02 4.667294e+01 -3.937299e+02
      vertex 2.014000e+02 4.656990e+01 -3.927352e+02
      vertex 2.717000e+02 4.676567e+01 -3.946251e+02
    endloop
  endfacet
  facet normal 8.851856e-13 9.946773e-01 1.030391e-01
    outer loop
      vertex 2.013207e+02 4.668022e+01 -3.938002e+02
      vertex 2.013500e+02 4.667294e+01 -3.937299e+02
      vertex 2.717000e+02 4.676567e+01 -3.946251e+02
    endloop
  endfacet
  facet normal 8.920377e-13 9.946773e-01 1.030391e-01
    outer loop
      vertex 2.012500e+02 4.668324e+01 -3.938294e+02
      vertex 2.013207e+02 4.668022e+01 -3.938002e+02
      vertex 2.717000e+02 4.676567e+01 -3.946251e+02
    endloop
  endfacet
  facet normal 8.888443e-13 9.946773e-01 1.030391e-01
    outer loop
      vertex 1.011465e+02 4.674118e+01 -3.943887e+02
      vertex 2.012500e+02 4.668324e+01 -3.938294e+02
      vertex 1.016942e+02 4.676567e+01 -3.946251e+02
    endloop
  endfacet
  facet normal 5.185910e-13 9.946773e-01 1.030391e-01
    outer loop
      vertex 2.013500e+02 4.667294e+01 -3.937299e+02
      vertex 2.013500e+02 4.657505e+01 -3.927850e+02
      vertex 2.014000e+02 4.656990e+01 -3.927352e+02
    endloop
  endfacet
  facet normal -7.071068e-01 -7.285967e-02 7.033431e-01
    outer loop
      vertex 2.013500e+02 4.344182e+01 -3.931095e+02
      vertex 2.014000e+02 4.656990e+01 -3.927352e+02
      vertex 2.013500e+02 4.657505e+01 -3.927850e+02
    endloop
  endfacet
  facet normal -7.071068e-01 -7.285967e-02 7.033431e-01
    outer loop
      vertex 2.013500e+02 4.344182e+01 -3.931095e+02
      vertex 2.014000e+02 4.343666e+01 -3.930598e+02
      vertex 2.014000e+02 4.656990e+01 -3.927352e+02
    endloop
  endfacet
  facet normal -1.000000e+00 8.887725e-13 1.835348e-15
    outer loop
      vertex 2.013500e+02 4.353970e+01 -3.940545e+02
      vertex 2.013500e+02 4.657505e+01 -3.927850e+02
      vertex 2.013500e+02 4.667294e+01 -3.937299e+02
    endloop
  endfacet
  facet normal -1.000000e+00 8.887725e-13 1.835348e-15
    outer loop
      vertex 2.013500e+02 4.344182e+01 -3.931095e+02
      vertex 2.013500e+02 4.657505e+01 -3.927850e+02
      vertex 2.013500e+02 4.353970e+01 -3.940545e+02
    endloop
  endfacet
  facet normal -9.237749e-01 -3.945739e-02 3.808977e-01
    outer loop
      vertex 2.013500e+02 4.353970e+01 -3.940545e+02
      vertex 2.013500e+02 4.667294e+01 -3.937299e+02
      vertex 2.013207e+02 4.668022e+01 -3.938002e+02
    endloop
  endfacet
  facet normal -3.829360e-01 -9.518496e-02 9.188579e-01
    outer loop
      vertex 2.013207e+02 4.354699e+01 -3.941248e+02
      vertex 2.013207e+02 4.668022e+01 -3.938002e+02
      vertex 2.012500e+02 4.668324e+01 -3.938294e+02
    endloop
  endfacet
  facet normal -9.237749e-01 -3.945739e-02 3.808977e-01
    outer loop
      vertex 2.013500e+02 4.353970e+01 -3.940545e+02
      vertex 2.013207e+02 4.668022e+01 -3.938002e+02
      vertex 2.013207e+02 4.354699e+01 -3.941248e+02
    endloop
  endfacet
  facet normal 8.888053e-13 9.946773e-01 1.030391e-01
    outer loop
      vertex 1.011465e+02 4.674118e+01 -3.943887e+02
      vertex 1.009459e+02 4.668324e+01 -3.938294e+02
      vertex 2.012500e+02 4.668324e+01 -3.938294e+02
    endloop
  endfacet
  facet normal -9.207225e-14 -1.030391e-01 9.946773e-01
    outer loop
      vertex 2.012500e+02 4.355001e+01 -3.941539e+02
      vertex 2.012500e+02 4.668324e+01 -3.938294e+02
      vertex 1.009459e+02 4.668324e+01 -3.938294e+02
    endloop
  endfacet
  facet normal -3.829360e-01 -9.518496e-02 9.188579e-01
    outer loop
      vertex 2.013207e+02 4.354699e+01 -3.941248e+02
      vertex 2.012500e+02 4.668324e+01 -3.938294e+02
      vertex 2.012500e+02 4.355001e+01 -3.941539e+02
    endloop
  endfacet
  facet normal -9.231075e-13 -9.946773e-01 -1.030391e-01
    outer loop
      vertex 2.556410e+02 4.926868e+01 -4.493585e+02
      vertex 2.014000e+02 4.343666e+01 -3.930598e+02
      vertex 2.013500e+02 4.344182e+01 -3.931095e+02
    endloop
  endfacet
  facet normal -8.804590e-13 -9.946773e-01 -1.030391e-01
    outer loop
      vertex 9.628000e+01 4.649496e+01 -4.225828e+02
      vertex 9.628000e+01 4.880048e+01 -4.448388e+02
      vertex 9.819662e+01 5.021351e+01 -4.584794e+02
    endloop
  endfacet
  facet normal -8.962317e-13 -9.946773e-01 -1.030391e-01
    outer loop
      vertex 9.784760e+01 4.514713e+01 -4.095716e+02
      vertex 9.628000e+01 4.649496e+01 -4.225828e+02
      vertex 9.819662e+01 5.021351e+01 -4.584794e+02
    endloop
  endfacet
  facet normal -9.657519e-01 -2.196892e-02 -2.585357e-01
    outer loop
      vertex 9.970358e+01 5.534377e+01 -4.645445e+02
      vertex 9.989188e+01 5.541728e+01 -4.652542e+02
      vertex 9.819662e+01 5.021351e+01 -4.584794e+02
    endloop
  endfacet
  facet normal -9.678005e-01 -1.291576e-02 -2.513870e-01
    outer loop
      vertex 9.951590e+01 5.526852e+01 -4.638181e+02
      vertex 9.970358e+01 5.534377e+01 -4.645445e+02
      vertex 9.819662e+01 5.021351e+01 -4.584794e+02
    endloop
  endfacet
  facet normal -7.071068e-01 -7.033431e-01 -7.285967e-02
    outer loop
      vertex 9.582998e+01 4.812815e+01 -4.339811e+02
      vertex 9.628000e+01 4.880048e+01 -4.448388e+02
      vertex 9.628000e+01 4.649496e+01 -4.225828e+02
    endloop
  endfacet
  facet normal -9.992361e-01 -4.091523e-03 3.886479e-02
    outer loop
      vertex 9.582998e+01 4.812815e+01 -4.339811e+02
      vertex 9.628000e+01 4.649496e+01 -4.225828e+02
      vertex 9.582997e+01 5.147046e+01 -4.336294e+02
    endloop
  endfacet
  facet normal -8.889498e-13 -9.946773e-01 -1.030391e-01
    outer loop
      vertex 1.584000e+02 4.926868e+01 -4.493585e+02
      vertex 2.012500e+02 4.355001e+01 -3.941539e+02
      vertex 1.009459e+02 4.355001e+01 -3.941539e+02
    endloop
  endfacet
  facet normal -8.879628e-13 -9.946773e-01 -1.030391e-01
    outer loop
      vertex 1.569000e+02 4.942324e+01 -4.508506e+02
      vertex 1.584000e+02 4.926868e+01 -4.493585e+02
      vertex 1.009459e+02 4.355001e+01 -3.941539e+02
    endloop
  endfacet
  facet normal -9.787267e-13 -9.946773e-01 -1.030391e-01
    outer loop
      vertex 2.556410e+02 4.926868e+01 -4.493585e+02
      vertex 2.013207e+02 4.354699e+01 -3.941248e+02
      vertex 2.012500e+02 4.355001e+01 -3.941539e+02
    endloop
  endfacet
  facet normal -8.888203e-13 -9.946773e-01 -1.030391e-01
    outer loop
      vertex 2.556410e+02 4.926868e+01 -4.493585e+02
      vertex 2.012500e+02 4.355001e+01 -3.941539e+02
      vertex 1.584000e+02 4.926868e+01 -4.493585e+02
    endloop
  endfacet
  facet normal -9.253042e-13 -9.946773e-01 -1.030391e-01
    outer loop
      vertex 2.556410e+02 4.926868e+01 -4.493585e+02
      vertex 2.013500e+02 4.353970e+01 -3.940545e+02
      vertex 2.013207e+02 4.354699e+01 -3.941248e+02
    endloop
  endfacet
  facet normal -8.728788e-13 -9.946773e-01 -1.030391e-01
    outer loop
      vertex 2.556410e+02 4.926868e+01 -4.493585e+02
      vertex 2.013500e+02 4.344182e+01 -3.931095e+02
      vertex 2.013500e+02 4.353970e+01 -3.940545e+02
    endloop
  endfacet
  facet normal 6.685426e-12 9.946773e-01 1.030391e-01
    outer loop
      vertex 1.000562e+02 4.775096e+01 -3.976287e+02
      vertex 9.975111e+01 4.789633e+01 -3.990320e+02
      vertex 9.990186e+01 4.782391e+01 -3.983330e+02
    endloop
  endfacet
  facet normal 9.592432e-13 9.946773e-01 1.030391e-01
    outer loop
      vertex 1.003187e+02 4.770732e+01 -3.972074e+02
      vertex 9.975111e+01 4.789633e+01 -3.990320e+02
      vertex 1.000562e+02 4.775096e+01 -3.976287e+02
    endloop
  endfacet
endsolid P1040852002
