solid P1040852002
  facet normal 1.000000e+00 -2.051869e-13 2.644895e-14
    outer loop
      vertex 2.724500e+02 4.659321e+01 -4.684830e+02
      vertex 2.724500e+02 4.391709e+01 -3.989786e+02
      vertex 2.724500e+02 4.380047e+01 -3.977341e+02
    endloop
  endfacet
  facet normal 8.897374e-13 9.956377e-01 9.330343e-02
    outer loop
      vertex 9.975111e+01 4.391709e+01 -3.989786e+02
      vertex 2.724500e+02 4.380047e+01 -3.977341e+02
      vertex 2.724500e+02 4.391709e+01 -3.989786e+02
    endloop
  endfacet
  facet normal 1.000000e+00 -8.988272e-13 -9.317807e-16
    outer loop
      vertex 2.724500e+02 4.101810e+01 -3.979949e+02
      vertex 2.724500e+02 4.659321e+01 -4.684830e+02
      vertex 2.724500e+02 4.380047e+01 -3.977341e+02
    endloop
  endfacet
  facet normal 9.238695e-01 -3.570794e-02 3.810381e-01
    outer loop
      vertex 2.722303e+02 4.375099e+01 -3.972061e+02
      vertex 2.724500e+02 4.101810e+01 -3.979949e+02
      vertex 2.724500e+02 4.380047e+01 -3.977341e+02
    endloop
  endfacet
  facet normal 8.897889e-13 9.956377e-01 9.330343e-02
    outer loop
      vertex 2.722303e+02 4.375099e+01 -3.972061e+02
      vertex 2.724500e+02 4.380047e+01 -3.977341e+02
      vertex 9.975111e+01 4.391709e+01 -3.989786e+02
    endloop
  endfacet
  facet normal 1.000000e+00 -1.140952e-12 -9.580652e-15
    outer loop
      vertex 2.724500e+02 4.659321e+01 -4.684830e+02
      vertex 2.724500e+02 4.401666e+01 -3.989692e+02
      vertex 2.724500e+02 4.391709e+01 -3.989786e+02
    endloop
  endfacet
  facet normal -8.337927e-14 -9.330343e-02 9.956377e-01
    outer loop
      vertex 9.975111e+01 4.401666e+01 -3.989692e+02
      vertex 2.724500e+02 4.391709e+01 -3.989786e+02
      vertex 2.724500e+02 4.401666e+01 -3.989692e+02
    endloop
  endfacet
  facet normal -8.337927e-14 -9.330343e-02 9.956377e-01
    outer loop
      vertex 9.975111e+01 4.391709e+01 -3.989786e+02
      vertex 2.724500e+02 4.391709e+01 -3.989786e+02
      vertex 9.975111e+01 4.401666e+01 -3.989692e+02
    endloop
  endfacet
  facet normal 1.000000e+00 -1.414595e-12 -5.363569e-14
    outer loop
      vertex 2.724500e+02 5.065514e+01 -4.638337e+02
      vertex 2.724500e+02 5.073522e+01 -4.638262e+02
      vertex 2.724500e+02 4.401666e+01 -3.989692e+02
    endloop
  endfacet
  facet normal 8.888925e-13 9.946773e-01 1.030391e-01
    outer loop
      vertex 2.556410e+02 4.621150e+01 -4.201570e+02
      vertex 2.724500e+02 4.401666e+01 -3.989692e+02
      vertex 2.724500e+02 5.073522e+01 -4.638262e+02
    endloop
  endfacet
  facet normal 1.000000e+00 -8.950925e-13 -4.677881e-16
    outer loop
      vertex 2.724500e+02 4.659321e+01 -4.684830e+02
      vertex 2.724500e+02 5.065514e+01 -4.638337e+02
      vertex 2.724500e+02 4.401666e+01 -3.989692e+02
    endloop
  endfacet
  facet normal 8.888783e-13 9.946773e-01 1.030391e-01
    outer loop
      vertex 1.584000e+02 4.590237e+01 -4.171728e+02
      vertex 9.975111e+01 4.401666e+01 -3.989692e+02
      vertex 2.724500e+02 4.401666e+01 -3.989692e+02
    endloop
  endfacet
  facet normal 8.888203e-13 9.946773e-01 1.030391e-01
    outer loop
      vertex 2.556410e+02 4.590237e+01 -4.171728e+02
      vertex 1.584000e+02 4.590237e+01 -4.171728e+02
      vertex 2.724500e+02 4.401666e+01 -3.989692e+02
    endloop
  endfacet
  facet normal 8.934901e-13 9.946773e-01 1.030391e-01
    outer loop
      vertex 2.556410e+02 4.621150e+01 -4.201570e+02
      vertex 2.556410e+02 4.590237e+01 -4.171728e+02
      vertex 2.724500e+02 4.401666e+01 -3.989692e+02
    endloop
  endfacet
  facet normal 8.403158e-14 9.330343e-02 -9.956377e-01
    outer loop
      vertex 9.951590e+01 5.065514e+01 -4.638337e+02
      vertex 2.724500e+02 5.073522e+01 -4.638262e+02
      vertex 2.724500e+02 5.065514e+01 -4.638337e+02
    endloop
  endfacet
  facet normal 8.888979e-13 9.946773e-01 1.030391e-01
    outer loop
      vertex 2.556410e+02 4.621150e+01 -4.201570e+02
      vertex 2.724500e+02 5.073522e+01 -4.638262e+02
      vertex 9.951590e+01 5.073522e+01 -4.638262e+02
    endloop
  endfacet
  facet normal 8.338088e-14 9.330343e-02 -9.956377e-01
    outer loop
      vertex 9.951590e+01 5.065514e+01 -4.638337e+02
      vertex 9.951590e+01 5.073522e+01 -4.638262e+02
      vertex 2.724500e+02 5.073522e+01 -4.638262e+02
    endloop
  endfacet
  facet normal 1.000000e+00 -8.531897e-13 1.139364e-14
    outer loop
      vertex 2.724500e+02 4.983786e+01 -4.651658e+02
      vertex 2.724500e+02 5.077177e+01 -4.650783e+02
      vertex 2.724500e+02 5.065514e+01 -4.638337e+02
    endloop
  endfacet
  facet normal 1.005754e-12 9.956377e-01 9.330343e-02
    outer loop
      vertex 2.722303e+02 5.082125e+01 -4.656063e+02
      vertex 2.724500e+02 5.065514e+01 -4.638337e+02
      vertex 2.724500e+02 5.077177e+01 -4.650783e+02
    endloop
  endfacet
  facet normal 1.000000e+00 -1.039526e-12 1.257196e-13
    outer loop
      vertex 2.724500e+02 4.659321e+01 -4.684830e+02
      vertex 2.724500e+02 4.983786e+01 -4.651658e+02
      vertex 2.724500e+02 5.065514e+01 -4.638337e+02
    endloop
  endfacet
  facet normal 8.897438e-13 9.956377e-01 9.330343e-02
    outer loop
      vertex 1.006164e+02 5.084175e+01 -4.658250e+02
      vertex 2.724500e+02 5.065514e+01 -4.638337e+02
      vertex 2.717000e+02 5.084175e+01 -4.658250e+02
    endloop
  endfacet
  facet normal 8.830731e-13 9.956377e-01 9.330343e-02
    outer loop
      vertex 2.722303e+02 5.082125e+01 -4.656063e+02
      vertex 2.717000e+02 5.084175e+01 -4.658250e+02
      vertex 2.724500e+02 5.065514e+01 -4.638337e+02
    endloop
  endfacet
  facet normal 8.888833e-13 9.956377e-01 9.330343e-02
    outer loop
      vertex 1.001597e+02 5.082727e+01 -4.656706e+02
      vertex 2.724500e+02 5.065514e+01 -4.638337e+02
      vertex 1.006164e+02 5.084175e+01 -4.658250e+02
    endloop
  endfacet
  facet normal 8.896095e-13 9.956377e-01 9.330343e-02
    outer loop
      vertex 9.970358e+01 5.072328e+01 -4.645608e+02
      vertex 2.724500e+02 5.065514e+01 -4.638337e+02
      vertex 9.989188e+01 5.078985e+01 -4.652712e+02
    endloop
  endfacet
  facet normal 8.898508e-13 9.956377e-01 9.330343e-02
    outer loop
      vertex 1.001597e+02 5.082727e+01 -4.656706e+02
      vertex 9.989188e+01 5.078985e+01 -4.652712e+02
      vertex 2.724500e+02 5.065514e+01 -4.638337e+02
    endloop
  endfacet
  facet normal 8.896522e-13 9.956377e-01 9.330343e-02
    outer loop
      vertex 9.951590e+01 5.065514e+01 -4.638337e+02
      vertex 2.724500e+02 5.065514e+01 -4.638337e+02
      vertex 9.970358e+01 5.072328e+01 -4.645608e+02
    endloop
  endfacet
  facet normal 9.238695e-01 3.570794e-02 -3.810381e-01
    outer loop
      vertex 2.722303e+02 4.988734e+01 -4.656938e+02
      vertex 2.724500e+02 5.077177e+01 -4.650783e+02
      vertex 2.724500e+02 4.983786e+01 -4.651658e+02
    endloop
  endfacet
  facet normal 9.238695e-01 3.570794e-02 -3.810381e-01
    outer loop
      vertex 2.722303e+02 5.082125e+01 -4.656063e+02
      vertex 2.724500e+02 5.077177e+01 -4.650783e+02
      vertex 2.722303e+02 4.988734e+01 -4.656938e+02
    endloop
  endfacet
  facet normal 1.000000e+00 -9.023669e-13 -8.439518e-15
    outer loop
      vertex 2.724500e+02 4.659321e+01 -4.684830e+02
      vertex 2.724500e+02 5.011777e+01 -4.681527e+02
      vertex 2.724500e+02 4.983786e+01 -4.651658e+02
    endloop
  endfacet
  facet normal 9.066914e-13 9.956377e-01 9.330343e-02
    outer loop
      vertex 2.722303e+02 4.988734e+01 -4.656938e+02
      vertex 2.724500e+02 4.983786e+01 -4.651658e+02
      vertex 2.724500e+02 5.011777e+01 -4.681527e+02
    endloop
  endfacet
  facet normal 8.337895e-14 9.330343e-02 -9.956377e-01
    outer loop
      vertex 1.006807e+02 4.659321e+01 -4.684830e+02
      vertex 2.724500e+02 5.011777e+01 -4.681527e+02
      vertex 2.724500e+02 4.659321e+01 -4.684830e+02
    endloop
  endfacet
  facet normal 8.337894e-14 9.330343e-02 -9.956377e-01
    outer loop
      vertex 1.006807e+02 4.659321e+01 -4.684830e+02
      vertex 1.006807e+02 5.011777e+01 -4.681527e+02
      vertex 2.724500e+02 5.011777e+01 -4.681527e+02
    endloop
  endfacet
  facet normal 8.897339e-13 9.956377e-01 9.330343e-02
    outer loop
      vertex 2.717000e+02 4.990783e+01 -4.659125e+02
      vertex 2.724500e+02 5.011777e+01 -4.681527e+02
      vertex 1.006807e+02 5.011777e+01 -4.681527e+02
    endloop
  endfacet
  facet normal 8.649079e-13 9.956377e-01 9.330343e-02
    outer loop
      vertex 2.722303e+02 4.988734e+01 -4.656938e+02
      vertex 2.724500e+02 5.011777e+01 -4.681527e+02
      vertex 2.717000e+02 4.990783e+01 -4.659125e+02
    endloop
  endfacet
  facet normal 1.000000e+00 -9.078327e-13 -1.525984e-15
    outer loop
      vertex 2.724500e+02 4.064489e+01 -3.940123e+02
      vertex 2.724500e+02 3.951607e+01 -3.929631e+02
      vertex 2.724500e+02 4.659321e+01 -4.684830e+02
    endloop
  endfacet
  facet normal -8.899391e-13 -9.956377e-01 -9.330343e-02
    outer loop
      vertex 2.556410e+02 4.182066e+01 -4.175553e+02
      vertex 2.724500e+02 4.659321e+01 -4.684830e+02
      vertex 2.724500e+02 3.951607e+01 -3.929631e+02
    endloop
  endfacet
  facet normal 1.000000e+00 -1.058846e-12 -1.358812e-14
    outer loop
      vertex 2.724500e+02 4.101810e+01 -3.979949e+02
      vertex 2.724500e+02 4.064489e+01 -3.940123e+02
      vertex 2.724500e+02 4.659321e+01 -4.684830e+02
    endloop
  endfacet
  facet normal -8.897333e-13 -9.956377e-01 -9.330343e-02
    outer loop
      vertex 1.584000e+02 4.210057e+01 -4.205422e+02
      vertex 1.006807e+02 4.659321e+01 -4.684830e+02
      vertex 2.724500e+02 4.659321e+01 -4.684830e+02
    endloop
  endfacet
  facet normal -8.897512e-13 -9.956377e-01 -9.330343e-02
    outer loop
      vertex 2.556410e+02 4.210057e+01 -4.205422e+02
      vertex 1.584000e+02 4.210057e+01 -4.205422e+02
      vertex 2.724500e+02 4.659321e+01 -4.684830e+02
    endloop
  endfacet
  facet normal -8.869279e-13 -9.956377e-01 -9.330343e-02
    outer loop
      vertex 2.556410e+02 4.182066e+01 -4.175553e+02
      vertex 2.556410e+02 4.210057e+01 -4.205422e+02
      vertex 2.724500e+02 4.659321e+01 -4.684830e+02
    endloop
  endfacet
  facet normal 1.000000e+00 -8.897820e-13 1.789363e-14
    outer loop
      vertex 2.724500e+02 4.064489e+01 -3.940123e+02
      vertex 2.724500e+02 4.265233e+01 -3.926692e+02
      vertex 2.724500e+02 3.951607e+01 -3.929631e+02
    endloop
  endfacet
  facet normal -8.498341e-14 -9.330343e-02 9.956377e-01
    outer loop
      vertex 2.014000e+02 4.265233e+01 -3.926692e+02
      vertex 2.724500e+02 3.951607e+01 -3.929631e+02
      vertex 2.724500e+02 4.265233e+01 -3.926692e+02
    endloop
  endfacet
  facet normal -8.338096e-14 -9.330343e-02 9.956377e-01
    outer loop
      vertex 2.014000e+02 3.951607e+01 -3.929631e+02
      vertex 2.724500e+02 3.951607e+01 -3.929631e+02
      vertex 2.014000e+02 4.265233e+01 -3.926692e+02
    endloop
  endfacet
  facet normal -8.897539e-13 -9.956377e-01 -9.330343e-02
    outer loop
      vertex 2.556410e+02 4.182066e+01 -4.175553e+02
      vertex 2.724500e+02 3.951607e+01 -3.929631e+02
      vertex 2.014000e+02 3.951607e+01 -3.929631e+02
    endloop
  endfacet
  facet normal 1.000000e+00 -8.885317e-13 1.602497e-14
    outer loop
      vertex 2.724500e+02 4.064489e+01 -3.940123e+02
      vertex 2.724500e+02 4.275962e+01 -3.938141e+02
      vertex 2.724500e+02 4.265233e+01 -3.926692e+02
    endloop
  endfacet
  facet normal 9.175919e-13 9.956377e-01 9.330343e-02
    outer loop
      vertex 2.722303e+02 4.280911e+01 -3.943421e+02
      vertex 2.724500e+02 4.265233e+01 -3.926692e+02
      vertex 2.724500e+02 4.275962e+01 -3.938141e+02
    endloop
  endfacet
  facet normal 8.897057e-13 9.956377e-01 9.330343e-02
    outer loop
      vertex 2.014000e+02 4.265233e+01 -3.926692e+02
      vertex 2.724500e+02 4.265233e+01 -3.926692e+02
      vertex 2.717000e+02 4.282960e+01 -3.945609e+02
    endloop
  endfacet
  facet normal 8.593469e-13 9.956377e-01 9.330343e-02
    outer loop
      vertex 2.722303e+02 4.280911e+01 -3.943421e+02
      vertex 2.717000e+02 4.282960e+01 -3.945609e+02
      vertex 2.724500e+02 4.265233e+01 -3.926692e+02
    endloop
  endfacet
  facet normal 9.238695e-01 3.570794e-02 -3.810381e-01
    outer loop
      vertex 2.722303e+02 4.069437e+01 -3.945403e+02
      vertex 2.724500e+02 4.275962e+01 -3.938141e+02
      vertex 2.724500e+02 4.064489e+01 -3.940123e+02
    endloop
  endfacet
  facet normal 9.238695e-01 3.570794e-02 -3.810381e-01
    outer loop
      vertex 2.722303e+02 4.280911e+01 -3.943421e+02
      vertex 2.724500e+02 4.275962e+01 -3.938141e+02
      vertex 2.722303e+02 4.069437e+01 -3.945403e+02
    endloop
  endfacet
  facet normal 8.598386e-13 9.956377e-01 9.330343e-02
    outer loop
      vertex 2.722303e+02 4.096862e+01 -3.974669e+02
      vertex 2.724500e+02 4.064489e+01 -3.940123e+02
      vertex 2.724500e+02 4.101810e+01 -3.979949e+02
    endloop
  endfacet
  facet normal 8.827131e-13 9.956377e-01 9.330343e-02
    outer loop
      vertex 2.722303e+02 4.096862e+01 -3.974669e+02
      vertex 2.722303e+02 4.069437e+01 -3.945403e+02
      vertex 2.724500e+02 4.064489e+01 -3.940123e+02
    endloop
  endfacet
  facet normal 9.238695e-01 -3.570794e-02 3.810381e-01
    outer loop
      vertex 2.722303e+02 4.375099e+01 -3.972061e+02
      vertex 2.722303e+02 4.096862e+01 -3.974669e+02
      vertex 2.724500e+02 4.101810e+01 -3.979949e+02
    endloop
  endfacet
  facet normal -9.709570e-01 2.232322e-02 -2.382103e-01
    outer loop
      vertex 9.819662e+01 4.565260e+01 -4.584458e+02
      vertex 1.006807e+02 5.011777e+01 -4.681527e+02
      vertex 1.006807e+02 4.659321e+01 -4.684830e+02
    endloop
  endfacet
  facet normal 8.897438e-13 9.956377e-01 9.330343e-02
    outer loop
      vertex 1.006164e+02 4.990783e+01 -4.659125e+02
      vertex 2.717000e+02 4.990783e+01 -4.659125e+02
      vertex 1.006807e+02 5.011777e+01 -4.681527e+02
    endloop
  endfacet
  facet normal 9.225595e-13 9.956377e-01 9.330343e-02
    outer loop
      vertex 1.002861e+02 4.998998e+01 -4.667891e+02
      vertex 1.006164e+02 4.990783e+01 -4.659125e+02
      vertex 1.006807e+02 5.011777e+01 -4.681527e+02
    endloop
  endfacet
  facet normal -9.546893e-01 -8.734978e-02 -2.844966e-01
    outer loop
      vertex 9.819662e+01 4.565260e+01 -4.584458e+02
      vertex 1.002861e+02 4.998998e+01 -4.667891e+02
      vertex 1.006807e+02 5.011777e+01 -4.681527e+02
    endloop
  endfacet
  facet normal -8.893776e-13 -9.956377e-01 -9.330343e-02
    outer loop
      vertex 9.784760e+01 4.106492e+01 -4.094908e+02
      vertex 9.819662e+01 4.565260e+01 -4.584458e+02
      vertex 1.006807e+02 4.659321e+01 -4.684830e+02
    endloop
  endfacet
  facet normal -8.904165e-13 -9.956377e-01 -9.330343e-02
    outer loop
      vertex 1.009459e+02 3.961870e+01 -3.940583e+02
      vertex 9.784760e+01 4.106492e+01 -4.094908e+02
      vertex 1.006807e+02 4.659321e+01 -4.684830e+02
    endloop
  endfacet
  facet normal -8.894927e-13 -9.956377e-01 -9.330343e-02
    outer loop
      vertex 1.584000e+02 4.210057e+01 -4.205422e+02
      vertex 1.009459e+02 3.961870e+01 -3.940583e+02
      vertex 1.006807e+02 4.659321e+01 -4.684830e+02
    endloop
  endfacet
  facet normal 8.337990e-14 9.330343e-02 -9.956377e-01
    outer loop
      vertex 2.717000e+02 5.084175e+01 -4.658250e+02
      vertex 2.717000e+02 4.990783e+01 -4.659125e+02
      vertex 1.006164e+02 4.990783e+01 -4.659125e+02
    endloop
  endfacet
  facet normal 3.827076e-01 8.620020e-02 -9.198393e-01
    outer loop
      vertex 2.722303e+02 5.082125e+01 -4.656063e+02
      vertex 2.722303e+02 4.988734e+01 -4.656938e+02
      vertex 2.717000e+02 4.990783e+01 -4.659125e+02
    endloop
  endfacet
  facet normal 3.827076e-01 8.620020e-02 -9.198393e-01
    outer loop
      vertex 2.722303e+02 5.082125e+01 -4.656063e+02
      vertex 2.717000e+02 4.990783e+01 -4.659125e+02
      vertex 2.717000e+02 5.084175e+01 -4.658250e+02
    endloop
  endfacet
  facet normal 8.860706e-13 9.956377e-01 9.330343e-02
    outer loop
      vertex 1.002861e+02 4.998998e+01 -4.667891e+02
      vertex 1.001597e+02 4.989336e+01 -4.657581e+02
      vertex 1.006164e+02 4.990783e+01 -4.659125e+02
    endloop
  endfacet
  facet normal -3.216048e-01 8.834660e-02 -9.427435e-01
    outer loop
      vertex 1.006164e+02 5.084175e+01 -4.658250e+02
      vertex 1.006164e+02 4.990783e+01 -4.659125e+02
      vertex 1.001597e+02 4.989336e+01 -4.657581e+02
    endloop
  endfacet
  facet normal 8.337988e-14 9.330343e-02 -9.956377e-01
    outer loop
      vertex 1.006164e+02 5.084175e+01 -4.658250e+02
      vertex 2.717000e+02 5.084175e+01 -4.658250e+02
      vertex 1.006164e+02 4.990783e+01 -4.659125e+02
    endloop
  endfacet
  facet normal 9.253586e-13 9.956377e-01 9.330343e-02
    outer loop
      vertex 1.002861e+02 4.998998e+01 -4.667891e+02
      vertex 9.989188e+01 4.985593e+01 -4.653587e+02
      vertex 1.001597e+02 4.989336e+01 -4.657581e+02
    endloop
  endfacet
  facet normal -8.316669e-01 5.180906e-02 -5.528526e-01
    outer loop
      vertex 1.001597e+02 5.082727e+01 -4.656706e+02
      vertex 1.001597e+02 4.989336e+01 -4.657581e+02
      vertex 9.989188e+01 4.985593e+01 -4.653587e+02
    endloop
  endfacet
  facet normal -3.216048e-01 8.834660e-02 -9.427435e-01
    outer loop
      vertex 1.001597e+02 5.082727e+01 -4.656706e+02
      vertex 1.006164e+02 5.084175e+01 -4.658250e+02
      vertex 1.001597e+02 4.989336e+01 -4.657581e+02
    endloop
  endfacet
  facet normal -9.611395e-01 -5.669942e-02 -2.701780e-01
    outer loop
      vertex 9.819662e+01 4.565260e+01 -4.584458e+02
      vertex 9.989188e+01 4.985593e+01 -4.653587e+02
      vertex 1.002861e+02 4.998998e+01 -4.667891e+02
    endloop
  endfacet
  facet normal -9.739069e-01 2.117503e-02 -2.259580e-01
    outer loop
      vertex 9.989188e+01 5.078985e+01 -4.652712e+02
      vertex 9.989188e+01 4.985593e+01 -4.653587e+02
      vertex 9.819662e+01 4.565260e+01 -4.584458e+02
    endloop
  endfacet
  facet normal -8.316669e-01 5.180906e-02 -5.528526e-01
    outer loop
      vertex 1.001597e+02 5.082727e+01 -4.656706e+02
      vertex 9.989188e+01 4.985593e+01 -4.653587e+02
      vertex 9.989188e+01 5.078985e+01 -4.652712e+02
    endloop
  endfacet
  facet normal 8.929875e-13 9.946773e-01 1.030391e-01
    outer loop
      vertex 9.753102e+01 4.975922e+01 -4.544045e+02
      vertex 9.749951e+01 4.530279e+01 -4.113848e+02
      vertex 9.975111e+01 4.401666e+01 -3.989692e+02
    endloop
  endfacet
  facet normal -9.841153e-01 -1.656418e-02 1.767558e-01
    outer loop
      vertex 9.975111e+01 4.391709e+01 -3.989786e+02
      vertex 9.975111e+01 4.401666e+01 -3.989692e+02
      vertex 9.749951e+01 4.530279e+01 -4.113848e+02
    endloop
  endfacet
  facet normal 8.880018e-13 9.946773e-01 1.030391e-01
    outer loop
      vertex 9.951590e+01 5.073522e+01 -4.638262e+02
      vertex 9.753102e+01 4.975922e+01 -4.544045e+02
      vertex 9.975111e+01 4.401666e+01 -3.989692e+02
    endloop
  endfacet
  facet normal 8.890002e-13 9.946773e-01 1.030391e-01
    outer loop
      vertex 1.569000e+02 4.605694e+01 -4.186649e+02
      vertex 9.951590e+01 5.073522e+01 -4.638262e+02
      vertex 9.975111e+01 4.401666e+01 -3.989692e+02
    endloop
  endfacet
  facet normal 8.870127e-13 9.946773e-01 1.030391e-01
    outer loop
      vertex 1.569000e+02 4.605694e+01 -4.186649e+02
      vertex 9.975111e+01 4.401666e+01 -3.989692e+02
      vertex 1.584000e+02 4.590237e+01 -4.171728e+02
    endloop
  endfacet
  facet normal 8.733310e-13 9.946773e-01 1.030391e-01
    outer loop
      vertex 9.628000e+01 4.872126e+01 -4.443847e+02
      vertex 9.628000e+01 4.641562e+01 -4.221274e+02
      vertex 9.749951e+01 4.530279e+01 -4.113848e+02
    endloop
  endfacet
  facet normal -9.934605e-01 -3.271202e-02 1.093901e-01
    outer loop
      vertex 9.784760e+01 4.106492e+01 -4.094908e+02
      vertex 9.749951e+01 4.530279e+01 -4.113848e+02
      vertex 9.628000e+01 4.641562e+01 -4.221274e+02
    endloop
  endfacet
  facet normal 8.972106e-13 9.946773e-01 1.030391e-01
    outer loop
      vertex 9.753102e+01 4.975922e+01 -4.544045e+02
      vertex 9.628000e+01 4.872126e+01 -4.443847e+02
      vertex 9.749951e+01 4.530279e+01 -4.113848e+02
    endloop
  endfacet
  facet normal -9.839472e-01 -1.063127e-03 1.784566e-01
    outer loop
      vertex 9.975111e+01 4.391709e+01 -3.989786e+02
      vertex 9.749951e+01 4.530279e+01 -4.113848e+02
      vertex 9.784760e+01 4.106492e+01 -4.094908e+02
    endloop
  endfacet
  facet normal -7.071068e-01 7.033431e-01 7.285967e-02
    outer loop
      vertex 9.582997e+01 4.715260e+01 -4.336093e+02
      vertex 9.628000e+01 4.641562e+01 -4.221274e+02
      vertex 9.628000e+01 4.872126e+01 -4.443847e+02
    endloop
  endfacet
  facet normal -9.928956e-01 -1.110267e-02 1.184700e-01
    outer loop
      vertex 9.784760e+01 4.106492e+01 -4.094908e+02
      vertex 9.628000e+01 4.641562e+01 -4.221274e+02
      vertex 9.628000e+01 4.228540e+01 -4.225145e+02
    endloop
  endfacet
  facet normal -9.992353e-01 -3.647735e-03 3.893073e-02
    outer loop
      vertex 9.582997e+01 4.715260e+01 -4.336093e+02
      vertex 9.628000e+01 4.228540e+01 -4.225145e+02
      vertex 9.628000e+01 4.641562e+01 -4.221274e+02
    endloop
  endfacet
  facet normal -9.923758e-01 1.149903e-02 -1.227112e-01
    outer loop
      vertex 9.628000e+01 4.437308e+01 -4.447921e+02
      vertex 9.628000e+01 4.872126e+01 -4.443847e+02
      vertex 9.753102e+01 4.975922e+01 -4.544045e+02
    endloop
  endfacet
  facet normal -9.991440e-01 3.860255e-03 -4.118707e-02
    outer loop
      vertex 9.582998e+01 4.380700e+01 -4.339283e+02
      vertex 9.628000e+01 4.872126e+01 -4.443847e+02
      vertex 9.628000e+01 4.437308e+01 -4.447921e+02
    endloop
  endfacet
  facet normal -9.991450e-01 3.922804e-03 -4.115772e-02
    outer loop
      vertex 9.582998e+01 4.380700e+01 -4.339283e+02
      vertex 9.582997e+01 4.715260e+01 -4.336093e+02
      vertex 9.628000e+01 4.872126e+01 -4.443847e+02
    endloop
  endfacet
  facet normal -9.785627e-01 4.017459e-02 -2.019925e-01
    outer loop
      vertex 9.819662e+01 4.565260e+01 -4.584458e+02
      vertex 9.753102e+01 4.975922e+01 -4.544045e+02
      vertex 9.951590e+01 5.073522e+01 -4.638262e+02
    endloop
  endfacet
  facet normal -9.897760e-01 -2.169321e-02 -1.409715e-01
    outer loop
      vertex 9.628000e+01 4.437308e+01 -4.447921e+02
      vertex 9.753102e+01 4.975922e+01 -4.544045e+02
      vertex 9.819662e+01 4.565260e+01 -4.584458e+02
    endloop
  endfacet
  facet normal 8.888929e-13 9.946773e-01 1.030391e-01
    outer loop
      vertex 1.584000e+02 4.621150e+01 -4.201570e+02
      vertex 2.556410e+02 4.621150e+01 -4.201570e+02
      vertex 9.951590e+01 5.073522e+01 -4.638262e+02
    endloop
  endfacet
  facet normal 8.867454e-13 9.946773e-01 1.030391e-01
    outer loop
      vertex 1.569000e+02 4.605694e+01 -4.186649e+02
      vertex 1.584000e+02 4.621150e+01 -4.201570e+02
      vertex 9.951590e+01 5.073522e+01 -4.638262e+02
    endloop
  endfacet
  facet normal -9.753489e-01 2.058913e-02 -2.197058e-01
    outer loop
      vertex 9.951590e+01 5.065514e+01 -4.638337e+02
      vertex 9.819662e+01 4.565260e+01 -4.584458e+02
      vertex 9.951590e+01 5.073522e+01 -4.638262e+02
    endloop
  endfacet
  facet normal 8.337411e-14 9.330343e-02 -9.956377e-01
    outer loop
      vertex 1.584000e+02 4.182066e+01 -4.175553e+02
      vertex 1.584000e+02 4.590237e+01 -4.171728e+02
      vertex 2.556410e+02 4.590237e+01 -4.171728e+02
    endloop
  endfacet
  facet normal 7.071068e-01 6.597550e-02 -7.040222e-01
    outer loop
      vertex 1.569000e+02 4.196062e+01 -4.190488e+02
      vertex 1.569000e+02 4.605694e+01 -4.186649e+02
      vertex 1.584000e+02 4.590237e+01 -4.171728e+02
    endloop
  endfacet
  facet normal 7.071068e-01 6.597549e-02 -7.040222e-01
    outer loop
      vertex 1.569000e+02 4.196062e+01 -4.190488e+02
      vertex 1.584000e+02 4.590237e+01 -4.171728e+02
      vertex 1.584000e+02 4.182066e+01 -4.175553e+02
    endloop
  endfacet
  facet normal -1.000000e+00 8.921309e-13 -2.825149e-15
    outer loop
      vertex 2.556410e+02 4.210057e+01 -4.205422e+02
      vertex 2.556410e+02 4.590237e+01 -4.171728e+02
      vertex 2.556410e+02 4.621150e+01 -4.201570e+02
    endloop
  endfacet
  facet normal 8.337375e-14 9.330343e-02 -9.956377e-01
    outer loop
      vertex 2.556410e+02 4.182066e+01 -4.175553e+02
      vertex 1.584000e+02 4.182066e+01 -4.175553e+02
      vertex 2.556410e+02 4.590237e+01 -4.171728e+02
    endloop
  endfacet
  facet normal -1.000000e+00 8.914844e-13 -2.095716e-15
    outer loop
      vertex 2.556410e+02 4.182066e+01 -4.175553e+02
      vertex 2.556410e+02 4.590237e+01 -4.171728e+02
      vertex 2.556410e+02 4.210057e+01 -4.205422e+02
    endloop
  endfacet
  facet normal -8.338095e-14 -9.330343e-02 9.956377e-01
    outer loop
      vertex 2.556410e+02 4.210057e+01 -4.205422e+02
      vertex 2.556410e+02 4.621150e+01 -4.201570e+02
      vertex 1.584000e+02 4.621150e+01 -4.201570e+02
    endloop
  endfacet
  facet normal 7.071068e-01 -6.597549e-02 7.040222e-01
    outer loop
      vertex 1.584000e+02 4.210057e+01 -4.205422e+02
      vertex 1.584000e+02 4.621150e+01 -4.201570e+02
      vertex 1.569000e+02 4.605694e+01 -4.186649e+02
    endloop
  endfacet
  facet normal -8.338057e-14 -9.330343e-02 9.956377e-01
    outer loop
      vertex 2.556410e+02 4.210057e+01 -4.205422e+02
      vertex 1.584000e+02 4.621150e+01 -4.201570e+02
      vertex 1.584000e+02 4.210057e+01 -4.205422e+02
    endloop
  endfacet
  facet normal 7.071068e-01 -6.597550e-02 7.040222e-01
    outer loop
      vertex 1.584000e+02 4.210057e+01 -4.205422e+02
      vertex 1.569000e+02 4.605694e+01 -4.186649e+02
      vertex 1.569000e+02 4.196062e+01 -4.190488e+02
    endloop
  endfacet
  facet normal -8.337873e-14 -9.330343e-02 9.956377e-01
    outer loop
      vertex 2.717000e+02 4.094813e+01 -3.972481e+02
      vertex 2.717000e+02 4.373049e+01 -3.969874e+02
      vertex 1.007887e+02 4.373049e+01 -3.969874e+02
    endloop
  endfacet
  facet normal 8.897299e-13 9.956377e-01 9.330343e-02
    outer loop
      vertex 9.975111e+01 4.391709e+01 -3.989786e+02
      vertex 1.007887e+02 4.373049e+01 -3.969874e+02
      vertex 2.717000e+02 4.373049e+01 -3.969874e+02
    endloop
  endfacet
  facet normal -8.337858e-14 -9.330343e-02 9.956377e-01
    outer loop
      vertex 1.007887e+02 4.094813e+01 -3.972481e+02
      vertex 2.717000e+02 4.094813e+01 -3.972481e+02
      vertex 1.007887e+02 4.373049e+01 -3.969874e+02
    endloop
  endfacet
  facet normal -3.322145e-01 -8.800416e-02 9.390894e-01
    outer loop
      vertex 1.003187e+02 4.374594e+01 -3.971522e+02
      vertex 1.007887e+02 4.094813e+01 -3.972481e+02
      vertex 1.007887e+02 4.373049e+01 -3.969874e+02
    endloop
  endfacet
  facet normal 9.007531e-13 9.956377e-01 9.330343e-02
    outer loop
      vertex 1.003187e+02 4.374594e+01 -3.971522e+02
      vertex 1.007887e+02 4.373049e+01 -3.969874e+02
      vertex 9.975111e+01 4.391709e+01 -3.989786e+02
    endloop
  endfacet
  facet normal 3.827076e-01 -8.620020e-02 9.198393e-01
    outer loop
      vertex 2.722303e+02 4.096862e+01 -3.974669e+02
      vertex 2.717000e+02 4.373049e+01 -3.969874e+02
      vertex 2.717000e+02 4.094813e+01 -3.972481e+02
    endloop
  endfacet
  facet normal 3.827076e-01 -8.620020e-02 9.198393e-01
    outer loop
      vertex 2.722303e+02 4.375099e+01 -3.972061e+02
      vertex 2.717000e+02 4.373049e+01 -3.969874e+02
      vertex 2.722303e+02 4.096862e+01 -3.974669e+02
    endloop
  endfacet
  facet normal 8.891370e-13 9.956377e-01 9.330343e-02
    outer loop
      vertex 2.722303e+02 4.375099e+01 -3.972061e+02
      vertex 9.975111e+01 4.391709e+01 -3.989786e+02
      vertex 2.717000e+02 4.373049e+01 -3.969874e+02
    endloop
  endfacet
  facet normal 8.897299e-13 9.956377e-01 9.330343e-02
    outer loop
      vertex 2.717000e+02 4.071487e+01 -3.947590e+02
      vertex 2.717000e+02 4.094813e+01 -3.972481e+02
      vertex 1.007887e+02 4.094813e+01 -3.972481e+02
    endloop
  endfacet
  facet normal 8.872314e-13 9.956377e-01 9.330343e-02
    outer loop
      vertex 2.717000e+02 4.071487e+01 -3.947590e+02
      vertex 2.722303e+02 4.069437e+01 -3.945403e+02
      vertex 2.717000e+02 4.094813e+01 -3.972481e+02
    endloop
  endfacet
  facet normal 9.055246e-13 9.956377e-01 9.330343e-02
    outer loop
      vertex 2.722303e+02 4.096862e+01 -3.974669e+02
      vertex 2.717000e+02 4.094813e+01 -3.972481e+02
      vertex 2.722303e+02 4.069437e+01 -3.945403e+02
    endloop
  endfacet
  facet normal 8.897253e-13 9.956377e-01 9.330343e-02
    outer loop
      vertex 1.016942e+02 4.071487e+01 -3.947590e+02
      vertex 2.717000e+02 4.071487e+01 -3.947590e+02
      vertex 1.007887e+02 4.094813e+01 -3.972481e+02
    endloop
  endfacet
  facet normal 8.961548e-13 9.956377e-01 9.330343e-02
    outer loop
      vertex 1.011465e+02 4.069269e+01 -3.945224e+02
      vertex 1.016942e+02 4.071487e+01 -3.947590e+02
      vertex 1.007887e+02 4.094813e+01 -3.972481e+02
    endloop
  endfacet
  facet normal 9.301240e-13 9.956377e-01 9.330343e-02
    outer loop
      vertex 1.009459e+02 4.064023e+01 -3.939625e+02
      vertex 1.011465e+02 4.069269e+01 -3.945224e+02
      vertex 1.007887e+02 4.094813e+01 -3.972481e+02
    endloop
  endfacet
  facet normal 8.852013e-13 9.956377e-01 9.330343e-02
    outer loop
      vertex 1.004895e+02 4.082277e+01 -3.959105e+02
      vertex 1.009459e+02 4.064023e+01 -3.939625e+02
      vertex 1.007887e+02 4.094813e+01 -3.972481e+02
    endloop
  endfacet
  facet normal 8.860102e-13 9.956377e-01 9.330343e-02
    outer loop
      vertex 1.003187e+02 4.096357e+01 -3.974130e+02
      vertex 1.004895e+02 4.082277e+01 -3.959105e+02
      vertex 1.007887e+02 4.094813e+01 -3.972481e+02
    endloop
  endfacet
  facet normal -3.322145e-01 -8.800416e-02 9.390894e-01
    outer loop
      vertex 1.003187e+02 4.374594e+01 -3.971522e+02
      vertex 1.003187e+02 4.096357e+01 -3.974130e+02
      vertex 1.007887e+02 4.094813e+01 -3.972481e+02
    endloop
  endfacet
  facet normal 3.827076e-01 8.620020e-02 -9.198393e-01
    outer loop
      vertex 2.722303e+02 4.280911e+01 -3.943421e+02
      vertex 2.722303e+02 4.069437e+01 -3.945403e+02
      vertex 2.717000e+02 4.071487e+01 -3.947590e+02
    endloop
  endfacet
  facet normal 8.337813e-14 9.330343e-02 -9.956377e-01
    outer loop
      vertex 2.717000e+02 4.282960e+01 -3.945609e+02
      vertex 2.717000e+02 4.071487e+01 -3.947590e+02
      vertex 1.016942e+02 4.071487e+01 -3.947590e+02
    endloop
  endfacet
  facet normal 3.827076e-01 8.620020e-02 -9.198393e-01
    outer loop
      vertex 2.722303e+02 4.280911e+01 -3.943421e+02
      vertex 2.717000e+02 4.071487e+01 -3.947590e+02
      vertex 2.717000e+02 4.282960e+01 -3.945609e+02
    endloop
  endfacet
  facet normal -3.980660e-01 8.559254e-02 -9.133550e-01
    outer loop
      vertex 1.016942e+02 4.282960e+01 -3.945609e+02
      vertex 1.016942e+02 4.071487e+01 -3.947590e+02
      vertex 1.011465e+02 4.069269e+01 -3.945224e+02
    endloop
  endfacet
  facet normal 8.337814e-14 9.330343e-02 -9.956377e-01
    outer loop
      vertex 1.016942e+02 4.282960e+01 -3.945609e+02
      vertex 2.717000e+02 4.282960e+01 -3.945609e+02
      vertex 1.016942e+02 4.071487e+01 -3.947590e+02
    endloop
  endfacet
  facet normal -9.418537e-01 3.135213e-02 -3.345575e-01
    outer loop
      vertex 1.011465e+02 4.280743e+01 -3.943242e+02
      vertex 1.011465e+02 4.069269e+01 -3.945224e+02
      vertex 1.009459e+02 4.064023e+01 -3.939625e+02
    endloop
  endfacet
  facet normal -3.980660e-01 8.559254e-02 -9.133550e-01
    outer loop
      vertex 1.011465e+02 4.280743e+01 -3.943242e+02
      vertex 1.016942e+02 4.282960e+01 -3.945609e+02
      vertex 1.011465e+02 4.069269e+01 -3.945224e+02
    endloop
  endfacet
  facet normal -9.738488e-01 -2.119828e-02 2.262061e-01
    outer loop
      vertex 1.009459e+02 3.961870e+01 -3.940583e+02
      vertex 1.009459e+02 4.064023e+01 -3.939625e+02
      vertex 1.004895e+02 4.082277e+01 -3.959105e+02
    endloop
  endfacet
  facet normal -9.418537e-01 3.135213e-02 -3.345575e-01
    outer loop
      vertex 1.011465e+02 4.280743e+01 -3.943242e+02
      vertex 1.009459e+02 4.064023e+01 -3.939625e+02
      vertex 1.009459e+02 4.275496e+01 -3.937644e+02
    endloop
  endfacet
  facet normal -7.991936e-14 -9.330343e-02 9.956377e-01
    outer loop
      vertex 2.012500e+02 3.961870e+01 -3.940583e+02
      vertex 1.009459e+02 4.275496e+01 -3.937644e+02
      vertex 1.009459e+02 4.064023e+01 -3.939625e+02
    endloop
  endfacet
  facet normal -8.337896e-14 -9.330343e-02 9.956377e-01
    outer loop
      vertex 2.012500e+02 3.961870e+01 -3.940583e+02
      vertex 1.009459e+02 4.064023e+01 -3.939625e+02
      vertex 1.009459e+02 3.961870e+01 -3.940583e+02
    endloop
  endfacet
  facet normal 8.908346e-13 9.956377e-01 9.330343e-02
    outer loop
      vertex 1.003187e+02 4.096357e+01 -3.974130e+02
      vertex 1.000562e+02 4.100309e+01 -3.978347e+02
      vertex 1.004895e+02 4.082277e+01 -3.959105e+02
    endloop
  endfacet
  facet normal -9.756352e-01 -3.724547e-02 2.162146e-01
    outer loop
      vertex 1.009459e+02 3.961870e+01 -3.940583e+02
      vertex 1.004895e+02 4.082277e+01 -3.959105e+02
      vertex 1.000562e+02 4.100309e+01 -3.978347e+02
    endloop
  endfacet
  facet normal -8.499821e-01 -4.915333e-02 5.245135e-01
    outer loop
      vertex 1.000562e+02 4.378546e+01 -3.975739e+02
      vertex 1.000562e+02 4.100309e+01 -3.978347e+02
      vertex 1.003187e+02 4.096357e+01 -3.974130e+02
    endloop
  endfacet
  facet normal -9.749950e-01 -1.245012e-01 1.840768e-01
    outer loop
      vertex 1.009459e+02 3.961870e+01 -3.940583e+02
      vertex 1.000562e+02 4.100309e+01 -3.978347e+02
      vertex 9.784760e+01 4.106492e+01 -4.094908e+02
    endloop
  endfacet
  facet normal -9.821108e-01 -2.982320e-02 1.859273e-01
    outer loop
      vertex 9.975111e+01 4.391709e+01 -3.989786e+02
      vertex 9.784760e+01 4.106492e+01 -4.094908e+02
      vertex 1.000562e+02 4.100309e+01 -3.978347e+02
    endloop
  endfacet
  facet normal -9.777574e-01 -2.041091e-02 2.087436e-01
    outer loop
      vertex 9.990186e+01 4.385152e+01 -3.982789e+02
      vertex 9.975111e+01 4.391709e+01 -3.989786e+02
      vertex 1.000562e+02 4.100309e+01 -3.978347e+02
    endloop
  endfacet
  facet normal -9.770688e-01 -1.986654e-02 2.119952e-01
    outer loop
      vertex 1.000562e+02 4.378546e+01 -3.975739e+02
      vertex 9.990186e+01 4.385152e+01 -3.982789e+02
      vertex 1.000562e+02 4.100309e+01 -3.978347e+02
    endloop
  endfacet
  facet normal -8.499821e-01 -4.915333e-02 5.245135e-01
    outer loop
      vertex 1.003187e+02 4.374594e+01 -3.971522e+02
      vertex 1.000562e+02 4.378546e+01 -3.975739e+02
      vertex 1.003187e+02 4.096357e+01 -3.974130e+02
    endloop
  endfacet
  facet normal 8.897253e-13 9.956377e-01 9.330343e-02
    outer loop
      vertex 2.012500e+02 4.275496e+01 -3.937644e+02
      vertex 2.717000e+02 4.282960e+01 -3.945609e+02
      vertex 1.016942e+02 4.282960e+01 -3.945609e+02
    endloop
  endfacet
  facet normal 8.899340e-13 9.956377e-01 9.330343e-02
    outer loop
      vertex 2.013500e+02 4.274563e+01 -3.936648e+02
      vertex 2.014000e+02 4.265233e+01 -3.926692e+02
      vertex 2.717000e+02 4.282960e+01 -3.945609e+02
    endloop
  endfacet
  facet normal 8.880598e-13 9.956377e-01 9.330343e-02
    outer loop
      vertex 2.013207e+02 4.275223e+01 -3.937352e+02
      vertex 2.013500e+02 4.274563e+01 -3.936648e+02
      vertex 2.717000e+02 4.282960e+01 -3.945609e+02
    endloop
  endfacet
  facet normal 8.923382e-13 9.956377e-01 9.330343e-02
    outer loop
      vertex 2.012500e+02 4.275496e+01 -3.937644e+02
      vertex 2.013207e+02 4.275223e+01 -3.937352e+02
      vertex 2.717000e+02 4.282960e+01 -3.945609e+02
    endloop
  endfacet
  facet normal 8.898640e-13 9.956377e-01 9.330343e-02
    outer loop
      vertex 1.011465e+02 4.280743e+01 -3.943242e+02
      vertex 2.012500e+02 4.275496e+01 -3.937644e+02
      vertex 1.016942e+02 4.282960e+01 -3.945609e+02
    endloop
  endfacet
  facet normal 8.490284e-13 9.956377e-01 9.330343e-02
    outer loop
      vertex 2.013500e+02 4.274563e+01 -3.936648e+02
      vertex 2.013500e+02 4.265699e+01 -3.927189e+02
      vertex 2.014000e+02 4.265233e+01 -3.926692e+02
    endloop
  endfacet
  facet normal -7.071068e-01 -6.597549e-02 7.040222e-01
    outer loop
      vertex 2.013500e+02 3.952073e+01 -3.930128e+02
      vertex 2.014000e+02 4.265233e+01 -3.926692e+02
      vertex 2.013500e+02 4.265699e+01 -3.927189e+02
    endloop
  endfacet
  facet normal -7.071068e-01 -6.597549e-02 7.040222e-01
    outer loop
      vertex 2.013500e+02 3.952073e+01 -3.930128e+02
      vertex 2.014000e+02 3.951607e+01 -3.929631e+02
      vertex 2.014000e+02 4.265233e+01 -3.926692e+02
    endloop
  endfacet
  facet normal -1.000000e+00 8.977313e-13 -6.017600e-15
    outer loop
      vertex 2.013500e+02 3.960937e+01 -3.939587e+02
      vertex 2.013500e+02 4.265699e+01 -3.927189e+02
      vertex 2.013500e+02 4.274563e+01 -3.936648e+02
    endloop
  endfacet
  facet normal -1.000000e+00 8.859565e-13 2.292762e-14
    outer loop
      vertex 2.013500e+02 3.952073e+01 -3.930128e+02
      vertex 2.013500e+02 4.265699e+01 -3.927189e+02
      vertex 2.013500e+02 3.960937e+01 -3.939587e+02
    endloop
  endfacet
  facet normal -9.237749e-01 -3.572924e-02 3.812655e-01
    outer loop
      vertex 2.013500e+02 3.960937e+01 -3.939587e+02
      vertex 2.013500e+02 4.274563e+01 -3.936648e+02
      vertex 2.013207e+02 4.275223e+01 -3.937352e+02
    endloop
  endfacet
  facet normal -3.829360e-01 -8.619137e-02 9.197451e-01
    outer loop
      vertex 2.013207e+02 3.961597e+01 -3.940291e+02
      vertex 2.013207e+02 4.275223e+01 -3.937352e+02
      vertex 2.012500e+02 4.275496e+01 -3.937644e+02
    endloop
  endfacet
  facet normal -9.237749e-01 -3.572924e-02 3.812655e-01
    outer loop
      vertex 2.013500e+02 3.960937e+01 -3.939587e+02
      vertex 2.013207e+02 4.275223e+01 -3.937352e+02
      vertex 2.013207e+02 3.961597e+01 -3.940291e+02
    endloop
  endfacet
  facet normal 8.897340e-13 9.956377e-01 9.330343e-02
    outer loop
      vertex 1.011465e+02 4.280743e+01 -3.943242e+02
      vertex 1.009459e+02 4.275496e+01 -3.937644e+02
      vertex 2.012500e+02 4.275496e+01 -3.937644e+02
    endloop
  endfacet
  facet normal -8.337867e-14 -9.330343e-02 9.956377e-01
    outer loop
      vertex 2.012500e+02 3.961870e+01 -3.940583e+02
      vertex 2.012500e+02 4.275496e+01 -3.937644e+02
      vertex 1.009459e+02 4.275496e+01 -3.937644e+02
    endloop
  endfacet
  facet normal -3.829360e-01 -8.619137e-02 9.197451e-01
    outer loop
      vertex 2.013207e+02 3.961597e+01 -3.940291e+02
      vertex 2.012500e+02 4.275496e+01 -3.937644e+02
      vertex 2.012500e+02 3.961870e+01 -3.940583e+02
    endloop
  endfacet
  facet normal -7.452773e-13 -9.956377e-01 -9.330343e-02
    outer loop
      vertex 2.556410e+02 4.182066e+01 -4.175553e+02
      vertex 2.014000e+02 3.951607e+01 -3.929631e+02
      vertex 2.013500e+02 3.952073e+01 -3.930128e+02
    endloop
  endfacet
  facet normal -8.897375e-13 -9.956377e-01 -9.330343e-02
    outer loop
      vertex 9.628000e+01 4.228540e+01 -4.225145e+02
      vertex 9.628000e+01 4.437308e+01 -4.447921e+02
      vertex 9.819662e+01 4.565260e+01 -4.584458e+02
    endloop
  endfacet
  facet normal -8.925764e-13 -9.956377e-01 -9.330343e-02
    outer loop
      vertex 9.784760e+01 4.106492e+01 -4.094908e+02
      vertex 9.628000e+01 4.228540e+01 -4.225145e+02
      vertex 9.819662e+01 4.565260e+01 -4.584458e+02
    endloop
  endfacet
  facet normal -9.657519e-01 -2.449708e-02 -2.583084e-01
    outer loop
      vertex 9.970358e+01 5.072328e+01 -4.645608e+02
      vertex 9.989188e+01 5.078985e+01 -4.652712e+02
      vertex 9.819662e+01 4.565260e+01 -4.584458e+02
    endloop
  endfacet
  facet normal -9.678005e-01 -1.537442e-02 -2.512486e-01
    outer loop
      vertex 9.951590e+01 5.065514e+01 -4.638337e+02
      vertex 9.970358e+01 5.072328e+01 -4.645608e+02
      vertex 9.819662e+01 4.565260e+01 -4.584458e+02
    endloop
  endfacet
  facet normal -7.071068e-01 -7.040222e-01 -6.597549e-02
    outer loop
      vertex 9.582998e+01 4.380700e+01 -4.339283e+02
      vertex 9.628000e+01 4.437308e+01 -4.447921e+02
      vertex 9.628000e+01 4.228540e+01 -4.225145e+02
    endloop
  endfacet
  facet normal -9.992361e-01 -3.711120e-03 3.890295e-02
    outer loop
      vertex 9.582998e+01 4.380700e+01 -4.339283e+02
      vertex 9.628000e+01 4.228540e+01 -4.225145e+02
      vertex 9.582997e+01 4.715260e+01 -4.336093e+02
    endloop
  endfacet
  facet normal -8.897331e-13 -9.956377e-01 -9.330343e-02
    outer loop
      vertex 1.584000e+02 4.182066e+01 -4.175553e+02
      vertex 2.012500e+02 3.961870e+01 -3.940583e+02
      vertex 1.009459e+02 3.961870e+01 -3.940583e+02
    endloop
  endfacet
  facet normal -8.890358e-13 -9.956377e-01 -9.330343e-02
    outer loop
      vertex 1.569000e+02 4.196062e+01 -4.190488e+02
      vertex 1.584000e+02 4.182066e+01 -4.175553e+02
      vertex 1.009459e+02 3.961870e+01 -3.940583e+02
    endloop
  endfacet
  facet normal -8.929065e-13 -9.956377e-01 -9.330343e-02
    outer loop
      vertex 1.584000e+02 4.210057e+01 -4.205422e+02
      vertex 1.569000e+02 4.196062e+01 -4.190488e+02
      vertex 1.009459e+02 3.961870e+01 -3.940583e+02
    endloop
  endfacet
  facet normal -8.603160e-13 -9.956377e-01 -9.330343e-02
    outer loop
      vertex 2.556410e+02 4.182066e+01 -4.175553e+02
      vertex 2.013207e+02 3.961597e+01 -3.940291e+02
      vertex 2.012500e+02 3.961870e+01 -3.940583e+02
    endloop
  endfacet
  facet normal -8.896785e-13 -9.956377e-01 -9.330343e-02
    outer loop
      vertex 2.556410e+02 4.182066e+01 -4.175553e+02
      vertex 2.012500e+02 3.961870e+01 -3.940583e+02
      vertex 1.584000e+02 4.182066e+01 -4.175553e+02
    endloop
  endfacet
  facet normal -8.371092e-13 -9.956377e-01 -9.330343e-02
    outer loop
      vertex 2.556410e+02 4.182066e+01 -4.175553e+02
      vertex 2.013500e+02 3.960937e+01 -3.939587e+02
      vertex 2.013207e+02 3.961597e+01 -3.940291e+02
    endloop
  endfacet
  facet normal -8.976765e-13 -9.956377e-01 -9.330343e-02
    outer loop
      vertex 2.556410e+02 4.182066e+01 -4.175553e+02
      vertex 2.013500e+02 3.952073e+01 -3.930128e+02
      vertex 2.013500e+02 3.960937e+01 -3.939587e+02
    endloop
  endfacet
  facet normal 5.647468e-12 9.956377e-01 9.330343e-02
    outer loop
      vertex 1.000562e+02 4.378546e+01 -3.975739e+02
      vertex 9.975111e+01 4.391709e+01 -3.989786e+02
      vertex 9.990186e+01 4.385152e+01 -3.982789e+02
    endloop
  endfacet
  facet normal 9.032504e-13 9.956377e-01 9.330343e-02
    outer loop
      vertex 1.003187e+02 4.374594e+01 -3.971522e+02
      vertex 9.975111e+01 4.391709e+01 -3.989786e+02
      vertex 1.000562e+02 4.378546e+01 -3.975739e+02
    endloop
  endfacet
endsolid P1040852002
