solid P1040852002
  facet normal -1.000000e+00 -3.427122e-13 2.755284e-12
    outer loop
      vertex -1.890140e+02 -3.889211e+01 -4.684162e+02
      vertex -1.890140e+02 -3.367279e+01 -3.979012e+02
      vertex -1.890140e+02 -3.331968e+01 -3.939168e+02
    endloop
  endfacet
  facet normal 2.382985e-13 -9.960959e-01 8.827818e-02
    outer loop
      vertex -1.887943e+02 -3.362597e+01 -3.973729e+02
      vertex -1.890140e+02 -3.331968e+01 -3.939168e+02
      vertex -1.890140e+02 -3.367279e+01 -3.979012e+02
    endloop
  endfacet
  facet normal -1.000000e+00 1.857738e-14 2.728260e-12
    outer loop
      vertex -1.890140e+02 -3.219616e+01 -3.928619e+02
      vertex -1.890140e+02 -3.889211e+01 -4.684162e+02
      vertex -1.890140e+02 -3.331968e+01 -3.939168e+02
    endloop
  endfacet
  facet normal -1.000000e+00 -2.630716e-15 2.750847e-12
    outer loop
      vertex -1.890140e+02 -3.438757e+01 -3.926676e+02
      vertex -1.890140e+02 -3.219616e+01 -3.928619e+02
      vertex -1.890140e+02 -3.331968e+01 -3.939168e+02
    endloop
  endfacet
  facet normal -1.000000e+00 -2.526964e-14 2.731493e-12
    outer loop
      vertex -1.890140e+02 -3.448909e+01 -3.938132e+02
      vertex -1.890140e+02 -3.438757e+01 -3.926676e+02
      vertex -1.890140e+02 -3.331968e+01 -3.939168e+02
    endloop
  endfacet
  facet normal -9.238795e-01 -3.378260e-02 -3.811894e-01
    outer loop
      vertex -1.887943e+02 -3.336649e+01 -3.944451e+02
      vertex -1.890140e+02 -3.448909e+01 -3.938132e+02
      vertex -1.890140e+02 -3.331968e+01 -3.939168e+02
    endloop
  endfacet
  facet normal 2.150174e-13 -9.960959e-01 8.827818e-02
    outer loop
      vertex -1.887943e+02 -3.336649e+01 -3.944451e+02
      vertex -1.890140e+02 -3.331968e+01 -3.939168e+02
      vertex -1.887943e+02 -3.362597e+01 -3.973729e+02
    endloop
  endfacet
  facet normal -1.000000e+00 -7.509170e-15 2.730474e-12
    outer loop
      vertex -1.890140e+02 -3.889211e+01 -4.684162e+02
      vertex -1.890140e+02 -3.549546e+01 -3.977396e+02
      vertex -1.890140e+02 -3.367279e+01 -3.979012e+02
    endloop
  endfacet
  facet normal -9.238795e-01 3.378260e-02 3.811894e-01
    outer loop
      vertex -1.887943e+02 -3.544864e+01 -3.972114e+02
      vertex -1.890140e+02 -3.367279e+01 -3.979012e+02
      vertex -1.890140e+02 -3.549546e+01 -3.977396e+02
    endloop
  endfacet
  facet normal -9.238795e-01 3.378260e-02 3.811894e-01
    outer loop
      vertex -1.887943e+02 -3.544864e+01 -3.972114e+02
      vertex -1.887943e+02 -3.362597e+01 -3.973729e+02
      vertex -1.890140e+02 -3.367279e+01 -3.979012e+02
    endloop
  endfacet
  facet normal -1.000000e+00 -3.392292e-13 2.746416e-12
    outer loop
      vertex -1.890140e+02 -3.889211e+01 -4.684162e+02
      vertex -1.890140e+02 -3.560581e+01 -3.989848e+02
      vertex -1.890140e+02 -3.549546e+01 -3.977396e+02
    endloop
  endfacet
  facet normal 2.428282e-13 -9.960959e-01 8.827818e-02
    outer loop
      vertex -1.633640e+01 -3.560581e+01 -3.989848e+02
      vertex -1.890140e+02 -3.549546e+01 -3.977396e+02
      vertex -1.890140e+02 -3.560581e+01 -3.989848e+02
    endloop
  endfacet
  facet normal 2.426370e-13 -9.960959e-01 8.827818e-02
    outer loop
      vertex -1.887943e+02 -3.544864e+01 -3.972114e+02
      vertex -1.890140e+02 -3.549546e+01 -3.977396e+02
      vertex -1.633640e+01 -3.560581e+01 -3.989848e+02
    endloop
  endfacet
  facet normal -1.000000e+00 2.409651e-13 2.718954e-12
    outer loop
      vertex -1.890140e+02 -3.889211e+01 -4.684162e+02
      vertex -1.890140e+02 -3.570542e+01 -3.989759e+02
      vertex -1.890140e+02 -3.560581e+01 -3.989848e+02
    endloop
  endfacet
  facet normal 2.719467e-12 8.827818e-02 9.960959e-01
    outer loop
      vertex -1.633640e+01 -3.570542e+01 -3.989759e+02
      vertex -1.890140e+02 -3.560581e+01 -3.989848e+02
      vertex -1.890140e+02 -3.570542e+01 -3.989759e+02
    endloop
  endfacet
  facet normal 2.719467e-12 8.827818e-02 9.960959e-01
    outer loop
      vertex -1.633640e+01 -3.560581e+01 -3.989848e+02
      vertex -1.890140e+02 -3.560581e+01 -3.989848e+02
      vertex -1.633640e+01 -3.570542e+01 -3.989759e+02
    endloop
  endfacet
  facet normal -1.000000e+00 -9.279909e-14 2.738862e-12
    outer loop
      vertex -1.890140e+02 -4.186233e+01 -4.638864e+02
      vertex -1.890140e+02 -4.194703e+01 -4.638789e+02
      vertex -1.890140e+02 -3.570542e+01 -3.989759e+02
    endloop
  endfacet
  facet normal 2.630078e-13 -9.954076e-01 9.572685e-02
    outer loop
      vertex -1.722050e+02 -3.880227e+01 -4.311783e+02
      vertex -1.890140e+02 -3.570542e+01 -3.989759e+02
      vertex -1.890140e+02 -4.194703e+01 -4.638789e+02
    endloop
  endfacet
  facet normal -1.000000e+00 9.632983e-16 2.729968e-12
    outer loop
      vertex -1.890140e+02 -3.889211e+01 -4.684162e+02
      vertex -1.890140e+02 -4.186233e+01 -4.638864e+02
      vertex -1.890140e+02 -3.570542e+01 -3.989759e+02
    endloop
  endfacet
  facet normal 2.631665e-13 -9.954076e-01 9.572685e-02
    outer loop
      vertex -7.496400e+01 -3.851508e+01 -4.281920e+02
      vertex -1.633640e+01 -3.570542e+01 -3.989759e+02
      vertex -1.890140e+02 -3.570542e+01 -3.989759e+02
    endloop
  endfacet
  facet normal 2.630709e-13 -9.954076e-01 9.572685e-02
    outer loop
      vertex -1.722050e+02 -3.851508e+01 -4.281920e+02
      vertex -7.496400e+01 -3.851508e+01 -4.281920e+02
      vertex -1.890140e+02 -3.570542e+01 -3.989759e+02
    endloop
  endfacet
  facet normal 2.628161e-13 -9.954076e-01 9.572685e-02
    outer loop
      vertex -1.722050e+02 -3.880227e+01 -4.311783e+02
      vertex -1.722050e+02 -3.851508e+01 -4.281920e+02
      vertex -1.890140e+02 -3.570542e+01 -3.989759e+02
    endloop
  endfacet
  facet normal -2.719622e-12 -8.827818e-02 -9.960959e-01
    outer loop
      vertex -1.605453e+01 -4.186233e+01 -4.638864e+02
      vertex -1.890140e+02 -4.194703e+01 -4.638789e+02
      vertex -1.890140e+02 -4.186233e+01 -4.638864e+02
    endloop
  endfacet
  facet normal 2.631122e-13 -9.954076e-01 9.572685e-02
    outer loop
      vertex -1.722050e+02 -3.880227e+01 -4.311783e+02
      vertex -1.890140e+02 -4.194703e+01 -4.638789e+02
      vertex -1.605453e+01 -4.194703e+01 -4.638789e+02
    endloop
  endfacet
  facet normal -2.718964e-12 -8.827818e-02 -9.960959e-01
    outer loop
      vertex -1.605453e+01 -4.186233e+01 -4.638864e+02
      vertex -1.605453e+01 -4.194703e+01 -4.638789e+02
      vertex -1.890140e+02 -4.194703e+01 -4.638789e+02
    endloop
  endfacet
  facet normal -1.000000e+00 9.900043e-15 2.715596e-12
    outer loop
      vertex -1.890140e+02 -4.111054e+01 -4.652078e+02
      vertex -1.890140e+02 -4.197267e+01 -4.651314e+02
      vertex -1.890140e+02 -4.186233e+01 -4.638864e+02
    endloop
  endfacet
  facet normal 2.735375e-13 -9.960959e-01 8.827818e-02
    outer loop
      vertex -1.887943e+02 -4.201949e+01 -4.656597e+02
      vertex -1.890140e+02 -4.186233e+01 -4.638864e+02
      vertex -1.890140e+02 -4.197267e+01 -4.651314e+02
    endloop
  endfacet
  facet normal -1.000000e+00 -2.231921e-13 2.582989e-12
    outer loop
      vertex -1.890140e+02 -3.889211e+01 -4.684162e+02
      vertex -1.890140e+02 -4.111054e+01 -4.652078e+02
      vertex -1.890140e+02 -4.186233e+01 -4.638864e+02
    endloop
  endfacet
  facet normal 2.428235e-13 -9.960959e-01 8.827818e-02
    outer loop
      vertex -1.715365e+01 -4.203888e+01 -4.658785e+02
      vertex -1.890140e+02 -4.186233e+01 -4.638864e+02
      vertex -1.882640e+02 -4.203888e+01 -4.658785e+02
    endloop
  endfacet
  facet normal 2.483703e-13 -9.960959e-01 8.827818e-02
    outer loop
      vertex -1.887943e+02 -4.201949e+01 -4.656597e+02
      vertex -1.882640e+02 -4.203888e+01 -4.658785e+02
      vertex -1.890140e+02 -4.186233e+01 -4.638864e+02
    endloop
  endfacet
  facet normal 2.427233e-13 -9.960959e-01 8.827818e-02
    outer loop
      vertex -1.669670e+01 -4.202516e+01 -4.657237e+02
      vertex -1.890140e+02 -4.186233e+01 -4.638864e+02
      vertex -1.715365e+01 -4.203888e+01 -4.658785e+02
    endloop
  endfacet
  facet normal 2.428378e-13 -9.960959e-01 8.827818e-02
    outer loop
      vertex -1.624348e+01 -4.192747e+01 -4.646214e+02
      vertex -1.890140e+02 -4.186233e+01 -4.638864e+02
      vertex -1.642893e+01 -4.198971e+01 -4.653238e+02
    endloop
  endfacet
  facet normal 2.427093e-13 -9.960959e-01 8.827818e-02
    outer loop
      vertex -1.669670e+01 -4.202516e+01 -4.657237e+02
      vertex -1.642893e+01 -4.198971e+01 -4.653238e+02
      vertex -1.890140e+02 -4.186233e+01 -4.638864e+02
    endloop
  endfacet
  facet normal 2.427977e-13 -9.960959e-01 8.827818e-02
    outer loop
      vertex -1.605453e+01 -4.186233e+01 -4.638864e+02
      vertex -1.890140e+02 -4.186233e+01 -4.638864e+02
      vertex -1.624348e+01 -4.192747e+01 -4.646214e+02
    endloop
  endfacet
  facet normal -9.238795e-01 -3.378260e-02 -3.811894e-01
    outer loop
      vertex -1.887943e+02 -4.115735e+01 -4.657361e+02
      vertex -1.890140e+02 -4.197267e+01 -4.651314e+02
      vertex -1.890140e+02 -4.111054e+01 -4.652078e+02
    endloop
  endfacet
  facet normal -9.238795e-01 -3.378260e-02 -3.811894e-01
    outer loop
      vertex -1.887943e+02 -4.201949e+01 -4.656597e+02
      vertex -1.890140e+02 -4.197267e+01 -4.651314e+02
      vertex -1.887943e+02 -4.115735e+01 -4.657361e+02
    endloop
  endfacet
  facet normal -1.000000e+00 2.387587e-15 2.738967e-12
    outer loop
      vertex -1.890140e+02 -3.889211e+01 -4.684162e+02
      vertex -1.890140e+02 -4.137537e+01 -4.681961e+02
      vertex -1.890140e+02 -4.111054e+01 -4.652078e+02
    endloop
  endfacet
  facet normal 2.123123e-13 -9.960959e-01 8.827818e-02
    outer loop
      vertex -1.887943e+02 -4.115735e+01 -4.657361e+02
      vertex -1.890140e+02 -4.111054e+01 -4.652078e+02
      vertex -1.890140e+02 -4.137537e+01 -4.681961e+02
    endloop
  endfacet
  facet normal -2.718878e-12 -8.827818e-02 -9.960959e-01
    outer loop
      vertex -1.721504e+01 -3.889211e+01 -4.684162e+02
      vertex -1.890140e+02 -4.137537e+01 -4.681961e+02
      vertex -1.890140e+02 -3.889211e+01 -4.684162e+02
    endloop
  endfacet
  facet normal -2.719533e-12 -8.827818e-02 -9.960959e-01
    outer loop
      vertex -1.721504e+01 -3.889211e+01 -4.684162e+02
      vertex -1.721504e+01 -4.137537e+01 -4.681961e+02
      vertex -1.890140e+02 -4.137537e+01 -4.681961e+02
    endloop
  endfacet
  facet normal 2.428433e-13 -9.960959e-01 8.827818e-02
    outer loop
      vertex -1.882640e+02 -4.117675e+01 -4.659549e+02
      vertex -1.890140e+02 -4.137537e+01 -4.681961e+02
      vertex -1.721504e+01 -4.137537e+01 -4.681961e+02
    endloop
  endfacet
  facet normal 2.359897e-13 -9.960959e-01 8.827818e-02
    outer loop
      vertex -1.887943e+02 -4.115735e+01 -4.657361e+02
      vertex -1.890140e+02 -4.137537e+01 -4.681961e+02
      vertex -1.882640e+02 -4.117675e+01 -4.659549e+02
    endloop
  endfacet
  facet normal -2.428719e-13 9.960959e-01 -8.827818e-02
    outer loop
      vertex -1.722050e+02 -3.535211e+01 -4.284723e+02
      vertex -1.890140e+02 -3.889211e+01 -4.684162e+02
      vertex -1.890140e+02 -3.219616e+01 -3.928619e+02
    endloop
  endfacet
  facet normal -2.427439e-13 9.960959e-01 -8.827818e-02
    outer loop
      vertex -7.496400e+01 -3.561694e+01 -4.314606e+02
      vertex -1.721504e+01 -3.889211e+01 -4.684162e+02
      vertex -1.890140e+02 -3.889211e+01 -4.684162e+02
    endloop
  endfacet
  facet normal -2.428107e-13 9.960959e-01 -8.827818e-02
    outer loop
      vertex -1.722050e+02 -3.561694e+01 -4.314606e+02
      vertex -7.496400e+01 -3.561694e+01 -4.314606e+02
      vertex -1.890140e+02 -3.889211e+01 -4.684162e+02
    endloop
  endfacet
  facet normal -2.342549e-13 9.960959e-01 -8.827818e-02
    outer loop
      vertex -1.722050e+02 -3.535211e+01 -4.284723e+02
      vertex -1.722050e+02 -3.561694e+01 -4.314606e+02
      vertex -1.890140e+02 -3.889211e+01 -4.684162e+02
    endloop
  endfacet
  facet normal 2.718948e-12 8.827818e-02 9.960959e-01
    outer loop
      vertex -1.179640e+02 -3.438757e+01 -3.926676e+02
      vertex -1.890140e+02 -3.219616e+01 -3.928619e+02
      vertex -1.890140e+02 -3.438757e+01 -3.926676e+02
    endloop
  endfacet
  facet normal 2.718948e-12 8.827818e-02 9.960959e-01
    outer loop
      vertex -1.179640e+02 -3.219616e+01 -3.928619e+02
      vertex -1.890140e+02 -3.219616e+01 -3.928619e+02
      vertex -1.179640e+02 -3.438757e+01 -3.926676e+02
    endloop
  endfacet
  facet normal -2.427726e-13 9.960959e-01 -8.827818e-02
    outer loop
      vertex -1.722050e+02 -3.535211e+01 -4.284723e+02
      vertex -1.890140e+02 -3.219616e+01 -3.928619e+02
      vertex -1.179640e+02 -3.219616e+01 -3.928619e+02
    endloop
  endfacet
  facet normal 2.125448e-13 -9.960959e-01 8.827818e-02
    outer loop
      vertex -1.887943e+02 -3.453591e+01 -3.943414e+02
      vertex -1.890140e+02 -3.438757e+01 -3.926676e+02
      vertex -1.890140e+02 -3.448909e+01 -3.938132e+02
    endloop
  endfacet
  facet normal 2.427717e-13 -9.960959e-01 8.827818e-02
    outer loop
      vertex -1.179640e+02 -3.438757e+01 -3.926676e+02
      vertex -1.890140e+02 -3.438757e+01 -3.926676e+02
      vertex -1.882640e+02 -3.455530e+01 -3.945602e+02
    endloop
  endfacet
  facet normal 2.690106e-13 -9.960959e-01 8.827818e-02
    outer loop
      vertex -1.887943e+02 -3.453591e+01 -3.943414e+02
      vertex -1.882640e+02 -3.455530e+01 -3.945602e+02
      vertex -1.890140e+02 -3.438757e+01 -3.926676e+02
    endloop
  endfacet
  facet normal -9.238795e-01 -3.378260e-02 -3.811894e-01
    outer loop
      vertex -1.887943e+02 -3.453591e+01 -3.943414e+02
      vertex -1.890140e+02 -3.448909e+01 -3.938132e+02
      vertex -1.887943e+02 -3.336649e+01 -3.944451e+02
    endloop
  endfacet
  facet normal 9.696075e-01 -2.159865e-02 -2.437106e-01
    outer loop
      vertex -1.504549e+01 -3.813310e+01 -4.598519e+02
      vertex -1.721504e+01 -4.137537e+01 -4.681961e+02
      vertex -1.721504e+01 -3.889211e+01 -4.684162e+02
    endloop
  endfacet
  facet normal 2.427822e-13 -9.960959e-01 8.827818e-02
    outer loop
      vertex -1.715365e+01 -4.117675e+01 -4.659549e+02
      vertex -1.882640e+02 -4.117675e+01 -4.659549e+02
      vertex -1.721504e+01 -4.137537e+01 -4.681961e+02
    endloop
  endfacet
  facet normal 2.441409e-13 -9.960959e-01 8.827818e-02
    outer loop
      vertex -1.683246e+01 -4.125780e+01 -4.668694e+02
      vertex -1.715365e+01 -4.117675e+01 -4.659549e+02
      vertex -1.721504e+01 -4.137537e+01 -4.681961e+02
    endloop
  endfacet
  facet normal 9.547637e-01 9.028957e-02 -2.833269e-01
    outer loop
      vertex -1.504549e+01 -3.813310e+01 -4.598519e+02
      vertex -1.683246e+01 -4.125780e+01 -4.668694e+02
      vertex -1.721504e+01 -4.137537e+01 -4.681961e+02
    endloop
  endfacet
  facet normal -2.423593e-13 9.960959e-01 -8.827818e-02
    outer loop
      vertex -1.569654e+01 -3.303563e+01 -4.023341e+02
      vertex -1.504549e+01 -3.813310e+01 -4.598519e+02
      vertex -1.721504e+01 -3.889211e+01 -4.684162e+02
    endloop
  endfacet
  facet normal -2.436377e-13 9.960959e-01 -8.827818e-02
    outer loop
      vertex -1.753371e+01 -3.229327e+01 -3.939576e+02
      vertex -1.569654e+01 -3.303563e+01 -4.023341e+02
      vertex -1.721504e+01 -3.889211e+01 -4.684162e+02
    endloop
  endfacet
  facet normal -2.428291e-13 9.960959e-01 -8.827818e-02
    outer loop
      vertex -7.496400e+01 -3.561694e+01 -4.314606e+02
      vertex -1.753371e+01 -3.229327e+01 -3.939576e+02
      vertex -1.721504e+01 -3.889211e+01 -4.684162e+02
    endloop
  endfacet
  facet normal -2.719230e-12 -8.827818e-02 -9.960959e-01
    outer loop
      vertex -1.882640e+02 -4.203888e+01 -4.658785e+02
      vertex -1.882640e+02 -4.117675e+01 -4.659549e+02
      vertex -1.715365e+01 -4.117675e+01 -4.659549e+02
    endloop
  endfacet
  facet normal -3.826834e-01 -8.155840e-02 -9.202726e-01
    outer loop
      vertex -1.887943e+02 -4.201949e+01 -4.656597e+02
      vertex -1.887943e+02 -4.115735e+01 -4.657361e+02
      vertex -1.882640e+02 -4.117675e+01 -4.659549e+02
    endloop
  endfacet
  facet normal -3.826834e-01 -8.155840e-02 -9.202726e-01
    outer loop
      vertex -1.887943e+02 -4.201949e+01 -4.656597e+02
      vertex -1.882640e+02 -4.117675e+01 -4.659549e+02
      vertex -1.882640e+02 -4.203888e+01 -4.658785e+02
    endloop
  endfacet
  facet normal 2.433314e-13 -9.960959e-01 8.827818e-02
    outer loop
      vertex -1.683246e+01 -4.125780e+01 -4.668694e+02
      vertex -1.669670e+01 -4.116303e+01 -4.658001e+02
      vertex -1.715365e+01 -4.117675e+01 -4.659549e+02
    endloop
  endfacet
  facet normal 3.219341e-01 -8.357843e-02 -9.430658e-01
    outer loop
      vertex -1.715365e+01 -4.203888e+01 -4.658785e+02
      vertex -1.715365e+01 -4.117675e+01 -4.659549e+02
      vertex -1.669670e+01 -4.116303e+01 -4.658001e+02
    endloop
  endfacet
  facet normal -2.719227e-12 -8.827818e-02 -9.960959e-01
    outer loop
      vertex -1.715365e+01 -4.203888e+01 -4.658785e+02
      vertex -1.882640e+02 -4.203888e+01 -4.658785e+02
      vertex -1.715365e+01 -4.117675e+01 -4.659549e+02
    endloop
  endfacet
  facet normal 3.030118e-13 -9.960959e-01 8.827818e-02
    outer loop
      vertex -1.683246e+01 -4.125780e+01 -4.668694e+02
      vertex -1.642893e+01 -4.112758e+01 -4.654002e+02
      vertex -1.669670e+01 -4.116303e+01 -4.658001e+02
    endloop
  endfacet
  facet normal 8.319805e-01 -4.897717e-02 -5.526389e-01
    outer loop
      vertex -1.669670e+01 -4.202516e+01 -4.657237e+02
      vertex -1.669670e+01 -4.116303e+01 -4.658001e+02
      vertex -1.642893e+01 -4.112758e+01 -4.654002e+02
    endloop
  endfacet
  facet normal 3.219341e-01 -8.357843e-02 -9.430658e-01
    outer loop
      vertex -1.669670e+01 -4.202516e+01 -4.657237e+02
      vertex -1.715365e+01 -4.203888e+01 -4.658785e+02
      vertex -1.669670e+01 -4.116303e+01 -4.658001e+02
    endloop
  endfacet
  facet normal 9.616570e-01 5.394248e-02 -2.688980e-01
    outer loop
      vertex -1.504549e+01 -3.813310e+01 -4.598519e+02
      vertex -1.642893e+01 -4.112758e+01 -4.654002e+02
      vertex -1.683246e+01 -4.125780e+01 -4.668694e+02
    endloop
  endfacet
  facet normal 9.726305e-01 -2.051207e-02 -2.314500e-01
    outer loop
      vertex -1.642893e+01 -4.198971e+01 -4.653238e+02
      vertex -1.642893e+01 -4.112758e+01 -4.654002e+02
      vertex -1.504549e+01 -3.813310e+01 -4.598519e+02
    endloop
  endfacet
  facet normal 8.319805e-01 -4.897717e-02 -5.526389e-01
    outer loop
      vertex -1.669670e+01 -4.202516e+01 -4.657237e+02
      vertex -1.642893e+01 -4.112758e+01 -4.654002e+02
      vertex -1.642893e+01 -4.198971e+01 -4.653238e+02
    endloop
  endfacet
  facet normal 2.612435e-13 -9.954076e-01 9.572685e-02
    outer loop
      vertex -1.605453e+01 -4.194703e+01 -4.638789e+02
      vertex -1.409376e+01 -3.688983e+01 -4.112920e+02
      vertex -1.633640e+01 -3.570542e+01 -3.989759e+02
    endloop
  endfacet
  facet normal 9.839665e-01 1.574471e-02 1.776570e-01
    outer loop
      vertex -1.633640e+01 -3.560581e+01 -3.989848e+02
      vertex -1.633640e+01 -3.570542e+01 -3.989759e+02
      vertex -1.409376e+01 -3.688983e+01 -4.112920e+02
    endloop
  endfacet
  facet normal 2.631418e-13 -9.954076e-01 9.572685e-02
    outer loop
      vertex -7.346400e+01 -3.865867e+01 -4.296851e+02
      vertex -1.605453e+01 -4.194703e+01 -4.638789e+02
      vertex -1.633640e+01 -3.570542e+01 -3.989759e+02
    endloop
  endfacet
  facet normal 2.653025e-13 -9.954076e-01 9.572685e-02
    outer loop
      vertex -7.346400e+01 -3.865867e+01 -4.296851e+02
      vertex -1.633640e+01 -3.570542e+01 -3.989759e+02
      vertex -7.496400e+01 -3.851508e+01 -4.281920e+02
    endloop
  endfacet
  facet normal 2.678092e-13 -9.954076e-01 9.572685e-02
    outer loop
      vertex -1.284400e+01 -4.008563e+01 -4.445232e+02
      vertex -1.284400e+01 -3.794366e+01 -4.222502e+02
      vertex -1.409376e+01 -3.688983e+01 -4.112920e+02
    endloop
  endfacet
  facet normal 9.931466e-01 -1.985533e-02 1.151760e-01
    outer loop
      vertex -1.343491e+01 -3.429334e+01 -4.165255e+02
      vertex -1.409376e+01 -3.688983e+01 -4.112920e+02
      vertex -1.284400e+01 -3.794366e+01 -4.222502e+02
    endloop
  endfacet
  facet normal 2.670165e-13 -9.954076e-01 9.572685e-02
    outer loop
      vertex -1.408146e+01 -4.104264e+01 -4.544746e+02
      vertex -1.284400e+01 -4.008563e+01 -4.445232e+02
      vertex -1.409376e+01 -3.688983e+01 -4.112920e+02
    endloop
  endfacet
  facet normal 2.666040e-13 -9.954076e-01 9.572685e-02
    outer loop
      vertex -1.605453e+01 -4.194703e+01 -4.638789e+02
      vertex -1.408146e+01 -4.104264e+01 -4.544746e+02
      vertex -1.409376e+01 -3.688983e+01 -4.112920e+02
    endloop
  endfacet
  facet normal 9.906506e-01 2.048632e-02 1.348763e-01
    outer loop
      vertex -1.435975e+01 -3.369932e+01 -4.098229e+02
      vertex -1.409376e+01 -3.688983e+01 -4.112920e+02
      vertex -1.343491e+01 -3.429334e+01 -4.165255e+02
    endloop
  endfacet
  facet normal 9.844568e-01 1.208115e-03 1.756230e-01
    outer loop
      vertex -1.569654e+01 -3.303563e+01 -4.023341e+02
      vertex -1.409376e+01 -3.688983e+01 -4.112920e+02
      vertex -1.435975e+01 -3.369932e+01 -4.098229e+02
    endloop
  endfacet
  facet normal 9.835677e-01 -9.950965e-03 1.802652e-01
    outer loop
      vertex -1.633640e+01 -3.560581e+01 -3.989848e+02
      vertex -1.409376e+01 -3.688983e+01 -4.112920e+02
      vertex -1.569654e+01 -3.303563e+01 -4.023341e+02
    endloop
  endfacet
  facet normal 7.071068e-01 -7.038595e-01 6.768910e-02
    outer loop
      vertex -1.239406e+01 -3.859335e+01 -4.337061e+02
      vertex -1.284400e+01 -3.794366e+01 -4.222502e+02
      vertex -1.284400e+01 -4.008563e+01 -4.445232e+02
    endloop
  endfacet
  facet normal 9.952242e-01 8.617347e-03 9.723472e-02
    outer loop
      vertex -1.343491e+01 -3.429334e+01 -4.165255e+02
      vertex -1.284400e+01 -3.794366e+01 -4.222502e+02
      vertex -1.284400e+01 -3.482517e+01 -4.225265e+02
    endloop
  endfacet
  facet normal 9.992313e-01 3.460691e-03 3.904906e-02
    outer loop
      vertex -1.239406e+01 -3.859335e+01 -4.337061e+02
      vertex -1.284400e+01 -3.482517e+01 -4.225265e+02
      vertex -1.284400e+01 -3.794366e+01 -4.222502e+02
    endloop
  endfacet
  facet normal 9.924259e-01 -1.084453e-02 -1.223653e-01
    outer loop
      vertex -1.284400e+01 -3.680041e+01 -4.448144e+02
      vertex -1.284400e+01 -4.008563e+01 -4.445232e+02
      vertex -1.408146e+01 -4.104264e+01 -4.544746e+02
    endloop
  endfacet
  facet normal 9.991500e-01 -3.639116e-03 -4.106234e-02
    outer loop
      vertex -1.239406e+01 -3.628588e+01 -4.339118e+02
      vertex -1.284400e+01 -4.008563e+01 -4.445232e+02
      vertex -1.284400e+01 -3.680041e+01 -4.448144e+02
    endloop
  endfacet
  facet normal 9.991502e-01 -3.659082e-03 -4.105520e-02
    outer loop
      vertex -1.239406e+01 -3.628588e+01 -4.339118e+02
      vertex -1.239406e+01 -3.859335e+01 -4.337061e+02
      vertex -1.284400e+01 -4.008563e+01 -4.445232e+02
    endloop
  endfacet
  facet normal 9.785122e-01 -4.687449e-02 -2.007903e-01
    outer loop
      vertex -1.504549e+01 -3.813310e+01 -4.598519e+02
      vertex -1.408146e+01 -4.104264e+01 -4.544746e+02
      vertex -1.605453e+01 -4.194703e+01 -4.638789e+02
    endloop
  endfacet
  facet normal 9.836397e-01 -6.787882e-03 -1.800193e-01
    outer loop
      vertex -1.386633e+01 -3.756399e+01 -4.534303e+02
      vertex -1.408146e+01 -4.104264e+01 -4.544746e+02
      vertex -1.504549e+01 -3.813310e+01 -4.598519e+02
    endloop
  endfacet
  facet normal 9.929532e-01 -2.674864e-02 -1.154487e-01
    outer loop
      vertex -1.284400e+01 -3.680041e+01 -4.448144e+02
      vertex -1.408146e+01 -4.104264e+01 -4.544746e+02
      vertex -1.386633e+01 -3.756399e+01 -4.534303e+02
    endloop
  endfacet
  facet normal 2.630709e-13 -9.954076e-01 9.572685e-02
    outer loop
      vertex -7.496400e+01 -3.880227e+01 -4.311783e+02
      vertex -1.722050e+02 -3.880227e+01 -4.311783e+02
      vertex -1.605453e+01 -4.194703e+01 -4.638789e+02
    endloop
  endfacet
  facet normal 2.652716e-13 -9.954076e-01 9.572685e-02
    outer loop
      vertex -7.346400e+01 -3.865867e+01 -4.296851e+02
      vertex -7.496400e+01 -3.880227e+01 -4.311783e+02
      vertex -1.605453e+01 -4.194703e+01 -4.638789e+02
    endloop
  endfacet
  facet normal 9.741124e-01 -1.995654e-02 -2.251817e-01
    outer loop
      vertex -1.605453e+01 -4.186233e+01 -4.638864e+02
      vertex -1.504549e+01 -3.813310e+01 -4.598519e+02
      vertex -1.605453e+01 -4.194703e+01 -4.638789e+02
    endloop
  endfacet
  facet normal -2.719093e-12 -8.827818e-02 -9.960959e-01
    outer loop
      vertex -7.496400e+01 -3.535211e+01 -4.284723e+02
      vertex -7.496400e+01 -3.851508e+01 -4.281920e+02
      vertex -1.722050e+02 -3.851508e+01 -4.281920e+02
    endloop
  endfacet
  facet normal -7.071068e-01 -6.242211e-02 -7.043461e-01
    outer loop
      vertex -7.346400e+01 -3.548453e+01 -4.299664e+02
      vertex -7.346400e+01 -3.865867e+01 -4.296851e+02
      vertex -7.496400e+01 -3.851508e+01 -4.281920e+02
    endloop
  endfacet
  facet normal -7.071068e-01 -6.242210e-02 -7.043461e-01
    outer loop
      vertex -7.346400e+01 -3.548453e+01 -4.299664e+02
      vertex -7.496400e+01 -3.851508e+01 -4.281920e+02
      vertex -7.496400e+01 -3.535211e+01 -4.284723e+02
    endloop
  endfacet
  facet normal 1.000000e+00 -9.999514e-15 -2.730516e-12
    outer loop
      vertex -1.722050e+02 -3.561694e+01 -4.314606e+02
      vertex -1.722050e+02 -3.851508e+01 -4.281920e+02
      vertex -1.722050e+02 -3.880227e+01 -4.311783e+02
    endloop
  endfacet
  facet normal -2.719093e-12 -8.827818e-02 -9.960959e-01
    outer loop
      vertex -1.722050e+02 -3.535211e+01 -4.284723e+02
      vertex -7.496400e+01 -3.535211e+01 -4.284723e+02
      vertex -1.722050e+02 -3.851508e+01 -4.281920e+02
    endloop
  endfacet
  facet normal 1.000000e+00 1.531959e-15 -2.720292e-12
    outer loop
      vertex -1.722050e+02 -3.535211e+01 -4.284723e+02
      vertex -1.722050e+02 -3.851508e+01 -4.281920e+02
      vertex -1.722050e+02 -3.561694e+01 -4.314606e+02
    endloop
  endfacet
  facet normal 2.719093e-12 8.827818e-02 9.960959e-01
    outer loop
      vertex -1.722050e+02 -3.561694e+01 -4.314606e+02
      vertex -1.722050e+02 -3.880227e+01 -4.311783e+02
      vertex -7.496400e+01 -3.880227e+01 -4.311783e+02
    endloop
  endfacet
  facet normal -7.071068e-01 6.242210e-02 7.043461e-01
    outer loop
      vertex -7.496400e+01 -3.561694e+01 -4.314606e+02
      vertex -7.496400e+01 -3.880227e+01 -4.311783e+02
      vertex -7.346400e+01 -3.865867e+01 -4.296851e+02
    endloop
  endfacet
  facet normal 2.719087e-12 8.827818e-02 9.960959e-01
    outer loop
      vertex -1.722050e+02 -3.561694e+01 -4.314606e+02
      vertex -7.496400e+01 -3.880227e+01 -4.311783e+02
      vertex -7.496400e+01 -3.561694e+01 -4.314606e+02
    endloop
  endfacet
  facet normal -7.071068e-01 6.242211e-02 7.043461e-01
    outer loop
      vertex -7.496400e+01 -3.561694e+01 -4.314606e+02
      vertex -7.346400e+01 -3.865867e+01 -4.296851e+02
      vertex -7.346400e+01 -3.548453e+01 -4.299664e+02
    endloop
  endfacet
  facet normal 2.719431e-12 8.827818e-02 9.960959e-01
    outer loop
      vertex -1.882640e+02 -3.360658e+01 -3.971541e+02
      vertex -1.882640e+02 -3.542925e+01 -3.969926e+02
      vertex -1.737468e+01 -3.542925e+01 -3.969926e+02
    endloop
  endfacet
  facet normal 2.428440e-13 -9.960959e-01 8.827818e-02
    outer loop
      vertex -1.633640e+01 -3.560581e+01 -3.989848e+02
      vertex -1.737468e+01 -3.542925e+01 -3.969926e+02
      vertex -1.882640e+02 -3.542925e+01 -3.969926e+02
    endloop
  endfacet
  facet normal 2.719434e-12 8.827818e-02 9.960959e-01
    outer loop
      vertex -1.737468e+01 -3.360658e+01 -3.971541e+02
      vertex -1.882640e+02 -3.360658e+01 -3.971541e+02
      vertex -1.737468e+01 -3.542925e+01 -3.969926e+02
    endloop
  endfacet
  facet normal 3.321065e-01 8.326767e-02 9.395593e-01
    outer loop
      vertex -1.690480e+01 -3.544386e+01 -3.971574e+02
      vertex -1.737468e+01 -3.360658e+01 -3.971541e+02
      vertex -1.737468e+01 -3.542925e+01 -3.969926e+02
    endloop
  endfacet
  facet normal 2.396964e-13 -9.960959e-01 8.827818e-02
    outer loop
      vertex -1.690480e+01 -3.544386e+01 -3.971574e+02
      vertex -1.737468e+01 -3.542925e+01 -3.969926e+02
      vertex -1.633640e+01 -3.560581e+01 -3.989848e+02
    endloop
  endfacet
  facet normal -3.826834e-01 8.155840e-02 9.202726e-01
    outer loop
      vertex -1.887943e+02 -3.362597e+01 -3.973729e+02
      vertex -1.882640e+02 -3.542925e+01 -3.969926e+02
      vertex -1.882640e+02 -3.360658e+01 -3.971541e+02
    endloop
  endfacet
  facet normal -3.826834e-01 8.155840e-02 9.202726e-01
    outer loop
      vertex -1.887943e+02 -3.544864e+01 -3.972114e+02
      vertex -1.882640e+02 -3.542925e+01 -3.969926e+02
      vertex -1.887943e+02 -3.362597e+01 -3.973729e+02
    endloop
  endfacet
  facet normal 2.426298e-13 -9.960959e-01 8.827818e-02
    outer loop
      vertex -1.887943e+02 -3.544864e+01 -3.972114e+02
      vertex -1.633640e+01 -3.560581e+01 -3.989848e+02
      vertex -1.882640e+02 -3.542925e+01 -3.969926e+02
    endloop
  endfacet
  facet normal 2.428026e-13 -9.960959e-01 8.827818e-02
    outer loop
      vertex -1.882640e+02 -3.338589e+01 -3.946639e+02
      vertex -1.882640e+02 -3.360658e+01 -3.971541e+02
      vertex -1.737468e+01 -3.360658e+01 -3.971541e+02
    endloop
  endfacet
  facet normal 2.523395e-13 -9.960959e-01 8.827818e-02
    outer loop
      vertex -1.887943e+02 -3.336649e+01 -3.944451e+02
      vertex -1.887943e+02 -3.362597e+01 -3.973729e+02
      vertex -1.882640e+02 -3.360658e+01 -3.971541e+02
    endloop
  endfacet
  facet normal 2.325098e-13 -9.960959e-01 8.827818e-02
    outer loop
      vertex -1.882640e+02 -3.338589e+01 -3.946639e+02
      vertex -1.887943e+02 -3.336649e+01 -3.944451e+02
      vertex -1.882640e+02 -3.360658e+01 -3.971541e+02
    endloop
  endfacet
  facet normal 2.428587e-13 -9.960959e-01 8.827818e-02
    outer loop
      vertex -1.828205e+01 -3.338589e+01 -3.946639e+02
      vertex -1.882640e+02 -3.338589e+01 -3.946639e+02
      vertex -1.737468e+01 -3.360658e+01 -3.971541e+02
    endloop
  endfacet
  facet normal 2.330112e-13 -9.960959e-01 8.827818e-02
    outer loop
      vertex -1.773436e+01 -3.336490e+01 -3.944271e+02
      vertex -1.828205e+01 -3.338589e+01 -3.946639e+02
      vertex -1.737468e+01 -3.360658e+01 -3.971541e+02
    endloop
  endfacet
  facet normal 2.740988e-13 -9.960959e-01 8.827818e-02
    outer loop
      vertex -1.753371e+01 -3.331526e+01 -3.938670e+02
      vertex -1.773436e+01 -3.336490e+01 -3.944271e+02
      vertex -1.737468e+01 -3.360658e+01 -3.971541e+02
    endloop
  endfacet
  facet normal 2.198478e-13 -9.960959e-01 8.827818e-02
    outer loop
      vertex -1.707612e+01 -3.348808e+01 -3.958170e+02
      vertex -1.753371e+01 -3.331526e+01 -3.938670e+02
      vertex -1.737468e+01 -3.360658e+01 -3.971541e+02
    endloop
  endfacet
  facet normal 2.353794e-13 -9.960959e-01 8.827818e-02
    outer loop
      vertex -1.690480e+01 -3.362119e+01 -3.973189e+02
      vertex -1.707612e+01 -3.348808e+01 -3.958170e+02
      vertex -1.737468e+01 -3.360658e+01 -3.971541e+02
    endloop
  endfacet
  facet normal 3.321065e-01 8.326767e-02 9.395593e-01
    outer loop
      vertex -1.690480e+01 -3.544386e+01 -3.971574e+02
      vertex -1.690480e+01 -3.362119e+01 -3.973189e+02
      vertex -1.737468e+01 -3.360658e+01 -3.971541e+02
    endloop
  endfacet
  facet normal -3.826834e-01 -8.155840e-02 -9.202726e-01
    outer loop
      vertex -1.887943e+02 -3.453591e+01 -3.943414e+02
      vertex -1.887943e+02 -3.336649e+01 -3.944451e+02
      vertex -1.882640e+02 -3.338589e+01 -3.946639e+02
    endloop
  endfacet
  facet normal -2.719960e-12 -8.827818e-02 -9.960959e-01
    outer loop
      vertex -1.882640e+02 -3.455530e+01 -3.945602e+02
      vertex -1.882640e+02 -3.338589e+01 -3.946639e+02
      vertex -1.828205e+01 -3.338589e+01 -3.946639e+02
    endloop
  endfacet
  facet normal -3.826834e-01 -8.155840e-02 -9.202726e-01
    outer loop
      vertex -1.887943e+02 -3.453591e+01 -3.943414e+02
      vertex -1.882640e+02 -3.338589e+01 -3.946639e+02
      vertex -1.882640e+02 -3.455530e+01 -3.945602e+02
    endloop
  endfacet
  facet normal 3.981128e-01 -8.098079e-02 -9.137551e-01
    outer loop
      vertex -1.828205e+01 -3.455530e+01 -3.945602e+02
      vertex -1.828205e+01 -3.338589e+01 -3.946639e+02
      vertex -1.773436e+01 -3.336490e+01 -3.944271e+02
    endloop
  endfacet
  facet normal -2.719294e-12 -8.827818e-02 -9.960959e-01
    outer loop
      vertex -1.828205e+01 -3.455530e+01 -3.945602e+02
      vertex -1.882640e+02 -3.455530e+01 -3.945602e+02
      vertex -1.828205e+01 -3.338589e+01 -3.946639e+02
    endloop
  endfacet
  facet normal 9.418365e-01 -2.966776e-02 -3.347593e-01
    outer loop
      vertex -1.773436e+01 -3.453432e+01 -3.943235e+02
      vertex -1.773436e+01 -3.336490e+01 -3.944271e+02
      vertex -1.753371e+01 -3.331526e+01 -3.938670e+02
    endloop
  endfacet
  facet normal 3.981128e-01 -8.098079e-02 -9.137551e-01
    outer loop
      vertex -1.773436e+01 -3.453432e+01 -3.943235e+02
      vertex -1.828205e+01 -3.455530e+01 -3.945602e+02
      vertex -1.773436e+01 -3.336490e+01 -3.944271e+02
    endloop
  endfacet
  facet normal 9.737517e-01 2.009326e-02 2.267243e-01
    outer loop
      vertex -1.753371e+01 -3.229327e+01 -3.939576e+02
      vertex -1.753371e+01 -3.331526e+01 -3.938670e+02
      vertex -1.707612e+01 -3.348808e+01 -3.958170e+02
    endloop
  endfacet
  facet normal 9.418365e-01 -2.966776e-02 -3.347593e-01
    outer loop
      vertex -1.773436e+01 -3.453432e+01 -3.943235e+02
      vertex -1.753371e+01 -3.331526e+01 -3.938670e+02
      vertex -1.753371e+01 -3.448468e+01 -3.937634e+02
    endloop
  endfacet
  facet normal 2.721787e-12 8.827818e-02 9.960959e-01
    outer loop
      vertex -1.178140e+02 -3.229327e+01 -3.939576e+02
      vertex -1.753371e+01 -3.448468e+01 -3.937634e+02
      vertex -1.753371e+01 -3.331526e+01 -3.938670e+02
    endloop
  endfacet
  facet normal 2.719107e-12 8.827818e-02 9.960959e-01
    outer loop
      vertex -1.178140e+02 -3.229327e+01 -3.939576e+02
      vertex -1.753371e+01 -3.331526e+01 -3.938670e+02
      vertex -1.753371e+01 -3.229327e+01 -3.939576e+02
    endloop
  endfacet
  facet normal 1.956388e-13 -9.960959e-01 8.827818e-02
    outer loop
      vertex -1.690480e+01 -3.362119e+01 -3.973189e+02
      vertex -1.664222e+01 -3.365856e+01 -3.977406e+02
      vertex -1.707612e+01 -3.348808e+01 -3.958170e+02
    endloop
  endfacet
  facet normal 9.755363e-01 3.614978e-02 2.168460e-01
    outer loop
      vertex -1.753371e+01 -3.229327e+01 -3.939576e+02
      vertex -1.707612e+01 -3.348808e+01 -3.958170e+02
      vertex -1.664222e+01 -3.365856e+01 -3.977406e+02
    endloop
  endfacet
  facet normal 8.498012e-01 4.653172e-02 5.250455e-01
    outer loop
      vertex -1.664222e+01 -3.548123e+01 -3.975791e+02
      vertex -1.664222e+01 -3.365856e+01 -3.977406e+02
      vertex -1.690480e+01 -3.362119e+01 -3.973189e+02
    endloop
  endfacet
  facet normal 9.761800e-01 5.855957e-02 2.089100e-01
    outer loop
      vertex -1.753371e+01 -3.229327e+01 -3.939576e+02
      vertex -1.664222e+01 -3.365856e+01 -3.977406e+02
      vertex -1.569654e+01 -3.303563e+01 -4.023341e+02
    endloop
  endfacet
  facet normal 9.785805e-01 2.297449e-02 2.045785e-01
    outer loop
      vertex -1.633640e+01 -3.560581e+01 -3.989848e+02
      vertex -1.569654e+01 -3.303563e+01 -4.023341e+02
      vertex -1.664222e+01 -3.365856e+01 -3.977406e+02
    endloop
  endfacet
  facet normal 9.776596e-01 1.984115e-02 2.092561e-01
    outer loop
      vertex -1.648744e+01 -3.554379e+01 -3.982850e+02
      vertex -1.633640e+01 -3.560581e+01 -3.989848e+02
      vertex -1.664222e+01 -3.365856e+01 -3.977406e+02
    endloop
  endfacet
  facet normal 9.769707e-01 1.883621e-02 2.125403e-01
    outer loop
      vertex -1.664222e+01 -3.548123e+01 -3.975791e+02
      vertex -1.648744e+01 -3.554379e+01 -3.982850e+02
      vertex -1.664222e+01 -3.365856e+01 -3.977406e+02
    endloop
  endfacet
  facet normal 8.498012e-01 4.653172e-02 5.250455e-01
    outer loop
      vertex -1.690480e+01 -3.544386e+01 -3.971574e+02
      vertex -1.664222e+01 -3.548123e+01 -3.975791e+02
      vertex -1.690480e+01 -3.362119e+01 -3.973189e+02
    endloop
  endfacet
  facet normal 2.427997e-13 -9.960959e-01 8.827818e-02
    outer loop
      vertex -1.178140e+02 -3.448468e+01 -3.937634e+02
      vertex -1.882640e+02 -3.455530e+01 -3.945602e+02
      vertex -1.828205e+01 -3.455530e+01 -3.945602e+02
    endloop
  endfacet
  facet normal 2.429369e-13 -9.960959e-01 8.827818e-02
    outer loop
      vertex -1.179140e+02 -3.447585e+01 -3.936637e+02
      vertex -1.179640e+02 -3.438757e+01 -3.926676e+02
      vertex -1.882640e+02 -3.455530e+01 -3.945602e+02
    endloop
  endfacet
  facet normal 2.417204e-13 -9.960959e-01 8.827818e-02
    outer loop
      vertex -1.178847e+02 -3.448209e+01 -3.937342e+02
      vertex -1.179140e+02 -3.447585e+01 -3.936637e+02
      vertex -1.882640e+02 -3.455530e+01 -3.945602e+02
    endloop
  endfacet
  facet normal 2.446378e-13 -9.960959e-01 8.827818e-02
    outer loop
      vertex -1.178140e+02 -3.448468e+01 -3.937634e+02
      vertex -1.178847e+02 -3.448209e+01 -3.937342e+02
      vertex -1.882640e+02 -3.455530e+01 -3.945602e+02
    endloop
  endfacet
  facet normal 2.428343e-13 -9.960959e-01 8.827818e-02
    outer loop
      vertex -1.773436e+01 -3.453432e+01 -3.943235e+02
      vertex -1.178140e+02 -3.448468e+01 -3.937634e+02
      vertex -1.828205e+01 -3.455530e+01 -3.945602e+02
    endloop
  endfacet
  facet normal 4.624955e-13 -9.960959e-01 8.827818e-02
    outer loop
      vertex -1.179140e+02 -3.447585e+01 -3.936637e+02
      vertex -1.179140e+02 -3.439199e+01 -3.927175e+02
      vertex -1.179640e+02 -3.438757e+01 -3.926676e+02
    endloop
  endfacet
  facet normal 7.071068e-01 6.242210e-02 7.043461e-01
    outer loop
      vertex -1.179140e+02 -3.220058e+01 -3.929117e+02
      vertex -1.179640e+02 -3.438757e+01 -3.926676e+02
      vertex -1.179140e+02 -3.439199e+01 -3.927175e+02
    endloop
  endfacet
  facet normal 7.071068e-01 6.242210e-02 7.043461e-01
    outer loop
      vertex -1.179140e+02 -3.220058e+01 -3.929117e+02
      vertex -1.179640e+02 -3.219616e+01 -3.928619e+02
      vertex -1.179640e+02 -3.438757e+01 -3.926676e+02
    endloop
  endfacet
  facet normal 1.000000e+00 -2.269741e-15 -2.732970e-12
    outer loop
      vertex -1.179140e+02 -3.228444e+01 -3.938580e+02
      vertex -1.179140e+02 -3.439199e+01 -3.927175e+02
      vertex -1.179140e+02 -3.447585e+01 -3.936637e+02
    endloop
  endfacet
  facet normal 1.000000e+00 5.485055e-15 -2.718640e-12
    outer loop
      vertex -1.179140e+02 -3.220058e+01 -3.929117e+02
      vertex -1.179140e+02 -3.439199e+01 -3.927175e+02
      vertex -1.179140e+02 -3.228444e+01 -3.938580e+02
    endloop
  endfacet
  facet normal 9.238795e-01 3.378260e-02 3.811894e-01
    outer loop
      vertex -1.179140e+02 -3.228444e+01 -3.938580e+02
      vertex -1.179140e+02 -3.447585e+01 -3.936637e+02
      vertex -1.178847e+02 -3.448209e+01 -3.937342e+02
    endloop
  endfacet
  facet normal 3.826834e-01 8.155840e-02 9.202726e-01
    outer loop
      vertex -1.178847e+02 -3.229068e+01 -3.939284e+02
      vertex -1.178847e+02 -3.448209e+01 -3.937342e+02
      vertex -1.178140e+02 -3.448468e+01 -3.937634e+02
    endloop
  endfacet
  facet normal 9.238795e-01 3.378260e-02 3.811894e-01
    outer loop
      vertex -1.179140e+02 -3.228444e+01 -3.938580e+02
      vertex -1.178847e+02 -3.448209e+01 -3.937342e+02
      vertex -1.178847e+02 -3.229068e+01 -3.939284e+02
    endloop
  endfacet
  facet normal 2.427575e-13 -9.960959e-01 8.827818e-02
    outer loop
      vertex -1.773436e+01 -3.453432e+01 -3.943235e+02
      vertex -1.753371e+01 -3.448468e+01 -3.937634e+02
      vertex -1.178140e+02 -3.448468e+01 -3.937634e+02
    endloop
  endfacet
  facet normal 2.719113e-12 8.827818e-02 9.960959e-01
    outer loop
      vertex -1.178140e+02 -3.229327e+01 -3.939576e+02
      vertex -1.178140e+02 -3.448468e+01 -3.937634e+02
      vertex -1.753371e+01 -3.448468e+01 -3.937634e+02
    endloop
  endfacet
  facet normal 3.826834e-01 8.155840e-02 9.202726e-01
    outer loop
      vertex -1.178847e+02 -3.229068e+01 -3.939284e+02
      vertex -1.178140e+02 -3.448468e+01 -3.937634e+02
      vertex -1.178140e+02 -3.229327e+01 -3.939576e+02
    endloop
  endfacet
  facet normal -3.063535e-13 9.960959e-01 -8.827818e-02
    outer loop
      vertex -1.722050e+02 -3.535211e+01 -4.284723e+02
      vertex -1.179640e+02 -3.219616e+01 -3.928619e+02
      vertex -1.179140e+02 -3.220058e+01 -3.929117e+02
    endloop
  endfacet
  facet normal -2.380460e-13 9.960959e-01 -8.827818e-02
    outer loop
      vertex -1.435975e+01 -3.369932e+01 -4.098229e+02
      vertex -1.386633e+01 -3.756399e+01 -4.534303e+02
      vertex -1.504549e+01 -3.813310e+01 -4.598519e+02
    endloop
  endfacet
  facet normal -2.429549e-13 9.960959e-01 -8.827818e-02
    outer loop
      vertex -1.569654e+01 -3.303563e+01 -4.023341e+02
      vertex -1.435975e+01 -3.369932e+01 -4.098229e+02
      vertex -1.504549e+01 -3.813310e+01 -4.598519e+02
    endloop
  endfacet
  facet normal 9.663315e-01 1.757218e-02 -2.566995e-01
    outer loop
      vertex -1.624348e+01 -4.192747e+01 -4.646214e+02
      vertex -1.642893e+01 -4.198971e+01 -4.653238e+02
      vertex -1.504549e+01 -3.813310e+01 -4.598519e+02
    endloop
  endfacet
  facet normal 9.683053e-01 8.074235e-03 -2.496392e-01
    outer loop
      vertex -1.605453e+01 -4.186233e+01 -4.638864e+02
      vertex -1.624348e+01 -4.192747e+01 -4.646214e+02
      vertex -1.504549e+01 -3.813310e+01 -4.598519e+02
    endloop
  endfacet
  facet normal -2.394898e-13 9.960959e-01 -8.827818e-02
    outer loop
      vertex -1.284400e+01 -3.482517e+01 -4.225265e+02
      vertex -1.284400e+01 -3.680041e+01 -4.448144e+02
      vertex -1.386633e+01 -3.756399e+01 -4.534303e+02
    endloop
  endfacet
  facet normal -2.490610e-13 9.960959e-01 -8.827818e-02
    outer loop
      vertex -1.343491e+01 -3.429334e+01 -4.165255e+02
      vertex -1.284400e+01 -3.482517e+01 -4.225265e+02
      vertex -1.386633e+01 -3.756399e+01 -4.534303e+02
    endloop
  endfacet
  facet normal -2.459428e-13 9.960959e-01 -8.827818e-02
    outer loop
      vertex -1.435975e+01 -3.369932e+01 -4.098229e+02
      vertex -1.343491e+01 -3.429334e+01 -4.165255e+02
      vertex -1.386633e+01 -3.756399e+01 -4.534303e+02
    endloop
  endfacet
  facet normal 7.071068e-01 7.043461e-01 -6.242210e-02
    outer loop
      vertex -1.239406e+01 -3.628588e+01 -4.339118e+02
      vertex -1.284400e+01 -3.680041e+01 -4.448144e+02
      vertex -1.284400e+01 -3.482517e+01 -4.225265e+02
    endloop
  endfacet
  facet normal 9.992315e-01 3.480615e-03 3.904235e-02
    outer loop
      vertex -1.239406e+01 -3.628588e+01 -4.339118e+02
      vertex -1.284400e+01 -3.482517e+01 -4.225265e+02
      vertex -1.239406e+01 -3.859335e+01 -4.337061e+02
    endloop
  endfacet
  facet normal -2.428274e-13 9.960959e-01 -8.827818e-02
    outer loop
      vertex -7.496400e+01 -3.535211e+01 -4.284723e+02
      vertex -1.178140e+02 -3.229327e+01 -3.939576e+02
      vertex -1.753371e+01 -3.229327e+01 -3.939576e+02
    endloop
  endfacet
  facet normal -2.446406e-13 9.960959e-01 -8.827818e-02
    outer loop
      vertex -7.346400e+01 -3.548453e+01 -4.299664e+02
      vertex -7.496400e+01 -3.535211e+01 -4.284723e+02
      vertex -1.753371e+01 -3.229327e+01 -3.939576e+02
    endloop
  endfacet
  facet normal -2.289713e-13 9.960959e-01 -8.827818e-02
    outer loop
      vertex -7.496400e+01 -3.561694e+01 -4.314606e+02
      vertex -7.346400e+01 -3.548453e+01 -4.299664e+02
      vertex -1.753371e+01 -3.229327e+01 -3.939576e+02
    endloop
  endfacet
  facet normal -2.003410e-13 9.960959e-01 -8.827818e-02
    outer loop
      vertex -1.722050e+02 -3.535211e+01 -4.284723e+02
      vertex -1.178847e+02 -3.229068e+01 -3.939284e+02
      vertex -1.178140e+02 -3.229327e+01 -3.939576e+02
    endloop
  endfacet
  facet normal -2.427379e-13 9.960959e-01 -8.827818e-02
    outer loop
      vertex -1.722050e+02 -3.535211e+01 -4.284723e+02
      vertex -1.178140e+02 -3.229327e+01 -3.939576e+02
      vertex -7.496400e+01 -3.535211e+01 -4.284723e+02
    endloop
  endfacet
  facet normal -2.282277e-13 9.960959e-01 -8.827818e-02
    outer loop
      vertex -1.722050e+02 -3.535211e+01 -4.284723e+02
      vertex -1.179140e+02 -3.228444e+01 -3.938580e+02
      vertex -1.178847e+02 -3.229068e+01 -3.939284e+02
    endloop
  endfacet
  facet normal -2.386089e-13 9.960959e-01 -8.827818e-02
    outer loop
      vertex -1.722050e+02 -3.535211e+01 -4.284723e+02
      vertex -1.179140e+02 -3.220058e+01 -3.929117e+02
      vertex -1.179140e+02 -3.228444e+01 -3.938580e+02
    endloop
  endfacet
  facet normal -3.106818e-13 -9.960959e-01 8.827818e-02
    outer loop
      vertex -1.664222e+01 -3.548123e+01 -3.975791e+02
      vertex -1.633640e+01 -3.560581e+01 -3.989848e+02
      vertex -1.648744e+01 -3.554379e+01 -3.982850e+02
    endloop
  endfacet
  facet normal 2.370372e-13 -9.960959e-01 8.827818e-02
    outer loop
      vertex -1.690480e+01 -3.544386e+01 -3.971574e+02
      vertex -1.633640e+01 -3.560581e+01 -3.989848e+02
      vertex -1.664222e+01 -3.548123e+01 -3.975791e+02
    endloop
  endfacet
endsolid P1040852002
