solid P1040852002
  facet normal 1.000000e+00 -9.442176e-13 -1.027055e-15
    outer loop
      vertex 2.724500e+02 2.435113e+01 -4.683387e+02
      vertex 2.724500e+02 2.210700e+01 -3.976664e+02
      vertex 2.724500e+02 2.192205e+01 -3.936707e+02
    endloop
  endfacet
  facet normal 8.716027e-13 9.989305e-01 4.623778e-02
    outer loop
      vertex 2.722303e+02 2.208248e+01 -3.971366e+02
      vertex 2.724500e+02 2.192205e+01 -3.936707e+02
      vertex 2.724500e+02 2.210700e+01 -3.976664e+02
    endloop
  endfacet
  facet normal 1.000000e+00 -8.957942e-13 5.482421e-16
    outer loop
      vertex 2.724500e+02 2.084398e+01 -3.925693e+02
      vertex 2.724500e+02 2.435113e+01 -4.683387e+02
      vertex 2.724500e+02 2.192205e+01 -3.936707e+02
    endloop
  endfacet
  facet normal 1.000000e+00 -9.049078e-13 -8.372925e-15
    outer loop
      vertex 2.724500e+02 2.304162e+01 -3.924676e+02
      vertex 2.724500e+02 2.084398e+01 -3.925693e+02
      vertex 2.724500e+02 2.192205e+01 -3.936707e+02
    endloop
  endfacet
  facet normal 1.000000e+00 -9.212547e-13 6.839608e-15
    outer loop
      vertex 2.724500e+02 2.309480e+01 -3.936164e+02
      vertex 2.724500e+02 2.304162e+01 -3.924676e+02
      vertex 2.724500e+02 2.192205e+01 -3.936707e+02
    endloop
  endfacet
  facet normal 9.238795e-01 1.769443e-02 -3.822741e-01
    outer loop
      vertex 2.722303e+02 2.194657e+01 -3.942004e+02
      vertex 2.724500e+02 2.309480e+01 -3.936164e+02
      vertex 2.724500e+02 2.192205e+01 -3.936707e+02
    endloop
  endfacet
  facet normal 8.833895e-13 9.989305e-01 4.623778e-02
    outer loop
      vertex 2.722303e+02 2.194657e+01 -3.942004e+02
      vertex 2.724500e+02 2.192205e+01 -3.936707e+02
      vertex 2.722303e+02 2.208248e+01 -3.971366e+02
    endloop
  endfacet
  facet normal 1.000000e+00 -8.708154e-13 1.303759e-15
    outer loop
      vertex 2.724500e+02 2.435113e+01 -4.683387e+02
      vertex 2.724500e+02 2.393486e+01 -3.975818e+02
      vertex 2.724500e+02 2.210700e+01 -3.976664e+02
    endloop
  endfacet
  facet normal 9.238795e-01 -1.769443e-02 3.822741e-01
    outer loop
      vertex 2.722303e+02 2.391034e+01 -3.970520e+02
      vertex 2.724500e+02 2.210700e+01 -3.976664e+02
      vertex 2.724500e+02 2.393486e+01 -3.975818e+02
    endloop
  endfacet
  facet normal 9.238795e-01 -1.769443e-02 3.822741e-01
    outer loop
      vertex 2.722303e+02 2.391034e+01 -3.970520e+02
      vertex 2.722303e+02 2.208248e+01 -3.971366e+02
      vertex 2.724500e+02 2.210700e+01 -3.976664e+02
    endloop
  endfacet
  facet normal 1.000000e+00 -2.094339e-12 -5.894412e-15
    outer loop
      vertex 2.724500e+02 2.435113e+01 -4.683387e+02
      vertex 2.724500e+02 2.399266e+01 -3.988304e+02
      vertex 2.724500e+02 2.393486e+01 -3.975818e+02
    endloop
  endfacet
  facet normal 8.926871e-13 9.989305e-01 4.623778e-02
    outer loop
      vertex 9.977240e+01 2.399266e+01 -3.988304e+02
      vertex 2.724500e+02 2.393486e+01 -3.975818e+02
      vertex 2.724500e+02 2.399266e+01 -3.988304e+02
    endloop
  endfacet
  facet normal 8.925465e-13 9.989305e-01 4.623778e-02
    outer loop
      vertex 2.722303e+02 2.391034e+01 -3.970520e+02
      vertex 2.724500e+02 2.393486e+01 -3.975818e+02
      vertex 9.977240e+01 2.399266e+01 -3.988304e+02
    endloop
  endfacet
  facet normal 1.000000e+00 -5.691341e-13 1.971557e-15
    outer loop
      vertex 2.724500e+02 2.435113e+01 -4.683387e+02
      vertex 2.724500e+02 2.409255e+01 -3.988258e+02
      vertex 2.724500e+02 2.399266e+01 -3.988304e+02
    endloop
  endfacet
  facet normal -4.131911e-14 -4.623778e-02 9.989305e-01
    outer loop
      vertex 9.977240e+01 2.409255e+01 -3.988258e+02
      vertex 2.724500e+02 2.399266e+01 -3.988304e+02
      vertex 2.724500e+02 2.409255e+01 -3.988258e+02
    endloop
  endfacet
  facet normal -4.132006e-14 -4.623778e-02 9.989305e-01
    outer loop
      vertex 9.977240e+01 2.399266e+01 -3.988304e+02
      vertex 2.724500e+02 2.399266e+01 -3.988304e+02
      vertex 9.977240e+01 2.409255e+01 -3.988258e+02
    endloop
  endfacet
  facet normal 1.000000e+00 -6.697080e-13 1.199708e-14
    outer loop
      vertex 2.724500e+02 2.750954e+01 -4.639380e+02
      vertex 2.724500e+02 2.759449e+01 -4.639341e+02
      vertex 2.724500e+02 2.409255e+01 -3.988258e+02
    endloop
  endfacet
  facet normal 8.921376e-13 9.985566e-01 5.370883e-02
    outer loop
      vertex 2.556410e+02 2.583008e+01 -4.311300e+02
      vertex 2.724500e+02 2.409255e+01 -3.988258e+02
      vertex 2.724500e+02 2.759449e+01 -4.639341e+02
    endloop
  endfacet
  facet normal 1.000000e+00 -8.829964e-13 8.040100e-16
    outer loop
      vertex 2.724500e+02 2.435113e+01 -4.683387e+02
      vertex 2.724500e+02 2.750954e+01 -4.639380e+02
      vertex 2.724500e+02 2.409255e+01 -3.988258e+02
    endloop
  endfacet
  facet normal 8.923329e-13 9.985566e-01 5.370883e-02
    outer loop
      vertex 1.584000e+02 2.566895e+01 -4.281343e+02
      vertex 9.977240e+01 2.409255e+01 -3.988258e+02
      vertex 2.724500e+02 2.409255e+01 -3.988258e+02
    endloop
  endfacet
  facet normal 8.923597e-13 9.985566e-01 5.370883e-02
    outer loop
      vertex 2.556410e+02 2.566895e+01 -4.281343e+02
      vertex 1.584000e+02 2.566895e+01 -4.281343e+02
      vertex 2.724500e+02 2.409255e+01 -3.988258e+02
    endloop
  endfacet
  facet normal 8.930499e-13 9.985566e-01 5.370883e-02
    outer loop
      vertex 2.556410e+02 2.583008e+01 -4.311300e+02
      vertex 2.556410e+02 2.566895e+01 -4.281343e+02
      vertex 2.724500e+02 2.409255e+01 -3.988258e+02
    endloop
  endfacet
  facet normal 4.131921e-14 4.623778e-02 -9.989305e-01
    outer loop
      vertex 9.949053e+01 2.750954e+01 -4.639380e+02
      vertex 2.724500e+02 2.759449e+01 -4.639341e+02
      vertex 2.724500e+02 2.750954e+01 -4.639380e+02
    endloop
  endfacet
  facet normal 8.923134e-13 9.985566e-01 5.370883e-02
    outer loop
      vertex 2.556410e+02 2.583008e+01 -4.311300e+02
      vertex 2.724500e+02 2.759449e+01 -4.639341e+02
      vertex 9.949053e+01 2.759449e+01 -4.639341e+02
    endloop
  endfacet
  facet normal 4.131826e-14 4.623778e-02 -9.989305e-01
    outer loop
      vertex 9.949053e+01 2.750954e+01 -4.639380e+02
      vertex 9.949053e+01 2.759449e+01 -4.639341e+02
      vertex 2.724500e+02 2.759449e+01 -4.639341e+02
    endloop
  endfacet
  facet normal 1.000000e+00 -9.205852e-13 2.914075e-15
    outer loop
      vertex 2.724500e+02 2.670275e+01 -4.652266e+02
      vertex 2.724500e+02 2.756734e+01 -4.651866e+02
      vertex 2.724500e+02 2.750954e+01 -4.639380e+02
    endloop
  endfacet
  facet normal 8.546025e-13 9.989305e-01 4.623778e-02
    outer loop
      vertex 2.722303e+02 2.759186e+01 -4.657164e+02
      vertex 2.724500e+02 2.750954e+01 -4.639380e+02
      vertex 2.724500e+02 2.756734e+01 -4.651866e+02
    endloop
  endfacet
  facet normal 1.000000e+00 -6.491706e-13 -1.670147e-13
    outer loop
      vertex 2.724500e+02 2.435113e+01 -4.683387e+02
      vertex 2.724500e+02 2.670275e+01 -4.652266e+02
      vertex 2.724500e+02 2.750954e+01 -4.639380e+02
    endloop
  endfacet
  facet normal 8.926711e-13 9.989305e-01 4.623778e-02
    outer loop
      vertex 1.005897e+02 2.760202e+01 -4.659358e+02
      vertex 2.724500e+02 2.750954e+01 -4.639380e+02
      vertex 2.717000e+02 2.760202e+01 -4.659358e+02
    endloop
  endfacet
  facet normal 8.839232e-13 9.989305e-01 4.623778e-02
    outer loop
      vertex 2.722303e+02 2.759186e+01 -4.657164e+02
      vertex 2.717000e+02 2.760202e+01 -4.659358e+02
      vertex 2.724500e+02 2.750954e+01 -4.639380e+02
    endloop
  endfacet
  facet normal 8.924178e-13 9.989305e-01 4.623778e-02
    outer loop
      vertex 1.001327e+02 2.759483e+01 -4.657806e+02
      vertex 2.724500e+02 2.750954e+01 -4.639380e+02
      vertex 1.005897e+02 2.760202e+01 -4.659358e+02
    endloop
  endfacet
  facet normal 8.926563e-13 9.989305e-01 4.623778e-02
    outer loop
      vertex 9.967948e+01 2.754366e+01 -4.646751e+02
      vertex 2.724500e+02 2.750954e+01 -4.639380e+02
      vertex 9.986493e+01 2.757627e+01 -4.653795e+02
    endloop
  endfacet
  facet normal 8.928173e-13 9.989305e-01 4.623778e-02
    outer loop
      vertex 1.001327e+02 2.759483e+01 -4.657806e+02
      vertex 9.986493e+01 2.757627e+01 -4.653795e+02
      vertex 2.724500e+02 2.750954e+01 -4.639380e+02
    endloop
  endfacet
  facet normal 8.926687e-13 9.989305e-01 4.623778e-02
    outer loop
      vertex 9.949053e+01 2.750954e+01 -4.639380e+02
      vertex 2.724500e+02 2.750954e+01 -4.639380e+02
      vertex 9.967948e+01 2.754366e+01 -4.646751e+02
    endloop
  endfacet
  facet normal 9.238795e-01 1.769443e-02 -3.822741e-01
    outer loop
      vertex 2.722303e+02 2.672728e+01 -4.657564e+02
      vertex 2.724500e+02 2.756734e+01 -4.651866e+02
      vertex 2.724500e+02 2.670275e+01 -4.652266e+02
    endloop
  endfacet
  facet normal 9.238795e-01 1.769443e-02 -3.822741e-01
    outer loop
      vertex 2.722303e+02 2.759186e+01 -4.657164e+02
      vertex 2.724500e+02 2.756734e+01 -4.651866e+02
      vertex 2.722303e+02 2.672728e+01 -4.657564e+02
    endloop
  endfacet
  facet normal 1.000000e+00 -8.672715e-13 -2.207454e-15
    outer loop
      vertex 2.724500e+02 2.435113e+01 -4.683387e+02
      vertex 2.724500e+02 2.684147e+01 -4.682234e+02
      vertex 2.724500e+02 2.670275e+01 -4.652266e+02
    endloop
  endfacet
  facet normal 8.570513e-13 9.989305e-01 4.623778e-02
    outer loop
      vertex 2.722303e+02 2.672728e+01 -4.657564e+02
      vertex 2.724500e+02 2.670275e+01 -4.652266e+02
      vertex 2.724500e+02 2.684147e+01 -4.682234e+02
    endloop
  endfacet
  facet normal 4.132007e-14 4.623778e-02 -9.989305e-01
    outer loop
      vertex 1.006510e+02 2.435113e+01 -4.683387e+02
      vertex 2.724500e+02 2.684147e+01 -4.682234e+02
      vertex 2.724500e+02 2.435113e+01 -4.683387e+02
    endloop
  endfacet
  facet normal 4.131918e-14 4.623778e-02 -9.989305e-01
    outer loop
      vertex 1.006510e+02 2.435113e+01 -4.683387e+02
      vertex 1.006510e+02 2.684147e+01 -4.682234e+02
      vertex 2.724500e+02 2.684147e+01 -4.682234e+02
    endloop
  endfacet
  facet normal 8.926667e-13 9.989305e-01 4.623778e-02
    outer loop
      vertex 2.717000e+02 2.673743e+01 -4.659758e+02
      vertex 2.724500e+02 2.684147e+01 -4.682234e+02
      vertex 1.006510e+02 2.684147e+01 -4.682234e+02
    endloop
  endfacet
  facet normal 8.992287e-13 9.989305e-01 4.623778e-02
    outer loop
      vertex 2.722303e+02 2.672728e+01 -4.657564e+02
      vertex 2.724500e+02 2.684147e+01 -4.682234e+02
      vertex 2.717000e+02 2.673743e+01 -4.659758e+02
    endloop
  endfacet
  facet normal -8.925847e-13 -9.989305e-01 -4.623778e-02
    outer loop
      vertex 2.556410e+02 2.249698e+01 -4.282811e+02
      vertex 2.724500e+02 2.435113e+01 -4.683387e+02
      vertex 2.724500e+02 2.084398e+01 -3.925693e+02
    endloop
  endfacet
  facet normal -8.926865e-13 -9.989305e-01 -4.623778e-02
    outer loop
      vertex 1.584000e+02 2.263569e+01 -4.312779e+02
      vertex 1.006510e+02 2.435113e+01 -4.683387e+02
      vertex 2.724500e+02 2.435113e+01 -4.683387e+02
    endloop
  endfacet
  facet normal -8.926938e-13 -9.989305e-01 -4.623778e-02
    outer loop
      vertex 2.556410e+02 2.263569e+01 -4.312779e+02
      vertex 1.584000e+02 2.263569e+01 -4.312779e+02
      vertex 2.724500e+02 2.435113e+01 -4.683387e+02
    endloop
  endfacet
  facet normal -8.942550e-13 -9.989305e-01 -4.623778e-02
    outer loop
      vertex 2.556410e+02 2.249698e+01 -4.282811e+02
      vertex 2.556410e+02 2.263569e+01 -4.312779e+02
      vertex 2.724500e+02 2.435113e+01 -4.683387e+02
    endloop
  endfacet
  facet normal -4.132056e-14 -4.623778e-02 9.989305e-01
    outer loop
      vertex 2.014000e+02 2.304162e+01 -3.924676e+02
      vertex 2.724500e+02 2.084398e+01 -3.925693e+02
      vertex 2.724500e+02 2.304162e+01 -3.924676e+02
    endloop
  endfacet
  facet normal -4.131825e-14 -4.623778e-02 9.989305e-01
    outer loop
      vertex 2.014000e+02 2.084398e+01 -3.925693e+02
      vertex 2.724500e+02 2.084398e+01 -3.925693e+02
      vertex 2.014000e+02 2.304162e+01 -3.924676e+02
    endloop
  endfacet
  facet normal -8.926495e-13 -9.989305e-01 -4.623778e-02
    outer loop
      vertex 2.556410e+02 2.249698e+01 -4.282811e+02
      vertex 2.724500e+02 2.084398e+01 -3.925693e+02
      vertex 2.014000e+02 2.084398e+01 -3.925693e+02
    endloop
  endfacet
  facet normal 8.887439e-13 9.989305e-01 4.623778e-02
    outer loop
      vertex 2.722303e+02 2.311932e+01 -3.941461e+02
      vertex 2.724500e+02 2.304162e+01 -3.924676e+02
      vertex 2.724500e+02 2.309480e+01 -3.936164e+02
    endloop
  endfacet
  facet normal 8.926980e-13 9.989305e-01 4.623778e-02
    outer loop
      vertex 2.014000e+02 2.304162e+01 -3.924676e+02
      vertex 2.724500e+02 2.304162e+01 -3.924676e+02
      vertex 2.717000e+02 2.312947e+01 -3.943656e+02
    endloop
  endfacet
  facet normal 9.014658e-13 9.989305e-01 4.623778e-02
    outer loop
      vertex 2.722303e+02 2.311932e+01 -3.941461e+02
      vertex 2.717000e+02 2.312947e+01 -3.943656e+02
      vertex 2.724500e+02 2.304162e+01 -3.924676e+02
    endloop
  endfacet
  facet normal 9.238795e-01 1.769443e-02 -3.822741e-01
    outer loop
      vertex 2.722303e+02 2.311932e+01 -3.941461e+02
      vertex 2.724500e+02 2.309480e+01 -3.936164e+02
      vertex 2.722303e+02 2.194657e+01 -3.942004e+02
    endloop
  endfacet
  facet normal -9.696075e-01 1.131280e-02 -2.444041e-01
    outer loop
      vertex 9.848149e+01 2.395359e+01 -4.597500e+02
      vertex 1.006510e+02 2.684147e+01 -4.682234e+02
      vertex 1.006510e+02 2.435113e+01 -4.683387e+02
    endloop
  endfacet
  facet normal 8.926711e-13 9.989305e-01 4.623778e-02
    outer loop
      vertex 1.005897e+02 2.673743e+01 -4.659758e+02
      vertex 2.717000e+02 2.673743e+01 -4.659758e+02
      vertex 1.006510e+02 2.684147e+01 -4.682234e+02
    endloop
  endfacet
  facet normal 8.819891e-13 9.989305e-01 4.623778e-02
    outer loop
      vertex 1.002685e+02 2.677988e+01 -4.668930e+02
      vertex 1.005897e+02 2.673743e+01 -4.659758e+02
      vertex 1.006510e+02 2.684147e+01 -4.682234e+02
    endloop
  endfacet
  facet normal -9.547637e-01 -1.021450e-01 -2.792718e-01
    outer loop
      vertex 9.848149e+01 2.395359e+01 -4.597500e+02
      vertex 1.002685e+02 2.677988e+01 -4.668930e+02
      vertex 1.006510e+02 2.684147e+01 -4.682234e+02
    endloop
  endfacet
  facet normal -8.936457e-13 -9.989305e-01 -4.623778e-02
    outer loop
      vertex 9.913254e+01 2.128367e+01 -4.020685e+02
      vertex 9.848149e+01 2.395359e+01 -4.597500e+02
      vertex 1.006510e+02 2.435113e+01 -4.683387e+02
    endloop
  endfacet
  facet normal -8.951850e-13 -9.989305e-01 -4.623778e-02
    outer loop
      vertex 1.009697e+02 2.089484e+01 -3.936682e+02
      vertex 9.913254e+01 2.128367e+01 -4.020685e+02
      vertex 1.006510e+02 2.435113e+01 -4.683387e+02
    endloop
  endfacet
  facet normal -8.926324e-13 -9.989305e-01 -4.623778e-02
    outer loop
      vertex 1.584000e+02 2.263569e+01 -4.312779e+02
      vertex 1.009697e+02 2.089484e+01 -3.936682e+02
      vertex 1.006510e+02 2.435113e+01 -4.683387e+02
    endloop
  endfacet
  facet normal 4.131933e-14 4.623778e-02 -9.989305e-01
    outer loop
      vertex 2.717000e+02 2.760202e+01 -4.659358e+02
      vertex 2.717000e+02 2.673743e+01 -4.659758e+02
      vertex 1.005897e+02 2.673743e+01 -4.659758e+02
    endloop
  endfacet
  facet normal 3.826834e-01 4.271813e-02 -9.228914e-01
    outer loop
      vertex 2.722303e+02 2.759186e+01 -4.657164e+02
      vertex 2.722303e+02 2.672728e+01 -4.657564e+02
      vertex 2.717000e+02 2.673743e+01 -4.659758e+02
    endloop
  endfacet
  facet normal 3.826834e-01 4.271813e-02 -9.228914e-01
    outer loop
      vertex 2.722303e+02 2.759186e+01 -4.657164e+02
      vertex 2.717000e+02 2.673743e+01 -4.659758e+02
      vertex 2.717000e+02 2.760202e+01 -4.659358e+02
    endloop
  endfacet
  facet normal 8.891308e-13 9.989305e-01 4.623778e-02
    outer loop
      vertex 1.002685e+02 2.677988e+01 -4.668930e+02
      vertex 1.001327e+02 2.673025e+01 -4.658206e+02
      vertex 1.005897e+02 2.673743e+01 -4.659758e+02
    endloop
  endfacet
  facet normal -3.219341e-01 4.377617e-02 -9.457495e-01
    outer loop
      vertex 1.005897e+02 2.760202e+01 -4.659358e+02
      vertex 1.005897e+02 2.673743e+01 -4.659758e+02
      vertex 1.001327e+02 2.673025e+01 -4.658206e+02
    endloop
  endfacet
  facet normal 4.131932e-14 4.623778e-02 -9.989305e-01
    outer loop
      vertex 1.005897e+02 2.760202e+01 -4.659358e+02
      vertex 2.717000e+02 2.760202e+01 -4.659358e+02
      vertex 1.005897e+02 2.673743e+01 -4.659758e+02
    endloop
  endfacet
  facet normal 9.166019e-13 9.989305e-01 4.623778e-02
    outer loop
      vertex 1.002685e+02 2.677988e+01 -4.668930e+02
      vertex 9.986493e+01 2.671168e+01 -4.654195e+02
      vertex 1.001327e+02 2.673025e+01 -4.658206e+02
    endloop
  endfacet
  facet normal -8.319805e-01 2.565295e-02 -5.542115e-01
    outer loop
      vertex 1.001327e+02 2.759483e+01 -4.657806e+02
      vertex 1.001327e+02 2.673025e+01 -4.658206e+02
      vertex 9.986493e+01 2.671168e+01 -4.654195e+02
    endloop
  endfacet
  facet normal -3.219341e-01 4.377617e-02 -9.457495e-01
    outer loop
      vertex 1.001327e+02 2.759483e+01 -4.657806e+02
      vertex 1.005897e+02 2.760202e+01 -4.659358e+02
      vertex 1.001327e+02 2.673025e+01 -4.658206e+02
    endloop
  endfacet
  facet normal -9.616570e-01 -6.522233e-02 -2.663868e-01
    outer loop
      vertex 9.848149e+01 2.395359e+01 -4.597500e+02
      vertex 9.986493e+01 2.671168e+01 -4.654195e+02
      vertex 1.002685e+02 2.677988e+01 -4.668930e+02
    endloop
  endfacet
  facet normal -9.726305e-01 1.074368e-02 -2.321086e-01
    outer loop
      vertex 9.986493e+01 2.757627e+01 -4.653795e+02
      vertex 9.986493e+01 2.671168e+01 -4.654195e+02
      vertex 9.848149e+01 2.395359e+01 -4.597500e+02
    endloop
  endfacet
  facet normal -8.319805e-01 2.565295e-02 -5.542115e-01
    outer loop
      vertex 1.001327e+02 2.759483e+01 -4.657806e+02
      vertex 9.986493e+01 2.671168e+01 -4.654195e+02
      vertex 9.986493e+01 2.757627e+01 -4.653795e+02
    endloop
  endfacet
  facet normal 8.944402e-13 9.985566e-01 5.370883e-02
    outer loop
      vertex 9.949053e+01 2.759449e+01 -4.639341e+02
      vertex 9.752976e+01 2.475708e+01 -4.111808e+02
      vertex 9.977240e+01 2.409255e+01 -3.988258e+02
    endloop
  endfacet
  facet normal -9.839665e-01 -8.246661e-03 1.781626e-01
    outer loop
      vertex 9.977240e+01 2.399266e+01 -3.988304e+02
      vertex 9.977240e+01 2.409255e+01 -3.988258e+02
      vertex 9.752976e+01 2.475708e+01 -4.111808e+02
    endloop
  endfacet
  facet normal 8.923257e-13 9.985566e-01 5.370883e-02
    outer loop
      vertex 1.569000e+02 2.574951e+01 -4.296322e+02
      vertex 9.949053e+01 2.759449e+01 -4.639341e+02
      vertex 9.977240e+01 2.409255e+01 -3.988258e+02
    endloop
  endfacet
  facet normal 8.918928e-13 9.985566e-01 5.370883e-02
    outer loop
      vertex 1.569000e+02 2.574951e+01 -4.296322e+02
      vertex 9.977240e+01 2.409255e+01 -3.988258e+02
      vertex 1.584000e+02 2.566895e+01 -4.281343e+02
    endloop
  endfacet
  facet normal 8.954077e-13 9.985566e-01 5.370883e-02
    outer loop
      vertex 9.628000e+01 2.655013e+01 -4.445172e+02
      vertex 9.628000e+01 2.534835e+01 -4.221737e+02
      vertex 9.752976e+01 2.475708e+01 -4.111808e+02
    endloop
  endfacet
  facet normal -9.931466e-01 2.468966e-02 1.142373e-01
    outer loop
      vertex 9.687091e+01 2.194242e+01 -4.163003e+02
      vertex 9.752976e+01 2.475708e+01 -4.111808e+02
      vertex 9.628000e+01 2.534835e+01 -4.221737e+02
    endloop
  endfacet
  facet normal 8.981764e-13 9.985566e-01 5.370883e-02
    outer loop
      vertex 9.751746e+01 2.708707e+01 -4.545001e+02
      vertex 9.628000e+01 2.655013e+01 -4.445172e+02
      vertex 9.752976e+01 2.475708e+01 -4.111808e+02
    endloop
  endfacet
  facet normal 8.888044e-13 9.985566e-01 5.370883e-02
    outer loop
      vertex 9.949053e+01 2.759449e+01 -4.639341e+02
      vertex 9.751746e+01 2.708707e+01 -4.545001e+02
      vertex 9.752976e+01 2.475708e+01 -4.111808e+02
    endloop
  endfacet
  facet normal -9.906506e-01 -1.478627e-02 1.356196e-01
    outer loop
      vertex 9.779575e+01 2.163129e+01 -4.095786e+02
      vertex 9.752976e+01 2.475708e+01 -4.111808e+02
      vertex 9.687091e+01 2.194242e+01 -4.163003e+02
    endloop
  endfacet
  facet normal -9.844568e-01 6.191340e-03 1.755180e-01
    outer loop
      vertex 9.913254e+01 2.128367e+01 -4.020685e+02
      vertex 9.752976e+01 2.475708e+01 -4.111808e+02
      vertex 9.779575e+01 2.163129e+01 -4.095786e+02
    endloop
  endfacet
  facet normal -9.835677e-01 1.753607e-02 1.796860e-01
    outer loop
      vertex 9.977240e+01 2.399266e+01 -3.988304e+02
      vertex 9.752976e+01 2.475708e+01 -4.111808e+02
      vertex 9.913254e+01 2.128367e+01 -4.020685e+02
    endloop
  endfacet
  facet normal -7.071068e-01 7.060862e-01 3.797788e-02
    outer loop
      vertex 9.583006e+01 2.551486e+01 -4.336469e+02
      vertex 9.628000e+01 2.534835e+01 -4.221737e+02
      vertex 9.628000e+01 2.655013e+01 -4.445172e+02
    endloop
  endfacet
  facet normal -9.952242e-01 -4.513539e-03 9.751142e-02
    outer loop
      vertex 9.687091e+01 2.194242e+01 -4.163003e+02
      vertex 9.628000e+01 2.534835e+01 -4.221737e+02
      vertex 9.628000e+01 2.222098e+01 -4.223184e+02
    endloop
  endfacet
  facet normal -9.992313e-01 -1.812618e-03 3.916018e-02
    outer loop
      vertex 9.583006e+01 2.551486e+01 -4.336469e+02
      vertex 9.628000e+01 2.222098e+01 -4.223184e+02
      vertex 9.628000e+01 2.534835e+01 -4.221737e+02
    endloop
  endfacet
  facet normal -9.924259e-01 5.680077e-03 -1.227136e-01
    outer loop
      vertex 9.628000e+01 2.325556e+01 -4.446697e+02
      vertex 9.628000e+01 2.655013e+01 -4.445172e+02
      vertex 9.751746e+01 2.708707e+01 -4.545001e+02
    endloop
  endfacet
  facet normal -9.991500e-01 1.906073e-03 -4.117919e-02
    outer loop
      vertex 9.583006e+01 2.320078e+01 -4.337551e+02
      vertex 9.628000e+01 2.655013e+01 -4.445172e+02
      vertex 9.628000e+01 2.325556e+01 -4.446697e+02
    endloop
  endfacet
  facet normal -9.991502e-01 1.926322e-03 -4.117290e-02
    outer loop
      vertex 9.583006e+01 2.320078e+01 -4.337551e+02
      vertex 9.583006e+01 2.551486e+01 -4.336469e+02
      vertex 9.628000e+01 2.655013e+01 -4.445172e+02
    endloop
  endfacet
  facet normal -9.785122e-01 3.837428e-02 -2.025867e-01
    outer loop
      vertex 9.848149e+01 2.395359e+01 -4.597500e+02
      vertex 9.751746e+01 2.708707e+01 -4.545001e+02
      vertex 9.949053e+01 2.759449e+01 -4.639341e+02
    endloop
  endfacet
  facet normal -9.836397e-01 -8.017259e-04 -1.801454e-01
    outer loop
      vertex 9.730233e+01 2.365550e+01 -4.533101e+02
      vertex 9.751746e+01 2.708707e+01 -4.545001e+02
      vertex 9.848149e+01 2.395359e+01 -4.597500e+02
    endloop
  endfacet
  facet normal -9.929532e-01 2.186144e-02 -1.164731e-01
    outer loop
      vertex 9.628000e+01 2.325556e+01 -4.446697e+02
      vertex 9.751746e+01 2.708707e+01 -4.545001e+02
      vertex 9.730233e+01 2.365550e+01 -4.533101e+02
    endloop
  endfacet
  facet normal 8.923232e-13 9.985566e-01 5.370883e-02
    outer loop
      vertex 1.584000e+02 2.583008e+01 -4.311300e+02
      vertex 2.556410e+02 2.583008e+01 -4.311300e+02
      vertex 9.949053e+01 2.759449e+01 -4.639341e+02
    endloop
  endfacet
  facet normal 8.930704e-13 9.985566e-01 5.370883e-02
    outer loop
      vertex 1.569000e+02 2.574951e+01 -4.296322e+02
      vertex 1.584000e+02 2.583008e+01 -4.311300e+02
      vertex 9.949053e+01 2.759449e+01 -4.639341e+02
    endloop
  endfacet
  facet normal -9.741124e-01 1.045271e-02 -2.258225e-01
    outer loop
      vertex 9.949053e+01 2.750954e+01 -4.639380e+02
      vertex 9.848149e+01 2.395359e+01 -4.597500e+02
      vertex 9.949053e+01 2.759449e+01 -4.639341e+02
    endloop
  endfacet
  facet normal 4.132037e-14 4.623778e-02 -9.989305e-01
    outer loop
      vertex 1.584000e+02 2.249698e+01 -4.282811e+02
      vertex 1.584000e+02 2.566895e+01 -4.281343e+02
      vertex 2.556410e+02 2.566895e+01 -4.281343e+02
    endloop
  endfacet
  facet normal 7.071068e-01 3.269505e-02 -7.063505e-01
    outer loop
      vertex 1.569000e+02 2.256633e+01 -4.297795e+02
      vertex 1.569000e+02 2.574951e+01 -4.296322e+02
      vertex 1.584000e+02 2.566895e+01 -4.281343e+02
    endloop
  endfacet
  facet normal 7.071068e-01 3.269504e-02 -7.063505e-01
    outer loop
      vertex 1.569000e+02 2.256633e+01 -4.297795e+02
      vertex 1.584000e+02 2.566895e+01 -4.281343e+02
      vertex 1.584000e+02 2.249698e+01 -4.282811e+02
    endloop
  endfacet
  facet normal -1.000000e+00 8.892809e-13 9.881945e-15
    outer loop
      vertex 2.556410e+02 2.263569e+01 -4.312779e+02
      vertex 2.556410e+02 2.566895e+01 -4.281343e+02
      vertex 2.556410e+02 2.583008e+01 -4.311300e+02
    endloop
  endfacet
  facet normal 4.132037e-14 4.623778e-02 -9.989305e-01
    outer loop
      vertex 2.556410e+02 2.249698e+01 -4.282811e+02
      vertex 1.584000e+02 2.249698e+01 -4.282811e+02
      vertex 2.556410e+02 2.566895e+01 -4.281343e+02
    endloop
  endfacet
  facet normal -1.000000e+00 8.958630e-13 3.530876e-15
    outer loop
      vertex 2.556410e+02 2.249698e+01 -4.282811e+02
      vertex 2.556410e+02 2.566895e+01 -4.281343e+02
      vertex 2.556410e+02 2.263569e+01 -4.312779e+02
    endloop
  endfacet
  facet normal -4.131870e-14 -4.623778e-02 9.989305e-01
    outer loop
      vertex 2.556410e+02 2.263569e+01 -4.312779e+02
      vertex 2.556410e+02 2.583008e+01 -4.311300e+02
      vertex 1.584000e+02 2.583008e+01 -4.311300e+02
    endloop
  endfacet
  facet normal 7.071068e-01 -3.269504e-02 7.063505e-01
    outer loop
      vertex 1.584000e+02 2.263569e+01 -4.312779e+02
      vertex 1.584000e+02 2.583008e+01 -4.311300e+02
      vertex 1.569000e+02 2.574951e+01 -4.296322e+02
    endloop
  endfacet
  facet normal -4.132037e-14 -4.623778e-02 9.989305e-01
    outer loop
      vertex 2.556410e+02 2.263569e+01 -4.312779e+02
      vertex 1.584000e+02 2.583008e+01 -4.311300e+02
      vertex 1.584000e+02 2.263569e+01 -4.312779e+02
    endloop
  endfacet
  facet normal 7.071068e-01 -3.269505e-02 7.063505e-01
    outer loop
      vertex 1.584000e+02 2.263569e+01 -4.312779e+02
      vertex 1.569000e+02 2.574951e+01 -4.296322e+02
      vertex 1.569000e+02 2.256633e+01 -4.297795e+02
    endloop
  endfacet
  facet normal -4.131892e-14 -4.623778e-02 9.989305e-01
    outer loop
      vertex 2.717000e+02 2.207232e+01 -3.969172e+02
      vertex 2.717000e+02 2.390018e+01 -3.968326e+02
      vertex 1.008107e+02 2.390018e+01 -3.968326e+02
    endloop
  endfacet
  facet normal 8.926626e-13 9.989305e-01 4.623778e-02
    outer loop
      vertex 9.977240e+01 2.399266e+01 -3.988304e+02
      vertex 1.008107e+02 2.390018e+01 -3.968326e+02
      vertex 2.717000e+02 2.390018e+01 -3.968326e+02
    endloop
  endfacet
  facet normal -4.131893e-14 -4.623778e-02 9.989305e-01
    outer loop
      vertex 1.008107e+02 2.207232e+01 -3.969172e+02
      vertex 2.717000e+02 2.207232e+01 -3.969172e+02
      vertex 1.008107e+02 2.390018e+01 -3.968326e+02
    endloop
  endfacet
  facet normal -3.321065e-01 -4.361341e-02 9.422330e-01
    outer loop
      vertex 1.003408e+02 2.390783e+01 -3.969978e+02
      vertex 1.008107e+02 2.207232e+01 -3.969172e+02
      vertex 1.008107e+02 2.390018e+01 -3.968326e+02
    endloop
  endfacet
  facet normal 8.805439e-13 9.989305e-01 4.623778e-02
    outer loop
      vertex 1.003408e+02 2.390783e+01 -3.969978e+02
      vertex 1.008107e+02 2.390018e+01 -3.968326e+02
      vertex 9.977240e+01 2.399266e+01 -3.988304e+02
    endloop
  endfacet
  facet normal 3.826834e-01 -4.271813e-02 9.228914e-01
    outer loop
      vertex 2.722303e+02 2.208248e+01 -3.971366e+02
      vertex 2.717000e+02 2.390018e+01 -3.968326e+02
      vertex 2.717000e+02 2.207232e+01 -3.969172e+02
    endloop
  endfacet
  facet normal 3.826834e-01 -4.271813e-02 9.228914e-01
    outer loop
      vertex 2.722303e+02 2.391034e+01 -3.970520e+02
      vertex 2.717000e+02 2.390018e+01 -3.968326e+02
      vertex 2.722303e+02 2.208248e+01 -3.971366e+02
    endloop
  endfacet
  facet normal 8.930699e-13 9.989305e-01 4.623778e-02
    outer loop
      vertex 2.722303e+02 2.391034e+01 -3.970520e+02
      vertex 9.977240e+01 2.399266e+01 -3.988304e+02
      vertex 2.717000e+02 2.390018e+01 -3.968326e+02
    endloop
  endfacet
  facet normal 8.926626e-13 9.989305e-01 4.623778e-02
    outer loop
      vertex 2.717000e+02 2.195673e+01 -3.944199e+02
      vertex 2.717000e+02 2.207232e+01 -3.969172e+02
      vertex 1.008107e+02 2.207232e+01 -3.969172e+02
    endloop
  endfacet
  facet normal 8.989285e-13 9.989305e-01 4.623778e-02
    outer loop
      vertex 2.722303e+02 2.194657e+01 -3.942004e+02
      vertex 2.722303e+02 2.208248e+01 -3.971366e+02
      vertex 2.717000e+02 2.207232e+01 -3.969172e+02
    endloop
  endfacet
  facet normal 8.941179e-13 9.989305e-01 4.623778e-02
    outer loop
      vertex 2.717000e+02 2.195673e+01 -3.944199e+02
      vertex 2.722303e+02 2.194657e+01 -3.942004e+02
      vertex 2.717000e+02 2.207232e+01 -3.969172e+02
    endloop
  endfacet
  facet normal 8.926675e-13 9.989305e-01 4.623778e-02
    outer loop
      vertex 1.017180e+02 2.195673e+01 -3.944199e+02
      vertex 2.717000e+02 2.195673e+01 -3.944199e+02
      vertex 1.008107e+02 2.207232e+01 -3.969172e+02
    endloop
  endfacet
  facet normal 8.907499e-13 9.989305e-01 4.623778e-02
    outer loop
      vertex 1.011704e+02 2.194574e+01 -3.941824e+02
      vertex 1.017180e+02 2.195673e+01 -3.944199e+02
      vertex 1.008107e+02 2.207232e+01 -3.969172e+02
    endloop
  endfacet
  facet normal 8.911905e-13 9.989305e-01 4.623778e-02
    outer loop
      vertex 1.009697e+02 2.191974e+01 -3.936207e+02
      vertex 1.011704e+02 2.194574e+01 -3.941824e+02
      vertex 1.008107e+02 2.207232e+01 -3.969172e+02
    endloop
  endfacet
  facet normal 8.912114e-13 9.989305e-01 4.623778e-02
    outer loop
      vertex 1.005121e+02 2.201026e+01 -3.955763e+02
      vertex 1.009697e+02 2.191974e+01 -3.936207e+02
      vertex 1.008107e+02 2.207232e+01 -3.969172e+02
    endloop
  endfacet
  facet normal 8.819663e-13 9.989305e-01 4.623778e-02
    outer loop
      vertex 1.003408e+02 2.207997e+01 -3.970825e+02
      vertex 1.005121e+02 2.201026e+01 -3.955763e+02
      vertex 1.008107e+02 2.207232e+01 -3.969172e+02
    endloop
  endfacet
  facet normal -3.321065e-01 -4.361341e-02 9.422330e-01
    outer loop
      vertex 1.003408e+02 2.390783e+01 -3.969978e+02
      vertex 1.003408e+02 2.207997e+01 -3.970825e+02
      vertex 1.008107e+02 2.207232e+01 -3.969172e+02
    endloop
  endfacet
  facet normal 3.826834e-01 4.271813e-02 -9.228914e-01
    outer loop
      vertex 2.722303e+02 2.311932e+01 -3.941461e+02
      vertex 2.722303e+02 2.194657e+01 -3.942004e+02
      vertex 2.717000e+02 2.195673e+01 -3.944199e+02
    endloop
  endfacet
  facet normal 4.131914e-14 4.623778e-02 -9.989305e-01
    outer loop
      vertex 2.717000e+02 2.312947e+01 -3.943656e+02
      vertex 2.717000e+02 2.195673e+01 -3.944199e+02
      vertex 1.017180e+02 2.195673e+01 -3.944199e+02
    endloop
  endfacet
  facet normal 3.826834e-01 4.271813e-02 -9.228914e-01
    outer loop
      vertex 2.722303e+02 2.311932e+01 -3.941461e+02
      vertex 2.717000e+02 2.195673e+01 -3.944199e+02
      vertex 2.717000e+02 2.312947e+01 -3.943656e+02
    endloop
  endfacet
  facet normal -3.981128e-01 4.241560e-02 -9.163554e-01
    outer loop
      vertex 1.017180e+02 2.312947e+01 -3.943656e+02
      vertex 1.017180e+02 2.195673e+01 -3.944199e+02
      vertex 1.011704e+02 2.194574e+01 -3.941824e+02
    endloop
  endfacet
  facet normal 4.131915e-14 4.623778e-02 -9.989305e-01
    outer loop
      vertex 1.017180e+02 2.312947e+01 -3.943656e+02
      vertex 2.717000e+02 2.312947e+01 -3.943656e+02
      vertex 1.017180e+02 2.195673e+01 -3.944199e+02
    endloop
  endfacet
  facet normal -9.418365e-01 1.553919e-02 -3.357119e-01
    outer loop
      vertex 1.011704e+02 2.311848e+01 -3.941281e+02
      vertex 1.011704e+02 2.194574e+01 -3.941824e+02
      vertex 1.009697e+02 2.191974e+01 -3.936207e+02
    endloop
  endfacet
  facet normal -3.981128e-01 4.241560e-02 -9.163554e-01
    outer loop
      vertex 1.011704e+02 2.311848e+01 -3.941281e+02
      vertex 1.017180e+02 2.312947e+01 -3.943656e+02
      vertex 1.011704e+02 2.194574e+01 -3.941824e+02
    endloop
  endfacet
  facet normal -9.737517e-01 -1.052432e-02 2.273695e-01
    outer loop
      vertex 1.009697e+02 2.089484e+01 -3.936682e+02
      vertex 1.009697e+02 2.191974e+01 -3.936207e+02
      vertex 1.005121e+02 2.201026e+01 -3.955763e+02
    endloop
  endfacet
  facet normal -9.418365e-01 1.553919e-02 -3.357119e-01
    outer loop
      vertex 1.011704e+02 2.311848e+01 -3.941281e+02
      vertex 1.009697e+02 2.191974e+01 -3.936207e+02
      vertex 1.009697e+02 2.309248e+01 -3.935664e+02
    endloop
  endfacet
  facet normal -4.313724e-14 -4.623778e-02 9.989305e-01
    outer loop
      vertex 2.012500e+02 2.089484e+01 -3.936682e+02
      vertex 1.009697e+02 2.309248e+01 -3.935664e+02
      vertex 1.009697e+02 2.191974e+01 -3.936207e+02
    endloop
  endfacet
  facet normal -4.131955e-14 -4.623778e-02 9.989305e-01
    outer loop
      vertex 2.012500e+02 2.089484e+01 -3.936682e+02
      vertex 1.009697e+02 2.191974e+01 -3.936207e+02
      vertex 1.009697e+02 2.089484e+01 -3.936682e+02
    endloop
  endfacet
  facet normal 9.080424e-13 9.989305e-01 4.623778e-02
    outer loop
      vertex 1.003408e+02 2.207997e+01 -3.970825e+02
      vertex 1.000782e+02 2.209955e+01 -3.975053e+02
      vertex 1.005121e+02 2.201026e+01 -3.955763e+02
    endloop
  endfacet
  facet normal -9.755363e-01 -2.698272e-02 2.181764e-01
    outer loop
      vertex 1.009697e+02 2.089484e+01 -3.936682e+02
      vertex 1.005121e+02 2.201026e+01 -3.955763e+02
      vertex 1.000782e+02 2.209955e+01 -3.975053e+02
    endloop
  endfacet
  facet normal -8.498012e-01 -2.437209e-02 5.265396e-01
    outer loop
      vertex 1.000782e+02 2.392741e+01 -3.974207e+02
      vertex 1.000782e+02 2.209955e+01 -3.975053e+02
      vertex 1.003408e+02 2.207997e+01 -3.970825e+02
    endloop
  endfacet
  facet normal -9.761800e-01 -4.970693e-02 2.111915e-01
    outer loop
      vertex 1.009697e+02 2.089484e+01 -3.936682e+02
      vertex 1.000782e+02 2.209955e+01 -3.975053e+02
      vertex 9.913254e+01 2.128367e+01 -4.020685e+02
    endloop
  endfacet
  facet normal -9.785805e-01 -1.433592e-02 2.053648e-01
    outer loop
      vertex 9.977240e+01 2.399266e+01 -3.988304e+02
      vertex 9.913254e+01 2.128367e+01 -4.020685e+02
      vertex 1.000782e+02 2.209955e+01 -3.975053e+02
    endloop
  endfacet
  facet normal -9.776596e-01 -1.100831e-02 2.099062e-01
    outer loop
      vertex 9.992344e+01 2.396017e+01 -3.981287e+02
      vertex 9.977240e+01 2.399266e+01 -3.988304e+02
      vertex 1.000782e+02 2.209955e+01 -3.975053e+02
    endloop
  endfacet
  facet normal -9.769707e-01 -9.865911e-03 2.131452e-01
    outer loop
      vertex 1.000782e+02 2.392741e+01 -3.974207e+02
      vertex 9.992344e+01 2.396017e+01 -3.981287e+02
      vertex 1.000782e+02 2.209955e+01 -3.975053e+02
    endloop
  endfacet
  facet normal -8.498012e-01 -2.437209e-02 5.265396e-01
    outer loop
      vertex 1.003408e+02 2.390783e+01 -3.969978e+02
      vertex 1.000782e+02 2.392741e+01 -3.974207e+02
      vertex 1.003408e+02 2.207997e+01 -3.970825e+02
    endloop
  endfacet
  facet normal 8.926675e-13 9.989305e-01 4.623778e-02
    outer loop
      vertex 2.012500e+02 2.309248e+01 -3.935664e+02
      vertex 2.717000e+02 2.312947e+01 -3.943656e+02
      vertex 1.017180e+02 2.312947e+01 -3.943656e+02
    endloop
  endfacet
  facet normal 8.925135e-13 9.989305e-01 4.623778e-02
    outer loop
      vertex 2.013500e+02 2.308786e+01 -3.934665e+02
      vertex 2.014000e+02 2.304162e+01 -3.924676e+02
      vertex 2.717000e+02 2.312947e+01 -3.943656e+02
    endloop
  endfacet
  facet normal 8.941676e-13 9.989305e-01 4.623778e-02
    outer loop
      vertex 2.013207e+02 2.309113e+01 -3.935372e+02
      vertex 2.013500e+02 2.308786e+01 -3.934665e+02
      vertex 2.717000e+02 2.312947e+01 -3.943656e+02
    endloop
  endfacet
  facet normal 8.907229e-13 9.989305e-01 4.623778e-02
    outer loop
      vertex 2.012500e+02 2.309248e+01 -3.935664e+02
      vertex 2.013207e+02 2.309113e+01 -3.935372e+02
      vertex 2.717000e+02 2.312947e+01 -3.943656e+02
    endloop
  endfacet
  facet normal 8.925942e-13 9.989305e-01 4.623778e-02
    outer loop
      vertex 1.011704e+02 2.311848e+01 -3.941281e+02
      vertex 2.012500e+02 2.309248e+01 -3.935664e+02
      vertex 1.017180e+02 2.312947e+01 -3.943656e+02
    endloop
  endfacet
  facet normal 9.377002e-13 9.989305e-01 4.623778e-02
    outer loop
      vertex 2.013500e+02 2.308786e+01 -3.934665e+02
      vertex 2.013500e+02 2.304393e+01 -3.925176e+02
      vertex 2.014000e+02 2.304162e+01 -3.924676e+02
    endloop
  endfacet
  facet normal -7.071068e-01 -3.269504e-02 7.063505e-01
    outer loop
      vertex 2.013500e+02 2.084629e+01 -3.926193e+02
      vertex 2.014000e+02 2.304162e+01 -3.924676e+02
      vertex 2.013500e+02 2.304393e+01 -3.925176e+02
    endloop
  endfacet
  facet normal -7.071068e-01 -3.269504e-02 7.063505e-01
    outer loop
      vertex 2.013500e+02 2.084629e+01 -3.926193e+02
      vertex 2.014000e+02 2.084398e+01 -3.925693e+02
      vertex 2.014000e+02 2.304162e+01 -3.924676e+02
    endloop
  endfacet
  facet normal -1.000000e+00 8.932214e-13 -1.855445e-14
    outer loop
      vertex 2.013500e+02 2.089021e+01 -3.935683e+02
      vertex 2.013500e+02 2.304393e+01 -3.925176e+02
      vertex 2.013500e+02 2.308786e+01 -3.934665e+02
    endloop
  endfacet
  facet normal -1.000000e+00 8.789329e-13 1.073380e-14
    outer loop
      vertex 2.013500e+02 2.084629e+01 -3.926193e+02
      vertex 2.013500e+02 2.304393e+01 -3.925176e+02
      vertex 2.013500e+02 2.089021e+01 -3.935683e+02
    endloop
  endfacet
  facet normal -9.238795e-01 -1.769443e-02 3.822741e-01
    outer loop
      vertex 2.013500e+02 2.089021e+01 -3.935683e+02
      vertex 2.013500e+02 2.308786e+01 -3.934665e+02
      vertex 2.013207e+02 2.309113e+01 -3.935372e+02
    endloop
  endfacet
  facet normal -3.826834e-01 -4.271813e-02 9.228914e-01
    outer loop
      vertex 2.013207e+02 2.089348e+01 -3.936389e+02
      vertex 2.013207e+02 2.309113e+01 -3.935372e+02
      vertex 2.012500e+02 2.309248e+01 -3.935664e+02
    endloop
  endfacet
  facet normal -9.238795e-01 -1.769443e-02 3.822741e-01
    outer loop
      vertex 2.013500e+02 2.089021e+01 -3.935683e+02
      vertex 2.013207e+02 2.309113e+01 -3.935372e+02
      vertex 2.013207e+02 2.089348e+01 -3.936389e+02
    endloop
  endfacet
  facet normal 8.926760e-13 9.989305e-01 4.623778e-02
    outer loop
      vertex 1.011704e+02 2.311848e+01 -3.941281e+02
      vertex 1.009697e+02 2.309248e+01 -3.935664e+02
      vertex 2.012500e+02 2.309248e+01 -3.935664e+02
    endloop
  endfacet
  facet normal -4.131960e-14 -4.623778e-02 9.989305e-01
    outer loop
      vertex 2.012500e+02 2.089484e+01 -3.936682e+02
      vertex 2.012500e+02 2.309248e+01 -3.935664e+02
      vertex 1.009697e+02 2.309248e+01 -3.935664e+02
    endloop
  endfacet
  facet normal -3.826834e-01 -4.271813e-02 9.228914e-01
    outer loop
      vertex 2.013207e+02 2.089348e+01 -3.936389e+02
      vertex 2.012500e+02 2.309248e+01 -3.935664e+02
      vertex 2.012500e+02 2.089484e+01 -3.936682e+02
    endloop
  endfacet
  facet normal -9.222188e-13 -9.989305e-01 -4.623778e-02
    outer loop
      vertex 2.556410e+02 2.249698e+01 -4.282811e+02
      vertex 2.014000e+02 2.084398e+01 -3.925693e+02
      vertex 2.013500e+02 2.084629e+01 -3.926193e+02
    endloop
  endfacet
  facet normal -8.930616e-13 -9.989305e-01 -4.623778e-02
    outer loop
      vertex 9.779575e+01 2.163129e+01 -4.095786e+02
      vertex 9.730233e+01 2.365550e+01 -4.533101e+02
      vertex 9.848149e+01 2.395359e+01 -4.597500e+02
    endloop
  endfacet
  facet normal -8.910312e-13 -9.989305e-01 -4.623778e-02
    outer loop
      vertex 9.913254e+01 2.128367e+01 -4.020685e+02
      vertex 9.779575e+01 2.163129e+01 -4.095786e+02
      vertex 9.848149e+01 2.395359e+01 -4.597500e+02
    endloop
  endfacet
  facet normal -9.663315e-01 -2.837044e-02 -2.557314e-01
    outer loop
      vertex 9.967948e+01 2.754366e+01 -4.646751e+02
      vertex 9.986493e+01 2.757627e+01 -4.653795e+02
      vertex 9.848149e+01 2.395359e+01 -4.597500e+02
    endloop
  endfacet
  facet normal -9.683053e-01 -1.858349e-02 -2.490774e-01
    outer loop
      vertex 9.949053e+01 2.750954e+01 -4.639380e+02
      vertex 9.967948e+01 2.754366e+01 -4.646751e+02
      vertex 9.848149e+01 2.395359e+01 -4.597500e+02
    endloop
  endfacet
  facet normal -8.858950e-13 -9.989305e-01 -4.623778e-02
    outer loop
      vertex 9.628000e+01 2.222098e+01 -4.223184e+02
      vertex 9.628000e+01 2.325556e+01 -4.446697e+02
      vertex 9.730233e+01 2.365550e+01 -4.533101e+02
    endloop
  endfacet
  facet normal -9.007248e-13 -9.989305e-01 -4.623778e-02
    outer loop
      vertex 9.687091e+01 2.194242e+01 -4.163003e+02
      vertex 9.628000e+01 2.222098e+01 -4.223184e+02
      vertex 9.730233e+01 2.365550e+01 -4.533101e+02
    endloop
  endfacet
  facet normal -8.899534e-13 -9.989305e-01 -4.623778e-02
    outer loop
      vertex 9.779575e+01 2.163129e+01 -4.095786e+02
      vertex 9.687091e+01 2.194242e+01 -4.163003e+02
      vertex 9.730233e+01 2.365550e+01 -4.533101e+02
    endloop
  endfacet
  facet normal -7.071068e-01 -7.063505e-01 -3.269504e-02
    outer loop
      vertex 9.583006e+01 2.320078e+01 -4.337551e+02
      vertex 9.628000e+01 2.325556e+01 -4.446697e+02
      vertex 9.628000e+01 2.222098e+01 -4.223184e+02
    endloop
  endfacet
  facet normal -9.992315e-01 -1.832808e-03 3.915432e-02
    outer loop
      vertex 9.583006e+01 2.320078e+01 -4.337551e+02
      vertex 9.628000e+01 2.222098e+01 -4.223184e+02
      vertex 9.583006e+01 2.551486e+01 -4.336469e+02
    endloop
  endfacet
  facet normal -8.926772e-13 -9.989305e-01 -4.623778e-02
    outer loop
      vertex 1.584000e+02 2.249698e+01 -4.282811e+02
      vertex 2.012500e+02 2.089484e+01 -3.936682e+02
      vertex 1.009697e+02 2.089484e+01 -3.936682e+02
    endloop
  endfacet
  facet normal -8.919664e-13 -9.989305e-01 -4.623778e-02
    outer loop
      vertex 1.569000e+02 2.256633e+01 -4.297795e+02
      vertex 1.584000e+02 2.249698e+01 -4.282811e+02
      vertex 1.009697e+02 2.089484e+01 -3.936682e+02
    endloop
  endfacet
  facet normal -8.985530e-13 -9.989305e-01 -4.623778e-02
    outer loop
      vertex 1.584000e+02 2.263569e+01 -4.312779e+02
      vertex 1.569000e+02 2.256633e+01 -4.297795e+02
      vertex 1.009697e+02 2.089484e+01 -3.936682e+02
    endloop
  endfacet
  facet normal -8.488131e-13 -9.989305e-01 -4.623778e-02
    outer loop
      vertex 2.556410e+02 2.249698e+01 -4.282811e+02
      vertex 2.013207e+02 2.089348e+01 -3.936389e+02
      vertex 2.012500e+02 2.089484e+01 -3.936682e+02
    endloop
  endfacet
  facet normal -8.926938e-13 -9.989305e-01 -4.623778e-02
    outer loop
      vertex 2.556410e+02 2.249698e+01 -4.282811e+02
      vertex 2.012500e+02 2.089484e+01 -3.936682e+02
      vertex 1.584000e+02 2.249698e+01 -4.282811e+02
    endloop
  endfacet
  facet normal -9.421709e-13 -9.989305e-01 -4.623778e-02
    outer loop
      vertex 2.556410e+02 2.249698e+01 -4.282811e+02
      vertex 2.013500e+02 2.089021e+01 -3.935683e+02
      vertex 2.013207e+02 2.089348e+01 -3.936389e+02
    endloop
  endfacet
  facet normal -8.885840e-13 -9.989305e-01 -4.623778e-02
    outer loop
      vertex 2.556410e+02 2.249698e+01 -4.282811e+02
      vertex 2.013500e+02 2.084629e+01 -3.926193e+02
      vertex 2.013500e+02 2.089021e+01 -3.935683e+02
    endloop
  endfacet
  facet normal 7.521769e-13 9.989305e-01 4.623778e-02
    outer loop
      vertex 1.000782e+02 2.392741e+01 -3.974207e+02
      vertex 9.977240e+01 2.399266e+01 -3.988304e+02
      vertex 9.992344e+01 2.396017e+01 -3.981287e+02
    endloop
  endfacet
  facet normal 8.859251e-13 9.989305e-01 4.623778e-02
    outer loop
      vertex 1.003408e+02 2.390783e+01 -3.969978e+02
      vertex 9.977240e+01 2.399266e+01 -3.988304e+02
      vertex 1.000782e+02 2.392741e+01 -3.974207e+02
    endloop
  endfacet
endsolid P1040852002
