solid P1040852002
  facet normal -1.000000e+00 1.939178e-13 2.721803e-12
    outer loop
      vertex -1.890140e+02 -2.481647e+01 -4.683609e+02
      vertex -1.890140e+02 -2.170910e+01 -3.977213e+02
      vertex -1.890140e+02 -2.147535e+01 -3.937281e+02
    endloop
  endfacet
  facet normal 1.585867e-13 -9.982910e-01 5.843826e-02
    outer loop
      vertex -1.887943e+02 -2.167811e+01 -3.971919e+02
      vertex -1.890140e+02 -2.147535e+01 -3.937281e+02
      vertex -1.890140e+02 -2.170910e+01 -3.977213e+02
    endloop
  endfacet
  facet normal -1.000000e+00 -1.450003e-14 2.731134e-12
    outer loop
      vertex -1.890140e+02 -2.038390e+01 -3.926401e+02
      vertex -1.890140e+02 -2.481647e+01 -4.683609e+02
      vertex -1.890140e+02 -2.147535e+01 -3.937281e+02
    endloop
  endfacet
  facet normal -1.000000e+00 3.524621e-15 2.713053e-12
    outer loop
      vertex -1.890140e+02 -2.258014e+01 -3.925115e+02
      vertex -1.890140e+02 -2.038390e+01 -3.926401e+02
      vertex -1.890140e+02 -2.147535e+01 -3.937281e+02
    endloop
  endfacet
  facet normal -1.000000e+00 1.386263e-14 2.722441e-12
    outer loop
      vertex -1.890140e+02 -2.264734e+01 -3.936595e+02
      vertex -1.890140e+02 -2.258014e+01 -3.925115e+02
      vertex -1.890140e+02 -2.147535e+01 -3.937281e+02
    endloop
  endfacet
  facet normal -9.238795e-01 -2.236335e-02 -3.820294e-01
    outer loop
      vertex -1.887943e+02 -2.150634e+01 -3.942576e+02
      vertex -1.890140e+02 -2.264734e+01 -3.936595e+02
      vertex -1.890140e+02 -2.147535e+01 -3.937281e+02
    endloop
  endfacet
  facet normal 1.768885e-13 -9.982910e-01 5.843826e-02
    outer loop
      vertex -1.887943e+02 -2.150634e+01 -3.942576e+02
      vertex -1.890140e+02 -2.147535e+01 -3.937281e+02
      vertex -1.887943e+02 -2.167811e+01 -3.971919e+02
    endloop
  endfacet
  facet normal -1.000000e+00 -1.129257e-14 2.730830e-12
    outer loop
      vertex -1.890140e+02 -2.481647e+01 -4.683609e+02
      vertex -1.890140e+02 -2.353579e+01 -3.976144e+02
      vertex -1.890140e+02 -2.170910e+01 -3.977213e+02
    endloop
  endfacet
  facet normal -9.238795e-01 2.236335e-02 3.820294e-01
    outer loop
      vertex -1.887943e+02 -2.350480e+01 -3.970849e+02
      vertex -1.890140e+02 -2.170910e+01 -3.977213e+02
      vertex -1.890140e+02 -2.353579e+01 -3.976144e+02
    endloop
  endfacet
  facet normal -9.238795e-01 2.236335e-02 3.820294e-01
    outer loop
      vertex -1.887943e+02 -2.350480e+01 -3.970849e+02
      vertex -1.887943e+02 -2.167811e+01 -3.971919e+02
      vertex -1.890140e+02 -2.170910e+01 -3.977213e+02
    endloop
  endfacet
  facet normal -1.000000e+00 -5.007242e-13 2.739690e-12
    outer loop
      vertex -1.890140e+02 -2.481647e+01 -4.683609e+02
      vertex -1.890140e+02 -2.360884e+01 -3.988622e+02
      vertex -1.890140e+02 -2.353579e+01 -3.976144e+02
    endloop
  endfacet
  facet normal 1.613606e-13 -9.982910e-01 5.843826e-02
    outer loop
      vertex -1.633640e+01 -2.360884e+01 -3.988622e+02
      vertex -1.890140e+02 -2.353579e+01 -3.976144e+02
      vertex -1.890140e+02 -2.360884e+01 -3.988622e+02
    endloop
  endfacet
  facet normal 1.613094e-13 -9.982910e-01 5.843826e-02
    outer loop
      vertex -1.887943e+02 -2.350480e+01 -3.970849e+02
      vertex -1.890140e+02 -2.353579e+01 -3.976144e+02
      vertex -1.633640e+01 -2.360884e+01 -3.988622e+02
    endloop
  endfacet
  facet normal -1.000000e+00 4.441194e-13 2.723272e-12
    outer loop
      vertex -1.890140e+02 -2.481647e+01 -4.683609e+02
      vertex -1.890140e+02 -2.370867e+01 -3.988564e+02
      vertex -1.890140e+02 -2.360884e+01 -3.988622e+02
    endloop
  endfacet
  facet normal 2.725515e-12 5.843826e-02 9.982910e-01
    outer loop
      vertex -1.633640e+01 -2.370867e+01 -3.988564e+02
      vertex -1.890140e+02 -2.360884e+01 -3.988622e+02
      vertex -1.890140e+02 -2.370867e+01 -3.988564e+02
    endloop
  endfacet
  facet normal 2.725515e-12 5.843826e-02 9.982910e-01
    outer loop
      vertex -1.633640e+01 -2.360884e+01 -3.988622e+02
      vertex -1.890140e+02 -2.360884e+01 -3.988622e+02
      vertex -1.633640e+01 -2.370867e+01 -3.988564e+02
    endloop
  endfacet
  facet normal -1.000000e+00 1.591867e-13 2.719360e-12
    outer loop
      vertex -1.890140e+02 -2.792088e+01 -4.639220e+02
      vertex -1.890140e+02 -2.800577e+01 -4.639170e+02
      vertex -1.890140e+02 -2.370867e+01 -3.988564e+02
    endloop
  endfacet
  facet normal 1.819556e-13 -9.978260e-01 6.590419e-02
    outer loop
      vertex -1.722050e+02 -2.584073e+01 -4.311370e+02
      vertex -1.890140e+02 -2.370867e+01 -3.988564e+02
      vertex -1.890140e+02 -2.800577e+01 -4.639170e+02
    endloop
  endfacet
  facet normal -1.000000e+00 -1.404957e-14 2.730575e-12
    outer loop
      vertex -1.890140e+02 -2.481647e+01 -4.683609e+02
      vertex -1.890140e+02 -2.792088e+01 -4.639220e+02
      vertex -1.890140e+02 -2.370867e+01 -3.988564e+02
    endloop
  endfacet
  facet normal 1.817438e-13 -9.978260e-01 6.590419e-02
    outer loop
      vertex -7.496400e+01 -2.564301e+01 -4.281434e+02
      vertex -1.633640e+01 -2.370867e+01 -3.988564e+02
      vertex -1.890140e+02 -2.370867e+01 -3.988564e+02
    endloop
  endfacet
  facet normal 1.817350e-13 -9.978260e-01 6.590419e-02
    outer loop
      vertex -1.722050e+02 -2.564301e+01 -4.281434e+02
      vertex -7.496400e+01 -2.564301e+01 -4.281434e+02
      vertex -1.890140e+02 -2.370867e+01 -3.988564e+02
    endloop
  endfacet
  facet normal 1.828546e-13 -9.978260e-01 6.590419e-02
    outer loop
      vertex -1.722050e+02 -2.584073e+01 -4.311370e+02
      vertex -1.722050e+02 -2.564301e+01 -4.281434e+02
      vertex -1.890140e+02 -2.370867e+01 -3.988564e+02
    endloop
  endfacet
  facet normal -2.725666e-12 -5.843826e-02 -9.982910e-01
    outer loop
      vertex -1.605453e+01 -2.792088e+01 -4.639220e+02
      vertex -1.890140e+02 -2.800577e+01 -4.639170e+02
      vertex -1.890140e+02 -2.792088e+01 -4.639220e+02
    endloop
  endfacet
  facet normal 1.817508e-13 -9.978260e-01 6.590419e-02
    outer loop
      vertex -1.722050e+02 -2.584073e+01 -4.311370e+02
      vertex -1.890140e+02 -2.800577e+01 -4.639170e+02
      vertex -1.605453e+01 -2.800577e+01 -4.639170e+02
    endloop
  endfacet
  facet normal -2.725666e-12 -5.843826e-02 -9.982910e-01
    outer loop
      vertex -1.605453e+01 -2.792088e+01 -4.639220e+02
      vertex -1.605453e+01 -2.800577e+01 -4.639170e+02
      vertex -1.890140e+02 -2.800577e+01 -4.639170e+02
    endloop
  endfacet
  facet normal -1.000000e+00 -3.723669e-14 2.735457e-12
    outer loop
      vertex -1.890140e+02 -2.712989e+01 -4.652204e+02
      vertex -1.890140e+02 -2.799393e+01 -4.651698e+02
      vertex -1.890140e+02 -2.792088e+01 -4.639220e+02
    endloop
  endfacet
  facet normal 1.223641e-13 -9.982910e-01 5.843826e-02
    outer loop
      vertex -1.887943e+02 -2.802492e+01 -4.656992e+02
      vertex -1.890140e+02 -2.792088e+01 -4.639220e+02
      vertex -1.890140e+02 -2.799393e+01 -4.651698e+02
    endloop
  endfacet
  facet normal -1.000000e+00 1.967988e-13 2.878033e-12
    outer loop
      vertex -1.890140e+02 -2.481647e+01 -4.683609e+02
      vertex -1.890140e+02 -2.712989e+01 -4.652204e+02
      vertex -1.890140e+02 -2.792088e+01 -4.639220e+02
    endloop
  endfacet
  facet normal 1.613424e-13 -9.982910e-01 5.843826e-02
    outer loop
      vertex -1.715365e+01 -2.803775e+01 -4.659185e+02
      vertex -1.890140e+02 -2.792088e+01 -4.639220e+02
      vertex -1.882640e+02 -2.803775e+01 -4.659185e+02
    endloop
  endfacet
  facet normal 1.724503e-13 -9.982910e-01 5.843826e-02
    outer loop
      vertex -1.887943e+02 -2.802492e+01 -4.656992e+02
      vertex -1.882640e+02 -2.803775e+01 -4.659185e+02
      vertex -1.890140e+02 -2.792088e+01 -4.639220e+02
    endloop
  endfacet
  facet normal 1.612328e-13 -9.982910e-01 5.843826e-02
    outer loop
      vertex -1.669670e+01 -2.802867e+01 -4.657634e+02
      vertex -1.890140e+02 -2.792088e+01 -4.639220e+02
      vertex -1.715365e+01 -2.803775e+01 -4.659185e+02
    endloop
  endfacet
  facet normal 1.613764e-13 -9.982910e-01 5.843826e-02
    outer loop
      vertex -1.624348e+01 -2.796400e+01 -4.646586e+02
      vertex -1.890140e+02 -2.792088e+01 -4.639220e+02
      vertex -1.642893e+01 -2.800521e+01 -4.653625e+02
    endloop
  endfacet
  facet normal 1.614526e-13 -9.982910e-01 5.843826e-02
    outer loop
      vertex -1.669670e+01 -2.802867e+01 -4.657634e+02
      vertex -1.642893e+01 -2.800521e+01 -4.653625e+02
      vertex -1.890140e+02 -2.792088e+01 -4.639220e+02
    endloop
  endfacet
  facet normal 1.613665e-13 -9.982910e-01 5.843826e-02
    outer loop
      vertex -1.605453e+01 -2.792088e+01 -4.639220e+02
      vertex -1.890140e+02 -2.792088e+01 -4.639220e+02
      vertex -1.624348e+01 -2.796400e+01 -4.646586e+02
    endloop
  endfacet
  facet normal -9.238795e-01 -2.236335e-02 -3.820294e-01
    outer loop
      vertex -1.887943e+02 -2.716089e+01 -4.657498e+02
      vertex -1.890140e+02 -2.799393e+01 -4.651698e+02
      vertex -1.890140e+02 -2.712989e+01 -4.652204e+02
    endloop
  endfacet
  facet normal -9.238795e-01 -2.236335e-02 -3.820294e-01
    outer loop
      vertex -1.887943e+02 -2.802492e+01 -4.656992e+02
      vertex -1.890140e+02 -2.799393e+01 -4.651698e+02
      vertex -1.887943e+02 -2.716089e+01 -4.657498e+02
    endloop
  endfacet
  facet normal -1.000000e+00 -1.182261e-14 2.724357e-12
    outer loop
      vertex -1.890140e+02 -2.481647e+01 -4.683609e+02
      vertex -1.890140e+02 -2.730521e+01 -4.682152e+02
      vertex -1.890140e+02 -2.712989e+01 -4.652204e+02
    endloop
  endfacet
  facet normal 1.410923e-13 -9.982910e-01 5.843826e-02
    outer loop
      vertex -1.887943e+02 -2.716089e+01 -4.657498e+02
      vertex -1.890140e+02 -2.712989e+01 -4.652204e+02
      vertex -1.890140e+02 -2.730521e+01 -4.682152e+02
    endloop
  endfacet
  facet normal -2.725583e-12 -5.843826e-02 -9.982910e-01
    outer loop
      vertex -1.721504e+01 -2.481647e+01 -4.683609e+02
      vertex -1.890140e+02 -2.730521e+01 -4.682152e+02
      vertex -1.890140e+02 -2.481647e+01 -4.683609e+02
    endloop
  endfacet
  facet normal -2.725583e-12 -5.843826e-02 -9.982910e-01
    outer loop
      vertex -1.721504e+01 -2.481647e+01 -4.683609e+02
      vertex -1.721504e+01 -2.730521e+01 -4.682152e+02
      vertex -1.890140e+02 -2.730521e+01 -4.682152e+02
    endloop
  endfacet
  facet normal 1.613326e-13 -9.982910e-01 5.843826e-02
    outer loop
      vertex -1.882640e+02 -2.717372e+01 -4.659691e+02
      vertex -1.890140e+02 -2.730521e+01 -4.682152e+02
      vertex -1.721504e+01 -2.730521e+01 -4.682152e+02
    endloop
  endfacet
  facet normal 1.655223e-13 -9.982910e-01 5.843826e-02
    outer loop
      vertex -1.887943e+02 -2.716089e+01 -4.657498e+02
      vertex -1.890140e+02 -2.730521e+01 -4.682152e+02
      vertex -1.882640e+02 -2.717372e+01 -4.659691e+02
    endloop
  endfacet
  facet normal -1.615951e-13 9.982910e-01 -5.843826e-02
    outer loop
      vertex -1.722050e+02 -2.247307e+01 -4.283290e+02
      vertex -1.890140e+02 -2.481647e+01 -4.683609e+02
      vertex -1.890140e+02 -2.038390e+01 -3.926401e+02
    endloop
  endfacet
  facet normal -1.613313e-13 9.982910e-01 -5.843826e-02
    outer loop
      vertex -7.496400e+01 -2.264838e+01 -4.313238e+02
      vertex -1.721504e+01 -2.481647e+01 -4.683609e+02
      vertex -1.890140e+02 -2.481647e+01 -4.683609e+02
    endloop
  endfacet
  facet normal -1.613546e-13 9.982910e-01 -5.843826e-02
    outer loop
      vertex -1.722050e+02 -2.264838e+01 -4.313238e+02
      vertex -7.496400e+01 -2.264838e+01 -4.313238e+02
      vertex -1.890140e+02 -2.481647e+01 -4.683609e+02
    endloop
  endfacet
  facet normal -1.532520e-13 9.982910e-01 -5.843826e-02
    outer loop
      vertex -1.722050e+02 -2.247307e+01 -4.283290e+02
      vertex -1.722050e+02 -2.264838e+01 -4.313238e+02
      vertex -1.890140e+02 -2.481647e+01 -4.683609e+02
    endloop
  endfacet
  facet normal 2.724994e-12 5.843826e-02 9.982910e-01
    outer loop
      vertex -1.179640e+02 -2.258014e+01 -3.925115e+02
      vertex -1.890140e+02 -2.038390e+01 -3.926401e+02
      vertex -1.890140e+02 -2.258014e+01 -3.925115e+02
    endloop
  endfacet
  facet normal 2.724994e-12 5.843826e-02 9.982910e-01
    outer loop
      vertex -1.179640e+02 -2.038390e+01 -3.926401e+02
      vertex -1.890140e+02 -2.038390e+01 -3.926401e+02
      vertex -1.179640e+02 -2.258014e+01 -3.925115e+02
    endloop
  endfacet
  facet normal -1.613188e-13 9.982910e-01 -5.843826e-02
    outer loop
      vertex -1.722050e+02 -2.247307e+01 -4.283290e+02
      vertex -1.890140e+02 -2.038390e+01 -3.926401e+02
      vertex -1.179640e+02 -2.038390e+01 -3.926401e+02
    endloop
  endfacet
  facet normal 1.411014e-13 -9.982910e-01 5.843826e-02
    outer loop
      vertex -1.887943e+02 -2.267833e+01 -3.941890e+02
      vertex -1.890140e+02 -2.258014e+01 -3.925115e+02
      vertex -1.890140e+02 -2.264734e+01 -3.936595e+02
    endloop
  endfacet
  facet normal 1.613197e-13 -9.982910e-01 5.843826e-02
    outer loop
      vertex -1.179640e+02 -2.258014e+01 -3.925115e+02
      vertex -1.890140e+02 -2.258014e+01 -3.925115e+02
      vertex -1.882640e+02 -2.269117e+01 -3.944082e+02
    endloop
  endfacet
  facet normal 1.678713e-13 -9.982910e-01 5.843826e-02
    outer loop
      vertex -1.887943e+02 -2.267833e+01 -3.941890e+02
      vertex -1.882640e+02 -2.269117e+01 -3.944082e+02
      vertex -1.890140e+02 -2.258014e+01 -3.925115e+02
    endloop
  endfacet
  facet normal -9.238795e-01 -2.236335e-02 -3.820294e-01
    outer loop
      vertex -1.887943e+02 -2.267833e+01 -3.941890e+02
      vertex -1.890140e+02 -2.264734e+01 -3.936595e+02
      vertex -1.887943e+02 -2.150634e+01 -3.942576e+02
    endloop
  endfacet
  facet normal 9.696075e-01 -1.429784e-02 -2.442477e-01
    outer loop
      vertex -1.504549e+01 -2.431402e+01 -4.597777e+02
      vertex -1.721504e+01 -2.730521e+01 -4.682152e+02
      vertex -1.721504e+01 -2.481647e+01 -4.683609e+02
    endloop
  endfacet
  facet normal 1.613217e-13 -9.982910e-01 5.843826e-02
    outer loop
      vertex -1.715365e+01 -2.717372e+01 -4.659691e+02
      vertex -1.882640e+02 -2.717372e+01 -4.659691e+02
      vertex -1.721504e+01 -2.730521e+01 -4.682152e+02
    endloop
  endfacet
  facet normal 1.873321e-13 -9.982910e-01 5.843826e-02
    outer loop
      vertex -1.683246e+01 -2.722737e+01 -4.668856e+02
      vertex -1.715365e+01 -2.717372e+01 -4.659691e+02
      vertex -1.721504e+01 -2.730521e+01 -4.682152e+02
    endloop
  endfacet
  facet normal 9.547637e-01 9.872550e-02 -2.804988e-01
    outer loop
      vertex -1.504549e+01 -2.431402e+01 -4.597777e+02
      vertex -1.683246e+01 -2.722737e+01 -4.668856e+02
      vertex -1.721504e+01 -2.730521e+01 -4.682152e+02
    endloop
  endfacet
  facet normal -1.596184e-13 9.982910e-01 -5.843826e-02
    outer loop
      vertex -1.569654e+01 -2.093961e+01 -4.021332e+02
      vertex -1.504549e+01 -2.431402e+01 -4.597777e+02
      vertex -1.721504e+01 -2.481647e+01 -4.683609e+02
    endloop
  endfacet
  facet normal -1.657496e-13 9.982910e-01 -5.843826e-02
    outer loop
      vertex -1.753371e+01 -2.044818e+01 -3.937382e+02
      vertex -1.569654e+01 -2.093961e+01 -4.021332e+02
      vertex -1.721504e+01 -2.481647e+01 -4.683609e+02
    endloop
  endfacet
  facet normal -1.613788e-13 9.982910e-01 -5.843826e-02
    outer loop
      vertex -7.496400e+01 -2.264838e+01 -4.313238e+02
      vertex -1.753371e+01 -2.044818e+01 -3.937382e+02
      vertex -1.721504e+01 -2.481647e+01 -4.683609e+02
    endloop
  endfacet
  facet normal -2.725277e-12 -5.843826e-02 -9.982910e-01
    outer loop
      vertex -1.882640e+02 -2.803775e+01 -4.659185e+02
      vertex -1.882640e+02 -2.717372e+01 -4.659691e+02
      vertex -1.715365e+01 -2.717372e+01 -4.659691e+02
    endloop
  endfacet
  facet normal -3.826834e-01 -5.398991e-02 -9.223006e-01
    outer loop
      vertex -1.887943e+02 -2.802492e+01 -4.656992e+02
      vertex -1.887943e+02 -2.716089e+01 -4.657498e+02
      vertex -1.882640e+02 -2.717372e+01 -4.659691e+02
    endloop
  endfacet
  facet normal -3.826834e-01 -5.398991e-02 -9.223006e-01
    outer loop
      vertex -1.887943e+02 -2.802492e+01 -4.656992e+02
      vertex -1.882640e+02 -2.717372e+01 -4.659691e+02
      vertex -1.882640e+02 -2.803775e+01 -4.659185e+02
    endloop
  endfacet
  facet normal 1.679019e-13 -9.982910e-01 5.843826e-02
    outer loop
      vertex -1.683246e+01 -2.722737e+01 -4.668856e+02
      vertex -1.669670e+01 -2.716464e+01 -4.658140e+02
      vertex -1.715365e+01 -2.717372e+01 -4.659691e+02
    endloop
  endfacet
  facet normal 3.219341e-01 -5.532713e-02 -9.451441e-01
    outer loop
      vertex -1.715365e+01 -2.803775e+01 -4.659185e+02
      vertex -1.715365e+01 -2.717372e+01 -4.659691e+02
      vertex -1.669670e+01 -2.716464e+01 -4.658140e+02
    endloop
  endfacet
  facet normal -2.725275e-12 -5.843826e-02 -9.982910e-01
    outer loop
      vertex -1.715365e+01 -2.803775e+01 -4.659185e+02
      vertex -1.882640e+02 -2.803775e+01 -4.659185e+02
      vertex -1.715365e+01 -2.717372e+01 -4.659691e+02
    endloop
  endfacet
  facet normal 1.846311e-13 -9.982910e-01 5.843826e-02
    outer loop
      vertex -1.683246e+01 -2.722737e+01 -4.668856e+02
      vertex -1.642893e+01 -2.714118e+01 -4.654131e+02
      vertex -1.669670e+01 -2.716464e+01 -4.658140e+02
    endloop
  endfacet
  facet normal 8.319805e-01 -3.242183e-02 -5.538568e-01
    outer loop
      vertex -1.669670e+01 -2.802867e+01 -4.657634e+02
      vertex -1.669670e+01 -2.716464e+01 -4.658140e+02
      vertex -1.642893e+01 -2.714118e+01 -4.654131e+02
    endloop
  endfacet
  facet normal 3.219341e-01 -5.532713e-02 -9.451441e-01
    outer loop
      vertex -1.669670e+01 -2.802867e+01 -4.657634e+02
      vertex -1.715365e+01 -2.803775e+01 -4.659185e+02
      vertex -1.669670e+01 -2.716464e+01 -4.658140e+02
    endloop
  endfacet
  facet normal 9.616570e-01 6.196301e-02 -2.671638e-01
    outer loop
      vertex -1.504549e+01 -2.431402e+01 -4.597777e+02
      vertex -1.642893e+01 -2.714118e+01 -4.654131e+02
      vertex -1.683246e+01 -2.722737e+01 -4.668856e+02
    endloop
  endfacet
  facet normal 9.726305e-01 -1.357855e-02 -2.319601e-01
    outer loop
      vertex -1.642893e+01 -2.800521e+01 -4.653625e+02
      vertex -1.642893e+01 -2.714118e+01 -4.654131e+02
      vertex -1.504549e+01 -2.431402e+01 -4.597777e+02
    endloop
  endfacet
  facet normal 8.319805e-01 -3.242183e-02 -5.538568e-01
    outer loop
      vertex -1.669670e+01 -2.802867e+01 -4.657634e+02
      vertex -1.642893e+01 -2.714118e+01 -4.654131e+02
      vertex -1.642893e+01 -2.800521e+01 -4.653625e+02
    endloop
  endfacet
  facet normal 1.823925e-13 -9.978260e-01 6.590419e-02
    outer loop
      vertex -1.605453e+01 -2.800577e+01 -4.639170e+02
      vertex -1.409376e+01 -2.452409e+01 -4.112023e+02
      vertex -1.633640e+01 -2.370867e+01 -3.988564e+02
    endloop
  endfacet
  facet normal 9.839665e-01 1.042266e-02 1.780485e-01
    outer loop
      vertex -1.633640e+01 -2.360884e+01 -3.988622e+02
      vertex -1.633640e+01 -2.370867e+01 -3.988564e+02
      vertex -1.409376e+01 -2.452409e+01 -4.112023e+02
    endloop
  endfacet
  facet normal 1.817145e-13 -9.978260e-01 6.590419e-02
    outer loop
      vertex -7.346400e+01 -2.574187e+01 -4.296402e+02
      vertex -1.605453e+01 -2.800577e+01 -4.639170e+02
      vertex -1.633640e+01 -2.370867e+01 -3.988564e+02
    endloop
  endfacet
  facet normal 1.813136e-13 -9.978260e-01 6.590419e-02
    outer loop
      vertex -7.346400e+01 -2.574187e+01 -4.296402e+02
      vertex -1.633640e+01 -2.370867e+01 -3.988564e+02
      vertex -7.496400e+01 -2.564301e+01 -4.281434e+02
    endloop
  endfacet
  facet normal 1.867550e-13 -9.978260e-01 6.590419e-02
    outer loop
      vertex -1.284400e+01 -2.672427e+01 -4.445143e+02
      vertex -1.284400e+01 -2.524961e+01 -4.221871e+02
      vertex -1.409376e+01 -2.452409e+01 -4.112023e+02
    endloop
  endfacet
  facet normal 9.931466e-01 -2.329218e-02 1.145304e-01
    outer loop
      vertex -1.343491e+01 -2.177218e+01 -4.163559e+02
      vertex -1.409376e+01 -2.452409e+01 -4.112023e+02
      vertex -1.284400e+01 -2.524961e+01 -4.221871e+02
    endloop
  endfacet
  facet normal 1.836894e-13 -9.978260e-01 6.590419e-02
    outer loop
      vertex -1.408146e+01 -2.738314e+01 -4.544899e+02
      vertex -1.284400e+01 -2.672427e+01 -4.445143e+02
      vertex -1.409376e+01 -2.452409e+01 -4.112023e+02
    endloop
  endfacet
  facet normal 1.792282e-13 -9.978260e-01 6.590419e-02
    outer loop
      vertex -1.605453e+01 -2.800577e+01 -4.639170e+02
      vertex -1.408146e+01 -2.738314e+01 -4.544899e+02
      vertex -1.409376e+01 -2.452409e+01 -4.112023e+02
    endloop
  endfacet
  facet normal 9.906506e-01 1.644203e-02 1.354288e-01
    outer loop
      vertex -1.435975e+01 -2.137896e+01 -4.096385e+02
      vertex -1.409376e+01 -2.452409e+01 -4.112023e+02
      vertex -1.343491e+01 -2.177218e+01 -4.163559e+02
    endloop
  endfacet
  facet normal 9.844568e-01 -4.046574e-03 1.755805e-01
    outer loop
      vertex -1.569654e+01 -2.093961e+01 -4.021332e+02
      vertex -1.409376e+01 -2.452409e+01 -4.112023e+02
      vertex -1.435975e+01 -2.137896e+01 -4.096385e+02
    endloop
  endfacet
  facet normal 9.835677e-01 -1.533954e-02 1.798868e-01
    outer loop
      vertex -1.633640e+01 -2.360884e+01 -3.988622e+02
      vertex -1.409376e+01 -2.452409e+01 -4.112023e+02
      vertex -1.569654e+01 -2.093961e+01 -4.021332e+02
    endloop
  endfacet
  facet normal 7.071068e-01 -7.055695e-01 4.660130e-02
    outer loop
      vertex -1.239406e+01 -2.555628e+01 -4.336574e+02
      vertex -1.284400e+01 -2.524961e+01 -4.221871e+02
      vertex -1.284400e+01 -2.672427e+01 -4.445143e+02
    endloop
  endfacet
  facet normal 9.952242e-01 5.704499e-03 9.744901e-02
    outer loop
      vertex -1.343491e+01 -2.177218e+01 -4.163559e+02
      vertex -1.284400e+01 -2.524961e+01 -4.221871e+02
      vertex -1.284400e+01 -2.212424e+01 -4.223701e+02
    endloop
  endfacet
  facet normal 9.992313e-01 2.290903e-03 3.913511e-02
    outer loop
      vertex -1.239406e+01 -2.555628e+01 -4.336574e+02
      vertex -1.284400e+01 -2.212424e+01 -4.223701e+02
      vertex -1.284400e+01 -2.524961e+01 -4.221871e+02
    endloop
  endfacet
  facet normal 9.924259e-01 -7.178845e-03 -1.226350e-01
    outer loop
      vertex -1.284400e+01 -2.343181e+01 -4.447071e+02
      vertex -1.284400e+01 -2.672427e+01 -4.445143e+02
      vertex -1.408146e+01 -2.738314e+01 -4.544899e+02
    endloop
  endfacet
  facet normal 9.991500e-01 -2.409017e-03 -4.115283e-02
    outer loop
      vertex -1.239406e+01 -2.324369e+01 -4.337940e+02
      vertex -1.284400e+01 -2.672427e+01 -4.445143e+02
      vertex -1.284400e+01 -2.343181e+01 -4.447071e+02
    endloop
  endfacet
  facet normal 9.991502e-01 -2.429188e-03 -4.114629e-02
    outer loop
      vertex -1.239406e+01 -2.324369e+01 -4.337940e+02
      vertex -1.239406e+01 -2.555628e+01 -4.336574e+02
      vertex -1.284400e+01 -2.672427e+01 -4.445143e+02
    endloop
  endfacet
  facet normal 9.785122e-01 -4.084642e-02 -2.021027e-01
    outer loop
      vertex -1.504549e+01 -2.431402e+01 -4.597777e+02
      vertex -1.408146e+01 -2.738314e+01 -4.544899e+02
      vertex -1.605453e+01 -2.800577e+01 -4.639170e+02
    endloop
  endfacet
  facet normal 9.836397e-01 -1.399171e-03 -1.801418e-01
    outer loop
      vertex -1.386633e+01 -2.393729e+01 -4.533420e+02
      vertex -1.408146e+01 -2.738314e+01 -4.544899e+02
      vertex -1.504549e+01 -2.431402e+01 -4.597777e+02
    endloop
  endfacet
  facet normal 9.929532e-01 -2.328276e-02 -1.161973e-01
    outer loop
      vertex -1.284400e+01 -2.343181e+01 -4.447071e+02
      vertex -1.408146e+01 -2.738314e+01 -4.544899e+02
      vertex -1.386633e+01 -2.393729e+01 -4.533420e+02
    endloop
  endfacet
  facet normal 1.817350e-13 -9.978260e-01 6.590419e-02
    outer loop
      vertex -7.496400e+01 -2.584073e+01 -4.311370e+02
      vertex -1.722050e+02 -2.584073e+01 -4.311370e+02
      vertex -1.605453e+01 -2.800577e+01 -4.639170e+02
    endloop
  endfacet
  facet normal 1.816507e-13 -9.978260e-01 6.590419e-02
    outer loop
      vertex -7.346400e+01 -2.574187e+01 -4.296402e+02
      vertex -7.496400e+01 -2.584073e+01 -4.311370e+02
      vertex -1.605453e+01 -2.800577e+01 -4.639170e+02
    endloop
  endfacet
  facet normal 9.741124e-01 -1.321080e-02 -2.256779e-01
    outer loop
      vertex -1.605453e+01 -2.792088e+01 -4.639220e+02
      vertex -1.504549e+01 -2.431402e+01 -4.597777e+02
      vertex -1.605453e+01 -2.800577e+01 -4.639170e+02
    endloop
  endfacet
  facet normal -2.725134e-12 -5.843826e-02 -9.982910e-01
    outer loop
      vertex -7.496400e+01 -2.247307e+01 -4.283290e+02
      vertex -7.496400e+01 -2.564301e+01 -4.281434e+02
      vertex -1.722050e+02 -2.564301e+01 -4.281434e+02
    endloop
  endfacet
  facet normal -7.071068e-01 -4.132210e-02 -7.058984e-01
    outer loop
      vertex -7.346400e+01 -2.256072e+01 -4.298264e+02
      vertex -7.346400e+01 -2.574187e+01 -4.296402e+02
      vertex -7.496400e+01 -2.564301e+01 -4.281434e+02
    endloop
  endfacet
  facet normal -7.071068e-01 -4.132209e-02 -7.058984e-01
    outer loop
      vertex -7.346400e+01 -2.256072e+01 -4.298264e+02
      vertex -7.496400e+01 -2.564301e+01 -4.281434e+02
      vertex -7.496400e+01 -2.247307e+01 -4.283290e+02
    endloop
  endfacet
  facet normal 1.000000e+00 7.440392e-16 -2.724907e-12
    outer loop
      vertex -1.722050e+02 -2.264838e+01 -4.313238e+02
      vertex -1.722050e+02 -2.564301e+01 -4.281434e+02
      vertex -1.722050e+02 -2.584073e+01 -4.311370e+02
    endloop
  endfacet
  facet normal -2.725134e-12 -5.843826e-02 -9.982910e-01
    outer loop
      vertex -1.722050e+02 -2.247307e+01 -4.283290e+02
      vertex -7.496400e+01 -2.247307e+01 -4.283290e+02
      vertex -1.722050e+02 -2.564301e+01 -4.281434e+02
    endloop
  endfacet
  facet normal 1.000000e+00 1.942701e-15 -2.723779e-12
    outer loop
      vertex -1.722050e+02 -2.247307e+01 -4.283290e+02
      vertex -1.722050e+02 -2.564301e+01 -4.281434e+02
      vertex -1.722050e+02 -2.264838e+01 -4.313238e+02
    endloop
  endfacet
  facet normal 2.725133e-12 5.843826e-02 9.982910e-01
    outer loop
      vertex -1.722050e+02 -2.264838e+01 -4.313238e+02
      vertex -1.722050e+02 -2.584073e+01 -4.311370e+02
      vertex -7.496400e+01 -2.584073e+01 -4.311370e+02
    endloop
  endfacet
  facet normal -7.071068e-01 4.132209e-02 7.058983e-01
    outer loop
      vertex -7.496400e+01 -2.264838e+01 -4.313238e+02
      vertex -7.496400e+01 -2.584073e+01 -4.311370e+02
      vertex -7.346400e+01 -2.574187e+01 -4.296402e+02
    endloop
  endfacet
  facet normal 2.725134e-12 5.843826e-02 9.982910e-01
    outer loop
      vertex -1.722050e+02 -2.264838e+01 -4.313238e+02
      vertex -7.496400e+01 -2.584073e+01 -4.311370e+02
      vertex -7.496400e+01 -2.264838e+01 -4.313238e+02
    endloop
  endfacet
  facet normal -7.071068e-01 4.132210e-02 7.058984e-01
    outer loop
      vertex -7.496400e+01 -2.264838e+01 -4.313238e+02
      vertex -7.346400e+01 -2.574187e+01 -4.296402e+02
      vertex -7.346400e+01 -2.256072e+01 -4.298264e+02
    endloop
  endfacet
  facet normal 2.724814e-12 5.843826e-02 9.982910e-01
    outer loop
      vertex -1.882640e+02 -2.166527e+01 -3.969726e+02
      vertex -1.882640e+02 -2.349196e+01 -3.968657e+02
      vertex -1.737468e+01 -2.349196e+01 -3.968657e+02
    endloop
  endfacet
  facet normal 1.613386e-13 -9.982910e-01 5.843826e-02
    outer loop
      vertex -1.633640e+01 -2.360884e+01 -3.988622e+02
      vertex -1.737468e+01 -2.349196e+01 -3.968657e+02
      vertex -1.882640e+02 -2.349196e+01 -3.968657e+02
    endloop
  endfacet
  facet normal 2.725481e-12 5.843826e-02 9.982910e-01
    outer loop
      vertex -1.737468e+01 -2.166527e+01 -3.969726e+02
      vertex -1.882640e+02 -2.166527e+01 -3.969726e+02
      vertex -1.737468e+01 -2.349196e+01 -3.968657e+02
    endloop
  endfacet
  facet normal 3.321065e-01 5.512141e-02 9.416299e-01
    outer loop
      vertex -1.690480e+01 -2.350163e+01 -3.970308e+02
      vertex -1.737468e+01 -2.166527e+01 -3.969726e+02
      vertex -1.737468e+01 -2.349196e+01 -3.968657e+02
    endloop
  endfacet
  facet normal 1.645244e-13 -9.982910e-01 5.843826e-02
    outer loop
      vertex -1.690480e+01 -2.350163e+01 -3.970308e+02
      vertex -1.737468e+01 -2.349196e+01 -3.968657e+02
      vertex -1.633640e+01 -2.360884e+01 -3.988622e+02
    endloop
  endfacet
  facet normal -3.826834e-01 5.398991e-02 9.223006e-01
    outer loop
      vertex -1.887943e+02 -2.167811e+01 -3.971919e+02
      vertex -1.882640e+02 -2.349196e+01 -3.968657e+02
      vertex -1.882640e+02 -2.166527e+01 -3.969726e+02
    endloop
  endfacet
  facet normal -3.826834e-01 5.398991e-02 9.223006e-01
    outer loop
      vertex -1.887943e+02 -2.350480e+01 -3.970849e+02
      vertex -1.882640e+02 -2.349196e+01 -3.968657e+02
      vertex -1.887943e+02 -2.167811e+01 -3.971919e+02
    endloop
  endfacet
  facet normal 1.612688e-13 -9.982910e-01 5.843826e-02
    outer loop
      vertex -1.887943e+02 -2.350480e+01 -3.970849e+02
      vertex -1.633640e+01 -2.360884e+01 -3.988622e+02
      vertex -1.882640e+02 -2.349196e+01 -3.968657e+02
    endloop
  endfacet
  facet normal 1.613360e-13 -9.982910e-01 5.843826e-02
    outer loop
      vertex -1.882640e+02 -2.151918e+01 -3.944769e+02
      vertex -1.882640e+02 -2.166527e+01 -3.969726e+02
      vertex -1.737468e+01 -2.166527e+01 -3.969726e+02
    endloop
  endfacet
  facet normal 1.720724e-13 -9.982910e-01 5.843826e-02
    outer loop
      vertex -1.887943e+02 -2.150634e+01 -3.942576e+02
      vertex -1.887943e+02 -2.167811e+01 -3.971919e+02
      vertex -1.882640e+02 -2.166527e+01 -3.969726e+02
    endloop
  endfacet
  facet normal 1.665816e-13 -9.982910e-01 5.843826e-02
    outer loop
      vertex -1.882640e+02 -2.151918e+01 -3.944769e+02
      vertex -1.887943e+02 -2.150634e+01 -3.942576e+02
      vertex -1.882640e+02 -2.166527e+01 -3.969726e+02
    endloop
  endfacet
  facet normal 1.613373e-13 -9.982910e-01 5.843826e-02
    outer loop
      vertex -1.828205e+01 -2.151918e+01 -3.944769e+02
      vertex -1.882640e+02 -2.151918e+01 -3.944769e+02
      vertex -1.737468e+01 -2.166527e+01 -3.969726e+02
    endloop
  endfacet
  facet normal 1.497513e-13 -9.982910e-01 5.843826e-02
    outer loop
      vertex -1.773436e+01 -2.150529e+01 -3.942396e+02
      vertex -1.828205e+01 -2.151918e+01 -3.944769e+02
      vertex -1.737468e+01 -2.166527e+01 -3.969726e+02
    endloop
  endfacet
  facet normal 1.872566e-13 -9.982910e-01 5.843826e-02
    outer loop
      vertex -1.753371e+01 -2.147243e+01 -3.936782e+02
      vertex -1.773436e+01 -2.150529e+01 -3.942396e+02
      vertex -1.737468e+01 -2.166527e+01 -3.969726e+02
    endloop
  endfacet
  facet normal 1.585822e-13 -9.982910e-01 5.843826e-02
    outer loop
      vertex -1.707612e+01 -2.158683e+01 -3.956325e+02
      vertex -1.753371e+01 -2.147243e+01 -3.936782e+02
      vertex -1.737468e+01 -2.166527e+01 -3.969726e+02
    endloop
  endfacet
  facet normal 1.499789e-13 -9.982910e-01 5.843826e-02
    outer loop
      vertex -1.690480e+01 -2.167494e+01 -3.971377e+02
      vertex -1.707612e+01 -2.158683e+01 -3.956325e+02
      vertex -1.737468e+01 -2.166527e+01 -3.969726e+02
    endloop
  endfacet
  facet normal 3.321065e-01 5.512141e-02 9.416299e-01
    outer loop
      vertex -1.690480e+01 -2.350163e+01 -3.970308e+02
      vertex -1.690480e+01 -2.167494e+01 -3.971377e+02
      vertex -1.737468e+01 -2.166527e+01 -3.969726e+02
    endloop
  endfacet
  facet normal -3.826834e-01 -5.398991e-02 -9.223006e-01
    outer loop
      vertex -1.887943e+02 -2.267833e+01 -3.941890e+02
      vertex -1.887943e+02 -2.150634e+01 -3.942576e+02
      vertex -1.882640e+02 -2.151918e+01 -3.944769e+02
    endloop
  endfacet
  facet normal -2.725341e-12 -5.843826e-02 -9.982910e-01
    outer loop
      vertex -1.882640e+02 -2.269117e+01 -3.944082e+02
      vertex -1.882640e+02 -2.151918e+01 -3.944769e+02
      vertex -1.828205e+01 -2.151918e+01 -3.944769e+02
    endloop
  endfacet
  facet normal -3.826834e-01 -5.398991e-02 -9.223006e-01
    outer loop
      vertex -1.887943e+02 -2.267833e+01 -3.941890e+02
      vertex -1.882640e+02 -2.151918e+01 -3.944769e+02
      vertex -1.882640e+02 -2.269117e+01 -3.944082e+02
    endloop
  endfacet
  facet normal 3.981128e-01 -5.360755e-02 -9.157688e-01
    outer loop
      vertex -1.828205e+01 -2.269117e+01 -3.944082e+02
      vertex -1.828205e+01 -2.151918e+01 -3.944769e+02
      vertex -1.773436e+01 -2.150529e+01 -3.942396e+02
    endloop
  endfacet
  facet normal -2.725341e-12 -5.843826e-02 -9.982910e-01
    outer loop
      vertex -1.828205e+01 -2.269117e+01 -3.944082e+02
      vertex -1.882640e+02 -2.269117e+01 -3.944082e+02
      vertex -1.828205e+01 -2.151918e+01 -3.944769e+02
    endloop
  endfacet
  facet normal 9.418365e-01 -1.963942e-02 -3.354970e-01
    outer loop
      vertex -1.773436e+01 -2.267728e+01 -3.941710e+02
      vertex -1.773436e+01 -2.150529e+01 -3.942396e+02
      vertex -1.753371e+01 -2.147243e+01 -3.936782e+02
    endloop
  endfacet
  facet normal 3.981128e-01 -5.360755e-02 -9.157688e-01
    outer loop
      vertex -1.773436e+01 -2.267728e+01 -3.941710e+02
      vertex -1.828205e+01 -2.269117e+01 -3.944082e+02
      vertex -1.773436e+01 -2.150529e+01 -3.942396e+02
    endloop
  endfacet
  facet normal 9.737517e-01 1.330130e-02 2.272240e-01
    outer loop
      vertex -1.753371e+01 -2.044818e+01 -3.937382e+02
      vertex -1.753371e+01 -2.147243e+01 -3.936782e+02
      vertex -1.707612e+01 -2.158683e+01 -3.956325e+02
    endloop
  endfacet
  facet normal 9.418365e-01 -1.963942e-02 -3.354970e-01
    outer loop
      vertex -1.773436e+01 -2.267728e+01 -3.941710e+02
      vertex -1.753371e+01 -2.147243e+01 -3.936782e+02
      vertex -1.753371e+01 -2.264442e+01 -3.936096e+02
    endloop
  endfacet
  facet normal 2.727729e-12 5.843826e-02 9.982910e-01
    outer loop
      vertex -1.178140e+02 -2.044818e+01 -3.937382e+02
      vertex -1.753371e+01 -2.264442e+01 -3.936096e+02
      vertex -1.753371e+01 -2.147243e+01 -3.936782e+02
    endloop
  endfacet
  facet normal 2.725159e-12 5.843826e-02 9.982910e-01
    outer loop
      vertex -1.178140e+02 -2.044818e+01 -3.937382e+02
      vertex -1.753371e+01 -2.147243e+01 -3.936782e+02
      vertex -1.753371e+01 -2.044818e+01 -3.937382e+02
    endloop
  endfacet
  facet normal 1.617807e-13 -9.982910e-01 5.843826e-02
    outer loop
      vertex -1.690480e+01 -2.167494e+01 -3.971377e+02
      vertex -1.664222e+01 -2.169968e+01 -3.975604e+02
      vertex -1.707612e+01 -2.158683e+01 -3.956325e+02
    endloop
  endfacet
  facet normal 9.755363e-01 2.964617e-02 2.178304e-01
    outer loop
      vertex -1.753371e+01 -2.044818e+01 -3.937382e+02
      vertex -1.707612e+01 -2.158683e+01 -3.956325e+02
      vertex -1.664222e+01 -2.169968e+01 -3.975604e+02
    endloop
  endfacet
  facet normal 8.498012e-01 3.080300e-02 5.262026e-01
    outer loop
      vertex -1.664222e+01 -2.352637e+01 -3.974534e+02
      vertex -1.664222e+01 -2.169968e+01 -3.975604e+02
      vertex -1.690480e+01 -2.167494e+01 -3.971377e+02
    endloop
  endfacet
  facet normal 9.761800e-01 5.228335e-02 2.105685e-01
    outer loop
      vertex -1.753371e+01 -2.044818e+01 -3.937382e+02
      vertex -1.664222e+01 -2.169968e+01 -3.975604e+02
      vertex -1.569654e+01 -2.093961e+01 -4.021332e+02
    endloop
  endfacet
  facet normal 9.785805e-01 1.684379e-02 2.051743e-01
    outer loop
      vertex -1.633640e+01 -2.360884e+01 -3.988622e+02
      vertex -1.569654e+01 -2.093961e+01 -4.021332e+02
      vertex -1.664222e+01 -2.169968e+01 -3.975604e+02
    endloop
  endfacet
  facet normal 9.776596e-01 1.357191e-02 2.097560e-01
    outer loop
      vertex -1.648744e+01 -2.356778e+01 -3.981609e+02
      vertex -1.633640e+01 -2.360884e+01 -3.988622e+02
      vertex -1.664222e+01 -2.169968e+01 -3.975604e+02
    endloop
  endfacet
  facet normal 9.769707e-01 1.246917e-02 2.130087e-01
    outer loop
      vertex -1.664222e+01 -2.352637e+01 -3.974534e+02
      vertex -1.648744e+01 -2.356778e+01 -3.981609e+02
      vertex -1.664222e+01 -2.169968e+01 -3.975604e+02
    endloop
  endfacet
  facet normal 8.498012e-01 3.080300e-02 5.262026e-01
    outer loop
      vertex -1.690480e+01 -2.350163e+01 -3.970308e+02
      vertex -1.664222e+01 -2.352637e+01 -3.974534e+02
      vertex -1.690480e+01 -2.167494e+01 -3.971377e+02
    endloop
  endfacet
  facet normal 1.613373e-13 -9.982910e-01 5.843826e-02
    outer loop
      vertex -1.178140e+02 -2.264442e+01 -3.936096e+02
      vertex -1.882640e+02 -2.269117e+01 -3.944082e+02
      vertex -1.828205e+01 -2.269117e+01 -3.944082e+02
    endloop
  endfacet
  facet normal 1.615017e-13 -9.982910e-01 5.843826e-02
    outer loop
      vertex -1.179140e+02 -2.263858e+01 -3.935098e+02
      vertex -1.179640e+02 -2.258014e+01 -3.925115e+02
      vertex -1.882640e+02 -2.269117e+01 -3.944082e+02
    endloop
  endfacet
  facet normal 1.597828e-13 -9.982910e-01 5.843826e-02
    outer loop
      vertex -1.178847e+02 -2.264271e+01 -3.935804e+02
      vertex -1.179140e+02 -2.263858e+01 -3.935098e+02
      vertex -1.882640e+02 -2.269117e+01 -3.944082e+02
    endloop
  endfacet
  facet normal 1.608842e-13 -9.982910e-01 5.843826e-02
    outer loop
      vertex -1.178140e+02 -2.264442e+01 -3.936096e+02
      vertex -1.178847e+02 -2.264271e+01 -3.935804e+02
      vertex -1.882640e+02 -2.269117e+01 -3.944082e+02
    endloop
  endfacet
  facet normal 1.613858e-13 -9.982910e-01 5.843826e-02
    outer loop
      vertex -1.773436e+01 -2.267728e+01 -3.941710e+02
      vertex -1.178140e+02 -2.264442e+01 -3.936096e+02
      vertex -1.828205e+01 -2.269117e+01 -3.944082e+02
    endloop
  endfacet
  facet normal 1.177421e-13 -9.982910e-01 5.843826e-02
    outer loop
      vertex -1.179140e+02 -2.263858e+01 -3.935098e+02
      vertex -1.179140e+02 -2.258306e+01 -3.925614e+02
      vertex -1.179640e+02 -2.258014e+01 -3.925115e+02
    endloop
  endfacet
  facet normal 7.071068e-01 4.132209e-02 7.058984e-01
    outer loop
      vertex -1.179140e+02 -2.038682e+01 -3.926900e+02
      vertex -1.179640e+02 -2.258014e+01 -3.925115e+02
      vertex -1.179140e+02 -2.258306e+01 -3.925614e+02
    endloop
  endfacet
  facet normal 7.071068e-01 4.132209e-02 7.058984e-01
    outer loop
      vertex -1.179140e+02 -2.038682e+01 -3.926900e+02
      vertex -1.179640e+02 -2.038390e+01 -3.926401e+02
      vertex -1.179640e+02 -2.258014e+01 -3.925115e+02
    endloop
  endfacet
  facet normal 1.000000e+00 8.561255e-15 -2.727662e-12
    outer loop
      vertex -1.179140e+02 -2.044234e+01 -3.936384e+02
      vertex -1.179140e+02 -2.258306e+01 -3.925614e+02
      vertex -1.179140e+02 -2.263858e+01 -3.935098e+02
    endloop
  endfacet
  facet normal 1.000000e+00 8.561255e-15 -2.727662e-12
    outer loop
      vertex -1.179140e+02 -2.038682e+01 -3.926900e+02
      vertex -1.179140e+02 -2.258306e+01 -3.925614e+02
      vertex -1.179140e+02 -2.044234e+01 -3.936384e+02
    endloop
  endfacet
  facet normal 9.238795e-01 2.236335e-02 3.820294e-01
    outer loop
      vertex -1.179140e+02 -2.044234e+01 -3.936384e+02
      vertex -1.179140e+02 -2.263858e+01 -3.935098e+02
      vertex -1.178847e+02 -2.264271e+01 -3.935804e+02
    endloop
  endfacet
  facet normal 3.826834e-01 5.398991e-02 9.223006e-01
    outer loop
      vertex -1.178847e+02 -2.044647e+01 -3.937089e+02
      vertex -1.178847e+02 -2.264271e+01 -3.935804e+02
      vertex -1.178140e+02 -2.264442e+01 -3.936096e+02
    endloop
  endfacet
  facet normal 9.238795e-01 2.236335e-02 3.820294e-01
    outer loop
      vertex -1.179140e+02 -2.044234e+01 -3.936384e+02
      vertex -1.178847e+02 -2.264271e+01 -3.935804e+02
      vertex -1.178847e+02 -2.044647e+01 -3.937089e+02
    endloop
  endfacet
  facet normal 1.613006e-13 -9.982910e-01 5.843826e-02
    outer loop
      vertex -1.773436e+01 -2.267728e+01 -3.941710e+02
      vertex -1.753371e+01 -2.264442e+01 -3.936096e+02
      vertex -1.178140e+02 -2.264442e+01 -3.936096e+02
    endloop
  endfacet
  facet normal 2.725159e-12 5.843826e-02 9.982910e-01
    outer loop
      vertex -1.178140e+02 -2.044818e+01 -3.937382e+02
      vertex -1.178140e+02 -2.264442e+01 -3.936096e+02
      vertex -1.753371e+01 -2.264442e+01 -3.936096e+02
    endloop
  endfacet
  facet normal 3.826834e-01 5.398991e-02 9.223006e-01
    outer loop
      vertex -1.178847e+02 -2.044647e+01 -3.937089e+02
      vertex -1.178140e+02 -2.264442e+01 -3.936096e+02
      vertex -1.178140e+02 -2.044818e+01 -3.937382e+02
    endloop
  endfacet
  facet normal -2.021301e-13 9.982910e-01 -5.843826e-02
    outer loop
      vertex -1.722050e+02 -2.247307e+01 -4.283290e+02
      vertex -1.179640e+02 -2.038390e+01 -3.926401e+02
      vertex -1.179140e+02 -2.038682e+01 -3.926900e+02
    endloop
  endfacet
  facet normal -1.612905e-13 9.982910e-01 -5.843826e-02
    outer loop
      vertex -1.435975e+01 -2.137896e+01 -4.096385e+02
      vertex -1.386633e+01 -2.393729e+01 -4.533420e+02
      vertex -1.504549e+01 -2.431402e+01 -4.597777e+02
    endloop
  endfacet
  facet normal -1.625596e-13 9.982910e-01 -5.843826e-02
    outer loop
      vertex -1.569654e+01 -2.093961e+01 -4.021332e+02
      vertex -1.435975e+01 -2.137896e+01 -4.096385e+02
      vertex -1.504549e+01 -2.431402e+01 -4.597777e+02
    endloop
  endfacet
  facet normal 9.663315e-01 2.524405e-02 -2.560589e-01
    outer loop
      vertex -1.624348e+01 -2.796400e+01 -4.646586e+02
      vertex -1.642893e+01 -2.800521e+01 -4.653625e+02
      vertex -1.504549e+01 -2.431402e+01 -4.597777e+02
    endloop
  endfacet
  facet normal 9.683053e-01 1.553913e-02 -2.492859e-01
    outer loop
      vertex -1.605453e+01 -2.792088e+01 -4.639220e+02
      vertex -1.624348e+01 -2.796400e+01 -4.646586e+02
      vertex -1.504549e+01 -2.431402e+01 -4.597777e+02
    endloop
  endfacet
  facet normal -1.537581e-13 9.982910e-01 -5.843826e-02
    outer loop
      vertex -1.284400e+01 -2.212424e+01 -4.223701e+02
      vertex -1.284400e+01 -2.343181e+01 -4.447071e+02
      vertex -1.386633e+01 -2.393729e+01 -4.533420e+02
    endloop
  endfacet
  facet normal -1.637681e-13 9.982910e-01 -5.843826e-02
    outer loop
      vertex -1.343491e+01 -2.177218e+01 -4.163559e+02
      vertex -1.284400e+01 -2.212424e+01 -4.223701e+02
      vertex -1.386633e+01 -2.393729e+01 -4.533420e+02
    endloop
  endfacet
  facet normal -1.548493e-13 9.982910e-01 -5.843826e-02
    outer loop
      vertex -1.435975e+01 -2.137896e+01 -4.096385e+02
      vertex -1.343491e+01 -2.177218e+01 -4.163559e+02
      vertex -1.386633e+01 -2.393729e+01 -4.533420e+02
    endloop
  endfacet
  facet normal 7.071068e-01 7.058984e-01 -4.132209e-02
    outer loop
      vertex -1.239406e+01 -2.324369e+01 -4.337940e+02
      vertex -1.284400e+01 -2.343181e+01 -4.447071e+02
      vertex -1.284400e+01 -2.212424e+01 -4.223701e+02
    endloop
  endfacet
  facet normal 9.992315e-01 2.311020e-03 3.912900e-02
    outer loop
      vertex -1.239406e+01 -2.324369e+01 -4.337940e+02
      vertex -1.284400e+01 -2.212424e+01 -4.223701e+02
      vertex -1.239406e+01 -2.555628e+01 -4.336574e+02
    endloop
  endfacet
  facet normal -1.612974e-13 9.982910e-01 -5.843826e-02
    outer loop
      vertex -7.496400e+01 -2.247307e+01 -4.283290e+02
      vertex -1.178140e+02 -2.044818e+01 -3.937382e+02
      vertex -1.753371e+01 -2.044818e+01 -3.937382e+02
    endloop
  endfacet
  facet normal -1.601539e-13 9.982910e-01 -5.843826e-02
    outer loop
      vertex -7.346400e+01 -2.256072e+01 -4.298264e+02
      vertex -7.496400e+01 -2.247307e+01 -4.283290e+02
      vertex -1.753371e+01 -2.044818e+01 -3.937382e+02
    endloop
  endfacet
  facet normal -1.535506e-13 9.982910e-01 -5.843826e-02
    outer loop
      vertex -7.496400e+01 -2.264838e+01 -4.313238e+02
      vertex -7.346400e+01 -2.256072e+01 -4.298264e+02
      vertex -1.753371e+01 -2.044818e+01 -3.937382e+02
    endloop
  endfacet
  facet normal -2.144000e-13 9.982910e-01 -5.843826e-02
    outer loop
      vertex -1.722050e+02 -2.247307e+01 -4.283290e+02
      vertex -1.178847e+02 -2.044647e+01 -3.937089e+02
      vertex -1.178140e+02 -2.044818e+01 -3.937382e+02
    endloop
  endfacet
  facet normal -1.613546e-13 9.982910e-01 -5.843826e-02
    outer loop
      vertex -1.722050e+02 -2.247307e+01 -4.283290e+02
      vertex -1.178140e+02 -2.044818e+01 -3.937382e+02
      vertex -7.496400e+01 -2.247307e+01 -4.283290e+02
    endloop
  endfacet
  facet normal -9.655788e-14 9.982910e-01 -5.843826e-02
    outer loop
      vertex -1.722050e+02 -2.247307e+01 -4.283290e+02
      vertex -1.179140e+02 -2.044234e+01 -3.936384e+02
      vertex -1.178847e+02 -2.044647e+01 -3.937089e+02
    endloop
  endfacet
  facet normal -1.606339e-13 9.982910e-01 -5.843826e-02
    outer loop
      vertex -1.722050e+02 -2.247307e+01 -4.283290e+02
      vertex -1.179140e+02 -2.038682e+01 -3.926900e+02
      vertex -1.179140e+02 -2.044234e+01 -3.936384e+02
    endloop
  endfacet
  facet normal 4.468094e-12 -9.982910e-01 5.843826e-02
    outer loop
      vertex -1.664222e+01 -2.352637e+01 -3.974534e+02
      vertex -1.633640e+01 -2.360884e+01 -3.988622e+02
      vertex -1.648744e+01 -2.356778e+01 -3.981609e+02
    endloop
  endfacet
  facet normal 1.078698e-13 -9.982910e-01 5.843826e-02
    outer loop
      vertex -1.690480e+01 -2.350163e+01 -3.970308e+02
      vertex -1.633640e+01 -2.360884e+01 -3.988622e+02
      vertex -1.664222e+01 -2.352637e+01 -3.974534e+02
    endloop
  endfacet
endsolid P1040852002
