solid P1040852002
  facet normal 1.000000e+00 -9.062973e-13 6.521720e-17
    outer loop
      vertex 2.724500e+02 1.732910e+01 -4.683118e+02
      vertex 2.724500e+02 1.614250e+01 -3.976138e+02
      vertex 2.724500e+02 1.601735e+01 -3.936158e+02
    endloop
  endfacet
  facet normal 9.037512e-13 9.995104e-01 3.128833e-02
    outer loop
      vertex 2.722303e+02 1.612591e+01 -3.970837e+02
      vertex 2.724500e+02 1.601735e+01 -3.936158e+02
      vertex 2.724500e+02 1.614250e+01 -3.976138e+02
    endloop
  endfacet
  facet normal 1.000000e+00 -9.103761e-13 -6.411149e-18
    outer loop
      vertex 2.724500e+02 1.495587e+01 -3.924984e+02
      vertex 2.724500e+02 1.732910e+01 -4.683118e+02
      vertex 2.724500e+02 1.601735e+01 -3.936158e+02
    endloop
  endfacet
  facet normal 1.000000e+00 -8.798278e-13 2.901474e-14
    outer loop
      vertex 2.724500e+02 1.715479e+01 -3.924296e+02
      vertex 2.724500e+02 1.495587e+01 -3.924984e+02
      vertex 2.724500e+02 1.601735e+01 -3.936158e+02
    endloop
  endfacet
  facet normal 1.000000e+00 -8.726544e-13 2.213600e-14
    outer loop
      vertex 2.724500e+02 1.719077e+01 -3.935790e+02
      vertex 2.724500e+02 1.715479e+01 -3.924296e+02
      vertex 2.724500e+02 1.601735e+01 -3.936158e+02
    endloop
  endfacet
  facet normal 9.238795e-01 1.197352e-02 -3.824961e-01
    outer loop
      vertex 2.722303e+02 1.603394e+01 -3.941458e+02
      vertex 2.724500e+02 1.719077e+01 -3.935790e+02
      vertex 2.724500e+02 1.601735e+01 -3.936158e+02
    endloop
  endfacet
  facet normal 9.072684e-13 9.995104e-01 3.128833e-02
    outer loop
      vertex 2.722303e+02 1.603394e+01 -3.941458e+02
      vertex 2.724500e+02 1.601735e+01 -3.936158e+02
      vertex 2.722303e+02 1.612591e+01 -3.970837e+02
    endloop
  endfacet
  facet normal 1.000000e+00 -8.702708e-13 6.698892e-16
    outer loop
      vertex 2.724500e+02 1.732910e+01 -4.683118e+02
      vertex 2.724500e+02 1.797142e+01 -3.975565e+02
      vertex 2.724500e+02 1.614250e+01 -3.976138e+02
    endloop
  endfacet
  facet normal 9.238795e-01 -1.197352e-02 3.824961e-01
    outer loop
      vertex 2.722303e+02 1.795483e+01 -3.970265e+02
      vertex 2.724500e+02 1.614250e+01 -3.976138e+02
      vertex 2.724500e+02 1.797142e+01 -3.975565e+02
    endloop
  endfacet
  facet normal 9.238795e-01 -1.197352e-02 3.824961e-01
    outer loop
      vertex 2.722303e+02 1.795483e+01 -3.970265e+02
      vertex 2.722303e+02 1.612591e+01 -3.970837e+02
      vertex 2.724500e+02 1.614250e+01 -3.976138e+02
    endloop
  endfacet
  facet normal 1.000000e+00 -1.305728e-12 4.622967e-15
    outer loop
      vertex 2.724500e+02 1.732910e+01 -4.683118e+02
      vertex 2.724500e+02 1.801053e+01 -3.988059e+02
      vertex 2.724500e+02 1.797142e+01 -3.975565e+02
    endloop
  endfacet
  facet normal 8.931848e-13 9.995104e-01 3.128833e-02
    outer loop
      vertex 9.977240e+01 1.801053e+01 -3.988059e+02
      vertex 2.724500e+02 1.797142e+01 -3.975565e+02
      vertex 2.724500e+02 1.801053e+01 -3.988059e+02
    endloop
  endfacet
  facet normal 8.931640e-13 9.995104e-01 3.128833e-02
    outer loop
      vertex 2.722303e+02 1.795483e+01 -3.970265e+02
      vertex 2.724500e+02 1.797142e+01 -3.975565e+02
      vertex 9.977240e+01 1.801053e+01 -3.988059e+02
    endloop
  endfacet
  facet normal 1.000000e+00 -1.137518e-12 2.973864e-15
    outer loop
      vertex 2.724500e+02 1.732910e+01 -4.683118e+02
      vertex 2.724500e+02 1.811048e+01 -3.988028e+02
      vertex 2.724500e+02 1.801053e+01 -3.988059e+02
    endloop
  endfacet
  facet normal -2.861864e-14 -3.128833e-02 9.995104e-01
    outer loop
      vertex 9.977240e+01 1.811048e+01 -3.988028e+02
      vertex 2.724500e+02 1.801053e+01 -3.988059e+02
      vertex 2.724500e+02 1.811048e+01 -3.988028e+02
    endloop
  endfacet
  facet normal -2.795995e-14 -3.128833e-02 9.995104e-01
    outer loop
      vertex 9.977240e+01 1.801053e+01 -3.988059e+02
      vertex 2.724500e+02 1.801053e+01 -3.988059e+02
      vertex 9.977240e+01 1.811048e+01 -3.988028e+02
    endloop
  endfacet
  facet normal 1.000000e+00 -6.690171e-13 8.072396e-15
    outer loop
      vertex 2.724500e+02 2.055300e+01 -4.639588e+02
      vertex 2.724500e+02 2.063800e+01 -4.639562e+02
      vertex 2.724500e+02 1.811048e+01 -3.988028e+02
    endloop
  endfacet
  facet normal 8.929285e-13 9.992484e-01 3.876413e-02
    outer loop
      vertex 2.556410e+02 1.893618e+01 -4.200874e+02
      vertex 2.724500e+02 1.811048e+01 -3.988028e+02
      vertex 2.724500e+02 2.063800e+01 -4.639562e+02
    endloop
  endfacet
  facet normal 1.000000e+00 -8.817288e-13 9.843395e-17
    outer loop
      vertex 2.724500e+02 1.732910e+01 -4.683118e+02
      vertex 2.724500e+02 2.055300e+01 -4.639588e+02
      vertex 2.724500e+02 1.811048e+01 -3.988028e+02
    endloop
  endfacet
  facet normal 8.929456e-13 9.992484e-01 3.876413e-02
    outer loop
      vertex 1.584000e+02 1.881989e+01 -4.170896e+02
      vertex 9.977240e+01 1.811048e+01 -3.988028e+02
      vertex 2.724500e+02 1.811048e+01 -3.988028e+02
    endloop
  endfacet
  facet normal 8.929779e-13 9.992484e-01 3.876413e-02
    outer loop
      vertex 2.556410e+02 1.881989e+01 -4.170896e+02
      vertex 1.584000e+02 1.881989e+01 -4.170896e+02
      vertex 2.724500e+02 1.811048e+01 -3.988028e+02
    endloop
  endfacet
  facet normal 8.949256e-13 9.992484e-01 3.876413e-02
    outer loop
      vertex 2.556410e+02 1.893618e+01 -4.200874e+02
      vertex 2.556410e+02 1.881989e+01 -4.170896e+02
      vertex 2.724500e+02 1.811048e+01 -3.988028e+02
    endloop
  endfacet
  facet normal 2.796001e-14 3.128833e-02 -9.995104e-01
    outer loop
      vertex 9.949053e+01 2.055300e+01 -4.639588e+02
      vertex 2.724500e+02 2.063800e+01 -4.639562e+02
      vertex 2.724500e+02 2.055300e+01 -4.639588e+02
    endloop
  endfacet
  facet normal 8.929533e-13 9.992484e-01 3.876413e-02
    outer loop
      vertex 2.556410e+02 1.893618e+01 -4.200874e+02
      vertex 2.724500e+02 2.063800e+01 -4.639562e+02
      vertex 9.949053e+01 2.063800e+01 -4.639562e+02
    endloop
  endfacet
  facet normal 2.796001e-14 3.128833e-02 -9.995104e-01
    outer loop
      vertex 9.949053e+01 2.055300e+01 -4.639588e+02
      vertex 9.949053e+01 2.063800e+01 -4.639562e+02
      vertex 2.724500e+02 2.063800e+01 -4.639562e+02
    endloop
  endfacet
  facet normal 1.000000e+00 -8.533717e-13 -2.671365e-14
    outer loop
      vertex 2.724500e+02 1.972702e+01 -4.652352e+02
      vertex 2.724500e+02 2.059211e+01 -4.652082e+02
      vertex 2.724500e+02 2.055300e+01 -4.639588e+02
    endloop
  endfacet
  facet normal 8.636876e-13 9.995104e-01 3.128833e-02
    outer loop
      vertex 2.722303e+02 2.060870e+01 -4.657382e+02
      vertex 2.724500e+02 2.055300e+01 -4.639588e+02
      vertex 2.724500e+02 2.059211e+01 -4.652082e+02
    endloop
  endfacet
  facet normal 1.000000e+00 -7.912402e-13 -6.691957e-14
    outer loop
      vertex 2.724500e+02 1.732910e+01 -4.683118e+02
      vertex 2.724500e+02 1.972702e+01 -4.652352e+02
      vertex 2.724500e+02 2.055300e+01 -4.639588e+02
    endloop
  endfacet
  facet normal 8.931685e-13 9.995104e-01 3.128833e-02
    outer loop
      vertex 1.005897e+02 2.061557e+01 -4.659578e+02
      vertex 2.724500e+02 2.055300e+01 -4.639588e+02
      vertex 2.717000e+02 2.061557e+01 -4.659578e+02
    endloop
  endfacet
  facet normal 8.942497e-13 9.995104e-01 3.128833e-02
    outer loop
      vertex 2.722303e+02 2.060870e+01 -4.657382e+02
      vertex 2.717000e+02 2.061557e+01 -4.659578e+02
      vertex 2.724500e+02 2.055300e+01 -4.639588e+02
    endloop
  endfacet
  facet normal 8.932034e-13 9.995104e-01 3.128833e-02
    outer loop
      vertex 1.001327e+02 2.061071e+01 -4.658025e+02
      vertex 2.724500e+02 2.055300e+01 -4.639588e+02
      vertex 1.005897e+02 2.061557e+01 -4.659578e+02
    endloop
  endfacet
  facet normal 8.931499e-13 9.995104e-01 3.128833e-02
    outer loop
      vertex 9.967948e+01 2.057608e+01 -4.646963e+02
      vertex 2.724500e+02 2.055300e+01 -4.639588e+02
      vertex 9.986493e+01 2.059815e+01 -4.654011e+02
    endloop
  endfacet
  facet normal 8.931779e-13 9.995104e-01 3.128833e-02
    outer loop
      vertex 1.001327e+02 2.061071e+01 -4.658025e+02
      vertex 9.986493e+01 2.059815e+01 -4.654011e+02
      vertex 2.724500e+02 2.055300e+01 -4.639588e+02
    endloop
  endfacet
  facet normal 8.931869e-13 9.995104e-01 3.128833e-02
    outer loop
      vertex 9.949053e+01 2.055300e+01 -4.639588e+02
      vertex 2.724500e+02 2.055300e+01 -4.639588e+02
      vertex 9.967948e+01 2.057608e+01 -4.646963e+02
    endloop
  endfacet
  facet normal 9.238795e-01 1.197352e-02 -3.824961e-01
    outer loop
      vertex 2.722303e+02 1.974361e+01 -4.657653e+02
      vertex 2.724500e+02 2.059211e+01 -4.652082e+02
      vertex 2.724500e+02 1.972702e+01 -4.652352e+02
    endloop
  endfacet
  facet normal 9.238795e-01 1.197352e-02 -3.824961e-01
    outer loop
      vertex 2.722303e+02 2.060870e+01 -4.657382e+02
      vertex 2.724500e+02 2.059211e+01 -4.652082e+02
      vertex 2.722303e+02 1.974361e+01 -4.657653e+02
    endloop
  endfacet
  facet normal 1.000000e+00 -8.666146e-13 -8.171115e-15
    outer loop
      vertex 2.724500e+02 1.732910e+01 -4.683118e+02
      vertex 2.724500e+02 1.982088e+01 -4.682338e+02
      vertex 2.724500e+02 1.972702e+01 -4.652352e+02
    endloop
  endfacet
  facet normal 8.750563e-13 9.995104e-01 3.128833e-02
    outer loop
      vertex 2.722303e+02 1.974361e+01 -4.657653e+02
      vertex 2.724500e+02 1.972702e+01 -4.652352e+02
      vertex 2.724500e+02 1.982088e+01 -4.682338e+02
    endloop
  endfacet
  facet normal 2.795995e-14 3.128833e-02 -9.995104e-01
    outer loop
      vertex 1.006510e+02 1.732910e+01 -4.683118e+02
      vertex 2.724500e+02 1.982088e+01 -4.682338e+02
      vertex 2.724500e+02 1.732910e+01 -4.683118e+02
    endloop
  endfacet
  facet normal 2.795992e-14 3.128833e-02 -9.995104e-01
    outer loop
      vertex 1.006510e+02 1.732910e+01 -4.683118e+02
      vertex 1.006510e+02 1.982088e+01 -4.682338e+02
      vertex 2.724500e+02 1.982088e+01 -4.682338e+02
    endloop
  endfacet
  facet normal 8.931850e-13 9.995104e-01 3.128833e-02
    outer loop
      vertex 2.717000e+02 1.975049e+01 -4.659849e+02
      vertex 2.724500e+02 1.982088e+01 -4.682338e+02
      vertex 1.006510e+02 1.982088e+01 -4.682338e+02
    endloop
  endfacet
  facet normal 9.004167e-13 9.995104e-01 3.128833e-02
    outer loop
      vertex 2.722303e+02 1.974361e+01 -4.657653e+02
      vertex 2.724500e+02 1.982088e+01 -4.682338e+02
      vertex 2.717000e+02 1.975049e+01 -4.659849e+02
    endloop
  endfacet
  facet normal -8.934374e-13 -9.995104e-01 -3.128833e-02
    outer loop
      vertex 2.556410e+02 1.572869e+01 -4.171863e+02
      vertex 2.724500e+02 1.732910e+01 -4.683118e+02
      vertex 2.724500e+02 1.495587e+01 -3.924984e+02
    endloop
  endfacet
  facet normal -8.931849e-13 -9.995104e-01 -3.128833e-02
    outer loop
      vertex 1.584000e+02 1.582256e+01 -4.201849e+02
      vertex 1.006510e+02 1.732910e+01 -4.683118e+02
      vertex 2.724500e+02 1.732910e+01 -4.683118e+02
    endloop
  endfacet
  facet normal -8.931755e-13 -9.995104e-01 -3.128833e-02
    outer loop
      vertex 2.556410e+02 1.582256e+01 -4.201849e+02
      vertex 1.584000e+02 1.582256e+01 -4.201849e+02
      vertex 2.724500e+02 1.732910e+01 -4.683118e+02
    endloop
  endfacet
  facet normal -8.922823e-13 -9.995104e-01 -3.128833e-02
    outer loop
      vertex 2.556410e+02 1.572869e+01 -4.171863e+02
      vertex 2.556410e+02 1.582256e+01 -4.201849e+02
      vertex 2.724500e+02 1.732910e+01 -4.683118e+02
    endloop
  endfacet
  facet normal -2.795936e-14 -3.128833e-02 9.995104e-01
    outer loop
      vertex 2.014000e+02 1.715479e+01 -3.924296e+02
      vertex 2.724500e+02 1.495587e+01 -3.924984e+02
      vertex 2.724500e+02 1.715479e+01 -3.924296e+02
    endloop
  endfacet
  facet normal -2.796093e-14 -3.128833e-02 9.995104e-01
    outer loop
      vertex 2.014000e+02 1.495587e+01 -3.924984e+02
      vertex 2.724500e+02 1.495587e+01 -3.924984e+02
      vertex 2.014000e+02 1.715479e+01 -3.924296e+02
    endloop
  endfacet
  facet normal -8.932157e-13 -9.995104e-01 -3.128833e-02
    outer loop
      vertex 2.556410e+02 1.572869e+01 -4.171863e+02
      vertex 2.724500e+02 1.495587e+01 -3.924984e+02
      vertex 2.014000e+02 1.495587e+01 -3.924984e+02
    endloop
  endfacet
  facet normal 9.068039e-13 9.995104e-01 3.128833e-02
    outer loop
      vertex 2.722303e+02 1.720737e+01 -3.941091e+02
      vertex 2.724500e+02 1.715479e+01 -3.924296e+02
      vertex 2.724500e+02 1.719077e+01 -3.935790e+02
    endloop
  endfacet
  facet normal 8.931662e-13 9.995104e-01 3.128833e-02
    outer loop
      vertex 2.014000e+02 1.715479e+01 -3.924296e+02
      vertex 2.724500e+02 1.715479e+01 -3.924296e+02
      vertex 2.717000e+02 1.721424e+01 -3.943287e+02
    endloop
  endfacet
  facet normal 8.938344e-13 9.995104e-01 3.128833e-02
    outer loop
      vertex 2.722303e+02 1.720737e+01 -3.941091e+02
      vertex 2.717000e+02 1.721424e+01 -3.943287e+02
      vertex 2.724500e+02 1.715479e+01 -3.924296e+02
    endloop
  endfacet
  facet normal 9.238795e-01 1.197352e-02 -3.824961e-01
    outer loop
      vertex 2.722303e+02 1.720737e+01 -3.941091e+02
      vertex 2.724500e+02 1.719077e+01 -3.935790e+02
      vertex 2.722303e+02 1.603394e+01 -3.941458e+02
    endloop
  endfacet
  facet normal -9.696075e-01 7.655183e-03 -2.445460e-01
    outer loop
      vertex 9.848149e+01 1.706009e+01 -4.597181e+02
      vertex 1.006510e+02 1.982088e+01 -4.682338e+02
      vertex 1.006510e+02 1.732910e+01 -4.683118e+02
    endloop
  endfacet
  facet normal 8.931893e-13 9.995104e-01 3.128833e-02
    outer loop
      vertex 1.005897e+02 1.975049e+01 -4.659849e+02
      vertex 2.717000e+02 1.975049e+01 -4.659849e+02
      vertex 1.006510e+02 1.982088e+01 -4.682338e+02
    endloop
  endfacet
  facet normal 8.804660e-13 9.995104e-01 3.128833e-02
    outer loop
      vertex 1.002685e+02 1.977921e+01 -4.669025e+02
      vertex 1.005897e+02 1.975049e+01 -4.659849e+02
      vertex 1.006510e+02 1.982088e+01 -4.682338e+02
    endloop
  endfacet
  facet normal -9.547637e-01 -1.063115e-01 -2.777124e-01
    outer loop
      vertex 9.848149e+01 1.706009e+01 -4.597181e+02
      vertex 1.002685e+02 1.977921e+01 -4.669025e+02
      vertex 1.006510e+02 1.982088e+01 -4.682338e+02
    endloop
  endfacet
  facet normal -8.944058e-13 -9.995104e-01 -3.128833e-02
    outer loop
      vertex 9.913254e+01 1.525340e+01 -4.020031e+02
      vertex 9.848149e+01 1.706009e+01 -4.597181e+02
      vertex 1.006510e+02 1.732910e+01 -4.683118e+02
    endloop
  endfacet
  facet normal -8.933381e-13 -9.995104e-01 -3.128833e-02
    outer loop
      vertex 1.009697e+02 1.499029e+01 -3.935979e+02
      vertex 9.913254e+01 1.525340e+01 -4.020031e+02
      vertex 1.006510e+02 1.732910e+01 -4.683118e+02
    endloop
  endfacet
  facet normal -8.931551e-13 -9.995104e-01 -3.128833e-02
    outer loop
      vertex 1.584000e+02 1.582256e+01 -4.201849e+02
      vertex 1.009697e+02 1.499029e+01 -3.935979e+02
      vertex 1.006510e+02 1.732910e+01 -4.683118e+02
    endloop
  endfacet
  facet normal 2.796009e-14 3.128833e-02 -9.995104e-01
    outer loop
      vertex 2.717000e+02 2.061557e+01 -4.659578e+02
      vertex 2.717000e+02 1.975049e+01 -4.659849e+02
      vertex 1.005897e+02 1.975049e+01 -4.659849e+02
    endloop
  endfacet
  facet normal 3.826834e-01 2.890664e-02 -9.234272e-01
    outer loop
      vertex 2.722303e+02 2.060870e+01 -4.657382e+02
      vertex 2.722303e+02 1.974361e+01 -4.657653e+02
      vertex 2.717000e+02 1.975049e+01 -4.659849e+02
    endloop
  endfacet
  facet normal 3.826834e-01 2.890664e-02 -9.234272e-01
    outer loop
      vertex 2.722303e+02 2.060870e+01 -4.657382e+02
      vertex 2.717000e+02 1.975049e+01 -4.659849e+02
      vertex 2.717000e+02 2.061557e+01 -4.659578e+02
    endloop
  endfacet
  facet normal 8.921018e-13 9.995104e-01 3.128833e-02
    outer loop
      vertex 1.002685e+02 1.977921e+01 -4.669025e+02
      vertex 1.001327e+02 1.974562e+01 -4.658296e+02
      vertex 1.005897e+02 1.975049e+01 -4.659849e+02
    endloop
  endfacet
  facet normal -3.219341e-01 2.962260e-02 -9.462985e-01
    outer loop
      vertex 1.005897e+02 2.061557e+01 -4.659578e+02
      vertex 1.005897e+02 1.975049e+01 -4.659849e+02
      vertex 1.001327e+02 1.974562e+01 -4.658296e+02
    endloop
  endfacet
  facet normal 2.862417e-14 3.128833e-02 -9.995104e-01
    outer loop
      vertex 1.005897e+02 2.061557e+01 -4.659578e+02
      vertex 2.717000e+02 2.061557e+01 -4.659578e+02
      vertex 1.005897e+02 1.975049e+01 -4.659849e+02
    endloop
  endfacet
  facet normal 8.665269e-13 9.995104e-01 3.128833e-02
    outer loop
      vertex 1.002685e+02 1.977921e+01 -4.669025e+02
      vertex 9.986493e+01 1.973306e+01 -4.654282e+02
      vertex 1.001327e+02 1.974562e+01 -4.658296e+02
    endloop
  endfacet
  facet normal -8.319805e-01 1.735892e-02 -5.545333e-01
    outer loop
      vertex 1.001327e+02 2.061071e+01 -4.658025e+02
      vertex 1.001327e+02 1.974562e+01 -4.658296e+02
      vertex 9.986493e+01 1.973306e+01 -4.654282e+02
    endloop
  endfacet
  facet normal -3.219341e-01 2.962260e-02 -9.462985e-01
    outer loop
      vertex 1.001327e+02 2.061071e+01 -4.658025e+02
      vertex 1.005897e+02 2.061557e+01 -4.659578e+02
      vertex 1.001327e+02 1.974562e+01 -4.658296e+02
    endloop
  endfacet
  facet normal -9.616570e-01 -6.920025e-02 -2.653813e-01
    outer loop
      vertex 9.848149e+01 1.706009e+01 -4.597181e+02
      vertex 9.986493e+01 1.973306e+01 -4.654282e+02
      vertex 1.002685e+02 1.977921e+01 -4.669025e+02
    endloop
  endfacet
  facet normal -9.726305e-01 7.270066e-03 -2.322434e-01
    outer loop
      vertex 9.986493e+01 2.059815e+01 -4.654011e+02
      vertex 9.986493e+01 1.973306e+01 -4.654282e+02
      vertex 9.848149e+01 1.706009e+01 -4.597181e+02
    endloop
  endfacet
  facet normal -8.319805e-01 1.735892e-02 -5.545333e-01
    outer loop
      vertex 1.001327e+02 2.061071e+01 -4.658025e+02
      vertex 9.986493e+01 1.973306e+01 -4.654282e+02
      vertex 9.986493e+01 2.059815e+01 -4.654011e+02
    endloop
  endfacet
  facet normal 8.926482e-13 9.992484e-01 3.876413e-02
    outer loop
      vertex 9.949053e+01 2.063800e+01 -4.639562e+02
      vertex 9.752976e+01 1.859011e+01 -4.111664e+02
      vertex 9.977240e+01 1.811048e+01 -3.988028e+02
    endloop
  endfacet
  facet normal -9.839665e-01 -5.580377e-03 1.782660e-01
    outer loop
      vertex 9.977240e+01 1.801053e+01 -3.988059e+02
      vertex 9.977240e+01 1.811048e+01 -3.988028e+02
      vertex 9.752976e+01 1.859011e+01 -4.111664e+02
    endloop
  endfacet
  facet normal 8.929088e-13 9.992484e-01 3.876413e-02
    outer loop
      vertex 1.569000e+02 1.887803e+01 -4.185885e+02
      vertex 9.949053e+01 2.063800e+01 -4.639562e+02
      vertex 9.977240e+01 1.811048e+01 -3.988028e+02
    endloop
  endfacet
  facet normal 8.920470e-13 9.992484e-01 3.876413e-02
    outer loop
      vertex 1.569000e+02 1.887803e+01 -4.185885e+02
      vertex 9.977240e+01 1.811048e+01 -3.988028e+02
      vertex 1.584000e+02 1.881989e+01 -4.170896e+02
    endloop
  endfacet
  facet normal 8.994731e-13 9.992484e-01 3.876413e-02
    outer loop
      vertex 9.628000e+01 1.988423e+01 -4.445258e+02
      vertex 9.628000e+01 1.901685e+01 -4.221668e+02
      vertex 9.752976e+01 1.859011e+01 -4.111664e+02
    endloop
  endfacet
  facet normal -9.931466e-01 2.639592e-02 1.138551e-01
    outer loop
      vertex 9.687091e+01 1.569917e+01 -4.162432e+02
      vertex 9.752976e+01 1.859011e+01 -4.111664e+02
      vertex 9.628000e+01 1.901685e+01 -4.221668e+02
    endloop
  endfacet
  facet normal 8.918378e-13 9.992484e-01 3.876413e-02
    outer loop
      vertex 9.751746e+01 2.027177e+01 -4.545156e+02
      vertex 9.628000e+01 1.988423e+01 -4.445258e+02
      vertex 9.752976e+01 1.859011e+01 -4.111664e+02
    endloop
  endfacet
  facet normal 8.935296e-13 9.992484e-01 3.876413e-02
    outer loop
      vertex 9.949053e+01 2.063800e+01 -4.639562e+02
      vertex 9.751746e+01 2.027177e+01 -4.545156e+02
      vertex 9.752976e+01 1.859011e+01 -4.111664e+02
    endloop
  endfacet
  facet normal -9.906506e-01 -1.275571e-02 1.358256e-01
    outer loop
      vertex 9.779575e+01 1.548863e+01 -4.095176e+02
      vertex 9.752976e+01 1.859011e+01 -4.111664e+02
      vertex 9.687091e+01 1.569917e+01 -4.162432e+02
    endloop
  endfacet
  facet normal -9.844568e-01 8.816444e-03 1.754057e-01
    outer loop
      vertex 9.913254e+01 1.525340e+01 -4.020031e+02
      vertex 9.752976e+01 1.859011e+01 -4.111664e+02
      vertex 9.779575e+01 1.548863e+01 -4.095176e+02
    endloop
  endfacet
  facet normal -9.835677e-01 2.022226e-02 1.794035e-01
    outer loop
      vertex 9.977240e+01 1.801053e+01 -3.988059e+02
      vertex 9.752976e+01 1.859011e+01 -4.111664e+02
      vertex 9.913254e+01 1.525340e+01 -4.020031e+02
    endloop
  endfacet
  facet normal -7.071068e-01 7.065753e-01 2.741038e-02
    outer loop
      vertex 9.583006e+01 1.901170e+01 -4.336412e+02
      vertex 9.628000e+01 1.901685e+01 -4.221668e+02
      vertex 9.628000e+01 1.988423e+01 -4.445258e+02
    endloop
  endfacet
  facet normal -9.952242e-01 -3.054236e-03 9.756804e-02
    outer loop
      vertex 9.687091e+01 1.569917e+01 -4.162432e+02
      vertex 9.628000e+01 1.901685e+01 -4.221668e+02
      vertex 9.628000e+01 1.588767e+01 -4.222648e+02
    endloop
  endfacet
  facet normal -9.992313e-01 -1.226568e-03 3.918291e-02
    outer loop
      vertex 9.583006e+01 1.901170e+01 -4.336412e+02
      vertex 9.628000e+01 1.588767e+01 -4.222648e+02
      vertex 9.628000e+01 1.901685e+01 -4.221668e+02
    endloop
  endfacet
  facet normal -9.924259e-01 3.843613e-03 -1.227848e-01
    outer loop
      vertex 9.628000e+01 1.658775e+01 -4.446290e+02
      vertex 9.628000e+01 1.988423e+01 -4.445258e+02
      vertex 9.751746e+01 2.027177e+01 -4.545156e+02
    endloop
  endfacet
  facet normal -9.991500e-01 1.289807e-03 -4.120310e-02
    outer loop
      vertex 9.583006e+01 1.669625e+01 -4.337149e+02
      vertex 9.628000e+01 1.988423e+01 -4.445258e+02
      vertex 9.628000e+01 1.658775e+01 -4.446290e+02
    endloop
  endfacet
  facet normal -9.991502e-01 1.310149e-03 -4.119711e-02
    outer loop
      vertex 9.583006e+01 1.669625e+01 -4.337149e+02
      vertex 9.583006e+01 1.901170e+01 -4.336412e+02
      vertex 9.628000e+01 1.988423e+01 -4.445258e+02
    endloop
  endfacet
  facet normal -9.785122e-01 3.533924e-02 -2.031381e-01
    outer loop
      vertex 9.848149e+01 1.706009e+01 -4.597181e+02
      vertex 9.751746e+01 2.027177e+01 -4.545156e+02
      vertex 9.949053e+01 2.063800e+01 -4.639562e+02
    endloop
  endfacet
  facet normal -9.836397e-01 -3.496661e-03 -1.801133e-01
    outer loop
      vertex 9.730233e+01 1.685838e+01 -4.532745e+02
      vertex 9.751746e+01 2.027177e+01 -4.545156e+02
      vertex 9.848149e+01 1.706009e+01 -4.597181e+02
    endloop
  endfacet
  facet normal -9.929532e-01 2.011653e-02 -1.167871e-01
    outer loop
      vertex 9.628000e+01 1.658775e+01 -4.446290e+02
      vertex 9.751746e+01 2.027177e+01 -4.545156e+02
      vertex 9.730233e+01 1.685838e+01 -4.532745e+02
    endloop
  endfacet
  facet normal 8.929779e-13 9.992484e-01 3.876413e-02
    outer loop
      vertex 1.584000e+02 1.893618e+01 -4.200874e+02
      vertex 2.556410e+02 1.893618e+01 -4.200874e+02
      vertex 9.949053e+01 2.063800e+01 -4.639562e+02
    endloop
  endfacet
  facet normal 8.928415e-13 9.992484e-01 3.876413e-02
    outer loop
      vertex 1.569000e+02 1.887803e+01 -4.185885e+02
      vertex 1.584000e+02 1.893618e+01 -4.200874e+02
      vertex 9.949053e+01 2.063800e+01 -4.639562e+02
    endloop
  endfacet
  facet normal -9.741124e-01 7.073172e-03 -2.259536e-01
    outer loop
      vertex 9.949053e+01 2.055300e+01 -4.639588e+02
      vertex 9.848149e+01 1.706009e+01 -4.597181e+02
      vertex 9.949053e+01 2.063800e+01 -4.639562e+02
    endloop
  endfacet
  facet normal 2.796083e-14 3.128833e-02 -9.995104e-01
    outer loop
      vertex 1.584000e+02 1.572869e+01 -4.171863e+02
      vertex 1.584000e+02 1.881989e+01 -4.170896e+02
      vertex 2.556410e+02 1.881989e+01 -4.170896e+02
    endloop
  endfacet
  facet normal 7.071068e-01 2.212420e-02 -7.067606e-01
    outer loop
      vertex 1.569000e+02 1.577562e+01 -4.186856e+02
      vertex 1.569000e+02 1.887803e+01 -4.185885e+02
      vertex 1.584000e+02 1.881989e+01 -4.170896e+02
    endloop
  endfacet
  facet normal 7.071068e-01 2.212419e-02 -7.067606e-01
    outer loop
      vertex 1.569000e+02 1.577562e+01 -4.186856e+02
      vertex 1.584000e+02 1.881989e+01 -4.170896e+02
      vertex 1.584000e+02 1.572869e+01 -4.171863e+02
    endloop
  endfacet
  facet normal -1.000000e+00 8.946618e-13 -3.216180e-15
    outer loop
      vertex 2.556410e+02 1.582256e+01 -4.201849e+02
      vertex 2.556410e+02 1.881989e+01 -4.170896e+02
      vertex 2.556410e+02 1.893618e+01 -4.200874e+02
    endloop
  endfacet
  facet normal 2.795966e-14 3.128833e-02 -9.995104e-01
    outer loop
      vertex 2.556410e+02 1.572869e+01 -4.171863e+02
      vertex 1.584000e+02 1.572869e+01 -4.171863e+02
      vertex 2.556410e+02 1.881989e+01 -4.170896e+02
    endloop
  endfacet
  facet normal -1.000000e+00 8.823922e-13 8.665012e-15
    outer loop
      vertex 2.556410e+02 1.572869e+01 -4.171863e+02
      vertex 2.556410e+02 1.881989e+01 -4.170896e+02
      vertex 2.556410e+02 1.582256e+01 -4.201849e+02
    endloop
  endfacet
  facet normal -2.796079e-14 -3.128833e-02 9.995104e-01
    outer loop
      vertex 2.556410e+02 1.582256e+01 -4.201849e+02
      vertex 2.556410e+02 1.893618e+01 -4.200874e+02
      vertex 1.584000e+02 1.893618e+01 -4.200874e+02
    endloop
  endfacet
  facet normal 7.071068e-01 -2.212419e-02 7.067606e-01
    outer loop
      vertex 1.584000e+02 1.582256e+01 -4.201849e+02
      vertex 1.584000e+02 1.893618e+01 -4.200874e+02
      vertex 1.569000e+02 1.887803e+01 -4.185885e+02
    endloop
  endfacet
  facet normal -2.795966e-14 -3.128833e-02 9.995104e-01
    outer loop
      vertex 2.556410e+02 1.582256e+01 -4.201849e+02
      vertex 1.584000e+02 1.893618e+01 -4.200874e+02
      vertex 1.584000e+02 1.582256e+01 -4.201849e+02
    endloop
  endfacet
  facet normal 7.071068e-01 -2.212420e-02 7.067606e-01
    outer loop
      vertex 1.584000e+02 1.582256e+01 -4.201849e+02
      vertex 1.569000e+02 1.887803e+01 -4.185885e+02
      vertex 1.569000e+02 1.577562e+01 -4.186856e+02
    endloop
  endfacet
  facet normal -2.795980e-14 -3.128833e-02 9.995104e-01
    outer loop
      vertex 2.717000e+02 1.611904e+01 -3.968642e+02
      vertex 2.717000e+02 1.794795e+01 -3.968069e+02
      vertex 1.008107e+02 1.794795e+01 -3.968069e+02
    endloop
  endfacet
  facet normal 8.931809e-13 9.995104e-01 3.128833e-02
    outer loop
      vertex 9.977240e+01 1.801053e+01 -3.988059e+02
      vertex 1.008107e+02 1.794795e+01 -3.968069e+02
      vertex 2.717000e+02 1.794795e+01 -3.968069e+02
    endloop
  endfacet
  facet normal -2.795982e-14 -3.128833e-02 9.995104e-01
    outer loop
      vertex 1.008107e+02 1.611904e+01 -3.968642e+02
      vertex 2.717000e+02 1.611904e+01 -3.968642e+02
      vertex 1.008107e+02 1.794795e+01 -3.968069e+02
    endloop
  endfacet
  facet normal -3.321065e-01 -2.951246e-02 9.427801e-01
    outer loop
      vertex 1.003408e+02 1.795313e+01 -3.969723e+02
      vertex 1.008107e+02 1.611904e+01 -3.968642e+02
      vertex 1.008107e+02 1.794795e+01 -3.968069e+02
    endloop
  endfacet
  facet normal 8.950294e-13 9.995104e-01 3.128833e-02
    outer loop
      vertex 1.003408e+02 1.795313e+01 -3.969723e+02
      vertex 1.008107e+02 1.794795e+01 -3.968069e+02
      vertex 9.977240e+01 1.801053e+01 -3.988059e+02
    endloop
  endfacet
  facet normal 3.826834e-01 -2.890664e-02 9.234272e-01
    outer loop
      vertex 2.722303e+02 1.612591e+01 -3.970837e+02
      vertex 2.717000e+02 1.794795e+01 -3.968069e+02
      vertex 2.717000e+02 1.611904e+01 -3.968642e+02
    endloop
  endfacet
  facet normal 3.826834e-01 -2.890664e-02 9.234272e-01
    outer loop
      vertex 2.722303e+02 1.795483e+01 -3.970265e+02
      vertex 2.717000e+02 1.794795e+01 -3.968069e+02
      vertex 2.722303e+02 1.612591e+01 -3.970837e+02
    endloop
  endfacet
  facet normal 8.931899e-13 9.995104e-01 3.128833e-02
    outer loop
      vertex 2.722303e+02 1.795483e+01 -3.970265e+02
      vertex 9.977240e+01 1.801053e+01 -3.988059e+02
      vertex 2.717000e+02 1.794795e+01 -3.968069e+02
    endloop
  endfacet
  facet normal 8.931809e-13 9.995104e-01 3.128833e-02
    outer loop
      vertex 2.717000e+02 1.604082e+01 -3.943654e+02
      vertex 2.717000e+02 1.611904e+01 -3.968642e+02
      vertex 1.008107e+02 1.611904e+01 -3.968642e+02
    endloop
  endfacet
  facet normal 8.931595e-13 9.995104e-01 3.128833e-02
    outer loop
      vertex 2.722303e+02 1.603394e+01 -3.941458e+02
      vertex 2.722303e+02 1.612591e+01 -3.970837e+02
      vertex 2.717000e+02 1.611904e+01 -3.968642e+02
    endloop
  endfacet
  facet normal 9.020417e-13 9.995104e-01 3.128833e-02
    outer loop
      vertex 2.717000e+02 1.604082e+01 -3.943654e+02
      vertex 2.722303e+02 1.603394e+01 -3.941458e+02
      vertex 2.717000e+02 1.611904e+01 -3.968642e+02
    endloop
  endfacet
  facet normal 8.931857e-13 9.995104e-01 3.128833e-02
    outer loop
      vertex 1.017180e+02 1.604082e+01 -3.943654e+02
      vertex 2.717000e+02 1.604082e+01 -3.943654e+02
      vertex 1.008107e+02 1.611904e+01 -3.968642e+02
    endloop
  endfacet
  facet normal 8.875473e-13 9.995104e-01 3.128833e-02
    outer loop
      vertex 1.011704e+02 1.603338e+01 -3.941278e+02
      vertex 1.017180e+02 1.604082e+01 -3.943654e+02
      vertex 1.008107e+02 1.611904e+01 -3.968642e+02
    endloop
  endfacet
  facet normal 8.914490e-13 9.995104e-01 3.128833e-02
    outer loop
      vertex 1.009697e+02 1.601578e+01 -3.935658e+02
      vertex 1.011704e+02 1.603338e+01 -3.941278e+02
      vertex 1.008107e+02 1.611904e+01 -3.968642e+02
    endloop
  endfacet
  facet normal 8.993153e-13 9.995104e-01 3.128833e-02
    outer loop
      vertex 1.005121e+02 1.607704e+01 -3.955225e+02
      vertex 1.009697e+02 1.601578e+01 -3.935658e+02
      vertex 1.008107e+02 1.611904e+01 -3.968642e+02
    endloop
  endfacet
  facet normal 9.026125e-13 9.995104e-01 3.128833e-02
    outer loop
      vertex 1.003408e+02 1.612421e+01 -3.970295e+02
      vertex 1.005121e+02 1.607704e+01 -3.955225e+02
      vertex 1.008107e+02 1.611904e+01 -3.968642e+02
    endloop
  endfacet
  facet normal -3.321065e-01 -2.951246e-02 9.427801e-01
    outer loop
      vertex 1.003408e+02 1.795313e+01 -3.969723e+02
      vertex 1.003408e+02 1.612421e+01 -3.970295e+02
      vertex 1.008107e+02 1.611904e+01 -3.968642e+02
    endloop
  endfacet
  facet normal 3.826834e-01 2.890664e-02 -9.234272e-01
    outer loop
      vertex 2.722303e+02 1.720737e+01 -3.941091e+02
      vertex 2.722303e+02 1.603394e+01 -3.941458e+02
      vertex 2.717000e+02 1.604082e+01 -3.943654e+02
    endloop
  endfacet
  facet normal 2.795999e-14 3.128833e-02 -9.995104e-01
    outer loop
      vertex 2.717000e+02 1.721424e+01 -3.943287e+02
      vertex 2.717000e+02 1.604082e+01 -3.943654e+02
      vertex 1.017180e+02 1.604082e+01 -3.943654e+02
    endloop
  endfacet
  facet normal 3.826834e-01 2.890664e-02 -9.234272e-01
    outer loop
      vertex 2.722303e+02 1.720737e+01 -3.941091e+02
      vertex 2.717000e+02 1.604082e+01 -3.943654e+02
      vertex 2.717000e+02 1.721424e+01 -3.943287e+02
    endloop
  endfacet
  facet normal -3.981128e-01 2.870192e-02 -9.168874e-01
    outer loop
      vertex 1.017180e+02 1.721424e+01 -3.943287e+02
      vertex 1.017180e+02 1.604082e+01 -3.943654e+02
      vertex 1.011704e+02 1.603338e+01 -3.941278e+02
    endloop
  endfacet
  facet normal 2.795998e-14 3.128833e-02 -9.995104e-01
    outer loop
      vertex 1.017180e+02 1.721424e+01 -3.943287e+02
      vertex 2.717000e+02 1.721424e+01 -3.943287e+02
      vertex 1.017180e+02 1.604082e+01 -3.943654e+02
    endloop
  endfacet
  facet normal -9.418365e-01 1.051511e-02 -3.359068e-01
    outer loop
      vertex 1.011704e+02 1.720680e+01 -3.940911e+02
      vertex 1.011704e+02 1.603338e+01 -3.941278e+02
      vertex 1.009697e+02 1.601578e+01 -3.935658e+02
    endloop
  endfacet
  facet normal -3.981128e-01 2.870192e-02 -9.168874e-01
    outer loop
      vertex 1.011704e+02 1.720680e+01 -3.940911e+02
      vertex 1.017180e+02 1.721424e+01 -3.943287e+02
      vertex 1.011704e+02 1.603338e+01 -3.941278e+02
    endloop
  endfacet
  facet normal -9.737517e-01 -7.121628e-03 2.275015e-01
    outer loop
      vertex 1.009697e+02 1.499029e+01 -3.935979e+02
      vertex 1.009697e+02 1.601578e+01 -3.935658e+02
      vertex 1.005121e+02 1.607704e+01 -3.955225e+02
    endloop
  endfacet
  facet normal -9.418365e-01 1.051511e-02 -3.359068e-01
    outer loop
      vertex 1.011704e+02 1.720680e+01 -3.940911e+02
      vertex 1.009697e+02 1.601578e+01 -3.935658e+02
      vertex 1.009697e+02 1.718921e+01 -3.935290e+02
    endloop
  endfacet
  facet normal -2.909325e-14 -3.128833e-02 9.995104e-01
    outer loop
      vertex 2.012500e+02 1.499029e+01 -3.935979e+02
      vertex 1.009697e+02 1.718921e+01 -3.935290e+02
      vertex 1.009697e+02 1.601578e+01 -3.935658e+02
    endloop
  endfacet
  facet normal -2.796024e-14 -3.128833e-02 9.995104e-01
    outer loop
      vertex 2.012500e+02 1.499029e+01 -3.935979e+02
      vertex 1.009697e+02 1.601578e+01 -3.935658e+02
      vertex 1.009697e+02 1.499029e+01 -3.935979e+02
    endloop
  endfacet
  facet normal 8.947823e-13 9.995104e-01 3.128833e-02
    outer loop
      vertex 1.003408e+02 1.612421e+01 -3.970295e+02
      vertex 1.000782e+02 1.613746e+01 -3.974527e+02
      vertex 1.005121e+02 1.607704e+01 -3.955225e+02
    endloop
  endfacet
  facet normal -9.755363e-01 -2.371572e-02 2.185556e-01
    outer loop
      vertex 1.009697e+02 1.499029e+01 -3.935979e+02
      vertex 1.005121e+02 1.607704e+01 -3.955225e+02
      vertex 1.000782e+02 1.613746e+01 -3.974527e+02
    endloop
  endfacet
  facet normal -8.498012e-01 -1.649218e-02 5.268453e-01
    outer loop
      vertex 1.000782e+02 1.796638e+01 -3.973954e+02
      vertex 1.000782e+02 1.613746e+01 -3.974527e+02
      vertex 1.003408e+02 1.612421e+01 -3.970295e+02
    endloop
  endfacet
  facet normal -9.761800e-01 -4.654189e-02 2.119115e-01
    outer loop
      vertex 1.009697e+02 1.499029e+01 -3.935979e+02
      vertex 1.000782e+02 1.613746e+01 -3.974527e+02
      vertex 9.913254e+01 1.525340e+01 -4.020031e+02
    endloop
  endfacet
  facet normal -9.785805e-01 -1.126200e-02 2.055562e-01
    outer loop
      vertex 9.977240e+01 1.801053e+01 -3.988059e+02
      vertex 9.913254e+01 1.525340e+01 -4.020031e+02
      vertex 1.000782e+02 1.613746e+01 -3.974527e+02
    endloop
  endfacet
  facet normal -9.776596e-01 -7.866825e-03 2.100474e-01
    outer loop
      vertex 9.992344e+01 1.798855e+01 -3.981038e+02
      vertex 9.977240e+01 1.801053e+01 -3.988059e+02
      vertex 1.000782e+02 1.613746e+01 -3.974527e+02
    endloop
  endfacet
  facet normal -9.769707e-01 -6.676096e-03 2.132689e-01
    outer loop
      vertex 1.000782e+02 1.796638e+01 -3.973954e+02
      vertex 9.992344e+01 1.798855e+01 -3.981038e+02
      vertex 1.000782e+02 1.613746e+01 -3.974527e+02
    endloop
  endfacet
  facet normal -8.498012e-01 -1.649218e-02 5.268453e-01
    outer loop
      vertex 1.003408e+02 1.795313e+01 -3.969723e+02
      vertex 1.000782e+02 1.796638e+01 -3.973954e+02
      vertex 1.003408e+02 1.612421e+01 -3.970295e+02
    endloop
  endfacet
  facet normal 8.931857e-13 9.995104e-01 3.128833e-02
    outer loop
      vertex 2.012500e+02 1.718921e+01 -3.935290e+02
      vertex 2.717000e+02 1.721424e+01 -3.943287e+02
      vertex 1.017180e+02 1.721424e+01 -3.943287e+02
    endloop
  endfacet
  facet normal 8.932750e-13 9.995104e-01 3.128833e-02
    outer loop
      vertex 2.013500e+02 1.718608e+01 -3.934291e+02
      vertex 2.014000e+02 1.715479e+01 -3.924296e+02
      vertex 2.717000e+02 1.721424e+01 -3.943287e+02
    endloop
  endfacet
  facet normal 8.935683e-13 9.995104e-01 3.128833e-02
    outer loop
      vertex 2.013207e+02 1.718829e+01 -3.934998e+02
      vertex 2.013500e+02 1.718608e+01 -3.934291e+02
      vertex 2.717000e+02 1.721424e+01 -3.943287e+02
    endloop
  endfacet
  facet normal 8.919665e-13 9.995104e-01 3.128833e-02
    outer loop
      vertex 2.012500e+02 1.718921e+01 -3.935290e+02
      vertex 2.013207e+02 1.718829e+01 -3.934998e+02
      vertex 2.717000e+02 1.721424e+01 -3.943287e+02
    endloop
  endfacet
  facet normal 8.930877e-13 9.995104e-01 3.128833e-02
    outer loop
      vertex 1.011704e+02 1.720680e+01 -3.940911e+02
      vertex 2.012500e+02 1.718921e+01 -3.935290e+02
      vertex 1.017180e+02 1.721424e+01 -3.943287e+02
    endloop
  endfacet
  facet normal 1.061578e-12 9.995104e-01 3.128833e-02
    outer loop
      vertex 2.013500e+02 1.718608e+01 -3.934291e+02
      vertex 2.013500e+02 1.715636e+01 -3.924796e+02
      vertex 2.014000e+02 1.715479e+01 -3.924296e+02
    endloop
  endfacet
  facet normal -7.071068e-01 -2.212419e-02 7.067606e-01
    outer loop
      vertex 2.013500e+02 1.495743e+01 -3.925484e+02
      vertex 2.014000e+02 1.715479e+01 -3.924296e+02
      vertex 2.013500e+02 1.715636e+01 -3.924796e+02
    endloop
  endfacet
  facet normal -7.071068e-01 -2.212419e-02 7.067606e-01
    outer loop
      vertex 2.013500e+02 1.495743e+01 -3.925484e+02
      vertex 2.014000e+02 1.495587e+01 -3.924984e+02
      vertex 2.014000e+02 1.715479e+01 -3.924296e+02
    endloop
  endfacet
  facet normal -1.000000e+00 8.919078e-13 -2.012273e-15
    outer loop
      vertex 2.013500e+02 1.498716e+01 -3.934979e+02
      vertex 2.013500e+02 1.715636e+01 -3.924796e+02
      vertex 2.013500e+02 1.718608e+01 -3.934291e+02
    endloop
  endfacet
  facet normal -1.000000e+00 8.919078e-13 -2.012273e-15
    outer loop
      vertex 2.013500e+02 1.495743e+01 -3.925484e+02
      vertex 2.013500e+02 1.715636e+01 -3.924796e+02
      vertex 2.013500e+02 1.498716e+01 -3.934979e+02
    endloop
  endfacet
  facet normal -9.238795e-01 -1.197352e-02 3.824961e-01
    outer loop
      vertex 2.013500e+02 1.498716e+01 -3.934979e+02
      vertex 2.013500e+02 1.718608e+01 -3.934291e+02
      vertex 2.013207e+02 1.718829e+01 -3.934998e+02
    endloop
  endfacet
  facet normal -3.826834e-01 -2.890664e-02 9.234272e-01
    outer loop
      vertex 2.013207e+02 1.498937e+01 -3.935686e+02
      vertex 2.013207e+02 1.718829e+01 -3.934998e+02
      vertex 2.012500e+02 1.718921e+01 -3.935290e+02
    endloop
  endfacet
  facet normal -9.238795e-01 -1.197352e-02 3.824961e-01
    outer loop
      vertex 2.013500e+02 1.498716e+01 -3.934979e+02
      vertex 2.013207e+02 1.718829e+01 -3.934998e+02
      vertex 2.013207e+02 1.498937e+01 -3.935686e+02
    endloop
  endfacet
  facet normal 8.931588e-13 9.995104e-01 3.128833e-02
    outer loop
      vertex 1.011704e+02 1.720680e+01 -3.940911e+02
      vertex 1.009697e+02 1.718921e+01 -3.935290e+02
      vertex 2.012500e+02 1.718921e+01 -3.935290e+02
    endloop
  endfacet
  facet normal -2.909335e-14 -3.128833e-02 9.995104e-01
    outer loop
      vertex 2.012500e+02 1.499029e+01 -3.935979e+02
      vertex 2.012500e+02 1.718921e+01 -3.935290e+02
      vertex 1.009697e+02 1.718921e+01 -3.935290e+02
    endloop
  endfacet
  facet normal -3.826834e-01 -2.890664e-02 9.234272e-01
    outer loop
      vertex 2.013207e+02 1.498937e+01 -3.935686e+02
      vertex 2.012500e+02 1.718921e+01 -3.935290e+02
      vertex 2.012500e+02 1.499029e+01 -3.935979e+02
    endloop
  endfacet
  facet normal -8.784912e-13 -9.995104e-01 -3.128833e-02
    outer loop
      vertex 2.556410e+02 1.572869e+01 -4.171863e+02
      vertex 2.014000e+02 1.495587e+01 -3.924984e+02
      vertex 2.013500e+02 1.495743e+01 -3.925484e+02
    endloop
  endfacet
  facet normal -8.951361e-13 -9.995104e-01 -3.128833e-02
    outer loop
      vertex 9.779575e+01 1.548863e+01 -4.095176e+02
      vertex 9.730233e+01 1.685838e+01 -4.532745e+02
      vertex 9.848149e+01 1.706009e+01 -4.597181e+02
    endloop
  endfacet
  facet normal -8.949379e-13 -9.995104e-01 -3.128833e-02
    outer loop
      vertex 9.913254e+01 1.525340e+01 -4.020031e+02
      vertex 9.779575e+01 1.548863e+01 -4.095176e+02
      vertex 9.848149e+01 1.706009e+01 -4.597181e+02
    endloop
  endfacet
  facet normal -9.663315e-01 -3.219307e-02 -2.552783e-01
    outer loop
      vertex 9.967948e+01 2.057608e+01 -4.646963e+02
      vertex 9.986493e+01 2.059815e+01 -4.654011e+02
      vertex 9.848149e+01 1.706009e+01 -4.597181e+02
    endloop
  endfacet
  facet normal -9.683053e-01 -2.230768e-02 -2.487715e-01
    outer loop
      vertex 9.949053e+01 2.055300e+01 -4.639588e+02
      vertex 9.967948e+01 2.057608e+01 -4.646963e+02
      vertex 9.848149e+01 1.706009e+01 -4.597181e+02
    endloop
  endfacet
  facet normal -8.953690e-13 -9.995104e-01 -3.128833e-02
    outer loop
      vertex 9.628000e+01 1.588767e+01 -4.222648e+02
      vertex 9.628000e+01 1.658775e+01 -4.446290e+02
      vertex 9.730233e+01 1.685838e+01 -4.532745e+02
    endloop
  endfacet
  facet normal -8.890478e-13 -9.995104e-01 -3.128833e-02
    outer loop
      vertex 9.687091e+01 1.569917e+01 -4.162432e+02
      vertex 9.628000e+01 1.588767e+01 -4.222648e+02
      vertex 9.730233e+01 1.685838e+01 -4.532745e+02
    endloop
  endfacet
  facet normal -8.921041e-13 -9.995104e-01 -3.128833e-02
    outer loop
      vertex 9.779575e+01 1.548863e+01 -4.095176e+02
      vertex 9.687091e+01 1.569917e+01 -4.162432e+02
      vertex 9.730233e+01 1.685838e+01 -4.532745e+02
    endloop
  endfacet
  facet normal -7.071068e-01 -7.067606e-01 -2.212419e-02
    outer loop
      vertex 9.583006e+01 1.669625e+01 -4.337149e+02
      vertex 9.628000e+01 1.658775e+01 -4.446290e+02
      vertex 9.628000e+01 1.588767e+01 -4.222648e+02
    endloop
  endfacet
  facet normal -9.992315e-01 -1.246843e-03 3.917735e-02
    outer loop
      vertex 9.583006e+01 1.669625e+01 -4.337149e+02
      vertex 9.628000e+01 1.588767e+01 -4.222648e+02
      vertex 9.583006e+01 1.901170e+01 -4.336412e+02
    endloop
  endfacet
  facet normal -8.931943e-13 -9.995104e-01 -3.128833e-02
    outer loop
      vertex 1.584000e+02 1.572869e+01 -4.171863e+02
      vertex 2.012500e+02 1.499029e+01 -3.935979e+02
      vertex 1.009697e+02 1.499029e+01 -3.935979e+02
    endloop
  endfacet
  facet normal -8.924921e-13 -9.995104e-01 -3.128833e-02
    outer loop
      vertex 1.569000e+02 1.577562e+01 -4.186856e+02
      vertex 1.584000e+02 1.572869e+01 -4.171863e+02
      vertex 1.009697e+02 1.499029e+01 -3.935979e+02
    endloop
  endfacet
  facet normal -8.944457e-13 -9.995104e-01 -3.128833e-02
    outer loop
      vertex 1.584000e+02 1.582256e+01 -4.201849e+02
      vertex 1.569000e+02 1.577562e+01 -4.186856e+02
      vertex 1.009697e+02 1.499029e+01 -3.935979e+02
    endloop
  endfacet
  facet normal -8.963887e-13 -9.995104e-01 -3.128833e-02
    outer loop
      vertex 2.556410e+02 1.572869e+01 -4.171863e+02
      vertex 2.013207e+02 1.498937e+01 -3.935686e+02
      vertex 2.012500e+02 1.499029e+01 -3.935979e+02
    endloop
  endfacet
  facet normal -8.931755e-13 -9.995104e-01 -3.128833e-02
    outer loop
      vertex 2.556410e+02 1.572869e+01 -4.171863e+02
      vertex 2.012500e+02 1.499029e+01 -3.935979e+02
      vertex 1.584000e+02 1.572869e+01 -4.171863e+02
    endloop
  endfacet
  facet normal -8.856097e-13 -9.995104e-01 -3.128833e-02
    outer loop
      vertex 2.556410e+02 1.572869e+01 -4.171863e+02
      vertex 2.013500e+02 1.498716e+01 -3.934979e+02
      vertex 2.013207e+02 1.498937e+01 -3.935686e+02
    endloop
  endfacet
  facet normal -8.936813e-13 -9.995104e-01 -3.128833e-02
    outer loop
      vertex 2.556410e+02 1.572869e+01 -4.171863e+02
      vertex 2.013500e+02 1.495743e+01 -3.925484e+02
      vertex 2.013500e+02 1.498716e+01 -3.934979e+02
    endloop
  endfacet
  facet normal 1.492090e-12 9.995104e-01 3.128833e-02
    outer loop
      vertex 1.000782e+02 1.796638e+01 -3.973954e+02
      vertex 9.977240e+01 1.801053e+01 -3.988059e+02
      vertex 9.992344e+01 1.798855e+01 -3.981038e+02
    endloop
  endfacet
  facet normal 8.973366e-13 9.995104e-01 3.128833e-02
    outer loop
      vertex 1.003408e+02 1.795313e+01 -3.969723e+02
      vertex 9.977240e+01 1.801053e+01 -3.988059e+02
      vertex 1.000782e+02 1.796638e+01 -3.973954e+02
    endloop
  endfacet
endsolid P1040852002
