solid P1040852002
  facet normal 1.000000e+00 -7.013595e-13 -8.404107e-15
    outer loop
      vertex 2.724500e+02 -1.073391e+01 -4.682073e+02
      vertex 2.724500e+02 -7.690106e+00 -3.975650e+02
      vertex 2.724500e+02 -7.575922e+00 -3.935666e+02
    endloop
  endfacet
  facet normal 8.924507e-13 9.995925e-01 -2.854603e-02
    outer loop
      vertex 2.722303e+02 -7.674967e+00 -3.970348e+02
      vertex 2.724500e+02 -7.575922e+00 -3.935666e+02
      vertex 2.724500e+02 -7.690106e+00 -3.975650e+02
    endloop
  endfacet
  facet normal 1.000000e+00 -9.153611e-13 6.501077e-16
    outer loop
      vertex 2.724500e+02 -8.568675e+00 -3.923878e+02
      vertex 2.724500e+02 -1.073391e+01 -4.682073e+02
      vertex 2.724500e+02 -7.575922e+00 -3.935666e+02
    endloop
  endfacet
  facet normal 1.000000e+00 -8.779285e-13 3.217429e-14
    outer loop
      vertex 2.724500e+02 -6.369572e+00 -3.924506e+02
      vertex 2.724500e+02 -8.568675e+00 -3.923878e+02
      vertex 2.724500e+02 -7.575922e+00 -3.935666e+02
    endloop
  endfacet
  facet normal 1.000000e+00 -8.711794e-13 2.487885e-14
    outer loop
      vertex 2.724500e+02 -6.402400e+00 -3.936001e+02
      vertex 2.724500e+02 -6.369572e+00 -3.924506e+02
      vertex 2.724500e+02 -7.575922e+00 -3.935666e+02
    endloop
  endfacet
  facet normal 9.238795e-01 -1.092409e-02 -3.825275e-01
    outer loop
      vertex 2.722303e+02 -7.591060e+00 -3.940967e+02
      vertex 2.724500e+02 -6.402400e+00 -3.936001e+02
      vertex 2.724500e+02 -7.575922e+00 -3.935666e+02
    endloop
  endfacet
  facet normal 8.942006e-13 9.995925e-01 -2.854603e-02
    outer loop
      vertex 2.722303e+02 -7.591060e+00 -3.940967e+02
      vertex 2.724500e+02 -7.575922e+00 -3.935666e+02
      vertex 2.722303e+02 -7.674967e+00 -3.970348e+02
    endloop
  endfacet
  facet normal 1.000000e+00 -8.702106e-13 -1.128746e-15
    outer loop
      vertex 2.724500e+02 -1.073391e+01 -4.682073e+02
      vertex 2.724500e+02 -5.861037e+00 -3.976172e+02
      vertex 2.724500e+02 -7.690106e+00 -3.975650e+02
    endloop
  endfacet
  facet normal 9.238795e-01 1.092409e-02 3.825275e-01
    outer loop
      vertex 2.722303e+02 -5.845898e+00 -3.970871e+02
      vertex 2.724500e+02 -7.690106e+00 -3.975650e+02
      vertex 2.724500e+02 -5.861037e+00 -3.976172e+02
    endloop
  endfacet
  facet normal 9.238795e-01 1.092409e-02 3.825275e-01
    outer loop
      vertex 2.722303e+02 -5.845898e+00 -3.970871e+02
      vertex 2.722303e+02 -7.674967e+00 -3.970348e+02
      vertex 2.724500e+02 -7.690106e+00 -3.975650e+02
    endloop
  endfacet
  facet normal 1.000000e+00 -1.512122e-12 4.318267e-14
    outer loop
      vertex 2.724500e+02 -1.073391e+01 -4.682073e+02
      vertex 2.724500e+02 -5.896720e+00 -3.988667e+02
      vertex 2.724500e+02 -5.861037e+00 -3.976172e+02
    endloop
  endfacet
  facet normal 8.932582e-13 9.995925e-01 -2.854603e-02
    outer loop
      vertex 9.977240e+01 -5.896720e+00 -3.988667e+02
      vertex 2.724500e+02 -5.861037e+00 -3.976172e+02
      vertex 2.724500e+02 -5.896720e+00 -3.988667e+02
    endloop
  endfacet
  facet normal 8.932377e-13 9.995925e-01 -2.854603e-02
    outer loop
      vertex 2.722303e+02 -5.845898e+00 -3.970871e+02
      vertex 2.724500e+02 -5.861037e+00 -3.976172e+02
      vertex 9.977240e+01 -5.896720e+00 -3.988667e+02
    endloop
  endfacet
  facet normal 1.000000e+00 -1.136846e-12 1.700354e-14
    outer loop
      vertex 2.724500e+02 -1.073391e+01 -4.682073e+02
      vertex 2.724500e+02 -5.796761e+00 -3.988695e+02
      vertex 2.724500e+02 -5.896720e+00 -3.988667e+02
    endloop
  endfacet
  facet normal 2.485185e-14 2.854603e-02 9.995925e-01
    outer loop
      vertex 9.977240e+01 -5.796761e+00 -3.988695e+02
      vertex 2.724500e+02 -5.896720e+00 -3.988667e+02
      vertex 2.724500e+02 -5.796761e+00 -3.988695e+02
    endloop
  endfacet
  facet normal 2.550937e-14 2.854603e-02 9.995925e-01
    outer loop
      vertex 9.977240e+01 -5.896720e+00 -3.988667e+02
      vertex 2.724500e+02 -5.896720e+00 -3.988667e+02
      vertex 9.977240e+01 -5.796761e+00 -3.988695e+02
    endloop
  endfacet
  facet normal 1.000000e+00 -1.337162e-12 8.993633e-15
    outer loop
      vertex 2.724500e+02 -7.255444e+00 -4.640550e+02
      vertex 2.724500e+02 -7.170439e+00 -4.640574e+02
      vertex 2.724500e+02 -5.796761e+00 -3.988695e+02
    endloop
  endfacet
  facet normal 8.935476e-13 9.997780e-01 -2.106793e-02
    outer loop
      vertex 2.556410e+02 -6.245520e+00 -4.201654e+02
      vertex 2.724500e+02 -5.796761e+00 -3.988695e+02
      vertex 2.724500e+02 -7.170439e+00 -4.640574e+02
    endloop
  endfacet
  facet normal 1.000000e+00 -8.809937e-13 -1.214246e-15
    outer loop
      vertex 2.724500e+02 -1.073391e+01 -4.682073e+02
      vertex 2.724500e+02 -7.255444e+00 -4.640550e+02
      vertex 2.724500e+02 -5.796761e+00 -3.988695e+02
    endloop
  endfacet
  facet normal 8.934586e-13 9.997780e-01 -2.106793e-02
    outer loop
      vertex 1.584000e+02 -6.182314e+00 -4.171660e+02
      vertex 9.977240e+01 -5.796761e+00 -3.988695e+02
      vertex 2.724500e+02 -5.796761e+00 -3.988695e+02
    endloop
  endfacet
  facet normal 8.934147e-13 9.997780e-01 -2.106793e-02
    outer loop
      vertex 2.556410e+02 -6.182314e+00 -4.171660e+02
      vertex 1.584000e+02 -6.182314e+00 -4.171660e+02
      vertex 2.724500e+02 -5.796761e+00 -3.988695e+02
    endloop
  endfacet
  facet normal 8.938997e-13 9.997780e-01 -2.106793e-02
    outer loop
      vertex 2.556410e+02 -6.245520e+00 -4.201654e+02
      vertex 2.556410e+02 -6.182314e+00 -4.171660e+02
      vertex 2.724500e+02 -5.796761e+00 -3.988695e+02
    endloop
  endfacet
  facet normal -2.550943e-14 -2.854603e-02 -9.995925e-01
    outer loop
      vertex 9.949053e+01 -7.255444e+00 -4.640550e+02
      vertex 2.724500e+02 -7.170439e+00 -4.640574e+02
      vertex 2.724500e+02 -7.255444e+00 -4.640550e+02
    endloop
  endfacet
  facet normal 8.934259e-13 9.997780e-01 -2.106793e-02
    outer loop
      vertex 2.556410e+02 -6.245520e+00 -4.201654e+02
      vertex 2.724500e+02 -7.170439e+00 -4.640574e+02
      vertex 9.949053e+01 -7.170439e+00 -4.640574e+02
    endloop
  endfacet
  facet normal -2.550943e-14 -2.854603e-02 -9.995925e-01
    outer loop
      vertex 9.949053e+01 -7.255444e+00 -4.640550e+02
      vertex 9.949053e+01 -7.170439e+00 -4.640574e+02
      vertex 2.724500e+02 -7.170439e+00 -4.640574e+02
    endloop
  endfacet
  facet normal 1.000000e+00 -9.190912e-13 2.624710e-14
    outer loop
      vertex 2.724500e+02 -8.156283e+00 -4.652797e+02
      vertex 2.724500e+02 -7.291125e+00 -4.653044e+02
      vertex 2.724500e+02 -7.255444e+00 -4.640550e+02
    endloop
  endfacet
  facet normal 8.881756e-13 9.995925e-01 -2.854603e-02
    outer loop
      vertex 2.722303e+02 -7.306264e+00 -4.658345e+02
      vertex 2.724500e+02 -7.255444e+00 -4.640550e+02
      vertex 2.724500e+02 -7.291125e+00 -4.653044e+02
    endloop
  endfacet
  facet normal 1.000000e+00 -8.755033e-13 -5.813605e-15
    outer loop
      vertex 2.724500e+02 -1.073391e+01 -4.682073e+02
      vertex 2.724500e+02 -8.156283e+00 -4.652797e+02
      vertex 2.724500e+02 -7.255444e+00 -4.640550e+02
    endloop
  endfacet
  facet normal 8.932523e-13 9.995925e-01 -2.854603e-02
    outer loop
      vertex 1.005897e+02 -7.312534e+00 -4.660541e+02
      vertex 2.724500e+02 -7.255444e+00 -4.640550e+02
      vertex 2.717000e+02 -7.312534e+00 -4.660541e+02
    endloop
  endfacet
  facet normal 9.003182e-13 9.995925e-01 -2.854603e-02
    outer loop
      vertex 2.722303e+02 -7.306264e+00 -4.658345e+02
      vertex 2.717000e+02 -7.312534e+00 -4.660541e+02
      vertex 2.724500e+02 -7.255444e+00 -4.640550e+02
    endloop
  endfacet
  facet normal 8.932162e-13 9.995925e-01 -2.854603e-02
    outer loop
      vertex 1.001327e+02 -7.308099e+00 -4.658988e+02
      vertex 2.724500e+02 -7.255444e+00 -4.640550e+02
      vertex 1.005897e+02 -7.312534e+00 -4.660541e+02
    endloop
  endfacet
  facet normal 8.932390e-13 9.995925e-01 -2.854603e-02
    outer loop
      vertex 9.967948e+01 -7.276507e+00 -4.647926e+02
      vertex 2.724500e+02 -7.255444e+00 -4.640550e+02
      vertex 9.986493e+01 -7.296636e+00 -4.654974e+02
    endloop
  endfacet
  facet normal 8.932742e-13 9.995925e-01 -2.854603e-02
    outer loop
      vertex 1.001327e+02 -7.308099e+00 -4.658988e+02
      vertex 9.986493e+01 -7.296636e+00 -4.654974e+02
      vertex 2.724500e+02 -7.255444e+00 -4.640550e+02
    endloop
  endfacet
  facet normal 8.932603e-13 9.995925e-01 -2.854603e-02
    outer loop
      vertex 9.949053e+01 -7.255444e+00 -4.640550e+02
      vertex 2.724500e+02 -7.255444e+00 -4.640550e+02
      vertex 9.967948e+01 -7.276507e+00 -4.647926e+02
    endloop
  endfacet
  facet normal 9.238795e-01 -1.092409e-02 -3.825275e-01
    outer loop
      vertex 2.722303e+02 -8.171422e+00 -4.658098e+02
      vertex 2.724500e+02 -7.291125e+00 -4.653044e+02
      vertex 2.724500e+02 -8.156283e+00 -4.652797e+02
    endloop
  endfacet
  facet normal 9.238795e-01 -1.092409e-02 -3.825275e-01
    outer loop
      vertex 2.722303e+02 -7.306264e+00 -4.658345e+02
      vertex 2.724500e+02 -7.291125e+00 -4.653044e+02
      vertex 2.722303e+02 -8.171422e+00 -4.658098e+02
    endloop
  endfacet
  facet normal 1.000000e+00 -8.894257e-13 6.444389e-15
    outer loop
      vertex 2.724500e+02 -1.073391e+01 -4.682073e+02
      vertex 2.724500e+02 -8.241921e+00 -4.682785e+02
      vertex 2.724500e+02 -8.156283e+00 -4.652797e+02
    endloop
  endfacet
  facet normal 8.921664e-13 9.995925e-01 -2.854603e-02
    outer loop
      vertex 2.722303e+02 -8.171422e+00 -4.658098e+02
      vertex 2.724500e+02 -8.156283e+00 -4.652797e+02
      vertex 2.724500e+02 -8.241921e+00 -4.682785e+02
    endloop
  endfacet
  facet normal -2.550967e-14 -2.854603e-02 -9.995925e-01
    outer loop
      vertex 1.006510e+02 -1.073391e+01 -4.682073e+02
      vertex 2.724500e+02 -8.241921e+00 -4.682785e+02
      vertex 2.724500e+02 -1.073391e+01 -4.682073e+02
    endloop
  endfacet
  facet normal -2.550971e-14 -2.854603e-02 -9.995925e-01
    outer loop
      vertex 1.006510e+02 -1.073391e+01 -4.682073e+02
      vertex 1.006510e+02 -8.241921e+00 -4.682785e+02
      vertex 2.724500e+02 -8.241921e+00 -4.682785e+02
    endloop
  endfacet
  facet normal 8.932687e-13 9.995925e-01 -2.854603e-02
    outer loop
      vertex 2.717000e+02 -8.177693e+00 -4.660294e+02
      vertex 2.724500e+02 -8.241921e+00 -4.682785e+02
      vertex 1.006510e+02 -8.241921e+00 -4.682785e+02
    endloop
  endfacet
  facet normal 8.957541e-13 9.995925e-01 -2.854603e-02
    outer loop
      vertex 2.722303e+02 -8.171422e+00 -4.658098e+02
      vertex 2.724500e+02 -8.241921e+00 -4.682785e+02
      vertex 2.717000e+02 -8.177693e+00 -4.660294e+02
    endloop
  endfacet
  facet normal -8.932535e-13 -9.995925e-01 2.854603e-02
    outer loop
      vertex 2.556410e+02 -9.273762e+00 -4.170777e+02
      vertex 2.724500e+02 -1.073391e+01 -4.682073e+02
      vertex 2.724500e+02 -8.568675e+00 -3.923878e+02
    endloop
  endfacet
  facet normal -8.932691e-13 -9.995925e-01 2.854603e-02
    outer loop
      vertex 1.584000e+02 -9.359400e+00 -4.200765e+02
      vertex 1.006510e+02 -1.073391e+01 -4.682073e+02
      vertex 2.724500e+02 -1.073391e+01 -4.682073e+02
    endloop
  endfacet
  facet normal -8.932671e-13 -9.995925e-01 2.854603e-02
    outer loop
      vertex 2.556410e+02 -9.359400e+00 -4.200765e+02
      vertex 1.584000e+02 -9.359400e+00 -4.200765e+02
      vertex 2.724500e+02 -1.073391e+01 -4.682073e+02
    endloop
  endfacet
  facet normal -8.910141e-13 -9.995925e-01 2.854603e-02
    outer loop
      vertex 2.556410e+02 -9.273762e+00 -4.170777e+02
      vertex 2.556410e+02 -9.359400e+00 -4.200765e+02
      vertex 2.724500e+02 -1.073391e+01 -4.682073e+02
    endloop
  endfacet
  facet normal 2.550883e-14 2.854603e-02 9.995925e-01
    outer loop
      vertex 2.014000e+02 -6.369572e+00 -3.924506e+02
      vertex 2.724500e+02 -8.568675e+00 -3.923878e+02
      vertex 2.724500e+02 -6.369572e+00 -3.924506e+02
    endloop
  endfacet
  facet normal 2.550955e-14 2.854603e-02 9.995925e-01
    outer loop
      vertex 2.014000e+02 -8.568675e+00 -3.923878e+02
      vertex 2.724500e+02 -8.568675e+00 -3.923878e+02
      vertex 2.014000e+02 -6.369572e+00 -3.924506e+02
    endloop
  endfacet
  facet normal -8.932643e-13 -9.995925e-01 2.854603e-02
    outer loop
      vertex 2.556410e+02 -9.273762e+00 -4.170777e+02
      vertex 2.724500e+02 -8.568675e+00 -3.923878e+02
      vertex 2.014000e+02 -8.568675e+00 -3.923878e+02
    endloop
  endfacet
  facet normal 8.984263e-13 9.995925e-01 -2.854603e-02
    outer loop
      vertex 2.722303e+02 -6.417539e+00 -3.941302e+02
      vertex 2.724500e+02 -6.369572e+00 -3.924506e+02
      vertex 2.724500e+02 -6.402400e+00 -3.936001e+02
    endloop
  endfacet
  facet normal 8.932396e-13 9.995925e-01 -2.854603e-02
    outer loop
      vertex 2.014000e+02 -6.369572e+00 -3.924506e+02
      vertex 2.724500e+02 -6.369572e+00 -3.924506e+02
      vertex 2.717000e+02 -6.423809e+00 -3.943498e+02
    endloop
  endfacet
  facet normal 8.966252e-13 9.995925e-01 -2.854603e-02
    outer loop
      vertex 2.722303e+02 -6.417539e+00 -3.941302e+02
      vertex 2.717000e+02 -6.423809e+00 -3.943498e+02
      vertex 2.724500e+02 -6.369572e+00 -3.924506e+02
    endloop
  endfacet
  facet normal 9.238795e-01 -1.092409e-02 -3.825275e-01
    outer loop
      vertex 2.722303e+02 -6.417539e+00 -3.941302e+02
      vertex 2.724500e+02 -6.402400e+00 -3.936001e+02
      vertex 2.722303e+02 -7.591060e+00 -3.940967e+02
    endloop
  endfacet
  facet normal -9.696075e-01 -6.984236e-03 -2.445661e-01
    outer loop
      vertex 9.848149e+01 -1.048847e+01 -4.596130e+02
      vertex 1.006510e+02 -8.241921e+00 -4.682785e+02
      vertex 1.006510e+02 -1.073391e+01 -4.682073e+02
    endloop
  endfacet
  facet normal 8.932627e-13 9.995925e-01 -2.854603e-02
    outer loop
      vertex 1.005897e+02 -8.177693e+00 -4.660294e+02
      vertex 2.717000e+02 -8.177693e+00 -4.660294e+02
      vertex 1.006510e+02 -8.241921e+00 -4.682785e+02
    endloop
  endfacet
  facet normal 8.894354e-13 9.995925e-01 -2.854603e-02
    outer loop
      vertex 1.002685e+02 -8.203901e+00 -4.669472e+02
      vertex 1.005897e+02 -8.177693e+00 -4.660294e+02
      vertex 1.006510e+02 -8.241921e+00 -4.682785e+02
    endloop
  endfacet
  facet normal -9.547637e-01 -1.227305e-01 -2.708570e-01
    outer loop
      vertex 9.848149e+01 -1.048847e+01 -4.596130e+02
      vertex 1.002685e+02 -8.203901e+00 -4.669472e+02
      vertex 1.006510e+02 -8.241921e+00 -4.682785e+02
    endloop
  endfacet
  facet normal -8.925598e-13 -9.995925e-01 2.854603e-02
    outer loop
      vertex 9.913254e+01 -8.840130e+00 -4.018932e+02
      vertex 9.848149e+01 -1.048847e+01 -4.596130e+02
      vertex 1.006510e+02 -1.073391e+01 -4.682073e+02
    endloop
  endfacet
  facet normal -8.946045e-13 -9.995925e-01 2.854603e-02
    outer loop
      vertex 1.009697e+02 -8.600076e+00 -3.934873e+02
      vertex 9.913254e+01 -8.840130e+00 -4.018932e+02
      vertex 1.006510e+02 -1.073391e+01 -4.682073e+02
    endloop
  endfacet
  facet normal -8.932723e-13 -9.995925e-01 2.854603e-02
    outer loop
      vertex 1.584000e+02 -9.359400e+00 -4.200765e+02
      vertex 1.009697e+02 -8.600076e+00 -3.934873e+02
      vertex 1.006510e+02 -1.073391e+01 -4.682073e+02
    endloop
  endfacet
  facet normal -2.550949e-14 -2.854603e-02 -9.995925e-01
    outer loop
      vertex 2.717000e+02 -7.312534e+00 -4.660541e+02
      vertex 2.717000e+02 -8.177693e+00 -4.660294e+02
      vertex 1.005897e+02 -8.177693e+00 -4.660294e+02
    endloop
  endfacet
  facet normal 3.826834e-01 -2.637309e-02 -9.235030e-01
    outer loop
      vertex 2.722303e+02 -7.306264e+00 -4.658345e+02
      vertex 2.722303e+02 -8.171422e+00 -4.658098e+02
      vertex 2.717000e+02 -8.177693e+00 -4.660294e+02
    endloop
  endfacet
  facet normal 3.826834e-01 -2.637309e-02 -9.235030e-01
    outer loop
      vertex 2.722303e+02 -7.306264e+00 -4.658345e+02
      vertex 2.717000e+02 -8.177693e+00 -4.660294e+02
      vertex 2.717000e+02 -7.312534e+00 -4.660541e+02
    endloop
  endfacet
  facet normal 8.889386e-13 9.995925e-01 -2.854603e-02
    outer loop
      vertex 1.002685e+02 -8.203901e+00 -4.669472e+02
      vertex 1.001327e+02 -8.173257e+00 -4.658741e+02
      vertex 1.005897e+02 -8.177693e+00 -4.660294e+02
    endloop
  endfacet
  facet normal -3.219341e-01 -2.702629e-02 -9.463763e-01
    outer loop
      vertex 1.005897e+02 -7.312534e+00 -4.660541e+02
      vertex 1.005897e+02 -8.177693e+00 -4.660294e+02
      vertex 1.001327e+02 -8.173257e+00 -4.658741e+02
    endloop
  endfacet
  facet normal -2.550920e-14 -2.854603e-02 -9.995925e-01
    outer loop
      vertex 1.005897e+02 -7.312534e+00 -4.660541e+02
      vertex 2.717000e+02 -7.312534e+00 -4.660541e+02
      vertex 1.005897e+02 -8.177693e+00 -4.660294e+02
    endloop
  endfacet
  facet normal 8.971200e-13 9.995925e-01 -2.854603e-02
    outer loop
      vertex 1.002685e+02 -8.203901e+00 -4.669472e+02
      vertex 9.986493e+01 -8.161795e+00 -4.654727e+02
      vertex 1.001327e+02 -8.173257e+00 -4.658741e+02
    endloop
  endfacet
  facet normal -8.319805e-01 -1.583748e-02 -5.545788e-01
    outer loop
      vertex 1.001327e+02 -7.308099e+00 -4.658988e+02
      vertex 1.001327e+02 -8.173257e+00 -4.658741e+02
      vertex 9.986493e+01 -8.161795e+00 -4.654727e+02
    endloop
  endfacet
  facet normal -3.219341e-01 -2.702629e-02 -9.463763e-01
    outer loop
      vertex 1.001327e+02 -7.308099e+00 -4.658988e+02
      vertex 1.005897e+02 -7.312534e+00 -4.660541e+02
      vertex 1.001327e+02 -8.173257e+00 -4.658741e+02
    endloop
  endfacet
  facet normal -9.616570e-01 -8.494820e-02 -2.607675e-01
    outer loop
      vertex 9.848149e+01 -1.048847e+01 -4.596130e+02
      vertex 9.986493e+01 -8.161795e+00 -4.654727e+02
      vertex 1.002685e+02 -8.203901e+00 -4.669472e+02
    endloop
  endfacet
  facet normal -9.726305e-01 -6.632873e-03 -2.322625e-01
    outer loop
      vertex 9.986493e+01 -7.296636e+00 -4.654974e+02
      vertex 9.986493e+01 -8.161795e+00 -4.654727e+02
      vertex 9.848149e+01 -1.048847e+01 -4.596130e+02
    endloop
  endfacet
  facet normal -8.319805e-01 -1.583748e-02 -5.545788e-01
    outer loop
      vertex 1.001327e+02 -7.308099e+00 -4.658988e+02
      vertex 9.986493e+01 -8.161795e+00 -4.654727e+02
      vertex 9.986493e+01 -7.296636e+00 -4.654974e+02
    endloop
  endfacet
  facet normal 8.909557e-13 9.997780e-01 -2.106793e-02
    outer loop
      vertex 9.949053e+01 -7.170439e+00 -4.640574e+02
      vertex 9.752976e+01 -6.057431e+00 -4.112396e+02
      vertex 9.977240e+01 -5.796761e+00 -3.988695e+02
    endloop
  endfacet
  facet normal -9.839665e-01 5.091279e-03 1.782806e-01
    outer loop
      vertex 9.977240e+01 -5.896720e+00 -3.988667e+02
      vertex 9.977240e+01 -5.796761e+00 -3.988695e+02
      vertex 9.752976e+01 -6.057431e+00 -4.112396e+02
    endloop
  endfacet
  facet normal 8.934907e-13 9.997780e-01 -2.106793e-02
    outer loop
      vertex 1.569000e+02 -6.213917e+00 -4.186657e+02
      vertex 9.949053e+01 -7.170439e+00 -4.640574e+02
      vertex 9.977240e+01 -5.796761e+00 -3.988695e+02
    endloop
  endfacet
  facet normal 8.932295e-13 9.997780e-01 -2.106793e-02
    outer loop
      vertex 1.569000e+02 -6.213917e+00 -4.186657e+02
      vertex 9.977240e+01 -5.796761e+00 -3.988695e+02
      vertex 1.584000e+02 -6.182314e+00 -4.171660e+02
    endloop
  endfacet
  facet normal 8.958523e-13 9.997780e-01 -2.106793e-02
    outer loop
      vertex 9.628000e+01 -6.760774e+00 -4.446168e+02
      vertex 9.628000e+01 -6.289362e+00 -4.222459e+02
      vertex 9.752976e+01 -6.057431e+00 -4.112396e+02
    endloop
  endfacet
  facet normal -9.931466e-01 3.315808e-02 1.120726e-01
    outer loop
      vertex 9.687091e+01 -9.246826e+00 -4.161345e+02
      vertex 9.752976e+01 -6.057431e+00 -4.112396e+02
      vertex 9.628000e+01 -6.289362e+00 -4.222459e+02
    endloop
  endfacet
  facet normal 8.961626e-13 9.997780e-01 -2.106793e-02
    outer loop
      vertex 9.751746e+01 -6.971398e+00 -4.546119e+02
      vertex 9.628000e+01 -6.760774e+00 -4.446168e+02
      vertex 9.752976e+01 -6.057431e+00 -4.112396e+02
    endloop
  endfacet
  facet normal 8.940892e-13 9.997780e-01 -2.106793e-02
    outer loop
      vertex 9.949053e+01 -7.170439e+00 -4.640574e+02
      vertex 9.751746e+01 -6.971398e+00 -4.546119e+02
      vertex 9.752976e+01 -6.057431e+00 -4.112396e+02
    endloop
  endfacet
  facet normal -9.906506e-01 -4.609469e-03 1.363454e-01
    outer loop
      vertex 9.779575e+01 -9.054744e+00 -4.094084e+02
      vertex 9.752976e+01 -6.057431e+00 -4.112396e+02
      vertex 9.687091e+01 -9.246826e+00 -4.161345e+02
    endloop
  endfacet
  facet normal -9.844568e-01 1.929126e-02 1.745644e-01
    outer loop
      vertex 9.913254e+01 -8.840130e+00 -4.018932e+02
      vertex 9.752976e+01 -6.057431e+00 -4.112396e+02
      vertex 9.779575e+01 -9.054744e+00 -4.094084e+02
    endloop
  endfacet
  facet normal -9.835677e-01 3.091576e-02 1.778729e-01
    outer loop
      vertex 9.977240e+01 -5.896720e+00 -3.988667e+02
      vertex 9.752976e+01 -6.057431e+00 -4.112396e+02
      vertex 9.913254e+01 -8.840130e+00 -4.018932e+02
    endloop
  endfacet
  facet normal -7.071068e-01 7.069498e-01 -1.489727e-02
    outer loop
      vertex 9.583006e+01 -6.980758e+00 -4.336995e+02
      vertex 9.628000e+01 -6.289362e+00 -4.222459e+02
      vertex 9.628000e+01 -6.760774e+00 -4.446168e+02
    endloop
  endfacet
  facet normal -9.952242e-01 2.786544e-03 9.757605e-02
    outer loop
      vertex 9.687091e+01 -9.246826e+00 -4.161345e+02
      vertex 9.628000e+01 -6.289362e+00 -4.222459e+02
      vertex 9.628000e+01 -9.418803e+00 -4.221566e+02
    endloop
  endfacet
  facet normal -9.992313e-01 1.119064e-03 3.918613e-02
    outer loop
      vertex 9.583006e+01 -6.980758e+00 -4.336995e+02
      vertex 9.628000e+01 -9.418803e+00 -4.221566e+02
      vertex 9.628000e+01 -6.289362e+00 -4.222459e+02
    endloop
  endfacet
  facet normal -9.924259e-01 -3.506735e-03 -1.227949e-01
    outer loop
      vertex 9.628000e+01 -1.005753e+01 -4.445226e+02
      vertex 9.628000e+01 -6.760774e+00 -4.446168e+02
      vertex 9.751746e+01 -6.971398e+00 -4.546119e+02
    endloop
  endfacet
  facet normal -9.991500e-01 -1.176761e-03 -4.120648e-02
    outer loop
      vertex 9.583006e+01 -9.296464e+00 -4.336345e+02
      vertex 9.628000e+01 -6.760774e+00 -4.446168e+02
      vertex 9.628000e+01 -1.005753e+01 -4.445226e+02
    endloop
  endfacet
  facet normal -9.991502e-01 -1.156098e-03 -4.120172e-02
    outer loop
      vertex 9.583006e+01 -9.296464e+00 -4.336345e+02
      vertex 9.583006e+01 -6.980758e+00 -4.336995e+02
      vertex 9.628000e+01 -6.760774e+00 -4.446168e+02
    endloop
  endfacet
  facet normal -9.785122e-01 2.312677e-02 -2.048880e-01
    outer loop
      vertex 9.848149e+01 -1.048847e+01 -4.596130e+02
      vertex 9.751746e+01 -6.971398e+00 -4.546119e+02
      vertex 9.949053e+01 -7.170439e+00 -4.640574e+02
    endloop
  endfacet
  facet normal -9.836397e-01 -1.426255e-02 -1.795817e-01
    outer loop
      vertex 9.730233e+01 -1.030444e+01 -4.531688e+02
      vertex 9.751746e+01 -6.971398e+00 -4.546119e+02
      vertex 9.848149e+01 -1.048847e+01 -4.596130e+02
    endloop
  endfacet
  facet normal -9.929532e-01 1.309576e-02 -1.177812e-01
    outer loop
      vertex 9.628000e+01 -1.005753e+01 -4.445226e+02
      vertex 9.751746e+01 -6.971398e+00 -4.546119e+02
      vertex 9.730233e+01 -1.030444e+01 -4.531688e+02
    endloop
  endfacet
  facet normal 8.934147e-13 9.997780e-01 -2.106793e-02
    outer loop
      vertex 1.584000e+02 -6.245520e+00 -4.201654e+02
      vertex 2.556410e+02 -6.245520e+00 -4.201654e+02
      vertex 9.949053e+01 -7.170439e+00 -4.640574e+02
    endloop
  endfacet
  facet normal 8.932129e-13 9.997780e-01 -2.106793e-02
    outer loop
      vertex 1.569000e+02 -6.213917e+00 -4.186657e+02
      vertex 1.584000e+02 -6.245520e+00 -4.201654e+02
      vertex 9.949053e+01 -7.170439e+00 -4.640574e+02
    endloop
  endfacet
  facet normal -9.741124e-01 -6.453236e-03 -2.259721e-01
    outer loop
      vertex 9.949053e+01 -7.255444e+00 -4.640550e+02
      vertex 9.848149e+01 -1.048847e+01 -4.596130e+02
      vertex 9.949053e+01 -7.170439e+00 -4.640574e+02
    endloop
  endfacet
  facet normal -2.550901e-14 -2.854603e-02 -9.995925e-01
    outer loop
      vertex 1.584000e+02 -9.273762e+00 -4.170777e+02
      vertex 1.584000e+02 -6.182314e+00 -4.171660e+02
      vertex 2.556410e+02 -6.182314e+00 -4.171660e+02
    endloop
  endfacet
  facet normal 7.071068e-01 -2.018508e-02 -7.068186e-01
    outer loop
      vertex 1.569000e+02 -9.316581e+00 -4.185771e+02
      vertex 1.569000e+02 -6.213917e+00 -4.186657e+02
      vertex 1.584000e+02 -6.182314e+00 -4.171660e+02
    endloop
  endfacet
  facet normal 7.071068e-01 -2.018509e-02 -7.068186e-01
    outer loop
      vertex 1.569000e+02 -9.316581e+00 -4.185771e+02
      vertex 1.584000e+02 -6.182314e+00 -4.171660e+02
      vertex 1.584000e+02 -9.273762e+00 -4.170777e+02
    endloop
  endfacet
  facet normal -1.000000e+00 8.944906e-13 1.022365e-16
    outer loop
      vertex 2.556410e+02 -9.359400e+00 -4.200765e+02
      vertex 2.556410e+02 -6.182314e+00 -4.171660e+02
      vertex 2.556410e+02 -6.245520e+00 -4.201654e+02
    endloop
  endfacet
  facet normal -2.550910e-14 -2.854603e-02 -9.995925e-01
    outer loop
      vertex 2.556410e+02 -9.273762e+00 -4.170777e+02
      vertex 1.584000e+02 -9.273762e+00 -4.170777e+02
      vertex 2.556410e+02 -6.182314e+00 -4.171660e+02
    endloop
  endfacet
  facet normal -1.000000e+00 8.918693e-13 2.963594e-15
    outer loop
      vertex 2.556410e+02 -9.273762e+00 -4.170777e+02
      vertex 2.556410e+02 -6.182314e+00 -4.171660e+02
      vertex 2.556410e+02 -9.359400e+00 -4.200765e+02
    endloop
  endfacet
  facet normal 2.550905e-14 2.854603e-02 9.995925e-01
    outer loop
      vertex 2.556410e+02 -9.359400e+00 -4.200765e+02
      vertex 2.556410e+02 -6.245520e+00 -4.201654e+02
      vertex 1.584000e+02 -6.245520e+00 -4.201654e+02
    endloop
  endfacet
  facet normal 7.071068e-01 2.018509e-02 7.068186e-01
    outer loop
      vertex 1.584000e+02 -9.359400e+00 -4.200765e+02
      vertex 1.584000e+02 -6.245520e+00 -4.201654e+02
      vertex 1.569000e+02 -6.213917e+00 -4.186657e+02
    endloop
  endfacet
  facet normal 2.550962e-14 2.854603e-02 9.995925e-01
    outer loop
      vertex 2.556410e+02 -9.359400e+00 -4.200765e+02
      vertex 1.584000e+02 -6.245520e+00 -4.201654e+02
      vertex 1.584000e+02 -9.359400e+00 -4.200765e+02
    endloop
  endfacet
  facet normal 7.071068e-01 2.018508e-02 7.068186e-01
    outer loop
      vertex 1.584000e+02 -9.359400e+00 -4.200765e+02
      vertex 1.569000e+02 -6.213917e+00 -4.186657e+02
      vertex 1.569000e+02 -9.316581e+00 -4.185771e+02
    endloop
  endfacet
  facet normal 2.550988e-14 2.854603e-02 9.995925e-01
    outer loop
      vertex 2.717000e+02 -7.668696e+00 -3.968153e+02
      vertex 2.717000e+02 -5.839628e+00 -3.968675e+02
      vertex 1.008107e+02 -5.839628e+00 -3.968675e+02
    endloop
  endfacet
  facet normal 8.932751e-13 9.995925e-01 -2.854603e-02
    outer loop
      vertex 9.977240e+01 -5.896720e+00 -3.988667e+02
      vertex 1.008107e+02 -5.839628e+00 -3.968675e+02
      vertex 2.717000e+02 -5.839628e+00 -3.968675e+02
    endloop
  endfacet
  facet normal 2.550955e-14 2.854603e-02 9.995925e-01
    outer loop
      vertex 1.008107e+02 -7.668696e+00 -3.968153e+02
      vertex 2.717000e+02 -7.668696e+00 -3.968153e+02
      vertex 1.008107e+02 -5.839628e+00 -3.968675e+02
    endloop
  endfacet
  facet normal -3.321065e-01 2.692581e-02 9.428575e-01
    outer loop
      vertex 1.003408e+02 -5.844351e+00 -3.970329e+02
      vertex 1.008107e+02 -7.668696e+00 -3.968153e+02
      vertex 1.008107e+02 -5.839628e+00 -3.968675e+02
    endloop
  endfacet
  facet normal 8.886190e-13 9.995925e-01 -2.854603e-02
    outer loop
      vertex 1.003408e+02 -5.844351e+00 -3.970329e+02
      vertex 1.008107e+02 -5.839628e+00 -3.968675e+02
      vertex 9.977240e+01 -5.896720e+00 -3.988667e+02
    endloop
  endfacet
  facet normal 3.826834e-01 2.637309e-02 9.235030e-01
    outer loop
      vertex 2.722303e+02 -7.674967e+00 -3.970348e+02
      vertex 2.717000e+02 -5.839628e+00 -3.968675e+02
      vertex 2.717000e+02 -7.668696e+00 -3.968153e+02
    endloop
  endfacet
  facet normal 3.826834e-01 2.637309e-02 9.235030e-01
    outer loop
      vertex 2.722303e+02 -5.845898e+00 -3.970871e+02
      vertex 2.717000e+02 -5.839628e+00 -3.968675e+02
      vertex 2.722303e+02 -7.674967e+00 -3.970348e+02
    endloop
  endfacet
  facet normal 8.932019e-13 9.995925e-01 -2.854603e-02
    outer loop
      vertex 2.722303e+02 -5.845898e+00 -3.970871e+02
      vertex 9.977240e+01 -5.896720e+00 -3.988667e+02
      vertex 2.717000e+02 -5.839628e+00 -3.968675e+02
    endloop
  endfacet
  facet normal 8.932647e-13 9.995925e-01 -2.854603e-02
    outer loop
      vertex 2.717000e+02 -7.597331e+00 -3.943163e+02
      vertex 2.717000e+02 -7.668696e+00 -3.968153e+02
      vertex 1.008107e+02 -7.668696e+00 -3.968153e+02
    endloop
  endfacet
  facet normal 8.919131e-13 9.995925e-01 -2.854603e-02
    outer loop
      vertex 2.722303e+02 -7.591060e+00 -3.940967e+02
      vertex 2.722303e+02 -7.674967e+00 -3.970348e+02
      vertex 2.717000e+02 -7.668696e+00 -3.968153e+02
    endloop
  endfacet
  facet normal 8.999953e-13 9.995925e-01 -2.854603e-02
    outer loop
      vertex 2.717000e+02 -7.597331e+00 -3.943163e+02
      vertex 2.722303e+02 -7.591060e+00 -3.940967e+02
      vertex 2.717000e+02 -7.668696e+00 -3.968153e+02
    endloop
  endfacet
  facet normal 8.932591e-13 9.995925e-01 -2.854603e-02
    outer loop
      vertex 1.017180e+02 -7.597331e+00 -3.943163e+02
      vertex 2.717000e+02 -7.597331e+00 -3.943163e+02
      vertex 1.008107e+02 -7.668696e+00 -3.968153e+02
    endloop
  endfacet
  facet normal 8.893774e-13 9.995925e-01 -2.854603e-02
    outer loop
      vertex 1.011704e+02 -7.590546e+00 -3.940787e+02
      vertex 1.017180e+02 -7.597331e+00 -3.943163e+02
      vertex 1.008107e+02 -7.668696e+00 -3.968153e+02
    endloop
  endfacet
  facet normal 8.970255e-13 9.995925e-01 -2.854603e-02
    outer loop
      vertex 1.009697e+02 -7.574494e+00 -3.935166e+02
      vertex 1.011704e+02 -7.590546e+00 -3.940787e+02
      vertex 1.008107e+02 -7.668696e+00 -3.968153e+02
    endloop
  endfacet
  facet normal 8.980882e-13 9.995925e-01 -2.854603e-02
    outer loop
      vertex 1.005121e+02 -7.630377e+00 -3.954734e+02
      vertex 1.009697e+02 -7.574494e+00 -3.935166e+02
      vertex 1.008107e+02 -7.668696e+00 -3.968153e+02
    endloop
  endfacet
  facet normal 8.926796e-13 9.995925e-01 -2.854603e-02
    outer loop
      vertex 1.003408e+02 -7.673419e+00 -3.969806e+02
      vertex 1.005121e+02 -7.630377e+00 -3.954734e+02
      vertex 1.008107e+02 -7.668696e+00 -3.968153e+02
    endloop
  endfacet
  facet normal -3.321065e-01 2.692581e-02 9.428575e-01
    outer loop
      vertex 1.003408e+02 -5.844351e+00 -3.970329e+02
      vertex 1.003408e+02 -7.673419e+00 -3.969806e+02
      vertex 1.008107e+02 -7.668696e+00 -3.968153e+02
    endloop
  endfacet
  facet normal 3.826834e-01 -2.637309e-02 -9.235030e-01
    outer loop
      vertex 2.722303e+02 -6.417539e+00 -3.941302e+02
      vertex 2.722303e+02 -7.591060e+00 -3.940967e+02
      vertex 2.717000e+02 -7.597331e+00 -3.943163e+02
    endloop
  endfacet
  facet normal -2.550938e-14 -2.854603e-02 -9.995925e-01
    outer loop
      vertex 2.717000e+02 -6.423809e+00 -3.943498e+02
      vertex 2.717000e+02 -7.597331e+00 -3.943163e+02
      vertex 1.017180e+02 -7.597331e+00 -3.943163e+02
    endloop
  endfacet
  facet normal 3.826834e-01 -2.637309e-02 -9.235030e-01
    outer loop
      vertex 2.722303e+02 -6.417539e+00 -3.941302e+02
      vertex 2.717000e+02 -7.597331e+00 -3.943163e+02
      vertex 2.717000e+02 -6.423809e+00 -3.943498e+02
    endloop
  endfacet
  facet normal -3.981128e-01 -2.618631e-02 -9.169626e-01
    outer loop
      vertex 1.017180e+02 -6.423809e+00 -3.943498e+02
      vertex 1.017180e+02 -7.597331e+00 -3.943163e+02
      vertex 1.011704e+02 -7.590546e+00 -3.940787e+02
    endloop
  endfacet
  facet normal -2.550939e-14 -2.854603e-02 -9.995925e-01
    outer loop
      vertex 1.017180e+02 -6.423809e+00 -3.943498e+02
      vertex 2.717000e+02 -6.423809e+00 -3.943498e+02
      vertex 1.017180e+02 -7.597331e+00 -3.943163e+02
    endloop
  endfacet
  facet normal -9.418365e-01 -9.593501e-03 -3.359344e-01
    outer loop
      vertex 1.011704e+02 -6.417024e+00 -3.941122e+02
      vertex 1.011704e+02 -7.590546e+00 -3.940787e+02
      vertex 1.009697e+02 -7.574494e+00 -3.935166e+02
    endloop
  endfacet
  facet normal -3.981128e-01 -2.618631e-02 -9.169626e-01
    outer loop
      vertex 1.011704e+02 -6.417024e+00 -3.941122e+02
      vertex 1.017180e+02 -6.423809e+00 -3.943498e+02
      vertex 1.011704e+02 -7.590546e+00 -3.940787e+02
    endloop
  endfacet
  facet normal -9.737517e-01 6.497445e-03 2.275202e-01
    outer loop
      vertex 1.009697e+02 -8.600076e+00 -3.934873e+02
      vertex 1.009697e+02 -7.574494e+00 -3.935166e+02
      vertex 1.005121e+02 -7.630377e+00 -3.954734e+02
    endloop
  endfacet
  facet normal -9.418365e-01 -9.593501e-03 -3.359344e-01
    outer loop
      vertex 1.011704e+02 -6.417024e+00 -3.941122e+02
      vertex 1.009697e+02 -7.574494e+00 -3.935166e+02
      vertex 1.009697e+02 -6.400973e+00 -3.935501e+02
    endloop
  endfacet
  facet normal 2.317785e-14 2.854603e-02 9.995925e-01
    outer loop
      vertex 2.012500e+02 -8.600076e+00 -3.934873e+02
      vertex 1.009697e+02 -6.400973e+00 -3.935501e+02
      vertex 1.009697e+02 -7.574494e+00 -3.935166e+02
    endloop
  endfacet
  facet normal 2.550964e-14 2.854603e-02 9.995925e-01
    outer loop
      vertex 2.012500e+02 -8.600076e+00 -3.934873e+02
      vertex 1.009697e+02 -7.574494e+00 -3.935166e+02
      vertex 1.009697e+02 -8.600076e+00 -3.934873e+02
    endloop
  endfacet
  facet normal 9.152731e-13 9.995925e-01 -2.854603e-02
    outer loop
      vertex 1.003408e+02 -7.673419e+00 -3.969806e+02
      vertex 1.000782e+02 -7.685503e+00 -3.974038e+02
      vertex 1.005121e+02 -7.630377e+00 -3.954734e+02
    endloop
  endfacet
  facet normal -9.755363e-01 -1.060198e-02 2.195828e-01
    outer loop
      vertex 1.009697e+02 -8.600076e+00 -3.934873e+02
      vertex 1.005121e+02 -7.630377e+00 -3.954734e+02
      vertex 1.000782e+02 -7.685503e+00 -3.974038e+02
    endloop
  endfacet
  facet normal -8.498012e-01 1.504671e-02 5.268886e-01
    outer loop
      vertex 1.000782e+02 -5.856435e+00 -3.974560e+02
      vertex 1.000782e+02 -7.685503e+00 -3.974038e+02
      vertex 1.003408e+02 -7.673419e+00 -3.969806e+02
    endloop
  endfacet
  facet normal -9.761800e-01 -3.378465e-02 2.143157e-01
    outer loop
      vertex 1.009697e+02 -8.600076e+00 -3.934873e+02
      vertex 1.000782e+02 -7.685503e+00 -3.974038e+02
      vertex 9.913254e+01 -8.840130e+00 -4.018932e+02
    endloop
  endfacet
  facet normal -9.785805e-01 1.051986e-03 2.058618e-01
    outer loop
      vertex 9.977240e+01 -5.896720e+00 -3.988667e+02
      vertex 9.913254e+01 -8.840130e+00 -4.018932e+02
      vertex 1.000782e+02 -7.685503e+00 -3.974038e+02
    endloop
  endfacet
  facet normal -9.776596e-01 4.709692e-03 2.101419e-01
    outer loop
      vertex 9.992344e+01 -5.876666e+00 -3.981644e+02
      vertex 9.977240e+01 -5.896720e+00 -3.988667e+02
      vertex 1.000782e+02 -7.685503e+00 -3.974038e+02
    endloop
  endfacet
  facet normal -9.769707e-01 6.090962e-03 2.132864e-01
    outer loop
      vertex 1.000782e+02 -5.856435e+00 -3.974560e+02
      vertex 9.992344e+01 -5.876666e+00 -3.981644e+02
      vertex 1.000782e+02 -7.685503e+00 -3.974038e+02
    endloop
  endfacet
  facet normal -8.498012e-01 1.504671e-02 5.268886e-01
    outer loop
      vertex 1.003408e+02 -5.844351e+00 -3.970329e+02
      vertex 1.000782e+02 -5.856435e+00 -3.974560e+02
      vertex 1.003408e+02 -7.673419e+00 -3.969806e+02
    endloop
  endfacet
  facet normal 8.932591e-13 9.995925e-01 -2.854603e-02
    outer loop
      vertex 2.012500e+02 -6.400973e+00 -3.935501e+02
      vertex 2.717000e+02 -6.423809e+00 -3.943498e+02
      vertex 1.017180e+02 -6.423809e+00 -3.943498e+02
    endloop
  endfacet
  facet normal 8.933005e-13 9.995925e-01 -2.854603e-02
    outer loop
      vertex 2.013500e+02 -6.398118e+00 -3.934502e+02
      vertex 2.014000e+02 -6.369572e+00 -3.924506e+02
      vertex 2.717000e+02 -6.423809e+00 -3.943498e+02
    endloop
  endfacet
  facet normal 8.935859e-13 9.995925e-01 -2.854603e-02
    outer loop
      vertex 2.013207e+02 -6.400137e+00 -3.935208e+02
      vertex 2.013500e+02 -6.398118e+00 -3.934502e+02
      vertex 2.717000e+02 -6.423809e+00 -3.943498e+02
    endloop
  endfacet
  facet normal 8.924263e-13 9.995925e-01 -2.854603e-02
    outer loop
      vertex 2.012500e+02 -6.400973e+00 -3.935501e+02
      vertex 2.013207e+02 -6.400137e+00 -3.935208e+02
      vertex 2.717000e+02 -6.423809e+00 -3.943498e+02
    endloop
  endfacet
  facet normal 8.932505e-13 9.995925e-01 -2.854603e-02
    outer loop
      vertex 1.011704e+02 -6.417024e+00 -3.941122e+02
      vertex 2.012500e+02 -6.400973e+00 -3.935501e+02
      vertex 1.017180e+02 -6.423809e+00 -3.943498e+02
    endloop
  endfacet
  facet normal 9.355090e-13 9.995925e-01 -2.854603e-02
    outer loop
      vertex 2.013500e+02 -6.398118e+00 -3.934502e+02
      vertex 2.013500e+02 -6.370999e+00 -3.925005e+02
      vertex 2.014000e+02 -6.369572e+00 -3.924506e+02
    endloop
  endfacet
  facet normal -7.071068e-01 2.018509e-02 7.068186e-01
    outer loop
      vertex 2.013500e+02 -8.570103e+00 -3.924377e+02
      vertex 2.014000e+02 -6.369572e+00 -3.924506e+02
      vertex 2.013500e+02 -6.370999e+00 -3.925005e+02
    endloop
  endfacet
  facet normal -7.071068e-01 2.018509e-02 7.068186e-01
    outer loop
      vertex 2.013500e+02 -8.570103e+00 -3.924377e+02
      vertex 2.014000e+02 -8.568675e+00 -3.923878e+02
      vertex 2.014000e+02 -6.369572e+00 -3.924506e+02
    endloop
  endfacet
  facet normal -1.000000e+00 8.918989e-13 4.459237e-15
    outer loop
      vertex 2.013500e+02 -8.597222e+00 -3.933874e+02
      vertex 2.013500e+02 -6.370999e+00 -3.925005e+02
      vertex 2.013500e+02 -6.398118e+00 -3.934502e+02
    endloop
  endfacet
  facet normal -1.000000e+00 8.918989e-13 4.459237e-15
    outer loop
      vertex 2.013500e+02 -8.570103e+00 -3.924377e+02
      vertex 2.013500e+02 -6.370999e+00 -3.925005e+02
      vertex 2.013500e+02 -8.597222e+00 -3.933874e+02
    endloop
  endfacet
  facet normal -9.238795e-01 1.092409e-02 3.825275e-01
    outer loop
      vertex 2.013500e+02 -8.597222e+00 -3.933874e+02
      vertex 2.013500e+02 -6.398118e+00 -3.934502e+02
      vertex 2.013207e+02 -6.400137e+00 -3.935208e+02
    endloop
  endfacet
  facet normal -3.826834e-01 2.637309e-02 9.235030e-01
    outer loop
      vertex 2.013207e+02 -8.599240e+00 -3.934580e+02
      vertex 2.013207e+02 -6.400137e+00 -3.935208e+02
      vertex 2.012500e+02 -6.400973e+00 -3.935501e+02
    endloop
  endfacet
  facet normal -9.238795e-01 1.092409e-02 3.825275e-01
    outer loop
      vertex 2.013500e+02 -8.597222e+00 -3.933874e+02
      vertex 2.013207e+02 -6.400137e+00 -3.935208e+02
      vertex 2.013207e+02 -8.599240e+00 -3.934580e+02
    endloop
  endfacet
  facet normal 8.932676e-13 9.995925e-01 -2.854603e-02
    outer loop
      vertex 1.011704e+02 -6.417024e+00 -3.941122e+02
      vertex 1.009697e+02 -6.400973e+00 -3.935501e+02
      vertex 2.012500e+02 -6.400973e+00 -3.935501e+02
    endloop
  endfacet
  facet normal 2.550955e-14 2.854603e-02 9.995925e-01
    outer loop
      vertex 2.012500e+02 -8.600076e+00 -3.934873e+02
      vertex 2.012500e+02 -6.400973e+00 -3.935501e+02
      vertex 1.009697e+02 -6.400973e+00 -3.935501e+02
    endloop
  endfacet
  facet normal -3.826834e-01 2.637309e-02 9.235030e-01
    outer loop
      vertex 2.013207e+02 -8.599240e+00 -3.934580e+02
      vertex 2.012500e+02 -6.400973e+00 -3.935501e+02
      vertex 2.012500e+02 -8.600076e+00 -3.934873e+02
    endloop
  endfacet
  facet normal -8.874921e-13 -9.995925e-01 2.854603e-02
    outer loop
      vertex 2.556410e+02 -9.273762e+00 -4.170777e+02
      vertex 2.014000e+02 -8.568675e+00 -3.923878e+02
      vertex 2.013500e+02 -8.570103e+00 -3.924377e+02
    endloop
  endfacet
  facet normal -8.947472e-13 -9.995925e-01 2.854603e-02
    outer loop
      vertex 9.779575e+01 -9.054744e+00 -4.094084e+02
      vertex 9.730233e+01 -1.030444e+01 -4.531688e+02
      vertex 9.848149e+01 -1.048847e+01 -4.596130e+02
    endloop
  endfacet
  facet normal -8.939059e-13 -9.995925e-01 2.854603e-02
    outer loop
      vertex 9.913254e+01 -8.840130e+00 -4.018932e+02
      vertex 9.779575e+01 -9.054744e+00 -4.094084e+02
      vertex 9.848149e+01 -1.048847e+01 -4.596130e+02
    endloop
  endfacet
  facet normal -9.663315e-01 -4.740303e-02 -2.528960e-01
    outer loop
      vertex 9.967948e+01 -7.276507e+00 -4.647926e+02
      vertex 9.986493e+01 -7.296636e+00 -4.654974e+02
      vertex 9.848149e+01 -1.048847e+01 -4.596130e+02
    endloop
  endfacet
  facet normal -9.683053e-01 -3.714618e-02 -2.469920e-01
    outer loop
      vertex 9.949053e+01 -7.255444e+00 -4.640550e+02
      vertex 9.967948e+01 -7.276507e+00 -4.647926e+02
      vertex 9.848149e+01 -1.048847e+01 -4.596130e+02
    endloop
  endfacet
  facet normal -8.931946e-13 -9.995925e-01 2.854603e-02
    outer loop
      vertex 9.628000e+01 -9.418803e+00 -4.221566e+02
      vertex 9.628000e+01 -1.005753e+01 -4.445226e+02
      vertex 9.730233e+01 -1.030444e+01 -4.531688e+02
    endloop
  endfacet
  facet normal -8.902445e-13 -9.995925e-01 2.854603e-02
    outer loop
      vertex 9.687091e+01 -9.246826e+00 -4.161345e+02
      vertex 9.628000e+01 -9.418803e+00 -4.221566e+02
      vertex 9.730233e+01 -1.030444e+01 -4.531688e+02
    endloop
  endfacet
  facet normal -8.916262e-13 -9.995925e-01 2.854603e-02
    outer loop
      vertex 9.779575e+01 -9.054744e+00 -4.094084e+02
      vertex 9.687091e+01 -9.246826e+00 -4.161345e+02
      vertex 9.730233e+01 -1.030444e+01 -4.531688e+02
    endloop
  endfacet
  facet normal -7.071068e-01 -7.068186e-01 2.018509e-02
    outer loop
      vertex 9.583006e+01 -9.296464e+00 -4.336345e+02
      vertex 9.628000e+01 -1.005753e+01 -4.445226e+02
      vertex 9.628000e+01 -9.418803e+00 -4.221566e+02
    endloop
  endfacet
  facet normal -9.992315e-01 1.098493e-03 3.918179e-02
    outer loop
      vertex 9.583006e+01 -9.296464e+00 -4.336345e+02
      vertex 9.628000e+01 -9.418803e+00 -4.221566e+02
      vertex 9.583006e+01 -6.980758e+00 -4.336995e+02
    endloop
  endfacet
  facet normal -8.932679e-13 -9.995925e-01 2.854603e-02
    outer loop
      vertex 1.584000e+02 -9.273762e+00 -4.170777e+02
      vertex 2.012500e+02 -8.600076e+00 -3.934873e+02
      vertex 1.009697e+02 -8.600076e+00 -3.934873e+02
    endloop
  endfacet
  facet normal -8.936303e-13 -9.995925e-01 2.854603e-02
    outer loop
      vertex 1.569000e+02 -9.316581e+00 -4.185771e+02
      vertex 1.584000e+02 -9.273762e+00 -4.170777e+02
      vertex 1.009697e+02 -8.600076e+00 -3.934873e+02
    endloop
  endfacet
  facet normal -8.918625e-13 -9.995925e-01 2.854603e-02
    outer loop
      vertex 1.584000e+02 -9.359400e+00 -4.200765e+02
      vertex 1.569000e+02 -9.316581e+00 -4.185771e+02
      vertex 1.009697e+02 -8.600076e+00 -3.934873e+02
    endloop
  endfacet
  facet normal -8.773282e-13 -9.995925e-01 2.854603e-02
    outer loop
      vertex 2.556410e+02 -9.273762e+00 -4.170777e+02
      vertex 2.013207e+02 -8.599240e+00 -3.934580e+02
      vertex 2.012500e+02 -8.600076e+00 -3.934873e+02
    endloop
  endfacet
  facet normal -8.932489e-13 -9.995925e-01 2.854603e-02
    outer loop
      vertex 2.556410e+02 -9.273762e+00 -4.170777e+02
      vertex 2.012500e+02 -8.600076e+00 -3.934873e+02
      vertex 1.584000e+02 -9.273762e+00 -4.170777e+02
    endloop
  endfacet
  facet normal -8.871771e-13 -9.995925e-01 2.854603e-02
    outer loop
      vertex 2.556410e+02 -9.273762e+00 -4.170777e+02
      vertex 2.013500e+02 -8.597222e+00 -3.933874e+02
      vertex 2.013207e+02 -8.599240e+00 -3.934580e+02
    endloop
  endfacet
  facet normal -8.936813e-13 -9.995925e-01 2.854603e-02
    outer loop
      vertex 2.556410e+02 -9.273762e+00 -4.170777e+02
      vertex 2.013500e+02 -8.570103e+00 -3.924377e+02
      vertex 2.013500e+02 -8.597222e+00 -3.933874e+02
    endloop
  endfacet
  facet normal 2.873806e-12 9.995925e-01 -2.854603e-02
    outer loop
      vertex 1.000782e+02 -5.856435e+00 -3.974560e+02
      vertex 9.977240e+01 -5.896720e+00 -3.988667e+02
      vertex 9.992344e+01 -5.876666e+00 -3.981644e+02
    endloop
  endfacet
  facet normal 8.756792e-13 9.995925e-01 -2.854603e-02
    outer loop
      vertex 1.003408e+02 -5.844351e+00 -3.970329e+02
      vertex 9.977240e+01 -5.896720e+00 -3.988667e+02
      vertex 1.000782e+02 -5.856435e+00 -3.974560e+02
    endloop
  endfacet
endsolid P1040852002
