solid P1040852002
  facet normal 1.000000e+00 -6.093061e-13 -1.614485e-14
    outer loop
      vertex 2.724500e+02 -1.775129e+01 -4.681821e+02
      vertex 2.724500e+02 -1.365100e+01 -3.975931e+02
      vertex 2.724500e+02 -1.347701e+01 -3.935969e+02
    endloop
  endfacet
  facet normal 9.070759e-13 9.990536e-01 -4.349701e-02
    outer loop
      vertex 2.722303e+02 -1.362793e+01 -3.970633e+02
      vertex 2.724500e+02 -1.347701e+01 -3.935969e+02
      vertex 2.724500e+02 -1.365100e+01 -3.975931e+02
    endloop
  endfacet
  facet normal 1.000000e+00 -8.755906e-13 -8.847947e-16
    outer loop
      vertex 2.724500e+02 -1.445202e+01 -3.924034e+02
      vertex 2.724500e+02 -1.775129e+01 -4.681821e+02
      vertex 2.724500e+02 -1.347701e+01 -3.935969e+02
    endloop
  endfacet
  facet normal 1.000000e+00 -8.794990e-13 -4.077534e-15
    outer loop
      vertex 2.724500e+02 -1.225410e+01 -3.924991e+02
      vertex 2.724500e+02 -1.445202e+01 -3.924034e+02
      vertex 2.724500e+02 -1.347701e+01 -3.935969e+02
    endloop
  endfacet
  facet normal 1.000000e+00 -9.190824e-13 4.001521e-14
    outer loop
      vertex 2.724500e+02 -1.230412e+01 -3.936480e+02
      vertex 2.724500e+02 -1.225410e+01 -3.924991e+02
      vertex 2.724500e+02 -1.347701e+01 -3.935969e+02
    endloop
  endfacet
  facet normal 9.238795e-01 -1.664558e-02 -3.823212e-01
    outer loop
      vertex 2.722303e+02 -1.350008e+01 -3.941268e+02
      vertex 2.724500e+02 -1.230412e+01 -3.936480e+02
      vertex 2.724500e+02 -1.347701e+01 -3.935969e+02
    endloop
  endfacet
  facet normal 9.092673e-13 9.990536e-01 -4.349701e-02
    outer loop
      vertex 2.722303e+02 -1.350008e+01 -3.941268e+02
      vertex 2.724500e+02 -1.347701e+01 -3.935969e+02
      vertex 2.722303e+02 -1.362793e+01 -3.970633e+02
    endloop
  endfacet
  facet normal 1.000000e+00 -9.017058e-13 8.397230e-16
    outer loop
      vertex 2.724500e+02 -1.775129e+01 -4.681821e+02
      vertex 2.724500e+02 -1.182292e+01 -3.976727e+02
      vertex 2.724500e+02 -1.365100e+01 -3.975931e+02
    endloop
  endfacet
  facet normal 9.238795e-01 1.664558e-02 3.823212e-01
    outer loop
      vertex 2.722303e+02 -1.179985e+01 -3.971429e+02
      vertex 2.724500e+02 -1.365100e+01 -3.975931e+02
      vertex 2.724500e+02 -1.182292e+01 -3.976727e+02
    endloop
  endfacet
  facet normal 9.238795e-01 1.664558e-02 3.823212e-01
    outer loop
      vertex 2.722303e+02 -1.179985e+01 -3.971429e+02
      vertex 2.722303e+02 -1.362793e+01 -3.970633e+02
      vertex 2.724500e+02 -1.365100e+01 -3.975931e+02
    endloop
  endfacet
  facet normal 1.000000e+00 -7.266021e-13 -1.388285e-14
    outer loop
      vertex 2.724500e+02 -1.775129e+01 -4.681821e+02
      vertex 2.724500e+02 -1.187729e+01 -3.989215e+02
      vertex 2.724500e+02 -1.182292e+01 -3.976727e+02
    endloop
  endfacet
  facet normal 8.927766e-13 9.990536e-01 -4.349701e-02
    outer loop
      vertex 9.977240e+01 -1.187729e+01 -3.989215e+02
      vertex 2.724500e+02 -1.182292e+01 -3.976727e+02
      vertex 2.724500e+02 -1.187729e+01 -3.989215e+02
    endloop
  endfacet
  facet normal 8.927713e-13 9.990536e-01 -4.349701e-02
    outer loop
      vertex 2.722303e+02 -1.179985e+01 -3.971429e+02
      vertex 2.724500e+02 -1.182292e+01 -3.976727e+02
      vertex 9.977240e+01 -1.187729e+01 -3.989215e+02
    endloop
  endfacet
  facet normal 1.000000e+00 -1.137034e-12 2.092598e-14
    outer loop
      vertex 2.724500e+02 -1.775129e+01 -4.681821e+02
      vertex 2.724500e+02 -1.177738e+01 -3.989259e+02
      vertex 2.724500e+02 -1.187729e+01 -3.989215e+02
    endloop
  endfacet
  facet normal 3.886990e-14 4.349701e-02 9.990536e-01
    outer loop
      vertex 9.977240e+01 -1.177738e+01 -3.989259e+02
      vertex 2.724500e+02 -1.187729e+01 -3.989215e+02
      vertex 2.724500e+02 -1.177738e+01 -3.989259e+02
    endloop
  endfacet
  facet normal 3.886990e-14 4.349701e-02 9.990536e-01
    outer loop
      vertex 9.977240e+01 -1.187729e+01 -3.989215e+02
      vertex 2.724500e+02 -1.187729e+01 -3.989215e+02
      vertex 9.977240e+01 -1.177738e+01 -3.989259e+02
    endloop
  endfacet
  facet normal 1.000000e+00 -6.694250e-13 -8.147509e-15
    outer loop
      vertex 2.724500e+02 -1.421110e+01 -4.640822e+02
      vertex 2.724500e+02 -1.412614e+01 -4.640859e+02
      vertex 2.724500e+02 -1.177738e+01 -3.989259e+02
    endloop
  endfacet
  facet normal 8.931360e-13 9.993510e-01 -3.602253e-02
    outer loop
      vertex 2.556410e+02 -1.294274e+01 -4.312558e+02
      vertex 2.724500e+02 -1.177738e+01 -3.989259e+02
      vertex 2.724500e+02 -1.412614e+01 -4.640859e+02
    endloop
  endfacet
  facet normal 1.000000e+00 -8.996943e-13 4.534842e-16
    outer loop
      vertex 2.724500e+02 -1.775129e+01 -4.681821e+02
      vertex 2.724500e+02 -1.421110e+01 -4.640822e+02
      vertex 2.724500e+02 -1.177738e+01 -3.989259e+02
    endloop
  endfacet
  facet normal 8.930422e-13 9.993510e-01 -3.602253e-02
    outer loop
      vertex 1.584000e+02 -1.283467e+01 -4.282577e+02
      vertex 9.977240e+01 -1.177738e+01 -3.989259e+02
      vertex 2.724500e+02 -1.177738e+01 -3.989259e+02
    endloop
  endfacet
  facet normal 8.930330e-13 9.993510e-01 -3.602253e-02
    outer loop
      vertex 2.556410e+02 -1.283467e+01 -4.282577e+02
      vertex 1.584000e+02 -1.283467e+01 -4.282577e+02
      vertex 2.724500e+02 -1.177738e+01 -3.989259e+02
    endloop
  endfacet
  facet normal 8.928562e-13 9.993510e-01 -3.602253e-02
    outer loop
      vertex 2.556410e+02 -1.294274e+01 -4.312558e+02
      vertex 2.556410e+02 -1.283467e+01 -4.282577e+02
      vertex 2.724500e+02 -1.177738e+01 -3.989259e+02
    endloop
  endfacet
  facet normal -3.886999e-14 -4.349701e-02 -9.990536e-01
    outer loop
      vertex 9.949053e+01 -1.421110e+01 -4.640822e+02
      vertex 2.724500e+02 -1.412614e+01 -4.640859e+02
      vertex 2.724500e+02 -1.421110e+01 -4.640822e+02
    endloop
  endfacet
  facet normal 8.930450e-13 9.993510e-01 -3.602253e-02
    outer loop
      vertex 2.556410e+02 -1.294274e+01 -4.312558e+02
      vertex 2.724500e+02 -1.412614e+01 -4.640859e+02
      vertex 9.949053e+01 -1.412614e+01 -4.640859e+02
    endloop
  endfacet
  facet normal -3.886999e-14 -4.349701e-02 -9.990536e-01
    outer loop
      vertex 9.949053e+01 -1.421110e+01 -4.640822e+02
      vertex 9.949053e+01 -1.412614e+01 -4.640859e+02
      vertex 2.724500e+02 -1.412614e+01 -4.640859e+02
    endloop
  endfacet
  facet normal 1.000000e+00 -9.205738e-13 -5.439714e-15
    outer loop
      vertex 2.724500e+02 -1.513016e+01 -4.652934e+02
      vertex 2.724500e+02 -1.426546e+01 -4.653310e+02
      vertex 2.724500e+02 -1.421110e+01 -4.640822e+02
    endloop
  endfacet
  facet normal 8.881629e-13 9.990536e-01 -4.349701e-02
    outer loop
      vertex 2.722303e+02 -1.428853e+01 -4.658608e+02
      vertex 2.724500e+02 -1.421110e+01 -4.640822e+02
      vertex 2.724500e+02 -1.426546e+01 -4.653310e+02
    endloop
  endfacet
  facet normal 1.000000e+00 -6.919566e-13 -1.789272e-13
    outer loop
      vertex 2.724500e+02 -1.775129e+01 -4.681821e+02
      vertex 2.724500e+02 -1.513016e+01 -4.652934e+02
      vertex 2.724500e+02 -1.421110e+01 -4.640822e+02
    endloop
  endfacet
  facet normal 8.927811e-13 9.990536e-01 -4.349701e-02
    outer loop
      vertex 1.005897e+02 -1.429809e+01 -4.660803e+02
      vertex 2.724500e+02 -1.421110e+01 -4.640822e+02
      vertex 2.717000e+02 -1.429809e+01 -4.660803e+02
    endloop
  endfacet
  facet normal 8.928032e-13 9.990536e-01 -4.349701e-02
    outer loop
      vertex 2.722303e+02 -1.428853e+01 -4.658608e+02
      vertex 2.717000e+02 -1.429809e+01 -4.660803e+02
      vertex 2.724500e+02 -1.421110e+01 -4.640822e+02
    endloop
  endfacet
  facet normal 8.931456e-13 9.990536e-01 -4.349701e-02
    outer loop
      vertex 1.001327e+02 -1.429133e+01 -4.659251e+02
      vertex 2.724500e+02 -1.421110e+01 -4.640822e+02
      vertex 1.005897e+02 -1.429809e+01 -4.660803e+02
    endloop
  endfacet
  facet normal 8.927822e-13 9.990536e-01 -4.349701e-02
    outer loop
      vertex 9.967948e+01 -1.424319e+01 -4.648194e+02
      vertex 2.724500e+02 -1.421110e+01 -4.640822e+02
      vertex 9.986493e+01 -1.427386e+01 -4.655239e+02
    endloop
  endfacet
  facet normal 8.926302e-13 9.990536e-01 -4.349701e-02
    outer loop
      vertex 1.001327e+02 -1.429133e+01 -4.659251e+02
      vertex 9.986493e+01 -1.427386e+01 -4.655239e+02
      vertex 2.724500e+02 -1.421110e+01 -4.640822e+02
    endloop
  endfacet
  facet normal 8.927787e-13 9.990536e-01 -4.349701e-02
    outer loop
      vertex 9.949053e+01 -1.421110e+01 -4.640822e+02
      vertex 2.724500e+02 -1.421110e+01 -4.640822e+02
      vertex 9.967948e+01 -1.424319e+01 -4.648194e+02
    endloop
  endfacet
  facet normal 9.238795e-01 -1.664558e-02 -3.823212e-01
    outer loop
      vertex 2.722303e+02 -1.515322e+01 -4.658232e+02
      vertex 2.724500e+02 -1.426546e+01 -4.653310e+02
      vertex 2.724500e+02 -1.513016e+01 -4.652934e+02
    endloop
  endfacet
  facet normal 9.238795e-01 -1.664558e-02 -3.823212e-01
    outer loop
      vertex 2.722303e+02 -1.428853e+01 -4.658608e+02
      vertex 2.724500e+02 -1.426546e+01 -4.653310e+02
      vertex 2.722303e+02 -1.515322e+01 -4.658232e+02
    endloop
  endfacet
  facet normal 1.000000e+00 -8.900540e-13 8.198487e-16
    outer loop
      vertex 2.724500e+02 -1.775129e+01 -4.681821e+02
      vertex 2.724500e+02 -1.526065e+01 -4.682905e+02
      vertex 2.724500e+02 -1.513016e+01 -4.652934e+02
    endloop
  endfacet
  facet normal 8.751827e-13 9.990536e-01 -4.349701e-02
    outer loop
      vertex 2.722303e+02 -1.515322e+01 -4.658232e+02
      vertex 2.724500e+02 -1.513016e+01 -4.652934e+02
      vertex 2.724500e+02 -1.526065e+01 -4.682905e+02
    endloop
  endfacet
  facet normal -3.886991e-14 -4.349701e-02 -9.990536e-01
    outer loop
      vertex 1.006510e+02 -1.775129e+01 -4.681821e+02
      vertex 2.724500e+02 -1.526065e+01 -4.682905e+02
      vertex 2.724500e+02 -1.775129e+01 -4.681821e+02
    endloop
  endfacet
  facet normal -3.820880e-14 -4.349701e-02 -9.990536e-01
    outer loop
      vertex 1.006510e+02 -1.775129e+01 -4.681821e+02
      vertex 1.006510e+02 -1.526065e+01 -4.682905e+02
      vertex 2.724500e+02 -1.526065e+01 -4.682905e+02
    endloop
  endfacet
  facet normal 8.928055e-13 9.990536e-01 -4.349701e-02
    outer loop
      vertex 2.717000e+02 -1.516278e+01 -4.660426e+02
      vertex 2.724500e+02 -1.526065e+01 -4.682905e+02
      vertex 1.006510e+02 -1.526065e+01 -4.682905e+02
    endloop
  endfacet
  facet normal 8.914186e-13 9.990536e-01 -4.349701e-02
    outer loop
      vertex 2.722303e+02 -1.515322e+01 -4.658232e+02
      vertex 2.724500e+02 -1.526065e+01 -4.682905e+02
      vertex 2.717000e+02 -1.516278e+01 -4.660426e+02
    endloop
  endfacet
  facet normal -8.929748e-13 -9.990536e-01 4.349701e-02
    outer loop
      vertex 2.556410e+02 -1.600704e+01 -4.281196e+02
      vertex 2.724500e+02 -1.775129e+01 -4.681821e+02
      vertex 2.724500e+02 -1.445202e+01 -3.924034e+02
    endloop
  endfacet
  facet normal -8.927768e-13 -9.990536e-01 4.349701e-02
    outer loop
      vertex 1.584000e+02 -1.613753e+01 -4.311167e+02
      vertex 1.006510e+02 -1.775129e+01 -4.681821e+02
      vertex 2.724500e+02 -1.775129e+01 -4.681821e+02
    endloop
  endfacet
  facet normal -8.928038e-13 -9.990536e-01 4.349701e-02
    outer loop
      vertex 2.556410e+02 -1.613753e+01 -4.311167e+02
      vertex 1.584000e+02 -1.613753e+01 -4.311167e+02
      vertex 2.724500e+02 -1.775129e+01 -4.681821e+02
    endloop
  endfacet
  facet normal -8.861881e-13 -9.990536e-01 4.349701e-02
    outer loop
      vertex 2.556410e+02 -1.600704e+01 -4.281196e+02
      vertex 2.556410e+02 -1.613753e+01 -4.311167e+02
      vertex 2.724500e+02 -1.775129e+01 -4.681821e+02
    endloop
  endfacet
  facet normal 3.886909e-14 4.349701e-02 9.990536e-01
    outer loop
      vertex 2.014000e+02 -1.225410e+01 -3.924991e+02
      vertex 2.724500e+02 -1.445202e+01 -3.924034e+02
      vertex 2.724500e+02 -1.225410e+01 -3.924991e+02
    endloop
  endfacet
  facet normal 3.886909e-14 4.349701e-02 9.990536e-01
    outer loop
      vertex 2.014000e+02 -1.445202e+01 -3.924034e+02
      vertex 2.724500e+02 -1.445202e+01 -3.924034e+02
      vertex 2.014000e+02 -1.225410e+01 -3.924991e+02
    endloop
  endfacet
  facet normal -8.927586e-13 -9.990536e-01 4.349701e-02
    outer loop
      vertex 2.556410e+02 -1.600704e+01 -4.281196e+02
      vertex 2.724500e+02 -1.445202e+01 -3.924034e+02
      vertex 2.014000e+02 -1.445202e+01 -3.924034e+02
    endloop
  endfacet
  facet normal 9.147558e-13 9.990536e-01 -4.349701e-02
    outer loop
      vertex 2.722303e+02 -1.232719e+01 -3.941778e+02
      vertex 2.724500e+02 -1.225410e+01 -3.924991e+02
      vertex 2.724500e+02 -1.230412e+01 -3.936480e+02
    endloop
  endfacet
  facet normal 8.927580e-13 9.990536e-01 -4.349701e-02
    outer loop
      vertex 2.014000e+02 -1.225410e+01 -3.924991e+02
      vertex 2.724500e+02 -1.225410e+01 -3.924991e+02
      vertex 2.717000e+02 -1.233674e+01 -3.943973e+02
    endloop
  endfacet
  facet normal 8.948140e-13 9.990536e-01 -4.349701e-02
    outer loop
      vertex 2.722303e+02 -1.232719e+01 -3.941778e+02
      vertex 2.717000e+02 -1.233674e+01 -3.943973e+02
      vertex 2.724500e+02 -1.225410e+01 -3.924991e+02
    endloop
  endfacet
  facet normal 9.238795e-01 -1.664558e-02 -3.823212e-01
    outer loop
      vertex 2.722303e+02 -1.232719e+01 -3.941778e+02
      vertex 2.724500e+02 -1.230412e+01 -3.936480e+02
      vertex 2.722303e+02 -1.350008e+01 -3.941268e+02
    endloop
  endfacet
  facet normal -9.696075e-01 -1.064223e-02 -2.444342e-01
    outer loop
      vertex 9.848149e+01 -1.737730e+01 -4.595923e+02
      vertex 1.006510e+02 -1.526065e+01 -4.682905e+02
      vertex 1.006510e+02 -1.775129e+01 -4.681821e+02
    endloop
  endfacet
  facet normal 8.927811e-13 9.990536e-01 -4.349701e-02
    outer loop
      vertex 1.005897e+02 -1.516278e+01 -4.660426e+02
      vertex 2.717000e+02 -1.516278e+01 -4.660426e+02
      vertex 1.006510e+02 -1.526065e+01 -4.682905e+02
    endloop
  endfacet
  facet normal 8.994290e-13 9.990536e-01 -4.349701e-02
    outer loop
      vertex 1.002685e+02 -1.520271e+01 -4.669599e+02
      vertex 1.005897e+02 -1.516278e+01 -4.660426e+02
      vertex 1.006510e+02 -1.526065e+01 -4.682905e+02
    endloop
  endfacet
  facet normal -9.547637e-01 -1.267689e-01 -2.689906e-01
    outer loop
      vertex 9.848149e+01 -1.737730e+01 -4.595923e+02
      vertex 1.002685e+02 -1.520271e+01 -4.669599e+02
      vertex 1.006510e+02 -1.526065e+01 -4.682905e+02
    endloop
  endfacet
  facet normal -8.919083e-13 -9.990536e-01 4.349701e-02
    outer loop
      vertex 9.913254e+01 -1.486565e+01 -4.019037e+02
      vertex 9.848149e+01 -1.737730e+01 -4.595923e+02
      vertex 1.006510e+02 -1.775129e+01 -4.681821e+02
    endloop
  endfacet
  facet normal -8.945781e-13 -9.990536e-01 4.349701e-02
    outer loop
      vertex 1.009697e+02 -1.449986e+01 -3.935023e+02
      vertex 9.913254e+01 -1.486565e+01 -4.019037e+02
      vertex 1.006510e+02 -1.775129e+01 -4.681821e+02
    endloop
  endfacet
  facet normal -8.928437e-13 -9.990536e-01 4.349701e-02
    outer loop
      vertex 1.584000e+02 -1.613753e+01 -4.311167e+02
      vertex 1.009697e+02 -1.449986e+01 -3.935023e+02
      vertex 1.006510e+02 -1.775129e+01 -4.681821e+02
    endloop
  endfacet
  facet normal -3.887012e-14 -4.349701e-02 -9.990536e-01
    outer loop
      vertex 2.717000e+02 -1.429809e+01 -4.660803e+02
      vertex 2.717000e+02 -1.516278e+01 -4.660426e+02
      vertex 1.005897e+02 -1.516278e+01 -4.660426e+02
    endloop
  endfacet
  facet normal 3.826834e-01 -4.018600e-02 -9.230051e-01
    outer loop
      vertex 2.722303e+02 -1.428853e+01 -4.658608e+02
      vertex 2.722303e+02 -1.515322e+01 -4.658232e+02
      vertex 2.717000e+02 -1.516278e+01 -4.660426e+02
    endloop
  endfacet
  facet normal 3.826834e-01 -4.018600e-02 -9.230051e-01
    outer loop
      vertex 2.722303e+02 -1.428853e+01 -4.658608e+02
      vertex 2.717000e+02 -1.516278e+01 -4.660426e+02
      vertex 2.717000e+02 -1.429809e+01 -4.660803e+02
    endloop
  endfacet
  facet normal 9.093221e-13 9.990536e-01 -4.349701e-02
    outer loop
      vertex 1.002685e+02 -1.520271e+01 -4.669599e+02
      vertex 1.001327e+02 -1.515602e+01 -4.658874e+02
      vertex 1.005897e+02 -1.516278e+01 -4.660426e+02
    endloop
  endfacet
  facet normal -3.219341e-01 -4.118132e-02 -9.458660e-01
    outer loop
      vertex 1.005897e+02 -1.429809e+01 -4.660803e+02
      vertex 1.005897e+02 -1.516278e+01 -4.660426e+02
      vertex 1.001327e+02 -1.515602e+01 -4.658874e+02
    endloop
  endfacet
  facet normal -3.887009e-14 -4.349701e-02 -9.990536e-01
    outer loop
      vertex 1.005897e+02 -1.429809e+01 -4.660803e+02
      vertex 2.717000e+02 -1.429809e+01 -4.660803e+02
      vertex 1.005897e+02 -1.516278e+01 -4.660426e+02
    endloop
  endfacet
  facet normal 8.684036e-13 9.990536e-01 -4.349701e-02
    outer loop
      vertex 1.002685e+02 -1.520271e+01 -4.669599e+02
      vertex 9.986493e+01 -1.513855e+01 -4.654862e+02
      vertex 1.001327e+02 -1.515602e+01 -4.658874e+02
    endloop
  endfacet
  facet normal -8.319805e-01 -2.413236e-02 -5.542798e-01
    outer loop
      vertex 1.001327e+02 -1.429133e+01 -4.659251e+02
      vertex 1.001327e+02 -1.515602e+01 -4.658874e+02
      vertex 9.986493e+01 -1.513855e+01 -4.654862e+02
    endloop
  endfacet
  facet normal -3.219341e-01 -4.118132e-02 -9.458660e-01
    outer loop
      vertex 1.001327e+02 -1.429133e+01 -4.659251e+02
      vertex 1.005897e+02 -1.429809e+01 -4.660803e+02
      vertex 1.001327e+02 -1.515602e+01 -4.658874e+02
    endloop
  endfacet
  facet normal -9.616570e-01 -8.883985e-02 -2.594675e-01
    outer loop
      vertex 9.848149e+01 -1.737730e+01 -4.595923e+02
      vertex 9.986493e+01 -1.513855e+01 -4.654862e+02
      vertex 1.002685e+02 -1.520271e+01 -4.669599e+02
    endloop
  endfacet
  facet normal -9.726305e-01 -1.010684e-02 -2.321372e-01
    outer loop
      vertex 9.986493e+01 -1.427386e+01 -4.655239e+02
      vertex 9.986493e+01 -1.513855e+01 -4.654862e+02
      vertex 9.848149e+01 -1.737730e+01 -4.595923e+02
    endloop
  endfacet
  facet normal -8.319805e-01 -2.413236e-02 -5.542798e-01
    outer loop
      vertex 1.001327e+02 -1.429133e+01 -4.659251e+02
      vertex 9.986493e+01 -1.513855e+01 -4.654862e+02
      vertex 9.986493e+01 -1.427386e+01 -4.655239e+02
    endloop
  endfacet
  facet normal 8.902588e-13 9.993510e-01 -3.602253e-02
    outer loop
      vertex 9.949053e+01 -1.412614e+01 -4.640859e+02
      vertex 9.752976e+01 -1.222308e+01 -4.112907e+02
      vertex 9.977240e+01 -1.177738e+01 -3.989259e+02
    endloop
  endfacet
  facet normal -9.839665e-01 7.757837e-03 1.781845e-01
    outer loop
      vertex 9.977240e+01 -1.187729e+01 -3.989215e+02
      vertex 9.977240e+01 -1.177738e+01 -3.989259e+02
      vertex 9.752976e+01 -1.222308e+01 -4.112907e+02
    endloop
  endfacet
  facet normal 8.930641e-13 9.993510e-01 -3.602253e-02
    outer loop
      vertex 1.569000e+02 -1.288871e+01 -4.297567e+02
      vertex 9.949053e+01 -1.412614e+01 -4.640859e+02
      vertex 9.977240e+01 -1.177738e+01 -3.989259e+02
    endloop
  endfacet
  facet normal 8.927610e-13 9.993510e-01 -3.602253e-02
    outer loop
      vertex 1.569000e+02 -1.288871e+01 -4.297567e+02
      vertex 9.977240e+01 -1.177738e+01 -3.989259e+02
      vertex 1.584000e+02 -1.283467e+01 -4.282577e+02
    endloop
  endfacet
  facet normal 8.937561e-13 9.993510e-01 -3.602253e-02
    outer loop
      vertex 9.628000e+01 -1.342568e+01 -4.446536e+02
      vertex 9.628000e+01 -1.261965e+01 -4.222923e+02
      vertex 9.752976e+01 -1.222308e+01 -4.112907e+02
    endloop
  endfacet
  facet normal -9.931466e-01 3.483100e-02 1.115640e-01
    outer loop
      vertex 9.687091e+01 -1.548535e+01 -4.161373e+02
      vertex 9.752976e+01 -1.222308e+01 -4.112907e+02
      vertex 9.628000e+01 -1.261965e+01 -4.222923e+02
    endloop
  endfacet
  facet normal 8.922670e-13 9.993510e-01 -3.602253e-02
    outer loop
      vertex 9.751746e+01 -1.378581e+01 -4.546445e+02
      vertex 9.628000e+01 -1.342568e+01 -4.446536e+02
      vertex 9.752976e+01 -1.222308e+01 -4.112907e+02
    endloop
  endfacet
  facet normal 8.957679e-13 9.993510e-01 -3.602253e-02
    outer loop
      vertex 9.949053e+01 -1.412614e+01 -4.640859e+02
      vertex 9.751746e+01 -1.378581e+01 -4.546445e+02
      vertex 9.752976e+01 -1.222308e+01 -4.112907e+02
    endloop
  endfacet
  facet normal -9.906506e-01 -2.569189e-03 1.363991e-01
    outer loop
      vertex 9.779575e+01 -1.519266e+01 -4.094148e+02
      vertex 9.752976e+01 -1.222308e+01 -4.112907e+02
      vertex 9.687091e+01 -1.548535e+01 -4.161373e+02
    endloop
  endfacet
  facet normal -9.844568e-01 2.190063e-02 1.742563e-01
    outer loop
      vertex 9.913254e+01 -1.486565e+01 -4.019037e+02
      vertex 9.752976e+01 -1.222308e+01 -4.112907e+02
      vertex 9.779575e+01 -1.519266e+01 -4.094148e+02
    endloop
  endfacet
  facet normal -9.835677e-01 3.357333e-02 1.773905e-01
    outer loop
      vertex 9.977240e+01 -1.187729e+01 -3.989215e+02
      vertex 9.752976e+01 -1.222308e+01 -4.112907e+02
      vertex 9.913254e+01 -1.486565e+01 -4.019037e+02
    endloop
  endfacet
  facet normal -7.071068e-01 7.066479e-01 -2.547177e-02
    outer loop
      vertex 9.583006e+01 -1.348231e+01 -4.337342e+02
      vertex 9.628000e+01 -1.261965e+01 -4.222923e+02
      vertex 9.628000e+01 -1.342568e+01 -4.446536e+02
    endloop
  endfacet
  facet normal -9.952242e-01 4.245997e-03 9.752344e-02
    outer loop
      vertex 9.687091e+01 -1.548535e+01 -4.161373e+02
      vertex 9.628000e+01 -1.261965e+01 -4.222923e+02
      vertex 9.628000e+01 -1.574740e+01 -4.221561e+02
    endloop
  endfacet
  facet normal -9.992313e-01 1.705174e-03 3.916500e-02
    outer loop
      vertex 9.583006e+01 -1.348231e+01 -4.337342e+02
      vertex 9.628000e+01 -1.574740e+01 -4.221561e+02
      vertex 9.628000e+01 -1.261965e+01 -4.222923e+02
    endloop
  endfacet
  facet normal -9.924259e-01 -5.343388e-03 -1.227287e-01
    outer loop
      vertex 9.628000e+01 -1.672065e+01 -4.445102e+02
      vertex 9.628000e+01 -1.342568e+01 -4.446536e+02
      vertex 9.751746e+01 -1.378581e+01 -4.546445e+02
    endloop
  endfacet
  facet normal -9.991500e-01 -1.793090e-03 -4.118427e-02
    outer loop
      vertex 9.583006e+01 -1.579679e+01 -4.336346e+02
      vertex 9.628000e+01 -1.342568e+01 -4.446536e+02
      vertex 9.628000e+01 -1.672065e+01 -4.445102e+02
    endloop
  endfacet
  facet normal -9.991502e-01 -1.772358e-03 -4.117981e-02
    outer loop
      vertex 9.583006e+01 -1.579679e+01 -4.336346e+02
      vertex 9.583006e+01 -1.348231e+01 -4.337342e+02
      vertex 9.628000e+01 -1.342568e+01 -4.446536e+02
    endloop
  endfacet
  facet normal -9.785122e-01 2.005900e-02 -2.052111e-01
    outer loop
      vertex 9.848149e+01 -1.737730e+01 -4.595923e+02
      vertex 9.751746e+01 -1.378581e+01 -4.546445e+02
      vertex 9.949053e+01 -1.412614e+01 -4.640859e+02
    endloop
  endfacet
  facet normal -9.836397e-01 -1.694754e-02 -1.793483e-01
    outer loop
      vertex 9.730233e+01 -1.709689e+01 -4.531517e+02
      vertex 9.751746e+01 -1.378581e+01 -4.546445e+02
      vertex 9.848149e+01 -1.737730e+01 -4.595923e+02
    endloop
  endfacet
  facet normal -9.929532e-01 1.133225e-02 -1.179639e-01
    outer loop
      vertex 9.628000e+01 -1.672065e+01 -4.445102e+02
      vertex 9.751746e+01 -1.378581e+01 -4.546445e+02
      vertex 9.730233e+01 -1.709689e+01 -4.531517e+02
    endloop
  endfacet
  facet normal 8.930696e-13 9.993510e-01 -3.602253e-02
    outer loop
      vertex 1.584000e+02 -1.294274e+01 -4.312558e+02
      vertex 2.556410e+02 -1.294274e+01 -4.312558e+02
      vertex 9.949053e+01 -1.412614e+01 -4.640859e+02
    endloop
  endfacet
  facet normal 8.917492e-13 9.993510e-01 -3.602253e-02
    outer loop
      vertex 1.569000e+02 -1.288871e+01 -4.297567e+02
      vertex 1.584000e+02 -1.294274e+01 -4.312558e+02
      vertex 9.949053e+01 -1.412614e+01 -4.640859e+02
    endloop
  endfacet
  facet normal -9.741124e-01 -9.833119e-03 -2.258503e-01
    outer loop
      vertex 9.949053e+01 -1.421110e+01 -4.640822e+02
      vertex 9.848149e+01 -1.737730e+01 -4.595923e+02
      vertex 9.949053e+01 -1.412614e+01 -4.640859e+02
    endloop
  endfacet
  facet normal -3.886964e-14 -4.349701e-02 -9.990536e-01
    outer loop
      vertex 1.584000e+02 -1.600704e+01 -4.281196e+02
      vertex 1.584000e+02 -1.283467e+01 -4.282577e+02
      vertex 2.556410e+02 -1.283467e+01 -4.282577e+02
    endloop
  endfacet
  facet normal 7.071068e-01 -3.075702e-02 -7.064376e-01
    outer loop
      vertex 1.569000e+02 -1.607228e+01 -4.296181e+02
      vertex 1.569000e+02 -1.288871e+01 -4.297567e+02
      vertex 1.584000e+02 -1.283467e+01 -4.282577e+02
    endloop
  endfacet
  facet normal 7.071068e-01 -3.075703e-02 -7.064375e-01
    outer loop
      vertex 1.569000e+02 -1.607228e+01 -4.296181e+02
      vertex 1.584000e+02 -1.283467e+01 -4.282577e+02
      vertex 1.584000e+02 -1.600704e+01 -4.281196e+02
    endloop
  endfacet
  facet normal -1.000000e+00 8.898830e-13 5.842510e-15
    outer loop
      vertex 2.556410e+02 -1.613753e+01 -4.311167e+02
      vertex 2.556410e+02 -1.283467e+01 -4.282577e+02
      vertex 2.556410e+02 -1.294274e+01 -4.312558e+02
    endloop
  endfacet
  facet normal -3.886949e-14 -4.349701e-02 -9.990536e-01
    outer loop
      vertex 2.556410e+02 -1.600704e+01 -4.281196e+02
      vertex 1.584000e+02 -1.600704e+01 -4.281196e+02
      vertex 2.556410e+02 -1.283467e+01 -4.282577e+02
    endloop
  endfacet
  facet normal -1.000000e+00 8.958693e-13 -1.073040e-15
    outer loop
      vertex 2.556410e+02 -1.600704e+01 -4.281196e+02
      vertex 2.556410e+02 -1.283467e+01 -4.282577e+02
      vertex 2.556410e+02 -1.613753e+01 -4.311167e+02
    endloop
  endfacet
  facet normal 3.887106e-14 4.349701e-02 9.990536e-01
    outer loop
      vertex 2.556410e+02 -1.613753e+01 -4.311167e+02
      vertex 2.556410e+02 -1.294274e+01 -4.312558e+02
      vertex 1.584000e+02 -1.294274e+01 -4.312558e+02
    endloop
  endfacet
  facet normal 7.071068e-01 3.075703e-02 7.064375e-01
    outer loop
      vertex 1.584000e+02 -1.613753e+01 -4.311167e+02
      vertex 1.584000e+02 -1.294274e+01 -4.312558e+02
      vertex 1.569000e+02 -1.288871e+01 -4.297567e+02
    endloop
  endfacet
  facet normal 3.887108e-14 4.349701e-02 9.990536e-01
    outer loop
      vertex 2.556410e+02 -1.613753e+01 -4.311167e+02
      vertex 1.584000e+02 -1.294274e+01 -4.312558e+02
      vertex 1.584000e+02 -1.613753e+01 -4.311167e+02
    endloop
  endfacet
  facet normal 7.071068e-01 3.075702e-02 7.064375e-01
    outer loop
      vertex 1.584000e+02 -1.613753e+01 -4.311167e+02
      vertex 1.569000e+02 -1.288871e+01 -4.297567e+02
      vertex 1.569000e+02 -1.607228e+01 -4.296181e+02
    endloop
  endfacet
  facet normal 3.887068e-14 4.349701e-02 9.990536e-01
    outer loop
      vertex 2.717000e+02 -1.361838e+01 -3.968438e+02
      vertex 2.717000e+02 -1.179029e+01 -3.969234e+02
      vertex 1.008107e+02 -1.179029e+01 -3.969234e+02
    endloop
  endfacet
  facet normal 8.927934e-13 9.990536e-01 -4.349701e-02
    outer loop
      vertex 9.977240e+01 -1.187729e+01 -3.989215e+02
      vertex 1.008107e+02 -1.179029e+01 -3.969234e+02
      vertex 2.717000e+02 -1.179029e+01 -3.969234e+02
    endloop
  endfacet
  facet normal 3.886973e-14 4.349701e-02 9.990536e-01
    outer loop
      vertex 1.008107e+02 -1.361838e+01 -3.968438e+02
      vertex 2.717000e+02 -1.361838e+01 -3.968438e+02
      vertex 1.008107e+02 -1.179029e+01 -3.969234e+02
    endloop
  endfacet
  facet normal -3.321065e-01 4.102820e-02 9.423492e-01
    outer loop
      vertex 1.003408e+02 -1.179749e+01 -3.970887e+02
      vertex 1.008107e+02 -1.361838e+01 -3.968438e+02
      vertex 1.008107e+02 -1.179029e+01 -3.969234e+02
    endloop
  endfacet
  facet normal 8.829631e-13 9.990536e-01 -4.349701e-02
    outer loop
      vertex 1.003408e+02 -1.179749e+01 -3.970887e+02
      vertex 1.008107e+02 -1.179029e+01 -3.969234e+02
      vertex 9.977240e+01 -1.187729e+01 -3.989215e+02
    endloop
  endfacet
  facet normal 3.826834e-01 4.018600e-02 9.230051e-01
    outer loop
      vertex 2.722303e+02 -1.362793e+01 -3.970633e+02
      vertex 2.717000e+02 -1.179029e+01 -3.969234e+02
      vertex 2.717000e+02 -1.361838e+01 -3.968438e+02
    endloop
  endfacet
  facet normal 3.826834e-01 4.018600e-02 9.230051e-01
    outer loop
      vertex 2.722303e+02 -1.179985e+01 -3.971429e+02
      vertex 2.717000e+02 -1.179029e+01 -3.969234e+02
      vertex 2.722303e+02 -1.362793e+01 -3.970633e+02
    endloop
  endfacet
  facet normal 8.926630e-13 9.990536e-01 -4.349701e-02
    outer loop
      vertex 2.722303e+02 -1.179985e+01 -3.971429e+02
      vertex 9.977240e+01 -1.187729e+01 -3.989215e+02
      vertex 2.717000e+02 -1.179029e+01 -3.969234e+02
    endloop
  endfacet
  facet normal 8.927726e-13 9.990536e-01 -4.349701e-02
    outer loop
      vertex 2.717000e+02 -1.350963e+01 -3.943462e+02
      vertex 2.717000e+02 -1.361838e+01 -3.968438e+02
      vertex 1.008107e+02 -1.361838e+01 -3.968438e+02
    endloop
  endfacet
  facet normal 8.946195e-13 9.990536e-01 -4.349701e-02
    outer loop
      vertex 2.722303e+02 -1.350008e+01 -3.941268e+02
      vertex 2.722303e+02 -1.362793e+01 -3.970633e+02
      vertex 2.717000e+02 -1.361838e+01 -3.968438e+02
    endloop
  endfacet
  facet normal 8.921239e-13 9.990536e-01 -4.349701e-02
    outer loop
      vertex 2.717000e+02 -1.350963e+01 -3.943462e+02
      vertex 2.722303e+02 -1.350008e+01 -3.941268e+02
      vertex 2.717000e+02 -1.361838e+01 -3.968438e+02
    endloop
  endfacet
  facet normal 8.927775e-13 9.990536e-01 -4.349701e-02
    outer loop
      vertex 1.017180e+02 -1.350963e+01 -3.943462e+02
      vertex 2.717000e+02 -1.350963e+01 -3.943462e+02
      vertex 1.008107e+02 -1.361838e+01 -3.968438e+02
    endloop
  endfacet
  facet normal 8.977310e-13 9.990536e-01 -4.349701e-02
    outer loop
      vertex 1.011704e+02 -1.349929e+01 -3.941088e+02
      vertex 1.017180e+02 -1.350963e+01 -3.943462e+02
      vertex 1.008107e+02 -1.361838e+01 -3.968438e+02
    endloop
  endfacet
  facet normal 8.672226e-13 9.990536e-01 -4.349701e-02
    outer loop
      vertex 1.009697e+02 -1.347484e+01 -3.935470e+02
      vertex 1.011704e+02 -1.349929e+01 -3.941088e+02
      vertex 1.008107e+02 -1.361838e+01 -3.968438e+02
    endloop
  endfacet
  facet normal 9.052891e-13 9.990536e-01 -4.349701e-02
    outer loop
      vertex 1.005121e+02 -1.355999e+01 -3.955028e+02
      vertex 1.009697e+02 -1.347484e+01 -3.935470e+02
      vertex 1.008107e+02 -1.361838e+01 -3.968438e+02
    endloop
  endfacet
  facet normal 8.958970e-13 9.990536e-01 -4.349701e-02
    outer loop
      vertex 1.003408e+02 -1.362557e+01 -3.970091e+02
      vertex 1.005121e+02 -1.355999e+01 -3.955028e+02
      vertex 1.008107e+02 -1.361838e+01 -3.968438e+02
    endloop
  endfacet
  facet normal -3.321065e-01 4.102820e-02 9.423492e-01
    outer loop
      vertex 1.003408e+02 -1.179749e+01 -3.970887e+02
      vertex 1.003408e+02 -1.362557e+01 -3.970091e+02
      vertex 1.008107e+02 -1.361838e+01 -3.968438e+02
    endloop
  endfacet
  facet normal 3.826834e-01 -4.018600e-02 -9.230051e-01
    outer loop
      vertex 2.722303e+02 -1.232719e+01 -3.941778e+02
      vertex 2.722303e+02 -1.350008e+01 -3.941268e+02
      vertex 2.717000e+02 -1.350963e+01 -3.943462e+02
    endloop
  endfacet
  facet normal -3.886993e-14 -4.349701e-02 -9.990536e-01
    outer loop
      vertex 2.717000e+02 -1.233674e+01 -3.943973e+02
      vertex 2.717000e+02 -1.350963e+01 -3.943462e+02
      vertex 1.017180e+02 -1.350963e+01 -3.943462e+02
    endloop
  endfacet
  facet normal 3.826834e-01 -4.018600e-02 -9.230051e-01
    outer loop
      vertex 2.722303e+02 -1.232719e+01 -3.941778e+02
      vertex 2.717000e+02 -1.350963e+01 -3.943462e+02
      vertex 2.717000e+02 -1.233674e+01 -3.943973e+02
    endloop
  endfacet
  facet normal -3.981128e-01 -3.990139e-02 -9.164683e-01
    outer loop
      vertex 1.017180e+02 -1.233674e+01 -3.943973e+02
      vertex 1.017180e+02 -1.350963e+01 -3.943462e+02
      vertex 1.011704e+02 -1.349929e+01 -3.941088e+02
    endloop
  endfacet
  facet normal -3.886994e-14 -4.349701e-02 -9.990536e-01
    outer loop
      vertex 1.017180e+02 -1.233674e+01 -3.943973e+02
      vertex 2.717000e+02 -1.233674e+01 -3.943973e+02
      vertex 1.017180e+02 -1.350963e+01 -3.943462e+02
    endloop
  endfacet
  facet normal -9.418365e-01 -1.461810e-02 -3.357533e-01
    outer loop
      vertex 1.011704e+02 -1.232641e+01 -3.941598e+02
      vertex 1.011704e+02 -1.349929e+01 -3.941088e+02
      vertex 1.009697e+02 -1.347484e+01 -3.935470e+02
    endloop
  endfacet
  facet normal -3.981128e-01 -3.990139e-02 -9.164683e-01
    outer loop
      vertex 1.011704e+02 -1.232641e+01 -3.941598e+02
      vertex 1.017180e+02 -1.233674e+01 -3.943973e+02
      vertex 1.011704e+02 -1.349929e+01 -3.941088e+02
    endloop
  endfacet
  facet normal -9.737517e-01 9.900482e-03 2.273975e-01
    outer loop
      vertex 1.009697e+02 -1.449986e+01 -3.935023e+02
      vertex 1.009697e+02 -1.347484e+01 -3.935470e+02
      vertex 1.005121e+02 -1.355999e+01 -3.955028e+02
    endloop
  endfacet
  facet normal -9.418365e-01 -1.461810e-02 -3.357533e-01
    outer loop
      vertex 1.011704e+02 -1.232641e+01 -3.941598e+02
      vertex 1.009697e+02 -1.347484e+01 -3.935470e+02
      vertex 1.009697e+02 -1.230195e+01 -3.935980e+02
    endloop
  endfacet
  facet normal 3.797756e-14 4.349701e-02 9.990536e-01
    outer loop
      vertex 2.012500e+02 -1.449986e+01 -3.935023e+02
      vertex 1.009697e+02 -1.230195e+01 -3.935980e+02
      vertex 1.009697e+02 -1.347484e+01 -3.935470e+02
    endloop
  endfacet
  facet normal 3.887031e-14 4.349701e-02 9.990536e-01
    outer loop
      vertex 2.012500e+02 -1.449986e+01 -3.935023e+02
      vertex 1.009697e+02 -1.347484e+01 -3.935470e+02
      vertex 1.009697e+02 -1.449986e+01 -3.935023e+02
    endloop
  endfacet
  facet normal 9.100914e-13 9.990536e-01 -4.349701e-02
    outer loop
      vertex 1.003408e+02 -1.362557e+01 -3.970091e+02
      vertex 1.000782e+02 -1.364399e+01 -3.974321e+02
      vertex 1.005121e+02 -1.355999e+01 -3.955028e+02
    endloop
  endfacet
  facet normal -9.755363e-01 -7.315772e-03 2.197168e-01
    outer loop
      vertex 1.009697e+02 -1.449986e+01 -3.935023e+02
      vertex 1.005121e+02 -1.355999e+01 -3.955028e+02
      vertex 1.000782e+02 -1.364399e+01 -3.974321e+02
    endloop
  endfacet
  facet normal -8.498012e-01 2.292742e-02 5.266045e-01
    outer loop
      vertex 1.000782e+02 -1.181590e+01 -3.975117e+02
      vertex 1.000782e+02 -1.364399e+01 -3.974321e+02
      vertex 1.003408e+02 -1.362557e+01 -3.970091e+02
    endloop
  endfacet
  facet normal -9.761800e-01 -3.057465e-02 2.147971e-01
    outer loop
      vertex 1.009697e+02 -1.449986e+01 -3.935023e+02
      vertex 1.000782e+02 -1.364399e+01 -3.974321e+02
      vertex 9.913254e+01 -1.486565e+01 -4.019037e+02
    endloop
  endfacet
  facet normal -9.785805e-01 4.131618e-03 2.058231e-01
    outer loop
      vertex 9.977240e+01 -1.187729e+01 -3.989215e+02
      vertex 9.913254e+01 -1.486565e+01 -4.019037e+02
      vertex 1.000782e+02 -1.364399e+01 -3.974321e+02
    endloop
  endfacet
  facet normal -9.776596e-01 7.852946e-03 2.100479e-01
    outer loop
      vertex 9.992344e+01 -1.184673e+01 -3.982197e+02
      vertex 9.977240e+01 -1.187729e+01 -3.989215e+02
      vertex 1.000782e+02 -1.364399e+01 -3.974321e+02
    endloop
  endfacet
  facet normal -9.769707e-01 9.281104e-03 2.131714e-01
    outer loop
      vertex 1.000782e+02 -1.181590e+01 -3.975117e+02
      vertex 9.992344e+01 -1.184673e+01 -3.982197e+02
      vertex 1.000782e+02 -1.364399e+01 -3.974321e+02
    endloop
  endfacet
  facet normal -8.498012e-01 2.292742e-02 5.266045e-01
    outer loop
      vertex 1.003408e+02 -1.179749e+01 -3.970887e+02
      vertex 1.000782e+02 -1.181590e+01 -3.975117e+02
      vertex 1.003408e+02 -1.362557e+01 -3.970091e+02
    endloop
  endfacet
  facet normal 8.927775e-13 9.990536e-01 -4.349701e-02
    outer loop
      vertex 2.012500e+02 -1.230195e+01 -3.935980e+02
      vertex 2.717000e+02 -1.233674e+01 -3.943973e+02
      vertex 1.017180e+02 -1.233674e+01 -3.943973e+02
    endloop
  endfacet
  facet normal 8.927053e-13 9.990536e-01 -4.349701e-02
    outer loop
      vertex 2.013500e+02 -1.229760e+01 -3.934981e+02
      vertex 2.014000e+02 -1.225410e+01 -3.924991e+02
      vertex 2.717000e+02 -1.233674e+01 -3.943973e+02
    endloop
  endfacet
  facet normal 8.918325e-13 9.990536e-01 -4.349701e-02
    outer loop
      vertex 2.013207e+02 -1.230067e+01 -3.935688e+02
      vertex 2.013500e+02 -1.229760e+01 -3.934981e+02
      vertex 2.717000e+02 -1.233674e+01 -3.943973e+02
    endloop
  endfacet
  facet normal 8.949218e-13 9.990536e-01 -4.349701e-02
    outer loop
      vertex 2.012500e+02 -1.230195e+01 -3.935980e+02
      vertex 2.013207e+02 -1.230067e+01 -3.935688e+02
      vertex 2.717000e+02 -1.233674e+01 -3.943973e+02
    endloop
  endfacet
  facet normal 8.926577e-13 9.990536e-01 -4.349701e-02
    outer loop
      vertex 1.011704e+02 -1.232641e+01 -3.941598e+02
      vertex 2.012500e+02 -1.230195e+01 -3.935980e+02
      vertex 1.017180e+02 -1.233674e+01 -3.943973e+02
    endloop
  endfacet
  facet normal 8.136766e-13 9.990536e-01 -4.349701e-02
    outer loop
      vertex 2.013500e+02 -1.229760e+01 -3.934981e+02
      vertex 2.013500e+02 -1.225628e+01 -3.925490e+02
      vertex 2.014000e+02 -1.225410e+01 -3.924991e+02
    endloop
  endfacet
  facet normal -7.071068e-01 3.075703e-02 7.064375e-01
    outer loop
      vertex 2.013500e+02 -1.445419e+01 -3.924533e+02
      vertex 2.014000e+02 -1.225410e+01 -3.924991e+02
      vertex 2.013500e+02 -1.225628e+01 -3.925490e+02
    endloop
  endfacet
  facet normal -7.071068e-01 3.075703e-02 7.064375e-01
    outer loop
      vertex 2.013500e+02 -1.445419e+01 -3.924533e+02
      vertex 2.014000e+02 -1.445202e+01 -3.924034e+02
      vertex 2.014000e+02 -1.225410e+01 -3.924991e+02
    endloop
  endfacet
  facet normal -1.000000e+00 8.931671e-13 2.100496e-14
    outer loop
      vertex 2.013500e+02 -1.449552e+01 -3.934024e+02
      vertex 2.013500e+02 -1.225628e+01 -3.925490e+02
      vertex 2.013500e+02 -1.229760e+01 -3.934981e+02
    endloop
  endfacet
  facet normal -1.000000e+00 8.931671e-13 2.100496e-14
    outer loop
      vertex 2.013500e+02 -1.445419e+01 -3.924533e+02
      vertex 2.013500e+02 -1.225628e+01 -3.925490e+02
      vertex 2.013500e+02 -1.449552e+01 -3.934024e+02
    endloop
  endfacet
  facet normal -9.238795e-01 1.664558e-02 3.823212e-01
    outer loop
      vertex 2.013500e+02 -1.449552e+01 -3.934024e+02
      vertex 2.013500e+02 -1.229760e+01 -3.934981e+02
      vertex 2.013207e+02 -1.230067e+01 -3.935688e+02
    endloop
  endfacet
  facet normal -3.826834e-01 4.018600e-02 9.230051e-01
    outer loop
      vertex 2.013207e+02 -1.449859e+01 -3.934731e+02
      vertex 2.013207e+02 -1.230067e+01 -3.935688e+02
      vertex 2.012500e+02 -1.230195e+01 -3.935980e+02
    endloop
  endfacet
  facet normal -9.238795e-01 1.664558e-02 3.823212e-01
    outer loop
      vertex 2.013500e+02 -1.449552e+01 -3.934024e+02
      vertex 2.013207e+02 -1.230067e+01 -3.935688e+02
      vertex 2.013207e+02 -1.449859e+01 -3.934731e+02
    endloop
  endfacet
  facet normal 8.927860e-13 9.990536e-01 -4.349701e-02
    outer loop
      vertex 1.011704e+02 -1.232641e+01 -3.941598e+02
      vertex 1.009697e+02 -1.230195e+01 -3.935980e+02
      vertex 2.012500e+02 -1.230195e+01 -3.935980e+02
    endloop
  endfacet
  facet normal 3.887035e-14 4.349701e-02 9.990536e-01
    outer loop
      vertex 2.012500e+02 -1.449986e+01 -3.935023e+02
      vertex 2.012500e+02 -1.230195e+01 -3.935980e+02
      vertex 1.009697e+02 -1.230195e+01 -3.935980e+02
    endloop
  endfacet
  facet normal -3.826834e-01 4.018600e-02 9.230051e-01
    outer loop
      vertex 2.013207e+02 -1.449859e+01 -3.934731e+02
      vertex 2.012500e+02 -1.230195e+01 -3.935980e+02
      vertex 2.012500e+02 -1.449986e+01 -3.935023e+02
    endloop
  endfacet
  facet normal -9.585391e-13 -9.990536e-01 4.349701e-02
    outer loop
      vertex 2.556410e+02 -1.600704e+01 -4.281196e+02
      vertex 2.014000e+02 -1.445202e+01 -3.924034e+02
      vertex 2.013500e+02 -1.445419e+01 -3.924533e+02
    endloop
  endfacet
  facet normal -8.920244e-13 -9.990536e-01 4.349701e-02
    outer loop
      vertex 9.779575e+01 -1.519266e+01 -4.094148e+02
      vertex 9.730233e+01 -1.709689e+01 -4.531517e+02
      vertex 9.848149e+01 -1.737730e+01 -4.595923e+02
    endloop
  endfacet
  facet normal -8.899992e-13 -9.990536e-01 4.349701e-02
    outer loop
      vertex 9.913254e+01 -1.486565e+01 -4.019037e+02
      vertex 9.779575e+01 -1.519266e+01 -4.094148e+02
      vertex 9.848149e+01 -1.737730e+01 -4.595923e+02
    endloop
  endfacet
  facet normal -9.663315e-01 -5.118112e-02 -2.521585e-01
    outer loop
      vertex 9.967948e+01 -1.424319e+01 -4.648194e+02
      vertex 9.986493e+01 -1.427386e+01 -4.655239e+02
      vertex 9.848149e+01 -1.737730e+01 -4.595923e+02
    endloop
  endfacet
  facet normal -9.683053e-01 -4.083709e-02 -2.464087e-01
    outer loop
      vertex 9.949053e+01 -1.421110e+01 -4.640822e+02
      vertex 9.967948e+01 -1.424319e+01 -4.648194e+02
      vertex 9.848149e+01 -1.737730e+01 -4.595923e+02
    endloop
  endfacet
  facet normal -8.928840e-13 -9.990536e-01 4.349701e-02
    outer loop
      vertex 9.628000e+01 -1.574740e+01 -4.221561e+02
      vertex 9.628000e+01 -1.672065e+01 -4.445102e+02
      vertex 9.730233e+01 -1.709689e+01 -4.531517e+02
    endloop
  endfacet
  facet normal -9.022479e-13 -9.990536e-01 4.349701e-02
    outer loop
      vertex 9.687091e+01 -1.548535e+01 -4.161373e+02
      vertex 9.628000e+01 -1.574740e+01 -4.221561e+02
      vertex 9.730233e+01 -1.709689e+01 -4.531517e+02
    endloop
  endfacet
  facet normal -8.882807e-13 -9.990536e-01 4.349701e-02
    outer loop
      vertex 9.779575e+01 -1.519266e+01 -4.094148e+02
      vertex 9.687091e+01 -1.548535e+01 -4.161373e+02
      vertex 9.730233e+01 -1.709689e+01 -4.531517e+02
    endloop
  endfacet
  facet normal -7.071068e-01 -7.064375e-01 3.075703e-02
    outer loop
      vertex 9.583006e+01 -1.579679e+01 -4.336346e+02
      vertex 9.628000e+01 -1.672065e+01 -4.445102e+02
      vertex 9.628000e+01 -1.574740e+01 -4.221561e+02
    endloop
  endfacet
  facet normal -9.992315e-01 1.684540e-03 3.916098e-02
    outer loop
      vertex 9.583006e+01 -1.579679e+01 -4.336346e+02
      vertex 9.628000e+01 -1.574740e+01 -4.221561e+02
      vertex 9.583006e+01 -1.348231e+01 -4.337342e+02
    endloop
  endfacet
  facet normal -8.927856e-13 -9.990536e-01 4.349701e-02
    outer loop
      vertex 1.584000e+02 -1.600704e+01 -4.281196e+02
      vertex 2.012500e+02 -1.449986e+01 -3.935023e+02
      vertex 1.009697e+02 -1.449986e+01 -3.935023e+02
    endloop
  endfacet
  facet normal -8.926030e-13 -9.990536e-01 4.349701e-02
    outer loop
      vertex 1.569000e+02 -1.607228e+01 -4.296181e+02
      vertex 1.584000e+02 -1.600704e+01 -4.281196e+02
      vertex 1.009697e+02 -1.449986e+01 -3.935023e+02
    endloop
  endfacet
  facet normal -8.875968e-13 -9.990536e-01 4.349701e-02
    outer loop
      vertex 1.584000e+02 -1.613753e+01 -4.311167e+02
      vertex 1.569000e+02 -1.607228e+01 -4.296181e+02
      vertex 1.009697e+02 -1.449986e+01 -3.935023e+02
    endloop
  endfacet
  facet normal -8.874754e-13 -9.990536e-01 4.349701e-02
    outer loop
      vertex 2.556410e+02 -1.600704e+01 -4.281196e+02
      vertex 2.013207e+02 -1.449859e+01 -3.934731e+02
      vertex 2.012500e+02 -1.449986e+01 -3.935023e+02
    endloop
  endfacet
  facet normal -8.927673e-13 -9.990536e-01 4.349701e-02
    outer loop
      vertex 2.556410e+02 -1.600704e+01 -4.281196e+02
      vertex 2.012500e+02 -1.449986e+01 -3.935023e+02
      vertex 1.584000e+02 -1.600704e+01 -4.281196e+02
    endloop
  endfacet
  facet normal -9.436338e-13 -9.990536e-01 4.349701e-02
    outer loop
      vertex 2.556410e+02 -1.600704e+01 -4.281196e+02
      vertex 2.013500e+02 -1.449552e+01 -3.934024e+02
      vertex 2.013207e+02 -1.449859e+01 -3.934731e+02
    endloop
  endfacet
  facet normal -8.845888e-13 -9.990536e-01 4.349701e-02
    outer loop
      vertex 2.556410e+02 -1.600704e+01 -4.281196e+02
      vertex 2.013500e+02 -1.445419e+01 -3.924533e+02
      vertex 2.013500e+02 -1.449552e+01 -3.934024e+02
    endloop
  endfacet
  facet normal 2.011256e-12 9.990536e-01 -4.349701e-02
    outer loop
      vertex 1.000782e+02 -1.181590e+01 -3.975117e+02
      vertex 9.977240e+01 -1.187729e+01 -3.989215e+02
      vertex 9.992344e+01 -1.184673e+01 -3.982197e+02
    endloop
  endfacet
  facet normal 9.369244e-13 9.990536e-01 -4.349701e-02
    outer loop
      vertex 1.003408e+02 -1.179749e+01 -3.970887e+02
      vertex 9.977240e+01 -1.187729e+01 -3.989215e+02
      vertex 1.000782e+02 -1.181590e+01 -3.975117e+02
    endloop
  endfacet
endsolid P1040852002
