solid P1040852002
  facet normal -1.000000e+00 -8.083737e-14 2.723124e-12
    outer loop
      vertex -1.890140e+02 3.836148e+01 -4.681282e+02
      vertex -1.890140e+02 3.195799e+01 -3.977108e+02
      vertex -1.890140e+02 3.165358e+01 -3.937224e+02
    endloop
  endfacet
  facet normal -2.205462e-13 -9.971000e-01 -7.610228e-02
    outer loop
      vertex -1.887943e+02 3.191763e+01 -3.971820e+02
      vertex -1.890140e+02 3.165358e+01 -3.937224e+02
      vertex -1.890140e+02 3.195799e+01 -3.977108e+02
    endloop
  endfacet
  facet normal -1.000000e+00 9.275301e-15 2.731248e-12
    outer loop
      vertex -1.890140e+02 3.258909e+01 -3.924976e+02
      vertex -1.890140e+02 3.836148e+01 -4.681282e+02
      vertex -1.890140e+02 3.165358e+01 -3.937224e+02
    endloop
  endfacet
  facet normal -1.000000e+00 -1.799864e-15 2.739707e-12
    outer loop
      vertex -1.890140e+02 3.039547e+01 -3.926651e+02
      vertex -1.890140e+02 3.258909e+01 -3.924976e+02
      vertex -1.890140e+02 3.165358e+01 -3.937224e+02
    endloop
  endfacet
  facet normal -1.000000e+00 -1.377885e-14 2.725453e-12
    outer loop
      vertex -1.890140e+02 3.048298e+01 -3.938117e+02
      vertex -1.890140e+02 3.039547e+01 -3.926651e+02
      vertex -1.890140e+02 3.165358e+01 -3.937224e+02
    endloop
  endfacet
  facet normal -9.238795e-01 2.912308e-02 -3.815737e-01
    outer loop
      vertex -1.887943e+02 3.169394e+01 -3.942512e+02
      vertex -1.890140e+02 3.048298e+01 -3.938117e+02
      vertex -1.890140e+02 3.165358e+01 -3.937224e+02
    endloop
  endfacet
  facet normal -2.112346e-13 -9.971000e-01 -7.610228e-02
    outer loop
      vertex -1.887943e+02 3.169394e+01 -3.942512e+02
      vertex -1.890140e+02 3.165358e+01 -3.937224e+02
      vertex -1.887943e+02 3.191763e+01 -3.971820e+02
    endloop
  endfacet
  facet normal -1.000000e+00 -5.848483e-15 2.729943e-12
    outer loop
      vertex -1.890140e+02 3.836148e+01 -4.681282e+02
      vertex -1.890140e+02 3.013348e+01 -3.978500e+02
      vertex -1.890140e+02 3.195799e+01 -3.977108e+02
    endloop
  endfacet
  facet normal -9.238795e-01 -2.912308e-02 3.815737e-01
    outer loop
      vertex -1.887943e+02 3.009312e+01 -3.973212e+02
      vertex -1.890140e+02 3.195799e+01 -3.977108e+02
      vertex -1.890140e+02 3.013348e+01 -3.978500e+02
    endloop
  endfacet
  facet normal -9.238795e-01 -2.912308e-02 3.815737e-01
    outer loop
      vertex -1.887943e+02 3.009312e+01 -3.973212e+02
      vertex -1.887943e+02 3.191763e+01 -3.971820e+02
      vertex -1.890140e+02 3.195799e+01 -3.977108e+02
    endloop
  endfacet
  facet normal -1.000000e+00 1.421197e-13 2.747267e-12
    outer loop
      vertex -1.890140e+02 3.836148e+01 -4.681282e+02
      vertex -1.890140e+02 3.022861e+01 -3.990964e+02
      vertex -1.890140e+02 3.013348e+01 -3.978500e+02
    endloop
  endfacet
  facet normal -2.059667e-13 -9.971000e-01 -7.610228e-02
    outer loop
      vertex -1.633640e+01 3.022861e+01 -3.990964e+02
      vertex -1.890140e+02 3.013348e+01 -3.978500e+02
      vertex -1.890140e+02 3.022861e+01 -3.990964e+02
    endloop
  endfacet
  facet normal -2.059280e-13 -9.971000e-01 -7.610228e-02
    outer loop
      vertex -1.887943e+02 3.009312e+01 -3.973212e+02
      vertex -1.890140e+02 3.013348e+01 -3.978500e+02
      vertex -1.633640e+01 3.022861e+01 -3.990964e+02
    endloop
  endfacet
  facet normal -1.000000e+00 -2.065462e-13 2.706189e-12
    outer loop
      vertex -1.890140e+02 3.836148e+01 -4.681282e+02
      vertex -1.890140e+02 3.012890e+01 -3.991040e+02
      vertex -1.890140e+02 3.022861e+01 -3.990964e+02
    endloop
  endfacet
  facet normal 2.722506e-12 -7.610228e-02 9.971000e-01
    outer loop
      vertex -1.633640e+01 3.012890e+01 -3.991040e+02
      vertex -1.890140e+02 3.022861e+01 -3.990964e+02
      vertex -1.890140e+02 3.012890e+01 -3.991040e+02
    endloop
  endfacet
  facet normal 2.721847e-12 -7.610228e-02 9.971000e-01
    outer loop
      vertex -1.633640e+01 3.022861e+01 -3.990964e+02
      vertex -1.890140e+02 3.022861e+01 -3.990964e+02
      vertex -1.633640e+01 3.012890e+01 -3.991040e+02
    endloop
  endfacet
  facet normal -1.000000e+00 4.595421e-13 2.762434e-12
    outer loop
      vertex -1.890140e+02 3.468928e+01 -4.641461e+02
      vertex -1.890140e+02 3.460449e+01 -4.641526e+02
      vertex -1.890140e+02 3.012890e+01 -3.991040e+02
    endloop
  endfacet
  facet normal -1.857807e-13 -9.976414e-01 -6.864150e-02
    outer loop
      vertex -1.722050e+02 3.159100e+01 -4.203544e+02
      vertex -1.890140e+02 3.012890e+01 -3.991040e+02
      vertex -1.890140e+02 3.460449e+01 -4.641526e+02
    endloop
  endfacet
  facet normal -1.000000e+00 -1.242173e-14 2.729343e-12
    outer loop
      vertex -1.890140e+02 3.836148e+01 -4.681282e+02
      vertex -1.890140e+02 3.468928e+01 -4.641461e+02
      vertex -1.890140e+02 3.012890e+01 -3.991040e+02
    endloop
  endfacet
  facet normal -1.856050e-13 -9.976414e-01 -6.864150e-02
    outer loop
      vertex -7.496400e+01 3.138507e+01 -4.173614e+02
      vertex -1.633640e+01 3.012890e+01 -3.991040e+02
      vertex -1.890140e+02 3.012890e+01 -3.991040e+02
    endloop
  endfacet
  facet normal -1.855624e-13 -9.976414e-01 -6.864150e-02
    outer loop
      vertex -1.722050e+02 3.138507e+01 -4.173614e+02
      vertex -7.496400e+01 3.138507e+01 -4.173614e+02
      vertex -1.890140e+02 3.012890e+01 -3.991040e+02
    endloop
  endfacet
  facet normal -1.851267e-13 -9.976414e-01 -6.864150e-02
    outer loop
      vertex -1.722050e+02 3.159100e+01 -4.203544e+02
      vertex -1.722050e+02 3.138507e+01 -4.173614e+02
      vertex -1.890140e+02 3.012890e+01 -3.991040e+02
    endloop
  endfacet
  facet normal -2.722657e-12 7.610228e-02 -9.971000e-01
    outer loop
      vertex -1.605453e+01 3.468928e+01 -4.641461e+02
      vertex -1.890140e+02 3.460449e+01 -4.641526e+02
      vertex -1.890140e+02 3.468928e+01 -4.641461e+02
    endloop
  endfacet
  facet normal -1.856208e-13 -9.976414e-01 -6.864150e-02
    outer loop
      vertex -1.722050e+02 3.159100e+01 -4.203544e+02
      vertex -1.890140e+02 3.460449e+01 -4.641526e+02
      vertex -1.605453e+01 3.460449e+01 -4.641526e+02
    endloop
  endfacet
  facet normal -2.722657e-12 7.610228e-02 -9.971000e-01
    outer loop
      vertex -1.605453e+01 3.468928e+01 -4.641461e+02
      vertex -1.605453e+01 3.460449e+01 -4.641526e+02
      vertex -1.890140e+02 3.460449e+01 -4.641526e+02
    endloop
  endfacet
  facet normal -1.000000e+00 -1.119615e-14 2.735688e-12
    outer loop
      vertex -1.890140e+02 3.564740e+01 -4.653266e+02
      vertex -1.890140e+02 3.478440e+01 -4.653925e+02
      vertex -1.890140e+02 3.468928e+01 -4.641461e+02
    endloop
  endfacet
  facet normal -2.433635e-13 -9.971000e-01 -7.610228e-02
    outer loop
      vertex -1.887943e+02 3.482476e+01 -4.659212e+02
      vertex -1.890140e+02 3.468928e+01 -4.641461e+02
      vertex -1.890140e+02 3.478440e+01 -4.653925e+02
    endloop
  endfacet
  facet normal -1.000000e+00 3.598174e-14 2.773980e-12
    outer loop
      vertex -1.890140e+02 3.836148e+01 -4.681282e+02
      vertex -1.890140e+02 3.564740e+01 -4.653266e+02
      vertex -1.890140e+02 3.468928e+01 -4.641461e+02
    endloop
  endfacet
  facet normal -2.059410e-13 -9.971000e-01 -7.610228e-02
    outer loop
      vertex -1.715365e+01 3.484148e+01 -4.661403e+02
      vertex -1.890140e+02 3.468928e+01 -4.641461e+02
      vertex -1.882640e+02 3.484148e+01 -4.661403e+02
    endloop
  endfacet
  facet normal -2.033388e-13 -9.971000e-01 -7.610228e-02
    outer loop
      vertex -1.887943e+02 3.482476e+01 -4.659212e+02
      vertex -1.882640e+02 3.484148e+01 -4.661403e+02
      vertex -1.890140e+02 3.468928e+01 -4.641461e+02
    endloop
  endfacet
  facet normal -2.059770e-13 -9.971000e-01 -7.610228e-02
    outer loop
      vertex -1.669670e+01 3.482965e+01 -4.659853e+02
      vertex -1.890140e+02 3.468928e+01 -4.641461e+02
      vertex -1.715365e+01 3.484148e+01 -4.661403e+02
    endloop
  endfacet
  facet normal -2.060885e-13 -9.971000e-01 -7.610228e-02
    outer loop
      vertex -1.624348e+01 3.474543e+01 -4.648819e+02
      vertex -1.890140e+02 3.468928e+01 -4.641461e+02
      vertex -1.642893e+01 3.479910e+01 -4.655850e+02
    endloop
  endfacet
  facet normal -2.061244e-13 -9.971000e-01 -7.610228e-02
    outer loop
      vertex -1.669670e+01 3.482965e+01 -4.659853e+02
      vertex -1.642893e+01 3.479910e+01 -4.655850e+02
      vertex -1.890140e+02 3.468928e+01 -4.641461e+02
    endloop
  endfacet
  facet normal -2.059902e-13 -9.971000e-01 -7.610228e-02
    outer loop
      vertex -1.605453e+01 3.468928e+01 -4.641461e+02
      vertex -1.890140e+02 3.468928e+01 -4.641461e+02
      vertex -1.624348e+01 3.474543e+01 -4.648819e+02
    endloop
  endfacet
  facet normal -9.238795e-01 2.912308e-02 -3.815737e-01
    outer loop
      vertex -1.887943e+02 3.568776e+01 -4.658554e+02
      vertex -1.890140e+02 3.478440e+01 -4.653925e+02
      vertex -1.890140e+02 3.564740e+01 -4.653266e+02
    endloop
  endfacet
  facet normal -9.238795e-01 2.912308e-02 -3.815737e-01
    outer loop
      vertex -1.887943e+02 3.482476e+01 -4.659212e+02
      vertex -1.890140e+02 3.478440e+01 -4.653925e+02
      vertex -1.887943e+02 3.568776e+01 -4.658554e+02
    endloop
  endfacet
  facet normal -1.000000e+00 -3.028082e-15 2.736189e-12
    outer loop
      vertex -1.890140e+02 3.836148e+01 -4.681282e+02
      vertex -1.890140e+02 3.587571e+01 -4.683179e+02
      vertex -1.890140e+02 3.564740e+01 -4.653266e+02
    endloop
  endfacet
  facet normal -1.910221e-13 -9.971000e-01 -7.610228e-02
    outer loop
      vertex -1.887943e+02 3.568776e+01 -4.658554e+02
      vertex -1.890140e+02 3.564740e+01 -4.653266e+02
      vertex -1.890140e+02 3.587571e+01 -4.683179e+02
    endloop
  endfacet
  facet normal -2.721914e-12 7.610228e-02 -9.971000e-01
    outer loop
      vertex -1.721504e+01 3.836148e+01 -4.681282e+02
      vertex -1.890140e+02 3.587571e+01 -4.683179e+02
      vertex -1.890140e+02 3.836148e+01 -4.681282e+02
    endloop
  endfacet
  facet normal -2.722571e-12 7.610228e-02 -9.971000e-01
    outer loop
      vertex -1.721504e+01 3.836148e+01 -4.681282e+02
      vertex -1.721504e+01 3.587571e+01 -4.683179e+02
      vertex -1.890140e+02 3.587571e+01 -4.683179e+02
    endloop
  endfacet
  facet normal -2.060129e-13 -9.971000e-01 -7.610228e-02
    outer loop
      vertex -1.882640e+02 3.570448e+01 -4.660744e+02
      vertex -1.890140e+02 3.587571e+01 -4.683179e+02
      vertex -1.721504e+01 3.587571e+01 -4.683179e+02
    endloop
  endfacet
  facet normal -2.068850e-13 -9.971000e-01 -7.610228e-02
    outer loop
      vertex -1.887943e+02 3.568776e+01 -4.658554e+02
      vertex -1.890140e+02 3.587571e+01 -4.683179e+02
      vertex -1.882640e+02 3.570448e+01 -4.660744e+02
    endloop
  endfacet
  facet normal 2.064244e-13 9.971000e-01 7.610228e-02
    outer loop
      vertex -1.722050e+02 3.446881e+01 -4.171260e+02
      vertex -1.890140e+02 3.836148e+01 -4.681282e+02
      vertex -1.890140e+02 3.258909e+01 -3.924976e+02
    endloop
  endfacet
  facet normal 2.059218e-13 9.971000e-01 7.610228e-02
    outer loop
      vertex -7.496400e+01 3.469712e+01 -4.201173e+02
      vertex -1.721504e+01 3.836148e+01 -4.681282e+02
      vertex -1.890140e+02 3.836148e+01 -4.681282e+02
    endloop
  endfacet
  facet normal 2.059306e-13 9.971000e-01 7.610228e-02
    outer loop
      vertex -1.722050e+02 3.469712e+01 -4.201173e+02
      vertex -7.496400e+01 3.469712e+01 -4.201173e+02
      vertex -1.890140e+02 3.836148e+01 -4.681282e+02
    endloop
  endfacet
  facet normal 1.964571e-13 9.971000e-01 7.610228e-02
    outer loop
      vertex -1.722050e+02 3.446881e+01 -4.171260e+02
      vertex -1.722050e+02 3.469712e+01 -4.201173e+02
      vertex -1.890140e+02 3.836148e+01 -4.681282e+02
    endloop
  endfacet
  facet normal 2.723580e-12 -7.610228e-02 9.971000e-01
    outer loop
      vertex -1.179640e+02 3.039547e+01 -3.926651e+02
      vertex -1.890140e+02 3.258909e+01 -3.924976e+02
      vertex -1.890140e+02 3.039547e+01 -3.926651e+02
    endloop
  endfacet
  facet normal 2.721985e-12 -7.610228e-02 9.971000e-01
    outer loop
      vertex -1.179640e+02 3.258909e+01 -3.924976e+02
      vertex -1.890140e+02 3.258909e+01 -3.924976e+02
      vertex -1.179640e+02 3.039547e+01 -3.926651e+02
    endloop
  endfacet
  facet normal 2.059476e-13 9.971000e-01 7.610228e-02
    outer loop
      vertex -1.722050e+02 3.446881e+01 -4.171260e+02
      vertex -1.890140e+02 3.258909e+01 -3.924976e+02
      vertex -1.179640e+02 3.258909e+01 -3.924976e+02
    endloop
  endfacet
  facet normal -2.456159e-13 -9.971000e-01 -7.610228e-02
    outer loop
      vertex -1.887943e+02 3.052334e+01 -3.943405e+02
      vertex -1.890140e+02 3.039547e+01 -3.926651e+02
      vertex -1.890140e+02 3.048298e+01 -3.938117e+02
    endloop
  endfacet
  facet normal -2.060682e-13 -9.971000e-01 -7.610228e-02
    outer loop
      vertex -1.179640e+02 3.039547e+01 -3.926651e+02
      vertex -1.890140e+02 3.039547e+01 -3.926651e+02
      vertex -1.882640e+02 3.054006e+01 -3.945596e+02
    endloop
  endfacet
  facet normal -1.862460e-13 -9.971000e-01 -7.610228e-02
    outer loop
      vertex -1.887943e+02 3.052334e+01 -3.943405e+02
      vertex -1.882640e+02 3.054006e+01 -3.945596e+02
      vertex -1.890140e+02 3.039547e+01 -3.926651e+02
    endloop
  endfacet
  facet normal -9.238795e-01 2.912308e-02 -3.815737e-01
    outer loop
      vertex -1.887943e+02 3.052334e+01 -3.943405e+02
      vertex -1.890140e+02 3.048298e+01 -3.938117e+02
      vertex -1.887943e+02 3.169394e+01 -3.942512e+02
    endloop
  endfacet
  facet normal 9.696075e-01 1.861963e-02 -2.439563e-01
    outer loop
      vertex -1.504549e+01 3.770716e+01 -4.595552e+02
      vertex -1.721504e+01 3.587571e+01 -4.683179e+02
      vertex -1.721504e+01 3.836148e+01 -4.681282e+02
    endloop
  endfacet
  facet normal -2.059410e-13 -9.971000e-01 -7.610228e-02
    outer loop
      vertex -1.715365e+01 3.570448e+01 -4.660744e+02
      vertex -1.882640e+02 3.570448e+01 -4.660744e+02
      vertex -1.721504e+01 3.587571e+01 -4.683179e+02
    endloop
  endfacet
  facet normal -2.076935e-13 -9.971000e-01 -7.610228e-02
    outer loop
      vertex -1.683246e+01 3.577435e+01 -4.669899e+02
      vertex -1.715365e+01 3.570448e+01 -4.660744e+02
      vertex -1.721504e+01 3.587571e+01 -4.683179e+02
    endloop
  endfacet
  facet normal 9.547637e-01 1.354864e-01 -2.647069e-01
    outer loop
      vertex -1.504549e+01 3.770716e+01 -4.595552e+02
      vertex -1.683246e+01 3.577435e+01 -4.669899e+02
      vertex -1.721504e+01 3.587571e+01 -4.683179e+02
    endloop
  endfacet
  facet normal 2.136932e-13 9.971000e-01 7.610228e-02
    outer loop
      vertex -1.569654e+01 3.331277e+01 -4.019794e+02
      vertex -1.504549e+01 3.770716e+01 -4.595552e+02
      vertex -1.721504e+01 3.836148e+01 -4.681282e+02
    endloop
  endfacet
  facet normal 1.965143e-13 9.971000e-01 7.610228e-02
    outer loop
      vertex -1.753371e+01 3.267280e+01 -3.935945e+02
      vertex -1.569654e+01 3.331277e+01 -4.019794e+02
      vertex -1.721504e+01 3.836148e+01 -4.681282e+02
    endloop
  endfacet
  facet normal 2.061282e-13 9.971000e-01 7.610228e-02
    outer loop
      vertex -7.496400e+01 3.469712e+01 -4.201173e+02
      vertex -1.753371e+01 3.267280e+01 -3.935945e+02
      vertex -1.721504e+01 3.836148e+01 -4.681282e+02
    endloop
  endfacet
  facet normal -2.722269e-12 7.610228e-02 -9.971000e-01
    outer loop
      vertex -1.882640e+02 3.484148e+01 -4.661403e+02
      vertex -1.882640e+02 3.570448e+01 -4.660744e+02
      vertex -1.715365e+01 3.570448e+01 -4.660744e+02
    endloop
  endfacet
  facet normal -3.826834e-01 7.030934e-02 -9.212003e-01
    outer loop
      vertex -1.887943e+02 3.482476e+01 -4.659212e+02
      vertex -1.887943e+02 3.568776e+01 -4.658554e+02
      vertex -1.882640e+02 3.570448e+01 -4.660744e+02
    endloop
  endfacet
  facet normal -3.826834e-01 7.030934e-02 -9.212003e-01
    outer loop
      vertex -1.887943e+02 3.482476e+01 -4.659212e+02
      vertex -1.882640e+02 3.570448e+01 -4.660744e+02
      vertex -1.882640e+02 3.484148e+01 -4.661403e+02
    endloop
  endfacet
  facet normal -2.202429e-13 -9.971000e-01 -7.610228e-02
    outer loop
      vertex -1.683246e+01 3.577435e+01 -4.669899e+02
      vertex -1.669670e+01 3.569266e+01 -4.659195e+02
      vertex -1.715365e+01 3.570448e+01 -4.660744e+02
    endloop
  endfacet
  facet normal 3.219341e-01 7.205076e-02 -9.440165e-01
    outer loop
      vertex -1.715365e+01 3.484148e+01 -4.661403e+02
      vertex -1.715365e+01 3.570448e+01 -4.660744e+02
      vertex -1.669670e+01 3.569266e+01 -4.659195e+02
    endloop
  endfacet
  facet normal -2.722269e-12 7.610228e-02 -9.971000e-01
    outer loop
      vertex -1.715365e+01 3.484148e+01 -4.661403e+02
      vertex -1.882640e+02 3.484148e+01 -4.661403e+02
      vertex -1.715365e+01 3.570448e+01 -4.660744e+02
    endloop
  endfacet
  facet normal -2.287781e-13 -9.971000e-01 -7.610228e-02
    outer loop
      vertex -1.683246e+01 3.577435e+01 -4.669899e+02
      vertex -1.642893e+01 3.566210e+01 -4.655191e+02
      vertex -1.669670e+01 3.569266e+01 -4.659195e+02
    endloop
  endfacet
  facet normal 8.319805e-01 4.222192e-02 -5.531960e-01
    outer loop
      vertex -1.669670e+01 3.482965e+01 -4.659853e+02
      vertex -1.669670e+01 3.569266e+01 -4.659195e+02
      vertex -1.642893e+01 3.566210e+01 -4.655191e+02
    endloop
  endfacet
  facet normal 3.219341e-01 7.205076e-02 -9.440165e-01
    outer loop
      vertex -1.669670e+01 3.482965e+01 -4.659853e+02
      vertex -1.715365e+01 3.484148e+01 -4.661403e+02
      vertex -1.669670e+01 3.569266e+01 -4.659195e+02
    endloop
  endfacet
  facet normal 9.616570e-01 9.726651e-02 -2.564276e-01
    outer loop
      vertex -1.504549e+01 3.770716e+01 -4.595552e+02
      vertex -1.642893e+01 3.566210e+01 -4.655191e+02
      vertex -1.683246e+01 3.577435e+01 -4.669899e+02
    endloop
  endfacet
  facet normal 9.726305e-01 1.768291e-02 -2.316833e-01
    outer loop
      vertex -1.642893e+01 3.479910e+01 -4.655850e+02
      vertex -1.642893e+01 3.566210e+01 -4.655191e+02
      vertex -1.504549e+01 3.770716e+01 -4.595552e+02
    endloop
  endfacet
  facet normal 8.319805e-01 4.222192e-02 -5.531960e-01
    outer loop
      vertex -1.669670e+01 3.482965e+01 -4.659853e+02
      vertex -1.642893e+01 3.566210e+01 -4.655191e+02
      vertex -1.642893e+01 3.479910e+01 -4.655850e+02
    endloop
  endfacet
  facet normal -1.881670e-13 -9.976414e-01 -6.864150e-02
    outer loop
      vertex -1.605453e+01 3.460449e+01 -4.641526e+02
      vertex -1.409376e+01 3.097819e+01 -4.114477e+02
      vertex -1.633640e+01 3.012890e+01 -3.991040e+02
    endloop
  endfacet
  facet normal 9.839665e-01 -1.357310e-02 1.778361e-01
    outer loop
      vertex -1.633640e+01 3.022861e+01 -3.990964e+02
      vertex -1.633640e+01 3.012890e+01 -3.991040e+02
      vertex -1.409376e+01 3.097819e+01 -4.114477e+02
    endloop
  endfacet
  facet normal -1.855252e-13 -9.976414e-01 -6.864150e-02
    outer loop
      vertex -7.346400e+01 3.148804e+01 -4.188579e+02
      vertex -1.605453e+01 3.460449e+01 -4.641526e+02
      vertex -1.633640e+01 3.012890e+01 -3.991040e+02
    endloop
  endfacet
  facet normal -1.868994e-13 -9.976414e-01 -6.864150e-02
    outer loop
      vertex -7.346400e+01 3.148804e+01 -4.188579e+02
      vertex -1.633640e+01 3.012890e+01 -3.991040e+02
      vertex -7.496400e+01 3.138507e+01 -4.173614e+02
    endloop
  endfacet
  facet normal -1.679525e-13 -9.976414e-01 -6.864150e-02
    outer loop
      vertex -1.284400e+01 3.326976e+01 -4.447535e+02
      vertex -1.284400e+01 3.173385e+01 -4.224305e+02
      vertex -1.409376e+01 3.097819e+01 -4.114477e+02
    endloop
  endfacet
  facet normal 9.931466e-01 -3.845603e-02 1.103670e-01
    outer loop
      vertex -1.343491e+01 3.439700e+01 -4.161852e+02
      vertex -1.409376e+01 3.097819e+01 -4.114477e+02
      vertex -1.284400e+01 3.173385e+01 -4.224305e+02
    endloop
  endfacet
  facet normal -1.918108e-13 -9.976414e-01 -6.864150e-02
    outer loop
      vertex -1.408146e+01 3.395599e+01 -4.547273e+02
      vertex -1.284400e+01 3.326976e+01 -4.447535e+02
      vertex -1.409376e+01 3.097819e+01 -4.114477e+02
    endloop
  endfacet
  facet normal -1.862746e-13 -9.976414e-01 -6.864150e-02
    outer loop
      vertex -1.605453e+01 3.460449e+01 -4.641526e+02
      vertex -1.408146e+01 3.395599e+01 -4.547273e+02
      vertex -1.409376e+01 3.097819e+01 -4.114477e+02
    endloop
  endfacet
  facet normal 9.906506e-01 -1.886892e-03 1.364102e-01
    outer loop
      vertex -1.435975e+01 3.388492e+01 -4.094758e+02
      vertex -1.409376e+01 3.097819e+01 -4.114477e+02
      vertex -1.343491e+01 3.439700e+01 -4.161852e+02
    endloop
  endfacet
  facet normal 9.844568e-01 -2.758006e-02 1.734481e-01
    outer loop
      vertex -1.569654e+01 3.331277e+01 -4.019794e+02
      vertex -1.409376e+01 3.097819e+01 -4.114477e+02
      vertex -1.435975e+01 3.388492e+01 -4.094758e+02
    endloop
  endfacet
  facet normal 9.835677e-01 -3.934889e-02 1.761994e-01
    outer loop
      vertex -1.633640e+01 3.022861e+01 -3.990964e+02
      vertex -1.409376e+01 3.097819e+01 -4.114477e+02
      vertex -1.569654e+01 3.331277e+01 -4.019794e+02
    endloop
  endfacet
  facet normal 7.071068e-01 -7.054390e-01 -4.853687e-02
    outer loop
      vertex -1.239406e+01 3.296974e+01 -4.338381e+02
      vertex -1.284400e+01 3.173385e+01 -4.224305e+02
      vertex -1.284400e+01 3.326976e+01 -4.447535e+02
    endloop
  endfacet
  facet normal 9.952242e-01 -7.428787e-03 9.733274e-02
    outer loop
      vertex -1.343491e+01 3.439700e+01 -4.161852e+02
      vertex -1.284400e+01 3.173385e+01 -4.224305e+02
      vertex -1.284400e+01 3.485548e+01 -4.221922e+02
    endloop
  endfacet
  facet normal 9.992313e-01 -2.983370e-03 3.908842e-02
    outer loop
      vertex -1.239406e+01 3.296974e+01 -4.338381e+02
      vertex -1.284400e+01 3.485548e+01 -4.221922e+02
      vertex -1.284400e+01 3.173385e+01 -4.224305e+02
    endloop
  endfacet
  facet normal 9.924259e-01 9.348781e-03 -1.224887e-01
    outer loop
      vertex -1.284400e+01 3.655829e+01 -4.445025e+02
      vertex -1.284400e+01 3.326976e+01 -4.447535e+02
      vertex -1.408146e+01 3.395599e+01 -4.547273e+02
    endloop
  endfacet
  facet normal 9.991500e-01 3.137186e-03 -4.110374e-02
    outer loop
      vertex -1.239406e+01 3.527973e+01 -4.336630e+02
      vertex -1.284400e+01 3.326976e+01 -4.447535e+02
      vertex -1.284400e+01 3.655829e+01 -4.445025e+02
    endloop
  endfacet
  facet normal 9.991502e-01 3.116320e-03 -4.109996e-02
    outer loop
      vertex -1.239406e+01 3.527973e+01 -4.336630e+02
      vertex -1.239406e+01 3.296974e+01 -4.338381e+02
      vertex -1.284400e+01 3.326976e+01 -4.447535e+02
    endloop
  endfacet
  facet normal 9.785122e-01 -1.334623e-02 -2.057567e-01
    outer loop
      vertex -1.504549e+01 3.770716e+01 -4.595552e+02
      vertex -1.408146e+01 3.395599e+01 -4.547273e+02
      vertex -1.605453e+01 3.460449e+01 -4.641526e+02
    endloop
  endfacet
  facet normal 9.836397e-01 2.279591e-02 -1.786991e-01
    outer loop
      vertex -1.386633e+01 3.721655e+01 -4.531272e+02
      vertex -1.408146e+01 3.395599e+01 -4.547273e+02
      vertex -1.504549e+01 3.770716e+01 -4.595552e+02
    endloop
  endfacet
  facet normal 9.929532e-01 -7.473579e-03 -1.182711e-01
    outer loop
      vertex -1.284400e+01 3.655829e+01 -4.445025e+02
      vertex -1.408146e+01 3.395599e+01 -4.547273e+02
      vertex -1.386633e+01 3.721655e+01 -4.531272e+02
    endloop
  endfacet
  facet normal -1.855624e-13 -9.976414e-01 -6.864150e-02
    outer loop
      vertex -7.496400e+01 3.159100e+01 -4.203544e+02
      vertex -1.722050e+02 3.159100e+01 -4.203544e+02
      vertex -1.605453e+01 3.460449e+01 -4.641526e+02
    endloop
  endfacet
  facet normal -1.874559e-13 -9.976414e-01 -6.864150e-02
    outer loop
      vertex -7.346400e+01 3.148804e+01 -4.188579e+02
      vertex -7.496400e+01 3.159100e+01 -4.203544e+02
      vertex -1.605453e+01 3.460449e+01 -4.641526e+02
    endloop
  endfacet
  facet normal 9.741124e-01 1.720401e-02 -2.254087e-01
    outer loop
      vertex -1.605453e+01 3.468928e+01 -4.641461e+02
      vertex -1.504549e+01 3.770716e+01 -4.595552e+02
      vertex -1.605453e+01 3.460449e+01 -4.641526e+02
    endloop
  endfacet
  facet normal -2.722128e-12 7.610228e-02 -9.971000e-01
    outer loop
      vertex -7.496400e+01 3.446881e+01 -4.171260e+02
      vertex -7.496400e+01 3.138507e+01 -4.173614e+02
      vertex -1.722050e+02 3.138507e+01 -4.173614e+02
    endloop
  endfacet
  facet normal -7.071068e-01 5.381243e-02 -7.050562e-01
    outer loop
      vertex -7.346400e+01 3.458297e+01 -4.186217e+02
      vertex -7.346400e+01 3.148804e+01 -4.188579e+02
      vertex -7.496400e+01 3.138507e+01 -4.173614e+02
    endloop
  endfacet
  facet normal -7.071068e-01 5.381244e-02 -7.050562e-01
    outer loop
      vertex -7.346400e+01 3.458297e+01 -4.186217e+02
      vertex -7.496400e+01 3.138507e+01 -4.173614e+02
      vertex -7.496400e+01 3.446881e+01 -4.171260e+02
    endloop
  endfacet
  facet normal 1.000000e+00 5.948206e-15 -2.715457e-12
    outer loop
      vertex -1.722050e+02 3.469712e+01 -4.201173e+02
      vertex -1.722050e+02 3.138507e+01 -4.173614e+02
      vertex -1.722050e+02 3.159100e+01 -4.203544e+02
    endloop
  endfacet
  facet normal -2.722128e-12 7.610228e-02 -9.971000e-01
    outer loop
      vertex -1.722050e+02 3.446881e+01 -4.171260e+02
      vertex -7.496400e+01 3.446881e+01 -4.171260e+02
      vertex -1.722050e+02 3.138507e+01 -4.173614e+02
    endloop
  endfacet
  facet normal 1.000000e+00 -3.832075e-15 -2.727211e-12
    outer loop
      vertex -1.722050e+02 3.446881e+01 -4.171260e+02
      vertex -1.722050e+02 3.138507e+01 -4.173614e+02
      vertex -1.722050e+02 3.469712e+01 -4.201173e+02
    endloop
  endfacet
  facet normal 2.722128e-12 -7.610228e-02 9.971000e-01
    outer loop
      vertex -1.722050e+02 3.469712e+01 -4.201173e+02
      vertex -1.722050e+02 3.159100e+01 -4.203544e+02
      vertex -7.496400e+01 3.159100e+01 -4.203544e+02
    endloop
  endfacet
  facet normal -7.071068e-01 -5.381244e-02 7.050562e-01
    outer loop
      vertex -7.496400e+01 3.469712e+01 -4.201173e+02
      vertex -7.496400e+01 3.159100e+01 -4.203544e+02
      vertex -7.346400e+01 3.148804e+01 -4.188579e+02
    endloop
  endfacet
  facet normal 2.722128e-12 -7.610228e-02 9.971000e-01
    outer loop
      vertex -1.722050e+02 3.469712e+01 -4.201173e+02
      vertex -7.496400e+01 3.159100e+01 -4.203544e+02
      vertex -7.496400e+01 3.469712e+01 -4.201173e+02
    endloop
  endfacet
  facet normal -7.071068e-01 -5.381243e-02 7.050562e-01
    outer loop
      vertex -7.496400e+01 3.469712e+01 -4.201173e+02
      vertex -7.346400e+01 3.148804e+01 -4.188579e+02
      vertex -7.346400e+01 3.458297e+01 -4.186217e+02
    endloop
  endfacet
  facet normal 2.722470e-12 -7.610228e-02 9.971000e-01
    outer loop
      vertex -1.882640e+02 3.190091e+01 -3.969630e+02
      vertex -1.882640e+02 3.007640e+01 -3.971022e+02
      vertex -1.737468e+01 3.007640e+01 -3.971022e+02
    endloop
  endfacet
  facet normal -2.059956e-13 -9.971000e-01 -7.610228e-02
    outer loop
      vertex -1.633640e+01 3.022861e+01 -3.990964e+02
      vertex -1.737468e+01 3.007640e+01 -3.971022e+02
      vertex -1.882640e+02 3.007640e+01 -3.971022e+02
    endloop
  endfacet
  facet normal 2.722470e-12 -7.610228e-02 9.971000e-01
    outer loop
      vertex -1.737468e+01 3.190091e+01 -3.969630e+02
      vertex -1.882640e+02 3.190091e+01 -3.969630e+02
      vertex -1.737468e+01 3.007640e+01 -3.971022e+02
    endloop
  endfacet
  facet normal 3.321065e-01 -7.178286e-02 9.405065e-01
    outer loop
      vertex -1.690480e+01 3.008899e+01 -3.972672e+02
      vertex -1.737468e+01 3.190091e+01 -3.969630e+02
      vertex -1.737468e+01 3.007640e+01 -3.971022e+02
    endloop
  endfacet
  facet normal -1.912502e-13 -9.971000e-01 -7.610228e-02
    outer loop
      vertex -1.690480e+01 3.008899e+01 -3.972672e+02
      vertex -1.737468e+01 3.007640e+01 -3.971022e+02
      vertex -1.633640e+01 3.022861e+01 -3.990964e+02
    endloop
  endfacet
  facet normal -3.826834e-01 -7.030934e-02 9.212003e-01
    outer loop
      vertex -1.887943e+02 3.191763e+01 -3.971820e+02
      vertex -1.882640e+02 3.007640e+01 -3.971022e+02
      vertex -1.882640e+02 3.190091e+01 -3.969630e+02
    endloop
  endfacet
  facet normal -3.826834e-01 -7.030934e-02 9.212003e-01
    outer loop
      vertex -1.887943e+02 3.009312e+01 -3.973212e+02
      vertex -1.882640e+02 3.007640e+01 -3.971022e+02
      vertex -1.887943e+02 3.191763e+01 -3.971820e+02
    endloop
  endfacet
  facet normal -2.062779e-13 -9.971000e-01 -7.610228e-02
    outer loop
      vertex -1.887943e+02 3.009312e+01 -3.973212e+02
      vertex -1.633640e+01 3.022861e+01 -3.990964e+02
      vertex -1.882640e+02 3.007640e+01 -3.971022e+02
    endloop
  endfacet
  facet normal -2.059957e-13 -9.971000e-01 -7.610228e-02
    outer loop
      vertex -1.882640e+02 3.171066e+01 -3.944702e+02
      vertex -1.882640e+02 3.190091e+01 -3.969630e+02
      vertex -1.737468e+01 3.190091e+01 -3.969630e+02
    endloop
  endfacet
  facet normal -1.890944e-13 -9.971000e-01 -7.610228e-02
    outer loop
      vertex -1.887943e+02 3.169394e+01 -3.942512e+02
      vertex -1.887943e+02 3.191763e+01 -3.971820e+02
      vertex -1.882640e+02 3.190091e+01 -3.969630e+02
    endloop
  endfacet
  facet normal -2.068440e-13 -9.971000e-01 -7.610228e-02
    outer loop
      vertex -1.882640e+02 3.171066e+01 -3.944702e+02
      vertex -1.887943e+02 3.169394e+01 -3.942512e+02
      vertex -1.882640e+02 3.190091e+01 -3.969630e+02
    endloop
  endfacet
  facet normal -2.060264e-13 -9.971000e-01 -7.610228e-02
    outer loop
      vertex -1.828205e+01 3.171066e+01 -3.944702e+02
      vertex -1.882640e+02 3.171066e+01 -3.944702e+02
      vertex -1.737468e+01 3.190091e+01 -3.969630e+02
    endloop
  endfacet
  facet normal -1.877321e-13 -9.971000e-01 -7.610228e-02
    outer loop
      vertex -1.773436e+01 3.169257e+01 -3.942332e+02
      vertex -1.828205e+01 3.171066e+01 -3.944702e+02
      vertex -1.737468e+01 3.190091e+01 -3.969630e+02
    endloop
  endfacet
  facet normal -2.251658e-13 -9.971000e-01 -7.610228e-02
    outer loop
      vertex -1.753371e+01 3.164977e+01 -3.936725e+02
      vertex -1.773436e+01 3.169257e+01 -3.942332e+02
      vertex -1.737468e+01 3.190091e+01 -3.969630e+02
    endloop
  endfacet
  facet normal -1.909747e-13 -9.971000e-01 -7.610228e-02
    outer loop
      vertex -1.707612e+01 3.179875e+01 -3.956245e+02
      vertex -1.753371e+01 3.164977e+01 -3.936725e+02
      vertex -1.737468e+01 3.190091e+01 -3.969630e+02
    endloop
  endfacet
  facet normal -2.096042e-13 -9.971000e-01 -7.610228e-02
    outer loop
      vertex -1.690480e+01 3.191350e+01 -3.971279e+02
      vertex -1.707612e+01 3.179875e+01 -3.956245e+02
      vertex -1.737468e+01 3.190091e+01 -3.969630e+02
    endloop
  endfacet
  facet normal 3.321065e-01 -7.178286e-02 9.405065e-01
    outer loop
      vertex -1.690480e+01 3.008899e+01 -3.972672e+02
      vertex -1.690480e+01 3.191350e+01 -3.971279e+02
      vertex -1.737468e+01 3.190091e+01 -3.969630e+02
    endloop
  endfacet
  facet normal -3.826834e-01 7.030934e-02 -9.212003e-01
    outer loop
      vertex -1.887943e+02 3.052334e+01 -3.943405e+02
      vertex -1.887943e+02 3.169394e+01 -3.942512e+02
      vertex -1.882640e+02 3.171066e+01 -3.944702e+02
    endloop
  endfacet
  facet normal -2.722998e-12 7.610228e-02 -9.971000e-01
    outer loop
      vertex -1.882640e+02 3.054006e+01 -3.945596e+02
      vertex -1.882640e+02 3.171066e+01 -3.944702e+02
      vertex -1.828205e+01 3.171066e+01 -3.944702e+02
    endloop
  endfacet
  facet normal -3.826834e-01 7.030934e-02 -9.212003e-01
    outer loop
      vertex -1.887943e+02 3.052334e+01 -3.943405e+02
      vertex -1.882640e+02 3.171066e+01 -3.944702e+02
      vertex -1.882640e+02 3.054006e+01 -3.945596e+02
    endloop
  endfacet
  facet normal 3.981128e-01 6.981140e-02 -9.146762e-01
    outer loop
      vertex -1.828205e+01 3.054006e+01 -3.945596e+02
      vertex -1.828205e+01 3.171066e+01 -3.944702e+02
      vertex -1.773436e+01 3.169257e+01 -3.942332e+02
    endloop
  endfacet
  facet normal -2.722998e-12 7.610228e-02 -9.971000e-01
    outer loop
      vertex -1.828205e+01 3.054006e+01 -3.945596e+02
      vertex -1.882640e+02 3.054006e+01 -3.945596e+02
      vertex -1.828205e+01 3.171066e+01 -3.944702e+02
    endloop
  endfacet
  facet normal 9.418365e-01 2.557580e-02 -3.350967e-01
    outer loop
      vertex -1.773436e+01 3.052197e+01 -3.943226e+02
      vertex -1.773436e+01 3.169257e+01 -3.942332e+02
      vertex -1.753371e+01 3.164977e+01 -3.936725e+02
    endloop
  endfacet
  facet normal 3.981128e-01 6.981140e-02 -9.146762e-01
    outer loop
      vertex -1.773436e+01 3.052197e+01 -3.943226e+02
      vertex -1.828205e+01 3.054006e+01 -3.945596e+02
      vertex -1.773436e+01 3.169257e+01 -3.942332e+02
    endloop
  endfacet
  facet normal 9.737517e-01 -1.732186e-02 2.269529e-01
    outer loop
      vertex -1.753371e+01 3.267280e+01 -3.935945e+02
      vertex -1.753371e+01 3.164977e+01 -3.936725e+02
      vertex -1.707612e+01 3.179875e+01 -3.956245e+02
    endloop
  endfacet
  facet normal 9.418365e-01 2.557580e-02 -3.350967e-01
    outer loop
      vertex -1.773436e+01 3.052197e+01 -3.943226e+02
      vertex -1.753371e+01 3.164977e+01 -3.936725e+02
      vertex -1.753371e+01 3.047918e+01 -3.937619e+02
    endloop
  endfacet
  facet normal 2.725225e-12 -7.610228e-02 9.971000e-01
    outer loop
      vertex -1.178140e+02 3.267280e+01 -3.935945e+02
      vertex -1.753371e+01 3.047918e+01 -3.937619e+02
      vertex -1.753371e+01 3.164977e+01 -3.936725e+02
    endloop
  endfacet
  facet normal 2.723276e-12 -7.610228e-02 9.971000e-01
    outer loop
      vertex -1.178140e+02 3.267280e+01 -3.935945e+02
      vertex -1.753371e+01 3.164977e+01 -3.936725e+02
      vertex -1.753371e+01 3.267280e+01 -3.935945e+02
    endloop
  endfacet
  facet normal -1.460317e-13 -9.971000e-01 -7.610228e-02
    outer loop
      vertex -1.690480e+01 3.191350e+01 -3.971279e+02
      vertex -1.664222e+01 3.194572e+01 -3.975500e+02
      vertex -1.707612e+01 3.179875e+01 -3.956245e+02
    endloop
  endfacet
  facet normal 9.755363e-01 1.360529e-04 2.198385e-01
    outer loop
      vertex -1.753371e+01 3.267280e+01 -3.935945e+02
      vertex -1.707612e+01 3.179875e+01 -3.956245e+02
      vertex -1.664222e+01 3.194572e+01 -3.975500e+02
    endloop
  endfacet
  facet normal 8.498012e-01 -4.011377e-02 5.255748e-01
    outer loop
      vertex -1.664222e+01 3.012121e+01 -3.976893e+02
      vertex -1.664222e+01 3.194572e+01 -3.975500e+02
      vertex -1.690480e+01 3.191350e+01 -3.971279e+02
    endloop
  endfacet
  facet normal 9.761800e-01 2.354320e-02 2.156811e-01
    outer loop
      vertex -1.753371e+01 3.267280e+01 -3.935945e+02
      vertex -1.664222e+01 3.194572e+01 -3.975500e+02
      vertex -1.569654e+01 3.331277e+01 -4.019794e+02
    endloop
  endfacet
  facet normal 9.785805e-01 -1.085147e-02 2.055783e-01
    outer loop
      vertex -1.633640e+01 3.022861e+01 -3.990964e+02
      vertex -1.569654e+01 3.331277e+01 -4.019794e+02
      vertex -1.664222e+01 3.194572e+01 -3.975500e+02
    endloop
  endfacet
  facet normal 9.776596e-01 -1.470879e-02 2.096794e-01
    outer loop
      vertex -1.648744e+01 3.017514e+01 -3.983959e+02
      vertex -1.633640e+01 3.022861e+01 -3.990964e+02
      vertex -1.664222e+01 3.194572e+01 -3.975500e+02
    endloop
  endfacet
  facet normal 9.769707e-01 -1.623820e-02 2.127546e-01
    outer loop
      vertex -1.664222e+01 3.012121e+01 -3.976893e+02
      vertex -1.648744e+01 3.017514e+01 -3.983959e+02
      vertex -1.664222e+01 3.194572e+01 -3.975500e+02
    endloop
  endfacet
  facet normal 8.498012e-01 -4.011377e-02 5.255748e-01
    outer loop
      vertex -1.690480e+01 3.008899e+01 -3.972672e+02
      vertex -1.664222e+01 3.012121e+01 -3.976893e+02
      vertex -1.690480e+01 3.191350e+01 -3.971279e+02
    endloop
  endfacet
  facet normal -2.060264e-13 -9.971000e-01 -7.610228e-02
    outer loop
      vertex -1.178140e+02 3.047918e+01 -3.937619e+02
      vertex -1.882640e+02 3.054006e+01 -3.945596e+02
      vertex -1.828205e+01 3.054006e+01 -3.945596e+02
    endloop
  endfacet
  facet normal -2.059858e-13 -9.971000e-01 -7.610228e-02
    outer loop
      vertex -1.179140e+02 3.047157e+01 -3.936622e+02
      vertex -1.179640e+02 3.039547e+01 -3.926651e+02
      vertex -1.882640e+02 3.054006e+01 -3.945596e+02
    endloop
  endfacet
  facet normal -2.065164e-13 -9.971000e-01 -7.610228e-02
    outer loop
      vertex -1.178847e+02 3.047695e+01 -3.937327e+02
      vertex -1.179140e+02 3.047157e+01 -3.936622e+02
      vertex -1.882640e+02 3.054006e+01 -3.945596e+02
    endloop
  endfacet
  facet normal -2.061381e-13 -9.971000e-01 -7.610228e-02
    outer loop
      vertex -1.178140e+02 3.047918e+01 -3.937619e+02
      vertex -1.178847e+02 3.047695e+01 -3.937327e+02
      vertex -1.882640e+02 3.054006e+01 -3.945596e+02
    endloop
  endfacet
  facet normal -2.055979e-13 -9.971000e-01 -7.610228e-02
    outer loop
      vertex -1.773436e+01 3.052197e+01 -3.943226e+02
      vertex -1.178140e+02 3.047918e+01 -3.937619e+02
      vertex -1.828205e+01 3.054006e+01 -3.945596e+02
    endloop
  endfacet
  facet normal -7.420964e-14 -9.971000e-01 -7.610228e-02
    outer loop
      vertex -1.179140e+02 3.047157e+01 -3.936622e+02
      vertex -1.179140e+02 3.039927e+01 -3.927149e+02
      vertex -1.179640e+02 3.039547e+01 -3.926651e+02
    endloop
  endfacet
  facet normal 7.071068e-01 -5.381244e-02 7.050562e-01
    outer loop
      vertex -1.179140e+02 3.259289e+01 -3.925475e+02
      vertex -1.179640e+02 3.039547e+01 -3.926651e+02
      vertex -1.179140e+02 3.039927e+01 -3.927149e+02
    endloop
  endfacet
  facet normal 7.071068e-01 -5.381244e-02 7.050562e-01
    outer loop
      vertex -1.179140e+02 3.259289e+01 -3.925475e+02
      vertex -1.179640e+02 3.258909e+01 -3.924976e+02
      vertex -1.179640e+02 3.039547e+01 -3.926651e+02
    endloop
  endfacet
  facet normal 1.000000e+00 1.084608e-15 -2.730336e-12
    outer loop
      vertex -1.179140e+02 3.266519e+01 -3.934947e+02
      vertex -1.179140e+02 3.039927e+01 -3.927149e+02
      vertex -1.179140e+02 3.047157e+01 -3.936622e+02
    endloop
  endfacet
  facet normal 1.000000e+00 1.084608e-15 -2.730336e-12
    outer loop
      vertex -1.179140e+02 3.259289e+01 -3.925475e+02
      vertex -1.179140e+02 3.039927e+01 -3.927149e+02
      vertex -1.179140e+02 3.266519e+01 -3.934947e+02
    endloop
  endfacet
  facet normal 9.238795e-01 -2.912308e-02 3.815737e-01
    outer loop
      vertex -1.179140e+02 3.266519e+01 -3.934947e+02
      vertex -1.179140e+02 3.047157e+01 -3.936622e+02
      vertex -1.178847e+02 3.047695e+01 -3.937327e+02
    endloop
  endfacet
  facet normal 3.826834e-01 -7.030934e-02 9.212003e-01
    outer loop
      vertex -1.178847e+02 3.267057e+01 -3.935652e+02
      vertex -1.178847e+02 3.047695e+01 -3.937327e+02
      vertex -1.178140e+02 3.047918e+01 -3.937619e+02
    endloop
  endfacet
  facet normal 9.238795e-01 -2.912308e-02 3.815737e-01
    outer loop
      vertex -1.179140e+02 3.266519e+01 -3.934947e+02
      vertex -1.178847e+02 3.047695e+01 -3.937327e+02
      vertex -1.178847e+02 3.267057e+01 -3.935652e+02
    endloop
  endfacet
  facet normal -2.059875e-13 -9.971000e-01 -7.610228e-02
    outer loop
      vertex -1.773436e+01 3.052197e+01 -3.943226e+02
      vertex -1.753371e+01 3.047918e+01 -3.937619e+02
      vertex -1.178140e+02 3.047918e+01 -3.937619e+02
    endloop
  endfacet
  facet normal 2.722145e-12 -7.610228e-02 9.971000e-01
    outer loop
      vertex -1.178140e+02 3.267280e+01 -3.935945e+02
      vertex -1.178140e+02 3.047918e+01 -3.937619e+02
      vertex -1.753371e+01 3.047918e+01 -3.937619e+02
    endloop
  endfacet
  facet normal 3.826834e-01 -7.030934e-02 9.212003e-01
    outer loop
      vertex -1.178847e+02 3.267057e+01 -3.935652e+02
      vertex -1.178140e+02 3.047918e+01 -3.937619e+02
      vertex -1.178140e+02 3.267280e+01 -3.935945e+02
    endloop
  endfacet
  facet normal 2.556265e-13 9.971000e-01 7.610228e-02
    outer loop
      vertex -1.722050e+02 3.446881e+01 -4.171260e+02
      vertex -1.179640e+02 3.258909e+01 -3.924976e+02
      vertex -1.179140e+02 3.259289e+01 -3.925475e+02
    endloop
  endfacet
  facet normal 2.079662e-13 9.971000e-01 7.610228e-02
    outer loop
      vertex -1.435975e+01 3.388492e+01 -4.094758e+02
      vertex -1.386633e+01 3.721655e+01 -4.531272e+02
      vertex -1.504549e+01 3.770716e+01 -4.595552e+02
    endloop
  endfacet
  facet normal 2.105216e-13 9.971000e-01 7.610228e-02
    outer loop
      vertex -1.569654e+01 3.331277e+01 -4.019794e+02
      vertex -1.435975e+01 3.388492e+01 -4.094758e+02
      vertex -1.504549e+01 3.770716e+01 -4.595552e+02
    endloop
  endfacet
  facet normal 9.663315e-01 5.938916e-02 -2.503524e-01
    outer loop
      vertex -1.624348e+01 3.474543e+01 -4.648819e+02
      vertex -1.642893e+01 3.479910e+01 -4.655850e+02
      vertex -1.504549e+01 3.770716e+01 -4.595552e+02
    endloop
  endfacet
  facet normal 9.683053e-01 4.886286e-02 -2.449435e-01
    outer loop
      vertex -1.605453e+01 3.468928e+01 -4.641461e+02
      vertex -1.624348e+01 3.474543e+01 -4.648819e+02
      vertex -1.504549e+01 3.770716e+01 -4.595552e+02
    endloop
  endfacet
  facet normal 2.053214e-13 9.971000e-01 7.610228e-02
    outer loop
      vertex -1.284400e+01 3.485548e+01 -4.221922e+02
      vertex -1.284400e+01 3.655829e+01 -4.445025e+02
      vertex -1.386633e+01 3.721655e+01 -4.531272e+02
    endloop
  endfacet
  facet normal 1.988717e-13 9.971000e-01 7.610228e-02
    outer loop
      vertex -1.343491e+01 3.439700e+01 -4.161852e+02
      vertex -1.284400e+01 3.485548e+01 -4.221922e+02
      vertex -1.386633e+01 3.721655e+01 -4.531272e+02
    endloop
  endfacet
  facet normal 2.104804e-13 9.971000e-01 7.610228e-02
    outer loop
      vertex -1.435975e+01 3.388492e+01 -4.094758e+02
      vertex -1.343491e+01 3.439700e+01 -4.161852e+02
      vertex -1.386633e+01 3.721655e+01 -4.531272e+02
    endloop
  endfacet
  facet normal 7.071068e-01 7.050562e-01 5.381244e-02
    outer loop
      vertex -1.239406e+01 3.527973e+01 -4.336630e+02
      vertex -1.284400e+01 3.655829e+01 -4.445025e+02
      vertex -1.284400e+01 3.485548e+01 -4.221922e+02
    endloop
  endfacet
  facet normal 9.992315e-01 -2.962615e-03 3.908507e-02
    outer loop
      vertex -1.239406e+01 3.527973e+01 -4.336630e+02
      vertex -1.284400e+01 3.485548e+01 -4.221922e+02
      vertex -1.239406e+01 3.296974e+01 -4.338381e+02
    endloop
  endfacet
  facet normal 2.060729e-13 9.971000e-01 7.610228e-02
    outer loop
      vertex -7.496400e+01 3.446881e+01 -4.171260e+02
      vertex -1.178140e+02 3.267280e+01 -3.935945e+02
      vertex -1.753371e+01 3.267280e+01 -3.935945e+02
    endloop
  endfacet
  facet normal 2.051912e-13 9.971000e-01 7.610228e-02
    outer loop
      vertex -7.346400e+01 3.458297e+01 -4.186217e+02
      vertex -7.496400e+01 3.446881e+01 -4.171260e+02
      vertex -1.753371e+01 3.267280e+01 -3.935945e+02
    endloop
  endfacet
  facet normal 2.033409e-13 9.971000e-01 7.610228e-02
    outer loop
      vertex -7.496400e+01 3.469712e+01 -4.201173e+02
      vertex -7.346400e+01 3.458297e+01 -4.186217e+02
      vertex -1.753371e+01 3.267280e+01 -3.935945e+02
    endloop
  endfacet
  facet normal 1.960510e-13 9.971000e-01 7.610228e-02
    outer loop
      vertex -1.722050e+02 3.446881e+01 -4.171260e+02
      vertex -1.178847e+02 3.267057e+01 -3.935652e+02
      vertex -1.178140e+02 3.267280e+01 -3.935945e+02
    endloop
  endfacet
  facet normal 2.059306e-13 9.971000e-01 7.610228e-02
    outer loop
      vertex -1.722050e+02 3.446881e+01 -4.171260e+02
      vertex -1.178140e+02 3.267280e+01 -3.935945e+02
      vertex -7.496400e+01 3.446881e+01 -4.171260e+02
    endloop
  endfacet
  facet normal 1.739870e-13 9.971000e-01 7.610228e-02
    outer loop
      vertex -1.722050e+02 3.446881e+01 -4.171260e+02
      vertex -1.179140e+02 3.266519e+01 -3.934947e+02
      vertex -1.178847e+02 3.267057e+01 -3.935652e+02
    endloop
  endfacet
  facet normal 2.059586e-13 9.971000e-01 7.610228e-02
    outer loop
      vertex -1.722050e+02 3.446881e+01 -4.171260e+02
      vertex -1.179140e+02 3.259289e+01 -3.925475e+02
      vertex -1.179140e+02 3.266519e+01 -3.934947e+02
    endloop
  endfacet
  facet normal 1.079210e-12 -9.971000e-01 -7.610228e-02
    outer loop
      vertex -1.664222e+01 3.012121e+01 -3.976893e+02
      vertex -1.633640e+01 3.022861e+01 -3.990964e+02
      vertex -1.648744e+01 3.017514e+01 -3.983959e+02
    endloop
  endfacet
  facet normal -2.444338e-13 -9.971000e-01 -7.610228e-02
    outer loop
      vertex -1.690480e+01 3.008899e+01 -3.972672e+02
      vertex -1.633640e+01 3.022861e+01 -3.990964e+02
      vertex -1.664222e+01 3.012121e+01 -3.976893e+02
    endloop
  endfacet
endsolid P1040852002
