solid P1040852002
  facet normal 1.000000e+00 -2.862500e-13 -1.041566e-13
    outer loop
      vertex 2.724500e+02 -5.165461e+01 -4.680054e+02
      vertex 2.724500e+02 -3.985988e+01 -3.994568e+02
      vertex 2.724500e+02 -3.971592e+01 -3.982152e+02
    endloop
  endfacet
  facet normal 8.876878e-13 9.933442e-01 -1.151834e-01
    outer loop
      vertex 9.975111e+01 -3.985988e+01 -3.994568e+02
      vertex 2.724500e+02 -3.971592e+01 -3.982152e+02
      vertex 2.724500e+02 -3.985988e+01 -3.994568e+02
    endloop
  endfacet
  facet normal 1.000000e+00 -9.008759e-13 9.846135e-16
    outer loop
      vertex 2.724500e+02 -4.249187e+01 -3.978933e+02
      vertex 2.724500e+02 -5.165461e+01 -4.680054e+02
      vertex 2.724500e+02 -3.971592e+01 -3.982152e+02
    endloop
  endfacet
  facet normal 9.238695e-01 4.408157e-02 3.801604e-01
    outer loop
      vertex 2.722303e+02 -3.965483e+01 -3.976884e+02
      vertex 2.724500e+02 -4.249187e+01 -3.978933e+02
      vertex 2.724500e+02 -3.971592e+01 -3.982152e+02
    endloop
  endfacet
  facet normal 8.879417e-13 9.933442e-01 -1.151834e-01
    outer loop
      vertex 2.722303e+02 -3.965483e+01 -3.976884e+02
      vertex 2.724500e+02 -3.971592e+01 -3.982152e+02
      vertex 9.975111e+01 -3.985988e+01 -3.994568e+02
    endloop
  endfacet
  facet normal 1.000000e+00 -1.139539e-12 4.266333e-14
    outer loop
      vertex 2.724500e+02 -5.165461e+01 -4.680054e+02
      vertex 2.724500e+02 -3.976055e+01 -3.994683e+02
      vertex 2.724500e+02 -3.985988e+01 -3.994568e+02
    endloop
  endfacet
  facet normal 1.029320e-13 1.151834e-01 9.933442e-01
    outer loop
      vertex 9.975111e+01 -3.976055e+01 -3.994683e+02
      vertex 2.724500e+02 -3.985988e+01 -3.994568e+02
      vertex 2.724500e+02 -3.976055e+01 -3.994683e+02
    endloop
  endfacet
  facet normal 1.029320e-13 1.151834e-01 9.933442e-01
    outer loop
      vertex 9.975111e+01 -3.985988e+01 -3.994568e+02
      vertex 2.724500e+02 -3.985988e+01 -3.994568e+02
      vertex 9.975111e+01 -3.976055e+01 -3.994683e+02
    endloop
  endfacet
  facet normal 1.000000e+00 -1.416459e-12 5.553774e-14
    outer loop
      vertex 2.724500e+02 -4.671688e+01 -4.642995e+02
      vertex 2.724500e+02 -4.663698e+01 -4.643087e+02
      vertex 2.724500e+02 -3.976055e+01 -3.994683e+02
    endloop
  endfacet
  facet normal 8.884387e-13 9.944235e-01 -1.054602e-01
    outer loop
      vertex 2.556410e+02 -4.537131e+01 -4.523743e+02
      vertex 2.724500e+02 -3.976055e+01 -3.994683e+02
      vertex 2.724500e+02 -4.663698e+01 -4.643087e+02
    endloop
  endfacet
  facet normal 1.000000e+00 -8.853393e-13 -1.450931e-15
    outer loop
      vertex 2.724500e+02 -5.165461e+01 -4.680054e+02
      vertex 2.724500e+02 -4.671688e+01 -4.642995e+02
      vertex 2.724500e+02 -3.976055e+01 -3.994683e+02
    endloop
  endfacet
  facet normal 8.886477e-13 9.944235e-01 -1.054602e-01
    outer loop
      vertex 1.584000e+02 -4.505491e+01 -4.493908e+02
      vertex 9.975111e+01 -3.976055e+01 -3.994683e+02
      vertex 2.724500e+02 -3.976055e+01 -3.994683e+02
    endloop
  endfacet
  facet normal 8.886661e-13 9.944235e-01 -1.054602e-01
    outer loop
      vertex 2.556410e+02 -4.505491e+01 -4.493908e+02
      vertex 1.584000e+02 -4.505491e+01 -4.493908e+02
      vertex 2.724500e+02 -3.976055e+01 -3.994683e+02
    endloop
  endfacet
  facet normal 8.971710e-13 9.944235e-01 -1.054602e-01
    outer loop
      vertex 2.556410e+02 -4.537131e+01 -4.523743e+02
      vertex 2.556410e+02 -4.505491e+01 -4.493908e+02
      vertex 2.724500e+02 -3.976055e+01 -3.994683e+02
    endloop
  endfacet
  facet normal -1.029292e-13 -1.151834e-01 -9.933442e-01
    outer loop
      vertex 9.951590e+01 -4.671688e+01 -4.642995e+02
      vertex 2.724500e+02 -4.663698e+01 -4.643087e+02
      vertex 2.724500e+02 -4.671688e+01 -4.642995e+02
    endloop
  endfacet
  facet normal 8.886690e-13 9.944235e-01 -1.054602e-01
    outer loop
      vertex 2.556410e+02 -4.537131e+01 -4.523743e+02
      vertex 2.724500e+02 -4.663698e+01 -4.643087e+02
      vertex 9.951590e+01 -4.663698e+01 -4.643087e+02
    endloop
  endfacet
  facet normal -1.029340e-13 -1.151834e-01 -9.933442e-01
    outer loop
      vertex 9.951590e+01 -4.671688e+01 -4.642995e+02
      vertex 9.951590e+01 -4.663698e+01 -4.643087e+02
      vertex 2.724500e+02 -4.663698e+01 -4.643087e+02
    endloop
  endfacet
  facet normal 1.000000e+00 -8.532339e-13 7.378029e-15
    outer loop
      vertex 2.724500e+02 -4.779262e+01 -4.654331e+02
      vertex 2.724500e+02 -4.686086e+01 -4.655412e+02
      vertex 2.724500e+02 -4.671688e+01 -4.642995e+02
    endloop
  endfacet
  facet normal 9.129666e-13 9.933442e-01 -1.151834e-01
    outer loop
      vertex 2.722303e+02 -4.692194e+01 -4.660679e+02
      vertex 2.724500e+02 -4.671688e+01 -4.642995e+02
      vertex 2.724500e+02 -4.686086e+01 -4.655412e+02
    endloop
  endfacet
  facet normal 1.000000e+00 -9.878130e-13 1.350840e-13
    outer loop
      vertex 2.724500e+02 -5.165461e+01 -4.680054e+02
      vertex 2.724500e+02 -4.779262e+01 -4.654331e+02
      vertex 2.724500e+02 -4.671688e+01 -4.642995e+02
    endloop
  endfacet
  facet normal 8.877295e-13 9.933442e-01 -1.151834e-01
    outer loop
      vertex 1.006164e+02 -4.694724e+01 -4.662862e+02
      vertex 2.724500e+02 -4.671688e+01 -4.642995e+02
      vertex 2.717000e+02 -4.694724e+01 -4.662862e+02
    endloop
  endfacet
  facet normal 8.847849e-13 9.933442e-01 -1.151834e-01
    outer loop
      vertex 2.722303e+02 -4.692194e+01 -4.660679e+02
      vertex 2.717000e+02 -4.694724e+01 -4.662862e+02
      vertex 2.724500e+02 -4.671688e+01 -4.642995e+02
    endloop
  endfacet
  facet normal 8.868956e-13 9.933442e-01 -1.151834e-01
    outer loop
      vertex 1.001597e+02 -4.692938e+01 -4.661321e+02
      vertex 2.724500e+02 -4.671688e+01 -4.642995e+02
      vertex 1.006164e+02 -4.694724e+01 -4.662862e+02
    endloop
  endfacet
  facet normal 8.875655e-13 9.933442e-01 -1.151834e-01
    outer loop
      vertex 9.970358e+01 -4.680099e+01 -4.650249e+02
      vertex 2.724500e+02 -4.671688e+01 -4.642995e+02
      vertex 9.989188e+01 -4.688317e+01 -4.657336e+02
    endloop
  endfacet
  facet normal 8.877689e-13 9.933442e-01 -1.151834e-01
    outer loop
      vertex 1.001597e+02 -4.692938e+01 -4.661321e+02
      vertex 9.989188e+01 -4.688317e+01 -4.657336e+02
      vertex 2.724500e+02 -4.671688e+01 -4.642995e+02
    endloop
  endfacet
  facet normal 8.876641e-13 9.933442e-01 -1.151834e-01
    outer loop
      vertex 9.951590e+01 -4.671688e+01 -4.642995e+02
      vertex 2.724500e+02 -4.671688e+01 -4.642995e+02
      vertex 9.970358e+01 -4.680099e+01 -4.650249e+02
    endloop
  endfacet
  facet normal 9.238695e-01 -4.408157e-02 -3.801604e-01
    outer loop
      vertex 2.722303e+02 -4.785370e+01 -4.659599e+02
      vertex 2.724500e+02 -4.686086e+01 -4.655412e+02
      vertex 2.724500e+02 -4.779262e+01 -4.654331e+02
    endloop
  endfacet
  facet normal 9.238695e-01 -4.408157e-02 -3.801604e-01
    outer loop
      vertex 2.722303e+02 -4.692194e+01 -4.660679e+02
      vertex 2.724500e+02 -4.686086e+01 -4.655412e+02
      vertex 2.722303e+02 -4.785370e+01 -4.659599e+02
    endloop
  endfacet
  facet normal 1.000000e+00 -8.903772e-13 -1.120473e-14
    outer loop
      vertex 2.724500e+02 -5.165461e+01 -4.680054e+02
      vertex 2.724500e+02 -4.813817e+01 -4.684131e+02
      vertex 2.724500e+02 -4.779262e+01 -4.654331e+02
    endloop
  endfacet
  facet normal 8.585120e-13 9.933442e-01 -1.151834e-01
    outer loop
      vertex 2.722303e+02 -4.785370e+01 -4.659599e+02
      vertex 2.724500e+02 -4.779262e+01 -4.654331e+02
      vertex 2.724500e+02 -4.813817e+01 -4.684131e+02
    endloop
  endfacet
  facet normal -1.029316e-13 -1.151834e-01 -9.933442e-01
    outer loop
      vertex 1.006807e+02 -5.165461e+01 -4.680054e+02
      vertex 2.724500e+02 -4.813817e+01 -4.684131e+02
      vertex 2.724500e+02 -5.165461e+01 -4.680054e+02
    endloop
  endfacet
  facet normal -1.029318e-13 -1.151834e-01 -9.933442e-01
    outer loop
      vertex 1.006807e+02 -5.165461e+01 -4.680054e+02
      vertex 1.006807e+02 -4.813817e+01 -4.684131e+02
      vertex 2.724500e+02 -4.813817e+01 -4.684131e+02
    endloop
  endfacet
  facet normal 8.876844e-13 9.933442e-01 -1.151834e-01
    outer loop
      vertex 2.717000e+02 -4.787901e+01 -4.661781e+02
      vertex 2.724500e+02 -4.813817e+01 -4.684131e+02
      vertex 1.006807e+02 -4.813817e+01 -4.684131e+02
    endloop
  endfacet
  facet normal 8.959290e-13 9.933442e-01 -1.151834e-01
    outer loop
      vertex 2.722303e+02 -4.785370e+01 -4.659599e+02
      vertex 2.724500e+02 -4.813817e+01 -4.684131e+02
      vertex 2.717000e+02 -4.787901e+01 -4.661781e+02
    endloop
  endfacet
  facet normal 1.000000e+00 -8.966162e-13 6.101153e-16
    outer loop
      vertex 2.724500e+02 -4.203114e+01 -3.939199e+02
      vertex 2.724500e+02 -4.291785e+01 -3.926594e+02
      vertex 2.724500e+02 -5.165461e+01 -4.680054e+02
    endloop
  endfacet
  facet normal -8.879440e-13 -9.933442e-01 1.151834e-01
    outer loop
      vertex 2.556410e+02 -4.943723e+01 -4.488827e+02
      vertex 2.724500e+02 -5.165461e+01 -4.680054e+02
      vertex 2.724500e+02 -4.291785e+01 -3.926594e+02
    endloop
  endfacet
  facet normal 1.000000e+00 -1.127197e-12 3.056177e-14
    outer loop
      vertex 2.724500e+02 -4.249187e+01 -3.978933e+02
      vertex 2.724500e+02 -4.203114e+01 -3.939199e+02
      vertex 2.724500e+02 -5.165461e+01 -4.680054e+02
    endloop
  endfacet
  facet normal -8.876843e-13 -9.933442e-01 1.151834e-01
    outer loop
      vertex 1.584000e+02 -4.978278e+01 -4.518627e+02
      vertex 1.006807e+02 -5.165461e+01 -4.680054e+02
      vertex 2.724500e+02 -5.165461e+01 -4.680054e+02
    endloop
  endfacet
  facet normal -8.877016e-13 -9.933442e-01 1.151834e-01
    outer loop
      vertex 2.556410e+02 -4.978278e+01 -4.518627e+02
      vertex 1.584000e+02 -4.978278e+01 -4.518627e+02
      vertex 2.724500e+02 -5.165461e+01 -4.680054e+02
    endloop
  endfacet
  facet normal -8.873154e-13 -9.933442e-01 1.151834e-01
    outer loop
      vertex 2.556410e+02 -4.943723e+01 -4.488827e+02
      vertex 2.556410e+02 -4.978278e+01 -4.518627e+02
      vertex 2.724500e+02 -5.165461e+01 -4.680054e+02
    endloop
  endfacet
  facet normal 1.000000e+00 -9.092847e-13 -8.301451e-15
    outer loop
      vertex 2.724500e+02 -4.203114e+01 -3.939199e+02
      vertex 2.724500e+02 -3.978882e+01 -3.930222e+02
      vertex 2.724500e+02 -4.291785e+01 -3.926594e+02
    endloop
  endfacet
  facet normal 1.013216e-13 1.151834e-01 9.933442e-01
    outer loop
      vertex 2.014000e+02 -3.978882e+01 -3.930222e+02
      vertex 2.724500e+02 -4.291785e+01 -3.926594e+02
      vertex 2.724500e+02 -3.978882e+01 -3.930222e+02
    endloop
  endfacet
  facet normal 1.029341e-13 1.151834e-01 9.933442e-01
    outer loop
      vertex 2.014000e+02 -4.291785e+01 -3.926594e+02
      vertex 2.724500e+02 -4.291785e+01 -3.926594e+02
      vertex 2.014000e+02 -3.978882e+01 -3.930222e+02
    endloop
  endfacet
  facet normal -8.877000e-13 -9.933442e-01 1.151834e-01
    outer loop
      vertex 2.556410e+02 -4.943723e+01 -4.488827e+02
      vertex 2.724500e+02 -4.291785e+01 -3.926594e+02
      vertex 2.014000e+02 -4.291785e+01 -3.926594e+02
    endloop
  endfacet
  facet normal 1.000000e+00 -9.152535e-13 6.607881e-15
    outer loop
      vertex 2.724500e+02 -4.203114e+01 -3.939199e+02
      vertex 2.724500e+02 -3.992128e+01 -3.941646e+02
      vertex 2.724500e+02 -3.978882e+01 -3.930222e+02
    endloop
  endfacet
  facet normal 8.758432e-13 9.933442e-01 -1.151834e-01
    outer loop
      vertex 2.722303e+02 -3.998236e+01 -3.946914e+02
      vertex 2.724500e+02 -3.978882e+01 -3.930222e+02
      vertex 2.724500e+02 -3.992128e+01 -3.941646e+02
    endloop
  endfacet
  facet normal 8.876914e-13 9.933442e-01 -1.151834e-01
    outer loop
      vertex 2.014000e+02 -3.978882e+01 -3.930222e+02
      vertex 2.724500e+02 -3.978882e+01 -3.930222e+02
      vertex 2.717000e+02 -4.000766e+01 -3.949096e+02
    endloop
  endfacet
  facet normal 8.838804e-13 9.933442e-01 -1.151834e-01
    outer loop
      vertex 2.722303e+02 -3.998236e+01 -3.946914e+02
      vertex 2.717000e+02 -4.000766e+01 -3.949096e+02
      vertex 2.724500e+02 -3.978882e+01 -3.930222e+02
    endloop
  endfacet
  facet normal 9.238695e-01 -4.408157e-02 -3.801604e-01
    outer loop
      vertex 2.722303e+02 -4.209222e+01 -3.944467e+02
      vertex 2.724500e+02 -3.992128e+01 -3.941646e+02
      vertex 2.724500e+02 -4.203114e+01 -3.939199e+02
    endloop
  endfacet
  facet normal 9.238695e-01 -4.408157e-02 -3.801604e-01
    outer loop
      vertex 2.722303e+02 -3.998236e+01 -3.946914e+02
      vertex 2.724500e+02 -3.992128e+01 -3.941646e+02
      vertex 2.722303e+02 -4.209222e+01 -3.944467e+02
    endloop
  endfacet
  facet normal 8.790746e-13 9.933442e-01 -1.151834e-01
    outer loop
      vertex 2.722303e+02 -4.243079e+01 -3.973665e+02
      vertex 2.724500e+02 -4.203114e+01 -3.939199e+02
      vertex 2.724500e+02 -4.249187e+01 -3.978933e+02
    endloop
  endfacet
  facet normal 9.277600e-13 9.933442e-01 -1.151834e-01
    outer loop
      vertex 2.722303e+02 -4.243079e+01 -3.973665e+02
      vertex 2.722303e+02 -4.209222e+01 -3.944467e+02
      vertex 2.724500e+02 -4.203114e+01 -3.939199e+02
    endloop
  endfacet
  facet normal 9.238695e-01 4.408157e-02 3.801604e-01
    outer loop
      vertex 2.722303e+02 -3.965483e+01 -3.976884e+02
      vertex 2.722303e+02 -4.243079e+01 -3.973665e+02
      vertex 2.724500e+02 -4.249187e+01 -3.978933e+02
    endloop
  endfacet
  facet normal -9.709570e-01 -2.755809e-02 -2.376616e-01
    outer loop
      vertex 9.819662e+01 -5.049342e+01 -4.579913e+02
      vertex 1.006807e+02 -4.813817e+01 -4.684131e+02
      vertex 1.006807e+02 -5.165461e+01 -4.680054e+02
    endloop
  endfacet
  facet normal 8.876942e-13 9.933442e-01 -1.151834e-01
    outer loop
      vertex 1.006164e+02 -4.787901e+01 -4.661781e+02
      vertex 2.717000e+02 -4.787901e+01 -4.661781e+02
      vertex 1.006807e+02 -4.813817e+01 -4.684131e+02
    endloop
  endfacet
  facet normal 9.470565e-13 9.933442e-01 -1.151834e-01
    outer loop
      vertex 1.002861e+02 -4.798042e+01 -4.670527e+02
      vertex 1.006164e+02 -4.787901e+01 -4.661781e+02
      vertex 1.006807e+02 -4.813817e+01 -4.684131e+02
    endloop
  endfacet
  facet normal -9.546893e-01 -1.444453e-01 -2.601996e-01
    outer loop
      vertex 9.819662e+01 -5.049342e+01 -4.579913e+02
      vertex 1.002861e+02 -4.798042e+01 -4.670527e+02
      vertex 1.006807e+02 -4.813817e+01 -4.684131e+02
    endloop
  endfacet
  facet normal -8.884192e-13 -9.933442e-01 1.151834e-01
    outer loop
      vertex 9.784760e+01 -4.482992e+01 -4.091491e+02
      vertex 9.819662e+01 -5.049342e+01 -4.579913e+02
      vertex 1.006807e+02 -5.165461e+01 -4.680054e+02
    endloop
  endfacet
  facet normal -8.866684e-13 -9.933442e-01 1.151834e-01
    outer loop
      vertex 1.009459e+02 -4.304455e+01 -3.937521e+02
      vertex 9.784760e+01 -4.482992e+01 -4.091491e+02
      vertex 1.006807e+02 -5.165461e+01 -4.680054e+02
    endloop
  endfacet
  facet normal -8.877210e-13 -9.933442e-01 1.151834e-01
    outer loop
      vertex 1.569000e+02 -4.961001e+01 -4.503727e+02
      vertex 1.009459e+02 -4.304455e+01 -3.937521e+02
      vertex 1.006807e+02 -5.165461e+01 -4.680054e+02
    endloop
  endfacet
  facet normal -8.871486e-13 -9.933442e-01 1.151834e-01
    outer loop
      vertex 1.584000e+02 -4.978278e+01 -4.518627e+02
      vertex 1.569000e+02 -4.961001e+01 -4.503727e+02
      vertex 1.006807e+02 -5.165461e+01 -4.680054e+02
    endloop
  endfacet
  facet normal -1.029327e-13 -1.151834e-01 -9.933442e-01
    outer loop
      vertex 2.717000e+02 -4.694724e+01 -4.662862e+02
      vertex 2.717000e+02 -4.787901e+01 -4.661781e+02
      vertex 1.006164e+02 -4.787901e+01 -4.661781e+02
    endloop
  endfacet
  facet normal 3.827076e-01 -1.064144e-01 -9.177205e-01
    outer loop
      vertex 2.722303e+02 -4.692194e+01 -4.660679e+02
      vertex 2.722303e+02 -4.785370e+01 -4.659599e+02
      vertex 2.717000e+02 -4.787901e+01 -4.661781e+02
    endloop
  endfacet
  facet normal 3.827076e-01 -1.064144e-01 -9.177205e-01
    outer loop
      vertex 2.722303e+02 -4.692194e+01 -4.660679e+02
      vertex 2.717000e+02 -4.787901e+01 -4.661781e+02
      vertex 2.717000e+02 -4.694724e+01 -4.662862e+02
    endloop
  endfacet
  facet normal 8.871726e-13 9.933442e-01 -1.151834e-01
    outer loop
      vertex 1.002861e+02 -4.798042e+01 -4.670527e+02
      vertex 1.001597e+02 -4.786114e+01 -4.660240e+02
      vertex 1.006164e+02 -4.787901e+01 -4.661781e+02
    endloop
  endfacet
  facet normal -3.216048e-01 -1.090642e-01 -9.405718e-01
    outer loop
      vertex 1.006164e+02 -4.694724e+01 -4.662862e+02
      vertex 1.006164e+02 -4.787901e+01 -4.661781e+02
      vertex 1.001597e+02 -4.786114e+01 -4.660240e+02
    endloop
  endfacet
  facet normal -1.022679e-13 -1.151834e-01 -9.933442e-01
    outer loop
      vertex 1.006164e+02 -4.694724e+01 -4.662862e+02
      vertex 2.717000e+02 -4.694724e+01 -4.662862e+02
      vertex 1.006164e+02 -4.787901e+01 -4.661781e+02
    endloop
  endfacet
  facet normal 9.831553e-13 9.933442e-01 -1.151834e-01
    outer loop
      vertex 1.002861e+02 -4.798042e+01 -4.670527e+02
      vertex 9.989188e+01 -4.781493e+01 -4.656256e+02
      vertex 1.001597e+02 -4.786114e+01 -4.660240e+02
    endloop
  endfacet
  facet normal -8.316669e-01 -6.395846e-02 -5.515791e-01
    outer loop
      vertex 1.001597e+02 -4.692938e+01 -4.661321e+02
      vertex 1.001597e+02 -4.786114e+01 -4.660240e+02
      vertex 9.989188e+01 -4.781493e+01 -4.656256e+02
    endloop
  endfacet
  facet normal -3.216048e-01 -1.090642e-01 -9.405718e-01
    outer loop
      vertex 1.001597e+02 -4.692938e+01 -4.661321e+02
      vertex 1.006164e+02 -4.694724e+01 -4.662862e+02
      vertex 1.001597e+02 -4.786114e+01 -4.660240e+02
    endloop
  endfacet
  facet normal -9.611395e-01 -1.114920e-01 -2.525480e-01
    outer loop
      vertex 9.819662e+01 -5.049342e+01 -4.579913e+02
      vertex 9.989188e+01 -4.781493e+01 -4.656256e+02
      vertex 1.002861e+02 -4.798042e+01 -4.670527e+02
    endloop
  endfacet
  facet normal -9.739069e-01 -2.614064e-02 -2.254375e-01
    outer loop
      vertex 9.989188e+01 -4.688317e+01 -4.657336e+02
      vertex 9.989188e+01 -4.781493e+01 -4.656256e+02
      vertex 9.819662e+01 -5.049342e+01 -4.579913e+02
    endloop
  endfacet
  facet normal -8.316669e-01 -6.395846e-02 -5.515791e-01
    outer loop
      vertex 1.001597e+02 -4.692938e+01 -4.661321e+02
      vertex 9.989188e+01 -4.781493e+01 -4.656256e+02
      vertex 9.989188e+01 -4.688317e+01 -4.657336e+02
    endloop
  endfacet
  facet normal 8.845576e-13 9.944235e-01 -1.054602e-01
    outer loop
      vertex 9.753102e+01 -4.563804e+01 -4.548894e+02
      vertex 9.749951e+01 -4.107691e+01 -4.118807e+02
      vertex 9.975111e+01 -3.976055e+01 -3.994683e+02
    endloop
  endfacet
  facet normal -9.841153e-01 2.044854e-02 1.763486e-01
    outer loop
      vertex 9.975111e+01 -3.985988e+01 -3.994568e+02
      vertex 9.975111e+01 -3.976055e+01 -3.994683e+02
      vertex 9.749951e+01 -4.107691e+01 -4.118807e+02
    endloop
  endfacet
  facet normal 8.863286e-13 9.944235e-01 -1.054602e-01
    outer loop
      vertex 9.951590e+01 -4.663698e+01 -4.643087e+02
      vertex 9.753102e+01 -4.563804e+01 -4.548894e+02
      vertex 9.975111e+01 -3.976055e+01 -3.994683e+02
    endloop
  endfacet
  facet normal 8.886679e-13 9.944235e-01 -1.054602e-01
    outer loop
      vertex 1.569000e+02 -4.521311e+01 -4.508826e+02
      vertex 9.951590e+01 -4.663698e+01 -4.643087e+02
      vertex 9.975111e+01 -3.976055e+01 -3.994683e+02
    endloop
  endfacet
  facet normal 8.871488e-13 9.944235e-01 -1.054602e-01
    outer loop
      vertex 1.569000e+02 -4.521311e+01 -4.508826e+02
      vertex 9.975111e+01 -3.976055e+01 -3.994683e+02
      vertex 1.584000e+02 -4.505491e+01 -4.493908e+02
    endloop
  endfacet
  facet normal 8.998903e-13 9.944235e-01 -1.054602e-01
    outer loop
      vertex 9.628000e+01 -4.457570e+01 -4.448721e+02
      vertex 9.628000e+01 -4.221588e+01 -4.226206e+02
      vertex 9.749951e+01 -4.107691e+01 -4.118807e+02
    endloop
  endfacet
  facet normal -9.934605e-01 -9.317493e-03 1.137956e-01
    outer loop
      vertex 9.784760e+01 -4.482992e+01 -4.091491e+02
      vertex 9.749951e+01 -4.107691e+01 -4.118807e+02
      vertex 9.628000e+01 -4.221588e+01 -4.226206e+02
    endloop
  endfacet
  facet normal 8.931155e-13 9.944235e-01 -1.054602e-01
    outer loop
      vertex 9.753102e+01 -4.563804e+01 -4.548894e+02
      vertex 9.628000e+01 -4.457570e+01 -4.448721e+02
      vertex 9.749951e+01 -4.107691e+01 -4.118807e+02
    endloop
  endfacet
  facet normal -9.839472e-01 3.596535e-02 1.747982e-01
    outer loop
      vertex 9.975111e+01 -3.985988e+01 -3.994568e+02
      vertex 9.749951e+01 -4.107691e+01 -4.118807e+02
      vertex 9.784760e+01 -4.482992e+01 -4.091491e+02
    endloop
  endfacet
  facet normal -7.071068e-01 7.031636e-01 -7.457161e-02
    outer loop
      vertex 9.582997e+01 -4.387584e+01 -4.340057e+02
      vertex 9.628000e+01 -4.221588e+01 -4.226206e+02
      vertex 9.628000e+01 -4.457570e+01 -4.448721e+02
    endloop
  endfacet
  facet normal -9.928956e-01 1.370500e-02 1.181972e-01
    outer loop
      vertex 9.784760e+01 -4.482992e+01 -4.091491e+02
      vertex 9.628000e+01 -4.221588e+01 -4.226206e+02
      vertex 9.628000e+01 -4.633660e+01 -4.221428e+02
    endloop
  endfacet
  facet normal -9.992353e-01 4.504360e-03 3.884093e-02
    outer loop
      vertex 9.582997e+01 -4.387584e+01 -4.340057e+02
      vertex 9.628000e+01 -4.633660e+01 -4.221428e+02
      vertex 9.628000e+01 -4.221588e+01 -4.226206e+02
    endloop
  endfacet
  facet normal -9.923758e-01 -1.419673e-02 -1.224284e-01
    outer loop
      vertex 9.628000e+01 -4.891385e+01 -4.443690e+02
      vertex 9.628000e+01 -4.457570e+01 -4.448721e+02
      vertex 9.753102e+01 -4.563804e+01 -4.548894e+02
    endloop
  endfacet
  facet normal -9.991440e-01 -4.764341e-03 -4.109230e-02
    outer loop
      vertex 9.582998e+01 -4.721487e+01 -4.336240e+02
      vertex 9.628000e+01 -4.457570e+01 -4.448721e+02
      vertex 9.628000e+01 -4.891385e+01 -4.443690e+02
    endloop
  endfacet
  facet normal -9.991450e-01 -4.697065e-03 -4.107656e-02
    outer loop
      vertex 9.582998e+01 -4.721487e+01 -4.336240e+02
      vertex 9.582997e+01 -4.387584e+01 -4.340057e+02
      vertex 9.628000e+01 -4.457570e+01 -4.448721e+02
    endloop
  endfacet
  facet normal -9.785627e-01 -2.584496e-03 -2.059327e-01
    outer loop
      vertex 9.819662e+01 -5.049342e+01 -4.579913e+02
      vertex 9.753102e+01 -4.563804e+01 -4.548894e+02
      vertex 9.951590e+01 -4.663698e+01 -4.643087e+02
    endloop
  endfacet
  facet normal -9.897760e-01 -5.045402e-02 -1.334090e-01
    outer loop
      vertex 9.628000e+01 -4.891385e+01 -4.443690e+02
      vertex 9.753102e+01 -4.563804e+01 -4.548894e+02
      vertex 9.819662e+01 -5.049342e+01 -4.579913e+02
    endloop
  endfacet
  facet normal 8.885935e-13 9.944235e-01 -1.054602e-01
    outer loop
      vertex 1.584000e+02 -4.537131e+01 -4.523743e+02
      vertex 2.556410e+02 -4.537131e+01 -4.523743e+02
      vertex 9.951590e+01 -4.663698e+01 -4.643087e+02
    endloop
  endfacet
  facet normal 8.900204e-13 9.944235e-01 -1.054602e-01
    outer loop
      vertex 1.569000e+02 -4.521311e+01 -4.508826e+02
      vertex 1.584000e+02 -4.537131e+01 -4.523743e+02
      vertex 9.951590e+01 -4.663698e+01 -4.643087e+02
    endloop
  endfacet
  facet normal -9.753489e-01 -2.541735e-02 -2.191997e-01
    outer loop
      vertex 9.951590e+01 -4.671688e+01 -4.642995e+02
      vertex 9.819662e+01 -5.049342e+01 -4.579913e+02
      vertex 9.951590e+01 -4.663698e+01 -4.643087e+02
    endloop
  endfacet
  facet normal -1.029333e-13 -1.151834e-01 -9.933442e-01
    outer loop
      vertex 1.584000e+02 -4.943723e+01 -4.488827e+02
      vertex 1.584000e+02 -4.505491e+01 -4.493908e+02
      vertex 2.556410e+02 -4.505491e+01 -4.493908e+02
    endloop
  endfacet
  facet normal 7.071068e-01 -8.144697e-02 -7.024005e-01
    outer loop
      vertex 1.569000e+02 -4.961001e+01 -4.503727e+02
      vertex 1.569000e+02 -4.521311e+01 -4.508826e+02
      vertex 1.584000e+02 -4.505491e+01 -4.493908e+02
    endloop
  endfacet
  facet normal 7.071068e-01 -8.144697e-02 -7.024004e-01
    outer loop
      vertex 1.569000e+02 -4.961001e+01 -4.503727e+02
      vertex 1.584000e+02 -4.505491e+01 -4.493908e+02
      vertex 1.584000e+02 -4.943723e+01 -4.488827e+02
    endloop
  endfacet
  facet normal -1.000000e+00 8.892019e-13 9.644890e-16
    outer loop
      vertex 2.556410e+02 -4.978278e+01 -4.518627e+02
      vertex 2.556410e+02 -4.505491e+01 -4.493908e+02
      vertex 2.556410e+02 -4.537131e+01 -4.523743e+02
    endloop
  endfacet
  facet normal -1.029336e-13 -1.151834e-01 -9.933442e-01
    outer loop
      vertex 2.556410e+02 -4.943723e+01 -4.488827e+02
      vertex 1.584000e+02 -4.943723e+01 -4.488827e+02
      vertex 2.556410e+02 -4.505491e+01 -4.493908e+02
    endloop
  endfacet
  facet normal -1.000000e+00 8.940431e-13 -8.295113e-15
    outer loop
      vertex 2.556410e+02 -4.943723e+01 -4.488827e+02
      vertex 2.556410e+02 -4.505491e+01 -4.493908e+02
      vertex 2.556410e+02 -4.978278e+01 -4.518627e+02
    endloop
  endfacet
  facet normal 1.029256e-13 1.151834e-01 9.933442e-01
    outer loop
      vertex 2.556410e+02 -4.978278e+01 -4.518627e+02
      vertex 2.556410e+02 -4.537131e+01 -4.523743e+02
      vertex 1.584000e+02 -4.537131e+01 -4.523743e+02
    endloop
  endfacet
  facet normal 7.071068e-01 8.144697e-02 7.024004e-01
    outer loop
      vertex 1.584000e+02 -4.978278e+01 -4.518627e+02
      vertex 1.584000e+02 -4.537131e+01 -4.523743e+02
      vertex 1.569000e+02 -4.521311e+01 -4.508826e+02
    endloop
  endfacet
  facet normal 1.029336e-13 1.151834e-01 9.933442e-01
    outer loop
      vertex 2.556410e+02 -4.978278e+01 -4.518627e+02
      vertex 1.584000e+02 -4.537131e+01 -4.523743e+02
      vertex 1.584000e+02 -4.978278e+01 -4.518627e+02
    endloop
  endfacet
  facet normal 7.071068e-01 8.144697e-02 7.024004e-01
    outer loop
      vertex 1.584000e+02 -4.978278e+01 -4.518627e+02
      vertex 1.569000e+02 -4.521311e+01 -4.508826e+02
      vertex 1.569000e+02 -4.961001e+01 -4.503727e+02
    endloop
  endfacet
  facet normal 1.029265e-13 1.151834e-01 9.933442e-01
    outer loop
      vertex 2.717000e+02 -4.240549e+01 -3.971483e+02
      vertex 2.717000e+02 -3.962953e+01 -3.974702e+02
      vertex 1.007887e+02 -3.962953e+01 -3.974702e+02
    endloop
  endfacet
  facet normal 8.876392e-13 9.933442e-01 -1.151834e-01
    outer loop
      vertex 9.975111e+01 -3.985988e+01 -3.994568e+02
      vertex 1.007887e+02 -3.962953e+01 -3.974702e+02
      vertex 2.717000e+02 -3.962953e+01 -3.974702e+02
    endloop
  endfacet
  facet normal 1.029359e-13 1.151834e-01 9.933442e-01
    outer loop
      vertex 1.007887e+02 -4.240549e+01 -3.971483e+02
      vertex 2.717000e+02 -4.240549e+01 -3.971483e+02
      vertex 1.007887e+02 -3.962953e+01 -3.974702e+02
    endloop
  endfacet
  facet normal -3.322145e-01 1.086414e-01 9.369261e-01
    outer loop
      vertex 1.003187e+02 -3.964860e+01 -3.976346e+02
      vertex 1.007887e+02 -4.240549e+01 -3.971483e+02
      vertex 1.007887e+02 -3.962953e+01 -3.974702e+02
    endloop
  endfacet
  facet normal 9.451519e-13 9.933442e-01 -1.151834e-01
    outer loop
      vertex 1.003187e+02 -3.964860e+01 -3.976346e+02
      vertex 1.007887e+02 -3.962953e+01 -3.974702e+02
      vertex 9.975111e+01 -3.985988e+01 -3.994568e+02
    endloop
  endfacet
  facet normal 3.827076e-01 1.064144e-01 9.177205e-01
    outer loop
      vertex 2.722303e+02 -4.243079e+01 -3.973665e+02
      vertex 2.717000e+02 -3.962953e+01 -3.974702e+02
      vertex 2.717000e+02 -4.240549e+01 -3.971483e+02
    endloop
  endfacet
  facet normal 3.827076e-01 1.064144e-01 9.177205e-01
    outer loop
      vertex 2.722303e+02 -3.965483e+01 -3.976884e+02
      vertex 2.717000e+02 -3.962953e+01 -3.974702e+02
      vertex 2.722303e+02 -4.243079e+01 -3.973665e+02
    endloop
  endfacet
  facet normal 8.874396e-13 9.933442e-01 -1.151834e-01
    outer loop
      vertex 2.722303e+02 -3.965483e+01 -3.976884e+02
      vertex 9.975111e+01 -3.985988e+01 -3.994568e+02
      vertex 2.717000e+02 -3.962953e+01 -3.974702e+02
    endloop
  endfacet
  facet normal 8.877219e-13 9.933442e-01 -1.151834e-01
    outer loop
      vertex 2.717000e+02 -4.211753e+01 -3.946649e+02
      vertex 2.717000e+02 -4.240549e+01 -3.971483e+02
      vertex 1.007887e+02 -4.240549e+01 -3.971483e+02
    endloop
  endfacet
  facet normal 8.797000e-13 9.933442e-01 -1.151834e-01
    outer loop
      vertex 2.717000e+02 -4.211753e+01 -3.946649e+02
      vertex 2.722303e+02 -4.209222e+01 -3.944467e+02
      vertex 2.717000e+02 -4.240549e+01 -3.971483e+02
    endloop
  endfacet
  facet normal 8.755353e-13 9.933442e-01 -1.151834e-01
    outer loop
      vertex 2.722303e+02 -4.243079e+01 -3.973665e+02
      vertex 2.717000e+02 -4.240549e+01 -3.971483e+02
      vertex 2.722303e+02 -4.209222e+01 -3.944467e+02
    endloop
  endfacet
  facet normal 8.876343e-13 9.933442e-01 -1.151834e-01
    outer loop
      vertex 1.016942e+02 -4.211753e+01 -3.946649e+02
      vertex 2.717000e+02 -4.211753e+01 -3.946649e+02
      vertex 1.007887e+02 -4.240549e+01 -3.971483e+02
    endloop
  endfacet
  facet normal 9.110268e-13 9.933442e-01 -1.151834e-01
    outer loop
      vertex 1.011465e+02 -4.209015e+01 -3.944289e+02
      vertex 1.016942e+02 -4.211753e+01 -3.946649e+02
      vertex 1.007887e+02 -4.240549e+01 -3.971483e+02
    endloop
  endfacet
  facet normal 8.163226e-13 9.933442e-01 -1.151834e-01
    outer loop
      vertex 1.009459e+02 -4.202538e+01 -3.938703e+02
      vertex 1.011465e+02 -4.209015e+01 -3.944289e+02
      vertex 1.007887e+02 -4.240549e+01 -3.971483e+02
    endloop
  endfacet
  facet normal 8.740637e-13 9.933442e-01 -1.151834e-01
    outer loop
      vertex 1.004895e+02 -4.225074e+01 -3.958137e+02
      vertex 1.009459e+02 -4.202538e+01 -3.938703e+02
      vertex 1.007887e+02 -4.240549e+01 -3.971483e+02
    endloop
  endfacet
  facet normal 8.782767e-13 9.933442e-01 -1.151834e-01
    outer loop
      vertex 1.003187e+02 -4.242455e+01 -3.973128e+02
      vertex 1.004895e+02 -4.225074e+01 -3.958137e+02
      vertex 1.007887e+02 -4.240549e+01 -3.971483e+02
    endloop
  endfacet
  facet normal -3.322145e-01 1.086414e-01 9.369261e-01
    outer loop
      vertex 1.003187e+02 -3.964860e+01 -3.976346e+02
      vertex 1.003187e+02 -4.242455e+01 -3.973128e+02
      vertex 1.007887e+02 -4.240549e+01 -3.971483e+02
    endloop
  endfacet
  facet normal 3.827076e-01 -1.064144e-01 -9.177205e-01
    outer loop
      vertex 2.722303e+02 -3.998236e+01 -3.946914e+02
      vertex 2.722303e+02 -4.209222e+01 -3.944467e+02
      vertex 2.717000e+02 -4.211753e+01 -3.946649e+02
    endloop
  endfacet
  facet normal -1.029258e-13 -1.151834e-01 -9.933442e-01
    outer loop
      vertex 2.717000e+02 -4.000766e+01 -3.949096e+02
      vertex 2.717000e+02 -4.211753e+01 -3.946649e+02
      vertex 1.016942e+02 -4.211753e+01 -3.946649e+02
    endloop
  endfacet
  facet normal 3.827076e-01 -1.064144e-01 -9.177205e-01
    outer loop
      vertex 2.722303e+02 -3.998236e+01 -3.946914e+02
      vertex 2.717000e+02 -4.211753e+01 -3.946649e+02
      vertex 2.717000e+02 -4.000766e+01 -3.949096e+02
    endloop
  endfacet
  facet normal -3.980660e-01 -1.056643e-01 -9.112511e-01
    outer loop
      vertex 1.016942e+02 -4.000766e+01 -3.949096e+02
      vertex 1.016942e+02 -4.211753e+01 -3.946649e+02
      vertex 1.011465e+02 -4.209015e+01 -3.944289e+02
    endloop
  endfacet
  facet normal -1.029354e-13 -1.151834e-01 -9.933442e-01
    outer loop
      vertex 1.016942e+02 -4.000766e+01 -3.949096e+02
      vertex 2.717000e+02 -4.000766e+01 -3.949096e+02
      vertex 1.016942e+02 -4.211753e+01 -3.946649e+02
    endloop
  endfacet
  facet normal -9.418537e-01 -3.870431e-02 -3.337868e-01
    outer loop
      vertex 1.011465e+02 -3.998029e+01 -3.946735e+02
      vertex 1.011465e+02 -4.209015e+01 -3.944289e+02
      vertex 1.009459e+02 -4.202538e+01 -3.938703e+02
    endloop
  endfacet
  facet normal -3.980660e-01 -1.056643e-01 -9.112511e-01
    outer loop
      vertex 1.011465e+02 -3.998029e+01 -3.946735e+02
      vertex 1.016942e+02 -4.000766e+01 -3.949096e+02
      vertex 1.011465e+02 -4.209015e+01 -3.944289e+02
    endloop
  endfacet
  facet normal -9.738488e-01 2.616935e-02 2.256850e-01
    outer loop
      vertex 1.009459e+02 -4.304455e+01 -3.937521e+02
      vertex 1.009459e+02 -4.202538e+01 -3.938703e+02
      vertex 1.004895e+02 -4.225074e+01 -3.958137e+02
    endloop
  endfacet
  facet normal -9.418537e-01 -3.870431e-02 -3.337868e-01
    outer loop
      vertex 1.011465e+02 -3.998029e+01 -3.946735e+02
      vertex 1.009459e+02 -4.202538e+01 -3.938703e+02
      vertex 1.009459e+02 -3.991552e+01 -3.941149e+02
    endloop
  endfacet
  facet normal 1.043012e-13 1.151834e-01 9.933442e-01
    outer loop
      vertex 2.012500e+02 -4.304455e+01 -3.937521e+02
      vertex 1.009459e+02 -3.991552e+01 -3.941149e+02
      vertex 1.009459e+02 -4.202538e+01 -3.938703e+02
    endloop
  endfacet
  facet normal 1.029398e-13 1.151834e-01 9.933442e-01
    outer loop
      vertex 2.012500e+02 -4.304455e+01 -3.937521e+02
      vertex 1.009459e+02 -4.202538e+01 -3.938703e+02
      vertex 1.009459e+02 -4.304455e+01 -3.937521e+02
    endloop
  endfacet
  facet normal 9.047415e-13 9.933442e-01 -1.151834e-01
    outer loop
      vertex 1.003187e+02 -4.242455e+01 -3.973128e+02
      vertex 1.000562e+02 -4.247334e+01 -3.977335e+02
      vertex 1.004895e+02 -4.225074e+01 -3.958137e+02
    endloop
  endfacet
  facet normal -9.756352e-01 8.399078e-03 2.192383e-01
    outer loop
      vertex 1.009459e+02 -4.304455e+01 -3.937521e+02
      vertex 1.004895e+02 -4.225074e+01 -3.958137e+02
      vertex 1.000562e+02 -4.247334e+01 -3.977335e+02
    endloop
  endfacet
  facet normal -8.499821e-01 6.067996e-02 5.233053e-01
    outer loop
      vertex 1.000562e+02 -3.969738e+01 -3.980554e+02
      vertex 1.000562e+02 -4.247334e+01 -3.977335e+02
      vertex 1.003187e+02 -4.242455e+01 -3.973128e+02
    endloop
  endfacet
  facet normal -9.749950e-01 -8.362423e-02 2.058927e-01
    outer loop
      vertex 1.009459e+02 -4.304455e+01 -3.937521e+02
      vertex 1.000562e+02 -4.247334e+01 -3.977335e+02
      vertex 9.784760e+01 -4.482992e+01 -4.091491e+02
    endloop
  endfacet
  facet normal -9.821108e-01 9.379541e-03 1.880702e-01
    outer loop
      vertex 9.975111e+01 -3.985988e+01 -3.994568e+02
      vertex 9.784760e+01 -4.482992e+01 -4.091491e+02
      vertex 1.000562e+02 -4.247334e+01 -3.977335e+02
    endloop
  endfacet
  facet normal -9.777574e-01 2.331851e-02 2.084388e-01
    outer loop
      vertex 9.990186e+01 -3.977894e+01 -3.987587e+02
      vertex 9.975111e+01 -3.985988e+01 -3.994568e+02
      vertex 1.000562e+02 -4.247334e+01 -3.977335e+02
    endloop
  endfacet
  facet normal -9.770688e-01 2.452531e-02 2.115068e-01
    outer loop
      vertex 1.000562e+02 -3.969738e+01 -3.980554e+02
      vertex 9.990186e+01 -3.977894e+01 -3.987587e+02
      vertex 1.000562e+02 -4.247334e+01 -3.977335e+02
    endloop
  endfacet
  facet normal -8.499821e-01 6.067996e-02 5.233053e-01
    outer loop
      vertex 1.003187e+02 -3.964860e+01 -3.976346e+02
      vertex 1.000562e+02 -3.969738e+01 -3.980554e+02
      vertex 1.003187e+02 -4.242455e+01 -3.973128e+02
    endloop
  endfacet
  facet normal 8.877172e-13 9.933442e-01 -1.151834e-01
    outer loop
      vertex 2.012500e+02 -3.991552e+01 -3.941149e+02
      vertex 2.717000e+02 -4.000766e+01 -3.949096e+02
      vertex 1.016942e+02 -4.000766e+01 -3.949096e+02
    endloop
  endfacet
  facet normal 8.877037e-13 9.933442e-01 -1.151834e-01
    outer loop
      vertex 2.013500e+02 -3.990400e+01 -3.940156e+02
      vertex 2.014000e+02 -3.978882e+01 -3.930222e+02
      vertex 2.717000e+02 -4.000766e+01 -3.949096e+02
    endloop
  endfacet
  facet normal 8.867849e-13 9.933442e-01 -1.151834e-01
    outer loop
      vertex 2.013207e+02 -3.991214e+01 -3.940858e+02
      vertex 2.013500e+02 -3.990400e+01 -3.940156e+02
      vertex 2.717000e+02 -4.000766e+01 -3.949096e+02
    endloop
  endfacet
  facet normal 8.890673e-13 9.933442e-01 -1.151834e-01
    outer loop
      vertex 2.012500e+02 -3.991552e+01 -3.941149e+02
      vertex 2.013207e+02 -3.991214e+01 -3.940858e+02
      vertex 2.717000e+02 -4.000766e+01 -3.949096e+02
    endloop
  endfacet
  facet normal 8.876305e-13 9.933442e-01 -1.151834e-01
    outer loop
      vertex 1.011465e+02 -3.998029e+01 -3.946735e+02
      vertex 2.012500e+02 -3.991552e+01 -3.941149e+02
      vertex 1.016942e+02 -4.000766e+01 -3.949096e+02
    endloop
  endfacet
  facet normal 8.402635e-13 9.933442e-01 -1.151834e-01
    outer loop
      vertex 2.013500e+02 -3.990400e+01 -3.940156e+02
      vertex 2.013500e+02 -3.979458e+01 -3.930719e+02
      vertex 2.014000e+02 -3.978882e+01 -3.930222e+02
    endloop
  endfacet
  facet normal -7.071068e-01 8.144697e-02 7.024004e-01
    outer loop
      vertex 2.013500e+02 -4.292361e+01 -3.927091e+02
      vertex 2.014000e+02 -3.978882e+01 -3.930222e+02
      vertex 2.013500e+02 -3.979458e+01 -3.930719e+02
    endloop
  endfacet
  facet normal -7.071068e-01 8.144697e-02 7.024004e-01
    outer loop
      vertex 2.013500e+02 -4.292361e+01 -3.927091e+02
      vertex 2.014000e+02 -4.291785e+01 -3.926594e+02
      vertex 2.014000e+02 -3.978882e+01 -3.930222e+02
    endloop
  endfacet
  facet normal -1.000000e+00 8.921298e-13 1.702512e-14
    outer loop
      vertex 2.013500e+02 -4.303303e+01 -3.936528e+02
      vertex 2.013500e+02 -3.979458e+01 -3.930719e+02
      vertex 2.013500e+02 -3.990400e+01 -3.940156e+02
    endloop
  endfacet
  facet normal -1.000000e+00 8.921298e-13 1.702512e-14
    outer loop
      vertex 2.013500e+02 -4.292361e+01 -3.927091e+02
      vertex 2.013500e+02 -3.979458e+01 -3.930719e+02
      vertex 2.013500e+02 -4.303303e+01 -3.936528e+02
    endloop
  endfacet
  facet normal -9.237749e-01 4.410787e-02 3.803872e-01
    outer loop
      vertex 2.013500e+02 -4.303303e+01 -3.936528e+02
      vertex 2.013500e+02 -3.990400e+01 -3.940156e+02
      vertex 2.013207e+02 -3.991214e+01 -3.940858e+02
    endloop
  endfacet
  facet normal -3.829360e-01 1.064035e-01 9.176265e-01
    outer loop
      vertex 2.013207e+02 -4.304118e+01 -3.937230e+02
      vertex 2.013207e+02 -3.991214e+01 -3.940858e+02
      vertex 2.012500e+02 -3.991552e+01 -3.941149e+02
    endloop
  endfacet
  facet normal -9.237749e-01 4.410787e-02 3.803872e-01
    outer loop
      vertex 2.013500e+02 -4.303303e+01 -3.936528e+02
      vertex 2.013207e+02 -3.991214e+01 -3.940858e+02
      vertex 2.013207e+02 -4.304118e+01 -3.937230e+02
    endloop
  endfacet
  facet normal 8.876141e-13 9.933442e-01 -1.151834e-01
    outer loop
      vertex 1.011465e+02 -3.998029e+01 -3.946735e+02
      vertex 1.009459e+02 -3.991552e+01 -3.941149e+02
      vertex 2.012500e+02 -3.991552e+01 -3.941149e+02
    endloop
  endfacet
  facet normal 1.029237e-13 1.151834e-01 9.933442e-01
    outer loop
      vertex 2.012500e+02 -4.304455e+01 -3.937521e+02
      vertex 2.012500e+02 -3.991552e+01 -3.941149e+02
      vertex 1.009459e+02 -3.991552e+01 -3.941149e+02
    endloop
  endfacet
  facet normal -3.829360e-01 1.064035e-01 9.176265e-01
    outer loop
      vertex 2.013207e+02 -4.304118e+01 -3.937230e+02
      vertex 2.012500e+02 -3.991552e+01 -3.941149e+02
      vertex 2.012500e+02 -4.304455e+01 -3.937521e+02
    endloop
  endfacet
  facet normal -8.718237e-13 -9.933442e-01 1.151834e-01
    outer loop
      vertex 2.556410e+02 -4.943723e+01 -4.488827e+02
      vertex 2.014000e+02 -4.291785e+01 -3.926594e+02
      vertex 2.013500e+02 -4.292361e+01 -3.927091e+02
    endloop
  endfacet
  facet normal -8.920571e-13 -9.933442e-01 1.151834e-01
    outer loop
      vertex 9.628000e+01 -4.633660e+01 -4.221428e+02
      vertex 9.628000e+01 -4.891385e+01 -4.443690e+02
      vertex 9.819662e+01 -5.049342e+01 -4.579913e+02
    endloop
  endfacet
  facet normal -8.845697e-13 -9.933442e-01 1.151834e-01
    outer loop
      vertex 9.784760e+01 -4.482992e+01 -4.091491e+02
      vertex 9.628000e+01 -4.633660e+01 -4.221428e+02
      vertex 9.819662e+01 -5.049342e+01 -4.579913e+02
    endloop
  endfacet
  facet normal -9.657519e-01 -7.752832e-02 -2.476140e-01
    outer loop
      vertex 9.970358e+01 -4.680099e+01 -4.650249e+02
      vertex 9.989188e+01 -4.688317e+01 -4.657336e+02
      vertex 9.819662e+01 -5.049342e+01 -4.579913e+02
    endloop
  endfacet
  facet normal -9.678005e-01 -6.714000e-02 -2.425994e-01
    outer loop
      vertex 9.951590e+01 -4.671688e+01 -4.642995e+02
      vertex 9.970358e+01 -4.680099e+01 -4.650249e+02
      vertex 9.819662e+01 -5.049342e+01 -4.579913e+02
    endloop
  endfacet
  facet normal -7.071068e-01 -7.024004e-01 8.144697e-02
    outer loop
      vertex 9.582998e+01 -4.721487e+01 -4.336240e+02
      vertex 9.628000e+01 -4.891385e+01 -4.443690e+02
      vertex 9.628000e+01 -4.633660e+01 -4.221428e+02
    endloop
  endfacet
  facet normal -9.992361e-01 4.436593e-03 3.882691e-02
    outer loop
      vertex 9.582998e+01 -4.721487e+01 -4.336240e+02
      vertex 9.628000e+01 -4.633660e+01 -4.221428e+02
      vertex 9.582997e+01 -4.387584e+01 -4.340057e+02
    endloop
  endfacet
  facet normal -8.877552e-13 -9.933442e-01 1.151834e-01
    outer loop
      vertex 1.584000e+02 -4.943723e+01 -4.488827e+02
      vertex 2.012500e+02 -4.304455e+01 -3.937521e+02
      vertex 1.009459e+02 -4.304455e+01 -3.937521e+02
    endloop
  endfacet
  facet normal -8.861385e-13 -9.933442e-01 1.151834e-01
    outer loop
      vertex 1.569000e+02 -4.961001e+01 -4.503727e+02
      vertex 1.584000e+02 -4.943723e+01 -4.488827e+02
      vertex 1.009459e+02 -4.304455e+01 -3.937521e+02
    endloop
  endfacet
  facet normal -7.829813e-13 -9.933442e-01 1.151834e-01
    outer loop
      vertex 2.556410e+02 -4.943723e+01 -4.488827e+02
      vertex 2.013207e+02 -4.304118e+01 -3.937230e+02
      vertex 2.012500e+02 -4.304455e+01 -3.937521e+02
    endloop
  endfacet
  facet normal -8.877016e-13 -9.933442e-01 1.151834e-01
    outer loop
      vertex 2.556410e+02 -4.943723e+01 -4.488827e+02
      vertex 2.012500e+02 -4.304455e+01 -3.937521e+02
      vertex 1.584000e+02 -4.943723e+01 -4.488827e+02
    endloop
  endfacet
  facet normal -8.109408e-13 -9.933442e-01 1.151834e-01
    outer loop
      vertex 2.556410e+02 -4.943723e+01 -4.488827e+02
      vertex 2.013500e+02 -4.303303e+01 -3.936528e+02
      vertex 2.013207e+02 -4.304118e+01 -3.937230e+02
    endloop
  endfacet
  facet normal -9.136572e-13 -9.933442e-01 1.151834e-01
    outer loop
      vertex 2.556410e+02 -4.943723e+01 -4.488827e+02
      vertex 2.013500e+02 -4.292361e+01 -3.927091e+02
      vertex 2.013500e+02 -4.303303e+01 -3.936528e+02
    endloop
  endfacet
  facet normal 1.283144e-11 9.933442e-01 -1.151834e-01
    outer loop
      vertex 1.000562e+02 -3.969738e+01 -3.980554e+02
      vertex 9.975111e+01 -3.985988e+01 -3.994568e+02
      vertex 9.990186e+01 -3.977894e+01 -3.987587e+02
    endloop
  endfacet
  facet normal 8.373596e-13 9.933442e-01 -1.151834e-01
    outer loop
      vertex 1.003187e+02 -3.964860e+01 -3.976346e+02
      vertex 9.975111e+01 -3.985988e+01 -3.994568e+02
      vertex 1.000562e+02 -3.969738e+01 -3.980554e+02
    endloop
  endfacet
endsolid P1040852002
