solid P1040852002
  facet normal -1.000000e+00 -7.128621e-14 2.717684e-12
    outer loop
      vertex -1.890140e+02 6.048444e+01 -4.679899e+02
      vertex -1.890140e+02 4.818630e+01 -3.995298e+02
      vertex -1.890140e+02 4.803321e+01 -3.982893e+02
    endloop
  endfacet
  facet normal -3.325676e-13 -9.924710e-01 -1.224800e-01
    outer loop
      vertex -1.631511e+01 4.818630e+01 -3.995298e+02
      vertex -1.890140e+02 4.803321e+01 -3.982893e+02
      vertex -1.890140e+02 4.818630e+01 -3.995298e+02
    endloop
  endfacet
  facet normal -1.000000e+00 1.183781e-15 2.730630e-12
    outer loop
      vertex -1.890140e+02 5.080673e+01 -3.979470e+02
      vertex -1.890140e+02 6.048444e+01 -4.679899e+02
      vertex -1.890140e+02 4.803321e+01 -3.982893e+02
    endloop
  endfacet
  facet normal -9.238695e-01 -4.687403e-02 3.798262e-01
    outer loop
      vertex -1.887943e+02 4.796826e+01 -3.977630e+02
      vertex -1.890140e+02 5.080673e+01 -3.979470e+02
      vertex -1.890140e+02 4.803321e+01 -3.982893e+02
    endloop
  endfacet
  facet normal -3.327250e-13 -9.924710e-01 -1.224800e-01
    outer loop
      vertex -1.887943e+02 4.796826e+01 -3.977630e+02
      vertex -1.890140e+02 4.803321e+01 -3.982893e+02
      vertex -1.631511e+01 4.818630e+01 -3.995298e+02
    endloop
  endfacet
  facet normal -1.000000e+00 2.306653e-13 2.771927e-12
    outer loop
      vertex -1.890140e+02 6.048444e+01 -4.679899e+02
      vertex -1.890140e+02 4.808705e+01 -3.995420e+02
      vertex -1.890140e+02 4.818630e+01 -3.995298e+02
    endloop
  endfacet
  facet normal 2.709618e-12 -1.224800e-01 9.924710e-01
    outer loop
      vertex -1.631511e+01 4.808705e+01 -3.995420e+02
      vertex -1.890140e+02 4.818630e+01 -3.995298e+02
      vertex -1.890140e+02 4.808705e+01 -3.995420e+02
    endloop
  endfacet
  facet normal 2.709618e-12 -1.224800e-01 9.924710e-01
    outer loop
      vertex -1.631511e+01 4.818630e+01 -3.995298e+02
      vertex -1.890140e+02 4.818630e+01 -3.995298e+02
      vertex -1.631511e+01 4.808705e+01 -3.995420e+02
    endloop
  endfacet
  facet normal -1.000000e+00 1.887278e-14 2.732090e-12
    outer loop
      vertex -1.890140e+02 5.551961e+01 -4.643203e+02
      vertex -1.890140e+02 5.543979e+01 -4.643302e+02
      vertex -1.890140e+02 4.808705e+01 -3.995420e+02
    endloop
  endfacet
  facet normal -3.059312e-13 -9.936217e-01 -1.127650e-01
    outer loop
      vertex -1.722050e+02 5.295874e+01 -4.424686e+02
      vertex -1.890140e+02 4.808705e+01 -3.995420e+02
      vertex -1.890140e+02 5.543979e+01 -4.643302e+02
    endloop
  endfacet
  facet normal -1.000000e+00 -3.368973e-15 2.729538e-12
    outer loop
      vertex -1.890140e+02 6.048444e+01 -4.679899e+02
      vertex -1.890140e+02 5.551961e+01 -4.643203e+02
      vertex -1.890140e+02 4.808705e+01 -3.995420e+02
    endloop
  endfacet
  facet normal -3.060427e-13 -9.936217e-01 -1.127650e-01
    outer loop
      vertex -7.496400e+01 5.262043e+01 -4.394876e+02
      vertex -1.631511e+01 4.808705e+01 -3.995420e+02
      vertex -1.890140e+02 4.808705e+01 -3.995420e+02
    endloop
  endfacet
  facet normal -3.062271e-13 -9.936217e-01 -1.127650e-01
    outer loop
      vertex -1.722050e+02 5.262043e+01 -4.394876e+02
      vertex -7.496400e+01 5.262043e+01 -4.394876e+02
      vertex -1.890140e+02 4.808705e+01 -3.995420e+02
    endloop
  endfacet
  facet normal -2.991627e-13 -9.936217e-01 -1.127650e-01
    outer loop
      vertex -1.722050e+02 5.295874e+01 -4.424686e+02
      vertex -1.722050e+02 5.262043e+01 -4.394876e+02
      vertex -1.890140e+02 4.808705e+01 -3.995420e+02
    endloop
  endfacet
  facet normal -2.709847e-12 1.224800e-01 -9.924710e-01
    outer loop
      vertex -1.607990e+01 5.551961e+01 -4.643203e+02
      vertex -1.890140e+02 5.543979e+01 -4.643302e+02
      vertex -1.890140e+02 5.551961e+01 -4.643203e+02
    endloop
  endfacet
  facet normal -3.060737e-13 -9.936217e-01 -1.127650e-01
    outer loop
      vertex -1.722050e+02 5.295874e+01 -4.424686e+02
      vertex -1.890140e+02 5.543979e+01 -4.643302e+02
      vertex -1.607990e+01 5.543979e+01 -4.643302e+02
    endloop
  endfacet
  facet normal -2.709847e-12 1.224800e-01 -9.924710e-01
    outer loop
      vertex -1.607990e+01 5.551961e+01 -4.643203e+02
      vertex -1.607990e+01 5.543979e+01 -4.643302e+02
      vertex -1.890140e+02 5.543979e+01 -4.643302e+02
    endloop
  endfacet
  facet normal -1.000000e+00 2.667975e-14 2.752475e-12
    outer loop
      vertex -1.890140e+02 5.660366e+01 -4.654460e+02
      vertex -1.890140e+02 5.567271e+01 -4.655609e+02
      vertex -1.890140e+02 5.551961e+01 -4.643203e+02
    endloop
  endfacet
  facet normal -2.774529e-13 -9.924710e-01 -1.224800e-01
    outer loop
      vertex -1.887943e+02 5.573767e+01 -4.660872e+02
      vertex -1.890140e+02 5.551961e+01 -4.643203e+02
      vertex -1.890140e+02 5.567271e+01 -4.655609e+02
    endloop
  endfacet
  facet normal -1.000000e+00 -1.875248e-14 2.708724e-12
    outer loop
      vertex -1.890140e+02 6.048444e+01 -4.679899e+02
      vertex -1.890140e+02 5.660366e+01 -4.654460e+02
      vertex -1.890140e+02 5.551961e+01 -4.643203e+02
    endloop
  endfacet
  facet normal -3.325334e-13 -9.924710e-01 -1.224800e-01
    outer loop
      vertex -1.718043e+01 5.576457e+01 -4.663053e+02
      vertex -1.890140e+02 5.551961e+01 -4.643203e+02
      vertex -1.882640e+02 5.576457e+01 -4.663053e+02
    endloop
  endfacet
  facet normal -3.681066e-13 -9.924710e-01 -1.224800e-01
    outer loop
      vertex -1.887943e+02 5.573767e+01 -4.660872e+02
      vertex -1.882640e+02 5.576457e+01 -4.663053e+02
      vertex -1.890140e+02 5.551961e+01 -4.643203e+02
    endloop
  endfacet
  facet normal -3.319588e-13 -9.924710e-01 -1.224800e-01
    outer loop
      vertex -1.672372e+01 5.574557e+01 -4.661513e+02
      vertex -1.890140e+02 5.551961e+01 -4.643203e+02
      vertex -1.718043e+01 5.576457e+01 -4.663053e+02
    endloop
  endfacet
  facet normal -3.325347e-13 -9.924710e-01 -1.224800e-01
    outer loop
      vertex -1.626758e+01 5.560906e+01 -4.650451e+02
      vertex -1.890140e+02 5.551961e+01 -4.643203e+02
      vertex -1.645588e+01 5.569644e+01 -4.657532e+02
    endloop
  endfacet
  facet normal -3.324314e-13 -9.924710e-01 -1.224800e-01
    outer loop
      vertex -1.672372e+01 5.574557e+01 -4.661513e+02
      vertex -1.645588e+01 5.569644e+01 -4.657532e+02
      vertex -1.890140e+02 5.551961e+01 -4.643203e+02
    endloop
  endfacet
  facet normal -3.325984e-13 -9.924710e-01 -1.224800e-01
    outer loop
      vertex -1.607990e+01 5.551961e+01 -4.643203e+02
      vertex -1.890140e+02 5.551961e+01 -4.643203e+02
      vertex -1.626758e+01 5.560906e+01 -4.650451e+02
    endloop
  endfacet
  facet normal -9.238695e-01 4.687403e-02 -3.798262e-01
    outer loop
      vertex -1.887943e+02 5.666861e+01 -4.659724e+02
      vertex -1.890140e+02 5.567271e+01 -4.655609e+02
      vertex -1.890140e+02 5.660366e+01 -4.654460e+02
    endloop
  endfacet
  facet normal -9.238695e-01 4.687403e-02 -3.798262e-01
    outer loop
      vertex -1.887943e+02 5.573767e+01 -4.660872e+02
      vertex -1.890140e+02 5.567271e+01 -4.655609e+02
      vertex -1.887943e+02 5.666861e+01 -4.659724e+02
    endloop
  endfacet
  facet normal -1.000000e+00 -5.164412e-15 2.729454e-12
    outer loop
      vertex -1.890140e+02 6.048444e+01 -4.679899e+02
      vertex -1.890140e+02 5.697110e+01 -4.684234e+02
      vertex -1.890140e+02 5.660366e+01 -4.654460e+02
    endloop
  endfacet
  facet normal -3.298859e-13 -9.924710e-01 -1.224800e-01
    outer loop
      vertex -1.887943e+02 5.666861e+01 -4.659724e+02
      vertex -1.890140e+02 5.660366e+01 -4.654460e+02
      vertex -1.890140e+02 5.697110e+01 -4.684234e+02
    endloop
  endfacet
  facet normal -2.709826e-12 1.224800e-01 -9.924710e-01
    outer loop
      vertex -1.724473e+01 6.048444e+01 -4.679899e+02
      vertex -1.890140e+02 5.697110e+01 -4.684234e+02
      vertex -1.890140e+02 6.048444e+01 -4.679899e+02
    endloop
  endfacet
  facet normal -2.709831e-12 1.224800e-01 -9.924710e-01
    outer loop
      vertex -1.724473e+01 6.048444e+01 -4.679899e+02
      vertex -1.724473e+01 5.697110e+01 -4.684234e+02
      vertex -1.890140e+02 5.697110e+01 -4.684234e+02
    endloop
  endfacet
  facet normal -3.325839e-13 -9.924710e-01 -1.224800e-01
    outer loop
      vertex -1.882640e+02 5.669552e+01 -4.661904e+02
      vertex -1.890140e+02 5.697110e+01 -4.684234e+02
      vertex -1.724473e+01 5.697110e+01 -4.684234e+02
    endloop
  endfacet
  facet normal -3.610634e-13 -9.924710e-01 -1.224800e-01
    outer loop
      vertex -1.887943e+02 5.666861e+01 -4.659724e+02
      vertex -1.890140e+02 5.697110e+01 -4.684234e+02
      vertex -1.882640e+02 5.669552e+01 -4.661904e+02
    endloop
  endfacet
  facet normal -1.000000e+00 -1.930937e-14 2.727666e-12
    outer loop
      vertex -1.890140e+02 5.031681e+01 -3.939771e+02
      vertex -1.890140e+02 5.119423e+01 -3.927101e+02
      vertex -1.890140e+02 6.048444e+01 -4.679899e+02
    endloop
  endfacet
  facet normal 3.335767e-13 9.924710e-01 1.224800e-01
    outer loop
      vertex -1.722050e+02 5.690180e+01 -4.389593e+02
      vertex -1.890140e+02 6.048444e+01 -4.679899e+02
      vertex -1.890140e+02 5.119423e+01 -3.927101e+02
    endloop
  endfacet
  facet normal -1.000000e+00 -1.871302e-13 2.704611e-12
    outer loop
      vertex -1.890140e+02 5.080673e+01 -3.979470e+02
      vertex -1.890140e+02 5.031681e+01 -3.939771e+02
      vertex -1.890140e+02 6.048444e+01 -4.679899e+02
    endloop
  endfacet
  facet normal 3.326235e-13 9.924710e-01 1.224800e-01
    outer loop
      vertex -7.496400e+01 5.726924e+01 -4.419367e+02
      vertex -1.724473e+01 6.048444e+01 -4.679899e+02
      vertex -1.890140e+02 6.048444e+01 -4.679899e+02
    endloop
  endfacet
  facet normal 3.325459e-13 9.924710e-01 1.224800e-01
    outer loop
      vertex -1.722050e+02 5.726924e+01 -4.419367e+02
      vertex -7.496400e+01 5.726924e+01 -4.419367e+02
      vertex -1.890140e+02 6.048444e+01 -4.679899e+02
    endloop
  endfacet
  facet normal 3.242934e-13 9.924710e-01 1.224800e-01
    outer loop
      vertex -1.722050e+02 5.690180e+01 -4.389593e+02
      vertex -1.722050e+02 5.726924e+01 -4.419367e+02
      vertex -1.890140e+02 6.048444e+01 -4.679899e+02
    endloop
  endfacet
  facet normal -1.000000e+00 -8.403201e-15 2.720113e-12
    outer loop
      vertex -1.890140e+02 5.031681e+01 -3.939771e+02
      vertex -1.890140e+02 4.806795e+01 -3.930959e+02
      vertex -1.890140e+02 5.119423e+01 -3.927101e+02
    endloop
  endfacet
  facet normal 2.711045e-12 -1.224800e-01 9.924710e-01
    outer loop
      vertex -1.179640e+02 4.806795e+01 -3.930959e+02
      vertex -1.890140e+02 5.119423e+01 -3.927101e+02
      vertex -1.890140e+02 4.806795e+01 -3.930959e+02
    endloop
  endfacet
  facet normal 2.711020e-12 -1.224800e-01 9.924710e-01
    outer loop
      vertex -1.179640e+02 5.119423e+01 -3.927101e+02
      vertex -1.890140e+02 5.119423e+01 -3.927101e+02
      vertex -1.179640e+02 4.806795e+01 -3.930959e+02
    endloop
  endfacet
  facet normal 3.327582e-13 9.924710e-01 1.224800e-01
    outer loop
      vertex -1.722050e+02 5.690180e+01 -4.389593e+02
      vertex -1.890140e+02 5.119423e+01 -3.927101e+02
      vertex -1.179640e+02 5.119423e+01 -3.927101e+02
    endloop
  endfacet
  facet normal -1.000000e+00 -9.621364e-16 2.739103e-12
    outer loop
      vertex -1.890140e+02 5.031681e+01 -3.939771e+02
      vertex -1.890140e+02 4.820880e+01 -3.942373e+02
      vertex -1.890140e+02 4.806795e+01 -3.930959e+02
    endloop
  endfacet
  facet normal -3.816708e-13 -9.924710e-01 -1.224800e-01
    outer loop
      vertex -1.887943e+02 4.827376e+01 -3.947636e+02
      vertex -1.890140e+02 4.806795e+01 -3.930959e+02
      vertex -1.890140e+02 4.820880e+01 -3.942373e+02
    endloop
  endfacet
  facet normal -3.325524e-13 -9.924710e-01 -1.224800e-01
    outer loop
      vertex -1.179640e+02 4.806795e+01 -3.930959e+02
      vertex -1.890140e+02 4.806795e+01 -3.930959e+02
      vertex -1.882640e+02 4.830066e+01 -3.949816e+02
    endloop
  endfacet
  facet normal -3.413694e-13 -9.924710e-01 -1.224800e-01
    outer loop
      vertex -1.887943e+02 4.827376e+01 -3.947636e+02
      vertex -1.882640e+02 4.830066e+01 -3.949816e+02
      vertex -1.890140e+02 4.806795e+01 -3.930959e+02
    endloop
  endfacet
  facet normal -9.238695e-01 4.687403e-02 -3.798262e-01
    outer loop
      vertex -1.887943e+02 5.038176e+01 -3.945034e+02
      vertex -1.890140e+02 4.820880e+01 -3.942373e+02
      vertex -1.890140e+02 5.031681e+01 -3.939771e+02
    endloop
  endfacet
  facet normal -9.238695e-01 4.687403e-02 -3.798262e-01
    outer loop
      vertex -1.887943e+02 4.827376e+01 -3.947636e+02
      vertex -1.890140e+02 4.820880e+01 -3.942373e+02
      vertex -1.887943e+02 5.038176e+01 -3.945034e+02
    endloop
  endfacet
  facet normal -3.518067e-13 -9.924710e-01 -1.224800e-01
    outer loop
      vertex -1.887943e+02 5.074178e+01 -3.974207e+02
      vertex -1.890140e+02 5.031681e+01 -3.939771e+02
      vertex -1.890140e+02 5.080673e+01 -3.979470e+02
    endloop
  endfacet
  facet normal -3.452450e-13 -9.924710e-01 -1.224800e-01
    outer loop
      vertex -1.887943e+02 5.074178e+01 -3.974207e+02
      vertex -1.887943e+02 5.038176e+01 -3.945034e+02
      vertex -1.890140e+02 5.031681e+01 -3.939771e+02
    endloop
  endfacet
  facet normal -9.238695e-01 -4.687403e-02 3.798262e-01
    outer loop
      vertex -1.887943e+02 4.796826e+01 -3.977630e+02
      vertex -1.887943e+02 5.074178e+01 -3.974207e+02
      vertex -1.890140e+02 5.080673e+01 -3.979470e+02
    endloop
  endfacet
  facet normal 9.709570e-01 2.930383e-02 -2.374526e-01
    outer loop
      vertex -1.476062e+01 5.924970e+01 -4.579846e+02
      vertex -1.724473e+01 5.697110e+01 -4.684234e+02
      vertex -1.724473e+01 6.048444e+01 -4.679899e+02
    endloop
  endfacet
  facet normal -3.325334e-13 -9.924710e-01 -1.224800e-01
    outer loop
      vertex -1.718043e+01 5.669552e+01 -4.661904e+02
      vertex -1.882640e+02 5.669552e+01 -4.661904e+02
      vertex -1.724473e+01 5.697110e+01 -4.684234e+02
    endloop
  endfacet
  facet normal -3.515289e-13 -9.924710e-01 -1.224800e-01
    outer loop
      vertex -1.685008e+01 5.680335e+01 -4.670642e+02
      vertex -1.718043e+01 5.669552e+01 -4.661904e+02
      vertex -1.724473e+01 5.697110e+01 -4.684234e+02
    endloop
  endfacet
  facet normal 9.546893e-01 1.463535e-01 -2.591311e-01
    outer loop
      vertex -1.476062e+01 5.924970e+01 -4.579846e+02
      vertex -1.685008e+01 5.680335e+01 -4.670642e+02
      vertex -1.724473e+01 5.697110e+01 -4.684234e+02
    endloop
  endfacet
  facet normal 3.335166e-13 9.924710e-01 1.224800e-01
    outer loop
      vertex -1.441160e+01 5.322743e+01 -4.091853e+02
      vertex -1.476062e+01 5.924970e+01 -4.579846e+02
      vertex -1.724473e+01 6.048444e+01 -4.679899e+02
    endloop
  endfacet
  facet normal 3.310795e-13 9.924710e-01 1.224800e-01
    outer loop
      vertex -1.750991e+01 5.132896e+01 -3.938018e+02
      vertex -1.441160e+01 5.322743e+01 -4.091853e+02
      vertex -1.724473e+01 6.048444e+01 -4.679899e+02
    endloop
  endfacet
  facet normal 3.327587e-13 9.924710e-01 1.224800e-01
    outer loop
      vertex -7.496400e+01 5.726924e+01 -4.419367e+02
      vertex -1.750991e+01 5.132896e+01 -3.938018e+02
      vertex -1.724473e+01 6.048444e+01 -4.679899e+02
    endloop
  endfacet
  facet normal -2.709480e-12 1.224800e-01 -9.924710e-01
    outer loop
      vertex -1.882640e+02 5.576457e+01 -4.663053e+02
      vertex -1.882640e+02 5.669552e+01 -4.661904e+02
      vertex -1.718043e+01 5.669552e+01 -4.661904e+02
    endloop
  endfacet
  facet normal -3.827076e-01 1.131555e-01 -9.169137e-01
    outer loop
      vertex -1.887943e+02 5.573767e+01 -4.660872e+02
      vertex -1.887943e+02 5.666861e+01 -4.659724e+02
      vertex -1.882640e+02 5.669552e+01 -4.661904e+02
    endloop
  endfacet
  facet normal -3.827076e-01 1.131555e-01 -9.169137e-01
    outer loop
      vertex -1.887943e+02 5.573767e+01 -4.660872e+02
      vertex -1.882640e+02 5.669552e+01 -4.661904e+02
      vertex -1.882640e+02 5.576457e+01 -4.663053e+02
    endloop
  endfacet
  facet normal -3.194581e-13 -9.924710e-01 -1.224800e-01
    outer loop
      vertex -1.685008e+01 5.680335e+01 -4.670642e+02
      vertex -1.672372e+01 5.667652e+01 -4.660364e+02
      vertex -1.718043e+01 5.669552e+01 -4.661904e+02
    endloop
  endfacet
  facet normal 3.216048e-01 1.159731e-01 -9.397450e-01
    outer loop
      vertex -1.718043e+01 5.576457e+01 -4.663053e+02
      vertex -1.718043e+01 5.669552e+01 -4.661904e+02
      vertex -1.672372e+01 5.667652e+01 -4.660364e+02
    endloop
  endfacet
  facet normal -2.709480e-12 1.224800e-01 -9.924710e-01
    outer loop
      vertex -1.718043e+01 5.576457e+01 -4.663053e+02
      vertex -1.882640e+02 5.576457e+01 -4.663053e+02
      vertex -1.718043e+01 5.669552e+01 -4.661904e+02
    endloop
  endfacet
  facet normal -4.738835e-13 -9.924710e-01 -1.224800e-01
    outer loop
      vertex -1.685008e+01 5.680335e+01 -4.670642e+02
      vertex -1.645588e+01 5.662738e+01 -4.656383e+02
      vertex -1.672372e+01 5.667652e+01 -4.660364e+02
    endloop
  endfacet
  facet normal 8.316669e-01 6.801007e-02 -5.510942e-01
    outer loop
      vertex -1.672372e+01 5.574557e+01 -4.661513e+02
      vertex -1.672372e+01 5.667652e+01 -4.660364e+02
      vertex -1.645588e+01 5.662738e+01 -4.656383e+02
    endloop
  endfacet
  facet normal 3.216048e-01 1.159731e-01 -9.397450e-01
    outer loop
      vertex -1.672372e+01 5.574557e+01 -4.661513e+02
      vertex -1.718043e+01 5.576457e+01 -4.663053e+02
      vertex -1.672372e+01 5.667652e+01 -4.660364e+02
    endloop
  endfacet
  facet normal 9.611395e-01 1.133449e-01 -2.517219e-01
    outer loop
      vertex -1.476062e+01 5.924970e+01 -4.579846e+02
      vertex -1.645588e+01 5.662738e+01 -4.656383e+02
      vertex -1.685008e+01 5.680335e+01 -4.670642e+02
    endloop
  endfacet
  facet normal 9.739069e-01 2.779659e-02 -2.252393e-01
    outer loop
      vertex -1.645588e+01 5.569644e+01 -4.657532e+02
      vertex -1.645588e+01 5.662738e+01 -4.656383e+02
      vertex -1.476062e+01 5.924970e+01 -4.579846e+02
    endloop
  endfacet
  facet normal 8.316669e-01 6.801007e-02 -5.510942e-01
    outer loop
      vertex -1.672372e+01 5.574557e+01 -4.661513e+02
      vertex -1.645588e+01 5.662738e+01 -4.656383e+02
      vertex -1.645588e+01 5.569644e+01 -4.657532e+02
    endloop
  endfacet
  facet normal -3.028948e-13 -9.936217e-01 -1.127650e-01
    outer loop
      vertex -1.409502e+01 5.437166e+01 -4.549184e+02
      vertex -1.406351e+01 4.949459e+01 -4.119444e+02
      vertex -1.631511e+01 4.808705e+01 -3.995420e+02
    endloop
  endfacet
  facet normal 9.841153e-01 -2.174390e-02 1.761936e-01
    outer loop
      vertex -1.631511e+01 4.818630e+01 -3.995298e+02
      vertex -1.631511e+01 4.808705e+01 -3.995420e+02
      vertex -1.406351e+01 4.949459e+01 -4.119444e+02
    endloop
  endfacet
  facet normal -2.999765e-13 -9.936217e-01 -1.127650e-01
    outer loop
      vertex -1.607990e+01 5.543979e+01 -4.643302e+02
      vertex -1.409502e+01 5.437166e+01 -4.549184e+02
      vertex -1.631511e+01 4.808705e+01 -3.995420e+02
    endloop
  endfacet
  facet normal -3.063809e-13 -9.936217e-01 -1.127650e-01
    outer loop
      vertex -7.346400e+01 5.278959e+01 -4.409781e+02
      vertex -1.607990e+01 5.543979e+01 -4.643302e+02
      vertex -1.631511e+01 4.808705e+01 -3.995420e+02
    endloop
  endfacet
  facet normal -2.993547e-13 -9.936217e-01 -1.127650e-01
    outer loop
      vertex -7.346400e+01 5.278959e+01 -4.409781e+02
      vertex -1.631511e+01 4.808705e+01 -3.995420e+02
      vertex -7.496400e+01 5.262043e+01 -4.394876e+02
    endloop
  endfacet
  facet normal -3.041296e-13 -9.936217e-01 -1.127650e-01
    outer loop
      vertex -1.284400e+01 5.323573e+01 -4.449092e+02
      vertex -1.284400e+01 5.071246e+01 -4.226756e+02
      vertex -1.406351e+01 4.949459e+01 -4.119444e+02
    endloop
  endfacet
  facet normal 9.934605e-01 8.481002e-03 1.138610e-01
    outer loop
      vertex -1.441160e+01 5.322743e+01 -4.091853e+02
      vertex -1.406351e+01 4.949459e+01 -4.119444e+02
      vertex -1.284400e+01 5.071246e+01 -4.226756e+02
    endloop
  endfacet
  facet normal -3.121479e-13 -9.936217e-01 -1.127650e-01
    outer loop
      vertex -1.409502e+01 5.437166e+01 -4.549184e+02
      vertex -1.284400e+01 5.323573e+01 -4.449092e+02
      vertex -1.406351e+01 4.949459e+01 -4.119444e+02
    endloop
  endfacet
  facet normal 9.839472e-01 -3.724891e-02 1.745291e-01
    outer loop
      vertex -1.631511e+01 4.818630e+01 -3.995298e+02
      vertex -1.406351e+01 4.949459e+01 -4.119444e+02
      vertex -1.441160e+01 5.322743e+01 -4.091853e+02
    endloop
  endfacet
  facet normal 7.071068e-01 -7.025966e-01 -7.973687e-02
    outer loop
      vertex -1.239397e+01 5.245604e+01 -4.340482e+02
      vertex -1.284400e+01 5.071246e+01 -4.226756e+02
      vertex -1.284400e+01 5.323573e+01 -4.449092e+02
    endloop
  endfacet
  facet normal 9.928956e-01 -1.457322e-02 1.180933e-01
    outer loop
      vertex -1.441160e+01 5.322743e+01 -4.091853e+02
      vertex -1.284400e+01 5.071246e+01 -4.226756e+02
      vertex -1.284400e+01 5.482956e+01 -4.221676e+02
    endloop
  endfacet
  facet normal 9.992353e-01 -4.789665e-03 3.880679e-02
    outer loop
      vertex -1.239397e+01 5.245604e+01 -4.340482e+02
      vertex -1.284400e+01 5.482956e+01 -4.221676e+02
      vertex -1.284400e+01 5.071246e+01 -4.226756e+02
    endloop
  endfacet
  facet normal 9.923758e-01 1.509603e-02 -1.223208e-01
    outer loop
      vertex -1.284400e+01 5.757007e+01 -4.443743e+02
      vertex -1.284400e+01 5.323573e+01 -4.449092e+02
      vertex -1.409502e+01 5.437166e+01 -4.549184e+02
    endloop
  endfacet
  facet normal 9.991440e-01 5.066184e-03 -4.105618e-02
    outer loop
      vertex -1.239398e+01 5.579217e+01 -4.336420e+02
      vertex -1.284400e+01 5.323573e+01 -4.449092e+02
      vertex -1.284400e+01 5.757007e+01 -4.443743e+02
    endloop
  endfacet
  facet normal 9.991450e-01 4.998793e-03 -4.104093e-02
    outer loop
      vertex -1.239398e+01 5.579217e+01 -4.336420e+02
      vertex -1.239397e+01 5.245604e+01 -4.340482e+02
      vertex -1.284400e+01 5.323573e+01 -4.449092e+02
    endloop
  endfacet
  facet normal 9.785627e-01 4.097745e-03 -2.059082e-01
    outer loop
      vertex -1.476062e+01 5.924970e+01 -4.579846e+02
      vertex -1.409502e+01 5.437166e+01 -4.549184e+02
      vertex -1.607990e+01 5.543979e+01 -4.643302e+02
    endloop
  endfacet
  facet normal 9.897760e-01 5.143303e-02 -1.330346e-01
    outer loop
      vertex -1.284400e+01 5.757007e+01 -4.443743e+02
      vertex -1.409502e+01 5.437166e+01 -4.549184e+02
      vertex -1.476062e+01 5.924970e+01 -4.579846e+02
    endloop
  endfacet
  facet normal -3.059500e-13 -9.936217e-01 -1.127650e-01
    outer loop
      vertex -7.496400e+01 5.295874e+01 -4.424686e+02
      vertex -1.722050e+02 5.295874e+01 -4.424686e+02
      vertex -1.607990e+01 5.543979e+01 -4.643302e+02
    endloop
  endfacet
  facet normal -3.052763e-13 -9.936217e-01 -1.127650e-01
    outer loop
      vertex -7.346400e+01 5.278959e+01 -4.409781e+02
      vertex -7.496400e+01 5.295874e+01 -4.424686e+02
      vertex -1.607990e+01 5.543979e+01 -4.643302e+02
    endloop
  endfacet
  facet normal 9.753489e-01 2.702747e-02 -2.190070e-01
    outer loop
      vertex -1.607990e+01 5.551961e+01 -4.643203e+02
      vertex -1.476062e+01 5.924970e+01 -4.579846e+02
      vertex -1.607990e+01 5.543979e+01 -4.643302e+02
    endloop
  endfacet
  facet normal -2.710728e-12 1.224800e-01 -9.924710e-01
    outer loop
      vertex -7.496400e+01 5.690180e+01 -4.389593e+02
      vertex -7.496400e+01 5.262043e+01 -4.394876e+02
      vertex -1.722050e+02 5.262043e+01 -4.394876e+02
    endloop
  endfacet
  facet normal -7.071068e-01 8.660644e-02 -7.017830e-01
    outer loop
      vertex -7.346400e+01 5.708552e+01 -4.404480e+02
      vertex -7.346400e+01 5.278959e+01 -4.409781e+02
      vertex -7.496400e+01 5.262043e+01 -4.394876e+02
    endloop
  endfacet
  facet normal -7.071068e-01 8.660644e-02 -7.017830e-01
    outer loop
      vertex -7.346400e+01 5.708552e+01 -4.404480e+02
      vertex -7.496400e+01 5.262043e+01 -4.394876e+02
      vertex -7.496400e+01 5.690180e+01 -4.389593e+02
    endloop
  endfacet
  facet normal 1.000000e+00 2.349114e-16 -2.726772e-12
    outer loop
      vertex -1.722050e+02 5.726924e+01 -4.419367e+02
      vertex -1.722050e+02 5.262043e+01 -4.394876e+02
      vertex -1.722050e+02 5.295874e+01 -4.424686e+02
    endloop
  endfacet
  facet normal -2.709576e-12 1.224800e-01 -9.924710e-01
    outer loop
      vertex -1.722050e+02 5.690180e+01 -4.389593e+02
      vertex -7.496400e+01 5.690180e+01 -4.389593e+02
      vertex -1.722050e+02 5.262043e+01 -4.394876e+02
    endloop
  endfacet
  facet normal 1.000000e+00 3.759767e-15 -2.720081e-12
    outer loop
      vertex -1.722050e+02 5.690180e+01 -4.389593e+02
      vertex -1.722050e+02 5.262043e+01 -4.394876e+02
      vertex -1.722050e+02 5.726924e+01 -4.419367e+02
    endloop
  endfacet
  facet normal 2.709585e-12 -1.224800e-01 9.924710e-01
    outer loop
      vertex -1.722050e+02 5.726924e+01 -4.419367e+02
      vertex -1.722050e+02 5.295874e+01 -4.424686e+02
      vertex -7.496400e+01 5.295874e+01 -4.424686e+02
    endloop
  endfacet
  facet normal -7.071068e-01 -8.660644e-02 7.017830e-01
    outer loop
      vertex -7.496400e+01 5.726924e+01 -4.419367e+02
      vertex -7.496400e+01 5.295874e+01 -4.424686e+02
      vertex -7.346400e+01 5.278959e+01 -4.409781e+02
    endloop
  endfacet
  facet normal 2.709576e-12 -1.224800e-01 9.924710e-01
    outer loop
      vertex -1.722050e+02 5.726924e+01 -4.419367e+02
      vertex -7.496400e+01 5.295874e+01 -4.424686e+02
      vertex -7.496400e+01 5.726924e+01 -4.419367e+02
    endloop
  endfacet
  facet normal -7.071068e-01 -8.660644e-02 7.017830e-01
    outer loop
      vertex -7.496400e+01 5.726924e+01 -4.419367e+02
      vertex -7.346400e+01 5.278959e+01 -4.409781e+02
      vertex -7.346400e+01 5.708552e+01 -4.404480e+02
    endloop
  endfacet
  facet normal 2.709571e-12 -1.224800e-01 9.924710e-01
    outer loop
      vertex -1.882640e+02 5.071487e+01 -3.972027e+02
      vertex -1.882640e+02 4.794135e+01 -3.975449e+02
      vertex -1.735269e+01 4.794135e+01 -3.975449e+02
    endloop
  endfacet
  facet normal -3.325426e-13 -9.924710e-01 -1.224800e-01
    outer loop
      vertex -1.631511e+01 4.818630e+01 -3.995298e+02
      vertex -1.735269e+01 4.794135e+01 -3.975449e+02
      vertex -1.882640e+02 4.794135e+01 -3.975449e+02
    endloop
  endfacet
  facet normal 2.709560e-12 -1.224800e-01 9.924710e-01
    outer loop
      vertex -1.735269e+01 5.071487e+01 -3.972027e+02
      vertex -1.882640e+02 5.071487e+01 -3.972027e+02
      vertex -1.735269e+01 4.794135e+01 -3.975449e+02
    endloop
  endfacet
  facet normal 3.322145e-01 -1.155236e-01 9.361025e-01
    outer loop
      vertex -1.688268e+01 4.796163e+01 -3.977092e+02
      vertex -1.735269e+01 5.071487e+01 -3.972027e+02
      vertex -1.735269e+01 4.794135e+01 -3.975449e+02
    endloop
  endfacet
  facet normal -3.437918e-13 -9.924710e-01 -1.224800e-01
    outer loop
      vertex -1.688268e+01 4.796163e+01 -3.977092e+02
      vertex -1.735269e+01 4.794135e+01 -3.975449e+02
      vertex -1.631511e+01 4.818630e+01 -3.995298e+02
    endloop
  endfacet
  facet normal -3.827076e-01 -1.131555e-01 9.169137e-01
    outer loop
      vertex -1.887943e+02 5.074178e+01 -3.974207e+02
      vertex -1.882640e+02 4.794135e+01 -3.975449e+02
      vertex -1.882640e+02 5.071487e+01 -3.972027e+02
    endloop
  endfacet
  facet normal -3.827076e-01 -1.131555e-01 9.169137e-01
    outer loop
      vertex -1.887943e+02 4.796826e+01 -3.977630e+02
      vertex -1.882640e+02 4.794135e+01 -3.975449e+02
      vertex -1.887943e+02 5.074178e+01 -3.974207e+02
    endloop
  endfacet
  facet normal -3.322975e-13 -9.924710e-01 -1.224800e-01
    outer loop
      vertex -1.887943e+02 4.796826e+01 -3.977630e+02
      vertex -1.631511e+01 4.818630e+01 -3.995298e+02
      vertex -1.882640e+02 4.794135e+01 -3.975449e+02
    endloop
  endfacet
  facet normal -3.326252e-13 -9.924710e-01 -1.224800e-01
    outer loop
      vertex -1.882640e+02 5.040867e+01 -3.947215e+02
      vertex -1.882640e+02 5.071487e+01 -3.972027e+02
      vertex -1.735269e+01 5.071487e+01 -3.972027e+02
    endloop
  endfacet
  facet normal -3.364781e-13 -9.924710e-01 -1.224800e-01
    outer loop
      vertex -1.882640e+02 5.040867e+01 -3.947215e+02
      vertex -1.887943e+02 5.038176e+01 -3.945034e+02
      vertex -1.882640e+02 5.071487e+01 -3.972027e+02
    endloop
  endfacet
  facet normal -3.448439e-13 -9.924710e-01 -1.224800e-01
    outer loop
      vertex -1.887943e+02 5.074178e+01 -3.974207e+02
      vertex -1.882640e+02 5.071487e+01 -3.972027e+02
      vertex -1.887943e+02 5.038176e+01 -3.945034e+02
    endloop
  endfacet
  facet normal -3.325940e-13 -9.924710e-01 -1.224800e-01
    outer loop
      vertex -1.825824e+01 5.040867e+01 -3.947215e+02
      vertex -1.882640e+02 5.040867e+01 -3.947215e+02
      vertex -1.735269e+01 5.071487e+01 -3.972027e+02
    endloop
  endfacet
  facet normal -3.525482e-13 -9.924710e-01 -1.224800e-01
    outer loop
      vertex -1.771054e+01 5.037956e+01 -3.944856e+02
      vertex -1.825824e+01 5.040867e+01 -3.947215e+02
      vertex -1.735269e+01 5.071487e+01 -3.972027e+02
    endloop
  endfacet
  facet normal -2.973926e-13 -9.924710e-01 -1.224800e-01
    outer loop
      vertex -1.750991e+01 5.031069e+01 -3.939275e+02
      vertex -1.771054e+01 5.037956e+01 -3.944856e+02
      vertex -1.735269e+01 5.071487e+01 -3.972027e+02
    endloop
  endfacet
  facet normal -3.575168e-13 -9.924710e-01 -1.224800e-01
    outer loop
      vertex -1.705347e+01 5.055032e+01 -3.958693e+02
      vertex -1.750991e+01 5.031069e+01 -3.939275e+02
      vertex -1.735269e+01 5.071487e+01 -3.972027e+02
    endloop
  endfacet
  facet normal -3.194067e-13 -9.924710e-01 -1.224800e-01
    outer loop
      vertex -1.688268e+01 5.073515e+01 -3.973670e+02
      vertex -1.705347e+01 5.055032e+01 -3.958693e+02
      vertex -1.735269e+01 5.071487e+01 -3.972027e+02
    endloop
  endfacet
  facet normal 3.322145e-01 -1.155236e-01 9.361025e-01
    outer loop
      vertex -1.688268e+01 4.796163e+01 -3.977092e+02
      vertex -1.688268e+01 5.073515e+01 -3.973670e+02
      vertex -1.735269e+01 5.071487e+01 -3.972027e+02
    endloop
  endfacet
  facet normal -3.827076e-01 1.131555e-01 -9.169137e-01
    outer loop
      vertex -1.887943e+02 4.827376e+01 -3.947636e+02
      vertex -1.887943e+02 5.038176e+01 -3.945034e+02
      vertex -1.882640e+02 5.040867e+01 -3.947215e+02
    endloop
  endfacet
  facet normal -2.710066e-12 1.224800e-01 -9.924710e-01
    outer loop
      vertex -1.882640e+02 4.830066e+01 -3.949816e+02
      vertex -1.882640e+02 5.040867e+01 -3.947215e+02
      vertex -1.825824e+01 5.040867e+01 -3.947215e+02
    endloop
  endfacet
  facet normal -3.827076e-01 1.131555e-01 -9.169137e-01
    outer loop
      vertex -1.887943e+02 4.827376e+01 -3.947636e+02
      vertex -1.882640e+02 5.040867e+01 -3.947215e+02
      vertex -1.882640e+02 4.830066e+01 -3.949816e+02
    endloop
  endfacet
  facet normal 3.980660e-01 1.123579e-01 -9.104500e-01
    outer loop
      vertex -1.825824e+01 4.830066e+01 -3.949816e+02
      vertex -1.825824e+01 5.040867e+01 -3.947215e+02
      vertex -1.771054e+01 5.037956e+01 -3.944856e+02
    endloop
  endfacet
  facet normal -2.709392e-12 1.224800e-01 -9.924710e-01
    outer loop
      vertex -1.825824e+01 4.830066e+01 -3.949816e+02
      vertex -1.882640e+02 4.830066e+01 -3.949816e+02
      vertex -1.825824e+01 5.040867e+01 -3.947215e+02
    endloop
  endfacet
  facet normal 9.418537e-01 4.115613e-02 -3.334934e-01
    outer loop
      vertex -1.771054e+01 4.827155e+01 -3.947457e+02
      vertex -1.771054e+01 5.037956e+01 -3.944856e+02
      vertex -1.750991e+01 5.031069e+01 -3.939275e+02
    endloop
  endfacet
  facet normal 3.980660e-01 1.123579e-01 -9.104500e-01
    outer loop
      vertex -1.771054e+01 4.827155e+01 -3.947457e+02
      vertex -1.825824e+01 4.830066e+01 -3.949816e+02
      vertex -1.771054e+01 5.037956e+01 -3.944856e+02
    endloop
  endfacet
  facet normal 9.738488e-01 -2.782711e-02 2.254866e-01
    outer loop
      vertex -1.750991e+01 5.132896e+01 -3.938018e+02
      vertex -1.750991e+01 5.031069e+01 -3.939275e+02
      vertex -1.705347e+01 5.055032e+01 -3.958693e+02
    endloop
  endfacet
  facet normal 9.418537e-01 4.115613e-02 -3.334934e-01
    outer loop
      vertex -1.771054e+01 4.827155e+01 -3.947457e+02
      vertex -1.750991e+01 5.031069e+01 -3.939275e+02
      vertex -1.750991e+01 4.820268e+01 -3.941876e+02
    endloop
  endfacet
  facet normal 2.708911e-12 -1.224800e-01 9.924710e-01
    outer loop
      vertex -1.178140e+02 5.132896e+01 -3.938018e+02
      vertex -1.750991e+01 4.820268e+01 -3.941876e+02
      vertex -1.750991e+01 5.031069e+01 -3.939275e+02
    endloop
  endfacet
  facet normal 2.710064e-12 -1.224800e-01 9.924710e-01
    outer loop
      vertex -1.178140e+02 5.132896e+01 -3.938018e+02
      vertex -1.750991e+01 5.031069e+01 -3.939275e+02
      vertex -1.750991e+01 5.132896e+01 -3.938018e+02
    endloop
  endfacet
  facet normal -3.924361e-13 -9.924710e-01 -1.224800e-01
    outer loop
      vertex -1.688268e+01 5.073515e+01 -3.973670e+02
      vertex -1.662015e+01 5.078703e+01 -3.977873e+02
      vertex -1.705347e+01 5.055032e+01 -3.958693e+02
    endloop
  endfacet
  facet normal 9.756352e-01 -1.000995e-02 2.191706e-01
    outer loop
      vertex -1.750991e+01 5.132896e+01 -3.938018e+02
      vertex -1.705347e+01 5.055032e+01 -3.958693e+02
      vertex -1.662015e+01 5.078703e+01 -3.977873e+02
    endloop
  endfacet
  facet normal 8.499821e-01 -6.452389e-02 5.228452e-01
    outer loop
      vertex -1.662015e+01 4.801351e+01 -3.981296e+02
      vertex -1.662015e+01 5.078703e+01 -3.977873e+02
      vertex -1.688268e+01 5.073515e+01 -3.973670e+02
    endloop
  endfacet
  facet normal 9.749950e-01 8.210895e-02 2.065016e-01
    outer loop
      vertex -1.750991e+01 5.132896e+01 -3.938018e+02
      vertex -1.662015e+01 5.078703e+01 -3.977873e+02
      vertex -1.441160e+01 5.322743e+01 -4.091853e+02
    endloop
  endfacet
  facet normal 9.821108e-01 -1.076134e-02 1.879962e-01
    outer loop
      vertex -1.631511e+01 4.818630e+01 -3.995298e+02
      vertex -1.441160e+01 5.322743e+01 -4.091853e+02
      vertex -1.662015e+01 5.078703e+01 -3.977873e+02
    endloop
  endfacet
  facet normal 9.777574e-01 -2.484962e-02 2.082618e-01
    outer loop
      vertex -1.646586e+01 4.810023e+01 -3.988323e+02
      vertex -1.631511e+01 4.818630e+01 -3.995298e+02
      vertex -1.662015e+01 5.078703e+01 -3.977873e+02
    endloop
  endfacet
  facet normal 9.770688e-01 -2.607893e-02 2.113209e-01
    outer loop
      vertex -1.662015e+01 4.801351e+01 -3.981296e+02
      vertex -1.646586e+01 4.810023e+01 -3.988323e+02
      vertex -1.662015e+01 5.078703e+01 -3.977873e+02
    endloop
  endfacet
  facet normal 8.499821e-01 -6.452389e-02 5.228452e-01
    outer loop
      vertex -1.688268e+01 4.796163e+01 -3.977092e+02
      vertex -1.662015e+01 4.801351e+01 -3.981296e+02
      vertex -1.688268e+01 5.073515e+01 -3.973670e+02
    endloop
  endfacet
  facet normal -3.325950e-13 -9.924710e-01 -1.224800e-01
    outer loop
      vertex -1.178140e+02 4.820268e+01 -3.941876e+02
      vertex -1.882640e+02 4.830066e+01 -3.949816e+02
      vertex -1.825824e+01 4.830066e+01 -3.949816e+02
    endloop
  endfacet
  facet normal -3.325486e-13 -9.924710e-01 -1.224800e-01
    outer loop
      vertex -1.179140e+02 4.819043e+01 -3.940884e+02
      vertex -1.179640e+02 4.806795e+01 -3.930959e+02
      vertex -1.882640e+02 4.830066e+01 -3.949816e+02
    endloop
  endfacet
  facet normal -3.313446e-13 -9.924710e-01 -1.224800e-01
    outer loop
      vertex -1.178847e+02 4.819909e+01 -3.941586e+02
      vertex -1.179140e+02 4.819043e+01 -3.940884e+02
      vertex -1.882640e+02 4.830066e+01 -3.949816e+02
    endloop
  endfacet
  facet normal -3.352339e-13 -9.924710e-01 -1.224800e-01
    outer loop
      vertex -1.178140e+02 4.820268e+01 -3.941876e+02
      vertex -1.178847e+02 4.819909e+01 -3.941586e+02
      vertex -1.882640e+02 4.830066e+01 -3.949816e+02
    endloop
  endfacet
  facet normal -3.320232e-13 -9.924710e-01 -1.224800e-01
    outer loop
      vertex -1.771054e+01 4.827155e+01 -3.947457e+02
      vertex -1.178140e+02 4.820268e+01 -3.941876e+02
      vertex -1.825824e+01 4.830066e+01 -3.949816e+02
    endloop
  endfacet
  facet normal 1.083928e-13 -9.924710e-01 -1.224800e-01
    outer loop
      vertex -1.179140e+02 4.819043e+01 -3.940884e+02
      vertex -1.179140e+02 4.807407e+01 -3.931455e+02
      vertex -1.179640e+02 4.806795e+01 -3.930959e+02
    endloop
  endfacet
  facet normal 7.071068e-01 -8.660644e-02 7.017830e-01
    outer loop
      vertex -1.179140e+02 5.120036e+01 -3.927597e+02
      vertex -1.179640e+02 4.806795e+01 -3.930959e+02
      vertex -1.179140e+02 4.807407e+01 -3.931455e+02
    endloop
  endfacet
  facet normal 7.071068e-01 -8.660644e-02 7.017830e-01
    outer loop
      vertex -1.179140e+02 5.120036e+01 -3.927597e+02
      vertex -1.179640e+02 5.119423e+01 -3.927101e+02
      vertex -1.179640e+02 4.806795e+01 -3.930959e+02
    endloop
  endfacet
  facet normal 1.000000e+00 2.909319e-16 -2.728046e-12
    outer loop
      vertex -1.179140e+02 5.131671e+01 -3.937026e+02
      vertex -1.179140e+02 4.807407e+01 -3.931455e+02
      vertex -1.179140e+02 4.819043e+01 -3.940884e+02
    endloop
  endfacet
  facet normal 1.000000e+00 2.909319e-16 -2.728046e-12
    outer loop
      vertex -1.179140e+02 5.120036e+01 -3.927597e+02
      vertex -1.179140e+02 4.807407e+01 -3.931455e+02
      vertex -1.179140e+02 5.131671e+01 -3.937026e+02
    endloop
  endfacet
  facet normal 9.237749e-01 -4.690200e-02 3.800528e-01
    outer loop
      vertex -1.179140e+02 5.131671e+01 -3.937026e+02
      vertex -1.179140e+02 4.819043e+01 -3.940884e+02
      vertex -1.178847e+02 4.819909e+01 -3.941586e+02
    endloop
  endfacet
  facet normal 3.829360e-01 -1.131440e-01 9.168198e-01
    outer loop
      vertex -1.178847e+02 5.132537e+01 -3.937727e+02
      vertex -1.178847e+02 4.819909e+01 -3.941586e+02
      vertex -1.178140e+02 4.820268e+01 -3.941876e+02
    endloop
  endfacet
  facet normal 9.237749e-01 -4.690200e-02 3.800528e-01
    outer loop
      vertex -1.179140e+02 5.131671e+01 -3.937026e+02
      vertex -1.178847e+02 4.819909e+01 -3.941586e+02
      vertex -1.178847e+02 5.132537e+01 -3.937727e+02
    endloop
  endfacet
  facet normal -3.324542e-13 -9.924710e-01 -1.224800e-01
    outer loop
      vertex -1.771054e+01 4.827155e+01 -3.947457e+02
      vertex -1.750991e+01 4.820268e+01 -3.941876e+02
      vertex -1.178140e+02 4.820268e+01 -3.941876e+02
    endloop
  endfacet
  facet normal 2.708956e-12 -1.224800e-01 9.924710e-01
    outer loop
      vertex -1.178140e+02 5.132896e+01 -3.938018e+02
      vertex -1.178140e+02 4.820268e+01 -3.941876e+02
      vertex -1.750991e+01 4.820268e+01 -3.941876e+02
    endloop
  endfacet
  facet normal 3.829360e-01 -1.131440e-01 9.168198e-01
    outer loop
      vertex -1.178847e+02 5.132537e+01 -3.937727e+02
      vertex -1.178140e+02 4.820268e+01 -3.941876e+02
      vertex -1.178140e+02 5.132896e+01 -3.938018e+02
    endloop
  endfacet
  facet normal 1.352864e-13 9.924710e-01 1.224800e-01
    outer loop
      vertex -1.722050e+02 5.690180e+01 -4.389593e+02
      vertex -1.179640e+02 5.119423e+01 -3.927101e+02
      vertex -1.179140e+02 5.120036e+01 -3.927597e+02
    endloop
  endfacet
  facet normal 3.250773e-13 9.924710e-01 1.224800e-01
    outer loop
      vertex -1.284400e+01 5.482956e+01 -4.221676e+02
      vertex -1.284400e+01 5.757007e+01 -4.443743e+02
      vertex -1.476062e+01 5.924970e+01 -4.579846e+02
    endloop
  endfacet
  facet normal 3.361086e-13 9.924710e-01 1.224800e-01
    outer loop
      vertex -1.441160e+01 5.322743e+01 -4.091853e+02
      vertex -1.284400e+01 5.482956e+01 -4.221676e+02
      vertex -1.476062e+01 5.924970e+01 -4.579846e+02
    endloop
  endfacet
  facet normal 9.657519e-01 7.934585e-02 -2.470376e-01
    outer loop
      vertex -1.626758e+01 5.560906e+01 -4.650451e+02
      vertex -1.645588e+01 5.569644e+01 -4.657532e+02
      vertex -1.476062e+01 5.924970e+01 -4.579846e+02
    endloop
  endfacet
  facet normal 9.678005e-01 6.892096e-02 -2.420995e-01
    outer loop
      vertex -1.607990e+01 5.551961e+01 -4.643203e+02
      vertex -1.626758e+01 5.560906e+01 -4.650451e+02
      vertex -1.476062e+01 5.924970e+01 -4.579846e+02
    endloop
  endfacet
  facet normal 7.071068e-01 7.017830e-01 8.660644e-02
    outer loop
      vertex -1.239398e+01 5.579217e+01 -4.336420e+02
      vertex -1.284400e+01 5.757007e+01 -4.443743e+02
      vertex -1.284400e+01 5.482956e+01 -4.221676e+02
    endloop
  endfacet
  facet normal 9.992361e-01 -4.721797e-03 3.879326e-02
    outer loop
      vertex -1.239398e+01 5.579217e+01 -4.336420e+02
      vertex -1.284400e+01 5.482956e+01 -4.221676e+02
      vertex -1.239397e+01 5.245604e+01 -4.340482e+02
    endloop
  endfacet
  facet normal 3.327340e-13 9.924710e-01 1.224800e-01
    outer loop
      vertex -7.496400e+01 5.690180e+01 -4.389593e+02
      vertex -1.178140e+02 5.132896e+01 -3.938018e+02
      vertex -1.750991e+01 5.132896e+01 -3.938018e+02
    endloop
  endfacet
  facet normal 3.257071e-13 9.924710e-01 1.224800e-01
    outer loop
      vertex -7.346400e+01 5.708552e+01 -4.404480e+02
      vertex -7.496400e+01 5.690180e+01 -4.389593e+02
      vertex -1.750991e+01 5.132896e+01 -3.938018e+02
    endloop
  endfacet
  facet normal 3.594736e-13 9.924710e-01 1.224800e-01
    outer loop
      vertex -7.496400e+01 5.726924e+01 -4.419367e+02
      vertex -7.346400e+01 5.708552e+01 -4.404480e+02
      vertex -1.750991e+01 5.132896e+01 -3.938018e+02
    endloop
  endfacet
  facet normal 4.017575e-13 9.924710e-01 1.224800e-01
    outer loop
      vertex -1.722050e+02 5.690180e+01 -4.389593e+02
      vertex -1.178847e+02 5.132537e+01 -3.937727e+02
      vertex -1.178140e+02 5.132896e+01 -3.938018e+02
    endloop
  endfacet
  facet normal 3.325459e-13 9.924710e-01 1.224800e-01
    outer loop
      vertex -1.722050e+02 5.690180e+01 -4.389593e+02
      vertex -1.178140e+02 5.132896e+01 -3.938018e+02
      vertex -7.496400e+01 5.690180e+01 -4.389593e+02
    endloop
  endfacet
  facet normal 1.483042e-13 9.924710e-01 1.224800e-01
    outer loop
      vertex -1.722050e+02 5.690180e+01 -4.389593e+02
      vertex -1.179140e+02 5.131671e+01 -3.937026e+02
      vertex -1.178847e+02 5.132537e+01 -3.937727e+02
    endloop
  endfacet
  facet normal 3.460656e-13 9.924710e-01 1.224800e-01
    outer loop
      vertex -1.722050e+02 5.690180e+01 -4.389593e+02
      vertex -1.179140e+02 5.120036e+01 -3.927597e+02
      vertex -1.179140e+02 5.131671e+01 -3.937026e+02
    endloop
  endfacet
  facet normal 5.835445e-12 -9.924710e-01 -1.224800e-01
    outer loop
      vertex -1.662015e+01 4.801351e+01 -3.981296e+02
      vertex -1.631511e+01 4.818630e+01 -3.995298e+02
      vertex -1.646586e+01 4.810023e+01 -3.988323e+02
    endloop
  endfacet
  facet normal -3.726714e-13 -9.924710e-01 -1.224800e-01
    outer loop
      vertex -1.688268e+01 4.796163e+01 -3.977092e+02
      vertex -1.631511e+01 4.818630e+01 -3.995298e+02
      vertex -1.662015e+01 4.801351e+01 -3.981296e+02
    endloop
  endfacet
endsolid P1040852002
