solid P1040852002
  facet normal -1.000000e+00 -2.840717e-13 2.671015e-12
    outer loop
      vertex -1.890140e+02 7.449516e+01 -4.679288e+02
      vertex -1.890140e+02 6.019337e+01 -3.998591e+02
      vertex -1.890140e+02 6.000395e+01 -3.986236e+02
    endloop
  endfacet
  facet normal -4.119375e-13 -9.884494e-01 -1.515511e-01
    outer loop
      vertex -1.631511e+01 6.019337e+01 -3.998591e+02
      vertex -1.890140e+02 6.000395e+01 -3.986236e+02
      vertex -1.890140e+02 6.019337e+01 -3.998591e+02
    endloop
  endfacet
  facet normal -1.000000e+00 3.125577e-15 2.731066e-12
    outer loop
      vertex -1.890140e+02 6.276623e+01 -3.982001e+02
      vertex -1.890140e+02 7.449516e+01 -4.679288e+02
      vertex -1.890140e+02 6.000395e+01 -3.986236e+02
    endloop
  endfacet
  facet normal -9.238695e-01 -5.799975e-02 3.782871e-01
    outer loop
      vertex -1.887943e+02 5.992358e+01 -3.980994e+02
      vertex -1.890140e+02 6.276623e+01 -3.982001e+02
      vertex -1.890140e+02 6.000395e+01 -3.986236e+02
    endloop
  endfacet
  facet normal -4.118279e-13 -9.884494e-01 -1.515511e-01
    outer loop
      vertex -1.887943e+02 5.992358e+01 -3.980994e+02
      vertex -1.890140e+02 6.000395e+01 -3.986236e+02
      vertex -1.631511e+01 6.019337e+01 -3.998591e+02
    endloop
  endfacet
  facet normal -1.000000e+00 1.515192e-13 2.762535e-12
    outer loop
      vertex -1.890140e+02 7.449516e+01 -4.679288e+02
      vertex -1.890140e+02 6.009453e+01 -3.998742e+02
      vertex -1.890140e+02 6.019337e+01 -3.998591e+02
    endloop
  endfacet
  facet normal 2.699342e-12 -1.515511e-01 9.884494e-01
    outer loop
      vertex -1.631511e+01 6.009453e+01 -3.998742e+02
      vertex -1.890140e+02 6.019337e+01 -3.998591e+02
      vertex -1.890140e+02 6.009453e+01 -3.998742e+02
    endloop
  endfacet
  facet normal 2.698692e-12 -1.515511e-01 9.884494e-01
    outer loop
      vertex -1.631511e+01 6.019337e+01 -3.998591e+02
      vertex -1.890140e+02 6.019337e+01 -3.998591e+02
      vertex -1.631511e+01 6.009453e+01 -3.998742e+02
    endloop
  endfacet
  facet normal -1.000000e+00 -4.095880e-13 2.671423e-12
    outer loop
      vertex -1.890140e+02 6.942479e+01 -4.644065e+02
      vertex -1.890140e+02 6.934528e+01 -4.644187e+02
      vertex -1.890140e+02 6.009453e+01 -3.998742e+02
    endloop
  endfacet
  facet normal -3.852957e-13 -9.898847e-01 -1.418740e-01
    outer loop
      vertex -1.722050e+02 6.311660e+01 -4.209599e+02
      vertex -1.890140e+02 6.009453e+01 -3.998742e+02
      vertex -1.890140e+02 6.934528e+01 -4.644187e+02
    endloop
  endfacet
  facet normal -1.000000e+00 2.521957e-15 2.731007e-12
    outer loop
      vertex -1.890140e+02 7.449516e+01 -4.679288e+02
      vertex -1.890140e+02 6.942479e+01 -4.644065e+02
      vertex -1.890140e+02 6.009453e+01 -3.998742e+02
    endloop
  endfacet
  facet normal -3.856083e-13 -9.898847e-01 -1.418740e-01
    outer loop
      vertex -7.496400e+01 6.269096e+01 -4.179901e+02
      vertex -1.631511e+01 6.009453e+01 -3.998742e+02
      vertex -1.890140e+02 6.009453e+01 -3.998742e+02
    endloop
  endfacet
  facet normal -3.855667e-13 -9.898847e-01 -1.418740e-01
    outer loop
      vertex -1.722050e+02 6.269096e+01 -4.179901e+02
      vertex -7.496400e+01 6.269096e+01 -4.179901e+02
      vertex -1.890140e+02 6.009453e+01 -3.998742e+02
    endloop
  endfacet
  facet normal -3.870481e-13 -9.898847e-01 -1.418740e-01
    outer loop
      vertex -1.722050e+02 6.311660e+01 -4.209599e+02
      vertex -1.722050e+02 6.269096e+01 -4.179901e+02
      vertex -1.890140e+02 6.009453e+01 -3.998742e+02
    endloop
  endfacet
  facet normal -2.698908e-12 1.515511e-01 -9.884494e-01
    outer loop
      vertex -1.607990e+01 6.942479e+01 -4.644065e+02
      vertex -1.890140e+02 6.934528e+01 -4.644187e+02
      vertex -1.890140e+02 6.942479e+01 -4.644065e+02
    endloop
  endfacet
  facet normal -3.855490e-13 -9.898847e-01 -1.418740e-01
    outer loop
      vertex -1.722050e+02 6.311660e+01 -4.209599e+02
      vertex -1.890140e+02 6.934528e+01 -4.644187e+02
      vertex -1.607990e+01 6.934528e+01 -4.644187e+02
    endloop
  endfacet
  facet normal -2.698920e-12 1.515511e-01 -9.884494e-01
    outer loop
      vertex -1.607990e+01 6.942479e+01 -4.644065e+02
      vertex -1.607990e+01 6.934528e+01 -4.644187e+02
      vertex -1.890140e+02 6.934528e+01 -4.644187e+02
    endloop
  endfacet
  facet normal -1.000000e+00 1.268965e-14 2.716307e-12
    outer loop
      vertex -1.890140e+02 7.054140e+01 -4.654999e+02
      vertex -1.890140e+02 6.961423e+01 -4.656421e+02
      vertex -1.890140e+02 6.942479e+01 -4.644065e+02
    endloop
  endfacet
  facet normal -3.428489e-13 -9.884494e-01 -1.515511e-01
    outer loop
      vertex -1.887943e+02 6.969460e+01 -4.661663e+02
      vertex -1.890140e+02 6.942479e+01 -4.644065e+02
      vertex -1.890140e+02 6.961423e+01 -4.656421e+02
    endloop
  endfacet
  facet normal -1.000000e+00 -5.744129e-14 2.644688e-12
    outer loop
      vertex -1.890140e+02 7.449516e+01 -4.679288e+02
      vertex -1.890140e+02 7.054140e+01 -4.654999e+02
      vertex -1.890140e+02 6.942479e+01 -4.644065e+02
    endloop
  endfacet
  facet normal -4.120000e-13 -9.884494e-01 -1.515511e-01
    outer loop
      vertex -1.718043e+01 6.972789e+01 -4.663834e+02
      vertex -1.890140e+02 6.942479e+01 -4.644065e+02
      vertex -1.882640e+02 6.972789e+01 -4.663834e+02
    endloop
  endfacet
  facet normal -4.281177e-13 -9.884494e-01 -1.515511e-01
    outer loop
      vertex -1.887943e+02 6.969460e+01 -4.661663e+02
      vertex -1.882640e+02 6.972789e+01 -4.663834e+02
      vertex -1.890140e+02 6.942479e+01 -4.644065e+02
    endloop
  endfacet
  facet normal -4.117712e-13 -9.884494e-01 -1.515511e-01
    outer loop
      vertex -1.672372e+01 6.970438e+01 -4.662301e+02
      vertex -1.890140e+02 6.942479e+01 -4.644065e+02
      vertex -1.718043e+01 6.972789e+01 -4.663834e+02
    endloop
  endfacet
  facet normal -4.118722e-13 -9.884494e-01 -1.515511e-01
    outer loop
      vertex -1.626758e+01 6.953546e+01 -4.651284e+02
      vertex -1.890140e+02 6.942479e+01 -4.644065e+02
      vertex -1.645588e+01 6.964359e+01 -4.658336e+02
    endloop
  endfacet
  facet normal -4.119315e-13 -9.884494e-01 -1.515511e-01
    outer loop
      vertex -1.672372e+01 6.970438e+01 -4.662301e+02
      vertex -1.645588e+01 6.964359e+01 -4.658336e+02
      vertex -1.890140e+02 6.942479e+01 -4.644065e+02
    endloop
  endfacet
  facet normal -4.120562e-13 -9.884494e-01 -1.515511e-01
    outer loop
      vertex -1.607990e+01 6.942479e+01 -4.644065e+02
      vertex -1.890140e+02 6.942479e+01 -4.644065e+02
      vertex -1.626758e+01 6.953546e+01 -4.651284e+02
    endloop
  endfacet
  facet normal -9.238695e-01 5.799975e-02 -3.782871e-01
    outer loop
      vertex -1.887943e+02 7.062177e+01 -4.660241e+02
      vertex -1.890140e+02 6.961423e+01 -4.656421e+02
      vertex -1.890140e+02 7.054140e+01 -4.654999e+02
    endloop
  endfacet
  facet normal -9.238695e-01 5.799975e-02 -3.782871e-01
    outer loop
      vertex -1.887943e+02 6.969460e+01 -4.661663e+02
      vertex -1.890140e+02 6.961423e+01 -4.656421e+02
      vertex -1.887943e+02 7.062177e+01 -4.660241e+02
    endloop
  endfacet
  facet normal -1.000000e+00 2.038586e-15 2.741511e-12
    outer loop
      vertex -1.890140e+02 7.449516e+01 -4.679288e+02
      vertex -1.890140e+02 7.099605e+01 -4.684653e+02
      vertex -1.890140e+02 7.054140e+01 -4.654999e+02
    endloop
  endfacet
  facet normal -3.914579e-13 -9.884494e-01 -1.515511e-01
    outer loop
      vertex -1.887943e+02 7.062177e+01 -4.660241e+02
      vertex -1.890140e+02 7.054140e+01 -4.654999e+02
      vertex -1.890140e+02 7.099605e+01 -4.684653e+02
    endloop
  endfacet
  facet normal -2.698905e-12 1.515511e-01 -9.884494e-01
    outer loop
      vertex -1.724473e+01 7.449516e+01 -4.679288e+02
      vertex -1.890140e+02 7.099605e+01 -4.684653e+02
      vertex -1.890140e+02 7.449516e+01 -4.679288e+02
    endloop
  endfacet
  facet normal -2.698904e-12 1.515511e-01 -9.884494e-01
    outer loop
      vertex -1.724473e+01 7.449516e+01 -4.679288e+02
      vertex -1.724473e+01 7.099605e+01 -4.684653e+02
      vertex -1.890140e+02 7.099605e+01 -4.684653e+02
    endloop
  endfacet
  facet normal -4.119600e-13 -9.884494e-01 -1.515511e-01
    outer loop
      vertex -1.882640e+02 7.065506e+01 -4.662413e+02
      vertex -1.890140e+02 7.099605e+01 -4.684653e+02
      vertex -1.724473e+01 7.099605e+01 -4.684653e+02
    endloop
  endfacet
  facet normal -4.258649e-13 -9.884494e-01 -1.515511e-01
    outer loop
      vertex -1.887943e+02 7.062177e+01 -4.660241e+02
      vertex -1.890140e+02 7.099605e+01 -4.684653e+02
      vertex -1.882640e+02 7.065506e+01 -4.662413e+02
    endloop
  endfacet
  facet normal -1.000000e+00 -3.513358e-15 2.729624e-12
    outer loop
      vertex -1.890140e+02 6.216002e+01 -3.942463e+02
      vertex -1.890140e+02 6.299989e+01 -3.929541e+02
      vertex -1.890140e+02 7.449516e+01 -4.679288e+02
    endloop
  endfacet
  facet normal 4.115093e-13 9.884494e-01 1.515511e-01
    outer loop
      vertex -1.722050e+02 6.674320e+01 -4.173688e+02
      vertex -1.890140e+02 7.449516e+01 -4.679288e+02
      vertex -1.890140e+02 6.299989e+01 -3.929541e+02
    endloop
  endfacet
  facet normal -1.000000e+00 -4.107645e-13 2.661446e-12
    outer loop
      vertex -1.890140e+02 6.276623e+01 -3.982001e+02
      vertex -1.890140e+02 6.216002e+01 -3.942463e+02
      vertex -1.890140e+02 7.449516e+01 -4.679288e+02
    endloop
  endfacet
  facet normal 4.119599e-13 9.884494e-01 1.515511e-01
    outer loop
      vertex -7.496400e+01 6.719785e+01 -4.203341e+02
      vertex -1.724473e+01 7.449516e+01 -4.679288e+02
      vertex -1.890140e+02 7.449516e+01 -4.679288e+02
    endloop
  endfacet
  facet normal 4.118423e-13 9.884494e-01 1.515511e-01
    outer loop
      vertex -1.722050e+02 6.719785e+01 -4.203341e+02
      vertex -7.496400e+01 6.719785e+01 -4.203341e+02
      vertex -1.890140e+02 7.449516e+01 -4.679288e+02
    endloop
  endfacet
  facet normal 4.241952e-13 9.884494e-01 1.515511e-01
    outer loop
      vertex -1.722050e+02 6.674320e+01 -4.173688e+02
      vertex -1.722050e+02 6.719785e+01 -4.203341e+02
      vertex -1.890140e+02 7.449516e+01 -4.679288e+02
    endloop
  endfacet
  facet normal -1.000000e+00 -1.834908e-14 2.739266e-12
    outer loop
      vertex -1.890140e+02 6.216002e+01 -3.942463e+02
      vertex -1.890140e+02 5.988627e+01 -3.934315e+02
      vertex -1.890140e+02 6.299989e+01 -3.929541e+02
    endloop
  endfacet
  facet normal 2.701700e-12 -1.515511e-01 9.884494e-01
    outer loop
      vertex -1.179640e+02 5.988627e+01 -3.934315e+02
      vertex -1.890140e+02 6.299989e+01 -3.929541e+02
      vertex -1.890140e+02 5.988627e+01 -3.934315e+02
    endloop
  endfacet
  facet normal 2.698507e-12 -1.515511e-01 9.884494e-01
    outer loop
      vertex -1.179640e+02 6.299989e+01 -3.929541e+02
      vertex -1.890140e+02 6.299989e+01 -3.929541e+02
      vertex -1.179640e+02 5.988627e+01 -3.934315e+02
    endloop
  endfacet
  facet normal 4.119195e-13 9.884494e-01 1.515511e-01
    outer loop
      vertex -1.722050e+02 6.674320e+01 -4.173688e+02
      vertex -1.890140e+02 6.299989e+01 -3.929541e+02
      vertex -1.179640e+02 6.299989e+01 -3.929541e+02
    endloop
  endfacet
  facet normal -1.000000e+00 -1.520676e-14 2.748035e-12
    outer loop
      vertex -1.890140e+02 6.216002e+01 -3.942463e+02
      vertex -1.890140e+02 6.006056e+01 -3.945682e+02
      vertex -1.890140e+02 5.988627e+01 -3.934315e+02
    endloop
  endfacet
  facet normal -4.903272e-13 -9.884494e-01 -1.515511e-01
    outer loop
      vertex -1.887943e+02 6.014093e+01 -3.950924e+02
      vertex -1.890140e+02 5.988627e+01 -3.934315e+02
      vertex -1.890140e+02 6.006056e+01 -3.945682e+02
    endloop
  endfacet
  facet normal -4.122067e-13 -9.884494e-01 -1.515511e-01
    outer loop
      vertex -1.179640e+02 5.988627e+01 -3.934315e+02
      vertex -1.890140e+02 5.988627e+01 -3.934315e+02
      vertex -1.882640e+02 6.017422e+01 -3.953095e+02
    endloop
  endfacet
  facet normal -3.992207e-13 -9.884494e-01 -1.515511e-01
    outer loop
      vertex -1.887943e+02 6.014093e+01 -3.950924e+02
      vertex -1.882640e+02 6.017422e+01 -3.953095e+02
      vertex -1.890140e+02 5.988627e+01 -3.934315e+02
    endloop
  endfacet
  facet normal -9.238695e-01 5.799975e-02 -3.782871e-01
    outer loop
      vertex -1.887943e+02 6.224039e+01 -3.947705e+02
      vertex -1.890140e+02 6.006056e+01 -3.945682e+02
      vertex -1.890140e+02 6.216002e+01 -3.942463e+02
    endloop
  endfacet
  facet normal -9.238695e-01 5.799975e-02 -3.782871e-01
    outer loop
      vertex -1.887943e+02 6.014093e+01 -3.950924e+02
      vertex -1.890140e+02 6.006056e+01 -3.945682e+02
      vertex -1.887943e+02 6.224039e+01 -3.947705e+02
    endloop
  endfacet
  facet normal -3.672208e-13 -9.884494e-01 -1.515511e-01
    outer loop
      vertex -1.887943e+02 6.268586e+01 -3.976759e+02
      vertex -1.890140e+02 6.216002e+01 -3.942463e+02
      vertex -1.890140e+02 6.276623e+01 -3.982001e+02
    endloop
  endfacet
  facet normal -4.088609e-13 -9.884494e-01 -1.515511e-01
    outer loop
      vertex -1.887943e+02 6.268586e+01 -3.976759e+02
      vertex -1.887943e+02 6.224039e+01 -3.947705e+02
      vertex -1.890140e+02 6.216002e+01 -3.942463e+02
    endloop
  endfacet
  facet normal -9.238695e-01 -5.799975e-02 3.782871e-01
    outer loop
      vertex -1.887943e+02 5.992358e+01 -3.980994e+02
      vertex -1.887943e+02 6.268586e+01 -3.976759e+02
      vertex -1.890140e+02 6.276623e+01 -3.982001e+02
    endloop
  endfacet
  facet normal 9.709570e-01 3.625920e-02 -2.364904e-01
    outer loop
      vertex -1.476062e+01 7.296735e+01 -4.579640e+02
      vertex -1.724473e+01 7.099605e+01 -4.684653e+02
      vertex -1.724473e+01 7.449516e+01 -4.679288e+02
    endloop
  endfacet
  facet normal -4.119814e-13 -9.884494e-01 -1.515511e-01
    outer loop
      vertex -1.718043e+01 7.065506e+01 -4.662413e+02
      vertex -1.882640e+02 7.065506e+01 -4.662413e+02
      vertex -1.724473e+01 7.099605e+01 -4.684653e+02
    endloop
  endfacet
  facet normal -4.047561e-13 -9.884494e-01 -1.515511e-01
    outer loop
      vertex -1.685008e+01 7.078849e+01 -4.671115e+02
      vertex -1.718043e+01 7.065506e+01 -4.662413e+02
      vertex -1.724473e+01 7.099605e+01 -4.684653e+02
    endloop
  endfacet
  facet normal 9.546893e-01 1.538946e-01 -2.547248e-01
    outer loop
      vertex -1.476062e+01 7.296735e+01 -4.579640e+02
      vertex -1.685008e+01 7.078849e+01 -4.671115e+02
      vertex -1.724473e+01 7.099605e+01 -4.684653e+02
    endloop
  endfacet
  facet normal 4.097079e-13 9.884494e-01 1.515511e-01
    outer loop
      vertex -1.441160e+01 6.551566e+01 -4.093625e+02
      vertex -1.476062e+01 7.296735e+01 -4.579640e+02
      vertex -1.724473e+01 7.449516e+01 -4.679288e+02
    endloop
  endfacet
  facet normal 4.059160e-13 9.884494e-01 1.515511e-01
    outer loop
      vertex -1.750991e+01 6.316659e+01 -3.940414e+02
      vertex -1.441160e+01 6.551566e+01 -4.093625e+02
      vertex -1.724473e+01 7.449516e+01 -4.679288e+02
    endloop
  endfacet
  facet normal 4.124318e-13 9.884494e-01 1.515511e-01
    outer loop
      vertex -7.496400e+01 6.719785e+01 -4.203341e+02
      vertex -1.750991e+01 6.316659e+01 -3.940414e+02
      vertex -1.724473e+01 7.449516e+01 -4.679288e+02
    endloop
  endfacet
  facet normal -2.698543e-12 1.515511e-01 -9.884494e-01
    outer loop
      vertex -1.882640e+02 6.972789e+01 -4.663834e+02
      vertex -1.882640e+02 7.065506e+01 -4.662413e+02
      vertex -1.718043e+01 7.065506e+01 -4.662413e+02
    endloop
  endfacet
  facet normal -3.827076e-01 1.400134e-01 -9.131983e-01
    outer loop
      vertex -1.887943e+02 6.969460e+01 -4.661663e+02
      vertex -1.887943e+02 7.062177e+01 -4.660241e+02
      vertex -1.882640e+02 7.065506e+01 -4.662413e+02
    endloop
  endfacet
  facet normal -3.827076e-01 1.400134e-01 -9.131983e-01
    outer loop
      vertex -1.887943e+02 6.969460e+01 -4.661663e+02
      vertex -1.882640e+02 7.065506e+01 -4.662413e+02
      vertex -1.882640e+02 6.972789e+01 -4.663834e+02
    endloop
  endfacet
  facet normal -3.905372e-13 -9.884494e-01 -1.515511e-01
    outer loop
      vertex -1.685008e+01 7.078849e+01 -4.671115e+02
      vertex -1.672372e+01 7.063155e+01 -4.660879e+02
      vertex -1.718043e+01 7.065506e+01 -4.662413e+02
    endloop
  endfacet
  facet normal 3.216048e-01 1.434998e-01 -9.359371e-01
    outer loop
      vertex -1.718043e+01 6.972789e+01 -4.663834e+02
      vertex -1.718043e+01 7.065506e+01 -4.662413e+02
      vertex -1.672372e+01 7.063155e+01 -4.660879e+02
    endloop
  endfacet
  facet normal -2.699212e-12 1.515511e-01 -9.884494e-01
    outer loop
      vertex -1.718043e+01 6.972789e+01 -4.663834e+02
      vertex -1.882640e+02 6.972789e+01 -4.663834e+02
      vertex -1.718043e+01 7.065506e+01 -4.662413e+02
    endloop
  endfacet
  facet normal -4.485363e-13 -9.884494e-01 -1.515511e-01
    outer loop
      vertex -1.685008e+01 7.078849e+01 -4.671115e+02
      vertex -1.645588e+01 7.057076e+01 -4.656914e+02
      vertex -1.672372e+01 7.063155e+01 -4.660879e+02
    endloop
  endfacet
  facet normal 8.316669e-01 8.415251e-02 -5.488612e-01
    outer loop
      vertex -1.672372e+01 6.970438e+01 -4.662301e+02
      vertex -1.672372e+01 7.063155e+01 -4.660879e+02
      vertex -1.645588e+01 7.057076e+01 -4.656914e+02
    endloop
  endfacet
  facet normal 3.216048e-01 1.434998e-01 -9.359371e-01
    outer loop
      vertex -1.672372e+01 6.970438e+01 -4.662301e+02
      vertex -1.718043e+01 6.972789e+01 -4.663834e+02
      vertex -1.672372e+01 7.063155e+01 -4.660879e+02
    endloop
  endfacet
  facet normal 9.611395e-01 1.206828e-01 -2.482874e-01
    outer loop
      vertex -1.476062e+01 7.296735e+01 -4.579640e+02
      vertex -1.645588e+01 7.057076e+01 -4.656914e+02
      vertex -1.685008e+01 7.078849e+01 -4.671115e+02
    endloop
  endfacet
  facet normal 9.739069e-01 3.439421e-02 -2.243266e-01
    outer loop
      vertex -1.645588e+01 6.964359e+01 -4.658336e+02
      vertex -1.645588e+01 7.057076e+01 -4.656914e+02
      vertex -1.476062e+01 7.296735e+01 -4.579640e+02
    endloop
  endfacet
  facet normal 8.316669e-01 8.415251e-02 -5.488612e-01
    outer loop
      vertex -1.672372e+01 6.970438e+01 -4.662301e+02
      vertex -1.645588e+01 7.057076e+01 -4.656914e+02
      vertex -1.645588e+01 6.964359e+01 -4.658336e+02
    endloop
  endfacet
  facet normal -3.755663e-13 -9.898847e-01 -1.418740e-01
    outer loop
      vertex -1.409502e+01 6.800143e+01 -4.550424e+02
      vertex -1.406351e+01 6.186540e+01 -4.122300e+02
      vertex -1.631511e+01 6.009453e+01 -3.998742e+02
    endloop
  endfacet
  facet normal 9.841153e-01 -2.690490e-02 1.754796e-01
    outer loop
      vertex -1.631511e+01 6.019337e+01 -3.998591e+02
      vertex -1.631511e+01 6.009453e+01 -3.998742e+02
      vertex -1.406351e+01 6.186540e+01 -4.122300e+02
    endloop
  endfacet
  facet normal -3.923766e-13 -9.898847e-01 -1.418740e-01
    outer loop
      vertex -1.607990e+01 6.934528e+01 -4.644187e+02
      vertex -1.409502e+01 6.800143e+01 -4.550424e+02
      vertex -1.631511e+01 6.009453e+01 -3.998742e+02
    endloop
  endfacet
  facet normal -3.855027e-13 -9.898847e-01 -1.418740e-01
    outer loop
      vertex -7.346400e+01 6.290378e+01 -4.194750e+02
      vertex -1.607990e+01 6.934528e+01 -4.644187e+02
      vertex -1.631511e+01 6.009453e+01 -3.998742e+02
    endloop
  endfacet
  facet normal -3.870300e-13 -9.898847e-01 -1.418740e-01
    outer loop
      vertex -7.346400e+01 6.290378e+01 -4.194750e+02
      vertex -1.631511e+01 6.009453e+01 -3.998742e+02
      vertex -7.496400e+01 6.269096e+01 -4.179901e+02
    endloop
  endfacet
  facet normal -3.983889e-13 -9.898847e-01 -1.418740e-01
    outer loop
      vertex -1.284400e+01 6.657227e+01 -4.450708e+02
      vertex -1.284400e+01 6.339765e+01 -4.229208e+02
      vertex -1.406351e+01 6.186540e+01 -4.122300e+02
    endloop
  endfacet
  facet normal 9.934605e-01 5.136125e-03 1.140609e-01
    outer loop
      vertex -1.441160e+01 6.551566e+01 -4.093625e+02
      vertex -1.406351e+01 6.186540e+01 -4.122300e+02
      vertex -1.284400e+01 6.339765e+01 -4.229208e+02
    endloop
  endfacet
  facet normal -3.845377e-13 -9.898847e-01 -1.418740e-01
    outer loop
      vertex -1.409502e+01 6.800143e+01 -4.550424e+02
      vertex -1.284400e+01 6.657227e+01 -4.450708e+02
      vertex -1.406351e+01 6.186540e+01 -4.122300e+02
    endloop
  endfacet
  facet normal 9.839472e-01 -4.235438e-02 1.733609e-01
    outer loop
      vertex -1.631511e+01 6.019337e+01 -3.998591e+02
      vertex -1.406351e+01 6.186540e+01 -4.122300e+02
      vertex -1.441160e+01 6.551566e+01 -4.093625e+02
    endloop
  endfacet
  facet normal 7.071068e-01 -6.999542e-01 -1.003201e-01
    outer loop
      vertex -1.239397e+01 6.547421e+01 -4.342373e+02
      vertex -1.284400e+01 6.339765e+01 -4.229208e+02
      vertex -1.284400e+01 6.657227e+01 -4.450708e+02
    endloop
  endfacet
  facet normal 9.928956e-01 -1.803236e-02 1.176148e-01
    outer loop
      vertex -1.441160e+01 6.551566e+01 -4.093625e+02
      vertex -1.284400e+01 6.339765e+01 -4.229208e+02
      vertex -1.284400e+01 6.749807e+01 -4.222922e+02
    endloop
  endfacet
  facet normal 9.992353e-01 -5.926378e-03 3.864952e-02
    outer loop
      vertex -1.239397e+01 6.547421e+01 -4.342373e+02
      vertex -1.284400e+01 6.749807e+01 -4.222922e+02
      vertex -1.284400e+01 6.339765e+01 -4.229208e+02
    endloop
  endfacet
  facet normal 9.923758e-01 1.867900e-02 -1.218251e-01
    outer loop
      vertex -1.284400e+01 7.088905e+01 -4.444089e+02
      vertex -1.284400e+01 6.657227e+01 -4.450708e+02
      vertex -1.409502e+01 6.800143e+01 -4.550424e+02
    endloop
  endfacet
  facet normal 9.991440e-01 6.268786e-03 -4.088984e-02
    outer loop
      vertex -1.239398e+01 6.879698e+01 -4.337334e+02
      vertex -1.284400e+01 6.657227e+01 -4.450708e+02
      vertex -1.284400e+01 7.088905e+01 -4.444089e+02
    endloop
  endfacet
  facet normal 9.991450e-01 6.200977e-03 -4.087657e-02
    outer loop
      vertex -1.239398e+01 6.879698e+01 -4.337334e+02
      vertex -1.239397e+01 6.547421e+01 -4.342373e+02
      vertex -1.284400e+01 6.657227e+01 -4.450708e+02
    endloop
  endfacet
  facet normal 9.785627e-01 1.013831e-02 -2.056992e-01
    outer loop
      vertex -1.476062e+01 7.296735e+01 -4.579640e+02
      vertex -1.409502e+01 6.800143e+01 -4.550424e+02
      vertex -1.607990e+01 6.934528e+01 -4.644187e+02
    endloop
  endfacet
  facet normal 9.897760e-01 5.531474e-02 -1.314680e-01
    outer loop
      vertex -1.284400e+01 7.088905e+01 -4.444089e+02
      vertex -1.409502e+01 6.800143e+01 -4.550424e+02
      vertex -1.476062e+01 7.296735e+01 -4.579640e+02
    endloop
  endfacet
  facet normal -3.857325e-13 -9.898847e-01 -1.418740e-01
    outer loop
      vertex -7.496400e+01 6.311660e+01 -4.209599e+02
      vertex -1.722050e+02 6.311660e+01 -4.209599e+02
      vertex -1.607990e+01 6.934528e+01 -4.644187e+02
    endloop
  endfacet
  facet normal -3.844430e-13 -9.898847e-01 -1.418740e-01
    outer loop
      vertex -7.346400e+01 6.290378e+01 -4.194750e+02
      vertex -7.496400e+01 6.311660e+01 -4.209599e+02
      vertex -1.607990e+01 6.934528e+01 -4.644187e+02
    endloop
  endfacet
  facet normal 9.753489e-01 3.344254e-02 -2.181196e-01
    outer loop
      vertex -1.607990e+01 6.942479e+01 -4.644065e+02
      vertex -1.476062e+01 7.296735e+01 -4.579640e+02
      vertex -1.607990e+01 6.934528e+01 -4.644187e+02
    endloop
  endfacet
  facet normal -2.698639e-12 1.515511e-01 -9.884494e-01
    outer loop
      vertex -7.496400e+01 6.674320e+01 -4.173688e+02
      vertex -7.496400e+01 6.269096e+01 -4.179901e+02
      vertex -1.722050e+02 6.269096e+01 -4.179901e+02
    endloop
  endfacet
  facet normal -7.071068e-01 1.071628e-01 -6.989393e-01
    outer loop
      vertex -7.346400e+01 6.697053e+01 -4.188514e+02
      vertex -7.346400e+01 6.290378e+01 -4.194750e+02
      vertex -7.496400e+01 6.269096e+01 -4.179901e+02
    endloop
  endfacet
  facet normal -7.071068e-01 1.071628e-01 -6.989393e-01
    outer loop
      vertex -7.346400e+01 6.697053e+01 -4.188514e+02
      vertex -7.496400e+01 6.269096e+01 -4.179901e+02
      vertex -7.496400e+01 6.674320e+01 -4.173688e+02
    endloop
  endfacet
  facet normal 1.000000e+00 -1.092119e-15 -2.718109e-12
    outer loop
      vertex -1.722050e+02 6.719785e+01 -4.203341e+02
      vertex -1.722050e+02 6.269096e+01 -4.179901e+02
      vertex -1.722050e+02 6.311660e+01 -4.209599e+02
    endloop
  endfacet
  facet normal -2.699817e-12 1.515511e-01 -9.884494e-01
    outer loop
      vertex -1.722050e+02 6.674320e+01 -4.173688e+02
      vertex -7.496400e+01 6.674320e+01 -4.173688e+02
      vertex -1.722050e+02 6.269096e+01 -4.179901e+02
    endloop
  endfacet
  facet normal 1.000000e+00 -3.402450e-15 -2.722551e-12
    outer loop
      vertex -1.722050e+02 6.674320e+01 -4.173688e+02
      vertex -1.722050e+02 6.269096e+01 -4.179901e+02
      vertex -1.722050e+02 6.719785e+01 -4.203341e+02
    endloop
  endfacet
  facet normal 2.699795e-12 -1.515511e-01 9.884494e-01
    outer loop
      vertex -1.722050e+02 6.719785e+01 -4.203341e+02
      vertex -1.722050e+02 6.311660e+01 -4.209599e+02
      vertex -7.496400e+01 6.311660e+01 -4.209599e+02
    endloop
  endfacet
  facet normal -7.071068e-01 -1.071628e-01 6.989393e-01
    outer loop
      vertex -7.496400e+01 6.719785e+01 -4.203341e+02
      vertex -7.496400e+01 6.311660e+01 -4.209599e+02
      vertex -7.346400e+01 6.290378e+01 -4.194750e+02
    endloop
  endfacet
  facet normal 2.698662e-12 -1.515511e-01 9.884494e-01
    outer loop
      vertex -1.722050e+02 6.719785e+01 -4.203341e+02
      vertex -7.496400e+01 6.311660e+01 -4.209599e+02
      vertex -7.496400e+01 6.719785e+01 -4.203341e+02
    endloop
  endfacet
  facet normal -7.071068e-01 -1.071628e-01 6.989393e-01
    outer loop
      vertex -7.496400e+01 6.719785e+01 -4.203341e+02
      vertex -7.346400e+01 6.290378e+01 -4.194750e+02
      vertex -7.346400e+01 6.697053e+01 -4.188514e+02
    endloop
  endfacet
  facet normal 2.699303e-12 -1.515511e-01 9.884494e-01
    outer loop
      vertex -1.882640e+02 6.265256e+01 -3.974587e+02
      vertex -1.882640e+02 5.989028e+01 -3.978823e+02
      vertex -1.735269e+01 5.989028e+01 -3.978823e+02
    endloop
  endfacet
  facet normal -4.120119e-13 -9.884494e-01 -1.515511e-01
    outer loop
      vertex -1.631511e+01 6.019337e+01 -3.998591e+02
      vertex -1.735269e+01 5.989028e+01 -3.978823e+02
      vertex -1.882640e+02 5.989028e+01 -3.978823e+02
    endloop
  endfacet
  facet normal 2.699290e-12 -1.515511e-01 9.884494e-01
    outer loop
      vertex -1.735269e+01 6.265256e+01 -3.974587e+02
      vertex -1.882640e+02 6.265256e+01 -3.974587e+02
      vertex -1.735269e+01 5.989028e+01 -3.978823e+02
    endloop
  endfacet
  facet normal 3.322145e-01 -1.429436e-01 9.323093e-01
    outer loop
      vertex -1.688268e+01 5.991537e+01 -3.980459e+02
      vertex -1.735269e+01 6.265256e+01 -3.974587e+02
      vertex -1.735269e+01 5.989028e+01 -3.978823e+02
    endloop
  endfacet
  facet normal -3.650722e-13 -9.884494e-01 -1.515511e-01
    outer loop
      vertex -1.688268e+01 5.991537e+01 -3.980459e+02
      vertex -1.735269e+01 5.989028e+01 -3.978823e+02
      vertex -1.631511e+01 6.019337e+01 -3.998591e+02
    endloop
  endfacet
  facet normal -3.827076e-01 -1.400134e-01 9.131983e-01
    outer loop
      vertex -1.887943e+02 6.268586e+01 -3.976759e+02
      vertex -1.882640e+02 5.989028e+01 -3.978823e+02
      vertex -1.882640e+02 6.265256e+01 -3.974587e+02
    endloop
  endfacet
  facet normal -3.827076e-01 -1.400134e-01 9.131983e-01
    outer loop
      vertex -1.887943e+02 5.992358e+01 -3.980994e+02
      vertex -1.882640e+02 5.989028e+01 -3.978823e+02
      vertex -1.887943e+02 6.268586e+01 -3.976759e+02
    endloop
  endfacet
  facet normal -4.126904e-13 -9.884494e-01 -1.515511e-01
    outer loop
      vertex -1.887943e+02 5.992358e+01 -3.980994e+02
      vertex -1.631511e+01 6.019337e+01 -3.998591e+02
      vertex -1.882640e+02 5.989028e+01 -3.978823e+02
    endloop
  endfacet
  facet normal -4.120943e-13 -9.884494e-01 -1.515511e-01
    outer loop
      vertex -1.882640e+02 6.227369e+01 -3.949876e+02
      vertex -1.882640e+02 6.265256e+01 -3.974587e+02
      vertex -1.735269e+01 6.265256e+01 -3.974587e+02
    endloop
  endfacet
  facet normal -4.474756e-13 -9.884494e-01 -1.515511e-01
    outer loop
      vertex -1.882640e+02 6.227369e+01 -3.949876e+02
      vertex -1.887943e+02 6.224039e+01 -3.947705e+02
      vertex -1.882640e+02 6.265256e+01 -3.974587e+02
    endloop
  endfacet
  facet normal -4.120873e-13 -9.884494e-01 -1.515511e-01
    outer loop
      vertex -1.887943e+02 6.268586e+01 -3.976759e+02
      vertex -1.882640e+02 6.265256e+01 -3.974587e+02
      vertex -1.887943e+02 6.224039e+01 -3.947705e+02
    endloop
  endfacet
  facet normal -4.119770e-13 -9.884494e-01 -1.515511e-01
    outer loop
      vertex -1.825824e+01 6.227369e+01 -3.949876e+02
      vertex -1.882640e+02 6.227369e+01 -3.949876e+02
      vertex -1.735269e+01 6.265256e+01 -3.974587e+02
    endloop
  endfacet
  facet normal -4.022528e-13 -9.884494e-01 -1.515511e-01
    outer loop
      vertex -1.771054e+01 6.223767e+01 -3.947527e+02
      vertex -1.825824e+01 6.227369e+01 -3.949876e+02
      vertex -1.735269e+01 6.265256e+01 -3.974587e+02
    endloop
  endfacet
  facet normal -3.799791e-13 -9.884494e-01 -1.515511e-01
    outer loop
      vertex -1.750991e+01 6.215244e+01 -3.941969e+02
      vertex -1.771054e+01 6.223767e+01 -3.947527e+02
      vertex -1.735269e+01 6.265256e+01 -3.974587e+02
    endloop
  endfacet
  facet normal -4.099402e-13 -9.884494e-01 -1.515511e-01
    outer loop
      vertex -1.705347e+01 6.244895e+01 -3.961307e+02
      vertex -1.750991e+01 6.215244e+01 -3.941969e+02
      vertex -1.735269e+01 6.265256e+01 -3.974587e+02
    endloop
  endfacet
  facet normal -3.943778e-13 -9.884494e-01 -1.515511e-01
    outer loop
      vertex -1.688268e+01 6.267765e+01 -3.976224e+02
      vertex -1.705347e+01 6.244895e+01 -3.961307e+02
      vertex -1.735269e+01 6.265256e+01 -3.974587e+02
    endloop
  endfacet
  facet normal 3.322145e-01 -1.429436e-01 9.323093e-01
    outer loop
      vertex -1.688268e+01 5.991537e+01 -3.980459e+02
      vertex -1.688268e+01 6.267765e+01 -3.976224e+02
      vertex -1.735269e+01 6.265256e+01 -3.974587e+02
    endloop
  endfacet
  facet normal -3.827076e-01 1.400134e-01 -9.131983e-01
    outer loop
      vertex -1.887943e+02 6.014093e+01 -3.950924e+02
      vertex -1.887943e+02 6.224039e+01 -3.947705e+02
      vertex -1.882640e+02 6.227369e+01 -3.949876e+02
    endloop
  endfacet
  facet normal -2.699139e-12 1.515511e-01 -9.884494e-01
    outer loop
      vertex -1.882640e+02 6.017422e+01 -3.953095e+02
      vertex -1.882640e+02 6.227369e+01 -3.949876e+02
      vertex -1.825824e+01 6.227369e+01 -3.949876e+02
    endloop
  endfacet
  facet normal -3.827076e-01 1.400134e-01 -9.131983e-01
    outer loop
      vertex -1.887943e+02 6.014093e+01 -3.950924e+02
      vertex -1.882640e+02 6.227369e+01 -3.949876e+02
      vertex -1.882640e+02 6.017422e+01 -3.953095e+02
    endloop
  endfacet
  facet normal 3.980660e-01 1.390264e-01 -9.067608e-01
    outer loop
      vertex -1.825824e+01 6.017422e+01 -3.953095e+02
      vertex -1.825824e+01 6.227369e+01 -3.949876e+02
      vertex -1.771054e+01 6.223767e+01 -3.947527e+02
    endloop
  endfacet
  facet normal -2.699139e-12 1.515511e-01 -9.884494e-01
    outer loop
      vertex -1.825824e+01 6.017422e+01 -3.953095e+02
      vertex -1.882640e+02 6.017422e+01 -3.953095e+02
      vertex -1.825824e+01 6.227369e+01 -3.949876e+02
    endloop
  endfacet
  facet normal 9.418537e-01 5.092469e-02 -3.321420e-01
    outer loop
      vertex -1.771054e+01 6.013820e+01 -3.950746e+02
      vertex -1.771054e+01 6.223767e+01 -3.947527e+02
      vertex -1.750991e+01 6.215244e+01 -3.941969e+02
    endloop
  endfacet
  facet normal 3.980660e-01 1.390264e-01 -9.067608e-01
    outer loop
      vertex -1.771054e+01 6.013820e+01 -3.950746e+02
      vertex -1.825824e+01 6.017422e+01 -3.953095e+02
      vertex -1.771054e+01 6.223767e+01 -3.947527e+02
    endloop
  endfacet
  facet normal 9.738488e-01 -3.443198e-02 2.245729e-01
    outer loop
      vertex -1.750991e+01 6.316659e+01 -3.940414e+02
      vertex -1.750991e+01 6.215244e+01 -3.941969e+02
      vertex -1.705347e+01 6.244895e+01 -3.961307e+02
    endloop
  endfacet
  facet normal 9.418537e-01 5.092469e-02 -3.321420e-01
    outer loop
      vertex -1.771054e+01 6.013820e+01 -3.950746e+02
      vertex -1.750991e+01 6.215244e+01 -3.941969e+02
      vertex -1.750991e+01 6.005298e+01 -3.945187e+02
    endloop
  endfacet
  facet normal 2.695341e-12 -1.515511e-01 9.884494e-01
    outer loop
      vertex -1.178140e+02 6.316659e+01 -3.940414e+02
      vertex -1.750991e+01 6.005298e+01 -3.945187e+02
      vertex -1.750991e+01 6.215244e+01 -3.941969e+02
    endloop
  endfacet
  facet normal 2.699133e-12 -1.515511e-01 9.884494e-01
    outer loop
      vertex -1.178140e+02 6.316659e+01 -3.940414e+02
      vertex -1.750991e+01 6.215244e+01 -3.941969e+02
      vertex -1.750991e+01 6.316659e+01 -3.940414e+02
    endloop
  endfacet
  facet normal -3.749507e-13 -9.884494e-01 -1.515511e-01
    outer loop
      vertex -1.688268e+01 6.267765e+01 -3.976224e+02
      vertex -1.662015e+01 6.274184e+01 -3.980410e+02
      vertex -1.705347e+01 6.244895e+01 -3.961307e+02
    endloop
  endfacet
  facet normal 9.756352e-01 -1.643715e-02 2.187825e-01
    outer loop
      vertex -1.750991e+01 6.316659e+01 -3.940414e+02
      vertex -1.705347e+01 6.244895e+01 -3.961307e+02
      vertex -1.662015e+01 6.274184e+01 -3.980410e+02
    endloop
  endfacet
  facet normal 8.499821e-01 -7.983887e-02 5.207266e-01
    outer loop
      vertex -1.662015e+01 5.997956e+01 -3.984646e+02
      vertex -1.662015e+01 6.274184e+01 -3.980410e+02
      vertex -1.688268e+01 6.267765e+01 -3.976224e+02
    endloop
  endfacet
  facet normal 9.749950e-01 7.601385e-02 2.088222e-01
    outer loop
      vertex -1.750991e+01 6.316659e+01 -3.940414e+02
      vertex -1.662015e+01 6.274184e+01 -3.980410e+02
      vertex -1.441160e+01 6.551566e+01 -4.093625e+02
    endloop
  endfacet
  facet normal 9.821108e-01 -1.627341e-02 1.875994e-01
    outer loop
      vertex -1.631511e+01 6.019337e+01 -3.998591e+02
      vertex -1.441160e+01 6.551566e+01 -4.093625e+02
      vertex -1.662015e+01 6.274184e+01 -3.980410e+02
    endloop
  endfacet
  facet normal 9.777574e-01 -3.095031e-02 2.074429e-01
    outer loop
      vertex -1.646586e+01 6.008687e+01 -3.991644e+02
      vertex -1.631511e+01 6.019337e+01 -3.998591e+02
      vertex -1.662015e+01 6.274184e+01 -3.980410e+02
    endloop
  endfacet
  facet normal 9.770688e-01 -3.226886e-02 2.104646e-01
    outer loop
      vertex -1.662015e+01 5.997956e+01 -3.984646e+02
      vertex -1.646586e+01 6.008687e+01 -3.991644e+02
      vertex -1.662015e+01 6.274184e+01 -3.980410e+02
    endloop
  endfacet
  facet normal 8.499821e-01 -7.983887e-02 5.207266e-01
    outer loop
      vertex -1.688268e+01 5.991537e+01 -3.980459e+02
      vertex -1.662015e+01 5.997956e+01 -3.984646e+02
      vertex -1.688268e+01 6.267765e+01 -3.976224e+02
    endloop
  endfacet
  facet normal -4.119770e-13 -9.884494e-01 -1.515511e-01
    outer loop
      vertex -1.178140e+02 6.005298e+01 -3.945187e+02
      vertex -1.882640e+02 6.017422e+01 -3.953095e+02
      vertex -1.825824e+01 6.017422e+01 -3.953095e+02
    endloop
  endfacet
  facet normal -4.123612e-13 -9.884494e-01 -1.515511e-01
    outer loop
      vertex -1.179140e+02 6.003782e+01 -3.944199e+02
      vertex -1.179640e+02 5.988627e+01 -3.934315e+02
      vertex -1.882640e+02 6.017422e+01 -3.953095e+02
    endloop
  endfacet
  facet normal -4.107070e-13 -9.884494e-01 -1.515511e-01
    outer loop
      vertex -1.178847e+02 6.004854e+01 -3.944898e+02
      vertex -1.179140e+02 6.003782e+01 -3.944199e+02
      vertex -1.882640e+02 6.017422e+01 -3.953095e+02
    endloop
  endfacet
  facet normal -4.132073e-13 -9.884494e-01 -1.515511e-01
    outer loop
      vertex -1.178140e+02 6.005298e+01 -3.945187e+02
      vertex -1.178847e+02 6.004854e+01 -3.944898e+02
      vertex -1.882640e+02 6.017422e+01 -3.953095e+02
    endloop
  endfacet
  facet normal -4.119103e-13 -9.884494e-01 -1.515511e-01
    outer loop
      vertex -1.771054e+01 6.013820e+01 -3.950746e+02
      vertex -1.178140e+02 6.005298e+01 -3.945187e+02
      vertex -1.825824e+01 6.017422e+01 -3.953095e+02
    endloop
  endfacet
  facet normal -1.934125e-13 -9.884494e-01 -1.515511e-01
    outer loop
      vertex -1.179140e+02 6.003782e+01 -3.944199e+02
      vertex -1.179140e+02 5.989385e+01 -3.934809e+02
      vertex -1.179640e+02 5.988627e+01 -3.934315e+02
    endloop
  endfacet
  facet normal 7.071068e-01 -1.071628e-01 6.989393e-01
    outer loop
      vertex -1.179140e+02 6.300747e+01 -3.930035e+02
      vertex -1.179640e+02 5.988627e+01 -3.934315e+02
      vertex -1.179140e+02 5.989385e+01 -3.934809e+02
    endloop
  endfacet
  facet normal 7.071068e-01 -1.071628e-01 6.989393e-01
    outer loop
      vertex -1.179140e+02 6.300747e+01 -3.930035e+02
      vertex -1.179640e+02 6.299989e+01 -3.929541e+02
      vertex -1.179640e+02 5.988627e+01 -3.934315e+02
    endloop
  endfacet
  facet normal 1.000000e+00 7.773294e-17 -2.739169e-12
    outer loop
      vertex -1.179140e+02 6.315144e+01 -3.939425e+02
      vertex -1.179140e+02 5.989385e+01 -3.934809e+02
      vertex -1.179140e+02 6.003782e+01 -3.944199e+02
    endloop
  endfacet
  facet normal 1.000000e+00 2.269985e-15 -2.723699e-12
    outer loop
      vertex -1.179140e+02 6.300747e+01 -3.930035e+02
      vertex -1.179140e+02 5.989385e+01 -3.934809e+02
      vertex -1.179140e+02 6.315144e+01 -3.939425e+02
    endloop
  endfacet
  facet normal 9.237749e-01 -5.803436e-02 3.785128e-01
    outer loop
      vertex -1.179140e+02 6.315144e+01 -3.939425e+02
      vertex -1.179140e+02 6.003782e+01 -3.944199e+02
      vertex -1.178847e+02 6.004854e+01 -3.944898e+02
    endloop
  endfacet
  facet normal 3.829360e-01 -1.399991e-01 9.131048e-01
    outer loop
      vertex -1.178847e+02 6.316215e+01 -3.940124e+02
      vertex -1.178847e+02 6.004854e+01 -3.944898e+02
      vertex -1.178140e+02 6.005298e+01 -3.945187e+02
    endloop
  endfacet
  facet normal 9.237749e-01 -5.803436e-02 3.785128e-01
    outer loop
      vertex -1.179140e+02 6.315144e+01 -3.939425e+02
      vertex -1.178847e+02 6.004854e+01 -3.944898e+02
      vertex -1.178847e+02 6.316215e+01 -3.940124e+02
    endloop
  endfacet
  facet normal -4.119766e-13 -9.884494e-01 -1.515511e-01
    outer loop
      vertex -1.771054e+01 6.013820e+01 -3.950746e+02
      vertex -1.750991e+01 6.005298e+01 -3.945187e+02
      vertex -1.178140e+02 6.005298e+01 -3.945187e+02
    endloop
  endfacet
  facet normal 2.699154e-12 -1.515511e-01 9.884494e-01
    outer loop
      vertex -1.178140e+02 6.316659e+01 -3.940414e+02
      vertex -1.178140e+02 6.005298e+01 -3.945187e+02
      vertex -1.750991e+01 6.005298e+01 -3.945187e+02
    endloop
  endfacet
  facet normal 3.829360e-01 -1.399991e-01 9.131048e-01
    outer loop
      vertex -1.178847e+02 6.316215e+01 -3.940124e+02
      vertex -1.178140e+02 6.005298e+01 -3.945187e+02
      vertex -1.178140e+02 6.316659e+01 -3.940414e+02
    endloop
  endfacet
  facet normal 4.428460e-13 9.884494e-01 1.515511e-01
    outer loop
      vertex -1.722050e+02 6.674320e+01 -4.173688e+02
      vertex -1.179640e+02 6.299989e+01 -3.929541e+02
      vertex -1.179140e+02 6.300747e+01 -3.930035e+02
    endloop
  endfacet
  facet normal 4.201814e-13 9.884494e-01 1.515511e-01
    outer loop
      vertex -1.284400e+01 6.749807e+01 -4.222922e+02
      vertex -1.284400e+01 7.088905e+01 -4.444089e+02
      vertex -1.476062e+01 7.296735e+01 -4.579640e+02
    endloop
  endfacet
  facet normal 4.046880e-13 9.884494e-01 1.515511e-01
    outer loop
      vertex -1.441160e+01 6.551566e+01 -4.093625e+02
      vertex -1.284400e+01 6.749807e+01 -4.222922e+02
      vertex -1.476062e+01 7.296735e+01 -4.579640e+02
    endloop
  endfacet
  facet normal 9.657519e-01 8.656094e-02 -2.446028e-01
    outer loop
      vertex -1.626758e+01 6.953546e+01 -4.651284e+02
      vertex -1.645588e+01 6.964359e+01 -4.658336e+02
      vertex -1.476062e+01 7.296735e+01 -4.579640e+02
    endloop
  endfacet
  facet normal 9.678005e-01 7.599563e-02 -2.399727e-01
    outer loop
      vertex -1.607990e+01 6.942479e+01 -4.644065e+02
      vertex -1.626758e+01 6.953546e+01 -4.651284e+02
      vertex -1.476062e+01 7.296735e+01 -4.579640e+02
    endloop
  endfacet
  facet normal 7.071068e-01 6.989393e-01 1.071628e-01
    outer loop
      vertex -1.239398e+01 6.879698e+01 -4.337334e+02
      vertex -1.284400e+01 7.088905e+01 -4.444089e+02
      vertex -1.284400e+01 6.749807e+01 -4.222922e+02
    endloop
  endfacet
  facet normal 9.992361e-01 -5.858143e-03 3.863799e-02
    outer loop
      vertex -1.239398e+01 6.879698e+01 -4.337334e+02
      vertex -1.284400e+01 6.749807e+01 -4.222922e+02
      vertex -1.239397e+01 6.547421e+01 -4.342373e+02
    endloop
  endfacet
  facet normal 4.121141e-13 9.884494e-01 1.515511e-01
    outer loop
      vertex -7.496400e+01 6.674320e+01 -4.173688e+02
      vertex -1.178140e+02 6.316659e+01 -3.940414e+02
      vertex -1.750991e+01 6.316659e+01 -3.940414e+02
    endloop
  endfacet
  facet normal 4.120662e-13 9.884494e-01 1.515511e-01
    outer loop
      vertex -7.346400e+01 6.697053e+01 -4.188514e+02
      vertex -7.496400e+01 6.674320e+01 -4.173688e+02
      vertex -1.750991e+01 6.316659e+01 -3.940414e+02
    endloop
  endfacet
  facet normal 4.114346e-13 9.884494e-01 1.515511e-01
    outer loop
      vertex -7.496400e+01 6.719785e+01 -4.203341e+02
      vertex -7.346400e+01 6.697053e+01 -4.188514e+02
      vertex -1.750991e+01 6.316659e+01 -3.940414e+02
    endloop
  endfacet
  facet normal 4.094669e-13 9.884494e-01 1.515511e-01
    outer loop
      vertex -1.722050e+02 6.674320e+01 -4.173688e+02
      vertex -1.178847e+02 6.316215e+01 -3.940124e+02
      vertex -1.178140e+02 6.316659e+01 -3.940414e+02
    endloop
  endfacet
  facet normal 4.120195e-13 9.884494e-01 1.515511e-01
    outer loop
      vertex -1.722050e+02 6.674320e+01 -4.173688e+02
      vertex -1.178140e+02 6.316659e+01 -3.940414e+02
      vertex -7.496400e+01 6.674320e+01 -4.173688e+02
    endloop
  endfacet
  facet normal 4.608803e-13 9.884494e-01 1.515511e-01
    outer loop
      vertex -1.722050e+02 6.674320e+01 -4.173688e+02
      vertex -1.179140e+02 6.315144e+01 -3.939425e+02
      vertex -1.178847e+02 6.316215e+01 -3.940124e+02
    endloop
  endfacet
  facet normal 4.152236e-13 9.884494e-01 1.515511e-01
    outer loop
      vertex -1.722050e+02 6.674320e+01 -4.173688e+02
      vertex -1.179140e+02 6.300747e+01 -3.930035e+02
      vertex -1.179140e+02 6.315144e+01 -3.939425e+02
    endloop
  endfacet
  facet normal 2.255718e-12 -9.884494e-01 -1.515511e-01
    outer loop
      vertex -1.662015e+01 5.997956e+01 -3.984646e+02
      vertex -1.631511e+01 6.019337e+01 -3.998591e+02
      vertex -1.646586e+01 6.008687e+01 -3.991644e+02
    endloop
  endfacet
  facet normal -4.179029e-13 -9.884494e-01 -1.515511e-01
    outer loop
      vertex -1.688268e+01 5.991537e+01 -3.980459e+02
      vertex -1.631511e+01 6.019337e+01 -3.998591e+02
      vertex -1.662015e+01 5.997956e+01 -3.984646e+02
    endloop
  endfacet
endsolid P1040852002
