solid P1040852002
  facet normal -1.571150e-13 -1.758473e-01 9.844175e-01
    outer loop
      vertex 2.472500e+02 5.434417e+01 -3.050801e+02
      vertex 2.472500e+02 5.651973e+01 -3.046915e+02
      vertex 2.100000e+02 5.651973e+01 -3.046915e+02
    endloop
  endfacet
  facet normal 8.795348e-13 9.844175e-01 1.758473e-01
    outer loop
      vertex 2.304410e+02 6.385271e+01 -3.457426e+02
      vertex 2.100000e+02 5.651973e+01 -3.046915e+02
      vertex 2.472500e+02 5.651973e+01 -3.046915e+02
    endloop
  endfacet
  facet normal -1.571817e-13 -1.758473e-01 9.844175e-01
    outer loop
      vertex 2.100000e+02 5.434417e+01 -3.050801e+02
      vertex 2.472500e+02 5.434417e+01 -3.050801e+02
      vertex 2.100000e+02 5.651973e+01 -3.046915e+02
    endloop
  endfacet
  facet normal -7.071068e-01 -1.243428e-01 6.960883e-01
    outer loop
      vertex 2.099500e+02 5.435296e+01 -3.051294e+02
      vertex 2.100000e+02 5.434417e+01 -3.050801e+02
      vertex 2.100000e+02 5.651973e+01 -3.046915e+02
    endloop
  endfacet
  facet normal -7.071068e-01 -1.243428e-01 6.960883e-01
    outer loop
      vertex 2.099500e+02 5.652852e+01 -3.047407e+02
      vertex 2.099500e+02 5.435296e+01 -3.051294e+02
      vertex 2.100000e+02 5.651973e+01 -3.046915e+02
    endloop
  endfacet
  facet normal 1.011472e-12 9.844175e-01 1.758473e-01
    outer loop
      vertex 2.099500e+02 5.669558e+01 -3.056759e+02
      vertex 2.099500e+02 5.652852e+01 -3.047407e+02
      vertex 2.100000e+02 5.651973e+01 -3.046915e+02
    endloop
  endfacet
  facet normal 8.958259e-13 9.844175e-01 1.758473e-01
    outer loop
      vertex 2.304410e+02 6.385271e+01 -3.457426e+02
      vertex 2.099500e+02 5.669558e+01 -3.056759e+02
      vertex 2.100000e+02 5.651973e+01 -3.046915e+02
    endloop
  endfacet
  facet normal 1.000000e+00 -9.008344e-13 -3.284455e-15
    outer loop
      vertex 2.472500e+02 5.495612e+01 -3.085059e+02
      vertex 2.472500e+02 5.651973e+01 -3.046915e+02
      vertex 2.472500e+02 5.434417e+01 -3.050801e+02
    endloop
  endfacet
  facet normal 1.000000e+00 -1.096923e-12 7.709701e-14
    outer loop
      vertex 2.472500e+02 5.447214e+01 -3.098622e+02
      vertex 2.472500e+02 5.651973e+01 -3.046915e+02
      vertex 2.472500e+02 5.495612e+01 -3.085059e+02
    endloop
  endfacet
  facet normal 1.000000e+00 -7.219042e-13 2.180582e-14
    outer loop
      vertex 2.472500e+02 6.575532e+01 -3.769239e+02
      vertex 2.472500e+02 5.651973e+01 -3.046915e+02
      vertex 2.472500e+02 6.567615e+01 -3.769380e+02
    endloop
  endfacet
  facet normal 1.000000e+00 -9.002285e-13 -7.947548e-16
    outer loop
      vertex 2.472500e+02 5.447214e+01 -3.098622e+02
      vertex 2.472500e+02 6.567615e+01 -3.769380e+02
      vertex 2.472500e+02 5.651973e+01 -3.046915e+02
    endloop
  endfacet
  facet normal 1.000000e+00 -8.427124e-13 8.259425e-15
    outer loop
      vertex 2.472500e+02 6.922244e+01 -3.816377e+02
      vertex 2.472500e+02 5.651973e+01 -3.046915e+02
      vertex 2.472500e+02 6.851905e+01 -3.777000e+02
    endloop
  endfacet
  facet normal 1.000000e+00 -8.829139e-13 1.652092e-15
    outer loop
      vertex 2.472500e+02 6.597513e+01 -3.781544e+02
      vertex 2.472500e+02 6.851905e+01 -3.777000e+02
      vertex 2.472500e+02 5.651973e+01 -3.046915e+02
    endloop
  endfacet
  facet normal 1.000000e+00 -9.020410e-13 -1.534887e-15
    outer loop
      vertex 2.472500e+02 7.029400e+01 -3.818018e+02
      vertex 2.472500e+02 5.651973e+01 -3.046915e+02
      vertex 2.472500e+02 6.922244e+01 -3.816377e+02
    endloop
  endfacet
  facet normal 8.794202e-13 9.844175e-01 1.758473e-01
    outer loop
      vertex 2.304410e+02 6.438026e+01 -3.486958e+02
      vertex 2.472500e+02 5.651973e+01 -3.046915e+02
      vertex 2.472500e+02 7.029400e+01 -3.818018e+02
    endloop
  endfacet
  facet normal 9.009480e-13 9.844175e-01 1.758473e-01
    outer loop
      vertex 2.304410e+02 6.438026e+01 -3.486958e+02
      vertex 2.304410e+02 6.385271e+01 -3.457426e+02
      vertex 2.472500e+02 5.651973e+01 -3.046915e+02
    endloop
  endfacet
  facet normal 1.000000e+00 -1.391929e-12 -6.386320e-14
    outer loop
      vertex 2.472500e+02 6.575532e+01 -3.769239e+02
      vertex 2.472500e+02 6.597513e+01 -3.781544e+02
      vertex 2.472500e+02 5.651973e+01 -3.046915e+02
    endloop
  endfacet
  facet normal -8.799226e-13 -9.844175e-01 -1.758473e-01
    outer loop
      vertex 2.465000e+02 5.482423e+01 -3.077676e+02
      vertex 2.472500e+02 5.434417e+01 -3.050801e+02
      vertex 2.100000e+02 5.434417e+01 -3.050801e+02
    endloop
  endfacet
  facet normal -8.587196e-13 -9.844175e-01 -1.758473e-01
    outer loop
      vertex 2.470303e+02 5.486286e+01 -3.079839e+02
      vertex 2.472500e+02 5.434417e+01 -3.050801e+02
      vertex 2.465000e+02 5.482423e+01 -3.077676e+02
    endloop
  endfacet
  facet normal -9.952910e-13 -9.844175e-01 -1.758473e-01
    outer loop
      vertex 2.470303e+02 5.486286e+01 -3.079839e+02
      vertex 2.472500e+02 5.495612e+01 -3.085059e+02
      vertex 2.472500e+02 5.434417e+01 -3.050801e+02
    endloop
  endfacet
  facet normal -8.699105e-13 -9.844175e-01 -1.758473e-01
    outer loop
      vertex 2.099500e+02 5.435296e+01 -3.051294e+02
      vertex 2.465000e+02 5.482423e+01 -3.077676e+02
      vertex 2.100000e+02 5.434417e+01 -3.050801e+02
    endloop
  endfacet
  facet normal -8.796936e-13 -9.844175e-01 -1.758473e-01
    outer loop
      vertex 2.098500e+02 5.453760e+01 -3.061630e+02
      vertex 9.421674e+01 5.482423e+01 -3.077676e+02
      vertex 2.465000e+02 5.482423e+01 -3.077676e+02
    endloop
  endfacet
  facet normal -1.571404e-13 -1.758473e-01 9.844175e-01
    outer loop
      vertex 2.465000e+02 5.412044e+01 -3.078933e+02
      vertex 2.465000e+02 5.482423e+01 -3.077676e+02
      vertex 9.421674e+01 5.482423e+01 -3.077676e+02
    endloop
  endfacet
  facet normal -8.561000e-13 -9.844175e-01 -1.758473e-01
    outer loop
      vertex 2.099207e+02 5.453245e+01 -3.061342e+02
      vertex 2.098500e+02 5.453760e+01 -3.061630e+02
      vertex 2.465000e+02 5.482423e+01 -3.077676e+02
    endloop
  endfacet
  facet normal -8.906216e-13 -9.844175e-01 -1.758473e-01
    outer loop
      vertex 2.099500e+02 5.452002e+01 -3.060646e+02
      vertex 2.099207e+02 5.453245e+01 -3.061342e+02
      vertex 2.465000e+02 5.482423e+01 -3.077676e+02
    endloop
  endfacet
  facet normal -8.793999e-13 -9.844175e-01 -1.758473e-01
    outer loop
      vertex 2.099500e+02 5.435296e+01 -3.051294e+02
      vertex 2.099500e+02 5.452002e+01 -3.060646e+02
      vertex 2.465000e+02 5.482423e+01 -3.077676e+02
    endloop
  endfacet
  facet normal 3.827076e-01 -1.624599e-01 9.094733e-01
    outer loop
      vertex 2.470303e+02 5.415907e+01 -3.081096e+02
      vertex 2.470303e+02 5.486286e+01 -3.079839e+02
      vertex 2.465000e+02 5.482423e+01 -3.077676e+02
    endloop
  endfacet
  facet normal 3.827076e-01 -1.624599e-01 9.094733e-01
    outer loop
      vertex 2.470303e+02 5.415907e+01 -3.081096e+02
      vertex 2.465000e+02 5.482423e+01 -3.077676e+02
      vertex 2.465000e+02 5.412044e+01 -3.078933e+02
    endloop
  endfacet
  facet normal -8.976439e-13 -9.844175e-01 -1.758473e-01
    outer loop
      vertex 9.393601e+01 5.453760e+01 -3.061630e+02
      vertex 9.374839e+01 5.485311e+01 -3.079292e+02
      vertex 9.421674e+01 5.482423e+01 -3.077676e+02
    endloop
  endfacet
  facet normal -3.308644e-01 -1.659433e-01 9.289734e-01
    outer loop
      vertex 9.421674e+01 5.412044e+01 -3.078933e+02
      vertex 9.421674e+01 5.482423e+01 -3.077676e+02
      vertex 9.374839e+01 5.485311e+01 -3.079292e+02
    endloop
  endfacet
  facet normal -8.796940e-13 -9.844175e-01 -1.758473e-01
    outer loop
      vertex 2.098500e+02 5.453760e+01 -3.061630e+02
      vertex 9.393601e+01 5.453760e+01 -3.061630e+02
      vertex 9.421674e+01 5.482423e+01 -3.077676e+02
    endloop
  endfacet
  facet normal -1.571404e-13 -1.758473e-01 9.844175e-01
    outer loop
      vertex 9.421674e+01 5.412044e+01 -3.078933e+02
      vertex 2.465000e+02 5.412044e+01 -3.078933e+02
      vertex 9.421674e+01 5.482423e+01 -3.077676e+02
    endloop
  endfacet
  facet normal -7.000585e-13 -9.844175e-01 -1.758473e-01
    outer loop
      vertex 9.352067e+01 5.489942e+01 -3.081885e+02
      vertex 9.348513e+01 5.492709e+01 -3.083434e+02
      vertex 9.374839e+01 5.485311e+01 -3.079292e+02
    endloop
  endfacet
  facet normal -8.477127e-01 -9.327918e-02 5.221898e-01
    outer loop
      vertex 9.374839e+01 5.414932e+01 -3.080550e+02
      vertex 9.374839e+01 5.485311e+01 -3.079292e+02
      vertex 9.348513e+01 5.492709e+01 -3.083434e+02
    endloop
  endfacet
  facet normal -8.017649e-13 -9.844175e-01 -1.758473e-01
    outer loop
      vertex 9.355636e+01 5.487171e+01 -3.080334e+02
      vertex 9.352067e+01 5.489942e+01 -3.081885e+02
      vertex 9.374839e+01 5.485311e+01 -3.079292e+02
    endloop
  endfacet
  facet normal -8.017991e-13 -9.844175e-01 -1.758473e-01
    outer loop
      vertex 9.393601e+01 5.453760e+01 -3.061630e+02
      vertex 9.355636e+01 5.487171e+01 -3.080334e+02
      vertex 9.374839e+01 5.485311e+01 -3.079292e+02
    endloop
  endfacet
  facet normal -3.308644e-01 -1.659433e-01 9.289734e-01
    outer loop
      vertex 9.374839e+01 5.414932e+01 -3.080550e+02
      vertex 9.421674e+01 5.412044e+01 -3.078933e+02
      vertex 9.374839e+01 5.485311e+01 -3.079292e+02
    endloop
  endfacet
  facet normal -9.750801e-01 -1.261922e-02 2.214940e-01
    outer loop
      vertex 9.223963e+01 5.811903e+01 -3.136446e+02
      vertex 9.348513e+01 5.492709e+01 -3.083434e+02
      vertex 9.352067e+01 5.489942e+01 -3.081885e+02
    endloop
  endfacet
  facet normal -9.775608e-01 -3.704284e-02 2.073710e-01
    outer loop
      vertex 9.348513e+01 5.422330e+01 -3.084691e+02
      vertex 9.348513e+01 5.492709e+01 -3.083434e+02
      vertex 9.223963e+01 5.811903e+01 -3.136446e+02
    endloop
  endfacet
  facet normal -8.477127e-01 -9.327918e-02 5.221898e-01
    outer loop
      vertex 9.374839e+01 5.414932e+01 -3.080550e+02
      vertex 9.348513e+01 5.492709e+01 -3.083434e+02
      vertex 9.348513e+01 5.422330e+01 -3.084691e+02
    endloop
  endfacet
  facet normal -9.749231e-01 -1.126366e-02 2.222570e-01
    outer loop
      vertex 9.223963e+01 5.811903e+01 -3.136446e+02
      vertex 9.352067e+01 5.489942e+01 -3.081885e+02
      vertex 9.355636e+01 5.487171e+01 -3.080334e+02
    endloop
  endfacet
  facet normal -9.806147e-01 -3.445660e-02 1.928928e-01
    outer loop
      vertex 9.393601e+01 5.671316e+01 -3.057744e+02
      vertex 9.355636e+01 5.487171e+01 -3.080334e+02
      vertex 9.393601e+01 5.453760e+01 -3.061630e+02
    endloop
  endfacet
  facet normal -9.806147e-01 -3.445660e-02 1.928928e-01
    outer loop
      vertex 9.355636e+01 5.704727e+01 -3.076448e+02
      vertex 9.355636e+01 5.487171e+01 -3.080334e+02
      vertex 9.393601e+01 5.671316e+01 -3.057744e+02
    endloop
  endfacet
  facet normal -9.774495e-01 -3.713351e-02 2.078785e-01
    outer loop
      vertex 9.223963e+01 5.811903e+01 -3.136446e+02
      vertex 9.355636e+01 5.487171e+01 -3.080334e+02
      vertex 9.355636e+01 5.704727e+01 -3.076448e+02
    endloop
  endfacet
  facet normal -1.571401e-13 -1.758473e-01 9.844175e-01
    outer loop
      vertex 9.393601e+01 5.671316e+01 -3.057744e+02
      vertex 9.393601e+01 5.453760e+01 -3.061630e+02
      vertex 2.098500e+02 5.453760e+01 -3.061630e+02
    endloop
  endfacet
  facet normal -3.826834e-01 -1.624617e-01 9.094831e-01
    outer loop
      vertex 2.098500e+02 5.671316e+01 -3.057744e+02
      vertex 2.098500e+02 5.453760e+01 -3.061630e+02
      vertex 2.099207e+02 5.453245e+01 -3.061342e+02
    endloop
  endfacet
  facet normal -1.571404e-13 -1.758473e-01 9.844175e-01
    outer loop
      vertex 9.393601e+01 5.671316e+01 -3.057744e+02
      vertex 2.098500e+02 5.453760e+01 -3.061630e+02
      vertex 2.098500e+02 5.671316e+01 -3.057744e+02
    endloop
  endfacet
  facet normal -9.238795e-01 -6.729384e-02 3.767203e-01
    outer loop
      vertex 2.099207e+02 5.670801e+01 -3.057455e+02
      vertex 2.099207e+02 5.453245e+01 -3.061342e+02
      vertex 2.099500e+02 5.452002e+01 -3.060646e+02
    endloop
  endfacet
  facet normal -3.826834e-01 -1.624617e-01 9.094831e-01
    outer loop
      vertex 2.098500e+02 5.671316e+01 -3.057744e+02
      vertex 2.099207e+02 5.453245e+01 -3.061342e+02
      vertex 2.099207e+02 5.670801e+01 -3.057455e+02
    endloop
  endfacet
  facet normal -1.000000e+00 8.998517e-13 8.785434e-15
    outer loop
      vertex 2.099500e+02 5.652852e+01 -3.047407e+02
      vertex 2.099500e+02 5.452002e+01 -3.060646e+02
      vertex 2.099500e+02 5.435296e+01 -3.051294e+02
    endloop
  endfacet
  facet normal -1.000000e+00 8.998517e-13 8.785434e-15
    outer loop
      vertex 2.099500e+02 5.669558e+01 -3.056759e+02
      vertex 2.099500e+02 5.452002e+01 -3.060646e+02
      vertex 2.099500e+02 5.652852e+01 -3.047407e+02
    endloop
  endfacet
  facet normal -9.238795e-01 -6.729384e-02 3.767203e-01
    outer loop
      vertex 2.099207e+02 5.670801e+01 -3.057455e+02
      vertex 2.099500e+02 5.452002e+01 -3.060646e+02
      vertex 2.099500e+02 5.669558e+01 -3.056759e+02
    endloop
  endfacet
  facet normal 9.238695e-01 -6.729810e-02 3.767441e-01
    outer loop
      vertex 2.472500e+02 5.425233e+01 -3.086316e+02
      vertex 2.472500e+02 5.495612e+01 -3.085059e+02
      vertex 2.470303e+02 5.486286e+01 -3.079839e+02
    endloop
  endfacet
  facet normal 1.000000e+00 -8.889611e-13 2.885135e-15
    outer loop
      vertex 2.472500e+02 5.447214e+01 -3.098622e+02
      vertex 2.472500e+02 5.495612e+01 -3.085059e+02
      vertex 2.472500e+02 5.425233e+01 -3.086316e+02
    endloop
  endfacet
  facet normal 9.238695e-01 -6.729810e-02 3.767441e-01
    outer loop
      vertex 2.470303e+02 5.415907e+01 -3.081096e+02
      vertex 2.472500e+02 5.425233e+01 -3.086316e+02
      vertex 2.470303e+02 5.486286e+01 -3.079839e+02
    endloop
  endfacet
  facet normal -8.796936e-13 -9.844175e-01 -1.758473e-01
    outer loop
      vertex 2.472500e+02 5.447214e+01 -3.098622e+02
      vertex 2.465000e+02 5.412044e+01 -3.078933e+02
      vertex 9.421674e+01 5.412044e+01 -3.078933e+02
    endloop
  endfacet
  facet normal -8.940638e-13 -9.844175e-01 -1.758473e-01
    outer loop
      vertex 2.470303e+02 5.415907e+01 -3.081096e+02
      vertex 2.465000e+02 5.412044e+01 -3.078933e+02
      vertex 2.472500e+02 5.447214e+01 -3.098622e+02
    endloop
  endfacet
  facet normal -8.801263e-13 -9.844175e-01 -1.758473e-01
    outer loop
      vertex 9.374839e+01 5.414932e+01 -3.080550e+02
      vertex 2.472500e+02 5.447214e+01 -3.098622e+02
      vertex 9.421674e+01 5.412044e+01 -3.078933e+02
    endloop
  endfacet
  facet normal -8.812224e-13 -9.860916e-01 -1.662025e-01
    outer loop
      vertex 2.472500e+02 6.567615e+01 -3.769380e+02
      vertex 2.304410e+02 6.101727e+01 -3.492966e+02
      vertex 1.332000e+02 6.101727e+01 -3.492966e+02
    endloop
  endfacet
  facet normal -1.571454e-13 -1.758473e-01 9.844175e-01
    outer loop
      vertex 1.332000e+02 6.438026e+01 -3.486958e+02
      vertex 1.332000e+02 6.101727e+01 -3.492966e+02
      vertex 2.304410e+02 6.101727e+01 -3.492966e+02
    endloop
  endfacet
  facet normal -8.844855e-13 -9.860916e-01 -1.662025e-01
    outer loop
      vertex 1.317000e+02 6.076796e+01 -3.478173e+02
      vertex 9.316920e+01 5.437370e+01 -3.098797e+02
      vertex 9.185713e+01 5.541521e+01 -3.160591e+02
    endloop
  endfacet
  facet normal 7.071068e-01 -1.243428e-01 6.960883e-01
    outer loop
      vertex 1.317000e+02 6.411649e+01 -3.472192e+02
      vertex 1.317000e+02 6.076796e+01 -3.478173e+02
      vertex 1.332000e+02 6.101727e+01 -3.492966e+02
    endloop
  endfacet
  facet normal -8.781071e-13 -9.860916e-01 -1.662025e-01
    outer loop
      vertex 9.185713e+01 5.541521e+01 -3.160591e+02
      vertex 1.332000e+02 6.101727e+01 -3.492966e+02
      vertex 1.317000e+02 6.076796e+01 -3.478173e+02
    endloop
  endfacet
  facet normal -8.811892e-13 -9.860916e-01 -1.662025e-01
    outer loop
      vertex 9.151578e+01 6.567615e+01 -3.769380e+02
      vertex 2.472500e+02 6.567615e+01 -3.769380e+02
      vertex 1.332000e+02 6.101727e+01 -3.492966e+02
    endloop
  endfacet
  facet normal -8.815679e-13 -9.860916e-01 -1.662025e-01
    outer loop
      vertex 9.185713e+01 5.541521e+01 -3.160591e+02
      vertex 9.151578e+01 6.567615e+01 -3.769380e+02
      vertex 1.332000e+02 6.101727e+01 -3.492966e+02
    endloop
  endfacet
  facet normal 7.071068e-01 -1.243428e-01 6.960883e-01
    outer loop
      vertex 1.317000e+02 6.411649e+01 -3.472192e+02
      vertex 1.332000e+02 6.101727e+01 -3.492966e+02
      vertex 1.332000e+02 6.438026e+01 -3.486958e+02
    endloop
  endfacet
  facet normal -8.651166e-13 -9.860916e-01 -1.662025e-01
    outer loop
      vertex 2.472500e+02 6.567615e+01 -3.769380e+02
      vertex 2.304410e+02 6.051864e+01 -3.463381e+02
      vertex 2.304410e+02 6.101727e+01 -3.492966e+02
    endloop
  endfacet
  facet normal -1.000000e+00 9.038546e-13 -1.371369e-15
    outer loop
      vertex 2.304410e+02 6.385271e+01 -3.457426e+02
      vertex 2.304410e+02 6.101727e+01 -3.492966e+02
      vertex 2.304410e+02 6.051864e+01 -3.463381e+02
    endloop
  endfacet
  facet normal -1.571201e-13 -1.758473e-01 9.844175e-01
    outer loop
      vertex 2.304410e+02 6.438026e+01 -3.486958e+02
      vertex 1.332000e+02 6.438026e+01 -3.486958e+02
      vertex 2.304410e+02 6.101727e+01 -3.492966e+02
    endloop
  endfacet
  facet normal -1.000000e+00 8.947955e-13 5.856158e-15
    outer loop
      vertex 2.304410e+02 6.438026e+01 -3.486958e+02
      vertex 2.304410e+02 6.101727e+01 -3.492966e+02
      vertex 2.304410e+02 6.385271e+01 -3.457426e+02
    endloop
  endfacet
  facet normal -8.810735e-13 -9.860916e-01 -1.662025e-01
    outer loop
      vertex 9.316920e+01 5.437370e+01 -3.098797e+02
      vertex 1.332000e+02 6.051864e+01 -3.463381e+02
      vertex 2.304410e+02 6.051864e+01 -3.463381e+02
    endloop
  endfacet
  facet normal 1.571198e-13 1.758473e-01 -9.844175e-01
    outer loop
      vertex 2.304410e+02 6.385271e+01 -3.457426e+02
      vertex 2.304410e+02 6.051864e+01 -3.463381e+02
      vertex 1.332000e+02 6.051864e+01 -3.463381e+02
    endloop
  endfacet
  facet normal -8.810640e-13 -9.860916e-01 -1.662025e-01
    outer loop
      vertex 2.472500e+02 5.437370e+01 -3.098797e+02
      vertex 9.316920e+01 5.437370e+01 -3.098797e+02
      vertex 2.304410e+02 6.051864e+01 -3.463381e+02
    endloop
  endfacet
  facet normal -8.818806e-13 -9.860916e-01 -1.662025e-01
    outer loop
      vertex 2.472500e+02 6.567615e+01 -3.769380e+02
      vertex 2.472500e+02 5.437370e+01 -3.098797e+02
      vertex 2.304410e+02 6.051864e+01 -3.463381e+02
    endloop
  endfacet
  facet normal -8.769518e-13 -9.860916e-01 -1.662025e-01
    outer loop
      vertex 9.316920e+01 5.437370e+01 -3.098797e+02
      vertex 1.317000e+02 6.076796e+01 -3.478173e+02
      vertex 1.332000e+02 6.051864e+01 -3.463381e+02
    endloop
  endfacet
  facet normal 7.071068e-01 1.243428e-01 -6.960883e-01
    outer loop
      vertex 1.332000e+02 6.385271e+01 -3.457426e+02
      vertex 1.332000e+02 6.051864e+01 -3.463381e+02
      vertex 1.317000e+02 6.076796e+01 -3.478173e+02
    endloop
  endfacet
  facet normal 1.571458e-13 1.758473e-01 -9.844175e-01
    outer loop
      vertex 2.304410e+02 6.385271e+01 -3.457426e+02
      vertex 1.332000e+02 6.051864e+01 -3.463381e+02
      vertex 1.332000e+02 6.385271e+01 -3.457426e+02
    endloop
  endfacet
  facet normal 7.071068e-01 1.243428e-01 -6.960883e-01
    outer loop
      vertex 1.332000e+02 6.385271e+01 -3.457426e+02
      vertex 1.317000e+02 6.076796e+01 -3.478173e+02
      vertex 1.317000e+02 6.411649e+01 -3.472192e+02
    endloop
  endfacet
  facet normal -1.578662e-13 -1.758473e-01 9.844175e-01
    outer loop
      vertex 9.316920e+01 5.447214e+01 -3.098622e+02
      vertex 9.316920e+01 5.437370e+01 -3.098797e+02
      vertex 2.472500e+02 5.437370e+01 -3.098797e+02
    endloop
  endfacet
  facet normal -9.787519e-01 -4.095672e-02 2.009159e-01
    outer loop
      vertex 9.223963e+01 5.811903e+01 -3.136446e+02
      vertex 9.185713e+01 5.541521e+01 -3.160591e+02
      vertex 9.316920e+01 5.437370e+01 -3.098797e+02
    endloop
  endfacet
  facet normal -9.780654e-01 -3.662860e-02 2.050520e-01
    outer loop
      vertex 9.316920e+01 5.447214e+01 -3.098622e+02
      vertex 9.223963e+01 5.811903e+01 -3.136446e+02
      vertex 9.316920e+01 5.437370e+01 -3.098797e+02
    endloop
  endfacet
  facet normal 1.000000e+00 -8.669976e-13 4.755964e-15
    outer loop
      vertex 2.472500e+02 5.447214e+01 -3.098622e+02
      vertex 2.472500e+02 5.437370e+01 -3.098797e+02
      vertex 2.472500e+02 6.567615e+01 -3.769380e+02
    endloop
  endfacet
  facet normal -1.571561e-13 -1.758473e-01 9.844175e-01
    outer loop
      vertex 2.472500e+02 5.447214e+01 -3.098622e+02
      vertex 9.316920e+01 5.447214e+01 -3.098622e+02
      vertex 2.472500e+02 5.437370e+01 -3.098797e+02
    endloop
  endfacet
  facet normal 1.571403e-13 1.758473e-01 -9.844175e-01
    outer loop
      vertex 2.472500e+02 6.575532e+01 -3.769239e+02
      vertex 2.472500e+02 6.567615e+01 -3.769380e+02
      vertex 9.151578e+01 6.567615e+01 -3.769380e+02
    endloop
  endfacet
  facet normal -8.510623e-13 -9.860916e-01 -1.662025e-01
    outer loop
      vertex 9.056507e+01 5.659512e+01 -3.230596e+02
      vertex 9.056336e+01 6.496250e+01 -3.727039e+02
      vertex 9.151578e+01 6.567615e+01 -3.769380e+02
    endloop
  endfacet
  facet normal -9.762705e-01 3.808057e-02 -2.131803e-01
    outer loop
      vertex 9.151578e+01 6.575532e+01 -3.769239e+02
      vertex 9.151578e+01 6.567615e+01 -3.769380e+02
      vertex 9.056336e+01 6.496250e+01 -3.727039e+02
    endloop
  endfacet
  facet normal -8.861421e-13 -9.860916e-01 -1.662025e-01
    outer loop
      vertex 9.185713e+01 5.541521e+01 -3.160591e+02
      vertex 9.056507e+01 5.659512e+01 -3.230596e+02
      vertex 9.151578e+01 6.567615e+01 -3.769380e+02
    endloop
  endfacet
  facet normal 1.571403e-13 1.758473e-01 -9.844175e-01
    outer loop
      vertex 2.472500e+02 6.575532e+01 -3.769239e+02
      vertex 9.151578e+01 6.567615e+01 -3.769380e+02
      vertex 9.151578e+01 6.575532e+01 -3.769239e+02
    endloop
  endfacet
  facet normal -9.058286e-13 -9.860916e-01 -1.662025e-01
    outer loop
      vertex 8.944858e+01 5.786830e+01 -3.306135e+02
      vertex 8.978191e+01 6.424642e+01 -3.684553e+02
      vertex 9.056336e+01 6.496250e+01 -3.727039e+02
    endloop
  endfacet
  facet normal -9.839451e-01 2.799478e-02 -1.762622e-01
    outer loop
      vertex 9.041179e+01 6.841960e+01 -3.713087e+02
      vertex 9.056336e+01 6.496250e+01 -3.727039e+02
      vertex 8.978191e+01 6.424642e+01 -3.684553e+02
    endloop
  endfacet
  facet normal -8.876133e-13 -9.860916e-01 -1.662025e-01
    outer loop
      vertex 9.056507e+01 5.659512e+01 -3.230596e+02
      vertex 8.944858e+01 5.786830e+01 -3.306135e+02
      vertex 9.056336e+01 6.496250e+01 -3.727039e+02
    endloop
  endfacet
  facet normal -9.781520e-01 3.948629e-02 -2.041065e-01
    outer loop
      vertex 9.123186e+01 6.909819e+01 -3.751075e+02
      vertex 9.056336e+01 6.496250e+01 -3.727039e+02
      vertex 9.041179e+01 6.841960e+01 -3.713087e+02
    endloop
  endfacet
  facet normal -9.762504e-01 3.339661e-02 -2.140558e-01
    outer loop
      vertex 9.151578e+01 6.575532e+01 -3.769239e+02
      vertex 9.056336e+01 6.496250e+01 -3.727039e+02
      vertex 9.123186e+01 6.909819e+01 -3.751075e+02
    endloop
  endfacet
  facet normal -8.835936e-13 -9.860916e-01 -1.662025e-01
    outer loop
      vertex 8.944858e+01 5.786830e+01 -3.306135e+02
      vertex 8.916405e+01 6.352244e+01 -3.641599e+02
      vertex 8.978191e+01 6.424642e+01 -3.684553e+02
    endloop
  endfacet
  facet normal -9.900810e-01 1.918218e-02 -1.391822e-01
    outer loop
      vertex 8.952463e+01 6.750281e+01 -3.661763e+02
      vertex 8.978191e+01 6.424642e+01 -3.684553e+02
      vertex 8.916405e+01 6.352244e+01 -3.641599e+02
    endloop
  endfacet
  facet normal -9.858023e-01 3.677278e-02 -1.638338e-01
    outer loop
      vertex 9.041179e+01 6.841960e+01 -3.713087e+02
      vertex 8.978191e+01 6.424642e+01 -3.684553e+02
      vertex 8.952463e+01 6.750281e+01 -3.661763e+02
    endloop
  endfacet
  facet normal -9.148016e-13 -9.860916e-01 -1.662025e-01
    outer loop
      vertex 8.870000e+01 5.908622e+01 -3.378395e+02
      vertex 8.870000e+01 6.277499e+01 -3.597252e+02
      vertex 8.916405e+01 6.352244e+01 -3.641599e+02
    endloop
  endfacet
  facet normal -9.944287e-01 4.085861e-02 -9.717090e-02
    outer loop
      vertex 8.952463e+01 6.750281e+01 -3.661763e+02
      vertex 8.916405e+01 6.352244e+01 -3.641599e+02
      vertex 8.870000e+01 6.277499e+01 -3.597252e+02
    endloop
  endfacet
  facet normal -8.432996e-13 -9.860916e-01 -1.662025e-01
    outer loop
      vertex 8.944858e+01 5.786830e+01 -3.306135e+02
      vertex 8.870000e+01 5.908622e+01 -3.378395e+02
      vertex 8.916405e+01 6.352244e+01 -3.641599e+02
    endloop
  endfacet
  facet normal -7.071068e-01 -6.972721e-01 -1.175229e-01
    outer loop
      vertex 8.836944e+01 6.223009e+01 -3.545034e+02
      vertex 8.870000e+01 6.277499e+01 -3.597252e+02
      vertex 8.870000e+01 5.908622e+01 -3.378395e+02
    endloop
  endfacet
  facet normal -9.934727e-01 2.005885e-02 -1.122922e-01
    outer loop
      vertex 8.952463e+01 6.750281e+01 -3.661763e+02
      vertex 8.870000e+01 6.277499e+01 -3.597252e+02
      vertex 8.870000e+01 6.623988e+01 -3.591063e+02
    endloop
  endfacet
  facet normal -9.980133e-01 1.107908e-02 -6.202223e-02
    outer loop
      vertex 8.836944e+01 6.223009e+01 -3.545034e+02
      vertex 8.870000e+01 6.623988e+01 -3.591063e+02
      vertex 8.870000e+01 6.277499e+01 -3.597252e+02
    endloop
  endfacet
  facet normal -9.948222e-01 -1.787150e-02 1.000471e-01
    outer loop
      vertex 8.870000e+01 6.233724e+01 -3.372587e+02
      vertex 8.870000e+01 5.908622e+01 -3.378395e+02
      vertex 8.944858e+01 5.786830e+01 -3.306135e+02
    endloop
  endfacet
  facet normal -9.982548e-01 -1.038452e-02 5.813398e-02
    outer loop
      vertex 8.835938e+01 6.301444e+01 -3.429868e+02
      vertex 8.870000e+01 5.908622e+01 -3.378395e+02
      vertex 8.870000e+01 6.233724e+01 -3.372587e+02
    endloop
  endfacet
  facet normal -7.071068e-01 -6.972721e-01 -1.175229e-01
    outer loop
      vertex 8.825063e+01 6.143479e+01 -3.490700e+02
      vertex 8.870000e+01 5.908622e+01 -3.378395e+02
      vertex 8.835953e+01 6.037776e+01 -3.434537e+02
    endloop
  endfacet
  facet normal -9.982538e-01 -1.035685e-02 5.815503e-02
    outer loop
      vertex 8.835938e+01 6.301444e+01 -3.429868e+02
      vertex 8.835953e+01 6.037776e+01 -3.434537e+02
      vertex 8.870000e+01 5.908622e+01 -3.378395e+02
    endloop
  endfacet
  facet normal -7.071068e-01 -6.972721e-01 -1.175229e-01
    outer loop
      vertex 8.836944e+01 6.223009e+01 -3.545034e+02
      vertex 8.870000e+01 5.908622e+01 -3.378395e+02
      vertex 8.825063e+01 6.143479e+01 -3.490700e+02
    endloop
  endfacet
  facet normal -9.894888e-01 -3.448942e-02 1.404363e-01
    outer loop
      vertex 9.025905e+01 6.003508e+01 -3.243709e+02
      vertex 8.944858e+01 5.786830e+01 -3.306135e+02
      vertex 9.056507e+01 5.659512e+01 -3.230596e+02
    endloop
  endfacet
  facet normal -9.907041e-01 -1.793223e-02 1.348471e-01
    outer loop
      vertex 8.929986e+01 6.126469e+01 -3.312545e+02
      vertex 8.944858e+01 5.786830e+01 -3.306135e+02
      vertex 9.025905e+01 6.003508e+01 -3.243709e+02
    endloop
  endfacet
  facet normal -9.951618e-01 -2.567896e-02 9.483486e-02
    outer loop
      vertex 8.870000e+01 6.233724e+01 -3.372587e+02
      vertex 8.944858e+01 5.786830e+01 -3.306135e+02
      vertex 8.929986e+01 6.126469e+01 -3.312545e+02
    endloop
  endfacet
  facet normal -9.837827e-01 -4.024948e-02 1.747901e-01
    outer loop
      vertex 9.114211e+01 5.911695e+01 -3.192311e+02
      vertex 9.056507e+01 5.659512e+01 -3.230596e+02
      vertex 9.185713e+01 5.541521e+01 -3.160591e+02
    endloop
  endfacet
  facet normal -9.859870e-01 -2.482794e-02 1.649643e-01
    outer loop
      vertex 9.025905e+01 6.003508e+01 -3.243709e+02
      vertex 9.056507e+01 5.659512e+01 -3.230596e+02
      vertex 9.114211e+01 5.911695e+01 -3.192311e+02
    endloop
  endfacet
  facet normal -9.817965e-01 -2.876474e-02 1.877453e-01
    outer loop
      vertex 9.114211e+01 5.911695e+01 -3.192311e+02
      vertex 9.185713e+01 5.541521e+01 -3.160591e+02
      vertex 9.223963e+01 5.811903e+01 -3.136446e+02
    endloop
  endfacet
  facet normal 1.571459e-13 1.758473e-01 -9.844175e-01
    outer loop
      vertex 2.465000e+02 6.865094e+01 -3.784383e+02
      vertex 2.465000e+02 6.610701e+01 -3.788927e+02
      vertex 9.260012e+01 6.610701e+01 -3.788927e+02
    endloop
  endfacet
  facet normal -8.797247e-13 -9.844175e-01 -1.758473e-01
    outer loop
      vertex 9.151578e+01 6.575532e+01 -3.769239e+02
      vertex 9.260012e+01 6.610701e+01 -3.788927e+02
      vertex 2.465000e+02 6.610701e+01 -3.788927e+02
    endloop
  endfacet
  facet normal 1.571459e-13 1.758473e-01 -9.844175e-01
    outer loop
      vertex 9.260012e+01 6.865094e+01 -3.784383e+02
      vertex 2.465000e+02 6.865094e+01 -3.784383e+02
      vertex 9.260012e+01 6.610701e+01 -3.788927e+02
    endloop
  endfacet
  facet normal -3.241207e-01 1.663543e-01 -9.312744e-01
    outer loop
      vertex 9.214025e+01 6.607931e+01 -3.787376e+02
      vertex 9.260012e+01 6.865094e+01 -3.784383e+02
      vertex 9.260012e+01 6.610701e+01 -3.788927e+02
    endloop
  endfacet
  facet normal -8.594709e-13 -9.844175e-01 -1.758473e-01
    outer loop
      vertex 9.214025e+01 6.607931e+01 -3.787376e+02
      vertex 9.260012e+01 6.610701e+01 -3.788927e+02
      vertex 9.151578e+01 6.575532e+01 -3.769239e+02
    endloop
  endfacet
  facet normal 3.827076e-01 1.624599e-01 -9.094733e-01
    outer loop
      vertex 2.470303e+02 6.861231e+01 -3.782220e+02
      vertex 2.465000e+02 6.610701e+01 -3.788927e+02
      vertex 2.465000e+02 6.865094e+01 -3.784383e+02
    endloop
  endfacet
  facet normal 3.827076e-01 1.624599e-01 -9.094733e-01
    outer loop
      vertex 2.470303e+02 6.606838e+01 -3.786765e+02
      vertex 2.465000e+02 6.610701e+01 -3.788927e+02
      vertex 2.470303e+02 6.861231e+01 -3.782220e+02
    endloop
  endfacet
  facet normal -8.804483e-13 -9.844175e-01 -1.758473e-01
    outer loop
      vertex 2.470303e+02 6.606838e+01 -3.786765e+02
      vertex 9.151578e+01 6.575532e+01 -3.769239e+02
      vertex 2.465000e+02 6.610701e+01 -3.788927e+02
    endloop
  endfacet
  facet normal -8.797249e-13 -9.844175e-01 -1.758473e-01
    outer loop
      vertex 2.465000e+02 6.909056e+01 -3.808993e+02
      vertex 2.465000e+02 6.865094e+01 -3.784383e+02
      vertex 9.260012e+01 6.865094e+01 -3.784383e+02
    endloop
  endfacet
  facet normal -8.929205e-13 -9.844175e-01 -1.758473e-01
    outer loop
      vertex 2.465000e+02 6.909056e+01 -3.808993e+02
      vertex 2.470303e+02 6.912919e+01 -3.811156e+02
      vertex 2.465000e+02 6.865094e+01 -3.784383e+02
    endloop
  endfacet
  facet normal -8.968131e-13 -9.844175e-01 -1.758473e-01
    outer loop
      vertex 2.470303e+02 6.861231e+01 -3.782220e+02
      vertex 2.465000e+02 6.865094e+01 -3.784383e+02
      vertex 2.470303e+02 6.912919e+01 -3.811156e+02
    endloop
  endfacet
  facet normal -8.797491e-13 -9.844175e-01 -1.758473e-01
    outer loop
      vertex 9.370157e+01 6.909056e+01 -3.808993e+02
      vertex 2.465000e+02 6.909056e+01 -3.808993e+02
      vertex 9.260012e+01 6.865094e+01 -3.784383e+02
    endloop
  endfacet
  facet normal -8.619047e-13 -9.844175e-01 -1.758473e-01
    outer loop
      vertex 9.310087e+01 6.914348e+01 -3.811956e+02
      vertex 9.370157e+01 6.909056e+01 -3.808993e+02
      vertex 9.260012e+01 6.865094e+01 -3.784383e+02
    endloop
  endfacet
  facet normal -9.899963e-13 -9.844175e-01 -1.758473e-01
    outer loop
      vertex 9.298223e+01 6.925977e+01 -3.818466e+02
      vertex 9.310087e+01 6.914348e+01 -3.811956e+02
      vertex 9.260012e+01 6.865094e+01 -3.784383e+02
    endloop
  endfacet
  facet normal -8.974951e-13 -9.844175e-01 -1.758473e-01
    outer loop
      vertex 9.243723e+01 6.892414e+01 -3.799677e+02
      vertex 9.298223e+01 6.925977e+01 -3.818466e+02
      vertex 9.260012e+01 6.865094e+01 -3.784383e+02
    endloop
  endfacet
  facet normal -8.459383e-13 -9.844175e-01 -1.758473e-01
    outer loop
      vertex 9.214025e+01 6.862323e+01 -3.782832e+02
      vertex 9.243723e+01 6.892414e+01 -3.799677e+02
      vertex 9.260012e+01 6.865094e+01 -3.784383e+02
    endloop
  endfacet
  facet normal -3.241207e-01 1.663543e-01 -9.312744e-01
    outer loop
      vertex 9.214025e+01 6.607931e+01 -3.787376e+02
      vertex 9.214025e+01 6.862323e+01 -3.782832e+02
      vertex 9.260012e+01 6.865094e+01 -3.784383e+02
    endloop
  endfacet
  facet normal -9.208631e-13 -9.844175e-01 -1.758473e-01
    outer loop
      vertex 2.470303e+02 6.861231e+01 -3.782220e+02
      vertex 2.472500e+02 6.922244e+01 -3.816377e+02
      vertex 2.472500e+02 6.851905e+01 -3.777000e+02
    endloop
  endfacet
  facet normal 9.238695e-01 6.729810e-02 -3.767441e-01
    outer loop
      vertex 2.470303e+02 6.606838e+01 -3.786765e+02
      vertex 2.470303e+02 6.861231e+01 -3.782220e+02
      vertex 2.472500e+02 6.851905e+01 -3.777000e+02
    endloop
  endfacet
  facet normal 9.238695e-01 6.729810e-02 -3.767441e-01
    outer loop
      vertex 2.470303e+02 6.606838e+01 -3.786765e+02
      vertex 2.472500e+02 6.851905e+01 -3.777000e+02
      vertex 2.472500e+02 6.597513e+01 -3.781544e+02
    endloop
  endfacet
  facet normal -8.190972e-13 -9.844175e-01 -1.758473e-01
    outer loop
      vertex 2.470303e+02 6.861231e+01 -3.782220e+02
      vertex 2.470303e+02 6.912919e+01 -3.811156e+02
      vertex 2.472500e+02 6.922244e+01 -3.816377e+02
    endloop
  endfacet
  facet normal 9.238695e-01 -6.729810e-02 3.767441e-01
    outer loop
      vertex 2.472500e+02 6.722014e+01 -3.819953e+02
      vertex 2.472500e+02 6.922244e+01 -3.816377e+02
      vertex 2.470303e+02 6.912919e+01 -3.811156e+02
    endloop
  endfacet
  facet normal 1.000000e+00 -8.951602e-13 5.077408e-15
    outer loop
      vertex 2.472500e+02 6.728168e+01 -3.823399e+02
      vertex 2.472500e+02 6.922244e+01 -3.816377e+02
      vertex 2.472500e+02 6.722014e+01 -3.819953e+02
    endloop
  endfacet
  facet normal 1.000000e+00 -8.992830e-13 1.647187e-14
    outer loop
      vertex 2.472500e+02 7.029400e+01 -3.818018e+02
      vertex 2.472500e+02 6.922244e+01 -3.816377e+02
      vertex 2.472500e+02 6.728168e+01 -3.823399e+02
    endloop
  endfacet
  facet normal 3.827076e-01 -1.624599e-01 9.094733e-01
    outer loop
      vertex 2.470303e+02 6.712688e+01 -3.814733e+02
      vertex 2.470303e+02 6.912919e+01 -3.811156e+02
      vertex 2.465000e+02 6.909056e+01 -3.808993e+02
    endloop
  endfacet
  facet normal 9.238695e-01 -6.729810e-02 3.767441e-01
    outer loop
      vertex 2.472500e+02 6.722014e+01 -3.819953e+02
      vertex 2.470303e+02 6.912919e+01 -3.811156e+02
      vertex 2.470303e+02 6.712688e+01 -3.814733e+02
    endloop
  endfacet
  facet normal -1.571503e-13 -1.758473e-01 9.844175e-01
    outer loop
      vertex 2.465000e+02 6.708825e+01 -3.812570e+02
      vertex 2.465000e+02 6.909056e+01 -3.808993e+02
      vertex 9.370157e+01 6.909056e+01 -3.808993e+02
    endloop
  endfacet
  facet normal 3.827076e-01 -1.624599e-01 9.094733e-01
    outer loop
      vertex 2.470303e+02 6.712688e+01 -3.814733e+02
      vertex 2.465000e+02 6.909056e+01 -3.808993e+02
      vertex 2.465000e+02 6.708825e+01 -3.812570e+02
    endloop
  endfacet
  facet normal -4.479133e-01 -1.572210e-01 8.801450e-01
    outer loop
      vertex 9.370157e+01 6.708825e+01 -3.812570e+02
      vertex 9.370157e+01 6.909056e+01 -3.808993e+02
      vertex 9.310087e+01 6.914348e+01 -3.811956e+02
    endloop
  endfacet
  facet normal -1.571503e-13 -1.758473e-01 9.844175e-01
    outer loop
      vertex 9.370157e+01 6.708825e+01 -3.812570e+02
      vertex 2.465000e+02 6.708825e+01 -3.812570e+02
      vertex 9.370157e+01 6.909056e+01 -3.808993e+02
    endloop
  endfacet
  facet normal -9.842871e-01 -3.105033e-02 1.738240e-01
    outer loop
      vertex 9.310087e+01 6.714117e+01 -3.815533e+02
      vertex 9.310087e+01 6.914348e+01 -3.811956e+02
      vertex 9.298223e+01 6.925977e+01 -3.818466e+02
    endloop
  endfacet
  facet normal -4.479133e-01 -1.572210e-01 8.801450e-01
    outer loop
      vertex 9.310087e+01 6.714117e+01 -3.815533e+02
      vertex 9.370157e+01 6.708825e+01 -3.812570e+02
      vertex 9.310087e+01 6.914348e+01 -3.811956e+02
    endloop
  endfacet
  facet normal -9.615660e-01 4.932960e-02 -2.701061e-01
    outer loop
      vertex 9.302270e+01 7.029400e+01 -3.818018e+02
      vertex 9.298223e+01 6.925977e+01 -3.818466e+02
      vertex 9.243723e+01 6.892414e+01 -3.799677e+02
    endloop
  endfacet
  facet normal -9.842871e-01 -3.105033e-02 1.738240e-01
    outer loop
      vertex 9.310087e+01 6.714117e+01 -3.815533e+02
      vertex 9.298223e+01 6.925977e+01 -3.818466e+02
      vertex 9.298223e+01 6.725746e+01 -3.822043e+02
    endloop
  endfacet
  facet normal -9.594520e-01 4.956641e-02 -2.774796e-01
    outer loop
      vertex 9.302270e+01 7.029400e+01 -3.818018e+02
      vertex 9.298223e+01 6.725746e+01 -3.822043e+02
      vertex 9.298223e+01 6.925977e+01 -3.818466e+02
    endloop
  endfacet
  facet normal -9.542205e-13 -9.844175e-01 -1.758473e-01
    outer loop
      vertex 9.214025e+01 6.862323e+01 -3.782832e+02
      vertex 9.187355e+01 6.855176e+01 -3.778831e+02
      vertex 9.243723e+01 6.892414e+01 -3.799677e+02
    endloop
  endfacet
  facet normal -9.656392e-01 8.295570e-02 -2.462910e-01
    outer loop
      vertex 9.302270e+01 7.029400e+01 -3.818018e+02
      vertex 9.243723e+01 6.892414e+01 -3.799677e+02
      vertex 9.187355e+01 6.855176e+01 -3.778831e+02
    endloop
  endfacet
  facet normal -8.360665e-01 9.647477e-02 -5.400791e-01
    outer loop
      vertex 9.187355e+01 6.600784e+01 -3.783375e+02
      vertex 9.187355e+01 6.855176e+01 -3.778831e+02
      vertex 9.214025e+01 6.862323e+01 -3.782832e+02
    endloop
  endfacet
  facet normal -9.658443e-01 9.344719e-02 -2.416866e-01
    outer loop
      vertex 9.123186e+01 6.909819e+01 -3.751075e+02
      vertex 9.302270e+01 7.029400e+01 -3.818018e+02
      vertex 9.187355e+01 6.855176e+01 -3.778831e+02
    endloop
  endfacet
  facet normal -9.714001e-01 4.425860e-02 -2.332875e-01
    outer loop
      vertex 9.151578e+01 6.575532e+01 -3.769239e+02
      vertex 9.123186e+01 6.909819e+01 -3.751075e+02
      vertex 9.187355e+01 6.855176e+01 -3.778831e+02
    endloop
  endfacet
  facet normal -9.710876e-01 4.374034e-02 -2.346819e-01
    outer loop
      vertex 9.169856e+01 6.588607e+01 -3.776559e+02
      vertex 9.151578e+01 6.575532e+01 -3.769239e+02
      vertex 9.187355e+01 6.855176e+01 -3.778831e+02
    endloop
  endfacet
  facet normal -9.695222e-01 4.308317e-02 -2.411855e-01
    outer loop
      vertex 9.187355e+01 6.600784e+01 -3.783375e+02
      vertex 9.169856e+01 6.588607e+01 -3.776559e+02
      vertex 9.187355e+01 6.855176e+01 -3.778831e+02
    endloop
  endfacet
  facet normal -8.360665e-01 9.647477e-02 -5.400791e-01
    outer loop
      vertex 9.214025e+01 6.607931e+01 -3.787376e+02
      vertex 9.187355e+01 6.600784e+01 -3.783375e+02
      vertex 9.214025e+01 6.862323e+01 -3.782832e+02
    endloop
  endfacet
  facet normal -8.797490e-13 -9.844175e-01 -1.758473e-01
    outer loop
      vertex 2.472500e+02 6.728168e+01 -3.823399e+02
      vertex 2.465000e+02 6.708825e+01 -3.812570e+02
      vertex 9.370157e+01 6.708825e+01 -3.812570e+02
    endloop
  endfacet
  facet normal -8.557634e-13 -9.844175e-01 -1.758473e-01
    outer loop
      vertex 2.472500e+02 6.728168e+01 -3.823399e+02
      vertex 2.470303e+02 6.712688e+01 -3.814733e+02
      vertex 2.465000e+02 6.708825e+01 -3.812570e+02
    endloop
  endfacet
  facet normal -8.797969e-13 -9.844175e-01 -1.758473e-01
    outer loop
      vertex 9.310087e+01 6.714117e+01 -3.815533e+02
      vertex 2.472500e+02 6.728168e+01 -3.823399e+02
      vertex 9.370157e+01 6.708825e+01 -3.812570e+02
    endloop
  endfacet
  facet normal -7.673634e-13 -9.844175e-01 -1.758473e-01
    outer loop
      vertex 2.472500e+02 6.728168e+01 -3.823399e+02
      vertex 2.472500e+02 6.722014e+01 -3.819953e+02
      vertex 2.470303e+02 6.712688e+01 -3.814733e+02
    endloop
  endfacet
  facet normal -8.796713e-13 -9.844175e-01 -1.758473e-01
    outer loop
      vertex 9.310087e+01 6.714117e+01 -3.815533e+02
      vertex 9.302270e+01 6.728168e+01 -3.823399e+02
      vertex 2.472500e+02 6.728168e+01 -3.823399e+02
    endloop
  endfacet
  facet normal 1.571364e-13 1.758473e-01 -9.844175e-01
    outer loop
      vertex 2.472500e+02 7.029400e+01 -3.818018e+02
      vertex 2.472500e+02 6.728168e+01 -3.823399e+02
      vertex 9.302270e+01 6.728168e+01 -3.823399e+02
    endloop
  endfacet
  facet normal -9.871613e-13 -9.844175e-01 -1.758473e-01
    outer loop
      vertex 9.310087e+01 6.714117e+01 -3.815533e+02
      vertex 9.300276e+01 6.726964e+01 -3.822725e+02
      vertex 9.302270e+01 6.728168e+01 -3.823399e+02
    endloop
  endfacet
  facet normal -9.601472e-01 4.914841e-02 -2.751396e-01
    outer loop
      vertex 9.302270e+01 7.029400e+01 -3.818018e+02
      vertex 9.302270e+01 6.728168e+01 -3.823399e+02
      vertex 9.300276e+01 6.726964e+01 -3.822725e+02
    endloop
  endfacet
  facet normal 1.571364e-13 1.758473e-01 -9.844175e-01
    outer loop
      vertex 9.302270e+01 7.029400e+01 -3.818018e+02
      vertex 2.472500e+02 7.029400e+01 -3.818018e+02
      vertex 9.302270e+01 6.728168e+01 -3.823399e+02
    endloop
  endfacet
  facet normal -1.884819e-13 -9.844175e-01 -1.758473e-01
    outer loop
      vertex 9.310087e+01 6.714117e+01 -3.815533e+02
      vertex 9.298223e+01 6.725746e+01 -3.822043e+02
      vertex 9.300276e+01 6.726964e+01 -3.822725e+02
    endloop
  endfacet
  facet normal -9.587598e-01 4.986591e-02 -2.798088e-01
    outer loop
      vertex 9.302270e+01 7.029400e+01 -3.818018e+02
      vertex 9.300276e+01 6.726964e+01 -3.822725e+02
      vertex 9.298223e+01 6.725746e+01 -3.822043e+02
    endloop
  endfacet
  facet normal 8.796669e-13 9.844175e-01 1.758473e-01
    outer loop
      vertex 2.304410e+02 6.438026e+01 -3.486958e+02
      vertex 2.472500e+02 7.029400e+01 -3.818018e+02
      vertex 9.302270e+01 7.029400e+01 -3.818018e+02
    endloop
  endfacet
  facet normal 8.984178e-13 9.844175e-01 1.758473e-01
    outer loop
      vertex 9.355636e+01 5.704727e+01 -3.076448e+02
      vertex 9.393601e+01 5.671316e+01 -3.057744e+02
      vertex 9.302270e+01 7.029400e+01 -3.818018e+02
    endloop
  endfacet
  facet normal 8.799679e-13 9.844175e-01 1.758473e-01
    outer loop
      vertex 1.317000e+02 6.411649e+01 -3.472192e+02
      vertex 9.302270e+01 7.029400e+01 -3.818018e+02
      vertex 9.393601e+01 5.671316e+01 -3.057744e+02
    endloop
  endfacet
  facet normal 8.694964e-13 9.844175e-01 1.758473e-01
    outer loop
      vertex 9.223963e+01 5.811903e+01 -3.136446e+02
      vertex 9.355636e+01 5.704727e+01 -3.076448e+02
      vertex 9.302270e+01 7.029400e+01 -3.818018e+02
    endloop
  endfacet
  facet normal 8.709818e-13 9.844175e-01 1.758473e-01
    outer loop
      vertex 9.123186e+01 6.909819e+01 -3.751075e+02
      vertex 9.223963e+01 5.811903e+01 -3.136446e+02
      vertex 9.302270e+01 7.029400e+01 -3.818018e+02
    endloop
  endfacet
  facet normal 8.800199e-13 9.844175e-01 1.758473e-01
    outer loop
      vertex 1.317000e+02 6.411649e+01 -3.472192e+02
      vertex 1.332000e+02 6.438026e+01 -3.486958e+02
      vertex 9.302270e+01 7.029400e+01 -3.818018e+02
    endloop
  endfacet
  facet normal 8.795804e-13 9.844175e-01 1.758473e-01
    outer loop
      vertex 2.304410e+02 6.438026e+01 -3.486958e+02
      vertex 9.302270e+01 7.029400e+01 -3.818018e+02
      vertex 1.332000e+02 6.438026e+01 -3.486958e+02
    endloop
  endfacet
  facet normal 9.254965e-13 9.844175e-01 1.758473e-01
    outer loop
      vertex 2.304410e+02 6.385271e+01 -3.457426e+02
      vertex 2.099207e+02 5.670801e+01 -3.057455e+02
      vertex 2.099500e+02 5.669558e+01 -3.056759e+02
    endloop
  endfacet
  facet normal 1.816409e-13 9.844175e-01 1.758473e-01
    outer loop
      vertex 1.332000e+02 6.385271e+01 -3.457426e+02
      vertex 2.098500e+02 5.671316e+01 -3.057744e+02
      vertex 2.099207e+02 5.670801e+01 -3.057455e+02
    endloop
  endfacet
  facet normal 8.797242e-13 9.844175e-01 1.758473e-01
    outer loop
      vertex 2.304410e+02 6.385271e+01 -3.457426e+02
      vertex 1.332000e+02 6.385271e+01 -3.457426e+02
      vertex 2.099207e+02 5.670801e+01 -3.057455e+02
    endloop
  endfacet
  facet normal 8.796934e-13 9.844175e-01 1.758473e-01
    outer loop
      vertex 1.332000e+02 6.385271e+01 -3.457426e+02
      vertex 9.393601e+01 5.671316e+01 -3.057744e+02
      vertex 2.098500e+02 5.671316e+01 -3.057744e+02
    endloop
  endfacet
  facet normal 8.665942e-13 9.844175e-01 1.758473e-01
    outer loop
      vertex 1.332000e+02 6.385271e+01 -3.457426e+02
      vertex 1.317000e+02 6.411649e+01 -3.472192e+02
      vertex 9.393601e+01 5.671316e+01 -3.057744e+02
    endloop
  endfacet
  facet normal 9.105051e-13 9.844175e-01 1.758473e-01
    outer loop
      vertex 9.123186e+01 6.909819e+01 -3.751075e+02
      vertex 9.114211e+01 5.911695e+01 -3.192311e+02
      vertex 9.223963e+01 5.811903e+01 -3.136446e+02
    endloop
  endfacet
  facet normal -9.755788e-01 -2.149789e-02 2.185951e-01
    outer loop
      vertex 9.332571e+01 5.434820e+01 -3.091683e+02
      vertex 9.348513e+01 5.422330e+01 -3.084691e+02
      vertex 9.223963e+01 5.811903e+01 -3.136446e+02
    endloop
  endfacet
  facet normal -9.761345e-01 -2.507816e-02 2.157139e-01
    outer loop
      vertex 9.316920e+01 5.447214e+01 -3.098622e+02
      vertex 9.332571e+01 5.434820e+01 -3.091683e+02
      vertex 9.223963e+01 5.811903e+01 -3.136446e+02
    endloop
  endfacet
  facet normal 8.704950e-13 9.844175e-01 1.758473e-01
    outer loop
      vertex 9.041179e+01 6.841960e+01 -3.713087e+02
      vertex 9.025905e+01 6.003508e+01 -3.243709e+02
      vertex 9.114211e+01 5.911695e+01 -3.192311e+02
    endloop
  endfacet
  facet normal 9.107528e-13 9.844175e-01 1.758473e-01
    outer loop
      vertex 9.123186e+01 6.909819e+01 -3.751075e+02
      vertex 9.041179e+01 6.841960e+01 -3.713087e+02
      vertex 9.114211e+01 5.911695e+01 -3.192311e+02
    endloop
  endfacet
  facet normal 8.766309e-13 9.844175e-01 1.758473e-01
    outer loop
      vertex 8.952463e+01 6.750281e+01 -3.661763e+02
      vertex 8.929986e+01 6.126469e+01 -3.312545e+02
      vertex 9.025905e+01 6.003508e+01 -3.243709e+02
    endloop
  endfacet
  facet normal 8.630100e-13 9.844175e-01 1.758473e-01
    outer loop
      vertex 9.041179e+01 6.841960e+01 -3.713087e+02
      vertex 8.952463e+01 6.750281e+01 -3.661763e+02
      vertex 9.025905e+01 6.003508e+01 -3.243709e+02
    endloop
  endfacet
  facet normal 8.817156e-13 9.844175e-01 1.758473e-01
    outer loop
      vertex 8.870000e+01 6.623988e+01 -3.591063e+02
      vertex 8.870000e+01 6.233724e+01 -3.372587e+02
      vertex 8.929986e+01 6.126469e+01 -3.312545e+02
    endloop
  endfacet
  facet normal 8.799821e-13 9.844175e-01 1.758473e-01
    outer loop
      vertex 8.952463e+01 6.750281e+01 -3.661763e+02
      vertex 8.870000e+01 6.623988e+01 -3.591063e+02
      vertex 8.929986e+01 6.126469e+01 -3.312545e+02
    endloop
  endfacet
  facet normal -7.071068e-01 6.960883e-01 1.243428e-01
    outer loop
      vertex 8.835938e+01 6.301444e+01 -3.429868e+02
      vertex 8.870000e+01 6.233724e+01 -3.372587e+02
      vertex 8.870000e+01 6.623988e+01 -3.591063e+02
    endloop
  endfacet
  facet normal -9.980121e-01 1.105196e-02 -6.204577e-02
    outer loop
      vertex 8.836961e+01 6.499459e+01 -3.540138e+02
      vertex 8.870000e+01 6.623988e+01 -3.591063e+02
      vertex 8.836944e+01 6.223009e+01 -3.545034e+02
    endloop
  endfacet
  facet normal -7.071068e-01 6.960883e-01 1.243428e-01
    outer loop
      vertex 8.825064e+01 6.391271e+01 -3.486338e+02
      vertex 8.870000e+01 6.623988e+01 -3.591063e+02
      vertex 8.836961e+01 6.499459e+01 -3.540138e+02
    endloop
  endfacet
  facet normal -7.071068e-01 6.960883e-01 1.243428e-01
    outer loop
      vertex 8.835938e+01 6.301444e+01 -3.429868e+02
      vertex 8.870000e+01 6.623988e+01 -3.591063e+02
      vertex 8.825064e+01 6.391271e+01 -3.486338e+02
    endloop
  endfacet
  facet normal -8.796723e-13 -9.844175e-01 -1.758473e-01
    outer loop
      vertex 2.472500e+02 5.447214e+01 -3.098622e+02
      vertex 9.348513e+01 5.422330e+01 -3.084691e+02
      vertex 9.332571e+01 5.434820e+01 -3.091683e+02
    endloop
  endfacet
  facet normal -8.799615e-13 -9.844175e-01 -1.758473e-01
    outer loop
      vertex 9.374839e+01 5.414932e+01 -3.080550e+02
      vertex 9.348513e+01 5.422330e+01 -3.084691e+02
      vertex 2.472500e+02 5.447214e+01 -3.098622e+02
    endloop
  endfacet
  facet normal -8.797814e-13 -9.844175e-01 -1.758473e-01
    outer loop
      vertex 2.472500e+02 5.447214e+01 -3.098622e+02
      vertex 9.332571e+01 5.434820e+01 -3.091683e+02
      vertex 9.316920e+01 5.447214e+01 -3.098622e+02
    endloop
  endfacet
  facet normal -9.998185e-01 -3.378683e-03 1.875090e-02
    outer loop
      vertex 8.835938e+01 6.301444e+01 -3.429868e+02
      vertex 8.825063e+01 6.143479e+01 -3.490700e+02
      vertex 8.835953e+01 6.037776e+01 -3.434537e+02
    endloop
  endfacet
  facet normal -9.997658e-01 3.753483e-03 -2.131120e-02
    outer loop
      vertex 8.825064e+01 6.391271e+01 -3.486338e+02
      vertex 8.836944e+01 6.223009e+01 -3.545034e+02
      vertex 8.825063e+01 6.143479e+01 -3.490700e+02
    endloop
  endfacet
  facet normal -9.998192e-01 -3.293639e-03 1.872883e-02
    outer loop
      vertex 8.835938e+01 6.301444e+01 -3.429868e+02
      vertex 8.825064e+01 6.391271e+01 -3.486338e+02
      vertex 8.825063e+01 6.143479e+01 -3.490700e+02
    endloop
  endfacet
  facet normal -9.997650e-01 3.842667e-03 -2.133675e-02
    outer loop
      vertex 8.825064e+01 6.391271e+01 -3.486338e+02
      vertex 8.836961e+01 6.499459e+01 -3.540138e+02
      vertex 8.836944e+01 6.223009e+01 -3.545034e+02
    endloop
  endfacet
  facet normal 4.614095e-12 -9.844175e-01 -1.758473e-01
    outer loop
      vertex 9.187355e+01 6.600784e+01 -3.783375e+02
      vertex 9.151578e+01 6.575532e+01 -3.769239e+02
      vertex 9.169856e+01 6.588607e+01 -3.776559e+02
    endloop
  endfacet
  facet normal -9.608104e-13 -9.844175e-01 -1.758473e-01
    outer loop
      vertex 9.214025e+01 6.607931e+01 -3.787376e+02
      vertex 9.151578e+01 6.575532e+01 -3.769239e+02
      vertex 9.187355e+01 6.600784e+01 -3.783375e+02
    endloop
  endfacet
  facet normal -8.796931e-13 -9.844175e-01 -1.758473e-01
    outer loop
      vertex 2.472500e+02 6.575532e+01 -3.769239e+02
      vertex 9.151578e+01 6.575532e+01 -3.769239e+02
      vertex 2.472500e+02 6.597513e+01 -3.781544e+02
    endloop
  endfacet
  facet normal -8.793502e-13 -9.844175e-01 -1.758473e-01
    outer loop
      vertex 2.470303e+02 6.606838e+01 -3.786765e+02
      vertex 2.472500e+02 6.597513e+01 -3.781544e+02
      vertex 9.151578e+01 6.575532e+01 -3.769239e+02
    endloop
  endfacet
  facet normal -7.115732e-13 -9.844175e-01 -1.758473e-01
    outer loop
      vertex 2.470303e+02 5.415907e+01 -3.081096e+02
      vertex 2.472500e+02 5.447214e+01 -3.098622e+02
      vertex 2.472500e+02 5.425233e+01 -3.086316e+02
    endloop
  endfacet
endsolid P1040852002
