solid P1040852002
  facet normal -1.312214e-13 -1.468661e-01 9.891564e-01
    outer loop
      vertex 2.472500e+02 4.513773e+01 -3.046923e+02
      vertex 2.472500e+02 4.732377e+01 -3.043677e+02
      vertex 2.100000e+02 4.732377e+01 -3.043677e+02
    endloop
  endfacet
  facet normal 8.837891e-13 9.891564e-01 1.468661e-01
    outer loop
      vertex 2.304410e+02 5.509164e+01 -3.566851e+02
      vertex 2.100000e+02 4.732377e+01 -3.043677e+02
      vertex 2.472500e+02 4.732377e+01 -3.043677e+02
    endloop
  endfacet
  facet normal -1.312207e-13 -1.468661e-01 9.891564e-01
    outer loop
      vertex 2.100000e+02 4.513773e+01 -3.046923e+02
      vertex 2.472500e+02 4.513773e+01 -3.046923e+02
      vertex 2.100000e+02 4.732377e+01 -3.043677e+02
    endloop
  endfacet
  facet normal -7.071068e-01 -1.038500e-01 6.994392e-01
    outer loop
      vertex 2.099500e+02 4.514508e+01 -3.047418e+02
      vertex 2.100000e+02 4.513773e+01 -3.046923e+02
      vertex 2.100000e+02 4.732377e+01 -3.043677e+02
    endloop
  endfacet
  facet normal -7.071068e-01 -1.038500e-01 6.994392e-01
    outer loop
      vertex 2.099500e+02 4.733111e+01 -3.044172e+02
      vertex 2.099500e+02 4.514508e+01 -3.047418e+02
      vertex 2.100000e+02 4.732377e+01 -3.043677e+02
    endloop
  endfacet
  facet normal 1.056465e-12 9.891564e-01 1.468661e-01
    outer loop
      vertex 2.099500e+02 4.747063e+01 -3.053569e+02
      vertex 2.099500e+02 4.733111e+01 -3.044172e+02
      vertex 2.100000e+02 4.732377e+01 -3.043677e+02
    endloop
  endfacet
  facet normal 8.938131e-13 9.891564e-01 1.468661e-01
    outer loop
      vertex 2.304410e+02 5.509164e+01 -3.566851e+02
      vertex 2.099500e+02 4.747063e+01 -3.053569e+02
      vertex 2.100000e+02 4.732377e+01 -3.043677e+02
    endloop
  endfacet
  facet normal 1.000000e+00 -8.969439e-13 -1.067702e-15
    outer loop
      vertex 2.472500e+02 4.564883e+01 -3.081346e+02
      vertex 2.472500e+02 4.732377e+01 -3.043677e+02
      vertex 2.472500e+02 4.513773e+01 -3.046923e+02
    endloop
  endfacet
  facet normal 1.000000e+00 -1.120842e-12 9.848971e-14
    outer loop
      vertex 2.472500e+02 4.512523e+01 -3.094760e+02
      vertex 2.472500e+02 4.732377e+01 -3.043677e+02
      vertex 2.472500e+02 4.564883e+01 -3.081346e+02
    endloop
  endfacet
  facet normal 1.000000e+00 -7.171074e-13 1.709533e-14
    outer loop
      vertex 2.472500e+02 5.443442e+01 -3.768401e+02
      vertex 2.472500e+02 4.732377e+01 -3.043677e+02
      vertex 2.472500e+02 5.435487e+01 -3.768520e+02
    endloop
  endfacet
  facet normal 1.000000e+00 -8.922490e-13 1.062670e-16
    outer loop
      vertex 2.472500e+02 4.512523e+01 -3.094760e+02
      vertex 2.472500e+02 5.435487e+01 -3.768520e+02
      vertex 2.472500e+02 4.732377e+01 -3.043677e+02
    endloop
  endfacet
  facet normal 1.000000e+00 -1.689715e-12 -1.072159e-13
    outer loop
      vertex 2.472500e+02 5.776164e+01 -3.816537e+02
      vertex 2.472500e+02 4.732377e+01 -3.043677e+02
      vertex 2.472500e+02 5.717417e+01 -3.776971e+02
    endloop
  endfacet
  facet normal 1.000000e+00 -8.895494e-13 2.711828e-16
    outer loop
      vertex 2.472500e+02 5.461800e+01 -3.780766e+02
      vertex 2.472500e+02 5.717417e+01 -3.776971e+02
      vertex 2.472500e+02 4.732377e+01 -3.043677e+02
    endloop
  endfacet
  facet normal 1.000000e+00 -8.792053e-13 2.247644e-15
    outer loop
      vertex 2.472500e+02 5.882792e+01 -3.818492e+02
      vertex 2.472500e+02 4.732377e+01 -3.043677e+02
      vertex 2.472500e+02 5.776164e+01 -3.816537e+02
    endloop
  endfacet
  facet normal 8.834352e-13 9.891564e-01 1.468661e-01
    outer loop
      vertex 2.304410e+02 5.553224e+01 -3.596525e+02
      vertex 2.472500e+02 4.732377e+01 -3.043677e+02
      vertex 2.472500e+02 5.882792e+01 -3.818492e+02
    endloop
  endfacet
  facet normal 8.840393e-13 9.891564e-01 1.468661e-01
    outer loop
      vertex 2.304410e+02 5.553224e+01 -3.596525e+02
      vertex 2.304410e+02 5.509164e+01 -3.566851e+02
      vertex 2.472500e+02 4.732377e+01 -3.043677e+02
    endloop
  endfacet
  facet normal 1.000000e+00 -1.002073e-12 -1.086419e-14
    outer loop
      vertex 2.472500e+02 5.443442e+01 -3.768401e+02
      vertex 2.472500e+02 5.461800e+01 -3.780766e+02
      vertex 2.472500e+02 4.732377e+01 -3.043677e+02
    endloop
  endfacet
  facet normal -8.837831e-13 -9.891564e-01 -1.468661e-01
    outer loop
      vertex 2.465000e+02 4.553868e+01 -3.073927e+02
      vertex 2.472500e+02 4.513773e+01 -3.046923e+02
      vertex 2.100000e+02 4.513773e+01 -3.046923e+02
    endloop
  endfacet
  facet normal -8.763968e-13 -9.891564e-01 -1.468661e-01
    outer loop
      vertex 2.470303e+02 4.557094e+01 -3.076100e+02
      vertex 2.472500e+02 4.513773e+01 -3.046923e+02
      vertex 2.465000e+02 4.553868e+01 -3.073927e+02
    endloop
  endfacet
  facet normal -8.637546e-13 -9.891564e-01 -1.468661e-01
    outer loop
      vertex 2.470303e+02 4.557094e+01 -3.076100e+02
      vertex 2.472500e+02 4.564883e+01 -3.081346e+02
      vertex 2.472500e+02 4.513773e+01 -3.046923e+02
    endloop
  endfacet
  facet normal -8.992615e-13 -9.891564e-01 -1.468661e-01
    outer loop
      vertex 2.099500e+02 4.514508e+01 -3.047418e+02
      vertex 2.465000e+02 4.553868e+01 -3.073927e+02
      vertex 2.100000e+02 4.513773e+01 -3.046923e+02
    endloop
  endfacet
  facet normal -8.839283e-13 -9.891564e-01 -1.468661e-01
    outer loop
      vertex 2.098500e+02 4.529929e+01 -3.057804e+02
      vertex 9.421674e+01 4.553868e+01 -3.073927e+02
      vertex 2.465000e+02 4.553868e+01 -3.073927e+02
    endloop
  endfacet
  facet normal -1.312422e-13 -1.468661e-01 9.891564e-01
    outer loop
      vertex 2.465000e+02 4.483150e+01 -3.074977e+02
      vertex 2.465000e+02 4.553868e+01 -3.073927e+02
      vertex 9.421674e+01 4.553868e+01 -3.073927e+02
    endloop
  endfacet
  facet normal -8.885592e-13 -9.891564e-01 -1.468661e-01
    outer loop
      vertex 2.099207e+02 4.529498e+01 -3.057514e+02
      vertex 2.098500e+02 4.529929e+01 -3.057804e+02
      vertex 2.465000e+02 4.553868e+01 -3.073927e+02
    endloop
  endfacet
  facet normal -8.856027e-13 -9.891564e-01 -1.468661e-01
    outer loop
      vertex 2.099500e+02 4.528460e+01 -3.056815e+02
      vertex 2.099207e+02 4.529498e+01 -3.057514e+02
      vertex 2.465000e+02 4.553868e+01 -3.073927e+02
    endloop
  endfacet
  facet normal -8.840282e-13 -9.891564e-01 -1.468661e-01
    outer loop
      vertex 2.099500e+02 4.514508e+01 -3.047418e+02
      vertex 2.099500e+02 4.528460e+01 -3.056815e+02
      vertex 2.465000e+02 4.553868e+01 -3.073927e+02
    endloop
  endfacet
  facet normal 3.827076e-01 -1.356851e-01 9.138514e-01
    outer loop
      vertex 2.470303e+02 4.486376e+01 -3.077150e+02
      vertex 2.470303e+02 4.557094e+01 -3.076100e+02
      vertex 2.465000e+02 4.553868e+01 -3.073927e+02
    endloop
  endfacet
  facet normal 3.827076e-01 -1.356851e-01 9.138514e-01
    outer loop
      vertex 2.470303e+02 4.486376e+01 -3.077150e+02
      vertex 2.465000e+02 4.553868e+01 -3.073927e+02
      vertex 2.465000e+02 4.483150e+01 -3.074977e+02
    endloop
  endfacet
  facet normal -8.933237e-13 -9.891564e-01 -1.468661e-01
    outer loop
      vertex 9.393601e+01 4.529929e+01 -3.057804e+02
      vertex 9.374839e+01 4.556279e+01 -3.075551e+02
      vertex 9.421674e+01 4.553868e+01 -3.073927e+02
    endloop
  endfacet
  facet normal -3.308644e-01 -1.385943e-01 9.334454e-01
    outer loop
      vertex 9.421674e+01 4.483150e+01 -3.074977e+02
      vertex 9.421674e+01 4.553868e+01 -3.073927e+02
      vertex 9.374839e+01 4.556279e+01 -3.075551e+02
    endloop
  endfacet
  facet normal -8.839288e-13 -9.891564e-01 -1.468661e-01
    outer loop
      vertex 2.098500e+02 4.529929e+01 -3.057804e+02
      vertex 9.393601e+01 4.529929e+01 -3.057804e+02
      vertex 9.421674e+01 4.553868e+01 -3.073927e+02
    endloop
  endfacet
  facet normal -1.312423e-13 -1.468661e-01 9.891564e-01
    outer loop
      vertex 9.421674e+01 4.483150e+01 -3.074977e+02
      vertex 2.465000e+02 4.483150e+01 -3.074977e+02
      vertex 9.421674e+01 4.553868e+01 -3.073927e+02
    endloop
  endfacet
  facet normal -1.027934e-12 -9.891564e-01 -1.468661e-01
    outer loop
      vertex 9.352067e+01 4.560148e+01 -3.078157e+02
      vertex 9.348513e+01 4.562458e+01 -3.079713e+02
      vertex 9.374839e+01 4.556279e+01 -3.075551e+02
    endloop
  endfacet
  facet normal -8.477127e-01 -7.790594e-02 5.247036e-01
    outer loop
      vertex 9.374839e+01 4.485562e+01 -3.076601e+02
      vertex 9.374839e+01 4.556279e+01 -3.075551e+02
      vertex 9.348513e+01 4.562458e+01 -3.079713e+02
    endloop
  endfacet
  facet normal -8.621633e-13 -9.891564e-01 -1.468661e-01
    outer loop
      vertex 9.355636e+01 4.557833e+01 -3.076598e+02
      vertex 9.352067e+01 4.560148e+01 -3.078157e+02
      vertex 9.374839e+01 4.556279e+01 -3.075551e+02
    endloop
  endfacet
  facet normal -8.729182e-13 -9.891564e-01 -1.468661e-01
    outer loop
      vertex 9.393601e+01 4.529929e+01 -3.057804e+02
      vertex 9.355636e+01 4.557833e+01 -3.076598e+02
      vertex 9.374839e+01 4.556279e+01 -3.075551e+02
    endloop
  endfacet
  facet normal -3.308644e-01 -1.385943e-01 9.334454e-01
    outer loop
      vertex 9.374839e+01 4.485562e+01 -3.076601e+02
      vertex 9.421674e+01 4.483150e+01 -3.074977e+02
      vertex 9.374839e+01 4.556279e+01 -3.075551e+02
    endloop
  endfacet
  facet normal -9.750801e-01 -6.110066e-03 2.217690e-01
    outer loop
      vertex 9.223963e+01 4.865949e+01 -3.133639e+02
      vertex 9.348513e+01 4.562458e+01 -3.079713e+02
      vertex 9.352067e+01 4.560148e+01 -3.078157e+02
    endloop
  endfacet
  facet normal -9.775608e-01 -3.093785e-02 2.083692e-01
    outer loop
      vertex 9.348513e+01 4.491741e+01 -3.080763e+02
      vertex 9.348513e+01 4.562458e+01 -3.079713e+02
      vertex 9.223963e+01 4.865949e+01 -3.133639e+02
    endloop
  endfacet
  facet normal -8.477127e-01 -7.790594e-02 5.247036e-01
    outer loop
      vertex 9.374839e+01 4.485562e+01 -3.076601e+02
      vertex 9.348513e+01 4.562458e+01 -3.079713e+02
      vertex 9.348513e+01 4.491741e+01 -3.080763e+02
    endloop
  endfacet
  facet normal -9.749231e-01 -4.732691e-03 2.224919e-01
    outer loop
      vertex 9.223963e+01 4.865949e+01 -3.133639e+02
      vertex 9.352067e+01 4.560148e+01 -3.078157e+02
      vertex 9.355636e+01 4.557833e+01 -3.076598e+02
    endloop
  endfacet
  facet normal -9.806147e-01 -2.877784e-02 1.938214e-01
    outer loop
      vertex 9.393601e+01 4.748532e+01 -3.054558e+02
      vertex 9.355636e+01 4.557833e+01 -3.076598e+02
      vertex 9.393601e+01 4.529929e+01 -3.057804e+02
    endloop
  endfacet
  facet normal -9.806147e-01 -2.877784e-02 1.938214e-01
    outer loop
      vertex 9.355636e+01 4.776437e+01 -3.073352e+02
      vertex 9.355636e+01 4.557833e+01 -3.076598e+02
      vertex 9.393601e+01 4.748532e+01 -3.054558e+02
    endloop
  endfacet
  facet normal -9.774495e-01 -3.101358e-02 2.088792e-01
    outer loop
      vertex 9.223963e+01 4.865949e+01 -3.133639e+02
      vertex 9.355636e+01 4.557833e+01 -3.076598e+02
      vertex 9.355636e+01 4.776437e+01 -3.073352e+02
    endloop
  endfacet
  facet normal -1.312423e-13 -1.468661e-01 9.891564e-01
    outer loop
      vertex 9.393601e+01 4.748532e+01 -3.054558e+02
      vertex 9.393601e+01 4.529929e+01 -3.057804e+02
      vertex 2.098500e+02 4.529929e+01 -3.057804e+02
    endloop
  endfacet
  facet normal -3.826834e-01 -1.356866e-01 9.138613e-01
    outer loop
      vertex 2.098500e+02 4.748532e+01 -3.054558e+02
      vertex 2.098500e+02 4.529929e+01 -3.057804e+02
      vertex 2.099207e+02 4.529498e+01 -3.057514e+02
    endloop
  endfacet
  facet normal -1.312423e-13 -1.468661e-01 9.891564e-01
    outer loop
      vertex 9.393601e+01 4.748532e+01 -3.054558e+02
      vertex 2.098500e+02 4.529929e+01 -3.057804e+02
      vertex 2.098500e+02 4.748532e+01 -3.054558e+02
    endloop
  endfacet
  facet normal -9.238795e-01 -5.620322e-02 3.785338e-01
    outer loop
      vertex 2.099207e+02 4.748102e+01 -3.054268e+02
      vertex 2.099207e+02 4.529498e+01 -3.057514e+02
      vertex 2.099500e+02 4.528460e+01 -3.056815e+02
    endloop
  endfacet
  facet normal -3.826834e-01 -1.356866e-01 9.138613e-01
    outer loop
      vertex 2.098500e+02 4.748532e+01 -3.054558e+02
      vertex 2.099207e+02 4.529498e+01 -3.057514e+02
      vertex 2.099207e+02 4.748102e+01 -3.054268e+02
    endloop
  endfacet
  facet normal -1.000000e+00 8.953278e-13 1.195255e-14
    outer loop
      vertex 2.099500e+02 4.733111e+01 -3.044172e+02
      vertex 2.099500e+02 4.528460e+01 -3.056815e+02
      vertex 2.099500e+02 4.514508e+01 -3.047418e+02
    endloop
  endfacet
  facet normal -1.000000e+00 8.953278e-13 1.195255e-14
    outer loop
      vertex 2.099500e+02 4.747063e+01 -3.053569e+02
      vertex 2.099500e+02 4.528460e+01 -3.056815e+02
      vertex 2.099500e+02 4.733111e+01 -3.044172e+02
    endloop
  endfacet
  facet normal -9.238795e-01 -5.620322e-02 3.785338e-01
    outer loop
      vertex 2.099207e+02 4.748102e+01 -3.054268e+02
      vertex 2.099500e+02 4.528460e+01 -3.056815e+02
      vertex 2.099500e+02 4.747063e+01 -3.053569e+02
    endloop
  endfacet
  facet normal 9.238695e-01 -5.620677e-02 3.785577e-01
    outer loop
      vertex 2.472500e+02 4.494165e+01 -3.082396e+02
      vertex 2.472500e+02 4.564883e+01 -3.081346e+02
      vertex 2.470303e+02 4.557094e+01 -3.076100e+02
    endloop
  endfacet
  facet normal 1.000000e+00 -8.851537e-13 6.495571e-15
    outer loop
      vertex 2.472500e+02 4.512523e+01 -3.094760e+02
      vertex 2.472500e+02 4.564883e+01 -3.081346e+02
      vertex 2.472500e+02 4.494165e+01 -3.082396e+02
    endloop
  endfacet
  facet normal 9.238695e-01 -5.620677e-02 3.785577e-01
    outer loop
      vertex 2.470303e+02 4.486376e+01 -3.077150e+02
      vertex 2.472500e+02 4.494165e+01 -3.082396e+02
      vertex 2.470303e+02 4.557094e+01 -3.076100e+02
    endloop
  endfacet
  facet normal -8.839283e-13 -9.891564e-01 -1.468661e-01
    outer loop
      vertex 2.472500e+02 4.512523e+01 -3.094760e+02
      vertex 2.465000e+02 4.483150e+01 -3.074977e+02
      vertex 9.421674e+01 4.483150e+01 -3.074977e+02
    endloop
  endfacet
  facet normal -8.634618e-13 -9.891564e-01 -1.468661e-01
    outer loop
      vertex 2.470303e+02 4.486376e+01 -3.077150e+02
      vertex 2.465000e+02 4.483150e+01 -3.074977e+02
      vertex 2.472500e+02 4.512523e+01 -3.094760e+02
    endloop
  endfacet
  facet normal -8.850493e-13 -9.891564e-01 -1.468661e-01
    outer loop
      vertex 9.374839e+01 4.485562e+01 -3.076601e+02
      vertex 2.472500e+02 4.512523e+01 -3.094760e+02
      vertex 9.421674e+01 4.483150e+01 -3.074977e+02
    endloop
  endfacet
  facet normal -8.850583e-13 -9.905466e-01 -1.371763e-01
    outer loop
      vertex 2.472500e+02 5.435487e+01 -3.768520e+02
      vertex 2.304410e+02 5.204471e+01 -3.601703e+02
      vertex 1.332000e+02 5.204471e+01 -3.601703e+02
    endloop
  endfacet
  facet normal -1.312248e-13 -1.468661e-01 9.891564e-01
    outer loop
      vertex 1.332000e+02 5.553224e+01 -3.596525e+02
      vertex 1.332000e+02 5.204471e+01 -3.601703e+02
      vertex 2.304410e+02 5.204471e+01 -3.601703e+02
    endloop
  endfacet
  facet normal -8.895691e-13 -9.905466e-01 -1.371763e-01
    outer loop
      vertex 9.151578e+01 5.435487e+01 -3.768520e+02
      vertex 1.332000e+02 5.204471e+01 -3.601703e+02
      vertex 1.317000e+02 5.183894e+01 -3.586845e+02
    endloop
  endfacet
  facet normal 7.071068e-01 -1.038500e-01 6.994392e-01
    outer loop
      vertex 1.317000e+02 5.531194e+01 -3.581688e+02
      vertex 1.317000e+02 5.183894e+01 -3.586845e+02
      vertex 1.332000e+02 5.204471e+01 -3.601703e+02
    endloop
  endfacet
  facet normal -8.851703e-13 -9.905466e-01 -1.371763e-01
    outer loop
      vertex 9.151578e+01 5.435487e+01 -3.768520e+02
      vertex 2.472500e+02 5.435487e+01 -3.768520e+02
      vertex 1.332000e+02 5.204471e+01 -3.601703e+02
    endloop
  endfacet
  facet normal 7.071068e-01 -1.038500e-01 6.994392e-01
    outer loop
      vertex 1.317000e+02 5.531194e+01 -3.581688e+02
      vertex 1.332000e+02 5.204471e+01 -3.601703e+02
      vertex 1.332000e+02 5.553224e+01 -3.596525e+02
    endloop
  endfacet
  facet normal -8.870967e-13 -9.905466e-01 -1.371763e-01
    outer loop
      vertex 2.472500e+02 5.435487e+01 -3.768520e+02
      vertex 2.304410e+02 5.163316e+01 -3.571986e+02
      vertex 2.304410e+02 5.204471e+01 -3.601703e+02
    endloop
  endfacet
  facet normal -1.000000e+00 8.863568e-13 7.981209e-15
    outer loop
      vertex 2.304410e+02 5.509164e+01 -3.566851e+02
      vertex 2.304410e+02 5.204471e+01 -3.601703e+02
      vertex 2.304410e+02 5.163316e+01 -3.571986e+02
    endloop
  endfacet
  facet normal -1.312468e-13 -1.468661e-01 9.891564e-01
    outer loop
      vertex 2.304410e+02 5.553224e+01 -3.596525e+02
      vertex 1.332000e+02 5.553224e+01 -3.596525e+02
      vertex 2.304410e+02 5.204471e+01 -3.601703e+02
    endloop
  endfacet
  facet normal -1.000000e+00 8.965915e-13 -9.662396e-16
    outer loop
      vertex 2.304410e+02 5.553224e+01 -3.596525e+02
      vertex 2.304410e+02 5.204471e+01 -3.601703e+02
      vertex 2.304410e+02 5.509164e+01 -3.566851e+02
    endloop
  endfacet
  facet normal -8.850632e-13 -9.905466e-01 -1.371763e-01
    outer loop
      vertex 9.316920e+01 4.502632e+01 -3.094907e+02
      vertex 1.332000e+02 5.163316e+01 -3.571986e+02
      vertex 2.304410e+02 5.163316e+01 -3.571986e+02
    endloop
  endfacet
  facet normal 1.312253e-13 1.468661e-01 -9.891564e-01
    outer loop
      vertex 2.304410e+02 5.509164e+01 -3.566851e+02
      vertex 2.304410e+02 5.163316e+01 -3.571986e+02
      vertex 1.332000e+02 5.163316e+01 -3.571986e+02
    endloop
  endfacet
  facet normal -8.850665e-13 -9.905466e-01 -1.371763e-01
    outer loop
      vertex 2.472500e+02 4.502632e+01 -3.094907e+02
      vertex 9.316920e+01 4.502632e+01 -3.094907e+02
      vertex 2.304410e+02 5.163316e+01 -3.571986e+02
    endloop
  endfacet
  facet normal -8.844167e-13 -9.905466e-01 -1.371763e-01
    outer loop
      vertex 2.472500e+02 5.435487e+01 -3.768520e+02
      vertex 2.472500e+02 4.502632e+01 -3.094907e+02
      vertex 2.304410e+02 5.163316e+01 -3.571986e+02
    endloop
  endfacet
  facet normal -8.954437e-13 -9.905466e-01 -1.371763e-01
    outer loop
      vertex 9.316920e+01 4.502632e+01 -3.094907e+02
      vertex 1.317000e+02 5.183894e+01 -3.586845e+02
      vertex 1.332000e+02 5.163316e+01 -3.571986e+02
    endloop
  endfacet
  facet normal 7.071068e-01 1.038500e-01 -6.994392e-01
    outer loop
      vertex 1.332000e+02 5.509164e+01 -3.566851e+02
      vertex 1.332000e+02 5.163316e+01 -3.571986e+02
      vertex 1.317000e+02 5.183894e+01 -3.586845e+02
    endloop
  endfacet
  facet normal 1.324033e-13 1.468661e-01 -9.891564e-01
    outer loop
      vertex 2.304410e+02 5.509164e+01 -3.566851e+02
      vertex 1.332000e+02 5.163316e+01 -3.571986e+02
      vertex 1.332000e+02 5.509164e+01 -3.566851e+02
    endloop
  endfacet
  facet normal -8.863459e-13 -9.905466e-01 -1.371763e-01
    outer loop
      vertex 9.185713e+01 4.588594e+01 -3.156980e+02
      vertex 1.317000e+02 5.183894e+01 -3.586845e+02
      vertex 9.316920e+01 4.502632e+01 -3.094907e+02
    endloop
  endfacet
  facet normal -8.850114e-13 -9.905466e-01 -1.371763e-01
    outer loop
      vertex 9.185713e+01 4.588594e+01 -3.156980e+02
      vertex 9.151578e+01 5.435487e+01 -3.768520e+02
      vertex 1.317000e+02 5.183894e+01 -3.586845e+02
    endloop
  endfacet
  facet normal 7.071068e-01 1.038500e-01 -6.994392e-01
    outer loop
      vertex 1.332000e+02 5.509164e+01 -3.566851e+02
      vertex 1.317000e+02 5.183894e+01 -3.586845e+02
      vertex 1.317000e+02 5.531194e+01 -3.581688e+02
    endloop
  endfacet
  facet normal -1.319716e-13 -1.468661e-01 9.891564e-01
    outer loop
      vertex 9.316920e+01 4.512523e+01 -3.094760e+02
      vertex 9.316920e+01 4.502632e+01 -3.094907e+02
      vertex 2.472500e+02 4.502632e+01 -3.094907e+02
    endloop
  endfacet
  facet normal -9.787519e-01 -3.503958e-02 2.020318e-01
    outer loop
      vertex 9.223963e+01 4.865949e+01 -3.133639e+02
      vertex 9.185713e+01 4.588594e+01 -3.156980e+02
      vertex 9.316920e+01 4.502632e+01 -3.094907e+02
    endloop
  endfacet
  facet normal -9.780654e-01 -3.059188e-02 2.060391e-01
    outer loop
      vertex 9.316920e+01 4.512523e+01 -3.094760e+02
      vertex 9.223963e+01 4.865949e+01 -3.133639e+02
      vertex 9.316920e+01 4.502632e+01 -3.094907e+02
    endloop
  endfacet
  facet normal 1.000000e+00 -8.626169e-13 4.165478e-15
    outer loop
      vertex 2.472500e+02 4.512523e+01 -3.094760e+02
      vertex 2.472500e+02 4.502632e+01 -3.094907e+02
      vertex 2.472500e+02 5.435487e+01 -3.768520e+02
    endloop
  endfacet
  facet normal -1.312418e-13 -1.468661e-01 9.891564e-01
    outer loop
      vertex 2.472500e+02 4.512523e+01 -3.094760e+02
      vertex 9.316920e+01 4.512523e+01 -3.094760e+02
      vertex 2.472500e+02 4.502632e+01 -3.094907e+02
    endloop
  endfacet
  facet normal 1.312422e-13 1.468661e-01 -9.891564e-01
    outer loop
      vertex 2.472500e+02 5.443442e+01 -3.768401e+02
      vertex 2.472500e+02 5.435487e+01 -3.768520e+02
      vertex 9.151578e+01 5.435487e+01 -3.768520e+02
    endloop
  endfacet
  facet normal -8.629155e-13 -9.905466e-01 -1.371763e-01
    outer loop
      vertex 9.056507e+01 4.685978e+01 -3.227301e+02
      vertex 9.056336e+01 5.376586e+01 -3.725987e+02
      vertex 9.151578e+01 5.435487e+01 -3.768520e+02
    endloop
  endfacet
  facet normal -9.762705e-01 3.180455e-02 -2.142065e-01
    outer loop
      vertex 9.151578e+01 5.443442e+01 -3.768401e+02
      vertex 9.151578e+01 5.435487e+01 -3.768520e+02
      vertex 9.056336e+01 5.376586e+01 -3.725987e+02
    endloop
  endfacet
  facet normal -8.800789e-13 -9.905466e-01 -1.371763e-01
    outer loop
      vertex 9.185713e+01 4.588594e+01 -3.156980e+02
      vertex 9.056507e+01 4.685978e+01 -3.227301e+02
      vertex 9.151578e+01 5.435487e+01 -3.768520e+02
    endloop
  endfacet
  facet normal 1.312422e-13 1.468661e-01 -9.891564e-01
    outer loop
      vertex 2.472500e+02 5.443442e+01 -3.768401e+02
      vertex 9.151578e+01 5.435487e+01 -3.768520e+02
      vertex 9.151578e+01 5.443442e+01 -3.768401e+02
    endloop
  endfacet
  facet normal -9.068240e-13 -9.905466e-01 -1.371763e-01
    outer loop
      vertex 8.944858e+01 4.791061e+01 -3.303181e+02
      vertex 8.978191e+01 5.317483e+01 -3.683309e+02
      vertex 9.056336e+01 5.376586e+01 -3.725987e+02
    endloop
  endfacet
  facet normal -9.839451e-01 2.280714e-02 -1.770082e-01
    outer loop
      vertex 9.041179e+01 5.726244e+01 -3.713056e+02
      vertex 9.056336e+01 5.376586e+01 -3.725987e+02
      vertex 8.978191e+01 5.317483e+01 -3.683309e+02
    endloop
  endfacet
  facet normal -8.939353e-13 -9.905466e-01 -1.371763e-01
    outer loop
      vertex 9.056507e+01 4.685978e+01 -3.227301e+02
      vertex 8.944858e+01 4.791061e+01 -3.303181e+02
      vertex 9.056336e+01 5.376586e+01 -3.725987e+02
    endloop
  endfacet
  facet normal -9.781520e-01 3.347611e-02 -2.051779e-01
    outer loop
      vertex 9.123186e+01 5.782918e+01 -3.751227e+02
      vertex 9.056336e+01 5.376586e+01 -3.725987e+02
      vertex 9.041179e+01 5.726244e+01 -3.713056e+02
    endloop
  endfacet
  facet normal -9.762504e-01 2.709691e-02 -2.149441e-01
    outer loop
      vertex 9.151578e+01 5.443442e+01 -3.768401e+02
      vertex 9.056336e+01 5.376586e+01 -3.725987e+02
      vertex 9.123186e+01 5.782918e+01 -3.751227e+02
    endloop
  endfacet
  facet normal -8.861474e-13 -9.905466e-01 -1.371763e-01
    outer loop
      vertex 8.944858e+01 4.791061e+01 -3.303181e+02
      vertex 8.916405e+01 5.257729e+01 -3.640161e+02
      vertex 8.978191e+01 5.317483e+01 -3.683309e+02
    endloop
  endfacet
  facet normal -9.900810e-01 1.508712e-02 -1.396855e-01
    outer loop
      vertex 8.952463e+01 5.649674e+01 -3.661485e+02
      vertex 8.978191e+01 5.317483e+01 -3.683309e+02
      vertex 8.916405e+01 5.257729e+01 -3.640161e+02
    endloop
  endfacet
  facet normal -9.858023e-01 3.194629e-02 -1.648429e-01
    outer loop
      vertex 9.041179e+01 5.726244e+01 -3.713056e+02
      vertex 8.978191e+01 5.317483e+01 -3.683309e+02
      vertex 8.952463e+01 5.649674e+01 -3.661485e+02
    endloop
  endfacet
  facet normal -8.637493e-13 -9.905466e-01 -1.371763e-01
    outer loop
      vertex 8.870000e+01 4.891583e+01 -3.375768e+02
      vertex 8.870000e+01 5.196038e+01 -3.595614e+02
      vertex 8.916405e+01 5.257729e+01 -3.640161e+02
    endloop
  endfacet
  facet normal -9.944287e-01 3.798777e-02 -9.832873e-02
    outer loop
      vertex 8.952463e+01 5.649674e+01 -3.661485e+02
      vertex 8.916405e+01 5.257729e+01 -3.640161e+02
      vertex 8.870000e+01 5.196038e+01 -3.595614e+02
    endloop
  endfacet
  facet normal -8.770316e-13 -9.905466e-01 -1.371763e-01
    outer loop
      vertex 8.944858e+01 4.791061e+01 -3.303181e+02
      vertex 8.870000e+01 4.891583e+01 -3.375768e+02
      vertex 8.916405e+01 5.257729e+01 -3.640161e+02
    endloop
  endfacet
  facet normal -7.071068e-01 -7.004223e-01 -9.699830e-02
    outer loop
      vertex 8.836944e+01 5.156904e+01 -3.543258e+02
      vertex 8.870000e+01 5.196038e+01 -3.595614e+02
      vertex 8.870000e+01 4.891583e+01 -3.375768e+02
    endloop
  endfacet
  facet normal -9.934727e-01 1.675297e-02 -1.128328e-01
    outer loop
      vertex 8.952463e+01 5.649674e+01 -3.661485e+02
      vertex 8.870000e+01 5.196038e+01 -3.595614e+02
      vertex 8.870000e+01 5.544195e+01 -3.590444e+02
    endloop
  endfacet
  facet normal -9.980133e-01 9.253149e-03 -6.232080e-02
    outer loop
      vertex 8.836944e+01 5.156904e+01 -3.543258e+02
      vertex 8.870000e+01 5.544195e+01 -3.590444e+02
      vertex 8.870000e+01 5.196038e+01 -3.595614e+02
    endloop
  endfacet
  facet normal -9.948222e-01 -1.492612e-02 1.005287e-01
    outer loop
      vertex 8.870000e+01 5.218250e+01 -3.370917e+02
      vertex 8.870000e+01 4.891583e+01 -3.375768e+02
      vertex 8.944858e+01 4.791061e+01 -3.303181e+02
    endloop
  endfacet
  facet normal -9.982548e-01 -8.673059e-03 5.841383e-02
    outer loop
      vertex 8.835938e+01 5.269121e+01 -3.428372e+02
      vertex 8.870000e+01 4.891583e+01 -3.375768e+02
      vertex 8.870000e+01 5.218250e+01 -3.370917e+02
    endloop
  endfacet
  facet normal -7.071068e-01 -7.004223e-01 -9.699830e-02
    outer loop
      vertex 8.825063e+01 5.093362e+01 -3.488714e+02
      vertex 8.870000e+01 4.891583e+01 -3.375768e+02
      vertex 8.835953e+01 5.004196e+01 -3.432265e+02
    endloop
  endfacet
  facet normal -9.982538e-01 -8.644785e-03 5.843407e-02
    outer loop
      vertex 8.835938e+01 5.269121e+01 -3.428372e+02
      vertex 8.835953e+01 5.004196e+01 -3.432265e+02
      vertex 8.870000e+01 4.891583e+01 -3.375768e+02
    endloop
  endfacet
  facet normal -7.071068e-01 -7.004223e-01 -9.699830e-02
    outer loop
      vertex 8.836944e+01 5.156904e+01 -3.543258e+02
      vertex 8.870000e+01 4.891583e+01 -3.375768e+02
      vertex 8.825063e+01 5.093362e+01 -3.488714e+02
    endloop
  endfacet
  facet normal -9.894888e-01 -3.035093e-02 1.413884e-01
    outer loop
      vertex 9.025905e+01 5.025975e+01 -3.241418e+02
      vertex 8.944858e+01 4.791061e+01 -3.303181e+02
      vertex 9.056507e+01 4.685978e+01 -3.227301e+02
    endloop
  endfacet
  facet normal -9.907041e-01 -1.396500e-02 1.353155e-01
    outer loop
      vertex 8.929986e+01 5.128672e+01 -3.310586e+02
      vertex 8.944858e+01 4.791061e+01 -3.303181e+02
      vertex 9.025905e+01 5.025975e+01 -3.241418e+02
    endloop
  endfacet
  facet normal -9.951618e-01 -2.288326e-02 9.554797e-02
    outer loop
      vertex 8.870000e+01 5.218250e+01 -3.370917e+02
      vertex 8.944858e+01 4.791061e+01 -3.303181e+02
      vertex 8.929986e+01 5.128672e+01 -3.310586e+02
    endloop
  endfacet
  facet normal -9.837827e-01 -3.509978e-02 1.758966e-01
    outer loop
      vertex 9.114211e+01 4.949294e+01 -3.189773e+02
      vertex 9.056507e+01 4.685978e+01 -3.227301e+02
      vertex 9.185713e+01 4.588594e+01 -3.156980e+02
    endloop
  endfacet
  facet normal -9.859870e-01 -1.997341e-02 1.656221e-01
    outer loop
      vertex 9.025905e+01 5.025975e+01 -3.241418e+02
      vertex 9.056507e+01 4.685978e+01 -3.227301e+02
      vertex 9.114211e+01 4.949294e+01 -3.189773e+02
    endloop
  endfacet
  facet normal -9.817965e-01 -2.323958e-02 1.885089e-01
    outer loop
      vertex 9.114211e+01 4.949294e+01 -3.189773e+02
      vertex 9.185713e+01 4.588594e+01 -3.156980e+02
      vertex 9.223963e+01 4.865949e+01 -3.133639e+02
    endloop
  endfacet
  facet normal 1.312469e-13 1.468661e-01 -9.891564e-01
    outer loop
      vertex 2.465000e+02 5.728432e+01 -3.784389e+02
      vertex 2.465000e+02 5.472815e+01 -3.788185e+02
      vertex 9.260012e+01 5.472815e+01 -3.788185e+02
    endloop
  endfacet
  facet normal -8.839600e-13 -9.891564e-01 -1.468661e-01
    outer loop
      vertex 9.151578e+01 5.443442e+01 -3.768401e+02
      vertex 9.260012e+01 5.472815e+01 -3.788185e+02
      vertex 2.465000e+02 5.472815e+01 -3.788185e+02
    endloop
  endfacet
  facet normal 1.312469e-13 1.468661e-01 -9.891564e-01
    outer loop
      vertex 9.260012e+01 5.728432e+01 -3.784389e+02
      vertex 2.465000e+02 5.728432e+01 -3.784389e+02
      vertex 9.260012e+01 5.472815e+01 -3.788185e+02
    endloop
  endfacet
  facet normal -3.241207e-01 1.389376e-01 -9.357575e-01
    outer loop
      vertex 9.214025e+01 5.470501e+01 -3.786626e+02
      vertex 9.260012e+01 5.728432e+01 -3.784389e+02
      vertex 9.260012e+01 5.472815e+01 -3.788185e+02
    endloop
  endfacet
  facet normal -8.806241e-13 -9.891564e-01 -1.468661e-01
    outer loop
      vertex 9.214025e+01 5.470501e+01 -3.786626e+02
      vertex 9.260012e+01 5.472815e+01 -3.788185e+02
      vertex 9.151578e+01 5.443442e+01 -3.768401e+02
    endloop
  endfacet
  facet normal 3.827076e-01 1.356851e-01 -9.138514e-01
    outer loop
      vertex 2.470303e+02 5.725206e+01 -3.782216e+02
      vertex 2.465000e+02 5.472815e+01 -3.788185e+02
      vertex 2.465000e+02 5.728432e+01 -3.784389e+02
    endloop
  endfacet
  facet normal 3.827076e-01 1.356851e-01 -9.138514e-01
    outer loop
      vertex 2.470303e+02 5.469589e+01 -3.786012e+02
      vertex 2.465000e+02 5.472815e+01 -3.788185e+02
      vertex 2.470303e+02 5.725206e+01 -3.782216e+02
    endloop
  endfacet
  facet normal -8.836501e-13 -9.891564e-01 -1.468661e-01
    outer loop
      vertex 2.470303e+02 5.469589e+01 -3.786012e+02
      vertex 9.151578e+01 5.443442e+01 -3.768401e+02
      vertex 2.465000e+02 5.472815e+01 -3.788185e+02
    endloop
  endfacet
  facet normal -8.839598e-13 -9.891564e-01 -1.468661e-01
    outer loop
      vertex 2.465000e+02 5.765149e+01 -3.809118e+02
      vertex 2.465000e+02 5.728432e+01 -3.784389e+02
      vertex 9.260012e+01 5.728432e+01 -3.784389e+02
    endloop
  endfacet
  facet normal -8.422787e-13 -9.891564e-01 -1.468661e-01
    outer loop
      vertex 2.465000e+02 5.765149e+01 -3.809118e+02
      vertex 2.470303e+02 5.768375e+01 -3.811291e+02
      vertex 2.465000e+02 5.728432e+01 -3.784389e+02
    endloop
  endfacet
  facet normal -9.068912e-13 -9.891564e-01 -1.468661e-01
    outer loop
      vertex 2.470303e+02 5.725206e+01 -3.782216e+02
      vertex 2.465000e+02 5.728432e+01 -3.784389e+02
      vertex 2.470303e+02 5.768375e+01 -3.811291e+02
    endloop
  endfacet
  facet normal -8.839841e-13 -9.891564e-01 -1.468661e-01
    outer loop
      vertex 9.370157e+01 5.765149e+01 -3.809118e+02
      vertex 2.465000e+02 5.765149e+01 -3.809118e+02
      vertex 9.260012e+01 5.728432e+01 -3.784389e+02
    endloop
  endfacet
  facet normal -8.839489e-13 -9.891564e-01 -1.468661e-01
    outer loop
      vertex 9.310087e+01 5.769569e+01 -3.812095e+02
      vertex 9.370157e+01 5.765149e+01 -3.809118e+02
      vertex 9.260012e+01 5.728432e+01 -3.784389e+02
    endloop
  endfacet
  facet normal -8.880012e-13 -9.891564e-01 -1.468661e-01
    outer loop
      vertex 9.298223e+01 5.779281e+01 -3.818636e+02
      vertex 9.310087e+01 5.769569e+01 -3.812095e+02
      vertex 9.260012e+01 5.728432e+01 -3.784389e+02
    endloop
  endfacet
  facet normal -8.671886e-13 -9.891564e-01 -1.468661e-01
    outer loop
      vertex 9.243723e+01 5.751250e+01 -3.799757e+02
      vertex 9.298223e+01 5.779281e+01 -3.818636e+02
      vertex 9.260012e+01 5.728432e+01 -3.784389e+02
    endloop
  endfacet
  facet normal -8.456946e-13 -9.891564e-01 -1.468661e-01
    outer loop
      vertex 9.214025e+01 5.726118e+01 -3.782831e+02
      vertex 9.243723e+01 5.751250e+01 -3.799757e+02
      vertex 9.260012e+01 5.728432e+01 -3.784389e+02
    endloop
  endfacet
  facet normal -3.241207e-01 1.389376e-01 -9.357575e-01
    outer loop
      vertex 9.214025e+01 5.470501e+01 -3.786626e+02
      vertex 9.214025e+01 5.726118e+01 -3.782831e+02
      vertex 9.260012e+01 5.728432e+01 -3.784389e+02
    endloop
  endfacet
  facet normal -8.055104e-13 -9.891564e-01 -1.468661e-01
    outer loop
      vertex 2.470303e+02 5.725206e+01 -3.782216e+02
      vertex 2.472500e+02 5.776164e+01 -3.816537e+02
      vertex 2.472500e+02 5.717417e+01 -3.776971e+02
    endloop
  endfacet
  facet normal 9.238695e-01 5.620677e-02 -3.785577e-01
    outer loop
      vertex 2.470303e+02 5.469589e+01 -3.786012e+02
      vertex 2.470303e+02 5.725206e+01 -3.782216e+02
      vertex 2.472500e+02 5.717417e+01 -3.776971e+02
    endloop
  endfacet
  facet normal 9.238695e-01 5.620677e-02 -3.785577e-01
    outer loop
      vertex 2.470303e+02 5.469589e+01 -3.786012e+02
      vertex 2.472500e+02 5.717417e+01 -3.776971e+02
      vertex 2.472500e+02 5.461800e+01 -3.780766e+02
    endloop
  endfacet
  facet normal -1.004443e-12 -9.891564e-01 -1.468661e-01
    outer loop
      vertex 2.470303e+02 5.725206e+01 -3.782216e+02
      vertex 2.470303e+02 5.768375e+01 -3.811291e+02
      vertex 2.472500e+02 5.776164e+01 -3.816537e+02
    endloop
  endfacet
  facet normal 9.238695e-01 -5.620677e-02 3.785577e-01
    outer loop
      vertex 2.472500e+02 5.574969e+01 -3.819524e+02
      vertex 2.472500e+02 5.776164e+01 -3.816537e+02
      vertex 2.470303e+02 5.768375e+01 -3.811291e+02
    endloop
  endfacet
  facet normal 1.000000e+00 -9.084469e-13 2.930753e-14
    outer loop
      vertex 2.472500e+02 5.580110e+01 -3.822986e+02
      vertex 2.472500e+02 5.776164e+01 -3.816537e+02
      vertex 2.472500e+02 5.574969e+01 -3.819524e+02
    endloop
  endfacet
  facet normal 1.000000e+00 -8.864853e-13 -3.745399e-14
    outer loop
      vertex 2.472500e+02 5.882792e+01 -3.818492e+02
      vertex 2.472500e+02 5.776164e+01 -3.816537e+02
      vertex 2.472500e+02 5.580110e+01 -3.822986e+02
    endloop
  endfacet
  facet normal 3.827076e-01 -1.356851e-01 9.138514e-01
    outer loop
      vertex 2.470303e+02 5.567181e+01 -3.814278e+02
      vertex 2.470303e+02 5.768375e+01 -3.811291e+02
      vertex 2.465000e+02 5.765149e+01 -3.809118e+02
    endloop
  endfacet
  facet normal 9.238695e-01 -5.620677e-02 3.785577e-01
    outer loop
      vertex 2.472500e+02 5.574969e+01 -3.819524e+02
      vertex 2.470303e+02 5.768375e+01 -3.811291e+02
      vertex 2.470303e+02 5.567181e+01 -3.814278e+02
    endloop
  endfacet
  facet normal -1.312505e-13 -1.468661e-01 9.891564e-01
    outer loop
      vertex 2.465000e+02 5.563954e+01 -3.812105e+02
      vertex 2.465000e+02 5.765149e+01 -3.809118e+02
      vertex 9.370157e+01 5.765149e+01 -3.809118e+02
    endloop
  endfacet
  facet normal 3.827076e-01 -1.356851e-01 9.138514e-01
    outer loop
      vertex 2.470303e+02 5.567181e+01 -3.814278e+02
      vertex 2.465000e+02 5.765149e+01 -3.809118e+02
      vertex 2.465000e+02 5.563954e+01 -3.812105e+02
    endloop
  endfacet
  facet normal -4.479133e-01 -1.313096e-01 8.843820e-01
    outer loop
      vertex 9.370157e+01 5.563954e+01 -3.812105e+02
      vertex 9.370157e+01 5.765149e+01 -3.809118e+02
      vertex 9.310087e+01 5.769569e+01 -3.812095e+02
    endloop
  endfacet
  facet normal -1.312505e-13 -1.468661e-01 9.891564e-01
    outer loop
      vertex 9.370157e+01 5.563954e+01 -3.812105e+02
      vertex 2.465000e+02 5.563954e+01 -3.812105e+02
      vertex 9.370157e+01 5.765149e+01 -3.809118e+02
    endloop
  endfacet
  facet normal -9.842871e-01 -2.593296e-02 1.746608e-01
    outer loop
      vertex 9.310087e+01 5.568374e+01 -3.815082e+02
      vertex 9.310087e+01 5.769569e+01 -3.812095e+02
      vertex 9.298223e+01 5.779281e+01 -3.818636e+02
    endloop
  endfacet
  facet normal -4.479133e-01 -1.313096e-01 8.843820e-01
    outer loop
      vertex 9.310087e+01 5.568374e+01 -3.815082e+02
      vertex 9.370157e+01 5.563954e+01 -3.812105e+02
      vertex 9.310087e+01 5.769569e+01 -3.812095e+02
    endloop
  endfacet
  facet normal -9.615660e-01 4.137723e-02 -2.714381e-01
    outer loop
      vertex 9.302270e+01 5.882792e+01 -3.818492e+02
      vertex 9.298223e+01 5.779281e+01 -3.818636e+02
      vertex 9.243723e+01 5.751250e+01 -3.799757e+02
    endloop
  endfacet
  facet normal -9.842871e-01 -2.593296e-02 1.746608e-01
    outer loop
      vertex 9.310087e+01 5.568374e+01 -3.815082e+02
      vertex 9.298223e+01 5.779281e+01 -3.818636e+02
      vertex 9.298223e+01 5.578087e+01 -3.821624e+02
    endloop
  endfacet
  facet normal -9.594520e-01 4.139743e-02 -2.788154e-01
    outer loop
      vertex 9.302270e+01 5.882792e+01 -3.818492e+02
      vertex 9.298223e+01 5.578087e+01 -3.821624e+02
      vertex 9.298223e+01 5.779281e+01 -3.818636e+02
    endloop
  endfacet
  facet normal -9.945310e-13 -9.891564e-01 -1.468661e-01
    outer loop
      vertex 9.214025e+01 5.726118e+01 -3.782831e+02
      vertex 9.187355e+01 5.720149e+01 -3.778811e+02
      vertex 9.243723e+01 5.751250e+01 -3.799757e+02
    endloop
  endfacet
  facet normal -9.656392e-01 7.568811e-02 -2.486206e-01
    outer loop
      vertex 9.302270e+01 5.882792e+01 -3.818492e+02
      vertex 9.243723e+01 5.751250e+01 -3.799757e+02
      vertex 9.187355e+01 5.720149e+01 -3.778811e+02
    endloop
  endfacet
  facet normal -8.360665e-01 8.057487e-02 -5.426791e-01
    outer loop
      vertex 9.187355e+01 5.464532e+01 -3.782606e+02
      vertex 9.187355e+01 5.720149e+01 -3.778811e+02
      vertex 9.214025e+01 5.726118e+01 -3.782831e+02
    endloop
  endfacet
  facet normal -9.658443e-01 8.631028e-02 -2.443263e-01
    outer loop
      vertex 9.123186e+01 5.782918e+01 -3.751227e+02
      vertex 9.302270e+01 5.882792e+01 -3.818492e+02
      vertex 9.187355e+01 5.720149e+01 -3.778811e+02
    endloop
  endfacet
  facet normal -9.714001e-01 3.738951e-02 -2.344865e-01
    outer loop
      vertex 9.151578e+01 5.443442e+01 -3.768401e+02
      vertex 9.123186e+01 5.782918e+01 -3.751227e+02
      vertex 9.187355e+01 5.720149e+01 -3.778811e+02
    endloop
  endfacet
  facet normal -9.710876e-01 3.683053e-02 -2.358650e-01
    outer loop
      vertex 9.169856e+01 5.454363e+01 -3.775756e+02
      vertex 9.151578e+01 5.443442e+01 -3.768401e+02
      vertex 9.187355e+01 5.720149e+01 -3.778811e+02
    endloop
  endfacet
  facet normal -9.695222e-01 3.598268e-02 -2.423466e-01
    outer loop
      vertex 9.187355e+01 5.464532e+01 -3.782606e+02
      vertex 9.169856e+01 5.454363e+01 -3.775756e+02
      vertex 9.187355e+01 5.720149e+01 -3.778811e+02
    endloop
  endfacet
  facet normal -8.360665e-01 8.057487e-02 -5.426791e-01
    outer loop
      vertex 9.214025e+01 5.470501e+01 -3.786626e+02
      vertex 9.187355e+01 5.464532e+01 -3.782606e+02
      vertex 9.214025e+01 5.726118e+01 -3.782831e+02
    endloop
  endfacet
  facet normal -8.839840e-13 -9.891564e-01 -1.468661e-01
    outer loop
      vertex 2.472500e+02 5.580110e+01 -3.822986e+02
      vertex 2.465000e+02 5.563954e+01 -3.812105e+02
      vertex 9.370157e+01 5.563954e+01 -3.812105e+02
    endloop
  endfacet
  facet normal -8.776448e-13 -9.891564e-01 -1.468661e-01
    outer loop
      vertex 2.472500e+02 5.580110e+01 -3.822986e+02
      vertex 2.470303e+02 5.567181e+01 -3.814278e+02
      vertex 2.465000e+02 5.563954e+01 -3.812105e+02
    endloop
  endfacet
  facet normal -8.838360e-13 -9.891564e-01 -1.468661e-01
    outer loop
      vertex 9.310087e+01 5.568374e+01 -3.815082e+02
      vertex 2.472500e+02 5.580110e+01 -3.822986e+02
      vertex 9.370157e+01 5.563954e+01 -3.812105e+02
    endloop
  endfacet
  facet normal -8.243990e-13 -9.891564e-01 -1.468661e-01
    outer loop
      vertex 2.472500e+02 5.580110e+01 -3.822986e+02
      vertex 2.472500e+02 5.574969e+01 -3.819524e+02
      vertex 2.470303e+02 5.567181e+01 -3.814278e+02
    endloop
  endfacet
  facet normal -8.838889e-13 -9.891564e-01 -1.468661e-01
    outer loop
      vertex 9.310087e+01 5.568374e+01 -3.815082e+02
      vertex 9.302270e+01 5.580110e+01 -3.822986e+02
      vertex 2.472500e+02 5.580110e+01 -3.822986e+02
    endloop
  endfacet
  facet normal 1.319817e-13 1.468661e-01 -9.891564e-01
    outer loop
      vertex 2.472500e+02 5.882792e+01 -3.818492e+02
      vertex 2.472500e+02 5.580110e+01 -3.822986e+02
      vertex 9.302270e+01 5.580110e+01 -3.822986e+02
    endloop
  endfacet
  facet normal -1.096049e-12 -9.891564e-01 -1.468661e-01
    outer loop
      vertex 9.310087e+01 5.568374e+01 -3.815082e+02
      vertex 9.300276e+01 5.579104e+01 -3.822309e+02
      vertex 9.302270e+01 5.580110e+01 -3.822986e+02
    endloop
  endfacet
  facet normal -9.601472e-01 4.104832e-02 -2.764641e-01
    outer loop
      vertex 9.302270e+01 5.882792e+01 -3.818492e+02
      vertex 9.302270e+01 5.580110e+01 -3.822986e+02
      vertex 9.300276e+01 5.579104e+01 -3.822309e+02
    endloop
  endfacet
  facet normal 1.319681e-13 1.468661e-01 -9.891564e-01
    outer loop
      vertex 9.302270e+01 5.882792e+01 -3.818492e+02
      vertex 2.472500e+02 5.882792e+01 -3.818492e+02
      vertex 9.302270e+01 5.580110e+01 -3.822986e+02
    endloop
  endfacet
  facet normal -7.972274e-13 -9.891564e-01 -1.468661e-01
    outer loop
      vertex 9.310087e+01 5.568374e+01 -3.815082e+02
      vertex 9.298223e+01 5.578087e+01 -3.821624e+02
      vertex 9.300276e+01 5.579104e+01 -3.822309e+02
    endloop
  endfacet
  facet normal -9.587598e-01 4.162841e-02 -2.811524e-01
    outer loop
      vertex 9.302270e+01 5.882792e+01 -3.818492e+02
      vertex 9.300276e+01 5.579104e+01 -3.822309e+02
      vertex 9.298223e+01 5.578087e+01 -3.821624e+02
    endloop
  endfacet
  facet normal 8.837980e-13 9.891564e-01 1.468661e-01
    outer loop
      vertex 2.304410e+02 5.553224e+01 -3.596525e+02
      vertex 2.472500e+02 5.882792e+01 -3.818492e+02
      vertex 9.302270e+01 5.882792e+01 -3.818492e+02
    endloop
  endfacet
  facet normal 8.555318e-13 9.891564e-01 1.468661e-01
    outer loop
      vertex 9.355636e+01 4.776437e+01 -3.073352e+02
      vertex 9.393601e+01 4.748532e+01 -3.054558e+02
      vertex 9.302270e+01 5.882792e+01 -3.818492e+02
    endloop
  endfacet
  facet normal 8.839417e-13 9.891564e-01 1.468661e-01
    outer loop
      vertex 1.317000e+02 5.531194e+01 -3.581688e+02
      vertex 9.302270e+01 5.882792e+01 -3.818492e+02
      vertex 9.393601e+01 4.748532e+01 -3.054558e+02
    endloop
  endfacet
  facet normal 8.985290e-13 9.891564e-01 1.468661e-01
    outer loop
      vertex 9.223963e+01 4.865949e+01 -3.133639e+02
      vertex 9.355636e+01 4.776437e+01 -3.073352e+02
      vertex 9.302270e+01 5.882792e+01 -3.818492e+02
    endloop
  endfacet
  facet normal 8.806221e-13 9.891564e-01 1.468661e-01
    outer loop
      vertex 9.123186e+01 5.782918e+01 -3.751227e+02
      vertex 9.223963e+01 4.865949e+01 -3.133639e+02
      vertex 9.302270e+01 5.882792e+01 -3.818492e+02
    endloop
  endfacet
  facet normal 8.806707e-13 9.891564e-01 1.468661e-01
    outer loop
      vertex 1.317000e+02 5.531194e+01 -3.581688e+02
      vertex 1.332000e+02 5.553224e+01 -3.596525e+02
      vertex 9.302270e+01 5.882792e+01 -3.818492e+02
    endloop
  endfacet
  facet normal 8.839592e-13 9.891564e-01 1.468661e-01
    outer loop
      vertex 2.304410e+02 5.553224e+01 -3.596525e+02
      vertex 9.302270e+01 5.882792e+01 -3.818492e+02
      vertex 1.332000e+02 5.553224e+01 -3.596525e+02
    endloop
  endfacet
  facet normal 9.573530e-13 9.891564e-01 1.468661e-01
    outer loop
      vertex 2.304410e+02 5.509164e+01 -3.566851e+02
      vertex 2.099207e+02 4.748102e+01 -3.054268e+02
      vertex 2.099500e+02 4.747063e+01 -3.053569e+02
    endloop
  endfacet
  facet normal 4.011135e-13 9.891564e-01 1.468661e-01
    outer loop
      vertex 1.332000e+02 5.509164e+01 -3.566851e+02
      vertex 2.098500e+02 4.748532e+01 -3.054558e+02
      vertex 2.099207e+02 4.748102e+01 -3.054268e+02
    endloop
  endfacet
  facet normal 8.837875e-13 9.891564e-01 1.468661e-01
    outer loop
      vertex 2.304410e+02 5.509164e+01 -3.566851e+02
      vertex 1.332000e+02 5.509164e+01 -3.566851e+02
      vertex 2.099207e+02 4.748102e+01 -3.054268e+02
    endloop
  endfacet
  facet normal 8.839333e-13 9.891564e-01 1.468661e-01
    outer loop
      vertex 1.332000e+02 5.509164e+01 -3.566851e+02
      vertex 9.393601e+01 4.748532e+01 -3.054558e+02
      vertex 2.098500e+02 4.748532e+01 -3.054558e+02
    endloop
  endfacet
  facet normal 8.853934e-13 9.891564e-01 1.468661e-01
    outer loop
      vertex 1.332000e+02 5.509164e+01 -3.566851e+02
      vertex 1.317000e+02 5.531194e+01 -3.581688e+02
      vertex 9.393601e+01 4.748532e+01 -3.054558e+02
    endloop
  endfacet
  facet normal 8.851630e-13 9.891564e-01 1.468661e-01
    outer loop
      vertex 9.123186e+01 5.782918e+01 -3.751227e+02
      vertex 9.114211e+01 4.949294e+01 -3.189773e+02
      vertex 9.223963e+01 4.865949e+01 -3.133639e+02
    endloop
  endfacet
  facet normal -9.755788e-01 -1.507003e-02 2.191321e-01
    outer loop
      vertex 9.332571e+01 4.502172e+01 -3.087789e+02
      vertex 9.348513e+01 4.491741e+01 -3.080763e+02
      vertex 9.223963e+01 4.865949e+01 -3.133639e+02
    endloop
  endfacet
  facet normal -9.761345e-01 -1.873336e-02 2.163573e-01
    outer loop
      vertex 9.316920e+01 4.512523e+01 -3.094760e+02
      vertex 9.332571e+01 4.502172e+01 -3.087789e+02
      vertex 9.223963e+01 4.865949e+01 -3.133639e+02
    endloop
  endfacet
  facet normal 8.731449e-13 9.891564e-01 1.468661e-01
    outer loop
      vertex 9.041179e+01 5.726244e+01 -3.713056e+02
      vertex 9.025905e+01 5.025975e+01 -3.241418e+02
      vertex 9.114211e+01 4.949294e+01 -3.189773e+02
    endloop
  endfacet
  facet normal 8.967578e-13 9.891564e-01 1.468661e-01
    outer loop
      vertex 9.123186e+01 5.782918e+01 -3.751227e+02
      vertex 9.041179e+01 5.726244e+01 -3.713056e+02
      vertex 9.114211e+01 4.949294e+01 -3.189773e+02
    endloop
  endfacet
  facet normal 8.790260e-13 9.891564e-01 1.468661e-01
    outer loop
      vertex 8.952463e+01 5.649674e+01 -3.661485e+02
      vertex 8.929986e+01 5.128672e+01 -3.310586e+02
      vertex 9.025905e+01 5.025975e+01 -3.241418e+02
    endloop
  endfacet
  facet normal 8.746515e-13 9.891564e-01 1.468661e-01
    outer loop
      vertex 9.041179e+01 5.726244e+01 -3.713056e+02
      vertex 8.952463e+01 5.649674e+01 -3.661485e+02
      vertex 9.025905e+01 5.025975e+01 -3.241418e+02
    endloop
  endfacet
  facet normal 9.244137e-13 9.891564e-01 1.468661e-01
    outer loop
      vertex 8.870000e+01 5.544195e+01 -3.590444e+02
      vertex 8.870000e+01 5.218250e+01 -3.370917e+02
      vertex 8.929986e+01 5.128672e+01 -3.310586e+02
    endloop
  endfacet
  facet normal 8.673852e-13 9.891564e-01 1.468661e-01
    outer loop
      vertex 8.952463e+01 5.649674e+01 -3.661485e+02
      vertex 8.870000e+01 5.544195e+01 -3.590444e+02
      vertex 8.929986e+01 5.128672e+01 -3.310586e+02
    endloop
  endfacet
  facet normal -7.071068e-01 6.994392e-01 1.038500e-01
    outer loop
      vertex 8.835938e+01 5.269121e+01 -3.428372e+02
      vertex 8.870000e+01 5.218250e+01 -3.370917e+02
      vertex 8.870000e+01 5.544195e+01 -3.590444e+02
    endloop
  endfacet
  facet normal -9.980121e-01 9.225346e-03 -6.234354e-02
    outer loop
      vertex 8.836961e+01 5.434673e+01 -3.539176e+02
      vertex 8.870000e+01 5.544195e+01 -3.590444e+02
      vertex 8.836944e+01 5.156904e+01 -3.543258e+02
    endloop
  endfacet
  facet normal -7.071068e-01 6.994392e-01 1.038500e-01
    outer loop
      vertex 8.825064e+01 5.342328e+01 -3.485082e+02
      vertex 8.870000e+01 5.544195e+01 -3.590444e+02
      vertex 8.836961e+01 5.434673e+01 -3.539176e+02
    endloop
  endfacet
  facet normal -7.071068e-01 6.994392e-01 1.038500e-01
    outer loop
      vertex 8.835938e+01 5.269121e+01 -3.428372e+02
      vertex 8.870000e+01 5.544195e+01 -3.590444e+02
      vertex 8.825064e+01 5.342328e+01 -3.485082e+02
    endloop
  endfacet
  facet normal -8.838569e-13 -9.891564e-01 -1.468661e-01
    outer loop
      vertex 2.472500e+02 4.512523e+01 -3.094760e+02
      vertex 9.348513e+01 4.491741e+01 -3.080763e+02
      vertex 9.332571e+01 4.502172e+01 -3.087789e+02
    endloop
  endfacet
  facet normal -8.841802e-13 -9.891564e-01 -1.468661e-01
    outer loop
      vertex 9.374839e+01 4.485562e+01 -3.076601e+02
      vertex 9.348513e+01 4.491741e+01 -3.080763e+02
      vertex 2.472500e+02 4.512523e+01 -3.094760e+02
    endloop
  endfacet
  facet normal -8.839253e-13 -9.891564e-01 -1.468661e-01
    outer loop
      vertex 2.472500e+02 4.512523e+01 -3.094760e+02
      vertex 9.332571e+01 4.502172e+01 -3.087789e+02
      vertex 9.316920e+01 4.512523e+01 -3.094760e+02
    endloop
  endfacet
  facet normal -9.998185e-01 -2.826645e-03 1.884202e-02
    outer loop
      vertex 8.835938e+01 5.269121e+01 -3.428372e+02
      vertex 8.825063e+01 5.093362e+01 -3.488714e+02
      vertex 8.835953e+01 5.004196e+01 -3.432265e+02
    endloop
  endfacet
  facet normal -9.997658e-01 3.126105e-03 -2.141222e-02
    outer loop
      vertex 8.825064e+01 5.342328e+01 -3.485082e+02
      vertex 8.836944e+01 5.156904e+01 -3.543258e+02
      vertex 8.825063e+01 5.093362e+01 -3.488714e+02
    endloop
  endfacet
  facet normal -9.998192e-01 -2.742286e-03 1.881746e-02
    outer loop
      vertex 8.835938e+01 5.269121e+01 -3.428372e+02
      vertex 8.825064e+01 5.342328e+01 -3.485082e+02
      vertex 8.825063e+01 5.093362e+01 -3.488714e+02
    endloop
  endfacet
  facet normal -9.997650e-01 3.214501e-03 -2.144038e-02
    outer loop
      vertex 8.825064e+01 5.342328e+01 -3.485082e+02
      vertex 8.836961e+01 5.434673e+01 -3.539176e+02
      vertex 8.836944e+01 5.156904e+01 -3.543258e+02
    endloop
  endfacet
  facet normal -3.102176e-12 -9.891564e-01 -1.468661e-01
    outer loop
      vertex 9.187355e+01 5.464532e+01 -3.782606e+02
      vertex 9.151578e+01 5.443442e+01 -3.768401e+02
      vertex 9.169856e+01 5.454363e+01 -3.775756e+02
    endloop
  endfacet
  facet normal -8.159412e-13 -9.891564e-01 -1.468661e-01
    outer loop
      vertex 9.214025e+01 5.470501e+01 -3.786626e+02
      vertex 9.151578e+01 5.443442e+01 -3.768401e+02
      vertex 9.187355e+01 5.464532e+01 -3.782606e+02
    endloop
  endfacet
  facet normal -8.839279e-13 -9.891564e-01 -1.468661e-01
    outer loop
      vertex 2.472500e+02 5.443442e+01 -3.768401e+02
      vertex 9.151578e+01 5.443442e+01 -3.768401e+02
      vertex 2.472500e+02 5.461800e+01 -3.780766e+02
    endloop
  endfacet
  facet normal -8.840818e-13 -9.891564e-01 -1.468661e-01
    outer loop
      vertex 2.470303e+02 5.469589e+01 -3.786012e+02
      vertex 2.472500e+02 5.461800e+01 -3.780766e+02
      vertex 9.151578e+01 5.443442e+01 -3.768401e+02
    endloop
  endfacet
  facet normal -8.530792e-13 -9.891564e-01 -1.468661e-01
    outer loop
      vertex 2.470303e+02 4.486376e+01 -3.077150e+02
      vertex 2.472500e+02 4.512523e+01 -3.094760e+02
      vertex 2.472500e+02 4.494165e+01 -3.082396e+02
    endloop
  endfacet
endsolid P1040852002
