solid P1040852002
  facet normal 2.693497e-12 1.589397e-01 9.872883e-01
    outer loop
      vertex -1.638140e+02 -4.471708e+01 -3.048454e+02
      vertex -1.638140e+02 -4.689899e+01 -3.044941e+02
      vertex -1.265640e+02 -4.689899e+01 -3.044941e+02
    endloop
  endfacet
  facet normal 4.355471e-13 -9.872883e-01 1.589397e-01
    outer loop
      vertex -1.470050e+02 -5.530544e+01 -3.567127e+02
      vertex -1.265640e+02 -4.689899e+01 -3.044941e+02
      vertex -1.638140e+02 -4.689899e+01 -3.044941e+02
    endloop
  endfacet
  facet normal 2.693497e-12 1.589397e-01 9.872883e-01
    outer loop
      vertex -1.265640e+02 -4.471708e+01 -3.048454e+02
      vertex -1.638140e+02 -4.471708e+01 -3.048454e+02
      vertex -1.265640e+02 -4.689899e+01 -3.044941e+02
    endloop
  endfacet
  facet normal 7.071068e-01 1.123873e-01 6.981183e-01
    outer loop
      vertex -1.265140e+02 -4.472503e+01 -3.048948e+02
      vertex -1.265640e+02 -4.471708e+01 -3.048454e+02
      vertex -1.265640e+02 -4.689899e+01 -3.044941e+02
    endloop
  endfacet
  facet normal 7.071068e-01 1.123873e-01 6.981183e-01
    outer loop
      vertex -1.265140e+02 -4.690693e+01 -3.045435e+02
      vertex -1.265140e+02 -4.472503e+01 -3.048948e+02
      vertex -1.265640e+02 -4.689899e+01 -3.044941e+02
    endloop
  endfacet
  facet normal 5.475152e-13 -9.872883e-01 1.589397e-01
    outer loop
      vertex -1.265140e+02 -4.705793e+01 -3.054814e+02
      vertex -1.265140e+02 -4.690693e+01 -3.045435e+02
      vertex -1.265640e+02 -4.689899e+01 -3.044941e+02
    endloop
  endfacet
  facet normal 4.530623e-13 -9.872883e-01 1.589397e-01
    outer loop
      vertex -1.470050e+02 -5.530544e+01 -3.567127e+02
      vertex -1.265140e+02 -4.705793e+01 -3.054814e+02
      vertex -1.265640e+02 -4.689899e+01 -3.044941e+02
    endloop
  endfacet
  facet normal -1.000000e+00 -3.330655e-15 2.730399e-12
    outer loop
      vertex -1.638140e+02 -4.527019e+01 -3.082812e+02
      vertex -1.638140e+02 -4.689899e+01 -3.044941e+02
      vertex -1.638140e+02 -4.471708e+01 -3.048454e+02
    endloop
  endfacet
  facet normal -1.000000e+00 -2.124377e-13 2.640463e-12
    outer loop
      vertex -1.638140e+02 -4.476302e+01 -3.096289e+02
      vertex -1.638140e+02 -4.689899e+01 -3.044941e+02
      vertex -1.638140e+02 -4.527019e+01 -3.082812e+02
    endloop
  endfacet
  facet normal -1.000000e+00 -2.716212e-13 2.759866e-12
    outer loop
      vertex -1.638140e+02 -5.489450e+01 -3.768743e+02
      vertex -1.638140e+02 -4.689899e+01 -3.044941e+02
      vertex -1.638140e+02 -5.481511e+01 -3.768871e+02
    endloop
  endfacet
  facet normal -1.000000e+00 2.535389e-15 2.729887e-12
    outer loop
      vertex -1.638140e+02 -4.476302e+01 -3.096289e+02
      vertex -1.638140e+02 -5.481511e+01 -3.768871e+02
      vertex -1.638140e+02 -4.689899e+01 -3.044941e+02
    endloop
  endfacet
  facet normal -1.000000e+00 3.794240e-13 2.673745e-12
    outer loop
      vertex -1.638140e+02 -5.828028e+01 -3.816468e+02
      vertex -1.638140e+02 -4.689899e+01 -3.044941e+02
      vertex -1.638140e+02 -5.764452e+01 -3.776977e+02
    endloop
  endfacet
  facet normal -1.000000e+00 -6.051269e-15 2.730329e-12
    outer loop
      vertex -1.638140e+02 -5.509318e+01 -3.781084e+02
      vertex -1.638140e+02 -5.764452e+01 -3.776977e+02
      vertex -1.638140e+02 -4.689899e+01 -3.044941e+02
    endloop
  endfacet
  facet normal -1.000000e+00 1.293638e-14 2.727808e-12
    outer loop
      vertex -1.638140e+02 -5.934887e+01 -3.818293e+02
      vertex -1.638140e+02 -4.689899e+01 -3.044941e+02
      vertex -1.638140e+02 -5.828028e+01 -3.816468e+02
    endloop
  endfacet
  facet normal 4.350907e-13 -9.872883e-01 1.589397e-01
    outer loop
      vertex -1.470050e+02 -5.578226e+01 -3.596745e+02
      vertex -1.638140e+02 -4.689899e+01 -3.044941e+02
      vertex -1.638140e+02 -5.934887e+01 -3.818293e+02
    endloop
  endfacet
  facet normal 4.354676e-13 -9.872883e-01 1.589397e-01
    outer loop
      vertex -1.470050e+02 -5.578226e+01 -3.596745e+02
      vertex -1.470050e+02 -5.530544e+01 -3.567127e+02
      vertex -1.638140e+02 -4.689899e+01 -3.044941e+02
    endloop
  endfacet
  facet normal -1.000000e+00 -2.436089e-13 2.756772e-12
    outer loop
      vertex -1.638140e+02 -5.489450e+01 -3.768743e+02
      vertex -1.638140e+02 -5.509318e+01 -3.781084e+02
      vertex -1.638140e+02 -4.689899e+01 -3.044941e+02
    endloop
  endfacet
  facet normal -4.355474e-13 9.872883e-01 -1.589397e-01
    outer loop
      vertex -1.630640e+02 -4.515099e+01 -3.075407e+02
      vertex -1.638140e+02 -4.471708e+01 -3.048454e+02
      vertex -1.265640e+02 -4.471708e+01 -3.048454e+02
    endloop
  endfacet
  facet normal -4.238733e-13 9.872883e-01 -1.589397e-01
    outer loop
      vertex -1.635943e+02 -4.518590e+01 -3.077576e+02
      vertex -1.638140e+02 -4.471708e+01 -3.048454e+02
      vertex -1.630640e+02 -4.515099e+01 -3.075407e+02
    endloop
  endfacet
  facet normal -3.911965e-13 9.872883e-01 -1.589397e-01
    outer loop
      vertex -1.635943e+02 -4.518590e+01 -3.077576e+02
      vertex -1.638140e+02 -4.527019e+01 -3.082812e+02
      vertex -1.638140e+02 -4.471708e+01 -3.048454e+02
    endloop
  endfacet
  facet normal -4.188612e-13 9.872883e-01 -1.589397e-01
    outer loop
      vertex -1.265140e+02 -4.472503e+01 -3.048948e+02
      vertex -1.630640e+02 -4.515099e+01 -3.075407e+02
      vertex -1.265640e+02 -4.471708e+01 -3.048454e+02
    endloop
  endfacet
  facet normal -4.356759e-13 9.872883e-01 -1.589397e-01
    outer loop
      vertex -1.264140e+02 -4.489191e+01 -3.059314e+02
      vertex -1.078074e+01 -4.515099e+01 -3.075407e+02
      vertex -1.630640e+02 -4.515099e+01 -3.075407e+02
    endloop
  endfacet
  facet normal 2.695141e-12 1.589397e-01 9.872883e-01
    outer loop
      vertex -1.630640e+02 -4.444514e+01 -3.076543e+02
      vertex -1.630640e+02 -4.515099e+01 -3.075407e+02
      vertex -1.078074e+01 -4.515099e+01 -3.075407e+02
    endloop
  endfacet
  facet normal -4.270270e-13 9.872883e-01 -1.589397e-01
    outer loop
      vertex -1.264847e+02 -4.488726e+01 -3.059025e+02
      vertex -1.264140e+02 -4.489191e+01 -3.059314e+02
      vertex -1.630640e+02 -4.515099e+01 -3.075407e+02
    endloop
  endfacet
  facet normal -4.422438e-13 9.872883e-01 -1.589397e-01
    outer loop
      vertex -1.265140e+02 -4.487602e+01 -3.058327e+02
      vertex -1.264847e+02 -4.488726e+01 -3.059025e+02
      vertex -1.630640e+02 -4.515099e+01 -3.075407e+02
    endloop
  endfacet
  facet normal -4.359230e-13 9.872883e-01 -1.589397e-01
    outer loop
      vertex -1.265140e+02 -4.472503e+01 -3.048948e+02
      vertex -1.265140e+02 -4.487602e+01 -3.058327e+02
      vertex -1.630640e+02 -4.515099e+01 -3.075407e+02
    endloop
  endfacet
  facet normal -3.827076e-01 1.468395e-01 9.121256e-01
    outer loop
      vertex -1.635943e+02 -4.448006e+01 -3.078712e+02
      vertex -1.635943e+02 -4.518590e+01 -3.077576e+02
      vertex -1.630640e+02 -4.515099e+01 -3.075407e+02
    endloop
  endfacet
  facet normal -3.827076e-01 1.468395e-01 9.121256e-01
    outer loop
      vertex -1.635943e+02 -4.448006e+01 -3.078712e+02
      vertex -1.630640e+02 -4.515099e+01 -3.075407e+02
      vertex -1.630640e+02 -4.444514e+01 -3.076543e+02
    endloop
  endfacet
  facet normal -5.270658e-13 9.872883e-01 -1.589397e-01
    outer loop
      vertex -1.050001e+01 -4.489191e+01 -3.059314e+02
      vertex -1.031239e+01 -4.517708e+01 -3.077028e+02
      vertex -1.078074e+01 -4.515099e+01 -3.075407e+02
    endloop
  endfacet
  facet normal 3.308644e-01 1.499879e-01 9.316825e-01
    outer loop
      vertex -1.078074e+01 -4.444514e+01 -3.076543e+02
      vertex -1.078074e+01 -4.515099e+01 -3.075407e+02
      vertex -1.031239e+01 -4.517708e+01 -3.077028e+02
    endloop
  endfacet
  facet normal -4.358017e-13 9.872883e-01 -1.589397e-01
    outer loop
      vertex -1.264140e+02 -4.489191e+01 -3.059314e+02
      vertex -1.050001e+01 -4.489191e+01 -3.059314e+02
      vertex -1.078074e+01 -4.515099e+01 -3.075407e+02
    endloop
  endfacet
  facet normal 2.695141e-12 1.589397e-01 9.872883e-01
    outer loop
      vertex -1.078074e+01 -4.444514e+01 -3.076543e+02
      vertex -1.630640e+02 -4.444514e+01 -3.076543e+02
      vertex -1.078074e+01 -4.515099e+01 -3.075407e+02
    endloop
  endfacet
  facet normal -1.291841e-13 9.872883e-01 -1.589397e-01
    outer loop
      vertex -1.008467e+01 -4.521895e+01 -3.079629e+02
      vertex -1.004913e+01 -4.524395e+01 -3.081182e+02
      vertex -1.031239e+01 -4.517708e+01 -3.077028e+02
    endloop
  endfacet
  facet normal 8.477127e-01 8.431043e-02 5.237126e-01
    outer loop
      vertex -1.031239e+01 -4.447124e+01 -3.078165e+02
      vertex -1.031239e+01 -4.517708e+01 -3.077028e+02
      vertex -1.004913e+01 -4.524395e+01 -3.081182e+02
    endloop
  endfacet
  facet normal -3.889632e-13 9.872883e-01 -1.589397e-01
    outer loop
      vertex -1.012036e+01 -4.519390e+01 -3.078073e+02
      vertex -1.008467e+01 -4.521895e+01 -3.079629e+02
      vertex -1.031239e+01 -4.517708e+01 -3.077028e+02
    endloop
  endfacet
  facet normal -3.029399e-13 9.872883e-01 -1.589397e-01
    outer loop
      vertex -1.050001e+01 -4.489191e+01 -3.059314e+02
      vertex -1.012036e+01 -4.519390e+01 -3.078073e+02
      vertex -1.031239e+01 -4.517708e+01 -3.077028e+02
    endloop
  endfacet
  facet normal 3.308644e-01 1.499879e-01 9.316825e-01
    outer loop
      vertex -1.031239e+01 -4.447124e+01 -3.078165e+02
      vertex -1.078074e+01 -4.444514e+01 -3.076543e+02
      vertex -1.031239e+01 -4.517708e+01 -3.077028e+02
    endloop
  endfacet
  facet normal 9.750801e-01 8.818963e-03 2.216778e-01
    outer loop
      vertex -8.803626e+00 -4.834452e+01 -3.134734e+02
      vertex -1.004913e+01 -4.524395e+01 -3.081182e+02
      vertex -1.008467e+01 -4.521895e+01 -3.079629e+02
    endloop
  endfacet
  facet normal 9.775608e-01 3.348119e-02 2.079757e-01
    outer loop
      vertex -1.004913e+01 -4.453811e+01 -3.082318e+02
      vertex -1.004913e+01 -4.524395e+01 -3.081182e+02
      vertex -8.803626e+00 -4.834452e+01 -3.134734e+02
    endloop
  endfacet
  facet normal 8.477127e-01 8.431043e-02 5.237126e-01
    outer loop
      vertex -1.031239e+01 -4.447124e+01 -3.078165e+02
      vertex -1.004913e+01 -4.524395e+01 -3.081182e+02
      vertex -1.004913e+01 -4.453811e+01 -3.082318e+02
    endloop
  endfacet
  facet normal 9.749231e-01 7.450522e-03 2.224175e-01
    outer loop
      vertex -8.803626e+00 -4.834452e+01 -3.134734e+02
      vertex -1.008467e+01 -4.521895e+01 -3.079629e+02
      vertex -1.012036e+01 -4.519390e+01 -3.078073e+02
    endloop
  endfacet
  facet normal 9.806147e-01 3.114361e-02 1.934553e-01
    outer loop
      vertex -1.050001e+01 -4.707382e+01 -3.055802e+02
      vertex -1.012036e+01 -4.519390e+01 -3.078073e+02
      vertex -1.050001e+01 -4.489191e+01 -3.059314e+02
    endloop
  endfacet
  facet normal 9.806147e-01 3.114361e-02 1.934553e-01
    outer loop
      vertex -1.012036e+01 -4.737581e+01 -3.074560e+02
      vertex -1.012036e+01 -4.519390e+01 -3.078073e+02
      vertex -1.050001e+01 -4.707382e+01 -3.055802e+02
    endloop
  endfacet
  facet normal 9.774495e-01 3.356314e-02 2.084848e-01
    outer loop
      vertex -8.803626e+00 -4.834452e+01 -3.134734e+02
      vertex -1.012036e+01 -4.519390e+01 -3.078073e+02
      vertex -1.012036e+01 -4.737581e+01 -3.074560e+02
    endloop
  endfacet
  facet normal 2.695507e-12 1.589397e-01 9.872883e-01
    outer loop
      vertex -1.050001e+01 -4.707382e+01 -3.055802e+02
      vertex -1.050001e+01 -4.489191e+01 -3.059314e+02
      vertex -1.264140e+02 -4.489191e+01 -3.059314e+02
    endloop
  endfacet
  facet normal 3.826834e-01 1.468411e-01 9.121355e-01
    outer loop
      vertex -1.264140e+02 -4.707382e+01 -3.055802e+02
      vertex -1.264140e+02 -4.489191e+01 -3.059314e+02
      vertex -1.264847e+02 -4.488726e+01 -3.059025e+02
    endloop
  endfacet
  facet normal 2.695527e-12 1.589397e-01 9.872883e-01
    outer loop
      vertex -1.050001e+01 -4.707382e+01 -3.055802e+02
      vertex -1.264140e+02 -4.489191e+01 -3.059314e+02
      vertex -1.264140e+02 -4.707382e+01 -3.055802e+02
    endloop
  endfacet
  facet normal 9.238795e-01 6.082357e-02 3.778189e-01
    outer loop
      vertex -1.264847e+02 -4.706917e+01 -3.055512e+02
      vertex -1.264847e+02 -4.488726e+01 -3.059025e+02
      vertex -1.265140e+02 -4.487602e+01 -3.058327e+02
    endloop
  endfacet
  facet normal 3.826834e-01 1.468411e-01 9.121355e-01
    outer loop
      vertex -1.264140e+02 -4.707382e+01 -3.055802e+02
      vertex -1.264847e+02 -4.488726e+01 -3.059025e+02
      vertex -1.264847e+02 -4.706917e+01 -3.055512e+02
    endloop
  endfacet
  facet normal 1.000000e+00 3.740577e-15 -2.727853e-12
    outer loop
      vertex -1.265140e+02 -4.690693e+01 -3.045435e+02
      vertex -1.265140e+02 -4.487602e+01 -3.058327e+02
      vertex -1.265140e+02 -4.472503e+01 -3.048948e+02
    endloop
  endfacet
  facet normal 1.000000e+00 3.740577e-15 -2.727853e-12
    outer loop
      vertex -1.265140e+02 -4.705793e+01 -3.054814e+02
      vertex -1.265140e+02 -4.487602e+01 -3.058327e+02
      vertex -1.265140e+02 -4.690693e+01 -3.045435e+02
    endloop
  endfacet
  facet normal 9.238795e-01 6.082357e-02 3.778189e-01
    outer loop
      vertex -1.264847e+02 -4.706917e+01 -3.055512e+02
      vertex -1.265140e+02 -4.487602e+01 -3.058327e+02
      vertex -1.265140e+02 -4.705793e+01 -3.054814e+02
    endloop
  endfacet
  facet normal -9.238695e-01 6.082742e-02 3.778428e-01
    outer loop
      vertex -1.638140e+02 -4.456435e+01 -3.083948e+02
      vertex -1.638140e+02 -4.527019e+01 -3.082812e+02
      vertex -1.635943e+02 -4.518590e+01 -3.077576e+02
    endloop
  endfacet
  facet normal -1.000000e+00 3.755780e-14 2.734538e-12
    outer loop
      vertex -1.638140e+02 -4.476302e+01 -3.096289e+02
      vertex -1.638140e+02 -4.527019e+01 -3.082812e+02
      vertex -1.638140e+02 -4.456435e+01 -3.083948e+02
    endloop
  endfacet
  facet normal -9.238695e-01 6.082742e-02 3.778428e-01
    outer loop
      vertex -1.635943e+02 -4.448006e+01 -3.078712e+02
      vertex -1.638140e+02 -4.456435e+01 -3.083948e+02
      vertex -1.635943e+02 -4.518590e+01 -3.077576e+02
    endloop
  endfacet
  facet normal -4.356763e-13 9.872883e-01 -1.589397e-01
    outer loop
      vertex -1.638140e+02 -4.476302e+01 -3.096289e+02
      vertex -1.630640e+02 -4.444514e+01 -3.076543e+02
      vertex -1.078074e+01 -4.444514e+01 -3.076543e+02
    endloop
  endfacet
  facet normal -4.523917e-13 9.872883e-01 -1.589397e-01
    outer loop
      vertex -1.635943e+02 -4.448006e+01 -3.078712e+02
      vertex -1.630640e+02 -4.444514e+01 -3.076543e+02
      vertex -1.638140e+02 -4.476302e+01 -3.096289e+02
    endloop
  endfacet
  facet normal -4.354016e-13 9.872883e-01 -1.589397e-01
    outer loop
      vertex -1.031239e+01 -4.447124e+01 -3.078165e+02
      vertex -1.638140e+02 -4.476302e+01 -3.096289e+02
      vertex -1.078074e+01 -4.444514e+01 -3.076543e+02
    endloop
  endfacet
  facet normal -4.092217e-13 9.887968e-01 -1.492676e-01
    outer loop
      vertex -1.638140e+02 -5.481511e+01 -3.768871e+02
      vertex -1.470050e+02 -5.230132e+01 -3.602349e+02
      vertex -4.976400e+01 -5.230132e+01 -3.602349e+02
    endloop
  endfacet
  facet normal 2.694925e-12 1.589397e-01 9.872883e-01
    outer loop
      vertex -4.976400e+01 -5.578226e+01 -3.596745e+02
      vertex -4.976400e+01 -5.230132e+01 -3.602349e+02
      vertex -1.470050e+02 -5.230132e+01 -3.602349e+02
    endloop
  endfacet
  facet normal -4.149596e-13 9.887968e-01 -1.492676e-01
    outer loop
      vertex -8.079778e+00 -5.481511e+01 -3.768871e+02
      vertex -4.976400e+01 -5.230132e+01 -3.602349e+02
      vertex -4.826400e+01 -5.207741e+01 -3.587517e+02
    endloop
  endfacet
  facet normal -7.071068e-01 1.123873e-01 6.981183e-01
    outer loop
      vertex -4.826400e+01 -5.554385e+01 -3.581936e+02
      vertex -4.826400e+01 -5.207741e+01 -3.587517e+02
      vertex -4.976400e+01 -5.230132e+01 -3.602349e+02
    endloop
  endfacet
  facet normal -4.093380e-13 9.887968e-01 -1.492676e-01
    outer loop
      vertex -8.079778e+00 -5.481511e+01 -3.768871e+02
      vertex -1.638140e+02 -5.481511e+01 -3.768871e+02
      vertex -4.976400e+01 -5.230132e+01 -3.602349e+02
    endloop
  endfacet
  facet normal -7.071068e-01 1.123873e-01 6.981183e-01
    outer loop
      vertex -4.826400e+01 -5.554385e+01 -3.581936e+02
      vertex -4.976400e+01 -5.230132e+01 -3.602349e+02
      vertex -4.976400e+01 -5.578226e+01 -3.596745e+02
    endloop
  endfacet
  facet normal -4.063512e-13 9.887968e-01 -1.492676e-01
    outer loop
      vertex -1.638140e+02 -5.481511e+01 -3.768871e+02
      vertex -1.470050e+02 -5.185350e+01 -3.572684e+02
      vertex -1.470050e+02 -5.230132e+01 -3.602349e+02
    endloop
  endfacet
  facet normal 1.000000e+00 6.420675e-15 -2.721912e-12
    outer loop
      vertex -1.470050e+02 -5.530544e+01 -3.567127e+02
      vertex -1.470050e+02 -5.230132e+01 -3.602349e+02
      vertex -1.470050e+02 -5.185350e+01 -3.572684e+02
    endloop
  endfacet
  facet normal 2.694925e-12 1.589397e-01 9.872883e-01
    outer loop
      vertex -1.470050e+02 -5.578226e+01 -3.596745e+02
      vertex -4.976400e+01 -5.578226e+01 -3.596745e+02
      vertex -1.470050e+02 -5.230132e+01 -3.602349e+02
    endloop
  endfacet
  facet normal 1.000000e+00 -7.336634e-15 -2.733646e-12
    outer loop
      vertex -1.470050e+02 -5.578226e+01 -3.596745e+02
      vertex -1.470050e+02 -5.230132e+01 -3.602349e+02
      vertex -1.470050e+02 -5.530544e+01 -3.567127e+02
    endloop
  endfacet
  facet normal -4.092152e-13 9.887968e-01 -1.492676e-01
    outer loop
      vertex -9.733199e+00 -4.466430e+01 -3.096448e+02
      vertex -4.976400e+01 -5.185350e+01 -3.572684e+02
      vertex -1.470050e+02 -5.185350e+01 -3.572684e+02
    endloop
  endfacet
  facet normal -2.694925e-12 -1.589397e-01 -9.872883e-01
    outer loop
      vertex -1.470050e+02 -5.530544e+01 -3.567127e+02
      vertex -1.470050e+02 -5.185350e+01 -3.572684e+02
      vertex -4.976400e+01 -5.185350e+01 -3.572684e+02
    endloop
  endfacet
  facet normal -4.092339e-13 9.887968e-01 -1.492676e-01
    outer loop
      vertex -1.638140e+02 -4.466430e+01 -3.096448e+02
      vertex -9.733199e+00 -4.466430e+01 -3.096448e+02
      vertex -1.470050e+02 -5.185350e+01 -3.572684e+02
    endloop
  endfacet
  facet normal -4.087413e-13 9.887968e-01 -1.492676e-01
    outer loop
      vertex -1.638140e+02 -5.481511e+01 -3.768871e+02
      vertex -1.638140e+02 -4.466430e+01 -3.096448e+02
      vertex -1.470050e+02 -5.185350e+01 -3.572684e+02
    endloop
  endfacet
  facet normal -4.172149e-13 9.887968e-01 -1.492676e-01
    outer loop
      vertex -9.733199e+00 -4.466430e+01 -3.096448e+02
      vertex -4.826400e+01 -5.207741e+01 -3.587517e+02
      vertex -4.976400e+01 -5.185350e+01 -3.572684e+02
    endloop
  endfacet
  facet normal -7.071068e-01 -1.123873e-01 -6.981182e-01
    outer loop
      vertex -4.976400e+01 -5.530544e+01 -3.567127e+02
      vertex -4.976400e+01 -5.185350e+01 -3.572684e+02
      vertex -4.826400e+01 -5.207741e+01 -3.587517e+02
    endloop
  endfacet
  facet normal -2.694925e-12 -1.589397e-01 -9.872883e-01
    outer loop
      vertex -1.470050e+02 -5.530544e+01 -3.567127e+02
      vertex -4.976400e+01 -5.185350e+01 -3.572684e+02
      vertex -4.976400e+01 -5.530544e+01 -3.567127e+02
    endloop
  endfacet
  facet normal -4.093626e-13 9.887968e-01 -1.492676e-01
    outer loop
      vertex -8.421127e+00 -4.559969e+01 -3.158411e+02
      vertex -4.826400e+01 -5.207741e+01 -3.587517e+02
      vertex -9.733199e+00 -4.466430e+01 -3.096448e+02
    endloop
  endfacet
  facet normal -4.092442e-13 9.887968e-01 -1.492676e-01
    outer loop
      vertex -8.421127e+00 -4.559969e+01 -3.158411e+02
      vertex -8.079778e+00 -5.481511e+01 -3.768871e+02
      vertex -4.826400e+01 -5.207741e+01 -3.587517e+02
    endloop
  endfacet
  facet normal -7.071068e-01 -1.123873e-01 -6.981183e-01
    outer loop
      vertex -4.976400e+01 -5.530544e+01 -3.567127e+02
      vertex -4.826400e+01 -5.207741e+01 -3.587517e+02
      vertex -4.826400e+01 -5.554385e+01 -3.581936e+02
    endloop
  endfacet
  facet normal 2.695023e-12 1.589397e-01 9.872883e-01
    outer loop
      vertex -9.733199e+00 -4.476302e+01 -3.096289e+02
      vertex -9.733199e+00 -4.466430e+01 -3.096448e+02
      vertex -1.638140e+02 -4.466430e+01 -3.096448e+02
    endloop
  endfacet
  facet normal 9.787519e-01 3.750519e-02 2.015887e-01
    outer loop
      vertex -8.803626e+00 -4.834452e+01 -3.134734e+02
      vertex -8.421127e+00 -4.559969e+01 -3.158411e+02
      vertex -9.733199e+00 -4.466430e+01 -3.096448e+02
    endloop
  endfacet
  facet normal 9.780654e-01 3.310678e-02 2.056500e-01
    outer loop
      vertex -9.733199e+00 -4.476302e+01 -3.096289e+02
      vertex -8.803626e+00 -4.834452e+01 -3.134734e+02
      vertex -9.733199e+00 -4.466430e+01 -3.096448e+02
    endloop
  endfacet
  facet normal -1.000000e+00 1.480951e-13 2.708133e-12
    outer loop
      vertex -1.638140e+02 -4.476302e+01 -3.096289e+02
      vertex -1.638140e+02 -4.466430e+01 -3.096448e+02
      vertex -1.638140e+02 -5.481511e+01 -3.768871e+02
    endloop
  endfacet
  facet normal 2.695008e-12 1.589397e-01 9.872883e-01
    outer loop
      vertex -1.638140e+02 -4.476302e+01 -3.096289e+02
      vertex -9.733199e+00 -4.476302e+01 -3.096289e+02
      vertex -1.638140e+02 -4.466430e+01 -3.096448e+02
    endloop
  endfacet
  facet normal -2.695225e-12 -1.589397e-01 -9.872883e-01
    outer loop
      vertex -1.638140e+02 -5.489450e+01 -3.768743e+02
      vertex -1.638140e+02 -5.481511e+01 -3.768871e+02
      vertex -8.079778e+00 -5.481511e+01 -3.768871e+02
    endloop
  endfacet
  facet normal -3.958981e-13 9.887968e-01 -1.492676e-01
    outer loop
      vertex -7.129067e+00 -4.665937e+01 -3.228608e+02
      vertex -7.127365e+00 -5.417417e+01 -3.726413e+02
      vertex -8.079778e+00 -5.481511e+01 -3.768871e+02
    endloop
  endfacet
  facet normal 9.762705e-01 -3.441914e-02 -2.138020e-01
    outer loop
      vertex -8.079778e+00 -5.489450e+01 -3.768743e+02
      vertex -8.079778e+00 -5.481511e+01 -3.768871e+02
      vertex -7.127365e+00 -5.417417e+01 -3.726413e+02
    endloop
  endfacet
  facet normal -4.161542e-13 9.887968e-01 -1.492676e-01
    outer loop
      vertex -8.421127e+00 -4.559969e+01 -3.158411e+02
      vertex -7.129067e+00 -4.665937e+01 -3.228608e+02
      vertex -8.079778e+00 -5.481511e+01 -3.768871e+02
    endloop
  endfacet
  facet normal -2.695225e-12 -1.589397e-01 -9.872883e-01
    outer loop
      vertex -1.638140e+02 -5.489450e+01 -3.768743e+02
      vertex -8.079778e+00 -5.481511e+01 -3.768871e+02
      vertex -8.079778e+00 -5.489450e+01 -3.768743e+02
    endloop
  endfacet
  facet normal -4.150885e-13 9.887968e-01 -1.492676e-01
    outer loop
      vertex -6.012583e+00 -4.780282e+01 -3.304354e+02
      vertex -6.345912e+00 -5.353105e+01 -3.683811e+02
      vertex -7.127365e+00 -5.417417e+01 -3.726413e+02
    endloop
  endfacet
  facet normal 9.839451e-01 -2.496794e-02 -1.767164e-01
    outer loop
      vertex -6.975786e+00 -5.765469e+01 -3.713056e+02
      vertex -7.127365e+00 -5.417417e+01 -3.726413e+02
      vertex -6.345912e+00 -5.353105e+01 -3.683811e+02
    endloop
  endfacet
  facet normal -4.140931e-13 9.887968e-01 -1.492676e-01
    outer loop
      vertex -7.129067e+00 -4.665937e+01 -3.228608e+02
      vertex -6.012583e+00 -4.780282e+01 -3.304354e+02
      vertex -7.127365e+00 -5.417417e+01 -3.726413e+02
    endloop
  endfacet
  facet normal 9.781520e-01 -3.598027e-02 -2.047536e-01
    outer loop
      vertex -7.795859e+00 -5.826803e+01 -3.751154e+02
      vertex -7.127365e+00 -5.417417e+01 -3.726413e+02
      vertex -6.975786e+00 -5.765469e+01 -3.713056e+02
    endloop
  endfacet
  facet normal 9.762504e-01 -2.972086e-02 -2.145970e-01
    outer loop
      vertex -8.079778e+00 -5.489450e+01 -3.768743e+02
      vertex -7.127365e+00 -5.417417e+01 -3.726413e+02
      vertex -7.795859e+00 -5.826803e+01 -3.751154e+02
    endloop
  endfacet
  facet normal -3.971064e-13 9.887968e-01 -1.492676e-01
    outer loop
      vertex -6.012583e+00 -4.780282e+01 -3.304354e+02
      vertex -5.728048e+00 -5.288084e+01 -3.640739e+02
      vertex -6.345912e+00 -5.353105e+01 -3.683811e+02
    endloop
  endfacet
  facet normal 9.900810e-01 -1.679253e-02 -1.394907e-01
    outer loop
      vertex -6.088627e+00 -5.682605e+01 -3.661583e+02
      vertex -6.345912e+00 -5.353105e+01 -3.683811e+02
      vertex -5.728048e+00 -5.288084e+01 -3.640739e+02
    endloop
  endfacet
  facet normal 9.858023e-01 -3.395779e-02 -1.644403e-01
    outer loop
      vertex -6.975786e+00 -5.765469e+01 -3.713056e+02
      vertex -6.345912e+00 -5.353105e+01 -3.683811e+02
      vertex -6.088627e+00 -5.682605e+01 -3.661583e+02
    endloop
  endfacet
  facet normal -3.918607e-13 9.887968e-01 -1.492676e-01
    outer loop
      vertex -5.264000e+00 -4.889664e+01 -3.376812e+02
      vertex -5.264000e+00 -5.220955e+01 -3.596270e+02
      vertex -5.728048e+00 -5.288084e+01 -3.640739e+02
    endloop
  endfacet
  facet normal 9.944287e-01 -3.918621e-02 -9.785730e-02
    outer loop
      vertex -6.088627e+00 -5.682605e+01 -3.661583e+02
      vertex -5.728048e+00 -5.288084e+01 -3.640739e+02
      vertex -5.264000e+00 -5.220955e+01 -3.596270e+02
    endloop
  endfacet
  facet normal -3.889814e-13 9.887968e-01 -1.492676e-01
    outer loop
      vertex -6.012583e+00 -4.780282e+01 -3.304354e+02
      vertex -5.264000e+00 -4.889664e+01 -3.376812e+02
      vertex -5.728048e+00 -5.288084e+01 -3.640739e+02
    endloop
  endfacet
  facet normal 7.071068e-01 6.991850e-01 -1.055481e-01
    outer loop
      vertex -4.933437e+00 -5.175428e+01 -3.543966e+02
      vertex -5.264000e+00 -5.220955e+01 -3.596270e+02
      vertex -5.264000e+00 -4.889664e+01 -3.376812e+02
    endloop
  endfacet
  facet normal 9.934727e-01 -1.813020e-02 -1.126197e-01
    outer loop
      vertex -6.088627e+00 -5.682605e+01 -3.661583e+02
      vertex -5.264000e+00 -5.220955e+01 -3.596270e+02
      vertex -5.264000e+00 -5.568455e+01 -3.590676e+02
    endloop
  endfacet
  facet normal 9.980133e-01 -1.001383e-02 -6.220310e-02
    outer loop
      vertex -4.933437e+00 -5.175428e+01 -3.543966e+02
      vertex -5.264000e+00 -5.568455e+01 -3.590676e+02
      vertex -5.264000e+00 -5.220955e+01 -3.596270e+02
    endloop
  endfacet
  facet normal 9.948222e-01 1.615316e-02 1.003389e-01
    outer loop
      vertex -5.264000e+00 -5.215715e+01 -3.371564e+02
      vertex -5.264000e+00 -4.889664e+01 -3.376812e+02
      vertex -6.012583e+00 -4.780282e+01 -3.304354e+02
    endloop
  endfacet
  facet normal 9.982548e-01 9.386053e-03 5.830352e-02
    outer loop
      vertex -4.923378e+00 -5.273601e+01 -3.428952e+02
      vertex -5.264000e+00 -4.889664e+01 -3.376812e+02
      vertex -5.264000e+00 -5.215715e+01 -3.371564e+02
    endloop
  endfacet
  facet normal 7.071068e-01 6.991850e-01 -1.055481e-01
    outer loop
      vertex -4.814631e+00 -5.105227e+01 -3.489504e+02
      vertex -5.264000e+00 -4.889664e+01 -3.376812e+02
      vertex -4.923531e+00 -5.009171e+01 -3.433168e+02
    endloop
  endfacet
  facet normal 9.982538e-01 9.358029e-03 5.832409e-02
    outer loop
      vertex -4.923378e+00 -5.273601e+01 -3.428952e+02
      vertex -4.923531e+00 -5.009171e+01 -3.433168e+02
      vertex -5.264000e+00 -4.889664e+01 -3.376812e+02
    endloop
  endfacet
  facet normal 7.071068e-01 6.991850e-01 -1.055481e-01
    outer loop
      vertex -4.933437e+00 -5.175428e+01 -3.543966e+02
      vertex -5.264000e+00 -4.889664e+01 -3.376812e+02
      vertex -4.814631e+00 -5.105227e+01 -3.489504e+02
    endloop
  endfacet
  facet normal 9.894888e-01 3.207600e-02 1.410071e-01
    outer loop
      vertex -6.823055e+00 -5.007633e+01 -3.242309e+02
      vertex -6.012583e+00 -4.780282e+01 -3.304354e+02
      vertex -7.129067e+00 -4.665937e+01 -3.228608e+02
    endloop
  endfacet
  facet normal 9.907041e-01 1.561710e-02 1.351348e-01
    outer loop
      vertex -5.863858e+00 -5.118772e+01 -3.311346e+02
      vertex -6.012583e+00 -4.780282e+01 -3.304354e+02
      vertex -6.823055e+00 -5.007633e+01 -3.242309e+02
    endloop
  endfacet
  facet normal 9.951618e-01 2.404886e-02 9.526128e-02
    outer loop
      vertex -5.264000e+00 -5.215715e+01 -3.371564e+02
      vertex -6.012583e+00 -4.780282e+01 -3.304354e+02
      vertex -5.863858e+00 -5.118772e+01 -3.311346e+02
    endloop
  endfacet
  facet normal 9.837827e-01 3.724609e-02 1.754546e-01
    outer loop
      vertex -7.706110e+00 -4.924648e+01 -3.190761e+02
      vertex -7.129067e+00 -4.665937e+01 -3.228608e+02
      vertex -8.421127e+00 -4.559969e+01 -3.158411e+02
    endloop
  endfacet
  facet normal 9.859870e-01 2.199532e-02 1.653658e-01
    outer loop
      vertex -6.823055e+00 -5.007633e+01 -3.242309e+02
      vertex -7.129067e+00 -4.665937e+01 -3.228608e+02
      vertex -7.706110e+00 -4.924648e+01 -3.190761e+02
    endloop
  endfacet
  facet normal 9.817965e-01 2.554086e-02 1.882109e-01
    outer loop
      vertex -7.706110e+00 -4.924648e+01 -3.190761e+02
      vertex -8.421127e+00 -4.559969e+01 -3.158411e+02
      vertex -8.803626e+00 -4.834452e+01 -3.134734e+02
    endloop
  endfacet
  facet normal -2.695259e-12 -1.589397e-01 -9.872883e-01
    outer loop
      vertex -1.630640e+02 -5.776373e+01 -3.784381e+02
      vertex -1.630640e+02 -5.521238e+01 -3.788489e+02
      vertex -9.164116e+00 -5.521238e+01 -3.788489e+02
    endloop
  endfacet
  facet normal -4.357697e-13 9.872883e-01 -1.589397e-01
    outer loop
      vertex -8.079778e+00 -5.489450e+01 -3.768743e+02
      vertex -9.164116e+00 -5.521238e+01 -3.788489e+02
      vertex -1.630640e+02 -5.521238e+01 -3.788489e+02
    endloop
  endfacet
  facet normal -2.695274e-12 -1.589397e-01 -9.872883e-01
    outer loop
      vertex -9.164116e+00 -5.776373e+01 -3.784381e+02
      vertex -1.630640e+02 -5.776373e+01 -3.784381e+02
      vertex -9.164116e+00 -5.521238e+01 -3.788489e+02
    endloop
  endfacet
  facet normal 3.241207e-01 -1.503594e-01 -9.339903e-01
    outer loop
      vertex -8.704245e+00 -5.518734e+01 -3.786933e+02
      vertex -9.164116e+00 -5.776373e+01 -3.784381e+02
      vertex -9.164116e+00 -5.521238e+01 -3.788489e+02
    endloop
  endfacet
  facet normal -4.200715e-13 9.872883e-01 -1.589397e-01
    outer loop
      vertex -8.704245e+00 -5.518734e+01 -3.786933e+02
      vertex -9.164116e+00 -5.521238e+01 -3.788489e+02
      vertex -8.079778e+00 -5.489450e+01 -3.768743e+02
    endloop
  endfacet
  facet normal -3.827076e-01 -1.468395e-01 -9.121256e-01
    outer loop
      vertex -1.635943e+02 -5.772881e+01 -3.782212e+02
      vertex -1.630640e+02 -5.521238e+01 -3.788489e+02
      vertex -1.630640e+02 -5.776373e+01 -3.784381e+02
    endloop
  endfacet
  facet normal -3.827076e-01 -1.468395e-01 -9.121256e-01
    outer loop
      vertex -1.635943e+02 -5.517747e+01 -3.786320e+02
      vertex -1.630640e+02 -5.521238e+01 -3.788489e+02
      vertex -1.635943e+02 -5.772881e+01 -3.782212e+02
    endloop
  endfacet
  facet normal -4.358224e-13 9.872883e-01 -1.589397e-01
    outer loop
      vertex -1.635943e+02 -5.517747e+01 -3.786320e+02
      vertex -8.079778e+00 -5.489450e+01 -3.768743e+02
      vertex -1.630640e+02 -5.521238e+01 -3.788489e+02
    endloop
  endfacet
  facet normal -4.356787e-13 9.872883e-01 -1.589397e-01
    outer loop
      vertex -1.630640e+02 -5.816108e+01 -3.809063e+02
      vertex -1.630640e+02 -5.776373e+01 -3.784381e+02
      vertex -9.164116e+00 -5.776373e+01 -3.784381e+02
    endloop
  endfacet
  facet normal -4.336585e-13 9.872883e-01 -1.589397e-01
    outer loop
      vertex -1.630640e+02 -5.816108e+01 -3.809063e+02
      vertex -1.635943e+02 -5.819599e+01 -3.811232e+02
      vertex -1.630640e+02 -5.776373e+01 -3.784381e+02
    endloop
  endfacet
  facet normal -4.682733e-13 9.872883e-01 -1.589397e-01
    outer loop
      vertex -1.635943e+02 -5.772881e+01 -3.782212e+02
      vertex -1.630640e+02 -5.776373e+01 -3.784381e+02
      vertex -1.635943e+02 -5.819599e+01 -3.811232e+02
    endloop
  endfacet
  facet normal -4.357181e-13 9.872883e-01 -1.589397e-01
    outer loop
      vertex -1.026557e+01 -5.816108e+01 -3.809063e+02
      vertex -1.630640e+02 -5.816108e+01 -3.809063e+02
      vertex -9.164116e+00 -5.776373e+01 -3.784381e+02
    endloop
  endfacet
  facet normal -4.043206e-13 9.872883e-01 -1.589397e-01
    outer loop
      vertex -9.664867e+00 -5.820891e+01 -3.812035e+02
      vertex -1.026557e+01 -5.816108e+01 -3.809063e+02
      vertex -9.164116e+00 -5.776373e+01 -3.784381e+02
    endloop
  endfacet
  facet normal -4.999347e-13 9.872883e-01 -1.589397e-01
    outer loop
      vertex -9.546231e+00 -5.831402e+01 -3.818564e+02
      vertex -9.664867e+00 -5.820891e+01 -3.812035e+02
      vertex -9.164116e+00 -5.776373e+01 -3.784381e+02
    endloop
  endfacet
  facet normal -4.341697e-13 9.872883e-01 -1.589397e-01
    outer loop
      vertex -9.001234e+00 -5.801066e+01 -3.799720e+02
      vertex -9.546231e+00 -5.831402e+01 -3.818564e+02
      vertex -9.164116e+00 -5.776373e+01 -3.784381e+02
    endloop
  endfacet
  facet normal -4.232692e-13 9.872883e-01 -1.589397e-01
    outer loop
      vertex -8.704245e+00 -5.773868e+01 -3.782826e+02
      vertex -9.001234e+00 -5.801066e+01 -3.799720e+02
      vertex -9.164116e+00 -5.776373e+01 -3.784381e+02
    endloop
  endfacet
  facet normal 3.241207e-01 -1.503594e-01 -9.339903e-01
    outer loop
      vertex -8.704245e+00 -5.518734e+01 -3.786933e+02
      vertex -8.704245e+00 -5.773868e+01 -3.782826e+02
      vertex -9.164116e+00 -5.776373e+01 -3.784381e+02
    endloop
  endfacet
  facet normal -3.645675e-13 9.872883e-01 -1.589397e-01
    outer loop
      vertex -1.635943e+02 -5.772881e+01 -3.782212e+02
      vertex -1.638140e+02 -5.828028e+01 -3.816468e+02
      vertex -1.638140e+02 -5.764452e+01 -3.776977e+02
    endloop
  endfacet
  facet normal -9.238695e-01 -6.082742e-02 -3.778428e-01
    outer loop
      vertex -1.635943e+02 -5.517747e+01 -3.786320e+02
      vertex -1.635943e+02 -5.772881e+01 -3.782212e+02
      vertex -1.638140e+02 -5.764452e+01 -3.776977e+02
    endloop
  endfacet
  facet normal -9.238695e-01 -6.082742e-02 -3.778428e-01
    outer loop
      vertex -1.635943e+02 -5.517747e+01 -3.786320e+02
      vertex -1.638140e+02 -5.764452e+01 -3.776977e+02
      vertex -1.638140e+02 -5.509318e+01 -3.781084e+02
    endloop
  endfacet
  facet normal -4.965476e-13 9.872883e-01 -1.589397e-01
    outer loop
      vertex -1.635943e+02 -5.772881e+01 -3.782212e+02
      vertex -1.635943e+02 -5.819599e+01 -3.811232e+02
      vertex -1.638140e+02 -5.828028e+01 -3.816468e+02
    endloop
  endfacet
  facet normal -9.238695e-01 6.082742e-02 3.778428e-01
    outer loop
      vertex -1.638140e+02 -5.627214e+01 -3.819701e+02
      vertex -1.638140e+02 -5.828028e+01 -3.816468e+02
      vertex -1.635943e+02 -5.819599e+01 -3.811232e+02
    endloop
  endfacet
  facet normal -1.000000e+00 -1.745888e-15 2.714545e-12
    outer loop
      vertex -1.638140e+02 -5.632777e+01 -3.823156e+02
      vertex -1.638140e+02 -5.828028e+01 -3.816468e+02
      vertex -1.638140e+02 -5.627214e+01 -3.819701e+02
    endloop
  endfacet
  facet normal -1.000000e+00 9.563347e-15 2.747560e-12
    outer loop
      vertex -1.638140e+02 -5.934887e+01 -3.818293e+02
      vertex -1.638140e+02 -5.828028e+01 -3.816468e+02
      vertex -1.638140e+02 -5.632777e+01 -3.823156e+02
    endloop
  endfacet
  facet normal -3.827076e-01 1.468395e-01 9.121256e-01
    outer loop
      vertex -1.635943e+02 -5.618785e+01 -3.814465e+02
      vertex -1.635943e+02 -5.819599e+01 -3.811232e+02
      vertex -1.630640e+02 -5.816108e+01 -3.809063e+02
    endloop
  endfacet
  facet normal -9.238695e-01 6.082742e-02 3.778428e-01
    outer loop
      vertex -1.638140e+02 -5.627214e+01 -3.819701e+02
      vertex -1.635943e+02 -5.819599e+01 -3.811232e+02
      vertex -1.635943e+02 -5.618785e+01 -3.814465e+02
    endloop
  endfacet
  facet normal 2.694855e-12 1.589397e-01 9.872883e-01
    outer loop
      vertex -1.630640e+02 -5.615293e+01 -3.812296e+02
      vertex -1.630640e+02 -5.816108e+01 -3.809063e+02
      vertex -1.026557e+01 -5.816108e+01 -3.809063e+02
    endloop
  endfacet
  facet normal -3.827076e-01 1.468395e-01 9.121256e-01
    outer loop
      vertex -1.635943e+02 -5.618785e+01 -3.814465e+02
      vertex -1.630640e+02 -5.816108e+01 -3.809063e+02
      vertex -1.630640e+02 -5.615293e+01 -3.812296e+02
    endloop
  endfacet
  facet normal 4.479133e-01 1.421043e-01 8.827118e-01
    outer loop
      vertex -1.026557e+01 -5.615293e+01 -3.812296e+02
      vertex -1.026557e+01 -5.816108e+01 -3.809063e+02
      vertex -9.664867e+00 -5.820891e+01 -3.812035e+02
    endloop
  endfacet
  facet normal 2.694869e-12 1.589397e-01 9.872883e-01
    outer loop
      vertex -1.026557e+01 -5.615293e+01 -3.812296e+02
      vertex -1.630640e+02 -5.615293e+01 -3.812296e+02
      vertex -1.026557e+01 -5.816108e+01 -3.809063e+02
    endloop
  endfacet
  facet normal 9.842871e-01 2.806485e-02 1.743309e-01
    outer loop
      vertex -9.664867e+00 -5.620076e+01 -3.815267e+02
      vertex -9.664867e+00 -5.820891e+01 -3.812035e+02
      vertex -9.546231e+00 -5.831402e+01 -3.818564e+02
    endloop
  endfacet
  facet normal 4.479133e-01 1.421043e-01 8.827118e-01
    outer loop
      vertex -9.664867e+00 -5.620076e+01 -3.815267e+02
      vertex -1.026557e+01 -5.615293e+01 -3.812296e+02
      vertex -9.664867e+00 -5.820891e+01 -3.812035e+02
    endloop
  endfacet
  facet normal 9.615660e-01 -4.469030e-02 -2.709124e-01
    outer loop
      vertex -9.586699e+00 -5.934887e+01 -3.818293e+02
      vertex -9.546231e+00 -5.831402e+01 -3.818564e+02
      vertex -9.001234e+00 -5.801066e+01 -3.799720e+02
    endloop
  endfacet
  facet normal 9.842871e-01 2.806485e-02 1.743309e-01
    outer loop
      vertex -9.664867e+00 -5.620076e+01 -3.815267e+02
      vertex -9.546231e+00 -5.831402e+01 -3.818564e+02
      vertex -9.546231e+00 -5.630587e+01 -3.821796e+02
    endloop
  endfacet
  facet normal 9.594520e-01 -4.480063e-02 -2.782889e-01
    outer loop
      vertex -9.586699e+00 -5.934887e+01 -3.818293e+02
      vertex -9.546231e+00 -5.630587e+01 -3.821796e+02
      vertex -9.546231e+00 -5.831402e+01 -3.818564e+02
    endloop
  endfacet
  facet normal -5.125421e-13 9.872883e-01 -1.589397e-01
    outer loop
      vertex -8.704245e+00 -5.773868e+01 -3.782826e+02
      vertex -8.437550e+00 -5.767409e+01 -3.778813e+02
      vertex -9.001234e+00 -5.801066e+01 -3.799720e+02
    endloop
  endfacet
  facet normal 9.656392e-01 -7.871985e-02 -2.476773e-01
    outer loop
      vertex -9.586699e+00 -5.934887e+01 -3.818293e+02
      vertex -9.001234e+00 -5.801066e+01 -3.799720e+02
      vertex -8.437550e+00 -5.767409e+01 -3.778813e+02
    endloop
  endfacet
  facet normal 8.360665e-01 -8.719877e-02 -5.416542e-01
    outer loop
      vertex -8.437550e+00 -5.512275e+01 -3.782920e+02
      vertex -8.437550e+00 -5.767409e+01 -3.778813e+02
      vertex -8.704245e+00 -5.773868e+01 -3.782826e+02
    endloop
  endfacet
  facet normal 9.658443e-01 -8.928877e-02 -2.432536e-01
    outer loop
      vertex -7.795859e+00 -5.826803e+01 -3.751154e+02
      vertex -9.586699e+00 -5.934887e+01 -3.818293e+02
      vertex -8.437550e+00 -5.767409e+01 -3.778813e+02
    endloop
  endfacet
  facet normal 9.714001e-01 -4.025144e-02 -2.340122e-01
    outer loop
      vertex -8.079778e+00 -5.489450e+01 -3.768743e+02
      vertex -7.795859e+00 -5.826803e+01 -3.751154e+02
      vertex -8.437550e+00 -5.767409e+01 -3.778813e+02
    endloop
  endfacet
  facet normal 9.710876e-01 -3.970935e-02 -2.353975e-01
    outer loop
      vertex -8.262564e+00 -5.501269e+01 -3.776084e+02
      vertex -8.079778e+00 -5.489450e+01 -3.768743e+02
      vertex -8.437550e+00 -5.767409e+01 -3.778813e+02
    endloop
  endfacet
  facet normal 9.695222e-01 -3.894074e-02 -2.418889e-01
    outer loop
      vertex -8.437550e+00 -5.512275e+01 -3.782920e+02
      vertex -8.262564e+00 -5.501269e+01 -3.776084e+02
      vertex -8.437550e+00 -5.767409e+01 -3.778813e+02
    endloop
  endfacet
  facet normal 8.360665e-01 -8.719877e-02 -5.416542e-01
    outer loop
      vertex -8.704245e+00 -5.518734e+01 -3.786933e+02
      vertex -8.437550e+00 -5.512275e+01 -3.782920e+02
      vertex -8.704245e+00 -5.773868e+01 -3.782826e+02
    endloop
  endfacet
  facet normal -4.356262e-13 9.872883e-01 -1.589397e-01
    outer loop
      vertex -1.638140e+02 -5.632777e+01 -3.823156e+02
      vertex -1.630640e+02 -5.615293e+01 -3.812296e+02
      vertex -1.026557e+01 -5.615293e+01 -3.812296e+02
    endloop
  endfacet
  facet normal -4.626931e-13 9.872883e-01 -1.589397e-01
    outer loop
      vertex -1.638140e+02 -5.632777e+01 -3.823156e+02
      vertex -1.635943e+02 -5.618785e+01 -3.814465e+02
      vertex -1.630640e+02 -5.615293e+01 -3.812296e+02
    endloop
  endfacet
  facet normal -4.359449e-13 9.872883e-01 -1.589397e-01
    outer loop
      vertex -9.664867e+00 -5.620076e+01 -3.815267e+02
      vertex -1.638140e+02 -5.632777e+01 -3.823156e+02
      vertex -1.026557e+01 -5.615293e+01 -3.812296e+02
    endloop
  endfacet
  facet normal -3.832756e-13 9.872883e-01 -1.589397e-01
    outer loop
      vertex -1.638140e+02 -5.632777e+01 -3.823156e+02
      vertex -1.638140e+02 -5.627214e+01 -3.819701e+02
      vertex -1.635943e+02 -5.618785e+01 -3.814465e+02
    endloop
  endfacet
  facet normal -4.355738e-13 9.872883e-01 -1.589397e-01
    outer loop
      vertex -9.664867e+00 -5.620076e+01 -3.815267e+02
      vertex -9.586699e+00 -5.632777e+01 -3.823156e+02
      vertex -1.638140e+02 -5.632777e+01 -3.823156e+02
    endloop
  endfacet
  facet normal -2.694646e-12 -1.589397e-01 -9.872883e-01
    outer loop
      vertex -1.638140e+02 -5.934887e+01 -3.818293e+02
      vertex -1.638140e+02 -5.632777e+01 -3.823156e+02
      vertex -9.586699e+00 -5.632777e+01 -3.823156e+02
    endloop
  endfacet
  facet normal -5.783435e-13 9.872883e-01 -1.589397e-01
    outer loop
      vertex -9.664867e+00 -5.620076e+01 -3.815267e+02
      vertex -9.566762e+00 -5.631688e+01 -3.822480e+02
      vertex -9.586699e+00 -5.632777e+01 -3.823156e+02
    endloop
  endfacet
  facet normal 9.601472e-01 -4.442282e-02 -2.759420e-01
    outer loop
      vertex -9.586699e+00 -5.934887e+01 -3.818293e+02
      vertex -9.586699e+00 -5.632777e+01 -3.823156e+02
      vertex -9.566762e+00 -5.631688e+01 -3.822480e+02
    endloop
  endfacet
  facet normal -2.694632e-12 -1.589397e-01 -9.872883e-01
    outer loop
      vertex -9.586699e+00 -5.934887e+01 -3.818293e+02
      vertex -1.638140e+02 -5.934887e+01 -3.818293e+02
      vertex -9.586699e+00 -5.632777e+01 -3.823156e+02
    endloop
  endfacet
  facet normal -1.306001e-12 9.872883e-01 -1.589397e-01
    outer loop
      vertex -9.664867e+00 -5.620076e+01 -3.815267e+02
      vertex -9.546231e+00 -5.630587e+01 -3.821796e+02
      vertex -9.566762e+00 -5.631688e+01 -3.822480e+02
    endloop
  endfacet
  facet normal 9.587598e-01 -4.506014e-02 -2.806228e-01
    outer loop
      vertex -9.586699e+00 -5.934887e+01 -3.818293e+02
      vertex -9.566762e+00 -5.631688e+01 -3.822480e+02
      vertex -9.546231e+00 -5.630587e+01 -3.821796e+02
    endloop
  endfacet
  facet normal 4.356638e-13 -9.872883e-01 1.589397e-01
    outer loop
      vertex -1.470050e+02 -5.578226e+01 -3.596745e+02
      vertex -1.638140e+02 -5.934887e+01 -3.818293e+02
      vertex -9.586699e+00 -5.934887e+01 -3.818293e+02
    endloop
  endfacet
  facet normal 3.719367e-13 -9.872883e-01 1.589397e-01
    outer loop
      vertex -1.012036e+01 -4.737581e+01 -3.074560e+02
      vertex -1.050001e+01 -4.707382e+01 -3.055802e+02
      vertex -9.586699e+00 -5.934887e+01 -3.818293e+02
    endloop
  endfacet
  facet normal 4.355632e-13 -9.872883e-01 1.589397e-01
    outer loop
      vertex -4.826400e+01 -5.554385e+01 -3.581936e+02
      vertex -9.586699e+00 -5.934887e+01 -3.818293e+02
      vertex -1.050001e+01 -4.707382e+01 -3.055802e+02
    endloop
  endfacet
  facet normal 4.439320e-13 -9.872883e-01 1.589397e-01
    outer loop
      vertex -8.803626e+00 -4.834452e+01 -3.134734e+02
      vertex -1.012036e+01 -4.737581e+01 -3.074560e+02
      vertex -9.586699e+00 -5.934887e+01 -3.818293e+02
    endloop
  endfacet
  facet normal 4.403410e-13 -9.872883e-01 1.589397e-01
    outer loop
      vertex -7.795859e+00 -5.826803e+01 -3.751154e+02
      vertex -8.803626e+00 -4.834452e+01 -3.134734e+02
      vertex -9.586699e+00 -5.934887e+01 -3.818293e+02
    endloop
  endfacet
  facet normal 4.407136e-13 -9.872883e-01 1.589397e-01
    outer loop
      vertex -4.826400e+01 -5.554385e+01 -3.581936e+02
      vertex -4.976400e+01 -5.578226e+01 -3.596745e+02
      vertex -9.586699e+00 -5.934887e+01 -3.818293e+02
    endloop
  endfacet
  facet normal 4.356217e-13 -9.872883e-01 1.589397e-01
    outer loop
      vertex -1.470050e+02 -5.578226e+01 -3.596745e+02
      vertex -9.586699e+00 -5.934887e+01 -3.818293e+02
      vertex -4.976400e+01 -5.578226e+01 -3.596745e+02
    endloop
  endfacet
  facet normal 6.127059e-13 -9.872883e-01 1.589397e-01
    outer loop
      vertex -1.470050e+02 -5.530544e+01 -3.567127e+02
      vertex -1.264847e+02 -4.706917e+01 -3.055512e+02
      vertex -1.265140e+02 -4.705793e+01 -3.054814e+02
    endloop
  endfacet
  facet normal 2.005568e-13 -9.872883e-01 1.589397e-01
    outer loop
      vertex -4.976400e+01 -5.530544e+01 -3.567127e+02
      vertex -1.264140e+02 -4.707382e+01 -3.055802e+02
      vertex -1.264847e+02 -4.706917e+01 -3.055512e+02
    endloop
  endfacet
  facet normal 4.356217e-13 -9.872883e-01 1.589397e-01
    outer loop
      vertex -1.470050e+02 -5.530544e+01 -3.567127e+02
      vertex -4.976400e+01 -5.530544e+01 -3.567127e+02
      vertex -1.264847e+02 -4.706917e+01 -3.055512e+02
    endloop
  endfacet
  facet normal 4.356841e-13 -9.872883e-01 1.589397e-01
    outer loop
      vertex -4.976400e+01 -5.530544e+01 -3.567127e+02
      vertex -1.050001e+01 -4.707382e+01 -3.055802e+02
      vertex -1.264140e+02 -4.707382e+01 -3.055802e+02
    endloop
  endfacet
  facet normal 4.434445e-13 -9.872883e-01 1.589397e-01
    outer loop
      vertex -4.976400e+01 -5.530544e+01 -3.567127e+02
      vertex -4.826400e+01 -5.554385e+01 -3.581936e+02
      vertex -1.050001e+01 -4.707382e+01 -3.055802e+02
    endloop
  endfacet
  facet normal 4.326257e-13 -9.872883e-01 1.589397e-01
    outer loop
      vertex -7.795859e+00 -5.826803e+01 -3.751154e+02
      vertex -7.706110e+00 -4.924648e+01 -3.190761e+02
      vertex -8.803626e+00 -4.834452e+01 -3.134734e+02
    endloop
  endfacet
  facet normal 9.755788e-01 1.774604e-02 2.189316e-01
    outer loop
      vertex -9.889709e+00 -4.465100e+01 -3.089331e+02
      vertex -1.004913e+01 -4.453811e+01 -3.082318e+02
      vertex -8.803626e+00 -4.834452e+01 -3.134734e+02
    endloop
  endfacet
  facet normal 9.761345e-01 2.137519e-02 2.161122e-01
    outer loop
      vertex -9.733199e+00 -4.476302e+01 -3.096289e+02
      vertex -9.889709e+00 -4.465100e+01 -3.089331e+02
      vertex -8.803626e+00 -4.834452e+01 -3.134734e+02
    endloop
  endfacet
  facet normal 4.398848e-13 -9.872883e-01 1.589397e-01
    outer loop
      vertex -6.975786e+00 -5.765469e+01 -3.713056e+02
      vertex -6.823055e+00 -5.007633e+01 -3.242309e+02
      vertex -7.706110e+00 -4.924648e+01 -3.190761e+02
    endloop
  endfacet
  facet normal 4.343070e-13 -9.872883e-01 1.589397e-01
    outer loop
      vertex -7.795859e+00 -5.826803e+01 -3.751154e+02
      vertex -6.975786e+00 -5.765469e+01 -3.713056e+02
      vertex -7.706110e+00 -4.924648e+01 -3.190761e+02
    endloop
  endfacet
  facet normal 4.343235e-13 -9.872883e-01 1.589397e-01
    outer loop
      vertex -6.088627e+00 -5.682605e+01 -3.661583e+02
      vertex -5.863858e+00 -5.118772e+01 -3.311346e+02
      vertex -6.823055e+00 -5.007633e+01 -3.242309e+02
    endloop
  endfacet
  facet normal 4.362130e-13 -9.872883e-01 1.589397e-01
    outer loop
      vertex -6.975786e+00 -5.765469e+01 -3.713056e+02
      vertex -6.088627e+00 -5.682605e+01 -3.661583e+02
      vertex -6.823055e+00 -5.007633e+01 -3.242309e+02
    endloop
  endfacet
  facet normal 4.344531e-13 -9.872883e-01 1.589397e-01
    outer loop
      vertex -5.264000e+00 -5.568455e+01 -3.590676e+02
      vertex -5.264000e+00 -5.215715e+01 -3.371564e+02
      vertex -5.863858e+00 -5.118772e+01 -3.311346e+02
    endloop
  endfacet
  facet normal 4.218670e-13 -9.872883e-01 1.589397e-01
    outer loop
      vertex -6.088627e+00 -5.682605e+01 -3.661583e+02
      vertex -5.264000e+00 -5.568455e+01 -3.590676e+02
      vertex -5.863858e+00 -5.118772e+01 -3.311346e+02
    endloop
  endfacet
  facet normal 7.071068e-01 -6.981183e-01 1.123873e-01
    outer loop
      vertex -4.923378e+00 -5.273601e+01 -3.428952e+02
      vertex -5.264000e+00 -5.215715e+01 -3.371564e+02
      vertex -5.264000e+00 -5.568455e+01 -3.590676e+02
    endloop
  endfacet
  facet normal 9.980121e-01 -9.986309e-03 -6.222618e-02
    outer loop
      vertex -4.933614e+00 -5.452678e+01 -3.539545e+02
      vertex -5.264000e+00 -5.568455e+01 -3.590676e+02
      vertex -4.933437e+00 -5.175428e+01 -3.543966e+02
    endloop
  endfacet
  facet normal 7.071068e-01 -6.981183e-01 1.123873e-01
    outer loop
      vertex -4.814638e+00 -5.353731e+01 -3.485568e+02
      vertex -5.264000e+00 -5.568455e+01 -3.590676e+02
      vertex -4.933614e+00 -5.452678e+01 -3.539545e+02
    endloop
  endfacet
  facet normal 7.071068e-01 -6.981183e-01 1.123873e-01
    outer loop
      vertex -4.923378e+00 -5.273601e+01 -3.428952e+02
      vertex -5.264000e+00 -5.568455e+01 -3.590676e+02
      vertex -4.814638e+00 -5.353731e+01 -3.485568e+02
    endloop
  endfacet
  facet normal -4.357043e-13 9.872883e-01 -1.589397e-01
    outer loop
      vertex -1.638140e+02 -4.476302e+01 -3.096289e+02
      vertex -1.004913e+01 -4.453811e+01 -3.082318e+02
      vertex -9.889709e+00 -4.465100e+01 -3.089331e+02
    endloop
  endfacet
  facet normal -4.357494e-13 9.872883e-01 -1.589397e-01
    outer loop
      vertex -1.031239e+01 -4.447124e+01 -3.078165e+02
      vertex -1.004913e+01 -4.453811e+01 -3.082318e+02
      vertex -1.638140e+02 -4.476302e+01 -3.096289e+02
    endloop
  endfacet
  facet normal -4.357271e-13 9.872883e-01 -1.589397e-01
    outer loop
      vertex -1.638140e+02 -4.476302e+01 -3.096289e+02
      vertex -9.889709e+00 -4.465100e+01 -3.089331e+02
      vertex -9.733199e+00 -4.476302e+01 -3.096289e+02
    endloop
  endfacet
  facet normal 9.998185e-01 3.056627e-03 1.880608e-02
    outer loop
      vertex -4.923378e+00 -5.273601e+01 -3.428952e+02
      vertex -4.814631e+00 -5.105227e+01 -3.489504e+02
      vertex -4.923531e+00 -5.009171e+01 -3.433168e+02
    endloop
  endfacet
  facet normal 9.997658e-01 -3.387465e-03 -2.137243e-02
    outer loop
      vertex -4.814638e+00 -5.353731e+01 -3.485568e+02
      vertex -4.933437e+00 -5.175428e+01 -3.543966e+02
      vertex -4.814631e+00 -5.105227e+01 -3.489504e+02
    endloop
  endfacet
  facet normal 9.998192e-01 2.971975e-03 1.878256e-02
    outer loop
      vertex -4.923378e+00 -5.273601e+01 -3.428952e+02
      vertex -4.814638e+00 -5.353731e+01 -3.485568e+02
      vertex -4.814631e+00 -5.105227e+01 -3.489504e+02
    endloop
  endfacet
  facet normal 9.997650e-01 -3.476198e-03 -2.139951e-02
    outer loop
      vertex -4.814638e+00 -5.353731e+01 -3.485568e+02
      vertex -4.933614e+00 -5.452678e+01 -3.539545e+02
      vertex -4.933437e+00 -5.175428e+01 -3.543966e+02
    endloop
  endfacet
  facet normal 1.096729e-12 9.872883e-01 -1.589397e-01
    outer loop
      vertex -8.437550e+00 -5.512275e+01 -3.782920e+02
      vertex -8.079778e+00 -5.489450e+01 -3.768743e+02
      vertex -8.262564e+00 -5.501269e+01 -3.776084e+02
    endloop
  endfacet
  facet normal -4.555788e-13 9.872883e-01 -1.589397e-01
    outer loop
      vertex -8.704245e+00 -5.518734e+01 -3.786933e+02
      vertex -8.079778e+00 -5.489450e+01 -3.768743e+02
      vertex -8.437550e+00 -5.512275e+01 -3.782920e+02
    endloop
  endfacet
  facet normal -4.357421e-13 9.872883e-01 -1.589397e-01
    outer loop
      vertex -1.638140e+02 -5.489450e+01 -3.768743e+02
      vertex -8.079778e+00 -5.489450e+01 -3.768743e+02
      vertex -1.638140e+02 -5.509318e+01 -3.781084e+02
    endloop
  endfacet
  facet normal -4.357369e-13 9.872883e-01 -1.589397e-01
    outer loop
      vertex -1.635943e+02 -5.517747e+01 -3.786320e+02
      vertex -1.638140e+02 -5.509318e+01 -3.781084e+02
      vertex -8.079778e+00 -5.489450e+01 -3.768743e+02
    endloop
  endfacet
  facet normal -4.686882e-13 9.872883e-01 -1.589397e-01
    outer loop
      vertex -1.635943e+02 -4.448006e+01 -3.078712e+02
      vertex -1.638140e+02 -4.476302e+01 -3.096289e+02
      vertex -1.638140e+02 -4.456435e+01 -3.083948e+02
    endloop
  endfacet
endsolid P1040852002
