solid P1040852002
  facet normal 2.704530e-12 1.395812e-01 9.902106e-01
    outer loop
      vertex -1.638140e+02 -3.859701e+01 -3.046057e+02
      vertex -1.638140e+02 -4.078538e+01 -3.042973e+02
      vertex -1.265640e+02 -4.078538e+01 -3.042973e+02
    endloop
  endfacet
  facet normal 3.831412e-13 -9.902106e-01 1.395812e-01
    outer loop
      vertex -1.470050e+02 -4.964472e+01 -3.671468e+02
      vertex -1.265640e+02 -4.078538e+01 -3.042973e+02
      vertex -1.638140e+02 -4.078538e+01 -3.042973e+02
    endloop
  endfacet
  facet normal 2.704530e-12 1.395812e-01 9.902106e-01
    outer loop
      vertex -1.265640e+02 -3.859701e+01 -3.046057e+02
      vertex -1.638140e+02 -3.859701e+01 -3.046057e+02
      vertex -1.265640e+02 -4.078538e+01 -3.042973e+02
    endloop
  endfacet
  facet normal 7.071068e-01 9.869882e-02 7.001846e-01
    outer loop
      vertex -1.265140e+02 -3.860399e+01 -3.046553e+02
      vertex -1.265640e+02 -3.859701e+01 -3.046057e+02
      vertex -1.265640e+02 -4.078538e+01 -3.042973e+02
    endloop
  endfacet
  facet normal 7.071068e-01 9.869882e-02 7.001846e-01
    outer loop
      vertex -1.265140e+02 -4.079236e+01 -3.043468e+02
      vertex -1.265140e+02 -3.860399e+01 -3.046553e+02
      vertex -1.265640e+02 -4.078538e+01 -3.042973e+02
    endloop
  endfacet
  facet normal 4.791489e-13 -9.902106e-01 1.395812e-01
    outer loop
      vertex -1.265140e+02 -4.092496e+01 -3.052875e+02
      vertex -1.265140e+02 -4.079236e+01 -3.043468e+02
      vertex -1.265640e+02 -4.078538e+01 -3.042973e+02
    endloop
  endfacet
  facet normal 3.418133e-13 -9.902106e-01 1.395812e-01
    outer loop
      vertex -1.470050e+02 -4.964472e+01 -3.671468e+02
      vertex -1.265140e+02 -4.092496e+01 -3.052875e+02
      vertex -1.265640e+02 -4.078538e+01 -3.042973e+02
    endloop
  endfacet
  facet normal -1.000000e+00 -4.704210e-15 2.730718e-12
    outer loop
      vertex -1.638140e+02 -3.908276e+01 -3.080517e+02
      vertex -1.638140e+02 -4.078538e+01 -3.042973e+02
      vertex -1.638140e+02 -3.859701e+01 -3.046057e+02
    endloop
  endfacet
  facet normal -1.000000e+00 1.513083e-13 2.801470e-12
    outer loop
      vertex -1.638140e+02 -3.854930e+01 -3.093892e+02
      vertex -1.638140e+02 -4.078538e+01 -3.042973e+02
      vertex -1.638140e+02 -3.908276e+01 -3.080517e+02
    endloop
  endfacet
  facet normal -1.000000e+00 -3.248350e-13 2.759437e-12
    outer loop
      vertex -1.638140e+02 -4.736239e+01 -3.768201e+02
      vertex -1.638140e+02 -4.078538e+01 -3.042973e+02
      vertex -1.638140e+02 -4.728276e+01 -3.768313e+02
    endloop
  endfacet
  facet normal -1.000000e+00 -8.860851e-15 2.731133e-12
    outer loop
      vertex -1.638140e+02 -3.854930e+01 -3.093892e+02
      vertex -1.638140e+02 -4.728276e+01 -3.768313e+02
      vertex -1.638140e+02 -4.078538e+01 -3.042973e+02
    endloop
  endfacet
  facet normal -1.000000e+00 -2.490283e-13 2.761859e-12
    outer loop
      vertex -1.638140e+02 -5.065409e+01 -3.816580e+02
      vertex -1.638140e+02 -4.078538e+01 -3.042973e+02
      vertex -1.638140e+02 -5.009576e+01 -3.776971e+02
    endloop
  endfacet
  facet normal -1.000000e+00 -3.815622e-15 2.730755e-12
    outer loop
      vertex -1.638140e+02 -4.753687e+01 -3.780578e+02
      vertex -1.638140e+02 -5.009576e+01 -3.776971e+02
      vertex -1.638140e+02 -4.078538e+01 -3.042973e+02
    endloop
  endfacet
  facet normal -1.000000e+00 -1.461989e-14 2.731956e-12
    outer loop
      vertex -1.638140e+02 -5.171889e+01 -3.818613e+02
      vertex -1.638140e+02 -4.078538e+01 -3.042973e+02
      vertex -1.638140e+02 -5.065409e+01 -3.816580e+02
    endloop
  endfacet
  facet normal 3.821830e-13 -9.902106e-01 1.395812e-01
    outer loop
      vertex -1.470050e+02 -5.006346e+01 -3.701174e+02
      vertex -1.638140e+02 -4.078538e+01 -3.042973e+02
      vertex -1.638140e+02 -5.171889e+01 -3.818613e+02
    endloop
  endfacet
  facet normal 4.041866e-13 -9.902106e-01 1.395812e-01
    outer loop
      vertex -1.470050e+02 -5.006346e+01 -3.701174e+02
      vertex -1.470050e+02 -4.964472e+01 -3.671468e+02
      vertex -1.638140e+02 -4.078538e+01 -3.042973e+02
    endloop
  endfacet
  facet normal -1.000000e+00 5.068432e-13 2.684013e-12
    outer loop
      vertex -1.638140e+02 -4.736239e+01 -3.768201e+02
      vertex -1.638140e+02 -4.753687e+01 -3.780578e+02
      vertex -1.638140e+02 -4.078538e+01 -3.042973e+02
    endloop
  endfacet
  facet normal -3.831589e-13 9.902106e-01 -1.395812e-01
    outer loop
      vertex -1.630640e+02 -3.897807e+01 -3.073090e+02
      vertex -1.638140e+02 -3.859701e+01 -3.046057e+02
      vertex -1.265640e+02 -3.859701e+01 -3.046057e+02
    endloop
  endfacet
  facet normal -3.757990e-13 9.902106e-01 -1.395812e-01
    outer loop
      vertex -1.635943e+02 -3.900873e+01 -3.075266e+02
      vertex -1.638140e+02 -3.859701e+01 -3.046057e+02
      vertex -1.630640e+02 -3.897807e+01 -3.073090e+02
    endloop
  endfacet
  facet normal -3.849156e-13 9.902106e-01 -1.395812e-01
    outer loop
      vertex -1.635943e+02 -3.900873e+01 -3.075266e+02
      vertex -1.638140e+02 -3.908276e+01 -3.080517e+02
      vertex -1.638140e+02 -3.859701e+01 -3.046057e+02
    endloop
  endfacet
  facet normal -3.664348e-13 9.902106e-01 -1.395812e-01
    outer loop
      vertex -1.265140e+02 -3.860399e+01 -3.046553e+02
      vertex -1.630640e+02 -3.897807e+01 -3.073090e+02
      vertex -1.265640e+02 -3.859701e+01 -3.046057e+02
    endloop
  endfacet
  facet normal -3.829225e-13 9.902106e-01 -1.395812e-01
    outer loop
      vertex -1.264140e+02 -3.875055e+01 -3.056950e+02
      vertex -1.078074e+01 -3.897807e+01 -3.073090e+02
      vertex -1.630640e+02 -3.897807e+01 -3.073090e+02
    endloop
  endfacet
  facet normal 2.703141e-12 1.395812e-01 9.902106e-01
    outer loop
      vertex -1.630640e+02 -3.827014e+01 -3.074088e+02
      vertex -1.630640e+02 -3.897807e+01 -3.073090e+02
      vertex -1.078074e+01 -3.897807e+01 -3.073090e+02
    endloop
  endfacet
  facet normal -3.835726e-13 9.902106e-01 -1.395812e-01
    outer loop
      vertex -1.264847e+02 -3.874646e+01 -3.056660e+02
      vertex -1.264140e+02 -3.875055e+01 -3.056950e+02
      vertex -1.630640e+02 -3.897807e+01 -3.073090e+02
    endloop
  endfacet
  facet normal -3.751074e-13 9.902106e-01 -1.395812e-01
    outer loop
      vertex -1.265140e+02 -3.873659e+01 -3.055960e+02
      vertex -1.264847e+02 -3.874646e+01 -3.056660e+02
      vertex -1.630640e+02 -3.897807e+01 -3.073090e+02
    endloop
  endfacet
  facet normal -3.837604e-13 9.902106e-01 -1.395812e-01
    outer loop
      vertex -1.265140e+02 -3.860399e+01 -3.046553e+02
      vertex -1.265140e+02 -3.873659e+01 -3.055960e+02
      vertex -1.630640e+02 -3.897807e+01 -3.073090e+02
    endloop
  endfacet
  facet normal -3.827076e-01 1.289548e-01 9.148254e-01
    outer loop
      vertex -1.635943e+02 -3.830080e+01 -3.076263e+02
      vertex -1.635943e+02 -3.900873e+01 -3.075266e+02
      vertex -1.630640e+02 -3.897807e+01 -3.073090e+02
    endloop
  endfacet
  facet normal -3.827076e-01 1.289548e-01 9.148254e-01
    outer loop
      vertex -1.635943e+02 -3.830080e+01 -3.076263e+02
      vertex -1.630640e+02 -3.897807e+01 -3.073090e+02
      vertex -1.630640e+02 -3.827014e+01 -3.074088e+02
    endloop
  endfacet
  facet normal -4.004767e-13 9.902106e-01 -1.395812e-01
    outer loop
      vertex -1.050001e+01 -3.875055e+01 -3.056950e+02
      vertex -1.031239e+01 -3.900099e+01 -3.074716e+02
      vertex -1.078074e+01 -3.897807e+01 -3.073090e+02
    endloop
  endfacet
  facet normal 3.308644e-01 1.317198e-01 9.344403e-01
    outer loop
      vertex -1.078074e+01 -3.827014e+01 -3.074088e+02
      vertex -1.078074e+01 -3.897807e+01 -3.073090e+02
      vertex -1.031239e+01 -3.900099e+01 -3.074716e+02
    endloop
  endfacet
  facet normal -3.829487e-13 9.902106e-01 -1.395812e-01
    outer loop
      vertex -1.264140e+02 -3.875055e+01 -3.056950e+02
      vertex -1.050001e+01 -3.875055e+01 -3.056950e+02
      vertex -1.078074e+01 -3.897807e+01 -3.073090e+02
    endloop
  endfacet
  facet normal 2.703154e-12 1.395812e-01 9.902106e-01
    outer loop
      vertex -1.078074e+01 -3.827014e+01 -3.074088e+02
      vertex -1.630640e+02 -3.827014e+01 -3.074088e+02
      vertex -1.078074e+01 -3.897807e+01 -3.073090e+02
    endloop
  endfacet
  facet normal -3.848650e-13 9.902106e-01 -1.395812e-01
    outer loop
      vertex -1.008467e+01 -3.903775e+01 -3.077324e+02
      vertex -1.004913e+01 -3.905971e+01 -3.078882e+02
      vertex -1.031239e+01 -3.900099e+01 -3.074716e+02
    endloop
  endfacet
  facet normal 8.477127e-01 7.404164e-02 5.252628e-01
    outer loop
      vertex -1.031239e+01 -3.829306e+01 -3.075714e+02
      vertex -1.031239e+01 -3.900099e+01 -3.074716e+02
      vertex -1.004913e+01 -3.905971e+01 -3.078882e+02
    endloop
  endfacet
  facet normal -4.103785e-13 9.902106e-01 -1.395812e-01
    outer loop
      vertex -1.012036e+01 -3.901576e+01 -3.075764e+02
      vertex -1.008467e+01 -3.903775e+01 -3.077324e+02
      vertex -1.031239e+01 -3.900099e+01 -3.074716e+02
    endloop
  endfacet
  facet normal -3.713236e-13 9.902106e-01 -1.395812e-01
    outer loop
      vertex -1.050001e+01 -3.875055e+01 -3.056950e+02
      vertex -1.012036e+01 -3.901576e+01 -3.075764e+02
      vertex -1.031239e+01 -3.900099e+01 -3.074716e+02
    endloop
  endfacet
  facet normal 3.308644e-01 1.317198e-01 9.344403e-01
    outer loop
      vertex -1.031239e+01 -3.829306e+01 -3.075714e+02
      vertex -1.078074e+01 -3.827014e+01 -3.074088e+02
      vertex -1.031239e+01 -3.900099e+01 -3.074716e+02
    endloop
  endfacet
  facet normal 9.750801e-01 4.477521e-03 2.218080e-01
    outer loop
      vertex -8.803626e+00 -4.205484e+01 -3.133031e+02
      vertex -1.004913e+01 -3.905971e+01 -3.078882e+02
      vertex -1.008467e+01 -3.903775e+01 -3.077324e+02
    endloop
  endfacet
  facet normal 9.775608e-01 2.940327e-02 2.085913e-01
    outer loop
      vertex -1.004913e+01 -3.835178e+01 -3.079880e+02
      vertex -1.004913e+01 -3.905971e+01 -3.078882e+02
      vertex -8.803626e+00 -4.205484e+01 -3.133031e+02
    endloop
  endfacet
  facet normal 8.477127e-01 7.404164e-02 5.252628e-01
    outer loop
      vertex -1.031239e+01 -3.829306e+01 -3.075714e+02
      vertex -1.004913e+01 -3.905971e+01 -3.078882e+02
      vertex -1.004913e+01 -3.835178e+01 -3.079880e+02
    endloop
  endfacet
  facet normal 9.749231e-01 3.094862e-03 2.225207e-01
    outer loop
      vertex -8.803626e+00 -4.205484e+01 -3.133031e+02
      vertex -1.008467e+01 -3.903775e+01 -3.077324e+02
      vertex -1.012036e+01 -3.901576e+01 -3.075764e+02
    endloop
  endfacet
  facet normal 9.806147e-01 2.735040e-02 1.940280e-01
    outer loop
      vertex -1.050001e+01 -4.093892e+01 -3.053865e+02
      vertex -1.012036e+01 -3.901576e+01 -3.075764e+02
      vertex -1.050001e+01 -3.875055e+01 -3.056950e+02
    endloop
  endfacet
  facet normal 9.806147e-01 2.735040e-02 1.940280e-01
    outer loop
      vertex -1.012036e+01 -4.120412e+01 -3.072679e+02
      vertex -1.012036e+01 -3.901576e+01 -3.075764e+02
      vertex -1.050001e+01 -4.093892e+01 -3.053865e+02
    endloop
  endfacet
  facet normal 9.774495e-01 2.947523e-02 2.091019e-01
    outer loop
      vertex -8.803626e+00 -4.205484e+01 -3.133031e+02
      vertex -1.012036e+01 -3.901576e+01 -3.075764e+02
      vertex -1.012036e+01 -4.120412e+01 -3.072679e+02
    endloop
  endfacet
  facet normal 2.703522e-12 1.395812e-01 9.902106e-01
    outer loop
      vertex -1.050001e+01 -4.093892e+01 -3.053865e+02
      vertex -1.050001e+01 -3.875055e+01 -3.056950e+02
      vertex -1.264140e+02 -3.875055e+01 -3.056950e+02
    endloop
  endfacet
  facet normal 3.826834e-01 1.289562e-01 9.148353e-01
    outer loop
      vertex -1.264140e+02 -4.093892e+01 -3.053865e+02
      vertex -1.264140e+02 -3.875055e+01 -3.056950e+02
      vertex -1.264847e+02 -3.874646e+01 -3.056660e+02
    endloop
  endfacet
  facet normal 2.702551e-12 1.395812e-01 9.902106e-01
    outer loop
      vertex -1.050001e+01 -4.093892e+01 -3.053865e+02
      vertex -1.264140e+02 -3.875055e+01 -3.056950e+02
      vertex -1.264140e+02 -4.093892e+01 -3.053865e+02
    endloop
  endfacet
  facet normal 9.238795e-01 5.341542e-02 3.789372e-01
    outer loop
      vertex -1.264847e+02 -4.093483e+01 -3.053575e+02
      vertex -1.264847e+02 -3.874646e+01 -3.056660e+02
      vertex -1.265140e+02 -3.873659e+01 -3.055960e+02
    endloop
  endfacet
  facet normal 3.826834e-01 1.289562e-01 9.148353e-01
    outer loop
      vertex -1.264140e+02 -4.093892e+01 -3.053865e+02
      vertex -1.264847e+02 -3.874646e+01 -3.056660e+02
      vertex -1.264847e+02 -4.093483e+01 -3.053575e+02
    endloop
  endfacet
  facet normal 1.000000e+00 -2.251083e-15 -2.733992e-12
    outer loop
      vertex -1.265140e+02 -4.079236e+01 -3.043468e+02
      vertex -1.265140e+02 -3.873659e+01 -3.055960e+02
      vertex -1.265140e+02 -3.860399e+01 -3.046553e+02
    endloop
  endfacet
  facet normal 1.000000e+00 6.204186e-15 -2.720077e-12
    outer loop
      vertex -1.265140e+02 -4.092496e+01 -3.052875e+02
      vertex -1.265140e+02 -3.873659e+01 -3.055960e+02
      vertex -1.265140e+02 -4.079236e+01 -3.043468e+02
    endloop
  endfacet
  facet normal 9.238795e-01 5.341542e-02 3.789372e-01
    outer loop
      vertex -1.264847e+02 -4.093483e+01 -3.053575e+02
      vertex -1.265140e+02 -3.873659e+01 -3.055960e+02
      vertex -1.265140e+02 -4.092496e+01 -3.052875e+02
    endloop
  endfacet
  facet normal -9.238695e-01 5.341879e-02 3.789612e-01
    outer loop
      vertex -1.638140e+02 -3.837483e+01 -3.081515e+02
      vertex -1.638140e+02 -3.908276e+01 -3.080517e+02
      vertex -1.635943e+02 -3.900873e+01 -3.075266e+02
    endloop
  endfacet
  facet normal -1.000000e+00 -1.598301e-14 2.734749e-12
    outer loop
      vertex -1.638140e+02 -3.854930e+01 -3.093892e+02
      vertex -1.638140e+02 -3.908276e+01 -3.080517e+02
      vertex -1.638140e+02 -3.837483e+01 -3.081515e+02
    endloop
  endfacet
  facet normal -9.238695e-01 5.341879e-02 3.789612e-01
    outer loop
      vertex -1.635943e+02 -3.830080e+01 -3.076263e+02
      vertex -1.638140e+02 -3.837483e+01 -3.081515e+02
      vertex -1.635943e+02 -3.900873e+01 -3.075266e+02
    endloop
  endfacet
  facet normal -3.828303e-13 9.902106e-01 -1.395812e-01
    outer loop
      vertex -1.638140e+02 -3.854930e+01 -3.093892e+02
      vertex -1.630640e+02 -3.827014e+01 -3.074088e+02
      vertex -1.078074e+01 -3.827014e+01 -3.074088e+02
    endloop
  endfacet
  facet normal -3.795155e-13 9.902106e-01 -1.395812e-01
    outer loop
      vertex -1.635943e+02 -3.830080e+01 -3.076263e+02
      vertex -1.630640e+02 -3.827014e+01 -3.074088e+02
      vertex -1.638140e+02 -3.854930e+01 -3.093892e+02
    endloop
  endfacet
  facet normal -3.837274e-13 9.902106e-01 -1.395812e-01
    outer loop
      vertex -1.031239e+01 -3.829306e+01 -3.075714e+02
      vertex -1.638140e+02 -3.854930e+01 -3.093892e+02
      vertex -1.078074e+01 -3.827014e+01 -3.074088e+02
    endloop
  endfacet
  facet normal -3.563027e-13 9.915295e-01 -1.298815e-01
    outer loop
      vertex -1.638140e+02 -4.728276e+01 -3.768313e+02
      vertex -1.470050e+02 -4.646966e+01 -3.706240e+02
      vertex -4.976400e+01 -4.646966e+01 -3.706240e+02
    endloop
  endfacet
  facet normal 2.702937e-12 1.395812e-01 9.902106e-01
    outer loop
      vertex -4.976400e+01 -5.006346e+01 -3.701174e+02
      vertex -4.976400e+01 -4.646966e+01 -3.706240e+02
      vertex -1.470050e+02 -4.646966e+01 -3.706240e+02
    endloop
  endfacet
  facet normal -3.568162e-13 9.915295e-01 -1.298815e-01
    outer loop
      vertex -8.079778e+00 -4.728276e+01 -3.768313e+02
      vertex -4.976400e+01 -4.646966e+01 -3.706240e+02
      vertex -4.826400e+01 -4.627483e+01 -3.691366e+02
    endloop
  endfacet
  facet normal -7.071068e-01 9.869883e-02 7.001847e-01
    outer loop
      vertex -4.826400e+01 -4.985409e+01 -3.686321e+02
      vertex -4.826400e+01 -4.627483e+01 -3.691366e+02
      vertex -4.976400e+01 -4.646966e+01 -3.706240e+02
    endloop
  endfacet
  facet normal -3.564146e-13 9.915295e-01 -1.298815e-01
    outer loop
      vertex -8.079778e+00 -4.728276e+01 -3.768313e+02
      vertex -1.638140e+02 -4.728276e+01 -3.768313e+02
      vertex -4.976400e+01 -4.646966e+01 -3.706240e+02
    endloop
  endfacet
  facet normal -7.071068e-01 9.869882e-02 7.001846e-01
    outer loop
      vertex -4.826400e+01 -4.985409e+01 -3.686321e+02
      vertex -4.976400e+01 -4.646966e+01 -3.706240e+02
      vertex -4.976400e+01 -5.006346e+01 -3.701174e+02
    endloop
  endfacet
  facet normal -3.563498e-13 9.915295e-01 -1.298815e-01
    outer loop
      vertex -1.638140e+02 -4.728276e+01 -3.768313e+02
      vertex -1.470050e+02 -4.608000e+01 -3.676493e+02
      vertex -1.470050e+02 -4.646966e+01 -3.706240e+02
    endloop
  endfacet
  facet normal 1.000000e+00 -2.432394e-15 -2.732234e-12
    outer loop
      vertex -1.470050e+02 -4.964472e+01 -3.671468e+02
      vertex -1.470050e+02 -4.646966e+01 -3.706240e+02
      vertex -1.470050e+02 -4.608000e+01 -3.676493e+02
    endloop
  endfacet
  facet normal 2.702937e-12 1.395812e-01 9.902106e-01
    outer loop
      vertex -1.470050e+02 -5.006346e+01 -3.701174e+02
      vertex -4.976400e+01 -5.006346e+01 -3.701174e+02
      vertex -1.470050e+02 -4.646966e+01 -3.706240e+02
    endloop
  endfacet
  facet normal 1.000000e+00 -5.986684e-15 -2.735479e-12
    outer loop
      vertex -1.470050e+02 -5.006346e+01 -3.701174e+02
      vertex -1.470050e+02 -4.646966e+01 -3.706240e+02
      vertex -1.470050e+02 -4.964472e+01 -3.671468e+02
    endloop
  endfacet
  facet normal -3.563079e-13 9.915295e-01 -1.298815e-01
    outer loop
      vertex -9.733199e+00 -3.845028e+01 -3.094032e+02
      vertex -4.976400e+01 -4.608000e+01 -3.676493e+02
      vertex -1.470050e+02 -4.608000e+01 -3.676493e+02
    endloop
  endfacet
  facet normal -2.702937e-12 -1.395812e-01 -9.902106e-01
    outer loop
      vertex -1.470050e+02 -4.964472e+01 -3.671468e+02
      vertex -1.470050e+02 -4.608000e+01 -3.676493e+02
      vertex -4.976400e+01 -4.608000e+01 -3.676493e+02
    endloop
  endfacet
  facet normal -3.563145e-13 9.915295e-01 -1.298815e-01
    outer loop
      vertex -1.638140e+02 -3.845028e+01 -3.094032e+02
      vertex -9.733199e+00 -3.845028e+01 -3.094032e+02
      vertex -1.470050e+02 -4.608000e+01 -3.676493e+02
    endloop
  endfacet
  facet normal -3.573347e-13 9.915295e-01 -1.298815e-01
    outer loop
      vertex -1.638140e+02 -4.728276e+01 -3.768313e+02
      vertex -1.638140e+02 -3.845028e+01 -3.094032e+02
      vertex -1.470050e+02 -4.608000e+01 -3.676493e+02
    endloop
  endfacet
  facet normal -3.556440e-13 9.915295e-01 -1.298815e-01
    outer loop
      vertex -9.733199e+00 -3.845028e+01 -3.094032e+02
      vertex -4.826400e+01 -4.627483e+01 -3.691366e+02
      vertex -4.976400e+01 -4.608000e+01 -3.676493e+02
    endloop
  endfacet
  facet normal -7.071068e-01 -9.869882e-02 -7.001846e-01
    outer loop
      vertex -4.976400e+01 -4.964472e+01 -3.671468e+02
      vertex -4.976400e+01 -4.608000e+01 -3.676493e+02
      vertex -4.826400e+01 -4.627483e+01 -3.691366e+02
    endloop
  endfacet
  facet normal -2.702937e-12 -1.395812e-01 -9.902106e-01
    outer loop
      vertex -1.470050e+02 -4.964472e+01 -3.671468e+02
      vertex -4.976400e+01 -4.608000e+01 -3.676493e+02
      vertex -4.976400e+01 -4.964472e+01 -3.671468e+02
    endloop
  endfacet
  facet normal -3.569130e-13 9.915295e-01 -1.298815e-01
    outer loop
      vertex -8.421127e+00 -3.926419e+01 -3.156167e+02
      vertex -4.826400e+01 -4.627483e+01 -3.691366e+02
      vertex -9.733199e+00 -3.845028e+01 -3.094032e+02
    endloop
  endfacet
  facet normal -3.562824e-13 9.915295e-01 -1.298815e-01
    outer loop
      vertex -8.421127e+00 -3.926419e+01 -3.156167e+02
      vertex -8.079778e+00 -4.728276e+01 -3.768313e+02
      vertex -4.826400e+01 -4.627483e+01 -3.691366e+02
    endloop
  endfacet
  facet normal -7.071068e-01 -9.869883e-02 -7.001846e-01
    outer loop
      vertex -4.976400e+01 -4.964472e+01 -3.671468e+02
      vertex -4.826400e+01 -4.627483e+01 -3.691366e+02
      vertex -4.826400e+01 -4.985409e+01 -3.686321e+02
    endloop
  endfacet
  facet normal 2.703035e-12 1.395812e-01 9.902106e-01
    outer loop
      vertex -9.733199e+00 -3.854930e+01 -3.093892e+02
      vertex -9.733199e+00 -3.845028e+01 -3.094032e+02
      vertex -1.638140e+02 -3.845028e+01 -3.094032e+02
    endloop
  endfacet
  facet normal 9.787519e-01 3.355153e-02 2.022843e-01
    outer loop
      vertex -8.803626e+00 -4.205484e+01 -3.133031e+02
      vertex -8.421127e+00 -3.926419e+01 -3.156167e+02
      vertex -9.733199e+00 -3.845028e+01 -3.094032e+02
    endloop
  endfacet
  facet normal 9.780654e-01 2.907446e-02 2.062587e-01
    outer loop
      vertex -9.733199e+00 -3.854930e+01 -3.093892e+02
      vertex -8.803626e+00 -4.205484e+01 -3.133031e+02
      vertex -9.733199e+00 -3.845028e+01 -3.094032e+02
    endloop
  endfacet
  facet normal -1.000000e+00 9.604182e-14 2.717549e-12
    outer loop
      vertex -1.638140e+02 -3.854930e+01 -3.093892e+02
      vertex -1.638140e+02 -3.845028e+01 -3.094032e+02
      vertex -1.638140e+02 -4.728276e+01 -3.768313e+02
    endloop
  endfacet
  facet normal 2.703766e-12 1.395812e-01 9.902106e-01
    outer loop
      vertex -1.638140e+02 -3.854930e+01 -3.093892e+02
      vertex -9.733199e+00 -3.854930e+01 -3.093892e+02
      vertex -1.638140e+02 -3.845028e+01 -3.094032e+02
    endloop
  endfacet
  facet normal -2.703239e-12 -1.395812e-01 -9.902106e-01
    outer loop
      vertex -1.638140e+02 -4.736239e+01 -3.768201e+02
      vertex -1.638140e+02 -4.728276e+01 -3.768313e+02
      vertex -8.079778e+00 -4.728276e+01 -3.768313e+02
    endloop
  endfacet
  facet normal -3.745622e-13 9.915295e-01 -1.298815e-01
    outer loop
      vertex -7.129067e+00 -4.018625e+01 -3.226557e+02
      vertex -7.127365e+00 -4.672506e+01 -3.725738e+02
      vertex -8.079778e+00 -4.728276e+01 -3.768313e+02
    endloop
  endfacet
  facet normal 9.762705e-01 -3.022698e-02 -2.144348e-01
    outer loop
      vertex -8.079778e+00 -4.736239e+01 -3.768201e+02
      vertex -8.079778e+00 -4.728276e+01 -3.768313e+02
      vertex -7.127365e+00 -4.672506e+01 -3.725738e+02
    endloop
  endfacet
  facet normal -3.565330e-13 9.915295e-01 -1.298815e-01
    outer loop
      vertex -8.421127e+00 -3.926419e+01 -3.156167e+02
      vertex -7.129067e+00 -4.018625e+01 -3.226557e+02
      vertex -8.079778e+00 -4.728276e+01 -3.768313e+02
    endloop
  endfacet
  facet normal -2.703239e-12 -1.395812e-01 -9.902106e-01
    outer loop
      vertex -1.638140e+02 -4.736239e+01 -3.768201e+02
      vertex -8.079778e+00 -4.728276e+01 -3.768313e+02
      vertex -8.079778e+00 -4.736239e+01 -3.768201e+02
    endloop
  endfacet
  facet normal -3.284873e-13 9.915295e-01 -1.298815e-01
    outer loop
      vertex -6.012583e+00 -4.118119e+01 -3.302513e+02
      vertex -6.345912e+00 -4.616547e+01 -3.683018e+02
      vertex -7.127365e+00 -4.672506e+01 -3.725738e+02
    endloop
  endfacet
  facet normal 9.839451e-01 -2.150361e-02 -1.771713e-01
    outer loop
      vertex -6.975786e+00 -5.023107e+01 -3.713064e+02
      vertex -7.127365e+00 -4.672506e+01 -3.725738e+02
      vertex -6.345912e+00 -4.616547e+01 -3.683018e+02
    endloop
  endfacet
  facet normal -3.531487e-13 9.915295e-01 -1.298815e-01
    outer loop
      vertex -7.129067e+00 -4.018625e+01 -3.226557e+02
      vertex -6.012583e+00 -4.118119e+01 -3.302513e+02
      vertex -7.127365e+00 -4.672506e+01 -3.725738e+02
    endloop
  endfacet
  facet normal 9.781520e-01 -3.196494e-02 -2.054188e-01
    outer loop
      vertex -7.795859e+00 -5.076970e+01 -3.751276e+02
      vertex -7.127365e+00 -4.672506e+01 -3.725738e+02
      vertex -6.975786e+00 -5.023107e+01 -3.713064e+02
    endloop
  endfacet
  facet normal 9.762504e-01 -2.551403e-02 -2.151377e-01
    outer loop
      vertex -8.079778e+00 -4.736239e+01 -3.768201e+02
      vertex -7.127365e+00 -4.672506e+01 -3.725738e+02
      vertex -7.795859e+00 -5.076970e+01 -3.751276e+02
    endloop
  endfacet
  facet normal -3.856146e-13 9.915295e-01 -1.298815e-01
    outer loop
      vertex -6.012583e+00 -4.118119e+01 -3.302513e+02
      vertex -5.728048e+00 -4.559970e+01 -3.639827e+02
      vertex -6.345912e+00 -4.616547e+01 -3.683018e+02
    endloop
  endfacet
  facet normal 9.900810e-01 -1.405852e-02 -1.397927e-01
    outer loop
      vertex -6.088627e+00 -4.950335e+01 -3.661439e+02
      vertex -6.345912e+00 -4.616547e+01 -3.683018e+02
      vertex -5.728048e+00 -4.559970e+01 -3.639827e+02
    endloop
  endfacet
  facet normal 9.858023e-01 -3.073206e-02 -1.650736e-01
    outer loop
      vertex -6.975786e+00 -5.023107e+01 -3.713064e+02
      vertex -6.345912e+00 -4.616547e+01 -3.683018e+02
      vertex -6.088627e+00 -4.950335e+01 -3.661439e+02
    endloop
  endfacet
  facet normal -3.214914e-13 9.915295e-01 -1.298815e-01
    outer loop
      vertex -5.264000e+00 -4.213295e+01 -3.375171e+02
      vertex -5.264000e+00 -4.501560e+01 -3.595235e+02
      vertex -5.728048e+00 -4.559970e+01 -3.639827e+02
    endloop
  endfacet
  facet normal 9.944287e-01 -3.726297e-02 -9.860568e-02
    outer loop
      vertex -6.088627e+00 -4.950335e+01 -3.661439e+02
      vertex -5.728048e+00 -4.559970e+01 -3.639827e+02
      vertex -5.264000e+00 -4.501560e+01 -3.595235e+02
    endloop
  endfacet
  facet normal -3.288109e-13 9.915295e-01 -1.298815e-01
    outer loop
      vertex -6.012583e+00 -4.118119e+01 -3.302513e+02
      vertex -5.264000e+00 -4.213295e+01 -3.375171e+02
      vertex -5.728048e+00 -4.559970e+01 -3.639827e+02
    endloop
  endfacet
  facet normal 7.071068e-01 7.011173e-01 -9.184006e-02
    outer loop
      vertex -4.933437e+00 -4.466281e+01 -3.542852e+02
      vertex -5.264000e+00 -4.501560e+01 -3.595235e+02
      vertex -5.264000e+00 -4.213295e+01 -3.375171e+02
    endloop
  endfacet
  facet normal 9.934727e-01 -1.592199e-02 -1.129530e-01
    outer loop
      vertex -6.088627e+00 -4.950335e+01 -3.661439e+02
      vertex -5.264000e+00 -4.501560e+01 -3.595235e+02
      vertex -5.264000e+00 -4.850088e+01 -3.590323e+02
    endloop
  endfacet
  facet normal 9.980133e-01 -8.794173e-03 -6.238722e-02
    outer loop
      vertex -4.933437e+00 -4.466281e+01 -3.542852e+02
      vertex -5.264000e+00 -4.850088e+01 -3.590323e+02
      vertex -5.264000e+00 -4.501560e+01 -3.595235e+02
    endloop
  endfacet
  facet normal 9.948222e-01 1.418575e-02 1.006359e-01
    outer loop
      vertex -5.264000e+00 -4.540311e+01 -3.370562e+02
      vertex -5.264000e+00 -4.213295e+01 -3.375171e+02
      vertex -6.012583e+00 -4.118119e+01 -3.302513e+02
    endloop
  endfacet
  facet normal 9.982548e-01 8.242856e-03 5.847609e-02
    outer loop
      vertex -4.923378e+00 -4.586951e+01 -3.428052e+02
      vertex -5.264000e+00 -4.213295e+01 -3.375171e+02
      vertex -5.264000e+00 -4.540311e+01 -3.370562e+02
    endloop
  endfacet
  facet normal 7.071068e-01 7.011173e-01 -9.184006e-02
    outer loop
      vertex -4.814631e+00 -4.406756e+01 -3.488263e+02
      vertex -5.264000e+00 -4.213295e+01 -3.375171e+02
      vertex -4.923531e+00 -4.321746e+01 -3.431750e+02
    endloop
  endfacet
  facet normal 9.982538e-01 8.214434e-03 5.849611e-02
    outer loop
      vertex -4.923378e+00 -4.586951e+01 -3.428052e+02
      vertex -4.923531e+00 -4.321746e+01 -3.431750e+02
      vertex -5.264000e+00 -4.213295e+01 -3.375171e+02
    endloop
  endfacet
  facet normal 7.071068e-01 7.011173e-01 -9.184006e-02
    outer loop
      vertex -4.933437e+00 -4.466281e+01 -3.542852e+02
      vertex -5.264000e+00 -4.213295e+01 -3.375171e+02
      vertex -4.814631e+00 -4.406756e+01 -3.488263e+02
    endloop
  endfacet
  facet normal 9.894888e-01 2.930938e-02 1.416080e-01
    outer loop
      vertex -6.823055e+00 -4.357573e+01 -3.240925e+02
      vertex -6.012583e+00 -4.118119e+01 -3.302513e+02
      vertex -7.129067e+00 -4.018625e+01 -3.226557e+02
    endloop
  endfacet
  facet normal 9.907041e-01 1.296860e-02 1.354146e-01
    outer loop
      vertex -5.863858e+00 -4.455176e+01 -3.310166e+02
      vertex -6.012583e+00 -4.118119e+01 -3.302513e+02
      vertex -6.823055e+00 -4.357573e+01 -3.240925e+02
    endloop
  endfacet
  facet normal 9.951618e-01 2.217933e-02 9.571382e-02
    outer loop
      vertex -5.264000e+00 -4.540311e+01 -3.370562e+02
      vertex -6.012583e+00 -4.118119e+01 -3.302513e+02
      vertex -5.863858e+00 -4.455176e+01 -3.310166e+02
    endloop
  endfacet
  facet normal 9.837827e-01 3.380410e-02 1.761502e-01
    outer loop
      vertex -7.706110e+00 -4.284695e+01 -3.189224e+02
      vertex -7.129067e+00 -4.018625e+01 -3.226557e+02
      vertex -8.421127e+00 -3.926419e+01 -3.156167e+02
    endloop
  endfacet
  facet normal 9.859870e-01 1.875377e-02 1.657647e-01
    outer loop
      vertex -6.823055e+00 -4.357573e+01 -3.240925e+02
      vertex -7.129067e+00 -4.018625e+01 -3.226557e+02
      vertex -7.706110e+00 -4.284695e+01 -3.189224e+02
    endloop
  endfacet
  facet normal 9.817965e-01 2.185139e-02 1.886749e-01
    outer loop
      vertex -7.706110e+00 -4.284695e+01 -3.189224e+02
      vertex -8.421127e+00 -3.926419e+01 -3.156167e+02
      vertex -8.803626e+00 -4.205484e+01 -3.133031e+02
    endloop
  endfacet
  facet normal -2.703287e-12 -1.395812e-01 -9.902106e-01
    outer loop
      vertex -1.630640e+02 -5.020045e+01 -3.784398e+02
      vertex -1.630640e+02 -4.764155e+01 -3.788005e+02
      vertex -9.164116e+00 -4.764155e+01 -3.788005e+02
    endloop
  endfacet
  facet normal -3.828303e-13 9.902106e-01 -1.395812e-01
    outer loop
      vertex -8.079778e+00 -4.736239e+01 -3.768201e+02
      vertex -9.164116e+00 -4.764155e+01 -3.788005e+02
      vertex -1.630640e+02 -4.764155e+01 -3.788005e+02
    endloop
  endfacet
  facet normal -2.703287e-12 -1.395812e-01 -9.902106e-01
    outer loop
      vertex -9.164116e+00 -5.020045e+01 -3.784398e+02
      vertex -1.630640e+02 -5.020045e+01 -3.784398e+02
      vertex -9.164116e+00 -4.764155e+01 -3.788005e+02
    endloop
  endfacet
  facet normal 3.241207e-01 -1.320460e-01 -9.367548e-01
    outer loop
      vertex -8.704245e+00 -4.761956e+01 -3.786445e+02
      vertex -9.164116e+00 -5.020045e+01 -3.784398e+02
      vertex -9.164116e+00 -4.764155e+01 -3.788005e+02
    endloop
  endfacet
  facet normal -4.215540e-13 9.902106e-01 -1.395812e-01
    outer loop
      vertex -8.704245e+00 -4.761956e+01 -3.786445e+02
      vertex -9.164116e+00 -4.764155e+01 -3.788005e+02
      vertex -8.079778e+00 -4.736239e+01 -3.768201e+02
    endloop
  endfacet
  facet normal -3.827076e-01 -1.289548e-01 -9.148254e-01
    outer loop
      vertex -1.635943e+02 -5.016978e+01 -3.782222e+02
      vertex -1.630640e+02 -4.764155e+01 -3.788005e+02
      vertex -1.630640e+02 -5.020045e+01 -3.784398e+02
    endloop
  endfacet
  facet normal -3.827076e-01 -1.289548e-01 -9.148254e-01
    outer loop
      vertex -1.635943e+02 -4.761089e+01 -3.785830e+02
      vertex -1.630640e+02 -4.764155e+01 -3.788005e+02
      vertex -1.635943e+02 -5.016978e+01 -3.782222e+02
    endloop
  endfacet
  facet normal -3.832920e-13 9.902106e-01 -1.395812e-01
    outer loop
      vertex -1.635943e+02 -4.761089e+01 -3.785830e+02
      vertex -8.079778e+00 -4.736239e+01 -3.768201e+02
      vertex -1.630640e+02 -4.764155e+01 -3.788005e+02
    endloop
  endfacet
  facet normal -3.828300e-13 9.902106e-01 -1.395812e-01
    outer loop
      vertex -1.630640e+02 -5.054940e+01 -3.809153e+02
      vertex -1.630640e+02 -5.020045e+01 -3.784398e+02
      vertex -9.164116e+00 -5.020045e+01 -3.784398e+02
    endloop
  endfacet
  facet normal -4.638363e-13 9.902106e-01 -1.395812e-01
    outer loop
      vertex -1.630640e+02 -5.054940e+01 -3.809153e+02
      vertex -1.635943e+02 -5.058006e+01 -3.811328e+02
      vertex -1.630640e+02 -5.020045e+01 -3.784398e+02
    endloop
  endfacet
  facet normal -3.467580e-13 9.902106e-01 -1.395812e-01
    outer loop
      vertex -1.635943e+02 -5.016978e+01 -3.782222e+02
      vertex -1.630640e+02 -5.020045e+01 -3.784398e+02
      vertex -1.635943e+02 -5.058006e+01 -3.811328e+02
    endloop
  endfacet
  facet normal -3.827857e-13 9.902106e-01 -1.395812e-01
    outer loop
      vertex -1.026557e+01 -5.054940e+01 -3.809153e+02
      vertex -1.630640e+02 -5.054940e+01 -3.809153e+02
      vertex -9.164116e+00 -5.020045e+01 -3.784398e+02
    endloop
  endfacet
  facet normal -3.757434e-13 9.902106e-01 -1.395812e-01
    outer loop
      vertex -9.664867e+00 -5.059140e+01 -3.812133e+02
      vertex -1.026557e+01 -5.054940e+01 -3.809153e+02
      vertex -9.164116e+00 -5.020045e+01 -3.784398e+02
    endloop
  endfacet
  facet normal -3.561878e-13 9.902106e-01 -1.395812e-01
    outer loop
      vertex -9.546231e+00 -5.068371e+01 -3.818681e+02
      vertex -9.664867e+00 -5.059140e+01 -3.812133e+02
      vertex -9.164116e+00 -5.020045e+01 -3.784398e+02
    endloop
  endfacet
  facet normal -4.100492e-13 9.902106e-01 -1.395812e-01
    outer loop
      vertex -9.001234e+00 -5.041731e+01 -3.799782e+02
      vertex -9.546231e+00 -5.068371e+01 -3.818681e+02
      vertex -9.164116e+00 -5.020045e+01 -3.784398e+02
    endloop
  endfacet
  facet normal -4.498758e-13 9.902106e-01 -1.395812e-01
    outer loop
      vertex -8.704245e+00 -5.017845e+01 -3.782838e+02
      vertex -9.001234e+00 -5.041731e+01 -3.799782e+02
      vertex -9.164116e+00 -5.020045e+01 -3.784398e+02
    endloop
  endfacet
  facet normal 3.241207e-01 -1.320460e-01 -9.367548e-01
    outer loop
      vertex -8.704245e+00 -4.761956e+01 -3.786445e+02
      vertex -8.704245e+00 -5.017845e+01 -3.782838e+02
      vertex -9.164116e+00 -5.020045e+01 -3.784398e+02
    endloop
  endfacet
  facet normal -4.070825e-13 9.902106e-01 -1.395812e-01
    outer loop
      vertex -1.635943e+02 -5.016978e+01 -3.782222e+02
      vertex -1.638140e+02 -5.065409e+01 -3.816580e+02
      vertex -1.638140e+02 -5.009576e+01 -3.776971e+02
    endloop
  endfacet
  facet normal -9.238695e-01 -5.341879e-02 -3.789612e-01
    outer loop
      vertex -1.635943e+02 -4.761089e+01 -3.785830e+02
      vertex -1.635943e+02 -5.016978e+01 -3.782222e+02
      vertex -1.638140e+02 -5.009576e+01 -3.776971e+02
    endloop
  endfacet
  facet normal -9.238695e-01 -5.341879e-02 -3.789612e-01
    outer loop
      vertex -1.635943e+02 -4.761089e+01 -3.785830e+02
      vertex -1.638140e+02 -5.009576e+01 -3.776971e+02
      vertex -1.638140e+02 -4.753687e+01 -3.780578e+02
    endloop
  endfacet
  facet normal -2.327997e-13 9.902106e-01 -1.395812e-01
    outer loop
      vertex -1.635943e+02 -5.016978e+01 -3.782222e+02
      vertex -1.635943e+02 -5.058006e+01 -3.811328e+02
      vertex -1.638140e+02 -5.065409e+01 -3.816580e+02
    endloop
  endfacet
  facet normal -9.238695e-01 5.341879e-02 3.789612e-01
    outer loop
      vertex -1.638140e+02 -4.864000e+01 -3.819419e+02
      vertex -1.638140e+02 -5.065409e+01 -3.816580e+02
      vertex -1.635943e+02 -5.058006e+01 -3.811328e+02
    endloop
  endfacet
  facet normal -1.000000e+00 1.179298e-14 2.786599e-12
    outer loop
      vertex -1.638140e+02 -4.868885e+01 -3.822884e+02
      vertex -1.638140e+02 -5.065409e+01 -3.816580e+02
      vertex -1.638140e+02 -4.864000e+01 -3.819419e+02
    endloop
  endfacet
  facet normal -1.000000e+00 -1.130530e-14 2.714601e-12
    outer loop
      vertex -1.638140e+02 -5.171889e+01 -3.818613e+02
      vertex -1.638140e+02 -5.065409e+01 -3.816580e+02
      vertex -1.638140e+02 -4.868885e+01 -3.822884e+02
    endloop
  endfacet
  facet normal -3.827076e-01 1.289548e-01 9.148254e-01
    outer loop
      vertex -1.635943e+02 -4.856597e+01 -3.814167e+02
      vertex -1.635943e+02 -5.058006e+01 -3.811328e+02
      vertex -1.630640e+02 -5.054940e+01 -3.809153e+02
    endloop
  endfacet
  facet normal -9.238695e-01 5.341879e-02 3.789612e-01
    outer loop
      vertex -1.638140e+02 -4.864000e+01 -3.819419e+02
      vertex -1.635943e+02 -5.058006e+01 -3.811328e+02
      vertex -1.635943e+02 -4.856597e+01 -3.814167e+02
    endloop
  endfacet
  facet normal 2.702881e-12 1.395812e-01 9.902106e-01
    outer loop
      vertex -1.630640e+02 -4.853531e+01 -3.811992e+02
      vertex -1.630640e+02 -5.054940e+01 -3.809153e+02
      vertex -1.026557e+01 -5.054940e+01 -3.809153e+02
    endloop
  endfacet
  facet normal -3.827076e-01 1.289548e-01 9.148254e-01
    outer loop
      vertex -1.635943e+02 -4.856597e+01 -3.814167e+02
      vertex -1.630640e+02 -5.054940e+01 -3.809153e+02
      vertex -1.630640e+02 -4.853531e+01 -3.811992e+02
    endloop
  endfacet
  facet normal 4.479133e-01 1.247963e-01 8.853246e-01
    outer loop
      vertex -1.026557e+01 -4.853531e+01 -3.811992e+02
      vertex -1.026557e+01 -5.054940e+01 -3.809153e+02
      vertex -9.664867e+00 -5.059140e+01 -3.812133e+02
    endloop
  endfacet
  facet normal 2.702868e-12 1.395812e-01 9.902106e-01
    outer loop
      vertex -1.026557e+01 -4.853531e+01 -3.811992e+02
      vertex -1.630640e+02 -4.853531e+01 -3.811992e+02
      vertex -1.026557e+01 -5.054940e+01 -3.809153e+02
    endloop
  endfacet
  facet normal 9.842871e-01 2.464662e-02 1.748470e-01
    outer loop
      vertex -9.664867e+00 -4.857732e+01 -3.814972e+02
      vertex -9.664867e+00 -5.059140e+01 -3.812133e+02
      vertex -9.546231e+00 -5.068371e+01 -3.818681e+02
    endloop
  endfacet
  facet normal 4.479133e-01 1.247963e-01 8.853246e-01
    outer loop
      vertex -9.664867e+00 -4.857732e+01 -3.814972e+02
      vertex -1.026557e+01 -4.853531e+01 -3.811992e+02
      vertex -9.664867e+00 -5.059140e+01 -3.812133e+02
    endloop
  endfacet
  facet normal 9.615660e-01 -3.937813e-02 -2.717354e-01
    outer loop
      vertex -9.586699e+00 -5.171889e+01 -3.818613e+02
      vertex -9.546231e+00 -5.068371e+01 -3.818681e+02
      vertex -9.001234e+00 -5.041731e+01 -3.799782e+02
    endloop
  endfacet
  facet normal 9.842871e-01 2.464662e-02 1.748470e-01
    outer loop
      vertex -9.664867e+00 -4.857732e+01 -3.814972e+02
      vertex -9.546231e+00 -5.068371e+01 -3.818681e+02
      vertex -9.546231e+00 -4.866962e+01 -3.821520e+02
    endloop
  endfacet
  facet normal 9.594520e-01 -3.934402e-02 -2.791126e-01
    outer loop
      vertex -9.586699e+00 -5.171889e+01 -3.818613e+02
      vertex -9.546231e+00 -4.866962e+01 -3.821520e+02
      vertex -9.546231e+00 -5.068371e+01 -3.818681e+02
    endloop
  endfacet
  facet normal -3.450574e-13 9.902106e-01 -1.395812e-01
    outer loop
      vertex -8.704245e+00 -5.017845e+01 -3.782838e+02
      vertex -8.437550e+00 -5.012172e+01 -3.778813e+02
      vertex -9.001234e+00 -5.041731e+01 -3.799782e+02
    endloop
  endfacet
  facet normal 9.656392e-01 -7.385603e-02 -2.491710e-01
    outer loop
      vertex -9.586699e+00 -5.171889e+01 -3.818613e+02
      vertex -9.001234e+00 -5.041731e+01 -3.799782e+02
      vertex -8.437550e+00 -5.012172e+01 -3.778813e+02
    endloop
  endfacet
  facet normal 8.360665e-01 -7.657818e-02 -5.432574e-01
    outer loop
      vertex -8.437550e+00 -4.756283e+01 -3.782420e+02
      vertex -8.437550e+00 -5.012172e+01 -3.778813e+02
      vertex -8.704245e+00 -5.017845e+01 -3.782838e+02
    endloop
  endfacet
  facet normal 9.658443e-01 -8.450952e-02 -2.449549e-01
    outer loop
      vertex -7.795859e+00 -5.076970e+01 -3.751276e+02
      vertex -9.586699e+00 -5.171889e+01 -3.818613e+02
      vertex -8.437550e+00 -5.012172e+01 -3.778813e+02
    endloop
  endfacet
  facet normal 9.714001e-01 -3.566251e-02 -2.347554e-01
    outer loop
      vertex -8.079778e+00 -4.736239e+01 -3.768201e+02
      vertex -7.795859e+00 -5.076970e+01 -3.751276e+02
      vertex -8.437550e+00 -5.012172e+01 -3.778813e+02
    endloop
  endfacet
  facet normal 9.710876e-01 -3.509340e-02 -2.361298e-01
    outer loop
      vertex -8.262564e+00 -4.746618e+01 -3.775563e+02
      vertex -8.079778e+00 -4.736239e+01 -3.768201e+02
      vertex -8.437550e+00 -5.012172e+01 -3.778813e+02
    endloop
  endfacet
  facet normal 9.695222e-01 -3.419786e-02 -2.426049e-01
    outer loop
      vertex -8.437550e+00 -4.756283e+01 -3.782420e+02
      vertex -8.262564e+00 -4.746618e+01 -3.775563e+02
      vertex -8.437550e+00 -5.012172e+01 -3.778813e+02
    endloop
  endfacet
  facet normal 8.360665e-01 -7.657818e-02 -5.432574e-01
    outer loop
      vertex -8.704245e+00 -4.761956e+01 -3.786445e+02
      vertex -8.437550e+00 -4.756283e+01 -3.782420e+02
      vertex -8.704245e+00 -5.017845e+01 -3.782838e+02
    endloop
  endfacet
  facet normal -3.828778e-13 9.902106e-01 -1.395812e-01
    outer loop
      vertex -1.638140e+02 -4.868885e+01 -3.822884e+02
      vertex -1.630640e+02 -4.853531e+01 -3.811992e+02
      vertex -1.026557e+01 -4.853531e+01 -3.811992e+02
    endloop
  endfacet
  facet normal -4.077242e-13 9.902106e-01 -1.395812e-01
    outer loop
      vertex -1.638140e+02 -4.868885e+01 -3.822884e+02
      vertex -1.635943e+02 -4.856597e+01 -3.814167e+02
      vertex -1.630640e+02 -4.853531e+01 -3.811992e+02
    endloop
  endfacet
  facet normal -3.828923e-13 9.902106e-01 -1.395812e-01
    outer loop
      vertex -9.664867e+00 -4.857732e+01 -3.814972e+02
      vertex -1.638140e+02 -4.868885e+01 -3.822884e+02
      vertex -1.026557e+01 -4.853531e+01 -3.811992e+02
    endloop
  endfacet
  facet normal -2.926684e-13 9.902106e-01 -1.395812e-01
    outer loop
      vertex -1.638140e+02 -4.868885e+01 -3.822884e+02
      vertex -1.638140e+02 -4.864000e+01 -3.819419e+02
      vertex -1.635943e+02 -4.856597e+01 -3.814167e+02
    endloop
  endfacet
  facet normal -3.828405e-13 9.902106e-01 -1.395812e-01
    outer loop
      vertex -9.664867e+00 -4.857732e+01 -3.814972e+02
      vertex -9.586699e+00 -4.868885e+01 -3.822884e+02
      vertex -1.638140e+02 -4.868885e+01 -3.822884e+02
    endloop
  endfacet
  facet normal -2.703387e-12 -1.395812e-01 -9.902106e-01
    outer loop
      vertex -1.638140e+02 -5.171889e+01 -3.818613e+02
      vertex -1.638140e+02 -4.868885e+01 -3.822884e+02
      vertex -9.586699e+00 -4.868885e+01 -3.822884e+02
    endloop
  endfacet
  facet normal -1.460529e-13 9.902106e-01 -1.395812e-01
    outer loop
      vertex -9.664867e+00 -4.857732e+01 -3.814972e+02
      vertex -9.566762e+00 -4.867929e+01 -3.822206e+02
      vertex -9.586699e+00 -4.868885e+01 -3.822884e+02
    endloop
  endfacet
  facet normal 9.601472e-01 -3.901223e-02 -2.767588e-01
    outer loop
      vertex -9.586699e+00 -5.171889e+01 -3.818613e+02
      vertex -9.586699e+00 -4.868885e+01 -3.822884e+02
      vertex -9.566762e+00 -4.867929e+01 -3.822206e+02
    endloop
  endfacet
  facet normal -2.703387e-12 -1.395812e-01 -9.902106e-01
    outer loop
      vertex -9.586699e+00 -5.171889e+01 -3.818613e+02
      vertex -1.638140e+02 -5.171889e+01 -3.818613e+02
      vertex -9.586699e+00 -4.868885e+01 -3.822884e+02
    endloop
  endfacet
  facet normal -6.749689e-13 9.902106e-01 -1.395812e-01
    outer loop
      vertex -9.664867e+00 -4.857732e+01 -3.814972e+02
      vertex -9.546231e+00 -4.866962e+01 -3.821520e+02
      vertex -9.566762e+00 -4.867929e+01 -3.822206e+02
    endloop
  endfacet
  facet normal 9.587598e-01 -3.955780e-02 -2.814512e-01
    outer loop
      vertex -9.586699e+00 -5.171889e+01 -3.818613e+02
      vertex -9.566762e+00 -4.867929e+01 -3.822206e+02
      vertex -9.546231e+00 -4.866962e+01 -3.821520e+02
    endloop
  endfacet
  facet normal 3.828391e-13 -9.902106e-01 1.395812e-01
    outer loop
      vertex -1.470050e+02 -5.006346e+01 -3.701174e+02
      vertex -1.638140e+02 -5.171889e+01 -3.818613e+02
      vertex -9.586699e+00 -5.171889e+01 -3.818613e+02
    endloop
  endfacet
  facet normal 4.019441e-13 -9.902106e-01 1.395812e-01
    outer loop
      vertex -1.012036e+01 -4.120412e+01 -3.072679e+02
      vertex -1.050001e+01 -4.093892e+01 -3.053865e+02
      vertex -9.586699e+00 -5.171889e+01 -3.818613e+02
    endloop
  endfacet
  facet normal 3.830112e-13 -9.902106e-01 1.395812e-01
    outer loop
      vertex -4.826400e+01 -4.985409e+01 -3.686321e+02
      vertex -9.586699e+00 -5.171889e+01 -3.818613e+02
      vertex -1.050001e+01 -4.093892e+01 -3.053865e+02
    endloop
  endfacet
  facet normal 3.742390e-13 -9.902106e-01 1.395812e-01
    outer loop
      vertex -8.803626e+00 -4.205484e+01 -3.133031e+02
      vertex -1.012036e+01 -4.120412e+01 -3.072679e+02
      vertex -9.586699e+00 -5.171889e+01 -3.818613e+02
    endloop
  endfacet
  facet normal 3.827386e-13 -9.902106e-01 1.395812e-01
    outer loop
      vertex -7.795859e+00 -5.076970e+01 -3.751276e+02
      vertex -8.803626e+00 -4.205484e+01 -3.133031e+02
      vertex -9.586699e+00 -5.171889e+01 -3.818613e+02
    endloop
  endfacet
  facet normal 3.850452e-13 -9.902106e-01 1.395812e-01
    outer loop
      vertex -4.826400e+01 -4.985409e+01 -3.686321e+02
      vertex -4.976400e+01 -5.006346e+01 -3.701174e+02
      vertex -9.586699e+00 -5.171889e+01 -3.818613e+02
    endloop
  endfacet
  facet normal 3.827801e-13 -9.902106e-01 1.395812e-01
    outer loop
      vertex -1.470050e+02 -5.006346e+01 -3.701174e+02
      vertex -9.586699e+00 -5.171889e+01 -3.818613e+02
      vertex -4.976400e+01 -5.006346e+01 -3.701174e+02
    endloop
  endfacet
  facet normal 4.160972e-13 -9.902106e-01 1.395812e-01
    outer loop
      vertex -1.470050e+02 -4.964472e+01 -3.671468e+02
      vertex -1.264847e+02 -4.093483e+01 -3.053575e+02
      vertex -1.265140e+02 -4.092496e+01 -3.052875e+02
    endloop
  endfacet
  facet normal 8.925841e-13 -9.902106e-01 1.395812e-01
    outer loop
      vertex -4.976400e+01 -4.964472e+01 -3.671468e+02
      vertex -1.264140e+02 -4.093892e+01 -3.053865e+02
      vertex -1.264847e+02 -4.093483e+01 -3.053575e+02
    endloop
  endfacet
  facet normal 3.827801e-13 -9.902106e-01 1.395812e-01
    outer loop
      vertex -1.470050e+02 -4.964472e+01 -3.671468e+02
      vertex -4.976400e+01 -4.964472e+01 -3.671468e+02
      vertex -1.264847e+02 -4.093483e+01 -3.053575e+02
    endloop
  endfacet
  facet normal 3.828111e-13 -9.902106e-01 1.395812e-01
    outer loop
      vertex -4.976400e+01 -4.964472e+01 -3.671468e+02
      vertex -1.050001e+01 -4.093892e+01 -3.053865e+02
      vertex -1.264140e+02 -4.093892e+01 -3.053865e+02
    endloop
  endfacet
  facet normal 3.812148e-13 -9.902106e-01 1.395812e-01
    outer loop
      vertex -4.976400e+01 -4.964472e+01 -3.671468e+02
      vertex -4.826400e+01 -4.985409e+01 -3.686321e+02
      vertex -1.050001e+01 -4.093892e+01 -3.053865e+02
    endloop
  endfacet
  facet normal 3.882770e-13 -9.902106e-01 1.395812e-01
    outer loop
      vertex -7.795859e+00 -5.076970e+01 -3.751276e+02
      vertex -7.706110e+00 -4.284695e+01 -3.189224e+02
      vertex -8.803626e+00 -4.205484e+01 -3.133031e+02
    endloop
  endfacet
  facet normal 9.755788e-01 1.345665e-02 2.192371e-01
    outer loop
      vertex -9.889709e+00 -3.845092e+01 -3.086913e+02
      vertex -1.004913e+01 -3.835178e+01 -3.079880e+02
      vertex -8.803626e+00 -4.205484e+01 -3.133031e+02
    endloop
  endfacet
  facet normal 9.761345e-01 1.714030e-02 2.164893e-01
    outer loop
      vertex -9.733199e+00 -3.854930e+01 -3.093892e+02
      vertex -9.889709e+00 -3.845092e+01 -3.086913e+02
      vertex -8.803626e+00 -4.205484e+01 -3.133031e+02
    endloop
  endfacet
  facet normal 3.776120e-13 -9.902106e-01 1.395812e-01
    outer loop
      vertex -6.975786e+00 -5.023107e+01 -3.713064e+02
      vertex -6.823055e+00 -4.357573e+01 -3.240925e+02
      vertex -7.706110e+00 -4.284695e+01 -3.189224e+02
    endloop
  endfacet
  facet normal 3.887078e-13 -9.902106e-01 1.395812e-01
    outer loop
      vertex -7.795859e+00 -5.076970e+01 -3.751276e+02
      vertex -6.975786e+00 -5.023107e+01 -3.713064e+02
      vertex -7.706110e+00 -4.284695e+01 -3.189224e+02
    endloop
  endfacet
  facet normal 3.856218e-13 -9.902106e-01 1.395812e-01
    outer loop
      vertex -6.088627e+00 -4.950335e+01 -3.661439e+02
      vertex -5.863858e+00 -4.455176e+01 -3.310166e+02
      vertex -6.823055e+00 -4.357573e+01 -3.240925e+02
    endloop
  endfacet
  facet normal 3.750952e-13 -9.902106e-01 1.395812e-01
    outer loop
      vertex -6.975786e+00 -5.023107e+01 -3.713064e+02
      vertex -6.088627e+00 -4.950335e+01 -3.661439e+02
      vertex -6.823055e+00 -4.357573e+01 -3.240925e+02
    endloop
  endfacet
  facet normal 3.906875e-13 -9.902106e-01 1.395812e-01
    outer loop
      vertex -5.264000e+00 -4.850088e+01 -3.590323e+02
      vertex -5.264000e+00 -4.540311e+01 -3.370562e+02
      vertex -5.863858e+00 -4.455176e+01 -3.310166e+02
    endloop
  endfacet
  facet normal 3.907604e-13 -9.902106e-01 1.395812e-01
    outer loop
      vertex -6.088627e+00 -4.950335e+01 -3.661439e+02
      vertex -5.264000e+00 -4.850088e+01 -3.590323e+02
      vertex -5.863858e+00 -4.455176e+01 -3.310166e+02
    endloop
  endfacet
  facet normal 7.071068e-01 -7.001846e-01 9.869882e-02
    outer loop
      vertex -4.923378e+00 -4.586951e+01 -3.428052e+02
      vertex -5.264000e+00 -4.540311e+01 -3.370562e+02
      vertex -5.264000e+00 -4.850088e+01 -3.590323e+02
    endloop
  endfacet
  facet normal 9.980121e-01 -8.766203e-03 -6.240975e-02
    outer loop
      vertex -4.933614e+00 -4.744343e+01 -3.538975e+02
      vertex -5.264000e+00 -4.850088e+01 -3.590323e+02
      vertex -4.933437e+00 -4.466281e+01 -3.542852e+02
    endloop
  endfacet
  facet normal 7.071068e-01 -7.001846e-01 9.869882e-02
    outer loop
      vertex -4.814638e+00 -4.655982e+01 -3.484814e+02
      vertex -5.264000e+00 -4.850088e+01 -3.590323e+02
      vertex -4.933614e+00 -4.744343e+01 -3.538975e+02
    endloop
  endfacet
  facet normal 7.071068e-01 -7.001846e-01 9.869882e-02
    outer loop
      vertex -4.923378e+00 -4.586951e+01 -3.428052e+02
      vertex -5.264000e+00 -4.850088e+01 -3.590323e+02
      vertex -4.814638e+00 -4.655982e+01 -3.484814e+02
    endloop
  endfacet
  facet normal -3.828458e-13 9.902106e-01 -1.395812e-01
    outer loop
      vertex -1.638140e+02 -3.854930e+01 -3.093892e+02
      vertex -1.004913e+01 -3.835178e+01 -3.079880e+02
      vertex -9.889709e+00 -3.845092e+01 -3.086913e+02
    endloop
  endfacet
  facet normal -3.831077e-13 9.902106e-01 -1.395812e-01
    outer loop
      vertex -1.031239e+01 -3.829306e+01 -3.075714e+02
      vertex -1.004913e+01 -3.835178e+01 -3.079880e+02
      vertex -1.638140e+02 -3.854930e+01 -3.093892e+02
    endloop
  endfacet
  facet normal -3.828955e-13 9.902106e-01 -1.395812e-01
    outer loop
      vertex -1.638140e+02 -3.854930e+01 -3.093892e+02
      vertex -9.889709e+00 -3.845092e+01 -3.086913e+02
      vertex -9.733199e+00 -3.854930e+01 -3.093892e+02
    endloop
  endfacet
  facet normal 9.998185e-01 2.687878e-03 1.886232e-02
    outer loop
      vertex -4.923378e+00 -4.586951e+01 -3.428052e+02
      vertex -4.814631e+00 -4.406756e+01 -3.488263e+02
      vertex -4.923531e+00 -4.321746e+01 -3.431750e+02
    endloop
  endfacet
  facet normal 9.997658e-01 -2.968411e-03 -2.143465e-02
    outer loop
      vertex -4.814638e+00 -4.655982e+01 -3.484814e+02
      vertex -4.933437e+00 -4.466281e+01 -3.542852e+02
      vertex -4.814631e+00 -4.406756e+01 -3.488263e+02
    endloop
  endfacet
  facet normal 9.998192e-01 2.603702e-03 1.883714e-02
    outer loop
      vertex -4.923378e+00 -4.586951e+01 -3.428052e+02
      vertex -4.814638e+00 -4.655982e+01 -3.484814e+02
      vertex -4.814631e+00 -4.406756e+01 -3.488263e+02
    endloop
  endfacet
  facet normal 9.997650e-01 -3.056597e-03 -2.146346e-02
    outer loop
      vertex -4.814638e+00 -4.655982e+01 -3.484814e+02
      vertex -4.933614e+00 -4.744343e+01 -3.538975e+02
      vertex -4.933437e+00 -4.466281e+01 -3.542852e+02
    endloop
  endfacet
  facet normal -5.342636e-12 9.902106e-01 -1.395812e-01
    outer loop
      vertex -8.437550e+00 -4.756283e+01 -3.782420e+02
      vertex -8.079778e+00 -4.736239e+01 -3.768201e+02
      vertex -8.262564e+00 -4.746618e+01 -3.775563e+02
    endloop
  endfacet
  facet normal -2.962226e-13 9.902106e-01 -1.395812e-01
    outer loop
      vertex -8.704245e+00 -4.761956e+01 -3.786445e+02
      vertex -8.079778e+00 -4.736239e+01 -3.768201e+02
      vertex -8.437550e+00 -4.756283e+01 -3.782420e+02
    endloop
  endfacet
  facet normal -3.828946e-13 9.902106e-01 -1.395812e-01
    outer loop
      vertex -1.638140e+02 -4.736239e+01 -3.768201e+02
      vertex -8.079778e+00 -4.736239e+01 -3.768201e+02
      vertex -1.638140e+02 -4.753687e+01 -3.780578e+02
    endloop
  endfacet
  facet normal -3.826021e-13 9.902106e-01 -1.395812e-01
    outer loop
      vertex -1.635943e+02 -4.761089e+01 -3.785830e+02
      vertex -1.638140e+02 -4.753687e+01 -3.780578e+02
      vertex -8.079778e+00 -4.736239e+01 -3.768201e+02
    endloop
  endfacet
  facet normal -3.806512e-13 9.902106e-01 -1.395812e-01
    outer loop
      vertex -1.635943e+02 -3.830080e+01 -3.076263e+02
      vertex -1.638140e+02 -3.854930e+01 -3.093892e+02
      vertex -1.638140e+02 -3.837483e+01 -3.081515e+02
    endloop
  endfacet
endsolid P1040852002
