solid P1040852002
  facet normal -8.782390e-14 -9.829505e-02 9.951573e-01
    outer loop
      vertex 2.472500e+02 2.991836e+01 -3.041973e+02
      vertex 2.472500e+02 3.211766e+01 -3.039800e+02
      vertex 2.100000e+02 3.211766e+01 -3.039800e+02
    endloop
  endfacet
  facet normal 8.891590e-13 9.951573e-01 9.829505e-02
    outer loop
      vertex 2.304410e+02 3.621665e+01 -3.454790e+02
      vertex 2.100000e+02 3.211766e+01 -3.039800e+02
      vertex 2.472500e+02 3.211766e+01 -3.039800e+02
    endloop
  endfacet
  facet normal -8.782385e-14 -9.829505e-02 9.951573e-01
    outer loop
      vertex 2.100000e+02 2.991836e+01 -3.041973e+02
      vertex 2.472500e+02 2.991836e+01 -3.041973e+02
      vertex 2.100000e+02 3.211766e+01 -3.039800e+02
    endloop
  endfacet
  facet normal -7.071068e-01 -6.950509e-02 7.036825e-01
    outer loop
      vertex 2.099500e+02 2.992328e+01 -3.042470e+02
      vertex 2.100000e+02 2.991836e+01 -3.041973e+02
      vertex 2.100000e+02 3.211766e+01 -3.039800e+02
    endloop
  endfacet
  facet normal -7.071068e-01 -6.950509e-02 7.036825e-01
    outer loop
      vertex 2.099500e+02 3.212258e+01 -3.040298e+02
      vertex 2.099500e+02 2.992328e+01 -3.042470e+02
      vertex 2.100000e+02 3.211766e+01 -3.039800e+02
    endloop
  endfacet
  facet normal 1.066983e-12 9.951573e-01 9.829505e-02
    outer loop
      vertex 2.099500e+02 3.221596e+01 -3.049752e+02
      vertex 2.099500e+02 3.212258e+01 -3.040298e+02
      vertex 2.100000e+02 3.211766e+01 -3.039800e+02
    endloop
  endfacet
  facet normal 9.071815e-13 9.951573e-01 9.829505e-02
    outer loop
      vertex 2.304410e+02 3.621665e+01 -3.454790e+02
      vertex 2.099500e+02 3.221596e+01 -3.049752e+02
      vertex 2.100000e+02 3.211766e+01 -3.039800e+02
    endloop
  endfacet
  facet normal 1.000000e+00 -8.919081e-13 2.179144e-15
    outer loop
      vertex 2.472500e+02 3.026043e+01 -3.076604e+02
      vertex 2.472500e+02 3.211766e+01 -3.039800e+02
      vertex 2.472500e+02 2.991836e+01 -3.041973e+02
    endloop
  endfacet
  facet normal 1.000000e+00 -1.032935e-12 7.334553e-14
    outer loop
      vertex 2.472500e+02 2.967183e+01 -3.089746e+02
      vertex 2.472500e+02 3.211766e+01 -3.039800e+02
      vertex 2.472500e+02 3.026043e+01 -3.076604e+02
    endloop
  endfacet
  facet normal 1.000000e+00 -7.111485e-13 8.993395e-15
    outer loop
      vertex 2.472500e+02 3.567404e+01 -3.767136e+02
      vertex 2.472500e+02 3.211766e+01 -3.039800e+02
      vertex 2.472500e+02 3.559400e+01 -3.767215e+02
    endloop
  endfacet
  facet normal 1.000000e+00 -8.845950e-13 7.043129e-16
    outer loop
      vertex 2.472500e+02 2.967183e+01 -3.089746e+02
      vertex 2.472500e+02 3.559400e+01 -3.767215e+02
      vertex 2.472500e+02 3.211766e+01 -3.039800e+02
    endloop
  endfacet
  facet normal 1.000000e+00 -6.959815e-13 1.693561e-14
    outer loop
      vertex 2.472500e+02 3.876176e+01 -3.816841e+02
      vertex 2.472500e+02 3.211766e+01 -3.039800e+02
      vertex 2.472500e+02 3.836858e+01 -3.777035e+02
    endloop
  endfacet
  facet normal 1.000000e+00 -8.952015e-13 4.399148e-17
    outer loop
      vertex 2.472500e+02 3.579690e+01 -3.779575e+02
      vertex 2.472500e+02 3.836858e+01 -3.777035e+02
      vertex 2.472500e+02 3.211766e+01 -3.039800e+02
    endloop
  endfacet
  facet normal 1.000000e+00 -8.885438e-13 4.705302e-16
    outer loop
      vertex 2.472500e+02 3.981720e+01 -3.819316e+02
      vertex 2.472500e+02 3.211766e+01 -3.039800e+02
      vertex 2.472500e+02 3.876176e+01 -3.816841e+02
    endloop
  endfacet
  facet normal 8.895441e-13 9.951573e-01 9.829505e-02
    outer loop
      vertex 2.304410e+02 3.651153e+01 -3.484644e+02
      vertex 2.472500e+02 3.211766e+01 -3.039800e+02
      vertex 2.472500e+02 3.981720e+01 -3.819316e+02
    endloop
  endfacet
  facet normal 8.951708e-13 9.951573e-01 9.829505e-02
    outer loop
      vertex 2.304410e+02 3.651153e+01 -3.484644e+02
      vertex 2.304410e+02 3.621665e+01 -3.454790e+02
      vertex 2.472500e+02 3.211766e+01 -3.039800e+02
    endloop
  endfacet
  facet normal 1.000000e+00 -9.548684e-13 -2.923524e-15
    outer loop
      vertex 2.472500e+02 3.567404e+01 -3.767136e+02
      vertex 2.472500e+02 3.579690e+01 -3.779575e+02
      vertex 2.472500e+02 3.211766e+01 -3.039800e+02
    endloop
  endfacet
  facet normal -8.891457e-13 -9.951573e-01 -9.829505e-02
    outer loop
      vertex 2.465000e+02 3.018671e+01 -3.069140e+02
      vertex 2.472500e+02 2.991836e+01 -3.041973e+02
      vertex 2.100000e+02 2.991836e+01 -3.041973e+02
    endloop
  endfacet
  facet normal -8.885918e-13 -9.951573e-01 -9.829505e-02
    outer loop
      vertex 2.470303e+02 3.020830e+01 -3.071327e+02
      vertex 2.472500e+02 2.991836e+01 -3.041973e+02
      vertex 2.465000e+02 3.018671e+01 -3.069140e+02
    endloop
  endfacet
  facet normal -9.463869e-13 -9.951573e-01 -9.829505e-02
    outer loop
      vertex 2.470303e+02 3.020830e+01 -3.071327e+02
      vertex 2.472500e+02 3.026043e+01 -3.076604e+02
      vertex 2.472500e+02 2.991836e+01 -3.041973e+02
    endloop
  endfacet
  facet normal -8.974928e-13 -9.951573e-01 -9.829505e-02
    outer loop
      vertex 2.099500e+02 2.992328e+01 -3.042470e+02
      vertex 2.465000e+02 3.018671e+01 -3.069140e+02
      vertex 2.100000e+02 2.991836e+01 -3.041973e+02
    endloop
  endfacet
  facet normal -8.892909e-13 -9.951573e-01 -9.829505e-02
    outer loop
      vertex 2.098500e+02 3.002649e+01 -3.052919e+02
      vertex 9.421674e+01 3.018671e+01 -3.069140e+02
      vertex 2.465000e+02 3.018671e+01 -3.069140e+02
    endloop
  endfacet
  facet normal -8.783823e-14 -9.829505e-02 9.951573e-01
    outer loop
      vertex 2.465000e+02 2.947524e+01 -3.069843e+02
      vertex 2.465000e+02 3.018671e+01 -3.069140e+02
      vertex 9.421674e+01 3.018671e+01 -3.069140e+02
    endloop
  endfacet
  facet normal -9.059719e-13 -9.951573e-01 -9.829505e-02
    outer loop
      vertex 2.099207e+02 3.002361e+01 -3.052628e+02
      vertex 2.098500e+02 3.002649e+01 -3.052919e+02
      vertex 2.465000e+02 3.018671e+01 -3.069140e+02
    endloop
  endfacet
  facet normal -8.800519e-13 -9.951573e-01 -9.829505e-02
    outer loop
      vertex 2.099500e+02 3.001666e+01 -3.051924e+02
      vertex 2.099207e+02 3.002361e+01 -3.052628e+02
      vertex 2.465000e+02 3.018671e+01 -3.069140e+02
    endloop
  endfacet
  facet normal -8.896412e-13 -9.951573e-01 -9.829505e-02
    outer loop
      vertex 2.099500e+02 2.992328e+01 -3.042470e+02
      vertex 2.099500e+02 3.001666e+01 -3.051924e+02
      vertex 2.465000e+02 3.018671e+01 -3.069140e+02
    endloop
  endfacet
  facet normal 3.827076e-01 -9.081180e-02 9.193955e-01
    outer loop
      vertex 2.470303e+02 2.949684e+01 -3.072029e+02
      vertex 2.470303e+02 3.020830e+01 -3.071327e+02
      vertex 2.465000e+02 3.018671e+01 -3.069140e+02
    endloop
  endfacet
  facet normal 3.827076e-01 -9.081180e-02 9.193955e-01
    outer loop
      vertex 2.470303e+02 2.949684e+01 -3.072029e+02
      vertex 2.465000e+02 3.018671e+01 -3.069140e+02
      vertex 2.465000e+02 2.947524e+01 -3.069843e+02
    endloop
  endfacet
  facet normal -8.512873e-13 -9.951573e-01 -9.829505e-02
    outer loop
      vertex 9.393601e+01 3.002649e+01 -3.052919e+02
      vertex 9.374839e+01 3.020285e+01 -3.070775e+02
      vertex 9.421674e+01 3.018671e+01 -3.069140e+02
    endloop
  endfacet
  facet normal -3.308644e-01 -9.275890e-02 9.391084e-01
    outer loop
      vertex 9.421674e+01 2.947524e+01 -3.069843e+02
      vertex 9.421674e+01 3.018671e+01 -3.069140e+02
      vertex 9.374839e+01 3.020285e+01 -3.070775e+02
    endloop
  endfacet
  facet normal -8.891949e-13 -9.951573e-01 -9.829505e-02
    outer loop
      vertex 2.098500e+02 3.002649e+01 -3.052919e+02
      vertex 9.393601e+01 3.002649e+01 -3.052919e+02
      vertex 9.421674e+01 3.018671e+01 -3.069140e+02
    endloop
  endfacet
  facet normal -8.783828e-14 -9.829505e-02 9.951573e-01
    outer loop
      vertex 9.421674e+01 2.947524e+01 -3.069843e+02
      vertex 2.465000e+02 2.947524e+01 -3.069843e+02
      vertex 9.421674e+01 3.018671e+01 -3.069140e+02
    endloop
  endfacet
  facet normal -8.721728e-13 -9.951573e-01 -9.829505e-02
    outer loop
      vertex 9.352067e+01 3.022874e+01 -3.073396e+02
      vertex 9.348513e+01 3.024420e+01 -3.074961e+02
      vertex 9.374839e+01 3.020285e+01 -3.070775e+02
    endloop
  endfacet
  facet normal -8.477127e-01 -5.214116e-02 5.278868e-01
    outer loop
      vertex 9.374839e+01 2.949138e+01 -3.071477e+02
      vertex 9.374839e+01 3.020285e+01 -3.070775e+02
      vertex 9.348513e+01 3.024420e+01 -3.074961e+02
    endloop
  endfacet
  facet normal -9.451804e-13 -9.951573e-01 -9.829505e-02
    outer loop
      vertex 9.355636e+01 3.021325e+01 -3.071827e+02
      vertex 9.352067e+01 3.022874e+01 -3.073396e+02
      vertex 9.374839e+01 3.020285e+01 -3.070775e+02
    endloop
  endfacet
  facet normal -9.505337e-13 -9.951573e-01 -9.829505e-02
    outer loop
      vertex 9.393601e+01 3.002649e+01 -3.052919e+02
      vertex 9.355636e+01 3.021325e+01 -3.071827e+02
      vertex 9.374839e+01 3.020285e+01 -3.070775e+02
    endloop
  endfacet
  facet normal -3.308644e-01 -9.275890e-02 9.391084e-01
    outer loop
      vertex 9.374839e+01 2.949138e+01 -3.071477e+02
      vertex 9.421674e+01 2.947524e+01 -3.069843e+02
      vertex 9.374839e+01 3.020285e+01 -3.070775e+02
    endloop
  endfacet
  facet normal -9.750801e-01 4.747453e-03 2.218024e-01
    outer loop
      vertex 9.223963e+01 3.301164e+01 -3.130308e+02
      vertex 9.348513e+01 3.024420e+01 -3.074961e+02
      vertex 9.352067e+01 3.022874e+01 -3.073396e+02
    endloop
  endfacet
  facet normal -9.775608e-01 -2.070619e-02 2.096334e-01
    outer loop
      vertex 9.348513e+01 2.953274e+01 -3.075664e+02
      vertex 9.348513e+01 3.024420e+01 -3.074961e+02
      vertex 9.223963e+01 3.301164e+01 -3.130308e+02
    endloop
  endfacet
  facet normal -8.477127e-01 -5.214116e-02 5.278868e-01
    outer loop
      vertex 9.374839e+01 2.949138e+01 -3.071477e+02
      vertex 9.348513e+01 3.024420e+01 -3.074961e+02
      vertex 9.348513e+01 2.953274e+01 -3.075664e+02
    endloop
  endfacet
  facet normal -9.749231e-01 6.158547e-03 2.224570e-01
    outer loop
      vertex 9.223963e+01 3.301164e+01 -3.130308e+02
      vertex 9.352067e+01 3.022874e+01 -3.073396e+02
      vertex 9.355636e+01 3.021325e+01 -3.071827e+02
    endloop
  endfacet
  facet normal -9.806147e-01 -1.926054e-02 1.949972e-01
    outer loop
      vertex 9.393601e+01 3.222579e+01 -3.050747e+02
      vertex 9.355636e+01 3.021325e+01 -3.071827e+02
      vertex 9.393601e+01 3.002649e+01 -3.052919e+02
    endloop
  endfacet
  facet normal -9.806147e-01 -1.926054e-02 1.949972e-01
    outer loop
      vertex 9.355636e+01 3.241255e+01 -3.069655e+02
      vertex 9.355636e+01 3.021325e+01 -3.071827e+02
      vertex 9.393601e+01 3.222579e+01 -3.050747e+02
    endloop
  endfacet
  facet normal -9.774495e-01 -2.075687e-02 2.101464e-01
    outer loop
      vertex 9.223963e+01 3.301164e+01 -3.130308e+02
      vertex 9.355636e+01 3.021325e+01 -3.071827e+02
      vertex 9.355636e+01 3.241255e+01 -3.069655e+02
    endloop
  endfacet
  facet normal -8.881441e-14 -9.829505e-02 9.951573e-01
    outer loop
      vertex 9.393601e+01 3.222579e+01 -3.050747e+02
      vertex 9.393601e+01 3.002649e+01 -3.052919e+02
      vertex 2.098500e+02 3.002649e+01 -3.052919e+02
    endloop
  endfacet
  facet normal -3.826834e-01 -9.081278e-02 9.194055e-01
    outer loop
      vertex 2.098500e+02 3.222579e+01 -3.050747e+02
      vertex 2.098500e+02 3.002649e+01 -3.052919e+02
      vertex 2.099207e+02 3.002361e+01 -3.052628e+02
    endloop
  endfacet
  facet normal -8.783831e-14 -9.829505e-02 9.951573e-01
    outer loop
      vertex 9.393601e+01 3.222579e+01 -3.050747e+02
      vertex 2.098500e+02 3.002649e+01 -3.052919e+02
      vertex 2.098500e+02 3.222579e+01 -3.050747e+02
    endloop
  endfacet
  facet normal -9.238795e-01 -3.761589e-02 3.808302e-01
    outer loop
      vertex 2.099207e+02 3.222291e+01 -3.050456e+02
      vertex 2.099207e+02 3.002361e+01 -3.052628e+02
      vertex 2.099500e+02 3.001666e+01 -3.051924e+02
    endloop
  endfacet
  facet normal -3.826834e-01 -9.081278e-02 9.194055e-01
    outer loop
      vertex 2.098500e+02 3.222579e+01 -3.050747e+02
      vertex 2.099207e+02 3.002361e+01 -3.052628e+02
      vertex 2.099207e+02 3.222291e+01 -3.050456e+02
    endloop
  endfacet
  facet normal -1.000000e+00 8.889589e-13 2.767912e-14
    outer loop
      vertex 2.099500e+02 3.212258e+01 -3.040298e+02
      vertex 2.099500e+02 3.001666e+01 -3.051924e+02
      vertex 2.099500e+02 2.992328e+01 -3.042470e+02
    endloop
  endfacet
  facet normal -1.000000e+00 9.046978e-13 -8.294666e-16
    outer loop
      vertex 2.099500e+02 3.221596e+01 -3.049752e+02
      vertex 2.099500e+02 3.001666e+01 -3.051924e+02
      vertex 2.099500e+02 3.212258e+01 -3.040298e+02
    endloop
  endfacet
  facet normal -9.238795e-01 -3.761589e-02 3.808302e-01
    outer loop
      vertex 2.099207e+02 3.222291e+01 -3.050456e+02
      vertex 2.099500e+02 3.001666e+01 -3.051924e+02
      vertex 2.099500e+02 3.221596e+01 -3.049752e+02
    endloop
  endfacet
  facet normal 9.238695e-01 -3.761826e-02 3.808543e-01
    outer loop
      vertex 2.472500e+02 2.954896e+01 -3.077307e+02
      vertex 2.472500e+02 3.026043e+01 -3.076604e+02
      vertex 2.470303e+02 3.020830e+01 -3.071327e+02
    endloop
  endfacet
  facet normal 1.000000e+00 -9.211030e-13 2.325961e-14
    outer loop
      vertex 2.472500e+02 2.967183e+01 -3.089746e+02
      vertex 2.472500e+02 3.026043e+01 -3.076604e+02
      vertex 2.472500e+02 2.954896e+01 -3.077307e+02
    endloop
  endfacet
  facet normal 9.238695e-01 -3.761826e-02 3.808543e-01
    outer loop
      vertex 2.470303e+02 2.949684e+01 -3.072029e+02
      vertex 2.472500e+02 2.954896e+01 -3.077307e+02
      vertex 2.470303e+02 3.020830e+01 -3.071327e+02
    endloop
  endfacet
  facet normal -8.892911e-13 -9.951573e-01 -9.829505e-02
    outer loop
      vertex 2.472500e+02 2.967183e+01 -3.089746e+02
      vertex 2.465000e+02 2.947524e+01 -3.069843e+02
      vertex 9.421674e+01 2.947524e+01 -3.069843e+02
    endloop
  endfacet
  facet normal -8.704637e-13 -9.951573e-01 -9.829505e-02
    outer loop
      vertex 2.470303e+02 2.949684e+01 -3.072029e+02
      vertex 2.465000e+02 2.947524e+01 -3.069843e+02
      vertex 2.472500e+02 2.967183e+01 -3.089746e+02
    endloop
  endfacet
  facet normal -8.900681e-13 -9.951573e-01 -9.829505e-02
    outer loop
      vertex 9.374839e+01 2.949138e+01 -3.071477e+02
      vertex 2.472500e+02 2.967183e+01 -3.089746e+02
      vertex 9.421674e+01 2.947524e+01 -3.069843e+02
    endloop
  endfacet
  facet normal -8.900697e-13 -9.960718e-01 -8.854885e-02
    outer loop
      vertex 2.472500e+02 3.559400e+01 -3.767215e+02
      vertex 2.304410e+02 3.311186e+01 -3.488002e+02
      vertex 1.332000e+02 3.311186e+01 -3.488002e+02
    endloop
  endfacet
  facet normal -8.783422e-14 -9.829505e-02 9.951573e-01
    outer loop
      vertex 1.332000e+02 3.651153e+01 -3.484644e+02
      vertex 1.332000e+02 3.311186e+01 -3.488002e+02
      vertex 2.304410e+02 3.311186e+01 -3.488002e+02
    endloop
  endfacet
  facet normal -8.908137e-13 -9.960718e-01 -8.854885e-02
    outer loop
      vertex 1.317000e+02 3.297903e+01 -3.473060e+02
      vertex 9.316920e+01 2.957232e+01 -3.089845e+02
      vertex 9.185713e+01 3.012721e+01 -3.152264e+02
    endloop
  endfacet
  facet normal 7.071068e-01 -6.950510e-02 7.036825e-01
    outer loop
      vertex 1.317000e+02 3.636409e+01 -3.469717e+02
      vertex 1.317000e+02 3.297903e+01 -3.473060e+02
      vertex 1.332000e+02 3.311186e+01 -3.488002e+02
    endloop
  endfacet
  facet normal -8.793473e-13 -9.960718e-01 -8.854885e-02
    outer loop
      vertex 9.185713e+01 3.012721e+01 -3.152264e+02
      vertex 1.332000e+02 3.311186e+01 -3.488002e+02
      vertex 1.317000e+02 3.297903e+01 -3.473060e+02
    endloop
  endfacet
  facet normal -8.901077e-13 -9.960718e-01 -8.854885e-02
    outer loop
      vertex 9.151578e+01 3.559400e+01 -3.767215e+02
      vertex 2.472500e+02 3.559400e+01 -3.767215e+02
      vertex 1.332000e+02 3.311186e+01 -3.488002e+02
    endloop
  endfacet
  facet normal -8.902588e-13 -9.960718e-01 -8.854885e-02
    outer loop
      vertex 9.185713e+01 3.012721e+01 -3.152264e+02
      vertex 9.151578e+01 3.559400e+01 -3.767215e+02
      vertex 1.332000e+02 3.311186e+01 -3.488002e+02
    endloop
  endfacet
  facet normal 7.071068e-01 -6.950509e-02 7.036825e-01
    outer loop
      vertex 1.317000e+02 3.636409e+01 -3.469717e+02
      vertex 1.332000e+02 3.311186e+01 -3.488002e+02
      vertex 1.332000e+02 3.651153e+01 -3.484644e+02
    endloop
  endfacet
  facet normal -8.896329e-13 -9.960718e-01 -8.854885e-02
    outer loop
      vertex 2.472500e+02 3.559400e+01 -3.767215e+02
      vertex 2.304410e+02 3.284620e+01 -3.458119e+02
      vertex 2.304410e+02 3.311186e+01 -3.488002e+02
    endloop
  endfacet
  facet normal -1.000000e+00 8.935272e-13 3.346360e-15
    outer loop
      vertex 2.304410e+02 3.621665e+01 -3.454790e+02
      vertex 2.304410e+02 3.311186e+01 -3.488002e+02
      vertex 2.304410e+02 3.284620e+01 -3.458119e+02
    endloop
  endfacet
  facet normal -8.783414e-14 -9.829505e-02 9.951573e-01
    outer loop
      vertex 2.304410e+02 3.651153e+01 -3.484644e+02
      vertex 1.332000e+02 3.651153e+01 -3.484644e+02
      vertex 2.304410e+02 3.311186e+01 -3.488002e+02
    endloop
  endfacet
  facet normal -1.000000e+00 9.034825e-13 -5.960039e-15
    outer loop
      vertex 2.304410e+02 3.651153e+01 -3.484644e+02
      vertex 2.304410e+02 3.311186e+01 -3.488002e+02
      vertex 2.304410e+02 3.621665e+01 -3.454790e+02
    endloop
  endfacet
  facet normal -8.901370e-13 -9.960718e-01 -8.854885e-02
    outer loop
      vertex 9.316920e+01 2.957232e+01 -3.089845e+02
      vertex 1.332000e+02 3.284620e+01 -3.458119e+02
      vertex 2.304410e+02 3.284620e+01 -3.458119e+02
    endloop
  endfacet
  facet normal 8.784074e-14 9.829505e-02 -9.951573e-01
    outer loop
      vertex 2.304410e+02 3.621665e+01 -3.454790e+02
      vertex 2.304410e+02 3.284620e+01 -3.458119e+02
      vertex 1.332000e+02 3.284620e+01 -3.458119e+02
    endloop
  endfacet
  facet normal -8.901051e-13 -9.960718e-01 -8.854885e-02
    outer loop
      vertex 2.472500e+02 2.957232e+01 -3.089845e+02
      vertex 9.316920e+01 2.957232e+01 -3.089845e+02
      vertex 2.304410e+02 3.284620e+01 -3.458119e+02
    endloop
  endfacet
  facet normal -8.901604e-13 -9.960718e-01 -8.854885e-02
    outer loop
      vertex 2.472500e+02 3.559400e+01 -3.767215e+02
      vertex 2.472500e+02 2.957232e+01 -3.089845e+02
      vertex 2.304410e+02 3.284620e+01 -3.458119e+02
    endloop
  endfacet
  facet normal -8.887626e-13 -9.960718e-01 -8.854885e-02
    outer loop
      vertex 9.316920e+01 2.957232e+01 -3.089845e+02
      vertex 1.317000e+02 3.297903e+01 -3.473060e+02
      vertex 1.332000e+02 3.284620e+01 -3.458119e+02
    endloop
  endfacet
  facet normal 7.071068e-01 6.950509e-02 -7.036825e-01
    outer loop
      vertex 1.332000e+02 3.621665e+01 -3.454790e+02
      vertex 1.332000e+02 3.284620e+01 -3.458119e+02
      vertex 1.317000e+02 3.297903e+01 -3.473060e+02
    endloop
  endfacet
  facet normal 8.783414e-14 9.829505e-02 -9.951573e-01
    outer loop
      vertex 2.304410e+02 3.621665e+01 -3.454790e+02
      vertex 1.332000e+02 3.284620e+01 -3.458119e+02
      vertex 1.332000e+02 3.621665e+01 -3.454790e+02
    endloop
  endfacet
  facet normal 7.071068e-01 6.950510e-02 -7.036825e-01
    outer loop
      vertex 1.332000e+02 3.621665e+01 -3.454790e+02
      vertex 1.317000e+02 3.297903e+01 -3.473060e+02
      vertex 1.317000e+02 3.636409e+01 -3.469717e+02
    endloop
  endfacet
  facet normal -8.783796e-14 -9.829505e-02 9.951573e-01
    outer loop
      vertex 9.316920e+01 2.967183e+01 -3.089746e+02
      vertex 9.316920e+01 2.957232e+01 -3.089845e+02
      vertex 2.472500e+02 2.957232e+01 -3.089845e+02
    endloop
  endfacet
  facet normal -9.787519e-01 -2.511307e-02 2.035042e-01
    outer loop
      vertex 9.223963e+01 3.301164e+01 -3.130308e+02
      vertex 9.185713e+01 3.012721e+01 -3.152264e+02
      vertex 9.316920e+01 2.957232e+01 -3.089845e+02
    endloop
  endfacet
  facet normal -9.780654e-01 -2.047464e-02 2.072891e-01
    outer loop
      vertex 9.316920e+01 2.967183e+01 -3.089746e+02
      vertex 9.223963e+01 3.301164e+01 -3.130308e+02
      vertex 9.316920e+01 2.957232e+01 -3.089845e+02
    endloop
  endfacet
  facet normal 1.000000e+00 -1.140263e-12 -2.164519e-14
    outer loop
      vertex 2.472500e+02 2.967183e+01 -3.089746e+02
      vertex 2.472500e+02 2.957232e+01 -3.089845e+02
      vertex 2.472500e+02 3.559400e+01 -3.767215e+02
    endloop
  endfacet
  facet normal -8.783796e-14 -9.829505e-02 9.951573e-01
    outer loop
      vertex 2.472500e+02 2.967183e+01 -3.089746e+02
      vertex 9.316920e+01 2.967183e+01 -3.089746e+02
      vertex 2.472500e+02 2.957232e+01 -3.089845e+02
    endloop
  endfacet
  facet normal 8.783822e-14 9.829505e-02 -9.951573e-01
    outer loop
      vertex 2.472500e+02 3.567404e+01 -3.767136e+02
      vertex 2.472500e+02 3.559400e+01 -3.767215e+02
      vertex 9.151578e+01 3.559400e+01 -3.767215e+02
    endloop
  endfacet
  facet normal -8.848440e-13 -9.960718e-01 -8.854885e-02
    outer loop
      vertex 9.056507e+01 3.075584e+01 -3.222977e+02
      vertex 9.056336e+01 3.521379e+01 -3.724445e+02
      vertex 9.151578e+01 3.559400e+01 -3.767215e+02
    endloop
  endfacet
  facet normal -9.762705e-01 2.128626e-02 -2.155061e-01
    outer loop
      vertex 9.151578e+01 3.567404e+01 -3.767136e+02
      vertex 9.151578e+01 3.559400e+01 -3.767215e+02
      vertex 9.056336e+01 3.521379e+01 -3.724445e+02
    endloop
  endfacet
  facet normal -8.890818e-13 -9.960718e-01 -8.854885e-02
    outer loop
      vertex 9.185713e+01 3.012721e+01 -3.152264e+02
      vertex 9.056507e+01 3.075584e+01 -3.222977e+02
      vertex 9.151578e+01 3.559400e+01 -3.767215e+02
    endloop
  endfacet
  facet normal 8.784271e-14 9.829505e-02 -9.951573e-01
    outer loop
      vertex 2.472500e+02 3.567404e+01 -3.767136e+02
      vertex 9.151578e+01 3.559400e+01 -3.767215e+02
      vertex 9.151578e+01 3.567404e+01 -3.767136e+02
    endloop
  endfacet
  facet normal -8.759661e-13 -9.960718e-01 -8.854885e-02
    outer loop
      vertex 8.944858e+01 3.143416e+01 -3.299280e+02
      vertex 8.978191e+01 3.483228e+01 -3.681529e+02
      vertex 9.056336e+01 3.521379e+01 -3.724445e+02
    endloop
  endfacet
  facet normal -9.839451e-01 1.411958e-02 -1.779121e-01
    outer loop
      vertex 9.041179e+01 3.876945e+01 -3.713240e+02
      vertex 9.056336e+01 3.521379e+01 -3.724445e+02
      vertex 8.978191e+01 3.483228e+01 -3.681529e+02
    endloop
  endfacet
  facet normal -8.882455e-13 -9.960718e-01 -8.854885e-02
    outer loop
      vertex 9.056507e+01 3.075584e+01 -3.222977e+02
      vertex 8.944858e+01 3.143416e+01 -3.299280e+02
      vertex 9.056336e+01 3.521379e+01 -3.724445e+02
    endloop
  endfacet
  facet normal -9.781520e-01 2.339754e-02 -2.065700e-01
    outer loop
      vertex 9.123186e+01 3.914876e+01 -3.751642e+02
      vertex 9.056336e+01 3.521379e+01 -3.724445e+02
      vertex 9.041179e+01 3.876945e+01 -3.713240e+02
    endloop
  endfacet
  facet normal -9.762504e-01 1.654817e-02 -2.160124e-01
    outer loop
      vertex 9.151578e+01 3.567404e+01 -3.767136e+02
      vertex 9.056336e+01 3.521379e+01 -3.724445e+02
      vertex 9.123186e+01 3.914876e+01 -3.751642e+02
    endloop
  endfacet
  facet normal -9.270072e-13 -9.960718e-01 -8.854885e-02
    outer loop
      vertex 8.944858e+01 3.143416e+01 -3.299280e+02
      vertex 8.916405e+01 3.444656e+01 -3.638140e+02
      vertex 8.978191e+01 3.483228e+01 -3.681529e+02
    endloop
  endfacet
  facet normal -9.900810e-01 8.234840e-03 -1.402563e-01
    outer loop
      vertex 8.952463e+01 3.825698e+01 -3.661356e+02
      vertex 8.978191e+01 3.483228e+01 -3.681529e+02
      vertex 8.916405e+01 3.444656e+01 -3.638140e+02
    endloop
  endfacet
  facet normal -9.858023e-01 2.384298e-02 -1.662085e-01
    outer loop
      vertex 9.041179e+01 3.876945e+01 -3.713240e+02
      vertex 8.978191e+01 3.483228e+01 -3.681529e+02
      vertex 8.952463e+01 3.825698e+01 -3.661356e+02
    endloop
  endfacet
  facet normal -8.582301e-13 -9.960718e-01 -8.854885e-02
    outer loop
      vertex 8.870000e+01 3.208304e+01 -3.372272e+02
      vertex 8.870000e+01 3.404833e+01 -3.593344e+02
      vertex 8.916405e+01 3.444656e+01 -3.638140e+02
    endloop
  endfacet
  facet normal -9.944287e-01 3.313147e-02 -1.000696e-01
    outer loop
      vertex 8.952463e+01 3.825698e+01 -3.661356e+02
      vertex 8.916405e+01 3.444656e+01 -3.638140e+02
      vertex 8.870000e+01 3.404833e+01 -3.593344e+02
    endloop
  endfacet
  facet normal -8.919223e-13 -9.960718e-01 -8.854885e-02
    outer loop
      vertex 8.944858e+01 3.143416e+01 -3.299280e+02
      vertex 8.870000e+01 3.208304e+01 -3.372272e+02
      vertex 8.916405e+01 3.444656e+01 -3.638140e+02
    endloop
  endfacet
  facet normal -7.071068e-01 -7.043291e-01 -6.261349e-02
    outer loop
      vertex 8.836944e+01 3.391362e+01 -3.540860e+02
      vertex 8.870000e+01 3.404833e+01 -3.593344e+02
      vertex 8.870000e+01 3.208304e+01 -3.372272e+02
    endloop
  endfacet
  facet normal -9.934727e-01 1.121249e-02 -1.135173e-01
    outer loop
      vertex 8.952463e+01 3.825698e+01 -3.661356e+02
      vertex 8.870000e+01 3.404833e+01 -3.593344e+02
      vertex 8.870000e+01 3.755103e+01 -3.589884e+02
    endloop
  endfacet
  facet normal -9.980133e-01 6.192980e-03 -6.269888e-02
    outer loop
      vertex 8.836944e+01 3.391362e+01 -3.540860e+02
      vertex 8.870000e+01 3.755103e+01 -3.589884e+02
      vertex 8.870000e+01 3.404833e+01 -3.593344e+02
    endloop
  endfacet
  facet normal -9.948222e-01 -9.989802e-03 1.011386e-01
    outer loop
      vertex 8.870000e+01 3.536953e+01 -3.369026e+02
      vertex 8.870000e+01 3.208304e+01 -3.372272e+02
      vertex 8.944858e+01 3.143416e+01 -3.299280e+02
    endloop
  endfacet
  facet normal -9.982548e-01 -5.804735e-03 5.876821e-02
    outer loop
      vertex 8.835938e+01 3.559653e+01 -3.426661e+02
      vertex 8.870000e+01 3.208304e+01 -3.372272e+02
      vertex 8.870000e+01 3.536953e+01 -3.369026e+02
    endloop
  endfacet
  facet normal -7.071068e-01 -7.043291e-01 -6.261349e-02
    outer loop
      vertex 8.825063e+01 3.354582e+01 -3.486070e+02
      vertex 8.870000e+01 3.208304e+01 -3.372272e+02
      vertex 8.835953e+01 3.293140e+01 -3.429253e+02
    endloop
  endfacet
  facet normal -9.982538e-01 -5.775505e-03 5.878704e-02
    outer loop
      vertex 8.835938e+01 3.559653e+01 -3.426661e+02
      vertex 8.835953e+01 3.293140e+01 -3.429253e+02
      vertex 8.870000e+01 3.208304e+01 -3.372272e+02
    endloop
  endfacet
  facet normal -7.071068e-01 -7.043291e-01 -6.261349e-02
    outer loop
      vertex 8.836944e+01 3.391362e+01 -3.540860e+02
      vertex 8.870000e+01 3.208304e+01 -3.372272e+02
      vertex 8.825063e+01 3.354582e+01 -3.486070e+02
    endloop
  endfacet
  facet normal -9.894888e-01 -2.339705e-02 1.427040e-01
    outer loop
      vertex 9.025905e+01 3.408267e+01 -3.238741e+02
      vertex 8.944858e+01 3.143416e+01 -3.299280e+02
      vertex 9.056507e+01 3.075584e+01 -3.222977e+02
    endloop
  endfacet
  facet normal -9.907041e-01 -7.327868e-03 1.358367e-01
    outer loop
      vertex 8.929986e+01 3.477000e+01 -3.308328e+02
      vertex 8.944858e+01 3.143416e+01 -3.299280e+02
      vertex 9.025905e+01 3.408267e+01 -3.238741e+02
    endloop
  endfacet
  facet normal -9.951618e-01 -1.818110e-02 9.655313e-02
    outer loop
      vertex 8.870000e+01 3.536953e+01 -3.369026e+02
      vertex 8.944858e+01 3.143416e+01 -3.299280e+02
      vertex 8.929986e+01 3.477000e+01 -3.308328e+02
    endloop
  endfacet
  facet normal -9.837827e-01 -2.645188e-02 1.774032e-01
    outer loop
      vertex 9.114211e+01 3.356945e+01 -3.186782e+02
      vertex 9.056507e+01 3.075584e+01 -3.222977e+02
      vertex 9.185713e+01 3.012721e+01 -3.152264e+02
    endloop
  endfacet
  facet normal -9.859870e-01 -1.184631e-02 1.664010e-01
    outer loop
      vertex 9.025905e+01 3.408267e+01 -3.238741e+02
      vertex 9.056507e+01 3.075584e+01 -3.222977e+02
      vertex 9.114211e+01 3.356945e+01 -3.186782e+02
    endloop
  endfacet
  facet normal -9.817965e-01 -1.398882e-02 1.894202e-01
    outer loop
      vertex 9.114211e+01 3.356945e+01 -3.186782e+02
      vertex 9.185713e+01 3.012721e+01 -3.152264e+02
      vertex 9.223963e+01 3.301164e+01 -3.130308e+02
    endloop
  endfacet
  facet normal 8.783675e-14 9.829505e-02 -9.951573e-01
    outer loop
      vertex 2.465000e+02 3.844230e+01 -3.784499e+02
      vertex 2.465000e+02 3.587063e+01 -3.787039e+02
      vertex 9.260012e+01 3.587063e+01 -3.787039e+02
    endloop
  endfacet
  facet normal -8.892765e-13 -9.951573e-01 -9.829505e-02
    outer loop
      vertex 9.151578e+01 3.567404e+01 -3.767136e+02
      vertex 9.260012e+01 3.587063e+01 -3.787039e+02
      vertex 2.465000e+02 3.587063e+01 -3.787039e+02
    endloop
  endfacet
  facet normal 8.784138e-14 9.829505e-02 -9.951573e-01
    outer loop
      vertex 9.260012e+01 3.844230e+01 -3.784499e+02
      vertex 2.465000e+02 3.844230e+01 -3.784499e+02
      vertex 9.260012e+01 3.587063e+01 -3.787039e+02
    endloop
  endfacet
  facet normal -3.241207e-01 9.298866e-02 -9.414345e-01
    outer loop
      vertex 9.214025e+01 3.585514e+01 -3.785471e+02
      vertex 9.260012e+01 3.844230e+01 -3.784499e+02
      vertex 9.260012e+01 3.587063e+01 -3.787039e+02
    endloop
  endfacet
  facet normal -8.748471e-13 -9.951573e-01 -9.829505e-02
    outer loop
      vertex 9.214025e+01 3.585514e+01 -3.785471e+02
      vertex 9.260012e+01 3.587063e+01 -3.787039e+02
      vertex 9.151578e+01 3.567404e+01 -3.767136e+02
    endloop
  endfacet
  facet normal 3.827076e-01 9.081180e-02 -9.193955e-01
    outer loop
      vertex 2.470303e+02 3.842071e+01 -3.782312e+02
      vertex 2.465000e+02 3.587063e+01 -3.787039e+02
      vertex 2.465000e+02 3.844230e+01 -3.784499e+02
    endloop
  endfacet
  facet normal 3.827076e-01 9.081180e-02 -9.193955e-01
    outer loop
      vertex 2.470303e+02 3.584903e+01 -3.784852e+02
      vertex 2.465000e+02 3.587063e+01 -3.787039e+02
      vertex 2.470303e+02 3.842071e+01 -3.782312e+02
    endloop
  endfacet
  facet normal -8.899932e-13 -9.951573e-01 -9.829505e-02
    outer loop
      vertex 2.470303e+02 3.584903e+01 -3.784852e+02
      vertex 9.151578e+01 3.567404e+01 -3.767136e+02
      vertex 2.465000e+02 3.587063e+01 -3.787039e+02
    endloop
  endfacet
  facet normal -8.893224e-13 -9.951573e-01 -9.829505e-02
    outer loop
      vertex 2.465000e+02 3.868804e+01 -3.809377e+02
      vertex 2.465000e+02 3.844230e+01 -3.784499e+02
      vertex 9.260012e+01 3.844230e+01 -3.784499e+02
    endloop
  endfacet
  facet normal -9.258879e-13 -9.951573e-01 -9.829505e-02
    outer loop
      vertex 2.465000e+02 3.868804e+01 -3.809377e+02
      vertex 2.470303e+02 3.870963e+01 -3.811564e+02
      vertex 2.465000e+02 3.844230e+01 -3.784499e+02
    endloop
  endfacet
  facet normal -8.728288e-13 -9.951573e-01 -9.829505e-02
    outer loop
      vertex 2.470303e+02 3.842071e+01 -3.782312e+02
      vertex 2.465000e+02 3.844230e+01 -3.784499e+02
      vertex 2.470303e+02 3.870963e+01 -3.811564e+02
    endloop
  endfacet
  facet normal -8.893007e-13 -9.951573e-01 -9.829505e-02
    outer loop
      vertex 9.370157e+01 3.868804e+01 -3.809377e+02
      vertex 2.465000e+02 3.868804e+01 -3.809377e+02
      vertex 9.260012e+01 3.844230e+01 -3.784499e+02
    endloop
  endfacet
  facet normal -8.542740e-13 -9.951573e-01 -9.829505e-02
    outer loop
      vertex 9.310087e+01 3.871762e+01 -3.812372e+02
      vertex 9.370157e+01 3.868804e+01 -3.809377e+02
      vertex 9.260012e+01 3.844230e+01 -3.784499e+02
    endloop
  endfacet
  facet normal -9.435170e-13 -9.951573e-01 -9.829505e-02
    outer loop
      vertex 9.298223e+01 3.878263e+01 -3.818953e+02
      vertex 9.310087e+01 3.871762e+01 -3.812372e+02
      vertex 9.260012e+01 3.844230e+01 -3.784499e+02
    endloop
  endfacet
  facet normal -9.211841e-13 -9.951573e-01 -9.829505e-02
    outer loop
      vertex 9.243723e+01 3.859502e+01 -3.799960e+02
      vertex 9.298223e+01 3.878263e+01 -3.818953e+02
      vertex 9.260012e+01 3.844230e+01 -3.784499e+02
    endloop
  endfacet
  facet normal -8.884171e-13 -9.951573e-01 -9.829505e-02
    outer loop
      vertex 9.214025e+01 3.842682e+01 -3.782931e+02
      vertex 9.243723e+01 3.859502e+01 -3.799960e+02
      vertex 9.260012e+01 3.844230e+01 -3.784499e+02
    endloop
  endfacet
  facet normal -3.241207e-01 9.298866e-02 -9.414345e-01
    outer loop
      vertex 9.214025e+01 3.585514e+01 -3.785471e+02
      vertex 9.214025e+01 3.842682e+01 -3.782931e+02
      vertex 9.260012e+01 3.844230e+01 -3.784499e+02
    endloop
  endfacet
  facet normal -8.970471e-13 -9.951573e-01 -9.829505e-02
    outer loop
      vertex 2.470303e+02 3.842071e+01 -3.782312e+02
      vertex 2.472500e+02 3.876176e+01 -3.816841e+02
      vertex 2.472500e+02 3.836858e+01 -3.777035e+02
    endloop
  endfacet
  facet normal 9.238695e-01 3.761826e-02 -3.808543e-01
    outer loop
      vertex 2.470303e+02 3.584903e+01 -3.784852e+02
      vertex 2.470303e+02 3.842071e+01 -3.782312e+02
      vertex 2.472500e+02 3.836858e+01 -3.777035e+02
    endloop
  endfacet
  facet normal 9.238695e-01 3.761826e-02 -3.808543e-01
    outer loop
      vertex 2.470303e+02 3.584903e+01 -3.784852e+02
      vertex 2.472500e+02 3.836858e+01 -3.777035e+02
      vertex 2.472500e+02 3.579690e+01 -3.779575e+02
    endloop
  endfacet
  facet normal -8.469507e-13 -9.951573e-01 -9.829505e-02
    outer loop
      vertex 2.470303e+02 3.842071e+01 -3.782312e+02
      vertex 2.470303e+02 3.870963e+01 -3.811564e+02
      vertex 2.472500e+02 3.876176e+01 -3.816841e+02
    endloop
  endfacet
  facet normal 9.238695e-01 -3.761826e-02 3.808543e-01
    outer loop
      vertex 2.472500e+02 3.673761e+01 -3.818840e+02
      vertex 2.472500e+02 3.876176e+01 -3.816841e+02
      vertex 2.470303e+02 3.870963e+01 -3.811564e+02
    endloop
  endfacet
  facet normal 1.000000e+00 -8.840374e-13 -5.719308e-15
    outer loop
      vertex 2.472500e+02 3.677202e+01 -3.822324e+02
      vertex 2.472500e+02 3.876176e+01 -3.816841e+02
      vertex 2.472500e+02 3.673761e+01 -3.818840e+02
    endloop
  endfacet
  facet normal 1.000000e+00 -8.872561e-13 5.962770e-15
    outer loop
      vertex 2.472500e+02 3.981720e+01 -3.819316e+02
      vertex 2.472500e+02 3.876176e+01 -3.816841e+02
      vertex 2.472500e+02 3.677202e+01 -3.822324e+02
    endloop
  endfacet
  facet normal 3.827076e-01 -9.081180e-02 9.193955e-01
    outer loop
      vertex 2.470303e+02 3.668548e+01 -3.813563e+02
      vertex 2.470303e+02 3.870963e+01 -3.811564e+02
      vertex 2.465000e+02 3.868804e+01 -3.809377e+02
    endloop
  endfacet
  facet normal 9.238695e-01 -3.761826e-02 3.808543e-01
    outer loop
      vertex 2.472500e+02 3.673761e+01 -3.818840e+02
      vertex 2.470303e+02 3.870963e+01 -3.811564e+02
      vertex 2.470303e+02 3.668548e+01 -3.813563e+02
    endloop
  endfacet
  facet normal -8.783937e-14 -9.829505e-02 9.951573e-01
    outer loop
      vertex 2.465000e+02 3.666389e+01 -3.811377e+02
      vertex 2.465000e+02 3.868804e+01 -3.809377e+02
      vertex 9.370157e+01 3.868804e+01 -3.809377e+02
    endloop
  endfacet
  facet normal 3.827076e-01 -9.081180e-02 9.193955e-01
    outer loop
      vertex 2.470303e+02 3.668548e+01 -3.813563e+02
      vertex 2.465000e+02 3.868804e+01 -3.809377e+02
      vertex 2.465000e+02 3.666389e+01 -3.811377e+02
    endloop
  endfacet
  facet normal -4.479133e-01 -8.788334e-02 8.897473e-01
    outer loop
      vertex 9.370157e+01 3.666389e+01 -3.811377e+02
      vertex 9.370157e+01 3.868804e+01 -3.809377e+02
      vertex 9.310087e+01 3.871762e+01 -3.812372e+02
    endloop
  endfacet
  facet normal -8.783923e-14 -9.829505e-02 9.951573e-01
    outer loop
      vertex 9.370157e+01 3.666389e+01 -3.811377e+02
      vertex 2.465000e+02 3.666389e+01 -3.811377e+02
      vertex 9.370157e+01 3.868804e+01 -3.809377e+02
    endloop
  endfacet
  facet normal -9.842871e-01 -1.735650e-02 1.757204e-01
    outer loop
      vertex 9.310087e+01 3.669347e+01 -3.814372e+02
      vertex 9.310087e+01 3.871762e+01 -3.812372e+02
      vertex 9.298223e+01 3.878263e+01 -3.818953e+02
    endloop
  endfacet
  facet normal -4.479133e-01 -8.788334e-02 8.897473e-01
    outer loop
      vertex 9.310087e+01 3.669347e+01 -3.814372e+02
      vertex 9.370157e+01 3.666389e+01 -3.811377e+02
      vertex 9.310087e+01 3.871762e+01 -3.812372e+02
    endloop
  endfacet
  facet normal -9.615660e-01 2.804738e-02 -2.731375e-01
    outer loop
      vertex 9.302270e+01 3.981720e+01 -3.819316e+02
      vertex 9.298223e+01 3.878263e+01 -3.818953e+02
      vertex 9.243723e+01 3.859502e+01 -3.799960e+02
    endloop
  endfacet
  facet normal -9.842871e-01 -1.735650e-02 1.757204e-01
    outer loop
      vertex 9.310087e+01 3.669347e+01 -3.814372e+02
      vertex 9.298223e+01 3.878263e+01 -3.818953e+02
      vertex 9.298223e+01 3.675848e+01 -3.820953e+02
    endloop
  endfacet
  facet normal -9.594520e-01 2.770661e-02 -2.805069e-01
    outer loop
      vertex 9.302270e+01 3.981720e+01 -3.819316e+02
      vertex 9.298223e+01 3.675848e+01 -3.820953e+02
      vertex 9.298223e+01 3.878263e+01 -3.818953e+02
    endloop
  endfacet
  facet normal -9.545513e-13 -9.951573e-01 -9.829505e-02
    outer loop
      vertex 9.214025e+01 3.842682e+01 -3.782931e+02
      vertex 9.187355e+01 3.838687e+01 -3.778886e+02
      vertex 9.243723e+01 3.859502e+01 -3.799960e+02
    endloop
  endfacet
  facet normal -9.656392e-01 6.343353e-02 -2.520259e-01
    outer loop
      vertex 9.302270e+01 3.981720e+01 -3.819316e+02
      vertex 9.243723e+01 3.859502e+01 -3.799960e+02
      vertex 9.187355e+01 3.838687e+01 -3.778886e+02
    endloop
  endfacet
  facet normal -8.360665e-01 5.392743e-02 -5.459713e-01
    outer loop
      vertex 9.187355e+01 3.581519e+01 -3.781426e+02
      vertex 9.187355e+01 3.838687e+01 -3.778886e+02
      vertex 9.214025e+01 3.842682e+01 -3.782931e+02
    endloop
  endfacet
  facet normal -9.658443e-01 7.425308e-02 -2.482564e-01
    outer loop
      vertex 9.123186e+01 3.914876e+01 -3.751642e+02
      vertex 9.302270e+01 3.981720e+01 -3.819316e+02
      vertex 9.187355e+01 3.838687e+01 -3.778886e+02
    endloop
  endfacet
  facet normal -9.714001e-01 2.587232e-02 -2.360350e-01
    outer loop
      vertex 9.151578e+01 3.567404e+01 -3.767136e+02
      vertex 9.123186e+01 3.914876e+01 -3.751642e+02
      vertex 9.187355e+01 3.838687e+01 -3.778886e+02
    endloop
  endfacet
  facet normal -9.710876e-01 2.524657e-02 -2.373845e-01
    outer loop
      vertex 9.169856e+01 3.574712e+01 -3.774535e+02
      vertex 9.151578e+01 3.567404e+01 -3.767136e+02
      vertex 9.187355e+01 3.838687e+01 -3.778886e+02
    endloop
  endfacet
  facet normal -9.695222e-01 2.408261e-02 -2.438168e-01
    outer loop
      vertex 9.187355e+01 3.581519e+01 -3.781426e+02
      vertex 9.169856e+01 3.574712e+01 -3.774535e+02
      vertex 9.187355e+01 3.838687e+01 -3.778886e+02
    endloop
  endfacet
  facet normal -8.360665e-01 5.392743e-02 -5.459713e-01
    outer loop
      vertex 9.214025e+01 3.585514e+01 -3.785471e+02
      vertex 9.187355e+01 3.581519e+01 -3.781426e+02
      vertex 9.214025e+01 3.842682e+01 -3.782931e+02
    endloop
  endfacet
  facet normal -8.893007e-13 -9.951573e-01 -9.829505e-02
    outer loop
      vertex 2.472500e+02 3.677202e+01 -3.822324e+02
      vertex 2.465000e+02 3.666389e+01 -3.811377e+02
      vertex 9.370157e+01 3.666389e+01 -3.811377e+02
    endloop
  endfacet
  facet normal -8.687596e-13 -9.951573e-01 -9.829505e-02
    outer loop
      vertex 2.472500e+02 3.677202e+01 -3.822324e+02
      vertex 2.470303e+02 3.668548e+01 -3.813563e+02
      vertex 2.465000e+02 3.666389e+01 -3.811377e+02
    endloop
  endfacet
  facet normal -8.896062e-13 -9.951573e-01 -9.829505e-02
    outer loop
      vertex 9.310087e+01 3.669347e+01 -3.814372e+02
      vertex 2.472500e+02 3.677202e+01 -3.822324e+02
      vertex 9.370157e+01 3.666389e+01 -3.811377e+02
    endloop
  endfacet
  facet normal -8.198866e-13 -9.951573e-01 -9.829505e-02
    outer loop
      vertex 2.472500e+02 3.677202e+01 -3.822324e+02
      vertex 2.472500e+02 3.673761e+01 -3.818840e+02
      vertex 2.470303e+02 3.668548e+01 -3.813563e+02
    endloop
  endfacet
  facet normal -8.892684e-13 -9.951573e-01 -9.829505e-02
    outer loop
      vertex 9.310087e+01 3.669347e+01 -3.814372e+02
      vertex 9.302270e+01 3.677202e+01 -3.822324e+02
      vertex 2.472500e+02 3.677202e+01 -3.822324e+02
    endloop
  endfacet
  facet normal 8.783605e-14 9.829505e-02 -9.951573e-01
    outer loop
      vertex 2.472500e+02 3.981720e+01 -3.819316e+02
      vertex 2.472500e+02 3.677202e+01 -3.822324e+02
      vertex 9.302270e+01 3.677202e+01 -3.822324e+02
    endloop
  endfacet
  facet normal -1.829900e-12 -9.951573e-01 -9.829505e-02
    outer loop
      vertex 9.310087e+01 3.669347e+01 -3.814372e+02
      vertex 9.300276e+01 3.676528e+01 -3.821642e+02
      vertex 9.302270e+01 3.677202e+01 -3.822324e+02
    endloop
  endfacet
  facet normal -9.601472e-01 2.747296e-02 -2.781413e-01
    outer loop
      vertex 9.302270e+01 3.981720e+01 -3.819316e+02
      vertex 9.302270e+01 3.677202e+01 -3.822324e+02
      vertex 9.300276e+01 3.676528e+01 -3.821642e+02
    endloop
  endfacet
  facet normal 8.857414e-14 9.829505e-02 -9.951573e-01
    outer loop
      vertex 9.302270e+01 3.981720e+01 -3.819316e+02
      vertex 2.472500e+02 3.981720e+01 -3.819316e+02
      vertex 9.302270e+01 3.677202e+01 -3.822324e+02
    endloop
  endfacet
  facet normal -5.441140e-13 -9.951573e-01 -9.829505e-02
    outer loop
      vertex 9.310087e+01 3.669347e+01 -3.814372e+02
      vertex 9.298223e+01 3.675848e+01 -3.820953e+02
      vertex 9.300276e+01 3.676528e+01 -3.821642e+02
    endloop
  endfacet
  facet normal -9.587598e-01 2.782298e-02 -2.828524e-01
    outer loop
      vertex 9.302270e+01 3.981720e+01 -3.819316e+02
      vertex 9.300276e+01 3.676528e+01 -3.821642e+02
      vertex 9.298223e+01 3.675848e+01 -3.820953e+02
    endloop
  endfacet
  facet normal 8.892428e-13 9.951573e-01 9.829505e-02
    outer loop
      vertex 2.304410e+02 3.651153e+01 -3.484644e+02
      vertex 2.472500e+02 3.981720e+01 -3.819316e+02
      vertex 9.302270e+01 3.981720e+01 -3.819316e+02
    endloop
  endfacet
  facet normal 8.948762e-13 9.951573e-01 9.829505e-02
    outer loop
      vertex 9.355636e+01 3.241255e+01 -3.069655e+02
      vertex 9.393601e+01 3.222579e+01 -3.050747e+02
      vertex 9.302270e+01 3.981720e+01 -3.819316e+02
    endloop
  endfacet
  facet normal 8.895188e-13 9.951573e-01 9.829505e-02
    outer loop
      vertex 1.317000e+02 3.636409e+01 -3.469717e+02
      vertex 9.302270e+01 3.981720e+01 -3.819316e+02
      vertex 9.393601e+01 3.222579e+01 -3.050747e+02
    endloop
  endfacet
  facet normal 8.806799e-13 9.951573e-01 9.829505e-02
    outer loop
      vertex 9.223963e+01 3.301164e+01 -3.130308e+02
      vertex 9.355636e+01 3.241255e+01 -3.069655e+02
      vertex 9.302270e+01 3.981720e+01 -3.819316e+02
    endloop
  endfacet
  facet normal 8.963101e-13 9.951573e-01 9.829505e-02
    outer loop
      vertex 9.123186e+01 3.914876e+01 -3.751642e+02
      vertex 9.223963e+01 3.301164e+01 -3.130308e+02
      vertex 9.302270e+01 3.981720e+01 -3.819316e+02
    endloop
  endfacet
  facet normal 8.866144e-13 9.951573e-01 9.829505e-02
    outer loop
      vertex 1.317000e+02 3.636409e+01 -3.469717e+02
      vertex 1.332000e+02 3.651153e+01 -3.484644e+02
      vertex 9.302270e+01 3.981720e+01 -3.819316e+02
    endloop
  endfacet
  facet normal 8.892492e-13 9.951573e-01 9.829505e-02
    outer loop
      vertex 2.304410e+02 3.651153e+01 -3.484644e+02
      vertex 9.302270e+01 3.981720e+01 -3.819316e+02
      vertex 1.332000e+02 3.651153e+01 -3.484644e+02
    endloop
  endfacet
  facet normal 8.824502e-13 9.951573e-01 9.829505e-02
    outer loop
      vertex 2.304410e+02 3.621665e+01 -3.454790e+02
      vertex 2.099207e+02 3.222291e+01 -3.050456e+02
      vertex 2.099500e+02 3.221596e+01 -3.049752e+02
    endloop
  endfacet
  facet normal 1.226076e-12 9.951573e-01 9.829505e-02
    outer loop
      vertex 1.332000e+02 3.621665e+01 -3.454790e+02
      vertex 2.098500e+02 3.222579e+01 -3.050747e+02
      vertex 2.099207e+02 3.222291e+01 -3.050456e+02
    endloop
  endfacet
  facet normal 8.892492e-13 9.951573e-01 9.829505e-02
    outer loop
      vertex 2.304410e+02 3.621665e+01 -3.454790e+02
      vertex 1.332000e+02 3.621665e+01 -3.454790e+02
      vertex 2.099207e+02 3.222291e+01 -3.050456e+02
    endloop
  endfacet
  facet normal 8.892957e-13 9.951573e-01 9.829505e-02
    outer loop
      vertex 1.332000e+02 3.621665e+01 -3.454790e+02
      vertex 9.393601e+01 3.222579e+01 -3.050747e+02
      vertex 2.098500e+02 3.222579e+01 -3.050747e+02
    endloop
  endfacet
  facet normal 8.842989e-13 9.951573e-01 9.829505e-02
    outer loop
      vertex 1.332000e+02 3.621665e+01 -3.454790e+02
      vertex 1.317000e+02 3.636409e+01 -3.469717e+02
      vertex 9.393601e+01 3.222579e+01 -3.050747e+02
    endloop
  endfacet
  facet normal 8.914985e-13 9.951573e-01 9.829505e-02
    outer loop
      vertex 9.123186e+01 3.914876e+01 -3.751642e+02
      vertex 9.114211e+01 3.356945e+01 -3.186782e+02
      vertex 9.223963e+01 3.301164e+01 -3.130308e+02
    endloop
  endfacet
  facet normal -9.755788e-01 -4.330794e-03 2.196070e-01
    outer loop
      vertex 9.332571e+01 2.960255e+01 -3.082732e+02
      vertex 9.348513e+01 2.953274e+01 -3.075664e+02
      vertex 9.223963e+01 3.301164e+01 -3.130308e+02
    endloop
  endfacet
  facet normal -9.761345e-01 -8.125493e-03 2.170147e-01
    outer loop
      vertex 9.316920e+01 2.967183e+01 -3.089746e+02
      vertex 9.332571e+01 2.960255e+01 -3.082732e+02
      vertex 9.223963e+01 3.301164e+01 -3.130308e+02
    endloop
  endfacet
  facet normal 8.976566e-13 9.951573e-01 9.829505e-02
    outer loop
      vertex 9.041179e+01 3.876945e+01 -3.713240e+02
      vertex 9.025905e+01 3.408267e+01 -3.238741e+02
      vertex 9.114211e+01 3.356945e+01 -3.186782e+02
    endloop
  endfacet
  facet normal 8.968347e-13 9.951573e-01 9.829505e-02
    outer loop
      vertex 9.123186e+01 3.914876e+01 -3.751642e+02
      vertex 9.041179e+01 3.876945e+01 -3.713240e+02
      vertex 9.114211e+01 3.356945e+01 -3.186782e+02
    endloop
  endfacet
  facet normal 8.822196e-13 9.951573e-01 9.829505e-02
    outer loop
      vertex 8.952463e+01 3.825698e+01 -3.661356e+02
      vertex 8.929986e+01 3.477000e+01 -3.308328e+02
      vertex 9.025905e+01 3.408267e+01 -3.238741e+02
    endloop
  endfacet
  facet normal 8.859506e-13 9.951573e-01 9.829505e-02
    outer loop
      vertex 9.041179e+01 3.876945e+01 -3.713240e+02
      vertex 8.952463e+01 3.825698e+01 -3.661356e+02
      vertex 9.025905e+01 3.408267e+01 -3.238741e+02
    endloop
  endfacet
  facet normal 8.918564e-13 9.951573e-01 9.829505e-02
    outer loop
      vertex 8.870000e+01 3.755103e+01 -3.589884e+02
      vertex 8.870000e+01 3.536953e+01 -3.369026e+02
      vertex 8.929986e+01 3.477000e+01 -3.308328e+02
    endloop
  endfacet
  facet normal 8.924505e-13 9.951573e-01 9.829505e-02
    outer loop
      vertex 8.952463e+01 3.825698e+01 -3.661356e+02
      vertex 8.870000e+01 3.755103e+01 -3.589884e+02
      vertex 8.929986e+01 3.477000e+01 -3.308328e+02
    endloop
  endfacet
  facet normal -7.071068e-01 7.036825e-01 6.950509e-02
    outer loop
      vertex 8.835938e+01 3.559653e+01 -3.426661e+02
      vertex 8.870000e+01 3.536953e+01 -3.369026e+02
      vertex 8.870000e+01 3.755103e+01 -3.589884e+02
    endloop
  endfacet
  facet normal -9.980121e-01 6.164098e-03 -6.272023e-02
    outer loop
      vertex 8.836961e+01 3.670795e+01 -3.538142e+02
      vertex 8.870000e+01 3.755103e+01 -3.589884e+02
      vertex 8.836944e+01 3.391362e+01 -3.540860e+02
    endloop
  endfacet
  facet normal -7.071068e-01 7.036825e-01 6.950509e-02
    outer loop
      vertex 8.825064e+01 3.605027e+01 -3.483661e+02
      vertex 8.870000e+01 3.755103e+01 -3.589884e+02
      vertex 8.836961e+01 3.670795e+01 -3.538142e+02
    endloop
  endfacet
  facet normal -7.071068e-01 7.036825e-01 6.950509e-02
    outer loop
      vertex 8.835938e+01 3.559653e+01 -3.426661e+02
      vertex 8.870000e+01 3.755103e+01 -3.589884e+02
      vertex 8.825064e+01 3.605027e+01 -3.483661e+02
    endloop
  endfacet
  facet normal -8.895230e-13 -9.951573e-01 -9.829505e-02
    outer loop
      vertex 2.472500e+02 2.967183e+01 -3.089746e+02
      vertex 9.348513e+01 2.953274e+01 -3.075664e+02
      vertex 9.332571e+01 2.960255e+01 -3.082732e+02
    endloop
  endfacet
  facet normal -8.887449e-13 -9.951573e-01 -9.829505e-02
    outer loop
      vertex 9.374839e+01 2.949138e+01 -3.071477e+02
      vertex 9.348513e+01 2.953274e+01 -3.075664e+02
      vertex 2.472500e+02 2.967183e+01 -3.089746e+02
    endloop
  endfacet
  facet normal -8.892879e-13 -9.951573e-01 -9.829505e-02
    outer loop
      vertex 2.472500e+02 2.967183e+01 -3.089746e+02
      vertex 9.332571e+01 2.960255e+01 -3.082732e+02
      vertex 9.316920e+01 2.967183e+01 -3.089746e+02
    endloop
  endfacet
  facet normal -9.998185e-01 -1.901401e-03 1.895775e-02
    outer loop
      vertex 8.835938e+01 3.559653e+01 -3.426661e+02
      vertex 8.825063e+01 3.354582e+01 -3.486070e+02
      vertex 8.835953e+01 3.293140e+01 -3.429253e+02
    endloop
  endfacet
  facet normal -9.997658e-01 2.074754e-03 -2.153953e-02
    outer loop
      vertex 8.825064e+01 3.605027e+01 -3.483661e+02
      vertex 8.836944e+01 3.391362e+01 -3.540860e+02
      vertex 8.825063e+01 3.354582e+01 -3.486070e+02
    endloop
  endfacet
  facet normal -9.998192e-01 -1.818345e-03 1.892910e-02
    outer loop
      vertex 8.835938e+01 3.559653e+01 -3.426661e+02
      vertex 8.825064e+01 3.605027e+01 -3.483661e+02
      vertex 8.825063e+01 3.354582e+01 -3.486070e+02
    endloop
  endfacet
  facet normal -9.997650e-01 2.161666e-03 -2.157198e-02
    outer loop
      vertex 8.825064e+01 3.605027e+01 -3.483661e+02
      vertex 8.836961e+01 3.670795e+01 -3.538142e+02
      vertex 8.836944e+01 3.391362e+01 -3.540860e+02
    endloop
  endfacet
  facet normal -1.570672e-12 -9.951573e-01 -9.829505e-02
    outer loop
      vertex 9.187355e+01 3.581519e+01 -3.781426e+02
      vertex 9.151578e+01 3.567404e+01 -3.767136e+02
      vertex 9.169856e+01 3.574712e+01 -3.774535e+02
    endloop
  endfacet
  facet normal -8.971380e-13 -9.951573e-01 -9.829505e-02
    outer loop
      vertex 9.214025e+01 3.585514e+01 -3.785471e+02
      vertex 9.151578e+01 3.567404e+01 -3.767136e+02
      vertex 9.187355e+01 3.581519e+01 -3.781426e+02
    endloop
  endfacet
  facet normal -8.893359e-13 -9.951573e-01 -9.829505e-02
    outer loop
      vertex 2.472500e+02 3.567404e+01 -3.767136e+02
      vertex 9.151578e+01 3.567404e+01 -3.767136e+02
      vertex 2.472500e+02 3.579690e+01 -3.779575e+02
    endloop
  endfacet
  facet normal -8.890716e-13 -9.951573e-01 -9.829505e-02
    outer loop
      vertex 2.470303e+02 3.584903e+01 -3.784852e+02
      vertex 2.472500e+02 3.579690e+01 -3.779575e+02
      vertex 9.151578e+01 3.567404e+01 -3.767136e+02
    endloop
  endfacet
  facet normal -8.797632e-13 -9.951573e-01 -9.829505e-02
    outer loop
      vertex 2.470303e+02 2.949684e+01 -3.072029e+02
      vertex 2.472500e+02 2.967183e+01 -3.089746e+02
      vertex 2.472500e+02 2.954896e+01 -3.077307e+02
    endloop
  endfacet
endsolid P1040852002
