solid P1040852002
  facet normal 1.000000e+00 -8.918866e-13 -4.410646e-15
    outer loop
      vertex 2.472500e+02 2.643856e+01 -3.039963e+02
      vertex 2.472500e+02 2.497326e+01 -3.041137e+02
      vertex 2.472500e+02 2.524496e+01 -3.075029e+02
    endloop
  endfacet
  facet normal -9.705265e-13 -9.968020e-01 -7.991055e-02
    outer loop
      vertex 2.470303e+02 2.520258e+01 -3.069742e+02
      vertex 2.472500e+02 2.524496e+01 -3.075029e+02
      vertex 2.472500e+02 2.497326e+01 -3.041137e+02
    endloop
  endfacet
  facet normal 1.000000e+00 -9.037943e-13 -3.573932e-16
    outer loop
      vertex 2.472500e+02 2.954910e+01 -3.766305e+02
      vertex 2.472500e+02 2.643856e+01 -3.039963e+02
      vertex 2.472500e+02 2.524496e+01 -3.075029e+02
    endloop
  endfacet
  facet normal 1.000000e+00 -8.488788e-13 3.061852e-15
    outer loop
      vertex 2.472500e+02 2.463759e+01 -3.088056e+02
      vertex 2.472500e+02 2.954910e+01 -3.766305e+02
      vertex 2.472500e+02 2.524496e+01 -3.075029e+02
    endloop
  endfacet
  facet normal 1.000000e+00 -8.857150e-13 2.023621e-14
    outer loop
      vertex 2.472500e+02 2.453771e+01 -3.075596e+02
      vertex 2.472500e+02 2.463759e+01 -3.088056e+02
      vertex 2.472500e+02 2.524496e+01 -3.075029e+02
    endloop
  endfacet
  facet normal 9.238795e-01 -3.058045e-02 3.814596e-01
    outer loop
      vertex 2.470303e+02 2.520258e+01 -3.069742e+02
      vertex 2.472500e+02 2.453771e+01 -3.075596e+02
      vertex 2.472500e+02 2.524496e+01 -3.075029e+02
    endloop
  endfacet
  facet normal -7.139782e-14 -7.991055e-02 9.968020e-01
    outer loop
      vertex 2.100000e+02 2.643856e+01 -3.039963e+02
      vertex 2.472500e+02 2.497326e+01 -3.041137e+02
      vertex 2.472500e+02 2.643856e+01 -3.039963e+02
    endloop
  endfacet
  facet normal -7.141306e-14 -7.991055e-02 9.968020e-01
    outer loop
      vertex 2.100000e+02 2.497326e+01 -3.041137e+02
      vertex 2.472500e+02 2.497326e+01 -3.041137e+02
      vertex 2.100000e+02 2.643856e+01 -3.039963e+02
    endloop
  endfacet
  facet normal -8.908046e-13 -9.968020e-01 -7.991055e-02
    outer loop
      vertex 2.465000e+02 2.518503e+01 -3.067553e+02
      vertex 2.472500e+02 2.497326e+01 -3.041137e+02
      vertex 2.100000e+02 2.497326e+01 -3.041137e+02
    endloop
  endfacet
  facet normal -8.810356e-13 -9.968020e-01 -7.991055e-02
    outer loop
      vertex 2.470303e+02 2.520258e+01 -3.069742e+02
      vertex 2.472500e+02 2.497326e+01 -3.041137e+02
      vertex 2.465000e+02 2.518503e+01 -3.067553e+02
    endloop
  endfacet
  facet normal 1.000000e+00 -8.926121e-13 2.248303e-16
    outer loop
      vertex 2.472500e+02 3.164092e+01 -3.817296e+02
      vertex 2.472500e+02 3.269160e+01 -3.819965e+02
      vertex 2.472500e+02 2.643856e+01 -3.039963e+02
    endloop
  endfacet
  facet normal 8.904456e-13 9.968020e-01 7.991055e-02
    outer loop
      vertex 2.335910e+02 2.834846e+01 -3.278203e+02
      vertex 2.472500e+02 2.643856e+01 -3.039963e+02
      vertex 2.472500e+02 3.269160e+01 -3.819965e+02
    endloop
  endfacet
  facet normal 1.000000e+00 -8.548090e-13 2.754825e-15
    outer loop
      vertex 2.472500e+02 3.132127e+01 -3.777424e+02
      vertex 2.472500e+02 3.164092e+01 -3.817296e+02
      vertex 2.472500e+02 2.643856e+01 -3.039963e+02
    endloop
  endfacet
  facet normal 1.000000e+00 -8.981887e-13 -1.173338e-16
    outer loop
      vertex 2.472500e+02 2.954910e+01 -3.766305e+02
      vertex 2.472500e+02 3.132127e+01 -3.777424e+02
      vertex 2.472500e+02 2.643856e+01 -3.039963e+02
    endloop
  endfacet
  facet normal 8.906109e-13 9.968020e-01 7.991055e-02
    outer loop
      vertex 2.335910e+02 2.814869e+01 -3.253283e+02
      vertex 2.100000e+02 2.643856e+01 -3.039963e+02
      vertex 2.472500e+02 2.643856e+01 -3.039963e+02
    endloop
  endfacet
  facet normal 8.935235e-13 9.968020e-01 7.991055e-02
    outer loop
      vertex 2.335910e+02 2.834846e+01 -3.278203e+02
      vertex 2.335910e+02 2.814869e+01 -3.253283e+02
      vertex 2.472500e+02 2.643856e+01 -3.039963e+02
    endloop
  endfacet
  facet normal 1.000000e+00 -8.938662e-13 9.806903e-15
    outer loop
      vertex 2.472500e+02 3.049958e+01 -3.818211e+02
      vertex 2.472500e+02 3.052755e+01 -3.821700e+02
      vertex 2.472500e+02 3.269160e+01 -3.819965e+02
    endloop
  endfacet
  facet normal 6.992913e-14 7.991055e-02 -9.968020e-01
    outer loop
      vertex 9.301086e+01 3.052755e+01 -3.821700e+02
      vertex 2.472500e+02 3.269160e+01 -3.819965e+02
      vertex 2.472500e+02 3.052755e+01 -3.821700e+02
    endloop
  endfacet
  facet normal 1.000000e+00 -8.955622e-13 -1.138911e-14
    outer loop
      vertex 2.472500e+02 3.164092e+01 -3.817296e+02
      vertex 2.472500e+02 3.049958e+01 -3.818211e+02
      vertex 2.472500e+02 3.269160e+01 -3.819965e+02
    endloop
  endfacet
  facet normal 7.067489e-14 7.991055e-02 -9.968020e-01
    outer loop
      vertex 9.301086e+01 3.269160e+01 -3.819965e+02
      vertex 2.472500e+02 3.269160e+01 -3.819965e+02
      vertex 9.301086e+01 3.052755e+01 -3.821700e+02
    endloop
  endfacet
  facet normal 8.908211e-13 9.968020e-01 7.991055e-02
    outer loop
      vertex 2.335910e+02 2.834846e+01 -3.278203e+02
      vertex 2.472500e+02 3.269160e+01 -3.819965e+02
      vertex 9.301086e+01 3.269160e+01 -3.819965e+02
    endloop
  endfacet
  facet normal -9.456491e-13 -9.968020e-01 -7.991055e-02
    outer loop
      vertex 2.470303e+02 3.045720e+01 -3.812925e+02
      vertex 2.472500e+02 3.052755e+01 -3.821700e+02
      vertex 2.472500e+02 3.049958e+01 -3.818211e+02
    endloop
  endfacet
  facet normal -8.907477e-13 -9.968020e-01 -7.991055e-02
    outer loop
      vertex 9.368971e+01 3.043964e+01 -3.810735e+02
      vertex 2.472500e+02 3.052755e+01 -3.821700e+02
      vertex 2.465000e+02 3.043964e+01 -3.810735e+02
    endloop
  endfacet
  facet normal -8.946403e-13 -9.968020e-01 -7.991055e-02
    outer loop
      vertex 2.470303e+02 3.045720e+01 -3.812925e+02
      vertex 2.465000e+02 3.043964e+01 -3.810735e+02
      vertex 2.472500e+02 3.052755e+01 -3.821700e+02
    endloop
  endfacet
  facet normal -8.906762e-13 -9.968020e-01 -7.991055e-02
    outer loop
      vertex 9.308937e+01 3.046370e+01 -3.813736e+02
      vertex 2.472500e+02 3.052755e+01 -3.821700e+02
      vertex 9.368971e+01 3.043964e+01 -3.810735e+02
    endloop
  endfacet
  facet normal -8.907416e-13 -9.968020e-01 -7.991055e-02
    outer loop
      vertex 9.308937e+01 3.046370e+01 -3.813736e+02
      vertex 9.301086e+01 3.052755e+01 -3.821700e+02
      vertex 2.472500e+02 3.052755e+01 -3.821700e+02
    endloop
  endfacet
  facet normal 9.238795e-01 -3.058045e-02 3.814596e-01
    outer loop
      vertex 2.470303e+02 3.159854e+01 -3.812010e+02
      vertex 2.472500e+02 3.049958e+01 -3.818211e+02
      vertex 2.472500e+02 3.164092e+01 -3.817296e+02
    endloop
  endfacet
  facet normal 9.238795e-01 -3.058045e-02 3.814596e-01
    outer loop
      vertex 2.470303e+02 3.045720e+01 -3.812925e+02
      vertex 2.472500e+02 3.049958e+01 -3.818211e+02
      vertex 2.470303e+02 3.159854e+01 -3.812010e+02
    endloop
  endfacet
  facet normal -9.179737e-13 -9.968020e-01 -7.991055e-02
    outer loop
      vertex 2.470303e+02 3.136365e+01 -3.782711e+02
      vertex 2.472500e+02 3.164092e+01 -3.817296e+02
      vertex 2.472500e+02 3.132127e+01 -3.777424e+02
    endloop
  endfacet
  facet normal -9.036576e-13 -9.968020e-01 -7.991055e-02
    outer loop
      vertex 2.470303e+02 3.159854e+01 -3.812010e+02
      vertex 2.472500e+02 3.164092e+01 -3.817296e+02
      vertex 2.470303e+02 3.136365e+01 -3.782711e+02
    endloop
  endfacet
  facet normal 1.000000e+00 -9.004725e-13 -3.757168e-15
    outer loop
      vertex 2.472500e+02 2.954910e+01 -3.766305e+02
      vertex 2.472500e+02 2.964899e+01 -3.778765e+02
      vertex 2.472500e+02 3.132127e+01 -3.777424e+02
    endloop
  endfacet
  facet normal 9.238795e-01 3.058045e-02 -3.814596e-01
    outer loop
      vertex 2.470303e+02 2.969137e+01 -3.784051e+02
      vertex 2.472500e+02 3.132127e+01 -3.777424e+02
      vertex 2.472500e+02 2.964899e+01 -3.778765e+02
    endloop
  endfacet
  facet normal 9.238795e-01 3.058045e-02 -3.814596e-01
    outer loop
      vertex 2.470303e+02 2.969137e+01 -3.784051e+02
      vertex 2.470303e+02 3.136365e+01 -3.782711e+02
      vertex 2.472500e+02 3.132127e+01 -3.777424e+02
    endloop
  endfacet
  facet normal -8.907498e-13 -9.968020e-01 -7.991055e-02
    outer loop
      vertex 9.150601e+01 2.954910e+01 -3.766305e+02
      vertex 2.472500e+02 2.964899e+01 -3.778765e+02
      vertex 2.472500e+02 2.954910e+01 -3.766305e+02
    endloop
  endfacet
  facet normal -8.906097e-13 -9.968020e-01 -7.991055e-02
    outer loop
      vertex 2.470303e+02 2.969137e+01 -3.784051e+02
      vertex 2.472500e+02 2.964899e+01 -3.778765e+02
      vertex 9.150601e+01 2.954910e+01 -3.766305e+02
    endloop
  endfacet
  facet normal 1.000000e+00 -6.720216e-13 1.655935e-14
    outer loop
      vertex 2.472500e+02 2.453791e+01 -3.088135e+02
      vertex 2.472500e+02 2.946435e+01 -3.766373e+02
      vertex 2.472500e+02 2.954910e+01 -3.766305e+02
    endloop
  endfacet
  facet normal 7.140867e-14 7.991055e-02 -9.968020e-01
    outer loop
      vertex 9.150601e+01 2.946435e+01 -3.766373e+02
      vertex 2.472500e+02 2.954910e+01 -3.766305e+02
      vertex 2.472500e+02 2.946435e+01 -3.766373e+02
    endloop
  endfacet
  facet normal 1.000000e+00 -1.139076e-12 -1.795266e-14
    outer loop
      vertex 2.472500e+02 2.463759e+01 -3.088056e+02
      vertex 2.472500e+02 2.453791e+01 -3.088135e+02
      vertex 2.472500e+02 2.954910e+01 -3.766305e+02
    endloop
  endfacet
  facet normal 7.140867e-14 7.991055e-02 -9.968020e-01
    outer loop
      vertex 9.150601e+01 2.954910e+01 -3.766305e+02
      vertex 2.472500e+02 2.954910e+01 -3.766305e+02
      vertex 9.150601e+01 2.946435e+01 -3.766373e+02
    endloop
  endfacet
  facet normal -8.914631e-13 -9.973724e-01 -7.244498e-02
    outer loop
      vertex 2.335910e+02 2.575144e+01 -3.255205e+02
      vertex 2.472500e+02 2.946435e+01 -3.766373e+02
      vertex 2.472500e+02 2.453791e+01 -3.088135e+02
    endloop
  endfacet
  facet normal -8.912442e-13 -9.973724e-01 -7.244498e-02
    outer loop
      vertex 2.335910e+02 2.593255e+01 -3.280140e+02
      vertex 1.438500e+02 2.593255e+01 -3.280140e+02
      vertex 2.472500e+02 2.946435e+01 -3.766373e+02
    endloop
  endfacet
  facet normal -8.919818e-13 -9.973724e-01 -7.244498e-02
    outer loop
      vertex 9.317804e+01 2.453791e+01 -3.088135e+02
      vertex 2.472500e+02 2.946435e+01 -3.766373e+02
      vertex 1.438500e+02 2.593255e+01 -3.280140e+02
    endloop
  endfacet
  facet normal -8.862418e-13 -9.973724e-01 -7.244498e-02
    outer loop
      vertex 2.335910e+02 2.575144e+01 -3.255205e+02
      vertex 2.335910e+02 2.593255e+01 -3.280140e+02
      vertex 2.472500e+02 2.946435e+01 -3.766373e+02
    endloop
  endfacet
  facet normal -8.912595e-13 -9.973724e-01 -7.244498e-02
    outer loop
      vertex 9.150601e+01 2.946435e+01 -3.766373e+02
      vertex 2.472500e+02 2.946435e+01 -3.766373e+02
      vertex 9.317804e+01 2.453791e+01 -3.088135e+02
    endloop
  endfacet
  facet normal -7.140971e-14 -7.991055e-02 9.968020e-01
    outer loop
      vertex 9.317804e+01 2.463759e+01 -3.088056e+02
      vertex 2.472500e+02 2.453791e+01 -3.088135e+02
      vertex 2.472500e+02 2.463759e+01 -3.088056e+02
    endloop
  endfacet
  facet normal -8.912874e-13 -9.973724e-01 -7.244498e-02
    outer loop
      vertex 9.317804e+01 2.453791e+01 -3.088135e+02
      vertex 2.335910e+02 2.575144e+01 -3.255205e+02
      vertex 2.472500e+02 2.453791e+01 -3.088135e+02
    endloop
  endfacet
  facet normal -6.993130e-14 -7.991055e-02 9.968020e-01
    outer loop
      vertex 9.317804e+01 2.463759e+01 -3.088056e+02
      vertex 9.317804e+01 2.453791e+01 -3.088135e+02
      vertex 2.472500e+02 2.453791e+01 -3.088135e+02
    endloop
  endfacet
  facet normal -9.052311e-13 -9.968020e-01 -7.991055e-02
    outer loop
      vertex 2.470303e+02 2.449533e+01 -3.070309e+02
      vertex 2.472500e+02 2.463759e+01 -3.088056e+02
      vertex 2.472500e+02 2.453771e+01 -3.075596e+02
    endloop
  endfacet
  facet normal -8.908136e-13 -9.968020e-01 -7.991055e-02
    outer loop
      vertex 9.422577e+01 2.447777e+01 -3.068120e+02
      vertex 2.472500e+02 2.463759e+01 -3.088056e+02
      vertex 2.465000e+02 2.447777e+01 -3.068120e+02
    endloop
  endfacet
  facet normal -8.822210e-13 -9.968020e-01 -7.991055e-02
    outer loop
      vertex 2.470303e+02 2.449533e+01 -3.070309e+02
      vertex 2.465000e+02 2.447777e+01 -3.068120e+02
      vertex 2.472500e+02 2.463759e+01 -3.088056e+02
    endloop
  endfacet
  facet normal -8.900665e-13 -9.968020e-01 -7.991055e-02
    outer loop
      vertex 9.375746e+01 2.449089e+01 -3.069756e+02
      vertex 2.472500e+02 2.463759e+01 -3.088056e+02
      vertex 9.422577e+01 2.447777e+01 -3.068120e+02
    endloop
  endfacet
  facet normal -8.907698e-13 -9.968020e-01 -7.991055e-02
    outer loop
      vertex 9.333484e+01 2.458120e+01 -3.081021e+02
      vertex 2.472500e+02 2.463759e+01 -3.088056e+02
      vertex 9.349418e+01 2.452451e+01 -3.073949e+02
    endloop
  endfacet
  facet normal -8.907356e-13 -9.968020e-01 -7.991055e-02
    outer loop
      vertex 9.375746e+01 2.449089e+01 -3.069756e+02
      vertex 9.349418e+01 2.452451e+01 -3.073949e+02
      vertex 2.472500e+02 2.463759e+01 -3.088056e+02
    endloop
  endfacet
  facet normal -8.907627e-13 -9.968020e-01 -7.991055e-02
    outer loop
      vertex 9.317804e+01 2.463759e+01 -3.088056e+02
      vertex 2.472500e+02 2.463759e+01 -3.088056e+02
      vertex 9.333484e+01 2.458120e+01 -3.081021e+02
    endloop
  endfacet
  facet normal 9.238795e-01 -3.058045e-02 3.814596e-01
    outer loop
      vertex 2.470303e+02 2.449533e+01 -3.070309e+02
      vertex 2.472500e+02 2.453771e+01 -3.075596e+02
      vertex 2.470303e+02 2.520258e+01 -3.069742e+02
    endloop
  endfacet
  facet normal -7.071068e-01 -5.650529e-02 7.048455e-01
    outer loop
      vertex 2.099500e+02 2.497726e+01 -3.041636e+02
      vertex 2.100000e+02 2.497326e+01 -3.041137e+02
      vertex 2.100000e+02 2.643856e+01 -3.039963e+02
    endloop
  endfacet
  facet normal -7.071068e-01 -5.650529e-02 7.048455e-01
    outer loop
      vertex 2.099500e+02 2.644256e+01 -3.040461e+02
      vertex 2.099500e+02 2.497726e+01 -3.041636e+02
      vertex 2.100000e+02 2.643856e+01 -3.039963e+02
    endloop
  endfacet
  facet normal 1.185893e-12 9.968020e-01 7.991055e-02
    outer loop
      vertex 2.099500e+02 2.651847e+01 -3.049931e+02
      vertex 2.099500e+02 2.644256e+01 -3.040461e+02
      vertex 2.100000e+02 2.643856e+01 -3.039963e+02
    endloop
  endfacet
  facet normal -8.836681e-13 9.968020e-01 7.991055e-02
    outer loop
      vertex 2.099500e+02 2.652646e+01 -3.050927e+02
      vertex 2.099500e+02 2.651847e+01 -3.049931e+02
      vertex 2.100000e+02 2.643856e+01 -3.039963e+02
    endloop
  endfacet
  facet normal 8.980356e-13 9.968020e-01 7.991055e-02
    outer loop
      vertex 2.335910e+02 2.814869e+01 -3.253283e+02
      vertex 2.099500e+02 2.652646e+01 -3.050927e+02
      vertex 2.100000e+02 2.643856e+01 -3.039963e+02
    endloop
  endfacet
  facet normal -8.825156e-13 -9.968020e-01 -7.991055e-02
    outer loop
      vertex 2.099500e+02 2.497726e+01 -3.041636e+02
      vertex 2.465000e+02 2.518503e+01 -3.067553e+02
      vertex 2.100000e+02 2.497326e+01 -3.041137e+02
    endloop
  endfacet
  facet normal -8.907671e-13 -9.968020e-01 -7.991055e-02
    outer loop
      vertex 2.098500e+02 2.506116e+01 -3.052102e+02
      vertex 9.422577e+01 2.518503e+01 -3.067553e+02
      vertex 2.465000e+02 2.518503e+01 -3.067553e+02
    endloop
  endfacet
  facet normal -7.141001e-14 -7.991055e-02 9.968020e-01
    outer loop
      vertex 2.465000e+02 2.447777e+01 -3.068120e+02
      vertex 2.465000e+02 2.518503e+01 -3.067553e+02
      vertex 9.422577e+01 2.518503e+01 -3.067553e+02
    endloop
  endfacet
  facet normal -9.207516e-13 -9.968020e-01 -7.991055e-02
    outer loop
      vertex 2.099500e+02 2.506116e+01 -3.052102e+02
      vertex 2.098500e+02 2.506116e+01 -3.052102e+02
      vertex 2.465000e+02 2.518503e+01 -3.067553e+02
    endloop
  endfacet
  facet normal -8.826059e-13 -9.968020e-01 -7.991055e-02
    outer loop
      vertex 2.099500e+02 2.505317e+01 -3.051105e+02
      vertex 2.099500e+02 2.506116e+01 -3.052102e+02
      vertex 2.465000e+02 2.518503e+01 -3.067553e+02
    endloop
  endfacet
  facet normal -8.912911e-13 -9.968020e-01 -7.991055e-02
    outer loop
      vertex 2.099500e+02 2.497726e+01 -3.041636e+02
      vertex 2.099500e+02 2.505317e+01 -3.051105e+02
      vertex 2.465000e+02 2.518503e+01 -3.067553e+02
    endloop
  endfacet
  facet normal 3.826834e-01 -7.382773e-02 9.209250e-01
    outer loop
      vertex 2.470303e+02 2.449533e+01 -3.070309e+02
      vertex 2.470303e+02 2.520258e+01 -3.069742e+02
      vertex 2.465000e+02 2.518503e+01 -3.067553e+02
    endloop
  endfacet
  facet normal 3.826834e-01 -7.382773e-02 9.209250e-01
    outer loop
      vertex 2.470303e+02 2.449533e+01 -3.070309e+02
      vertex 2.465000e+02 2.518503e+01 -3.067553e+02
      vertex 2.465000e+02 2.447777e+01 -3.068120e+02
    endloop
  endfacet
  facet normal -8.598851e-13 -9.968020e-01 -7.991055e-02
    outer loop
      vertex 9.392694e+01 2.506116e+01 -3.052102e+02
      vertex 9.385312e+01 2.519295e+01 -3.068541e+02
      vertex 9.422577e+01 2.518503e+01 -3.067553e+02
    endloop
  endfacet
  facet normal -2.570681e-01 -7.722502e-02 9.633028e-01
    outer loop
      vertex 9.422577e+01 2.447777e+01 -3.068120e+02
      vertex 9.422577e+01 2.518503e+01 -3.067553e+02
      vertex 9.385312e+01 2.519295e+01 -3.068541e+02
    endloop
  endfacet
  facet normal -8.907525e-13 -9.968020e-01 -7.991055e-02
    outer loop
      vertex 2.098500e+02 2.506116e+01 -3.052102e+02
      vertex 9.392694e+01 2.506116e+01 -3.052102e+02
      vertex 9.422577e+01 2.518503e+01 -3.067553e+02
    endloop
  endfacet
  facet normal -7.141379e-14 -7.991055e-02 9.968020e-01
    outer loop
      vertex 9.422577e+01 2.447777e+01 -3.068120e+02
      vertex 2.465000e+02 2.447777e+01 -3.068120e+02
      vertex 9.422577e+01 2.518503e+01 -3.067553e+02
    endloop
  endfacet
  facet normal -9.356005e-13 -9.968020e-01 -7.991055e-02
    outer loop
      vertex 9.392694e+01 2.506116e+01 -3.052102e+02
      vertex 9.354729e+01 2.521299e+01 -3.071041e+02
      vertex 9.385312e+01 2.519295e+01 -3.068541e+02
    endloop
  endfacet
  facet normal -6.341463e-01 -4.720043e-02 7.717711e-01
    outer loop
      vertex 9.375746e+01 2.449089e+01 -3.069756e+02
      vertex 9.385312e+01 2.519295e+01 -3.068541e+02
      vertex 9.354729e+01 2.521299e+01 -3.071041e+02
    endloop
  endfacet
  facet normal -3.305452e-01 -1.170887e-01 9.364988e-01
    outer loop
      vertex 9.375746e+01 2.449089e+01 -3.069756e+02
      vertex 9.422577e+01 2.447777e+01 -3.068120e+02
      vertex 9.385312e+01 2.519295e+01 -3.068541e+02
    endloop
  endfacet
  facet normal -9.806147e-01 -1.565816e-02 1.953195e-01
    outer loop
      vertex 9.354729e+01 2.667829e+01 -3.069867e+02
      vertex 9.354729e+01 2.521299e+01 -3.071041e+02
      vertex 9.392694e+01 2.506116e+01 -3.052102e+02
    endloop
  endfacet
  facet normal -9.813576e-01 -1.535805e-02 1.915758e-01
    outer loop
      vertex 9.039626e+01 2.796403e+01 -3.230249e+02
      vertex 9.354729e+01 2.521299e+01 -3.071041e+02
      vertex 9.354729e+01 2.667829e+01 -3.069867e+02
    endloop
  endfacet
  facet normal -8.945416e-01 -4.352282e-01 1.018417e-01
    outer loop
      vertex 9.352839e+01 2.522290e+01 -3.072277e+02
      vertex 9.354729e+01 2.521299e+01 -3.071041e+02
      vertex 9.039626e+01 2.796403e+01 -3.230249e+02
    endloop
  endfacet
  facet normal -9.583058e-01 -2.565059e-01 1.259158e-01
    outer loop
      vertex 9.375746e+01 2.449089e+01 -3.069756e+02
      vertex 9.354729e+01 2.521299e+01 -3.071041e+02
      vertex 9.352839e+01 2.522290e+01 -3.072277e+02
    endloop
  endfacet
  facet normal -7.140892e-14 -7.991055e-02 9.968020e-01
    outer loop
      vertex 9.392694e+01 2.652646e+01 -3.050927e+02
      vertex 9.392694e+01 2.506116e+01 -3.052102e+02
      vertex 2.098500e+02 2.506116e+01 -3.052102e+02
    endloop
  endfacet
  facet normal -9.806147e-01 -1.565816e-02 1.953195e-01
    outer loop
      vertex 9.354729e+01 2.667829e+01 -3.069867e+02
      vertex 9.392694e+01 2.506116e+01 -3.052102e+02
      vertex 9.392694e+01 2.652646e+01 -3.050927e+02
    endloop
  endfacet
  facet normal -7.382605e-14 -7.991055e-02 9.968020e-01
    outer loop
      vertex 2.098500e+02 2.652646e+01 -3.050927e+02
      vertex 2.098500e+02 2.506116e+01 -3.052102e+02
      vertex 2.099500e+02 2.506116e+01 -3.052102e+02
    endloop
  endfacet
  facet normal -6.944394e-14 -7.991055e-02 9.968020e-01
    outer loop
      vertex 9.392694e+01 2.652646e+01 -3.050927e+02
      vertex 2.098500e+02 2.506116e+01 -3.052102e+02
      vertex 2.098500e+02 2.652646e+01 -3.050927e+02
    endloop
  endfacet
  facet normal -1.000000e+00 8.865426e-13 7.107139e-14
    outer loop
      vertex 2.099500e+02 2.652646e+01 -3.050927e+02
      vertex 2.099500e+02 2.506116e+01 -3.052102e+02
      vertex 2.099500e+02 2.505317e+01 -3.051105e+02
    endloop
  endfacet
  facet normal -7.381382e-14 -7.991055e-02 9.968020e-01
    outer loop
      vertex 2.098500e+02 2.652646e+01 -3.050927e+02
      vertex 2.099500e+02 2.506116e+01 -3.052102e+02
      vertex 2.099500e+02 2.652646e+01 -3.050927e+02
    endloop
  endfacet
  facet normal -1.000000e+00 8.937148e-13 -1.839435e-14
    outer loop
      vertex 2.099500e+02 2.644256e+01 -3.040461e+02
      vertex 2.099500e+02 2.505317e+01 -3.051105e+02
      vertex 2.099500e+02 2.497726e+01 -3.041636e+02
    endloop
  endfacet
  facet normal -1.000000e+00 8.937148e-13 -1.839435e-14
    outer loop
      vertex 2.099500e+02 2.651847e+01 -3.049931e+02
      vertex 2.099500e+02 2.505317e+01 -3.051105e+02
      vertex 2.099500e+02 2.644256e+01 -3.040461e+02
    endloop
  endfacet
  facet normal -1.000000e+00 8.865426e-13 7.107139e-14
    outer loop
      vertex 2.099500e+02 2.652646e+01 -3.050927e+02
      vertex 2.099500e+02 2.505317e+01 -3.051105e+02
      vertex 2.099500e+02 2.651847e+01 -3.049931e+02
    endloop
  endfacet
  facet normal -7.140745e-14 -7.991055e-02 9.968020e-01
    outer loop
      vertex 1.438500e+02 2.834846e+01 -3.278203e+02
      vertex 1.438500e+02 2.593255e+01 -3.280140e+02
      vertex 2.335910e+02 2.593255e+01 -3.280140e+02
    endloop
  endfacet
  facet normal -8.926500e-13 -9.973724e-01 -7.244498e-02
    outer loop
      vertex 9.317804e+01 2.453791e+01 -3.088135e+02
      vertex 1.438500e+02 2.593255e+01 -3.280140e+02
      vertex 1.426004e+02 2.584200e+01 -3.267673e+02
    endloop
  endfacet
  facet normal 7.072286e-01 -5.649555e-02 7.047240e-01
    outer loop
      vertex 1.426004e+02 2.824858e+01 -3.265743e+02
      vertex 1.426004e+02 2.584200e+01 -3.267673e+02
      vertex 1.438500e+02 2.593255e+01 -3.280140e+02
    endloop
  endfacet
  facet normal 7.072286e-01 -5.649556e-02 7.047241e-01
    outer loop
      vertex 1.426004e+02 2.824858e+01 -3.265743e+02
      vertex 1.438500e+02 2.593255e+01 -3.280140e+02
      vertex 1.438500e+02 2.834846e+01 -3.278203e+02
    endloop
  endfacet
  facet normal -1.000000e+00 8.943686e-13 -3.426682e-15
    outer loop
      vertex 2.335910e+02 2.834846e+01 -3.278203e+02
      vertex 2.335910e+02 2.593255e+01 -3.280140e+02
      vertex 2.335910e+02 2.575144e+01 -3.255205e+02
    endloop
  endfacet
  facet normal -7.141377e-14 -7.991055e-02 9.968020e-01
    outer loop
      vertex 2.335910e+02 2.834846e+01 -3.278203e+02
      vertex 1.438500e+02 2.834846e+01 -3.278203e+02
      vertex 2.335910e+02 2.593255e+01 -3.280140e+02
    endloop
  endfacet
  facet normal -8.912430e-13 -9.973724e-01 -7.244498e-02
    outer loop
      vertex 9.317804e+01 2.453791e+01 -3.088135e+02
      vertex 1.438500e+02 2.575144e+01 -3.255205e+02
      vertex 2.335910e+02 2.575144e+01 -3.255205e+02
    endloop
  endfacet
  facet normal 7.140742e-14 7.991055e-02 -9.968020e-01
    outer loop
      vertex 2.335910e+02 2.814869e+01 -3.253283e+02
      vertex 2.335910e+02 2.575144e+01 -3.255205e+02
      vertex 1.438500e+02 2.575144e+01 -3.255205e+02
    endloop
  endfacet
  facet normal -1.000000e+00 9.007500e-13 3.779415e-15
    outer loop
      vertex 2.335910e+02 2.834846e+01 -3.278203e+02
      vertex 2.335910e+02 2.575144e+01 -3.255205e+02
      vertex 2.335910e+02 2.814869e+01 -3.253283e+02
    endloop
  endfacet
  facet normal -8.901468e-13 -9.973724e-01 -7.244498e-02
    outer loop
      vertex 9.317804e+01 2.453791e+01 -3.088135e+02
      vertex 1.426004e+02 2.584200e+01 -3.267673e+02
      vertex 1.438500e+02 2.575144e+01 -3.255205e+02
    endloop
  endfacet
  facet normal 7.072286e-01 5.649556e-02 -7.047240e-01
    outer loop
      vertex 1.438500e+02 2.814869e+01 -3.253283e+02
      vertex 1.438500e+02 2.575144e+01 -3.255205e+02
      vertex 1.426004e+02 2.584200e+01 -3.267673e+02
    endloop
  endfacet
  facet normal 7.141377e-14 7.991055e-02 -9.968020e-01
    outer loop
      vertex 2.335910e+02 2.814869e+01 -3.253283e+02
      vertex 1.438500e+02 2.575144e+01 -3.255205e+02
      vertex 1.438500e+02 2.814869e+01 -3.253283e+02
    endloop
  endfacet
  facet normal 7.072286e-01 5.649562e-02 -7.047241e-01
    outer loop
      vertex 1.438500e+02 2.814869e+01 -3.253283e+02
      vertex 1.426004e+02 2.584200e+01 -3.267673e+02
      vertex 1.426004e+02 2.824858e+01 -3.265743e+02
    endloop
  endfacet
  facet normal -8.896491e-13 -9.973724e-01 -7.244498e-02
    outer loop
      vertex 9.033841e+01 2.560986e+01 -3.235714e+02
      vertex 9.150601e+01 2.946435e+01 -3.766373e+02
      vertex 9.317804e+01 2.453791e+01 -3.088135e+02
    endloop
  endfacet
  facet normal -9.820626e-01 -1.940254e-02 1.875545e-01
    outer loop
      vertex 9.039626e+01 2.796403e+01 -3.230249e+02
      vertex 9.033841e+01 2.560986e+01 -3.235714e+02
      vertex 9.317804e+01 2.453791e+01 -3.088135e+02
    endloop
  endfacet
  facet normal -9.819444e-01 -1.511665e-02 1.885646e-01
    outer loop
      vertex 9.317804e+01 2.463759e+01 -3.088056e+02
      vertex 9.039626e+01 2.796403e+01 -3.230249e+02
      vertex 9.317804e+01 2.453791e+01 -3.088135e+02
    endloop
  endfacet
  facet normal -8.875998e-13 -9.973724e-01 -7.244498e-02
    outer loop
      vertex 9.033841e+01 2.560986e+01 -3.235714e+02
      vertex 8.978996e+01 2.884769e+01 -3.681476e+02
      vertex 9.150601e+01 2.946435e+01 -3.766373e+02
    endloop
  endfacet
  facet normal -9.802764e-01 1.579284e-02 -1.969995e-01
    outer loop
      vertex 9.150601e+01 2.954910e+01 -3.766305e+02
      vertex 9.150601e+01 2.946435e+01 -3.766373e+02
      vertex 8.978996e+01 2.884769e+01 -3.681476e+02
    endloop
  endfacet
  facet normal -8.926394e-13 -9.973724e-01 -7.244498e-02
    outer loop
      vertex 8.870000e+01 2.659488e+01 -3.371325e+02
      vertex 8.870000e+01 2.820272e+01 -3.592681e+02
      vertex 8.978996e+01 2.884769e+01 -3.681476e+02
    endloop
  endfacet
  facet normal -9.891423e-01 9.181600e-02 -1.147487e-01
    outer loop
      vertex 9.050521e+01 3.188107e+01 -3.718859e+02
      vertex 8.978996e+01 2.884769e+01 -3.681476e+02
      vertex 8.870000e+01 2.820272e+01 -3.592681e+02
    endloop
  endfacet
  facet normal -8.937796e-13 -9.973724e-01 -7.244498e-02
    outer loop
      vertex 9.033841e+01 2.560986e+01 -3.235714e+02
      vertex 8.870000e+01 2.659488e+01 -3.371325e+02
      vertex 8.978996e+01 2.884769e+01 -3.681476e+02
    endloop
  endfacet
  facet normal -9.798014e-01 -1.474628e-02 -1.994285e-01
    outer loop
      vertex 9.150601e+01 2.954910e+01 -3.766305e+02
      vertex 8.978996e+01 2.884769e+01 -3.681476e+02
      vertex 9.050521e+01 3.188107e+01 -3.718859e+02
    endloop
  endfacet
  facet normal -7.071068e-01 -7.052488e-01 -5.122634e-02
    outer loop
      vertex 8.825064e+01 2.788429e+01 -3.486814e+02
      vertex 8.870000e+01 2.820272e+01 -3.592681e+02
      vertex 8.870000e+01 2.659488e+01 -3.371325e+02
    endloop
  endfacet
  facet normal -9.903078e-01 1.109848e-02 -1.384462e-01
    outer loop
      vertex 9.050521e+01 3.188107e+01 -3.718859e+02
      vertex 8.870000e+01 2.820272e+01 -3.592681e+02
      vertex 8.870000e+01 3.085251e+01 -3.590557e+02
    endloop
  endfacet
  facet normal -9.990990e-01 3.391709e-03 -4.230498e-02
    outer loop
      vertex 8.825064e+01 2.788429e+01 -3.486814e+02
      vertex 8.870000e+01 3.085251e+01 -3.590557e+02
      vertex 8.870000e+01 2.820272e+01 -3.592681e+02
    endloop
  endfacet
  facet normal -9.928177e-01 -9.560530e-03 1.192543e-01
    outer loop
      vertex 8.870000e+01 2.907903e+01 -3.369333e+02
      vertex 8.870000e+01 2.659488e+01 -3.371325e+02
      vertex 9.033841e+01 2.560986e+01 -3.235714e+02
    endloop
  endfacet
  facet normal -9.992447e-01 -3.104992e-03 3.873497e-02
    outer loop
      vertex 8.825030e+01 2.955483e+01 -3.484961e+02
      vertex 8.870000e+01 2.659488e+01 -3.371325e+02
      vertex 8.870000e+01 2.907903e+01 -3.369333e+02
    endloop
  endfacet
  facet normal -9.992532e-01 -4.464007e-03 3.838131e-02
    outer loop
      vertex 8.825030e+01 2.955483e+01 -3.484961e+02
      vertex 8.825064e+01 2.788429e+01 -3.486814e+02
      vertex 8.870000e+01 2.659488e+01 -3.371325e+02
    endloop
  endfacet
  facet normal -9.926734e-01 -3.640276e-03 1.207736e-01
    outer loop
      vertex 8.870000e+01 2.907903e+01 -3.369333e+02
      vertex 9.033841e+01 2.560986e+01 -3.235714e+02
      vertex 9.039626e+01 2.796403e+01 -3.230249e+02
    endloop
  endfacet
  facet normal 7.141102e-14 7.991055e-02 -9.968020e-01
    outer loop
      vertex 2.465000e+02 3.138121e+01 -3.784900e+02
      vertex 2.465000e+02 2.970892e+01 -3.786241e+02
      vertex 9.258979e+01 2.970892e+01 -3.786241e+02
    endloop
  endfacet
  facet normal -8.907786e-13 -9.968020e-01 -7.991055e-02
    outer loop
      vertex 9.150601e+01 2.954910e+01 -3.766305e+02
      vertex 9.258979e+01 2.970892e+01 -3.786241e+02
      vertex 2.465000e+02 2.970892e+01 -3.786241e+02
    endloop
  endfacet
  facet normal 7.141098e-14 7.991055e-02 -9.968020e-01
    outer loop
      vertex 9.258979e+01 3.138121e+01 -3.784900e+02
      vertex 2.465000e+02 3.138121e+01 -3.784900e+02
      vertex 9.258979e+01 2.970892e+01 -3.786241e+02
    endloop
  endfacet
  facet normal -3.241685e-01 7.559533e-02 -9.429741e-01
    outer loop
      vertex 9.212980e+01 2.969632e+01 -3.784670e+02
      vertex 9.258979e+01 3.138121e+01 -3.784900e+02
      vertex 9.258979e+01 2.970892e+01 -3.786241e+02
    endloop
  endfacet
  facet normal -8.928061e-13 -9.968020e-01 -7.991055e-02
    outer loop
      vertex 9.212980e+01 2.969632e+01 -3.784670e+02
      vertex 9.258979e+01 2.970892e+01 -3.786241e+02
      vertex 9.150601e+01 2.954910e+01 -3.766305e+02
    endloop
  endfacet
  facet normal 3.826834e-01 7.382773e-02 -9.209250e-01
    outer loop
      vertex 2.470303e+02 3.136365e+01 -3.782711e+02
      vertex 2.465000e+02 2.970892e+01 -3.786241e+02
      vertex 2.465000e+02 3.138121e+01 -3.784900e+02
    endloop
  endfacet
  facet normal 3.826834e-01 7.382773e-02 -9.209250e-01
    outer loop
      vertex 2.470303e+02 2.969137e+01 -3.784051e+02
      vertex 2.465000e+02 2.970892e+01 -3.786241e+02
      vertex 2.470303e+02 3.136365e+01 -3.782711e+02
    endloop
  endfacet
  facet normal -8.904147e-13 -9.968020e-01 -7.991055e-02
    outer loop
      vertex 2.470303e+02 2.969137e+01 -3.784051e+02
      vertex 9.150601e+01 2.954910e+01 -3.766305e+02
      vertex 2.465000e+02 2.970892e+01 -3.786241e+02
    endloop
  endfacet
  facet normal -8.907785e-13 -9.968020e-01 -7.991055e-02
    outer loop
      vertex 2.465000e+02 3.158098e+01 -3.809820e+02
      vertex 2.465000e+02 3.138121e+01 -3.784900e+02
      vertex 9.258979e+01 3.138121e+01 -3.784900e+02
    endloop
  endfacet
  facet normal -8.931239e-13 -9.968020e-01 -7.991055e-02
    outer loop
      vertex 2.470303e+02 3.159854e+01 -3.812010e+02
      vertex 2.470303e+02 3.136365e+01 -3.782711e+02
      vertex 2.465000e+02 3.138121e+01 -3.784900e+02
    endloop
  endfacet
  facet normal -8.822507e-13 -9.968020e-01 -7.991055e-02
    outer loop
      vertex 2.465000e+02 3.158098e+01 -3.809820e+02
      vertex 2.470303e+02 3.159854e+01 -3.812010e+02
      vertex 2.465000e+02 3.138121e+01 -3.784900e+02
    endloop
  endfacet
  facet normal -9.089930e-13 -9.968020e-01 -7.991055e-02
    outer loop
      vertex 9.239821e+01 3.149726e+01 -3.799377e+02
      vertex 9.297027e+01 3.165785e+01 -3.819409e+02
      vertex 9.258979e+01 3.138121e+01 -3.784900e+02
    endloop
  endfacet
  facet normal -8.817334e-13 -9.968020e-01 -7.991055e-02
    outer loop
      vertex 9.308937e+01 3.160504e+01 -3.812821e+02
      vertex 9.258979e+01 3.138121e+01 -3.784900e+02
      vertex 9.297027e+01 3.165785e+01 -3.819409e+02
    endloop
  endfacet
  facet normal -8.732566e-13 -9.968020e-01 -7.991055e-02
    outer loop
      vertex 9.212980e+01 3.136861e+01 -3.783329e+02
      vertex 9.239821e+01 3.149726e+01 -3.799377e+02
      vertex 9.258979e+01 3.138121e+01 -3.784900e+02
    endloop
  endfacet
  facet normal -3.241685e-01 7.559533e-02 -9.429741e-01
    outer loop
      vertex 9.212980e+01 2.969632e+01 -3.784670e+02
      vertex 9.212980e+01 3.136861e+01 -3.783329e+02
      vertex 9.258979e+01 3.138121e+01 -3.784900e+02
    endloop
  endfacet
  facet normal -8.907941e-13 -9.968020e-01 -7.991055e-02
    outer loop
      vertex 9.368971e+01 3.158098e+01 -3.809820e+02
      vertex 2.465000e+02 3.158098e+01 -3.809820e+02
      vertex 9.258979e+01 3.138121e+01 -3.784900e+02
    endloop
  endfacet
  facet normal -8.879017e-13 -9.968020e-01 -7.991055e-02
    outer loop
      vertex 9.308937e+01 3.160504e+01 -3.812821e+02
      vertex 9.368971e+01 3.158098e+01 -3.809820e+02
      vertex 9.258979e+01 3.138121e+01 -3.784900e+02
    endloop
  endfacet
  facet normal -9.617881e-01 2.307612e-02 -2.728206e-01
    outer loop
      vertex 9.301086e+01 3.269160e+01 -3.819965e+02
      vertex 9.297027e+01 3.165785e+01 -3.819409e+02
      vertex 9.239821e+01 3.149726e+01 -3.799377e+02
    endloop
  endfacet
  facet normal -9.841484e-01 -1.417189e-02 1.767797e-01
    outer loop
      vertex 9.308937e+01 3.046370e+01 -3.813736e+02
      vertex 9.308937e+01 3.160504e+01 -3.812821e+02
      vertex 9.297027e+01 3.165785e+01 -3.819409e+02
    endloop
  endfacet
  facet normal -9.841484e-01 -1.417189e-02 1.767797e-01
    outer loop
      vertex 9.308937e+01 3.046370e+01 -3.813736e+02
      vertex 9.297027e+01 3.165785e+01 -3.819409e+02
      vertex 9.297027e+01 3.051651e+01 -3.820324e+02
    endloop
  endfacet
  facet normal -9.594092e-01 2.253619e-02 -2.811158e-01
    outer loop
      vertex 9.301086e+01 3.269160e+01 -3.819965e+02
      vertex 9.297027e+01 3.051651e+01 -3.820324e+02
      vertex 9.297027e+01 3.165785e+01 -3.819409e+02
    endloop
  endfacet
  facet normal -9.154689e-13 -9.968020e-01 -7.991055e-02
    outer loop
      vertex 9.212980e+01 3.136861e+01 -3.783329e+02
      vertex 9.186316e+01 3.133612e+01 -3.779276e+02
      vertex 9.239821e+01 3.149726e+01 -3.799377e+02
    endloop
  endfacet
  facet normal -9.657717e-01 6.066608e-02 -2.521996e-01
    outer loop
      vertex 9.301086e+01 3.269160e+01 -3.819965e+02
      vertex 9.239821e+01 3.149726e+01 -3.799377e+02
      vertex 9.186316e+01 3.133612e+01 -3.779276e+02
    endloop
  endfacet
  facet normal -8.362442e-01 4.381952e-02 -5.466035e-01
    outer loop
      vertex 9.186316e+01 2.966383e+01 -3.780616e+02
      vertex 9.186316e+01 3.133612e+01 -3.779276e+02
      vertex 9.212980e+01 3.136861e+01 -3.783329e+02
    endloop
  endfacet
  facet normal -9.647203e-01 1.305783e-01 -2.286133e-01
    outer loop
      vertex 9.050521e+01 3.188107e+01 -3.718859e+02
      vertex 9.301086e+01 3.269160e+01 -3.819965e+02
      vertex 9.186316e+01 3.133612e+01 -3.779276e+02
    endloop
  endfacet
  facet normal -9.744565e-01 3.357712e-02 -2.220522e-01
    outer loop
      vertex 9.150601e+01 2.954910e+01 -3.766305e+02
      vertex 9.050521e+01 3.188107e+01 -3.718859e+02
      vertex 9.186316e+01 3.133612e+01 -3.779276e+02
    endloop
  endfacet
  facet normal -9.711938e-01 2.186803e-02 -2.372856e-01
    outer loop
      vertex 9.168351e+01 2.960691e+01 -3.773516e+02
      vertex 9.150601e+01 2.954910e+01 -3.766305e+02
      vertex 9.186316e+01 3.133612e+01 -3.779276e+02
    endloop
  endfacet
  facet normal -9.696338e-01 1.954305e-02 -2.437794e-01
    outer loop
      vertex 9.186316e+01 2.966383e+01 -3.780616e+02
      vertex 9.168351e+01 2.960691e+01 -3.773516e+02
      vertex 9.186316e+01 3.133612e+01 -3.779276e+02
    endloop
  endfacet
  facet normal -8.362442e-01 4.381952e-02 -5.466035e-01
    outer loop
      vertex 9.212980e+01 2.969632e+01 -3.784670e+02
      vertex 9.186316e+01 2.966383e+01 -3.780616e+02
      vertex 9.212980e+01 3.136861e+01 -3.783329e+02
    endloop
  endfacet
  facet normal 3.826834e-01 -7.382773e-02 9.209250e-01
    outer loop
      vertex 2.470303e+02 3.045720e+01 -3.812925e+02
      vertex 2.470303e+02 3.159854e+01 -3.812010e+02
      vertex 2.465000e+02 3.158098e+01 -3.809820e+02
    endloop
  endfacet
  facet normal -7.141222e-14 -7.991055e-02 9.968020e-01
    outer loop
      vertex 2.465000e+02 3.043964e+01 -3.810735e+02
      vertex 2.465000e+02 3.158098e+01 -3.809820e+02
      vertex 9.368971e+01 3.158098e+01 -3.809820e+02
    endloop
  endfacet
  facet normal 3.826834e-01 -7.382773e-02 9.209250e-01
    outer loop
      vertex 2.470303e+02 3.045720e+01 -3.812925e+02
      vertex 2.465000e+02 3.158098e+01 -3.809820e+02
      vertex 2.465000e+02 3.043964e+01 -3.810735e+02
    endloop
  endfacet
  facet normal -4.482048e-01 -7.143452e-02 8.910722e-01
    outer loop
      vertex 9.368971e+01 3.043964e+01 -3.810735e+02
      vertex 9.368971e+01 3.158098e+01 -3.809820e+02
      vertex 9.308937e+01 3.160504e+01 -3.812821e+02
    endloop
  endfacet
  facet normal -7.140850e-14 -7.991055e-02 9.968020e-01
    outer loop
      vertex 9.368971e+01 3.043964e+01 -3.810735e+02
      vertex 2.465000e+02 3.043964e+01 -3.810735e+02
      vertex 9.368971e+01 3.158098e+01 -3.809820e+02
    endloop
  endfacet
  facet normal -4.482048e-01 -7.143452e-02 8.910722e-01
    outer loop
      vertex 9.308937e+01 3.046370e+01 -3.813736e+02
      vertex 9.368971e+01 3.043964e+01 -3.810735e+02
      vertex 9.308937e+01 3.160504e+01 -3.812821e+02
    endloop
  endfacet
  facet normal -9.549956e-13 -9.968020e-01 -7.991055e-02
    outer loop
      vertex 9.212980e+01 2.969632e+01 -3.784670e+02
      vertex 9.150601e+01 2.954910e+01 -3.766305e+02
      vertex 9.186316e+01 2.966383e+01 -3.780616e+02
    endloop
  endfacet
  facet normal 9.591762e-13 -9.968020e-01 -7.991055e-02
    outer loop
      vertex 9.186316e+01 2.966383e+01 -3.780616e+02
      vertex 9.150601e+01 2.954910e+01 -3.766305e+02
      vertex 9.168351e+01 2.960691e+01 -3.773516e+02
    endloop
  endfacet
  facet normal -7.710182e-13 -9.968020e-01 -7.991055e-02
    outer loop
      vertex 9.308937e+01 3.046370e+01 -3.813736e+02
      vertex 9.297027e+01 3.051651e+01 -3.820324e+02
      vertex 9.301086e+01 3.052755e+01 -3.821700e+02
    endloop
  endfacet
  facet normal -9.594092e-01 2.253619e-02 -2.811158e-01
    outer loop
      vertex 9.301086e+01 3.269160e+01 -3.819965e+02
      vertex 9.301086e+01 3.052755e+01 -3.821700e+02
      vertex 9.297027e+01 3.051651e+01 -3.820324e+02
    endloop
  endfacet
  facet normal 8.806924e-13 9.968020e-01 7.991055e-02
    outer loop
      vertex 9.354729e+01 2.667829e+01 -3.069867e+02
      vertex 9.392694e+01 2.652646e+01 -3.050927e+02
      vertex 9.301086e+01 3.269160e+01 -3.819965e+02
    endloop
  endfacet
  facet normal 8.909835e-13 9.968020e-01 7.991055e-02
    outer loop
      vertex 1.426004e+02 2.824858e+01 -3.265743e+02
      vertex 9.301086e+01 3.269160e+01 -3.819965e+02
      vertex 9.392694e+01 2.652646e+01 -3.050927e+02
    endloop
  endfacet
  facet normal 8.881752e-13 9.968020e-01 7.991055e-02
    outer loop
      vertex 9.050521e+01 3.188107e+01 -3.718859e+02
      vertex 9.354729e+01 2.667829e+01 -3.069867e+02
      vertex 9.301086e+01 3.269160e+01 -3.819965e+02
    endloop
  endfacet
  facet normal 8.902659e-13 9.968020e-01 7.991055e-02
    outer loop
      vertex 1.426004e+02 2.824858e+01 -3.265743e+02
      vertex 1.438500e+02 2.834846e+01 -3.278203e+02
      vertex 9.301086e+01 3.269160e+01 -3.819965e+02
    endloop
  endfacet
  facet normal 8.908134e-13 9.968020e-01 7.991055e-02
    outer loop
      vertex 2.335910e+02 2.834846e+01 -3.278203e+02
      vertex 9.301086e+01 3.269160e+01 -3.819965e+02
      vertex 1.438500e+02 2.834846e+01 -3.278203e+02
    endloop
  endfacet
  facet normal 9.205325e-13 9.968020e-01 7.991055e-02
    outer loop
      vertex 1.438500e+02 2.814869e+01 -3.253283e+02
      vertex 2.098500e+02 2.652646e+01 -3.050927e+02
      vertex 2.099500e+02 2.652646e+01 -3.050927e+02
    endloop
  endfacet
  facet normal 8.908134e-13 9.968020e-01 7.991055e-02
    outer loop
      vertex 2.335910e+02 2.814869e+01 -3.253283e+02
      vertex 1.438500e+02 2.814869e+01 -3.253283e+02
      vertex 2.099500e+02 2.652646e+01 -3.050927e+02
    endloop
  endfacet
  facet normal 8.907869e-13 9.968020e-01 7.991055e-02
    outer loop
      vertex 1.438500e+02 2.814869e+01 -3.253283e+02
      vertex 9.392694e+01 2.652646e+01 -3.050927e+02
      vertex 2.098500e+02 2.652646e+01 -3.050927e+02
    endloop
  endfacet
  facet normal 8.894868e-13 9.968020e-01 7.991055e-02
    outer loop
      vertex 1.438500e+02 2.814869e+01 -3.253283e+02
      vertex 1.426004e+02 2.824858e+01 -3.265743e+02
      vertex 9.392694e+01 2.652646e+01 -3.050927e+02
    endloop
  endfacet
  facet normal 8.895351e-13 9.968020e-01 7.991055e-02
    outer loop
      vertex 9.050521e+01 3.188107e+01 -3.718859e+02
      vertex 9.039626e+01 2.796403e+01 -3.230249e+02
      vertex 9.354729e+01 2.667829e+01 -3.069867e+02
    endloop
  endfacet
  facet normal 8.821946e-13 9.968020e-01 7.991055e-02
    outer loop
      vertex 8.870000e+01 3.085251e+01 -3.590557e+02
      vertex 8.870000e+01 2.907903e+01 -3.369333e+02
      vertex 9.039626e+01 2.796403e+01 -3.230249e+02
    endloop
  endfacet
  facet normal 8.949002e-13 9.968020e-01 7.991055e-02
    outer loop
      vertex 9.050521e+01 3.188107e+01 -3.718859e+02
      vertex 8.870000e+01 3.085251e+01 -3.590557e+02
      vertex 9.039626e+01 2.796403e+01 -3.230249e+02
    endloop
  endfacet
  facet normal -9.814407e-01 -1.532413e-02 1.911528e-01
    outer loop
      vertex 9.349418e+01 2.452451e+01 -3.073949e+02
      vertex 9.349418e+01 2.523176e+01 -3.073382e+02
      vertex 9.039626e+01 2.796403e+01 -3.230249e+02
    endloop
  endfacet
  facet normal -6.214321e-01 7.418549e-01 2.519394e-01
    outer loop
      vertex 9.352839e+01 2.522290e+01 -3.072277e+02
      vertex 9.039626e+01 2.796403e+01 -3.230249e+02
      vertex 9.349418e+01 2.523176e+01 -3.073382e+02
    endloop
  endfacet
  facet normal -9.554021e-01 1.851005e-01 2.300972e-01
    outer loop
      vertex 9.333484e+01 2.458120e+01 -3.081021e+02
      vertex 9.349418e+01 2.452451e+01 -3.073949e+02
      vertex 9.039626e+01 2.796403e+01 -3.230249e+02
    endloop
  endfacet
  facet normal -9.588366e-01 1.700998e-01 2.273730e-01
    outer loop
      vertex 9.317804e+01 2.463759e+01 -3.088056e+02
      vertex 9.333484e+01 2.458120e+01 -3.081021e+02
      vertex 9.039626e+01 2.796403e+01 -3.230249e+02
    endloop
  endfacet
  facet normal -7.071068e-01 7.048455e-01 5.650529e-02
    outer loop
      vertex 8.825030e+01 2.955483e+01 -3.484961e+02
      vertex 8.870000e+01 2.907903e+01 -3.369333e+02
      vertex 8.870000e+01 3.085251e+01 -3.590557e+02
    endloop
  endfacet
  facet normal -9.991076e-01 4.454861e-03 -4.200118e-02
    outer loop
      vertex 8.825030e+01 2.955483e+01 -3.484961e+02
      vertex 8.870000e+01 3.085251e+01 -3.590557e+02
      vertex 8.825064e+01 2.788429e+01 -3.486814e+02
    endloop
  endfacet
  facet normal -8.476639e-01 -4.239524e-02 5.288371e-01
    outer loop
      vertex 9.375746e+01 2.449089e+01 -3.069756e+02
      vertex 9.349418e+01 2.523176e+01 -3.073382e+02
      vertex 9.349418e+01 2.452451e+01 -3.073949e+02
    endloop
  endfacet
  facet normal -9.404435e-01 -1.994679e-01 2.752792e-01
    outer loop
      vertex 9.375746e+01 2.449089e+01 -3.069756e+02
      vertex 9.352839e+01 2.522290e+01 -3.072277e+02
      vertex 9.349418e+01 2.523176e+01 -3.073382e+02
    endloop
  endfacet
endsolid P1040852002
