solid P1040852002
  facet normal 1.000000e+00 -8.907993e-13 -1.068613e-15
    outer loop
      vertex 2.472500e+02 1.958803e+01 -3.039050e+02
      vertex 2.472500e+02 1.812047e+01 -3.039896e+02
      vertex 2.472500e+02 1.831597e+01 -3.073839e+02
    endloop
  endfacet
  facet normal -8.658779e-13 -9.983454e-01 -5.750207e-02
    outer loop
      vertex 2.470303e+02 1.828548e+01 -3.068545e+02
      vertex 2.472500e+02 1.831597e+01 -3.073839e+02
      vertex 2.472500e+02 1.812047e+01 -3.039896e+02
    endloop
  endfacet
  facet normal 1.000000e+00 -8.942409e-13 1.897881e-16
    outer loop
      vertex 2.472500e+02 2.106641e+01 -3.765908e+02
      vertex 2.472500e+02 1.958803e+01 -3.039050e+02
      vertex 2.472500e+02 1.831597e+01 -3.073839e+02
    endloop
  endfacet
  facet normal 1.000000e+00 -8.935436e-13 2.174975e-16
    outer loop
      vertex 2.472500e+02 1.767950e+01 -3.086727e+02
      vertex 2.472500e+02 2.106641e+01 -3.765908e+02
      vertex 2.472500e+02 1.831597e+01 -3.073839e+02
    endloop
  endfacet
  facet normal 1.000000e+00 -8.824222e-13 -5.275093e-15
    outer loop
      vertex 2.472500e+02 1.760762e+01 -3.074247e+02
      vertex 2.472500e+02 1.767950e+01 -3.086727e+02
      vertex 2.472500e+02 1.831597e+01 -3.073839e+02
    endloop
  endfacet
  facet normal 9.238795e-01 -2.200509e-02 3.820502e-01
    outer loop
      vertex 2.470303e+02 1.828548e+01 -3.068545e+02
      vertex 2.472500e+02 1.760762e+01 -3.074247e+02
      vertex 2.472500e+02 1.831597e+01 -3.073839e+02
    endloop
  endfacet
  facet normal -5.138744e-14 -5.750207e-02 9.983454e-01
    outer loop
      vertex 2.100000e+02 1.958803e+01 -3.039050e+02
      vertex 2.472500e+02 1.812047e+01 -3.039896e+02
      vertex 2.472500e+02 1.958803e+01 -3.039050e+02
    endloop
  endfacet
  facet normal -5.443439e-14 -5.750207e-02 9.983454e-01
    outer loop
      vertex 2.100000e+02 1.812047e+01 -3.039896e+02
      vertex 2.472500e+02 1.812047e+01 -3.039896e+02
      vertex 2.100000e+02 1.958803e+01 -3.039050e+02
    endloop
  endfacet
  facet normal -8.920086e-13 -9.983454e-01 -5.750207e-02
    outer loop
      vertex 2.465000e+02 1.827285e+01 -3.066352e+02
      vertex 2.472500e+02 1.812047e+01 -3.039896e+02
      vertex 2.100000e+02 1.812047e+01 -3.039896e+02
    endloop
  endfacet
  facet normal -8.939753e-13 -9.983454e-01 -5.750207e-02
    outer loop
      vertex 2.470303e+02 1.828548e+01 -3.068545e+02
      vertex 2.472500e+02 1.812047e+01 -3.039896e+02
      vertex 2.465000e+02 1.827285e+01 -3.066352e+02
    endloop
  endfacet
  facet normal 1.000000e+00 -8.980365e-13 -6.261849e-17
    outer loop
      vertex 2.472500e+02 2.304317e+01 -3.817356e+02
      vertex 2.472500e+02 2.408760e+01 -3.820261e+02
      vertex 2.472500e+02 1.958803e+01 -3.039050e+02
    endloop
  endfacet
  facet normal 8.918550e-13 9.983454e-01 5.750207e-02
    outer loop
      vertex 2.335910e+02 2.341770e+01 -3.703953e+02
      vertex 2.472500e+02 1.958803e+01 -3.039050e+02
      vertex 2.472500e+02 2.408760e+01 -3.820261e+02
    endloop
  endfacet
  facet normal 1.000000e+00 -7.585747e-13 6.128517e-15
    outer loop
      vertex 2.472500e+02 2.281316e+01 -3.777422e+02
      vertex 2.472500e+02 2.304317e+01 -3.817356e+02
      vertex 2.472500e+02 1.958803e+01 -3.039050e+02
    endloop
  endfacet
  facet normal 1.000000e+00 -8.947970e-13 1.784765e-16
    outer loop
      vertex 2.472500e+02 2.106641e+01 -3.765908e+02
      vertex 2.472500e+02 2.281316e+01 -3.777422e+02
      vertex 2.472500e+02 1.958803e+01 -3.039050e+02
    endloop
  endfacet
  facet normal 8.921780e-13 9.983454e-01 5.750207e-02
    outer loop
      vertex 2.335910e+02 2.327395e+01 -3.678995e+02
      vertex 2.100000e+02 1.958803e+01 -3.039050e+02
      vertex 2.472500e+02 1.958803e+01 -3.039050e+02
    endloop
  endfacet
  facet normal 8.978151e-13 9.983454e-01 5.750207e-02
    outer loop
      vertex 2.335910e+02 2.341770e+01 -3.703953e+02
      vertex 2.335910e+02 2.327395e+01 -3.678995e+02
      vertex 2.472500e+02 1.958803e+01 -3.039050e+02
    endloop
  endfacet
  facet normal 1.000000e+00 -8.934204e-13 2.988080e-14
    outer loop
      vertex 2.472500e+02 2.190007e+01 -3.818015e+02
      vertex 2.472500e+02 2.192019e+01 -3.821509e+02
      vertex 2.472500e+02 2.408760e+01 -3.820261e+02
    endloop
  endfacet
  facet normal 4.990794e-14 5.750207e-02 -9.983454e-01
    outer loop
      vertex 9.301086e+01 2.192019e+01 -3.821509e+02
      vertex 2.472500e+02 2.408760e+01 -3.820261e+02
      vertex 2.472500e+02 2.192019e+01 -3.821509e+02
    endloop
  endfacet
  facet normal 1.000000e+00 -8.955921e-13 8.728226e-15
    outer loop
      vertex 2.472500e+02 2.304317e+01 -3.817356e+02
      vertex 2.472500e+02 2.190007e+01 -3.818015e+02
      vertex 2.472500e+02 2.408760e+01 -3.820261e+02
    endloop
  endfacet
  facet normal 5.064645e-14 5.750207e-02 -9.983454e-01
    outer loop
      vertex 9.301086e+01 2.408760e+01 -3.820261e+02
      vertex 2.472500e+02 2.408760e+01 -3.820261e+02
      vertex 9.301086e+01 2.192019e+01 -3.821509e+02
    endloop
  endfacet
  facet normal 8.921372e-13 9.983454e-01 5.750207e-02
    outer loop
      vertex 2.335910e+02 2.341770e+01 -3.703953e+02
      vertex 2.472500e+02 2.408760e+01 -3.820261e+02
      vertex 9.301086e+01 2.408760e+01 -3.820261e+02
    endloop
  endfacet
  facet normal -8.545408e-13 -9.983454e-01 -5.750207e-02
    outer loop
      vertex 2.470303e+02 2.186957e+01 -3.812720e+02
      vertex 2.472500e+02 2.192019e+01 -3.821509e+02
      vertex 2.472500e+02 2.190007e+01 -3.818015e+02
    endloop
  endfacet
  facet normal -8.921269e-13 -9.983454e-01 -5.750207e-02
    outer loop
      vertex 9.368971e+01 2.185694e+01 -3.810527e+02
      vertex 2.472500e+02 2.192019e+01 -3.821509e+02
      vertex 2.465000e+02 2.185694e+01 -3.810527e+02
    endloop
  endfacet
  facet normal -8.989957e-13 -9.983454e-01 -5.750207e-02
    outer loop
      vertex 2.470303e+02 2.186957e+01 -3.812720e+02
      vertex 2.465000e+02 2.185694e+01 -3.810527e+02
      vertex 2.472500e+02 2.192019e+01 -3.821509e+02
    endloop
  endfacet
  facet normal -8.920994e-13 -9.983454e-01 -5.750207e-02
    outer loop
      vertex 9.308937e+01 2.187425e+01 -3.813532e+02
      vertex 2.472500e+02 2.192019e+01 -3.821509e+02
      vertex 9.368971e+01 2.185694e+01 -3.810527e+02
    endloop
  endfacet
  facet normal -8.921336e-13 -9.983454e-01 -5.750207e-02
    outer loop
      vertex 9.308937e+01 2.187425e+01 -3.813532e+02
      vertex 9.301086e+01 2.192019e+01 -3.821509e+02
      vertex 2.472500e+02 2.192019e+01 -3.821509e+02
    endloop
  endfacet
  facet normal 9.238795e-01 -2.200509e-02 3.820502e-01
    outer loop
      vertex 2.470303e+02 2.301268e+01 -3.812062e+02
      vertex 2.472500e+02 2.190007e+01 -3.818015e+02
      vertex 2.472500e+02 2.304317e+01 -3.817356e+02
    endloop
  endfacet
  facet normal 9.238795e-01 -2.200509e-02 3.820502e-01
    outer loop
      vertex 2.470303e+02 2.186957e+01 -3.812720e+02
      vertex 2.472500e+02 2.190007e+01 -3.818015e+02
      vertex 2.470303e+02 2.301268e+01 -3.812062e+02
    endloop
  endfacet
  facet normal -8.725820e-13 -9.983454e-01 -5.750207e-02
    outer loop
      vertex 2.470303e+02 2.284366e+01 -3.782717e+02
      vertex 2.472500e+02 2.304317e+01 -3.817356e+02
      vertex 2.472500e+02 2.281316e+01 -3.777422e+02
    endloop
  endfacet
  facet normal -8.709665e-13 -9.983454e-01 -5.750207e-02
    outer loop
      vertex 2.470303e+02 2.301268e+01 -3.812062e+02
      vertex 2.472500e+02 2.304317e+01 -3.817356e+02
      vertex 2.470303e+02 2.284366e+01 -3.782717e+02
    endloop
  endfacet
  facet normal 1.000000e+00 -8.834164e-13 1.744269e-14
    outer loop
      vertex 2.472500e+02 2.106641e+01 -3.765908e+02
      vertex 2.472500e+02 2.113829e+01 -3.778387e+02
      vertex 2.472500e+02 2.281316e+01 -3.777422e+02
    endloop
  endfacet
  facet normal 9.238795e-01 2.200509e-02 -3.820502e-01
    outer loop
      vertex 2.470303e+02 2.116878e+01 -3.783682e+02
      vertex 2.472500e+02 2.281316e+01 -3.777422e+02
      vertex 2.472500e+02 2.113829e+01 -3.778387e+02
    endloop
  endfacet
  facet normal 9.238795e-01 2.200509e-02 -3.820502e-01
    outer loop
      vertex 2.470303e+02 2.116878e+01 -3.783682e+02
      vertex 2.470303e+02 2.284366e+01 -3.782717e+02
      vertex 2.472500e+02 2.281316e+01 -3.777422e+02
    endloop
  endfacet
  facet normal -8.921290e-13 -9.983454e-01 -5.750207e-02
    outer loop
      vertex 9.150601e+01 2.106641e+01 -3.765908e+02
      vertex 2.472500e+02 2.113829e+01 -3.778387e+02
      vertex 2.472500e+02 2.106641e+01 -3.765908e+02
    endloop
  endfacet
  facet normal -8.922207e-13 -9.983454e-01 -5.750207e-02
    outer loop
      vertex 2.470303e+02 2.116878e+01 -3.783682e+02
      vertex 2.472500e+02 2.113829e+01 -3.778387e+02
      vertex 9.150601e+01 2.106641e+01 -3.765908e+02
    endloop
  endfacet
  facet normal 1.000000e+00 -1.004168e-12 -5.520175e-15
    outer loop
      vertex 2.472500e+02 1.757967e+01 -3.086784e+02
      vertex 2.472500e+02 2.098153e+01 -3.765957e+02
      vertex 2.472500e+02 2.106641e+01 -3.765908e+02
    endloop
  endfacet
  facet normal 5.211303e-14 5.750207e-02 -9.983454e-01
    outer loop
      vertex 9.150601e+01 2.098153e+01 -3.765957e+02
      vertex 2.472500e+02 2.106641e+01 -3.765908e+02
      vertex 2.472500e+02 2.098153e+01 -3.765957e+02
    endloop
  endfacet
  facet normal 1.000000e+00 -8.541900e-13 2.179966e-15
    outer loop
      vertex 2.472500e+02 1.767950e+01 -3.086727e+02
      vertex 2.472500e+02 1.757967e+01 -3.086784e+02
      vertex 2.472500e+02 2.106641e+01 -3.765908e+02
    endloop
  endfacet
  facet normal 5.138428e-14 5.750207e-02 -9.983454e-01
    outer loop
      vertex 9.150601e+01 2.106641e+01 -3.765908e+02
      vertex 2.472500e+02 2.106641e+01 -3.765908e+02
      vertex 9.150601e+01 2.098153e+01 -3.765957e+02
    endloop
  endfacet
  facet normal -8.924614e-13 -9.987479e-01 -5.002557e-02
    outer loop
      vertex 2.335910e+02 2.055380e+01 -3.680561e+02
      vertex 2.472500e+02 2.098153e+01 -3.765957e+02
      vertex 2.472500e+02 1.757967e+01 -3.086784e+02
    endloop
  endfacet
  facet normal -8.925524e-13 -9.987479e-01 -5.002557e-02
    outer loop
      vertex 2.335910e+02 2.067886e+01 -3.705531e+02
      vertex 1.438500e+02 2.067886e+01 -3.705531e+02
      vertex 2.472500e+02 2.098153e+01 -3.765957e+02
    endloop
  endfacet
  facet normal -8.924522e-13 -9.987479e-01 -5.002557e-02
    outer loop
      vertex 9.150601e+01 2.098153e+01 -3.765957e+02
      vertex 2.472500e+02 2.098153e+01 -3.765957e+02
      vertex 1.438500e+02 2.067886e+01 -3.705531e+02
    endloop
  endfacet
  facet normal -8.924711e-13 -9.987479e-01 -5.002557e-02
    outer loop
      vertex 2.335910e+02 2.055380e+01 -3.680561e+02
      vertex 2.335910e+02 2.067886e+01 -3.705531e+02
      vertex 2.472500e+02 2.098153e+01 -3.765957e+02
    endloop
  endfacet
  facet normal -5.138503e-14 -5.750207e-02 9.983454e-01
    outer loop
      vertex 9.317804e+01 1.767950e+01 -3.086727e+02
      vertex 2.472500e+02 1.757967e+01 -3.086784e+02
      vertex 2.472500e+02 1.767950e+01 -3.086727e+02
    endloop
  endfacet
  facet normal -8.925294e-13 -9.987479e-01 -5.002557e-02
    outer loop
      vertex 9.317804e+01 1.757967e+01 -3.086784e+02
      vertex 2.335910e+02 2.055380e+01 -3.680561e+02
      vertex 2.472500e+02 1.757967e+01 -3.086784e+02
    endloop
  endfacet
  facet normal -4.990906e-14 -5.750207e-02 9.983454e-01
    outer loop
      vertex 9.317804e+01 1.767950e+01 -3.086727e+02
      vertex 9.317804e+01 1.757967e+01 -3.086784e+02
      vertex 2.472500e+02 1.757967e+01 -3.086784e+02
    endloop
  endfacet
  facet normal -9.091480e-13 -9.983454e-01 -5.750207e-02
    outer loop
      vertex 2.470303e+02 1.757713e+01 -3.068953e+02
      vertex 2.472500e+02 1.767950e+01 -3.086727e+02
      vertex 2.472500e+02 1.760762e+01 -3.074247e+02
    endloop
  endfacet
  facet normal -8.921462e-13 -9.983454e-01 -5.750207e-02
    outer loop
      vertex 9.422577e+01 1.756450e+01 -3.066760e+02
      vertex 2.472500e+02 1.767950e+01 -3.086727e+02
      vertex 2.465000e+02 1.756450e+01 -3.066760e+02
    endloop
  endfacet
  facet normal -8.954302e-13 -9.983454e-01 -5.750207e-02
    outer loop
      vertex 2.470303e+02 1.757713e+01 -3.068953e+02
      vertex 2.465000e+02 1.756450e+01 -3.066760e+02
      vertex 2.472500e+02 1.767950e+01 -3.086727e+02
    endloop
  endfacet
  facet normal -8.923012e-13 -9.983454e-01 -5.750207e-02
    outer loop
      vertex 9.375746e+01 1.757394e+01 -3.068399e+02
      vertex 2.472500e+02 1.767950e+01 -3.086727e+02
      vertex 9.422577e+01 1.756450e+01 -3.066760e+02
    endloop
  endfacet
  facet normal -8.920325e-13 -9.983454e-01 -5.750207e-02
    outer loop
      vertex 9.333484e+01 1.763892e+01 -3.079681e+02
      vertex 2.472500e+02 1.767950e+01 -3.086727e+02
      vertex 9.349418e+01 1.759813e+01 -3.072598e+02
    endloop
  endfacet
  facet normal -8.921186e-13 -9.983454e-01 -5.750207e-02
    outer loop
      vertex 9.375746e+01 1.757394e+01 -3.068399e+02
      vertex 9.349418e+01 1.759813e+01 -3.072598e+02
      vertex 2.472500e+02 1.767950e+01 -3.086727e+02
    endloop
  endfacet
  facet normal -8.921419e-13 -9.983454e-01 -5.750207e-02
    outer loop
      vertex 9.317804e+01 1.767950e+01 -3.086727e+02
      vertex 2.472500e+02 1.767950e+01 -3.086727e+02
      vertex 9.333484e+01 1.763892e+01 -3.079681e+02
    endloop
  endfacet
  facet normal 9.238795e-01 -2.200509e-02 3.820502e-01
    outer loop
      vertex 2.470303e+02 1.757713e+01 -3.068953e+02
      vertex 2.472500e+02 1.760762e+01 -3.074247e+02
      vertex 2.470303e+02 1.828548e+01 -3.068545e+02
    endloop
  endfacet
  facet normal -7.071068e-01 -4.066010e-02 7.059368e-01
    outer loop
      vertex 2.099500e+02 1.812334e+01 -3.040395e+02
      vertex 2.100000e+02 1.812047e+01 -3.039896e+02
      vertex 2.100000e+02 1.958803e+01 -3.039050e+02
    endloop
  endfacet
  facet normal -7.071068e-01 -4.066010e-02 7.059368e-01
    outer loop
      vertex 2.099500e+02 1.959091e+01 -3.039549e+02
      vertex 2.099500e+02 1.812334e+01 -3.040395e+02
      vertex 2.100000e+02 1.958803e+01 -3.039050e+02
    endloop
  endfacet
  facet normal 8.629062e-13 9.983454e-01 5.750207e-02
    outer loop
      vertex 2.099500e+02 1.964554e+01 -3.049034e+02
      vertex 2.099500e+02 1.959091e+01 -3.039549e+02
      vertex 2.100000e+02 1.958803e+01 -3.039050e+02
    endloop
  endfacet
  facet normal 2.161465e-12 9.983454e-01 5.750207e-02
    outer loop
      vertex 2.099500e+02 1.965129e+01 -3.050032e+02
      vertex 2.099500e+02 1.964554e+01 -3.049034e+02
      vertex 2.100000e+02 1.958803e+01 -3.039050e+02
    endloop
  endfacet
  facet normal 8.812593e-13 9.983454e-01 5.750207e-02
    outer loop
      vertex 2.335910e+02 2.327395e+01 -3.678995e+02
      vertex 2.099500e+02 1.965129e+01 -3.050032e+02
      vertex 2.100000e+02 1.958803e+01 -3.039050e+02
    endloop
  endfacet
  facet normal -8.904808e-13 -9.983454e-01 -5.750207e-02
    outer loop
      vertex 2.099500e+02 1.812334e+01 -3.040395e+02
      vertex 2.465000e+02 1.827285e+01 -3.066352e+02
      vertex 2.100000e+02 1.812047e+01 -3.039896e+02
    endloop
  endfacet
  facet normal -8.921462e-13 -9.983454e-01 -5.750207e-02
    outer loop
      vertex 2.098500e+02 1.818372e+01 -3.050877e+02
      vertex 9.422577e+01 1.827285e+01 -3.066352e+02
      vertex 2.465000e+02 1.827285e+01 -3.066352e+02
    endloop
  endfacet
  facet normal -5.138528e-14 -5.750207e-02 9.983454e-01
    outer loop
      vertex 2.465000e+02 1.756450e+01 -3.066760e+02
      vertex 2.465000e+02 1.827285e+01 -3.066352e+02
      vertex 9.422577e+01 1.827285e+01 -3.066352e+02
    endloop
  endfacet
  facet normal -8.512405e-13 -9.983454e-01 -5.750207e-02
    outer loop
      vertex 2.099500e+02 1.818372e+01 -3.050877e+02
      vertex 2.098500e+02 1.818372e+01 -3.050877e+02
      vertex 2.465000e+02 1.827285e+01 -3.066352e+02
    endloop
  endfacet
  facet normal -8.897541e-13 -9.983454e-01 -5.750207e-02
    outer loop
      vertex 2.099500e+02 1.817797e+01 -3.049879e+02
      vertex 2.099500e+02 1.818372e+01 -3.050877e+02
      vertex 2.465000e+02 1.827285e+01 -3.066352e+02
    endloop
  endfacet
  facet normal -8.924086e-13 -9.983454e-01 -5.750207e-02
    outer loop
      vertex 2.099500e+02 1.812334e+01 -3.040395e+02
      vertex 2.099500e+02 1.817797e+01 -3.049879e+02
      vertex 2.465000e+02 1.827285e+01 -3.066352e+02
    endloop
  endfacet
  facet normal 3.826834e-01 -5.312498e-02 9.223509e-01
    outer loop
      vertex 2.470303e+02 1.757713e+01 -3.068953e+02
      vertex 2.470303e+02 1.828548e+01 -3.068545e+02
      vertex 2.465000e+02 1.827285e+01 -3.066352e+02
    endloop
  endfacet
  facet normal 3.826834e-01 -5.312498e-02 9.223509e-01
    outer loop
      vertex 2.470303e+02 1.757713e+01 -3.068953e+02
      vertex 2.465000e+02 1.827285e+01 -3.066352e+02
      vertex 2.465000e+02 1.756450e+01 -3.066760e+02
    endloop
  endfacet
  facet normal -9.065544e-13 -9.983454e-01 -5.750207e-02
    outer loop
      vertex 9.392694e+01 1.818372e+01 -3.050877e+02
      vertex 9.385312e+01 1.827855e+01 -3.067341e+02
      vertex 9.422577e+01 1.827285e+01 -3.066352e+02
    endloop
  endfacet
  facet normal -2.570681e-01 -5.556961e-02 9.647943e-01
    outer loop
      vertex 9.422577e+01 1.756450e+01 -3.066760e+02
      vertex 9.422577e+01 1.827285e+01 -3.066352e+02
      vertex 9.385312e+01 1.827855e+01 -3.067341e+02
    endloop
  endfacet
  facet normal -8.921316e-13 -9.983454e-01 -5.750207e-02
    outer loop
      vertex 2.098500e+02 1.818372e+01 -3.050877e+02
      vertex 9.392694e+01 1.818372e+01 -3.050877e+02
      vertex 9.422577e+01 1.827285e+01 -3.066352e+02
    endloop
  endfacet
  facet normal -5.138528e-14 -5.750207e-02 9.983454e-01
    outer loop
      vertex 9.422577e+01 1.756450e+01 -3.066760e+02
      vertex 2.465000e+02 1.756450e+01 -3.066760e+02
      vertex 9.422577e+01 1.827285e+01 -3.066352e+02
    endloop
  endfacet
  facet normal -8.692738e-13 -9.983454e-01 -5.750207e-02
    outer loop
      vertex 9.392694e+01 1.818372e+01 -3.050877e+02
      vertex 9.354729e+01 1.829297e+01 -3.069846e+02
      vertex 9.385312e+01 1.827855e+01 -3.067341e+02
    endloop
  endfacet
  facet normal -6.341463e-01 -2.985443e-02 7.726365e-01
    outer loop
      vertex 9.375746e+01 1.757394e+01 -3.068399e+02
      vertex 9.385312e+01 1.827855e+01 -3.067341e+02
      vertex 9.354729e+01 1.829297e+01 -3.069846e+02
    endloop
  endfacet
  facet normal -3.305452e-01 -9.602525e-02 9.388924e-01
    outer loop
      vertex 9.375746e+01 1.757394e+01 -3.068399e+02
      vertex 9.422577e+01 1.756450e+01 -3.066760e+02
      vertex 9.385312e+01 1.827855e+01 -3.067341e+02
    endloop
  endfacet
  facet normal -9.806147e-01 -1.126731e-02 1.956219e-01
    outer loop
      vertex 9.354729e+01 1.976054e+01 -3.069001e+02
      vertex 9.354729e+01 1.829297e+01 -3.069846e+02
      vertex 9.392694e+01 1.818372e+01 -3.050877e+02
    endloop
  endfacet
  facet normal -9.813576e-01 -1.105135e-02 1.918725e-01
    outer loop
      vertex 9.039626e+01 2.068573e+01 -3.229631e+02
      vertex 9.354729e+01 1.829297e+01 -3.069846e+02
      vertex 9.354729e+01 1.976054e+01 -3.069001e+02
    endloop
  endfacet
  facet normal -8.945416e-01 -4.328310e-01 1.115913e-01
    outer loop
      vertex 9.352839e+01 1.830010e+01 -3.071084e+02
      vertex 9.354729e+01 1.829297e+01 -3.069846e+02
      vertex 9.039626e+01 2.068573e+01 -3.229631e+02
    endloop
  endfacet
  facet normal -9.583058e-01 -2.536131e-01 1.316452e-01
    outer loop
      vertex 9.375746e+01 1.757394e+01 -3.068399e+02
      vertex 9.354729e+01 1.829297e+01 -3.069846e+02
      vertex 9.352839e+01 1.830010e+01 -3.071084e+02
    endloop
  endfacet
  facet normal -5.138442e-14 -5.750207e-02 9.983454e-01
    outer loop
      vertex 9.392694e+01 1.965129e+01 -3.050032e+02
      vertex 9.392694e+01 1.818372e+01 -3.050877e+02
      vertex 2.098500e+02 1.818372e+01 -3.050877e+02
    endloop
  endfacet
  facet normal -9.806147e-01 -1.126731e-02 1.956219e-01
    outer loop
      vertex 9.354729e+01 1.976054e+01 -3.069001e+02
      vertex 9.392694e+01 1.818372e+01 -3.050877e+02
      vertex 9.392694e+01 1.965129e+01 -3.050032e+02
    endloop
  endfacet
  facet normal -4.899709e-14 -5.750207e-02 9.983454e-01
    outer loop
      vertex 2.098500e+02 1.965129e+01 -3.050032e+02
      vertex 2.098500e+02 1.818372e+01 -3.050877e+02
      vertex 2.099500e+02 1.818372e+01 -3.050877e+02
    endloop
  endfacet
  facet normal -4.941921e-14 -5.750207e-02 9.983454e-01
    outer loop
      vertex 9.392694e+01 1.965129e+01 -3.050032e+02
      vertex 2.098500e+02 1.818372e+01 -3.050877e+02
      vertex 2.098500e+02 1.965129e+01 -3.050032e+02
    endloop
  endfacet
  facet normal -1.000000e+00 8.879152e-13 5.114158e-14
    outer loop
      vertex 2.099500e+02 1.965129e+01 -3.050032e+02
      vertex 2.099500e+02 1.818372e+01 -3.050877e+02
      vertex 2.099500e+02 1.817797e+01 -3.049879e+02
    endloop
  endfacet
  facet normal -5.311498e-14 -5.750207e-02 9.983454e-01
    outer loop
      vertex 2.098500e+02 1.965129e+01 -3.050032e+02
      vertex 2.099500e+02 1.818372e+01 -3.050877e+02
      vertex 2.099500e+02 1.965129e+01 -3.050032e+02
    endloop
  endfacet
  facet normal -1.000000e+00 8.913559e-13 -8.594592e-15
    outer loop
      vertex 2.099500e+02 1.959091e+01 -3.039549e+02
      vertex 2.099500e+02 1.817797e+01 -3.049879e+02
      vertex 2.099500e+02 1.812334e+01 -3.040395e+02
    endloop
  endfacet
  facet normal -1.000000e+00 8.913559e-13 -8.594592e-15
    outer loop
      vertex 2.099500e+02 1.964554e+01 -3.049034e+02
      vertex 2.099500e+02 1.817797e+01 -3.049879e+02
      vertex 2.099500e+02 1.959091e+01 -3.039549e+02
    endloop
  endfacet
  facet normal -1.000000e+00 8.879152e-13 5.114158e-14
    outer loop
      vertex 2.099500e+02 1.965129e+01 -3.050032e+02
      vertex 2.099500e+02 1.817797e+01 -3.049879e+02
      vertex 2.099500e+02 1.964554e+01 -3.049034e+02
    endloop
  endfacet
  facet normal -5.138799e-14 -5.750207e-02 9.983454e-01
    outer loop
      vertex 1.438500e+02 2.341770e+01 -3.703953e+02
      vertex 1.438500e+02 2.067886e+01 -3.705531e+02
      vertex 2.335910e+02 2.067886e+01 -3.705531e+02
    endloop
  endfacet
  facet normal -8.923835e-13 -9.987479e-01 -5.002557e-02
    outer loop
      vertex 9.150601e+01 2.098153e+01 -3.765957e+02
      vertex 1.438500e+02 2.067886e+01 -3.705531e+02
      vertex 1.426004e+02 2.061633e+01 -3.693046e+02
    endloop
  endfacet
  facet normal 7.072286e-01 -4.065309e-02 7.058152e-01
    outer loop
      vertex 1.426004e+02 2.334582e+01 -3.691474e+02
      vertex 1.426004e+02 2.061633e+01 -3.693046e+02
      vertex 1.438500e+02 2.067886e+01 -3.705531e+02
    endloop
  endfacet
  facet normal 7.072286e-01 -4.065310e-02 7.058152e-01
    outer loop
      vertex 1.426004e+02 2.334582e+01 -3.691474e+02
      vertex 1.438500e+02 2.067886e+01 -3.705531e+02
      vertex 1.438500e+02 2.341770e+01 -3.703953e+02
    endloop
  endfacet
  facet normal -1.000000e+00 8.986083e-13 -5.207222e-16
    outer loop
      vertex 2.335910e+02 2.327395e+01 -3.678995e+02
      vertex 2.335910e+02 2.067886e+01 -3.705531e+02
      vertex 2.335910e+02 2.055380e+01 -3.680561e+02
    endloop
  endfacet
  facet normal -5.138795e-14 -5.750207e-02 9.983454e-01
    outer loop
      vertex 2.335910e+02 2.341770e+01 -3.703953e+02
      vertex 1.438500e+02 2.341770e+01 -3.703953e+02
      vertex 2.335910e+02 2.067886e+01 -3.705531e+02
    endloop
  endfacet
  facet normal -1.000000e+00 8.921111e-13 5.833151e-15
    outer loop
      vertex 2.335910e+02 2.341770e+01 -3.703953e+02
      vertex 2.335910e+02 2.067886e+01 -3.705531e+02
      vertex 2.335910e+02 2.327395e+01 -3.678995e+02
    endloop
  endfacet
  facet normal -8.924932e-13 -9.987479e-01 -5.002557e-02
    outer loop
      vertex 9.317804e+01 1.757967e+01 -3.086784e+02
      vertex 1.438500e+02 2.055380e+01 -3.680561e+02
      vertex 2.335910e+02 2.055380e+01 -3.680561e+02
    endloop
  endfacet
  facet normal 5.265277e-14 5.750207e-02 -9.983454e-01
    outer loop
      vertex 2.335910e+02 2.327395e+01 -3.678995e+02
      vertex 2.335910e+02 2.055380e+01 -3.680561e+02
      vertex 1.438500e+02 2.055380e+01 -3.680561e+02
    endloop
  endfacet
  facet normal -8.956169e-13 -9.987479e-01 -5.002557e-02
    outer loop
      vertex 9.317804e+01 1.757967e+01 -3.086784e+02
      vertex 1.426004e+02 2.061633e+01 -3.693046e+02
      vertex 1.438500e+02 2.055380e+01 -3.680561e+02
    endloop
  endfacet
  facet normal 7.072286e-01 4.065309e-02 -7.058151e-01
    outer loop
      vertex 1.438500e+02 2.327395e+01 -3.678995e+02
      vertex 1.438500e+02 2.055380e+01 -3.680561e+02
      vertex 1.426004e+02 2.061633e+01 -3.693046e+02
    endloop
  endfacet
  facet normal 5.138340e-14 5.750207e-02 -9.983454e-01
    outer loop
      vertex 2.335910e+02 2.327395e+01 -3.678995e+02
      vertex 1.438500e+02 2.055380e+01 -3.680561e+02
      vertex 1.438500e+02 2.327395e+01 -3.678995e+02
    endloop
  endfacet
  facet normal -8.922763e-13 -9.987479e-01 -5.002557e-02
    outer loop
      vertex 9.150601e+01 2.098153e+01 -3.765957e+02
      vertex 1.426004e+02 2.061633e+01 -3.693046e+02
      vertex 9.317804e+01 1.757967e+01 -3.086784e+02
    endloop
  endfacet
  facet normal 7.072286e-01 4.065315e-02 -7.058152e-01
    outer loop
      vertex 1.438500e+02 2.327395e+01 -3.678995e+02
      vertex 1.426004e+02 2.061633e+01 -3.693046e+02
      vertex 1.426004e+02 2.334582e+01 -3.691474e+02
    endloop
  endfacet
  facet normal -8.962328e-13 -9.987479e-01 -5.002557e-02
    outer loop
      vertex 9.033841e+01 1.831988e+01 -3.234566e+02
      vertex 9.150601e+01 2.098153e+01 -3.765957e+02
      vertex 9.317804e+01 1.757967e+01 -3.086784e+02
    endloop
  endfacet
  facet normal -9.820626e-01 -1.518515e-02 1.879429e-01
    outer loop
      vertex 9.039626e+01 2.068573e+01 -3.229631e+02
      vertex 9.033841e+01 1.831988e+01 -3.234566e+02
      vertex 9.317804e+01 1.757967e+01 -3.086784e+02
    endloop
  endfacet
  facet normal -9.819444e-01 -1.087764e-02 1.888566e-01
    outer loop
      vertex 9.317804e+01 1.767950e+01 -3.086727e+02
      vertex 9.039626e+01 2.068573e+01 -3.229631e+02
      vertex 9.317804e+01 1.757967e+01 -3.086784e+02
    endloop
  endfacet
  facet normal -8.973805e-13 -9.987479e-01 -5.002557e-02
    outer loop
      vertex 9.033841e+01 1.831988e+01 -3.234566e+02
      vertex 8.978996e+01 2.055571e+01 -3.680943e+02
      vertex 9.150601e+01 2.098153e+01 -3.765957e+02
    endloop
  endfacet
  facet normal -9.802764e-01 1.136422e-02 -1.973045e-01
    outer loop
      vertex 9.150601e+01 2.106641e+01 -3.765908e+02
      vertex 9.150601e+01 2.098153e+01 -3.765957e+02
      vertex 8.978996e+01 2.055571e+01 -3.680943e+02
    endloop
  endfacet
  facet normal -8.897021e-13 -9.987479e-01 -5.002557e-02
    outer loop
      vertex 8.870000e+01 1.900007e+01 -3.370364e+02
      vertex 8.870000e+01 2.011033e+01 -3.592026e+02
      vertex 8.978996e+01 2.055571e+01 -3.680943e+02
    endloop
  endfacet
  facet normal -9.891423e-01 8.921557e-02 -1.167820e-01
    outer loop
      vertex 9.050521e+01 2.350435e+01 -3.718998e+02
      vertex 8.978996e+01 2.055571e+01 -3.680943e+02
      vertex 8.870000e+01 2.011033e+01 -3.592026e+02
    endloop
  endfacet
  facet normal -8.903224e-13 -9.987479e-01 -5.002557e-02
    outer loop
      vertex 9.033841e+01 1.831988e+01 -3.234566e+02
      vertex 8.870000e+01 1.900007e+01 -3.370364e+02
      vertex 8.978996e+01 2.055571e+01 -3.680943e+02
    endloop
  endfacet
  facet normal -9.798014e-01 -1.922176e-02 -1.990470e-01
    outer loop
      vertex 9.150601e+01 2.106641e+01 -3.765908e+02
      vertex 8.978996e+01 2.055571e+01 -3.680943e+02
      vertex 9.050521e+01 2.350435e+01 -3.718998e+02
    endloop
  endfacet
  facet normal -7.071068e-01 -7.062214e-01 -3.537342e-02
    outer loop
      vertex 8.825064e+01 2.002976e+01 -3.486114e+02
      vertex 8.870000e+01 2.011033e+01 -3.592026e+02
      vertex 8.870000e+01 1.900007e+01 -3.370364e+02
    endloop
  endfacet
  facet normal -9.903078e-01 7.986153e-03 -1.386606e-01
    outer loop
      vertex 9.050521e+01 2.350435e+01 -3.718998e+02
      vertex 8.870000e+01 2.011033e+01 -3.592026e+02
      vertex 8.870000e+01 2.276422e+01 -3.590497e+02
    endloop
  endfacet
  facet normal -9.990990e-01 2.440677e-03 -4.237049e-02
    outer loop
      vertex 8.825064e+01 2.002976e+01 -3.486114e+02
      vertex 8.870000e+01 2.276422e+01 -3.590497e+02
      vertex 8.870000e+01 2.011033e+01 -3.592026e+02
    endloop
  endfacet
  facet normal -9.928177e-01 -6.879649e-03 1.194389e-01
    outer loop
      vertex 8.870000e+01 2.148806e+01 -3.368931e+02
      vertex 8.870000e+01 1.900007e+01 -3.370364e+02
      vertex 9.033841e+01 1.831988e+01 -3.234566e+02
    endloop
  endfacet
  facet normal -9.992447e-01 -2.234216e-03 3.879493e-02
    outer loop
      vertex 8.825030e+01 2.170405e+01 -3.484636e+02
      vertex 8.870000e+01 1.900007e+01 -3.370364e+02
      vertex 8.870000e+01 2.148806e+01 -3.368931e+02
    endloop
  endfacet
  facet normal -9.992532e-01 -3.600830e-03 3.847189e-02
    outer loop
      vertex 8.825030e+01 2.170405e+01 -3.484636e+02
      vertex 8.825064e+01 2.002976e+01 -3.486114e+02
      vertex 8.870000e+01 1.900007e+01 -3.370364e+02
    endloop
  endfacet
  facet normal -9.926734e-01 -9.267628e-04 1.208249e-01
    outer loop
      vertex 8.870000e+01 2.148806e+01 -3.368931e+02
      vertex 9.033841e+01 1.831988e+01 -3.234566e+02
      vertex 9.039626e+01 2.068573e+01 -3.229631e+02
    endloop
  endfacet
  facet normal 5.138330e-14 5.750207e-02 -9.983454e-01
    outer loop
      vertex 2.465000e+02 2.285629e+01 -3.784910e+02
      vertex 2.465000e+02 2.118142e+01 -3.785875e+02
      vertex 9.258979e+01 2.118142e+01 -3.785875e+02
    endloop
  endfacet
  facet normal -8.921117e-13 -9.983454e-01 -5.750207e-02
    outer loop
      vertex 9.150601e+01 2.106641e+01 -3.765908e+02
      vertex 9.258979e+01 2.118142e+01 -3.785875e+02
      vertex 2.465000e+02 2.118142e+01 -3.785875e+02
    endloop
  endfacet
  facet normal 5.138594e-14 5.750207e-02 -9.983454e-01
    outer loop
      vertex 9.258979e+01 2.285629e+01 -3.784910e+02
      vertex 2.465000e+02 2.285629e+01 -3.784910e+02
      vertex 9.258979e+01 2.118142e+01 -3.785875e+02
    endloop
  endfacet
  facet normal -3.241685e-01 5.439692e-02 -9.444341e-01
    outer loop
      vertex 9.212980e+01 2.117235e+01 -3.784301e+02
      vertex 9.258979e+01 2.285629e+01 -3.784910e+02
      vertex 9.258979e+01 2.118142e+01 -3.785875e+02
    endloop
  endfacet
  facet normal -9.074637e-13 -9.983454e-01 -5.750207e-02
    outer loop
      vertex 9.212980e+01 2.117235e+01 -3.784301e+02
      vertex 9.258979e+01 2.118142e+01 -3.785875e+02
      vertex 9.150601e+01 2.106641e+01 -3.765908e+02
    endloop
  endfacet
  facet normal 3.826834e-01 5.312498e-02 -9.223509e-01
    outer loop
      vertex 2.470303e+02 2.284366e+01 -3.782717e+02
      vertex 2.465000e+02 2.118142e+01 -3.785875e+02
      vertex 2.465000e+02 2.285629e+01 -3.784910e+02
    endloop
  endfacet
  facet normal 3.826834e-01 5.312498e-02 -9.223509e-01
    outer loop
      vertex 2.470303e+02 2.116878e+01 -3.783682e+02
      vertex 2.465000e+02 2.118142e+01 -3.785875e+02
      vertex 2.470303e+02 2.284366e+01 -3.782717e+02
    endloop
  endfacet
  facet normal -8.922801e-13 -9.983454e-01 -5.750207e-02
    outer loop
      vertex 2.470303e+02 2.116878e+01 -3.783682e+02
      vertex 9.150601e+01 2.106641e+01 -3.765908e+02
      vertex 2.465000e+02 2.118142e+01 -3.785875e+02
    endloop
  endfacet
  facet normal -8.921578e-13 -9.983454e-01 -5.750207e-02
    outer loop
      vertex 2.465000e+02 2.300004e+01 -3.809869e+02
      vertex 2.465000e+02 2.285629e+01 -3.784910e+02
      vertex 9.258979e+01 2.285629e+01 -3.784910e+02
    endloop
  endfacet
  facet normal -9.100035e-13 -9.983454e-01 -5.750207e-02
    outer loop
      vertex 2.470303e+02 2.301268e+01 -3.812062e+02
      vertex 2.470303e+02 2.284366e+01 -3.782717e+02
      vertex 2.465000e+02 2.285629e+01 -3.784910e+02
    endloop
  endfacet
  facet normal -9.078955e-13 -9.983454e-01 -5.750207e-02
    outer loop
      vertex 2.465000e+02 2.300004e+01 -3.809869e+02
      vertex 2.470303e+02 2.301268e+01 -3.812062e+02
      vertex 2.465000e+02 2.285629e+01 -3.784910e+02
    endloop
  endfacet
  facet normal -8.859594e-13 -9.983454e-01 -5.750207e-02
    outer loop
      vertex 9.239821e+01 2.293980e+01 -3.799409e+02
      vertex 9.297027e+01 2.305536e+01 -3.819472e+02
      vertex 9.258979e+01 2.285629e+01 -3.784910e+02
    endloop
  endfacet
  facet normal -9.041666e-13 -9.983454e-01 -5.750207e-02
    outer loop
      vertex 9.308937e+01 2.301735e+01 -3.812874e+02
      vertex 9.258979e+01 2.285629e+01 -3.784910e+02
      vertex 9.297027e+01 2.305536e+01 -3.819472e+02
    endloop
  endfacet
  facet normal -8.736169e-13 -9.983454e-01 -5.750207e-02
    outer loop
      vertex 9.212980e+01 2.284723e+01 -3.783336e+02
      vertex 9.239821e+01 2.293980e+01 -3.799409e+02
      vertex 9.258979e+01 2.285629e+01 -3.784910e+02
    endloop
  endfacet
  facet normal -3.241685e-01 5.439692e-02 -9.444341e-01
    outer loop
      vertex 9.212980e+01 2.117235e+01 -3.784301e+02
      vertex 9.212980e+01 2.284723e+01 -3.783336e+02
      vertex 9.258979e+01 2.285629e+01 -3.784910e+02
    endloop
  endfacet
  facet normal -8.920841e-13 -9.983454e-01 -5.750207e-02
    outer loop
      vertex 9.368971e+01 2.300004e+01 -3.809869e+02
      vertex 2.465000e+02 2.300004e+01 -3.809869e+02
      vertex 9.258979e+01 2.285629e+01 -3.784910e+02
    endloop
  endfacet
  facet normal -8.928220e-13 -9.983454e-01 -5.750207e-02
    outer loop
      vertex 9.308937e+01 2.301735e+01 -3.812874e+02
      vertex 9.368971e+01 2.300004e+01 -3.809869e+02
      vertex 9.258979e+01 2.285629e+01 -3.784910e+02
    endloop
  endfacet
  facet normal -9.617881e-01 1.694271e-02 -2.732701e-01
    outer loop
      vertex 9.301086e+01 2.408760e+01 -3.820261e+02
      vertex 9.297027e+01 2.305536e+01 -3.819472e+02
      vertex 9.239821e+01 2.293980e+01 -3.799409e+02
    endloop
  endfacet
  facet normal -9.841484e-01 -1.019781e-02 1.770534e-01
    outer loop
      vertex 9.308937e+01 2.187425e+01 -3.813532e+02
      vertex 9.308937e+01 2.301735e+01 -3.812874e+02
      vertex 9.297027e+01 2.305536e+01 -3.819472e+02
    endloop
  endfacet
  facet normal -9.841484e-01 -1.019781e-02 1.770534e-01
    outer loop
      vertex 9.308937e+01 2.187425e+01 -3.813532e+02
      vertex 9.297027e+01 2.305536e+01 -3.819472e+02
      vertex 9.297027e+01 2.191225e+01 -3.820130e+02
    endloop
  endfacet
  facet normal -9.594092e-01 1.621660e-02 -2.815510e-01
    outer loop
      vertex 9.301086e+01 2.408760e+01 -3.820261e+02
      vertex 9.297027e+01 2.191225e+01 -3.820130e+02
      vertex 9.297027e+01 2.305536e+01 -3.819472e+02
    endloop
  endfacet
  facet normal -8.486462e-13 -9.983454e-01 -5.750207e-02
    outer loop
      vertex 9.212980e+01 2.284723e+01 -3.783336e+02
      vertex 9.186316e+01 2.282384e+01 -3.779277e+02
      vertex 9.239821e+01 2.293980e+01 -3.799409e+02
    endloop
  endfacet
  facet normal -9.657717e-01 5.498634e-02 -2.534986e-01
    outer loop
      vertex 9.301086e+01 2.408760e+01 -3.820261e+02
      vertex 9.239821e+01 2.293980e+01 -3.799409e+02
      vertex 9.186316e+01 2.282384e+01 -3.779277e+02
    endloop
  endfacet
  facet normal -8.362442e-01 3.153167e-02 -5.474498e-01
    outer loop
      vertex 9.186316e+01 2.114897e+01 -3.780242e+02
      vertex 9.186316e+01 2.282384e+01 -3.779277e+02
      vertex 9.212980e+01 2.284723e+01 -3.783336e+02
    endloop
  endfacet
  facet normal -9.647203e-01 1.254106e-01 -2.314884e-01
    outer loop
      vertex 9.050521e+01 2.350435e+01 -3.718998e+02
      vertex 9.301086e+01 2.408760e+01 -3.820261e+02
      vertex 9.186316e+01 2.282384e+01 -3.779277e+02
    endloop
  endfacet
  facet normal -9.744565e-01 2.858132e-02 -2.227503e-01
    outer loop
      vertex 9.150601e+01 2.106641e+01 -3.765908e+02
      vertex 9.050521e+01 2.350435e+01 -3.718998e+02
      vertex 9.186316e+01 2.282384e+01 -3.779277e+02
    endloop
  endfacet
  facet normal -9.711938e-01 1.653304e-02 -2.377169e-01
    outer loop
      vertex 9.168351e+01 2.110801e+01 -3.773130e+02
      vertex 9.150601e+01 2.106641e+01 -3.765908e+02
      vertex 9.186316e+01 2.282384e+01 -3.779277e+02
    endloop
  endfacet
  facet normal -9.696338e-01 1.406279e-02 -2.441569e-01
    outer loop
      vertex 9.186316e+01 2.114897e+01 -3.780242e+02
      vertex 9.168351e+01 2.110801e+01 -3.773130e+02
      vertex 9.186316e+01 2.282384e+01 -3.779277e+02
    endloop
  endfacet
  facet normal -8.362442e-01 3.153167e-02 -5.474498e-01
    outer loop
      vertex 9.212980e+01 2.117235e+01 -3.784301e+02
      vertex 9.186316e+01 2.114897e+01 -3.780242e+02
      vertex 9.212980e+01 2.284723e+01 -3.783336e+02
    endloop
  endfacet
  facet normal 3.826834e-01 -5.312498e-02 9.223509e-01
    outer loop
      vertex 2.470303e+02 2.186957e+01 -3.812720e+02
      vertex 2.470303e+02 2.301268e+01 -3.812062e+02
      vertex 2.465000e+02 2.300004e+01 -3.809869e+02
    endloop
  endfacet
  facet normal -5.212688e-14 -5.750207e-02 9.983454e-01
    outer loop
      vertex 2.465000e+02 2.185694e+01 -3.810527e+02
      vertex 2.465000e+02 2.300004e+01 -3.809869e+02
      vertex 9.368971e+01 2.300004e+01 -3.809869e+02
    endloop
  endfacet
  facet normal 3.826834e-01 -5.312498e-02 9.223509e-01
    outer loop
      vertex 2.470303e+02 2.186957e+01 -3.812720e+02
      vertex 2.465000e+02 2.300004e+01 -3.809869e+02
      vertex 2.465000e+02 2.185694e+01 -3.810527e+02
    endloop
  endfacet
  facet normal -4.482048e-01 -5.140288e-02 8.924518e-01
    outer loop
      vertex 9.368971e+01 2.185694e+01 -3.810527e+02
      vertex 9.368971e+01 2.300004e+01 -3.809869e+02
      vertex 9.308937e+01 2.301735e+01 -3.812874e+02
    endloop
  endfacet
  facet normal -5.138416e-14 -5.750207e-02 9.983454e-01
    outer loop
      vertex 9.368971e+01 2.185694e+01 -3.810527e+02
      vertex 2.465000e+02 2.185694e+01 -3.810527e+02
      vertex 9.368971e+01 2.300004e+01 -3.809869e+02
    endloop
  endfacet
  facet normal -4.482048e-01 -5.140288e-02 8.924518e-01
    outer loop
      vertex 9.308937e+01 2.187425e+01 -3.813532e+02
      vertex 9.368971e+01 2.185694e+01 -3.810527e+02
      vertex 9.308937e+01 2.301735e+01 -3.812874e+02
    endloop
  endfacet
  facet normal -8.816355e-13 -9.983454e-01 -5.750207e-02
    outer loop
      vertex 9.212980e+01 2.117235e+01 -3.784301e+02
      vertex 9.150601e+01 2.106641e+01 -3.765908e+02
      vertex 9.186316e+01 2.114897e+01 -3.780242e+02
    endloop
  endfacet
  facet normal -3.895430e-13 -9.983454e-01 -5.750207e-02
    outer loop
      vertex 9.186316e+01 2.114897e+01 -3.780242e+02
      vertex 9.150601e+01 2.106641e+01 -3.765908e+02
      vertex 9.168351e+01 2.110801e+01 -3.773130e+02
    endloop
  endfacet
  facet normal -9.660979e-13 -9.983454e-01 -5.750207e-02
    outer loop
      vertex 9.308937e+01 2.187425e+01 -3.813532e+02
      vertex 9.297027e+01 2.191225e+01 -3.820130e+02
      vertex 9.301086e+01 2.192019e+01 -3.821509e+02
    endloop
  endfacet
  facet normal -9.594092e-01 1.621660e-02 -2.815510e-01
    outer loop
      vertex 9.301086e+01 2.408760e+01 -3.820261e+02
      vertex 9.301086e+01 2.192019e+01 -3.821509e+02
      vertex 9.297027e+01 2.191225e+01 -3.820130e+02
    endloop
  endfacet
  facet normal 8.892033e-13 9.983454e-01 5.750207e-02
    outer loop
      vertex 9.354729e+01 1.976054e+01 -3.069001e+02
      vertex 9.392694e+01 1.965129e+01 -3.050032e+02
      vertex 9.301086e+01 2.408760e+01 -3.820261e+02
    endloop
  endfacet
  facet normal 8.920919e-13 9.983454e-01 5.750207e-02
    outer loop
      vertex 1.426004e+02 2.334582e+01 -3.691474e+02
      vertex 9.301086e+01 2.408760e+01 -3.820261e+02
      vertex 9.392694e+01 1.965129e+01 -3.050032e+02
    endloop
  endfacet
  facet normal 8.952443e-13 9.983454e-01 5.750207e-02
    outer loop
      vertex 9.050521e+01 2.350435e+01 -3.718998e+02
      vertex 9.354729e+01 1.976054e+01 -3.069001e+02
      vertex 9.301086e+01 2.408760e+01 -3.820261e+02
    endloop
  endfacet
  facet normal 8.922277e-13 9.983454e-01 5.750207e-02
    outer loop
      vertex 1.426004e+02 2.334582e+01 -3.691474e+02
      vertex 1.438500e+02 2.341770e+01 -3.703953e+02
      vertex 9.301086e+01 2.408760e+01 -3.820261e+02
    endloop
  endfacet
  facet normal 8.921926e-13 9.983454e-01 5.750207e-02
    outer loop
      vertex 2.335910e+02 2.341770e+01 -3.703953e+02
      vertex 9.301086e+01 2.408760e+01 -3.820261e+02
      vertex 1.438500e+02 2.341770e+01 -3.703953e+02
    endloop
  endfacet
  facet normal 9.203146e-13 9.983454e-01 5.750207e-02
    outer loop
      vertex 1.438500e+02 2.327395e+01 -3.678995e+02
      vertex 2.098500e+02 1.965129e+01 -3.050032e+02
      vertex 2.099500e+02 1.965129e+01 -3.050032e+02
    endloop
  endfacet
  facet normal 8.921136e-13 9.983454e-01 5.750207e-02
    outer loop
      vertex 2.335910e+02 2.327395e+01 -3.678995e+02
      vertex 1.438500e+02 2.327395e+01 -3.678995e+02
      vertex 2.099500e+02 1.965129e+01 -3.050032e+02
    endloop
  endfacet
  facet normal 8.921232e-13 9.983454e-01 5.750207e-02
    outer loop
      vertex 1.438500e+02 2.327395e+01 -3.678995e+02
      vertex 9.392694e+01 1.965129e+01 -3.050032e+02
      vertex 2.098500e+02 1.965129e+01 -3.050032e+02
    endloop
  endfacet
  facet normal 8.942684e-13 9.983454e-01 5.750207e-02
    outer loop
      vertex 1.438500e+02 2.327395e+01 -3.678995e+02
      vertex 1.426004e+02 2.334582e+01 -3.691474e+02
      vertex 9.392694e+01 1.965129e+01 -3.050032e+02
    endloop
  endfacet
  facet normal 8.929921e-13 9.983454e-01 5.750207e-02
    outer loop
      vertex 9.050521e+01 2.350435e+01 -3.718998e+02
      vertex 9.039626e+01 2.068573e+01 -3.229631e+02
      vertex 9.354729e+01 1.976054e+01 -3.069001e+02
    endloop
  endfacet
  facet normal 8.882345e-13 9.983454e-01 5.750207e-02
    outer loop
      vertex 8.870000e+01 2.276422e+01 -3.590497e+02
      vertex 8.870000e+01 2.148806e+01 -3.368931e+02
      vertex 9.039626e+01 2.068573e+01 -3.229631e+02
    endloop
  endfacet
  facet normal 8.891887e-13 9.983454e-01 5.750207e-02
    outer loop
      vertex 9.050521e+01 2.350435e+01 -3.718998e+02
      vertex 8.870000e+01 2.276422e+01 -3.590497e+02
      vertex 9.039626e+01 2.068573e+01 -3.229631e+02
    endloop
  endfacet
  facet normal -9.814407e-01 -1.102695e-02 1.914488e-01
    outer loop
      vertex 9.349418e+01 1.759813e+01 -3.072598e+02
      vertex 9.349418e+01 1.830648e+01 -3.072190e+02
      vertex 9.039626e+01 2.068573e+01 -3.229631e+02
    endloop
  endfacet
  facet normal -6.214321e-01 7.473264e-01 2.352136e-01
    outer loop
      vertex 9.352839e+01 1.830010e+01 -3.071084e+02
      vertex 9.039626e+01 2.068573e+01 -3.229631e+02
      vertex 9.349418e+01 1.830648e+01 -3.072190e+02
    endloop
  endfacet
  facet normal -9.554021e-01 1.902219e-01 2.258817e-01
    outer loop
      vertex 9.333484e+01 1.763892e+01 -3.079681e+02
      vertex 9.349418e+01 1.759813e+01 -3.072598e+02
      vertex 9.039626e+01 2.068573e+01 -3.229631e+02
    endloop
  endfacet
  facet normal -9.588366e-01 1.751638e-01 2.234952e-01
    outer loop
      vertex 9.317804e+01 1.767950e+01 -3.086727e+02
      vertex 9.333484e+01 1.763892e+01 -3.079681e+02
      vertex 9.039626e+01 2.068573e+01 -3.229631e+02
    endloop
  endfacet
  facet normal -7.071068e-01 7.059368e-01 4.066010e-02
    outer loop
      vertex 8.825030e+01 2.170405e+01 -3.484636e+02
      vertex 8.870000e+01 2.148806e+01 -3.368931e+02
      vertex 8.870000e+01 2.276422e+01 -3.590497e+02
    endloop
  endfacet
  facet normal -9.991076e-01 3.510385e-03 -4.209064e-02
    outer loop
      vertex 8.825030e+01 2.170405e+01 -3.484636e+02
      vertex 8.870000e+01 2.276422e+01 -3.590497e+02
      vertex 8.825064e+01 2.002976e+01 -3.486114e+02
    endloop
  endfacet
  facet normal -8.476639e-01 -3.050678e-02 5.296559e-01
    outer loop
      vertex 9.375746e+01 1.757394e+01 -3.068399e+02
      vertex 9.349418e+01 1.830648e+01 -3.072190e+02
      vertex 9.349418e+01 1.759813e+01 -3.072598e+02
    endloop
  endfacet
  facet normal -9.404435e-01 -1.932348e-01 2.796898e-01
    outer loop
      vertex 9.375746e+01 1.757394e+01 -3.068399e+02
      vertex 9.352839e+01 1.830010e+01 -3.071084e+02
      vertex 9.349418e+01 1.830648e+01 -3.072190e+02
    endloop
  endfacet
endsolid P1040852002
