solid P1040852002
  facet normal -1.000000e+00 1.217334e-14 2.735182e-12
    outer loop
      vertex -1.638140e+02 -9.989542e+00 -3.038614e+02
      vertex -1.638140e+02 -8.520706e+00 -3.039199e+02
      vertex -1.638140e+02 -8.655996e+00 -3.073172e+02
    endloop
  endfacet
  facet normal -9.816380e-14 9.992080e-01 -3.979121e-02
    outer loop
      vertex -1.635943e+02 -8.634893e+00 -3.067873e+02
      vertex -1.638140e+02 -8.655996e+00 -3.073172e+02
      vertex -1.638140e+02 -8.520706e+00 -3.039199e+02
    endloop
  endfacet
  facet normal -1.000000e+00 -1.376834e-15 2.729953e-12
    outer loop
      vertex -1.638140e+02 -1.017888e+01 -3.765619e+02
      vertex -1.638140e+02 -9.989542e+00 -3.038614e+02
      vertex -1.638140e+02 -8.655996e+00 -3.073172e+02
    endloop
  endfacet
  facet normal -1.000000e+00 2.811700e-14 2.729304e-12
    outer loop
      vertex -1.638140e+02 -7.996774e+00 -3.085944e+02
      vertex -1.638140e+02 -1.017888e+01 -3.765619e+02
      vertex -1.638140e+02 -8.655996e+00 -3.073172e+02
    endloop
  endfacet
  facet normal -1.000000e+00 2.851809e-14 2.729511e-12
    outer loop
      vertex -1.638140e+02 -7.947035e+00 -3.073454e+02
      vertex -1.638140e+02 -7.996774e+00 -3.085944e+02
      vertex -1.638140e+02 -8.655996e+00 -3.073172e+02
    endloop
  endfacet
  facet normal -9.238795e-01 1.522744e-02 3.823804e-01
    outer loop
      vertex -1.635943e+02 -8.634893e+00 -3.067873e+02
      vertex -1.638140e+02 -7.947035e+00 -3.073454e+02
      vertex -1.638140e+02 -8.655996e+00 -3.073172e+02
    endloop
  endfacet
  facet normal 2.726251e-12 3.979121e-02 9.992080e-01
    outer loop
      vertex -1.265640e+02 -9.989542e+00 -3.038614e+02
      vertex -1.638140e+02 -8.520706e+00 -3.039199e+02
      vertex -1.638140e+02 -9.989542e+00 -3.038614e+02
    endloop
  endfacet
  facet normal 2.729301e-12 3.979121e-02 9.992080e-01
    outer loop
      vertex -1.265640e+02 -8.520706e+00 -3.039199e+02
      vertex -1.638140e+02 -8.520706e+00 -3.039199e+02
      vertex -1.265640e+02 -9.989542e+00 -3.038614e+02
    endloop
  endfacet
  facet normal -1.105016e-13 9.992080e-01 -3.979121e-02
    outer loop
      vertex -1.630640e+02 -8.626153e+00 -3.065678e+02
      vertex -1.638140e+02 -8.520706e+00 -3.039199e+02
      vertex -1.265640e+02 -8.520706e+00 -3.039199e+02
    endloop
  endfacet
  facet normal -1.107879e-13 9.992080e-01 -3.979121e-02
    outer loop
      vertex -1.635943e+02 -8.634893e+00 -3.067873e+02
      vertex -1.638140e+02 -8.520706e+00 -3.039199e+02
      vertex -1.630640e+02 -8.626153e+00 -3.065678e+02
    endloop
  endfacet
  facet normal -1.000000e+00 9.147368e-15 2.729538e-12
    outer loop
      vertex -1.638140e+02 -1.206411e+01 -3.817410e+02
      vertex -1.638140e+02 -1.310322e+01 -3.820499e+02
      vertex -1.638140e+02 -9.989542e+00 -3.038614e+02
    endloop
  endfacet
  facet normal 1.105080e-13 -9.992080e-01 3.979121e-02
    outer loop
      vertex -1.501550e+02 -1.137827e+01 -3.387343e+02
      vertex -1.638140e+02 -9.989542e+00 -3.038614e+02
      vertex -1.638140e+02 -1.310322e+01 -3.820499e+02
    endloop
  endfacet
  facet normal -1.000000e+00 6.562313e-14 2.728033e-12
    outer loop
      vertex -1.638140e+02 -1.190494e+01 -3.777442e+02
      vertex -1.638140e+02 -1.206411e+01 -3.817410e+02
      vertex -1.638140e+02 -9.989542e+00 -3.038614e+02
    endloop
  endfacet
  facet normal -1.000000e+00 -9.193873e-15 2.729973e-12
    outer loop
      vertex -1.638140e+02 -1.017888e+01 -3.765619e+02
      vertex -1.638140e+02 -1.190494e+01 -3.777442e+02
      vertex -1.638140e+02 -9.989542e+00 -3.038614e+02
    endloop
  endfacet
  facet normal 1.103859e-13 -9.992080e-01 3.979121e-02
    outer loop
      vertex -1.501550e+02 -1.127880e+01 -3.362362e+02
      vertex -1.265640e+02 -9.989542e+00 -3.038614e+02
      vertex -1.638140e+02 -9.989542e+00 -3.038614e+02
    endloop
  endfacet
  facet normal 1.107638e-13 -9.992080e-01 3.979121e-02
    outer loop
      vertex -1.501550e+02 -1.137827e+01 -3.387343e+02
      vertex -1.501550e+02 -1.127880e+01 -3.362362e+02
      vertex -1.638140e+02 -9.989542e+00 -3.038614e+02
    endloop
  endfacet
  facet normal -1.000000e+00 5.212892e-15 2.762947e-12
    outer loop
      vertex -1.638140e+02 -1.092002e+01 -3.817866e+02
      vertex -1.638140e+02 -1.093394e+01 -3.821363e+02
      vertex -1.638140e+02 -1.310322e+01 -3.820499e+02
    endloop
  endfacet
  facet normal -2.726441e-12 -3.979121e-02 -9.992080e-01
    outer loop
      vertex -9.574862e+00 -1.093394e+01 -3.821363e+02
      vertex -1.638140e+02 -1.310322e+01 -3.820499e+02
      vertex -1.638140e+02 -1.093394e+01 -3.821363e+02
    endloop
  endfacet
  facet normal -1.000000e+00 9.307706e-15 2.728998e-12
    outer loop
      vertex -1.638140e+02 -1.206411e+01 -3.817410e+02
      vertex -1.638140e+02 -1.092002e+01 -3.817866e+02
      vertex -1.638140e+02 -1.310322e+01 -3.820499e+02
    endloop
  endfacet
  facet normal -2.727178e-12 -3.979121e-02 -9.992080e-01
    outer loop
      vertex -9.574862e+00 -1.310322e+01 -3.820499e+02
      vertex -1.638140e+02 -1.310322e+01 -3.820499e+02
      vertex -9.574862e+00 -1.093394e+01 -3.821363e+02
    endloop
  endfacet
  facet normal 1.104496e-13 -9.992080e-01 3.979121e-02
    outer loop
      vertex -1.501550e+02 -1.137827e+01 -3.387343e+02
      vertex -1.638140e+02 -1.310322e+01 -3.820499e+02
      vertex -9.574862e+00 -1.310322e+01 -3.820499e+02
    endloop
  endfacet
  facet normal -9.359020e-14 9.992080e-01 -3.979121e-02
    outer loop
      vertex -1.635943e+02 -1.089891e+01 -3.812567e+02
      vertex -1.638140e+02 -1.093394e+01 -3.821363e+02
      vertex -1.638140e+02 -1.092002e+01 -3.817866e+02
    endloop
  endfacet
  facet normal -1.104573e-13 9.992080e-01 -3.979121e-02
    outer loop
      vertex -1.025371e+01 -1.089017e+01 -3.810372e+02
      vertex -1.638140e+02 -1.093394e+01 -3.821363e+02
      vertex -1.630640e+02 -1.089017e+01 -3.810372e+02
    endloop
  endfacet
  facet normal -1.123418e-13 9.992080e-01 -3.979121e-02
    outer loop
      vertex -1.635943e+02 -1.089891e+01 -3.812567e+02
      vertex -1.630640e+02 -1.089017e+01 -3.810372e+02
      vertex -1.638140e+02 -1.093394e+01 -3.821363e+02
    endloop
  endfacet
  facet normal -1.103721e-13 9.992080e-01 -3.979121e-02
    outer loop
      vertex -9.653375e+00 -1.090215e+01 -3.813379e+02
      vertex -1.638140e+02 -1.093394e+01 -3.821363e+02
      vertex -1.025371e+01 -1.089017e+01 -3.810372e+02
    endloop
  endfacet
  facet normal -1.104416e-13 9.992080e-01 -3.979121e-02
    outer loop
      vertex -9.653375e+00 -1.090215e+01 -3.813379e+02
      vertex -9.574862e+00 -1.093394e+01 -3.821363e+02
      vertex -1.638140e+02 -1.093394e+01 -3.821363e+02
    endloop
  endfacet
  facet normal -9.238795e-01 1.522744e-02 3.823804e-01
    outer loop
      vertex -1.635943e+02 -1.204301e+01 -3.812111e+02
      vertex -1.638140e+02 -1.092002e+01 -3.817866e+02
      vertex -1.638140e+02 -1.206411e+01 -3.817410e+02
    endloop
  endfacet
  facet normal -9.238795e-01 1.522744e-02 3.823804e-01
    outer loop
      vertex -1.635943e+02 -1.089891e+01 -3.812567e+02
      vertex -1.638140e+02 -1.092002e+01 -3.817866e+02
      vertex -1.635943e+02 -1.204301e+01 -3.812111e+02
    endloop
  endfacet
  facet normal -1.243455e-13 9.992080e-01 -3.979121e-02
    outer loop
      vertex -1.635943e+02 -1.192605e+01 -3.782741e+02
      vertex -1.638140e+02 -1.206411e+01 -3.817410e+02
      vertex -1.638140e+02 -1.190494e+01 -3.777442e+02
    endloop
  endfacet
  facet normal -1.224787e-13 9.992080e-01 -3.979121e-02
    outer loop
      vertex -1.635943e+02 -1.204301e+01 -3.812111e+02
      vertex -1.638140e+02 -1.206411e+01 -3.817410e+02
      vertex -1.635943e+02 -1.192605e+01 -3.782741e+02
    endloop
  endfacet
  facet normal -1.000000e+00 -9.926046e-15 2.731042e-12
    outer loop
      vertex -1.638140e+02 -1.017888e+01 -3.765619e+02
      vertex -1.638140e+02 -1.022862e+01 -3.778110e+02
      vertex -1.638140e+02 -1.190494e+01 -3.777442e+02
    endloop
  endfacet
  facet normal -9.238795e-01 -1.522744e-02 -3.823804e-01
    outer loop
      vertex -1.635943e+02 -1.024973e+01 -3.783409e+02
      vertex -1.638140e+02 -1.190494e+01 -3.777442e+02
      vertex -1.638140e+02 -1.022862e+01 -3.778110e+02
    endloop
  endfacet
  facet normal -9.238795e-01 -1.522744e-02 -3.823804e-01
    outer loop
      vertex -1.635943e+02 -1.024973e+01 -3.783409e+02
      vertex -1.635943e+02 -1.192605e+01 -3.782741e+02
      vertex -1.638140e+02 -1.190494e+01 -3.777442e+02
    endloop
  endfacet
  facet normal -1.104326e-13 9.992080e-01 -3.979121e-02
    outer loop
      vertex -8.070011e+00 -1.017888e+01 -3.765619e+02
      vertex -1.638140e+02 -1.022862e+01 -3.778110e+02
      vertex -1.638140e+02 -1.017888e+01 -3.765619e+02
    endloop
  endfacet
  facet normal -1.103813e-13 9.992080e-01 -3.979121e-02
    outer loop
      vertex -1.635943e+02 -1.024973e+01 -3.783409e+02
      vertex -1.638140e+02 -1.022862e+01 -3.778110e+02
      vertex -8.070011e+00 -1.017888e+01 -3.765619e+02
    endloop
  endfacet
  facet normal -1.000000e+00 -2.255074e-13 2.737939e-12
    outer loop
      vertex -1.638140e+02 -7.896854e+00 -3.085984e+02
      vertex -1.638140e+02 -1.009393e+01 -3.765653e+02
      vertex -1.638140e+02 -1.017888e+01 -3.765619e+02
    endloop
  endfacet
  facet normal -2.728545e-12 -3.979121e-02 -9.992080e-01
    outer loop
      vertex -8.070011e+00 -1.009393e+01 -3.765653e+02
      vertex -1.638140e+02 -1.017888e+01 -3.765619e+02
      vertex -1.638140e+02 -1.009393e+01 -3.765653e+02
    endloop
  endfacet
  facet normal -1.000000e+00 1.085855e-13 2.726721e-12
    outer loop
      vertex -1.638140e+02 -7.996774e+00 -3.085944e+02
      vertex -1.638140e+02 -7.896854e+00 -3.085984e+02
      vertex -1.638140e+02 -1.017888e+01 -3.765619e+02
    endloop
  endfacet
  facet normal -2.727815e-12 -3.979121e-02 -9.992080e-01
    outer loop
      vertex -8.070011e+00 -1.017888e+01 -3.765619e+02
      vertex -1.638140e+02 -1.017888e+01 -3.765619e+02
      vertex -8.070011e+00 -1.009393e+01 -3.765653e+02
    endloop
  endfacet
  facet normal -8.983096e-14 9.994779e-01 -3.230875e-02
    outer loop
      vertex -1.501550e+02 -8.793463e+00 -3.363352e+02
      vertex -1.638140e+02 -1.009393e+01 -3.765653e+02
      vertex -1.638140e+02 -7.896854e+00 -3.085984e+02
    endloop
  endfacet
  facet normal -9.002379e-14 9.994779e-01 -3.230875e-02
    outer loop
      vertex -1.501550e+02 -8.874237e+00 -3.388340e+02
      vertex -6.041400e+01 -8.874237e+00 -3.388340e+02
      vertex -1.638140e+02 -1.009393e+01 -3.765653e+02
    endloop
  endfacet
  facet normal -9.002920e-14 9.994779e-01 -3.230875e-02
    outer loop
      vertex -8.070011e+00 -1.009393e+01 -3.765653e+02
      vertex -1.638140e+02 -1.009393e+01 -3.765653e+02
      vertex -6.041400e+01 -8.874237e+00 -3.388340e+02
    endloop
  endfacet
  facet normal -8.955012e-14 9.994779e-01 -3.230875e-02
    outer loop
      vertex -1.501550e+02 -8.793463e+00 -3.363352e+02
      vertex -1.501550e+02 -8.874237e+00 -3.388340e+02
      vertex -1.638140e+02 -1.009393e+01 -3.765653e+02
    endloop
  endfacet
  facet normal 2.727927e-12 3.979121e-02 9.992080e-01
    outer loop
      vertex -9.742036e+00 -7.996774e+00 -3.085944e+02
      vertex -1.638140e+02 -7.896854e+00 -3.085984e+02
      vertex -1.638140e+02 -7.996774e+00 -3.085944e+02
    endloop
  endfacet
  facet normal -9.000415e-14 9.994779e-01 -3.230875e-02
    outer loop
      vertex -9.742036e+00 -7.896854e+00 -3.085984e+02
      vertex -1.501550e+02 -8.793463e+00 -3.363352e+02
      vertex -1.638140e+02 -7.896854e+00 -3.085984e+02
    endloop
  endfacet
  facet normal 2.726451e-12 3.979121e-02 9.992080e-01
    outer loop
      vertex -9.742036e+00 -7.996774e+00 -3.085944e+02
      vertex -9.742036e+00 -7.896854e+00 -3.085984e+02
      vertex -1.638140e+02 -7.896854e+00 -3.085984e+02
    endloop
  endfacet
  facet normal -1.415134e-13 9.992080e-01 -3.979121e-02
    outer loop
      vertex -1.635943e+02 -7.925933e+00 -3.068155e+02
      vertex -1.638140e+02 -7.996774e+00 -3.085944e+02
      vertex -1.638140e+02 -7.947035e+00 -3.073454e+02
    endloop
  endfacet
  facet normal -1.104366e-13 9.992080e-01 -3.979121e-02
    outer loop
      vertex -1.078977e+01 -7.917192e+00 -3.065960e+02
      vertex -1.638140e+02 -7.996774e+00 -3.085944e+02
      vertex -1.630640e+02 -7.917192e+00 -3.065960e+02
    endloop
  endfacet
  facet normal -1.088148e-13 9.992080e-01 -3.979121e-02
    outer loop
      vertex -1.635943e+02 -7.925933e+00 -3.068155e+02
      vertex -1.630640e+02 -7.917192e+00 -3.065960e+02
      vertex -1.638140e+02 -7.996774e+00 -3.085944e+02
    endloop
  endfacet
  facet normal -1.101499e-13 9.992080e-01 -3.979121e-02
    outer loop
      vertex -1.032146e+01 -7.923725e+00 -3.067601e+02
      vertex -1.638140e+02 -7.996774e+00 -3.085944e+02
      vertex -1.078977e+01 -7.917192e+00 -3.065960e+02
    endloop
  endfacet
  facet normal -1.104073e-13 9.992080e-01 -3.979121e-02
    outer loop
      vertex -9.898844e+00 -7.968694e+00 -3.078893e+02
      vertex -1.638140e+02 -7.996774e+00 -3.085944e+02
      vertex -1.005818e+01 -7.940463e+00 -3.071804e+02
    endloop
  endfacet
  facet normal -1.102678e-13 9.992080e-01 -3.979121e-02
    outer loop
      vertex -1.032146e+01 -7.923725e+00 -3.067601e+02
      vertex -1.005818e+01 -7.940463e+00 -3.071804e+02
      vertex -1.638140e+02 -7.996774e+00 -3.085944e+02
    endloop
  endfacet
  facet normal -1.104336e-13 9.992080e-01 -3.979121e-02
    outer loop
      vertex -9.742036e+00 -7.996774e+00 -3.085944e+02
      vertex -1.638140e+02 -7.996774e+00 -3.085944e+02
      vertex -9.898844e+00 -7.968694e+00 -3.078893e+02
    endloop
  endfacet
  facet normal -9.238795e-01 1.522744e-02 3.823804e-01
    outer loop
      vertex -1.635943e+02 -7.925933e+00 -3.068155e+02
      vertex -1.638140e+02 -7.947035e+00 -3.073454e+02
      vertex -1.635943e+02 -8.634893e+00 -3.067873e+02
    endloop
  endfacet
  facet normal 7.071068e-01 2.813663e-02 7.065468e-01
    outer loop
      vertex -1.265140e+02 -8.522695e+00 -3.039699e+02
      vertex -1.265640e+02 -8.520706e+00 -3.039199e+02
      vertex -1.265640e+02 -9.989542e+00 -3.038614e+02
    endloop
  endfacet
  facet normal 7.071068e-01 2.813663e-02 7.065468e-01
    outer loop
      vertex -1.265140e+02 -9.991531e+00 -3.039114e+02
      vertex -1.265140e+02 -8.522695e+00 -3.039699e+02
      vertex -1.265640e+02 -9.989542e+00 -3.038614e+02
    endloop
  endfacet
  facet normal 1.826025e-13 -9.992080e-01 3.979121e-02
    outer loop
      vertex -1.265140e+02 -1.002933e+01 -3.048606e+02
      vertex -1.265140e+02 -9.991531e+00 -3.039114e+02
      vertex -1.265640e+02 -9.989542e+00 -3.038614e+02
    endloop
  endfacet
  facet normal 3.436487e-13 -9.992080e-01 3.979121e-02
    outer loop
      vertex -1.265140e+02 -1.003331e+01 -3.049605e+02
      vertex -1.265140e+02 -1.002933e+01 -3.048606e+02
      vertex -1.265640e+02 -9.989542e+00 -3.038614e+02
    endloop
  endfacet
  facet normal 1.128822e-13 -9.992080e-01 3.979121e-02
    outer loop
      vertex -1.501550e+02 -1.127880e+01 -3.362362e+02
      vertex -1.265140e+02 -1.003331e+01 -3.049605e+02
      vertex -1.265640e+02 -9.989542e+00 -3.038614e+02
    endloop
  endfacet
  facet normal -1.105176e-13 9.992080e-01 -3.979121e-02
    outer loop
      vertex -1.265140e+02 -8.522695e+00 -3.039699e+02
      vertex -1.630640e+02 -8.626153e+00 -3.065678e+02
      vertex -1.265640e+02 -8.520706e+00 -3.039199e+02
    endloop
  endfacet
  facet normal -1.104599e-13 9.992080e-01 -3.979121e-02
    outer loop
      vertex -1.264140e+02 -8.564476e+00 -3.050190e+02
      vertex -1.078977e+01 -8.626153e+00 -3.065678e+02
      vertex -1.630640e+02 -8.626153e+00 -3.065678e+02
    endloop
  endfacet
  facet normal 2.728055e-12 3.979121e-02 9.992080e-01
    outer loop
      vertex -1.630640e+02 -7.917192e+00 -3.065960e+02
      vertex -1.630640e+02 -8.626153e+00 -3.065678e+02
      vertex -1.078977e+01 -8.626153e+00 -3.065678e+02
    endloop
  endfacet
  facet normal -9.047473e-14 9.992080e-01 -3.979121e-02
    outer loop
      vertex -1.265140e+02 -8.564476e+00 -3.050190e+02
      vertex -1.264140e+02 -8.564476e+00 -3.050190e+02
      vertex -1.630640e+02 -8.626153e+00 -3.065678e+02
    endloop
  endfacet
  facet normal -1.109976e-13 9.992080e-01 -3.979121e-02
    outer loop
      vertex -1.265140e+02 -8.560497e+00 -3.049191e+02
      vertex -1.265140e+02 -8.564476e+00 -3.050190e+02
      vertex -1.630640e+02 -8.626153e+00 -3.065678e+02
    endloop
  endfacet
  facet normal -1.105579e-13 9.992080e-01 -3.979121e-02
    outer loop
      vertex -1.265140e+02 -8.522695e+00 -3.039699e+02
      vertex -1.265140e+02 -8.560497e+00 -3.049191e+02
      vertex -1.630640e+02 -8.626153e+00 -3.065678e+02
    endloop
  endfacet
  facet normal -3.826834e-01 3.676228e-02 9.231478e-01
    outer loop
      vertex -1.635943e+02 -7.925933e+00 -3.068155e+02
      vertex -1.635943e+02 -8.634893e+00 -3.067873e+02
      vertex -1.630640e+02 -8.626153e+00 -3.065678e+02
    endloop
  endfacet
  facet normal -3.826834e-01 3.676228e-02 9.231478e-01
    outer loop
      vertex -1.635943e+02 -7.925933e+00 -3.068155e+02
      vertex -1.630640e+02 -8.626153e+00 -3.065678e+02
      vertex -1.630640e+02 -7.917192e+00 -3.065960e+02
    endloop
  endfacet
  facet normal -8.972754e-14 9.992080e-01 -3.979121e-02
    outer loop
      vertex -1.049094e+01 -8.564476e+00 -3.050190e+02
      vertex -1.041712e+01 -8.630097e+00 -3.066668e+02
      vertex -1.078977e+01 -8.626153e+00 -3.065678e+02
    endloop
  endfacet
  facet normal 2.570681e-01 3.845396e-02 9.656279e-01
    outer loop
      vertex -1.078977e+01 -7.917192e+00 -3.065960e+02
      vertex -1.078977e+01 -8.626153e+00 -3.065678e+02
      vertex -1.041712e+01 -8.630097e+00 -3.066668e+02
    endloop
  endfacet
  facet normal -1.104485e-13 9.992080e-01 -3.979121e-02
    outer loop
      vertex -1.264140e+02 -8.564476e+00 -3.050190e+02
      vertex -1.049094e+01 -8.564476e+00 -3.050190e+02
      vertex -1.078977e+01 -8.626153e+00 -3.065678e+02
    endloop
  endfacet
  facet normal 2.728056e-12 3.979121e-02 9.992080e-01
    outer loop
      vertex -1.078977e+01 -7.917192e+00 -3.065960e+02
      vertex -1.630640e+02 -7.917192e+00 -3.065960e+02
      vertex -1.078977e+01 -8.626153e+00 -3.065678e+02
    endloop
  endfacet
  facet normal -1.498206e-13 9.992080e-01 -3.979121e-02
    outer loop
      vertex -1.049094e+01 -8.564476e+00 -3.050190e+02
      vertex -1.011129e+01 -8.640079e+00 -3.069175e+02
      vertex -1.041712e+01 -8.630097e+00 -3.066668e+02
    endloop
  endfacet
  facet normal 6.341463e-01 1.614999e-02 7.730444e-01
    outer loop
      vertex -1.032146e+01 -7.923725e+00 -3.067601e+02
      vertex -1.041712e+01 -8.630097e+00 -3.066668e+02
      vertex -1.011129e+01 -8.640079e+00 -3.069175e+02
    endloop
  endfacet
  facet normal 3.305452e-01 7.936251e-02 9.404475e-01
    outer loop
      vertex -1.032146e+01 -7.923725e+00 -3.067601e+02
      vertex -1.078977e+01 -7.917192e+00 -3.065960e+02
      vertex -1.041712e+01 -8.630097e+00 -3.066668e+02
    endloop
  endfacet
  facet normal 9.806147e-01 7.796934e-03 1.957910e-01
    outer loop
      vertex -1.011129e+01 -1.010892e+01 -3.068590e+02
      vertex -1.011129e+01 -8.640079e+00 -3.069175e+02
      vertex -1.049094e+01 -8.564476e+00 -3.050190e+02
    endloop
  endfacet
  facet normal 9.813576e-01 7.647491e-03 1.920382e-01
    outer loop
      vertex -6.960258e+00 -1.074914e+01 -3.229360e+02
      vertex -1.011129e+01 -8.640079e+00 -3.069175e+02
      vertex -1.011129e+01 -1.010892e+01 -3.068590e+02
    endloop
  endfacet
  facet normal 8.945416e-01 4.307843e-01 1.192483e-01
    outer loop
      vertex -1.009239e+01 -8.645014e+00 -3.070414e+02
      vertex -1.011129e+01 -8.640079e+00 -3.069175e+02
      vertex -6.960258e+00 -1.074914e+01 -3.229360e+02
    endloop
  endfacet
  facet normal 9.583058e-01 2.512390e-01 1.361213e-01
    outer loop
      vertex -1.032146e+01 -7.923725e+00 -3.067601e+02
      vertex -1.011129e+01 -8.640079e+00 -3.069175e+02
      vertex -1.009239e+01 -8.645014e+00 -3.070414e+02
    endloop
  endfacet
  facet normal 2.728061e-12 3.979121e-02 9.992080e-01
    outer loop
      vertex -1.049094e+01 -1.003331e+01 -3.049605e+02
      vertex -1.049094e+01 -8.564476e+00 -3.050190e+02
      vertex -1.264140e+02 -8.564476e+00 -3.050190e+02
    endloop
  endfacet
  facet normal 9.806147e-01 7.796934e-03 1.957910e-01
    outer loop
      vertex -1.011129e+01 -1.010892e+01 -3.068590e+02
      vertex -1.049094e+01 -8.564476e+00 -3.050190e+02
      vertex -1.049094e+01 -1.003331e+01 -3.049605e+02
    endloop
  endfacet
  facet normal 2.271898e-12 3.979121e-02 9.992080e-01
    outer loop
      vertex -1.264140e+02 -1.003331e+01 -3.049605e+02
      vertex -1.264140e+02 -8.564476e+00 -3.050190e+02
      vertex -1.265140e+02 -8.564476e+00 -3.050190e+02
    endloop
  endfacet
  facet normal 2.726099e-12 3.979121e-02 9.992080e-01
    outer loop
      vertex -1.049094e+01 -1.003331e+01 -3.049605e+02
      vertex -1.264140e+02 -8.564476e+00 -3.050190e+02
      vertex -1.264140e+02 -1.003331e+01 -3.049605e+02
    endloop
  endfacet
  facet normal 1.000000e+00 -1.183238e-15 -2.702155e-12
    outer loop
      vertex -1.265140e+02 -1.003331e+01 -3.049605e+02
      vertex -1.265140e+02 -8.564476e+00 -3.050190e+02
      vertex -1.265140e+02 -8.560497e+00 -3.049191e+02
    endloop
  endfacet
  facet normal 3.407904e-12 3.979121e-02 9.992080e-01
    outer loop
      vertex -1.264140e+02 -1.003331e+01 -3.049605e+02
      vertex -1.265140e+02 -8.564476e+00 -3.050190e+02
      vertex -1.265140e+02 -1.003331e+01 -3.049605e+02
    endloop
  endfacet
  facet normal 1.000000e+00 -2.076081e-15 -2.724576e-12
    outer loop
      vertex -1.265140e+02 -9.991531e+00 -3.039114e+02
      vertex -1.265140e+02 -8.560497e+00 -3.049191e+02
      vertex -1.265140e+02 -8.522695e+00 -3.039699e+02
    endloop
  endfacet
  facet normal 1.000000e+00 -2.076081e-15 -2.724576e-12
    outer loop
      vertex -1.265140e+02 -1.002933e+01 -3.048606e+02
      vertex -1.265140e+02 -8.560497e+00 -3.049191e+02
      vertex -1.265140e+02 -9.991531e+00 -3.039114e+02
    endloop
  endfacet
  facet normal 1.000000e+00 -1.183238e-15 -2.702155e-12
    outer loop
      vertex -1.265140e+02 -1.003331e+01 -3.049605e+02
      vertex -1.265140e+02 -8.560497e+00 -3.049191e+02
      vertex -1.265140e+02 -1.002933e+01 -3.048606e+02
    endloop
  endfacet
  facet normal 2.727790e-12 3.979121e-02 9.992080e-01
    outer loop
      vertex -6.041400e+01 -1.137827e+01 -3.387343e+02
      vertex -6.041400e+01 -8.874237e+00 -3.388340e+02
      vertex -1.501550e+02 -8.874237e+00 -3.388340e+02
    endloop
  endfacet
  facet normal -9.069374e-14 9.994779e-01 -3.230875e-02
    outer loop
      vertex -9.742036e+00 -7.896854e+00 -3.085984e+02
      vertex -6.041400e+01 -8.874237e+00 -3.388340e+02
      vertex -5.916443e+01 -8.833850e+00 -3.375846e+02
    endloop
  endfacet
  facet normal -7.072286e-01 2.813177e-02 7.064250e-01
    outer loop
      vertex -5.916443e+01 -1.132854e+01 -3.374853e+02
      vertex -5.916443e+01 -8.833850e+00 -3.375846e+02
      vertex -6.041400e+01 -8.874237e+00 -3.388340e+02
    endloop
  endfacet
  facet normal -9.005554e-14 9.994779e-01 -3.230875e-02
    outer loop
      vertex -8.070011e+00 -1.009393e+01 -3.765653e+02
      vertex -6.041400e+01 -8.874237e+00 -3.388340e+02
      vertex -9.742036e+00 -7.896854e+00 -3.085984e+02
    endloop
  endfacet
  facet normal -7.072286e-01 2.813179e-02 7.064250e-01
    outer loop
      vertex -5.916443e+01 -1.132854e+01 -3.374853e+02
      vertex -6.041400e+01 -8.874237e+00 -3.388340e+02
      vertex -6.041400e+01 -1.137827e+01 -3.387343e+02
    endloop
  endfacet
  facet normal 1.000000e+00 5.640997e-15 -2.730015e-12
    outer loop
      vertex -1.501550e+02 -1.127880e+01 -3.362362e+02
      vertex -1.501550e+02 -8.874237e+00 -3.388340e+02
      vertex -1.501550e+02 -8.793463e+00 -3.363352e+02
    endloop
  endfacet
  facet normal 2.727790e-12 3.979121e-02 9.992080e-01
    outer loop
      vertex -1.501550e+02 -1.137827e+01 -3.387343e+02
      vertex -6.041400e+01 -1.137827e+01 -3.387343e+02
      vertex -1.501550e+02 -8.874237e+00 -3.388340e+02
    endloop
  endfacet
  facet normal 1.000000e+00 4.754111e-15 -2.730836e-12
    outer loop
      vertex -1.501550e+02 -1.137827e+01 -3.387343e+02
      vertex -1.501550e+02 -8.874237e+00 -3.388340e+02
      vertex -1.501550e+02 -1.127880e+01 -3.362362e+02
    endloop
  endfacet
  facet normal -8.998377e-14 9.994779e-01 -3.230875e-02
    outer loop
      vertex -9.742036e+00 -7.896854e+00 -3.085984e+02
      vertex -6.041400e+01 -8.793463e+00 -3.363352e+02
      vertex -1.501550e+02 -8.793463e+00 -3.363352e+02
    endloop
  endfacet
  facet normal -2.727792e-12 -3.979121e-02 -9.992080e-01
    outer loop
      vertex -1.501550e+02 -1.127880e+01 -3.362362e+02
      vertex -1.501550e+02 -8.793463e+00 -3.363352e+02
      vertex -6.041400e+01 -8.793463e+00 -3.363352e+02
    endloop
  endfacet
  facet normal -9.083046e-14 9.994779e-01 -3.230875e-02
    outer loop
      vertex -9.742036e+00 -7.896854e+00 -3.085984e+02
      vertex -5.916443e+01 -8.833850e+00 -3.375846e+02
      vertex -6.041400e+01 -8.793463e+00 -3.363352e+02
    endloop
  endfacet
  facet normal -7.072286e-01 -2.813178e-02 -7.064250e-01
    outer loop
      vertex -6.041400e+01 -1.127880e+01 -3.362362e+02
      vertex -6.041400e+01 -8.793463e+00 -3.363352e+02
      vertex -5.916443e+01 -8.833850e+00 -3.375846e+02
    endloop
  endfacet
  facet normal -2.727792e-12 -3.979121e-02 -9.992080e-01
    outer loop
      vertex -1.501550e+02 -1.127880e+01 -3.362362e+02
      vertex -6.041400e+01 -8.793463e+00 -3.363352e+02
      vertex -6.041400e+01 -1.127880e+01 -3.362362e+02
    endloop
  endfacet
  facet normal -7.072286e-01 -2.813185e-02 -7.064250e-01
    outer loop
      vertex -6.041400e+01 -1.127880e+01 -3.362362e+02
      vertex -5.916443e+01 -8.833850e+00 -3.375846e+02
      vertex -5.916443e+01 -1.132854e+01 -3.374853e+02
    endloop
  endfacet
  facet normal -8.942914e-14 9.994779e-01 -3.230875e-02
    outer loop
      vertex -6.902406e+00 -8.374917e+00 -3.233874e+02
      vertex -8.070011e+00 -1.009393e+01 -3.765653e+02
      vertex -9.742036e+00 -7.896854e+00 -3.085984e+02
    endloop
  endfacet
  facet normal 9.820626e-01 1.185031e-02 1.881827e-01
    outer loop
      vertex -6.960258e+00 -1.074914e+01 -3.229360e+02
      vertex -6.902406e+00 -8.374917e+00 -3.233874e+02
      vertex -9.742036e+00 -7.896854e+00 -3.085984e+02
    endloop
  endfacet
  facet normal 9.819444e-01 7.527286e-03 1.890197e-01
    outer loop
      vertex -9.742036e+00 -7.996774e+00 -3.085944e+02
      vertex -6.960258e+00 -1.074914e+01 -3.229360e+02
      vertex -9.742036e+00 -7.896854e+00 -3.085984e+02
    endloop
  endfacet
  facet normal -8.977298e-14 9.994779e-01 -3.230875e-02
    outer loop
      vertex -6.902406e+00 -8.374917e+00 -3.233874e+02
      vertex -6.353959e+00 -9.818912e+00 -3.680577e+02
      vertex -8.070011e+00 -1.009393e+01 -3.765653e+02
    endloop
  endfacet
  facet normal 9.802764e-01 -7.863996e-03 -1.974750e-01
    outer loop
      vertex -8.070011e+00 -1.017888e+01 -3.765619e+02
      vertex -8.070011e+00 -1.009393e+01 -3.765653e+02
      vertex -6.353959e+00 -9.818912e+00 -3.680577e+02
    endloop
  endfacet
  facet normal -9.208373e-14 9.994779e-01 -3.230875e-02
    outer loop
      vertex -5.263999e+00 -8.814214e+00 -3.369772e+02
      vertex -5.263999e+00 -9.531272e+00 -3.591595e+02
      vertex -6.353959e+00 -9.818912e+00 -3.680577e+02
    endloop
  endfacet
  facet normal 9.891423e-01 -8.713086e-02 -1.183455e-01
    outer loop
      vertex -7.069208e+00 -1.269962e+01 -3.719149e+02
      vertex -6.353959e+00 -9.818912e+00 -3.680577e+02
      vertex -5.263999e+00 -9.531272e+00 -3.591595e+02
    endloop
  endfacet
  facet normal -9.102010e-14 9.994779e-01 -3.230875e-02
    outer loop
      vertex -6.902406e+00 -8.374917e+00 -3.233874e+02
      vertex -5.263999e+00 -8.814214e+00 -3.369772e+02
      vertex -6.353959e+00 -9.818912e+00 -3.680577e+02
    endloop
  endfacet
  facet normal 9.798014e-01 2.274807e-02 -1.986749e-01
    outer loop
      vertex -8.070011e+00 -1.017888e+01 -3.765619e+02
      vertex -6.353959e+00 -9.818912e+00 -3.680577e+02
      vertex -7.069208e+00 -1.269962e+01 -3.719149e+02
    endloop
  endfacet
  facet normal 7.071068e-01 7.067376e-01 -2.284573e-02
    outer loop
      vertex -4.814644e+00 -9.638503e+00 -3.485686e+02
      vertex -5.263999e+00 -9.531272e+00 -3.591595e+02
      vertex -5.263999e+00 -8.814214e+00 -3.369772e+02
    endloop
  endfacet
  facet normal 9.903078e-01 -5.526285e-03 -1.387804e-01
    outer loop
      vertex -7.069208e+00 -1.269962e+01 -3.719149e+02
      vertex -5.263999e+00 -9.531272e+00 -3.591595e+02
      vertex -5.264000e+00 -1.218745e+01 -3.590537e+02
    endloop
  endfacet
  facet normal 9.990990e-01 -1.689016e-03 -4.240710e-02
    outer loop
      vertex -4.814644e+00 -9.638503e+00 -3.485686e+02
      vertex -5.264000e+00 -1.218745e+01 -3.590537e+02
      vertex -5.263999e+00 -9.531272e+00 -3.591595e+02
    endloop
  endfacet
  facet normal 9.928177e-01 4.760778e-03 1.195421e-01
    outer loop
      vertex -5.264000e+00 -1.130435e+01 -3.368780e+02
      vertex -5.263999e+00 -8.814214e+00 -3.369772e+02
      vertex -6.902406e+00 -8.374917e+00 -3.233874e+02
    endloop
  endfacet
  facet normal 9.992447e-01 1.545986e-03 3.882845e-02
    outer loop
      vertex -4.814301e+00 -1.131515e+01 -3.484505e+02
      vertex -5.263999e+00 -8.814214e+00 -3.369772e+02
      vertex -5.264000e+00 -1.130435e+01 -3.368780e+02
    endloop
  endfacet
  facet normal 9.992532e-01 2.918113e-03 3.852969e-02
    outer loop
      vertex -4.814301e+00 -1.131515e+01 -3.484505e+02
      vertex -4.814644e+00 -9.638503e+00 -3.485686e+02
      vertex -5.263999e+00 -8.814214e+00 -3.369772e+02
    endloop
  endfacet
  facet normal 9.926734e-01 -1.215749e-03 1.208224e-01
    outer loop
      vertex -5.264000e+00 -1.130435e+01 -3.368780e+02
      vertex -6.902406e+00 -8.374917e+00 -3.233874e+02
      vertex -6.960258e+00 -1.074914e+01 -3.229360e+02
    endloop
  endfacet
  facet normal -2.727842e-12 -3.979121e-02 -9.992080e-01
    outer loop
      vertex -1.630640e+02 -1.193479e+01 -3.784936e+02
      vertex -1.630640e+02 -1.025847e+01 -3.785604e+02
      vertex -9.153794e+00 -1.025847e+01 -3.785604e+02
    endloop
  endfacet
  facet normal -1.104320e-13 9.992080e-01 -3.979121e-02
    outer loop
      vertex -8.070011e+00 -1.017888e+01 -3.765619e+02
      vertex -9.153794e+00 -1.025847e+01 -3.785604e+02
      vertex -1.630640e+02 -1.025847e+01 -3.785604e+02
    endloop
  endfacet
  facet normal -2.727842e-12 -3.979121e-02 -9.992080e-01
    outer loop
      vertex -9.153794e+00 -1.193479e+01 -3.784936e+02
      vertex -1.630640e+02 -1.193479e+01 -3.784936e+02
      vertex -9.153794e+00 -1.025847e+01 -3.785604e+02
    endloop
  endfacet
  facet normal 3.241685e-01 -3.764246e-02 -9.452501e-01
    outer loop
      vertex -8.693799e+00 -1.025219e+01 -3.784029e+02
      vertex -9.153794e+00 -1.193479e+01 -3.784936e+02
      vertex -9.153794e+00 -1.025847e+01 -3.785604e+02
    endloop
  endfacet
  facet normal -9.707113e-14 9.992080e-01 -3.979121e-02
    outer loop
      vertex -8.693799e+00 -1.025219e+01 -3.784029e+02
      vertex -9.153794e+00 -1.025847e+01 -3.785604e+02
      vertex -8.070011e+00 -1.017888e+01 -3.765619e+02
    endloop
  endfacet
  facet normal -3.826834e-01 -3.676228e-02 -9.231478e-01
    outer loop
      vertex -1.635943e+02 -1.192605e+01 -3.782741e+02
      vertex -1.630640e+02 -1.025847e+01 -3.785604e+02
      vertex -1.630640e+02 -1.193479e+01 -3.784936e+02
    endloop
  endfacet
  facet normal -3.826834e-01 -3.676228e-02 -9.231478e-01
    outer loop
      vertex -1.635943e+02 -1.024973e+01 -3.783409e+02
      vertex -1.630640e+02 -1.025847e+01 -3.785604e+02
      vertex -1.635943e+02 -1.192605e+01 -3.782741e+02
    endloop
  endfacet
  facet normal -1.106536e-13 9.992080e-01 -3.979121e-02
    outer loop
      vertex -1.635943e+02 -1.024973e+01 -3.783409e+02
      vertex -8.070011e+00 -1.017888e+01 -3.765619e+02
      vertex -1.630640e+02 -1.025847e+01 -3.785604e+02
    endloop
  endfacet
  facet normal -1.104321e-13 9.992080e-01 -3.979121e-02
    outer loop
      vertex -1.630640e+02 -1.203427e+01 -3.809916e+02
      vertex -1.630640e+02 -1.193479e+01 -3.784936e+02
      vertex -9.153794e+00 -1.193479e+01 -3.784936e+02
    endloop
  endfacet
  facet normal -1.040197e-13 9.992080e-01 -3.979121e-02
    outer loop
      vertex -1.635943e+02 -1.204301e+01 -3.812111e+02
      vertex -1.635943e+02 -1.192605e+01 -3.782741e+02
      vertex -1.630640e+02 -1.193479e+01 -3.784936e+02
    endloop
  endfacet
  facet normal -1.169719e-13 9.992080e-01 -3.979121e-02
    outer loop
      vertex -1.630640e+02 -1.203427e+01 -3.809916e+02
      vertex -1.635943e+02 -1.204301e+01 -3.812111e+02
      vertex -1.630640e+02 -1.193479e+01 -3.784936e+02
    endloop
  endfacet
  facet normal -1.131362e-13 9.992080e-01 -3.979121e-02
    outer loop
      vertex -8.962205e+00 -1.199258e+01 -3.799448e+02
      vertex -9.534274e+00 -1.207254e+01 -3.819528e+02
      vertex -9.153794e+00 -1.193479e+01 -3.784936e+02
    endloop
  endfacet
  facet normal -1.206127e-13 9.992080e-01 -3.979121e-02
    outer loop
      vertex -9.653375e+00 -1.204624e+01 -3.812924e+02
      vertex -9.153794e+00 -1.193479e+01 -3.784936e+02
      vertex -9.534274e+00 -1.207254e+01 -3.819528e+02
    endloop
  endfacet
  facet normal -1.273691e-13 9.992080e-01 -3.979121e-02
    outer loop
      vertex -8.693799e+00 -1.192852e+01 -3.783361e+02
      vertex -8.962205e+00 -1.199258e+01 -3.799448e+02
      vertex -9.153794e+00 -1.193479e+01 -3.784936e+02
    endloop
  endfacet
  facet normal 3.241685e-01 -3.764246e-02 -9.452501e-01
    outer loop
      vertex -8.693799e+00 -1.025219e+01 -3.784029e+02
      vertex -8.693799e+00 -1.192852e+01 -3.783361e+02
      vertex -9.153794e+00 -1.193479e+01 -3.784936e+02
    endloop
  endfacet
  facet normal -1.104044e-13 9.992080e-01 -3.979121e-02
    outer loop
      vertex -1.025371e+01 -1.203427e+01 -3.809916e+02
      vertex -1.630640e+02 -1.203427e+01 -3.809916e+02
      vertex -9.153794e+00 -1.193479e+01 -3.784936e+02
    endloop
  endfacet
  facet normal -1.120691e-13 9.992080e-01 -3.979121e-02
    outer loop
      vertex -9.653375e+00 -1.204624e+01 -3.812924e+02
      vertex -1.025371e+01 -1.203427e+01 -3.809916e+02
      vertex -9.153794e+00 -1.193479e+01 -3.784936e+02
    endloop
  endfacet
  facet normal 9.617881e-01 -1.209465e-02 -2.735275e-01
    outer loop
      vertex -9.574862e+00 -1.310322e+01 -3.820499e+02
      vertex -9.534274e+00 -1.207254e+01 -3.819528e+02
      vertex -8.962205e+00 -1.199258e+01 -3.799448e+02
    endloop
  endfacet
  facet normal 9.841484e-01 7.056847e-03 1.772064e-01
    outer loop
      vertex -9.653375e+00 -1.090215e+01 -3.813379e+02
      vertex -9.653375e+00 -1.204624e+01 -3.812924e+02
      vertex -9.534274e+00 -1.207254e+01 -3.819528e+02
    endloop
  endfacet
  facet normal 9.841484e-01 7.056847e-03 1.772064e-01
    outer loop
      vertex -9.653375e+00 -1.090215e+01 -3.813379e+02
      vertex -9.534274e+00 -1.207254e+01 -3.819528e+02
      vertex -9.534274e+00 -1.092845e+01 -3.819983e+02
    endloop
  endfacet
  facet normal 9.594092e-01 -1.122182e-02 -2.817943e-01
    outer loop
      vertex -9.574862e+00 -1.310322e+01 -3.820499e+02
      vertex -9.534274e+00 -1.092845e+01 -3.819983e+02
      vertex -9.534274e+00 -1.207254e+01 -3.819528e+02
    endloop
  endfacet
  facet normal -8.173481e-14 9.992080e-01 -3.979121e-02
    outer loop
      vertex -8.693799e+00 -1.192852e+01 -3.783361e+02
      vertex -8.427159e+00 -1.191234e+01 -3.779298e+02
      vertex -8.962205e+00 -1.199258e+01 -3.799448e+02
    endloop
  endfacet
  facet normal 9.657717e-01 -5.048287e-02 -2.544337e-01
    outer loop
      vertex -9.574862e+00 -1.310322e+01 -3.820499e+02
      vertex -8.962205e+00 -1.199258e+01 -3.799448e+02
      vertex -8.427159e+00 -1.191234e+01 -3.779298e+02
    endloop
  endfacet
  facet normal 8.362442e-01 -2.181979e-02 -5.479229e-01
    outer loop
      vertex -8.427159e+00 -1.023601e+01 -3.779966e+02
      vertex -8.427159e+00 -1.191234e+01 -3.779298e+02
      vertex -8.693799e+00 -1.192852e+01 -3.783361e+02
    endloop
  endfacet
  facet normal 9.647203e-01 -1.212864e-01 -2.336757e-01
    outer loop
      vertex -7.069208e+00 -1.269962e+01 -3.719149e+02
      vertex -9.574862e+00 -1.310322e+01 -3.820499e+02
      vertex -8.427159e+00 -1.191234e+01 -3.779298e+02
    endloop
  endfacet
  facet normal 9.744565e-01 -2.462721e-02 -2.232221e-01
    outer loop
      vertex -8.070011e+00 -1.017888e+01 -3.765619e+02
      vertex -7.069208e+00 -1.269962e+01 -3.719149e+02
      vertex -8.427159e+00 -1.191234e+01 -3.779298e+02
    endloop
  endfacet
  facet normal 9.711938e-01 -1.231545e-02 -2.379727e-01
    outer loop
      vertex -8.247505e+00 -1.020767e+01 -3.772848e+02
      vertex -8.070011e+00 -1.017888e+01 -3.765619e+02
      vertex -8.427159e+00 -1.191234e+01 -3.779298e+02
    endloop
  endfacet
  facet normal 9.696338e-01 -9.731398e-03 -2.443678e-01
    outer loop
      vertex -8.427159e+00 -1.023601e+01 -3.779966e+02
      vertex -8.247505e+00 -1.020767e+01 -3.772848e+02
      vertex -8.427159e+00 -1.191234e+01 -3.779298e+02
    endloop
  endfacet
  facet normal 8.362442e-01 -2.181979e-02 -5.479229e-01
    outer loop
      vertex -8.693799e+00 -1.025219e+01 -3.784029e+02
      vertex -8.427159e+00 -1.023601e+01 -3.779966e+02
      vertex -8.693799e+00 -1.192852e+01 -3.783361e+02
    endloop
  endfacet
  facet normal -3.826834e-01 3.676228e-02 9.231478e-01
    outer loop
      vertex -1.635943e+02 -1.089891e+01 -3.812567e+02
      vertex -1.635943e+02 -1.204301e+01 -3.812111e+02
      vertex -1.630640e+02 -1.203427e+01 -3.809916e+02
    endloop
  endfacet
  facet normal 2.727406e-12 3.979121e-02 9.992080e-01
    outer loop
      vertex -1.630640e+02 -1.089017e+01 -3.810372e+02
      vertex -1.630640e+02 -1.203427e+01 -3.809916e+02
      vertex -1.025371e+01 -1.203427e+01 -3.809916e+02
    endloop
  endfacet
  facet normal -3.826834e-01 3.676228e-02 9.231478e-01
    outer loop
      vertex -1.635943e+02 -1.089891e+01 -3.812567e+02
      vertex -1.630640e+02 -1.203427e+01 -3.809916e+02
      vertex -1.630640e+02 -1.089017e+01 -3.810372e+02
    endloop
  endfacet
  facet normal 4.482048e-01 3.557059e-02 8.932229e-01
    outer loop
      vertex -1.025371e+01 -1.089017e+01 -3.810372e+02
      vertex -1.025371e+01 -1.203427e+01 -3.809916e+02
      vertex -9.653375e+00 -1.204624e+01 -3.812924e+02
    endloop
  endfacet
  facet normal 2.728149e-12 3.979121e-02 9.992080e-01
    outer loop
      vertex -1.025371e+01 -1.089017e+01 -3.810372e+02
      vertex -1.630640e+02 -1.089017e+01 -3.810372e+02
      vertex -1.025371e+01 -1.203427e+01 -3.809916e+02
    endloop
  endfacet
  facet normal 4.482048e-01 3.557059e-02 8.932229e-01
    outer loop
      vertex -9.653375e+00 -1.090215e+01 -3.813379e+02
      vertex -1.025371e+01 -1.089017e+01 -3.810372e+02
      vertex -9.653375e+00 -1.204624e+01 -3.812924e+02
    endloop
  endfacet
  facet normal -1.402954e-13 9.992080e-01 -3.979121e-02
    outer loop
      vertex -8.693799e+00 -1.025219e+01 -3.784029e+02
      vertex -8.070011e+00 -1.017888e+01 -3.765619e+02
      vertex -8.427159e+00 -1.023601e+01 -3.779966e+02
    endloop
  endfacet
  facet normal 3.012596e-12 9.992080e-01 -3.979121e-02
    outer loop
      vertex -8.427159e+00 -1.023601e+01 -3.779966e+02
      vertex -8.070011e+00 -1.017888e+01 -3.765619e+02
      vertex -8.247505e+00 -1.020767e+01 -3.772848e+02
    endloop
  endfacet
  facet normal -4.658502e-14 9.992080e-01 -3.979121e-02
    outer loop
      vertex -9.653375e+00 -1.090215e+01 -3.813379e+02
      vertex -9.534274e+00 -1.092845e+01 -3.819983e+02
      vertex -9.574862e+00 -1.093394e+01 -3.821363e+02
    endloop
  endfacet
  facet normal 9.594092e-01 -1.122182e-02 -2.817943e-01
    outer loop
      vertex -9.574862e+00 -1.310322e+01 -3.820499e+02
      vertex -9.574862e+00 -1.093394e+01 -3.821363e+02
      vertex -9.534274e+00 -1.092845e+01 -3.819983e+02
    endloop
  endfacet
  facet normal 1.089985e-13 -9.992080e-01 3.979121e-02
    outer loop
      vertex -1.011129e+01 -1.010892e+01 -3.068590e+02
      vertex -1.049094e+01 -1.003331e+01 -3.049605e+02
      vertex -9.574862e+00 -1.310322e+01 -3.820499e+02
    endloop
  endfacet
  facet normal 1.104748e-13 -9.992080e-01 3.979121e-02
    outer loop
      vertex -5.916443e+01 -1.132854e+01 -3.374853e+02
      vertex -9.574862e+00 -1.310322e+01 -3.820499e+02
      vertex -1.049094e+01 -1.003331e+01 -3.049605e+02
    endloop
  endfacet
  facet normal 1.119147e-13 -9.992080e-01 3.979121e-02
    outer loop
      vertex -7.069208e+00 -1.269962e+01 -3.719149e+02
      vertex -1.011129e+01 -1.010892e+01 -3.068590e+02
      vertex -9.574862e+00 -1.310322e+01 -3.820499e+02
    endloop
  endfacet
  facet normal 1.096361e-13 -9.992080e-01 3.979121e-02
    outer loop
      vertex -5.916443e+01 -1.132854e+01 -3.374853e+02
      vertex -6.041400e+01 -1.137827e+01 -3.387343e+02
      vertex -9.574862e+00 -1.310322e+01 -3.820499e+02
    endloop
  endfacet
  facet normal 1.104506e-13 -9.992080e-01 3.979121e-02
    outer loop
      vertex -1.501550e+02 -1.137827e+01 -3.387343e+02
      vertex -9.574862e+00 -1.310322e+01 -3.820499e+02
      vertex -6.041400e+01 -1.137827e+01 -3.387343e+02
    endloop
  endfacet
  facet normal 1.362041e-13 -9.992080e-01 3.979121e-02
    outer loop
      vertex -6.041400e+01 -1.127880e+01 -3.362362e+02
      vertex -1.264140e+02 -1.003331e+01 -3.049605e+02
      vertex -1.265140e+02 -1.003331e+01 -3.049605e+02
    endloop
  endfacet
  facet normal 1.104111e-13 -9.992080e-01 3.979121e-02
    outer loop
      vertex -1.501550e+02 -1.127880e+01 -3.362362e+02
      vertex -6.041400e+01 -1.127880e+01 -3.362362e+02
      vertex -1.265140e+02 -1.003331e+01 -3.049605e+02
    endloop
  endfacet
  facet normal 1.104318e-13 -9.992080e-01 3.979121e-02
    outer loop
      vertex -6.041400e+01 -1.127880e+01 -3.362362e+02
      vertex -1.049094e+01 -1.003331e+01 -3.049605e+02
      vertex -1.264140e+02 -1.003331e+01 -3.049605e+02
    endloop
  endfacet
  facet normal 1.108255e-13 -9.992080e-01 3.979121e-02
    outer loop
      vertex -6.041400e+01 -1.127880e+01 -3.362362e+02
      vertex -5.916443e+01 -1.132854e+01 -3.374853e+02
      vertex -1.049094e+01 -1.003331e+01 -3.049605e+02
    endloop
  endfacet
  facet normal 1.088948e-13 -9.992080e-01 3.979121e-02
    outer loop
      vertex -7.069208e+00 -1.269962e+01 -3.719149e+02
      vertex -6.960258e+00 -1.074914e+01 -3.229360e+02
      vertex -1.011129e+01 -1.010892e+01 -3.068590e+02
    endloop
  endfacet
  facet normal 1.090947e-13 -9.992080e-01 3.979121e-02
    outer loop
      vertex -5.264000e+00 -1.218745e+01 -3.590537e+02
      vertex -5.264000e+00 -1.130435e+01 -3.368780e+02
      vertex -6.960258e+00 -1.074914e+01 -3.229360e+02
    endloop
  endfacet
  facet normal 1.108426e-13 -9.992080e-01 3.979121e-02
    outer loop
      vertex -7.069208e+00 -1.269962e+01 -3.719149e+02
      vertex -5.264000e+00 -1.218745e+01 -3.590537e+02
      vertex -6.960258e+00 -1.074914e+01 -3.229360e+02
    endloop
  endfacet
  facet normal 9.814407e-01 7.630604e-03 1.916142e-01
    outer loop
      vertex -1.005818e+01 -7.940463e+00 -3.071804e+02
      vertex -1.005818e+01 -8.649424e+00 -3.071522e+02
      vertex -6.960258e+00 -1.074914e+01 -3.229360e+02
    endloop
  endfacet
  facet normal 6.214321e-01 -7.513795e-01 2.219257e-01
    outer loop
      vertex -1.009239e+01 -8.645014e+00 -3.070414e+02
      vertex -6.960258e+00 -1.074914e+01 -3.229360e+02
      vertex -1.005818e+01 -8.649424e+00 -3.071522e+02
    endloop
  endfacet
  facet normal 9.554021e-01 -1.941971e-01 2.224734e-01
    outer loop
      vertex -9.898844e+00 -7.968694e+00 -3.078893e+02
      vertex -1.005818e+01 -7.940463e+00 -3.071804e+02
      vertex -6.960258e+00 -1.074914e+01 -3.229360e+02
    endloop
  endfacet
  facet normal 9.588366e-01 -1.790990e-01 2.203542e-01
    outer loop
      vertex -9.742036e+00 -7.996774e+00 -3.085944e+02
      vertex -9.898844e+00 -7.968694e+00 -3.078893e+02
      vertex -6.960258e+00 -1.074914e+01 -3.229360e+02
    endloop
  endfacet
  facet normal 7.071068e-01 -7.065468e-01 2.813663e-02
    outer loop
      vertex -4.814301e+00 -1.131515e+01 -3.484505e+02
      vertex -5.264000e+00 -1.130435e+01 -3.368780e+02
      vertex -5.264000e+00 -1.218745e+01 -3.590537e+02
    endloop
  endfacet
  facet normal 9.991076e-01 -2.763517e-03 -4.214626e-02
    outer loop
      vertex -4.814301e+00 -1.131515e+01 -3.484505e+02
      vertex -5.264000e+00 -1.218745e+01 -3.590537e+02
      vertex -4.814644e+00 -9.638503e+00 -3.485686e+02
    endloop
  endfacet
  facet normal 8.476639e-01 2.111058e-02 5.301135e-01
    outer loop
      vertex -1.032146e+01 -7.923725e+00 -3.067601e+02
      vertex -1.005818e+01 -8.649424e+00 -3.071522e+02
      vertex -1.005818e+01 -7.940463e+00 -3.071804e+02
    endloop
  endfacet
  facet normal 9.404435e-01 1.882452e-01 2.830721e-01
    outer loop
      vertex -1.032146e+01 -7.923725e+00 -3.067601e+02
      vertex -1.009239e+01 -8.645014e+00 -3.070414e+02
      vertex -1.005818e+01 -8.649424e+00 -3.071522e+02
    endloop
  endfacet
endsolid P1040852002
