solid P1040852002
  facet normal 1.000000e+00 -8.895269e-13 5.502704e-15
    outer loop
      vertex 2.472500e+02 5.917828e+00 -3.038432e+02
      vertex 2.472500e+02 4.447944e+00 -3.038617e+02
      vertex 2.472500e+02 4.490816e+00 -3.072615e+02
    endloop
  endfacet
  facet normal -8.889974e-13 -9.999205e-01 -1.260938e-02
    outer loop
      vertex 2.470303e+02 4.484129e+00 -3.067312e+02
      vertex 2.472500e+02 4.490816e+00 -3.072615e+02
      vertex 2.472500e+02 4.447944e+00 -3.038617e+02
    endloop
  endfacet
  facet normal 1.000000e+00 -8.754606e-13 -3.694980e-16
    outer loop
      vertex 2.472500e+02 4.130470e+00 -3.765220e+02
      vertex 2.472500e+02 5.917828e+00 -3.038432e+02
      vertex 2.472500e+02 4.490816e+00 -3.072615e+02
    endloop
  endfacet
  facet normal 1.000000e+00 -9.009304e-13 -2.369851e-16
    outer loop
      vertex 2.472500e+02 3.797112e+00 -3.085203e+02
      vertex 2.472500e+02 4.130470e+00 -3.765220e+02
      vertex 2.472500e+02 4.490816e+00 -3.072615e+02
    endloop
  endfacet
  facet normal 1.000000e+00 -9.215364e-13 1.111825e-14
    outer loop
      vertex 2.472500e+02 3.781350e+00 -3.072704e+02
      vertex 2.472500e+02 3.797112e+00 -3.085203e+02
      vertex 2.472500e+02 4.490816e+00 -3.072615e+02
    endloop
  endfacet
  facet normal 9.238795e-01 -4.825402e-03 3.826530e-01
    outer loop
      vertex 2.470303e+02 4.484129e+00 -3.067312e+02
      vertex 2.472500e+02 3.781350e+00 -3.072704e+02
      vertex 2.472500e+02 4.490816e+00 -3.072615e+02
    endloop
  endfacet
  facet normal -1.126793e-14 -1.260938e-02 9.999205e-01
    outer loop
      vertex 2.100000e+02 5.917828e+00 -3.038432e+02
      vertex 2.472500e+02 4.447944e+00 -3.038617e+02
      vertex 2.472500e+02 5.917828e+00 -3.038432e+02
    endloop
  endfacet
  facet normal -1.126823e-14 -1.260938e-02 9.999205e-01
    outer loop
      vertex 2.100000e+02 4.447944e+00 -3.038617e+02
      vertex 2.472500e+02 4.447944e+00 -3.038617e+02
      vertex 2.100000e+02 5.917828e+00 -3.038432e+02
    endloop
  endfacet
  facet normal -8.935676e-13 -9.999205e-01 -1.260938e-02
    outer loop
      vertex 2.465000e+02 4.481359e+00 -3.065115e+02
      vertex 2.472500e+02 4.447944e+00 -3.038617e+02
      vertex 2.100000e+02 4.447944e+00 -3.038617e+02
    endloop
  endfacet
  facet normal -8.948404e-13 -9.999205e-01 -1.260938e-02
    outer loop
      vertex 2.470303e+02 4.484129e+00 -3.067312e+02
      vertex 2.472500e+02 4.447944e+00 -3.038617e+02
      vertex 2.465000e+02 4.481359e+00 -3.065115e+02
    endloop
  endfacet
  facet normal 1.000000e+00 -9.102578e-13 1.450826e-16
    outer loop
      vertex 2.472500e+02 5.874186e+00 -3.817505e+02
      vertex 2.472500e+02 6.904518e+00 -3.820875e+02
      vertex 2.472500e+02 5.917828e+00 -3.038432e+02
    endloop
  endfacet
  facet normal 8.935103e-13 9.999205e-01 1.260938e-02
    outer loop
      vertex 2.335910e+02 6.490930e+00 -3.492901e+02
      vertex 2.472500e+02 5.917828e+00 -3.038432e+02
      vertex 2.472500e+02 6.904518e+00 -3.820875e+02
    endloop
  endfacet
  facet normal 1.000000e+00 -5.672356e-13 -4.706745e-17
    outer loop
      vertex 2.472500e+02 5.823749e+00 -3.777508e+02
      vertex 2.472500e+02 5.874186e+00 -3.817505e+02
      vertex 2.472500e+02 5.917828e+00 -3.038432e+02
    endloop
  endfacet
  facet normal 1.000000e+00 -9.061120e-13 3.842962e-16
    outer loop
      vertex 2.472500e+02 4.130470e+00 -3.765220e+02
      vertex 2.472500e+02 5.823749e+00 -3.777508e+02
      vertex 2.472500e+02 5.917828e+00 -3.038432e+02
    endloop
  endfacet
  facet normal 8.935443e-13 9.999205e-01 1.260938e-02
    outer loop
      vertex 2.335910e+02 6.459407e+00 -3.467903e+02
      vertex 2.100000e+02 5.917828e+00 -3.038432e+02
      vertex 2.472500e+02 5.917828e+00 -3.038432e+02
    endloop
  endfacet
  facet normal 8.916182e-13 9.999205e-01 1.260938e-02
    outer loop
      vertex 2.335910e+02 6.490930e+00 -3.492901e+02
      vertex 2.335910e+02 6.459407e+00 -3.467903e+02
      vertex 2.472500e+02 5.917828e+00 -3.038432e+02
    endloop
  endfacet
  facet normal 1.000000e+00 -9.032437e-13 -1.139025e-14
    outer loop
      vertex 2.472500e+02 4.729278e+00 -3.817649e+02
      vertex 2.472500e+02 4.733691e+00 -3.821149e+02
      vertex 2.472500e+02 6.904518e+00 -3.820875e+02
    endloop
  endfacet
  facet normal 9.793797e-15 1.260938e-02 -9.999205e-01
    outer loop
      vertex 9.301086e+01 4.733691e+00 -3.821149e+02
      vertex 2.472500e+02 6.904518e+00 -3.820875e+02
      vertex 2.472500e+02 4.733691e+00 -3.821149e+02
    endloop
  endfacet
  facet normal 1.000000e+00 -8.942965e-13 4.893954e-14
    outer loop
      vertex 2.472500e+02 5.874186e+00 -3.817505e+02
      vertex 2.472500e+02 4.729278e+00 -3.817649e+02
      vertex 2.472500e+02 6.904518e+00 -3.820875e+02
    endloop
  endfacet
  facet normal 1.053082e-14 1.260938e-02 -9.999205e-01
    outer loop
      vertex 9.301086e+01 6.904518e+00 -3.820875e+02
      vertex 2.472500e+02 6.904518e+00 -3.820875e+02
      vertex 9.301086e+01 4.733691e+00 -3.821149e+02
    endloop
  endfacet
  facet normal 8.935461e-13 9.999205e-01 1.260938e-02
    outer loop
      vertex 2.335910e+02 6.490930e+00 -3.492901e+02
      vertex 2.472500e+02 6.904518e+00 -3.820875e+02
      vertex 9.301086e+01 6.904518e+00 -3.820875e+02
    endloop
  endfacet
  facet normal -8.860158e-13 -9.999205e-01 -1.260938e-02
    outer loop
      vertex 2.470303e+02 4.722590e+00 -3.812346e+02
      vertex 2.472500e+02 4.733691e+00 -3.821149e+02
      vertex 2.472500e+02 4.729278e+00 -3.817649e+02
    endloop
  endfacet
  facet normal -8.935482e-13 -9.999205e-01 -1.260938e-02
    outer loop
      vertex 9.368971e+01 4.719820e+00 -3.810149e+02
      vertex 2.472500e+02 4.733691e+00 -3.821149e+02
      vertex 2.465000e+02 4.719820e+00 -3.810149e+02
    endloop
  endfacet
  facet normal -8.916038e-13 -9.999205e-01 -1.260938e-02
    outer loop
      vertex 2.470303e+02 4.722590e+00 -3.812346e+02
      vertex 2.465000e+02 4.719820e+00 -3.810149e+02
      vertex 2.472500e+02 4.733691e+00 -3.821149e+02
    endloop
  endfacet
  facet normal -8.935521e-13 -9.999205e-01 -1.260938e-02
    outer loop
      vertex 9.308937e+01 4.723616e+00 -3.813159e+02
      vertex 2.472500e+02 4.733691e+00 -3.821149e+02
      vertex 9.368971e+01 4.719820e+00 -3.810149e+02
    endloop
  endfacet
  facet normal -8.935554e-13 -9.999205e-01 -1.260938e-02
    outer loop
      vertex 9.308937e+01 4.723616e+00 -3.813159e+02
      vertex 9.301086e+01 4.733691e+00 -3.821149e+02
      vertex 2.472500e+02 4.733691e+00 -3.821149e+02
    endloop
  endfacet
  facet normal 9.238795e-01 -4.825402e-03 3.826530e-01
    outer loop
      vertex 2.470303e+02 5.867499e+00 -3.812202e+02
      vertex 2.472500e+02 4.729278e+00 -3.817649e+02
      vertex 2.472500e+02 5.874186e+00 -3.817505e+02
    endloop
  endfacet
  facet normal 9.238795e-01 -4.825402e-03 3.826530e-01
    outer loop
      vertex 2.470303e+02 4.722590e+00 -3.812346e+02
      vertex 2.472500e+02 4.729278e+00 -3.817649e+02
      vertex 2.470303e+02 5.867499e+00 -3.812202e+02
    endloop
  endfacet
  facet normal -8.961504e-13 -9.999205e-01 -1.260938e-02
    outer loop
      vertex 2.470303e+02 5.830436e+00 -3.782811e+02
      vertex 2.472500e+02 5.874186e+00 -3.817505e+02
      vertex 2.472500e+02 5.823749e+00 -3.777508e+02
    endloop
  endfacet
  facet normal -8.946305e-13 -9.999205e-01 -1.260938e-02
    outer loop
      vertex 2.470303e+02 5.867499e+00 -3.812202e+02
      vertex 2.472500e+02 5.874186e+00 -3.817505e+02
      vertex 2.470303e+02 5.830436e+00 -3.782811e+02
    endloop
  endfacet
  facet normal 1.000000e+00 -8.981084e-13 1.141368e-14
    outer loop
      vertex 2.472500e+02 4.130470e+00 -3.765220e+02
      vertex 2.472500e+02 4.146232e+00 -3.777719e+02
      vertex 2.472500e+02 5.823749e+00 -3.777508e+02
    endloop
  endfacet
  facet normal 9.238795e-01 4.825402e-03 -3.826530e-01
    outer loop
      vertex 2.470303e+02 4.152919e+00 -3.783022e+02
      vertex 2.472500e+02 5.823749e+00 -3.777508e+02
      vertex 2.472500e+02 4.146232e+00 -3.777719e+02
    endloop
  endfacet
  facet normal 9.238795e-01 4.825402e-03 -3.826530e-01
    outer loop
      vertex 2.470303e+02 4.152919e+00 -3.783022e+02
      vertex 2.470303e+02 5.830436e+00 -3.782811e+02
      vertex 2.472500e+02 5.823749e+00 -3.777508e+02
    endloop
  endfacet
  facet normal -8.935536e-13 -9.999205e-01 -1.260938e-02
    outer loop
      vertex 9.150601e+01 4.130470e+00 -3.765220e+02
      vertex 2.472500e+02 4.146232e+00 -3.777719e+02
      vertex 2.472500e+02 4.130470e+00 -3.765220e+02
    endloop
  endfacet
  facet normal -8.935663e-13 -9.999205e-01 -1.260938e-02
    outer loop
      vertex 2.470303e+02 4.152919e+00 -3.783022e+02
      vertex 2.472500e+02 4.146232e+00 -3.777719e+02
      vertex 9.150601e+01 4.130470e+00 -3.765220e+02
    endloop
  endfacet
  facet normal 1.000000e+00 -6.686225e-13 1.590523e-15
    outer loop
      vertex 2.472500e+02 3.697120e+00 -3.085216e+02
      vertex 2.472500e+02 4.045452e+00 -3.765231e+02
      vertex 2.472500e+02 4.130470e+00 -3.765220e+02
    endloop
  endfacet
  facet normal 1.126806e-14 1.260938e-02 -9.999205e-01
    outer loop
      vertex 9.150601e+01 4.045452e+00 -3.765231e+02
      vertex 2.472500e+02 4.130470e+00 -3.765220e+02
      vertex 2.472500e+02 4.045452e+00 -3.765231e+02
    endloop
  endfacet
  facet normal 1.000000e+00 -1.136941e-12 -1.393958e-15
    outer loop
      vertex 2.472500e+02 3.797112e+00 -3.085203e+02
      vertex 2.472500e+02 3.697120e+00 -3.085216e+02
      vertex 2.472500e+02 4.130470e+00 -3.765220e+02
    endloop
  endfacet
  facet normal 1.126806e-14 1.260938e-02 -9.999205e-01
    outer loop
      vertex 9.150601e+01 4.130470e+00 -3.765220e+02
      vertex 2.472500e+02 4.130470e+00 -3.765220e+02
      vertex 9.150601e+01 4.045452e+00 -3.765231e+02
    endloop
  endfacet
  facet normal -8.935410e-13 -9.999869e-01 -5.122347e-03
    outer loop
      vertex 2.335910e+02 3.893314e+00 -3.468227e+02
      vertex 2.472500e+02 4.045452e+00 -3.765231e+02
      vertex 2.472500e+02 3.697120e+00 -3.085216e+02
    endloop
  endfacet
  facet normal -8.936101e-13 -9.999869e-01 -5.122347e-03
    outer loop
      vertex 2.335910e+02 3.906120e+00 -3.493227e+02
      vertex 1.438500e+02 3.906120e+00 -3.493227e+02
      vertex 2.472500e+02 4.045452e+00 -3.765231e+02
    endloop
  endfacet
  facet normal -8.936129e-13 -9.999869e-01 -5.122347e-03
    outer loop
      vertex 9.150601e+01 4.045452e+00 -3.765231e+02
      vertex 2.472500e+02 4.045452e+00 -3.765231e+02
      vertex 1.438500e+02 3.906120e+00 -3.493227e+02
    endloop
  endfacet
  facet normal -8.943714e-13 -9.999869e-01 -5.122347e-03
    outer loop
      vertex 2.335910e+02 3.893314e+00 -3.468227e+02
      vertex 2.335910e+02 3.906120e+00 -3.493227e+02
      vertex 2.472500e+02 4.045452e+00 -3.765231e+02
    endloop
  endfacet
  facet normal -1.126808e-14 -1.260938e-02 9.999205e-01
    outer loop
      vertex 9.317804e+01 3.797112e+00 -3.085203e+02
      vertex 2.472500e+02 3.697120e+00 -3.085216e+02
      vertex 2.472500e+02 3.797112e+00 -3.085203e+02
    endloop
  endfacet
  facet normal -8.936048e-13 -9.999869e-01 -5.122347e-03
    outer loop
      vertex 9.317804e+01 3.697120e+00 -3.085216e+02
      vertex 2.335910e+02 3.893314e+00 -3.468227e+02
      vertex 2.472500e+02 3.697120e+00 -3.085216e+02
    endloop
  endfacet
  facet normal -9.792213e-15 -1.260938e-02 9.999205e-01
    outer loop
      vertex 9.317804e+01 3.797112e+00 -3.085203e+02
      vertex 9.317804e+01 3.697120e+00 -3.085216e+02
      vertex 2.472500e+02 3.697120e+00 -3.085216e+02
    endloop
  endfacet
  facet normal -8.690441e-13 -9.999205e-01 -1.260938e-02
    outer loop
      vertex 2.470303e+02 3.774663e+00 -3.067401e+02
      vertex 2.472500e+02 3.797112e+00 -3.085203e+02
      vertex 2.472500e+02 3.781350e+00 -3.072704e+02
    endloop
  endfacet
  facet normal -8.935655e-13 -9.999205e-01 -1.260938e-02
    outer loop
      vertex 9.422577e+01 3.771893e+00 -3.065205e+02
      vertex 2.472500e+02 3.797112e+00 -3.085203e+02
      vertex 2.465000e+02 3.771893e+00 -3.065205e+02
    endloop
  endfacet
  facet normal -8.925645e-13 -9.999205e-01 -1.260938e-02
    outer loop
      vertex 2.470303e+02 3.774663e+00 -3.067401e+02
      vertex 2.465000e+02 3.771893e+00 -3.065205e+02
      vertex 2.472500e+02 3.797112e+00 -3.085203e+02
    endloop
  endfacet
  facet normal -8.934376e-13 -9.999205e-01 -1.260938e-02
    outer loop
      vertex 9.375746e+01 3.773964e+00 -3.066846e+02
      vertex 2.472500e+02 3.797112e+00 -3.085203e+02
      vertex 9.422577e+01 3.771893e+00 -3.065205e+02
    endloop
  endfacet
  facet normal -8.935512e-13 -9.999205e-01 -1.260938e-02
    outer loop
      vertex 9.333484e+01 3.788214e+00 -3.078147e+02
      vertex 2.472500e+02 3.797112e+00 -3.085203e+02
      vertex 9.349418e+01 3.779268e+00 -3.071053e+02
    endloop
  endfacet
  facet normal -8.935540e-13 -9.999205e-01 -1.260938e-02
    outer loop
      vertex 9.375746e+01 3.773964e+00 -3.066846e+02
      vertex 9.349418e+01 3.779268e+00 -3.071053e+02
      vertex 2.472500e+02 3.797112e+00 -3.085203e+02
    endloop
  endfacet
  facet normal -8.935552e-13 -9.999205e-01 -1.260938e-02
    outer loop
      vertex 9.317804e+01 3.797112e+00 -3.085203e+02
      vertex 2.472500e+02 3.797112e+00 -3.085203e+02
      vertex 9.333484e+01 3.788214e+00 -3.078147e+02
    endloop
  endfacet
  facet normal 9.238795e-01 -4.825402e-03 3.826530e-01
    outer loop
      vertex 2.470303e+02 3.774663e+00 -3.067401e+02
      vertex 2.472500e+02 3.781350e+00 -3.072704e+02
      vertex 2.470303e+02 4.484129e+00 -3.067312e+02
    endloop
  endfacet
  facet normal -7.071068e-01 -8.916180e-03 7.070506e-01
    outer loop
      vertex 2.099500e+02 4.448575e+00 -3.039117e+02
      vertex 2.100000e+02 4.447944e+00 -3.038617e+02
      vertex 2.100000e+02 5.917828e+00 -3.038432e+02
    endloop
  endfacet
  facet normal -7.071068e-01 -8.916180e-03 7.070506e-01
    outer loop
      vertex 2.099500e+02 5.918458e+00 -3.038932e+02
      vertex 2.099500e+02 4.448575e+00 -3.039117e+02
      vertex 2.100000e+02 5.917828e+00 -3.038432e+02
    endloop
  endfacet
  facet normal 8.843072e-13 9.999205e-01 1.260938e-02
    outer loop
      vertex 2.099500e+02 5.930437e+00 -3.048431e+02
      vertex 2.099500e+02 5.918458e+00 -3.038932e+02
      vertex 2.100000e+02 5.917828e+00 -3.038432e+02
    endloop
  endfacet
  facet normal 1.028951e-12 9.999205e-01 1.260938e-02
    outer loop
      vertex 2.099500e+02 5.931698e+00 -3.049431e+02
      vertex 2.099500e+02 5.930437e+00 -3.048431e+02
      vertex 2.100000e+02 5.917828e+00 -3.038432e+02
    endloop
  endfacet
  facet normal 8.915410e-13 9.999205e-01 1.260938e-02
    outer loop
      vertex 2.335910e+02 6.459407e+00 -3.467903e+02
      vertex 2.099500e+02 5.931698e+00 -3.049431e+02
      vertex 2.100000e+02 5.917828e+00 -3.038432e+02
    endloop
  endfacet
  facet normal -8.921913e-13 -9.999205e-01 -1.260938e-02
    outer loop
      vertex 2.099500e+02 4.448575e+00 -3.039117e+02
      vertex 2.465000e+02 4.481359e+00 -3.065115e+02
      vertex 2.100000e+02 4.447944e+00 -3.038617e+02
    endloop
  endfacet
  facet normal -8.935538e-13 -9.999205e-01 -1.260938e-02
    outer loop
      vertex 2.098500e+02 4.461815e+00 -3.049617e+02
      vertex 9.422577e+01 4.481359e+00 -3.065115e+02
      vertex 2.465000e+02 4.481359e+00 -3.065115e+02
    endloop
  endfacet
  facet normal -1.126806e-14 -1.260938e-02 9.999205e-01
    outer loop
      vertex 2.465000e+02 3.771893e+00 -3.065205e+02
      vertex 2.465000e+02 4.481359e+00 -3.065115e+02
      vertex 9.422577e+01 4.481359e+00 -3.065115e+02
    endloop
  endfacet
  facet normal -8.881078e-13 -9.999205e-01 -1.260938e-02
    outer loop
      vertex 2.099500e+02 4.461815e+00 -3.049617e+02
      vertex 2.098500e+02 4.461815e+00 -3.049617e+02
      vertex 2.465000e+02 4.481359e+00 -3.065115e+02
    endloop
  endfacet
  facet normal -8.943860e-13 -9.999205e-01 -1.260938e-02
    outer loop
      vertex 2.099500e+02 4.460554e+00 -3.048617e+02
      vertex 2.099500e+02 4.461815e+00 -3.049617e+02
      vertex 2.465000e+02 4.481359e+00 -3.065115e+02
    endloop
  endfacet
  facet normal -8.934771e-13 -9.999205e-01 -1.260938e-02
    outer loop
      vertex 2.099500e+02 4.448575e+00 -3.039117e+02
      vertex 2.099500e+02 4.460554e+00 -3.048617e+02
      vertex 2.465000e+02 4.481359e+00 -3.065115e+02
    endloop
  endfacet
  facet normal 3.826834e-01 -1.164955e-02 9.238061e-01
    outer loop
      vertex 2.470303e+02 3.774663e+00 -3.067401e+02
      vertex 2.470303e+02 4.484129e+00 -3.067312e+02
      vertex 2.465000e+02 4.481359e+00 -3.065115e+02
    endloop
  endfacet
  facet normal 3.826834e-01 -1.164955e-02 9.238061e-01
    outer loop
      vertex 2.470303e+02 3.774663e+00 -3.067401e+02
      vertex 2.465000e+02 4.481359e+00 -3.065115e+02
      vertex 2.465000e+02 3.771893e+00 -3.065205e+02
    endloop
  endfacet
  facet normal -8.906704e-13 -9.999205e-01 -1.260938e-02
    outer loop
      vertex 9.392694e+01 4.461815e+00 -3.049617e+02
      vertex 9.385312e+01 4.482609e+00 -3.066106e+02
      vertex 9.422577e+01 4.481359e+00 -3.065115e+02
    endloop
  endfacet
  facet normal -2.570681e-01 -1.218562e-02 9.663164e-01
    outer loop
      vertex 9.422577e+01 3.771893e+00 -3.065205e+02
      vertex 9.422577e+01 4.481359e+00 -3.065115e+02
      vertex 9.385312e+01 4.482609e+00 -3.066106e+02
    endloop
  endfacet
  facet normal -8.935545e-13 -9.999205e-01 -1.260938e-02
    outer loop
      vertex 2.098500e+02 4.461815e+00 -3.049617e+02
      vertex 9.392694e+01 4.461815e+00 -3.049617e+02
      vertex 9.422577e+01 4.481359e+00 -3.065115e+02
    endloop
  endfacet
  facet normal -1.126820e-14 -1.260938e-02 9.999205e-01
    outer loop
      vertex 9.422577e+01 3.771893e+00 -3.065205e+02
      vertex 2.465000e+02 3.771893e+00 -3.065205e+02
      vertex 9.422577e+01 4.481359e+00 -3.065115e+02
    endloop
  endfacet
  facet normal -8.999663e-13 -9.999205e-01 -1.260938e-02
    outer loop
      vertex 9.392694e+01 4.461815e+00 -3.049617e+02
      vertex 9.354729e+01 4.485773e+00 -3.068615e+02
      vertex 9.385312e+01 4.482609e+00 -3.066106e+02
    endloop
  endfacet
  facet normal -6.341463e-01 4.874011e-03 7.731978e-01
    outer loop
      vertex 9.375746e+01 3.773964e+00 -3.066846e+02
      vertex 9.385312e+01 4.482609e+00 -3.066106e+02
      vertex 9.354729e+01 4.485773e+00 -3.068615e+02
    endloop
  endfacet
  facet normal -3.305452e-01 -5.376367e-02 9.422576e-01
    outer loop
      vertex 9.375746e+01 3.773964e+00 -3.066846e+02
      vertex 9.422577e+01 3.771893e+00 -3.065205e+02
      vertex 9.385312e+01 4.482609e+00 -3.066106e+02
    endloop
  endfacet
  facet normal -9.806147e-01 -2.470760e-03 1.959306e-01
    outer loop
      vertex 9.354729e+01 5.955656e+00 -3.068430e+02
      vertex 9.354729e+01 4.485773e+00 -3.068615e+02
      vertex 9.392694e+01 4.461815e+00 -3.049617e+02
    endloop
  endfacet
  facet normal -9.813576e-01 -2.423403e-03 1.921752e-01
    outer loop
      vertex 9.039626e+01 6.158537e+00 -3.229314e+02
      vertex 9.354729e+01 4.485773e+00 -3.068615e+02
      vertex 9.354729e+01 5.955656e+00 -3.068430e+02
    endloop
  endfacet
  facet normal -8.945416e-01 -4.273829e-01 1.309167e-01
    outer loop
      vertex 9.352839e+01 4.487336e+00 -3.069855e+02
      vertex 9.354729e+01 4.485773e+00 -3.068615e+02
      vertex 9.039626e+01 6.158537e+00 -3.229314e+02
    endloop
  endfacet
  facet normal -9.583058e-01 -2.474452e-01 1.429019e-01
    outer loop
      vertex 9.375746e+01 3.773964e+00 -3.066846e+02
      vertex 9.354729e+01 4.485773e+00 -3.068615e+02
      vertex 9.352839e+01 4.487336e+00 -3.069855e+02
    endloop
  endfacet
  facet normal -1.126806e-14 -1.260938e-02 9.999205e-01
    outer loop
      vertex 9.392694e+01 5.931698e+00 -3.049431e+02
      vertex 9.392694e+01 4.461815e+00 -3.049617e+02
      vertex 2.098500e+02 4.461815e+00 -3.049617e+02
    endloop
  endfacet
  facet normal -9.806147e-01 -2.470760e-03 1.959306e-01
    outer loop
      vertex 9.354729e+01 5.955656e+00 -3.068430e+02
      vertex 9.392694e+01 4.461815e+00 -3.049617e+02
      vertex 9.392694e+01 5.931698e+00 -3.049431e+02
    endloop
  endfacet
  facet normal -1.118720e-14 -1.260938e-02 9.999205e-01
    outer loop
      vertex 2.098500e+02 5.931698e+00 -3.049431e+02
      vertex 2.098500e+02 4.461815e+00 -3.049617e+02
      vertex 2.099500e+02 4.461815e+00 -3.049617e+02
    endloop
  endfacet
  facet normal -9.306514e-15 -1.260938e-02 9.999205e-01
    outer loop
      vertex 9.392694e+01 5.931698e+00 -3.049431e+02
      vertex 2.098500e+02 4.461815e+00 -3.049617e+02
      vertex 2.098500e+02 5.931698e+00 -3.049431e+02
    endloop
  endfacet
  facet normal -1.000000e+00 8.893161e-13 1.121462e-14
    outer loop
      vertex 2.099500e+02 5.931698e+00 -3.049431e+02
      vertex 2.099500e+02 4.461815e+00 -3.049617e+02
      vertex 2.099500e+02 4.460554e+00 -3.048617e+02
    endloop
  endfacet
  facet normal -1.131138e-14 -1.260938e-02 9.999205e-01
    outer loop
      vertex 2.098500e+02 5.931698e+00 -3.049431e+02
      vertex 2.099500e+02 4.461815e+00 -3.049617e+02
      vertex 2.099500e+02 5.931698e+00 -3.049431e+02
    endloop
  endfacet
  facet normal -1.000000e+00 9.090263e-13 -1.845680e-14
    outer loop
      vertex 2.099500e+02 5.918458e+00 -3.038932e+02
      vertex 2.099500e+02 4.460554e+00 -3.048617e+02
      vertex 2.099500e+02 4.448575e+00 -3.039117e+02
    endloop
  endfacet
  facet normal -1.000000e+00 8.893161e-13 1.121462e-14
    outer loop
      vertex 2.099500e+02 5.930437e+00 -3.048431e+02
      vertex 2.099500e+02 4.460554e+00 -3.048617e+02
      vertex 2.099500e+02 5.918458e+00 -3.038932e+02
    endloop
  endfacet
  facet normal -1.000000e+00 8.893161e-13 1.121462e-14
    outer loop
      vertex 2.099500e+02 5.931698e+00 -3.049431e+02
      vertex 2.099500e+02 4.460554e+00 -3.048617e+02
      vertex 2.099500e+02 5.930437e+00 -3.048431e+02
    endloop
  endfacet
  facet normal -1.126797e-14 -1.260938e-02 9.999205e-01
    outer loop
      vertex 1.438500e+02 6.490930e+00 -3.492901e+02
      vertex 1.438500e+02 3.906120e+00 -3.493227e+02
      vertex 2.335910e+02 3.906120e+00 -3.493227e+02
    endloop
  endfacet
  facet normal -8.913956e-13 -9.999869e-01 -5.122347e-03
    outer loop
      vertex 9.317804e+01 3.697120e+00 -3.085216e+02
      vertex 1.438500e+02 3.906120e+00 -3.493227e+02
      vertex 1.426004e+02 3.899717e+00 -3.480727e+02
    endloop
  endfacet
  facet normal 7.072286e-01 -8.914633e-03 7.069287e-01
    outer loop
      vertex 1.426004e+02 6.475169e+00 -3.480402e+02
      vertex 1.426004e+02 3.899717e+00 -3.480727e+02
      vertex 1.438500e+02 3.906120e+00 -3.493227e+02
    endloop
  endfacet
  facet normal -8.936088e-13 -9.999869e-01 -5.122347e-03
    outer loop
      vertex 9.150601e+01 4.045452e+00 -3.765231e+02
      vertex 1.438500e+02 3.906120e+00 -3.493227e+02
      vertex 9.317804e+01 3.697120e+00 -3.085216e+02
    endloop
  endfacet
  facet normal 7.072286e-01 -8.914644e-03 7.069288e-01
    outer loop
      vertex 1.426004e+02 6.475169e+00 -3.480402e+02
      vertex 1.438500e+02 3.906120e+00 -3.493227e+02
      vertex 1.438500e+02 6.490930e+00 -3.492901e+02
    endloop
  endfacet
  facet normal -1.000000e+00 9.083059e-13 -6.715795e-15
    outer loop
      vertex 2.335910e+02 6.459407e+00 -3.467903e+02
      vertex 2.335910e+02 3.906120e+00 -3.493227e+02
      vertex 2.335910e+02 3.893314e+00 -3.468227e+02
    endloop
  endfacet
  facet normal -1.126814e-14 -1.260938e-02 9.999205e-01
    outer loop
      vertex 2.335910e+02 6.490930e+00 -3.492901e+02
      vertex 1.438500e+02 6.490930e+00 -3.492901e+02
      vertex 2.335910e+02 3.906120e+00 -3.493227e+02
    endloop
  endfacet
  facet normal -1.000000e+00 8.905073e-13 1.122964e-14
    outer loop
      vertex 2.335910e+02 6.490930e+00 -3.492901e+02
      vertex 2.335910e+02 3.906120e+00 -3.493227e+02
      vertex 2.335910e+02 6.459407e+00 -3.467903e+02
    endloop
  endfacet
  facet normal -8.936198e-13 -9.999869e-01 -5.122347e-03
    outer loop
      vertex 9.317804e+01 3.697120e+00 -3.085216e+02
      vertex 1.438500e+02 3.893314e+00 -3.468227e+02
      vertex 2.335910e+02 3.893314e+00 -3.468227e+02
    endloop
  endfacet
  facet normal 1.126814e-14 1.260938e-02 -9.999205e-01
    outer loop
      vertex 2.335910e+02 6.459407e+00 -3.467903e+02
      vertex 2.335910e+02 3.893314e+00 -3.468227e+02
      vertex 1.438500e+02 3.893314e+00 -3.468227e+02
    endloop
  endfacet
  facet normal -8.938396e-13 -9.999869e-01 -5.122347e-03
    outer loop
      vertex 9.317804e+01 3.697120e+00 -3.085216e+02
      vertex 1.426004e+02 3.899717e+00 -3.480727e+02
      vertex 1.438500e+02 3.893314e+00 -3.468227e+02
    endloop
  endfacet
  facet normal 7.072286e-01 8.914643e-03 -7.069287e-01
    outer loop
      vertex 1.438500e+02 6.459407e+00 -3.467903e+02
      vertex 1.438500e+02 3.893314e+00 -3.468227e+02
      vertex 1.426004e+02 3.899717e+00 -3.480727e+02
    endloop
  endfacet
  facet normal 1.126814e-14 1.260938e-02 -9.999205e-01
    outer loop
      vertex 2.335910e+02 6.459407e+00 -3.467903e+02
      vertex 1.438500e+02 3.893314e+00 -3.468227e+02
      vertex 1.438500e+02 6.459407e+00 -3.467903e+02
    endloop
  endfacet
  facet normal 7.072286e-01 8.914703e-03 -7.069288e-01
    outer loop
      vertex 1.438500e+02 6.459407e+00 -3.467903e+02
      vertex 1.426004e+02 3.899717e+00 -3.480727e+02
      vertex 1.426004e+02 6.475169e+00 -3.480402e+02
    endloop
  endfacet
  facet normal -8.937955e-13 -9.999869e-01 -5.122347e-03
    outer loop
      vertex 9.033841e+01 3.772914e+00 -3.233181e+02
      vertex 9.150601e+01 4.045452e+00 -3.765231e+02
      vertex 9.317804e+01 3.697120e+00 -3.085216e+02
    endloop
  endfacet
  facet normal -9.820626e-01 -6.729500e-03 1.884353e-01
    outer loop
      vertex 9.039626e+01 6.158537e+00 -3.229314e+02
      vertex 9.033841e+01 3.772914e+00 -3.233181e+02
      vertex 9.317804e+01 3.697120e+00 -3.085216e+02
    endloop
  endfacet
  facet normal -9.819444e-01 -2.385312e-03 1.891545e-01
    outer loop
      vertex 9.317804e+01 3.797112e+00 -3.085203e+02
      vertex 9.039626e+01 6.158537e+00 -3.229314e+02
      vertex 9.317804e+01 3.697120e+00 -3.085216e+02
    endloop
  endfacet
  facet normal -8.937564e-13 -9.999869e-01 -5.122347e-03
    outer loop
      vertex 9.033841e+01 3.772914e+00 -3.233181e+02
      vertex 8.978996e+01 4.001850e+00 -3.680111e+02
      vertex 9.150601e+01 4.045452e+00 -3.765231e+02
    endloop
  endfacet
  facet normal -9.802764e-01 2.492011e-03 -1.976158e-01
    outer loop
      vertex 9.150601e+01 4.130470e+00 -3.765220e+02
      vertex 9.150601e+01 4.045452e+00 -3.765231e+02
      vertex 8.978996e+01 4.001850e+00 -3.680111e+02
    endloop
  endfacet
  facet normal -8.931167e-13 -9.999869e-01 -5.122347e-03
    outer loop
      vertex 8.870000e+01 3.842562e+00 -3.369148e+02
      vertex 8.870000e+01 3.956247e+00 -3.591084e+02
      vertex 8.978996e+01 4.001850e+00 -3.680111e+02
    endloop
  endfacet
  facet normal -9.891423e-01 8.388100e-02 -1.206707e-01
    outer loop
      vertex 9.050521e+01 6.776621e+00 -3.719453e+02
      vertex 8.978996e+01 4.001850e+00 -3.680111e+02
      vertex 8.870000e+01 3.956247e+00 -3.591084e+02
    endloop
  endfacet
  facet normal -8.940092e-13 -9.999869e-01 -5.122347e-03
    outer loop
      vertex 9.033841e+01 3.772914e+00 -3.233181e+02
      vertex 8.870000e+01 3.842562e+00 -3.369148e+02
      vertex 8.978996e+01 4.001850e+00 -3.680111e+02
    endloop
  endfacet
  facet normal -9.798014e-01 -2.814137e-02 -1.979830e-01
    outer loop
      vertex 9.150601e+01 4.130470e+00 -3.765220e+02
      vertex 8.978996e+01 4.001850e+00 -3.680111e+02
      vertex 9.050521e+01 6.776621e+00 -3.719453e+02
    endloop
  endfacet
  facet normal -7.071068e-01 -7.070975e-01 -3.622046e-03
    outer loop
      vertex 8.825064e+01 4.351391e+00 -3.485243e+02
      vertex 8.870000e+01 3.956247e+00 -3.591084e+02
      vertex 8.870000e+01 3.842562e+00 -3.369148e+02
    endloop
  endfacet
  facet normal -9.903078e-01 1.750992e-03 -1.388793e-01
    outer loop
      vertex 9.050521e+01 6.776621e+00 -3.719453e+02
      vertex 8.870000e+01 3.956247e+00 -3.591084e+02
      vertex 8.870000e+01 6.614321e+00 -3.590749e+02
    endloop
  endfacet
  facet normal -9.990990e-01 5.353994e-04 -4.243735e-02
    outer loop
      vertex 8.825064e+01 4.351391e+00 -3.485243e+02
      vertex 8.870000e+01 6.614321e+00 -3.590749e+02
      vertex 8.870000e+01 3.956247e+00 -3.591084e+02
    endloop
  endfacet
  facet normal -9.928177e-01 -1.508829e-03 1.196274e-01
    outer loop
      vertex 8.870000e+01 6.334476e+00 -3.368833e+02
      vertex 8.870000e+01 3.842562e+00 -3.369148e+02
      vertex 9.033841e+01 3.772914e+00 -3.233181e+02
    endloop
  endfacet
  facet normal -9.992447e-01 -4.897210e-04 3.885613e-02
    outer loop
      vertex 8.825030e+01 6.030625e+00 -3.484519e+02
      vertex 8.870000e+01 3.842562e+00 -3.369148e+02
      vertex 8.870000e+01 6.334476e+00 -3.368833e+02
    endloop
  endfacet
  facet normal -9.992532e-01 -1.869464e-03 3.859478e-02
    outer loop
      vertex 8.825030e+01 6.030625e+00 -3.484519e+02
      vertex 8.825064e+01 4.351391e+00 -3.485243e+02
      vertex 8.870000e+01 3.842562e+00 -3.369148e+02
    endloop
  endfacet
  facet normal -9.926734e-01 4.500296e-03 1.207446e-01
    outer loop
      vertex 8.870000e+01 6.334476e+00 -3.368833e+02
      vertex 9.033841e+01 3.772914e+00 -3.233181e+02
      vertex 9.039626e+01 6.158537e+00 -3.229314e+02
    endloop
  endfacet
  facet normal 1.126807e-14 1.260938e-02 -9.999205e-01
    outer loop
      vertex 2.465000e+02 5.833206e+00 -3.785007e+02
      vertex 2.465000e+02 4.155689e+00 -3.785219e+02
      vertex 9.258979e+01 4.155689e+00 -3.785219e+02
    endloop
  endfacet
  facet normal -8.935538e-13 -9.999205e-01 -1.260938e-02
    outer loop
      vertex 9.150601e+01 4.130470e+00 -3.765220e+02
      vertex 9.258979e+01 4.155689e+00 -3.785219e+02
      vertex 2.465000e+02 4.155689e+00 -3.785219e+02
    endloop
  endfacet
  facet normal 1.126806e-14 1.260938e-02 -9.999205e-01
    outer loop
      vertex 9.258979e+01 5.833206e+00 -3.785007e+02
      vertex 2.465000e+02 5.833206e+00 -3.785007e+02
      vertex 9.258979e+01 4.155689e+00 -3.785219e+02
    endloop
  endfacet
  facet normal -3.241685e-01 1.192847e-02 -9.459241e-01
    outer loop
      vertex 9.212980e+01 4.153701e+00 -3.783642e+02
      vertex 9.258979e+01 5.833206e+00 -3.785007e+02
      vertex 9.258979e+01 4.155689e+00 -3.785219e+02
    endloop
  endfacet
  facet normal -8.902214e-13 -9.999205e-01 -1.260938e-02
    outer loop
      vertex 9.212980e+01 4.153701e+00 -3.783642e+02
      vertex 9.258979e+01 4.155689e+00 -3.785219e+02
      vertex 9.150601e+01 4.130470e+00 -3.765220e+02
    endloop
  endfacet
  facet normal 3.826834e-01 1.164955e-02 -9.238061e-01
    outer loop
      vertex 2.470303e+02 5.830436e+00 -3.782811e+02
      vertex 2.465000e+02 4.155689e+00 -3.785219e+02
      vertex 2.465000e+02 5.833206e+00 -3.785007e+02
    endloop
  endfacet
  facet normal 3.826834e-01 1.164955e-02 -9.238061e-01
    outer loop
      vertex 2.470303e+02 4.152919e+00 -3.783022e+02
      vertex 2.465000e+02 4.155689e+00 -3.785219e+02
      vertex 2.470303e+02 5.830436e+00 -3.782811e+02
    endloop
  endfacet
  facet normal -8.936351e-13 -9.999205e-01 -1.260938e-02
    outer loop
      vertex 2.470303e+02 4.152919e+00 -3.783022e+02
      vertex 9.150601e+01 4.130470e+00 -3.765220e+02
      vertex 2.465000e+02 4.155689e+00 -3.785219e+02
    endloop
  endfacet
  facet normal -8.935538e-13 -9.999205e-01 -1.260938e-02
    outer loop
      vertex 2.465000e+02 5.864729e+00 -3.810005e+02
      vertex 2.465000e+02 5.833206e+00 -3.785007e+02
      vertex 9.258979e+01 5.833206e+00 -3.785007e+02
    endloop
  endfacet
  facet normal -8.907736e-13 -9.999205e-01 -1.260938e-02
    outer loop
      vertex 2.470303e+02 5.867499e+00 -3.812202e+02
      vertex 2.470303e+02 5.830436e+00 -3.782811e+02
      vertex 2.465000e+02 5.833206e+00 -3.785007e+02
    endloop
  endfacet
  facet normal -8.947028e-13 -9.999205e-01 -1.260938e-02
    outer loop
      vertex 2.465000e+02 5.864729e+00 -3.810005e+02
      vertex 2.470303e+02 5.867499e+00 -3.812202e+02
      vertex 2.465000e+02 5.833206e+00 -3.785007e+02
    endloop
  endfacet
  facet normal -8.982809e-13 -9.999205e-01 -1.260938e-02
    outer loop
      vertex 9.239821e+01 5.851519e+00 -3.799529e+02
      vertex 9.297027e+01 5.876859e+00 -3.819624e+02
      vertex 9.258979e+01 5.833206e+00 -3.785007e+02
    endloop
  endfacet
  facet normal -8.953021e-13 -9.999205e-01 -1.260938e-02
    outer loop
      vertex 9.308937e+01 5.868525e+00 -3.813015e+02
      vertex 9.258979e+01 5.833206e+00 -3.785007e+02
      vertex 9.297027e+01 5.876859e+00 -3.819624e+02
    endloop
  endfacet
  facet normal -8.981409e-13 -9.999205e-01 -1.260938e-02
    outer loop
      vertex 9.212980e+01 5.831218e+00 -3.783431e+02
      vertex 9.239821e+01 5.851519e+00 -3.799529e+02
      vertex 9.258979e+01 5.833206e+00 -3.785007e+02
    endloop
  endfacet
  facet normal -3.241685e-01 1.192847e-02 -9.459241e-01
    outer loop
      vertex 9.212980e+01 4.153701e+00 -3.783642e+02
      vertex 9.212980e+01 5.831218e+00 -3.783431e+02
      vertex 9.258979e+01 5.833206e+00 -3.785007e+02
    endloop
  endfacet
  facet normal -8.935518e-13 -9.999205e-01 -1.260938e-02
    outer loop
      vertex 9.368971e+01 5.864729e+00 -3.810005e+02
      vertex 2.465000e+02 5.864729e+00 -3.810005e+02
      vertex 9.258979e+01 5.833206e+00 -3.785007e+02
    endloop
  endfacet
  facet normal -8.915730e-13 -9.999205e-01 -1.260938e-02
    outer loop
      vertex 9.308937e+01 5.868525e+00 -3.813015e+02
      vertex 9.368971e+01 5.864729e+00 -3.810005e+02
      vertex 9.258979e+01 5.833206e+00 -3.785007e+02
    endloop
  endfacet
  facet normal -9.617881e-01 4.653333e-03 -2.737553e-01
    outer loop
      vertex 9.301086e+01 6.904518e+00 -3.820875e+02
      vertex 9.297027e+01 5.876859e+00 -3.819624e+02
      vertex 9.239821e+01 5.851519e+00 -3.799529e+02
    endloop
  endfacet
  facet normal -9.841484e-01 -2.236235e-03 1.773328e-01
    outer loop
      vertex 9.308937e+01 4.723616e+00 -3.813159e+02
      vertex 9.308937e+01 5.868525e+00 -3.813015e+02
      vertex 9.297027e+01 5.876859e+00 -3.819624e+02
    endloop
  endfacet
  facet normal -9.841484e-01 -2.236235e-03 1.773328e-01
    outer loop
      vertex 9.308937e+01 4.723616e+00 -3.813159e+02
      vertex 9.297027e+01 5.876859e+00 -3.819624e+02
      vertex 9.297027e+01 4.731950e+00 -3.819768e+02
    endloop
  endfacet
  facet normal -9.594092e-01 3.556069e-03 -2.819953e-01
    outer loop
      vertex 9.301086e+01 6.904518e+00 -3.820875e+02
      vertex 9.297027e+01 4.731950e+00 -3.819768e+02
      vertex 9.297027e+01 5.876859e+00 -3.819624e+02
    endloop
  endfacet
  facet normal -8.895570e-13 -9.999205e-01 -1.260938e-02
    outer loop
      vertex 9.212980e+01 5.831218e+00 -3.783431e+02
      vertex 9.186316e+01 5.826091e+00 -3.779365e+02
      vertex 9.239821e+01 5.851519e+00 -3.799529e+02
    endloop
  endfacet
  facet normal -9.657717e-01 4.354650e-02 -2.557122e-01
    outer loop
      vertex 9.301086e+01 6.904518e+00 -3.820875e+02
      vertex 9.239821e+01 5.851519e+00 -3.799529e+02
      vertex 9.186316e+01 5.826091e+00 -3.779365e+02
    endloop
  endfacet
  facet normal -8.362442e-01 6.914445e-03 -5.483135e-01
    outer loop
      vertex 9.186316e+01 4.148574e+00 -3.779577e+02
      vertex 9.186316e+01 5.826091e+00 -3.779365e+02
      vertex 9.212980e+01 5.831218e+00 -3.783431e+02
    endloop
  endfacet
  facet normal -9.647203e-01 1.148882e-01 -2.368869e-01
    outer loop
      vertex 9.050521e+01 6.776621e+00 -3.719453e+02
      vertex 9.301086e+01 6.904518e+00 -3.820875e+02
      vertex 9.186316e+01 5.826091e+00 -3.779365e+02
    endloop
  endfacet
  facet normal -9.744565e-01 1.854900e-02 -2.238092e-01
    outer loop
      vertex 9.150601e+01 4.130470e+00 -3.765220e+02
      vertex 9.050521e+01 6.776621e+00 -3.719453e+02
      vertex 9.186316e+01 5.826091e+00 -3.779365e+02
    endloop
  endfacet
  facet normal -9.711938e-01 5.840738e-03 -2.382195e-01
    outer loop
      vertex 9.168351e+01 4.139593e+00 -3.772454e+02
      vertex 9.150601e+01 4.130470e+00 -3.765220e+02
      vertex 9.186316e+01 5.826091e+00 -3.779365e+02
    endloop
  endfacet
  facet normal -9.696338e-01 3.083770e-03 -2.445421e-01
    outer loop
      vertex 9.186316e+01 4.148574e+00 -3.779577e+02
      vertex 9.168351e+01 4.139593e+00 -3.772454e+02
      vertex 9.186316e+01 5.826091e+00 -3.779365e+02
    endloop
  endfacet
  facet normal -8.362442e-01 6.914445e-03 -5.483135e-01
    outer loop
      vertex 9.212980e+01 4.153701e+00 -3.783642e+02
      vertex 9.186316e+01 4.148574e+00 -3.779577e+02
      vertex 9.212980e+01 5.831218e+00 -3.783431e+02
    endloop
  endfacet
  facet normal 3.826834e-01 -1.164955e-02 9.238061e-01
    outer loop
      vertex 2.470303e+02 4.722590e+00 -3.812346e+02
      vertex 2.470303e+02 5.867499e+00 -3.812202e+02
      vertex 2.465000e+02 5.864729e+00 -3.810005e+02
    endloop
  endfacet
  facet normal -1.126804e-14 -1.260938e-02 9.999205e-01
    outer loop
      vertex 2.465000e+02 4.719820e+00 -3.810149e+02
      vertex 2.465000e+02 5.864729e+00 -3.810005e+02
      vertex 9.368971e+01 5.864729e+00 -3.810005e+02
    endloop
  endfacet
  facet normal 3.826834e-01 -1.164955e-02 9.238061e-01
    outer loop
      vertex 2.470303e+02 4.722590e+00 -3.812346e+02
      vertex 2.465000e+02 5.864729e+00 -3.810005e+02
      vertex 2.465000e+02 4.719820e+00 -3.810149e+02
    endloop
  endfacet
  facet normal -4.482048e-01 -1.127192e-02 8.938599e-01
    outer loop
      vertex 9.368971e+01 4.719820e+00 -3.810149e+02
      vertex 9.368971e+01 5.864729e+00 -3.810005e+02
      vertex 9.308937e+01 5.868525e+00 -3.813015e+02
    endloop
  endfacet
  facet normal -1.201202e-14 -1.260938e-02 9.999205e-01
    outer loop
      vertex 9.368971e+01 4.719820e+00 -3.810149e+02
      vertex 2.465000e+02 4.719820e+00 -3.810149e+02
      vertex 9.368971e+01 5.864729e+00 -3.810005e+02
    endloop
  endfacet
  facet normal -4.482048e-01 -1.127192e-02 8.938599e-01
    outer loop
      vertex 9.308937e+01 4.723616e+00 -3.813159e+02
      vertex 9.368971e+01 4.719820e+00 -3.810149e+02
      vertex 9.308937e+01 5.868525e+00 -3.813015e+02
    endloop
  endfacet
  facet normal -8.984642e-13 -9.999205e-01 -1.260938e-02
    outer loop
      vertex 9.212980e+01 4.153701e+00 -3.783642e+02
      vertex 9.150601e+01 4.130470e+00 -3.765220e+02
      vertex 9.186316e+01 4.148574e+00 -3.779577e+02
    endloop
  endfacet
  facet normal -2.755185e-13 -9.999205e-01 -1.260938e-02
    outer loop
      vertex 9.186316e+01 4.148574e+00 -3.779577e+02
      vertex 9.150601e+01 4.130470e+00 -3.765220e+02
      vertex 9.168351e+01 4.139593e+00 -3.772454e+02
    endloop
  endfacet
  facet normal -9.239229e-13 -9.999205e-01 -1.260938e-02
    outer loop
      vertex 9.308937e+01 4.723616e+00 -3.813159e+02
      vertex 9.297027e+01 4.731950e+00 -3.819768e+02
      vertex 9.301086e+01 4.733691e+00 -3.821149e+02
    endloop
  endfacet
  facet normal -9.594092e-01 3.556069e-03 -2.819953e-01
    outer loop
      vertex 9.301086e+01 6.904518e+00 -3.820875e+02
      vertex 9.301086e+01 4.733691e+00 -3.821149e+02
      vertex 9.297027e+01 4.731950e+00 -3.819768e+02
    endloop
  endfacet
  facet normal 8.913069e-13 9.999205e-01 1.260938e-02
    outer loop
      vertex 9.354729e+01 5.955656e+00 -3.068430e+02
      vertex 9.392694e+01 5.931698e+00 -3.049431e+02
      vertex 9.301086e+01 6.904518e+00 -3.820875e+02
    endloop
  endfacet
  facet normal 8.935460e-13 9.999205e-01 1.260938e-02
    outer loop
      vertex 1.426004e+02 6.475169e+00 -3.480402e+02
      vertex 9.301086e+01 6.904518e+00 -3.820875e+02
      vertex 9.392694e+01 5.931698e+00 -3.049431e+02
    endloop
  endfacet
  facet normal 8.942920e-13 9.999205e-01 1.260938e-02
    outer loop
      vertex 9.050521e+01 6.776621e+00 -3.719453e+02
      vertex 9.354729e+01 5.955656e+00 -3.068430e+02
      vertex 9.301086e+01 6.904518e+00 -3.820875e+02
    endloop
  endfacet
  facet normal 8.932833e-13 9.999205e-01 1.260938e-02
    outer loop
      vertex 1.426004e+02 6.475169e+00 -3.480402e+02
      vertex 1.438500e+02 6.490930e+00 -3.492901e+02
      vertex 9.301086e+01 6.904518e+00 -3.820875e+02
    endloop
  endfacet
  facet normal 8.935607e-13 9.999205e-01 1.260938e-02
    outer loop
      vertex 2.335910e+02 6.490930e+00 -3.492901e+02
      vertex 9.301086e+01 6.904518e+00 -3.820875e+02
      vertex 1.438500e+02 6.490930e+00 -3.492901e+02
    endloop
  endfacet
  facet normal 8.964445e-13 9.999205e-01 1.260938e-02
    outer loop
      vertex 1.438500e+02 6.459407e+00 -3.467903e+02
      vertex 2.098500e+02 5.931698e+00 -3.049431e+02
      vertex 2.099500e+02 5.931698e+00 -3.049431e+02
    endloop
  endfacet
  facet normal 8.935607e-13 9.999205e-01 1.260938e-02
    outer loop
      vertex 2.335910e+02 6.459407e+00 -3.467903e+02
      vertex 1.438500e+02 6.459407e+00 -3.467903e+02
      vertex 2.099500e+02 5.931698e+00 -3.049431e+02
    endloop
  endfacet
  facet normal 8.935567e-13 9.999205e-01 1.260938e-02
    outer loop
      vertex 1.438500e+02 6.459407e+00 -3.467903e+02
      vertex 9.392694e+01 5.931698e+00 -3.049431e+02
      vertex 2.098500e+02 5.931698e+00 -3.049431e+02
    endloop
  endfacet
  facet normal 8.937766e-13 9.999205e-01 1.260938e-02
    outer loop
      vertex 1.438500e+02 6.459407e+00 -3.467903e+02
      vertex 1.426004e+02 6.475169e+00 -3.480402e+02
      vertex 9.392694e+01 5.931698e+00 -3.049431e+02
    endloop
  endfacet
  facet normal 8.939928e-13 9.999205e-01 1.260938e-02
    outer loop
      vertex 9.050521e+01 6.776621e+00 -3.719453e+02
      vertex 9.039626e+01 6.158537e+00 -3.229314e+02
      vertex 9.354729e+01 5.955656e+00 -3.068430e+02
    endloop
  endfacet
  facet normal 8.926228e-13 9.999205e-01 1.260938e-02
    outer loop
      vertex 8.870000e+01 6.614321e+00 -3.590749e+02
      vertex 8.870000e+01 6.334476e+00 -3.368833e+02
      vertex 9.039626e+01 6.158537e+00 -3.229314e+02
    endloop
  endfacet
  facet normal 8.930542e-13 9.999205e-01 1.260938e-02
    outer loop
      vertex 9.050521e+01 6.776621e+00 -3.719453e+02
      vertex 8.870000e+01 6.614321e+00 -3.590749e+02
      vertex 9.039626e+01 6.158537e+00 -3.229314e+02
    endloop
  endfacet
  facet normal -9.814407e-01 -2.418052e-03 1.917508e-01
    outer loop
      vertex 9.349418e+01 3.779268e+00 -3.071053e+02
      vertex 9.349418e+01 4.488734e+00 -3.070963e+02
      vertex 9.039626e+01 6.158537e+00 -3.229314e+02
    endloop
  endfacet
  facet normal -6.214321e-01 7.571356e-01 2.014146e-01
    outer loop
      vertex 9.352839e+01 4.487336e+00 -3.069855e+02
      vertex 9.039626e+01 6.158537e+00 -3.229314e+02
      vertex 9.349418e+01 4.488734e+00 -3.070963e+02
    endloop
  endfacet
  facet normal -9.554021e-01 2.001741e-01 2.171112e-01
    outer loop
      vertex 9.333484e+01 3.788214e+00 -3.078147e+02
      vertex 9.349418e+01 3.779268e+00 -3.071053e+02
      vertex 9.039626e+01 6.158537e+00 -3.229314e+02
    endloop
  endfacet
  facet normal -9.588366e-01 1.850240e-01 2.154032e-01
    outer loop
      vertex 9.317804e+01 3.797112e+00 -3.085203e+02
      vertex 9.333484e+01 3.788214e+00 -3.078147e+02
      vertex 9.039626e+01 6.158537e+00 -3.229314e+02
    endloop
  endfacet
  facet normal -7.071068e-01 7.070506e-01 8.916180e-03
    outer loop
      vertex 8.825030e+01 6.030625e+00 -3.484519e+02
      vertex 8.870000e+01 6.334476e+00 -3.368833e+02
      vertex 8.870000e+01 6.614321e+00 -3.590749e+02
    endloop
  endfacet
  facet normal -9.991076e-01 1.616596e-03 -4.220582e-02
    outer loop
      vertex 8.825030e+01 6.030625e+00 -3.484519e+02
      vertex 8.870000e+01 6.614321e+00 -3.590749e+02
      vertex 8.825064e+01 4.351391e+00 -3.485243e+02
    endloop
  endfacet
  facet normal -8.476639e-01 -6.689702e-03 5.304915e-01
    outer loop
      vertex 9.375746e+01 3.773964e+00 -3.066846e+02
      vertex 9.349418e+01 4.488734e+00 -3.070963e+02
      vertex 9.349418e+01 3.779268e+00 -3.071053e+02
    endloop
  endfacet
  facet normal -9.404435e-01 -1.804792e-01 2.880856e-01
    outer loop
      vertex 9.375746e+01 3.773964e+00 -3.066846e+02
      vertex 9.352839e+01 4.487336e+00 -3.069855e+02
      vertex 9.349418e+01 4.488734e+00 -3.070963e+02
    endloop
  endfacet
endsolid P1040852002
