solid P1040852002
  facet normal 1.000000e+00 -9.088746e-13 -9.599974e-16
    outer loop
      vertex 2.472500e+02 -3.189694e+00 -3.038914e+02
      vertex 2.472500e+02 -4.659473e+00 -3.038659e+02
      vertex 2.472500e+02 -4.718425e+00 -3.072654e+02
    endloop
  endfacet
  facet normal -8.967550e-13 -9.998497e-01 1.733881e-02
    outer loop
      vertex 2.470303e+02 -4.709230e+00 -3.067352e+02
      vertex 2.472500e+02 -4.718425e+00 -3.072654e+02
      vertex 2.472500e+02 -4.659473e+00 -3.038659e+02
    endloop
  endfacet
  facet normal 1.000000e+00 -9.129803e-13 9.002446e-16
    outer loop
      vertex 2.472500e+02 -7.152611e+00 -3.764841e+02
      vertex 2.472500e+02 -3.189694e+00 -3.038914e+02
      vertex 2.472500e+02 -4.718425e+00 -3.072654e+02
    endloop
  endfacet
  facet normal 1.000000e+00 -8.532359e-13 -1.200759e-15
    outer loop
      vertex 2.472500e+02 -5.449514e+00 -3.085029e+02
      vertex 2.472500e+02 -7.152611e+00 -3.764841e+02
      vertex 2.472500e+02 -4.718425e+00 -3.072654e+02
    endloop
  endfacet
  facet normal 1.000000e+00 -8.811330e-13 1.528009e-14
    outer loop
      vertex 2.472500e+02 -5.427841e+00 -3.072531e+02
      vertex 2.472500e+02 -5.449514e+00 -3.085029e+02
      vertex 2.472500e+02 -4.718425e+00 -3.072654e+02
    endloop
  endfacet
  facet normal 9.238795e-01 6.635273e-03 3.826259e-01
    outer loop
      vertex 2.470303e+02 -4.709230e+00 -3.067352e+02
      vertex 2.472500e+02 -5.427841e+00 -3.072531e+02
      vertex 2.472500e+02 -4.718425e+00 -3.072654e+02
    endloop
  endfacet
  facet normal 1.549421e-14 1.733881e-02 9.998497e-01
    outer loop
      vertex 2.100000e+02 -3.189694e+00 -3.038914e+02
      vertex 2.472500e+02 -4.659473e+00 -3.038659e+02
      vertex 2.472500e+02 -3.189694e+00 -3.038914e+02
    endloop
  endfacet
  facet normal 1.549504e-14 1.733881e-02 9.998497e-01
    outer loop
      vertex 2.100000e+02 -4.659473e+00 -3.038659e+02
      vertex 2.472500e+02 -4.659473e+00 -3.038659e+02
      vertex 2.100000e+02 -3.189694e+00 -3.038914e+02
    endloop
  endfacet
  facet normal -8.935281e-13 -9.998497e-01 1.733881e-02
    outer loop
      vertex 2.465000e+02 -4.705421e+00 -3.065155e+02
      vertex 2.472500e+02 -4.659473e+00 -3.038659e+02
      vertex 2.100000e+02 -4.659473e+00 -3.038659e+02
    endloop
  endfacet
  facet normal -8.933931e-13 -9.998497e-01 1.733881e-02
    outer loop
      vertex 2.470303e+02 -4.709230e+00 -3.067352e+02
      vertex 2.472500e+02 -4.659473e+00 -3.038659e+02
      vertex 2.465000e+02 -4.705421e+00 -3.065155e+02
    endloop
  endfacet
  facet normal 1.000000e+00 -8.919117e-13 -1.535593e-16
    outer loop
      vertex 2.472500e+02 -5.566241e+00 -3.817624e+02
      vertex 2.472500e+02 -4.546464e+00 -3.821301e+02
      vertex 2.472500e+02 -3.189694e+00 -3.038914e+02
    endloop
  endfacet
  facet normal 8.935236e-13 9.998497e-01 -1.733881e-02
    outer loop
      vertex 2.335910e+02 -4.344467e+00 -3.704819e+02
      vertex 2.472500e+02 -3.189694e+00 -3.038914e+02
      vertex 2.472500e+02 -4.546464e+00 -3.821301e+02
    endloop
  endfacet
  facet normal 1.000000e+00 -9.987273e-13 3.106351e-15
    outer loop
      vertex 2.472500e+02 -5.496886e+00 -3.777630e+02
      vertex 2.472500e+02 -5.566241e+00 -3.817624e+02
      vertex 2.472500e+02 -3.189694e+00 -3.038914e+02
    endloop
  endfacet
  facet normal 1.000000e+00 -8.927742e-13 -2.028257e-16
    outer loop
      vertex 2.472500e+02 -7.152611e+00 -3.764841e+02
      vertex 2.472500e+02 -5.496886e+00 -3.777630e+02
      vertex 2.472500e+02 -3.189694e+00 -3.038914e+02
    endloop
  endfacet
  facet normal 8.934814e-13 9.998497e-01 -1.733881e-02
    outer loop
      vertex 2.335910e+02 -4.301120e+00 -3.679823e+02
      vertex 2.100000e+02 -3.189694e+00 -3.038914e+02
      vertex 2.472500e+02 -3.189694e+00 -3.038914e+02
    endloop
  endfacet
  facet normal 8.924441e-13 9.998497e-01 -1.733881e-02
    outer loop
      vertex 2.335910e+02 -4.344467e+00 -3.704819e+02
      vertex 2.335910e+02 -4.301120e+00 -3.679823e+02
      vertex 2.472500e+02 -3.189694e+00 -3.038914e+02
    endloop
  endfacet
  facet normal 1.000000e+00 -8.900901e-13 1.543542e-14
    outer loop
      vertex 2.472500e+02 -6.711069e+00 -3.817426e+02
      vertex 2.472500e+02 -6.717138e+00 -3.820925e+02
      vertex 2.472500e+02 -4.546464e+00 -3.821301e+02
    endloop
  endfacet
  facet normal -1.696863e-14 -1.733881e-02 -9.998497e-01
    outer loop
      vertex 9.301086e+01 -6.717138e+00 -3.820925e+02
      vertex 2.472500e+02 -4.546464e+00 -3.821301e+02
      vertex 2.472500e+02 -6.717138e+00 -3.820925e+02
    endloop
  endfacet
  facet normal 1.000000e+00 -8.938380e-13 -5.495447e-15
    outer loop
      vertex 2.472500e+02 -5.566241e+00 -3.817624e+02
      vertex 2.472500e+02 -6.711069e+00 -3.817426e+02
      vertex 2.472500e+02 -4.546464e+00 -3.821301e+02
    endloop
  endfacet
  facet normal -1.623166e-14 -1.733881e-02 -9.998497e-01
    outer loop
      vertex 9.301086e+01 -4.546464e+00 -3.821301e+02
      vertex 2.472500e+02 -4.546464e+00 -3.821301e+02
      vertex 9.301086e+01 -6.717138e+00 -3.820925e+02
    endloop
  endfacet
  facet normal 8.934952e-13 9.998497e-01 -1.733881e-02
    outer loop
      vertex 2.335910e+02 -4.344467e+00 -3.704819e+02
      vertex 2.472500e+02 -4.546464e+00 -3.821301e+02
      vertex 9.301086e+01 -4.546464e+00 -3.821301e+02
    endloop
  endfacet
  facet normal -9.194312e-13 -9.998497e-01 1.733881e-02
    outer loop
      vertex 2.470303e+02 -6.701874e+00 -3.812123e+02
      vertex 2.472500e+02 -6.717138e+00 -3.820925e+02
      vertex 2.472500e+02 -6.711069e+00 -3.817426e+02
    endloop
  endfacet
  facet normal -8.934943e-13 -9.998497e-01 1.733881e-02
    outer loop
      vertex 9.368971e+01 -6.698065e+00 -3.809927e+02
      vertex 2.472500e+02 -6.717138e+00 -3.820925e+02
      vertex 2.465000e+02 -6.698065e+00 -3.809927e+02
    endloop
  endfacet
  facet normal -8.928947e-13 -9.998497e-01 1.733881e-02
    outer loop
      vertex 2.470303e+02 -6.701874e+00 -3.812123e+02
      vertex 2.465000e+02 -6.698065e+00 -3.809927e+02
      vertex 2.472500e+02 -6.717138e+00 -3.820925e+02
    endloop
  endfacet
  facet normal -8.935024e-13 -9.998497e-01 1.733881e-02
    outer loop
      vertex 9.308937e+01 -6.703284e+00 -3.812936e+02
      vertex 2.472500e+02 -6.717138e+00 -3.820925e+02
      vertex 9.368971e+01 -6.698065e+00 -3.809927e+02
    endloop
  endfacet
  facet normal -8.934825e-13 -9.998497e-01 1.733881e-02
    outer loop
      vertex 9.308937e+01 -6.703284e+00 -3.812936e+02
      vertex 9.301086e+01 -6.717138e+00 -3.820925e+02
      vertex 2.472500e+02 -6.717138e+00 -3.820925e+02
    endloop
  endfacet
  facet normal 9.238795e-01 6.635273e-03 3.826259e-01
    outer loop
      vertex 2.470303e+02 -5.557046e+00 -3.812322e+02
      vertex 2.472500e+02 -6.711069e+00 -3.817426e+02
      vertex 2.472500e+02 -5.566241e+00 -3.817624e+02
    endloop
  endfacet
  facet normal 9.238795e-01 6.635273e-03 3.826259e-01
    outer loop
      vertex 2.470303e+02 -6.701874e+00 -3.812123e+02
      vertex 2.472500e+02 -6.711069e+00 -3.817426e+02
      vertex 2.470303e+02 -5.557046e+00 -3.812322e+02
    endloop
  endfacet
  facet normal -9.006004e-13 -9.998497e-01 1.733881e-02
    outer loop
      vertex 2.470303e+02 -5.506082e+00 -3.782933e+02
      vertex 2.472500e+02 -5.566241e+00 -3.817624e+02
      vertex 2.472500e+02 -5.496886e+00 -3.777630e+02
    endloop
  endfacet
  facet normal -8.942436e-13 -9.998497e-01 1.733881e-02
    outer loop
      vertex 2.470303e+02 -5.557046e+00 -3.812322e+02
      vertex 2.472500e+02 -5.566241e+00 -3.817624e+02
      vertex 2.470303e+02 -5.506082e+00 -3.782933e+02
    endloop
  endfacet
  facet normal 1.000000e+00 -8.808192e-13 1.527465e-14
    outer loop
      vertex 2.472500e+02 -7.152611e+00 -3.764841e+02
      vertex 2.472500e+02 -7.174284e+00 -3.777339e+02
      vertex 2.472500e+02 -5.496886e+00 -3.777630e+02
    endloop
  endfacet
  facet normal 9.238795e-01 -6.635273e-03 -3.826259e-01
    outer loop
      vertex 2.470303e+02 -7.183480e+00 -3.782642e+02
      vertex 2.472500e+02 -5.496886e+00 -3.777630e+02
      vertex 2.472500e+02 -7.174284e+00 -3.777339e+02
    endloop
  endfacet
  facet normal 9.238795e-01 -6.635273e-03 -3.826259e-01
    outer loop
      vertex 2.470303e+02 -7.183480e+00 -3.782642e+02
      vertex 2.470303e+02 -5.506082e+00 -3.782933e+02
      vertex 2.472500e+02 -5.496886e+00 -3.777630e+02
    endloop
  endfacet
  facet normal -8.934960e-13 -9.998497e-01 1.733881e-02
    outer loop
      vertex 9.150601e+01 -7.152611e+00 -3.764841e+02
      vertex 2.472500e+02 -7.174284e+00 -3.777339e+02
      vertex 2.472500e+02 -7.152611e+00 -3.764841e+02
    endloop
  endfacet
  facet normal -8.935275e-13 -9.998497e-01 1.733881e-02
    outer loop
      vertex 2.470303e+02 -7.183480e+00 -3.782642e+02
      vertex 2.472500e+02 -7.174284e+00 -3.777339e+02
      vertex 9.150601e+01 -7.152611e+00 -3.764841e+02
    endloop
  endfacet
  facet normal 1.000000e+00 -6.687388e-13 -5.133972e-15
    outer loop
      vertex 2.472500e+02 -5.549499e+00 -3.085012e+02
      vertex 2.472500e+02 -7.237623e+00 -3.764826e+02
      vertex 2.472500e+02 -7.152611e+00 -3.764841e+02
    endloop
  endfacet
  facet normal -1.549448e-14 -1.733881e-02 -9.998497e-01
    outer loop
      vertex 9.150601e+01 -7.237623e+00 -3.764826e+02
      vertex 2.472500e+02 -7.152611e+00 -3.764841e+02
      vertex 2.472500e+02 -7.237623e+00 -3.764826e+02
    endloop
  endfacet
  facet normal 1.000000e+00 -1.136937e-12 5.906649e-15
    outer loop
      vertex 2.472500e+02 -5.449514e+00 -3.085029e+02
      vertex 2.472500e+02 -5.549499e+00 -3.085012e+02
      vertex 2.472500e+02 -7.152611e+00 -3.764841e+02
    endloop
  endfacet
  facet normal -1.549448e-14 -1.733881e-02 -9.998497e-01
    outer loop
      vertex 9.150601e+01 -7.152611e+00 -3.764841e+02
      vertex 2.472500e+02 -7.152611e+00 -3.764841e+02
      vertex 9.150601e+01 -7.237623e+00 -3.764826e+02
    endloop
  endfacet
  facet normal -8.932092e-13 -9.996918e-01 2.482447e-02
    outer loop
      vertex 2.335910e+02 -7.025368e+00 -3.679350e+02
      vertex 2.472500e+02 -7.237623e+00 -3.764826e+02
      vertex 2.472500e+02 -5.549499e+00 -3.085012e+02
    endloop
  endfacet
  facet normal -8.933366e-13 -9.996918e-01 2.482447e-02
    outer loop
      vertex 2.335910e+02 -7.087431e+00 -3.704343e+02
      vertex 1.438500e+02 -7.087431e+00 -3.704343e+02
      vertex 2.472500e+02 -7.237623e+00 -3.764826e+02
    endloop
  endfacet
  facet normal -8.933550e-13 -9.996918e-01 2.482447e-02
    outer loop
      vertex 9.150601e+01 -7.237623e+00 -3.764826e+02
      vertex 2.472500e+02 -7.237623e+00 -3.764826e+02
      vertex 1.438500e+02 -7.087431e+00 -3.704343e+02
    endloop
  endfacet
  facet normal -8.936935e-13 -9.996918e-01 2.482447e-02
    outer loop
      vertex 2.335910e+02 -7.025368e+00 -3.679350e+02
      vertex 2.335910e+02 -7.087431e+00 -3.704343e+02
      vertex 2.472500e+02 -7.237623e+00 -3.764826e+02
    endloop
  endfacet
  facet normal 1.549451e-14 1.733881e-02 9.998497e-01
    outer loop
      vertex 9.317804e+01 -5.449514e+00 -3.085029e+02
      vertex 2.472500e+02 -5.549499e+00 -3.085012e+02
      vertex 2.472500e+02 -5.449514e+00 -3.085029e+02
    endloop
  endfacet
  facet normal -8.933546e-13 -9.996918e-01 2.482447e-02
    outer loop
      vertex 9.317804e+01 -5.549499e+00 -3.085012e+02
      vertex 2.335910e+02 -7.025368e+00 -3.679350e+02
      vertex 2.472500e+02 -5.549499e+00 -3.085012e+02
    endloop
  endfacet
  facet normal 1.697065e-14 1.733881e-02 9.998497e-01
    outer loop
      vertex 9.317804e+01 -5.449514e+00 -3.085029e+02
      vertex 9.317804e+01 -5.549499e+00 -3.085012e+02
      vertex 2.472500e+02 -5.549499e+00 -3.085012e+02
    endloop
  endfacet
  facet normal -8.750079e-13 -9.998497e-01 1.733881e-02
    outer loop
      vertex 2.470303e+02 -5.418645e+00 -3.067229e+02
      vertex 2.472500e+02 -5.449514e+00 -3.085029e+02
      vertex 2.472500e+02 -5.427841e+00 -3.072531e+02
    endloop
  endfacet
  facet normal -8.935151e-13 -9.998497e-01 1.733881e-02
    outer loop
      vertex 9.422577e+01 -5.414837e+00 -3.065032e+02
      vertex 2.472500e+02 -5.449514e+00 -3.085029e+02
      vertex 2.465000e+02 -5.414837e+00 -3.065032e+02
    endloop
  endfacet
  facet normal -8.928763e-13 -9.998497e-01 1.733881e-02
    outer loop
      vertex 2.470303e+02 -5.418645e+00 -3.067229e+02
      vertex 2.465000e+02 -5.414837e+00 -3.065032e+02
      vertex 2.472500e+02 -5.449514e+00 -3.085029e+02
    endloop
  endfacet
  facet normal -8.932259e-13 -9.998497e-01 1.733881e-02
    outer loop
      vertex 9.375746e+01 -5.417683e+00 -3.066674e+02
      vertex 2.472500e+02 -5.449514e+00 -3.085029e+02
      vertex 9.422577e+01 -5.414837e+00 -3.065032e+02
    endloop
  endfacet
  facet normal -8.934589e-13 -9.998497e-01 1.733881e-02
    outer loop
      vertex 9.333484e+01 -5.437278e+00 -3.077973e+02
      vertex 2.472500e+02 -5.449514e+00 -3.085029e+02
      vertex 9.349418e+01 -5.424977e+00 -3.070880e+02
    endloop
  endfacet
  facet normal -8.934887e-13 -9.998497e-01 1.733881e-02
    outer loop
      vertex 9.375746e+01 -5.417683e+00 -3.066674e+02
      vertex 9.349418e+01 -5.424977e+00 -3.070880e+02
      vertex 2.472500e+02 -5.449514e+00 -3.085029e+02
    endloop
  endfacet
  facet normal -8.934977e-13 -9.998497e-01 1.733881e-02
    outer loop
      vertex 9.317804e+01 -5.449514e+00 -3.085029e+02
      vertex 2.472500e+02 -5.449514e+00 -3.085029e+02
      vertex 9.333484e+01 -5.437278e+00 -3.077973e+02
    endloop
  endfacet
  facet normal 9.238795e-01 6.635273e-03 3.826259e-01
    outer loop
      vertex 2.470303e+02 -5.418645e+00 -3.067229e+02
      vertex 2.472500e+02 -5.427841e+00 -3.072531e+02
      vertex 2.470303e+02 -4.709230e+00 -3.067352e+02
    endloop
  endfacet
  facet normal -7.071068e-01 1.226039e-02 7.070005e-01
    outer loop
      vertex 2.099500e+02 -4.660340e+00 -3.039159e+02
      vertex 2.100000e+02 -4.659473e+00 -3.038659e+02
      vertex 2.100000e+02 -3.189694e+00 -3.038914e+02
    endloop
  endfacet
  facet normal -7.071068e-01 1.226039e-02 7.070005e-01
    outer loop
      vertex 2.099500e+02 -3.190561e+00 -3.039414e+02
      vertex 2.099500e+02 -4.660340e+00 -3.039159e+02
      vertex 2.100000e+02 -3.189694e+00 -3.038914e+02
    endloop
  endfacet
  facet normal 9.199512e-13 9.998497e-01 -1.733881e-02
    outer loop
      vertex 2.099500e+02 -3.207033e+00 -3.048913e+02
      vertex 2.099500e+02 -3.190561e+00 -3.039414e+02
      vertex 2.100000e+02 -3.189694e+00 -3.038914e+02
    endloop
  endfacet
  facet normal 1.069153e-12 9.998497e-01 -1.733881e-02
    outer loop
      vertex 2.099500e+02 -3.208767e+00 -3.049912e+02
      vertex 2.099500e+02 -3.207033e+00 -3.048913e+02
      vertex 2.100000e+02 -3.189694e+00 -3.038914e+02
    endloop
  endfacet
  facet normal 8.958820e-13 9.998497e-01 -1.733881e-02
    outer loop
      vertex 2.335910e+02 -4.301120e+00 -3.679823e+02
      vertex 2.099500e+02 -3.208767e+00 -3.049912e+02
      vertex 2.100000e+02 -3.189694e+00 -3.038914e+02
    endloop
  endfacet
  facet normal -8.931411e-13 -9.998497e-01 1.733881e-02
    outer loop
      vertex 2.099500e+02 -4.660340e+00 -3.039159e+02
      vertex 2.465000e+02 -4.705421e+00 -3.065155e+02
      vertex 2.100000e+02 -4.659473e+00 -3.038659e+02
    endloop
  endfacet
  facet normal -8.934905e-13 -9.998497e-01 1.733881e-02
    outer loop
      vertex 2.098500e+02 -4.678546e+00 -3.049657e+02
      vertex 9.422577e+01 -4.705421e+00 -3.065155e+02
      vertex 2.465000e+02 -4.705421e+00 -3.065155e+02
    endloop
  endfacet
  facet normal 1.549439e-14 1.733881e-02 9.998497e-01
    outer loop
      vertex 2.465000e+02 -5.414837e+00 -3.065032e+02
      vertex 2.465000e+02 -4.705421e+00 -3.065155e+02
      vertex 9.422577e+01 -4.705421e+00 -3.065155e+02
    endloop
  endfacet
  facet normal -8.880449e-13 -9.998497e-01 1.733881e-02
    outer loop
      vertex 2.099500e+02 -4.678546e+00 -3.049657e+02
      vertex 2.098500e+02 -4.678546e+00 -3.049657e+02
      vertex 2.465000e+02 -4.705421e+00 -3.065155e+02
    endloop
  endfacet
  facet normal -8.932146e-13 -9.998497e-01 1.733881e-02
    outer loop
      vertex 2.099500e+02 -4.676812e+00 -3.048658e+02
      vertex 2.099500e+02 -4.678546e+00 -3.049657e+02
      vertex 2.465000e+02 -4.705421e+00 -3.065155e+02
    endloop
  endfacet
  facet normal -8.934352e-13 -9.998497e-01 1.733881e-02
    outer loop
      vertex 2.099500e+02 -4.660340e+00 -3.039159e+02
      vertex 2.099500e+02 -4.676812e+00 -3.048658e+02
      vertex 2.465000e+02 -4.705421e+00 -3.065155e+02
    endloop
  endfacet
  facet normal 3.826834e-01 1.601897e-02 9.237406e-01
    outer loop
      vertex 2.470303e+02 -5.418645e+00 -3.067229e+02
      vertex 2.470303e+02 -4.709230e+00 -3.067352e+02
      vertex 2.465000e+02 -4.705421e+00 -3.065155e+02
    endloop
  endfacet
  facet normal 3.826834e-01 1.601897e-02 9.237406e-01
    outer loop
      vertex 2.470303e+02 -5.418645e+00 -3.067229e+02
      vertex 2.465000e+02 -4.705421e+00 -3.065155e+02
      vertex 2.465000e+02 -5.414837e+00 -3.065032e+02
    endloop
  endfacet
  facet normal -8.931729e-13 -9.998497e-01 1.733881e-02
    outer loop
      vertex 9.392694e+01 -4.678546e+00 -3.049657e+02
      vertex 9.385312e+01 -4.707140e+00 -3.066146e+02
      vertex 9.422577e+01 -4.705421e+00 -3.065155e+02
    endloop
  endfacet
  facet normal -2.570681e-01 1.675610e-02 9.662480e-01
    outer loop
      vertex 9.422577e+01 -5.414837e+00 -3.065032e+02
      vertex 9.422577e+01 -4.705421e+00 -3.065155e+02
      vertex 9.385312e+01 -4.707140e+00 -3.066146e+02
    endloop
  endfacet
  facet normal -8.934912e-13 -9.998497e-01 1.733881e-02
    outer loop
      vertex 2.098500e+02 -4.678546e+00 -3.049657e+02
      vertex 9.392694e+01 -4.678546e+00 -3.049657e+02
      vertex 9.422577e+01 -4.705421e+00 -3.065155e+02
    endloop
  endfacet
  facet normal 1.474811e-14 1.733881e-02 9.998497e-01
    outer loop
      vertex 9.422577e+01 -5.414837e+00 -3.065032e+02
      vertex 2.465000e+02 -5.414837e+00 -3.065032e+02
      vertex 9.422577e+01 -4.705421e+00 -3.065155e+02
    endloop
  endfacet
  facet normal -8.890118e-13 -9.998497e-01 1.733881e-02
    outer loop
      vertex 9.392694e+01 -4.678546e+00 -3.049657e+02
      vertex 9.354729e+01 -4.711489e+00 -3.068655e+02
      vertex 9.385312e+01 -4.707140e+00 -3.066146e+02
    endloop
  endfacet
  facet normal -6.341463e-01 2.802517e-02 7.727051e-01
    outer loop
      vertex 9.375746e+01 -5.417683e+00 -3.066674e+02
      vertex 9.385312e+01 -4.707140e+00 -3.066146e+02
      vertex 9.354729e+01 -4.711489e+00 -3.068655e+02
    endloop
  endfacet
  facet normal -3.305452e-01 -2.552374e-02 9.434450e-01
    outer loop
      vertex 9.375746e+01 -5.417683e+00 -3.066674e+02
      vertex 9.422577e+01 -5.414837e+00 -3.065032e+02
      vertex 9.385312e+01 -4.707140e+00 -3.066146e+02
    endloop
  endfacet
  facet normal -9.806147e-01 3.397472e-03 1.959167e-01
    outer loop
      vertex 9.354729e+01 -3.241710e+00 -3.068910e+02
      vertex 9.354729e+01 -4.711489e+00 -3.068655e+02
      vertex 9.392694e+01 -4.678546e+00 -3.049657e+02
    endloop
  endfacet
  facet normal -9.813576e-01 3.332353e-03 1.921616e-01
    outer loop
      vertex 9.039626e+01 -3.520687e+00 -3.229782e+02
      vertex 9.354729e+01 -4.711489e+00 -3.068655e+02
      vertex 9.354729e+01 -3.241710e+00 -3.068910e+02
    endloop
  endfacet
  facet normal -8.945416e-01 -4.232709e-01 1.436559e-01
    outer loop
      vertex 9.352839e+01 -4.713640e+00 -3.069895e+02
      vertex 9.354729e+01 -4.711489e+00 -3.068655e+02
      vertex 9.039626e+01 -3.520687e+00 -3.229782e+02
    endloop
  endfacet
  facet normal -9.583058e-01 -2.430550e-01 1.502475e-01
    outer loop
      vertex 9.375746e+01 -5.417683e+00 -3.066674e+02
      vertex 9.354729e+01 -4.711489e+00 -3.068655e+02
      vertex 9.352839e+01 -4.713640e+00 -3.069895e+02
    endloop
  endfacet
  facet normal 1.549440e-14 1.733881e-02 9.998497e-01
    outer loop
      vertex 9.392694e+01 -3.208767e+00 -3.049912e+02
      vertex 9.392694e+01 -4.678546e+00 -3.049657e+02
      vertex 2.098500e+02 -4.678546e+00 -3.049657e+02
    endloop
  endfacet
  facet normal -9.806147e-01 3.397472e-03 1.959167e-01
    outer loop
      vertex 9.354729e+01 -3.241710e+00 -3.068910e+02
      vertex 9.392694e+01 -4.678546e+00 -3.049657e+02
      vertex 9.392694e+01 -3.208767e+00 -3.049912e+02
    endloop
  endfacet
  facet normal 1.538830e-14 1.733881e-02 9.998497e-01
    outer loop
      vertex 2.098500e+02 -3.208767e+00 -3.049912e+02
      vertex 2.098500e+02 -4.678546e+00 -3.049657e+02
      vertex 2.099500e+02 -4.678546e+00 -3.049657e+02
    endloop
  endfacet
  facet normal 1.745632e-14 1.733881e-02 9.998497e-01
    outer loop
      vertex 9.392694e+01 -3.208767e+00 -3.049912e+02
      vertex 2.098500e+02 -4.678546e+00 -3.049657e+02
      vertex 2.098500e+02 -3.208767e+00 -3.049912e+02
    endloop
  endfacet
  facet normal -1.000000e+00 9.085847e-13 -1.575614e-14
    outer loop
      vertex 2.099500e+02 -3.208767e+00 -3.049912e+02
      vertex 2.099500e+02 -4.678546e+00 -3.049657e+02
      vertex 2.099500e+02 -4.676812e+00 -3.048658e+02
    endloop
  endfacet
  facet normal 1.539995e-14 1.733881e-02 9.998497e-01
    outer loop
      vertex 2.098500e+02 -3.208767e+00 -3.049912e+02
      vertex 2.099500e+02 -4.678546e+00 -3.049657e+02
      vertex 2.099500e+02 -3.208767e+00 -3.049912e+02
    endloop
  endfacet
  facet normal -1.000000e+00 8.897719e-13 1.449219e-14
    outer loop
      vertex 2.099500e+02 -3.190561e+00 -3.039414e+02
      vertex 2.099500e+02 -4.676812e+00 -3.048658e+02
      vertex 2.099500e+02 -4.660340e+00 -3.039159e+02
    endloop
  endfacet
  facet normal -1.000000e+00 9.085847e-13 -1.575614e-14
    outer loop
      vertex 2.099500e+02 -3.207033e+00 -3.048913e+02
      vertex 2.099500e+02 -4.676812e+00 -3.048658e+02
      vertex 2.099500e+02 -3.190561e+00 -3.039414e+02
    endloop
  endfacet
  facet normal -1.000000e+00 9.085847e-13 -1.575614e-14
    outer loop
      vertex 2.099500e+02 -3.208767e+00 -3.049912e+02
      vertex 2.099500e+02 -4.676812e+00 -3.048658e+02
      vertex 2.099500e+02 -3.207033e+00 -3.048913e+02
    endloop
  endfacet
  facet normal 1.549416e-14 1.733881e-02 9.998497e-01
    outer loop
      vertex 1.438500e+02 -4.344467e+00 -3.704819e+02
      vertex 1.438500e+02 -7.087431e+00 -3.704343e+02
      vertex 2.335910e+02 -7.087431e+00 -3.704343e+02
    endloop
  endfacet
  facet normal -8.934908e-13 -9.996918e-01 2.482447e-02
    outer loop
      vertex 9.150601e+01 -7.237623e+00 -3.764826e+02
      vertex 1.438500e+02 -7.087431e+00 -3.704343e+02
      vertex 1.426004e+02 -7.056399e+00 -3.691847e+02
    endloop
  endfacet
  facet normal 7.072286e-01 1.225828e-02 7.068787e-01
    outer loop
      vertex 1.426004e+02 -4.322794e+00 -3.692321e+02
      vertex 1.426004e+02 -7.056399e+00 -3.691847e+02
      vertex 1.438500e+02 -7.087431e+00 -3.704343e+02
    endloop
  endfacet
  facet normal 7.072286e-01 1.225827e-02 7.068787e-01
    outer loop
      vertex 1.426004e+02 -4.322794e+00 -3.692321e+02
      vertex 1.438500e+02 -7.087431e+00 -3.704343e+02
      vertex 1.438500e+02 -4.344467e+00 -3.704819e+02
    endloop
  endfacet
  facet normal -1.000000e+00 8.972344e-13 4.635025e-16
    outer loop
      vertex 2.335910e+02 -4.301120e+00 -3.679823e+02
      vertex 2.335910e+02 -7.087431e+00 -3.704343e+02
      vertex 2.335910e+02 -7.025368e+00 -3.679350e+02
    endloop
  endfacet
  facet normal 1.549451e-14 1.733881e-02 9.998497e-01
    outer loop
      vertex 2.335910e+02 -4.344467e+00 -3.704819e+02
      vertex 1.438500e+02 -4.344467e+00 -3.704819e+02
      vertex 2.335910e+02 -7.087431e+00 -3.704343e+02
    endloop
  endfacet
  facet normal -1.000000e+00 8.912307e-13 7.285587e-15
    outer loop
      vertex 2.335910e+02 -4.344467e+00 -3.704819e+02
      vertex 2.335910e+02 -7.087431e+00 -3.704343e+02
      vertex 2.335910e+02 -4.301120e+00 -3.679823e+02
    endloop
  endfacet
  facet normal -8.933562e-13 -9.996918e-01 2.482447e-02
    outer loop
      vertex 9.317804e+01 -5.549499e+00 -3.085012e+02
      vertex 1.438500e+02 -7.025368e+00 -3.679350e+02
      vertex 2.335910e+02 -7.025368e+00 -3.679350e+02
    endloop
  endfacet
  facet normal -1.549448e-14 -1.733881e-02 -9.998497e-01
    outer loop
      vertex 2.335910e+02 -4.301120e+00 -3.679823e+02
      vertex 2.335910e+02 -7.025368e+00 -3.679350e+02
      vertex 1.438500e+02 -7.025368e+00 -3.679350e+02
    endloop
  endfacet
  facet normal -8.939648e-13 -9.996918e-01 2.482447e-02
    outer loop
      vertex 9.317804e+01 -5.549499e+00 -3.085012e+02
      vertex 1.426004e+02 -7.056399e+00 -3.691847e+02
      vertex 1.438500e+02 -7.025368e+00 -3.679350e+02
    endloop
  endfacet
  facet normal 7.072286e-01 -1.225827e-02 -7.068786e-01
    outer loop
      vertex 1.438500e+02 -4.301120e+00 -3.679823e+02
      vertex 1.438500e+02 -7.025368e+00 -3.679350e+02
      vertex 1.426004e+02 -7.056399e+00 -3.691847e+02
    endloop
  endfacet
  facet normal -1.549416e-14 -1.733881e-02 -9.998497e-01
    outer loop
      vertex 2.335910e+02 -4.301120e+00 -3.679823e+02
      vertex 1.438500e+02 -7.025368e+00 -3.679350e+02
      vertex 1.438500e+02 -4.301120e+00 -3.679823e+02
    endloop
  endfacet
  facet normal -8.933634e-13 -9.996918e-01 2.482447e-02
    outer loop
      vertex 9.150601e+01 -7.237623e+00 -3.764826e+02
      vertex 1.426004e+02 -7.056399e+00 -3.691847e+02
      vertex 9.317804e+01 -5.549499e+00 -3.085012e+02
    endloop
  endfacet
  facet normal 7.072286e-01 -1.225822e-02 -7.068787e-01
    outer loop
      vertex 1.438500e+02 -4.301120e+00 -3.679823e+02
      vertex 1.426004e+02 -7.056399e+00 -3.691847e+02
      vertex 1.426004e+02 -4.322794e+00 -3.692321e+02
    endloop
  endfacet
  facet normal -8.943336e-13 -9.996918e-01 2.482447e-02
    outer loop
      vertex 9.033841e+01 -5.916820e+00 -3.232933e+02
      vertex 9.150601e+01 -7.237623e+00 -3.764826e+02
      vertex 9.317804e+01 -5.549499e+00 -3.085012e+02
    endloop
  endfacet
  facet normal -9.820626e-01 -1.083804e-03 1.885523e-01
    outer loop
      vertex 9.039626e+01 -3.520687e+00 -3.229782e+02
      vertex 9.033841e+01 -5.916820e+00 -3.232933e+02
      vertex 9.317804e+01 -5.549499e+00 -3.085012e+02
    endloop
  endfacet
  facet normal -9.819444e-01 3.279974e-03 1.891411e-01
    outer loop
      vertex 9.317804e+01 -5.449514e+00 -3.085029e+02
      vertex 9.039626e+01 -3.520687e+00 -3.229782e+02
      vertex 9.317804e+01 -5.549499e+00 -3.085012e+02
    endloop
  endfacet
  facet normal -8.917915e-13 -9.996918e-01 2.482447e-02
    outer loop
      vertex 9.033841e+01 -5.916820e+00 -3.232933e+02
      vertex 8.978996e+01 -7.026316e+00 -3.679732e+02
      vertex 9.150601e+01 -7.237623e+00 -3.764826e+02
    endloop
  endfacet
  facet normal -9.802764e-01 -3.426694e-03 -1.976018e-01
    outer loop
      vertex 9.150601e+01 -7.152611e+00 -3.764841e+02
      vertex 9.150601e+01 -7.237623e+00 -3.764826e+02
      vertex 8.978996e+01 -7.026316e+00 -3.679732e+02
    endloop
  endfacet
  facet normal -8.926394e-13 -9.996918e-01 2.482447e-02
    outer loop
      vertex 8.870000e+01 -6.254354e+00 -3.368860e+02
      vertex 8.870000e+01 -6.805307e+00 -3.590731e+02
      vertex 8.978996e+01 -7.026316e+00 -3.679732e+02
    endloop
  endfacet
  facet normal -9.891423e-01 8.022991e-02 -1.231284e-01
    outer loop
      vertex 9.050521e+01 -4.370596e+00 -3.719886e+02
      vertex 8.978996e+01 -7.026316e+00 -3.679732e+02
      vertex 8.870000e+01 -6.805307e+00 -3.590731e+02
    endloop
  endfacet
  facet normal -8.931854e-13 -9.996918e-01 2.482447e-02
    outer loop
      vertex 9.033841e+01 -5.916820e+00 -3.232933e+02
      vertex 8.870000e+01 -6.254354e+00 -3.368860e+02
      vertex 8.978996e+01 -7.026316e+00 -3.679732e+02
    endloop
  endfacet
  facet normal -9.798014e-01 -3.405733e-02 -1.970515e-01
    outer loop
      vertex 9.150601e+01 -7.152611e+00 -3.764841e+02
      vertex 8.978996e+01 -7.026316e+00 -3.679732e+02
      vertex 9.050521e+01 -4.370596e+00 -3.719886e+02
    endloop
  endfacet
  facet normal -7.071068e-01 -7.068889e-01 1.755355e-02
    outer loop
      vertex 8.825064e+01 -6.093400e+00 -3.485056e+02
      vertex 8.870000e+01 -6.805307e+00 -3.590731e+02
      vertex 8.870000e+01 -6.254354e+00 -3.368860e+02
    endloop
  endfacet
  facet normal -9.903078e-01 -2.408522e-03 -1.388695e-01
    outer loop
      vertex 9.050521e+01 -4.370596e+00 -3.719886e+02
      vertex 8.870000e+01 -6.805307e+00 -3.590731e+02
      vertex 8.870000e+01 -4.147422e+00 -3.591192e+02
    endloop
  endfacet
  facet normal -9.990990e-01 -7.356235e-04 -4.243435e-02
    outer loop
      vertex 8.825064e+01 -6.093400e+00 -3.485056e+02
      vertex 8.870000e+01 -4.147422e+00 -3.591192e+02
      vertex 8.870000e+01 -6.805307e+00 -3.590731e+02
    endloop
  endfacet
  facet normal -9.928177e-01 2.074078e-03 1.196189e-01
    outer loop
      vertex 8.870000e+01 -3.762616e+00 -3.369292e+02
      vertex 8.870000e+01 -6.254354e+00 -3.368860e+02
      vertex 9.033841e+01 -5.916820e+00 -3.232933e+02
    endloop
  endfacet
  facet normal -9.992447e-01 6.740421e-04 3.885337e-02
    outer loop
      vertex 8.825030e+01 -4.412749e+00 -3.484834e+02
      vertex 8.870000e+01 -6.254354e+00 -3.368860e+02
      vertex 8.870000e+01 -3.762616e+00 -3.369292e+02
    endloop
  endfacet
  facet normal -9.992532e-01 -7.129083e-04 3.863346e-02
    outer loop
      vertex 8.825030e+01 -4.412749e+00 -3.484834e+02
      vertex 8.825064e+01 -6.093400e+00 -3.485056e+02
      vertex 8.870000e+01 -6.254354e+00 -3.368860e+02
    endloop
  endfacet
  facet normal -9.926734e-01 8.113966e-03 1.205557e-01
    outer loop
      vertex 8.870000e+01 -3.762616e+00 -3.369292e+02
      vertex 9.033841e+01 -5.916820e+00 -3.232933e+02
      vertex 9.039626e+01 -3.520687e+00 -3.229782e+02
    endloop
  endfacet
  facet normal -1.549438e-14 -1.733881e-02 -9.998497e-01
    outer loop
      vertex 2.465000e+02 -5.509890e+00 -3.785129e+02
      vertex 2.465000e+02 -7.187289e+00 -3.784838e+02
      vertex 9.258979e+01 -7.187289e+00 -3.784838e+02
    endloop
  endfacet
  facet normal -8.934905e-13 -9.998497e-01 1.733881e-02
    outer loop
      vertex 9.150601e+01 -7.152611e+00 -3.764841e+02
      vertex 9.258979e+01 -7.187289e+00 -3.784838e+02
      vertex 2.465000e+02 -7.187289e+00 -3.784838e+02
    endloop
  endfacet
  facet normal -1.549439e-14 -1.733881e-02 -9.998497e-01
    outer loop
      vertex 9.258979e+01 -5.509890e+00 -3.785129e+02
      vertex 2.465000e+02 -5.509890e+00 -3.785129e+02
      vertex 9.258979e+01 -7.187289e+00 -3.784838e+02
    endloop
  endfacet
  facet normal -3.241685e-01 -1.640250e-02 -9.458571e-01
    outer loop
      vertex 9.212980e+01 -7.184555e+00 -3.783262e+02
      vertex 9.258979e+01 -5.509890e+00 -3.785129e+02
      vertex 9.258979e+01 -7.187289e+00 -3.784838e+02
    endloop
  endfacet
  facet normal -8.912929e-13 -9.998497e-01 1.733881e-02
    outer loop
      vertex 9.212980e+01 -7.184555e+00 -3.783262e+02
      vertex 9.258979e+01 -7.187289e+00 -3.784838e+02
      vertex 9.150601e+01 -7.152611e+00 -3.764841e+02
    endloop
  endfacet
  facet normal 3.826834e-01 -1.601897e-02 -9.237406e-01
    outer loop
      vertex 2.470303e+02 -5.506082e+00 -3.782933e+02
      vertex 2.465000e+02 -7.187289e+00 -3.784838e+02
      vertex 2.465000e+02 -5.509890e+00 -3.785129e+02
    endloop
  endfacet
  facet normal 3.826834e-01 -1.601897e-02 -9.237406e-01
    outer loop
      vertex 2.470303e+02 -7.183480e+00 -3.782642e+02
      vertex 2.465000e+02 -7.187289e+00 -3.784838e+02
      vertex 2.470303e+02 -5.506082e+00 -3.782933e+02
    endloop
  endfacet
  facet normal -8.935482e-13 -9.998497e-01 1.733881e-02
    outer loop
      vertex 2.470303e+02 -7.183480e+00 -3.782642e+02
      vertex 9.150601e+01 -7.152611e+00 -3.764841e+02
      vertex 2.465000e+02 -7.187289e+00 -3.784838e+02
    endloop
  endfacet
  facet normal -8.934905e-13 -9.998497e-01 1.733881e-02
    outer loop
      vertex 2.465000e+02 -5.553237e+00 -3.810125e+02
      vertex 2.465000e+02 -5.509890e+00 -3.785129e+02
      vertex 9.258979e+01 -5.509890e+00 -3.785129e+02
    endloop
  endfacet
  facet normal -8.891354e-13 -9.998497e-01 1.733881e-02
    outer loop
      vertex 2.470303e+02 -5.557046e+00 -3.812322e+02
      vertex 2.470303e+02 -5.506082e+00 -3.782933e+02
      vertex 2.465000e+02 -5.509890e+00 -3.785129e+02
    endloop
  endfacet
  facet normal -8.920520e-13 -9.998497e-01 1.733881e-02
    outer loop
      vertex 2.465000e+02 -5.553237e+00 -3.810125e+02
      vertex 2.470303e+02 -5.557046e+00 -3.812322e+02
      vertex 2.465000e+02 -5.509890e+00 -3.785129e+02
    endloop
  endfacet
  facet normal -8.977045e-13 -9.998497e-01 1.733881e-02
    outer loop
      vertex 9.239821e+01 -5.535072e+00 -3.799650e+02
      vertex 9.297027e+01 -5.569916e+00 -3.819743e+02
      vertex 9.258979e+01 -5.509890e+00 -3.785129e+02
    endloop
  endfacet
  facet normal -8.919883e-13 -9.998497e-01 1.733881e-02
    outer loop
      vertex 9.308937e+01 -5.558456e+00 -3.813135e+02
      vertex 9.258979e+01 -5.509890e+00 -3.785129e+02
      vertex 9.297027e+01 -5.569916e+00 -3.819743e+02
    endloop
  endfacet
  facet normal -8.957522e-13 -9.998497e-01 1.733881e-02
    outer loop
      vertex 9.212980e+01 -5.507157e+00 -3.783553e+02
      vertex 9.239821e+01 -5.535072e+00 -3.799650e+02
      vertex 9.258979e+01 -5.509890e+00 -3.785129e+02
    endloop
  endfacet
  facet normal -3.241685e-01 -1.640250e-02 -9.458571e-01
    outer loop
      vertex 9.212980e+01 -7.184555e+00 -3.783262e+02
      vertex 9.212980e+01 -5.507157e+00 -3.783553e+02
      vertex 9.258979e+01 -5.509890e+00 -3.785129e+02
    endloop
  endfacet
  facet normal -8.935072e-13 -9.998497e-01 1.733881e-02
    outer loop
      vertex 9.368971e+01 -5.553237e+00 -3.810125e+02
      vertex 2.465000e+02 -5.553237e+00 -3.810125e+02
      vertex 9.258979e+01 -5.509890e+00 -3.785129e+02
    endloop
  endfacet
  facet normal -8.911270e-13 -9.998497e-01 1.733881e-02
    outer loop
      vertex 9.308937e+01 -5.558456e+00 -3.813135e+02
      vertex 9.368971e+01 -5.553237e+00 -3.810125e+02
      vertex 9.258979e+01 -5.509890e+00 -3.785129e+02
    endloop
  endfacet
  facet normal -9.617881e-01 -3.546332e-03 -2.737718e-01
    outer loop
      vertex 9.301086e+01 -4.546464e+00 -3.821301e+02
      vertex 9.297027e+01 -5.569916e+00 -3.819743e+02
      vertex 9.239821e+01 -5.535072e+00 -3.799650e+02
    endloop
  endfacet
  facet normal -9.841484e-01 3.074983e-03 1.773202e-01
    outer loop
      vertex 9.308937e+01 -6.703284e+00 -3.812936e+02
      vertex 9.308937e+01 -5.558456e+00 -3.813135e+02
      vertex 9.297027e+01 -5.569916e+00 -3.819743e+02
    endloop
  endfacet
  facet normal -9.841484e-01 3.074983e-03 1.773202e-01
    outer loop
      vertex 9.308937e+01 -6.703284e+00 -3.812936e+02
      vertex 9.297027e+01 -5.569916e+00 -3.819743e+02
      vertex 9.297027e+01 -6.714744e+00 -3.819544e+02
    endloop
  endfacet
  facet normal -9.594092e-01 -4.889849e-03 -2.819753e-01
    outer loop
      vertex 9.301086e+01 -4.546464e+00 -3.821301e+02
      vertex 9.297027e+01 -6.714744e+00 -3.819544e+02
      vertex 9.297027e+01 -5.569916e+00 -3.819743e+02
    endloop
  endfacet
  facet normal -8.904836e-13 -9.998497e-01 1.733881e-02
    outer loop
      vertex 9.212980e+01 -5.507157e+00 -3.783553e+02
      vertex 9.186316e+01 -5.500107e+00 -3.779487e+02
      vertex 9.239821e+01 -5.535072e+00 -3.799650e+02
    endloop
  endfacet
  facet normal -9.657717e-01 3.586969e-02 -2.569015e-01
    outer loop
      vertex 9.301086e+01 -4.546464e+00 -3.821301e+02
      vertex 9.239821e+01 -5.535072e+00 -3.799650e+02
      vertex 9.186316e+01 -5.500107e+00 -3.779487e+02
    endloop
  endfacet
  facet normal -8.362442e-01 -9.507858e-03 -5.482747e-01
    outer loop
      vertex 9.186316e+01 -7.177505e+00 -3.779196e+02
      vertex 9.186316e+01 -5.500107e+00 -3.779487e+02
      vertex 9.212980e+01 -5.507157e+00 -3.783553e+02
    endloop
  endfacet
  facet normal -9.647203e-01 1.077431e-01 -2.402210e-01
    outer loop
      vertex 9.050521e+01 -4.370596e+00 -3.719886e+02
      vertex 9.301086e+01 -4.546464e+00 -3.821301e+02
      vertex 9.186316e+01 -5.500107e+00 -3.779487e+02
    endloop
  endfacet
  facet normal -9.744565e-01 1.183873e-02 -2.242642e-01
    outer loop
      vertex 9.150601e+01 -7.152611e+00 -3.764841e+02
      vertex 9.050521e+01 -4.370596e+00 -3.719886e+02
      vertex 9.186316e+01 -5.500107e+00 -3.779487e+02
    endloop
  endfacet
  facet normal -9.711938e-01 -1.295345e-03 -2.382876e-01
    outer loop
      vertex 9.168351e+01 -7.165155e+00 -3.772075e+02
      vertex 9.150601e+01 -7.152611e+00 -3.764841e+02
      vertex 9.186316e+01 -5.500107e+00 -3.779487e+02
    endloop
  endfacet
  facet normal -9.696338e-01 -4.240404e-03 -2.445247e-01
    outer loop
      vertex 9.186316e+01 -7.177505e+00 -3.779196e+02
      vertex 9.168351e+01 -7.165155e+00 -3.772075e+02
      vertex 9.186316e+01 -5.500107e+00 -3.779487e+02
    endloop
  endfacet
  facet normal -8.362442e-01 -9.507858e-03 -5.482747e-01
    outer loop
      vertex 9.212980e+01 -7.184555e+00 -3.783262e+02
      vertex 9.186316e+01 -7.177505e+00 -3.779196e+02
      vertex 9.212980e+01 -5.507157e+00 -3.783553e+02
    endloop
  endfacet
  facet normal 3.826834e-01 1.601897e-02 9.237406e-01
    outer loop
      vertex 2.470303e+02 -6.701874e+00 -3.812123e+02
      vertex 2.470303e+02 -5.557046e+00 -3.812322e+02
      vertex 2.465000e+02 -5.553237e+00 -3.810125e+02
    endloop
  endfacet
  facet normal 1.475060e-14 1.733881e-02 9.998497e-01
    outer loop
      vertex 2.465000e+02 -6.698065e+00 -3.809927e+02
      vertex 2.465000e+02 -5.553237e+00 -3.810125e+02
      vertex 9.368971e+01 -5.553237e+00 -3.810125e+02
    endloop
  endfacet
  facet normal 3.826834e-01 1.601897e-02 9.237406e-01
    outer loop
      vertex 2.470303e+02 -6.701874e+00 -3.812123e+02
      vertex 2.465000e+02 -5.553237e+00 -3.810125e+02
      vertex 2.465000e+02 -6.698065e+00 -3.809927e+02
    endloop
  endfacet
  facet normal -4.482048e-01 1.549969e-02 8.937965e-01
    outer loop
      vertex 9.368971e+01 -6.698065e+00 -3.809927e+02
      vertex 9.368971e+01 -5.553237e+00 -3.810125e+02
      vertex 9.308937e+01 -5.558456e+00 -3.813135e+02
    endloop
  endfacet
  facet normal 1.549445e-14 1.733881e-02 9.998497e-01
    outer loop
      vertex 9.368971e+01 -6.698065e+00 -3.809927e+02
      vertex 2.465000e+02 -6.698065e+00 -3.809927e+02
      vertex 9.368971e+01 -5.553237e+00 -3.810125e+02
    endloop
  endfacet
  facet normal -4.482048e-01 1.549969e-02 8.937965e-01
    outer loop
      vertex 9.308937e+01 -6.703284e+00 -3.812936e+02
      vertex 9.368971e+01 -6.698065e+00 -3.809927e+02
      vertex 9.308937e+01 -5.558456e+00 -3.813135e+02
    endloop
  endfacet
  facet normal -8.868776e-13 -9.998497e-01 1.733881e-02
    outer loop
      vertex 9.212980e+01 -7.184555e+00 -3.783262e+02
      vertex 9.150601e+01 -7.152611e+00 -3.764841e+02
      vertex 9.186316e+01 -7.177505e+00 -3.779196e+02
    endloop
  endfacet
  facet normal -1.201907e-12 -9.998497e-01 1.733881e-02
    outer loop
      vertex 9.186316e+01 -7.177505e+00 -3.779196e+02
      vertex 9.150601e+01 -7.152611e+00 -3.764841e+02
      vertex 9.168351e+01 -7.165155e+00 -3.772075e+02
    endloop
  endfacet
  facet normal -9.167868e-13 -9.998497e-01 1.733881e-02
    outer loop
      vertex 9.308937e+01 -6.703284e+00 -3.812936e+02
      vertex 9.297027e+01 -6.714744e+00 -3.819544e+02
      vertex 9.301086e+01 -6.717138e+00 -3.820925e+02
    endloop
  endfacet
  facet normal -9.594092e-01 -4.889849e-03 -2.819753e-01
    outer loop
      vertex 9.301086e+01 -4.546464e+00 -3.821301e+02
      vertex 9.301086e+01 -6.717138e+00 -3.820925e+02
      vertex 9.297027e+01 -6.714744e+00 -3.819544e+02
    endloop
  endfacet
  facet normal 8.897675e-13 9.998497e-01 -1.733881e-02
    outer loop
      vertex 9.354729e+01 -3.241710e+00 -3.068910e+02
      vertex 9.392694e+01 -3.208767e+00 -3.049912e+02
      vertex 9.301086e+01 -4.546464e+00 -3.821301e+02
    endloop
  endfacet
  facet normal 8.934746e-13 9.998497e-01 -1.733881e-02
    outer loop
      vertex 1.426004e+02 -4.322794e+00 -3.692321e+02
      vertex 9.301086e+01 -4.546464e+00 -3.821301e+02
      vertex 9.392694e+01 -3.208767e+00 -3.049912e+02
    endloop
  endfacet
  facet normal 8.928910e-13 9.998497e-01 -1.733881e-02
    outer loop
      vertex 9.050521e+01 -4.370596e+00 -3.719886e+02
      vertex 9.354729e+01 -3.241710e+00 -3.068910e+02
      vertex 9.301086e+01 -4.546464e+00 -3.821301e+02
    endloop
  endfacet
  facet normal 8.935752e-13 9.998497e-01 -1.733881e-02
    outer loop
      vertex 1.426004e+02 -4.322794e+00 -3.692321e+02
      vertex 1.438500e+02 -4.344467e+00 -3.704819e+02
      vertex 9.301086e+01 -4.546464e+00 -3.821301e+02
    endloop
  endfacet
  facet normal 8.934974e-13 9.998497e-01 -1.733881e-02
    outer loop
      vertex 2.335910e+02 -4.344467e+00 -3.704819e+02
      vertex 9.301086e+01 -4.546464e+00 -3.821301e+02
      vertex 1.438500e+02 -4.344467e+00 -3.704819e+02
    endloop
  endfacet
  facet normal 8.864796e-13 9.998497e-01 -1.733881e-02
    outer loop
      vertex 1.438500e+02 -4.301120e+00 -3.679823e+02
      vertex 2.098500e+02 -3.208767e+00 -3.049912e+02
      vertex 2.099500e+02 -3.208767e+00 -3.049912e+02
    endloop
  endfacet
  facet normal 8.934776e-13 9.998497e-01 -1.733881e-02
    outer loop
      vertex 2.335910e+02 -4.301120e+00 -3.679823e+02
      vertex 1.438500e+02 -4.301120e+00 -3.679823e+02
      vertex 2.099500e+02 -3.208767e+00 -3.049912e+02
    endloop
  endfacet
  facet normal 8.935028e-13 9.998497e-01 -1.733881e-02
    outer loop
      vertex 1.438500e+02 -4.301120e+00 -3.679823e+02
      vertex 9.392694e+01 -3.208767e+00 -3.049912e+02
      vertex 2.098500e+02 -3.208767e+00 -3.049912e+02
    endloop
  endfacet
  facet normal 8.948238e-13 9.998497e-01 -1.733881e-02
    outer loop
      vertex 1.438500e+02 -4.301120e+00 -3.679823e+02
      vertex 1.426004e+02 -4.322794e+00 -3.692321e+02
      vertex 9.392694e+01 -3.208767e+00 -3.049912e+02
    endloop
  endfacet
  facet normal 8.947661e-13 9.998497e-01 -1.733881e-02
    outer loop
      vertex 9.050521e+01 -4.370596e+00 -3.719886e+02
      vertex 9.039626e+01 -3.520687e+00 -3.229782e+02
      vertex 9.354729e+01 -3.241710e+00 -3.068910e+02
    endloop
  endfacet
  facet normal 8.907353e-13 9.998497e-01 -1.733881e-02
    outer loop
      vertex 8.870000e+01 -4.147422e+00 -3.591192e+02
      vertex 8.870000e+01 -3.762616e+00 -3.369292e+02
      vertex 9.039626e+01 -3.520687e+00 -3.229782e+02
    endloop
  endfacet
  facet normal 8.927788e-13 9.998497e-01 -1.733881e-02
    outer loop
      vertex 9.050521e+01 -4.370596e+00 -3.719886e+02
      vertex 8.870000e+01 -4.147422e+00 -3.591192e+02
      vertex 9.039626e+01 -3.520687e+00 -3.229782e+02
    endloop
  endfacet
  facet normal -9.814407e-01 3.324995e-03 1.917372e-01
    outer loop
      vertex 9.349418e+01 -5.424977e+00 -3.070880e+02
      vertex 9.349418e+01 -4.715561e+00 -3.071003e+02
      vertex 9.039626e+01 -3.520687e+00 -3.229782e+02
    endloop
  endfacet
  facet normal -6.214321e-01 7.628274e-01 1.786520e-01
    outer loop
      vertex 9.352839e+01 -4.713640e+00 -3.069895e+02
      vertex 9.039626e+01 -3.520687e+00 -3.229782e+02
      vertex 9.349418e+01 -4.715561e+00 -3.071003e+02
    endloop
  endfacet
  facet normal -9.554021e-01 2.065857e-01 2.110196e-01
    outer loop
      vertex 9.333484e+01 -5.437278e+00 -3.077973e+02
      vertex 9.349418e+01 -5.424977e+00 -3.070880e+02
      vertex 9.039626e+01 -3.520687e+00 -3.229782e+02
    endloop
  endfacet
  facet normal -9.588366e-01 1.913912e-01 2.097661e-01
    outer loop
      vertex 9.317804e+01 -5.449514e+00 -3.085029e+02
      vertex 9.333484e+01 -5.437278e+00 -3.077973e+02
      vertex 9.039626e+01 -3.520687e+00 -3.229782e+02
    endloop
  endfacet
  facet normal -7.071068e-01 7.070005e-01 -1.226039e-02
    outer loop
      vertex 8.825030e+01 -4.412749e+00 -3.484834e+02
      vertex 8.870000e+01 -3.762616e+00 -3.369292e+02
      vertex 8.870000e+01 -4.147422e+00 -3.591192e+02
    endloop
  endfacet
  facet normal -9.991076e-01 3.520210e-04 -4.223530e-02
    outer loop
      vertex 8.825030e+01 -4.412749e+00 -3.484834e+02
      vertex 8.870000e+01 -4.147422e+00 -3.591192e+02
      vertex 8.825064e+01 -6.093400e+00 -3.485056e+02
    endloop
  endfacet
  facet normal -8.476639e-01 9.198820e-03 5.304539e-01
    outer loop
      vertex 9.375746e+01 -5.417683e+00 -3.066674e+02
      vertex 9.349418e+01 -4.715561e+00 -3.071003e+02
      vertex 9.349418e+01 -5.424977e+00 -3.070880e+02
    endloop
  endfacet
  facet normal -9.404435e-01 -1.717716e-01 2.933608e-01
    outer loop
      vertex 9.375746e+01 -5.417683e+00 -3.066674e+02
      vertex 9.352839e+01 -4.713640e+00 -3.069895e+02
      vertex 9.349418e+01 -4.715561e+00 -3.071003e+02
    endloop
  endfacet
endsolid P1040852002
