solid P1040852002
  facet normal -1.000000e+00 4.198174e-15 2.733770e-12
    outer loop
      vertex -1.638140e+02 5.950282e+00 -3.038790e+02
      vertex -1.638140e+02 7.420165e+00 -3.038605e+02
      vertex -1.638140e+02 7.463037e+00 -3.072602e+02
    endloop
  endfacet
  facet normal 3.774745e-14 9.999205e-01 1.260938e-02
    outer loop
      vertex -1.635943e+02 7.456350e+00 -3.067299e+02
      vertex -1.638140e+02 7.463037e+00 -3.072602e+02
      vertex -1.638140e+02 7.420165e+00 -3.038605e+02
    endloop
  endfacet
  facet normal -1.000000e+00 -3.275497e-15 2.730426e-12
    outer loop
      vertex -1.638140e+02 9.569795e+00 -3.764897e+02
      vertex -1.638140e+02 5.950282e+00 -3.038790e+02
      vertex -1.638140e+02 7.463037e+00 -3.072602e+02
    endloop
  endfacet
  facet normal -1.000000e+00 9.125701e-15 2.730804e-12
    outer loop
      vertex -1.638140e+02 8.188265e+00 -3.085012e+02
      vertex -1.638140e+02 9.569795e+00 -3.764897e+02
      vertex -1.638140e+02 7.463037e+00 -3.072602e+02
    endloop
  endfacet
  facet normal -1.000000e+00 5.649835e-15 2.728772e-12
    outer loop
      vertex -1.638140e+02 8.172503e+00 -3.072513e+02
      vertex -1.638140e+02 8.188265e+00 -3.085012e+02
      vertex -1.638140e+02 7.463037e+00 -3.072602e+02
    endloop
  endfacet
  facet normal -9.238795e-01 -4.825402e-03 3.826530e-01
    outer loop
      vertex -1.635943e+02 7.456350e+00 -3.067299e+02
      vertex -1.638140e+02 8.172503e+00 -3.072513e+02
      vertex -1.638140e+02 7.463037e+00 -3.072602e+02
    endloop
  endfacet
  facet normal 2.728290e-12 -1.260938e-02 9.999205e-01
    outer loop
      vertex -1.265640e+02 5.950282e+00 -3.038790e+02
      vertex -1.638140e+02 7.420165e+00 -3.038605e+02
      vertex -1.638140e+02 5.950282e+00 -3.038790e+02
    endloop
  endfacet
  facet normal 2.731342e-12 -1.260938e-02 9.999205e-01
    outer loop
      vertex -1.265640e+02 7.420165e+00 -3.038605e+02
      vertex -1.638140e+02 7.420165e+00 -3.038605e+02
      vertex -1.265640e+02 5.950282e+00 -3.038790e+02
    endloop
  endfacet
  facet normal 3.263103e-14 9.999205e-01 1.260938e-02
    outer loop
      vertex -1.630640e+02 7.453580e+00 -3.065103e+02
      vertex -1.638140e+02 7.420165e+00 -3.038605e+02
      vertex -1.265640e+02 7.420165e+00 -3.038605e+02
    endloop
  endfacet
  facet normal 3.088773e-14 9.999205e-01 1.260938e-02
    outer loop
      vertex -1.635943e+02 7.456350e+00 -3.067299e+02
      vertex -1.638140e+02 7.420165e+00 -3.038605e+02
      vertex -1.630640e+02 7.453580e+00 -3.065103e+02
    endloop
  endfacet
  facet normal -1.000000e+00 -2.383246e-14 2.729836e-12
    outer loop
      vertex -1.638140e+02 7.958478e+00 -3.817604e+02
      vertex -1.638140e+02 6.936973e+00 -3.821233e+02
      vertex -1.638140e+02 5.950282e+00 -3.038790e+02
    endloop
  endfacet
  facet normal -3.250821e-14 -9.999205e-01 -1.260938e-02
    outer loop
      vertex -1.501550e+02 6.523385e+00 -3.493259e+02
      vertex -1.638140e+02 5.950282e+00 -3.038790e+02
      vertex -1.638140e+02 6.936973e+00 -3.821233e+02
    endloop
  endfacet
  facet normal -1.000000e+00 -1.327802e-13 2.727027e-12
    outer loop
      vertex -1.638140e+02 7.908040e+00 -3.777607e+02
      vertex -1.638140e+02 7.958478e+00 -3.817604e+02
      vertex -1.638140e+02 5.950282e+00 -3.038790e+02
    endloop
  endfacet
  facet normal -1.000000e+00 -1.901465e-15 2.730495e-12
    outer loop
      vertex -1.638140e+02 9.569795e+00 -3.764897e+02
      vertex -1.638140e+02 7.908040e+00 -3.777607e+02
      vertex -1.638140e+02 5.950282e+00 -3.038790e+02
    endloop
  endfacet
  facet normal -3.259140e-14 -9.999205e-01 -1.260938e-02
    outer loop
      vertex -1.501550e+02 6.491861e+00 -3.468261e+02
      vertex -1.265640e+02 5.950282e+00 -3.038790e+02
      vertex -1.638140e+02 5.950282e+00 -3.038790e+02
    endloop
  endfacet
  facet normal -3.305878e-14 -9.999205e-01 -1.260938e-02
    outer loop
      vertex -1.501550e+02 6.523385e+00 -3.493259e+02
      vertex -1.501550e+02 6.491861e+00 -3.468261e+02
      vertex -1.638140e+02 5.950282e+00 -3.038790e+02
    endloop
  endfacet
  facet normal -1.000000e+00 -8.633102e-15 2.761077e-12
    outer loop
      vertex -1.638140e+02 9.103387e+00 -3.817460e+02
      vertex -1.638140e+02 9.107800e+00 -3.820959e+02
      vertex -1.638140e+02 6.936973e+00 -3.821233e+02
    endloop
  endfacet
  facet normal -2.728482e-12 1.260938e-02 -9.999205e-01
    outer loop
      vertex -9.574862e+00 9.107800e+00 -3.820959e+02
      vertex -1.638140e+02 6.936973e+00 -3.821233e+02
      vertex -1.638140e+02 9.107800e+00 -3.820959e+02
    endloop
  endfacet
  facet normal -1.000000e+00 1.666193e-14 2.615854e-12
    outer loop
      vertex -1.638140e+02 7.958478e+00 -3.817604e+02
      vertex -1.638140e+02 9.103387e+00 -3.817460e+02
      vertex -1.638140e+02 6.936973e+00 -3.821233e+02
    endloop
  endfacet
  facet normal -2.729219e-12 1.260938e-02 -9.999205e-01
    outer loop
      vertex -9.574862e+00 6.936973e+00 -3.821233e+02
      vertex -1.638140e+02 6.936973e+00 -3.821233e+02
      vertex -9.574862e+00 9.107800e+00 -3.820959e+02
    endloop
  endfacet
  facet normal -3.261951e-14 -9.999205e-01 -1.260938e-02
    outer loop
      vertex -1.501550e+02 6.523385e+00 -3.493259e+02
      vertex -1.638140e+02 6.936973e+00 -3.821233e+02
      vertex -9.574862e+00 6.936973e+00 -3.821233e+02
    endloop
  endfacet
  facet normal 4.755095e-14 9.999205e-01 1.260938e-02
    outer loop
      vertex -1.635943e+02 9.096700e+00 -3.812157e+02
      vertex -1.638140e+02 9.107800e+00 -3.820959e+02
      vertex -1.638140e+02 9.103387e+00 -3.817460e+02
    endloop
  endfacet
  facet normal 3.262678e-14 9.999205e-01 1.260938e-02
    outer loop
      vertex -1.025371e+01 9.093930e+00 -3.809960e+02
      vertex -1.638140e+02 9.107800e+00 -3.820959e+02
      vertex -1.630640e+02 9.093930e+00 -3.809960e+02
    endloop
  endfacet
  facet normal 3.089872e-14 9.999205e-01 1.260938e-02
    outer loop
      vertex -1.635943e+02 9.096700e+00 -3.812157e+02
      vertex -1.630640e+02 9.093930e+00 -3.809960e+02
      vertex -1.638140e+02 9.107800e+00 -3.820959e+02
    endloop
  endfacet
  facet normal 3.259218e-14 9.999205e-01 1.260938e-02
    outer loop
      vertex -9.653375e+00 9.097725e+00 -3.812970e+02
      vertex -1.638140e+02 9.107800e+00 -3.820959e+02
      vertex -1.025371e+01 9.093930e+00 -3.809960e+02
    endloop
  endfacet
  facet normal 3.262194e-14 9.999205e-01 1.260938e-02
    outer loop
      vertex -9.653375e+00 9.097725e+00 -3.812970e+02
      vertex -9.574862e+00 9.107800e+00 -3.820959e+02
      vertex -1.638140e+02 9.107800e+00 -3.820959e+02
    endloop
  endfacet
  facet normal -9.238795e-01 -4.825402e-03 3.826530e-01
    outer loop
      vertex -1.635943e+02 7.951791e+00 -3.812301e+02
      vertex -1.638140e+02 9.103387e+00 -3.817460e+02
      vertex -1.638140e+02 7.958478e+00 -3.817604e+02
    endloop
  endfacet
  facet normal -9.238795e-01 -4.825402e-03 3.826530e-01
    outer loop
      vertex -1.635943e+02 9.096700e+00 -3.812157e+02
      vertex -1.638140e+02 9.103387e+00 -3.817460e+02
      vertex -1.635943e+02 7.951791e+00 -3.812301e+02
    endloop
  endfacet
  facet normal 4.102863e-14 9.999205e-01 1.260938e-02
    outer loop
      vertex -1.635943e+02 7.914727e+00 -3.782910e+02
      vertex -1.638140e+02 7.958478e+00 -3.817604e+02
      vertex -1.638140e+02 7.908040e+00 -3.777607e+02
    endloop
  endfacet
  facet normal 2.705986e-14 9.999205e-01 1.260938e-02
    outer loop
      vertex -1.635943e+02 7.951791e+00 -3.812301e+02
      vertex -1.638140e+02 7.958478e+00 -3.817604e+02
      vertex -1.635943e+02 7.914727e+00 -3.782910e+02
    endloop
  endfacet
  facet normal -1.000000e+00 -5.244376e-16 2.728694e-12
    outer loop
      vertex -1.638140e+02 9.569795e+00 -3.764897e+02
      vertex -1.638140e+02 9.585557e+00 -3.777396e+02
      vertex -1.638140e+02 7.908040e+00 -3.777607e+02
    endloop
  endfacet
  facet normal -9.238795e-01 4.825402e-03 -3.826530e-01
    outer loop
      vertex -1.635943e+02 9.592244e+00 -3.782699e+02
      vertex -1.638140e+02 7.908040e+00 -3.777607e+02
      vertex -1.638140e+02 9.585557e+00 -3.777396e+02
    endloop
  endfacet
  facet normal -9.238795e-01 4.825402e-03 -3.826530e-01
    outer loop
      vertex -1.635943e+02 9.592244e+00 -3.782699e+02
      vertex -1.635943e+02 7.914727e+00 -3.782910e+02
      vertex -1.638140e+02 7.908040e+00 -3.777607e+02
    endloop
  endfacet
  facet normal 3.261089e-14 9.999205e-01 1.260938e-02
    outer loop
      vertex -8.070011e+00 9.569795e+00 -3.764897e+02
      vertex -1.638140e+02 9.585557e+00 -3.777396e+02
      vertex -1.638140e+02 9.569795e+00 -3.764897e+02
    endloop
  endfacet
  facet normal 3.265942e-14 9.999205e-01 1.260938e-02
    outer loop
      vertex -1.635943e+02 9.592244e+00 -3.782699e+02
      vertex -1.638140e+02 9.585557e+00 -3.777396e+02
      vertex -8.070011e+00 9.569795e+00 -3.764897e+02
    endloop
  endfacet
  facet normal -1.000000e+00 -3.442533e-14 2.729919e-12
    outer loop
      vertex -1.638140e+02 8.288257e+00 -3.084999e+02
      vertex -1.638140e+02 9.654814e+00 -3.764886e+02
      vertex -1.638140e+02 9.569795e+00 -3.764897e+02
    endloop
  endfacet
  facet normal -2.729855e-12 1.260938e-02 -9.999205e-01
    outer loop
      vertex -8.070011e+00 9.654814e+00 -3.764886e+02
      vertex -1.638140e+02 9.569795e+00 -3.764897e+02
      vertex -1.638140e+02 9.654814e+00 -3.764886e+02
    endloop
  endfacet
  facet normal -1.000000e+00 -3.442533e-14 2.729919e-12
    outer loop
      vertex -1.638140e+02 8.188265e+00 -3.085012e+02
      vertex -1.638140e+02 8.288257e+00 -3.084999e+02
      vertex -1.638140e+02 9.569795e+00 -3.764897e+02
    endloop
  endfacet
  facet normal -2.729855e-12 1.260938e-02 -9.999205e-01
    outer loop
      vertex -8.070011e+00 9.569795e+00 -3.764897e+02
      vertex -1.638140e+02 9.569795e+00 -3.764897e+02
      vertex -8.070011e+00 9.654814e+00 -3.764886e+02
    endloop
  endfacet
  facet normal 5.297066e-14 9.997981e-01 2.009571e-02
    outer loop
      vertex -1.501550e+02 9.057954e+00 -3.467938e+02
      vertex -1.638140e+02 9.654814e+00 -3.764886e+02
      vertex -1.638140e+02 8.288257e+00 -3.084999e+02
    endloop
  endfacet
  facet normal 5.306087e-14 9.997981e-01 2.009571e-02
    outer loop
      vertex -1.501550e+02 9.108195e+00 -3.492933e+02
      vertex -6.041400e+01 9.108195e+00 -3.492933e+02
      vertex -1.638140e+02 9.654814e+00 -3.764886e+02
    endloop
  endfacet
  facet normal 5.306056e-14 9.997981e-01 2.009571e-02
    outer loop
      vertex -8.070011e+00 9.654814e+00 -3.764886e+02
      vertex -1.638140e+02 9.654814e+00 -3.764886e+02
      vertex -6.041400e+01 9.108195e+00 -3.492933e+02
    endloop
  endfacet
  facet normal 5.506175e-14 9.997981e-01 2.009571e-02
    outer loop
      vertex -1.501550e+02 9.057954e+00 -3.467938e+02
      vertex -1.501550e+02 9.108195e+00 -3.492933e+02
      vertex -1.638140e+02 9.654814e+00 -3.764886e+02
    endloop
  endfacet
  facet normal 2.729967e-12 -1.260938e-02 9.999205e-01
    outer loop
      vertex -9.742036e+00 8.188265e+00 -3.085012e+02
      vertex -1.638140e+02 8.288257e+00 -3.084999e+02
      vertex -1.638140e+02 8.188265e+00 -3.085012e+02
    endloop
  endfacet
  facet normal 5.305971e-14 9.997981e-01 2.009571e-02
    outer loop
      vertex -9.742036e+00 8.288257e+00 -3.084999e+02
      vertex -1.501550e+02 9.057954e+00 -3.467938e+02
      vertex -1.638140e+02 8.288257e+00 -3.084999e+02
    endloop
  endfacet
  facet normal 2.728491e-12 -1.260938e-02 9.999205e-01
    outer loop
      vertex -9.742036e+00 8.188265e+00 -3.085012e+02
      vertex -9.742036e+00 8.288257e+00 -3.084999e+02
      vertex -1.638140e+02 8.288257e+00 -3.084999e+02
    endloop
  endfacet
  facet normal 6.248071e-15 9.999205e-01 1.260938e-02
    outer loop
      vertex -1.635943e+02 8.165816e+00 -3.067210e+02
      vertex -1.638140e+02 8.188265e+00 -3.085012e+02
      vertex -1.638140e+02 8.172503e+00 -3.072513e+02
    endloop
  endfacet
  facet normal 3.264259e-14 9.999205e-01 1.260938e-02
    outer loop
      vertex -1.078977e+01 8.163046e+00 -3.065013e+02
      vertex -1.638140e+02 8.188265e+00 -3.085012e+02
      vertex -1.630640e+02 8.163046e+00 -3.065013e+02
    endloop
  endfacet
  facet normal 3.135700e-14 9.999205e-01 1.260938e-02
    outer loop
      vertex -1.635943e+02 8.165816e+00 -3.067210e+02
      vertex -1.630640e+02 8.163046e+00 -3.065013e+02
      vertex -1.638140e+02 8.188265e+00 -3.085012e+02
    endloop
  endfacet
  facet normal 3.274532e-14 9.999205e-01 1.260938e-02
    outer loop
      vertex -1.032146e+01 8.165116e+00 -3.066655e+02
      vertex -1.638140e+02 8.188265e+00 -3.085012e+02
      vertex -1.078977e+01 8.163046e+00 -3.065013e+02
    endloop
  endfacet
  facet normal 3.265125e-14 9.999205e-01 1.260938e-02
    outer loop
      vertex -9.898844e+00 8.179366e+00 -3.077955e+02
      vertex -1.638140e+02 8.188265e+00 -3.085012e+02
      vertex -1.005818e+01 8.170420e+00 -3.070861e+02
    endloop
  endfacet
  facet normal 3.255143e-14 9.999205e-01 1.260938e-02
    outer loop
      vertex -1.032146e+01 8.165116e+00 -3.066655e+02
      vertex -1.005818e+01 8.170420e+00 -3.070861e+02
      vertex -1.638140e+02 8.188265e+00 -3.085012e+02
    endloop
  endfacet
  facet normal 3.262720e-14 9.999205e-01 1.260938e-02
    outer loop
      vertex -9.742036e+00 8.188265e+00 -3.085012e+02
      vertex -1.638140e+02 8.188265e+00 -3.085012e+02
      vertex -9.898844e+00 8.179366e+00 -3.077955e+02
    endloop
  endfacet
  facet normal -9.238795e-01 -4.825402e-03 3.826530e-01
    outer loop
      vertex -1.635943e+02 8.165816e+00 -3.067210e+02
      vertex -1.638140e+02 8.172503e+00 -3.072513e+02
      vertex -1.635943e+02 7.456350e+00 -3.067299e+02
    endloop
  endfacet
  facet normal 7.071068e-01 -8.916180e-03 7.070506e-01
    outer loop
      vertex -1.265140e+02 7.420796e+00 -3.039105e+02
      vertex -1.265640e+02 7.420165e+00 -3.038605e+02
      vertex -1.265640e+02 5.950282e+00 -3.038790e+02
    endloop
  endfacet
  facet normal 7.071068e-01 -8.916180e-03 7.070506e-01
    outer loop
      vertex -1.265140e+02 5.950913e+00 -3.039290e+02
      vertex -1.265140e+02 7.420796e+00 -3.039105e+02
      vertex -1.265640e+02 5.950282e+00 -3.038790e+02
    endloop
  endfacet
  facet normal 2.833990e-14 -9.999205e-01 -1.260938e-02
    outer loop
      vertex -1.265140e+02 5.962891e+00 -3.048790e+02
      vertex -1.265140e+02 5.950913e+00 -3.039290e+02
      vertex -1.265640e+02 5.950282e+00 -3.038790e+02
    endloop
  endfacet
  facet normal -1.147086e-13 -9.999205e-01 -1.260938e-02
    outer loop
      vertex -1.265140e+02 5.964152e+00 -3.049789e+02
      vertex -1.265140e+02 5.962891e+00 -3.048790e+02
      vertex -1.265640e+02 5.950282e+00 -3.038790e+02
    endloop
  endfacet
  facet normal -3.262198e-14 -9.999205e-01 -1.260938e-02
    outer loop
      vertex -1.501550e+02 6.491861e+00 -3.468261e+02
      vertex -1.265140e+02 5.964152e+00 -3.049789e+02
      vertex -1.265640e+02 5.950282e+00 -3.038790e+02
    endloop
  endfacet
  facet normal 3.308913e-14 9.999205e-01 1.260938e-02
    outer loop
      vertex -1.265140e+02 7.420796e+00 -3.039105e+02
      vertex -1.630640e+02 7.453580e+00 -3.065103e+02
      vertex -1.265640e+02 7.420165e+00 -3.038605e+02
    endloop
  endfacet
  facet normal 3.263093e-14 9.999205e-01 1.260938e-02
    outer loop
      vertex -1.264140e+02 7.434035e+00 -3.049604e+02
      vertex -1.078977e+01 7.453580e+00 -3.065103e+02
      vertex -1.630640e+02 7.453580e+00 -3.065103e+02
    endloop
  endfacet
  facet normal 2.730095e-12 -1.260938e-02 9.999205e-01
    outer loop
      vertex -1.630640e+02 8.163046e+00 -3.065013e+02
      vertex -1.630640e+02 7.453580e+00 -3.065103e+02
      vertex -1.078977e+01 7.453580e+00 -3.065103e+02
    endloop
  endfacet
  facet normal 4.300563e-14 9.999205e-01 1.260938e-02
    outer loop
      vertex -1.265140e+02 7.434035e+00 -3.049604e+02
      vertex -1.264140e+02 7.434035e+00 -3.049604e+02
      vertex -1.630640e+02 7.453580e+00 -3.065103e+02
    endloop
  endfacet
  facet normal 3.168932e-14 9.999205e-01 1.260938e-02
    outer loop
      vertex -1.265140e+02 7.432775e+00 -3.048604e+02
      vertex -1.265140e+02 7.434035e+00 -3.049604e+02
      vertex -1.630640e+02 7.453580e+00 -3.065103e+02
    endloop
  endfacet
  facet normal 3.267770e-14 9.999205e-01 1.260938e-02
    outer loop
      vertex -1.265140e+02 7.420796e+00 -3.039105e+02
      vertex -1.265140e+02 7.432775e+00 -3.048604e+02
      vertex -1.630640e+02 7.453580e+00 -3.065103e+02
    endloop
  endfacet
  facet normal -3.826834e-01 -1.164955e-02 9.238061e-01
    outer loop
      vertex -1.635943e+02 8.165816e+00 -3.067210e+02
      vertex -1.635943e+02 7.456350e+00 -3.067299e+02
      vertex -1.630640e+02 7.453580e+00 -3.065103e+02
    endloop
  endfacet
  facet normal -3.826834e-01 -1.164955e-02 9.238061e-01
    outer loop
      vertex -1.635943e+02 8.165816e+00 -3.067210e+02
      vertex -1.630640e+02 7.453580e+00 -3.065103e+02
      vertex -1.630640e+02 8.163046e+00 -3.065013e+02
    endloop
  endfacet
  facet normal 2.737993e-14 9.999205e-01 1.260938e-02
    outer loop
      vertex -1.049094e+01 7.434035e+00 -3.049604e+02
      vertex -1.041712e+01 7.454830e+00 -3.066094e+02
      vertex -1.078977e+01 7.453580e+00 -3.065103e+02
    endloop
  endfacet
  facet normal 2.570681e-01 -1.218562e-02 9.663164e-01
    outer loop
      vertex -1.078977e+01 8.163046e+00 -3.065013e+02
      vertex -1.078977e+01 7.453580e+00 -3.065103e+02
      vertex -1.041712e+01 7.454830e+00 -3.066094e+02
    endloop
  endfacet
  facet normal 3.262225e-14 9.999205e-01 1.260938e-02
    outer loop
      vertex -1.264140e+02 7.434035e+00 -3.049604e+02
      vertex -1.049094e+01 7.434035e+00 -3.049604e+02
      vertex -1.078977e+01 7.453580e+00 -3.065103e+02
    endloop
  endfacet
  facet normal 2.730095e-12 -1.260938e-02 9.999205e-01
    outer loop
      vertex -1.078977e+01 8.163046e+00 -3.065013e+02
      vertex -1.630640e+02 8.163046e+00 -3.065013e+02
      vertex -1.078977e+01 7.453580e+00 -3.065103e+02
    endloop
  endfacet
  facet normal 3.453444e-14 9.999205e-01 1.260938e-02
    outer loop
      vertex -1.049094e+01 7.434035e+00 -3.049604e+02
      vertex -1.011129e+01 7.457993e+00 -3.068603e+02
      vertex -1.041712e+01 7.454830e+00 -3.066094e+02
    endloop
  endfacet
  facet normal 6.341463e-01 -2.437000e-02 7.728290e-01
    outer loop
      vertex -1.032146e+01 8.165116e+00 -3.066655e+02
      vertex -1.041712e+01 7.454830e+00 -3.066094e+02
      vertex -1.011129e+01 7.457993e+00 -3.068603e+02
    endloop
  endfacet
  facet normal 3.305452e-01 2.998589e-02 9.433137e-01
    outer loop
      vertex -1.032146e+01 8.165116e+00 -3.066655e+02
      vertex -1.078977e+01 8.163046e+00 -3.065013e+02
      vertex -1.041712e+01 7.454830e+00 -3.066094e+02
    endloop
  endfacet
  facet normal 9.806147e-01 -2.470760e-03 1.959306e-01
    outer loop
      vertex -1.011129e+01 5.988110e+00 -3.068788e+02
      vertex -1.011129e+01 7.457993e+00 -3.068603e+02
      vertex -1.049094e+01 7.434035e+00 -3.049604e+02
    endloop
  endfacet
  facet normal 9.813576e-01 -2.423403e-03 1.921752e-01
    outer loop
      vertex -6.960258e+00 6.190991e+00 -3.229672e+02
      vertex -1.011129e+01 7.457993e+00 -3.068603e+02
      vertex -1.011129e+01 5.988110e+00 -3.068788e+02
    endloop
  endfacet
  facet normal 8.945416e-01 4.239457e-01 1.416523e-01
    outer loop
      vertex -1.009239e+01 7.459557e+00 -3.069843e+02
      vertex -1.011129e+01 7.457993e+00 -3.068603e+02
      vertex -6.960258e+00 6.190991e+00 -3.229672e+02
    endloop
  endfacet
  facet normal 9.583058e-01 2.437630e-01 1.490962e-01
    outer loop
      vertex -1.032146e+01 8.165116e+00 -3.066655e+02
      vertex -1.011129e+01 7.457993e+00 -3.068603e+02
      vertex -1.009239e+01 7.459557e+00 -3.069843e+02
    endloop
  endfacet
  facet normal 2.729120e-12 -1.260938e-02 9.999205e-01
    outer loop
      vertex -1.049094e+01 5.964152e+00 -3.049789e+02
      vertex -1.049094e+01 7.434035e+00 -3.049604e+02
      vertex -1.264140e+02 7.434035e+00 -3.049604e+02
    endloop
  endfacet
  facet normal 9.806147e-01 -2.470760e-03 1.959306e-01
    outer loop
      vertex -1.011129e+01 5.988110e+00 -3.068788e+02
      vertex -1.049094e+01 7.434035e+00 -3.049604e+02
      vertex -1.049094e+01 5.964152e+00 -3.049789e+02
    endloop
  endfacet
  facet normal 3.410325e-12 -1.260938e-02 9.999205e-01
    outer loop
      vertex -1.264140e+02 5.964152e+00 -3.049789e+02
      vertex -1.264140e+02 7.434035e+00 -3.049604e+02
      vertex -1.265140e+02 7.434035e+00 -3.049604e+02
    endloop
  endfacet
  facet normal 2.728139e-12 -1.260938e-02 9.999205e-01
    outer loop
      vertex -1.049094e+01 5.964152e+00 -3.049789e+02
      vertex -1.264140e+02 7.434035e+00 -3.049604e+02
      vertex -1.264140e+02 5.964152e+00 -3.049789e+02
    endloop
  endfacet
  facet normal 1.000000e+00 6.838583e-15 -2.842311e-12
    outer loop
      vertex -1.265140e+02 5.964152e+00 -3.049789e+02
      vertex -1.265140e+02 7.434035e+00 -3.049604e+02
      vertex -1.265140e+02 7.432775e+00 -3.048604e+02
    endloop
  endfacet
  facet normal 2.273556e-12 -1.260938e-02 9.999205e-01
    outer loop
      vertex -1.264140e+02 5.964152e+00 -3.049789e+02
      vertex -1.265140e+02 7.434035e+00 -3.049604e+02
      vertex -1.265140e+02 5.964152e+00 -3.049789e+02
    endloop
  endfacet
  facet normal 1.000000e+00 5.329614e-15 -2.722650e-12
    outer loop
      vertex -1.265140e+02 5.950913e+00 -3.039290e+02
      vertex -1.265140e+02 7.432775e+00 -3.048604e+02
      vertex -1.265140e+02 7.420796e+00 -3.039105e+02
    endloop
  endfacet
  facet normal 1.000000e+00 -4.148245e-15 -2.737729e-12
    outer loop
      vertex -1.265140e+02 5.962891e+00 -3.048790e+02
      vertex -1.265140e+02 7.432775e+00 -3.048604e+02
      vertex -1.265140e+02 5.950913e+00 -3.039290e+02
    endloop
  endfacet
  facet normal 1.000000e+00 -4.619798e-15 -2.700335e-12
    outer loop
      vertex -1.265140e+02 5.964152e+00 -3.049789e+02
      vertex -1.265140e+02 7.432775e+00 -3.048604e+02
      vertex -1.265140e+02 5.962891e+00 -3.048790e+02
    endloop
  endfacet
  facet normal 2.729830e-12 -1.260938e-02 9.999205e-01
    outer loop
      vertex -6.041400e+01 6.523385e+00 -3.493259e+02
      vertex -6.041400e+01 9.108195e+00 -3.492933e+02
      vertex -1.501550e+02 9.108195e+00 -3.492933e+02
    endloop
  endfacet
  facet normal 6.152513e-14 9.997981e-01 2.009571e-02
    outer loop
      vertex -9.742036e+00 8.288257e+00 -3.084999e+02
      vertex -6.041400e+01 9.108195e+00 -3.492933e+02
      vertex -5.916443e+01 9.083075e+00 -3.480435e+02
    endloop
  endfacet
  facet normal -7.072286e-01 -8.914655e-03 7.069287e-01
    outer loop
      vertex -5.916443e+01 6.507623e+00 -3.480760e+02
      vertex -5.916443e+01 9.083075e+00 -3.480435e+02
      vertex -6.041400e+01 9.108195e+00 -3.492933e+02
    endloop
  endfacet
  facet normal 5.303537e-14 9.997981e-01 2.009571e-02
    outer loop
      vertex -8.070011e+00 9.654814e+00 -3.764886e+02
      vertex -6.041400e+01 9.108195e+00 -3.492933e+02
      vertex -9.742036e+00 8.288257e+00 -3.084999e+02
    endloop
  endfacet
  facet normal -7.072286e-01 -8.914644e-03 7.069288e-01
    outer loop
      vertex -5.916443e+01 6.507623e+00 -3.480760e+02
      vertex -6.041400e+01 9.108195e+00 -3.492933e+02
      vertex -6.041400e+01 6.523385e+00 -3.493259e+02
    endloop
  endfacet
  facet normal 1.000000e+00 -9.744396e-15 -2.740525e-12
    outer loop
      vertex -1.501550e+02 6.491861e+00 -3.468261e+02
      vertex -1.501550e+02 9.108195e+00 -3.492933e+02
      vertex -1.501550e+02 9.057954e+00 -3.467938e+02
    endloop
  endfacet
  facet normal 2.729830e-12 -1.260938e-02 9.999205e-01
    outer loop
      vertex -1.501550e+02 6.523385e+00 -3.493259e+02
      vertex -6.041400e+01 6.523385e+00 -3.493259e+02
      vertex -1.501550e+02 9.108195e+00 -3.492933e+02
    endloop
  endfacet
  facet normal 1.000000e+00 1.422748e-15 -2.728683e-12
    outer loop
      vertex -1.501550e+02 6.523385e+00 -3.493259e+02
      vertex -1.501550e+02 9.108195e+00 -3.492933e+02
      vertex -1.501550e+02 6.491861e+00 -3.468261e+02
    endloop
  endfacet
  facet normal 5.305987e-14 9.997981e-01 2.009571e-02
    outer loop
      vertex -9.742036e+00 8.288257e+00 -3.084999e+02
      vertex -6.041400e+01 9.057954e+00 -3.467938e+02
      vertex -1.501550e+02 9.057954e+00 -3.467938e+02
    endloop
  endfacet
  facet normal -2.729830e-12 1.260938e-02 -9.999205e-01
    outer loop
      vertex -1.501550e+02 6.491861e+00 -3.468261e+02
      vertex -1.501550e+02 9.057954e+00 -3.467938e+02
      vertex -6.041400e+01 9.057954e+00 -3.467938e+02
    endloop
  endfacet
  facet normal 5.303406e-14 9.997981e-01 2.009571e-02
    outer loop
      vertex -9.742036e+00 8.288257e+00 -3.084999e+02
      vertex -5.916443e+01 9.083075e+00 -3.480435e+02
      vertex -6.041400e+01 9.057954e+00 -3.467938e+02
    endloop
  endfacet
  facet normal -7.072286e-01 8.914643e-03 -7.069287e-01
    outer loop
      vertex -6.041400e+01 6.491861e+00 -3.468261e+02
      vertex -6.041400e+01 9.057954e+00 -3.467938e+02
      vertex -5.916443e+01 9.083075e+00 -3.480435e+02
    endloop
  endfacet
  facet normal -2.731097e-12 1.260938e-02 -9.999205e-01
    outer loop
      vertex -1.501550e+02 6.491861e+00 -3.468261e+02
      vertex -6.041400e+01 9.057954e+00 -3.467938e+02
      vertex -6.041400e+01 6.491861e+00 -3.468261e+02
    endloop
  endfacet
  facet normal -7.072286e-01 8.914585e-03 -7.069288e-01
    outer loop
      vertex -6.041400e+01 6.491861e+00 -3.468261e+02
      vertex -5.916443e+01 9.083075e+00 -3.480435e+02
      vertex -5.916443e+01 6.507623e+00 -3.480760e+02
    endloop
  endfacet
  facet normal 5.261717e-14 9.997981e-01 2.009571e-02
    outer loop
      vertex -6.902406e+00 8.585607e+00 -3.232936e+02
      vertex -8.070011e+00 9.654814e+00 -3.764886e+02
      vertex -9.742036e+00 8.288257e+00 -3.084999e+02
    endloop
  endfacet
  facet normal 9.820626e-01 1.975633e-03 1.885451e-01
    outer loop
      vertex -6.960258e+00 6.190991e+00 -3.229672e+02
      vertex -6.902406e+00 8.585607e+00 -3.232936e+02
      vertex -9.742036e+00 8.288257e+00 -3.084999e+02
    endloop
  endfacet
  facet normal 9.819444e-01 -2.385312e-03 1.891545e-01
    outer loop
      vertex -9.742036e+00 8.188265e+00 -3.085012e+02
      vertex -6.960258e+00 6.190991e+00 -3.229672e+02
      vertex -9.742036e+00 8.288257e+00 -3.084999e+02
    endloop
  endfacet
  facet normal 5.265867e-14 9.997981e-01 2.009571e-02
    outer loop
      vertex -6.902406e+00 8.585607e+00 -3.232936e+02
      vertex -6.353959e+00 9.483758e+00 -3.679783e+02
      vertex -8.070011e+00 9.654814e+00 -3.764886e+02
    endloop
  endfacet
  facet normal 9.802764e-01 2.492011e-03 -1.976158e-01
    outer loop
      vertex -8.070011e+00 9.569795e+00 -3.764897e+02
      vertex -8.070011e+00 9.654814e+00 -3.764886e+02
      vertex -6.353959e+00 9.483758e+00 -3.679783e+02
    endloop
  endfacet
  facet normal 5.331163e-14 9.997981e-01 2.009571e-02
    outer loop
      vertex -5.263999e+00 8.858846e+00 -3.368877e+02
      vertex -5.263999e+00 9.304848e+00 -3.590772e+02
      vertex -6.353959e+00 9.483758e+00 -3.679783e+02
    endloop
  endfacet
  facet normal 9.891423e-01 -8.081140e-02 -1.227475e-01
    outer loop
      vertex -7.069208e+00 6.809075e+00 -3.719811e+02
      vertex -6.353959e+00 9.483758e+00 -3.679783e+02
      vertex -5.263999e+00 9.304848e+00 -3.590772e+02
    endloop
  endfacet
  facet normal 5.269443e-14 9.997981e-01 2.009571e-02
    outer loop
      vertex -6.902406e+00 8.585607e+00 -3.232936e+02
      vertex -5.263999e+00 8.858846e+00 -3.368877e+02
      vertex -6.353959e+00 9.483758e+00 -3.679783e+02
    endloop
  endfacet
  facet normal 9.798014e-01 3.312491e-02 -1.972104e-01
    outer loop
      vertex -8.070011e+00 9.569795e+00 -3.764897e+02
      vertex -6.353959e+00 9.483758e+00 -3.679783e+02
      vertex -7.069208e+00 6.809075e+00 -3.719811e+02
    endloop
  endfacet
  facet normal 7.071068e-01 7.069640e-01 1.420981e-02
    outer loop
      vertex -4.814644e+00 8.642933e+00 -3.485064e+02
      vertex -5.263999e+00 9.304848e+00 -3.590772e+02
      vertex -5.263999e+00 8.858846e+00 -3.368877e+02
    endloop
  endfacet
  facet normal 9.903078e-01 1.751651e-03 -1.388793e-01
    outer loop
      vertex -7.069208e+00 6.809075e+00 -3.719811e+02
      vertex -5.263999e+00 9.304848e+00 -3.590772e+02
      vertex -5.264000e+00 6.646775e+00 -3.591107e+02
    endloop
  endfacet
  facet normal 9.990990e-01 5.349034e-04 -4.243736e-02
    outer loop
      vertex -4.814644e+00 8.642933e+00 -3.485064e+02
      vertex -5.264000e+00 6.646775e+00 -3.591107e+02
      vertex -5.263999e+00 9.304848e+00 -3.590772e+02
    endloop
  endfacet
  facet normal 9.928177e-01 -1.508265e-03 1.196274e-01
    outer loop
      vertex -5.264000e+00 6.366931e+00 -3.369192e+02
      vertex -5.263999e+00 8.858846e+00 -3.368877e+02
      vertex -6.902406e+00 8.585607e+00 -3.232936e+02
    endloop
  endfacet
  facet normal 9.992447e-01 -4.902604e-04 3.885612e-02
    outer loop
      vertex -4.814301e+00 6.962406e+00 -3.484763e+02
      vertex -5.263999e+00 8.858846e+00 -3.368877e+02
      vertex -5.264000e+00 6.366931e+00 -3.369192e+02
    endloop
  endfacet
  facet normal 9.992532e-01 8.956342e-04 3.862965e-02
    outer loop
      vertex -4.814301e+00 6.962406e+00 -3.484763e+02
      vertex -4.814644e+00 8.642933e+00 -3.485064e+02
      vertex -5.263999e+00 8.858846e+00 -3.368877e+02
    endloop
  endfacet
  facet normal 9.926734e-01 -7.543654e-03 1.205928e-01
    outer loop
      vertex -5.264000e+00 6.366931e+00 -3.369192e+02
      vertex -6.902406e+00 8.585607e+00 -3.232936e+02
      vertex -6.960258e+00 6.190991e+00 -3.229672e+02
    endloop
  endfacet
  facet normal -2.729882e-12 1.260938e-02 -9.999205e-01
    outer loop
      vertex -1.630640e+02 7.917497e+00 -3.785107e+02
      vertex -1.630640e+02 9.595014e+00 -3.784895e+02
      vertex -9.153794e+00 9.595014e+00 -3.784895e+02
    endloop
  endfacet
  facet normal 3.262423e-14 9.999205e-01 1.260938e-02
    outer loop
      vertex -8.070011e+00 9.569795e+00 -3.764897e+02
      vertex -9.153794e+00 9.595014e+00 -3.784895e+02
      vertex -1.630640e+02 9.595014e+00 -3.784895e+02
    endloop
  endfacet
  facet normal -2.730620e-12 1.260938e-02 -9.999205e-01
    outer loop
      vertex -9.153794e+00 7.917497e+00 -3.785107e+02
      vertex -1.630640e+02 7.917497e+00 -3.785107e+02
      vertex -9.153794e+00 9.595014e+00 -3.784895e+02
    endloop
  endfacet
  facet normal 3.241685e-01 1.192847e-02 -9.459241e-01
    outer loop
      vertex -8.693799e+00 9.593027e+00 -3.783319e+02
      vertex -9.153794e+00 7.917497e+00 -3.785107e+02
      vertex -9.153794e+00 9.595014e+00 -3.784895e+02
    endloop
  endfacet
  facet normal 3.010534e-14 9.999205e-01 1.260938e-02
    outer loop
      vertex -8.693799e+00 9.593027e+00 -3.783319e+02
      vertex -9.153794e+00 9.595014e+00 -3.784895e+02
      vertex -8.070011e+00 9.569795e+00 -3.764897e+02
    endloop
  endfacet
  facet normal -3.826834e-01 1.164955e-02 -9.238061e-01
    outer loop
      vertex -1.635943e+02 7.914727e+00 -3.782910e+02
      vertex -1.630640e+02 9.595014e+00 -3.784895e+02
      vertex -1.630640e+02 7.917497e+00 -3.785107e+02
    endloop
  endfacet
  facet normal -3.826834e-01 1.164955e-02 -9.238061e-01
    outer loop
      vertex -1.635943e+02 9.592244e+00 -3.782699e+02
      vertex -1.630640e+02 9.595014e+00 -3.784895e+02
      vertex -1.635943e+02 7.914727e+00 -3.782910e+02
    endloop
  endfacet
  facet normal 3.263992e-14 9.999205e-01 1.260938e-02
    outer loop
      vertex -1.635943e+02 9.592244e+00 -3.782699e+02
      vertex -8.070011e+00 9.569795e+00 -3.764897e+02
      vertex -1.630640e+02 9.595014e+00 -3.784895e+02
    endloop
  endfacet
  facet normal 3.263356e-14 9.999205e-01 1.260938e-02
    outer loop
      vertex -1.630640e+02 7.949021e+00 -3.810105e+02
      vertex -1.630640e+02 7.917497e+00 -3.785107e+02
      vertex -9.153794e+00 7.917497e+00 -3.785107e+02
    endloop
  endfacet
  facet normal 2.703765e-14 9.999205e-01 1.260938e-02
    outer loop
      vertex -1.635943e+02 7.951791e+00 -3.812301e+02
      vertex -1.635943e+02 7.914727e+00 -3.782910e+02
      vertex -1.630640e+02 7.917497e+00 -3.785107e+02
    endloop
  endfacet
  facet normal 3.149933e-14 9.999205e-01 1.260938e-02
    outer loop
      vertex -1.630640e+02 7.949021e+00 -3.810105e+02
      vertex -1.635943e+02 7.951791e+00 -3.812301e+02
      vertex -1.630640e+02 7.917497e+00 -3.785107e+02
    endloop
  endfacet
  facet normal 3.673045e-14 9.999205e-01 1.260938e-02
    outer loop
      vertex -8.962205e+00 7.935810e+00 -3.799629e+02
      vertex -9.534274e+00 7.961150e+00 -3.819723e+02
      vertex -9.153794e+00 7.917497e+00 -3.785107e+02
    endloop
  endfacet
  facet normal 2.725755e-14 9.999205e-01 1.260938e-02
    outer loop
      vertex -9.653375e+00 7.952816e+00 -3.813114e+02
      vertex -9.153794e+00 7.917497e+00 -3.785107e+02
      vertex -9.534274e+00 7.961150e+00 -3.819723e+02
    endloop
  endfacet
  facet normal 3.131373e-14 9.999205e-01 1.260938e-02
    outer loop
      vertex -8.693799e+00 7.915510e+00 -3.783531e+02
      vertex -8.962205e+00 7.935810e+00 -3.799629e+02
      vertex -9.153794e+00 7.917497e+00 -3.785107e+02
    endloop
  endfacet
  facet normal 3.241685e-01 1.192847e-02 -9.459241e-01
    outer loop
      vertex -8.693799e+00 9.593027e+00 -3.783319e+02
      vertex -8.693799e+00 7.915510e+00 -3.783531e+02
      vertex -9.153794e+00 7.917497e+00 -3.785107e+02
    endloop
  endfacet
  facet normal 3.262678e-14 9.999205e-01 1.260938e-02
    outer loop
      vertex -1.025371e+01 7.949021e+00 -3.810105e+02
      vertex -1.630640e+02 7.949021e+00 -3.810105e+02
      vertex -9.153794e+00 7.917497e+00 -3.785107e+02
    endloop
  endfacet
  facet normal 3.327188e-14 9.999205e-01 1.260938e-02
    outer loop
      vertex -9.653375e+00 7.952816e+00 -3.813114e+02
      vertex -1.025371e+01 7.949021e+00 -3.810105e+02
      vertex -9.153794e+00 7.917497e+00 -3.785107e+02
    endloop
  endfacet
  facet normal 9.617881e-01 2.251368e-03 -2.737856e-01
    outer loop
      vertex -9.574862e+00 6.936973e+00 -3.821233e+02
      vertex -9.534274e+00 7.961150e+00 -3.819723e+02
      vertex -8.962205e+00 7.935810e+00 -3.799629e+02
    endloop
  endfacet
  facet normal 9.841484e-01 -2.236235e-03 1.773328e-01
    outer loop
      vertex -9.653375e+00 9.097725e+00 -3.812970e+02
      vertex -9.653375e+00 7.952816e+00 -3.813114e+02
      vertex -9.534274e+00 7.961150e+00 -3.819723e+02
    endloop
  endfacet
  facet normal 9.841484e-01 -2.236235e-03 1.773328e-01
    outer loop
      vertex -9.653375e+00 9.097725e+00 -3.812970e+02
      vertex -9.534274e+00 7.961150e+00 -3.819723e+02
      vertex -9.534274e+00 9.106059e+00 -3.819579e+02
    endloop
  endfacet
  facet normal 9.594092e-01 3.556069e-03 -2.819953e-01
    outer loop
      vertex -9.574862e+00 6.936973e+00 -3.821233e+02
      vertex -9.534274e+00 9.106059e+00 -3.819579e+02
      vertex -9.534274e+00 7.961150e+00 -3.819723e+02
    endloop
  endfacet
  facet normal 3.316751e-14 9.999205e-01 1.260938e-02
    outer loop
      vertex -8.693799e+00 7.915510e+00 -3.783531e+02
      vertex -8.427159e+00 7.910382e+00 -3.779465e+02
      vertex -8.962205e+00 7.935810e+00 -3.799629e+02
    endloop
  endfacet
  facet normal 9.657717e-01 -3.708442e-02 -2.567290e-01
    outer loop
      vertex -9.574862e+00 6.936973e+00 -3.821233e+02
      vertex -8.962205e+00 7.935810e+00 -3.799629e+02
      vertex -8.427159e+00 7.910382e+00 -3.779465e+02
    endloop
  endfacet
  facet normal 8.362442e-01 6.914445e-03 -5.483135e-01
    outer loop
      vertex -8.427159e+00 9.587899e+00 -3.779253e+02
      vertex -8.427159e+00 7.910382e+00 -3.779465e+02
      vertex -8.693799e+00 7.915510e+00 -3.783531e+02
    endloop
  endfacet
  facet normal 9.647203e-01 -1.088781e-01 -2.397087e-01
    outer loop
      vertex -7.069208e+00 6.809075e+00 -3.719811e+02
      vertex -9.574862e+00 6.936973e+00 -3.821233e+02
      vertex -8.427159e+00 7.910382e+00 -3.779465e+02
    endloop
  endfacet
  facet normal 9.744565e-01 -1.289935e-02 -2.242057e-01
    outer loop
      vertex -8.070011e+00 9.569795e+00 -3.764897e+02
      vertex -7.069208e+00 6.809075e+00 -3.719811e+02
      vertex -8.427159e+00 7.910382e+00 -3.779465e+02
    endloop
  endfacet
  facet normal 9.711938e-01 1.682442e-04 -2.382911e-01
    outer loop
      vertex -8.247505e+00 9.578918e+00 -3.772131e+02
      vertex -8.070011e+00 9.569795e+00 -3.764897e+02
      vertex -8.427159e+00 7.910382e+00 -3.779465e+02
    endloop
  endfacet
  facet normal 9.696338e-01 3.083770e-03 -2.445421e-01
    outer loop
      vertex -8.427159e+00 9.587899e+00 -3.779253e+02
      vertex -8.247505e+00 9.578918e+00 -3.772131e+02
      vertex -8.427159e+00 7.910382e+00 -3.779465e+02
    endloop
  endfacet
  facet normal 8.362442e-01 6.914445e-03 -5.483135e-01
    outer loop
      vertex -8.693799e+00 9.593027e+00 -3.783319e+02
      vertex -8.427159e+00 9.587899e+00 -3.779253e+02
      vertex -8.693799e+00 7.915510e+00 -3.783531e+02
    endloop
  endfacet
  facet normal -3.826834e-01 -1.164955e-02 9.238061e-01
    outer loop
      vertex -1.635943e+02 9.096700e+00 -3.812157e+02
      vertex -1.635943e+02 7.951791e+00 -3.812301e+02
      vertex -1.630640e+02 7.949021e+00 -3.810105e+02
    endloop
  endfacet
  facet normal 2.730189e-12 -1.260938e-02 9.999205e-01
    outer loop
      vertex -1.630640e+02 9.093930e+00 -3.809960e+02
      vertex -1.630640e+02 7.949021e+00 -3.810105e+02
      vertex -1.025371e+01 7.949021e+00 -3.810105e+02
    endloop
  endfacet
  facet normal -3.826834e-01 -1.164955e-02 9.238061e-01
    outer loop
      vertex -1.635943e+02 9.096700e+00 -3.812157e+02
      vertex -1.630640e+02 7.949021e+00 -3.810105e+02
      vertex -1.630640e+02 9.093930e+00 -3.809960e+02
    endloop
  endfacet
  facet normal 4.482048e-01 -1.127192e-02 8.938599e-01
    outer loop
      vertex -1.025371e+01 9.093930e+00 -3.809960e+02
      vertex -1.025371e+01 7.949021e+00 -3.810105e+02
      vertex -9.653375e+00 7.952816e+00 -3.813114e+02
    endloop
  endfacet
  facet normal 2.730189e-12 -1.260938e-02 9.999205e-01
    outer loop
      vertex -1.025371e+01 9.093930e+00 -3.809960e+02
      vertex -1.630640e+02 9.093930e+00 -3.809960e+02
      vertex -1.025371e+01 7.949021e+00 -3.810105e+02
    endloop
  endfacet
  facet normal 4.482048e-01 -1.127192e-02 8.938599e-01
    outer loop
      vertex -9.653375e+00 9.097725e+00 -3.812970e+02
      vertex -1.025371e+01 9.093930e+00 -3.809960e+02
      vertex -9.653375e+00 7.952816e+00 -3.813114e+02
    endloop
  endfacet
  facet normal 4.231640e-14 9.999205e-01 1.260938e-02
    outer loop
      vertex -8.693799e+00 9.593027e+00 -3.783319e+02
      vertex -8.070011e+00 9.569795e+00 -3.764897e+02
      vertex -8.427159e+00 9.587899e+00 -3.779253e+02
    endloop
  endfacet
  facet normal 4.335868e-13 9.999205e-01 1.260938e-02
    outer loop
      vertex -8.427159e+00 9.587899e+00 -3.779253e+02
      vertex -8.070011e+00 9.569795e+00 -3.764897e+02
      vertex -8.247505e+00 9.578918e+00 -3.772131e+02
    endloop
  endfacet
  facet normal 3.217253e-14 9.999205e-01 1.260938e-02
    outer loop
      vertex -9.653375e+00 9.097725e+00 -3.812970e+02
      vertex -9.534274e+00 9.106059e+00 -3.819579e+02
      vertex -9.574862e+00 9.107800e+00 -3.820959e+02
    endloop
  endfacet
  facet normal 9.594092e-01 3.556069e-03 -2.819953e-01
    outer loop
      vertex -9.574862e+00 6.936973e+00 -3.821233e+02
      vertex -9.574862e+00 9.107800e+00 -3.820959e+02
      vertex -9.534274e+00 9.106059e+00 -3.819579e+02
    endloop
  endfacet
  facet normal -2.552486e-14 -9.999205e-01 -1.260938e-02
    outer loop
      vertex -1.011129e+01 5.988110e+00 -3.068788e+02
      vertex -1.049094e+01 5.964152e+00 -3.049789e+02
      vertex -9.574862e+00 6.936973e+00 -3.821233e+02
    endloop
  endfacet
  facet normal -3.264195e-14 -9.999205e-01 -1.260938e-02
    outer loop
      vertex -5.916443e+01 6.507623e+00 -3.480760e+02
      vertex -9.574862e+00 6.936973e+00 -3.821233e+02
      vertex -1.049094e+01 5.964152e+00 -3.049789e+02
    endloop
  endfacet
  facet normal -3.278143e-14 -9.999205e-01 -1.260938e-02
    outer loop
      vertex -7.069208e+00 6.809075e+00 -3.719811e+02
      vertex -1.011129e+01 5.988110e+00 -3.068788e+02
      vertex -9.574862e+00 6.936973e+00 -3.821233e+02
    endloop
  endfacet
  facet normal -3.256809e-14 -9.999205e-01 -1.260938e-02
    outer loop
      vertex -5.916443e+01 6.507623e+00 -3.480760e+02
      vertex -6.041400e+01 6.523385e+00 -3.493259e+02
      vertex -9.574862e+00 6.936973e+00 -3.821233e+02
    endloop
  endfacet
  facet normal -3.262279e-14 -9.999205e-01 -1.260938e-02
    outer loop
      vertex -1.501550e+02 6.523385e+00 -3.493259e+02
      vertex -9.574862e+00 6.936973e+00 -3.821233e+02
      vertex -6.041400e+01 6.523385e+00 -3.493259e+02
    endloop
  endfacet
  facet normal -2.886280e-14 -9.999205e-01 -1.260938e-02
    outer loop
      vertex -6.041400e+01 6.491861e+00 -3.468261e+02
      vertex -1.264140e+02 5.964152e+00 -3.049789e+02
      vertex -1.265140e+02 5.964152e+00 -3.049789e+02
    endloop
  endfacet
  facet normal -3.263876e-14 -9.999205e-01 -1.260938e-02
    outer loop
      vertex -1.501550e+02 6.491861e+00 -3.468261e+02
      vertex -6.041400e+01 6.491861e+00 -3.468261e+02
      vertex -1.265140e+02 5.964152e+00 -3.049789e+02
    endloop
  endfacet
  facet normal -3.262548e-14 -9.999205e-01 -1.260938e-02
    outer loop
      vertex -6.041400e+01 6.491861e+00 -3.468261e+02
      vertex -1.049094e+01 5.964152e+00 -3.049789e+02
      vertex -1.264140e+02 5.964152e+00 -3.049789e+02
    endloop
  endfacet
  facet normal -3.185315e-14 -9.999205e-01 -1.260938e-02
    outer loop
      vertex -6.041400e+01 6.491861e+00 -3.468261e+02
      vertex -5.916443e+01 6.507623e+00 -3.480760e+02
      vertex -1.049094e+01 5.964152e+00 -3.049789e+02
    endloop
  endfacet
  facet normal -3.352359e-14 -9.999205e-01 -1.260938e-02
    outer loop
      vertex -7.069208e+00 6.809075e+00 -3.719811e+02
      vertex -6.960258e+00 6.190991e+00 -3.229672e+02
      vertex -1.011129e+01 5.988110e+00 -3.068788e+02
    endloop
  endfacet
  facet normal -3.222823e-14 -9.999205e-01 -1.260938e-02
    outer loop
      vertex -5.264000e+00 6.646775e+00 -3.591107e+02
      vertex -5.264000e+00 6.366931e+00 -3.369192e+02
      vertex -6.960258e+00 6.190991e+00 -3.229672e+02
    endloop
  endfacet
  facet normal -3.218801e-14 -9.999205e-01 -1.260938e-02
    outer loop
      vertex -7.069208e+00 6.809075e+00 -3.719811e+02
      vertex -5.264000e+00 6.646775e+00 -3.591107e+02
      vertex -6.960258e+00 6.190991e+00 -3.229672e+02
    endloop
  endfacet
  facet normal 9.814407e-01 -2.418052e-03 1.917508e-01
    outer loop
      vertex -1.005818e+01 8.170420e+00 -3.070861e+02
      vertex -1.005818e+01 7.460954e+00 -3.070951e+02
      vertex -6.960258e+00 6.190991e+00 -3.229672e+02
    endloop
  endfacet
  facet normal 6.214321e-01 -7.619739e-01 1.822581e-01
    outer loop
      vertex -1.009239e+01 7.459557e+00 -3.069843e+02
      vertex -6.960258e+00 6.190991e+00 -3.229672e+02
      vertex -1.005818e+01 7.460954e+00 -3.070951e+02
    endloop
  endfacet
  facet normal 9.554021e-01 -2.055853e-01 2.119944e-01
    outer loop
      vertex -9.898844e+00 8.179366e+00 -3.077955e+02
      vertex -1.005818e+01 8.170420e+00 -3.070861e+02
      vertex -6.960258e+00 6.190991e+00 -3.229672e+02
    endloop
  endfacet
  facet normal 9.588366e-01 -1.903969e-01 2.106690e-01
    outer loop
      vertex -9.742036e+00 8.188265e+00 -3.085012e+02
      vertex -9.898844e+00 8.179366e+00 -3.077955e+02
      vertex -6.960258e+00 6.190991e+00 -3.229672e+02
    endloop
  endfacet
  facet normal 7.071068e-01 -7.070506e-01 -8.916180e-03
    outer loop
      vertex -4.814301e+00 6.962406e+00 -3.484763e+02
      vertex -5.264000e+00 6.366931e+00 -3.369192e+02
      vertex -5.264000e+00 6.646775e+00 -3.591107e+02
    endloop
  endfacet
  facet normal 9.991076e-01 -5.517875e-04 -4.223316e-02
    outer loop
      vertex -4.814301e+00 6.962406e+00 -3.484763e+02
      vertex -5.264000e+00 6.646775e+00 -3.591107e+02
      vertex -4.814644e+00 8.642933e+00 -3.485064e+02
    endloop
  endfacet
  facet normal 8.476639e-01 -6.689702e-03 5.304915e-01
    outer loop
      vertex -1.032146e+01 8.165116e+00 -3.066655e+02
      vertex -1.005818e+01 7.460954e+00 -3.070951e+02
      vertex -1.005818e+01 8.170420e+00 -3.070861e+02
    endloop
  endfacet
  facet normal 9.404435e-01 1.731573e-01 2.925451e-01
    outer loop
      vertex -1.032146e+01 8.165116e+00 -3.066655e+02
      vertex -1.009239e+01 7.459557e+00 -3.069843e+02
      vertex -1.005818e+01 7.460954e+00 -3.070951e+02
    endloop
  endfacet
endsolid P1040852002
