solid P1040852002
  facet normal -1.000000e+00 1.916142e-15 2.734593e-12
    outer loop
      vertex -1.638140e+02 1.050599e+01 -3.039243e+02
      vertex -1.638140e+02 1.197543e+01 -3.038838e+02
      vertex -1.638140e+02 1.206921e+01 -3.072825e+02
    endloop
  endfacet
  facet normal 6.424405e-14 9.996196e-01 2.758091e-02
    outer loop
      vertex -1.635943e+02 1.205458e+01 -3.067523e+02
      vertex -1.638140e+02 1.206921e+01 -3.072825e+02
      vertex -1.638140e+02 1.197543e+01 -3.038838e+02
    endloop
  endfacet
  facet normal -1.000000e+00 -8.754709e-15 2.729626e-12
    outer loop
      vertex -1.638140e+02 1.521238e+01 -3.764726e+02
      vertex -1.638140e+02 1.050599e+01 -3.039243e+02
      vertex -1.638140e+02 1.206921e+01 -3.072825e+02
    endloop
  endfacet
  facet normal -1.000000e+00 5.880075e-15 2.730290e-12
    outer loop
      vertex -1.638140e+02 1.281293e+01 -3.085124e+02
      vertex -1.638140e+02 1.521238e+01 -3.764726e+02
      vertex -1.638140e+02 1.206921e+01 -3.072825e+02
    endloop
  endfacet
  facet normal -1.000000e+00 4.830476e-15 2.729656e-12
    outer loop
      vertex -1.638140e+02 1.277846e+01 -3.072629e+02
      vertex -1.638140e+02 1.281293e+01 -3.085124e+02
      vertex -1.638140e+02 1.206921e+01 -3.072825e+02
    endloop
  endfacet
  facet normal -9.238795e-01 -1.055476e-02 3.825378e-01
    outer loop
      vertex -1.635943e+02 1.205458e+01 -3.067523e+02
      vertex -1.638140e+02 1.277846e+01 -3.072629e+02
      vertex -1.638140e+02 1.206921e+01 -3.072825e+02
    endloop
  endfacet
  facet normal 2.730547e-12 -2.758091e-02 9.996196e-01
    outer loop
      vertex -1.265640e+02 1.050599e+01 -3.039243e+02
      vertex -1.638140e+02 1.197543e+01 -3.038838e+02
      vertex -1.638140e+02 1.050599e+01 -3.039243e+02
    endloop
  endfacet
  facet normal 2.730547e-12 -2.758091e-02 9.996196e-01
    outer loop
      vertex -1.265640e+02 1.197543e+01 -3.038838e+02
      vertex -1.638140e+02 1.197543e+01 -3.038838e+02
      vertex -1.265640e+02 1.050599e+01 -3.039243e+02
    endloop
  endfacet
  facet normal 7.352665e-14 9.996196e-01 2.758091e-02
    outer loop
      vertex -1.630640e+02 1.204852e+01 -3.065328e+02
      vertex -1.638140e+02 1.197543e+01 -3.038838e+02
      vertex -1.265640e+02 1.197543e+01 -3.038838e+02
    endloop
  endfacet
  facet normal 7.029149e-14 9.996196e-01 2.758091e-02
    outer loop
      vertex -1.635943e+02 1.205458e+01 -3.067523e+02
      vertex -1.638140e+02 1.197543e+01 -3.038838e+02
      vertex -1.630640e+02 1.204852e+01 -3.065328e+02
    endloop
  endfacet
  facet normal -1.000000e+00 1.863382e-14 2.730746e-12
    outer loop
      vertex -1.638140e+02 1.368017e+01 -3.817669e+02
      vertex -1.638140e+02 1.266421e+01 -3.821450e+02
      vertex -1.638140e+02 1.050599e+01 -3.039243e+02
    endloop
  endfacet
  facet normal -7.339276e-14 -9.996196e-01 -2.758091e-02
    outer loop
      vertex -1.501550e+02 1.205191e+01 -3.599535e+02
      vertex -1.638140e+02 1.050599e+01 -3.039243e+02
      vertex -1.638140e+02 1.266421e+01 -3.821450e+02
    endloop
  endfacet
  facet normal -1.000000e+00 -3.514553e-14 2.728553e-12
    outer loop
      vertex -1.638140e+02 1.356984e+01 -3.777684e+02
      vertex -1.638140e+02 1.368017e+01 -3.817669e+02
      vertex -1.638140e+02 1.050599e+01 -3.039243e+02
    endloop
  endfacet
  facet normal -1.000000e+00 -7.807733e-15 2.729687e-12
    outer loop
      vertex -1.638140e+02 1.521238e+01 -3.764726e+02
      vertex -1.638140e+02 1.356984e+01 -3.777684e+02
      vertex -1.638140e+02 1.050599e+01 -3.039243e+02
    endloop
  endfacet
  facet normal -7.352790e-14 -9.996196e-01 -2.758091e-02
    outer loop
      vertex -1.501550e+02 1.198296e+01 -3.574544e+02
      vertex -1.265640e+02 1.050599e+01 -3.039243e+02
      vertex -1.638140e+02 1.050599e+01 -3.039243e+02
    endloop
  endfacet
  facet normal -7.698977e-14 -9.996196e-01 -2.758091e-02
    outer loop
      vertex -1.501550e+02 1.205191e+01 -3.599535e+02
      vertex -1.501550e+02 1.198296e+01 -3.574544e+02
      vertex -1.638140e+02 1.050599e+01 -3.039243e+02
    endloop
  endfacet
  facet normal -1.000000e+00 -1.071723e-14 2.761721e-12
    outer loop
      vertex -1.638140e+02 1.482473e+01 -3.817353e+02
      vertex -1.638140e+02 1.483438e+01 -3.820852e+02
      vertex -1.638140e+02 1.266421e+01 -3.821450e+02
    endloop
  endfacet
  facet normal -2.727686e-12 2.758091e-02 -9.996196e-01
    outer loop
      vertex -9.574862e+00 1.483438e+01 -3.820852e+02
      vertex -1.638140e+02 1.266421e+01 -3.821450e+02
      vertex -1.638140e+02 1.483438e+01 -3.820852e+02
    endloop
  endfacet
  facet normal -1.000000e+00 -2.922920e-14 2.859332e-12
    outer loop
      vertex -1.638140e+02 1.368017e+01 -3.817669e+02
      vertex -1.638140e+02 1.482473e+01 -3.817353e+02
      vertex -1.638140e+02 1.266421e+01 -3.821450e+02
    endloop
  endfacet
  facet normal -2.728425e-12 2.758091e-02 -9.996196e-01
    outer loop
      vertex -9.574862e+00 1.266421e+01 -3.821450e+02
      vertex -1.638140e+02 1.266421e+01 -3.821450e+02
      vertex -9.574862e+00 1.483438e+01 -3.820852e+02
    endloop
  endfacet
  facet normal -7.348353e-14 -9.996196e-01 -2.758091e-02
    outer loop
      vertex -1.501550e+02 1.205191e+01 -3.599535e+02
      vertex -1.638140e+02 1.266421e+01 -3.821450e+02
      vertex -9.574862e+00 1.266421e+01 -3.821450e+02
    endloop
  endfacet
  facet normal 7.488570e-14 9.996196e-01 2.758091e-02
    outer loop
      vertex -1.635943e+02 1.481010e+01 -3.812052e+02
      vertex -1.638140e+02 1.483438e+01 -3.820852e+02
      vertex -1.638140e+02 1.482473e+01 -3.817353e+02
    endloop
  endfacet
  facet normal 7.351697e-14 9.996196e-01 2.758091e-02
    outer loop
      vertex -1.025371e+01 1.480405e+01 -3.809856e+02
      vertex -1.638140e+02 1.483438e+01 -3.820852e+02
      vertex -1.630640e+02 1.480405e+01 -3.809856e+02
    endloop
  endfacet
  facet normal 6.268632e-14 9.996196e-01 2.758091e-02
    outer loop
      vertex -1.635943e+02 1.481010e+01 -3.812052e+02
      vertex -1.630640e+02 1.480405e+01 -3.809856e+02
      vertex -1.638140e+02 1.483438e+01 -3.820852e+02
    endloop
  endfacet
  facet normal 7.351174e-14 9.996196e-01 2.758091e-02
    outer loop
      vertex -9.653375e+00 1.481235e+01 -3.812865e+02
      vertex -1.638140e+02 1.483438e+01 -3.820852e+02
      vertex -1.025371e+01 1.480405e+01 -3.809856e+02
    endloop
  endfacet
  facet normal 7.350947e-14 9.996196e-01 2.758091e-02
    outer loop
      vertex -9.653375e+00 1.481235e+01 -3.812865e+02
      vertex -9.574862e+00 1.483438e+01 -3.820852e+02
      vertex -1.638140e+02 1.483438e+01 -3.820852e+02
    endloop
  endfacet
  facet normal -9.238795e-01 -1.055476e-02 3.825378e-01
    outer loop
      vertex -1.635943e+02 1.366554e+01 -3.812367e+02
      vertex -1.638140e+02 1.482473e+01 -3.817353e+02
      vertex -1.638140e+02 1.368017e+01 -3.817669e+02
    endloop
  endfacet
  facet normal -9.238795e-01 -1.055476e-02 3.825378e-01
    outer loop
      vertex -1.635943e+02 1.481010e+01 -3.812052e+02
      vertex -1.638140e+02 1.482473e+01 -3.817353e+02
      vertex -1.635943e+02 1.366554e+01 -3.812367e+02
    endloop
  endfacet
  facet normal 6.860085e-14 9.996196e-01 2.758091e-02
    outer loop
      vertex -1.635943e+02 1.358447e+01 -3.782985e+02
      vertex -1.638140e+02 1.368017e+01 -3.817669e+02
      vertex -1.638140e+02 1.356984e+01 -3.777684e+02
    endloop
  endfacet
  facet normal 7.514002e-14 9.996196e-01 2.758091e-02
    outer loop
      vertex -1.635943e+02 1.366554e+01 -3.812367e+02
      vertex -1.638140e+02 1.368017e+01 -3.817669e+02
      vertex -1.635943e+02 1.358447e+01 -3.782985e+02
    endloop
  endfacet
  facet normal -1.000000e+00 -7.514353e-15 2.729315e-12
    outer loop
      vertex -1.638140e+02 1.521238e+01 -3.764726e+02
      vertex -1.638140e+02 1.524686e+01 -3.777221e+02
      vertex -1.638140e+02 1.356984e+01 -3.777684e+02
    endloop
  endfacet
  facet normal -9.238795e-01 1.055476e-02 -3.825378e-01
    outer loop
      vertex -1.635943e+02 1.526148e+01 -3.782523e+02
      vertex -1.638140e+02 1.356984e+01 -3.777684e+02
      vertex -1.638140e+02 1.524686e+01 -3.777221e+02
    endloop
  endfacet
  facet normal -9.238795e-01 1.055476e-02 -3.825378e-01
    outer loop
      vertex -1.635943e+02 1.526148e+01 -3.782523e+02
      vertex -1.635943e+02 1.358447e+01 -3.782985e+02
      vertex -1.638140e+02 1.356984e+01 -3.777684e+02
    endloop
  endfacet
  facet normal 7.349585e-14 9.996196e-01 2.758091e-02
    outer loop
      vertex -8.070011e+00 1.521238e+01 -3.764726e+02
      vertex -1.638140e+02 1.524686e+01 -3.777221e+02
      vertex -1.638140e+02 1.521238e+01 -3.764726e+02
    endloop
  endfacet
  facet normal 7.342435e-14 9.996196e-01 2.758091e-02
    outer loop
      vertex -1.635943e+02 1.526148e+01 -3.782523e+02
      vertex -1.638140e+02 1.524686e+01 -3.777221e+02
      vertex -8.070011e+00 1.521238e+01 -3.764726e+02
    endloop
  endfacet
  facet normal -1.000000e+00 -7.525353e-14 2.727426e-12
    outer loop
      vertex -1.638140e+02 1.291290e+01 -3.085097e+02
      vertex -1.638140e+02 1.529737e+01 -3.764703e+02
      vertex -1.638140e+02 1.521238e+01 -3.764726e+02
    endloop
  endfacet
  facet normal -2.729060e-12 2.758091e-02 -9.996196e-01
    outer loop
      vertex -8.070011e+00 1.529737e+01 -3.764703e+02
      vertex -1.638140e+02 1.521238e+01 -3.764726e+02
      vertex -1.638140e+02 1.529737e+01 -3.764703e+02
    endloop
  endfacet
  facet normal -1.000000e+00 -7.525353e-14 2.727426e-12
    outer loop
      vertex -1.638140e+02 1.281293e+01 -3.085124e+02
      vertex -1.638140e+02 1.291290e+01 -3.085097e+02
      vertex -1.638140e+02 1.521238e+01 -3.764726e+02
    endloop
  endfacet
  facet normal -2.729060e-12 2.758091e-02 -9.996196e-01
    outer loop
      vertex -8.070011e+00 1.521238e+01 -3.764726e+02
      vertex -1.638140e+02 1.521238e+01 -3.764726e+02
      vertex -8.070011e+00 1.529737e+01 -3.764703e+02
    endloop
  endfacet
  facet normal 9.428311e-14 9.993850e-01 3.506457e-02
    outer loop
      vertex -1.501550e+02 1.462762e+01 -3.573815e+02
      vertex -1.638140e+02 1.529737e+01 -3.764703e+02
      vertex -1.638140e+02 1.291290e+01 -3.085097e+02
    endloop
  endfacet
  facet normal 9.394675e-14 9.993850e-01 3.506457e-02
    outer loop
      vertex -1.501550e+02 1.471528e+01 -3.598800e+02
      vertex -6.041400e+01 1.471528e+01 -3.598800e+02
      vertex -1.638140e+02 1.529737e+01 -3.764703e+02
    endloop
  endfacet
  facet normal 9.392703e-14 9.993850e-01 3.506457e-02
    outer loop
      vertex -8.070011e+00 1.529737e+01 -3.764703e+02
      vertex -1.638140e+02 1.529737e+01 -3.764703e+02
      vertex -6.041400e+01 1.471528e+01 -3.598800e+02
    endloop
  endfacet
  facet normal 9.261922e-14 9.993850e-01 3.506457e-02
    outer loop
      vertex -1.501550e+02 1.462762e+01 -3.573815e+02
      vertex -1.501550e+02 1.471528e+01 -3.598800e+02
      vertex -1.638140e+02 1.529737e+01 -3.764703e+02
    endloop
  endfacet
  facet normal 2.729172e-12 -2.758091e-02 9.996196e-01
    outer loop
      vertex -9.742036e+00 1.281293e+01 -3.085124e+02
      vertex -1.638140e+02 1.291290e+01 -3.085097e+02
      vertex -1.638140e+02 1.281293e+01 -3.085124e+02
    endloop
  endfacet
  facet normal 9.392879e-14 9.993850e-01 3.506457e-02
    outer loop
      vertex -9.742036e+00 1.291290e+01 -3.085097e+02
      vertex -1.501550e+02 1.462762e+01 -3.573815e+02
      vertex -1.638140e+02 1.291290e+01 -3.085097e+02
    endloop
  endfacet
  facet normal 2.727696e-12 -2.758091e-02 9.996196e-01
    outer loop
      vertex -9.742036e+00 1.281293e+01 -3.085124e+02
      vertex -9.742036e+00 1.291290e+01 -3.085097e+02
      vertex -1.638140e+02 1.291290e+01 -3.085097e+02
    endloop
  endfacet
  facet normal 5.311808e-14 9.996196e-01 2.758091e-02
    outer loop
      vertex -1.635943e+02 1.276383e+01 -3.067328e+02
      vertex -1.638140e+02 1.281293e+01 -3.085124e+02
      vertex -1.638140e+02 1.277846e+01 -3.072629e+02
    endloop
  endfacet
  facet normal 7.350808e-14 9.996196e-01 2.758091e-02
    outer loop
      vertex -1.078977e+01 1.275777e+01 -3.065132e+02
      vertex -1.638140e+02 1.281293e+01 -3.085124e+02
      vertex -1.630640e+02 1.275777e+01 -3.065132e+02
    endloop
  endfacet
  facet normal 7.023449e-14 9.996196e-01 2.758091e-02
    outer loop
      vertex -1.635943e+02 1.276383e+01 -3.067328e+02
      vertex -1.630640e+02 1.275777e+01 -3.065132e+02
      vertex -1.638140e+02 1.281293e+01 -3.085124e+02
    endloop
  endfacet
  facet normal 7.323396e-14 9.996196e-01 2.758091e-02
    outer loop
      vertex -1.032146e+01 1.276230e+01 -3.066773e+02
      vertex -1.638140e+02 1.281293e+01 -3.085124e+02
      vertex -1.078977e+01 1.275777e+01 -3.065132e+02
    endloop
  endfacet
  facet normal 7.354867e-14 9.996196e-01 2.758091e-02
    outer loop
      vertex -9.898844e+00 1.279347e+01 -3.078070e+02
      vertex -1.638140e+02 1.281293e+01 -3.085124e+02
      vertex -1.005818e+01 1.277390e+01 -3.070978e+02
    endloop
  endfacet
  facet normal 7.350157e-14 9.996196e-01 2.758091e-02
    outer loop
      vertex -1.032146e+01 1.276230e+01 -3.066773e+02
      vertex -1.005818e+01 1.277390e+01 -3.070978e+02
      vertex -1.638140e+02 1.281293e+01 -3.085124e+02
    endloop
  endfacet
  facet normal 7.350244e-14 9.996196e-01 2.758091e-02
    outer loop
      vertex -9.742036e+00 1.281293e+01 -3.085124e+02
      vertex -1.638140e+02 1.281293e+01 -3.085124e+02
      vertex -9.898844e+00 1.279347e+01 -3.078070e+02
    endloop
  endfacet
  facet normal -9.238795e-01 -1.055476e-02 3.825378e-01
    outer loop
      vertex -1.635943e+02 1.276383e+01 -3.067328e+02
      vertex -1.638140e+02 1.277846e+01 -3.072629e+02
      vertex -1.635943e+02 1.205458e+01 -3.067523e+02
    endloop
  endfacet
  facet normal 7.071068e-01 -1.950265e-02 7.068378e-01
    outer loop
      vertex -1.265140e+02 1.197681e+01 -3.039337e+02
      vertex -1.265640e+02 1.197543e+01 -3.038838e+02
      vertex -1.265640e+02 1.050599e+01 -3.039243e+02
    endloop
  endfacet
  facet normal 7.071068e-01 -1.950265e-02 7.068378e-01
    outer loop
      vertex -1.265140e+02 1.050737e+01 -3.039743e+02
      vertex -1.265140e+02 1.197681e+01 -3.039337e+02
      vertex -1.265640e+02 1.050599e+01 -3.039243e+02
    endloop
  endfacet
  facet normal -6.573689e-16 -9.996196e-01 -2.758091e-02
    outer loop
      vertex -1.265140e+02 1.053357e+01 -3.049239e+02
      vertex -1.265140e+02 1.050737e+01 -3.039743e+02
      vertex -1.265640e+02 1.050599e+01 -3.039243e+02
    endloop
  endfacet
  facet normal -1.241455e-12 -9.996196e-01 -2.758091e-02
    outer loop
      vertex -1.265140e+02 1.053633e+01 -3.050239e+02
      vertex -1.265140e+02 1.053357e+01 -3.049239e+02
      vertex -1.265640e+02 1.050599e+01 -3.039243e+02
    endloop
  endfacet
  facet normal -6.999290e-14 -9.996196e-01 -2.758091e-02
    outer loop
      vertex -1.501550e+02 1.198296e+01 -3.574544e+02
      vertex -1.265140e+02 1.053633e+01 -3.050239e+02
      vertex -1.265640e+02 1.050599e+01 -3.039243e+02
    endloop
  endfacet
  facet normal 7.339276e-14 9.996196e-01 2.758091e-02
    outer loop
      vertex -1.265140e+02 1.197681e+01 -3.039337e+02
      vertex -1.630640e+02 1.204852e+01 -3.065328e+02
      vertex -1.265640e+02 1.197543e+01 -3.038838e+02
    endloop
  endfacet
  facet normal 7.350807e-14 9.996196e-01 2.758091e-02
    outer loop
      vertex -1.264140e+02 1.200577e+01 -3.049833e+02
      vertex -1.078977e+01 1.204852e+01 -3.065328e+02
      vertex -1.630640e+02 1.204852e+01 -3.065328e+02
    endloop
  endfacet
  facet normal 2.729301e-12 -2.758091e-02 9.996196e-01
    outer loop
      vertex -1.630640e+02 1.275777e+01 -3.065132e+02
      vertex -1.630640e+02 1.204852e+01 -3.065328e+02
      vertex -1.078977e+01 1.204852e+01 -3.065328e+02
    endloop
  endfacet
  facet normal 9.406761e-14 9.996196e-01 2.758091e-02
    outer loop
      vertex -1.265140e+02 1.200577e+01 -3.049833e+02
      vertex -1.264140e+02 1.200577e+01 -3.049833e+02
      vertex -1.630640e+02 1.204852e+01 -3.065328e+02
    endloop
  endfacet
  facet normal 7.255938e-14 9.996196e-01 2.758091e-02
    outer loop
      vertex -1.265140e+02 1.200301e+01 -3.048834e+02
      vertex -1.265140e+02 1.200577e+01 -3.049833e+02
      vertex -1.630640e+02 1.204852e+01 -3.065328e+02
    endloop
  endfacet
  facet normal 7.366608e-14 9.996196e-01 2.758091e-02
    outer loop
      vertex -1.265140e+02 1.197681e+01 -3.039337e+02
      vertex -1.265140e+02 1.200301e+01 -3.048834e+02
      vertex -1.630640e+02 1.204852e+01 -3.065328e+02
    endloop
  endfacet
  facet normal -3.826834e-01 -2.548144e-02 9.235281e-01
    outer loop
      vertex -1.635943e+02 1.276383e+01 -3.067328e+02
      vertex -1.635943e+02 1.205458e+01 -3.067523e+02
      vertex -1.630640e+02 1.204852e+01 -3.065328e+02
    endloop
  endfacet
  facet normal -3.826834e-01 -2.548144e-02 9.235281e-01
    outer loop
      vertex -1.635943e+02 1.276383e+01 -3.067328e+02
      vertex -1.630640e+02 1.204852e+01 -3.065328e+02
      vertex -1.630640e+02 1.275777e+01 -3.065132e+02
    endloop
  endfacet
  facet normal 8.364819e-14 9.996196e-01 2.758091e-02
    outer loop
      vertex -1.049094e+01 1.200577e+01 -3.049833e+02
      vertex -1.041712e+01 1.205125e+01 -3.066318e+02
      vertex -1.078977e+01 1.204852e+01 -3.065328e+02
    endloop
  endfacet
  facet normal 2.570681e-01 -2.665401e-02 9.660256e-01
    outer loop
      vertex -1.078977e+01 1.275777e+01 -3.065132e+02
      vertex -1.078977e+01 1.204852e+01 -3.065328e+02
      vertex -1.041712e+01 1.205125e+01 -3.066318e+02
    endloop
  endfacet
  facet normal 7.349654e-14 9.996196e-01 2.758091e-02
    outer loop
      vertex -1.264140e+02 1.200577e+01 -3.049833e+02
      vertex -1.049094e+01 1.200577e+01 -3.049833e+02
      vertex -1.078977e+01 1.204852e+01 -3.065328e+02
    endloop
  endfacet
  facet normal 2.729301e-12 -2.758091e-02 9.996196e-01
    outer loop
      vertex -1.078977e+01 1.275777e+01 -3.065132e+02
      vertex -1.630640e+02 1.275777e+01 -3.065132e+02
      vertex -1.078977e+01 1.204852e+01 -3.065328e+02
    endloop
  endfacet
  facet normal 7.443900e-14 9.996196e-01 2.758091e-02
    outer loop
      vertex -1.049094e+01 1.200577e+01 -3.049833e+02
      vertex -1.011129e+01 1.205817e+01 -3.068826e+02
      vertex -1.041712e+01 1.205125e+01 -3.066318e+02
    endloop
  endfacet
  facet normal 6.341463e-01 -3.593972e-02 7.723774e-01
    outer loop
      vertex -1.032146e+01 1.276230e+01 -3.066773e+02
      vertex -1.041712e+01 1.205125e+01 -3.066318e+02
      vertex -1.011129e+01 1.205817e+01 -3.068826e+02
    endloop
  endfacet
  facet normal 3.305452e-01 1.585722e-02 9.436569e-01
    outer loop
      vertex -1.032146e+01 1.276230e+01 -3.066773e+02
      vertex -1.078977e+01 1.275777e+01 -3.065132e+02
      vertex -1.041712e+01 1.205125e+01 -3.066318e+02
    endloop
  endfacet
  facet normal 9.806147e-01 -5.404374e-03 1.958716e-01
    outer loop
      vertex -1.011129e+01 1.058873e+01 -3.069232e+02
      vertex -1.011129e+01 1.205817e+01 -3.068826e+02
      vertex -1.049094e+01 1.200577e+01 -3.049833e+02
    endloop
  endfacet
  facet normal 9.813576e-01 -5.300789e-03 1.921173e-01
    outer loop
      vertex -6.960258e+00 1.103250e+01 -3.230067e+02
      vertex -1.011129e+01 1.205817e+01 -3.068826e+02
      vertex -1.011129e+01 1.058873e+01 -3.069232e+02
    endloop
  endfacet
  facet normal 8.945416e-01 4.217770e-01 1.479846e-01
    outer loop
      vertex -1.009239e+01 1.206159e+01 -3.070066e+02
      vertex -1.011129e+01 1.205817e+01 -3.068826e+02
      vertex -6.960258e+00 1.103250e+01 -3.230067e+02
    endloop
  endfacet
  facet normal 9.583058e-01 2.415031e-01 1.527296e-01
    outer loop
      vertex -1.032146e+01 1.276230e+01 -3.066773e+02
      vertex -1.011129e+01 1.205817e+01 -3.068826e+02
      vertex -1.009239e+01 1.206159e+01 -3.070066e+02
    endloop
  endfacet
  facet normal 2.729306e-12 -2.758091e-02 9.996196e-01
    outer loop
      vertex -1.049094e+01 1.053633e+01 -3.050239e+02
      vertex -1.049094e+01 1.200577e+01 -3.049833e+02
      vertex -1.264140e+02 1.200577e+01 -3.049833e+02
    endloop
  endfacet
  facet normal 9.806147e-01 -5.404374e-03 1.958716e-01
    outer loop
      vertex -1.011129e+01 1.058873e+01 -3.069232e+02
      vertex -1.049094e+01 1.200577e+01 -3.049833e+02
      vertex -1.049094e+01 1.053633e+01 -3.050239e+02
    endloop
  endfacet
  facet normal 3.409310e-12 -2.758091e-02 9.996196e-01
    outer loop
      vertex -1.264140e+02 1.053633e+01 -3.050239e+02
      vertex -1.264140e+02 1.200577e+01 -3.049833e+02
      vertex -1.265140e+02 1.200577e+01 -3.049833e+02
    endloop
  endfacet
  facet normal 2.727344e-12 -2.758091e-02 9.996196e-01
    outer loop
      vertex -1.049094e+01 1.053633e+01 -3.050239e+02
      vertex -1.264140e+02 1.200577e+01 -3.049833e+02
      vertex -1.264140e+02 1.053633e+01 -3.050239e+02
    endloop
  endfacet
  facet normal 1.000000e+00 -6.757857e-15 -2.559114e-12
    outer loop
      vertex -1.265140e+02 1.053633e+01 -3.050239e+02
      vertex -1.265140e+02 1.200577e+01 -3.049833e+02
      vertex -1.265140e+02 1.200301e+01 -3.048834e+02
    endloop
  endfacet
  facet normal 2.272872e-12 -2.758091e-02 9.996196e-01
    outer loop
      vertex -1.264140e+02 1.053633e+01 -3.050239e+02
      vertex -1.265140e+02 1.200577e+01 -3.049833e+02
      vertex -1.265140e+02 1.053633e+01 -3.050239e+02
    endloop
  endfacet
  facet normal 1.000000e+00 7.856640e-15 -2.738284e-12
    outer loop
      vertex -1.265140e+02 1.050737e+01 -3.039743e+02
      vertex -1.265140e+02 1.200301e+01 -3.048834e+02
      vertex -1.265140e+02 1.197681e+01 -3.039337e+02
    endloop
  endfacet
  facet normal 1.000000e+00 7.856640e-15 -2.738284e-12
    outer loop
      vertex -1.265140e+02 1.053357e+01 -3.049239e+02
      vertex -1.265140e+02 1.200301e+01 -3.048834e+02
      vertex -1.265140e+02 1.050737e+01 -3.039743e+02
    endloop
  endfacet
  facet normal 1.000000e+00 6.825197e-15 -2.700902e-12
    outer loop
      vertex -1.265140e+02 1.053633e+01 -3.050239e+02
      vertex -1.265140e+02 1.200301e+01 -3.048834e+02
      vertex -1.265140e+02 1.053357e+01 -3.049239e+02
    endloop
  endfacet
  facet normal 2.729035e-12 -2.758091e-02 9.996196e-01
    outer loop
      vertex -6.041400e+01 1.205191e+01 -3.599535e+02
      vertex -6.041400e+01 1.471528e+01 -3.598800e+02
      vertex -1.501550e+02 1.471528e+01 -3.598800e+02
    endloop
  endfacet
  facet normal 9.370809e-14 9.993850e-01 3.506457e-02
    outer loop
      vertex -8.070011e+00 1.529737e+01 -3.764703e+02
      vertex -6.041400e+01 1.471528e+01 -3.598800e+02
      vertex -5.916443e+01 1.467145e+01 -3.586307e+02
    endloop
  endfacet
  facet normal -7.072286e-01 -1.949930e-02 7.067160e-01
    outer loop
      vertex -5.916443e+01 1.201744e+01 -3.587040e+02
      vertex -5.916443e+01 1.467145e+01 -3.586307e+02
      vertex -6.041400e+01 1.471528e+01 -3.598800e+02
    endloop
  endfacet
  facet normal -7.072286e-01 -1.949929e-02 7.067160e-01
    outer loop
      vertex -5.916443e+01 1.201744e+01 -3.587040e+02
      vertex -6.041400e+01 1.471528e+01 -3.598800e+02
      vertex -6.041400e+01 1.205191e+01 -3.599535e+02
    endloop
  endfacet
  facet normal 1.000000e+00 -1.063747e-14 -2.730460e-12
    outer loop
      vertex -1.501550e+02 1.198296e+01 -3.574544e+02
      vertex -1.501550e+02 1.471528e+01 -3.598800e+02
      vertex -1.501550e+02 1.462762e+01 -3.573815e+02
    endloop
  endfacet
  facet normal 2.729036e-12 -2.758091e-02 9.996196e-01
    outer loop
      vertex -1.501550e+02 1.205191e+01 -3.599535e+02
      vertex -6.041400e+01 1.205191e+01 -3.599535e+02
      vertex -1.501550e+02 1.471528e+01 -3.598800e+02
    endloop
  endfacet
  facet normal 1.000000e+00 -1.005166e-14 -2.729800e-12
    outer loop
      vertex -1.501550e+02 1.205191e+01 -3.599535e+02
      vertex -1.501550e+02 1.471528e+01 -3.598800e+02
      vertex -1.501550e+02 1.198296e+01 -3.574544e+02
    endloop
  endfacet
  facet normal 9.390782e-14 9.993850e-01 3.506457e-02
    outer loop
      vertex -9.742036e+00 1.291290e+01 -3.085097e+02
      vertex -6.041400e+01 1.462762e+01 -3.573815e+02
      vertex -1.501550e+02 1.462762e+01 -3.573815e+02
    endloop
  endfacet
  facet normal -2.729036e-12 2.758091e-02 -9.996196e-01
    outer loop
      vertex -1.501550e+02 1.198296e+01 -3.574544e+02
      vertex -1.501550e+02 1.462762e+01 -3.573815e+02
      vertex -6.041400e+01 1.462762e+01 -3.573815e+02
    endloop
  endfacet
  facet normal 9.375088e-14 9.993850e-01 3.506457e-02
    outer loop
      vertex -9.742036e+00 1.291290e+01 -3.085097e+02
      vertex -5.916443e+01 1.467145e+01 -3.586307e+02
      vertex -6.041400e+01 1.462762e+01 -3.573815e+02
    endloop
  endfacet
  facet normal -7.072286e-01 1.949929e-02 -7.067160e-01
    outer loop
      vertex -6.041400e+01 1.198296e+01 -3.574544e+02
      vertex -6.041400e+01 1.462762e+01 -3.573815e+02
      vertex -5.916443e+01 1.467145e+01 -3.586307e+02
    endloop
  endfacet
  facet normal -2.729036e-12 2.758091e-02 -9.996196e-01
    outer loop
      vertex -1.501550e+02 1.198296e+01 -3.574544e+02
      vertex -6.041400e+01 1.462762e+01 -3.573815e+02
      vertex -6.041400e+01 1.198296e+01 -3.574544e+02
    endloop
  endfacet
  facet normal 9.387208e-14 9.993850e-01 3.506457e-02
    outer loop
      vertex -8.070011e+00 1.529737e+01 -3.764703e+02
      vertex -5.916443e+01 1.467145e+01 -3.586307e+02
      vertex -9.742036e+00 1.291290e+01 -3.085097e+02
    endloop
  endfacet
  facet normal -7.072286e-01 1.949923e-02 -7.067160e-01
    outer loop
      vertex -6.041400e+01 1.198296e+01 -3.574544e+02
      vertex -5.916443e+01 1.467145e+01 -3.586307e+02
      vertex -5.916443e+01 1.201744e+01 -3.587040e+02
    endloop
  endfacet
  facet normal 9.269991e-14 9.993850e-01 3.506457e-02
    outer loop
      vertex -6.902406e+00 1.343174e+01 -3.232973e+02
      vertex -8.070011e+00 1.529737e+01 -3.764703e+02
      vertex -9.742036e+00 1.291290e+01 -3.085097e+02
    endloop
  endfacet
  facet normal 9.820626e-01 -8.478879e-04 1.885535e-01
    outer loop
      vertex -6.960258e+00 1.103250e+01 -3.230067e+02
      vertex -6.902406e+00 1.343174e+01 -3.232973e+02
      vertex -9.742036e+00 1.291290e+01 -3.085097e+02
    endloop
  endfacet
  facet normal 9.819444e-01 -5.217470e-03 1.890976e-01
    outer loop
      vertex -9.742036e+00 1.281293e+01 -3.085124e+02
      vertex -6.960258e+00 1.103250e+01 -3.230067e+02
      vertex -9.742036e+00 1.291290e+01 -3.085097e+02
    endloop
  endfacet
  facet normal 9.588593e-14 9.993850e-01 3.506457e-02
    outer loop
      vertex -6.902406e+00 1.343174e+01 -3.232973e+02
      vertex -6.353959e+00 1.499890e+01 -3.679634e+02
      vertex -8.070011e+00 1.529737e+01 -3.764703e+02
    endloop
  endfacet
  facet normal 9.802764e-01 5.450857e-03 -1.975563e-01
    outer loop
      vertex -8.070011e+00 1.521238e+01 -3.764726e+02
      vertex -8.070011e+00 1.529737e+01 -3.764703e+02
      vertex -6.353959e+00 1.499890e+01 -3.679634e+02
    endloop
  endfacet
  facet normal 9.237746e-14 9.993850e-01 3.506457e-02
    outer loop
      vertex -5.263999e+00 1.390850e+01 -3.368858e+02
      vertex -5.263999e+00 1.468672e+01 -3.590660e+02
      vertex -6.353959e+00 1.499890e+01 -3.679634e+02
    endloop
  endfacet
  facet normal 9.891423e-01 -7.896430e-02 -1.239439e-01
    outer loop
      vertex -7.069208e+00 1.238446e+01 -3.720059e+02
      vertex -6.353959e+00 1.499890e+01 -3.679634e+02
      vertex -5.263999e+00 1.468672e+01 -3.590660e+02
    endloop
  endfacet
  facet normal 9.761028e-14 9.993850e-01 3.506457e-02
    outer loop
      vertex -6.902406e+00 1.343174e+01 -3.232973e+02
      vertex -5.263999e+00 1.390850e+01 -3.368858e+02
      vertex -6.353959e+00 1.499890e+01 -3.679634e+02
    endloop
  endfacet
  facet normal 9.798014e-01 3.607425e-02 -1.966922e-01
    outer loop
      vertex -8.070011e+00 1.521238e+01 -3.764726e+02
      vertex -6.353959e+00 1.499890e+01 -3.679634e+02
      vertex -7.069208e+00 1.238446e+01 -3.720059e+02
    endloop
  endfacet
  facet normal 7.071068e-01 7.066719e-01 2.479440e-02
    outer loop
      vertex -4.814644e+00 1.386660e+01 -3.485064e+02
      vertex -5.263999e+00 1.468672e+01 -3.590660e+02
      vertex -5.263999e+00 1.390850e+01 -3.368858e+02
    endloop
  endfacet
  facet normal 9.903078e-01 3.831052e-03 -1.388375e-01
    outer loop
      vertex -7.069208e+00 1.238446e+01 -3.720059e+02
      vertex -5.263999e+00 1.468672e+01 -3.590660e+02
      vertex -5.264000e+00 1.202945e+01 -3.591394e+02
    endloop
  endfacet
  facet normal 9.990990e-01 1.170306e-03 -4.242459e-02
    outer loop
      vertex -4.814644e+00 1.386660e+01 -3.485064e+02
      vertex -5.264000e+00 1.202945e+01 -3.591394e+02
      vertex -5.263999e+00 1.468672e+01 -3.590660e+02
    endloop
  endfacet
  facet normal 9.928177e-01 -3.299412e-03 1.195914e-01
    outer loop
      vertex -5.264000e+00 1.141734e+01 -3.369545e+02
      vertex -5.263999e+00 1.390850e+01 -3.368858e+02
      vertex -6.902406e+00 1.343174e+01 -3.232973e+02
    endloop
  endfacet
  facet normal 9.992447e-01 -1.072042e-03 3.884442e-02
    outer loop
      vertex -4.814301e+00 1.218581e+01 -3.485015e+02
      vertex -5.263999e+00 1.390850e+01 -3.368858e+02
      vertex -5.264000e+00 1.141734e+01 -3.369545e+02
    endloop
  endfacet
  facet normal 9.992532e-01 3.170881e-04 3.863873e-02
    outer loop
      vertex -4.814301e+00 1.218581e+01 -3.485015e+02
      vertex -4.814644e+00 1.386660e+01 -3.485064e+02
      vertex -5.263999e+00 1.390850e+01 -3.368858e+02
    endloop
  endfacet
  facet normal 9.926734e-01 -9.348581e-03 1.204663e-01
    outer loop
      vertex -5.264000e+00 1.141734e+01 -3.369545e+02
      vertex -6.902406e+00 1.343174e+01 -3.232973e+02
      vertex -6.960258e+00 1.103250e+01 -3.230067e+02
    endloop
  endfacet
  facet normal -2.729087e-12 2.758091e-02 -9.996196e-01
    outer loop
      vertex -1.630640e+02 1.359053e+01 -3.785181e+02
      vertex -1.630640e+02 1.526754e+01 -3.784718e+02
      vertex -9.153794e+00 1.526754e+01 -3.784718e+02
    endloop
  endfacet
  facet normal 7.349821e-14 9.996196e-01 2.758091e-02
    outer loop
      vertex -8.070011e+00 1.521238e+01 -3.764726e+02
      vertex -9.153794e+00 1.526754e+01 -3.784718e+02
      vertex -1.630640e+02 1.526754e+01 -3.784718e+02
    endloop
  endfacet
  facet normal -2.729087e-12 2.758091e-02 -9.996196e-01
    outer loop
      vertex -9.153794e+00 1.359053e+01 -3.785181e+02
      vertex -1.630640e+02 1.359053e+01 -3.785181e+02
      vertex -9.153794e+00 1.526754e+01 -3.784718e+02
    endloop
  endfacet
  facet normal 3.241685e-01 2.609153e-02 -9.456395e-01
    outer loop
      vertex -8.693799e+00 1.526319e+01 -3.783143e+02
      vertex -9.153794e+00 1.359053e+01 -3.785181e+02
      vertex -9.153794e+00 1.526754e+01 -3.784718e+02
    endloop
  endfacet
  facet normal 7.372784e-14 9.996196e-01 2.758091e-02
    outer loop
      vertex -8.693799e+00 1.526319e+01 -3.783143e+02
      vertex -9.153794e+00 1.526754e+01 -3.784718e+02
      vertex -8.070011e+00 1.521238e+01 -3.764726e+02
    endloop
  endfacet
  facet normal -3.826834e-01 2.548144e-02 -9.235281e-01
    outer loop
      vertex -1.635943e+02 1.358447e+01 -3.782985e+02
      vertex -1.630640e+02 1.526754e+01 -3.784718e+02
      vertex -1.630640e+02 1.359053e+01 -3.785181e+02
    endloop
  endfacet
  facet normal -3.826834e-01 2.548144e-02 -9.235281e-01
    outer loop
      vertex -1.635943e+02 1.526148e+01 -3.782523e+02
      vertex -1.630640e+02 1.526754e+01 -3.784718e+02
      vertex -1.635943e+02 1.358447e+01 -3.782985e+02
    endloop
  endfacet
  facet normal 7.337066e-14 9.996196e-01 2.758091e-02
    outer loop
      vertex -1.635943e+02 1.526148e+01 -3.782523e+02
      vertex -8.070011e+00 1.521238e+01 -3.764726e+02
      vertex -1.630640e+02 1.526754e+01 -3.784718e+02
    endloop
  endfacet
  facet normal 7.349817e-14 9.996196e-01 2.758091e-02
    outer loop
      vertex -1.630640e+02 1.365948e+01 -3.810172e+02
      vertex -1.630640e+02 1.359053e+01 -3.785181e+02
      vertex -9.153794e+00 1.359053e+01 -3.785181e+02
    endloop
  endfacet
  facet normal 7.601168e-14 9.996196e-01 2.758091e-02
    outer loop
      vertex -1.635943e+02 1.366554e+01 -3.812367e+02
      vertex -1.635943e+02 1.358447e+01 -3.782985e+02
      vertex -1.630640e+02 1.359053e+01 -3.785181e+02
    endloop
  endfacet
  facet normal 7.057566e-14 9.996196e-01 2.758091e-02
    outer loop
      vertex -1.630640e+02 1.365948e+01 -3.810172e+02
      vertex -1.635943e+02 1.366554e+01 -3.812367e+02
      vertex -1.630640e+02 1.359053e+01 -3.785181e+02
    endloop
  endfacet
  facet normal 6.961436e-14 9.996196e-01 2.758091e-02
    outer loop
      vertex -8.962205e+00 1.363059e+01 -3.799699e+02
      vertex -9.534274e+00 1.368601e+01 -3.819787e+02
      vertex -9.153794e+00 1.359053e+01 -3.785181e+02
    endloop
  endfacet
  facet normal 7.712606e-14 9.996196e-01 2.758091e-02
    outer loop
      vertex -9.653375e+00 1.366778e+01 -3.813180e+02
      vertex -9.153794e+00 1.359053e+01 -3.785181e+02
      vertex -9.534274e+00 1.368601e+01 -3.819787e+02
    endloop
  endfacet
  facet normal 6.511675e-14 9.996196e-01 2.758091e-02
    outer loop
      vertex -8.693799e+00 1.358618e+01 -3.783605e+02
      vertex -8.962205e+00 1.363059e+01 -3.799699e+02
      vertex -9.153794e+00 1.359053e+01 -3.785181e+02
    endloop
  endfacet
  facet normal 3.241685e-01 2.609153e-02 -9.456395e-01
    outer loop
      vertex -8.693799e+00 1.526319e+01 -3.783143e+02
      vertex -8.693799e+00 1.358618e+01 -3.783605e+02
      vertex -9.153794e+00 1.359053e+01 -3.785181e+02
    endloop
  endfacet
  facet normal 7.351697e-14 9.996196e-01 2.758091e-02
    outer loop
      vertex -1.025371e+01 1.365948e+01 -3.810172e+02
      vertex -1.630640e+02 1.365948e+01 -3.810172e+02
      vertex -9.153794e+00 1.359053e+01 -3.785181e+02
    endloop
  endfacet
  facet normal 6.974254e-14 9.996196e-01 2.758091e-02
    outer loop
      vertex -9.653375e+00 1.366778e+01 -3.813180e+02
      vertex -1.025371e+01 1.365948e+01 -3.810172e+02
      vertex -9.153794e+00 1.359053e+01 -3.785181e+02
    endloop
  endfacet
  facet normal 9.617881e-01 6.350818e-03 -2.737211e-01
    outer loop
      vertex -9.574862e+00 1.266421e+01 -3.821450e+02
      vertex -9.534274e+00 1.368601e+01 -3.819787e+02
      vertex -8.962205e+00 1.363059e+01 -3.799699e+02
    endloop
  endfacet
  facet normal 9.841484e-01 -4.891389e-03 1.772794e-01
    outer loop
      vertex -9.653375e+00 1.481235e+01 -3.812865e+02
      vertex -9.653375e+00 1.366778e+01 -3.813180e+02
      vertex -9.534274e+00 1.368601e+01 -3.819787e+02
    endloop
  endfacet
  facet normal 9.841484e-01 -4.891389e-03 1.772794e-01
    outer loop
      vertex -9.653375e+00 1.481235e+01 -3.812865e+02
      vertex -9.534274e+00 1.368601e+01 -3.819787e+02
      vertex -9.534274e+00 1.483058e+01 -3.819471e+02
    endloop
  endfacet
  facet normal 9.594092e-01 7.778305e-03 -2.819104e-01
    outer loop
      vertex -9.574862e+00 1.266421e+01 -3.821450e+02
      vertex -9.534274e+00 1.483058e+01 -3.819471e+02
      vertex -9.534274e+00 1.368601e+01 -3.819787e+02
    endloop
  endfacet
  facet normal 7.525412e-14 9.996196e-01 2.758091e-02
    outer loop
      vertex -8.693799e+00 1.358618e+01 -3.783605e+02
      vertex -8.427159e+00 1.357497e+01 -3.779541e+02
      vertex -8.962205e+00 1.363059e+01 -3.799699e+02
    endloop
  endfacet
  facet normal 9.657717e-01 -3.323596e-02 -2.572555e-01
    outer loop
      vertex -9.574862e+00 1.266421e+01 -3.821450e+02
      vertex -8.962205e+00 1.363059e+01 -3.799699e+02
      vertex -8.427159e+00 1.357497e+01 -3.779541e+02
    endloop
  endfacet
  facet normal 8.362442e-01 1.512419e-02 -5.481485e-01
    outer loop
      vertex -8.427159e+00 1.525198e+01 -3.779078e+02
      vertex -8.427159e+00 1.357497e+01 -3.779541e+02
      vertex -8.693799e+00 1.358618e+01 -3.783605e+02
    endloop
  endfacet
  facet normal 9.647203e-01 -1.052765e-01 -2.413122e-01
    outer loop
      vertex -7.069208e+00 1.238446e+01 -3.720059e+02
      vertex -9.574862e+00 1.266421e+01 -3.821450e+02
      vertex -8.427159e+00 1.357497e+01 -3.779541e+02
    endloop
  endfacet
  facet normal 9.744565e-01 -9.540621e-03 -2.243738e-01
    outer loop
      vertex -8.070011e+00 1.521238e+01 -3.764726e+02
      vertex -7.069208e+00 1.238446e+01 -3.720059e+02
      vertex -8.427159e+00 1.357497e+01 -3.779541e+02
    endloop
  endfacet
  facet normal 9.711938e-01 3.736428e-03 -2.382618e-01
    outer loop
      vertex -8.247505e+00 1.523233e+01 -3.771958e+02
      vertex -8.070011e+00 1.521238e+01 -3.764726e+02
      vertex -8.427159e+00 1.357497e+01 -3.779541e+02
    endloop
  endfacet
  facet normal 9.696338e-01 6.745230e-03 -2.444685e-01
    outer loop
      vertex -8.427159e+00 1.525198e+01 -3.779078e+02
      vertex -8.247505e+00 1.523233e+01 -3.771958e+02
      vertex -8.427159e+00 1.357497e+01 -3.779541e+02
    endloop
  endfacet
  facet normal 8.362442e-01 1.512419e-02 -5.481485e-01
    outer loop
      vertex -8.693799e+00 1.526319e+01 -3.783143e+02
      vertex -8.427159e+00 1.525198e+01 -3.779078e+02
      vertex -8.693799e+00 1.358618e+01 -3.783605e+02
    endloop
  endfacet
  facet normal -3.826834e-01 -2.548144e-02 9.235281e-01
    outer loop
      vertex -1.635943e+02 1.481010e+01 -3.812052e+02
      vertex -1.635943e+02 1.366554e+01 -3.812367e+02
      vertex -1.630640e+02 1.365948e+01 -3.810172e+02
    endloop
  endfacet
  facet normal 2.729394e-12 -2.758091e-02 9.996196e-01
    outer loop
      vertex -1.630640e+02 1.480405e+01 -3.809856e+02
      vertex -1.630640e+02 1.365948e+01 -3.810172e+02
      vertex -1.025371e+01 1.365948e+01 -3.810172e+02
    endloop
  endfacet
  facet normal -3.826834e-01 -2.548144e-02 9.235281e-01
    outer loop
      vertex -1.635943e+02 1.481010e+01 -3.812052e+02
      vertex -1.630640e+02 1.365948e+01 -3.810172e+02
      vertex -1.630640e+02 1.480405e+01 -3.809856e+02
    endloop
  endfacet
  facet normal 4.482048e-01 -2.465543e-02 8.935908e-01
    outer loop
      vertex -1.025371e+01 1.480405e+01 -3.809856e+02
      vertex -1.025371e+01 1.365948e+01 -3.810172e+02
      vertex -9.653375e+00 1.366778e+01 -3.813180e+02
    endloop
  endfacet
  facet normal 2.729394e-12 -2.758091e-02 9.996196e-01
    outer loop
      vertex -1.025371e+01 1.480405e+01 -3.809856e+02
      vertex -1.630640e+02 1.480405e+01 -3.809856e+02
      vertex -1.025371e+01 1.365948e+01 -3.810172e+02
    endloop
  endfacet
  facet normal 4.482048e-01 -2.465543e-02 8.935908e-01
    outer loop
      vertex -9.653375e+00 1.481235e+01 -3.812865e+02
      vertex -1.025371e+01 1.480405e+01 -3.809856e+02
      vertex -9.653375e+00 1.366778e+01 -3.813180e+02
    endloop
  endfacet
  facet normal 4.898948e-14 9.996196e-01 2.758091e-02
    outer loop
      vertex -8.693799e+00 1.526319e+01 -3.783143e+02
      vertex -8.070011e+00 1.521238e+01 -3.764726e+02
      vertex -8.427159e+00 1.525198e+01 -3.779078e+02
    endloop
  endfacet
  facet normal 1.822435e-12 9.996196e-01 2.758091e-02
    outer loop
      vertex -8.427159e+00 1.525198e+01 -3.779078e+02
      vertex -8.070011e+00 1.521238e+01 -3.764726e+02
      vertex -8.247505e+00 1.523233e+01 -3.771958e+02
    endloop
  endfacet
  facet normal 1.007471e-13 9.996196e-01 2.758091e-02
    outer loop
      vertex -9.653375e+00 1.481235e+01 -3.812865e+02
      vertex -9.534274e+00 1.483058e+01 -3.819471e+02
      vertex -9.574862e+00 1.483438e+01 -3.820852e+02
    endloop
  endfacet
  facet normal 9.594092e-01 7.778305e-03 -2.819104e-01
    outer loop
      vertex -9.574862e+00 1.266421e+01 -3.821450e+02
      vertex -9.574862e+00 1.483438e+01 -3.820852e+02
      vertex -9.534274e+00 1.483058e+01 -3.819471e+02
    endloop
  endfacet
  facet normal -7.616354e-14 -9.996196e-01 -2.758091e-02
    outer loop
      vertex -1.011129e+01 1.058873e+01 -3.069232e+02
      vertex -1.049094e+01 1.053633e+01 -3.050239e+02
      vertex -9.574862e+00 1.266421e+01 -3.821450e+02
    endloop
  endfacet
  facet normal -7.349576e-14 -9.996196e-01 -2.758091e-02
    outer loop
      vertex -5.916443e+01 1.201744e+01 -3.587040e+02
      vertex -9.574862e+00 1.266421e+01 -3.821450e+02
      vertex -1.049094e+01 1.053633e+01 -3.050239e+02
    endloop
  endfacet
  facet normal -7.400544e-14 -9.996196e-01 -2.758091e-02
    outer loop
      vertex -7.069208e+00 1.238446e+01 -3.720059e+02
      vertex -1.011129e+01 1.058873e+01 -3.069232e+02
      vertex -9.574862e+00 1.266421e+01 -3.821450e+02
    endloop
  endfacet
  facet normal -7.389012e-14 -9.996196e-01 -2.758091e-02
    outer loop
      vertex -5.916443e+01 1.201744e+01 -3.587040e+02
      vertex -6.041400e+01 1.205191e+01 -3.599535e+02
      vertex -9.574862e+00 1.266421e+01 -3.821450e+02
    endloop
  endfacet
  facet normal -7.347619e-14 -9.996196e-01 -2.758091e-02
    outer loop
      vertex -1.501550e+02 1.205191e+01 -3.599535e+02
      vertex -9.574862e+00 1.266421e+01 -3.821450e+02
      vertex -6.041400e+01 1.205191e+01 -3.599535e+02
    endloop
  endfacet
  facet normal -6.231583e-14 -9.996196e-01 -2.758091e-02
    outer loop
      vertex -6.041400e+01 1.198296e+01 -3.574544e+02
      vertex -1.264140e+02 1.053633e+01 -3.050239e+02
      vertex -1.265140e+02 1.053633e+01 -3.050239e+02
    endloop
  endfacet
  facet normal -7.347619e-14 -9.996196e-01 -2.758091e-02
    outer loop
      vertex -1.501550e+02 1.198296e+01 -3.574544e+02
      vertex -6.041400e+01 1.198296e+01 -3.574544e+02
      vertex -1.265140e+02 1.053633e+01 -3.050239e+02
    endloop
  endfacet
  facet normal -7.350342e-14 -9.996196e-01 -2.758091e-02
    outer loop
      vertex -6.041400e+01 1.198296e+01 -3.574544e+02
      vertex -1.049094e+01 1.053633e+01 -3.050239e+02
      vertex -1.264140e+02 1.053633e+01 -3.050239e+02
    endloop
  endfacet
  facet normal -7.323369e-14 -9.996196e-01 -2.758091e-02
    outer loop
      vertex -6.041400e+01 1.198296e+01 -3.574544e+02
      vertex -5.916443e+01 1.201744e+01 -3.587040e+02
      vertex -1.049094e+01 1.053633e+01 -3.050239e+02
    endloop
  endfacet
  facet normal -7.477990e-14 -9.996196e-01 -2.758091e-02
    outer loop
      vertex -7.069208e+00 1.238446e+01 -3.720059e+02
      vertex -6.960258e+00 1.103250e+01 -3.230067e+02
      vertex -1.011129e+01 1.058873e+01 -3.069232e+02
    endloop
  endfacet
  facet normal -7.379934e-14 -9.996196e-01 -2.758091e-02
    outer loop
      vertex -5.264000e+00 1.202945e+01 -3.591394e+02
      vertex -5.264000e+00 1.141734e+01 -3.369545e+02
      vertex -6.960258e+00 1.103250e+01 -3.230067e+02
    endloop
  endfacet
  facet normal -7.314716e-14 -9.996196e-01 -2.758091e-02
    outer loop
      vertex -7.069208e+00 1.238446e+01 -3.720059e+02
      vertex -5.264000e+00 1.202945e+01 -3.591394e+02
      vertex -6.960258e+00 1.103250e+01 -3.230067e+02
    endloop
  endfacet
  facet normal 9.814407e-01 -5.289084e-03 1.916931e-01
    outer loop
      vertex -1.005818e+01 1.277390e+01 -3.070978e+02
      vertex -1.005818e+01 1.206465e+01 -3.071174e+02
      vertex -6.960258e+00 1.103250e+01 -3.230067e+02
    endloop
  endfacet
  facet normal 6.214321e-01 -7.646176e-01 1.708278e-01
    outer loop
      vertex -1.009239e+01 1.206159e+01 -3.070066e+02
      vertex -6.960258e+00 1.103250e+01 -3.230067e+02
      vertex -1.005818e+01 1.206465e+01 -3.071174e+02
    endloop
  endfacet
  facet normal 9.554021e-01 -2.087366e-01 2.088921e-01
    outer loop
      vertex -9.898844e+00 1.279347e+01 -3.078070e+02
      vertex -1.005818e+01 1.277390e+01 -3.070978e+02
      vertex -6.960258e+00 1.103250e+01 -3.230067e+02
    endloop
  endfacet
  facet normal 9.588366e-01 -1.935301e-01 2.077944e-01
    outer loop
      vertex -9.742036e+00 1.281293e+01 -3.085124e+02
      vertex -9.898844e+00 1.279347e+01 -3.078070e+02
      vertex -6.960258e+00 1.103250e+01 -3.230067e+02
    endloop
  endfacet
  facet normal 7.071068e-01 -7.068378e-01 -1.950265e-02
    outer loop
      vertex -4.814301e+00 1.218581e+01 -3.485015e+02
      vertex -5.264000e+00 1.141734e+01 -3.369545e+02
      vertex -5.264000e+00 1.202945e+01 -3.591394e+02
    endloop
  endfacet
  facet normal 9.991076e-01 8.067948e-05 -4.223669e-02
    outer loop
      vertex -4.814301e+00 1.218581e+01 -3.485015e+02
      vertex -5.264000e+00 1.202945e+01 -3.591394e+02
      vertex -4.814644e+00 1.386660e+01 -3.485064e+02
    endloop
  endfacet
  facet normal 8.476639e-01 -1.463260e-02 5.303319e-01
    outer loop
      vertex -1.032146e+01 1.276230e+01 -3.066773e+02
      vertex -1.005818e+01 1.206465e+01 -3.071174e+02
      vertex -1.005818e+01 1.277390e+01 -3.070978e+02
    endloop
  endfacet
  facet normal 9.404435e-01 1.687572e-01 2.951052e-01
    outer loop
      vertex -1.032146e+01 1.276230e+01 -3.066773e+02
      vertex -1.009239e+01 1.206159e+01 -3.070066e+02
      vertex -1.005818e+01 1.206465e+01 -3.071174e+02
    endloop
  endfacet
endsolid P1040852002
