solid P1040852002
  facet normal -1.000000e+00 7.640384e-16 2.735209e-12
    outer loop
      vertex -1.638140e+02 1.278506e+01 -3.039536e+02
      vertex -1.638140e+02 1.425416e+01 -3.039021e+02
      vertex -1.638140e+02 1.437338e+01 -3.073000e+02
    endloop
  endfacet
  facet normal 8.938424e-14 9.993850e-01 3.506457e-02
    outer loop
      vertex -1.635943e+02 1.435478e+01 -3.067700e+02
      vertex -1.638140e+02 1.437338e+01 -3.073000e+02
      vertex -1.638140e+02 1.425416e+01 -3.039021e+02
    endloop
  endfacet
  facet normal -1.000000e+00 -1.197488e-14 2.729162e-12
    outer loop
      vertex -1.638140e+02 1.803451e+01 -3.764647e+02
      vertex -1.638140e+02 1.278506e+01 -3.039536e+02
      vertex -1.638140e+02 1.437338e+01 -3.073000e+02
    endloop
  endfacet
  facet normal -1.000000e+00 2.454814e-14 2.731095e-12
    outer loop
      vertex -1.638140e+02 1.512630e+01 -3.085244e+02
      vertex -1.638140e+02 1.803451e+01 -3.764647e+02
      vertex -1.638140e+02 1.437338e+01 -3.073000e+02
    endloop
  endfacet
  facet normal -1.000000e+00 2.442554e-14 2.731020e-12
    outer loop
      vertex -1.638140e+02 1.508246e+01 -3.072751e+02
      vertex -1.638140e+02 1.512630e+01 -3.085244e+02
      vertex -1.638140e+02 1.437338e+01 -3.073000e+02
    endloop
  endfacet
  facet normal -9.238795e-01 -1.341863e-02 3.824481e-01
    outer loop
      vertex -1.635943e+02 1.435478e+01 -3.067700e+02
      vertex -1.638140e+02 1.508246e+01 -3.072751e+02
      vertex -1.638140e+02 1.437338e+01 -3.073000e+02
    endloop
  endfacet
  facet normal 2.726870e-12 -3.506457e-02 9.993850e-01
    outer loop
      vertex -1.265640e+02 1.278506e+01 -3.039536e+02
      vertex -1.638140e+02 1.425416e+01 -3.039021e+02
      vertex -1.638140e+02 1.278506e+01 -3.039536e+02
    endloop
  endfacet
  facet normal 2.726870e-12 -3.506457e-02 9.993850e-01
    outer loop
      vertex -1.265640e+02 1.425416e+01 -3.039021e+02
      vertex -1.638140e+02 1.425416e+01 -3.039021e+02
      vertex -1.265640e+02 1.278506e+01 -3.039536e+02
    endloop
  endfacet
  facet normal 9.386214e-14 9.993850e-01 3.506457e-02
    outer loop
      vertex -1.630640e+02 1.434708e+01 -3.065505e+02
      vertex -1.638140e+02 1.425416e+01 -3.039021e+02
      vertex -1.265640e+02 1.425416e+01 -3.039021e+02
    endloop
  endfacet
  facet normal 8.748706e-14 9.993850e-01 3.506457e-02
    outer loop
      vertex -1.635943e+02 1.435478e+01 -3.067700e+02
      vertex -1.638140e+02 1.425416e+01 -3.039021e+02
      vertex -1.630640e+02 1.434708e+01 -3.065505e+02
    endloop
  endfacet
  facet normal -1.000000e+00 -1.539427e-15 2.730091e-12
    outer loop
      vertex -1.638140e+02 1.654198e+01 -3.817703e+02
      vertex -1.638140e+02 1.552888e+01 -3.821560e+02
      vertex -1.638140e+02 1.278506e+01 -3.039536e+02
    endloop
  endfacet
  facet normal -9.406107e-14 -9.993850e-01 -3.506457e-02
    outer loop
      vertex -1.501550e+02 1.400883e+01 -3.388327e+02
      vertex -1.638140e+02 1.278506e+01 -3.039536e+02
      vertex -1.638140e+02 1.552888e+01 -3.821560e+02
    endloop
  endfacet
  facet normal -1.000000e+00 -2.051055e-16 2.730156e-12
    outer loop
      vertex -1.638140e+02 1.640172e+01 -3.777727e+02
      vertex -1.638140e+02 1.654198e+01 -3.817703e+02
      vertex -1.638140e+02 1.278506e+01 -3.039536e+02
    endloop
  endfacet
  facet normal -1.000000e+00 5.847051e-15 2.730452e-12
    outer loop
      vertex -1.638140e+02 1.803451e+01 -3.764647e+02
      vertex -1.638140e+02 1.640172e+01 -3.777727e+02
      vertex -1.638140e+02 1.278506e+01 -3.039536e+02
    endloop
  endfacet
  facet normal -9.386624e-14 -9.993850e-01 -3.506457e-02
    outer loop
      vertex -1.501550e+02 1.392117e+01 -3.363342e+02
      vertex -1.265640e+02 1.278506e+01 -3.039536e+02
      vertex -1.638140e+02 1.278506e+01 -3.039536e+02
    endloop
  endfacet
  facet normal -9.332408e-14 -9.993850e-01 -3.506457e-02
    outer loop
      vertex -1.501550e+02 1.400883e+01 -3.388327e+02
      vertex -1.501550e+02 1.392117e+01 -3.363342e+02
      vertex -1.638140e+02 1.278506e+01 -3.039536e+02
    endloop
  endfacet
  facet normal -1.000000e+00 -5.227742e-15 2.762482e-12
    outer loop
      vertex -1.638140e+02 1.768628e+01 -3.817301e+02
      vertex -1.638140e+02 1.769855e+01 -3.820799e+02
      vertex -1.638140e+02 1.552888e+01 -3.821560e+02
    endloop
  endfacet
  facet normal -2.727060e-12 3.506457e-02 -9.993850e-01
    outer loop
      vertex -9.574862e+00 1.769855e+01 -3.820799e+02
      vertex -1.638140e+02 1.552888e+01 -3.821560e+02
      vertex -1.638140e+02 1.769855e+01 -3.820799e+02
    endloop
  endfacet
  facet normal -1.000000e+00 4.080352e-15 2.715333e-12
    outer loop
      vertex -1.638140e+02 1.654198e+01 -3.817703e+02
      vertex -1.638140e+02 1.768628e+01 -3.817301e+02
      vertex -1.638140e+02 1.552888e+01 -3.821560e+02
    endloop
  endfacet
  facet normal -2.727797e-12 3.506457e-02 -9.993850e-01
    outer loop
      vertex -9.574862e+00 1.552888e+01 -3.821560e+02
      vertex -1.638140e+02 1.552888e+01 -3.821560e+02
      vertex -9.574862e+00 1.769855e+01 -3.820799e+02
    endloop
  endfacet
  facet normal -9.393328e-14 -9.993850e-01 -3.506457e-02
    outer loop
      vertex -1.501550e+02 1.400883e+01 -3.388327e+02
      vertex -1.638140e+02 1.552888e+01 -3.821560e+02
      vertex -9.574862e+00 1.552888e+01 -3.821560e+02
    endloop
  endfacet
  facet normal 6.741743e-14 9.993850e-01 3.506457e-02
    outer loop
      vertex -1.635943e+02 1.766768e+01 -3.812001e+02
      vertex -1.638140e+02 1.769855e+01 -3.820799e+02
      vertex -1.638140e+02 1.768628e+01 -3.817301e+02
    endloop
  endfacet
  facet normal 9.395064e-14 9.993850e-01 3.506457e-02
    outer loop
      vertex -1.025371e+01 1.765998e+01 -3.809806e+02
      vertex -1.638140e+02 1.769855e+01 -3.820799e+02
      vertex -1.630640e+02 1.765998e+01 -3.809806e+02
    endloop
  endfacet
  facet normal 9.299348e-14 9.993850e-01 3.506457e-02
    outer loop
      vertex -1.635943e+02 1.766768e+01 -3.812001e+02
      vertex -1.630640e+02 1.765998e+01 -3.809806e+02
      vertex -1.638140e+02 1.769855e+01 -3.820799e+02
    endloop
  endfacet
  facet normal 9.392338e-14 9.993850e-01 3.506457e-02
    outer loop
      vertex -9.653375e+00 1.767053e+01 -3.812814e+02
      vertex -1.638140e+02 1.769855e+01 -3.820799e+02
      vertex -1.025371e+01 1.765998e+01 -3.809806e+02
    endloop
  endfacet
  facet normal 9.393037e-14 9.993850e-01 3.506457e-02
    outer loop
      vertex -9.653375e+00 1.767053e+01 -3.812814e+02
      vertex -9.574862e+00 1.769855e+01 -3.820799e+02
      vertex -1.638140e+02 1.769855e+01 -3.820799e+02
    endloop
  endfacet
  facet normal -9.238795e-01 -1.341863e-02 3.824481e-01
    outer loop
      vertex -1.635943e+02 1.652338e+01 -3.812403e+02
      vertex -1.638140e+02 1.768628e+01 -3.817301e+02
      vertex -1.638140e+02 1.654198e+01 -3.817703e+02
    endloop
  endfacet
  facet normal -9.238795e-01 -1.341863e-02 3.824481e-01
    outer loop
      vertex -1.635943e+02 1.766768e+01 -3.812001e+02
      vertex -1.638140e+02 1.768628e+01 -3.817301e+02
      vertex -1.635943e+02 1.652338e+01 -3.812403e+02
    endloop
  endfacet
  facet normal 7.764286e-14 9.993850e-01 3.506457e-02
    outer loop
      vertex -1.635943e+02 1.642032e+01 -3.783027e+02
      vertex -1.638140e+02 1.654198e+01 -3.817703e+02
      vertex -1.638140e+02 1.640172e+01 -3.777727e+02
    endloop
  endfacet
  facet normal 8.947594e-14 9.993850e-01 3.506457e-02
    outer loop
      vertex -1.635943e+02 1.652338e+01 -3.812403e+02
      vertex -1.638140e+02 1.654198e+01 -3.817703e+02
      vertex -1.635943e+02 1.642032e+01 -3.783027e+02
    endloop
  endfacet
  facet normal -1.000000e+00 5.912638e-15 2.730370e-12
    outer loop
      vertex -1.638140e+02 1.803451e+01 -3.764647e+02
      vertex -1.638140e+02 1.807834e+01 -3.777139e+02
      vertex -1.638140e+02 1.640172e+01 -3.777727e+02
    endloop
  endfacet
  facet normal -9.238795e-01 1.341863e-02 -3.824481e-01
    outer loop
      vertex -1.635943e+02 1.809694e+01 -3.782439e+02
      vertex -1.638140e+02 1.640172e+01 -3.777727e+02
      vertex -1.638140e+02 1.807834e+01 -3.777139e+02
    endloop
  endfacet
  facet normal -9.238795e-01 1.341863e-02 -3.824481e-01
    outer loop
      vertex -1.635943e+02 1.809694e+01 -3.782439e+02
      vertex -1.635943e+02 1.642032e+01 -3.783027e+02
      vertex -1.638140e+02 1.640172e+01 -3.777727e+02
    endloop
  endfacet
  facet normal 9.392703e-14 9.993850e-01 3.506457e-02
    outer loop
      vertex -8.070011e+00 1.803451e+01 -3.764647e+02
      vertex -1.638140e+02 1.807834e+01 -3.777139e+02
      vertex -1.638140e+02 1.803451e+01 -3.764647e+02
    endloop
  endfacet
  facet normal 9.390305e-14 9.993850e-01 3.506457e-02
    outer loop
      vertex -1.635943e+02 1.809694e+01 -3.782439e+02
      vertex -1.638140e+02 1.807834e+01 -3.777139e+02
      vertex -8.070011e+00 1.803451e+01 -3.764647e+02
    endloop
  endfacet
  facet normal -1.000000e+00 -9.564310e-14 2.725951e-12
    outer loop
      vertex -1.638140e+02 1.522623e+01 -3.085209e+02
      vertex -1.638140e+02 1.811948e+01 -3.764617e+02
      vertex -1.638140e+02 1.803451e+01 -3.764647e+02
    endloop
  endfacet
  facet normal -2.729163e-12 3.506457e-02 -9.993850e-01
    outer loop
      vertex -8.070011e+00 1.811948e+01 -3.764617e+02
      vertex -1.638140e+02 1.803451e+01 -3.764647e+02
      vertex -1.638140e+02 1.811948e+01 -3.764617e+02
    endloop
  endfacet
  facet normal -1.000000e+00 -9.564310e-14 2.725951e-12
    outer loop
      vertex -1.638140e+02 1.512630e+01 -3.085244e+02
      vertex -1.638140e+02 1.522623e+01 -3.085209e+02
      vertex -1.638140e+02 1.803451e+01 -3.764647e+02
    endloop
  endfacet
  facet normal -2.728434e-12 3.506457e-02 -9.993850e-01
    outer loop
      vertex -8.070011e+00 1.803451e+01 -3.764647e+02
      vertex -1.638140e+02 1.803451e+01 -3.764647e+02
      vertex -8.070011e+00 1.811948e+01 -3.764617e+02
    endloop
  endfacet
  facet normal 1.140960e-13 9.990945e-01 4.254626e-02
    outer loop
      vertex -1.501550e+02 1.640695e+01 -3.362470e+02
      vertex -1.638140e+02 1.811948e+01 -3.764617e+02
      vertex -1.638140e+02 1.522623e+01 -3.085209e+02
    endloop
  endfacet
  facet normal 1.143725e-13 9.990945e-01 4.254626e-02
    outer loop
      vertex -1.501550e+02 1.651332e+01 -3.387448e+02
      vertex -6.041400e+01 1.651332e+01 -3.387448e+02
      vertex -1.638140e+02 1.811948e+01 -3.764617e+02
    endloop
  endfacet
  facet normal 1.143840e-13 9.990945e-01 4.254626e-02
    outer loop
      vertex -8.070011e+00 1.811948e+01 -3.764617e+02
      vertex -1.638140e+02 1.811948e+01 -3.764617e+02
      vertex -6.041400e+01 1.651332e+01 -3.387448e+02
    endloop
  endfacet
  facet normal 1.203972e-13 9.990945e-01 4.254626e-02
    outer loop
      vertex -1.501550e+02 1.640695e+01 -3.362470e+02
      vertex -1.501550e+02 1.651332e+01 -3.387448e+02
      vertex -1.638140e+02 1.811948e+01 -3.764617e+02
    endloop
  endfacet
  facet normal 2.728545e-12 -3.506457e-02 9.993850e-01
    outer loop
      vertex -9.742036e+00 1.512630e+01 -3.085244e+02
      vertex -1.638140e+02 1.522623e+01 -3.085209e+02
      vertex -1.638140e+02 1.512630e+01 -3.085244e+02
    endloop
  endfacet
  facet normal 1.143445e-13 9.990945e-01 4.254626e-02
    outer loop
      vertex -9.742036e+00 1.522623e+01 -3.085209e+02
      vertex -1.501550e+02 1.640695e+01 -3.362470e+02
      vertex -1.638140e+02 1.522623e+01 -3.085209e+02
    endloop
  endfacet
  facet normal 2.727069e-12 -3.506457e-02 9.993850e-01
    outer loop
      vertex -9.742036e+00 1.512630e+01 -3.085244e+02
      vertex -9.742036e+00 1.522623e+01 -3.085209e+02
      vertex -1.638140e+02 1.522623e+01 -3.085209e+02
    endloop
  endfacet
  facet normal 6.153308e-14 9.993850e-01 3.506457e-02
    outer loop
      vertex -1.635943e+02 1.506387e+01 -3.067451e+02
      vertex -1.638140e+02 1.512630e+01 -3.085244e+02
      vertex -1.638140e+02 1.508246e+01 -3.072751e+02
    endloop
  endfacet
  facet normal 9.394105e-14 9.993850e-01 3.506457e-02
    outer loop
      vertex -1.078977e+01 1.505617e+01 -3.065256e+02
      vertex -1.638140e+02 1.512630e+01 -3.085244e+02
      vertex -1.630640e+02 1.505617e+01 -3.065256e+02
    endloop
  endfacet
  facet normal 1.011762e-13 9.993850e-01 3.506457e-02
    outer loop
      vertex -1.635943e+02 1.506387e+01 -3.067451e+02
      vertex -1.630640e+02 1.505617e+01 -3.065256e+02
      vertex -1.638140e+02 1.512630e+01 -3.085244e+02
    endloop
  endfacet
  facet normal 9.343934e-14 9.993850e-01 3.506457e-02
    outer loop
      vertex -1.032146e+01 1.506192e+01 -3.066897e+02
      vertex -1.638140e+02 1.512630e+01 -3.085244e+02
      vertex -1.078977e+01 1.505617e+01 -3.065256e+02
    endloop
  endfacet
  facet normal 9.390593e-14 9.993850e-01 3.506457e-02
    outer loop
      vertex -9.898844e+00 1.510155e+01 -3.078191e+02
      vertex -1.638140e+02 1.512630e+01 -3.085244e+02
      vertex -1.005818e+01 1.507667e+01 -3.071101e+02
    endloop
  endfacet
  facet normal 9.403600e-14 9.993850e-01 3.506457e-02
    outer loop
      vertex -1.032146e+01 1.506192e+01 -3.066897e+02
      vertex -1.005818e+01 1.507667e+01 -3.071101e+02
      vertex -1.638140e+02 1.512630e+01 -3.085244e+02
    endloop
  endfacet
  facet normal 9.393445e-14 9.993850e-01 3.506457e-02
    outer loop
      vertex -9.742036e+00 1.512630e+01 -3.085244e+02
      vertex -1.638140e+02 1.512630e+01 -3.085244e+02
      vertex -9.898844e+00 1.510155e+01 -3.078191e+02
    endloop
  endfacet
  facet normal -9.238795e-01 -1.341863e-02 3.824481e-01
    outer loop
      vertex -1.635943e+02 1.506387e+01 -3.067451e+02
      vertex -1.638140e+02 1.508246e+01 -3.072751e+02
      vertex -1.635943e+02 1.435478e+01 -3.067700e+02
    endloop
  endfacet
  facet normal 7.071068e-01 -2.479440e-02 7.066719e-01
    outer loop
      vertex -1.265140e+02 1.425591e+01 -3.039521e+02
      vertex -1.265640e+02 1.425416e+01 -3.039021e+02
      vertex -1.265640e+02 1.278506e+01 -3.039536e+02
    endloop
  endfacet
  facet normal 7.071068e-01 -2.479440e-02 7.066719e-01
    outer loop
      vertex -1.265140e+02 1.278682e+01 -3.040036e+02
      vertex -1.265140e+02 1.425591e+01 -3.039521e+02
      vertex -1.265640e+02 1.278506e+01 -3.039536e+02
    endloop
  endfacet
  facet normal -1.348337e-13 -9.993850e-01 -3.506457e-02
    outer loop
      vertex -1.265140e+02 1.282013e+01 -3.049530e+02
      vertex -1.265140e+02 1.278682e+01 -3.040036e+02
      vertex -1.265640e+02 1.278506e+01 -3.039536e+02
    endloop
  endfacet
  facet normal -1.161050e-12 -9.993850e-01 -3.506457e-02
    outer loop
      vertex -1.265140e+02 1.282363e+01 -3.050530e+02
      vertex -1.265140e+02 1.282013e+01 -3.049530e+02
      vertex -1.265640e+02 1.278506e+01 -3.039536e+02
    endloop
  endfacet
  facet normal -9.071814e-14 -9.993850e-01 -3.506457e-02
    outer loop
      vertex -1.501550e+02 1.392117e+01 -3.363342e+02
      vertex -1.265140e+02 1.282363e+01 -3.050530e+02
      vertex -1.265640e+02 1.278506e+01 -3.039536e+02
    endloop
  endfacet
  facet normal 9.256954e-14 9.993850e-01 3.506457e-02
    outer loop
      vertex -1.265140e+02 1.425591e+01 -3.039521e+02
      vertex -1.630640e+02 1.434708e+01 -3.065505e+02
      vertex -1.265640e+02 1.425416e+01 -3.039021e+02
    endloop
  endfacet
  facet normal 9.394106e-14 9.993850e-01 3.506457e-02
    outer loop
      vertex -1.264140e+02 1.429273e+01 -3.050014e+02
      vertex -1.078977e+01 1.434708e+01 -3.065505e+02
      vertex -1.630640e+02 1.434708e+01 -3.065505e+02
    endloop
  endfacet
  facet normal 2.728674e-12 -3.506457e-02 9.993850e-01
    outer loop
      vertex -1.630640e+02 1.505617e+01 -3.065256e+02
      vertex -1.630640e+02 1.434708e+01 -3.065505e+02
      vertex -1.078977e+01 1.434708e+01 -3.065505e+02
    endloop
  endfacet
  facet normal 1.195914e-13 9.993850e-01 3.506457e-02
    outer loop
      vertex -1.265140e+02 1.429273e+01 -3.050014e+02
      vertex -1.264140e+02 1.429273e+01 -3.050014e+02
      vertex -1.630640e+02 1.434708e+01 -3.065505e+02
    endloop
  endfacet
  facet normal 9.194129e-14 9.993850e-01 3.506457e-02
    outer loop
      vertex -1.265140e+02 1.428922e+01 -3.049015e+02
      vertex -1.265140e+02 1.429273e+01 -3.050014e+02
      vertex -1.630640e+02 1.434708e+01 -3.065505e+02
    endloop
  endfacet
  facet normal 9.418790e-14 9.993850e-01 3.506457e-02
    outer loop
      vertex -1.265140e+02 1.425591e+01 -3.039521e+02
      vertex -1.265140e+02 1.428922e+01 -3.049015e+02
      vertex -1.630640e+02 1.434708e+01 -3.065505e+02
    endloop
  endfacet
  facet normal -3.826834e-01 -3.239544e-02 9.233114e-01
    outer loop
      vertex -1.635943e+02 1.506387e+01 -3.067451e+02
      vertex -1.635943e+02 1.435478e+01 -3.067700e+02
      vertex -1.630640e+02 1.434708e+01 -3.065505e+02
    endloop
  endfacet
  facet normal -3.826834e-01 -3.239544e-02 9.233114e-01
    outer loop
      vertex -1.635943e+02 1.506387e+01 -3.067451e+02
      vertex -1.630640e+02 1.434708e+01 -3.065505e+02
      vertex -1.630640e+02 1.505617e+01 -3.065256e+02
    endloop
  endfacet
  facet normal 9.784095e-14 9.993850e-01 3.506457e-02
    outer loop
      vertex -1.049094e+01 1.429273e+01 -3.050014e+02
      vertex -1.041712e+01 1.435056e+01 -3.066495e+02
      vertex -1.078977e+01 1.434708e+01 -3.065505e+02
    endloop
  endfacet
  facet normal 2.570681e-01 -3.388617e-02 9.657990e-01
    outer loop
      vertex -1.078977e+01 1.505617e+01 -3.065256e+02
      vertex -1.078977e+01 1.434708e+01 -3.065505e+02
      vertex -1.041712e+01 1.435056e+01 -3.066495e+02
    endloop
  endfacet
  facet normal 9.392956e-14 9.993850e-01 3.506457e-02
    outer loop
      vertex -1.264140e+02 1.429273e+01 -3.050014e+02
      vertex -1.049094e+01 1.429273e+01 -3.050014e+02
      vertex -1.078977e+01 1.434708e+01 -3.065505e+02
    endloop
  endfacet
  facet normal 2.728674e-12 -3.506457e-02 9.993850e-01
    outer loop
      vertex -1.078977e+01 1.505617e+01 -3.065256e+02
      vertex -1.630640e+02 1.505617e+01 -3.065256e+02
      vertex -1.078977e+01 1.434708e+01 -3.065505e+02
    endloop
  endfacet
  facet normal 9.854740e-14 9.993850e-01 3.506457e-02
    outer loop
      vertex -1.049094e+01 1.429273e+01 -3.050014e+02
      vertex -1.011129e+01 1.435935e+01 -3.069003e+02
      vertex -1.041712e+01 1.435056e+01 -3.066495e+02
    endloop
  endfacet
  facet normal 6.341463e-01 -4.172171e-02 7.720867e-01
    outer loop
      vertex -1.032146e+01 1.506192e+01 -3.066897e+02
      vertex -1.041712e+01 1.435056e+01 -3.066495e+02
      vertex -1.011129e+01 1.435935e+01 -3.069003e+02
    endloop
  endfacet
  facet normal 3.305452e-01 8.791355e-03 9.437492e-01
    outer loop
      vertex -1.032146e+01 1.506192e+01 -3.066897e+02
      vertex -1.078977e+01 1.505617e+01 -3.065256e+02
      vertex -1.041712e+01 1.435056e+01 -3.066495e+02
    endloop
  endfacet
  facet normal 9.806147e-01 -6.870767e-03 1.958256e-01
    outer loop
      vertex -1.011129e+01 1.289026e+01 -3.069518e+02
      vertex -1.011129e+01 1.435935e+01 -3.069003e+02
      vertex -1.049094e+01 1.429273e+01 -3.050014e+02
    endloop
  endfacet
  facet normal 9.813576e-01 -6.739076e-03 1.920723e-01
    outer loop
      vertex -6.960258e+00 1.345443e+01 -3.230316e+02
      vertex -1.011129e+01 1.435935e+01 -3.069003e+02
      vertex -1.011129e+01 1.289026e+01 -3.069518e+02
    endloop
  endfacet
  facet normal 8.945416e-01 4.206572e-01 1.511384e-01
    outer loop
      vertex -1.009239e+01 1.436370e+01 -3.070242e+02
      vertex -1.011129e+01 1.435935e+01 -3.069003e+02
      vertex -6.960258e+00 1.345443e+01 -3.230316e+02
    endloop
  endfacet
  facet normal 9.583058e-01 2.403528e-01 1.545335e-01
    outer loop
      vertex -1.032146e+01 1.506192e+01 -3.066897e+02
      vertex -1.011129e+01 1.435935e+01 -3.069003e+02
      vertex -1.009239e+01 1.436370e+01 -3.070242e+02
    endloop
  endfacet
  facet normal 2.728680e-12 -3.506457e-02 9.993850e-01
    outer loop
      vertex -1.049094e+01 1.282363e+01 -3.050530e+02
      vertex -1.049094e+01 1.429273e+01 -3.050014e+02
      vertex -1.264140e+02 1.429273e+01 -3.050014e+02
    endloop
  endfacet
  facet normal 9.806147e-01 -6.870767e-03 1.958256e-01
    outer loop
      vertex -1.011129e+01 1.289026e+01 -3.069518e+02
      vertex -1.049094e+01 1.429273e+01 -3.050014e+02
      vertex -1.049094e+01 1.282363e+01 -3.050530e+02
    endloop
  endfacet
  facet normal 3.408555e-12 -3.506457e-02 9.993850e-01
    outer loop
      vertex -1.264140e+02 1.282363e+01 -3.050530e+02
      vertex -1.264140e+02 1.429273e+01 -3.050014e+02
      vertex -1.265140e+02 1.429273e+01 -3.050014e+02
    endloop
  endfacet
  facet normal 2.726716e-12 -3.506457e-02 9.993850e-01
    outer loop
      vertex -1.049094e+01 1.282363e+01 -3.050530e+02
      vertex -1.264140e+02 1.429273e+01 -3.050014e+02
      vertex -1.264140e+02 1.282363e+01 -3.050530e+02
    endloop
  endfacet
  facet normal 1.000000e+00 -6.919478e-15 -2.559771e-12
    outer loop
      vertex -1.265140e+02 1.282363e+01 -3.050530e+02
      vertex -1.265140e+02 1.429273e+01 -3.050014e+02
      vertex -1.265140e+02 1.428922e+01 -3.049015e+02
    endloop
  endfacet
  facet normal 3.408508e-12 -3.506457e-02 9.993850e-01
    outer loop
      vertex -1.264140e+02 1.282363e+01 -3.050530e+02
      vertex -1.265140e+02 1.429273e+01 -3.050014e+02
      vertex -1.265140e+02 1.282363e+01 -3.050530e+02
    endloop
  endfacet
  facet normal 1.000000e+00 9.036109e-15 -2.738827e-12
    outer loop
      vertex -1.265140e+02 1.278682e+01 -3.040036e+02
      vertex -1.265140e+02 1.428922e+01 -3.049015e+02
      vertex -1.265140e+02 1.425591e+01 -3.039521e+02
    endloop
  endfacet
  facet normal 1.000000e+00 -1.006702e-16 -2.754115e-12
    outer loop
      vertex -1.265140e+02 1.282013e+01 -3.049530e+02
      vertex -1.265140e+02 1.428922e+01 -3.049015e+02
      vertex -1.265140e+02 1.278682e+01 -3.040036e+02
    endloop
  endfacet
  facet normal 1.000000e+00 -6.919478e-15 -2.559771e-12
    outer loop
      vertex -1.265140e+02 1.282363e+01 -3.050530e+02
      vertex -1.265140e+02 1.428922e+01 -3.049015e+02
      vertex -1.265140e+02 1.282013e+01 -3.049530e+02
    endloop
  endfacet
  facet normal 2.728408e-12 -3.506457e-02 9.993850e-01
    outer loop
      vertex -6.041400e+01 1.400883e+01 -3.388327e+02
      vertex -6.041400e+01 1.651332e+01 -3.387448e+02
      vertex -1.501550e+02 1.651332e+01 -3.387448e+02
    endloop
  endfacet
  facet normal 1.098897e-13 9.990945e-01 4.254626e-02
    outer loop
      vertex -9.742036e+00 1.522623e+01 -3.085209e+02
      vertex -6.041400e+01 1.651332e+01 -3.387448e+02
      vertex -5.916443e+01 1.646013e+01 -3.374959e+02
    endloop
  endfacet
  facet normal -7.072286e-01 -2.479014e-02 7.065502e-01
    outer loop
      vertex -5.916443e+01 1.396500e+01 -3.375835e+02
      vertex -5.916443e+01 1.646013e+01 -3.374959e+02
      vertex -6.041400e+01 1.651332e+01 -3.387448e+02
    endloop
  endfacet
  facet normal 1.143121e-13 9.990945e-01 4.254626e-02
    outer loop
      vertex -8.070011e+00 1.811948e+01 -3.764617e+02
      vertex -6.041400e+01 1.651332e+01 -3.387448e+02
      vertex -9.742036e+00 1.522623e+01 -3.085209e+02
    endloop
  endfacet
  facet normal -7.072286e-01 -2.479012e-02 7.065502e-01
    outer loop
      vertex -5.916443e+01 1.396500e+01 -3.375835e+02
      vertex -6.041400e+01 1.651332e+01 -3.387448e+02
      vertex -6.041400e+01 1.400883e+01 -3.388327e+02
    endloop
  endfacet
  facet normal 1.000000e+00 4.339634e-15 -2.730696e-12
    outer loop
      vertex -1.501550e+02 1.392117e+01 -3.363342e+02
      vertex -1.501550e+02 1.651332e+01 -3.387448e+02
      vertex -1.501550e+02 1.640695e+01 -3.362470e+02
    endloop
  endfacet
  facet normal 2.728410e-12 -3.506457e-02 9.993850e-01
    outer loop
      vertex -1.501550e+02 1.400883e+01 -3.388327e+02
      vertex -6.041400e+01 1.400883e+01 -3.388327e+02
      vertex -1.501550e+02 1.651332e+01 -3.387448e+02
    endloop
  endfacet
  facet normal 1.000000e+00 4.998028e-15 -2.729988e-12
    outer loop
      vertex -1.501550e+02 1.400883e+01 -3.388327e+02
      vertex -1.501550e+02 1.651332e+01 -3.387448e+02
      vertex -1.501550e+02 1.392117e+01 -3.363342e+02
    endloop
  endfacet
  facet normal 1.144262e-13 9.990945e-01 4.254626e-02
    outer loop
      vertex -9.742036e+00 1.522623e+01 -3.085209e+02
      vertex -6.041400e+01 1.640695e+01 -3.362470e+02
      vertex -1.501550e+02 1.640695e+01 -3.362470e+02
    endloop
  endfacet
  facet normal -2.729674e-12 3.506457e-02 -9.993850e-01
    outer loop
      vertex -1.501550e+02 1.392117e+01 -3.363342e+02
      vertex -1.501550e+02 1.640695e+01 -3.362470e+02
      vertex -6.041400e+01 1.640695e+01 -3.362470e+02
    endloop
  endfacet
  facet normal 1.154772e-13 9.990945e-01 4.254626e-02
    outer loop
      vertex -9.742036e+00 1.522623e+01 -3.085209e+02
      vertex -5.916443e+01 1.646013e+01 -3.374959e+02
      vertex -6.041400e+01 1.640695e+01 -3.362470e+02
    endloop
  endfacet
  facet normal -7.072286e-01 2.479012e-02 -7.065501e-01
    outer loop
      vertex -6.041400e+01 1.392117e+01 -3.363342e+02
      vertex -6.041400e+01 1.640695e+01 -3.362470e+02
      vertex -5.916443e+01 1.646013e+01 -3.374959e+02
    endloop
  endfacet
  facet normal -2.728410e-12 3.506457e-02 -9.993850e-01
    outer loop
      vertex -1.501550e+02 1.392117e+01 -3.363342e+02
      vertex -6.041400e+01 1.640695e+01 -3.362470e+02
      vertex -6.041400e+01 1.392117e+01 -3.363342e+02
    endloop
  endfacet
  facet normal -7.072286e-01 2.479006e-02 -7.065502e-01
    outer loop
      vertex -6.041400e+01 1.392117e+01 -3.363342e+02
      vertex -5.916443e+01 1.646013e+01 -3.374959e+02
      vertex -5.916443e+01 1.396500e+01 -3.375835e+02
    endloop
  endfacet
  facet normal 1.154265e-13 9.990945e-01 4.254626e-02
    outer loop
      vertex -6.902406e+00 1.585578e+01 -3.233042e+02
      vertex -8.070011e+00 1.811948e+01 -3.764617e+02
      vertex -9.742036e+00 1.522623e+01 -3.085209e+02
    endloop
  endfacet
  facet normal 9.820626e-01 -2.259617e-03 1.885419e-01
    outer loop
      vertex -6.960258e+00 1.345443e+01 -3.230316e+02
      vertex -6.902406e+00 1.585578e+01 -3.233042e+02
      vertex -9.742036e+00 1.522623e+01 -3.085209e+02
    endloop
  endfacet
  facet normal 9.819444e-01 -6.633150e-03 1.890532e-01
    outer loop
      vertex -9.742036e+00 1.512630e+01 -3.085244e+02
      vertex -6.960258e+00 1.345443e+01 -3.230316e+02
      vertex -9.742036e+00 1.522623e+01 -3.085209e+02
    endloop
  endfacet
  facet normal 1.110810e-13 9.990945e-01 4.254626e-02
    outer loop
      vertex -6.902406e+00 1.585578e+01 -3.233042e+02
      vertex -6.353959e+00 1.775733e+01 -3.679573e+02
      vertex -8.070011e+00 1.811948e+01 -3.764617e+02
    endloop
  endfacet
  facet normal 9.802764e-01 6.929864e-03 -1.975100e-01
    outer loop
      vertex -8.070011e+00 1.803451e+01 -3.764647e+02
      vertex -8.070011e+00 1.811948e+01 -3.764617e+02
      vertex -6.353959e+00 1.775733e+01 -3.679573e+02
    endloop
  endfacet
  facet normal 1.186661e-13 9.990945e-01 4.254626e-02
    outer loop
      vertex -5.263999e+00 1.643427e+01 -3.368887e+02
      vertex -5.263999e+00 1.737854e+01 -3.590625e+02
      vertex -6.353959e+00 1.775733e+01 -3.679573e+02
    endloop
  endfacet
  facet normal 9.891423e-01 -7.803408e-02 -1.245316e-01
    outer loop
      vertex -7.069208e+00 1.517322e+01 -3.720192e+02
      vertex -6.353959e+00 1.775733e+01 -3.679573e+02
      vertex -5.263999e+00 1.737854e+01 -3.590625e+02
    endloop
  endfacet
  facet normal 1.162464e-13 9.990945e-01 4.254626e-02
    outer loop
      vertex -6.902406e+00 1.585578e+01 -3.233042e+02
      vertex -5.263999e+00 1.643427e+01 -3.368887e+02
      vertex -6.353959e+00 1.775733e+01 -3.679573e+02
    endloop
  endfacet
  facet normal 9.798014e-01 3.754592e-02 -1.964166e-01
    outer loop
      vertex -8.070011e+00 1.803451e+01 -3.764647e+02
      vertex -6.353959e+00 1.775733e+01 -3.679573e+02
      vertex -7.069208e+00 1.517322e+01 -3.720192e+02
    endloop
  endfacet
  facet normal 7.071068e-01 7.064665e-01 3.008475e-02
    outer loop
      vertex -4.814644e+00 1.647937e+01 -3.485093e+02
      vertex -5.263999e+00 1.737854e+01 -3.590625e+02
      vertex -5.263999e+00 1.643427e+01 -3.368887e+02
    endloop
  endfacet
  facet normal 9.903078e-01 4.870460e-03 -1.388049e-01
    outer loop
      vertex -7.069208e+00 1.517322e+01 -3.720192e+02
      vertex -5.263999e+00 1.737854e+01 -3.590625e+02
      vertex -5.264000e+00 1.472189e+01 -3.591558e+02
    endloop
  endfacet
  facet normal 9.990990e-01 1.487918e-03 -4.241464e-02
    outer loop
      vertex -4.814644e+00 1.647937e+01 -3.485093e+02
      vertex -5.264000e+00 1.472189e+01 -3.591558e+02
      vertex -5.263999e+00 1.737854e+01 -3.590625e+02
    endloop
  endfacet
  facet normal 9.928177e-01 -4.194734e-03 1.195633e-01
    outer loop
      vertex -5.264000e+00 1.394369e+01 -3.369761e+02
      vertex -5.263999e+00 1.643427e+01 -3.368887e+02
      vertex -6.902406e+00 1.585578e+01 -3.233042e+02
    endloop
  endfacet
  facet normal 9.992447e-01 -1.362851e-03 3.883531e-02
    outer loop
      vertex -4.814301e+00 1.479859e+01 -3.485170e+02
      vertex -5.263999e+00 1.643427e+01 -3.368887e+02
      vertex -5.264000e+00 1.394369e+01 -3.369761e+02
    endloop
  endfacet
  facet normal 9.992532e-01 2.778032e-05 3.864003e-02
    outer loop
      vertex -4.814301e+00 1.479859e+01 -3.485170e+02
      vertex -4.814644e+00 1.647937e+01 -3.485093e+02
      vertex -5.263999e+00 1.643427e+01 -3.368887e+02
    endloop
  endfacet
  facet normal 9.926734e-01 -1.025028e-02 1.203929e-01
    outer loop
      vertex -5.264000e+00 1.394369e+01 -3.369761e+02
      vertex -6.902406e+00 1.585578e+01 -3.233042e+02
      vertex -6.960258e+00 1.345443e+01 -3.230316e+02
    endloop
  endfacet
  facet normal -2.728460e-12 3.506457e-02 -9.993850e-01
    outer loop
      vertex -1.630640e+02 1.642802e+01 -3.785223e+02
      vertex -1.630640e+02 1.810464e+01 -3.784634e+02
      vertex -9.153794e+00 1.810464e+01 -3.784634e+02
    endloop
  endfacet
  facet normal 9.392953e-14 9.993850e-01 3.506457e-02
    outer loop
      vertex -8.070011e+00 1.803451e+01 -3.764647e+02
      vertex -9.153794e+00 1.810464e+01 -3.784634e+02
      vertex -1.630640e+02 1.810464e+01 -3.784634e+02
    endloop
  endfacet
  facet normal -2.728460e-12 3.506457e-02 -9.993850e-01
    outer loop
      vertex -9.153794e+00 1.642802e+01 -3.785223e+02
      vertex -1.630640e+02 1.642802e+01 -3.785223e+02
      vertex -9.153794e+00 1.810464e+01 -3.784634e+02
    endloop
  endfacet
  facet normal 3.241685e-01 3.317106e-02 -9.454176e-01
    outer loop
      vertex -8.693799e+00 1.809911e+01 -3.783059e+02
      vertex -9.153794e+00 1.642802e+01 -3.785223e+02
      vertex -9.153794e+00 1.810464e+01 -3.784634e+02
    endloop
  endfacet
  facet normal 8.759580e-14 9.993850e-01 3.506457e-02
    outer loop
      vertex -8.693799e+00 1.809911e+01 -3.783059e+02
      vertex -9.153794e+00 1.810464e+01 -3.784634e+02
      vertex -8.070011e+00 1.803451e+01 -3.764647e+02
    endloop
  endfacet
  facet normal -3.826834e-01 3.239544e-02 -9.233114e-01
    outer loop
      vertex -1.635943e+02 1.642032e+01 -3.783027e+02
      vertex -1.630640e+02 1.810464e+01 -3.784634e+02
      vertex -1.630640e+02 1.642802e+01 -3.785223e+02
    endloop
  endfacet
  facet normal -3.826834e-01 3.239544e-02 -9.233114e-01
    outer loop
      vertex -1.635943e+02 1.809694e+01 -3.782439e+02
      vertex -1.630640e+02 1.810464e+01 -3.784634e+02
      vertex -1.635943e+02 1.642032e+01 -3.783027e+02
    endloop
  endfacet
  facet normal 9.389951e-14 9.993850e-01 3.506457e-02
    outer loop
      vertex -1.635943e+02 1.809694e+01 -3.782439e+02
      vertex -8.070011e+00 1.803451e+01 -3.764647e+02
      vertex -1.630640e+02 1.810464e+01 -3.784634e+02
    endloop
  endfacet
  facet normal 9.392953e-14 9.993850e-01 3.506457e-02
    outer loop
      vertex -1.630640e+02 1.651568e+01 -3.810207e+02
      vertex -1.630640e+02 1.642802e+01 -3.785223e+02
      vertex -9.153794e+00 1.642802e+01 -3.785223e+02
    endloop
  endfacet
  facet normal 8.824406e-14 9.993850e-01 3.506457e-02
    outer loop
      vertex -1.635943e+02 1.652338e+01 -3.812403e+02
      vertex -1.635943e+02 1.642032e+01 -3.783027e+02
      vertex -1.630640e+02 1.642802e+01 -3.785223e+02
    endloop
  endfacet
  facet normal 9.428144e-14 9.993850e-01 3.506457e-02
    outer loop
      vertex -1.630640e+02 1.651568e+01 -3.810207e+02
      vertex -1.635943e+02 1.652338e+01 -3.812403e+02
      vertex -1.630640e+02 1.642802e+01 -3.785223e+02
    endloop
  endfacet
  facet normal 9.554710e-14 9.993850e-01 3.506457e-02
    outer loop
      vertex -8.962205e+00 1.647895e+01 -3.799737e+02
      vertex -9.534274e+00 1.654941e+01 -3.819821e+02
      vertex -9.153794e+00 1.642802e+01 -3.785223e+02
    endloop
  endfacet
  facet normal 9.360081e-14 9.993850e-01 3.506457e-02
    outer loop
      vertex -9.653375e+00 1.652624e+01 -3.813215e+02
      vertex -9.153794e+00 1.642802e+01 -3.785223e+02
      vertex -9.534274e+00 1.654941e+01 -3.819821e+02
    endloop
  endfacet
  facet normal 1.043915e-13 9.993850e-01 3.506457e-02
    outer loop
      vertex -8.693799e+00 1.642249e+01 -3.783647e+02
      vertex -8.962205e+00 1.647895e+01 -3.799737e+02
      vertex -9.153794e+00 1.642802e+01 -3.785223e+02
    endloop
  endfacet
  facet normal 3.241685e-01 3.317106e-02 -9.454176e-01
    outer loop
      vertex -8.693799e+00 1.809911e+01 -3.783059e+02
      vertex -8.693799e+00 1.642249e+01 -3.783647e+02
      vertex -9.153794e+00 1.642802e+01 -3.785223e+02
    endloop
  endfacet
  facet normal 9.392455e-14 9.993850e-01 3.506457e-02
    outer loop
      vertex -1.025371e+01 1.651568e+01 -3.810207e+02
      vertex -1.630640e+02 1.651568e+01 -3.810207e+02
      vertex -9.153794e+00 1.642802e+01 -3.785223e+02
    endloop
  endfacet
  facet normal 9.692178e-14 9.993850e-01 3.506457e-02
    outer loop
      vertex -9.653375e+00 1.652624e+01 -3.813215e+02
      vertex -1.025371e+01 1.651568e+01 -3.810207e+02
      vertex -9.153794e+00 1.642802e+01 -3.785223e+02
    endloop
  endfacet
  facet normal 9.617881e-01 8.400066e-03 -2.736659e-01
    outer loop
      vertex -9.574862e+00 1.552888e+01 -3.821560e+02
      vertex -9.534274e+00 1.654941e+01 -3.819821e+02
      vertex -8.962205e+00 1.647895e+01 -3.799737e+02
    endloop
  endfacet
  facet normal 9.841484e-01 -6.218592e-03 1.772378e-01
    outer loop
      vertex -9.653375e+00 1.767053e+01 -3.812814e+02
      vertex -9.653375e+00 1.652624e+01 -3.813215e+02
      vertex -9.534274e+00 1.654941e+01 -3.819821e+02
    endloop
  endfacet
  facet normal 9.841484e-01 -6.218592e-03 1.772378e-01
    outer loop
      vertex -9.653375e+00 1.767053e+01 -3.812814e+02
      vertex -9.534274e+00 1.654941e+01 -3.819821e+02
      vertex -9.534274e+00 1.769371e+01 -3.819419e+02
    endloop
  endfacet
  facet normal 9.594092e-01 9.888829e-03 -2.818442e-01
    outer loop
      vertex -9.574862e+00 1.552888e+01 -3.821560e+02
      vertex -9.534274e+00 1.769371e+01 -3.819419e+02
      vertex -9.534274e+00 1.654941e+01 -3.819821e+02
    endloop
  endfacet
  facet normal 9.818581e-14 9.993850e-01 3.506457e-02
    outer loop
      vertex -8.693799e+00 1.642249e+01 -3.783647e+02
      vertex -8.427159e+00 1.640823e+01 -3.779584e+02
      vertex -8.962205e+00 1.647895e+01 -3.799737e+02
    endloop
  endfacet
  facet normal 9.657717e-01 -3.130889e-02 -2.574972e-01
    outer loop
      vertex -9.574862e+00 1.552888e+01 -3.821560e+02
      vertex -8.962205e+00 1.647895e+01 -3.799737e+02
      vertex -8.427159e+00 1.640823e+01 -3.779584e+02
    endloop
  endfacet
  facet normal 8.362442e-01 1.922791e-02 -5.480199e-01
    outer loop
      vertex -8.427159e+00 1.808485e+01 -3.778995e+02
      vertex -8.427159e+00 1.640823e+01 -3.779584e+02
      vertex -8.693799e+00 1.642249e+01 -3.783647e+02
    endloop
  endfacet
  facet normal 9.647203e-01 -1.034668e-01 -2.420937e-01
    outer loop
      vertex -7.069208e+00 1.517322e+01 -3.720192e+02
      vertex -9.574862e+00 1.552888e+01 -3.821560e+02
      vertex -8.427159e+00 1.640823e+01 -3.779584e+02
    endloop
  endfacet
  facet normal 9.744565e-01 -7.860405e-03 -2.244389e-01
    outer loop
      vertex -8.070011e+00 1.803451e+01 -3.764647e+02
      vertex -7.069208e+00 1.517322e+01 -3.720192e+02
      vertex -8.427159e+00 1.640823e+01 -3.779584e+02
    endloop
  endfacet
  facet normal 9.711938e-01 5.520256e-03 -2.382272e-01
    outer loop
      vertex -8.247505e+00 1.805988e+01 -3.771877e+02
      vertex -8.070011e+00 1.803451e+01 -3.764647e+02
      vertex -8.427159e+00 1.640823e+01 -3.779584e+02
    endloop
  endfacet
  facet normal 9.696338e-01 8.575444e-03 -2.444111e-01
    outer loop
      vertex -8.427159e+00 1.808485e+01 -3.778995e+02
      vertex -8.247505e+00 1.805988e+01 -3.771877e+02
      vertex -8.427159e+00 1.640823e+01 -3.779584e+02
    endloop
  endfacet
  facet normal 8.362442e-01 1.922791e-02 -5.480199e-01
    outer loop
      vertex -8.693799e+00 1.809911e+01 -3.783059e+02
      vertex -8.427159e+00 1.808485e+01 -3.778995e+02
      vertex -8.693799e+00 1.642249e+01 -3.783647e+02
    endloop
  endfacet
  facet normal -3.826834e-01 -3.239544e-02 9.233114e-01
    outer loop
      vertex -1.635943e+02 1.766768e+01 -3.812001e+02
      vertex -1.635943e+02 1.652338e+01 -3.812403e+02
      vertex -1.630640e+02 1.651568e+01 -3.810207e+02
    endloop
  endfacet
  facet normal 2.728024e-12 -3.506457e-02 9.993850e-01
    outer loop
      vertex -1.630640e+02 1.765998e+01 -3.809806e+02
      vertex -1.630640e+02 1.651568e+01 -3.810207e+02
      vertex -1.025371e+01 1.651568e+01 -3.810207e+02
    endloop
  endfacet
  facet normal -3.826834e-01 -3.239544e-02 9.233114e-01
    outer loop
      vertex -1.635943e+02 1.766768e+01 -3.812001e+02
      vertex -1.630640e+02 1.651568e+01 -3.810207e+02
      vertex -1.630640e+02 1.765998e+01 -3.809806e+02
    endloop
  endfacet
  facet normal 4.482048e-01 -3.134530e-02 8.933812e-01
    outer loop
      vertex -1.025371e+01 1.765998e+01 -3.809806e+02
      vertex -1.025371e+01 1.651568e+01 -3.810207e+02
      vertex -9.653375e+00 1.652624e+01 -3.813215e+02
    endloop
  endfacet
  facet normal 2.728767e-12 -3.506457e-02 9.993850e-01
    outer loop
      vertex -1.025371e+01 1.765998e+01 -3.809806e+02
      vertex -1.630640e+02 1.765998e+01 -3.809806e+02
      vertex -1.025371e+01 1.651568e+01 -3.810207e+02
    endloop
  endfacet
  facet normal 4.482048e-01 -3.134530e-02 8.933812e-01
    outer loop
      vertex -9.653375e+00 1.767053e+01 -3.812814e+02
      vertex -1.025371e+01 1.765998e+01 -3.809806e+02
      vertex -9.653375e+00 1.652624e+01 -3.813215e+02
    endloop
  endfacet
  facet normal 1.123619e-13 9.993850e-01 3.506457e-02
    outer loop
      vertex -8.693799e+00 1.809911e+01 -3.783059e+02
      vertex -8.070011e+00 1.803451e+01 -3.764647e+02
      vertex -8.427159e+00 1.808485e+01 -3.778995e+02
    endloop
  endfacet
  facet normal 1.109904e-12 9.993850e-01 3.506457e-02
    outer loop
      vertex -8.427159e+00 1.808485e+01 -3.778995e+02
      vertex -8.070011e+00 1.803451e+01 -3.764647e+02
      vertex -8.247505e+00 1.805988e+01 -3.771877e+02
    endloop
  endfacet
  facet normal 9.276914e-14 9.993850e-01 3.506457e-02
    outer loop
      vertex -9.653375e+00 1.767053e+01 -3.812814e+02
      vertex -9.534274e+00 1.769371e+01 -3.819419e+02
      vertex -9.574862e+00 1.769855e+01 -3.820799e+02
    endloop
  endfacet
  facet normal 9.594092e-01 9.888829e-03 -2.818442e-01
    outer loop
      vertex -9.574862e+00 1.552888e+01 -3.821560e+02
      vertex -9.574862e+00 1.769855e+01 -3.820799e+02
      vertex -9.534274e+00 1.769371e+01 -3.819419e+02
    endloop
  endfacet
  facet normal -9.719919e-14 -9.993850e-01 -3.506457e-02
    outer loop
      vertex -1.011129e+01 1.289026e+01 -3.069518e+02
      vertex -1.049094e+01 1.282363e+01 -3.050530e+02
      vertex -9.574862e+00 1.552888e+01 -3.821560e+02
    endloop
  endfacet
  facet normal -9.389669e-14 -9.993850e-01 -3.506457e-02
    outer loop
      vertex -5.916443e+01 1.396500e+01 -3.375835e+02
      vertex -9.574862e+00 1.552888e+01 -3.821560e+02
      vertex -1.049094e+01 1.282363e+01 -3.050530e+02
    endloop
  endfacet
  facet normal -9.534084e-14 -9.993850e-01 -3.506457e-02
    outer loop
      vertex -7.069208e+00 1.517322e+01 -3.720192e+02
      vertex -1.011129e+01 1.289026e+01 -3.069518e+02
      vertex -9.574862e+00 1.552888e+01 -3.821560e+02
    endloop
  endfacet
  facet normal -9.478384e-14 -9.993850e-01 -3.506457e-02
    outer loop
      vertex -5.916443e+01 1.396500e+01 -3.375835e+02
      vertex -6.041400e+01 1.400883e+01 -3.388327e+02
      vertex -9.574862e+00 1.552888e+01 -3.821560e+02
    endloop
  endfacet
  facet normal -9.390719e-14 -9.993850e-01 -3.506457e-02
    outer loop
      vertex -1.501550e+02 1.400883e+01 -3.388327e+02
      vertex -9.574862e+00 1.552888e+01 -3.821560e+02
      vertex -6.041400e+01 1.400883e+01 -3.388327e+02
    endloop
  endfacet
  facet normal -1.203136e-13 -9.993850e-01 -3.506457e-02
    outer loop
      vertex -6.041400e+01 1.392117e+01 -3.363342e+02
      vertex -1.264140e+02 1.282363e+01 -3.050530e+02
      vertex -1.265140e+02 1.282363e+01 -3.050530e+02
    endloop
  endfacet
  facet normal -9.390719e-14 -9.993850e-01 -3.506457e-02
    outer loop
      vertex -1.501550e+02 1.392117e+01 -3.363342e+02
      vertex -6.041400e+01 1.392117e+01 -3.363342e+02
      vertex -1.265140e+02 1.282363e+01 -3.050530e+02
    endloop
  endfacet
  facet normal -9.395312e-14 -9.993850e-01 -3.506457e-02
    outer loop
      vertex -6.041400e+01 1.392117e+01 -3.363342e+02
      vertex -1.049094e+01 1.282363e+01 -3.050530e+02
      vertex -1.264140e+02 1.282363e+01 -3.050530e+02
    endloop
  endfacet
  facet normal -9.487359e-14 -9.993850e-01 -3.506457e-02
    outer loop
      vertex -6.041400e+01 1.392117e+01 -3.363342e+02
      vertex -5.916443e+01 1.396500e+01 -3.375835e+02
      vertex -1.049094e+01 1.282363e+01 -3.050530e+02
    endloop
  endfacet
  facet normal -9.242869e-14 -9.993850e-01 -3.506457e-02
    outer loop
      vertex -7.069208e+00 1.517322e+01 -3.720192e+02
      vertex -6.960258e+00 1.345443e+01 -3.230316e+02
      vertex -1.011129e+01 1.289026e+01 -3.069518e+02
    endloop
  endfacet
  facet normal -9.154138e-14 -9.993850e-01 -3.506457e-02
    outer loop
      vertex -5.264000e+00 1.472189e+01 -3.591558e+02
      vertex -5.264000e+00 1.394369e+01 -3.369761e+02
      vertex -6.960258e+00 1.345443e+01 -3.230316e+02
    endloop
  endfacet
  facet normal -9.281081e-14 -9.993850e-01 -3.506457e-02
    outer loop
      vertex -7.069208e+00 1.517322e+01 -3.720192e+02
      vertex -5.264000e+00 1.472189e+01 -3.591558e+02
      vertex -6.960258e+00 1.345443e+01 -3.230316e+02
    endloop
  endfacet
  facet normal 9.814407e-01 -6.724195e-03 1.916481e-01
    outer loop
      vertex -1.005818e+01 1.507667e+01 -3.071101e+02
      vertex -1.005818e+01 1.436759e+01 -3.071349e+02
      vertex -6.960258e+00 1.345443e+01 -3.230316e+02
    endloop
  endfacet
  facet normal 6.214321e-01 -7.658752e-01 1.650981e-01
    outer loop
      vertex -1.009239e+01 1.436370e+01 -3.070242e+02
      vertex -6.960258e+00 1.345443e+01 -3.230316e+02
      vertex -1.005818e+01 1.436759e+01 -3.071349e+02
    endloop
  endfacet
  facet normal 9.554021e-01 -2.102948e-01 2.073234e-01
    outer loop
      vertex -9.898844e+00 1.510155e+01 -3.078191e+02
      vertex -1.005818e+01 1.507667e+01 -3.071101e+02
      vertex -6.960258e+00 1.345443e+01 -3.230316e+02
    endloop
  endfacet
  facet normal 9.588366e-01 -1.950805e-01 2.063396e-01
    outer loop
      vertex -9.742036e+00 1.512630e+01 -3.085244e+02
      vertex -9.898844e+00 1.510155e+01 -3.078191e+02
      vertex -6.960258e+00 1.345443e+01 -3.230316e+02
    endloop
  endfacet
  facet normal 7.071068e-01 -7.066719e-01 -2.479440e-02
    outer loop
      vertex -4.814301e+00 1.479859e+01 -3.485170e+02
      vertex -5.264000e+00 1.394369e+01 -3.369761e+02
      vertex -5.264000e+00 1.472189e+01 -3.591558e+02
    endloop
  endfacet
  facet normal 9.991076e-01 3.969151e-04 -4.223490e-02
    outer loop
      vertex -4.814301e+00 1.479859e+01 -3.485170e+02
      vertex -5.264000e+00 1.472189e+01 -3.591558e+02
      vertex -4.814644e+00 1.647937e+01 -3.485093e+02
    endloop
  endfacet
  facet normal 8.476639e-01 -1.860294e-02 5.302074e-01
    outer loop
      vertex -1.032146e+01 1.506192e+01 -3.066897e+02
      vertex -1.005818e+01 1.436759e+01 -3.071349e+02
      vertex -1.005818e+01 1.507667e+01 -3.071101e+02
    endloop
  endfacet
  facet normal 9.404435e-01 1.665430e-01 2.963604e-01
    outer loop
      vertex -1.032146e+01 1.506192e+01 -3.066897e+02
      vertex -1.009239e+01 1.436370e+01 -3.070242e+02
      vertex -1.005818e+01 1.436759e+01 -3.071349e+02
    endloop
  endfacet
endsolid P1040852002
