solid P1040852002
  facet normal 1.000000e+00 -8.918954e-13 1.951352e-15
    outer loop
      vertex 2.472500e+02 -2.144656e+01 -3.042022e+02
      vertex 2.472500e+02 -2.291218e+01 -3.040887e+02
      vertex 2.472500e+02 -2.317453e+01 -3.074786e+02
    endloop
  endfacet
  facet normal -8.887512e-13 -9.970186e-01 7.716168e-02
    outer loop
      vertex 2.470303e+02 -2.313361e+01 -3.069499e+02
      vertex 2.472500e+02 -2.317453e+01 -3.074786e+02
      vertex 2.472500e+02 -2.291218e+01 -3.040887e+02
    endloop
  endfacet
  facet normal 1.000000e+00 -8.876463e-13 -2.895922e-16
    outer loop
      vertex 2.472500e+02 -2.974799e+01 -3.764275e+02
      vertex 2.472500e+02 -2.144656e+01 -3.042022e+02
      vertex 2.472500e+02 -2.317453e+01 -3.074786e+02
    endloop
  endfacet
  facet normal 1.000000e+00 -8.416251e-13 -4.677163e-15
    outer loop
      vertex 2.472500e+02 -2.397839e+01 -3.086701e+02
      vertex 2.472500e+02 -2.974799e+01 -3.764275e+02
      vertex 2.472500e+02 -2.317453e+01 -3.074786e+02
    endloop
  endfacet
  facet normal 1.000000e+00 -8.821469e-13 2.266077e-14
    outer loop
      vertex 2.472500e+02 -2.388194e+01 -3.074239e+02
      vertex 2.472500e+02 -2.397839e+01 -3.086701e+02
      vertex 2.472500e+02 -2.317453e+01 -3.074786e+02
    endloop
  endfacet
  facet normal 9.238795e-01 2.952850e-02 3.815425e-01
    outer loop
      vertex 2.470303e+02 -2.313361e+01 -3.069499e+02
      vertex 2.472500e+02 -2.388194e+01 -3.074239e+02
      vertex 2.472500e+02 -2.317453e+01 -3.074786e+02
    endloop
  endfacet
  facet normal 6.895650e-14 7.716168e-02 9.970186e-01
    outer loop
      vertex 2.100000e+02 -2.144656e+01 -3.042022e+02
      vertex 2.472500e+02 -2.291218e+01 -3.040887e+02
      vertex 2.472500e+02 -2.144656e+01 -3.042022e+02
    endloop
  endfacet
  facet normal 6.895650e-14 7.716168e-02 9.970186e-01
    outer loop
      vertex 2.100000e+02 -2.291218e+01 -3.040887e+02
      vertex 2.472500e+02 -2.291218e+01 -3.040887e+02
      vertex 2.100000e+02 -2.144656e+01 -3.042022e+02
    endloop
  endfacet
  facet normal -8.909981e-13 -9.970186e-01 7.716168e-02
    outer loop
      vertex 2.465000e+02 -2.311666e+01 -3.067308e+02
      vertex 2.472500e+02 -2.291218e+01 -3.040887e+02
      vertex 2.100000e+02 -2.291218e+01 -3.040887e+02
    endloop
  endfacet
  facet normal -8.911735e-13 -9.970186e-01 7.716168e-02
    outer loop
      vertex 2.470303e+02 -2.313361e+01 -3.069499e+02
      vertex 2.472500e+02 -2.291218e+01 -3.040887e+02
      vertex 2.465000e+02 -2.311666e+01 -3.067308e+02
    endloop
  endfacet
  facet normal 1.000000e+00 -9.122976e-13 2.116418e-15
    outer loop
      vertex 2.472500e+02 -2.848044e+01 -3.817913e+02
      vertex 2.472500e+02 -2.748450e+01 -3.822194e+02
      vertex 2.472500e+02 -2.144656e+01 -3.042022e+02
    endloop
  endfacet
  facet normal 8.913099e-13 9.970186e-01 -7.716168e-02
    outer loop
      vertex 2.335910e+02 -2.577151e+01 -3.600856e+02
      vertex 2.472500e+02 -2.144656e+01 -3.042022e+02
      vertex 2.472500e+02 -2.748450e+01 -3.822194e+02
    endloop
  endfacet
  facet normal 1.000000e+00 -7.028246e-13 -1.687345e-14
    outer loop
      vertex 2.472500e+02 -2.817179e+01 -3.778032e+02
      vertex 2.472500e+02 -2.848044e+01 -3.817913e+02
      vertex 2.472500e+02 -2.144656e+01 -3.042022e+02
    endloop
  endfacet
  facet normal 1.000000e+00 -9.005499e-13 1.193520e-15
    outer loop
      vertex 2.472500e+02 -2.974799e+01 -3.764275e+02
      vertex 2.472500e+02 -2.817179e+01 -3.778032e+02
      vertex 2.472500e+02 -2.144656e+01 -3.042022e+02
    endloop
  endfacet
  facet normal 8.909977e-13 9.970186e-01 -7.716168e-02
    outer loop
      vertex 2.335910e+02 -2.557861e+01 -3.575930e+02
      vertex 2.100000e+02 -2.144656e+01 -3.042022e+02
      vertex 2.472500e+02 -2.144656e+01 -3.042022e+02
    endloop
  endfacet
  facet normal 8.811167e-13 9.970186e-01 -7.716168e-02
    outer loop
      vertex 2.335910e+02 -2.577151e+01 -3.600856e+02
      vertex 2.335910e+02 -2.557861e+01 -3.575930e+02
      vertex 2.472500e+02 -2.144656e+01 -3.042022e+02
    endloop
  endfacet
  facet normal 1.000000e+00 -8.875699e-13 6.869118e-14
    outer loop
      vertex 2.472500e+02 -2.962202e+01 -3.817029e+02
      vertex 2.472500e+02 -2.964903e+01 -3.820519e+02
      vertex 2.472500e+02 -2.748450e+01 -3.822194e+02
    endloop
  endfacet
  facet normal -6.969872e-14 -7.716168e-02 -9.970186e-01
    outer loop
      vertex 9.301086e+01 -2.964903e+01 -3.820519e+02
      vertex 2.472500e+02 -2.748450e+01 -3.822194e+02
      vertex 2.472500e+02 -2.964903e+01 -3.820519e+02
    endloop
  endfacet
  facet normal 1.000000e+00 -8.925640e-13 4.802221e-14
    outer loop
      vertex 2.472500e+02 -2.848044e+01 -3.817913e+02
      vertex 2.472500e+02 -2.962202e+01 -3.817029e+02
      vertex 2.472500e+02 -2.748450e+01 -3.822194e+02
    endloop
  endfacet
  facet normal -6.969517e-14 -7.716168e-02 -9.970186e-01
    outer loop
      vertex 9.301086e+01 -2.748450e+01 -3.822194e+02
      vertex 2.472500e+02 -2.748450e+01 -3.822194e+02
      vertex 9.301086e+01 -2.964903e+01 -3.820519e+02
    endloop
  endfacet
  facet normal 8.909910e-13 9.970186e-01 -7.716168e-02
    outer loop
      vertex 2.335910e+02 -2.577151e+01 -3.600856e+02
      vertex 2.472500e+02 -2.748450e+01 -3.822194e+02
      vertex 9.301086e+01 -2.748450e+01 -3.822194e+02
    endloop
  endfacet
  facet normal -9.112635e-13 -9.970186e-01 7.716168e-02
    outer loop
      vertex 2.470303e+02 -2.958110e+01 -3.811742e+02
      vertex 2.472500e+02 -2.964903e+01 -3.820519e+02
      vertex 2.472500e+02 -2.962202e+01 -3.817029e+02
    endloop
  endfacet
  facet normal -8.909412e-13 -9.970186e-01 7.716168e-02
    outer loop
      vertex 9.368971e+01 -2.956415e+01 -3.809551e+02
      vertex 2.472500e+02 -2.964903e+01 -3.820519e+02
      vertex 2.465000e+02 -2.956415e+01 -3.809551e+02
    endloop
  endfacet
  facet normal -8.870817e-13 -9.970186e-01 7.716168e-02
    outer loop
      vertex 2.470303e+02 -2.958110e+01 -3.811742e+02
      vertex 2.465000e+02 -2.956415e+01 -3.809551e+02
      vertex 2.472500e+02 -2.964903e+01 -3.820519e+02
    endloop
  endfacet
  facet normal -8.908628e-13 -9.970186e-01 7.716168e-02
    outer loop
      vertex 9.308937e+01 -2.958738e+01 -3.812552e+02
      vertex 2.472500e+02 -2.964903e+01 -3.820519e+02
      vertex 9.368971e+01 -2.956415e+01 -3.809551e+02
    endloop
  endfacet
  facet normal -8.910360e-13 -9.970186e-01 7.716168e-02
    outer loop
      vertex 9.308937e+01 -2.958738e+01 -3.812552e+02
      vertex 9.301086e+01 -2.964903e+01 -3.820519e+02
      vertex 2.472500e+02 -2.964903e+01 -3.820519e+02
    endloop
  endfacet
  facet normal 9.238795e-01 2.952850e-02 3.815425e-01
    outer loop
      vertex 2.470303e+02 -2.843951e+01 -3.812625e+02
      vertex 2.472500e+02 -2.962202e+01 -3.817029e+02
      vertex 2.472500e+02 -2.848044e+01 -3.817913e+02
    endloop
  endfacet
  facet normal 9.238795e-01 2.952850e-02 3.815425e-01
    outer loop
      vertex 2.470303e+02 -2.958110e+01 -3.811742e+02
      vertex 2.472500e+02 -2.962202e+01 -3.817029e+02
      vertex 2.470303e+02 -2.843951e+01 -3.812625e+02
    endloop
  endfacet
  facet normal -8.739087e-13 -9.970186e-01 7.716168e-02
    outer loop
      vertex 2.470303e+02 -2.821271e+01 -3.783319e+02
      vertex 2.472500e+02 -2.848044e+01 -3.817913e+02
      vertex 2.472500e+02 -2.817179e+01 -3.778032e+02
    endloop
  endfacet
  facet normal -8.573399e-13 -9.970186e-01 7.716168e-02
    outer loop
      vertex 2.470303e+02 -2.843951e+01 -3.812625e+02
      vertex 2.472500e+02 -2.848044e+01 -3.817913e+02
      vertex 2.470303e+02 -2.821271e+01 -3.783319e+02
    endloop
  endfacet
  facet normal 1.000000e+00 -9.004794e-13 1.274203e-15
    outer loop
      vertex 2.472500e+02 -2.974799e+01 -3.764275e+02
      vertex 2.472500e+02 -2.984444e+01 -3.776737e+02
      vertex 2.472500e+02 -2.817179e+01 -3.778032e+02
    endloop
  endfacet
  facet normal 9.238795e-01 -2.952850e-02 -3.815425e-01
    outer loop
      vertex 2.470303e+02 -2.988536e+01 -3.782025e+02
      vertex 2.472500e+02 -2.817179e+01 -3.778032e+02
      vertex 2.472500e+02 -2.984444e+01 -3.776737e+02
    endloop
  endfacet
  facet normal 9.238795e-01 -2.952850e-02 -3.815425e-01
    outer loop
      vertex 2.470303e+02 -2.988536e+01 -3.782025e+02
      vertex 2.470303e+02 -2.821271e+01 -3.783319e+02
      vertex 2.472500e+02 -2.817179e+01 -3.778032e+02
    endloop
  endfacet
  facet normal -8.909888e-13 -9.970186e-01 7.716168e-02
    outer loop
      vertex 9.150601e+01 -2.974799e+01 -3.764275e+02
      vertex 2.472500e+02 -2.984444e+01 -3.776737e+02
      vertex 2.472500e+02 -2.974799e+01 -3.764275e+02
    endloop
  endfacet
  facet normal -8.908197e-13 -9.970186e-01 7.716168e-02
    outer loop
      vertex 2.470303e+02 -2.988536e+01 -3.782025e+02
      vertex 2.472500e+02 -2.984444e+01 -3.776737e+02
      vertex 9.150601e+01 -2.974799e+01 -3.764275e+02
    endloop
  endfacet
  facet normal 1.000000e+00 -6.719749e-13 -1.843186e-14
    outer loop
      vertex 2.472500e+02 -2.407809e+01 -3.086624e+02
      vertex 2.472500e+02 -2.983276e+01 -3.764209e+02
      vertex 2.472500e+02 -2.974799e+01 -3.764275e+02
    endloop
  endfacet
  facet normal -6.895226e-14 -7.716168e-02 -9.970186e-01
    outer loop
      vertex 9.150601e+01 -2.983276e+01 -3.764209e+02
      vertex 2.472500e+02 -2.974799e+01 -3.764275e+02
      vertex 2.472500e+02 -2.983276e+01 -3.764209e+02
    endloop
  endfacet
  facet normal 1.000000e+00 -1.138672e-12 2.061669e-14
    outer loop
      vertex 2.472500e+02 -2.397839e+01 -3.086701e+02
      vertex 2.472500e+02 -2.407809e+01 -3.086624e+02
      vertex 2.472500e+02 -2.974799e+01 -3.764275e+02
    endloop
  endfacet
  facet normal -6.895578e-14 -7.716168e-02 -9.970186e-01
    outer loop
      vertex 9.150601e+01 -2.974799e+01 -3.764275e+02
      vertex 2.472500e+02 -2.974799e+01 -3.764275e+02
      vertex 9.150601e+01 -2.983276e+01 -3.764209e+02
    endloop
  endfacet
  facet normal -8.900479e-13 -9.964129e-01 8.462447e-02
    outer loop
      vertex 2.335910e+02 -2.821638e+01 -3.573889e+02
      vertex 2.472500e+02 -2.983276e+01 -3.764209e+02
      vertex 2.472500e+02 -2.407809e+01 -3.086624e+02
    endloop
  endfacet
  facet normal -8.904657e-13 -9.964129e-01 8.462447e-02
    outer loop
      vertex 2.335910e+02 -2.842795e+01 -3.598800e+02
      vertex 1.438500e+02 -2.842795e+01 -3.598800e+02
      vertex 2.472500e+02 -2.983276e+01 -3.764209e+02
    endloop
  endfacet
  facet normal -8.904021e-13 -9.964129e-01 8.462447e-02
    outer loop
      vertex 9.150601e+01 -2.983276e+01 -3.764209e+02
      vertex 2.472500e+02 -2.983276e+01 -3.764209e+02
      vertex 1.438500e+02 -2.842795e+01 -3.598800e+02
    endloop
  endfacet
  facet normal -8.910276e-13 -9.964129e-01 8.462447e-02
    outer loop
      vertex 2.335910e+02 -2.821638e+01 -3.573889e+02
      vertex 2.335910e+02 -2.842795e+01 -3.598800e+02
      vertex 2.472500e+02 -2.983276e+01 -3.764209e+02
    endloop
  endfacet
  facet normal 6.821758e-14 7.716168e-02 9.970186e-01
    outer loop
      vertex 9.317804e+01 -2.397839e+01 -3.086701e+02
      vertex 2.472500e+02 -2.407809e+01 -3.086624e+02
      vertex 2.472500e+02 -2.397839e+01 -3.086701e+02
    endloop
  endfacet
  facet normal -8.904280e-13 -9.964129e-01 8.462447e-02
    outer loop
      vertex 9.317804e+01 -2.407809e+01 -3.086624e+02
      vertex 2.335910e+02 -2.821638e+01 -3.573889e+02
      vertex 2.472500e+02 -2.407809e+01 -3.086624e+02
    endloop
  endfacet
  facet normal 7.043530e-14 7.716168e-02 9.970186e-01
    outer loop
      vertex 9.317804e+01 -2.397839e+01 -3.086701e+02
      vertex 9.317804e+01 -2.407809e+01 -3.086624e+02
      vertex 2.472500e+02 -2.407809e+01 -3.086624e+02
    endloop
  endfacet
  facet normal -8.211823e-13 -9.970186e-01 7.716168e-02
    outer loop
      vertex 2.470303e+02 -2.384101e+01 -3.068951e+02
      vertex 2.472500e+02 -2.397839e+01 -3.086701e+02
      vertex 2.472500e+02 -2.388194e+01 -3.074239e+02
    endloop
  endfacet
  facet normal -8.909606e-13 -9.970186e-01 7.716168e-02
    outer loop
      vertex 9.422577e+01 -2.382406e+01 -3.066761e+02
      vertex 2.472500e+02 -2.397839e+01 -3.086701e+02
      vertex 2.465000e+02 -2.382406e+01 -3.066761e+02
    endloop
  endfacet
  facet normal -8.866744e-13 -9.970186e-01 7.716168e-02
    outer loop
      vertex 2.470303e+02 -2.384101e+01 -3.068951e+02
      vertex 2.465000e+02 -2.382406e+01 -3.066761e+02
      vertex 2.472500e+02 -2.397839e+01 -3.086701e+02
    endloop
  endfacet
  facet normal -8.907108e-13 -9.970186e-01 7.716168e-02
    outer loop
      vertex 9.375746e+01 -2.383673e+01 -3.068398e+02
      vertex 2.472500e+02 -2.397839e+01 -3.086701e+02
      vertex 9.422577e+01 -2.382406e+01 -3.066761e+02
    endloop
  endfacet
  facet normal -8.910230e-13 -9.970186e-01 7.716168e-02
    outer loop
      vertex 9.333484e+01 -2.392393e+01 -3.079665e+02
      vertex 2.472500e+02 -2.397839e+01 -3.086701e+02
      vertex 9.349418e+01 -2.386919e+01 -3.072592e+02
    endloop
  endfacet
  facet normal -8.912614e-13 -9.970186e-01 7.716168e-02
    outer loop
      vertex 9.375746e+01 -2.383673e+01 -3.068398e+02
      vertex 9.349418e+01 -2.386919e+01 -3.072592e+02
      vertex 2.472500e+02 -2.397839e+01 -3.086701e+02
    endloop
  endfacet
  facet normal -8.910132e-13 -9.970186e-01 7.716168e-02
    outer loop
      vertex 9.317804e+01 -2.397839e+01 -3.086701e+02
      vertex 2.472500e+02 -2.397839e+01 -3.086701e+02
      vertex 9.333484e+01 -2.392393e+01 -3.079665e+02
    endloop
  endfacet
  facet normal 9.238795e-01 2.952850e-02 3.815425e-01
    outer loop
      vertex 2.470303e+02 -2.384101e+01 -3.068951e+02
      vertex 2.472500e+02 -2.388194e+01 -3.074239e+02
      vertex 2.470303e+02 -2.313361e+01 -3.069499e+02
    endloop
  endfacet
  facet normal -7.071068e-01 5.456155e-02 7.049986e-01
    outer loop
      vertex 2.099500e+02 -2.291604e+01 -3.041386e+02
      vertex 2.100000e+02 -2.291218e+01 -3.040887e+02
      vertex 2.100000e+02 -2.144656e+01 -3.042022e+02
    endloop
  endfacet
  facet normal -7.071068e-01 5.456155e-02 7.049986e-01
    outer loop
      vertex 2.099500e+02 -2.145042e+01 -3.042520e+02
      vertex 2.099500e+02 -2.291604e+01 -3.041386e+02
      vertex 2.100000e+02 -2.144656e+01 -3.042022e+02
    endloop
  endfacet
  facet normal 7.832916e-13 9.970186e-01 -7.716168e-02
    outer loop
      vertex 2.099500e+02 -2.152372e+01 -3.051992e+02
      vertex 2.099500e+02 -2.145042e+01 -3.042520e+02
      vertex 2.100000e+02 -2.144656e+01 -3.042022e+02
    endloop
  endfacet
  facet normal 2.118444e-12 9.970186e-01 -7.716168e-02
    outer loop
      vertex 2.099500e+02 -2.153144e+01 -3.052989e+02
      vertex 2.099500e+02 -2.152372e+01 -3.051992e+02
      vertex 2.100000e+02 -2.144656e+01 -3.042022e+02
    endloop
  endfacet
  facet normal 8.687062e-13 9.970186e-01 -7.716168e-02
    outer loop
      vertex 2.335910e+02 -2.557861e+01 -3.575930e+02
      vertex 2.099500e+02 -2.153144e+01 -3.052989e+02
      vertex 2.100000e+02 -2.144656e+01 -3.042022e+02
    endloop
  endfacet
  facet normal -8.862058e-13 -9.970186e-01 7.716168e-02
    outer loop
      vertex 2.099500e+02 -2.291604e+01 -3.041386e+02
      vertex 2.465000e+02 -2.311666e+01 -3.067308e+02
      vertex 2.100000e+02 -2.291218e+01 -3.040887e+02
    endloop
  endfacet
  facet normal -8.909606e-13 -9.970186e-01 7.716168e-02
    outer loop
      vertex 2.098500e+02 -2.299706e+01 -3.051855e+02
      vertex 9.422577e+01 -2.311666e+01 -3.067308e+02
      vertex 2.465000e+02 -2.311666e+01 -3.067308e+02
    endloop
  endfacet
  facet normal 6.895357e-14 7.716168e-02 9.970186e-01
    outer loop
      vertex 2.465000e+02 -2.382406e+01 -3.066761e+02
      vertex 2.465000e+02 -2.311666e+01 -3.067308e+02
      vertex 9.422577e+01 -2.311666e+01 -3.067308e+02
    endloop
  endfacet
  facet normal -9.209516e-13 -9.970186e-01 7.716168e-02
    outer loop
      vertex 2.099500e+02 -2.299706e+01 -3.051855e+02
      vertex 2.098500e+02 -2.299706e+01 -3.051855e+02
      vertex 2.465000e+02 -2.311666e+01 -3.067308e+02
    endloop
  endfacet
  facet normal -8.917352e-13 -9.970186e-01 7.716168e-02
    outer loop
      vertex 2.099500e+02 -2.298934e+01 -3.050858e+02
      vertex 2.099500e+02 -2.299706e+01 -3.051855e+02
      vertex 2.465000e+02 -2.311666e+01 -3.067308e+02
    endloop
  endfacet
  facet normal -8.902120e-13 -9.970186e-01 7.716168e-02
    outer loop
      vertex 2.099500e+02 -2.291604e+01 -3.041386e+02
      vertex 2.099500e+02 -2.298934e+01 -3.050858e+02
      vertex 2.465000e+02 -2.311666e+01 -3.067308e+02
    endloop
  endfacet
  facet normal 3.826834e-01 7.128810e-02 9.211251e-01
    outer loop
      vertex 2.470303e+02 -2.384101e+01 -3.068951e+02
      vertex 2.470303e+02 -2.313361e+01 -3.069499e+02
      vertex 2.465000e+02 -2.311666e+01 -3.067308e+02
    endloop
  endfacet
  facet normal 3.826834e-01 7.128810e-02 9.211251e-01
    outer loop
      vertex 2.470303e+02 -2.384101e+01 -3.068951e+02
      vertex 2.465000e+02 -2.311666e+01 -3.067308e+02
      vertex 2.465000e+02 -2.382406e+01 -3.066761e+02
    endloop
  endfacet
  facet normal -9.054573e-13 -9.970186e-01 7.716168e-02
    outer loop
      vertex 9.392694e+01 -2.299706e+01 -3.051855e+02
      vertex 9.385312e+01 -2.312431e+01 -3.068297e+02
      vertex 9.422577e+01 -2.311666e+01 -3.067308e+02
    endloop
  endfacet
  facet normal -2.570681e-01 7.456853e-02 9.635121e-01
    outer loop
      vertex 9.422577e+01 -2.382406e+01 -3.066761e+02
      vertex 9.422577e+01 -2.311666e+01 -3.067308e+02
      vertex 9.385312e+01 -2.312431e+01 -3.068297e+02
    endloop
  endfacet
  facet normal -8.909460e-13 -9.970186e-01 7.716168e-02
    outer loop
      vertex 2.098500e+02 -2.299706e+01 -3.051855e+02
      vertex 9.392694e+01 -2.299706e+01 -3.051855e+02
      vertex 9.422577e+01 -2.311666e+01 -3.067308e+02
    endloop
  endfacet
  facet normal 6.895360e-14 7.716168e-02 9.970186e-01
    outer loop
      vertex 9.422577e+01 -2.382406e+01 -3.066761e+02
      vertex 2.465000e+02 -2.382406e+01 -3.066761e+02
      vertex 9.422577e+01 -2.311666e+01 -3.067308e+02
    endloop
  endfacet
  facet normal -8.515067e-13 -9.970186e-01 7.716168e-02
    outer loop
      vertex 9.392694e+01 -2.299706e+01 -3.051855e+02
      vertex 9.354729e+01 -2.314366e+01 -3.070798e+02
      vertex 9.385312e+01 -2.312431e+01 -3.068297e+02
    endloop
  endfacet
  facet normal -6.341463e-01 7.423133e-02 7.696416e-01
    outer loop
      vertex 9.375746e+01 -2.383673e+01 -3.068398e+02
      vertex 9.385312e+01 -2.312431e+01 -3.068297e+02
      vertex 9.354729e+01 -2.314366e+01 -3.070798e+02
    endloop
  endfacet
  facet normal -3.305452e-01 3.099945e-02 9.432809e-01
    outer loop
      vertex 9.375746e+01 -2.383673e+01 -3.068398e+02
      vertex 9.422577e+01 -2.382406e+01 -3.066761e+02
      vertex 9.385312e+01 -2.312431e+01 -3.068297e+02
    endloop
  endfacet
  facet normal -9.806147e-01 1.511953e-02 1.953619e-01
    outer loop
      vertex 9.354729e+01 -2.167805e+01 -3.071932e+02
      vertex 9.354729e+01 -2.314366e+01 -3.070798e+02
      vertex 9.392694e+01 -2.299706e+01 -3.051855e+02
    endloop
  endfacet
  facet normal -9.813576e-01 1.482974e-02 1.916175e-01
    outer loop
      vertex 9.039626e+01 -2.291955e+01 -3.232350e+02
      vertex 9.354729e+01 -2.314366e+01 -3.070798e+02
      vertex 9.354729e+01 -2.167805e+01 -3.071932e+02
    endloop
  endfacet
  facet normal -8.945416e-01 -4.139122e-01 1.687365e-01
    outer loop
      vertex 9.352839e+01 -2.315323e+01 -3.072034e+02
      vertex 9.354729e+01 -2.314366e+01 -3.070798e+02
      vertex 9.039626e+01 -2.291955e+01 -3.232350e+02
    endloop
  endfacet
  facet normal -9.583058e-01 -2.336249e-01 1.645280e-01
    outer loop
      vertex 9.375746e+01 -2.383673e+01 -3.068398e+02
      vertex 9.354729e+01 -2.314366e+01 -3.070798e+02
      vertex 9.352839e+01 -2.315323e+01 -3.072034e+02
    endloop
  endfacet
  facet normal 6.895239e-14 7.716168e-02 9.970186e-01
    outer loop
      vertex 9.392694e+01 -2.153144e+01 -3.052989e+02
      vertex 9.392694e+01 -2.299706e+01 -3.051855e+02
      vertex 2.098500e+02 -2.299706e+01 -3.051855e+02
    endloop
  endfacet
  facet normal -9.806147e-01 1.511953e-02 1.953619e-01
    outer loop
      vertex 9.354729e+01 -2.167805e+01 -3.071932e+02
      vertex 9.392694e+01 -2.299706e+01 -3.051855e+02
      vertex 9.392694e+01 -2.153144e+01 -3.052989e+02
    endloop
  endfacet
  facet normal 7.137148e-14 7.716168e-02 9.970186e-01
    outer loop
      vertex 2.098500e+02 -2.153144e+01 -3.052989e+02
      vertex 2.098500e+02 -2.299706e+01 -3.051855e+02
      vertex 2.099500e+02 -2.299706e+01 -3.051855e+02
    endloop
  endfacet
  facet normal 7.092223e-14 7.716168e-02 9.970186e-01
    outer loop
      vertex 9.392694e+01 -2.153144e+01 -3.052989e+02
      vertex 2.098500e+02 -2.299706e+01 -3.051855e+02
      vertex 2.098500e+02 -2.153144e+01 -3.052989e+02
    endloop
  endfacet
  facet normal -1.000000e+00 9.086659e-13 2.147431e-13
    outer loop
      vertex 2.099500e+02 -2.153144e+01 -3.052989e+02
      vertex 2.099500e+02 -2.299706e+01 -3.051855e+02
      vertex 2.099500e+02 -2.298934e+01 -3.050858e+02
    endloop
  endfacet
  facet normal 7.127467e-14 7.716168e-02 9.970186e-01
    outer loop
      vertex 2.098500e+02 -2.153144e+01 -3.052989e+02
      vertex 2.099500e+02 -2.299706e+01 -3.051855e+02
      vertex 2.099500e+02 -2.153144e+01 -3.052989e+02
    endloop
  endfacet
  facet normal -1.000000e+00 8.913522e-13 -8.969798e-15
    outer loop
      vertex 2.099500e+02 -2.145042e+01 -3.042520e+02
      vertex 2.099500e+02 -2.298934e+01 -3.050858e+02
      vertex 2.099500e+02 -2.291604e+01 -3.041386e+02
    endloop
  endfacet
  facet normal -1.000000e+00 8.913522e-13 -8.969798e-15
    outer loop
      vertex 2.099500e+02 -2.152372e+01 -3.051992e+02
      vertex 2.099500e+02 -2.298934e+01 -3.050858e+02
      vertex 2.099500e+02 -2.145042e+01 -3.042520e+02
    endloop
  endfacet
  facet normal -1.000000e+00 9.086659e-13 2.147431e-13
    outer loop
      vertex 2.099500e+02 -2.153144e+01 -3.052989e+02
      vertex 2.099500e+02 -2.298934e+01 -3.050858e+02
      vertex 2.099500e+02 -2.152372e+01 -3.051992e+02
    endloop
  endfacet
  facet normal 6.895700e-14 7.716168e-02 9.970186e-01
    outer loop
      vertex 1.438500e+02 -2.577151e+01 -3.600856e+02
      vertex 1.438500e+02 -2.842795e+01 -3.598800e+02
      vertex 2.335910e+02 -2.842795e+01 -3.598800e+02
    endloop
  endfacet
  facet normal -8.900001e-13 -9.964129e-01 8.462447e-02
    outer loop
      vertex 9.150601e+01 -2.983276e+01 -3.764209e+02
      vertex 1.438500e+02 -2.842795e+01 -3.598800e+02
      vertex 1.426004e+02 -2.832217e+01 -3.586344e+02
    endloop
  endfacet
  facet normal 7.072286e-01 5.455216e-02 7.048771e-01
    outer loop
      vertex 1.426004e+02 -2.567506e+01 -3.588393e+02
      vertex 1.426004e+02 -2.832217e+01 -3.586344e+02
      vertex 1.438500e+02 -2.842795e+01 -3.598800e+02
    endloop
  endfacet
  facet normal 7.072286e-01 5.455215e-02 7.048772e-01
    outer loop
      vertex 1.426004e+02 -2.567506e+01 -3.588393e+02
      vertex 1.438500e+02 -2.842795e+01 -3.598800e+02
      vertex 1.438500e+02 -2.577151e+01 -3.600856e+02
    endloop
  endfacet
  facet normal -1.000000e+00 8.937381e-13 -7.448640e-15
    outer loop
      vertex 2.335910e+02 -2.557861e+01 -3.575930e+02
      vertex 2.335910e+02 -2.842795e+01 -3.598800e+02
      vertex 2.335910e+02 -2.821638e+01 -3.573889e+02
    endloop
  endfacet
  facet normal 6.895107e-14 7.716168e-02 9.970186e-01
    outer loop
      vertex 2.335910e+02 -2.577151e+01 -3.600856e+02
      vertex 1.438500e+02 -2.577151e+01 -3.600856e+02
      vertex 2.335910e+02 -2.842795e+01 -3.598800e+02
    endloop
  endfacet
  facet normal -1.000000e+00 8.782493e-13 1.184892e-14
    outer loop
      vertex 2.335910e+02 -2.577151e+01 -3.600856e+02
      vertex 2.335910e+02 -2.842795e+01 -3.598800e+02
      vertex 2.335910e+02 -2.557861e+01 -3.575930e+02
    endloop
  endfacet
  facet normal -8.905700e-13 -9.964129e-01 8.462447e-02
    outer loop
      vertex 9.317804e+01 -2.407809e+01 -3.086624e+02
      vertex 1.438500e+02 -2.821638e+01 -3.573889e+02
      vertex 2.335910e+02 -2.821638e+01 -3.573889e+02
    endloop
  endfacet
  facet normal -6.769415e-14 -7.716168e-02 -9.970186e-01
    outer loop
      vertex 2.335910e+02 -2.557861e+01 -3.575930e+02
      vertex 2.335910e+02 -2.821638e+01 -3.573889e+02
      vertex 1.438500e+02 -2.821638e+01 -3.573889e+02
    endloop
  endfacet
  facet normal -8.865796e-13 -9.964129e-01 8.462447e-02
    outer loop
      vertex 9.317804e+01 -2.407809e+01 -3.086624e+02
      vertex 1.426004e+02 -2.832217e+01 -3.586344e+02
      vertex 1.438500e+02 -2.821638e+01 -3.573889e+02
    endloop
  endfacet
  facet normal 7.072286e-01 -5.455214e-02 -7.048771e-01
    outer loop
      vertex 1.438500e+02 -2.557861e+01 -3.575930e+02
      vertex 1.438500e+02 -2.821638e+01 -3.573889e+02
      vertex 1.426004e+02 -2.832217e+01 -3.586344e+02
    endloop
  endfacet
  facet normal -6.895107e-14 -7.716168e-02 -9.970186e-01
    outer loop
      vertex 2.335910e+02 -2.557861e+01 -3.575930e+02
      vertex 1.438500e+02 -2.821638e+01 -3.573889e+02
      vertex 1.438500e+02 -2.557861e+01 -3.575930e+02
    endloop
  endfacet
  facet normal -8.904079e-13 -9.964129e-01 8.462447e-02
    outer loop
      vertex 9.150601e+01 -2.983276e+01 -3.764209e+02
      vertex 1.426004e+02 -2.832217e+01 -3.586344e+02
      vertex 9.317804e+01 -2.407809e+01 -3.086624e+02
    endloop
  endfacet
  facet normal 7.072286e-01 -5.455209e-02 -7.048772e-01
    outer loop
      vertex 1.438500e+02 -2.557861e+01 -3.575930e+02
      vertex 1.426004e+02 -2.832217e+01 -3.586344e+02
      vertex 1.426004e+02 -2.567506e+01 -3.588393e+02
    endloop
  endfacet
  facet normal -8.897335e-13 -9.964129e-01 8.462447e-02
    outer loop
      vertex 9.033841e+01 -2.533025e+01 -3.234060e+02
      vertex 9.150601e+01 -2.983276e+01 -3.764209e+02
      vertex 9.317804e+01 -2.407809e+01 -3.086624e+02
    endloop
  endfacet
  facet normal -9.820626e-01 1.020544e-02 1.882790e-01
    outer loop
      vertex 9.039626e+01 -2.291955e+01 -3.232350e+02
      vertex 9.033841e+01 -2.533025e+01 -3.234060e+02
      vertex 9.317804e+01 -2.407809e+01 -3.086624e+02
    endloop
  endfacet
  facet normal -9.819444e-01 1.459664e-02 1.886056e-01
    outer loop
      vertex 9.317804e+01 -2.397839e+01 -3.086701e+02
      vertex 9.039626e+01 -2.291955e+01 -3.232350e+02
      vertex 9.317804e+01 -2.407809e+01 -3.086624e+02
    endloop
  endfacet
  facet normal -8.872505e-13 -9.964129e-01 8.462447e-02
    outer loop
      vertex 9.033841e+01 -2.533025e+01 -3.234060e+02
      vertex 8.978996e+01 -2.911243e+01 -3.679394e+02
      vertex 9.150601e+01 -2.983276e+01 -3.764209e+02
    endloop
  endfacet
  facet normal -9.802764e-01 -1.524958e-02 -1.970423e-01
    outer loop
      vertex 9.150601e+01 -2.974799e+01 -3.764275e+02
      vertex 9.150601e+01 -2.983276e+01 -3.764209e+02
      vertex 8.978996e+01 -2.911243e+01 -3.679394e+02
    endloop
  endfacet
  facet normal -8.979265e-13 -9.964129e-01 8.462447e-02
    outer loop
      vertex 8.870000e+01 -2.648088e+01 -3.369541e+02
      vertex 8.870000e+01 -2.835903e+01 -3.590684e+02
      vertex 8.978996e+01 -2.911243e+01 -3.679394e+02
    endloop
  endfacet
  facet normal -9.891423e-01 7.271519e-02 -1.277104e-01
    outer loop
      vertex 9.050521e+01 -2.670185e+01 -3.721066e+02
      vertex 8.978996e+01 -2.911243e+01 -3.679394e+02
      vertex 8.870000e+01 -2.835903e+01 -3.590684e+02
    endloop
  endfacet
  facet normal -8.904305e-13 -9.964129e-01 8.462447e-02
    outer loop
      vertex 9.033841e+01 -2.533025e+01 -3.234060e+02
      vertex 8.870000e+01 -2.648088e+01 -3.369541e+02
      vertex 8.978996e+01 -2.911243e+01 -3.679394e+02
    endloop
  endfacet
  facet normal -9.798014e-01 -4.579234e-02 -1.946593e-01
    outer loop
      vertex 9.150601e+01 -2.974799e+01 -3.764275e+02
      vertex 8.978996e+01 -2.911243e+01 -3.679394e+02
      vertex 9.050521e+01 -2.670185e+01 -3.721066e+02
    endloop
  endfacet
  facet normal -7.071068e-01 -7.045703e-01 5.983854e-02
    outer loop
      vertex 8.825064e+01 -2.701580e+01 -3.485625e+02
      vertex 8.870000e+01 -2.835903e+01 -3.590684e+02
      vertex 8.870000e+01 -2.648088e+01 -3.369541e+02
    endloop
  endfacet
  facet normal -9.903078e-01 -1.071734e-02 -1.384762e-01
    outer loop
      vertex 9.050521e+01 -2.670185e+01 -3.721066e+02
      vertex 8.870000e+01 -2.835903e+01 -3.590684e+02
      vertex 8.870000e+01 -2.570867e+01 -3.592736e+02
    endloop
  endfacet
  facet normal -9.990990e-01 -3.274551e-03 -4.231421e-02
    outer loop
      vertex 8.825064e+01 -2.701580e+01 -3.485625e+02
      vertex 8.870000e+01 -2.570867e+01 -3.592736e+02
      vertex 8.870000e+01 -2.835903e+01 -3.590684e+02
    endloop
  endfacet
  facet normal -9.928177e-01 9.231101e-03 1.192802e-01
    outer loop
      vertex 8.870000e+01 -2.399619e+01 -3.371464e+02
      vertex 8.870000e+01 -2.648088e+01 -3.369541e+02
      vertex 9.033841e+01 -2.533025e+01 -3.234060e+02
    endloop
  endfacet
  facet normal -9.992447e-01 2.998711e-03 3.874334e-02
    outer loop
      vertex 8.825030e+01 -2.533683e+01 -3.486410e+02
      vertex 8.870000e+01 -2.648088e+01 -3.369541e+02
      vertex 8.870000e+01 -2.399619e+01 -3.371464e+02
    endloop
  endfacet
  facet normal -9.992532e-01 1.601084e-03 3.860685e-02
    outer loop
      vertex 8.825030e+01 -2.533683e+01 -3.486410e+02
      vertex 8.825064e+01 -2.701580e+01 -3.485625e+02
      vertex 8.870000e+01 -2.648088e+01 -3.369541e+02
    endloop
  endfacet
  facet normal -9.926734e-01 1.531624e-02 1.198538e-01
    outer loop
      vertex 8.870000e+01 -2.399619e+01 -3.371464e+02
      vertex 9.033841e+01 -2.533025e+01 -3.234060e+02
      vertex 9.039626e+01 -2.291955e+01 -3.232350e+02
    endloop
  endfacet
  facet normal -6.895447e-14 -7.716168e-02 -9.970186e-01
    outer loop
      vertex 2.465000e+02 -2.822966e+01 -3.785509e+02
      vertex 2.465000e+02 -2.990231e+01 -3.784215e+02
      vertex 9.258979e+01 -2.990231e+01 -3.784215e+02
    endloop
  endfacet
  facet normal -8.909721e-13 -9.970186e-01 7.716168e-02
    outer loop
      vertex 9.150601e+01 -2.974799e+01 -3.764275e+02
      vertex 9.258979e+01 -2.990231e+01 -3.784215e+02
      vertex 2.465000e+02 -2.990231e+01 -3.784215e+02
    endloop
  endfacet
  facet normal -6.895092e-14 -7.716168e-02 -9.970186e-01
    outer loop
      vertex 9.258979e+01 -2.822966e+01 -3.785509e+02
      vertex 2.465000e+02 -2.822966e+01 -3.785509e+02
      vertex 9.258979e+01 -2.990231e+01 -3.784215e+02
    endloop
  endfacet
  facet normal -3.241685e-01 -7.299490e-02 -9.431789e-01
    outer loop
      vertex 9.212980e+01 -2.989015e+01 -3.782643e+02
      vertex 9.258979e+01 -2.822966e+01 -3.785509e+02
      vertex 9.258979e+01 -2.990231e+01 -3.784215e+02
    endloop
  endfacet
  facet normal -8.920235e-13 -9.970186e-01 7.716168e-02
    outer loop
      vertex 9.212980e+01 -2.989015e+01 -3.782643e+02
      vertex 9.258979e+01 -2.990231e+01 -3.784215e+02
      vertex 9.150601e+01 -2.974799e+01 -3.764275e+02
    endloop
  endfacet
  facet normal 3.826834e-01 -7.128810e-02 -9.211251e-01
    outer loop
      vertex 2.470303e+02 -2.821271e+01 -3.783319e+02
      vertex 2.465000e+02 -2.990231e+01 -3.784215e+02
      vertex 2.465000e+02 -2.822966e+01 -3.785509e+02
    endloop
  endfacet
  facet normal 3.826834e-01 -7.128810e-02 -9.211251e-01
    outer loop
      vertex 2.470303e+02 -2.988536e+01 -3.782025e+02
      vertex 2.465000e+02 -2.990231e+01 -3.784215e+02
      vertex 2.470303e+02 -2.821271e+01 -3.783319e+02
    endloop
  endfacet
  facet normal -8.912087e-13 -9.970186e-01 7.716168e-02
    outer loop
      vertex 2.470303e+02 -2.988536e+01 -3.782025e+02
      vertex 9.150601e+01 -2.974799e+01 -3.764275e+02
      vertex 2.465000e+02 -2.990231e+01 -3.784215e+02
    endloop
  endfacet
  facet normal -8.909260e-13 -9.970186e-01 7.716168e-02
    outer loop
      vertex 2.465000e+02 -2.842256e+01 -3.810435e+02
      vertex 2.465000e+02 -2.822966e+01 -3.785509e+02
      vertex 9.258979e+01 -2.822966e+01 -3.785509e+02
    endloop
  endfacet
  facet normal -8.884232e-13 -9.970186e-01 7.716168e-02
    outer loop
      vertex 2.470303e+02 -2.843951e+01 -3.812625e+02
      vertex 2.470303e+02 -2.821271e+01 -3.783319e+02
      vertex 2.465000e+02 -2.822966e+01 -3.785509e+02
    endloop
  endfacet
  facet normal -8.881856e-13 -9.970186e-01 7.716168e-02
    outer loop
      vertex 2.465000e+02 -2.842256e+01 -3.810435e+02
      vertex 2.470303e+02 -2.843951e+01 -3.812625e+02
      vertex 2.465000e+02 -2.822966e+01 -3.785509e+02
    endloop
  endfacet
  facet normal -9.286480e-13 -9.970186e-01 7.716168e-02
    outer loop
      vertex 9.239821e+01 -2.834173e+01 -3.799989e+02
      vertex 9.297027e+01 -2.849679e+01 -3.820025e+02
      vertex 9.258979e+01 -2.822966e+01 -3.785509e+02
    endloop
  endfacet
  facet normal -8.334381e-13 -9.970186e-01 7.716168e-02
    outer loop
      vertex 9.308937e+01 -2.844579e+01 -3.813436e+02
      vertex 9.258979e+01 -2.822966e+01 -3.785509e+02
      vertex 9.297027e+01 -2.849679e+01 -3.820025e+02
    endloop
  endfacet
  facet normal -9.255915e-13 -9.970186e-01 7.716168e-02
    outer loop
      vertex 9.212980e+01 -2.821750e+01 -3.783938e+02
      vertex 9.239821e+01 -2.834173e+01 -3.799989e+02
      vertex 9.258979e+01 -2.822966e+01 -3.785509e+02
    endloop
  endfacet
  facet normal -3.241685e-01 -7.299490e-02 -9.431789e-01
    outer loop
      vertex 9.212980e+01 -2.989015e+01 -3.782643e+02
      vertex 9.212980e+01 -2.821750e+01 -3.783938e+02
      vertex 9.258979e+01 -2.822966e+01 -3.785509e+02
    endloop
  endfacet
  facet normal -8.909876e-13 -9.970186e-01 7.716168e-02
    outer loop
      vertex 9.368971e+01 -2.842256e+01 -3.810435e+02
      vertex 2.465000e+02 -2.842256e+01 -3.810435e+02
      vertex 9.258979e+01 -2.822966e+01 -3.785509e+02
    endloop
  endfacet
  facet normal -9.055982e-13 -9.970186e-01 7.716168e-02
    outer loop
      vertex 9.308937e+01 -2.844579e+01 -3.813436e+02
      vertex 9.368971e+01 -2.842256e+01 -3.810435e+02
      vertex 9.258979e+01 -2.822966e+01 -3.785509e+02
    endloop
  endfacet
  facet normal -9.617881e-01 -1.992877e-02 -2.730686e-01
    outer loop
      vertex 9.301086e+01 -2.748450e+01 -3.822194e+02
      vertex 9.297027e+01 -2.849679e+01 -3.820025e+02
      vertex 9.239821e+01 -2.834173e+01 -3.799989e+02
    endloop
  endfacet
  facet normal -9.841484e-01 1.368438e-02 1.768181e-01
    outer loop
      vertex 9.308937e+01 -2.958738e+01 -3.812552e+02
      vertex 9.308937e+01 -2.844579e+01 -3.813436e+02
      vertex 9.297027e+01 -2.849679e+01 -3.820025e+02
    endloop
  endfacet
  facet normal -9.841484e-01 1.368438e-02 1.768181e-01
    outer loop
      vertex 9.308937e+01 -2.958738e+01 -3.812552e+02
      vertex 9.297027e+01 -2.849679e+01 -3.820025e+02
      vertex 9.297027e+01 -2.963837e+01 -3.819142e+02
    endloop
  endfacet
  facet normal -9.594092e-01 -2.176096e-02 -2.811769e-01
    outer loop
      vertex 9.301086e+01 -2.748450e+01 -3.822194e+02
      vertex 9.297027e+01 -2.963837e+01 -3.819142e+02
      vertex 9.297027e+01 -2.849679e+01 -3.820025e+02
    endloop
  endfacet
  facet normal -8.336041e-13 -9.970186e-01 7.716168e-02
    outer loop
      vertex 9.212980e+01 -2.821750e+01 -3.783938e+02
      vertex 9.186316e+01 -2.818612e+01 -3.779884e+02
      vertex 9.239821e+01 -2.834173e+01 -3.799989e+02
    endloop
  endfacet
  facet normal -9.657717e-01 2.042647e-02 -2.585881e-01
    outer loop
      vertex 9.301086e+01 -2.748450e+01 -3.822194e+02
      vertex 9.239821e+01 -2.834173e+01 -3.799989e+02
      vertex 9.186316e+01 -2.818612e+01 -3.779884e+02
    endloop
  endfacet
  facet normal -8.362442e-01 -4.231216e-02 -5.467223e-01
    outer loop
      vertex 9.186316e+01 -2.985877e+01 -3.778589e+02
      vertex 9.186316e+01 -2.818612e+01 -3.779884e+02
      vertex 9.212980e+01 -2.821750e+01 -3.783938e+02
    endloop
  endfacet
  facet normal -9.647203e-01 9.316954e-02 -2.462400e-01
    outer loop
      vertex 9.050521e+01 -2.670185e+01 -3.721066e+02
      vertex 9.301086e+01 -2.748450e+01 -3.822194e+02
      vertex 9.186316e+01 -2.818612e+01 -3.779884e+02
    endloop
  endfacet
  facet normal -9.744565e-01 -1.607625e-03 -2.245708e-01
    outer loop
      vertex 9.150601e+01 -2.974799e+01 -3.764275e+02
      vertex 9.050521e+01 -2.670185e+01 -3.721066e+02
      vertex 9.186316e+01 -2.818612e+01 -3.779884e+02
    endloop
  endfacet
  facet normal -9.711938e-01 -1.555762e-02 -2.377827e-01
    outer loop
      vertex 9.168351e+01 -2.980381e+01 -3.771488e+02
      vertex 9.150601e+01 -2.974799e+01 -3.764275e+02
      vertex 9.186316e+01 -2.818612e+01 -3.779884e+02
    endloop
  endfacet
  facet normal -9.696338e-01 -1.887078e-02 -2.438324e-01
    outer loop
      vertex 9.186316e+01 -2.985877e+01 -3.778589e+02
      vertex 9.168351e+01 -2.980381e+01 -3.771488e+02
      vertex 9.186316e+01 -2.818612e+01 -3.779884e+02
    endloop
  endfacet
  facet normal -8.362442e-01 -4.231216e-02 -5.467223e-01
    outer loop
      vertex 9.212980e+01 -2.989015e+01 -3.782643e+02
      vertex 9.186316e+01 -2.985877e+01 -3.778589e+02
      vertex 9.212980e+01 -2.821750e+01 -3.783938e+02
    endloop
  endfacet
  facet normal 3.826834e-01 7.128810e-02 9.211251e-01
    outer loop
      vertex 2.470303e+02 -2.958110e+01 -3.811742e+02
      vertex 2.470303e+02 -2.843951e+01 -3.812625e+02
      vertex 2.465000e+02 -2.842256e+01 -3.810435e+02
    endloop
  endfacet
  facet normal 6.895564e-14 7.716168e-02 9.970186e-01
    outer loop
      vertex 2.465000e+02 -2.956415e+01 -3.809551e+02
      vertex 2.465000e+02 -2.842256e+01 -3.810435e+02
      vertex 9.368971e+01 -2.842256e+01 -3.810435e+02
    endloop
  endfacet
  facet normal 3.826834e-01 7.128810e-02 9.211251e-01
    outer loop
      vertex 2.470303e+02 -2.958110e+01 -3.811742e+02
      vertex 2.465000e+02 -2.842256e+01 -3.810435e+02
      vertex 2.465000e+02 -2.956415e+01 -3.809551e+02
    endloop
  endfacet
  facet normal -4.482048e-01 6.897721e-02 8.912658e-01
    outer loop
      vertex 9.368971e+01 -2.956415e+01 -3.809551e+02
      vertex 9.368971e+01 -2.842256e+01 -3.810435e+02
      vertex 9.308937e+01 -2.844579e+01 -3.813436e+02
    endloop
  endfacet
  facet normal 6.895210e-14 7.716168e-02 9.970186e-01
    outer loop
      vertex 9.368971e+01 -2.956415e+01 -3.809551e+02
      vertex 2.465000e+02 -2.956415e+01 -3.809551e+02
      vertex 9.368971e+01 -2.842256e+01 -3.810435e+02
    endloop
  endfacet
  facet normal -4.482048e-01 6.897721e-02 8.912658e-01
    outer loop
      vertex 9.308937e+01 -2.958738e+01 -3.812552e+02
      vertex 9.368971e+01 -2.956415e+01 -3.809551e+02
      vertex 9.308937e+01 -2.844579e+01 -3.813436e+02
    endloop
  endfacet
  facet normal -9.170598e-13 -9.970186e-01 7.716168e-02
    outer loop
      vertex 9.212980e+01 -2.989015e+01 -3.782643e+02
      vertex 9.150601e+01 -2.974799e+01 -3.764275e+02
      vertex 9.186316e+01 -2.985877e+01 -3.778589e+02
    endloop
  endfacet
  facet normal 1.076626e-12 -9.970186e-01 7.716168e-02
    outer loop
      vertex 9.186316e+01 -2.985877e+01 -3.778589e+02
      vertex 9.150601e+01 -2.974799e+01 -3.764275e+02
      vertex 9.168351e+01 -2.980381e+01 -3.771488e+02
    endloop
  endfacet
  facet normal -8.758946e-13 -9.970186e-01 7.716168e-02
    outer loop
      vertex 9.308937e+01 -2.958738e+01 -3.812552e+02
      vertex 9.297027e+01 -2.963837e+01 -3.819142e+02
      vertex 9.301086e+01 -2.964903e+01 -3.820519e+02
    endloop
  endfacet
  facet normal -9.594092e-01 -2.176096e-02 -2.811769e-01
    outer loop
      vertex 9.301086e+01 -2.748450e+01 -3.822194e+02
      vertex 9.301086e+01 -2.964903e+01 -3.820519e+02
      vertex 9.297027e+01 -2.963837e+01 -3.819142e+02
    endloop
  endfacet
  facet normal 9.036462e-13 9.970186e-01 -7.716168e-02
    outer loop
      vertex 9.354729e+01 -2.167805e+01 -3.071932e+02
      vertex 9.392694e+01 -2.153144e+01 -3.052989e+02
      vertex 9.301086e+01 -2.748450e+01 -3.822194e+02
    endloop
  endfacet
  facet normal 8.910710e-13 9.970186e-01 -7.716168e-02
    outer loop
      vertex 1.426004e+02 -2.567506e+01 -3.588393e+02
      vertex 9.301086e+01 -2.748450e+01 -3.822194e+02
      vertex 9.392694e+01 -2.153144e+01 -3.052989e+02
    endloop
  endfacet
  facet normal 8.927170e-13 9.970186e-01 -7.716168e-02
    outer loop
      vertex 9.050521e+01 -2.670185e+01 -3.721066e+02
      vertex 9.354729e+01 -2.167805e+01 -3.071932e+02
      vertex 9.301086e+01 -2.748450e+01 -3.822194e+02
    endloop
  endfacet
  facet normal 8.895710e-13 9.970186e-01 -7.716168e-02
    outer loop
      vertex 1.426004e+02 -2.567506e+01 -3.588393e+02
      vertex 1.438500e+02 -2.577151e+01 -3.600856e+02
      vertex 9.301086e+01 -2.748450e+01 -3.822194e+02
    endloop
  endfacet
  facet normal 8.909280e-13 9.970186e-01 -7.716168e-02
    outer loop
      vertex 2.335910e+02 -2.577151e+01 -3.600856e+02
      vertex 9.301086e+01 -2.748450e+01 -3.822194e+02
      vertex 1.438500e+02 -2.577151e+01 -3.600856e+02
    endloop
  endfacet
  facet normal 9.211905e-13 9.970186e-01 -7.716168e-02
    outer loop
      vertex 1.438500e+02 -2.557861e+01 -3.575930e+02
      vertex 2.098500e+02 -2.153144e+01 -3.052989e+02
      vertex 2.099500e+02 -2.153144e+01 -3.052989e+02
    endloop
  endfacet
  facet normal 8.909280e-13 9.970186e-01 -7.716168e-02
    outer loop
      vertex 2.335910e+02 -2.557861e+01 -3.575930e+02
      vertex 1.438500e+02 -2.557861e+01 -3.575930e+02
      vertex 2.099500e+02 -2.153144e+01 -3.052989e+02
    endloop
  endfacet
  facet normal 8.909786e-13 9.970186e-01 -7.716168e-02
    outer loop
      vertex 1.438500e+02 -2.557861e+01 -3.575930e+02
      vertex 9.392694e+01 -2.153144e+01 -3.052989e+02
      vertex 2.098500e+02 -2.153144e+01 -3.052989e+02
    endloop
  endfacet
  facet normal 8.910776e-13 9.970186e-01 -7.716168e-02
    outer loop
      vertex 1.438500e+02 -2.557861e+01 -3.575930e+02
      vertex 1.426004e+02 -2.567506e+01 -3.588393e+02
      vertex 9.392694e+01 -2.153144e+01 -3.052989e+02
    endloop
  endfacet
  facet normal 8.893532e-13 9.970186e-01 -7.716168e-02
    outer loop
      vertex 9.050521e+01 -2.670185e+01 -3.721066e+02
      vertex 9.039626e+01 -2.291955e+01 -3.232350e+02
      vertex 9.354729e+01 -2.167805e+01 -3.071932e+02
    endloop
  endfacet
  facet normal 8.893669e-13 9.970186e-01 -7.716168e-02
    outer loop
      vertex 8.870000e+01 -2.570867e+01 -3.592736e+02
      vertex 8.870000e+01 -2.399619e+01 -3.371464e+02
      vertex 9.039626e+01 -2.291955e+01 -3.232350e+02
    endloop
  endfacet
  facet normal 8.897599e-13 9.970186e-01 -7.716168e-02
    outer loop
      vertex 9.050521e+01 -2.670185e+01 -3.721066e+02
      vertex 8.870000e+01 -2.570867e+01 -3.592736e+02
      vertex 9.039626e+01 -2.291955e+01 -3.232350e+02
    endloop
  endfacet
  facet normal -9.814407e-01 1.479699e-02 1.911943e-01
    outer loop
      vertex 9.349418e+01 -2.386919e+01 -3.072592e+02
      vertex 9.349418e+01 -2.316178e+01 -3.073139e+02
      vertex 9.039626e+01 -2.291955e+01 -3.232350e+02
    endloop
  endfacet
  facet normal -6.214321e-01 7.721540e-01 1.326665e-01
    outer loop
      vertex 9.352839e+01 -2.315323e+01 -3.072034e+02
      vertex 9.039626e+01 -2.291955e+01 -3.232350e+02
      vertex 9.349418e+01 -2.316178e+01 -3.073139e+02
    endloop
  endfacet
  facet normal -9.554021e-01 2.188474e-01 1.982743e-01
    outer loop
      vertex 9.333484e+01 -2.392393e+01 -3.079665e+02
      vertex 9.349418e+01 -2.386919e+01 -3.072592e+02
      vertex 9.039626e+01 -2.291955e+01 -3.232350e+02
    endloop
  endfacet
  facet normal -9.588366e-01 2.036052e-01 1.979327e-01
    outer loop
      vertex 9.317804e+01 -2.397839e+01 -3.086701e+02
      vertex 9.333484e+01 -2.392393e+01 -3.079665e+02
      vertex 9.039626e+01 -2.291955e+01 -3.232350e+02
    endloop
  endfacet
  facet normal -7.071068e-01 7.049986e-01 -5.456155e-02
    outer loop
      vertex 8.825030e+01 -2.533683e+01 -3.486410e+02
      vertex 8.870000e+01 -2.399619e+01 -3.371464e+02
      vertex 8.870000e+01 -2.570867e+01 -3.592736e+02
    endloop
  endfacet
  facet normal -9.991076e-01 -2.176941e-03 -4.218063e-02
    outer loop
      vertex 8.825030e+01 -2.533683e+01 -3.486410e+02
      vertex 8.870000e+01 -2.570867e+01 -3.592736e+02
      vertex 8.825064e+01 -2.701580e+01 -3.485625e+02
    endloop
  endfacet
  facet normal -8.476639e-01 4.093687e-02 5.289519e-01
    outer loop
      vertex 9.375746e+01 -2.383673e+01 -3.068398e+02
      vertex 9.349418e+01 -2.316178e+01 -3.073139e+02
      vertex 9.349418e+01 -2.386919e+01 -3.072592e+02
    endloop
  endfacet
  facet normal -9.404435e-01 -1.539021e-01 3.031175e-01
    outer loop
      vertex 9.375746e+01 -2.383673e+01 -3.068398e+02
      vertex 9.352839e+01 -2.315323e+01 -3.072034e+02
      vertex 9.349418e+01 -2.316178e+01 -3.073139e+02
    endloop
  endfacet
endsolid P1040852002
