solid P1040852002
  facet normal -1.000000e+00 -3.424178e-15 2.730688e-12
    outer loop
      vertex -1.638140e+02 2.191403e+01 -3.041156e+02
      vertex -1.638140e+02 2.338093e+01 -3.040201e+02
      vertex -1.638140e+02 2.360184e+01 -3.074129e+02
    endloop
  endfacet
  facet normal 1.062466e-13 9.978869e-01 6.497535e-02
    outer loop
      vertex -1.635943e+02 2.356739e+01 -3.068837e+02
      vertex -1.638140e+02 2.360184e+01 -3.074129e+02
      vertex -1.638140e+02 2.338093e+01 -3.040201e+02
    endloop
  endfacet
  facet normal -1.000000e+00 -5.678968e-15 2.729534e-12
    outer loop
      vertex -1.638140e+02 2.933246e+01 -3.764369e+02
      vertex -1.638140e+02 2.191403e+01 -3.041156e+02
      vertex -1.638140e+02 2.360184e+01 -3.074129e+02
    endloop
  endfacet
  facet normal -1.000000e+00 5.708938e-14 2.734745e-12
    outer loop
      vertex -1.638140e+02 2.439109e+01 -3.086142e+02
      vertex -1.638140e+02 2.933246e+01 -3.764369e+02
      vertex -1.638140e+02 2.360184e+01 -3.074129e+02
    endloop
  endfacet
  facet normal -1.000000e+00 2.405754e-14 2.713043e-12
    outer loop
      vertex -1.638140e+02 2.430987e+01 -3.073668e+02
      vertex -1.638140e+02 2.439109e+01 -3.086142e+02
      vertex -1.638140e+02 2.360184e+01 -3.074129e+02
    endloop
  endfacet
  facet normal -9.238795e-01 -2.486499e-02 3.818748e-01
    outer loop
      vertex -1.635943e+02 2.356739e+01 -3.068837e+02
      vertex -1.638140e+02 2.430987e+01 -3.073668e+02
      vertex -1.638140e+02 2.360184e+01 -3.074129e+02
    endloop
  endfacet
  facet normal 2.722842e-12 -6.497535e-02 9.978869e-01
    outer loop
      vertex -1.265640e+02 2.191403e+01 -3.041156e+02
      vertex -1.638140e+02 2.338093e+01 -3.040201e+02
      vertex -1.638140e+02 2.191403e+01 -3.041156e+02
    endloop
  endfacet
  facet normal 2.725876e-12 -6.497535e-02 9.978869e-01
    outer loop
      vertex -1.265640e+02 2.338093e+01 -3.040201e+02
      vertex -1.638140e+02 2.338093e+01 -3.040201e+02
      vertex -1.265640e+02 2.191403e+01 -3.041156e+02
    endloop
  endfacet
  facet normal 1.757692e-13 9.978869e-01 6.497535e-02
    outer loop
      vertex -1.630640e+02 2.355311e+01 -3.066645e+02
      vertex -1.638140e+02 2.338093e+01 -3.040201e+02
      vertex -1.265640e+02 2.338093e+01 -3.040201e+02
    endloop
  endfacet
  facet normal 1.808297e-13 9.978869e-01 6.497535e-02
    outer loop
      vertex -1.635943e+02 2.356739e+01 -3.068837e+02
      vertex -1.638140e+02 2.338093e+01 -3.040201e+02
      vertex -1.630640e+02 2.355311e+01 -3.066645e+02
    endloop
  endfacet
  facet normal -1.000000e+00 1.257373e-15 2.730322e-12
    outer loop
      vertex -1.638140e+02 2.799948e+01 -3.817848e+02
      vertex -1.638140e+02 2.699839e+01 -3.822008e+02
      vertex -1.638140e+02 2.191403e+01 -3.041156e+02
    endloop
  endfacet
  facet normal -1.756241e-13 -9.978869e-01 -6.497535e-02
    outer loop
      vertex -1.501550e+02 2.555594e+01 -3.600477e+02
      vertex -1.638140e+02 2.191403e+01 -3.041156e+02
      vertex -1.638140e+02 2.699839e+01 -3.822008e+02
    endloop
  endfacet
  facet normal -1.000000e+00 3.050418e-13 2.754124e-12
    outer loop
      vertex -1.638140e+02 2.773958e+01 -3.777933e+02
      vertex -1.638140e+02 2.799948e+01 -3.817848e+02
      vertex -1.638140e+02 2.191403e+01 -3.041156e+02
    endloop
  endfacet
  facet normal -1.000000e+00 -4.740674e-15 2.729630e-12
    outer loop
      vertex -1.638140e+02 2.933246e+01 -3.764369e+02
      vertex -1.638140e+02 2.773958e+01 -3.777933e+02
      vertex -1.638140e+02 2.191403e+01 -3.041156e+02
    endloop
  endfacet
  facet normal -1.753812e-13 -9.978869e-01 -6.497535e-02
    outer loop
      vertex -1.501550e+02 2.539350e+01 -3.575530e+02
      vertex -1.265640e+02 2.191403e+01 -3.041156e+02
      vertex -1.638140e+02 2.191403e+01 -3.041156e+02
    endloop
  endfacet
  facet normal -1.792613e-13 -9.978869e-01 -6.497535e-02
    outer loop
      vertex -1.501550e+02 2.555594e+01 -3.600477e+02
      vertex -1.501550e+02 2.539350e+01 -3.575530e+02
      vertex -1.638140e+02 2.191403e+01 -3.041156e+02
    endloop
  endfacet
  facet normal -1.000000e+00 3.499385e-15 2.767041e-12
    outer loop
      vertex -1.638140e+02 2.914206e+01 -3.817104e+02
      vertex -1.638140e+02 2.916480e+01 -3.820597e+02
      vertex -1.638140e+02 2.699839e+01 -3.822008e+02
    endloop
  endfacet
  facet normal -2.723021e-12 6.497535e-02 -9.978869e-01
    outer loop
      vertex -9.574862e+00 2.916480e+01 -3.820597e+02
      vertex -1.638140e+02 2.699839e+01 -3.822008e+02
      vertex -1.638140e+02 2.916480e+01 -3.820597e+02
    endloop
  endfacet
  facet normal -1.000000e+00 2.493097e-14 2.673342e-12
    outer loop
      vertex -1.638140e+02 2.799948e+01 -3.817848e+02
      vertex -1.638140e+02 2.914206e+01 -3.817104e+02
      vertex -1.638140e+02 2.699839e+01 -3.822008e+02
    endloop
  endfacet
  facet normal -2.723759e-12 6.497535e-02 -9.978869e-01
    outer loop
      vertex -9.574862e+00 2.699839e+01 -3.822008e+02
      vertex -1.638140e+02 2.699839e+01 -3.822008e+02
      vertex -9.574862e+00 2.916480e+01 -3.820597e+02
    endloop
  endfacet
  facet normal -1.755985e-13 -9.978869e-01 -6.497535e-02
    outer loop
      vertex -1.501550e+02 2.555594e+01 -3.600477e+02
      vertex -1.638140e+02 2.699839e+01 -3.822008e+02
      vertex -9.574862e+00 2.699839e+01 -3.822008e+02
    endloop
  endfacet
  facet normal 4.517058e-14 9.978869e-01 6.497535e-02
    outer loop
      vertex -1.635943e+02 2.910760e+01 -3.811812e+02
      vertex -1.638140e+02 2.916480e+01 -3.820597e+02
      vertex -1.638140e+02 2.914206e+01 -3.817104e+02
    endloop
  endfacet
  facet normal 1.755980e-13 9.978869e-01 6.497535e-02
    outer loop
      vertex -1.025371e+01 2.909333e+01 -3.809620e+02
      vertex -1.638140e+02 2.916480e+01 -3.820597e+02
      vertex -1.630640e+02 2.909333e+01 -3.809620e+02
    endloop
  endfacet
  facet normal 1.874208e-13 9.978869e-01 6.497535e-02
    outer loop
      vertex -1.635943e+02 2.910760e+01 -3.811812e+02
      vertex -1.630640e+02 2.909333e+01 -3.809620e+02
      vertex -1.638140e+02 2.916480e+01 -3.820597e+02
    endloop
  endfacet
  facet normal 1.757557e-13 9.978869e-01 6.497535e-02
    outer loop
      vertex -9.653375e+00 2.911288e+01 -3.812624e+02
      vertex -1.638140e+02 2.916480e+01 -3.820597e+02
      vertex -1.025371e+01 2.909333e+01 -3.809620e+02
    endloop
  endfacet
  facet normal 1.755958e-13 9.978869e-01 6.497535e-02
    outer loop
      vertex -9.653375e+00 2.911288e+01 -3.812624e+02
      vertex -9.574862e+00 2.916480e+01 -3.820597e+02
      vertex -1.638140e+02 2.916480e+01 -3.820597e+02
    endloop
  endfacet
  facet normal -9.238795e-01 -2.486499e-02 3.818748e-01
    outer loop
      vertex -1.635943e+02 2.796502e+01 -3.812556e+02
      vertex -1.638140e+02 2.914206e+01 -3.817104e+02
      vertex -1.638140e+02 2.799948e+01 -3.817848e+02
    endloop
  endfacet
  facet normal -9.238795e-01 -2.486499e-02 3.818748e-01
    outer loop
      vertex -1.635943e+02 2.910760e+01 -3.811812e+02
      vertex -1.638140e+02 2.914206e+01 -3.817104e+02
      vertex -1.635943e+02 2.796502e+01 -3.812556e+02
    endloop
  endfacet
  facet normal 1.772551e-13 9.978869e-01 6.497535e-02
    outer loop
      vertex -1.635943e+02 2.777404e+01 -3.783225e+02
      vertex -1.638140e+02 2.799948e+01 -3.817848e+02
      vertex -1.638140e+02 2.773958e+01 -3.777933e+02
    endloop
  endfacet
  facet normal 2.335230e-13 9.978869e-01 6.497535e-02
    outer loop
      vertex -1.635943e+02 2.796502e+01 -3.812556e+02
      vertex -1.638140e+02 2.799948e+01 -3.817848e+02
      vertex -1.635943e+02 2.777404e+01 -3.783225e+02
    endloop
  endfacet
  facet normal -1.000000e+00 -8.228407e-15 2.733726e-12
    outer loop
      vertex -1.638140e+02 2.933246e+01 -3.764369e+02
      vertex -1.638140e+02 2.941368e+01 -3.776843e+02
      vertex -1.638140e+02 2.773958e+01 -3.777933e+02
    endloop
  endfacet
  facet normal -9.238795e-01 2.486499e-02 -3.818748e-01
    outer loop
      vertex -1.635943e+02 2.944814e+01 -3.782135e+02
      vertex -1.638140e+02 2.773958e+01 -3.777933e+02
      vertex -1.638140e+02 2.941368e+01 -3.776843e+02
    endloop
  endfacet
  facet normal -9.238795e-01 2.486499e-02 -3.818748e-01
    outer loop
      vertex -1.635943e+02 2.944814e+01 -3.782135e+02
      vertex -1.635943e+02 2.777404e+01 -3.783225e+02
      vertex -1.638140e+02 2.773958e+01 -3.777933e+02
    endloop
  endfacet
  facet normal 1.756104e-13 9.978869e-01 6.497535e-02
    outer loop
      vertex -8.070011e+00 2.933246e+01 -3.764369e+02
      vertex -1.638140e+02 2.941368e+01 -3.776843e+02
      vertex -1.638140e+02 2.933246e+01 -3.764369e+02
    endloop
  endfacet
  facet normal 1.756391e-13 9.978869e-01 6.497535e-02
    outer loop
      vertex -1.635943e+02 2.944814e+01 -3.782135e+02
      vertex -1.638140e+02 2.941368e+01 -3.776843e+02
      vertex -8.070011e+00 2.933246e+01 -3.764369e+02
    endloop
  endfacet
  facet normal -1.000000e+00 -1.769570e-13 2.717693e-12
    outer loop
      vertex -1.638140e+02 2.449088e+01 -3.086077e+02
      vertex -1.638140e+02 2.941731e+01 -3.764314e+02
      vertex -1.638140e+02 2.933246e+01 -3.764369e+02
    endloop
  endfacet
  facet normal -2.724396e-12 6.497535e-02 -9.978869e-01
    outer loop
      vertex -8.070011e+00 2.941731e+01 -3.764314e+02
      vertex -1.638140e+02 2.933246e+01 -3.764369e+02
      vertex -1.638140e+02 2.941731e+01 -3.764314e+02
    endloop
  endfacet
  facet normal -1.000000e+00 -1.769570e-13 2.717693e-12
    outer loop
      vertex -1.638140e+02 2.439109e+01 -3.086142e+02
      vertex -1.638140e+02 2.449088e+01 -3.086077e+02
      vertex -1.638140e+02 2.933246e+01 -3.764369e+02
    endloop
  endfacet
  facet normal -2.724396e-12 6.497535e-02 -9.978869e-01
    outer loop
      vertex -8.070011e+00 2.933246e+01 -3.764369e+02
      vertex -1.638140e+02 2.933246e+01 -3.764369e+02
      vertex -8.070011e+00 2.941731e+01 -3.764314e+02
    endloop
  endfacet
  facet normal 1.964302e-13 9.973724e-01 7.244498e-02
    outer loop
      vertex -1.501550e+02 2.803357e+01 -3.573811e+02
      vertex -1.638140e+02 2.941731e+01 -3.764314e+02
      vertex -1.638140e+02 2.449088e+01 -3.086077e+02
    endloop
  endfacet
  facet normal 1.960521e-13 9.973724e-01 7.244498e-02
    outer loop
      vertex -1.501550e+02 2.821469e+01 -3.598746e+02
      vertex -6.041400e+01 2.821469e+01 -3.598746e+02
      vertex -1.638140e+02 2.941731e+01 -3.764314e+02
    endloop
  endfacet
  facet normal 1.960038e-13 9.973724e-01 7.244498e-02
    outer loop
      vertex -8.070011e+00 2.941731e+01 -3.764314e+02
      vertex -1.638140e+02 2.941731e+01 -3.764314e+02
      vertex -6.041400e+01 2.821469e+01 -3.598746e+02
    endloop
  endfacet
  facet normal 1.925731e-13 9.973724e-01 7.244498e-02
    outer loop
      vertex -1.501550e+02 2.803357e+01 -3.573811e+02
      vertex -1.501550e+02 2.821469e+01 -3.598746e+02
      vertex -1.638140e+02 2.941731e+01 -3.764314e+02
    endloop
  endfacet
  facet normal 2.724509e-12 -6.497535e-02 9.978869e-01
    outer loop
      vertex -9.742036e+00 2.439109e+01 -3.086142e+02
      vertex -1.638140e+02 2.449088e+01 -3.086077e+02
      vertex -1.638140e+02 2.439109e+01 -3.086142e+02
    endloop
  endfacet
  facet normal 1.961231e-13 9.973724e-01 7.244498e-02
    outer loop
      vertex -9.742036e+00 2.449088e+01 -3.086077e+02
      vertex -1.501550e+02 2.803357e+01 -3.573811e+02
      vertex -1.638140e+02 2.449088e+01 -3.086077e+02
    endloop
  endfacet
  facet normal 2.723761e-12 -6.497535e-02 9.978869e-01
    outer loop
      vertex -9.742036e+00 2.439109e+01 -3.086142e+02
      vertex -9.742036e+00 2.449088e+01 -3.086077e+02
      vertex -1.638140e+02 2.449088e+01 -3.086077e+02
    endloop
  endfacet
  facet normal 1.521775e-13 9.978869e-01 6.497535e-02
    outer loop
      vertex -1.635943e+02 2.427541e+01 -3.068376e+02
      vertex -1.638140e+02 2.439109e+01 -3.086142e+02
      vertex -1.638140e+02 2.430987e+01 -3.073668e+02
    endloop
  endfacet
  facet normal 1.756321e-13 9.978869e-01 6.497535e-02
    outer loop
      vertex -1.078977e+01 2.426114e+01 -3.066184e+02
      vertex -1.638140e+02 2.439109e+01 -3.086142e+02
      vertex -1.630640e+02 2.426114e+01 -3.066184e+02
    endloop
  endfacet
  facet normal 1.798373e-13 9.978869e-01 6.497535e-02
    outer loop
      vertex -1.635943e+02 2.427541e+01 -3.068376e+02
      vertex -1.630640e+02 2.426114e+01 -3.066184e+02
      vertex -1.638140e+02 2.439109e+01 -3.086142e+02
    endloop
  endfacet
  facet normal 1.753675e-13 9.978869e-01 6.497535e-02
    outer loop
      vertex -1.032146e+01 2.427180e+01 -3.067822e+02
      vertex -1.638140e+02 2.439109e+01 -3.086142e+02
      vertex -1.078977e+01 2.426114e+01 -3.066184e+02
    endloop
  endfacet
  facet normal 1.756030e-13 9.978869e-01 6.497535e-02
    outer loop
      vertex -9.898844e+00 2.434523e+01 -3.079100e+02
      vertex -1.638140e+02 2.439109e+01 -3.086142e+02
      vertex -1.005818e+01 2.429914e+01 -3.072020e+02
    endloop
  endfacet
  facet normal 1.758164e-13 9.978869e-01 6.497535e-02
    outer loop
      vertex -1.032146e+01 2.427180e+01 -3.067822e+02
      vertex -1.005818e+01 2.429914e+01 -3.072020e+02
      vertex -1.638140e+02 2.439109e+01 -3.086142e+02
    endloop
  endfacet
  facet normal 1.755984e-13 9.978869e-01 6.497535e-02
    outer loop
      vertex -9.742036e+00 2.439109e+01 -3.086142e+02
      vertex -1.638140e+02 2.439109e+01 -3.086142e+02
      vertex -9.898844e+00 2.434523e+01 -3.079100e+02
    endloop
  endfacet
  facet normal -9.238795e-01 -2.486499e-02 3.818748e-01
    outer loop
      vertex -1.635943e+02 2.427541e+01 -3.068376e+02
      vertex -1.638140e+02 2.430987e+01 -3.073668e+02
      vertex -1.635943e+02 2.356739e+01 -3.068837e+02
    endloop
  endfacet
  facet normal 7.071068e-01 -4.594451e-02 7.056126e-01
    outer loop
      vertex -1.265140e+02 2.338418e+01 -3.040700e+02
      vertex -1.265640e+02 2.338093e+01 -3.040201e+02
      vertex -1.265640e+02 2.191403e+01 -3.041156e+02
    endloop
  endfacet
  facet normal 7.071068e-01 -4.594451e-02 7.056126e-01
    outer loop
      vertex -1.265140e+02 2.191728e+01 -3.041655e+02
      vertex -1.265140e+02 2.338418e+01 -3.040700e+02
      vertex -1.265640e+02 2.191403e+01 -3.041156e+02
    endloop
  endfacet
  facet normal -2.071442e-13 -9.978869e-01 -6.497535e-02
    outer loop
      vertex -1.265140e+02 2.197901e+01 -3.051135e+02
      vertex -1.265140e+02 2.191728e+01 -3.041655e+02
      vertex -1.265640e+02 2.191403e+01 -3.041156e+02
    endloop
  endfacet
  facet normal 9.808127e-13 -9.978869e-01 -6.497535e-02
    outer loop
      vertex -1.265140e+02 2.198551e+01 -3.052133e+02
      vertex -1.265140e+02 2.197901e+01 -3.051135e+02
      vertex -1.265640e+02 2.191403e+01 -3.041156e+02
    endloop
  endfacet
  facet normal -1.866477e-13 -9.978869e-01 -6.497535e-02
    outer loop
      vertex -1.501550e+02 2.539350e+01 -3.575530e+02
      vertex -1.265140e+02 2.198551e+01 -3.052133e+02
      vertex -1.265640e+02 2.191403e+01 -3.041156e+02
    endloop
  endfacet
  facet normal 1.782206e-13 9.978869e-01 6.497535e-02
    outer loop
      vertex -1.265140e+02 2.338418e+01 -3.040700e+02
      vertex -1.630640e+02 2.355311e+01 -3.066645e+02
      vertex -1.265640e+02 2.338093e+01 -3.040201e+02
    endloop
  endfacet
  facet normal 1.755856e-13 9.978869e-01 6.497535e-02
    outer loop
      vertex -1.264140e+02 2.345240e+01 -3.051178e+02
      vertex -1.078977e+01 2.355311e+01 -3.066645e+02
      vertex -1.630640e+02 2.355311e+01 -3.066645e+02
    endloop
  endfacet
  facet normal 2.724638e-12 -6.497535e-02 9.978869e-01
    outer loop
      vertex -1.630640e+02 2.426114e+01 -3.066184e+02
      vertex -1.630640e+02 2.355311e+01 -3.066645e+02
      vertex -1.078977e+01 2.355311e+01 -3.066645e+02
    endloop
  endfacet
  facet normal 1.477368e-13 9.978869e-01 6.497535e-02
    outer loop
      vertex -1.265140e+02 2.345240e+01 -3.051178e+02
      vertex -1.264140e+02 2.345240e+01 -3.051178e+02
      vertex -1.630640e+02 2.355311e+01 -3.066645e+02
    endloop
  endfacet
  facet normal 1.752147e-13 9.978869e-01 6.497535e-02
    outer loop
      vertex -1.265140e+02 2.344590e+01 -3.050180e+02
      vertex -1.265140e+02 2.345240e+01 -3.051178e+02
      vertex -1.630640e+02 2.355311e+01 -3.066645e+02
    endloop
  endfacet
  facet normal 1.757204e-13 9.978869e-01 6.497535e-02
    outer loop
      vertex -1.265140e+02 2.338418e+01 -3.040700e+02
      vertex -1.265140e+02 2.344590e+01 -3.050180e+02
      vertex -1.630640e+02 2.355311e+01 -3.066645e+02
    endloop
  endfacet
  facet normal -3.826834e-01 -6.002939e-02 9.219273e-01
    outer loop
      vertex -1.635943e+02 2.427541e+01 -3.068376e+02
      vertex -1.635943e+02 2.356739e+01 -3.068837e+02
      vertex -1.630640e+02 2.355311e+01 -3.066645e+02
    endloop
  endfacet
  facet normal -3.826834e-01 -6.002939e-02 9.219273e-01
    outer loop
      vertex -1.635943e+02 2.427541e+01 -3.068376e+02
      vertex -1.630640e+02 2.355311e+01 -3.066645e+02
      vertex -1.630640e+02 2.426114e+01 -3.066184e+02
    endloop
  endfacet
  facet normal 1.897854e-13 9.978869e-01 6.497535e-02
    outer loop
      vertex -1.049094e+01 2.345240e+01 -3.051178e+02
      vertex -1.041712e+01 2.355955e+01 -3.067634e+02
      vertex -1.078977e+01 2.355311e+01 -3.066645e+02
    endloop
  endfacet
  facet normal 2.570681e-01 -6.279174e-02 9.643512e-01
    outer loop
      vertex -1.078977e+01 2.426114e+01 -3.066184e+02
      vertex -1.078977e+01 2.355311e+01 -3.066645e+02
      vertex -1.041712e+01 2.355955e+01 -3.067634e+02
    endloop
  endfacet
  facet normal 1.756281e-13 9.978869e-01 6.497535e-02
    outer loop
      vertex -1.264140e+02 2.345240e+01 -3.051178e+02
      vertex -1.049094e+01 2.345240e+01 -3.051178e+02
      vertex -1.078977e+01 2.355311e+01 -3.066645e+02
    endloop
  endfacet
  facet normal 2.724635e-12 -6.497535e-02 9.978869e-01
    outer loop
      vertex -1.078977e+01 2.426114e+01 -3.066184e+02
      vertex -1.630640e+02 2.426114e+01 -3.066184e+02
      vertex -1.078977e+01 2.355311e+01 -3.066645e+02
    endloop
  endfacet
  facet normal 1.780137e-13 9.978869e-01 6.497535e-02
    outer loop
      vertex -1.049094e+01 2.345240e+01 -3.051178e+02
      vertex -1.011129e+01 2.357585e+01 -3.070138e+02
      vertex -1.041712e+01 2.355955e+01 -3.067634e+02
    endloop
  endfacet
  facet normal 6.341463e-01 -6.482307e-02 7.704911e-01
    outer loop
      vertex -1.032146e+01 2.427180e+01 -3.067822e+02
      vertex -1.041712e+01 2.355955e+01 -3.067634e+02
      vertex -1.011129e+01 2.357585e+01 -3.070138e+02
    endloop
  endfacet
  facet normal 3.305452e-01 -1.947308e-02 9.435892e-01
    outer loop
      vertex -1.032146e+01 2.427180e+01 -3.067822e+02
      vertex -1.078977e+01 2.426114e+01 -3.066184e+02
      vertex -1.041712e+01 2.355955e+01 -3.067634e+02
    endloop
  endfacet
  facet normal 9.806147e-01 -1.273167e-02 1.955321e-01
    outer loop
      vertex -1.011129e+01 2.210896e+01 -3.071093e+02
      vertex -1.011129e+01 2.357585e+01 -3.070138e+02
      vertex -1.049094e+01 2.345240e+01 -3.051178e+02
    endloop
  endfacet
  facet normal 9.813576e-01 -1.248764e-02 1.917843e-01
    outer loop
      vertex -6.960258e+00 2.315439e+01 -3.231650e+02
      vertex -1.011129e+01 2.357585e+01 -3.070138e+02
      vertex -1.011129e+01 2.210896e+01 -3.071093e+02
    endloop
  endfacet
  facet normal 8.945416e-01 4.159427e-01 1.636672e-01
    outer loop
      vertex -1.009239e+01 2.358391e+01 -3.071375e+02
      vertex -1.011129e+01 2.357585e+01 -3.070138e+02
      vertex -6.960258e+00 2.315439e+01 -3.231650e+02
    endloop
  endfacet
  facet normal 9.583058e-01 2.356175e-01 1.616616e-01
    outer loop
      vertex -1.032146e+01 2.427180e+01 -3.067822e+02
      vertex -1.011129e+01 2.357585e+01 -3.070138e+02
      vertex -1.009239e+01 2.358391e+01 -3.071375e+02
    endloop
  endfacet
  facet normal 2.724641e-12 -6.497535e-02 9.978869e-01
    outer loop
      vertex -1.049094e+01 2.198551e+01 -3.052133e+02
      vertex -1.049094e+01 2.345240e+01 -3.051178e+02
      vertex -1.264140e+02 2.345240e+01 -3.051178e+02
    endloop
  endfacet
  facet normal 9.806147e-01 -1.273167e-02 1.955321e-01
    outer loop
      vertex -1.011129e+01 2.210896e+01 -3.071093e+02
      vertex -1.049094e+01 2.345240e+01 -3.051178e+02
      vertex -1.049094e+01 2.198551e+01 -3.052133e+02
    endloop
  endfacet
  facet normal 2.268782e-12 -6.497535e-02 9.978869e-01
    outer loop
      vertex -1.264140e+02 2.198551e+01 -3.052133e+02
      vertex -1.264140e+02 2.345240e+01 -3.051178e+02
      vertex -1.265140e+02 2.345240e+01 -3.051178e+02
    endloop
  endfacet
  facet normal 2.722680e-12 -6.497535e-02 9.978869e-01
    outer loop
      vertex -1.049094e+01 2.198551e+01 -3.052133e+02
      vertex -1.264140e+02 2.345240e+01 -3.051178e+02
      vertex -1.264140e+02 2.198551e+01 -3.052133e+02
    endloop
  endfacet
  facet normal 1.000000e+00 1.794728e-15 -2.705663e-12
    outer loop
      vertex -1.265140e+02 2.198551e+01 -3.052133e+02
      vertex -1.265140e+02 2.345240e+01 -3.051178e+02
      vertex -1.265140e+02 2.344590e+01 -3.050180e+02
    endloop
  endfacet
  facet normal 2.268932e-12 -6.497535e-02 9.978869e-01
    outer loop
      vertex -1.264140e+02 2.198551e+01 -3.052133e+02
      vertex -1.265140e+02 2.345240e+01 -3.051178e+02
      vertex -1.265140e+02 2.198551e+01 -3.052133e+02
    endloop
  endfacet
  facet normal 1.000000e+00 3.252657e-15 -2.728054e-12
    outer loop
      vertex -1.265140e+02 2.191728e+01 -3.041655e+02
      vertex -1.265140e+02 2.344590e+01 -3.050180e+02
      vertex -1.265140e+02 2.338418e+01 -3.040700e+02
    endloop
  endfacet
  facet normal 1.000000e+00 3.252657e-15 -2.728054e-12
    outer loop
      vertex -1.265140e+02 2.197901e+01 -3.051135e+02
      vertex -1.265140e+02 2.344590e+01 -3.050180e+02
      vertex -1.265140e+02 2.191728e+01 -3.041655e+02
    endloop
  endfacet
  facet normal 1.000000e+00 1.794728e-15 -2.705663e-12
    outer loop
      vertex -1.265140e+02 2.198551e+01 -3.052133e+02
      vertex -1.265140e+02 2.344590e+01 -3.050180e+02
      vertex -1.265140e+02 2.197901e+01 -3.051135e+02
    endloop
  endfacet
  facet normal 2.725638e-12 -6.497535e-02 9.978869e-01
    outer loop
      vertex -6.041400e+01 2.555594e+01 -3.600477e+02
      vertex -6.041400e+01 2.821469e+01 -3.598746e+02
      vertex -1.501550e+02 2.821469e+01 -3.598746e+02
    endloop
  endfacet
  facet normal 1.956203e-13 9.973724e-01 7.244498e-02
    outer loop
      vertex -8.070011e+00 2.941731e+01 -3.764314e+02
      vertex -6.041400e+01 2.821469e+01 -3.598746e+02
      vertex -5.916443e+01 2.812413e+01 -3.586278e+02
    endloop
  endfacet
  facet normal -7.072286e-01 -4.593660e-02 7.054910e-01
    outer loop
      vertex -5.916443e+01 2.547472e+01 -3.588003e+02
      vertex -5.916443e+01 2.812413e+01 -3.586278e+02
      vertex -6.041400e+01 2.821469e+01 -3.598746e+02
    endloop
  endfacet
  facet normal -7.072286e-01 -4.593659e-02 7.054910e-01
    outer loop
      vertex -5.916443e+01 2.547472e+01 -3.588003e+02
      vertex -6.041400e+01 2.821469e+01 -3.598746e+02
      vertex -6.041400e+01 2.555594e+01 -3.600477e+02
    endloop
  endfacet
  facet normal 1.000000e+00 5.847041e-15 -2.735171e-12
    outer loop
      vertex -1.501550e+02 2.539350e+01 -3.575530e+02
      vertex -1.501550e+02 2.821469e+01 -3.598746e+02
      vertex -1.501550e+02 2.803357e+01 -3.573811e+02
    endloop
  endfacet
  facet normal 2.724374e-12 -6.497535e-02 9.978869e-01
    outer loop
      vertex -1.501550e+02 2.555594e+01 -3.600477e+02
      vertex -6.041400e+01 2.555594e+01 -3.600477e+02
      vertex -1.501550e+02 2.821469e+01 -3.598746e+02
    endloop
  endfacet
  facet normal 1.000000e+00 6.968444e-15 -2.733808e-12
    outer loop
      vertex -1.501550e+02 2.555594e+01 -3.600477e+02
      vertex -1.501550e+02 2.821469e+01 -3.598746e+02
      vertex -1.501550e+02 2.539350e+01 -3.575530e+02
    endloop
  endfacet
  facet normal 1.959630e-13 9.973724e-01 7.244498e-02
    outer loop
      vertex -9.742036e+00 2.449088e+01 -3.086077e+02
      vertex -6.041400e+01 2.803357e+01 -3.573811e+02
      vertex -1.501550e+02 2.803357e+01 -3.573811e+02
    endloop
  endfacet
  facet normal -2.724374e-12 6.497535e-02 -9.978869e-01
    outer loop
      vertex -1.501550e+02 2.539350e+01 -3.575530e+02
      vertex -1.501550e+02 2.803357e+01 -3.573811e+02
      vertex -6.041400e+01 2.803357e+01 -3.573811e+02
    endloop
  endfacet
  facet normal 1.959519e-13 9.973724e-01 7.244498e-02
    outer loop
      vertex -9.742036e+00 2.449088e+01 -3.086077e+02
      vertex -5.916443e+01 2.812413e+01 -3.586278e+02
      vertex -6.041400e+01 2.803357e+01 -3.573811e+02
    endloop
  endfacet
  facet normal -7.072286e-01 4.593659e-02 -7.054910e-01
    outer loop
      vertex -6.041400e+01 2.539350e+01 -3.575530e+02
      vertex -6.041400e+01 2.803357e+01 -3.573811e+02
      vertex -5.916443e+01 2.812413e+01 -3.586278e+02
    endloop
  endfacet
  facet normal -2.725638e-12 6.497535e-02 -9.978869e-01
    outer loop
      vertex -1.501550e+02 2.539350e+01 -3.575530e+02
      vertex -6.041400e+01 2.803357e+01 -3.573811e+02
      vertex -6.041400e+01 2.539350e+01 -3.575530e+02
    endloop
  endfacet
  facet normal 1.960734e-13 9.973724e-01 7.244498e-02
    outer loop
      vertex -8.070011e+00 2.941731e+01 -3.764314e+02
      vertex -5.916443e+01 2.812413e+01 -3.586278e+02
      vertex -9.742036e+00 2.449088e+01 -3.086077e+02
    endloop
  endfacet
  facet normal -7.072286e-01 4.593654e-02 -7.054910e-01
    outer loop
      vertex -6.041400e+01 2.539350e+01 -3.575530e+02
      vertex -5.916443e+01 2.812413e+01 -3.586278e+02
      vertex -5.916443e+01 2.547472e+01 -3.588003e+02
    endloop
  endfacet
  facet normal 1.959507e-13 9.973724e-01 7.244498e-02
    outer loop
      vertex -6.902406e+00 2.556282e+01 -3.233655e+02
      vertex -8.070011e+00 2.941731e+01 -3.764314e+02
      vertex -9.742036e+00 2.449088e+01 -3.086077e+02
    endloop
  endfacet
  facet normal 9.820626e-01 -7.904473e-03 1.883896e-01
    outer loop
      vertex -6.960258e+00 2.315439e+01 -3.231650e+02
      vertex -6.902406e+00 2.556282e+01 -3.233655e+02
      vertex -9.742036e+00 2.449088e+01 -3.086077e+02
    endloop
  endfacet
  facet normal 9.819444e-01 -1.229136e-02 1.887698e-01
    outer loop
      vertex -9.742036e+00 2.439109e+01 -3.086142e+02
      vertex -6.960258e+00 2.315439e+01 -3.231650e+02
      vertex -9.742036e+00 2.449088e+01 -3.086077e+02
    endloop
  endfacet
  facet normal 1.903746e-13 9.973724e-01 7.244498e-02
    outer loop
      vertex -6.902406e+00 2.556282e+01 -3.233655e+02
      vertex -6.353959e+00 2.880065e+01 -3.679417e+02
      vertex -8.070011e+00 2.941731e+01 -3.764314e+02
    endloop
  endfacet
  facet normal 9.802764e-01 1.284117e-02 -1.972139e-01
    outer loop
      vertex -8.070011e+00 2.933246e+01 -3.764369e+02
      vertex -8.070011e+00 2.941731e+01 -3.764314e+02
      vertex -6.353959e+00 2.880065e+01 -3.679417e+02
    endloop
  endfacet
  facet normal 2.023786e-13 9.973724e-01 7.244498e-02
    outer loop
      vertex -5.263999e+00 2.654785e+01 -3.369266e+02
      vertex -5.263999e+00 2.815568e+01 -3.590622e+02
      vertex -6.353959e+00 2.880065e+01 -3.679417e+02
    endloop
  endfacet
  facet normal 9.891423e-01 -7.427000e-02 -1.268125e-01
    outer loop
      vertex -7.069208e+00 2.633934e+01 -3.720792e+02
      vertex -6.353959e+00 2.880065e+01 -3.679417e+02
      vertex -5.263999e+00 2.815568e+01 -3.590622e+02
    endloop
  endfacet
  facet normal 1.984616e-13 9.973724e-01 7.244498e-02
    outer loop
      vertex -6.902406e+00 2.556282e+01 -3.233655e+02
      vertex -5.263999e+00 2.654785e+01 -3.369266e+02
      vertex -6.353959e+00 2.880065e+01 -3.679417e+02
    endloop
  endfacet
  facet normal 9.798014e-01 4.341077e-02 -1.952042e-01
    outer loop
      vertex -8.070011e+00 2.933246e+01 -3.764369e+02
      vertex -6.353959e+00 2.880065e+01 -3.679417e+02
      vertex -7.069208e+00 2.633934e+01 -3.720792e+02
    endloop
  endfacet
  facet normal 7.071068e-01 7.052488e-01 5.122634e-02
    outer loop
      vertex -4.814644e+00 2.694090e+01 -3.485407e+02
      vertex -5.263999e+00 2.815568e+01 -3.590622e+02
      vertex -5.263999e+00 2.654785e+01 -3.369266e+02
    endloop
  endfacet
  facet normal 9.903078e-01 9.024777e-03 -1.385968e-01
    outer loop
      vertex -7.069208e+00 2.633934e+01 -3.720792e+02
      vertex -5.263999e+00 2.815568e+01 -3.590622e+02
      vertex -5.264000e+00 2.550302e+01 -3.592350e+02
    endloop
  endfacet
  facet normal 9.990990e-01 2.757353e-03 -4.235106e-02
    outer loop
      vertex -4.814644e+00 2.694090e+01 -3.485407e+02
      vertex -5.264000e+00 2.550302e+01 -3.592350e+02
      vertex -5.263999e+00 2.815568e+01 -3.590622e+02
    endloop
  endfacet
  facet normal 9.928177e-01 -7.773165e-03 1.193841e-01
    outer loop
      vertex -5.264000e+00 2.406100e+01 -3.370885e+02
      vertex -5.263999e+00 2.654785e+01 -3.369266e+02
      vertex -6.902406e+00 2.556282e+01 -3.233655e+02
    endloop
  endfacet
  facet normal 9.992447e-01 -2.525160e-03 3.877708e-02
    outer loop
      vertex -4.814301e+00 2.526111e+01 -3.485987e+02
      vertex -5.263999e+00 2.654785e+01 -3.369266e+02
      vertex -5.264000e+00 2.406100e+01 -3.370885e+02
    endloop
  endfacet
  facet normal 9.992532e-01 -1.129304e-03 3.862353e-02
    outer loop
      vertex -4.814301e+00 2.526111e+01 -3.485987e+02
      vertex -4.814644e+00 2.694090e+01 -3.485407e+02
      vertex -5.263999e+00 2.654785e+01 -3.369266e+02
    endloop
  endfacet
  facet normal 9.926734e-01 -1.385084e-02 1.200320e-01
    outer loop
      vertex -5.264000e+00 2.406100e+01 -3.370885e+02
      vertex -6.902406e+00 2.556282e+01 -3.233655e+02
      vertex -6.960258e+00 2.315439e+01 -3.231650e+02
    endloop
  endfacet
  facet normal -2.724424e-12 6.497535e-02 -9.978869e-01
    outer loop
      vertex -1.630640e+02 2.778831e+01 -3.785417e+02
      vertex -1.630640e+02 2.946241e+01 -3.784327e+02
      vertex -9.153794e+00 2.946241e+01 -3.784327e+02
    endloop
  endfacet
  facet normal 1.755910e-13 9.978869e-01 6.497535e-02
    outer loop
      vertex -8.070011e+00 2.933246e+01 -3.764369e+02
      vertex -9.153794e+00 2.946241e+01 -3.784327e+02
      vertex -1.630640e+02 2.946241e+01 -3.784327e+02
    endloop
  endfacet
  facet normal -2.724424e-12 6.497535e-02 -9.978869e-01
    outer loop
      vertex -9.153794e+00 2.778831e+01 -3.785417e+02
      vertex -1.630640e+02 2.778831e+01 -3.785417e+02
      vertex -9.153794e+00 2.946241e+01 -3.784327e+02
    endloop
  endfacet
  facet normal 3.241685e-01 6.146663e-02 -9.440003e-01
    outer loop
      vertex -8.693799e+00 2.945217e+01 -3.782754e+02
      vertex -9.153794e+00 2.778831e+01 -3.785417e+02
      vertex -9.153794e+00 2.946241e+01 -3.784327e+02
    endloop
  endfacet
  facet normal 1.681569e-13 9.978869e-01 6.497535e-02
    outer loop
      vertex -8.693799e+00 2.945217e+01 -3.782754e+02
      vertex -9.153794e+00 2.946241e+01 -3.784327e+02
      vertex -8.070011e+00 2.933246e+01 -3.764369e+02
    endloop
  endfacet
  facet normal -3.826834e-01 6.002939e-02 -9.219273e-01
    outer loop
      vertex -1.635943e+02 2.777404e+01 -3.783225e+02
      vertex -1.630640e+02 2.946241e+01 -3.784327e+02
      vertex -1.630640e+02 2.778831e+01 -3.785417e+02
    endloop
  endfacet
  facet normal -3.826834e-01 6.002939e-02 -9.219273e-01
    outer loop
      vertex -1.635943e+02 2.944814e+01 -3.782135e+02
      vertex -1.630640e+02 2.946241e+01 -3.784327e+02
      vertex -1.635943e+02 2.777404e+01 -3.783225e+02
    endloop
  endfacet
  facet normal 1.761560e-13 9.978869e-01 6.497535e-02
    outer loop
      vertex -1.635943e+02 2.944814e+01 -3.782135e+02
      vertex -8.070011e+00 2.933246e+01 -3.764369e+02
      vertex -1.630640e+02 2.946241e+01 -3.784327e+02
    endloop
  endfacet
  facet normal 1.755909e-13 9.978869e-01 6.497535e-02
    outer loop
      vertex -1.630640e+02 2.795075e+01 -3.810364e+02
      vertex -1.630640e+02 2.778831e+01 -3.785417e+02
      vertex -9.153794e+00 2.778831e+01 -3.785417e+02
    endloop
  endfacet
  facet normal 1.665883e-13 9.978869e-01 6.497535e-02
    outer loop
      vertex -1.635943e+02 2.796502e+01 -3.812556e+02
      vertex -1.635943e+02 2.777404e+01 -3.783225e+02
      vertex -1.630640e+02 2.778831e+01 -3.785417e+02
    endloop
  endfacet
  facet normal 1.677958e-13 9.978869e-01 6.497535e-02
    outer loop
      vertex -1.630640e+02 2.795075e+01 -3.810364e+02
      vertex -1.635943e+02 2.796502e+01 -3.812556e+02
      vertex -1.630640e+02 2.778831e+01 -3.785417e+02
    endloop
  endfacet
  facet normal 2.006592e-13 9.978869e-01 6.497535e-02
    outer loop
      vertex -8.962205e+00 2.788267e+01 -3.799910e+02
      vertex -9.534274e+00 2.801325e+01 -3.819963e+02
      vertex -9.153794e+00 2.778831e+01 -3.785417e+02
    endloop
  endfacet
  facet normal 1.760582e-13 9.978869e-01 6.497535e-02
    outer loop
      vertex -9.653375e+00 2.797030e+01 -3.813368e+02
      vertex -9.153794e+00 2.778831e+01 -3.785417e+02
      vertex -9.534274e+00 2.801325e+01 -3.819963e+02
    endloop
  endfacet
  facet normal 1.715976e-13 9.978869e-01 6.497535e-02
    outer loop
      vertex -8.693799e+00 2.777807e+01 -3.783844e+02
      vertex -8.962205e+00 2.788267e+01 -3.799910e+02
      vertex -9.153794e+00 2.778831e+01 -3.785417e+02
    endloop
  endfacet
  facet normal 3.241685e-01 6.146663e-02 -9.440003e-01
    outer loop
      vertex -8.693799e+00 2.945217e+01 -3.782754e+02
      vertex -8.693799e+00 2.777807e+01 -3.783844e+02
      vertex -9.153794e+00 2.778831e+01 -3.785417e+02
    endloop
  endfacet
  facet normal 1.755497e-13 9.978869e-01 6.497535e-02
    outer loop
      vertex -1.025371e+01 2.795075e+01 -3.810364e+02
      vertex -1.630640e+02 2.795075e+01 -3.810364e+02
      vertex -9.153794e+00 2.778831e+01 -3.785417e+02
    endloop
  endfacet
  facet normal 1.783174e-13 9.978869e-01 6.497535e-02
    outer loop
      vertex -9.653375e+00 2.797030e+01 -3.813368e+02
      vertex -1.025371e+01 2.795075e+01 -3.810364e+02
      vertex -9.153794e+00 2.778831e+01 -3.785417e+02
    endloop
  endfacet
  facet normal 9.617881e-01 1.659120e-02 -2.732917e-01
    outer loop
      vertex -9.574862e+00 2.699839e+01 -3.822008e+02
      vertex -9.534274e+00 2.801325e+01 -3.819963e+02
      vertex -8.962205e+00 2.788267e+01 -3.799910e+02
    endloop
  endfacet
  facet normal 9.841484e-01 -1.152318e-02 1.769721e-01
    outer loop
      vertex -9.653375e+00 2.911288e+01 -3.812624e+02
      vertex -9.653375e+00 2.797030e+01 -3.813368e+02
      vertex -9.534274e+00 2.801325e+01 -3.819963e+02
    endloop
  endfacet
  facet normal 9.841484e-01 -1.152318e-02 1.769721e-01
    outer loop
      vertex -9.653375e+00 2.911288e+01 -3.812624e+02
      vertex -9.534274e+00 2.801325e+01 -3.819963e+02
      vertex -9.534274e+00 2.915583e+01 -3.819219e+02
    endloop
  endfacet
  facet normal 9.594092e-01 1.832420e-02 -2.814217e-01
    outer loop
      vertex -9.574862e+00 2.699839e+01 -3.822008e+02
      vertex -9.534274e+00 2.915583e+01 -3.819219e+02
      vertex -9.534274e+00 2.801325e+01 -3.819963e+02
    endloop
  endfacet
  facet normal 1.852309e-13 9.978869e-01 6.497535e-02
    outer loop
      vertex -8.693799e+00 2.777807e+01 -3.783844e+02
      vertex -8.427159e+00 2.775165e+01 -3.779786e+02
      vertex -8.962205e+00 2.788267e+01 -3.799910e+02
    endloop
  endfacet
  facet normal 9.657717e-01 -2.358412e-02 -2.583192e-01
    outer loop
      vertex -9.574862e+00 2.699839e+01 -3.822008e+02
      vertex -8.962205e+00 2.788267e+01 -3.799910e+02
      vertex -8.427159e+00 2.775165e+01 -3.779786e+02
    endloop
  endfacet
  facet normal 8.362442e-01 3.562969e-02 -5.471984e-01
    outer loop
      vertex -8.427159e+00 2.942575e+01 -3.778696e+02
      vertex -8.427159e+00 2.775165e+01 -3.779786e+02
      vertex -8.693799e+00 2.777807e+01 -3.783844e+02
    endloop
  endfacet
  facet normal 9.647203e-01 -9.617090e-02 -2.450834e-01
    outer loop
      vertex -7.069208e+00 2.633934e+01 -3.720792e+02
      vertex -9.574862e+00 2.699839e+01 -3.822008e+02
      vertex -8.427159e+00 2.775165e+01 -3.779786e+02
    endloop
  endfacet
  facet normal 9.744565e-01 -1.136077e-03 -2.245736e-01
    outer loop
      vertex -8.070011e+00 2.933246e+01 -3.764369e+02
      vertex -7.069208e+00 2.633934e+01 -3.720792e+02
      vertex -8.427159e+00 2.775165e+01 -3.779786e+02
    endloop
  endfacet
  facet normal 9.711938e-01 1.265147e-02 -2.379550e-01
    outer loop
      vertex -8.247505e+00 2.937947e+01 -3.771589e+02
      vertex -8.070011e+00 2.933246e+01 -3.764369e+02
      vertex -8.427159e+00 2.775165e+01 -3.779786e+02
    endloop
  endfacet
  facet normal 9.696338e-01 1.589047e-02 -2.440447e-01
    outer loop
      vertex -8.427159e+00 2.942575e+01 -3.778696e+02
      vertex -8.247505e+00 2.937947e+01 -3.771589e+02
      vertex -8.427159e+00 2.775165e+01 -3.779786e+02
    endloop
  endfacet
  facet normal 8.362442e-01 3.562969e-02 -5.471984e-01
    outer loop
      vertex -8.693799e+00 2.945217e+01 -3.782754e+02
      vertex -8.427159e+00 2.942575e+01 -3.778696e+02
      vertex -8.693799e+00 2.777807e+01 -3.783844e+02
    endloop
  endfacet
  facet normal -3.826834e-01 -6.002939e-02 9.219273e-01
    outer loop
      vertex -1.635943e+02 2.910760e+01 -3.811812e+02
      vertex -1.635943e+02 2.796502e+01 -3.812556e+02
      vertex -1.630640e+02 2.795075e+01 -3.810364e+02
    endloop
  endfacet
  facet normal 2.723989e-12 -6.497535e-02 9.978869e-01
    outer loop
      vertex -1.630640e+02 2.909333e+01 -3.809620e+02
      vertex -1.630640e+02 2.795075e+01 -3.810364e+02
      vertex -1.025371e+01 2.795075e+01 -3.810364e+02
    endloop
  endfacet
  facet normal -3.826834e-01 -6.002939e-02 9.219273e-01
    outer loop
      vertex -1.635943e+02 2.910760e+01 -3.811812e+02
      vertex -1.630640e+02 2.795075e+01 -3.810364e+02
      vertex -1.630640e+02 2.909333e+01 -3.809620e+02
    endloop
  endfacet
  facet normal 4.482048e-01 -5.808347e-02 8.920419e-01
    outer loop
      vertex -1.025371e+01 2.909333e+01 -3.809620e+02
      vertex -1.025371e+01 2.795075e+01 -3.810364e+02
      vertex -9.653375e+00 2.797030e+01 -3.813368e+02
    endloop
  endfacet
  facet normal 2.724732e-12 -6.497535e-02 9.978869e-01
    outer loop
      vertex -1.025371e+01 2.909333e+01 -3.809620e+02
      vertex -1.630640e+02 2.909333e+01 -3.809620e+02
      vertex -1.025371e+01 2.795075e+01 -3.810364e+02
    endloop
  endfacet
  facet normal 4.482048e-01 -5.808347e-02 8.920419e-01
    outer loop
      vertex -9.653375e+00 2.911288e+01 -3.812624e+02
      vertex -1.025371e+01 2.909333e+01 -3.809620e+02
      vertex -9.653375e+00 2.797030e+01 -3.813368e+02
    endloop
  endfacet
  facet normal 1.669293e-13 9.978869e-01 6.497535e-02
    outer loop
      vertex -8.693799e+00 2.945217e+01 -3.782754e+02
      vertex -8.070011e+00 2.933246e+01 -3.764369e+02
      vertex -8.427159e+00 2.942575e+01 -3.778696e+02
    endloop
  endfacet
  facet normal -5.363557e-13 9.978869e-01 6.497535e-02
    outer loop
      vertex -8.427159e+00 2.942575e+01 -3.778696e+02
      vertex -8.070011e+00 2.933246e+01 -3.764369e+02
      vertex -8.247505e+00 2.937947e+01 -3.771589e+02
    endloop
  endfacet
  facet normal 7.953931e-14 9.978869e-01 6.497535e-02
    outer loop
      vertex -9.653375e+00 2.911288e+01 -3.812624e+02
      vertex -9.534274e+00 2.915583e+01 -3.819219e+02
      vertex -9.574862e+00 2.916480e+01 -3.820597e+02
    endloop
  endfacet
  facet normal 9.594092e-01 1.832420e-02 -2.814217e-01
    outer loop
      vertex -9.574862e+00 2.699839e+01 -3.822008e+02
      vertex -9.574862e+00 2.916480e+01 -3.820597e+02
      vertex -9.534274e+00 2.915583e+01 -3.819219e+02
    endloop
  endfacet
  facet normal -1.767961e-13 -9.978869e-01 -6.497535e-02
    outer loop
      vertex -1.011129e+01 2.210896e+01 -3.071093e+02
      vertex -1.049094e+01 2.198551e+01 -3.052133e+02
      vertex -9.574862e+00 2.699839e+01 -3.822008e+02
    endloop
  endfacet
  facet normal -1.756084e-13 -9.978869e-01 -6.497535e-02
    outer loop
      vertex -5.916443e+01 2.547472e+01 -3.588003e+02
      vertex -9.574862e+00 2.699839e+01 -3.822008e+02
      vertex -1.049094e+01 2.198551e+01 -3.052133e+02
    endloop
  endfacet
  facet normal -1.755546e-13 -9.978869e-01 -6.497535e-02
    outer loop
      vertex -7.069208e+00 2.633934e+01 -3.720792e+02
      vertex -1.011129e+01 2.210896e+01 -3.071093e+02
      vertex -9.574862e+00 2.699839e+01 -3.822008e+02
    endloop
  endfacet
  facet normal -1.754989e-13 -9.978869e-01 -6.497535e-02
    outer loop
      vertex -5.916443e+01 2.547472e+01 -3.588003e+02
      vertex -6.041400e+01 2.555594e+01 -3.600477e+02
      vertex -9.574862e+00 2.699839e+01 -3.822008e+02
    endloop
  endfacet
  facet normal -1.755671e-13 -9.978869e-01 -6.497535e-02
    outer loop
      vertex -1.501550e+02 2.555594e+01 -3.600477e+02
      vertex -9.574862e+00 2.699839e+01 -3.822008e+02
      vertex -6.041400e+01 2.555594e+01 -3.600477e+02
    endloop
  endfacet
  facet normal -1.463067e-13 -9.978869e-01 -6.497535e-02
    outer loop
      vertex -6.041400e+01 2.539350e+01 -3.575530e+02
      vertex -1.264140e+02 2.198551e+01 -3.052133e+02
      vertex -1.265140e+02 2.198551e+01 -3.052133e+02
    endloop
  endfacet
  facet normal -1.756494e-13 -9.978869e-01 -6.497535e-02
    outer loop
      vertex -1.501550e+02 2.539350e+01 -3.575530e+02
      vertex -6.041400e+01 2.539350e+01 -3.575530e+02
      vertex -1.265140e+02 2.198551e+01 -3.052133e+02
    endloop
  endfacet
  facet normal -1.755631e-13 -9.978869e-01 -6.497535e-02
    outer loop
      vertex -6.041400e+01 2.539350e+01 -3.575530e+02
      vertex -1.049094e+01 2.198551e+01 -3.052133e+02
      vertex -1.264140e+02 2.198551e+01 -3.052133e+02
    endloop
  endfacet
  facet normal -1.712778e-13 -9.978869e-01 -6.497535e-02
    outer loop
      vertex -6.041400e+01 2.539350e+01 -3.575530e+02
      vertex -5.916443e+01 2.547472e+01 -3.588003e+02
      vertex -1.049094e+01 2.198551e+01 -3.052133e+02
    endloop
  endfacet
  facet normal -1.793990e-13 -9.978869e-01 -6.497535e-02
    outer loop
      vertex -7.069208e+00 2.633934e+01 -3.720792e+02
      vertex -6.960258e+00 2.315439e+01 -3.231650e+02
      vertex -1.011129e+01 2.210896e+01 -3.071093e+02
    endloop
  endfacet
  facet normal -1.734568e-13 -9.978869e-01 -6.497535e-02
    outer loop
      vertex -5.264000e+00 2.550302e+01 -3.592350e+02
      vertex -5.264000e+00 2.406100e+01 -3.370885e+02
      vertex -6.960258e+00 2.315439e+01 -3.231650e+02
    endloop
  endfacet
  facet normal -1.761570e-13 -9.978869e-01 -6.497535e-02
    outer loop
      vertex -7.069208e+00 2.633934e+01 -3.720792e+02
      vertex -5.264000e+00 2.550302e+01 -3.592350e+02
      vertex -6.960258e+00 2.315439e+01 -3.231650e+02
    endloop
  endfacet
  facet normal 9.814407e-01 -1.246007e-02 1.913608e-01
    outer loop
      vertex -1.005818e+01 2.429914e+01 -3.072020e+02
      vertex -1.005818e+01 2.359111e+01 -3.072481e+02
      vertex -6.960258e+00 2.315439e+01 -3.231650e+02
    endloop
  endfacet
  facet normal 6.214321e-01 -7.704756e-01 1.420900e-01
    outer loop
      vertex -1.009239e+01 2.358391e+01 -3.071375e+02
      vertex -6.960258e+00 2.315439e+01 -3.231650e+02
      vertex -1.005818e+01 2.359111e+01 -3.072481e+02
    endloop
  endfacet
  facet normal 9.554021e-01 -2.164088e-01 2.009332e-01
    outer loop
      vertex -9.898844e+00 2.434523e+01 -3.079100e+02
      vertex -1.005818e+01 2.429914e+01 -3.072020e+02
      vertex -6.960258e+00 2.315439e+01 -3.231650e+02
    endloop
  endfacet
  facet normal 9.588366e-01 -2.011719e-01 2.004054e-01
    outer loop
      vertex -9.742036e+00 2.439109e+01 -3.086142e+02
      vertex -9.898844e+00 2.434523e+01 -3.079100e+02
      vertex -6.960258e+00 2.315439e+01 -3.231650e+02
    endloop
  endfacet
  facet normal 7.071068e-01 -7.056126e-01 -4.594451e-02
    outer loop
      vertex -4.814301e+00 2.526111e+01 -3.485987e+02
      vertex -5.264000e+00 2.406100e+01 -3.370885e+02
      vertex -5.264000e+00 2.550302e+01 -3.592350e+02
    endloop
  endfacet
  facet normal 9.991076e-01 1.661458e-03 -4.220408e-02
    outer loop
      vertex -4.814301e+00 2.526111e+01 -3.485987e+02
      vertex -5.264000e+00 2.550302e+01 -3.592350e+02
      vertex -4.814644e+00 2.694090e+01 -3.485407e+02
    endloop
  endfacet
  facet normal 8.476639e-01 -3.447161e-02 5.294126e-01
    outer loop
      vertex -1.032146e+01 2.427180e+01 -3.067822e+02
      vertex -1.005818e+01 2.359111e+01 -3.072481e+02
      vertex -1.005818e+01 2.429914e+01 -3.072020e+02
    endloop
  endfacet
  facet normal 9.404435e-01 1.575938e-01 3.012146e-01
    outer loop
      vertex -1.032146e+01 2.427180e+01 -3.067822e+02
      vertex -1.009239e+01 2.358391e+01 -3.071375e+02
      vertex -1.005818e+01 2.359111e+01 -3.072481e+02
    endloop
  endfacet
endsolid P1040852002
