solid P1040852002
  facet normal 2.715459e-12 -9.829505e-02 9.951573e-01
    outer loop
      vertex -1.638140e+02 3.438562e+01 -3.041324e+02
      vertex -1.638140e+02 3.218632e+01 -3.043496e+02
      vertex -1.265640e+02 3.218632e+01 -3.043496e+02
    endloop
  endfacet
  facet normal -2.663023e-13 -9.951573e-01 -9.829505e-02
    outer loop
      vertex -1.470050e+02 3.738523e+01 -3.569843e+02
      vertex -1.265640e+02 3.218632e+01 -3.043496e+02
      vertex -1.638140e+02 3.218632e+01 -3.043496e+02
    endloop
  endfacet
  facet normal 2.718496e-12 -9.829505e-02 9.951573e-01
    outer loop
      vertex -1.265640e+02 3.438562e+01 -3.041324e+02
      vertex -1.638140e+02 3.438562e+01 -3.041324e+02
      vertex -1.265640e+02 3.218632e+01 -3.043496e+02
    endloop
  endfacet
  facet normal 7.071068e-01 -6.950509e-02 7.036825e-01
    outer loop
      vertex -1.265140e+02 3.439053e+01 -3.041821e+02
      vertex -1.265640e+02 3.438562e+01 -3.041324e+02
      vertex -1.265640e+02 3.218632e+01 -3.043496e+02
    endloop
  endfacet
  facet normal 7.071068e-01 -6.950509e-02 7.036825e-01
    outer loop
      vertex -1.265140e+02 3.219124e+01 -3.043994e+02
      vertex -1.265140e+02 3.439053e+01 -3.041821e+02
      vertex -1.265640e+02 3.218632e+01 -3.043496e+02
    endloop
  endfacet
  facet normal -1.282600e-13 -9.951573e-01 -9.829505e-02
    outer loop
      vertex -1.265140e+02 3.228462e+01 -3.053448e+02
      vertex -1.265140e+02 3.219124e+01 -3.043994e+02
      vertex -1.265640e+02 3.218632e+01 -3.043496e+02
    endloop
  endfacet
  facet normal -3.053246e-13 -9.951573e-01 -9.829505e-02
    outer loop
      vertex -1.470050e+02 3.738523e+01 -3.569843e+02
      vertex -1.265140e+02 3.228462e+01 -3.053448e+02
      vertex -1.265640e+02 3.218632e+01 -3.043496e+02
    endloop
  endfacet
  facet normal -1.000000e+00 1.433216e-15 2.733040e-12
    outer loop
      vertex -1.638140e+02 3.472769e+01 -3.075955e+02
      vertex -1.638140e+02 3.218632e+01 -3.043496e+02
      vertex -1.638140e+02 3.438562e+01 -3.041324e+02
    endloop
  endfacet
  facet normal -1.000000e+00 6.237762e-14 2.780756e-12
    outer loop
      vertex -1.638140e+02 3.556202e+01 -3.087692e+02
      vertex -1.638140e+02 3.218632e+01 -3.043496e+02
      vertex -1.638140e+02 3.472769e+01 -3.075955e+02
    endloop
  endfacet
  facet normal -1.000000e+00 -2.657703e-13 2.690708e-12
    outer loop
      vertex -1.638140e+02 4.292811e+01 -3.763734e+02
      vertex -1.638140e+02 3.218632e+01 -3.043496e+02
      vertex -1.638140e+02 4.300815e+01 -3.763655e+02
    endloop
  endfacet
  facet normal -1.000000e+00 -4.019876e-15 2.730041e-12
    outer loop
      vertex -1.638140e+02 3.556202e+01 -3.087692e+02
      vertex -1.638140e+02 4.300815e+01 -3.763655e+02
      vertex -1.638140e+02 3.218632e+01 -3.043496e+02
    endloop
  endfacet
  facet normal -1.000000e+00 -2.069134e-13 2.707044e-12
    outer loop
      vertex -1.638140e+02 4.087249e+01 -3.818520e+02
      vertex -1.638140e+02 3.218632e+01 -3.043496e+02
      vertex -1.638140e+02 4.047931e+01 -3.778714e+02
    endloop
  endfacet
  facet normal -1.000000e+00 -4.396586e-15 2.729887e-12
    outer loop
      vertex -1.638140e+02 4.305098e+01 -3.776174e+02
      vertex -1.638140e+02 4.047931e+01 -3.778714e+02
      vertex -1.638140e+02 3.218632e+01 -3.043496e+02
    endloop
  endfacet
  facet normal -1.000000e+00 2.339011e-14 2.732856e-12
    outer loop
      vertex -1.638140e+02 3.988586e+01 -3.823012e+02
      vertex -1.638140e+02 3.218632e+01 -3.043496e+02
      vertex -1.638140e+02 4.087249e+01 -3.818520e+02
    endloop
  endfacet
  facet normal -2.662761e-13 -9.951573e-01 -9.829505e-02
    outer loop
      vertex -1.470050e+02 3.768012e+01 -3.599698e+02
      vertex -1.638140e+02 3.218632e+01 -3.043496e+02
      vertex -1.638140e+02 3.988586e+01 -3.823012e+02
    endloop
  endfacet
  facet normal -2.580679e-13 -9.951573e-01 -9.829505e-02
    outer loop
      vertex -1.470050e+02 3.768012e+01 -3.599698e+02
      vertex -1.470050e+02 3.738523e+01 -3.569843e+02
      vertex -1.638140e+02 3.218632e+01 -3.043496e+02
    endloop
  endfacet
  facet normal -1.000000e+00 2.266528e-13 2.764149e-12
    outer loop
      vertex -1.638140e+02 4.292811e+01 -3.763734e+02
      vertex -1.638140e+02 4.305098e+01 -3.776174e+02
      vertex -1.638140e+02 3.218632e+01 -3.043496e+02
    endloop
  endfacet
  facet normal 2.665976e-13 9.951573e-01 9.829505e-02
    outer loop
      vertex -1.630640e+02 3.465397e+01 -3.068492e+02
      vertex -1.638140e+02 3.438562e+01 -3.041324e+02
      vertex -1.265640e+02 3.438562e+01 -3.041324e+02
    endloop
  endfacet
  facet normal 2.664140e-13 9.951573e-01 9.829505e-02
    outer loop
      vertex -1.635943e+02 3.467556e+01 -3.070678e+02
      vertex -1.638140e+02 3.438562e+01 -3.041324e+02
      vertex -1.630640e+02 3.465397e+01 -3.068492e+02
    endloop
  endfacet
  facet normal 2.376224e-13 9.951573e-01 9.829505e-02
    outer loop
      vertex -1.635943e+02 3.467556e+01 -3.070678e+02
      vertex -1.638140e+02 3.472769e+01 -3.075955e+02
      vertex -1.638140e+02 3.438562e+01 -3.041324e+02
    endloop
  endfacet
  facet normal 2.669599e-13 9.951573e-01 9.829505e-02
    outer loop
      vertex -1.265140e+02 3.439053e+01 -3.041821e+02
      vertex -1.630640e+02 3.465397e+01 -3.068492e+02
      vertex -1.265640e+02 3.438562e+01 -3.041324e+02
    endloop
  endfacet
  facet normal 2.665937e-13 9.951573e-01 9.829505e-02
    outer loop
      vertex -1.264140e+02 3.449374e+01 -3.052271e+02
      vertex -1.078074e+01 3.465397e+01 -3.068492e+02
      vertex -1.630640e+02 3.465397e+01 -3.068492e+02
    endloop
  endfacet
  facet normal 2.717081e-12 -9.829505e-02 9.951573e-01
    outer loop
      vertex -1.630640e+02 3.536543e+01 -3.067789e+02
      vertex -1.630640e+02 3.465397e+01 -3.068492e+02
      vertex -1.078074e+01 3.465397e+01 -3.068492e+02
    endloop
  endfacet
  facet normal 2.665277e-13 9.951573e-01 9.829505e-02
    outer loop
      vertex -1.264847e+02 3.449087e+01 -3.051979e+02
      vertex -1.264140e+02 3.449374e+01 -3.052271e+02
      vertex -1.630640e+02 3.465397e+01 -3.068492e+02
    endloop
  endfacet
  facet normal 2.653769e-13 9.951573e-01 9.829505e-02
    outer loop
      vertex -1.265140e+02 3.448391e+01 -3.051275e+02
      vertex -1.264847e+02 3.449087e+01 -3.051979e+02
      vertex -1.630640e+02 3.465397e+01 -3.068492e+02
    endloop
  endfacet
  facet normal 2.673448e-13 9.951573e-01 9.829505e-02
    outer loop
      vertex -1.265140e+02 3.439053e+01 -3.041821e+02
      vertex -1.265140e+02 3.448391e+01 -3.051275e+02
      vertex -1.630640e+02 3.465397e+01 -3.068492e+02
    endloop
  endfacet
  facet normal -3.827076e-01 -9.081180e-02 9.193955e-01
    outer loop
      vertex -1.635943e+02 3.538703e+01 -3.069975e+02
      vertex -1.635943e+02 3.467556e+01 -3.070678e+02
      vertex -1.630640e+02 3.465397e+01 -3.068492e+02
    endloop
  endfacet
  facet normal -3.827076e-01 -9.081180e-02 9.193955e-01
    outer loop
      vertex -1.635943e+02 3.538703e+01 -3.069975e+02
      vertex -1.630640e+02 3.465397e+01 -3.068492e+02
      vertex -1.630640e+02 3.536543e+01 -3.067789e+02
    endloop
  endfacet
  facet normal 2.499551e-13 9.951573e-01 9.829505e-02
    outer loop
      vertex -1.050001e+01 3.449374e+01 -3.052271e+02
      vertex -1.031239e+01 3.467011e+01 -3.070126e+02
      vertex -1.078074e+01 3.465397e+01 -3.068492e+02
    endloop
  endfacet
  facet normal 3.308644e-01 -9.275890e-02 9.391084e-01
    outer loop
      vertex -1.078074e+01 3.536543e+01 -3.067789e+02
      vertex -1.078074e+01 3.465397e+01 -3.068492e+02
      vertex -1.031239e+01 3.467011e+01 -3.070126e+02
    endloop
  endfacet
  facet normal 2.665654e-13 9.951573e-01 9.829505e-02
    outer loop
      vertex -1.264140e+02 3.449374e+01 -3.052271e+02
      vertex -1.050001e+01 3.449374e+01 -3.052271e+02
      vertex -1.078074e+01 3.465397e+01 -3.068492e+02
    endloop
  endfacet
  facet normal 2.717833e-12 -9.829505e-02 9.951573e-01
    outer loop
      vertex -1.078074e+01 3.536543e+01 -3.067789e+02
      vertex -1.630640e+02 3.536543e+01 -3.067789e+02
      vertex -1.078074e+01 3.465397e+01 -3.068492e+02
    endloop
  endfacet
  facet normal 4.419197e-13 9.951573e-01 9.829505e-02
    outer loop
      vertex -1.008467e+01 3.469600e+01 -3.072747e+02
      vertex -1.004913e+01 3.471146e+01 -3.074313e+02
      vertex -1.031239e+01 3.467011e+01 -3.070126e+02
    endloop
  endfacet
  facet normal 8.477127e-01 -5.214116e-02 5.278868e-01
    outer loop
      vertex -1.031239e+01 3.538157e+01 -3.069423e+02
      vertex -1.031239e+01 3.467011e+01 -3.070126e+02
      vertex -1.004913e+01 3.471146e+01 -3.074313e+02
    endloop
  endfacet
  facet normal 3.546299e-13 9.951573e-01 9.829505e-02
    outer loop
      vertex -1.012036e+01 3.468050e+01 -3.071179e+02
      vertex -1.008467e+01 3.469600e+01 -3.072747e+02
      vertex -1.031239e+01 3.467011e+01 -3.070126e+02
    endloop
  endfacet
  facet normal 3.581597e-13 9.951573e-01 9.829505e-02
    outer loop
      vertex -1.050001e+01 3.449374e+01 -3.052271e+02
      vertex -1.012036e+01 3.468050e+01 -3.071179e+02
      vertex -1.031239e+01 3.467011e+01 -3.070126e+02
    endloop
  endfacet
  facet normal 3.308644e-01 -9.275890e-02 9.391084e-01
    outer loop
      vertex -1.031239e+01 3.538157e+01 -3.069423e+02
      vertex -1.078074e+01 3.536543e+01 -3.067789e+02
      vertex -1.031239e+01 3.467011e+01 -3.070126e+02
    endloop
  endfacet
  facet normal 9.750801e-01 -4.804870e-02 2.165875e-01
    outer loop
      vertex -8.803626e+00 3.308030e+01 -3.134004e+02
      vertex -1.004913e+01 3.471146e+01 -3.074313e+02
      vertex -1.008467e+01 3.469600e+01 -3.072747e+02
    endloop
  endfacet
  facet normal 9.775608e-01 -2.070619e-02 2.096334e-01
    outer loop
      vertex -1.004913e+01 3.542293e+01 -3.073610e+02
      vertex -1.004913e+01 3.471146e+01 -3.074313e+02
      vertex -8.803626e+00 3.308030e+01 -3.134004e+02
    endloop
  endfacet
  facet normal 8.477127e-01 -5.214116e-02 5.278868e-01
    outer loop
      vertex -1.031239e+01 3.538157e+01 -3.069423e+02
      vertex -1.004913e+01 3.471146e+01 -3.074313e+02
      vertex -1.004913e+01 3.542293e+01 -3.073610e+02
    endloop
  endfacet
  facet normal 9.749231e-01 -4.956060e-02 2.169534e-01
    outer loop
      vertex -8.803626e+00 3.308030e+01 -3.134004e+02
      vertex -1.008467e+01 3.469600e+01 -3.072747e+02
      vertex -1.012036e+01 3.468050e+01 -3.071179e+02
    endloop
  endfacet
  facet normal 9.806147e-01 -1.926054e-02 1.949972e-01
    outer loop
      vertex -1.050001e+01 3.229445e+01 -3.054443e+02
      vertex -1.012036e+01 3.468050e+01 -3.071179e+02
      vertex -1.050001e+01 3.449374e+01 -3.052271e+02
    endloop
  endfacet
  facet normal 9.806147e-01 -1.926054e-02 1.949972e-01
    outer loop
      vertex -1.012036e+01 3.248121e+01 -3.073351e+02
      vertex -1.012036e+01 3.468050e+01 -3.071179e+02
      vertex -1.050001e+01 3.229445e+01 -3.054443e+02
    endloop
  endfacet
  facet normal 9.774495e-01 -2.075687e-02 2.101464e-01
    outer loop
      vertex -8.803626e+00 3.308030e+01 -3.134004e+02
      vertex -1.012036e+01 3.468050e+01 -3.071179e+02
      vertex -1.012036e+01 3.248121e+01 -3.073351e+02
    endloop
  endfacet
  facet normal 2.717467e-12 -9.829505e-02 9.951573e-01
    outer loop
      vertex -1.050001e+01 3.229445e+01 -3.054443e+02
      vertex -1.050001e+01 3.449374e+01 -3.052271e+02
      vertex -1.264140e+02 3.449374e+01 -3.052271e+02
    endloop
  endfacet
  facet normal 3.826834e-01 -9.081278e-02 9.194055e-01
    outer loop
      vertex -1.264140e+02 3.229445e+01 -3.054443e+02
      vertex -1.264140e+02 3.449374e+01 -3.052271e+02
      vertex -1.264847e+02 3.449087e+01 -3.051979e+02
    endloop
  endfacet
  facet normal 2.716491e-12 -9.829505e-02 9.951573e-01
    outer loop
      vertex -1.050001e+01 3.229445e+01 -3.054443e+02
      vertex -1.264140e+02 3.449374e+01 -3.052271e+02
      vertex -1.264140e+02 3.229445e+01 -3.054443e+02
    endloop
  endfacet
  facet normal 9.238795e-01 -3.761589e-02 3.808302e-01
    outer loop
      vertex -1.264847e+02 3.229157e+01 -3.054151e+02
      vertex -1.264847e+02 3.449087e+01 -3.051979e+02
      vertex -1.265140e+02 3.448391e+01 -3.051275e+02
    endloop
  endfacet
  facet normal 3.826834e-01 -9.081278e-02 9.194055e-01
    outer loop
      vertex -1.264140e+02 3.229445e+01 -3.054443e+02
      vertex -1.264847e+02 3.449087e+01 -3.051979e+02
      vertex -1.264847e+02 3.229157e+01 -3.054151e+02
    endloop
  endfacet
  facet normal 1.000000e+00 3.774384e-15 -2.720345e-12
    outer loop
      vertex -1.265140e+02 3.219124e+01 -3.043994e+02
      vertex -1.265140e+02 3.448391e+01 -3.051275e+02
      vertex -1.265140e+02 3.439053e+01 -3.041821e+02
    endloop
  endfacet
  facet normal 1.000000e+00 3.774384e-15 -2.720345e-12
    outer loop
      vertex -1.265140e+02 3.228462e+01 -3.053448e+02
      vertex -1.265140e+02 3.448391e+01 -3.051275e+02
      vertex -1.265140e+02 3.219124e+01 -3.043994e+02
    endloop
  endfacet
  facet normal 9.238795e-01 -3.761589e-02 3.808302e-01
    outer loop
      vertex -1.264847e+02 3.229157e+01 -3.054151e+02
      vertex -1.265140e+02 3.448391e+01 -3.051275e+02
      vertex -1.265140e+02 3.228462e+01 -3.053448e+02
    endloop
  endfacet
  facet normal -9.238695e-01 -3.761826e-02 3.808543e-01
    outer loop
      vertex -1.638140e+02 3.543915e+01 -3.075253e+02
      vertex -1.638140e+02 3.472769e+01 -3.075955e+02
      vertex -1.635943e+02 3.467556e+01 -3.070678e+02
    endloop
  endfacet
  facet normal -1.000000e+00 8.738187e-15 2.742625e-12
    outer loop
      vertex -1.638140e+02 3.556202e+01 -3.087692e+02
      vertex -1.638140e+02 3.472769e+01 -3.075955e+02
      vertex -1.638140e+02 3.543915e+01 -3.075253e+02
    endloop
  endfacet
  facet normal -9.238695e-01 -3.761826e-02 3.808543e-01
    outer loop
      vertex -1.635943e+02 3.538703e+01 -3.069975e+02
      vertex -1.638140e+02 3.543915e+01 -3.075253e+02
      vertex -1.635943e+02 3.467556e+01 -3.070678e+02
    endloop
  endfacet
  facet normal 2.665741e-13 9.951573e-01 9.829505e-02
    outer loop
      vertex -1.638140e+02 3.556202e+01 -3.087692e+02
      vertex -1.630640e+02 3.536543e+01 -3.067789e+02
      vertex -1.078074e+01 3.536543e+01 -3.067789e+02
    endloop
  endfacet
  facet normal 2.919773e-13 9.951573e-01 9.829505e-02
    outer loop
      vertex -1.635943e+02 3.538703e+01 -3.069975e+02
      vertex -1.630640e+02 3.536543e+01 -3.067789e+02
      vertex -1.638140e+02 3.556202e+01 -3.087692e+02
    endloop
  endfacet
  facet normal 2.656626e-13 9.951573e-01 9.829505e-02
    outer loop
      vertex -1.031239e+01 3.538157e+01 -3.069423e+02
      vertex -1.638140e+02 3.556202e+01 -3.087692e+02
      vertex -1.078074e+01 3.536543e+01 -3.067789e+02
    endloop
  endfacet
  facet normal 2.930264e-13 9.941474e-01 1.080318e-01
    outer loop
      vertex -1.638140e+02 4.300815e+01 -3.763655e+02
      vertex -1.470050e+02 4.118880e+01 -3.596233e+02
      vertex -4.976400e+01 4.118880e+01 -3.596233e+02
    endloop
  endfacet
  facet normal 2.716872e-12 -9.829505e-02 9.951573e-01
    outer loop
      vertex -4.976400e+01 3.768012e+01 -3.599698e+02
      vertex -4.976400e+01 4.118880e+01 -3.596233e+02
      vertex -1.470050e+02 4.118880e+01 -3.596233e+02
    endloop
  endfacet
  facet normal 2.940410e-13 9.941474e-01 1.080318e-01
    outer loop
      vertex -8.079778e+00 4.300815e+01 -3.763655e+02
      vertex -4.976400e+01 4.118880e+01 -3.596233e+02
      vertex -4.826400e+01 4.102675e+01 -3.581320e+02
    endloop
  endfacet
  facet normal -7.071068e-01 -6.950509e-02 7.036825e-01
    outer loop
      vertex -4.826400e+01 3.753267e+01 -3.584771e+02
      vertex -4.826400e+01 4.102675e+01 -3.581320e+02
      vertex -4.976400e+01 4.118880e+01 -3.596233e+02
    endloop
  endfacet
  facet normal 2.931364e-13 9.941474e-01 1.080318e-01
    outer loop
      vertex -8.079778e+00 4.300815e+01 -3.763655e+02
      vertex -1.638140e+02 4.300815e+01 -3.763655e+02
      vertex -4.976400e+01 4.118880e+01 -3.596233e+02
    endloop
  endfacet
  facet normal -7.071068e-01 -6.950509e-02 7.036825e-01
    outer loop
      vertex -4.826400e+01 3.753267e+01 -3.584771e+02
      vertex -4.976400e+01 4.118880e+01 -3.596233e+02
      vertex -4.976400e+01 3.768012e+01 -3.599698e+02
    endloop
  endfacet
  facet normal 2.946187e-13 9.941474e-01 1.080318e-01
    outer loop
      vertex -1.638140e+02 4.300815e+01 -3.763655e+02
      vertex -1.470050e+02 4.086469e+01 -3.566407e+02
      vertex -1.470050e+02 4.118880e+01 -3.596233e+02
    endloop
  endfacet
  facet normal 1.000000e+00 7.720260e-15 -2.724518e-12
    outer loop
      vertex -1.470050e+02 3.738523e+01 -3.569843e+02
      vertex -1.470050e+02 4.118880e+01 -3.596233e+02
      vertex -1.470050e+02 4.086469e+01 -3.566407e+02
    endloop
  endfacet
  facet normal 2.716858e-12 -9.829505e-02 9.951573e-01
    outer loop
      vertex -1.470050e+02 3.768012e+01 -3.599698e+02
      vertex -4.976400e+01 3.768012e+01 -3.599698e+02
      vertex -1.470050e+02 4.118880e+01 -3.596233e+02
    endloop
  endfacet
  facet normal 1.000000e+00 -4.555579e-15 -2.742212e-12
    outer loop
      vertex -1.470050e+02 3.768012e+01 -3.599698e+02
      vertex -1.470050e+02 4.118880e+01 -3.596233e+02
      vertex -1.470050e+02 3.738523e+01 -3.569843e+02
    endloop
  endfacet
  facet normal 2.932996e-13 9.941474e-01 1.080318e-01
    outer loop
      vertex -9.733199e+00 3.566154e+01 -3.087594e+02
      vertex -4.976400e+01 4.086469e+01 -3.566407e+02
      vertex -1.470050e+02 4.086469e+01 -3.566407e+02
    endloop
  endfacet
  facet normal -2.718021e-12 9.829505e-02 -9.951573e-01
    outer loop
      vertex -1.470050e+02 3.738523e+01 -3.569843e+02
      vertex -1.470050e+02 4.086469e+01 -3.566407e+02
      vertex -4.976400e+01 4.086469e+01 -3.566407e+02
    endloop
  endfacet
  facet normal 2.931853e-13 9.941474e-01 1.080318e-01
    outer loop
      vertex -1.638140e+02 3.566154e+01 -3.087594e+02
      vertex -9.733199e+00 3.566154e+01 -3.087594e+02
      vertex -1.470050e+02 4.086469e+01 -3.566407e+02
    endloop
  endfacet
  facet normal 2.930237e-13 9.941474e-01 1.080318e-01
    outer loop
      vertex -1.638140e+02 4.300815e+01 -3.763655e+02
      vertex -1.638140e+02 3.566154e+01 -3.087594e+02
      vertex -1.470050e+02 4.086469e+01 -3.566407e+02
    endloop
  endfacet
  facet normal 2.861639e-13 9.941474e-01 1.080318e-01
    outer loop
      vertex -9.733199e+00 3.566154e+01 -3.087594e+02
      vertex -4.826400e+01 4.102675e+01 -3.581320e+02
      vertex -4.976400e+01 4.086469e+01 -3.566407e+02
    endloop
  endfacet
  facet normal -7.071068e-01 6.950509e-02 -7.036825e-01
    outer loop
      vertex -4.976400e+01 3.738523e+01 -3.569843e+02
      vertex -4.976400e+01 4.086469e+01 -3.566407e+02
      vertex -4.826400e+01 4.102675e+01 -3.581320e+02
    endloop
  endfacet
  facet normal -2.716872e-12 9.829505e-02 -9.951573e-01
    outer loop
      vertex -1.470050e+02 3.738523e+01 -3.569843e+02
      vertex -4.976400e+01 4.086469e+01 -3.566407e+02
      vertex -4.976400e+01 3.738523e+01 -3.569843e+02
    endloop
  endfacet
  facet normal 2.913855e-13 9.941474e-01 1.080318e-01
    outer loop
      vertex -8.421127e+00 3.633852e+01 -3.149892e+02
      vertex -4.826400e+01 4.102675e+01 -3.581320e+02
      vertex -9.733199e+00 3.566154e+01 -3.087594e+02
    endloop
  endfacet
  facet normal 2.932197e-13 9.941474e-01 1.080318e-01
    outer loop
      vertex -8.421127e+00 3.633852e+01 -3.149892e+02
      vertex -8.079778e+00 4.300815e+01 -3.763655e+02
      vertex -4.826400e+01 4.102675e+01 -3.581320e+02
    endloop
  endfacet
  facet normal -7.071068e-01 6.950509e-02 -7.036825e-01
    outer loop
      vertex -4.976400e+01 3.738523e+01 -3.569843e+02
      vertex -4.826400e+01 4.102675e+01 -3.581320e+02
      vertex -4.826400e+01 3.753267e+01 -3.584771e+02
    endloop
  endfacet
  facet normal 2.716956e-12 -9.829505e-02 9.951573e-01
    outer loop
      vertex -9.733199e+00 3.556202e+01 -3.087692e+02
      vertex -9.733199e+00 3.566154e+01 -3.087594e+02
      vertex -1.638140e+02 3.566154e+01 -3.087594e+02
    endloop
  endfacet
  facet normal 9.787519e-01 -1.518538e-02 2.044848e-01
    outer loop
      vertex -8.803626e+00 3.308030e+01 -3.134004e+02
      vertex -8.421127e+00 3.633852e+01 -3.149892e+02
      vertex -9.733199e+00 3.566154e+01 -3.087594e+02
    endloop
  endfacet
  facet normal 9.780654e-01 -2.047464e-02 2.072891e-01
    outer loop
      vertex -9.733199e+00 3.556202e+01 -3.087692e+02
      vertex -8.803626e+00 3.308030e+01 -3.134004e+02
      vertex -9.733199e+00 3.566154e+01 -3.087594e+02
    endloop
  endfacet
  facet normal -1.000000e+00 1.572992e-14 2.732217e-12
    outer loop
      vertex -1.638140e+02 3.556202e+01 -3.087692e+02
      vertex -1.638140e+02 3.566154e+01 -3.087594e+02
      vertex -1.638140e+02 4.300815e+01 -3.763655e+02
    endloop
  endfacet
  facet normal 2.716965e-12 -9.829505e-02 9.951573e-01
    outer loop
      vertex -1.638140e+02 3.556202e+01 -3.087692e+02
      vertex -9.733199e+00 3.556202e+01 -3.087692e+02
      vertex -1.638140e+02 3.566154e+01 -3.087594e+02
    endloop
  endfacet
  facet normal -2.717178e-12 9.829505e-02 -9.951573e-01
    outer loop
      vertex -1.638140e+02 4.292811e+01 -3.763734e+02
      vertex -1.638140e+02 4.300815e+01 -3.763655e+02
      vertex -8.079778e+00 4.300815e+01 -3.763655e+02
    endloop
  endfacet
  facet normal 2.963309e-13 9.941474e-01 1.080318e-01
    outer loop
      vertex -7.129067e+00 3.710547e+01 -3.220469e+02
      vertex -7.127365e+00 4.254427e+01 -3.720968e+02
      vertex -8.079778e+00 4.300815e+01 -3.763655e+02
    endloop
  endfacet
  facet normal 9.762705e-01 2.128626e-02 -2.155061e-01
    outer loop
      vertex -8.079778e+00 4.292811e+01 -3.763734e+02
      vertex -8.079778e+00 4.300815e+01 -3.763655e+02
      vertex -7.127365e+00 4.254427e+01 -3.720968e+02
    endloop
  endfacet
  facet normal 2.995759e-13 9.941474e-01 1.080318e-01
    outer loop
      vertex -8.421127e+00 3.633852e+01 -3.149892e+02
      vertex -7.129067e+00 3.710547e+01 -3.220469e+02
      vertex -8.079778e+00 4.300815e+01 -3.763655e+02
    endloop
  endfacet
  facet normal -2.717174e-12 9.829505e-02 -9.951573e-01
    outer loop
      vertex -1.638140e+02 4.292811e+01 -3.763734e+02
      vertex -8.079778e+00 4.300815e+01 -3.763655e+02
      vertex -8.079778e+00 4.292811e+01 -3.763734e+02
    endloop
  endfacet
  facet normal 2.926523e-13 9.941474e-01 1.080318e-01
    outer loop
      vertex -6.012583e+00 3.793303e+01 -3.296625e+02
      vertex -6.345912e+00 4.207882e+01 -3.678135e+02
      vertex -7.127365e+00 4.254427e+01 -3.720968e+02
    endloop
  endfacet
  facet normal 9.839451e-01 2.095965e-02 -1.772365e-01
    outer loop
      vertex -6.975786e+00 3.883811e+01 -3.716935e+02
      vertex -7.127365e+00 4.254427e+01 -3.720968e+02
      vertex -6.345912e+00 4.207882e+01 -3.678135e+02
    endloop
  endfacet
  facet normal 2.934687e-13 9.941474e-01 1.080318e-01
    outer loop
      vertex -7.129067e+00 3.710547e+01 -3.220469e+02
      vertex -6.012583e+00 3.793303e+01 -3.296625e+02
      vertex -7.127365e+00 4.254427e+01 -3.720968e+02
    endloop
  endfacet
  facet normal 9.781520e-01 1.746755e-02 -2.071558e-01
    outer loop
      vertex -7.795859e+00 3.921742e+01 -3.755338e+02
      vertex -7.127365e+00 4.254427e+01 -3.720968e+02
      vertex -6.975786e+00 3.883811e+01 -3.716935e+02
    endloop
  endfacet
  facet normal 9.762504e-01 2.603185e-02 -2.150757e-01
    outer loop
      vertex -8.079778e+00 4.292811e+01 -3.763734e+02
      vertex -7.127365e+00 4.254427e+01 -3.720968e+02
      vertex -7.795859e+00 3.921742e+01 -3.755338e+02
    endloop
  endfacet
  facet normal 2.758038e-13 9.941474e-01 1.080318e-01
    outer loop
      vertex -6.012583e+00 3.793303e+01 -3.296625e+02
      vertex -5.728048e+00 4.160823e+01 -3.634830e+02
      vertex -6.345912e+00 4.207882e+01 -3.678135e+02
    endloop
  endfacet
  facet normal 9.900810e-01 1.936377e-02 -1.391571e-01
    outer loop
      vertex -6.088627e+00 3.832564e+01 -3.665052e+02
      vertex -6.345912e+00 4.207882e+01 -3.678135e+02
      vertex -5.728048e+00 4.160823e+01 -3.634830e+02
    endloop
  endfacet
  facet normal 9.858023e-01 9.134461e-03 -1.676613e-01
    outer loop
      vertex -6.975786e+00 3.883811e+01 -3.716935e+02
      vertex -6.345912e+00 4.207882e+01 -3.678135e+02
      vertex -6.088627e+00 3.832564e+01 -3.665052e+02
    endloop
  endfacet
  facet normal 3.283903e-13 9.941474e-01 1.080318e-01
    outer loop
      vertex -5.264000e+00 3.872468e+01 -3.369475e+02
      vertex -5.264000e+00 4.112239e+01 -3.590121e+02
      vertex -5.728048e+00 4.160823e+01 -3.634830e+02
    endloop
  endfacet
  facet normal 9.944287e-01 -1.291383e-02 -1.046176e-01
    outer loop
      vertex -6.088627e+00 3.832564e+01 -3.665052e+02
      vertex -5.728048e+00 4.160823e+01 -3.634830e+02
      vertex -5.264000e+00 4.112239e+01 -3.590121e+02
    endloop
  endfacet
  facet normal 2.962945e-13 9.941474e-01 1.080318e-01
    outer loop
      vertex -6.012583e+00 3.793303e+01 -3.296625e+02
      vertex -5.264000e+00 3.872468e+01 -3.369475e+02
      vertex -5.728048e+00 4.160823e+01 -3.634830e+02
    endloop
  endfacet
  facet normal 7.071068e-01 7.029684e-01 7.639003e-02
    outer loop
      vertex -4.933437e+00 4.022770e+01 -3.538387e+02
      vertex -5.264000e+00 4.112239e+01 -3.590121e+02
      vertex -5.264000e+00 3.872468e+01 -3.369475e+02
    endloop
  endfacet
  facet normal 9.934727e-01 1.121249e-02 -1.135173e-01
    outer loop
      vertex -6.088627e+00 3.832564e+01 -3.665052e+02
      vertex -5.264000e+00 4.112239e+01 -3.590121e+02
      vertex -5.264000e+00 3.761969e+01 -3.593580e+02
    endloop
  endfacet
  facet normal 9.980133e-01 6.192980e-03 -6.269888e-02
    outer loop
      vertex -4.933437e+00 4.022770e+01 -3.538387e+02
      vertex -5.264000e+00 3.761969e+01 -3.593580e+02
      vertex -5.264000e+00 4.112239e+01 -3.590121e+02
    endloop
  endfacet
  facet normal 9.948222e-01 -9.989802e-03 1.011386e-01
    outer loop
      vertex -5.264000e+00 3.543819e+01 -3.372722e+02
      vertex -5.264000e+00 3.872468e+01 -3.369475e+02
      vertex -6.012583e+00 3.793303e+01 -3.296625e+02
    endloop
  endfacet
  facet normal 9.982548e-01 -5.804735e-03 5.876821e-02
    outer loop
      vertex -4.923378e+00 3.634314e+01 -3.429687e+02
      vertex -5.264000e+00 3.872468e+01 -3.369475e+02
      vertex -5.264000e+00 3.543819e+01 -3.372722e+02
    endloop
  endfacet
  facet normal 7.071068e-01 7.029684e-01 7.639003e-02
    outer loop
      vertex -4.814631e+00 3.951649e+01 -3.483936e+02
      vertex -5.264000e+00 3.872468e+01 -3.369475e+02
      vertex -4.923531e+00 3.900748e+01 -3.427015e+02
    endloop
  endfacet
  facet normal 9.982538e-01 -5.837083e-03 5.878096e-02
    outer loop
      vertex -4.923378e+00 3.634314e+01 -3.429687e+02
      vertex -4.923531e+00 3.900748e+01 -3.427015e+02
      vertex -5.264000e+00 3.872468e+01 -3.369475e+02
    endloop
  endfacet
  facet normal 7.071068e-01 7.029684e-01 7.639003e-02
    outer loop
      vertex -4.933437e+00 4.022770e+01 -3.538387e+02
      vertex -5.264000e+00 3.872468e+01 -3.369475e+02
      vertex -4.814631e+00 3.951649e+01 -3.483936e+02
    endloop
  endfacet
  facet normal 9.894888e-01 -4.973411e-03 1.445238e-01
    outer loop
      vertex -6.823055e+00 3.415133e+01 -3.242437e+02
      vertex -6.012583e+00 3.793303e+01 -3.296625e+02
      vertex -7.129067e+00 3.710547e+01 -3.220469e+02
    endloop
  endfacet
  facet normal 9.907041e-01 -1.938856e-02 1.346454e-01
    outer loop
      vertex -5.863858e+00 3.483866e+01 -3.312024e+02
      vertex -6.012583e+00 3.793303e+01 -3.296625e+02
      vertex -6.823055e+00 3.415133e+01 -3.242437e+02
    endloop
  endfacet
  facet normal 9.951618e-01 -1.059695e-03 9.824427e-02
    outer loop
      vertex -5.264000e+00 3.543819e+01 -3.372722e+02
      vertex -6.012583e+00 3.793303e+01 -3.296625e+02
      vertex -5.863858e+00 3.483866e+01 -3.312024e+02
    endloop
  endfacet
  facet normal 9.837827e-01 -8.766090e-03 1.791501e-01
    outer loop
      vertex -7.706110e+00 3.363811e+01 -3.190478e+02
      vertex -7.129067e+00 3.710547e+01 -3.220469e+02
      vertex -8.421127e+00 3.633852e+01 -3.149892e+02
    endloop
  endfacet
  facet normal 9.859870e-01 -2.093698e-02 1.655031e-01
    outer loop
      vertex -6.823055e+00 3.415133e+01 -3.242437e+02
      vertex -7.129067e+00 3.710547e+01 -3.220469e+02
      vertex -7.706110e+00 3.363811e+01 -3.190478e+02
    endloop
  endfacet
  facet normal 9.817965e-01 -2.333929e-02 1.884966e-01
    outer loop
      vertex -7.706110e+00 3.363811e+01 -3.190478e+02
      vertex -8.421127e+00 3.633852e+01 -3.149892e+02
      vertex -8.803626e+00 3.308030e+01 -3.134004e+02
    endloop
  endfacet
  facet normal -2.717214e-12 9.829505e-02 -9.951573e-01
    outer loop
      vertex -1.630640e+02 4.055303e+01 -3.786177e+02
      vertex -1.630640e+02 4.312470e+01 -3.783637e+02
      vertex -9.164116e+00 4.312470e+01 -3.783637e+02
    endloop
  endfacet
  facet normal 2.665791e-13 9.951573e-01 9.829505e-02
    outer loop
      vertex -8.079778e+00 4.292811e+01 -3.763734e+02
      vertex -9.164116e+00 4.312470e+01 -3.783637e+02
      vertex -1.630640e+02 4.312470e+01 -3.783637e+02
    endloop
  endfacet
  facet normal -2.717219e-12 9.829505e-02 -9.951573e-01
    outer loop
      vertex -9.164116e+00 4.055303e+01 -3.786177e+02
      vertex -1.630640e+02 4.055303e+01 -3.786177e+02
      vertex -9.164116e+00 4.312470e+01 -3.783637e+02
    endloop
  endfacet
  facet normal 3.241207e-01 9.298866e-02 -9.414345e-01
    outer loop
      vertex -8.704245e+00 4.310922e+01 -3.782069e+02
      vertex -9.164116e+00 4.055303e+01 -3.786177e+02
      vertex -9.164116e+00 4.312470e+01 -3.783637e+02
    endloop
  endfacet
  facet normal 2.923369e-13 9.951573e-01 9.829505e-02
    outer loop
      vertex -8.704245e+00 4.310922e+01 -3.782069e+02
      vertex -9.164116e+00 4.312470e+01 -3.783637e+02
      vertex -8.079778e+00 4.292811e+01 -3.763734e+02
    endloop
  endfacet
  facet normal -3.827076e-01 9.081180e-02 -9.193955e-01
    outer loop
      vertex -1.635943e+02 4.053143e+01 -3.783991e+02
      vertex -1.630640e+02 4.312470e+01 -3.783637e+02
      vertex -1.630640e+02 4.055303e+01 -3.786177e+02
    endloop
  endfacet
  facet normal -3.827076e-01 9.081180e-02 -9.193955e-01
    outer loop
      vertex -1.635943e+02 4.310311e+01 -3.781451e+02
      vertex -1.630640e+02 4.312470e+01 -3.783637e+02
      vertex -1.635943e+02 4.053143e+01 -3.783991e+02
    endloop
  endfacet
  facet normal 2.661764e-13 9.951573e-01 9.829505e-02
    outer loop
      vertex -1.635943e+02 4.310311e+01 -3.781451e+02
      vertex -8.079778e+00 4.292811e+01 -3.763734e+02
      vertex -1.630640e+02 4.312470e+01 -3.783637e+02
    endloop
  endfacet
  facet normal 2.665331e-13 9.951573e-01 9.829505e-02
    outer loop
      vertex -1.630640e+02 4.079876e+01 -3.811056e+02
      vertex -1.630640e+02 4.055303e+01 -3.786177e+02
      vertex -9.164116e+00 4.055303e+01 -3.786177e+02
    endloop
  endfacet
  facet normal 2.446780e-13 9.951573e-01 9.829505e-02
    outer loop
      vertex -1.630640e+02 4.079876e+01 -3.811056e+02
      vertex -1.635943e+02 4.082036e+01 -3.813242e+02
      vertex -1.630640e+02 4.055303e+01 -3.786177e+02
    endloop
  endfacet
  facet normal 2.649940e-13 9.951573e-01 9.829505e-02
    outer loop
      vertex -1.635943e+02 4.053143e+01 -3.783991e+02
      vertex -1.630640e+02 4.055303e+01 -3.786177e+02
      vertex -1.635943e+02 4.082036e+01 -3.813242e+02
    endloop
  endfacet
  facet normal 2.666455e-13 9.951573e-01 9.829505e-02
    outer loop
      vertex -1.026557e+01 4.079876e+01 -3.811056e+02
      vertex -1.630640e+02 4.079876e+01 -3.811056e+02
      vertex -9.164116e+00 4.055303e+01 -3.786177e+02
    endloop
  endfacet
  facet normal 2.498294e-13 9.951573e-01 9.829505e-02
    outer loop
      vertex -9.664867e+00 4.082835e+01 -3.814051e+02
      vertex -1.026557e+01 4.079876e+01 -3.811056e+02
      vertex -9.164116e+00 4.055303e+01 -3.786177e+02
    endloop
  endfacet
  facet normal 3.001282e-13 9.951573e-01 9.829505e-02
    outer loop
      vertex -9.546231e+00 4.089335e+01 -3.820632e+02
      vertex -9.664867e+00 4.082835e+01 -3.814051e+02
      vertex -9.164116e+00 4.055303e+01 -3.786177e+02
    endloop
  endfacet
  facet normal 2.956325e-13 9.951573e-01 9.829505e-02
    outer loop
      vertex -9.001234e+00 4.070574e+01 -3.801639e+02
      vertex -9.546231e+00 4.089335e+01 -3.820632e+02
      vertex -9.164116e+00 4.055303e+01 -3.786177e+02
    endloop
  endfacet
  facet normal 3.052689e-13 9.951573e-01 9.829505e-02
    outer loop
      vertex -8.704245e+00 4.053754e+01 -3.784609e+02
      vertex -9.001234e+00 4.070574e+01 -3.801639e+02
      vertex -9.164116e+00 4.055303e+01 -3.786177e+02
    endloop
  endfacet
  facet normal 3.241207e-01 9.298866e-02 -9.414345e-01
    outer loop
      vertex -8.704245e+00 4.310922e+01 -3.782069e+02
      vertex -8.704245e+00 4.053754e+01 -3.784609e+02
      vertex -9.164116e+00 4.055303e+01 -3.786177e+02
    endloop
  endfacet
  facet normal 2.594488e-13 9.951573e-01 9.829505e-02
    outer loop
      vertex -1.635943e+02 4.053143e+01 -3.783991e+02
      vertex -1.638140e+02 4.087249e+01 -3.818520e+02
      vertex -1.638140e+02 4.047931e+01 -3.778714e+02
    endloop
  endfacet
  facet normal -9.238695e-01 3.761826e-02 -3.808543e-01
    outer loop
      vertex -1.635943e+02 4.310311e+01 -3.781451e+02
      vertex -1.635943e+02 4.053143e+01 -3.783991e+02
      vertex -1.638140e+02 4.047931e+01 -3.778714e+02
    endloop
  endfacet
  facet normal -9.238695e-01 3.761826e-02 -3.808543e-01
    outer loop
      vertex -1.635943e+02 4.310311e+01 -3.781451e+02
      vertex -1.638140e+02 4.047931e+01 -3.778714e+02
      vertex -1.638140e+02 4.305098e+01 -3.776174e+02
    endloop
  endfacet
  facet normal 2.756114e-13 9.951573e-01 9.829505e-02
    outer loop
      vertex -1.635943e+02 4.053143e+01 -3.783991e+02
      vertex -1.635943e+02 4.082036e+01 -3.813242e+02
      vertex -1.638140e+02 4.087249e+01 -3.818520e+02
    endloop
  endfacet
  facet normal -9.238695e-01 -3.761826e-02 3.808543e-01
    outer loop
      vertex -1.638140e+02 4.289664e+01 -3.816521e+02
      vertex -1.638140e+02 4.087249e+01 -3.818520e+02
      vertex -1.635943e+02 4.082036e+01 -3.813242e+02
    endloop
  endfacet
  facet normal -1.000000e+00 -1.310573e-14 2.691507e-12
    outer loop
      vertex -1.638140e+02 4.293104e+01 -3.820004e+02
      vertex -1.638140e+02 4.087249e+01 -3.818520e+02
      vertex -1.638140e+02 4.289664e+01 -3.816521e+02
    endloop
  endfacet
  facet normal -1.000000e+00 -5.544425e-15 2.796414e-12
    outer loop
      vertex -1.638140e+02 3.988586e+01 -3.823012e+02
      vertex -1.638140e+02 4.087249e+01 -3.818520e+02
      vertex -1.638140e+02 4.293104e+01 -3.820004e+02
    endloop
  endfacet
  facet normal -3.827076e-01 -9.081180e-02 9.193955e-01
    outer loop
      vertex -1.635943e+02 4.284451e+01 -3.811243e+02
      vertex -1.635943e+02 4.082036e+01 -3.813242e+02
      vertex -1.630640e+02 4.079876e+01 -3.811056e+02
    endloop
  endfacet
  facet normal -9.238695e-01 -3.761826e-02 3.808543e-01
    outer loop
      vertex -1.638140e+02 4.289664e+01 -3.816521e+02
      vertex -1.635943e+02 4.082036e+01 -3.813242e+02
      vertex -1.635943e+02 4.284451e+01 -3.811243e+02
    endloop
  endfacet
  facet normal 2.717546e-12 -9.829505e-02 9.951573e-01
    outer loop
      vertex -1.630640e+02 4.282291e+01 -3.809057e+02
      vertex -1.630640e+02 4.079876e+01 -3.811056e+02
      vertex -1.026557e+01 4.079876e+01 -3.811056e+02
    endloop
  endfacet
  facet normal -3.827076e-01 -9.081180e-02 9.193955e-01
    outer loop
      vertex -1.635943e+02 4.284451e+01 -3.811243e+02
      vertex -1.630640e+02 4.079876e+01 -3.811056e+02
      vertex -1.630640e+02 4.282291e+01 -3.809057e+02
    endloop
  endfacet
  facet normal 4.479133e-01 -8.788334e-02 8.897473e-01
    outer loop
      vertex -1.026557e+01 4.282291e+01 -3.809057e+02
      vertex -1.026557e+01 4.079876e+01 -3.811056e+02
      vertex -9.664867e+00 4.082835e+01 -3.814051e+02
    endloop
  endfacet
  facet normal 2.717550e-12 -9.829505e-02 9.951573e-01
    outer loop
      vertex -1.026557e+01 4.282291e+01 -3.809057e+02
      vertex -1.630640e+02 4.282291e+01 -3.809057e+02
      vertex -1.026557e+01 4.079876e+01 -3.811056e+02
    endloop
  endfacet
  facet normal 9.842871e-01 -1.735650e-02 1.757204e-01
    outer loop
      vertex -9.664867e+00 4.285250e+01 -3.812052e+02
      vertex -9.664867e+00 4.082835e+01 -3.814051e+02
      vertex -9.546231e+00 4.089335e+01 -3.820632e+02
    endloop
  endfacet
  facet normal 4.479133e-01 -8.788334e-02 8.897473e-01
    outer loop
      vertex -9.664867e+00 4.285250e+01 -3.812052e+02
      vertex -1.026557e+01 4.282291e+01 -3.809057e+02
      vertex -9.664867e+00 4.082835e+01 -3.814051e+02
    endloop
  endfacet
  facet normal 9.615660e-01 2.593070e-02 -2.733466e-01
    outer loop
      vertex -9.586699e+00 3.988586e+01 -3.823012e+02
      vertex -9.546231e+00 4.089335e+01 -3.820632e+02
      vertex -9.001234e+00 4.070574e+01 -3.801639e+02
    endloop
  endfacet
  facet normal 9.842871e-01 -1.735650e-02 1.757204e-01
    outer loop
      vertex -9.664867e+00 4.285250e+01 -3.812052e+02
      vertex -9.546231e+00 4.089335e+01 -3.820632e+02
      vertex -9.546231e+00 4.291750e+01 -3.818633e+02
    endloop
  endfacet
  facet normal 9.594520e-01 2.770661e-02 -2.805069e-01
    outer loop
      vertex -9.586699e+00 3.988586e+01 -3.823012e+02
      vertex -9.546231e+00 4.291750e+01 -3.818633e+02
      vertex -9.546231e+00 4.089335e+01 -3.820632e+02
    endloop
  endfacet
  facet normal 2.387618e-13 9.951573e-01 9.829505e-02
    outer loop
      vertex -8.704245e+00 4.053754e+01 -3.784609e+02
      vertex -8.437550e+00 4.049759e+01 -3.780565e+02
      vertex -9.001234e+00 4.070574e+01 -3.801639e+02
    endloop
  endfacet
  facet normal 9.656392e-01 -1.290188e-02 -2.595658e-01
    outer loop
      vertex -9.586699e+00 3.988586e+01 -3.823012e+02
      vertex -9.001234e+00 4.070574e+01 -3.801639e+02
      vertex -8.437550e+00 4.049759e+01 -3.780565e+02
    endloop
  endfacet
  facet normal 8.360665e-01 5.392743e-02 -5.459713e-01
    outer loop
      vertex -8.437550e+00 4.306927e+01 -3.778025e+02
      vertex -8.437550e+00 4.049759e+01 -3.780565e+02
      vertex -8.704245e+00 4.053754e+01 -3.784609e+02
    endloop
  endfacet
  facet normal 9.658443e-01 -2.424982e-02 -2.579859e-01
    outer loop
      vertex -7.795859e+00 3.921742e+01 -3.755338e+02
      vertex -9.586699e+00 3.988586e+01 -3.823012e+02
      vertex -8.437550e+00 4.049759e+01 -3.780565e+02
    endloop
  endfacet
  facet normal 9.714001e-01 2.080506e-02 -2.365355e-01
    outer loop
      vertex -8.079778e+00 4.292811e+01 -3.763734e+02
      vertex -7.795859e+00 3.921742e+01 -3.755338e+02
      vertex -8.437550e+00 4.049759e+01 -3.780565e+02
    endloop
  endfacet
  facet normal 9.710876e-01 2.168275e-02 -2.377365e-01
    outer loop
      vertex -8.262564e+00 4.300120e+01 -3.771134e+02
      vertex -8.079778e+00 4.292811e+01 -3.763734e+02
      vertex -8.437550e+00 4.049759e+01 -3.780565e+02
    endloop
  endfacet
  facet normal 9.695222e-01 2.408261e-02 -2.438168e-01
    outer loop
      vertex -8.437550e+00 4.306927e+01 -3.778025e+02
      vertex -8.262564e+00 4.300120e+01 -3.771134e+02
      vertex -8.437550e+00 4.049759e+01 -3.780565e+02
    endloop
  endfacet
  facet normal 8.360665e-01 5.392743e-02 -5.459713e-01
    outer loop
      vertex -8.704245e+00 4.310922e+01 -3.782069e+02
      vertex -8.437550e+00 4.306927e+01 -3.778025e+02
      vertex -8.704245e+00 4.053754e+01 -3.784609e+02
    endloop
  endfacet
  facet normal 2.665992e-13 9.951573e-01 9.829505e-02
    outer loop
      vertex -1.638140e+02 4.293104e+01 -3.820004e+02
      vertex -1.630640e+02 4.282291e+01 -3.809057e+02
      vertex -1.026557e+01 4.282291e+01 -3.809057e+02
    endloop
  endfacet
  facet normal 2.543552e-13 9.951573e-01 9.829505e-02
    outer loop
      vertex -1.638140e+02 4.293104e+01 -3.820004e+02
      vertex -1.635943e+02 4.284451e+01 -3.811243e+02
      vertex -1.630640e+02 4.282291e+01 -3.809057e+02
    endloop
  endfacet
  facet normal 2.666951e-13 9.951573e-01 9.829505e-02
    outer loop
      vertex -9.664867e+00 4.285250e+01 -3.812052e+02
      vertex -1.638140e+02 4.293104e+01 -3.820004e+02
      vertex -1.026557e+01 4.282291e+01 -3.809057e+02
    endloop
  endfacet
  facet normal 2.653238e-13 9.951573e-01 9.829505e-02
    outer loop
      vertex -1.638140e+02 4.293104e+01 -3.820004e+02
      vertex -1.638140e+02 4.289664e+01 -3.816521e+02
      vertex -1.635943e+02 4.284451e+01 -3.811243e+02
    endloop
  endfacet
  facet normal 2.665469e-13 9.951573e-01 9.829505e-02
    outer loop
      vertex -9.664867e+00 4.285250e+01 -3.812052e+02
      vertex -9.586699e+00 4.293104e+01 -3.820004e+02
      vertex -1.638140e+02 4.293104e+01 -3.820004e+02
    endloop
  endfacet
  facet normal -2.717319e-12 9.829505e-02 -9.951573e-01
    outer loop
      vertex -1.638140e+02 3.988586e+01 -3.823012e+02
      vertex -1.638140e+02 4.293104e+01 -3.820004e+02
      vertex -9.586699e+00 4.293104e+01 -3.820004e+02
    endloop
  endfacet
  facet normal 2.960180e-13 9.951573e-01 9.829505e-02
    outer loop
      vertex -9.664867e+00 4.285250e+01 -3.812052e+02
      vertex -9.566762e+00 4.292431e+01 -3.819322e+02
      vertex -9.586699e+00 4.293104e+01 -3.820004e+02
    endloop
  endfacet
  facet normal 9.601472e-01 2.747296e-02 -2.781413e-01
    outer loop
      vertex -9.586699e+00 3.988586e+01 -3.823012e+02
      vertex -9.586699e+00 4.293104e+01 -3.820004e+02
      vertex -9.566762e+00 4.292431e+01 -3.819322e+02
    endloop
  endfacet
  facet normal -2.716576e-12 9.829505e-02 -9.951573e-01
    outer loop
      vertex -9.586699e+00 3.988586e+01 -3.823012e+02
      vertex -1.638140e+02 3.988586e+01 -3.823012e+02
      vertex -9.586699e+00 4.293104e+01 -3.820004e+02
    endloop
  endfacet
  facet normal 3.371660e-13 9.951573e-01 9.829505e-02
    outer loop
      vertex -9.664867e+00 4.285250e+01 -3.812052e+02
      vertex -9.546231e+00 4.291750e+01 -3.818633e+02
      vertex -9.566762e+00 4.292431e+01 -3.819322e+02
    endloop
  endfacet
  facet normal 9.587598e-01 2.805135e-02 -2.828298e-01
    outer loop
      vertex -9.586699e+00 3.988586e+01 -3.823012e+02
      vertex -9.566762e+00 4.292431e+01 -3.819322e+02
      vertex -9.546231e+00 4.291750e+01 -3.818633e+02
    endloop
  endfacet
  facet normal -2.665659e-13 -9.951573e-01 -9.829505e-02
    outer loop
      vertex -1.470050e+02 3.768012e+01 -3.599698e+02
      vertex -1.638140e+02 3.988586e+01 -3.823012e+02
      vertex -9.586699e+00 3.988586e+01 -3.823012e+02
    endloop
  endfacet
  facet normal -2.955661e-13 -9.951573e-01 -9.829505e-02
    outer loop
      vertex -1.012036e+01 3.248121e+01 -3.073351e+02
      vertex -1.050001e+01 3.229445e+01 -3.054443e+02
      vertex -9.586699e+00 3.988586e+01 -3.823012e+02
    endloop
  endfacet
  facet normal -2.667899e-13 -9.951573e-01 -9.829505e-02
    outer loop
      vertex -4.826400e+01 3.753267e+01 -3.584771e+02
      vertex -9.586699e+00 3.988586e+01 -3.823012e+02
      vertex -1.050001e+01 3.229445e+01 -3.054443e+02
    endloop
  endfacet
  facet normal -2.565533e-13 -9.951573e-01 -9.829505e-02
    outer loop
      vertex -8.803626e+00 3.308030e+01 -3.134004e+02
      vertex -1.012036e+01 3.248121e+01 -3.073351e+02
      vertex -9.586699e+00 3.988586e+01 -3.823012e+02
    endloop
  endfacet
  facet normal -2.632825e-13 -9.951573e-01 -9.829505e-02
    outer loop
      vertex -7.795859e+00 3.921742e+01 -3.755338e+02
      vertex -8.803626e+00 3.308030e+01 -3.134004e+02
      vertex -9.586699e+00 3.988586e+01 -3.823012e+02
    endloop
  endfacet
  facet normal -2.646163e-13 -9.951573e-01 -9.829505e-02
    outer loop
      vertex -4.826400e+01 3.753267e+01 -3.584771e+02
      vertex -4.976400e+01 3.768012e+01 -3.599698e+02
      vertex -9.586699e+00 3.988586e+01 -3.823012e+02
    endloop
  endfacet
  facet normal -2.665910e-13 -9.951573e-01 -9.829505e-02
    outer loop
      vertex -1.470050e+02 3.768012e+01 -3.599698e+02
      vertex -9.586699e+00 3.988586e+01 -3.823012e+02
      vertex -4.976400e+01 3.768012e+01 -3.599698e+02
    endloop
  endfacet
  facet normal -2.297647e-13 -9.951573e-01 -9.829505e-02
    outer loop
      vertex -1.470050e+02 3.738523e+01 -3.569843e+02
      vertex -1.264847e+02 3.229157e+01 -3.054151e+02
      vertex -1.265140e+02 3.228462e+01 -3.053448e+02
    endloop
  endfacet
  facet normal -2.406681e-13 -9.951573e-01 -9.829505e-02
    outer loop
      vertex -4.976400e+01 3.738523e+01 -3.569843e+02
      vertex -1.264140e+02 3.229445e+01 -3.054443e+02
      vertex -1.264847e+02 3.229157e+01 -3.054151e+02
    endloop
  endfacet
  facet normal -2.664456e-13 -9.951573e-01 -9.829505e-02
    outer loop
      vertex -1.470050e+02 3.738523e+01 -3.569843e+02
      vertex -4.976400e+01 3.738523e+01 -3.569843e+02
      vertex -1.264847e+02 3.229157e+01 -3.054151e+02
    endloop
  endfacet
  facet normal -2.664687e-13 -9.951573e-01 -9.829505e-02
    outer loop
      vertex -4.976400e+01 3.738523e+01 -3.569843e+02
      vertex -1.050001e+01 3.229445e+01 -3.054443e+02
      vertex -1.264140e+02 3.229445e+01 -3.054443e+02
    endloop
  endfacet
  facet normal -2.717619e-13 -9.951573e-01 -9.829505e-02
    outer loop
      vertex -4.976400e+01 3.738523e+01 -3.569843e+02
      vertex -4.826400e+01 3.753267e+01 -3.584771e+02
      vertex -1.050001e+01 3.229445e+01 -3.054443e+02
    endloop
  endfacet
  facet normal -2.706173e-13 -9.951573e-01 -9.829505e-02
    outer loop
      vertex -7.795859e+00 3.921742e+01 -3.755338e+02
      vertex -7.706110e+00 3.363811e+01 -3.190478e+02
      vertex -8.803626e+00 3.308030e+01 -3.134004e+02
    endloop
  endfacet
  facet normal 9.755788e-01 -3.871637e-02 2.162106e-01
    outer loop
      vertex -9.889709e+00 3.549274e+01 -3.080678e+02
      vertex -1.004913e+01 3.542293e+01 -3.073610e+02
      vertex -8.803626e+00 3.308030e+01 -3.134004e+02
    endloop
  endfacet
  facet normal 9.761345e-01 -3.448786e-02 2.144108e-01
    outer loop
      vertex -9.733199e+00 3.556202e+01 -3.087692e+02
      vertex -9.889709e+00 3.549274e+01 -3.080678e+02
      vertex -8.803626e+00 3.308030e+01 -3.134004e+02
    endloop
  endfacet
  facet normal -2.702907e-13 -9.951573e-01 -9.829505e-02
    outer loop
      vertex -6.975786e+00 3.883811e+01 -3.716935e+02
      vertex -6.823055e+00 3.415133e+01 -3.242437e+02
      vertex -7.706110e+00 3.363811e+01 -3.190478e+02
    endloop
  endfacet
  facet normal -2.728260e-13 -9.951573e-01 -9.829505e-02
    outer loop
      vertex -7.795859e+00 3.921742e+01 -3.755338e+02
      vertex -6.975786e+00 3.883811e+01 -3.716935e+02
      vertex -7.706110e+00 3.363811e+01 -3.190478e+02
    endloop
  endfacet
  facet normal -2.650651e-13 -9.951573e-01 -9.829505e-02
    outer loop
      vertex -6.088627e+00 3.832564e+01 -3.665052e+02
      vertex -5.863858e+00 3.483866e+01 -3.312024e+02
      vertex -6.823055e+00 3.415133e+01 -3.242437e+02
    endloop
  endfacet
  facet normal -2.594508e-13 -9.951573e-01 -9.829505e-02
    outer loop
      vertex -6.975786e+00 3.883811e+01 -3.716935e+02
      vertex -6.088627e+00 3.832564e+01 -3.665052e+02
      vertex -6.823055e+00 3.415133e+01 -3.242437e+02
    endloop
  endfacet
  facet normal -2.620595e-13 -9.951573e-01 -9.829505e-02
    outer loop
      vertex -5.264000e+00 3.761969e+01 -3.593580e+02
      vertex -5.264000e+00 3.543819e+01 -3.372722e+02
      vertex -5.863858e+00 3.483866e+01 -3.312024e+02
    endloop
  endfacet
  facet normal -2.822730e-13 -9.951573e-01 -9.829505e-02
    outer loop
      vertex -6.088627e+00 3.832564e+01 -3.665052e+02
      vertex -5.264000e+00 3.761969e+01 -3.593580e+02
      vertex -5.863858e+00 3.483866e+01 -3.312024e+02
    endloop
  endfacet
  facet normal 7.071068e-01 -7.036825e-01 -6.950509e-02
    outer loop
      vertex -4.923378e+00 3.634314e+01 -3.429687e+02
      vertex -5.264000e+00 3.543819e+01 -3.372722e+02
      vertex -5.264000e+00 3.761969e+01 -3.593580e+02
    endloop
  endfacet
  facet normal 9.980121e-01 6.225481e-03 -6.271417e-02
    outer loop
      vertex -4.933614e+00 3.743418e+01 -3.541188e+02
      vertex -5.264000e+00 3.761969e+01 -3.593580e+02
      vertex -4.933437e+00 4.022770e+01 -3.538387e+02
    endloop
  endfacet
  facet normal 7.071068e-01 -7.036825e-01 -6.950509e-02
    outer loop
      vertex -4.814638e+00 3.701330e+01 -3.486473e+02
      vertex -5.264000e+00 3.761969e+01 -3.593580e+02
      vertex -4.933614e+00 3.743418e+01 -3.541188e+02
    endloop
  endfacet
  facet normal 7.071068e-01 -7.036825e-01 -6.950509e-02
    outer loop
      vertex -4.923378e+00 3.634314e+01 -3.429687e+02
      vertex -5.264000e+00 3.761969e+01 -3.593580e+02
      vertex -4.814638e+00 3.701330e+01 -3.486473e+02
    endloop
  endfacet
  facet normal 2.667189e-13 9.951573e-01 9.829505e-02
    outer loop
      vertex -1.638140e+02 3.556202e+01 -3.087692e+02
      vertex -1.004913e+01 3.542293e+01 -3.073610e+02
      vertex -9.889709e+00 3.549274e+01 -3.080678e+02
    endloop
  endfacet
  facet normal 2.664509e-13 9.951573e-01 9.829505e-02
    outer loop
      vertex -1.031239e+01 3.538157e+01 -3.069423e+02
      vertex -1.004913e+01 3.542293e+01 -3.073610e+02
      vertex -1.638140e+02 3.556202e+01 -3.087692e+02
    endloop
  endfacet
  facet normal 2.665103e-13 9.951573e-01 9.829505e-02
    outer loop
      vertex -1.638140e+02 3.556202e+01 -3.087692e+02
      vertex -9.889709e+00 3.549274e+01 -3.080678e+02
      vertex -9.733199e+00 3.556202e+01 -3.087692e+02
    endloop
  endfacet
  facet normal 9.998185e-01 -1.844199e-03 1.896340e-02
    outer loop
      vertex -4.923378e+00 3.634314e+01 -3.429687e+02
      vertex -4.814631e+00 3.951649e+01 -3.483936e+02
      vertex -4.923531e+00 3.900748e+01 -3.427015e+02
    endloop
  endfacet
  facet normal 9.997658e-01 2.179290e-03 -2.152920e-02
    outer loop
      vertex -4.814638e+00 3.701330e+01 -3.486473e+02
      vertex -4.933437e+00 4.022770e+01 -3.538387e+02
      vertex -4.814631e+00 3.951649e+01 -3.483936e+02
    endloop
  endfacet
  facet normal 9.998192e-01 -1.920044e-03 1.891905e-02
    outer loop
      vertex -4.923378e+00 3.634314e+01 -3.429687e+02
      vertex -4.814638e+00 3.701330e+01 -3.486473e+02
      vertex -4.814631e+00 3.951649e+01 -3.483936e+02
    endloop
  endfacet
  facet normal 9.997650e-01 2.100405e-03 -2.157803e-02
    outer loop
      vertex -4.814638e+00 3.701330e+01 -3.486473e+02
      vertex -4.933614e+00 3.743418e+01 -3.541188e+02
      vertex -4.933437e+00 4.022770e+01 -3.538387e+02
    endloop
  endfacet
  facet normal -1.817436e-12 9.951573e-01 9.829505e-02
    outer loop
      vertex -8.437550e+00 4.306927e+01 -3.778025e+02
      vertex -8.079778e+00 4.292811e+01 -3.763734e+02
      vertex -8.262564e+00 4.300120e+01 -3.771134e+02
    endloop
  endfacet
  facet normal 3.039918e-13 9.951573e-01 9.829505e-02
    outer loop
      vertex -8.704245e+00 4.310922e+01 -3.782069e+02
      vertex -8.079778e+00 4.292811e+01 -3.763734e+02
      vertex -8.437550e+00 4.306927e+01 -3.778025e+02
    endloop
  endfacet
  facet normal 2.665964e-13 9.951573e-01 9.829505e-02
    outer loop
      vertex -1.638140e+02 4.292811e+01 -3.763734e+02
      vertex -8.079778e+00 4.292811e+01 -3.763734e+02
      vertex -1.638140e+02 4.305098e+01 -3.776174e+02
    endloop
  endfacet
  facet normal 2.667477e-13 9.951573e-01 9.829505e-02
    outer loop
      vertex -1.635943e+02 4.310311e+01 -3.781451e+02
      vertex -1.638140e+02 4.305098e+01 -3.776174e+02
      vertex -8.079778e+00 4.292811e+01 -3.763734e+02
    endloop
  endfacet
  facet normal 2.444517e-13 9.951573e-01 9.829505e-02
    outer loop
      vertex -1.635943e+02 3.538703e+01 -3.069975e+02
      vertex -1.638140e+02 3.556202e+01 -3.087692e+02
      vertex -1.638140e+02 3.543915e+01 -3.075253e+02
    endloop
  endfacet
endsolid P1040852002
