solid P1040852002
  facet normal 1.247641e-13 1.395812e-01 9.902106e-01
    outer loop
      vertex 2.472500e+02 -4.308004e+01 -3.045136e+02
      vertex 2.472500e+02 -4.089167e+01 -3.048221e+02
      vertex 2.100000e+02 -4.089167e+01 -3.048221e+02
    endloop
  endfacet
  facet normal 8.850970e-13 9.902106e-01 -1.395812e-01
    outer loop
      vertex 2.304410e+02 -4.671233e+01 -3.461147e+02
      vertex 2.100000e+02 -4.089167e+01 -3.048221e+02
      vertex 2.472500e+02 -4.089167e+01 -3.048221e+02
    endloop
  endfacet
  facet normal 1.247119e-13 1.395812e-01 9.902106e-01
    outer loop
      vertex 2.100000e+02 -4.308004e+01 -3.045136e+02
      vertex 2.472500e+02 -4.308004e+01 -3.045136e+02
      vertex 2.100000e+02 -4.089167e+01 -3.048221e+02
    endloop
  endfacet
  facet normal -7.071068e-01 9.869882e-02 7.001846e-01
    outer loop
      vertex 2.099500e+02 -4.308702e+01 -3.045631e+02
      vertex 2.100000e+02 -4.308004e+01 -3.045136e+02
      vertex 2.100000e+02 -4.089167e+01 -3.048221e+02
    endloop
  endfacet
  facet normal -7.071068e-01 9.869882e-02 7.001846e-01
    outer loop
      vertex 2.099500e+02 -4.089865e+01 -3.048716e+02
      vertex 2.099500e+02 -4.308702e+01 -3.045631e+02
      vertex 2.100000e+02 -4.089167e+01 -3.048221e+02
    endloop
  endfacet
  facet normal 1.221245e-12 9.902106e-01 -1.395812e-01
    outer loop
      vertex 2.099500e+02 -4.103125e+01 -3.058123e+02
      vertex 2.099500e+02 -4.089865e+01 -3.048716e+02
      vertex 2.100000e+02 -4.089167e+01 -3.048221e+02
    endloop
  endfacet
  facet normal 9.197987e-13 9.902106e-01 -1.395812e-01
    outer loop
      vertex 2.304410e+02 -4.671233e+01 -3.461147e+02
      vertex 2.099500e+02 -4.103125e+01 -3.058123e+02
      vertex 2.100000e+02 -4.089167e+01 -3.048221e+02
    endloop
  endfacet
  facet normal 1.000000e+00 -9.073821e-13 1.243502e-14
    outer loop
      vertex 2.472500e+02 -4.356578e+01 -3.079595e+02
      vertex 2.472500e+02 -4.089167e+01 -3.048221e+02
      vertex 2.472500e+02 -4.308004e+01 -3.045136e+02
    endloop
  endfacet
  facet normal 1.000000e+00 -8.013471e-13 -7.794038e-14
    outer loop
      vertex 2.472500e+02 -4.444819e+01 -3.090975e+02
      vertex 2.472500e+02 -4.089167e+01 -3.048221e+02
      vertex 2.472500e+02 -4.356578e+01 -3.079595e+02
    endloop
  endfacet
  facet normal 1.000000e+00 -7.185677e-13 -3.376366e-14
    outer loop
      vertex 2.472500e+02 -5.461839e+01 -3.763370e+02
      vertex 2.472500e+02 -4.089167e+01 -3.048221e+02
      vertex 2.472500e+02 -5.469802e+01 -3.763258e+02
    endloop
  endfacet
  facet normal 1.000000e+00 -8.955295e-13 4.051278e-16
    outer loop
      vertex 2.472500e+02 -4.444819e+01 -3.090975e+02
      vertex 2.472500e+02 -5.469802e+01 -3.763258e+02
      vertex 2.472500e+02 -4.089167e+01 -3.048221e+02
    endloop
  endfacet
  facet normal 1.000000e+00 -1.184879e-12 4.503541e-14
    outer loop
      vertex 2.472500e+02 -5.279229e+01 -3.818964e+02
      vertex 2.472500e+02 -4.089167e+01 -3.048221e+02
      vertex 2.472500e+02 -5.223397e+01 -3.779355e+02
    endloop
  endfacet
  facet normal 1.000000e+00 -8.886908e-13 -9.130662e-16
    outer loop
      vertex 2.472500e+02 -5.479286e+01 -3.775748e+02
      vertex 2.472500e+02 -5.223397e+01 -3.779355e+02
      vertex 2.472500e+02 -4.089167e+01 -3.048221e+02
    endloop
  endfacet
  facet normal 1.000000e+00 -8.824932e-13 -1.654301e-15
    outer loop
      vertex 2.472500e+02 -5.182519e+01 -3.823861e+02
      vertex 2.472500e+02 -4.089167e+01 -3.048221e+02
      vertex 2.472500e+02 -5.279229e+01 -3.818964e+02
    endloop
  endfacet
  facet normal 8.852053e-13 9.902106e-01 -1.395812e-01
    outer loop
      vertex 2.304410e+02 -4.713107e+01 -3.490854e+02
      vertex 2.472500e+02 -4.089167e+01 -3.048221e+02
      vertex 2.472500e+02 -5.182519e+01 -3.823861e+02
    endloop
  endfacet
  facet normal 8.901687e-13 9.902106e-01 -1.395812e-01
    outer loop
      vertex 2.304410e+02 -4.713107e+01 -3.490854e+02
      vertex 2.304410e+02 -4.671233e+01 -3.461147e+02
      vertex 2.472500e+02 -4.089167e+01 -3.048221e+02
    endloop
  endfacet
  facet normal 1.000000e+00 -1.115640e-12 4.245106e-14
    outer loop
      vertex 2.472500e+02 -5.461839e+01 -3.763370e+02
      vertex 2.472500e+02 -5.479286e+01 -3.775748e+02
      vertex 2.472500e+02 -4.089167e+01 -3.048221e+02
    endloop
  endfacet
  facet normal -8.847241e-13 -9.902106e-01 1.395812e-01
    outer loop
      vertex 2.465000e+02 -4.346110e+01 -3.072169e+02
      vertex 2.472500e+02 -4.308004e+01 -3.045136e+02
      vertex 2.100000e+02 -4.308004e+01 -3.045136e+02
    endloop
  endfacet
  facet normal -9.120695e-13 -9.902106e-01 1.395812e-01
    outer loop
      vertex 2.470303e+02 -4.349176e+01 -3.074344e+02
      vertex 2.472500e+02 -4.308004e+01 -3.045136e+02
      vertex 2.465000e+02 -4.346110e+01 -3.072169e+02
    endloop
  endfacet
  facet normal -8.308614e-13 -9.902106e-01 1.395812e-01
    outer loop
      vertex 2.470303e+02 -4.349176e+01 -3.074344e+02
      vertex 2.472500e+02 -4.356578e+01 -3.079595e+02
      vertex 2.472500e+02 -4.308004e+01 -3.045136e+02
    endloop
  endfacet
  facet normal -9.054346e-13 -9.902106e-01 1.395812e-01
    outer loop
      vertex 2.099500e+02 -4.308702e+01 -3.045631e+02
      vertex 2.465000e+02 -4.346110e+01 -3.072169e+02
      vertex 2.100000e+02 -4.308004e+01 -3.045136e+02
    endloop
  endfacet
  facet normal -8.848707e-13 -9.902106e-01 1.395812e-01
    outer loop
      vertex 2.098500e+02 -4.323358e+01 -3.056028e+02
      vertex 9.421674e+01 -4.346110e+01 -3.072169e+02
      vertex 2.465000e+02 -4.346110e+01 -3.072169e+02
    endloop
  endfacet
  facet normal 1.247324e-13 1.395812e-01 9.902106e-01
    outer loop
      vertex 2.465000e+02 -4.416903e+01 -3.071171e+02
      vertex 2.465000e+02 -4.346110e+01 -3.072169e+02
      vertex 9.421674e+01 -4.346110e+01 -3.072169e+02
    endloop
  endfacet
  facet normal -8.747839e-13 -9.902106e-01 1.395812e-01
    outer loop
      vertex 2.099207e+02 -4.322949e+01 -3.055738e+02
      vertex 2.098500e+02 -4.323358e+01 -3.056028e+02
      vertex 2.465000e+02 -4.346110e+01 -3.072169e+02
    endloop
  endfacet
  facet normal -8.874157e-13 -9.902106e-01 1.395812e-01
    outer loop
      vertex 2.099500e+02 -4.321962e+01 -3.055038e+02
      vertex 2.099207e+02 -4.322949e+01 -3.055738e+02
      vertex 2.465000e+02 -4.346110e+01 -3.072169e+02
    endloop
  endfacet
  facet normal -8.848899e-13 -9.902106e-01 1.395812e-01
    outer loop
      vertex 2.099500e+02 -4.308702e+01 -3.045631e+02
      vertex 2.099500e+02 -4.321962e+01 -3.055038e+02
      vertex 2.465000e+02 -4.346110e+01 -3.072169e+02
    endloop
  endfacet
  facet normal 3.827076e-01 1.289548e-01 9.148254e-01
    outer loop
      vertex 2.470303e+02 -4.419969e+01 -3.073346e+02
      vertex 2.470303e+02 -4.349176e+01 -3.074344e+02
      vertex 2.465000e+02 -4.346110e+01 -3.072169e+02
    endloop
  endfacet
  facet normal 3.827076e-01 1.289548e-01 9.148254e-01
    outer loop
      vertex 2.470303e+02 -4.419969e+01 -3.073346e+02
      vertex 2.465000e+02 -4.346110e+01 -3.072169e+02
      vertex 2.465000e+02 -4.416903e+01 -3.071171e+02
    endloop
  endfacet
  facet normal -8.898264e-13 -9.902106e-01 1.395812e-01
    outer loop
      vertex 9.393601e+01 -4.323358e+01 -3.056028e+02
      vertex 9.374839e+01 -4.348402e+01 -3.073795e+02
      vertex 9.421674e+01 -4.346110e+01 -3.072169e+02
    endloop
  endfacet
  facet normal -3.308644e-01 1.317198e-01 9.344403e-01
    outer loop
      vertex 9.421674e+01 -4.416903e+01 -3.071171e+02
      vertex 9.421674e+01 -4.346110e+01 -3.072169e+02
      vertex 9.374839e+01 -4.348402e+01 -3.073795e+02
    endloop
  endfacet
  facet normal -8.848709e-13 -9.902106e-01 1.395812e-01
    outer loop
      vertex 2.098500e+02 -4.323358e+01 -3.056028e+02
      vertex 9.393601e+01 -4.323358e+01 -3.056028e+02
      vertex 9.421674e+01 -4.346110e+01 -3.072169e+02
    endloop
  endfacet
  facet normal 1.247324e-13 1.395812e-01 9.902106e-01
    outer loop
      vertex 9.421674e+01 -4.416903e+01 -3.071171e+02
      vertex 2.465000e+02 -4.416903e+01 -3.071171e+02
      vertex 9.421674e+01 -4.346110e+01 -3.072169e+02
    endloop
  endfacet
  facet normal -7.822814e-13 -9.902106e-01 1.395812e-01
    outer loop
      vertex 9.352067e+01 -4.352078e+01 -3.076403e+02
      vertex 9.348513e+01 -4.354274e+01 -3.077961e+02
      vertex 9.374839e+01 -4.348402e+01 -3.073795e+02
    endloop
  endfacet
  facet normal -8.477127e-01 7.404164e-02 5.252628e-01
    outer loop
      vertex 9.374839e+01 -4.419195e+01 -3.072797e+02
      vertex 9.374839e+01 -4.348402e+01 -3.073795e+02
      vertex 9.348513e+01 -4.354274e+01 -3.077961e+02
    endloop
  endfacet
  facet normal -7.629619e-13 -9.902106e-01 1.395812e-01
    outer loop
      vertex 9.355636e+01 -4.349878e+01 -3.074842e+02
      vertex 9.352067e+01 -4.352078e+01 -3.076403e+02
      vertex 9.374839e+01 -4.348402e+01 -3.073795e+02
    endloop
  endfacet
  facet normal -7.932512e-13 -9.902106e-01 1.395812e-01
    outer loop
      vertex 9.393601e+01 -4.323358e+01 -3.056028e+02
      vertex 9.355636e+01 -4.349878e+01 -3.074842e+02
      vertex 9.374839e+01 -4.348402e+01 -3.073795e+02
    endloop
  endfacet
  facet normal -3.308644e-01 1.317198e-01 9.344403e-01
    outer loop
      vertex 9.374839e+01 -4.419195e+01 -3.072797e+02
      vertex 9.421674e+01 -4.416903e+01 -3.071171e+02
      vertex 9.374839e+01 -4.348402e+01 -3.073795e+02
    endloop
  endfacet
  facet normal -9.750801e-01 5.701124e-02 2.144028e-01
    outer loop
      vertex 9.223963e+01 -4.216114e+01 -3.138279e+02
      vertex 9.348513e+01 -4.354274e+01 -3.077961e+02
      vertex 9.352067e+01 -4.352078e+01 -3.076403e+02
    endloop
  endfacet
  facet normal -9.775608e-01 2.940327e-02 2.085913e-01
    outer loop
      vertex 9.348513e+01 -4.425067e+01 -3.076963e+02
      vertex 9.348513e+01 -4.354274e+01 -3.077961e+02
      vertex 9.223963e+01 -4.216114e+01 -3.138279e+02
    endloop
  endfacet
  facet normal -8.477127e-01 7.404164e-02 5.252628e-01
    outer loop
      vertex 9.374839e+01 -4.419195e+01 -3.072797e+02
      vertex 9.348513e+01 -4.354274e+01 -3.077961e+02
      vertex 9.348513e+01 -4.425067e+01 -3.076963e+02
    endloop
  endfacet
  facet normal -9.749231e-01 5.853704e-02 2.147055e-01
    outer loop
      vertex 9.223963e+01 -4.216114e+01 -3.138279e+02
      vertex 9.352067e+01 -4.352078e+01 -3.076403e+02
      vertex 9.355636e+01 -4.349878e+01 -3.074842e+02
    endloop
  endfacet
  facet normal -9.806147e-01 2.735040e-02 1.940280e-01
    outer loop
      vertex 9.393601e+01 -4.104521e+01 -3.059113e+02
      vertex 9.355636e+01 -4.349878e+01 -3.074842e+02
      vertex 9.393601e+01 -4.323358e+01 -3.056028e+02
    endloop
  endfacet
  facet normal -9.806147e-01 2.735040e-02 1.940280e-01
    outer loop
      vertex 9.355636e+01 -4.131042e+01 -3.077927e+02
      vertex 9.355636e+01 -4.349878e+01 -3.074842e+02
      vertex 9.393601e+01 -4.104521e+01 -3.059113e+02
    endloop
  endfacet
  facet normal -9.774495e-01 2.947523e-02 2.091019e-01
    outer loop
      vertex 9.223963e+01 -4.216114e+01 -3.138279e+02
      vertex 9.355636e+01 -4.349878e+01 -3.074842e+02
      vertex 9.355636e+01 -4.131042e+01 -3.077927e+02
    endloop
  endfacet
  facet normal 1.247323e-13 1.395812e-01 9.902106e-01
    outer loop
      vertex 9.393601e+01 -4.104521e+01 -3.059113e+02
      vertex 9.393601e+01 -4.323358e+01 -3.056028e+02
      vertex 2.098500e+02 -4.323358e+01 -3.056028e+02
    endloop
  endfacet
  facet normal -3.826834e-01 1.289562e-01 9.148353e-01
    outer loop
      vertex 2.098500e+02 -4.104521e+01 -3.059113e+02
      vertex 2.098500e+02 -4.323358e+01 -3.056028e+02
      vertex 2.099207e+02 -4.322949e+01 -3.055738e+02
    endloop
  endfacet
  facet normal 1.237612e-13 1.395812e-01 9.902106e-01
    outer loop
      vertex 9.393601e+01 -4.104521e+01 -3.059113e+02
      vertex 2.098500e+02 -4.323358e+01 -3.056028e+02
      vertex 2.098500e+02 -4.104521e+01 -3.059113e+02
    endloop
  endfacet
  facet normal -9.238795e-01 5.341542e-02 3.789372e-01
    outer loop
      vertex 2.099207e+02 -4.104112e+01 -3.058823e+02
      vertex 2.099207e+02 -4.322949e+01 -3.055738e+02
      vertex 2.099500e+02 -4.321962e+01 -3.055038e+02
    endloop
  endfacet
  facet normal -3.826834e-01 1.289562e-01 9.148353e-01
    outer loop
      vertex 2.098500e+02 -4.104521e+01 -3.059113e+02
      vertex 2.099207e+02 -4.322949e+01 -3.055738e+02
      vertex 2.099207e+02 -4.104112e+01 -3.058823e+02
    endloop
  endfacet
  facet normal -1.000000e+00 8.953915e-13 -5.361966e-15
    outer loop
      vertex 2.099500e+02 -4.089865e+01 -3.048716e+02
      vertex 2.099500e+02 -4.321962e+01 -3.055038e+02
      vertex 2.099500e+02 -4.308702e+01 -3.045631e+02
    endloop
  endfacet
  facet normal -1.000000e+00 8.953915e-13 -5.361966e-15
    outer loop
      vertex 2.099500e+02 -4.103125e+01 -3.058123e+02
      vertex 2.099500e+02 -4.321962e+01 -3.055038e+02
      vertex 2.099500e+02 -4.089865e+01 -3.048716e+02
    endloop
  endfacet
  facet normal -9.238795e-01 5.341542e-02 3.789372e-01
    outer loop
      vertex 2.099207e+02 -4.104112e+01 -3.058823e+02
      vertex 2.099500e+02 -4.321962e+01 -3.055038e+02
      vertex 2.099500e+02 -4.103125e+01 -3.058123e+02
    endloop
  endfacet
  facet normal 9.238695e-01 5.341879e-02 3.789612e-01
    outer loop
      vertex 2.472500e+02 -4.427371e+01 -3.078598e+02
      vertex 2.472500e+02 -4.356578e+01 -3.079595e+02
      vertex 2.470303e+02 -4.349176e+01 -3.074344e+02
    endloop
  endfacet
  facet normal 1.000000e+00 -9.212737e-13 1.505302e-14
    outer loop
      vertex 2.472500e+02 -4.444819e+01 -3.090975e+02
      vertex 2.472500e+02 -4.356578e+01 -3.079595e+02
      vertex 2.472500e+02 -4.427371e+01 -3.078598e+02
    endloop
  endfacet
  facet normal 9.238695e-01 5.341879e-02 3.789612e-01
    outer loop
      vertex 2.470303e+02 -4.419969e+01 -3.073346e+02
      vertex 2.472500e+02 -4.427371e+01 -3.078598e+02
      vertex 2.470303e+02 -4.349176e+01 -3.074344e+02
    endloop
  endfacet
  facet normal -8.848706e-13 -9.902106e-01 1.395812e-01
    outer loop
      vertex 2.472500e+02 -4.444819e+01 -3.090975e+02
      vertex 2.465000e+02 -4.416903e+01 -3.071171e+02
      vertex 9.421674e+01 -4.416903e+01 -3.071171e+02
    endloop
  endfacet
  facet normal -8.934364e-13 -9.902106e-01 1.395812e-01
    outer loop
      vertex 2.470303e+02 -4.419969e+01 -3.073346e+02
      vertex 2.465000e+02 -4.416903e+01 -3.071171e+02
      vertex 2.472500e+02 -4.444819e+01 -3.090975e+02
    endloop
  endfacet
  facet normal -8.851393e-13 -9.902106e-01 1.395812e-01
    outer loop
      vertex 9.374839e+01 -4.419195e+01 -3.072797e+02
      vertex 2.472500e+02 -4.444819e+01 -3.090975e+02
      vertex 9.421674e+01 -4.416903e+01 -3.071171e+02
    endloop
  endfacet
  facet normal -8.836415e-13 -9.887968e-01 1.492676e-01
    outer loop
      vertex 2.472500e+02 -5.469802e+01 -3.763258e+02
      vertex 2.304410e+02 -5.051385e+01 -3.486085e+02
      vertex 1.332000e+02 -5.051385e+01 -3.486085e+02
    endloop
  endfacet
  facet normal 1.247367e-13 1.395812e-01 9.902106e-01
    outer loop
      vertex 1.332000e+02 -4.713107e+01 -3.490854e+02
      vertex 1.332000e+02 -5.051385e+01 -3.486085e+02
      vertex 2.304410e+02 -5.051385e+01 -3.486085e+02
    endloop
  endfacet
  facet normal -8.839014e-13 -9.887968e-01 1.492676e-01
    outer loop
      vertex 1.317000e+02 -5.028994e+01 -3.471253e+02
      vertex 9.316920e+01 -4.454721e+01 -3.090836e+02
      vertex 9.185713e+01 -4.548260e+01 -3.152799e+02
    endloop
  endfacet
  facet normal 7.071068e-01 9.869881e-02 7.001847e-01
    outer loop
      vertex 1.317000e+02 -4.692170e+01 -3.476000e+02
      vertex 1.317000e+02 -5.028994e+01 -3.471253e+02
      vertex 1.332000e+02 -5.051385e+01 -3.486085e+02
    endloop
  endfacet
  facet normal -9.053929e-13 -9.887968e-01 1.492676e-01
    outer loop
      vertex 9.185713e+01 -4.548260e+01 -3.152799e+02
      vertex 1.332000e+02 -5.051385e+01 -3.486085e+02
      vertex 1.317000e+02 -5.028994e+01 -3.471253e+02
    endloop
  endfacet
  facet normal -8.836969e-13 -9.887968e-01 1.492676e-01
    outer loop
      vertex 9.151578e+01 -5.469802e+01 -3.763258e+02
      vertex 2.472500e+02 -5.469802e+01 -3.763258e+02
      vertex 1.332000e+02 -5.051385e+01 -3.486085e+02
    endloop
  endfacet
  facet normal -8.836963e-13 -9.887968e-01 1.492676e-01
    outer loop
      vertex 9.185713e+01 -4.548260e+01 -3.152799e+02
      vertex 9.151578e+01 -5.469802e+01 -3.763258e+02
      vertex 1.332000e+02 -5.051385e+01 -3.486085e+02
    endloop
  endfacet
  facet normal 7.071068e-01 9.869882e-02 7.001846e-01
    outer loop
      vertex 1.317000e+02 -4.692170e+01 -3.476000e+02
      vertex 1.332000e+02 -5.051385e+01 -3.486085e+02
      vertex 1.332000e+02 -4.713107e+01 -3.490854e+02
    endloop
  endfacet
  facet normal -8.792064e-13 -9.887968e-01 1.492676e-01
    outer loop
      vertex 2.472500e+02 -5.469802e+01 -3.763258e+02
      vertex 2.304410e+02 -5.006602e+01 -3.456420e+02
      vertex 2.304410e+02 -5.051385e+01 -3.486085e+02
    endloop
  endfacet
  facet normal -1.000000e+00 8.981190e-13 -1.447982e-15
    outer loop
      vertex 2.304410e+02 -4.671233e+01 -3.461147e+02
      vertex 2.304410e+02 -5.051385e+01 -3.486085e+02
      vertex 2.304410e+02 -5.006602e+01 -3.456420e+02
    endloop
  endfacet
  facet normal 1.235790e-13 1.395812e-01 9.902106e-01
    outer loop
      vertex 2.304410e+02 -4.713107e+01 -3.490854e+02
      vertex 1.332000e+02 -4.713107e+01 -3.490854e+02
      vertex 2.304410e+02 -5.051385e+01 -3.486085e+02
    endloop
  endfacet
  facet normal -1.000000e+00 8.917623e-13 8.242067e-15
    outer loop
      vertex 2.304410e+02 -4.713107e+01 -3.490854e+02
      vertex 2.304410e+02 -5.051385e+01 -3.486085e+02
      vertex 2.304410e+02 -4.671233e+01 -3.461147e+02
    endloop
  endfacet
  facet normal -8.836349e-13 -9.887968e-01 1.492676e-01
    outer loop
      vertex 9.316920e+01 -4.454721e+01 -3.090836e+02
      vertex 1.332000e+02 -5.006602e+01 -3.456420e+02
      vertex 2.304410e+02 -5.006602e+01 -3.456420e+02
    endloop
  endfacet
  facet normal -1.247369e-13 -1.395812e-01 -9.902106e-01
    outer loop
      vertex 2.304410e+02 -4.671233e+01 -3.461147e+02
      vertex 2.304410e+02 -5.006602e+01 -3.456420e+02
      vertex 1.332000e+02 -5.006602e+01 -3.456420e+02
    endloop
  endfacet
  facet normal -8.836040e-13 -9.887968e-01 1.492676e-01
    outer loop
      vertex 2.472500e+02 -4.454721e+01 -3.090836e+02
      vertex 9.316920e+01 -4.454721e+01 -3.090836e+02
      vertex 2.304410e+02 -5.006602e+01 -3.456420e+02
    endloop
  endfacet
  facet normal -8.841184e-13 -9.887968e-01 1.492676e-01
    outer loop
      vertex 2.472500e+02 -5.469802e+01 -3.763258e+02
      vertex 2.472500e+02 -4.454721e+01 -3.090836e+02
      vertex 2.304410e+02 -5.006602e+01 -3.456420e+02
    endloop
  endfacet
  facet normal -8.786742e-13 -9.887968e-01 1.492676e-01
    outer loop
      vertex 9.316920e+01 -4.454721e+01 -3.090836e+02
      vertex 1.317000e+02 -5.028994e+01 -3.471253e+02
      vertex 1.332000e+02 -5.006602e+01 -3.456420e+02
    endloop
  endfacet
  facet normal 7.071068e-01 -9.869882e-02 -7.001846e-01
    outer loop
      vertex 1.332000e+02 -4.671233e+01 -3.461147e+02
      vertex 1.332000e+02 -5.006602e+01 -3.456420e+02
      vertex 1.317000e+02 -5.028994e+01 -3.471253e+02
    endloop
  endfacet
  facet normal -1.247163e-13 -1.395812e-01 -9.902106e-01
    outer loop
      vertex 2.304410e+02 -4.671233e+01 -3.461147e+02
      vertex 1.332000e+02 -5.006602e+01 -3.456420e+02
      vertex 1.332000e+02 -4.671233e+01 -3.461147e+02
    endloop
  endfacet
  facet normal 7.071068e-01 -9.869881e-02 -7.001847e-01
    outer loop
      vertex 1.332000e+02 -4.671233e+01 -3.461147e+02
      vertex 1.317000e+02 -5.028994e+01 -3.471253e+02
      vertex 1.317000e+02 -4.692170e+01 -3.476000e+02
    endloop
  endfacet
  facet normal 1.247319e-13 1.395812e-01 9.902106e-01
    outer loop
      vertex 9.316920e+01 -4.444819e+01 -3.090975e+02
      vertex 9.316920e+01 -4.454721e+01 -3.090836e+02
      vertex 2.472500e+02 -4.454721e+01 -3.090836e+02
    endloop
  endfacet
  facet normal -9.787519e-01 2.367319e-02 2.036767e-01
    outer loop
      vertex 9.223963e+01 -4.216114e+01 -3.138279e+02
      vertex 9.185713e+01 -4.548260e+01 -3.152799e+02
      vertex 9.316920e+01 -4.454721e+01 -3.090836e+02
    endloop
  endfacet
  facet normal -9.780654e-01 2.907446e-02 2.062587e-01
    outer loop
      vertex 9.316920e+01 -4.444819e+01 -3.090975e+02
      vertex 9.223963e+01 -4.216114e+01 -3.138279e+02
      vertex 9.316920e+01 -4.454721e+01 -3.090836e+02
    endloop
  endfacet
  facet normal 1.000000e+00 -1.142738e-12 3.809524e-14
    outer loop
      vertex 2.472500e+02 -4.444819e+01 -3.090975e+02
      vertex 2.472500e+02 -4.454721e+01 -3.090836e+02
      vertex 2.472500e+02 -5.469802e+01 -3.763258e+02
    endloop
  endfacet
  facet normal 1.247319e-13 1.395812e-01 9.902106e-01
    outer loop
      vertex 2.472500e+02 -4.444819e+01 -3.090975e+02
      vertex 9.316920e+01 -4.444819e+01 -3.090975e+02
      vertex 2.472500e+02 -4.454721e+01 -3.090836e+02
    endloop
  endfacet
  facet normal -1.247450e-13 -1.395812e-01 -9.902106e-01
    outer loop
      vertex 2.472500e+02 -5.461839e+01 -3.763370e+02
      vertex 2.472500e+02 -5.469802e+01 -3.763258e+02
      vertex 9.151578e+01 -5.469802e+01 -3.763258e+02
    endloop
  endfacet
  facet normal -8.735835e-13 -9.887968e-01 1.492676e-01
    outer loop
      vertex 9.056507e+01 -4.654228e+01 -3.222996e+02
      vertex 9.056336e+01 -5.405708e+01 -3.720801e+02
      vertex 9.151578e+01 -5.469802e+01 -3.763258e+02
    endloop
  endfacet
  facet normal -9.762705e-01 -3.022698e-02 -2.144348e-01
    outer loop
      vertex 9.151578e+01 -5.461839e+01 -3.763370e+02
      vertex 9.151578e+01 -5.469802e+01 -3.763258e+02
      vertex 9.056336e+01 -5.405708e+01 -3.720801e+02
    endloop
  endfacet
  facet normal -8.756693e-13 -9.887968e-01 1.492676e-01
    outer loop
      vertex 9.185713e+01 -4.548260e+01 -3.152799e+02
      vertex 9.056507e+01 -4.654228e+01 -3.222996e+02
      vertex 9.151578e+01 -5.469802e+01 -3.763258e+02
    endloop
  endfacet
  facet normal -1.247323e-13 -1.395812e-01 -9.902106e-01
    outer loop
      vertex 2.472500e+02 -5.461839e+01 -3.763370e+02
      vertex 9.151578e+01 -5.469802e+01 -3.763258e+02
      vertex 9.151578e+01 -5.461839e+01 -3.763370e+02
    endloop
  endfacet
  facet normal -8.789523e-13 -9.887968e-01 1.492676e-01
    outer loop
      vertex 8.944858e+01 -4.768573e+01 -3.298742e+02
      vertex 8.978191e+01 -5.341397e+01 -3.678198e+02
      vertex 9.056336e+01 -5.405708e+01 -3.720801e+02
    endloop
  endfacet
  facet normal -9.839451e-01 -2.830968e-02 -1.762119e-01
    outer loop
      vertex 9.041179e+01 -5.033736e+01 -3.718313e+02
      vertex 9.056336e+01 -5.405708e+01 -3.720801e+02
      vertex 8.978191e+01 -5.341397e+01 -3.678198e+02
    endloop
  endfacet
  facet normal -8.915330e-13 -9.887968e-01 1.492676e-01
    outer loop
      vertex 9.056507e+01 -4.654228e+01 -3.222996e+02
      vertex 8.944858e+01 -4.768573e+01 -3.298742e+02
      vertex 9.056336e+01 -5.405708e+01 -3.720801e+02
    endloop
  endfacet
  facet normal -9.781520e-01 -2.606442e-02 -2.062505e-01
    outer loop
      vertex 9.123186e+01 -5.087600e+01 -3.756524e+02
      vertex 9.056336e+01 -5.405708e+01 -3.720801e+02
      vertex 9.041179e+01 -5.033736e+01 -3.718313e+02
    endloop
  endfacet
  facet normal -9.762504e-01 -3.495057e-02 -2.138075e-01
    outer loop
      vertex 9.151578e+01 -5.461839e+01 -3.763370e+02
      vertex 9.056336e+01 -5.405708e+01 -3.720801e+02
      vertex 9.123186e+01 -5.087600e+01 -3.756524e+02
    endloop
  endfacet
  facet normal -9.104079e-13 -9.887968e-01 1.492676e-01
    outer loop
      vertex 8.944858e+01 -4.768573e+01 -3.298742e+02
      vertex 8.916405e+01 -5.276376e+01 -3.635126e+02
      vertex 8.978191e+01 -5.341397e+01 -3.678198e+02
    endloop
  endfacet
  facet normal -9.900810e-01 -2.513213e-02 -1.382318e-01
    outer loop
      vertex 8.952463e+01 -4.960964e+01 -3.666687e+02
      vertex 8.978191e+01 -5.341397e+01 -3.678198e+02
      vertex 8.916405e+01 -5.276376e+01 -3.635126e+02
    endloop
  endfacet
  facet normal -9.858023e-01 -1.609666e-02 -1.671366e-01
    outer loop
      vertex 9.041179e+01 -5.033736e+01 -3.718313e+02
      vertex 8.978191e+01 -5.341397e+01 -3.678198e+02
      vertex 8.952463e+01 -4.960964e+01 -3.666687e+02
    endloop
  endfacet
  facet normal -8.692685e-13 -9.887968e-01 1.492676e-01
    outer loop
      vertex 8.870000e+01 -4.877956e+01 -3.371200e+02
      vertex 8.870000e+01 -5.209246e+01 -3.590658e+02
      vertex 8.916405e+01 -5.276376e+01 -3.635126e+02
    endloop
  endfacet
  facet normal -9.944287e-01 8.553456e-03 -1.050640e-01
    outer loop
      vertex 8.952463e+01 -4.960964e+01 -3.666687e+02
      vertex 8.916405e+01 -5.276376e+01 -3.635126e+02
      vertex 8.870000e+01 -5.209246e+01 -3.590658e+02
    endloop
  endfacet
  facet normal -8.718655e-13 -9.887968e-01 1.492676e-01
    outer loop
      vertex 8.944858e+01 -4.768573e+01 -3.298742e+02
      vertex 8.870000e+01 -4.877956e+01 -3.371200e+02
      vertex 8.916405e+01 -5.276376e+01 -3.635126e+02
    endloop
  endfacet
  facet normal -7.071068e-01 -6.991850e-01 1.055481e-01
    outer loop
      vertex 8.836944e+01 -5.098348e+01 -3.539341e+02
      vertex 8.870000e+01 -5.209246e+01 -3.590658e+02
      vertex 8.870000e+01 -4.877956e+01 -3.371200e+02
    endloop
  endfacet
  facet normal -9.934727e-01 -1.592199e-02 -1.129530e-01
    outer loop
      vertex 8.952463e+01 -4.960964e+01 -3.666687e+02
      vertex 8.870000e+01 -5.209246e+01 -3.590658e+02
      vertex 8.870000e+01 -4.860718e+01 -3.595571e+02
    endloop
  endfacet
  facet normal -9.980133e-01 -8.794173e-03 -6.238722e-02
    outer loop
      vertex 8.836944e+01 -5.098348e+01 -3.539341e+02
      vertex 8.870000e+01 -4.860718e+01 -3.595571e+02
      vertex 8.870000e+01 -5.209246e+01 -3.590658e+02
    endloop
  endfacet
  facet normal -9.948222e-01 1.418575e-02 1.006359e-01
    outer loop
      vertex 8.870000e+01 -4.550940e+01 -3.375810e+02
      vertex 8.870000e+01 -4.877956e+01 -3.371200e+02
      vertex 8.944858e+01 -4.768573e+01 -3.298742e+02
    endloop
  endfacet
  facet normal -9.982548e-01 8.242856e-03 5.847609e-02
    outer loop
      vertex 8.835938e+01 -4.665038e+01 -3.432349e+02
      vertex 8.870000e+01 -4.877956e+01 -3.371200e+02
      vertex 8.870000e+01 -4.550940e+01 -3.375810e+02
    endloop
  endfacet
  facet normal -7.071068e-01 -6.991850e-01 1.055481e-01
    outer loop
      vertex 8.825063e+01 -5.004652e+01 -3.485233e+02
      vertex 8.870000e+01 -4.877956e+01 -3.371200e+02
      vertex 8.835953e+01 -4.930132e+01 -3.428572e+02
    endloop
  endfacet
  facet normal -9.982538e-01 8.275705e-03 5.848748e-02
    outer loop
      vertex 8.835938e+01 -4.665038e+01 -3.432349e+02
      vertex 8.835953e+01 -4.930132e+01 -3.428572e+02
      vertex 8.870000e+01 -4.877956e+01 -3.371200e+02
    endloop
  endfacet
  facet normal -7.071068e-01 -6.991850e-01 1.055481e-01
    outer loop
      vertex 8.836944e+01 -5.098348e+01 -3.539341e+02
      vertex 8.870000e+01 -4.877956e+01 -3.371200e+02
      vertex 8.825063e+01 -5.004652e+01 -3.485233e+02
    endloop
  endfacet
  facet normal -9.894888e-01 1.097732e-02 1.441921e-01
    outer loop
      vertex 9.025905e+01 -4.368203e+01 -3.246173e+02
      vertex 8.944858e+01 -4.768573e+01 -3.298742e+02
      vertex 9.056507e+01 -4.654228e+01 -3.222996e+02
    endloop
  endfacet
  facet normal -9.907041e-01 2.496934e-02 1.337230e-01
    outer loop
      vertex 8.929986e+01 -4.465805e+01 -3.315414e+02
      vertex 8.944858e+01 -4.768573e+01 -3.298742e+02
      vertex 9.025905e+01 -4.368203e+01 -3.246173e+02
    endloop
  endfacet
  facet normal -9.951618e-01 5.143034e-03 9.811528e-02
    outer loop
      vertex 8.870000e+01 -4.550940e+01 -3.375810e+02
      vertex 8.944858e+01 -4.768573e+01 -3.298742e+02
      vertex 8.929986e+01 -4.465805e+01 -3.315414e+02
    endloop
  endfacet
  facet normal -9.837827e-01 1.620622e-02 1.786308e-01
    outer loop
      vertex 9.114211e+01 -4.295325e+01 -3.194472e+02
      vertex 9.056507e+01 -4.654228e+01 -3.222996e+02
      vertex 9.185713e+01 -4.548260e+01 -3.152799e+02
    endloop
  endfacet
  facet normal -9.859870e-01 2.779925e-02 1.644896e-01
    outer loop
      vertex 9.025905e+01 -4.368203e+01 -3.246173e+02
      vertex 9.056507e+01 -4.654228e+01 -3.222996e+02
      vertex 9.114211e+01 -4.295325e+01 -3.194472e+02
    endloop
  endfacet
  facet normal -9.817965e-01 3.115538e-02 1.873634e-01
    outer loop
      vertex 9.114211e+01 -4.295325e+01 -3.194472e+02
      vertex 9.185713e+01 -4.548260e+01 -3.152799e+02
      vertex 9.223963e+01 -4.216114e+01 -3.138279e+02
    endloop
  endfacet
  facet normal -1.247367e-13 -1.395812e-01 -9.902106e-01
    outer loop
      vertex 2.465000e+02 -5.233865e+01 -3.786782e+02
      vertex 2.465000e+02 -5.489755e+01 -3.783175e+02
      vertex 9.260012e+01 -5.489755e+01 -3.783175e+02
    endloop
  endfacet
  facet normal -8.849022e-13 -9.902106e-01 1.395812e-01
    outer loop
      vertex 9.151578e+01 -5.461839e+01 -3.763370e+02
      vertex 9.260012e+01 -5.489755e+01 -3.783175e+02
      vertex 2.465000e+02 -5.489755e+01 -3.783175e+02
    endloop
  endfacet
  facet normal -1.247368e-13 -1.395812e-01 -9.902106e-01
    outer loop
      vertex 9.260012e+01 -5.233865e+01 -3.786782e+02
      vertex 2.465000e+02 -5.233865e+01 -3.786782e+02
      vertex 9.260012e+01 -5.489755e+01 -3.783175e+02
    endloop
  endfacet
  facet normal -3.241207e-01 -1.320460e-01 -9.367548e-01
    outer loop
      vertex 9.214025e+01 -5.487556e+01 -3.781615e+02
      vertex 9.260012e+01 -5.233865e+01 -3.786782e+02
      vertex 9.260012e+01 -5.489755e+01 -3.783175e+02
    endloop
  endfacet
  facet normal -8.722018e-13 -9.902106e-01 1.395812e-01
    outer loop
      vertex 9.214025e+01 -5.487556e+01 -3.781615e+02
      vertex 9.260012e+01 -5.489755e+01 -3.783175e+02
      vertex 9.151578e+01 -5.461839e+01 -3.763370e+02
    endloop
  endfacet
  facet normal 3.827076e-01 -1.289548e-01 -9.148254e-01
    outer loop
      vertex 2.470303e+02 -5.230799e+01 -3.784606e+02
      vertex 2.465000e+02 -5.489755e+01 -3.783175e+02
      vertex 2.465000e+02 -5.233865e+01 -3.786782e+02
    endloop
  endfacet
  facet normal 3.827076e-01 -1.289548e-01 -9.148254e-01
    outer loop
      vertex 2.470303e+02 -5.486688e+01 -3.780999e+02
      vertex 2.465000e+02 -5.489755e+01 -3.783175e+02
      vertex 2.470303e+02 -5.230799e+01 -3.784606e+02
    endloop
  endfacet
  facet normal -8.842247e-13 -9.902106e-01 1.395812e-01
    outer loop
      vertex 2.470303e+02 -5.486688e+01 -3.780999e+02
      vertex 9.151578e+01 -5.461839e+01 -3.763370e+02
      vertex 2.465000e+02 -5.489755e+01 -3.783175e+02
    endloop
  endfacet
  facet normal -8.849019e-13 -9.902106e-01 1.395812e-01
    outer loop
      vertex 2.465000e+02 -5.268761e+01 -3.811537e+02
      vertex 2.465000e+02 -5.233865e+01 -3.786782e+02
      vertex 9.260012e+01 -5.233865e+01 -3.786782e+02
    endloop
  endfacet
  facet normal -8.543058e-13 -9.902106e-01 1.395812e-01
    outer loop
      vertex 2.465000e+02 -5.268761e+01 -3.811537e+02
      vertex 2.470303e+02 -5.271827e+01 -3.813712e+02
      vertex 2.465000e+02 -5.233865e+01 -3.786782e+02
    endloop
  endfacet
  facet normal -8.352676e-13 -9.902106e-01 1.395812e-01
    outer loop
      vertex 2.470303e+02 -5.230799e+01 -3.784606e+02
      vertex 2.465000e+02 -5.233865e+01 -3.786782e+02
      vertex 2.470303e+02 -5.271827e+01 -3.813712e+02
    endloop
  endfacet
  facet normal -8.849263e-13 -9.902106e-01 1.395812e-01
    outer loop
      vertex 9.370157e+01 -5.268761e+01 -3.811537e+02
      vertex 2.465000e+02 -5.268761e+01 -3.811537e+02
      vertex 9.260012e+01 -5.233865e+01 -3.786782e+02
    endloop
  endfacet
  facet normal -8.848952e-13 -9.902106e-01 1.395812e-01
    outer loop
      vertex 9.310087e+01 -5.272961e+01 -3.814517e+02
      vertex 9.370157e+01 -5.268761e+01 -3.811537e+02
      vertex 9.260012e+01 -5.233865e+01 -3.786782e+02
    endloop
  endfacet
  facet normal -8.362088e-13 -9.902106e-01 1.395812e-01
    outer loop
      vertex 9.298223e+01 -5.282192e+01 -3.821065e+02
      vertex 9.310087e+01 -5.272961e+01 -3.814517e+02
      vertex 9.260012e+01 -5.233865e+01 -3.786782e+02
    endloop
  endfacet
  facet normal -9.441537e-13 -9.902106e-01 1.395812e-01
    outer loop
      vertex 9.243723e+01 -5.255551e+01 -3.802166e+02
      vertex 9.298223e+01 -5.282192e+01 -3.821065e+02
      vertex 9.260012e+01 -5.233865e+01 -3.786782e+02
    endloop
  endfacet
  facet normal -9.098394e-13 -9.902106e-01 1.395812e-01
    outer loop
      vertex 9.214025e+01 -5.231666e+01 -3.785222e+02
      vertex 9.243723e+01 -5.255551e+01 -3.802166e+02
      vertex 9.260012e+01 -5.233865e+01 -3.786782e+02
    endloop
  endfacet
  facet normal -3.241207e-01 -1.320460e-01 -9.367548e-01
    outer loop
      vertex 9.214025e+01 -5.487556e+01 -3.781615e+02
      vertex 9.214025e+01 -5.231666e+01 -3.785222e+02
      vertex 9.260012e+01 -5.233865e+01 -3.786782e+02
    endloop
  endfacet
  facet normal -9.075969e-13 -9.902106e-01 1.395812e-01
    outer loop
      vertex 2.470303e+02 -5.230799e+01 -3.784606e+02
      vertex 2.472500e+02 -5.279229e+01 -3.818964e+02
      vertex 2.472500e+02 -5.223397e+01 -3.779355e+02
    endloop
  endfacet
  facet normal 9.238695e-01 -5.341879e-02 -3.789612e-01
    outer loop
      vertex 2.470303e+02 -5.486688e+01 -3.780999e+02
      vertex 2.470303e+02 -5.230799e+01 -3.784606e+02
      vertex 2.472500e+02 -5.223397e+01 -3.779355e+02
    endloop
  endfacet
  facet normal 9.238695e-01 -5.341879e-02 -3.789612e-01
    outer loop
      vertex 2.470303e+02 -5.486688e+01 -3.780999e+02
      vertex 2.472500e+02 -5.223397e+01 -3.779355e+02
      vertex 2.472500e+02 -5.479286e+01 -3.775748e+02
    endloop
  endfacet
  facet normal -8.916537e-13 -9.902106e-01 1.395812e-01
    outer loop
      vertex 2.470303e+02 -5.230799e+01 -3.784606e+02
      vertex 2.470303e+02 -5.271827e+01 -3.813712e+02
      vertex 2.472500e+02 -5.279229e+01 -3.818964e+02
    endloop
  endfacet
  facet normal 9.238695e-01 5.341879e-02 3.789612e-01
    outer loop
      vertex 2.472500e+02 -5.480638e+01 -3.816125e+02
      vertex 2.472500e+02 -5.279229e+01 -3.818964e+02
      vertex 2.470303e+02 -5.271827e+01 -3.813712e+02
    endloop
  endfacet
  facet normal 1.000000e+00 -9.082065e-13 -3.599356e-14
    outer loop
      vertex 2.472500e+02 -5.485523e+01 -3.819590e+02
      vertex 2.472500e+02 -5.279229e+01 -3.818964e+02
      vertex 2.472500e+02 -5.480638e+01 -3.816125e+02
    endloop
  endfacet
  facet normal 1.000000e+00 -9.077356e-13 -5.149668e-14
    outer loop
      vertex 2.472500e+02 -5.182519e+01 -3.823861e+02
      vertex 2.472500e+02 -5.279229e+01 -3.818964e+02
      vertex 2.472500e+02 -5.485523e+01 -3.819590e+02
    endloop
  endfacet
  facet normal 3.827076e-01 1.289548e-01 9.148254e-01
    outer loop
      vertex 2.470303e+02 -5.473236e+01 -3.810873e+02
      vertex 2.470303e+02 -5.271827e+01 -3.813712e+02
      vertex 2.465000e+02 -5.268761e+01 -3.811537e+02
    endloop
  endfacet
  facet normal 9.238695e-01 5.341879e-02 3.789612e-01
    outer loop
      vertex 2.472500e+02 -5.480638e+01 -3.816125e+02
      vertex 2.470303e+02 -5.271827e+01 -3.813712e+02
      vertex 2.470303e+02 -5.473236e+01 -3.810873e+02
    endloop
  endfacet
  facet normal 1.247401e-13 1.395812e-01 9.902106e-01
    outer loop
      vertex 2.465000e+02 -5.470169e+01 -3.808698e+02
      vertex 2.465000e+02 -5.268761e+01 -3.811537e+02
      vertex 9.370157e+01 -5.268761e+01 -3.811537e+02
    endloop
  endfacet
  facet normal 3.827076e-01 1.289548e-01 9.148254e-01
    outer loop
      vertex 2.470303e+02 -5.473236e+01 -3.810873e+02
      vertex 2.465000e+02 -5.268761e+01 -3.811537e+02
      vertex 2.465000e+02 -5.470169e+01 -3.808698e+02
    endloop
  endfacet
  facet normal -4.479133e-01 1.247963e-01 8.853246e-01
    outer loop
      vertex 9.370157e+01 -5.470169e+01 -3.808698e+02
      vertex 9.370157e+01 -5.268761e+01 -3.811537e+02
      vertex 9.310087e+01 -5.272961e+01 -3.814517e+02
    endloop
  endfacet
  facet normal 1.247402e-13 1.395812e-01 9.902106e-01
    outer loop
      vertex 9.370157e+01 -5.470169e+01 -3.808698e+02
      vertex 2.465000e+02 -5.470169e+01 -3.808698e+02
      vertex 9.370157e+01 -5.268761e+01 -3.811537e+02
    endloop
  endfacet
  facet normal -9.842871e-01 2.464662e-02 1.748470e-01
    outer loop
      vertex 9.310087e+01 -5.474370e+01 -3.811678e+02
      vertex 9.310087e+01 -5.272961e+01 -3.814517e+02
      vertex 9.298223e+01 -5.282192e+01 -3.821065e+02
    endloop
  endfacet
  facet normal -4.479133e-01 1.247963e-01 8.853246e-01
    outer loop
      vertex 9.310087e+01 -5.474370e+01 -3.811678e+02
      vertex 9.370157e+01 -5.470169e+01 -3.808698e+02
      vertex 9.310087e+01 -5.272961e+01 -3.814517e+02
    endloop
  endfacet
  facet normal -9.615660e-01 -3.727197e-02 -2.720322e-01
    outer loop
      vertex 9.302270e+01 -5.182519e+01 -3.823861e+02
      vertex 9.298223e+01 -5.282192e+01 -3.821065e+02
      vertex 9.243723e+01 -5.255551e+01 -3.802166e+02
    endloop
  endfacet
  facet normal -9.842871e-01 2.464662e-02 1.748470e-01
    outer loop
      vertex 9.310087e+01 -5.474370e+01 -3.811678e+02
      vertex 9.298223e+01 -5.282192e+01 -3.821065e+02
      vertex 9.298223e+01 -5.483601e+01 -3.818226e+02
    endloop
  endfacet
  facet normal -9.594520e-01 -3.934402e-02 -2.791126e-01
    outer loop
      vertex 9.302270e+01 -5.182519e+01 -3.823861e+02
      vertex 9.298223e+01 -5.483601e+01 -3.818226e+02
      vertex 9.298223e+01 -5.282192e+01 -3.821065e+02
    endloop
  endfacet
  facet normal -8.862096e-13 -9.902106e-01 1.395812e-01
    outer loop
      vertex 9.214025e+01 -5.231666e+01 -3.785222e+02
      vertex 9.187355e+01 -5.225993e+01 -3.781197e+02
      vertex 9.243723e+01 -5.255551e+01 -3.802166e+02
    endloop
  endfacet
  facet normal -9.656392e-01 2.099941e-03 -2.598778e-01
    outer loop
      vertex 9.302270e+01 -5.182519e+01 -3.823861e+02
      vertex 9.243723e+01 -5.255551e+01 -3.802166e+02
      vertex 9.187355e+01 -5.225993e+01 -3.781197e+02
    endloop
  endfacet
  facet normal -8.360665e-01 -7.657818e-02 -5.432574e-01
    outer loop
      vertex 9.187355e+01 -5.481883e+01 -3.777590e+02
      vertex 9.187355e+01 -5.225993e+01 -3.781197e+02
      vertex 9.214025e+01 -5.231666e+01 -3.785222e+02
    endloop
  endfacet
  facet normal -9.658443e-01 1.350374e-02 -2.587710e-01
    outer loop
      vertex 9.123186e+01 -5.087600e+01 -3.756524e+02
      vertex 9.302270e+01 -5.182519e+01 -3.823861e+02
      vertex 9.187355e+01 -5.225993e+01 -3.781197e+02
    endloop
  endfacet
  facet normal -9.714001e-01 -3.062044e-02 -2.354661e-01
    outer loop
      vertex 9.151578e+01 -5.461839e+01 -3.763370e+02
      vertex 9.123186e+01 -5.087600e+01 -3.756524e+02
      vertex 9.187355e+01 -5.225993e+01 -3.781197e+02
    endloop
  endfacet
  facet normal -9.710876e-01 -3.154730e-02 -2.366296e-01
    outer loop
      vertex 9.169856e+01 -5.472217e+01 -3.770733e+02
      vertex 9.151578e+01 -5.461839e+01 -3.763370e+02
      vertex 9.187355e+01 -5.225993e+01 -3.781197e+02
    endloop
  endfacet
  facet normal -9.695222e-01 -3.419786e-02 -2.426049e-01
    outer loop
      vertex 9.187355e+01 -5.481883e+01 -3.777590e+02
      vertex 9.169856e+01 -5.472217e+01 -3.770733e+02
      vertex 9.187355e+01 -5.225993e+01 -3.781197e+02
    endloop
  endfacet
  facet normal -8.360665e-01 -7.657818e-02 -5.432574e-01
    outer loop
      vertex 9.214025e+01 -5.487556e+01 -3.781615e+02
      vertex 9.187355e+01 -5.481883e+01 -3.777590e+02
      vertex 9.214025e+01 -5.231666e+01 -3.785222e+02
    endloop
  endfacet
  facet normal -8.849263e-13 -9.902106e-01 1.395812e-01
    outer loop
      vertex 2.472500e+02 -5.485523e+01 -3.819590e+02
      vertex 2.465000e+02 -5.470169e+01 -3.808698e+02
      vertex 9.370157e+01 -5.470169e+01 -3.808698e+02
    endloop
  endfacet
  facet normal -9.199489e-13 -9.902106e-01 1.395812e-01
    outer loop
      vertex 2.472500e+02 -5.485523e+01 -3.819590e+02
      vertex 2.470303e+02 -5.473236e+01 -3.810873e+02
      vertex 2.465000e+02 -5.470169e+01 -3.808698e+02
    endloop
  endfacet
  facet normal -8.850062e-13 -9.902106e-01 1.395812e-01
    outer loop
      vertex 9.310087e+01 -5.474370e+01 -3.811678e+02
      vertex 2.472500e+02 -5.485523e+01 -3.819590e+02
      vertex 9.370157e+01 -5.470169e+01 -3.808698e+02
    endloop
  endfacet
  facet normal -7.953397e-13 -9.902106e-01 1.395812e-01
    outer loop
      vertex 2.472500e+02 -5.485523e+01 -3.819590e+02
      vertex 2.472500e+02 -5.480638e+01 -3.816125e+02
      vertex 2.470303e+02 -5.473236e+01 -3.810873e+02
    endloop
  endfacet
  facet normal -8.848481e-13 -9.902106e-01 1.395812e-01
    outer loop
      vertex 9.310087e+01 -5.474370e+01 -3.811678e+02
      vertex 9.302270e+01 -5.485523e+01 -3.819590e+02
      vertex 2.472500e+02 -5.485523e+01 -3.819590e+02
    endloop
  endfacet
  facet normal -1.247290e-13 -1.395812e-01 -9.902106e-01
    outer loop
      vertex 2.472500e+02 -5.182519e+01 -3.823861e+02
      vertex 2.472500e+02 -5.485523e+01 -3.819590e+02
      vertex 9.302270e+01 -5.485523e+01 -3.819590e+02
    endloop
  endfacet
  facet normal -1.048451e-12 -9.902106e-01 1.395812e-01
    outer loop
      vertex 9.310087e+01 -5.474370e+01 -3.811678e+02
      vertex 9.300276e+01 -5.484567e+01 -3.818912e+02
      vertex 9.302270e+01 -5.485523e+01 -3.819590e+02
    endloop
  endfacet
  facet normal -9.601472e-01 -3.901223e-02 -2.767588e-01
    outer loop
      vertex 9.302270e+01 -5.182519e+01 -3.823861e+02
      vertex 9.302270e+01 -5.485523e+01 -3.819590e+02
      vertex 9.300276e+01 -5.484567e+01 -3.818912e+02
    endloop
  endfacet
  facet normal -1.247420e-13 -1.395812e-01 -9.902106e-01
    outer loop
      vertex 9.302270e+01 -5.182519e+01 -3.823861e+02
      vertex 2.472500e+02 -5.182519e+01 -3.823861e+02
      vertex 9.302270e+01 -5.485523e+01 -3.819590e+02
    endloop
  endfacet
  facet normal -1.459461e-12 -9.902106e-01 1.395812e-01
    outer loop
      vertex 9.310087e+01 -5.474370e+01 -3.811678e+02
      vertex 9.298223e+01 -5.483601e+01 -3.818226e+02
      vertex 9.300276e+01 -5.484567e+01 -3.818912e+02
    endloop
  endfacet
  facet normal -9.587598e-01 -3.978503e-02 -2.814191e-01
    outer loop
      vertex 9.302270e+01 -5.182519e+01 -3.823861e+02
      vertex 9.300276e+01 -5.484567e+01 -3.818912e+02
      vertex 9.298223e+01 -5.483601e+01 -3.818226e+02
    endloop
  endfacet
  facet normal 8.849385e-13 9.902106e-01 -1.395812e-01
    outer loop
      vertex 2.304410e+02 -4.713107e+01 -3.490854e+02
      vertex 2.472500e+02 -5.182519e+01 -3.823861e+02
      vertex 9.302270e+01 -5.182519e+01 -3.823861e+02
    endloop
  endfacet
  facet normal 8.700847e-13 9.902106e-01 -1.395812e-01
    outer loop
      vertex 9.355636e+01 -4.131042e+01 -3.077927e+02
      vertex 9.393601e+01 -4.104521e+01 -3.059113e+02
      vertex 9.302270e+01 -5.182519e+01 -3.823861e+02
    endloop
  endfacet
  facet normal 8.853541e-13 9.902106e-01 -1.395812e-01
    outer loop
      vertex 1.317000e+02 -4.692170e+01 -3.476000e+02
      vertex 9.302270e+01 -5.182519e+01 -3.823861e+02
      vertex 9.393601e+01 -4.104521e+01 -3.059113e+02
    endloop
  endfacet
  facet normal 8.788283e-13 9.902106e-01 -1.395812e-01
    outer loop
      vertex 9.223963e+01 -4.216114e+01 -3.138279e+02
      vertex 9.355636e+01 -4.131042e+01 -3.077927e+02
      vertex 9.302270e+01 -5.182519e+01 -3.823861e+02
    endloop
  endfacet
  facet normal 8.733170e-13 9.902106e-01 -1.395812e-01
    outer loop
      vertex 9.123186e+01 -5.087600e+01 -3.756524e+02
      vertex 9.223963e+01 -4.216114e+01 -3.138279e+02
      vertex 9.302270e+01 -5.182519e+01 -3.823861e+02
    endloop
  endfacet
  facet normal 8.769232e-13 9.902106e-01 -1.395812e-01
    outer loop
      vertex 1.317000e+02 -4.692170e+01 -3.476000e+02
      vertex 1.332000e+02 -4.713107e+01 -3.490854e+02
      vertex 9.302270e+01 -5.182519e+01 -3.823861e+02
    endloop
  endfacet
  facet normal 8.850645e-13 9.902106e-01 -1.395812e-01
    outer loop
      vertex 2.304410e+02 -4.713107e+01 -3.490854e+02
      vertex 9.302270e+01 -5.182519e+01 -3.823861e+02
      vertex 1.332000e+02 -4.713107e+01 -3.490854e+02
    endloop
  endfacet
  facet normal 4.842714e-13 9.902106e-01 -1.395812e-01
    outer loop
      vertex 2.304410e+02 -4.671233e+01 -3.461147e+02
      vertex 2.099207e+02 -4.104112e+01 -3.058823e+02
      vertex 2.099500e+02 -4.103125e+01 -3.058123e+02
    endloop
  endfacet
  facet normal 1.453127e-12 9.902106e-01 -1.395812e-01
    outer loop
      vertex 1.332000e+02 -4.671233e+01 -3.461147e+02
      vertex 2.098500e+02 -4.104521e+01 -3.059113e+02
      vertex 2.099207e+02 -4.104112e+01 -3.058823e+02
    endloop
  endfacet
  facet normal 8.847566e-13 9.902106e-01 -1.395812e-01
    outer loop
      vertex 2.304410e+02 -4.671233e+01 -3.461147e+02
      vertex 1.332000e+02 -4.671233e+01 -3.461147e+02
      vertex 2.099207e+02 -4.104112e+01 -3.058823e+02
    endloop
  endfacet
  facet normal 8.850018e-13 9.902106e-01 -1.395812e-01
    outer loop
      vertex 1.332000e+02 -4.671233e+01 -3.461147e+02
      vertex 9.393601e+01 -4.104521e+01 -3.059113e+02
      vertex 2.098500e+02 -4.104521e+01 -3.059113e+02
    endloop
  endfacet
  facet normal 8.847734e-13 9.902106e-01 -1.395812e-01
    outer loop
      vertex 1.332000e+02 -4.671233e+01 -3.461147e+02
      vertex 1.317000e+02 -4.692170e+01 -3.476000e+02
      vertex 9.393601e+01 -4.104521e+01 -3.059113e+02
    endloop
  endfacet
  facet normal 8.996442e-13 9.902106e-01 -1.395812e-01
    outer loop
      vertex 9.123186e+01 -5.087600e+01 -3.756524e+02
      vertex 9.114211e+01 -4.295325e+01 -3.194472e+02
      vertex 9.223963e+01 -4.216114e+01 -3.138279e+02
    endloop
  endfacet
  facet normal -9.755788e-01 4.767131e-02 2.144141e-01
    outer loop
      vertex 9.332571e+01 -4.434981e+01 -3.083996e+02
      vertex 9.348513e+01 -4.425067e+01 -3.076963e+02
      vertex 9.223963e+01 -4.216114e+01 -3.138279e+02
    endloop
  endfacet
  facet normal -9.761345e-01 4.337163e-02 2.127917e-01
    outer loop
      vertex 9.316920e+01 -4.444819e+01 -3.090975e+02
      vertex 9.332571e+01 -4.434981e+01 -3.083996e+02
      vertex 9.223963e+01 -4.216114e+01 -3.138279e+02
    endloop
  endfacet
  facet normal 8.771198e-13 9.902106e-01 -1.395812e-01
    outer loop
      vertex 9.041179e+01 -5.033736e+01 -3.718313e+02
      vertex 9.025905e+01 -4.368203e+01 -3.246173e+02
      vertex 9.114211e+01 -4.295325e+01 -3.194472e+02
    endloop
  endfacet
  facet normal 8.973729e-13 9.902106e-01 -1.395812e-01
    outer loop
      vertex 9.123186e+01 -5.087600e+01 -3.756524e+02
      vertex 9.041179e+01 -5.033736e+01 -3.718313e+02
      vertex 9.114211e+01 -4.295325e+01 -3.194472e+02
    endloop
  endfacet
  facet normal 8.886067e-13 9.902106e-01 -1.395812e-01
    outer loop
      vertex 8.952463e+01 -4.960964e+01 -3.666687e+02
      vertex 8.929986e+01 -4.465805e+01 -3.315414e+02
      vertex 9.025905e+01 -4.368203e+01 -3.246173e+02
    endloop
  endfacet
  facet normal 8.927985e-13 9.902106e-01 -1.395812e-01
    outer loop
      vertex 9.041179e+01 -5.033736e+01 -3.718313e+02
      vertex 8.952463e+01 -4.960964e+01 -3.666687e+02
      vertex 9.025905e+01 -4.368203e+01 -3.246173e+02
    endloop
  endfacet
  facet normal 8.838505e-13 9.902106e-01 -1.395812e-01
    outer loop
      vertex 8.870000e+01 -4.860718e+01 -3.595571e+02
      vertex 8.870000e+01 -4.550940e+01 -3.375810e+02
      vertex 8.929986e+01 -4.465805e+01 -3.315414e+02
    endloop
  endfacet
  facet normal 8.907795e-13 9.902106e-01 -1.395812e-01
    outer loop
      vertex 8.952463e+01 -4.960964e+01 -3.666687e+02
      vertex 8.870000e+01 -4.860718e+01 -3.595571e+02
      vertex 8.929986e+01 -4.465805e+01 -3.315414e+02
    endloop
  endfacet
  facet normal -7.071068e-01 7.001846e-01 -9.869882e-02
    outer loop
      vertex 8.835938e+01 -4.665038e+01 -3.432349e+02
      vertex 8.870000e+01 -4.550940e+01 -3.375810e+02
      vertex 8.870000e+01 -4.860718e+01 -3.595571e+02
    endloop
  endfacet
  facet normal -9.980121e-01 -8.827281e-03 -6.240114e-02
    outer loop
      vertex 8.836961e+01 -4.820403e+01 -3.543301e+02
      vertex 8.870000e+01 -4.860718e+01 -3.595571e+02
      vertex 8.836944e+01 -5.098348e+01 -3.539341e+02
    endloop
  endfacet
  facet normal -7.071068e-01 7.001846e-01 -9.869882e-02
    outer loop
      vertex 8.825064e+01 -4.755604e+01 -3.488808e+02
      vertex 8.870000e+01 -4.860718e+01 -3.595571e+02
      vertex 8.836961e+01 -4.820403e+01 -3.543301e+02
    endloop
  endfacet
  facet normal -7.071068e-01 7.001846e-01 -9.869882e-02
    outer loop
      vertex 8.835938e+01 -4.665038e+01 -3.432349e+02
      vertex 8.870000e+01 -4.860718e+01 -3.595571e+02
      vertex 8.825064e+01 -4.755604e+01 -3.488808e+02
    endloop
  endfacet
  facet normal -8.850829e-13 -9.902106e-01 1.395812e-01
    outer loop
      vertex 2.472500e+02 -4.444819e+01 -3.090975e+02
      vertex 9.348513e+01 -4.425067e+01 -3.076963e+02
      vertex 9.332571e+01 -4.434981e+01 -3.083996e+02
    endloop
  endfacet
  facet normal -8.847416e-13 -9.902106e-01 1.395812e-01
    outer loop
      vertex 9.374839e+01 -4.419195e+01 -3.072797e+02
      vertex 9.348513e+01 -4.425067e+01 -3.076963e+02
      vertex 2.472500e+02 -4.444819e+01 -3.090975e+02
    endloop
  endfacet
  facet normal -8.848674e-13 -9.902106e-01 1.395812e-01
    outer loop
      vertex 2.472500e+02 -4.444819e+01 -3.090975e+02
      vertex 9.332571e+01 -4.434981e+01 -3.083996e+02
      vertex 9.316920e+01 -4.444819e+01 -3.090975e+02
    endloop
  endfacet
  facet normal -9.998185e-01 2.630960e-03 1.887034e-02
    outer loop
      vertex 8.835938e+01 -4.665038e+01 -3.432349e+02
      vertex 8.825063e+01 -5.004652e+01 -3.485233e+02
      vertex 8.835953e+01 -4.930132e+01 -3.428572e+02
    endloop
  endfacet
  facet normal -9.997658e-01 -3.072428e-03 -2.141999e-02
    outer loop
      vertex 8.825064e+01 -4.755604e+01 -3.488808e+02
      vertex 8.836944e+01 -5.098348e+01 -3.539341e+02
      vertex 8.825063e+01 -5.004652e+01 -3.485233e+02
    endloop
  endfacet
  facet normal -9.998192e-01 2.704896e-03 1.882287e-02
    outer loop
      vertex 8.835938e+01 -4.665038e+01 -3.432349e+02
      vertex 8.825064e+01 -4.755604e+01 -3.488808e+02
      vertex 8.825063e+01 -5.004652e+01 -3.485233e+02
    endloop
  endfacet
  facet normal -9.997650e-01 -2.995641e-03 -2.147205e-02
    outer loop
      vertex 8.825064e+01 -4.755604e+01 -3.488808e+02
      vertex 8.836961e+01 -4.820403e+01 -3.543301e+02
      vertex 8.836944e+01 -5.098348e+01 -3.539341e+02
    endloop
  endfacet
  facet normal -4.050063e-12 -9.902106e-01 1.395812e-01
    outer loop
      vertex 9.187355e+01 -5.481883e+01 -3.777590e+02
      vertex 9.151578e+01 -5.461839e+01 -3.763370e+02
      vertex 9.169856e+01 -5.472217e+01 -3.770733e+02
    endloop
  endfacet
  facet normal -9.724350e-13 -9.902106e-01 1.395812e-01
    outer loop
      vertex 9.214025e+01 -5.487556e+01 -3.781615e+02
      vertex 9.151578e+01 -5.461839e+01 -3.763370e+02
      vertex 9.187355e+01 -5.481883e+01 -3.777590e+02
    endloop
  endfacet
  facet normal -8.848700e-13 -9.902106e-01 1.395812e-01
    outer loop
      vertex 2.472500e+02 -5.461839e+01 -3.763370e+02
      vertex 9.151578e+01 -5.461839e+01 -3.763370e+02
      vertex 2.472500e+02 -5.479286e+01 -3.775748e+02
    endloop
  endfacet
  facet normal -8.846221e-13 -9.902106e-01 1.395812e-01
    outer loop
      vertex 2.470303e+02 -5.486688e+01 -3.780999e+02
      vertex 2.472500e+02 -5.479286e+01 -3.775748e+02
      vertex 9.151578e+01 -5.461839e+01 -3.763370e+02
    endloop
  endfacet
  facet normal -8.724857e-13 -9.902106e-01 1.395812e-01
    outer loop
      vertex 2.470303e+02 -4.419969e+01 -3.073346e+02
      vertex 2.472500e+02 -4.444819e+01 -3.090975e+02
      vertex 2.472500e+02 -4.427371e+01 -3.078598e+02
    endloop
  endfacet
endsolid P1040852002
