solid P1040852002
  facet normal 2.705923e-12 -1.371763e-01 9.905466e-01
    outer loop
      vertex -1.638140e+02 4.656455e+01 -3.044876e+02
      vertex -1.638140e+02 4.437544e+01 -3.047907e+02
      vertex -1.265640e+02 4.437544e+01 -3.047907e+02
    endloop
  endfacet
  facet normal -3.731983e-13 -9.905466e-01 -1.371763e-01
    outer loop
      vertex -1.470050e+02 5.163082e+01 -3.571816e+02
      vertex -1.265640e+02 4.437544e+01 -3.047907e+02
      vertex -1.638140e+02 4.437544e+01 -3.047907e+02
    endloop
  endfacet
  facet normal 2.705923e-12 -1.371763e-01 9.905466e-01
    outer loop
      vertex -1.265640e+02 4.656455e+01 -3.044876e+02
      vertex -1.638140e+02 4.656455e+01 -3.044876e+02
      vertex -1.265640e+02 4.437544e+01 -3.047907e+02
    endloop
  endfacet
  facet normal 7.071068e-01 -9.699830e-02 7.004223e-01
    outer loop
      vertex -1.265140e+02 4.657141e+01 -3.045371e+02
      vertex -1.265640e+02 4.656455e+01 -3.044876e+02
      vertex -1.265640e+02 4.437544e+01 -3.047907e+02
    endloop
  endfacet
  facet normal 7.071068e-01 -9.699830e-02 7.004223e-01
    outer loop
      vertex -1.265140e+02 4.438230e+01 -3.048403e+02
      vertex -1.265140e+02 4.657141e+01 -3.045371e+02
      vertex -1.265640e+02 4.437544e+01 -3.047907e+02
    endloop
  endfacet
  facet normal 1.519253e-14 -9.905466e-01 -1.371763e-01
    outer loop
      vertex -1.265140e+02 4.451262e+01 -3.057813e+02
      vertex -1.265140e+02 4.438230e+01 -3.048403e+02
      vertex -1.265640e+02 4.437544e+01 -3.047907e+02
    endloop
  endfacet
  facet normal -3.373344e-13 -9.905466e-01 -1.371763e-01
    outer loop
      vertex -1.470050e+02 5.163082e+01 -3.571816e+02
      vertex -1.265140e+02 4.451262e+01 -3.057813e+02
      vertex -1.265640e+02 4.437544e+01 -3.047907e+02
    endloop
  endfacet
  facet normal -1.000000e+00 -1.403848e-15 2.728934e-12
    outer loop
      vertex -1.638140e+02 4.704192e+01 -3.079347e+02
      vertex -1.638140e+02 4.437544e+01 -3.047907e+02
      vertex -1.638140e+02 4.656455e+01 -3.044876e+02
    endloop
  endfacet
  facet normal -1.000000e+00 1.573382e-13 2.863569e-12
    outer loop
      vertex -1.638140e+02 4.792156e+01 -3.090748e+02
      vertex -1.638140e+02 4.437544e+01 -3.047907e+02
      vertex -1.638140e+02 4.704192e+01 -3.079347e+02
    endloop
  endfacet
  facet normal -1.000000e+00 3.268407e-13 2.792535e-12
    outer loop
      vertex -1.638140e+02 5.792846e+01 -3.763388e+02
      vertex -1.638140e+02 4.437544e+01 -3.047907e+02
      vertex -1.638140e+02 5.800812e+01 -3.763278e+02
    endloop
  endfacet
  facet normal -1.000000e+00 -4.837867e-15 2.729328e-12
    outer loop
      vertex -1.638140e+02 4.792156e+01 -3.090748e+02
      vertex -1.638140e+02 5.800812e+01 -3.763278e+02
      vertex -1.638140e+02 4.437544e+01 -3.047907e+02
    endloop
  endfacet
  facet normal -1.000000e+00 1.960133e-13 2.760149e-12
    outer loop
      vertex -1.638140e+02 5.608887e+01 -3.818937e+02
      vertex -1.638140e+02 4.437544e+01 -3.047907e+02
      vertex -1.638140e+02 5.554017e+01 -3.779315e+02
    endloop
  endfacet
  facet normal -1.000000e+00 -5.739588e-16 2.730140e-12
    outer loop
      vertex -1.638140e+02 5.809993e+01 -3.775770e+02
      vertex -1.638140e+02 5.554017e+01 -3.779315e+02
      vertex -1.638140e+02 4.437544e+01 -3.047907e+02
    endloop
  endfacet
  facet normal -1.000000e+00 4.743414e-15 2.731091e-12
    outer loop
      vertex -1.638140e+02 5.512058e+01 -3.823811e+02
      vertex -1.638140e+02 4.437544e+01 -3.047907e+02
      vertex -1.638140e+02 5.608887e+01 -3.818937e+02
    endloop
  endfacet
  facet normal -3.727714e-13 -9.905466e-01 -1.371763e-01
    outer loop
      vertex -1.470050e+02 5.204235e+01 -3.601533e+02
      vertex -1.638140e+02 4.437544e+01 -3.047907e+02
      vertex -1.638140e+02 5.512058e+01 -3.823811e+02
    endloop
  endfacet
  facet normal -3.757238e-13 -9.905466e-01 -1.371763e-01
    outer loop
      vertex -1.470050e+02 5.204235e+01 -3.601533e+02
      vertex -1.470050e+02 5.163082e+01 -3.571816e+02
      vertex -1.638140e+02 4.437544e+01 -3.047907e+02
    endloop
  endfacet
  facet normal -1.000000e+00 -4.320420e-13 2.648783e-12
    outer loop
      vertex -1.638140e+02 5.792846e+01 -3.763388e+02
      vertex -1.638140e+02 5.809993e+01 -3.775770e+02
      vertex -1.638140e+02 4.437544e+01 -3.047907e+02
    endloop
  endfacet
  facet normal 3.731913e-13 9.905466e-01 1.371763e-01
    outer loop
      vertex -1.630640e+02 4.693904e+01 -3.071918e+02
      vertex -1.638140e+02 4.656455e+01 -3.044876e+02
      vertex -1.265640e+02 4.656455e+01 -3.044876e+02
    endloop
  endfacet
  facet normal 3.447564e-13 9.905466e-01 1.371763e-01
    outer loop
      vertex -1.635943e+02 4.696918e+01 -3.074094e+02
      vertex -1.638140e+02 4.656455e+01 -3.044876e+02
      vertex -1.630640e+02 4.693904e+01 -3.071918e+02
    endloop
  endfacet
  facet normal 3.365197e-13 9.905466e-01 1.371763e-01
    outer loop
      vertex -1.635943e+02 4.696918e+01 -3.074094e+02
      vertex -1.638140e+02 4.704192e+01 -3.079347e+02
      vertex -1.638140e+02 4.656455e+01 -3.044876e+02
    endloop
  endfacet
  facet normal 3.445109e-13 9.905466e-01 1.371763e-01
    outer loop
      vertex -1.265140e+02 4.657141e+01 -3.045371e+02
      vertex -1.630640e+02 4.693904e+01 -3.071918e+02
      vertex -1.265640e+02 4.656455e+01 -3.044876e+02
    endloop
  endfacet
  facet normal 3.727527e-13 9.905466e-01 1.371763e-01
    outer loop
      vertex -1.264140e+02 4.671544e+01 -3.055772e+02
      vertex -1.078074e+01 4.693904e+01 -3.071918e+02
      vertex -1.630640e+02 4.693904e+01 -3.071918e+02
    endloop
  endfacet
  facet normal 2.704562e-12 -1.371763e-01 9.905466e-01
    outer loop
      vertex -1.630640e+02 4.764721e+01 -3.070937e+02
      vertex -1.630640e+02 4.693904e+01 -3.071918e+02
      vertex -1.078074e+01 4.693904e+01 -3.071918e+02
    endloop
  endfacet
  facet normal 3.874186e-13 9.905466e-01 1.371763e-01
    outer loop
      vertex -1.264847e+02 4.671143e+01 -3.055482e+02
      vertex -1.264140e+02 4.671544e+01 -3.055772e+02
      vertex -1.630640e+02 4.693904e+01 -3.071918e+02
    endloop
  endfacet
  facet normal 3.773588e-13 9.905466e-01 1.371763e-01
    outer loop
      vertex -1.265140e+02 4.670173e+01 -3.054781e+02
      vertex -1.264847e+02 4.671143e+01 -3.055482e+02
      vertex -1.630640e+02 4.693904e+01 -3.071918e+02
    endloop
  endfacet
  facet normal 3.719459e-13 9.905466e-01 1.371763e-01
    outer loop
      vertex -1.265140e+02 4.657141e+01 -3.045371e+02
      vertex -1.265140e+02 4.670173e+01 -3.054781e+02
      vertex -1.630640e+02 4.693904e+01 -3.071918e+02
    endloop
  endfacet
  facet normal -3.827076e-01 -1.267330e-01 9.151358e-01
    outer loop
      vertex -1.635943e+02 4.767735e+01 -3.073113e+02
      vertex -1.635943e+02 4.696918e+01 -3.074094e+02
      vertex -1.630640e+02 4.693904e+01 -3.071918e+02
    endloop
  endfacet
  facet normal -3.827076e-01 -1.267330e-01 9.151358e-01
    outer loop
      vertex -1.635943e+02 4.767735e+01 -3.073113e+02
      vertex -1.630640e+02 4.693904e+01 -3.071918e+02
      vertex -1.630640e+02 4.764721e+01 -3.070937e+02
    endloop
  endfacet
  facet normal 3.861446e-13 9.905466e-01 1.371763e-01
    outer loop
      vertex -1.050001e+01 4.671544e+01 -3.055772e+02
      vertex -1.031239e+01 4.696157e+01 -3.073544e+02
      vertex -1.078074e+01 4.693904e+01 -3.071918e+02
    endloop
  endfacet
  facet normal 3.308644e-01 -1.294503e-01 9.347574e-01
    outer loop
      vertex -1.078074e+01 4.764721e+01 -3.070937e+02
      vertex -1.078074e+01 4.693904e+01 -3.071918e+02
      vertex -1.031239e+01 4.696157e+01 -3.073544e+02
    endloop
  endfacet
  facet normal 3.727395e-13 9.905466e-01 1.371763e-01
    outer loop
      vertex -1.264140e+02 4.671544e+01 -3.055772e+02
      vertex -1.050001e+01 4.671544e+01 -3.055772e+02
      vertex -1.078074e+01 4.693904e+01 -3.071918e+02
    endloop
  endfacet
  facet normal 2.704562e-12 -1.371763e-01 9.905466e-01
    outer loop
      vertex -1.078074e+01 4.764721e+01 -3.070937e+02
      vertex -1.630640e+02 4.764721e+01 -3.070937e+02
      vertex -1.078074e+01 4.693904e+01 -3.071918e+02
    endloop
  endfacet
  facet normal 1.153219e-13 9.905466e-01 1.371763e-01
    outer loop
      vertex -1.008467e+01 4.699770e+01 -3.076153e+02
      vertex -1.004913e+01 4.701928e+01 -3.077712e+02
      vertex -1.031239e+01 4.696157e+01 -3.073544e+02
    endloop
  endfacet
  facet normal 8.477127e-01 -7.276594e-02 5.254410e-01
    outer loop
      vertex -1.031239e+01 4.766974e+01 -3.072564e+02
      vertex -1.031239e+01 4.696157e+01 -3.073544e+02
      vertex -1.004913e+01 4.701928e+01 -3.077712e+02
    endloop
  endfacet
  facet normal 4.908825e-13 9.905466e-01 1.371763e-01
    outer loop
      vertex -1.012036e+01 4.697608e+01 -3.074592e+02
      vertex -1.008467e+01 4.699770e+01 -3.076153e+02
      vertex -1.031239e+01 4.696157e+01 -3.073544e+02
    endloop
  endfacet
  facet normal 4.251758e-13 9.905466e-01 1.371763e-01
    outer loop
      vertex -1.050001e+01 4.671544e+01 -3.055772e+02
      vertex -1.012036e+01 4.697608e+01 -3.074592e+02
      vertex -1.031239e+01 4.696157e+01 -3.073544e+02
    endloop
  endfacet
  facet normal 3.308644e-01 -1.294503e-01 9.347574e-01
    outer loop
      vertex -1.031239e+01 4.766974e+01 -3.072564e+02
      vertex -1.078074e+01 4.764721e+01 -3.070937e+02
      vertex -1.031239e+01 4.696157e+01 -3.073544e+02
    endloop
  endfacet
  facet normal 9.750801e-01 -5.649044e-02 2.145406e-01
    outer loop
      vertex -8.803626e+00 4.562304e+01 -3.137996e+02
      vertex -1.004913e+01 4.701928e+01 -3.077712e+02
      vertex -1.008467e+01 4.699770e+01 -3.076153e+02
    endloop
  endfacet
  facet normal 9.775608e-01 -2.889667e-02 2.086621e-01
    outer loop
      vertex -1.004913e+01 4.772745e+01 -3.076731e+02
      vertex -1.004913e+01 4.701928e+01 -3.077712e+02
      vertex -8.803626e+00 4.562304e+01 -3.137996e+02
    endloop
  endfacet
  facet normal 8.477127e-01 -7.276594e-02 5.254410e-01
    outer loop
      vertex -1.031239e+01 4.766974e+01 -3.072564e+02
      vertex -1.004913e+01 4.701928e+01 -3.077712e+02
      vertex -1.004913e+01 4.772745e+01 -3.076731e+02
    endloop
  endfacet
  facet normal 9.749231e-01 -5.801551e-02 2.148470e-01
    outer loop
      vertex -8.803626e+00 4.562304e+01 -3.137996e+02
      vertex -1.008467e+01 4.699770e+01 -3.076153e+02
      vertex -1.012036e+01 4.697608e+01 -3.074592e+02
    endloop
  endfacet
  facet normal 9.806147e-01 -2.687917e-02 1.940938e-01
    outer loop
      vertex -1.050001e+01 4.452634e+01 -3.058803e+02
      vertex -1.012036e+01 4.697608e+01 -3.074592e+02
      vertex -1.050001e+01 4.671544e+01 -3.055772e+02
    endloop
  endfacet
  facet normal 9.806147e-01 -2.687917e-02 1.940938e-01
    outer loop
      vertex -1.012036e+01 4.478697e+01 -3.077624e+02
      vertex -1.012036e+01 4.697608e+01 -3.074592e+02
      vertex -1.050001e+01 4.452634e+01 -3.058803e+02
    endloop
  endfacet
  facet normal 9.774495e-01 -2.896739e-02 2.091728e-01
    outer loop
      vertex -8.803626e+00 4.562304e+01 -3.137996e+02
      vertex -1.012036e+01 4.697608e+01 -3.074592e+02
      vertex -1.012036e+01 4.478697e+01 -3.077624e+02
    endloop
  endfacet
  facet normal 2.704949e-12 -1.371763e-01 9.905466e-01
    outer loop
      vertex -1.050001e+01 4.452634e+01 -3.058803e+02
      vertex -1.050001e+01 4.671544e+01 -3.055772e+02
      vertex -1.264140e+02 4.671544e+01 -3.055772e+02
    endloop
  endfacet
  facet normal 3.826834e-01 -1.267344e-01 9.151458e-01
    outer loop
      vertex -1.264140e+02 4.452634e+01 -3.058803e+02
      vertex -1.264140e+02 4.671544e+01 -3.055772e+02
      vertex -1.264847e+02 4.671143e+01 -3.055482e+02
    endloop
  endfacet
  facet normal 2.704949e-12 -1.371763e-01 9.905466e-01
    outer loop
      vertex -1.050001e+01 4.452634e+01 -3.058803e+02
      vertex -1.264140e+02 4.671544e+01 -3.055772e+02
      vertex -1.264140e+02 4.452634e+01 -3.058803e+02
    endloop
  endfacet
  facet normal 9.238795e-01 -5.249510e-02 3.790658e-01
    outer loop
      vertex -1.264847e+02 4.452232e+01 -3.058513e+02
      vertex -1.264847e+02 4.671143e+01 -3.055482e+02
      vertex -1.265140e+02 4.670173e+01 -3.054781e+02
    endloop
  endfacet
  facet normal 3.826834e-01 -1.267344e-01 9.151458e-01
    outer loop
      vertex -1.264140e+02 4.452634e+01 -3.058803e+02
      vertex -1.264847e+02 4.671143e+01 -3.055482e+02
      vertex -1.264847e+02 4.452232e+01 -3.058513e+02
    endloop
  endfacet
  facet normal 1.000000e+00 4.033700e-15 -2.747924e-12
    outer loop
      vertex -1.265140e+02 4.438230e+01 -3.048403e+02
      vertex -1.265140e+02 4.670173e+01 -3.054781e+02
      vertex -1.265140e+02 4.657141e+01 -3.045371e+02
    endloop
  endfacet
  facet normal 1.000000e+00 8.351171e-15 -2.732225e-12
    outer loop
      vertex -1.265140e+02 4.451262e+01 -3.057813e+02
      vertex -1.265140e+02 4.670173e+01 -3.054781e+02
      vertex -1.265140e+02 4.438230e+01 -3.048403e+02
    endloop
  endfacet
  facet normal 9.238795e-01 -5.249510e-02 3.790658e-01
    outer loop
      vertex -1.264847e+02 4.452232e+01 -3.058513e+02
      vertex -1.265140e+02 4.670173e+01 -3.054781e+02
      vertex -1.265140e+02 4.451262e+01 -3.057813e+02
    endloop
  endfacet
  facet normal -9.238695e-01 -5.249842e-02 3.790898e-01
    outer loop
      vertex -1.638140e+02 4.775009e+01 -3.078366e+02
      vertex -1.638140e+02 4.704192e+01 -3.079347e+02
      vertex -1.635943e+02 4.696918e+01 -3.074094e+02
    endloop
  endfacet
  facet normal -1.000000e+00 1.950461e-14 2.757225e-12
    outer loop
      vertex -1.638140e+02 4.792156e+01 -3.090748e+02
      vertex -1.638140e+02 4.704192e+01 -3.079347e+02
      vertex -1.638140e+02 4.775009e+01 -3.078366e+02
    endloop
  endfacet
  facet normal -9.238695e-01 -5.249842e-02 3.790898e-01
    outer loop
      vertex -1.635943e+02 4.767735e+01 -3.073113e+02
      vertex -1.638140e+02 4.775009e+01 -3.078366e+02
      vertex -1.635943e+02 4.696918e+01 -3.074094e+02
    endloop
  endfacet
  facet normal 3.727526e-13 9.905466e-01 1.371763e-01
    outer loop
      vertex -1.638140e+02 4.792156e+01 -3.090748e+02
      vertex -1.630640e+02 4.764721e+01 -3.070937e+02
      vertex -1.078074e+01 4.764721e+01 -3.070937e+02
    endloop
  endfacet
  facet normal 3.825207e-13 9.905466e-01 1.371763e-01
    outer loop
      vertex -1.635943e+02 4.767735e+01 -3.073113e+02
      vertex -1.630640e+02 4.764721e+01 -3.070937e+02
      vertex -1.638140e+02 4.792156e+01 -3.090748e+02
    endloop
  endfacet
  facet normal 3.721426e-13 9.905466e-01 1.371763e-01
    outer loop
      vertex -1.031239e+01 4.766974e+01 -3.072564e+02
      vertex -1.638140e+02 4.792156e+01 -3.090748e+02
      vertex -1.078074e+01 4.764721e+01 -3.070937e+02
    endloop
  endfacet
  facet normal 3.992249e-13 9.891564e-01 1.468661e-01
    outer loop
      vertex -1.638140e+02 5.800812e+01 -3.763278e+02
      vertex -1.470050e+02 5.553478e+01 -3.596696e+02
      vertex -4.976400e+01 5.553478e+01 -3.596696e+02
    endloop
  endfacet
  facet normal 2.705517e-12 -1.371763e-01 9.905466e-01
    outer loop
      vertex -4.976400e+01 5.204235e+01 -3.601533e+02
      vertex -4.976400e+01 5.553478e+01 -3.596696e+02
      vertex -1.470050e+02 5.553478e+01 -3.596696e+02
    endloop
  endfacet
  facet normal 3.964252e-13 9.891564e-01 1.468661e-01
    outer loop
      vertex -8.079778e+00 5.800812e+01 -3.763278e+02
      vertex -4.976400e+01 5.553478e+01 -3.596696e+02
      vertex -4.826400e+01 5.531447e+01 -3.581858e+02
    endloop
  endfacet
  facet normal -7.071068e-01 -9.699829e-02 7.004223e-01
    outer loop
      vertex -4.826400e+01 5.183658e+01 -3.586674e+02
      vertex -4.826400e+01 5.531447e+01 -3.581858e+02
      vertex -4.976400e+01 5.553478e+01 -3.596696e+02
    endloop
  endfacet
  facet normal 3.991716e-13 9.891564e-01 1.468661e-01
    outer loop
      vertex -8.079778e+00 5.800812e+01 -3.763278e+02
      vertex -1.638140e+02 5.800812e+01 -3.763278e+02
      vertex -4.976400e+01 5.553478e+01 -3.596696e+02
    endloop
  endfacet
  facet normal -7.071068e-01 -9.699830e-02 7.004223e-01
    outer loop
      vertex -4.826400e+01 5.183658e+01 -3.586674e+02
      vertex -4.976400e+01 5.553478e+01 -3.596696e+02
      vertex -4.976400e+01 5.204235e+01 -3.601533e+02
    endloop
  endfacet
  facet normal 4.012788e-13 9.891564e-01 1.468661e-01
    outer loop
      vertex -1.638140e+02 5.800812e+01 -3.763278e+02
      vertex -1.470050e+02 5.509416e+01 -3.567020e+02
      vertex -1.470050e+02 5.553478e+01 -3.596696e+02
    endloop
  endfacet
  facet normal 1.000000e+00 1.793327e-15 -2.738842e-12
    outer loop
      vertex -1.470050e+02 5.163082e+01 -3.571816e+02
      vertex -1.470050e+02 5.553478e+01 -3.596696e+02
      vertex -1.470050e+02 5.509416e+01 -3.567020e+02
    endloop
  endfacet
  facet normal 2.704340e-12 -1.371763e-01 9.905466e-01
    outer loop
      vertex -1.470050e+02 5.204235e+01 -3.601533e+02
      vertex -4.976400e+01 5.204235e+01 -3.601533e+02
      vertex -1.470050e+02 5.553478e+01 -3.596696e+02
    endloop
  endfacet
  facet normal 1.000000e+00 4.376407e-15 -2.734789e-12
    outer loop
      vertex -1.470050e+02 5.204235e+01 -3.601533e+02
      vertex -1.470050e+02 5.553478e+01 -3.596696e+02
      vertex -1.470050e+02 5.163082e+01 -3.571816e+02
    endloop
  endfacet
  facet normal 3.992021e-13 9.891564e-01 1.468661e-01
    outer loop
      vertex -9.733199e+00 4.802062e+01 -3.090611e+02
      vertex -4.976400e+01 5.509416e+01 -3.567020e+02
      vertex -1.470050e+02 5.509416e+01 -3.567020e+02
    endloop
  endfacet
  facet normal -2.704339e-12 1.371763e-01 -9.905466e-01
    outer loop
      vertex -1.470050e+02 5.163082e+01 -3.571816e+02
      vertex -1.470050e+02 5.509416e+01 -3.567020e+02
      vertex -4.976400e+01 5.509416e+01 -3.567020e+02
    endloop
  endfacet
  facet normal 3.991205e-13 9.891564e-01 1.468661e-01
    outer loop
      vertex -1.638140e+02 4.802062e+01 -3.090611e+02
      vertex -9.733199e+00 4.802062e+01 -3.090611e+02
      vertex -1.470050e+02 5.509416e+01 -3.567020e+02
    endloop
  endfacet
  facet normal 3.987956e-13 9.891564e-01 1.468661e-01
    outer loop
      vertex -1.638140e+02 5.800812e+01 -3.763278e+02
      vertex -1.638140e+02 4.802062e+01 -3.090611e+02
      vertex -1.470050e+02 5.509416e+01 -3.567020e+02
    endloop
  endfacet
  facet normal 3.974498e-13 9.891564e-01 1.468661e-01
    outer loop
      vertex -9.733199e+00 4.802062e+01 -3.090611e+02
      vertex -4.826400e+01 5.531447e+01 -3.581858e+02
      vertex -4.976400e+01 5.509416e+01 -3.567020e+02
    endloop
  endfacet
  facet normal -7.071068e-01 9.699830e-02 -7.004222e-01
    outer loop
      vertex -4.976400e+01 5.163082e+01 -3.571816e+02
      vertex -4.976400e+01 5.509416e+01 -3.567020e+02
      vertex -4.826400e+01 5.531447e+01 -3.581858e+02
    endloop
  endfacet
  facet normal -2.704360e-12 1.371763e-01 -9.905466e-01
    outer loop
      vertex -1.470050e+02 5.163082e+01 -3.571816e+02
      vertex -4.976400e+01 5.509416e+01 -3.567020e+02
      vertex -4.976400e+01 5.163082e+01 -3.571816e+02
    endloop
  endfacet
  facet normal 3.977758e-13 9.891564e-01 1.468661e-01
    outer loop
      vertex -8.421127e+00 4.894096e+01 -3.152597e+02
      vertex -4.826400e+01 5.531447e+01 -3.581858e+02
      vertex -9.733199e+00 4.802062e+01 -3.090611e+02
    endloop
  endfacet
  facet normal 3.992750e-13 9.891564e-01 1.468661e-01
    outer loop
      vertex -8.421127e+00 4.894096e+01 -3.152597e+02
      vertex -8.079778e+00 5.800812e+01 -3.763278e+02
      vertex -4.826400e+01 5.531447e+01 -3.581858e+02
    endloop
  endfacet
  facet normal -7.071068e-01 9.699829e-02 -7.004223e-01
    outer loop
      vertex -4.976400e+01 5.163082e+01 -3.571816e+02
      vertex -4.826400e+01 5.531447e+01 -3.581858e+02
      vertex -4.826400e+01 5.183658e+01 -3.586674e+02
    endloop
  endfacet
  facet normal 2.704450e-12 -1.371763e-01 9.905466e-01
    outer loop
      vertex -9.733199e+00 4.792156e+01 -3.090748e+02
      vertex -9.733199e+00 4.802062e+01 -3.090611e+02
      vertex -1.638140e+02 4.802062e+01 -3.090611e+02
    endloop
  endfacet
  facet normal 9.787519e-01 -2.317854e-02 2.037336e-01
    outer loop
      vertex -8.803626e+00 4.562304e+01 -3.137996e+02
      vertex -8.421127e+00 4.894096e+01 -3.152597e+02
      vertex -9.733199e+00 4.802062e+01 -3.090611e+02
    endloop
  endfacet
  facet normal 9.780654e-01 -2.857352e-02 2.063287e-01
    outer loop
      vertex -9.733199e+00 4.792156e+01 -3.090748e+02
      vertex -8.803626e+00 4.562304e+01 -3.137996e+02
      vertex -9.733199e+00 4.802062e+01 -3.090611e+02
    endloop
  endfacet
  facet normal -1.000000e+00 1.918027e-13 2.758820e-12
    outer loop
      vertex -1.638140e+02 4.792156e+01 -3.090748e+02
      vertex -1.638140e+02 4.802062e+01 -3.090611e+02
      vertex -1.638140e+02 5.800812e+01 -3.763278e+02
    endloop
  endfacet
  facet normal 2.704450e-12 -1.371763e-01 9.905466e-01
    outer loop
      vertex -1.638140e+02 4.792156e+01 -3.090748e+02
      vertex -9.733199e+00 4.792156e+01 -3.090748e+02
      vertex -1.638140e+02 4.802062e+01 -3.090611e+02
    endloop
  endfacet
  facet normal -2.704661e-12 1.371763e-01 -9.905466e-01
    outer loop
      vertex -1.638140e+02 5.792846e+01 -3.763388e+02
      vertex -1.638140e+02 5.800812e+01 -3.763278e+02
      vertex -8.079778e+00 5.800812e+01 -3.763278e+02
    endloop
  endfacet
  facet normal 3.923421e-13 9.891564e-01 1.468661e-01
    outer loop
      vertex -7.129067e+00 4.998360e+01 -3.222819e+02
      vertex -7.127365e+00 5.737750e+01 -3.720805e+02
      vertex -8.079778e+00 5.800812e+01 -3.763278e+02
    endloop
  endfacet
  facet normal 9.762705e-01 2.970619e-02 -2.145076e-01
    outer loop
      vertex -8.079778e+00 5.792846e+01 -3.763388e+02
      vertex -8.079778e+00 5.800812e+01 -3.763278e+02
      vertex -7.127365e+00 5.737750e+01 -3.720805e+02
    endloop
  endfacet
  facet normal 4.062327e-13 9.891564e-01 1.468661e-01
    outer loop
      vertex -8.421127e+00 4.894096e+01 -3.152597e+02
      vertex -7.129067e+00 4.998360e+01 -3.222819e+02
      vertex -8.079778e+00 5.800812e+01 -3.763278e+02
    endloop
  endfacet
  facet normal -2.703926e-12 1.371763e-01 -9.905466e-01
    outer loop
      vertex -1.638140e+02 5.792846e+01 -3.763388e+02
      vertex -8.079778e+00 5.800812e+01 -3.763278e+02
      vertex -8.079778e+00 5.792846e+01 -3.763388e+02
    endloop
  endfacet
  facet normal 4.071251e-13 9.891564e-01 1.468661e-01
    outer loop
      vertex -6.012583e+00 5.110865e+01 -3.298593e+02
      vertex -6.345912e+00 5.674473e+01 -3.678187e+02
      vertex -7.127365e+00 5.737750e+01 -3.720805e+02
    endloop
  endfacet
  facet normal 9.839451e-01 2.788171e-02 -1.762801e-01
    outer loop
      vertex -6.975786e+00 5.365839e+01 -3.718227e+02
      vertex -7.127365e+00 5.737750e+01 -3.720805e+02
      vertex -6.345912e+00 5.674473e+01 -3.678187e+02
    endloop
  endfacet
  facet normal 3.951270e-13 9.891564e-01 1.468661e-01
    outer loop
      vertex -7.129067e+00 4.998360e+01 -3.222819e+02
      vertex -6.012583e+00 5.110865e+01 -3.298593e+02
      vertex -7.127365e+00 5.737750e+01 -3.720805e+02
    endloop
  endfacet
  facet normal 9.781520e-01 2.556352e-02 -2.063132e-01
    outer loop
      vertex -7.795859e+00 5.418774e+01 -3.756451e+02
      vertex -7.127365e+00 5.737750e+01 -3.720805e+02
      vertex -6.975786e+00 5.365839e+01 -3.718227e+02
    endloop
  endfacet
  facet normal 9.762504e-01 3.443129e-02 -2.138918e-01
    outer loop
      vertex -8.079778e+00 5.792846e+01 -3.763388e+02
      vertex -7.127365e+00 5.737750e+01 -3.720805e+02
      vertex -7.795859e+00 5.418774e+01 -3.756451e+02
    endloop
  endfacet
  facet normal 4.073213e-13 9.891564e-01 1.468661e-01
    outer loop
      vertex -6.012583e+00 5.110865e+01 -3.298593e+02
      vertex -5.728048e+00 5.610497e+01 -3.635099e+02
      vertex -6.345912e+00 5.674473e+01 -3.678187e+02
    endloop
  endfacet
  facet normal 9.900810e-01 2.479639e-02 -1.382924e-01
    outer loop
      vertex -6.088627e+00 5.294321e+01 -3.666584e+02
      vertex -6.345912e+00 5.674473e+01 -3.678187e+02
      vertex -5.728048e+00 5.610497e+01 -3.635099e+02
    endloop
  endfacet
  facet normal 9.858023e-01 1.569076e-02 -1.671752e-01
    outer loop
      vertex -6.975786e+00 5.365839e+01 -3.718227e+02
      vertex -6.345912e+00 5.674473e+01 -3.678187e+02
      vertex -6.088627e+00 5.294321e+01 -3.666584e+02
    endloop
  endfacet
  facet normal 3.822022e-13 9.891564e-01 1.468661e-01
    outer loop
      vertex -5.264000e+00 5.218488e+01 -3.371077e+02
      vertex -5.264000e+00 5.544448e+01 -3.590615e+02
      vertex -5.728048e+00 5.610497e+01 -3.635099e+02
    endloop
  endfacet
  facet normal 9.944287e-01 -8.808553e-03 -1.050429e-01
    outer loop
      vertex -6.088627e+00 5.294321e+01 -3.666584e+02
      vertex -5.728048e+00 5.610497e+01 -3.635099e+02
      vertex -5.264000e+00 5.544448e+01 -3.590615e+02
    endloop
  endfacet
  facet normal 4.017449e-13 9.891564e-01 1.468661e-01
    outer loop
      vertex -6.012583e+00 5.110865e+01 -3.298593e+02
      vertex -5.264000e+00 5.218488e+01 -3.371077e+02
      vertex -5.728048e+00 5.610497e+01 -3.635099e+02
    endloop
  endfacet
  facet normal 7.071068e-01 6.994392e-01 1.038500e-01
    outer loop
      vertex -4.933437e+00 5.434796e+01 -3.539271e+02
      vertex -5.264000e+00 5.544448e+01 -3.590615e+02
      vertex -5.264000e+00 5.218488e+01 -3.371077e+02
    endloop
  endfacet
  facet normal 9.934727e-01 1.564766e-02 -1.129914e-01
    outer loop
      vertex -6.088627e+00 5.294321e+01 -3.666584e+02
      vertex -5.264000e+00 5.544448e+01 -3.590615e+02
      vertex -5.264000e+00 5.195801e+01 -3.595443e+02
    endloop
  endfacet
  facet normal 9.980133e-01 8.642655e-03 -6.240839e-02
    outer loop
      vertex -4.933437e+00 5.434796e+01 -3.539271e+02
      vertex -5.264000e+00 5.195801e+01 -3.595443e+02
      vertex -5.264000e+00 5.544448e+01 -3.590615e+02
    endloop
  endfacet
  facet normal 9.948222e-01 -1.394134e-02 1.006700e-01
    outer loop
      vertex -5.264000e+00 4.891361e+01 -3.375607e+02
      vertex -5.264000e+00 5.218488e+01 -3.371077e+02
      vertex -6.012583e+00 5.110865e+01 -3.298593e+02
    endloop
  endfacet
  facet normal 9.982548e-01 -8.100837e-03 5.849594e-02
    outer loop
      vertex -4.923378e+00 5.004086e+01 -3.432175e+02
      vertex -5.264000e+00 5.218488e+01 -3.371077e+02
      vertex -5.264000e+00 4.891361e+01 -3.375607e+02
    endloop
  endfacet
  facet normal 7.071068e-01 6.994392e-01 1.038500e-01
    outer loop
      vertex -4.814631e+00 5.342414e+01 -3.485140e+02
      vertex -5.264000e+00 5.218488e+01 -3.371077e+02
      vertex -4.923531e+00 5.269270e+01 -3.428462e+02
    endloop
  endfacet
  facet normal 9.982538e-01 -8.133658e-03 5.850740e-02
    outer loop
      vertex -4.923378e+00 5.004086e+01 -3.432175e+02
      vertex -4.923531e+00 5.269270e+01 -3.428462e+02
      vertex -5.264000e+00 5.218488e+01 -3.371077e+02
    endloop
  endfacet
  facet normal 7.071068e-01 6.994392e-01 1.038500e-01
    outer loop
      vertex -4.933437e+00 5.434796e+01 -3.539271e+02
      vertex -5.264000e+00 5.218488e+01 -3.371077e+02
      vertex -4.814631e+00 5.342414e+01 -3.485140e+02
    endloop
  endfacet
  facet normal 9.894888e-01 -1.062715e-02 1.442183e-01
    outer loop
      vertex -6.823055e+00 4.711772e+01 -3.245927e+02
      vertex -6.012583e+00 5.110865e+01 -3.298593e+02
      vertex -7.129067e+00 4.998360e+01 -3.222819e+02
    endloop
  endfacet
  facet normal 9.907041e-01 -2.464456e-02 1.337832e-01
    outer loop
      vertex -5.863858e+00 4.807693e+01 -3.315191e+02
      vertex -6.012583e+00 5.110865e+01 -3.298593e+02
      vertex -6.823055e+00 4.711772e+01 -3.245927e+02
    endloop
  endfacet
  facet normal 9.951618e-01 -4.904770e-03 9.812748e-02
    outer loop
      vertex -5.264000e+00 4.891361e+01 -3.375607e+02
      vertex -6.012583e+00 5.110865e+01 -3.298593e+02
      vertex -5.863858e+00 4.807693e+01 -3.315191e+02
    endloop
  endfacet
  facet normal 9.837827e-01 -1.577241e-02 1.786696e-01
    outer loop
      vertex -7.706110e+00 4.640150e+01 -3.194208e+02
      vertex -7.129067e+00 4.998360e+01 -3.222819e+02
      vertex -8.421127e+00 4.894096e+01 -3.152597e+02
    endloop
  endfacet
  facet normal 9.859870e-01 -2.739975e-02 1.645566e-01
    outer loop
      vertex -6.823055e+00 4.711772e+01 -3.245927e+02
      vertex -7.129067e+00 4.998360e+01 -3.222819e+02
      vertex -7.706110e+00 4.640150e+01 -3.194208e+02
    endloop
  endfacet
  facet normal 9.817965e-01 -3.070032e-02 1.874385e-01
    outer loop
      vertex -7.706110e+00 4.640150e+01 -3.194208e+02
      vertex -8.421127e+00 4.894096e+01 -3.152597e+02
      vertex -8.803626e+00 4.562304e+01 -3.137996e+02
    endloop
  endfacet
  facet normal -2.704702e-12 1.371763e-01 -9.905466e-01
    outer loop
      vertex -1.630640e+02 5.564305e+01 -3.786744e+02
      vertex -1.630640e+02 5.820281e+01 -3.783199e+02
      vertex -9.164116e+00 5.820281e+01 -3.783199e+02
    endloop
  endfacet
  facet normal 3.726976e-13 9.905466e-01 1.371763e-01
    outer loop
      vertex -8.079778e+00 5.792846e+01 -3.763388e+02
      vertex -9.164116e+00 5.820281e+01 -3.783199e+02
      vertex -1.630640e+02 5.820281e+01 -3.783199e+02
    endloop
  endfacet
  facet normal -2.704690e-12 1.371763e-01 -9.905466e-01
    outer loop
      vertex -9.164116e+00 5.564305e+01 -3.786744e+02
      vertex -1.630640e+02 5.564305e+01 -3.786744e+02
      vertex -9.164116e+00 5.820281e+01 -3.783199e+02
    endloop
  endfacet
  facet normal 3.241207e-01 1.297709e-01 -9.370727e-01
    outer loop
      vertex -8.704245e+00 5.818120e+01 -3.781639e+02
      vertex -9.164116e+00 5.564305e+01 -3.786744e+02
      vertex -9.164116e+00 5.820281e+01 -3.783199e+02
    endloop
  endfacet
  facet normal 3.893563e-13 9.905466e-01 1.371763e-01
    outer loop
      vertex -8.704245e+00 5.818120e+01 -3.781639e+02
      vertex -9.164116e+00 5.820281e+01 -3.783199e+02
      vertex -8.079778e+00 5.792846e+01 -3.763388e+02
    endloop
  endfacet
  facet normal -3.827076e-01 1.267330e-01 -9.151358e-01
    outer loop
      vertex -1.635943e+02 5.561291e+01 -3.784568e+02
      vertex -1.630640e+02 5.820281e+01 -3.783199e+02
      vertex -1.630640e+02 5.564305e+01 -3.786744e+02
    endloop
  endfacet
  facet normal -3.827076e-01 1.267330e-01 -9.151358e-01
    outer loop
      vertex -1.635943e+02 5.817268e+01 -3.781023e+02
      vertex -1.630640e+02 5.820281e+01 -3.783199e+02
      vertex -1.635943e+02 5.561291e+01 -3.784568e+02
    endloop
  endfacet
  facet normal 3.724003e-13 9.905466e-01 1.371763e-01
    outer loop
      vertex -1.635943e+02 5.817268e+01 -3.781023e+02
      vertex -8.079778e+00 5.792846e+01 -3.763388e+02
      vertex -1.630640e+02 5.820281e+01 -3.783199e+02
    endloop
  endfacet
  facet normal 3.727891e-13 9.905466e-01 1.371763e-01
    outer loop
      vertex -1.630640e+02 5.598599e+01 -3.811508e+02
      vertex -1.630640e+02 5.564305e+01 -3.786744e+02
      vertex -9.164116e+00 5.564305e+01 -3.786744e+02
    endloop
  endfacet
  facet normal 3.968756e-13 9.905466e-01 1.371763e-01
    outer loop
      vertex -1.630640e+02 5.598599e+01 -3.811508e+02
      vertex -1.635943e+02 5.601612e+01 -3.813684e+02
      vertex -1.630640e+02 5.564305e+01 -3.786744e+02
    endloop
  endfacet
  facet normal 3.917888e-13 9.905466e-01 1.371763e-01
    outer loop
      vertex -1.635943e+02 5.561291e+01 -3.784568e+02
      vertex -1.630640e+02 5.564305e+01 -3.786744e+02
      vertex -1.635943e+02 5.601612e+01 -3.813684e+02
    endloop
  endfacet
  facet normal 3.726284e-13 9.905466e-01 1.371763e-01
    outer loop
      vertex -1.026557e+01 5.598599e+01 -3.811508e+02
      vertex -1.630640e+02 5.598599e+01 -3.811508e+02
      vertex -9.164116e+00 5.564305e+01 -3.786744e+02
    endloop
  endfacet
  facet normal 3.747063e-13 9.905466e-01 1.371763e-01
    outer loop
      vertex -9.664867e+00 5.602727e+01 -3.814489e+02
      vertex -1.026557e+01 5.598599e+01 -3.811508e+02
      vertex -9.164116e+00 5.564305e+01 -3.786744e+02
    endloop
  endfacet
  facet normal 3.834646e-13 9.905466e-01 1.371763e-01
    outer loop
      vertex -9.546231e+00 5.611799e+01 -3.821039e+02
      vertex -9.664867e+00 5.602727e+01 -3.814489e+02
      vertex -9.164116e+00 5.564305e+01 -3.786744e+02
    endloop
  endfacet
  facet normal 3.404689e-13 9.905466e-01 1.371763e-01
    outer loop
      vertex -9.001234e+00 5.585617e+01 -3.802134e+02
      vertex -9.546231e+00 5.611799e+01 -3.821039e+02
      vertex -9.164116e+00 5.564305e+01 -3.786744e+02
    endloop
  endfacet
  facet normal 2.895233e-13 9.905466e-01 1.371763e-01
    outer loop
      vertex -8.704245e+00 5.562143e+01 -3.785183e+02
      vertex -9.001234e+00 5.585617e+01 -3.802134e+02
      vertex -9.164116e+00 5.564305e+01 -3.786744e+02
    endloop
  endfacet
  facet normal 3.241207e-01 1.297709e-01 -9.370727e-01
    outer loop
      vertex -8.704245e+00 5.818120e+01 -3.781639e+02
      vertex -8.704245e+00 5.562143e+01 -3.785183e+02
      vertex -9.164116e+00 5.564305e+01 -3.786744e+02
    endloop
  endfacet
  facet normal 3.857303e-13 9.905466e-01 1.371763e-01
    outer loop
      vertex -1.635943e+02 5.561291e+01 -3.784568e+02
      vertex -1.638140e+02 5.608887e+01 -3.818937e+02
      vertex -1.638140e+02 5.554017e+01 -3.779315e+02
    endloop
  endfacet
  facet normal -9.238695e-01 5.249842e-02 -3.790898e-01
    outer loop
      vertex -1.635943e+02 5.817268e+01 -3.781023e+02
      vertex -1.635943e+02 5.561291e+01 -3.784568e+02
      vertex -1.638140e+02 5.554017e+01 -3.779315e+02
    endloop
  endfacet
  facet normal -9.238695e-01 5.249842e-02 -3.790898e-01
    outer loop
      vertex -1.635943e+02 5.817268e+01 -3.781023e+02
      vertex -1.638140e+02 5.554017e+01 -3.779315e+02
      vertex -1.638140e+02 5.809993e+01 -3.775770e+02
    endloop
  endfacet
  facet normal 4.047344e-13 9.905466e-01 1.371763e-01
    outer loop
      vertex -1.635943e+02 5.561291e+01 -3.784568e+02
      vertex -1.635943e+02 5.601612e+01 -3.813684e+02
      vertex -1.638140e+02 5.608887e+01 -3.818937e+02
    endloop
  endfacet
  facet normal -9.238695e-01 -5.249842e-02 3.790898e-01
    outer loop
      vertex -1.638140e+02 5.810364e+01 -3.816147e+02
      vertex -1.638140e+02 5.608887e+01 -3.818937e+02
      vertex -1.635943e+02 5.601612e+01 -3.813684e+02
    endloop
  endfacet
  facet normal -1.000000e+00 -5.026365e-15 2.786619e-12
    outer loop
      vertex -1.638140e+02 5.815165e+01 -3.819614e+02
      vertex -1.638140e+02 5.608887e+01 -3.818937e+02
      vertex -1.638140e+02 5.810364e+01 -3.816147e+02
    endloop
  endfacet
  facet normal -1.000000e+00 -6.138882e-15 2.752709e-12
    outer loop
      vertex -1.638140e+02 5.512058e+01 -3.823811e+02
      vertex -1.638140e+02 5.608887e+01 -3.818937e+02
      vertex -1.638140e+02 5.815165e+01 -3.819614e+02
    endloop
  endfacet
  facet normal -3.827076e-01 -1.267330e-01 9.151358e-01
    outer loop
      vertex -1.635943e+02 5.803090e+01 -3.810894e+02
      vertex -1.635943e+02 5.601612e+01 -3.813684e+02
      vertex -1.630640e+02 5.598599e+01 -3.811508e+02
    endloop
  endfacet
  facet normal -9.238695e-01 -5.249842e-02 3.790898e-01
    outer loop
      vertex -1.638140e+02 5.810364e+01 -3.816147e+02
      vertex -1.635943e+02 5.601612e+01 -3.813684e+02
      vertex -1.635943e+02 5.803090e+01 -3.810894e+02
    endloop
  endfacet
  facet normal 2.704300e-12 -1.371763e-01 9.905466e-01
    outer loop
      vertex -1.630640e+02 5.800076e+01 -3.808718e+02
      vertex -1.630640e+02 5.598599e+01 -3.811508e+02
      vertex -1.026557e+01 5.598599e+01 -3.811508e+02
    endloop
  endfacet
  facet normal -3.827076e-01 -1.267330e-01 9.151358e-01
    outer loop
      vertex -1.635943e+02 5.803090e+01 -3.810894e+02
      vertex -1.630640e+02 5.598599e+01 -3.811508e+02
      vertex -1.630640e+02 5.800076e+01 -3.808718e+02
    endloop
  endfacet
  facet normal 4.479133e-01 -1.226462e-01 8.856250e-01
    outer loop
      vertex -1.026557e+01 5.800076e+01 -3.808718e+02
      vertex -1.026557e+01 5.598599e+01 -3.811508e+02
      vertex -9.664867e+00 5.602727e+01 -3.814489e+02
    endloop
  endfacet
  facet normal 2.704288e-12 -1.371763e-01 9.905466e-01
    outer loop
      vertex -1.026557e+01 5.800076e+01 -3.808718e+02
      vertex -1.630640e+02 5.800076e+01 -3.808718e+02
      vertex -1.026557e+01 5.598599e+01 -3.811508e+02
    endloop
  endfacet
  facet normal 9.842871e-01 -2.422198e-02 1.749063e-01
    outer loop
      vertex -9.664867e+00 5.804204e+01 -3.811699e+02
      vertex -9.664867e+00 5.602727e+01 -3.814489e+02
      vertex -9.546231e+00 5.611799e+01 -3.821039e+02
    endloop
  endfacet
  facet normal 4.479133e-01 -1.226462e-01 8.856250e-01
    outer loop
      vertex -9.664867e+00 5.804204e+01 -3.811699e+02
      vertex -1.026557e+01 5.800076e+01 -3.808718e+02
      vertex -9.664867e+00 5.602727e+01 -3.814489e+02
    endloop
  endfacet
  facet normal 9.615660e-01 3.661129e-02 -2.721219e-01
    outer loop
      vertex -9.586699e+00 5.512058e+01 -3.823811e+02
      vertex -9.546231e+00 5.611799e+01 -3.821039e+02
      vertex -9.001234e+00 5.585617e+01 -3.802134e+02
    endloop
  endfacet
  facet normal 9.842871e-01 -2.422198e-02 1.749063e-01
    outer loop
      vertex -9.664867e+00 5.804204e+01 -3.811699e+02
      vertex -9.546231e+00 5.611799e+01 -3.821039e+02
      vertex -9.546231e+00 5.813276e+01 -3.818249e+02
    endloop
  endfacet
  facet normal 9.594520e-01 3.866615e-02 -2.792073e-01
    outer loop
      vertex -9.586699e+00 5.512058e+01 -3.823811e+02
      vertex -9.546231e+00 5.813276e+01 -3.818249e+02
      vertex -9.546231e+00 5.611799e+01 -3.821039e+02
    endloop
  endfacet
  facet normal 4.318799e-13 9.905466e-01 1.371763e-01
    outer loop
      vertex -8.704245e+00 5.562143e+01 -3.785183e+02
      vertex -8.437550e+00 5.556568e+01 -3.781158e+02
      vertex -9.001234e+00 5.585617e+01 -3.802134e+02
    endloop
  endfacet
  facet normal 9.656392e-01 -2.730984e-03 -2.598719e-01
    outer loop
      vertex -9.586699e+00 5.512058e+01 -3.823811e+02
      vertex -9.001234e+00 5.585617e+01 -3.802134e+02
      vertex -8.437550e+00 5.556568e+01 -3.781158e+02
    endloop
  endfacet
  facet normal 8.360665e-01 7.525879e-02 -5.434418e-01
    outer loop
      vertex -8.437550e+00 5.812545e+01 -3.777613e+02
      vertex -8.437550e+00 5.556568e+01 -3.781158e+02
      vertex -8.704245e+00 5.562143e+01 -3.785183e+02
    endloop
  endfacet
  facet normal 9.658443e-01 -1.413207e-02 -2.587375e-01
    outer loop
      vertex -7.795859e+00 5.418774e+01 -3.756451e+02
      vertex -9.586699e+00 5.512058e+01 -3.823811e+02
      vertex -8.437550e+00 5.556568e+01 -3.781158e+02
    endloop
  endfacet
  facet normal 9.714001e-01 3.004858e-02 -2.355398e-01
    outer loop
      vertex -8.079778e+00 5.792846e+01 -3.763388e+02
      vertex -7.795859e+00 5.418774e+01 -3.756451e+02
      vertex -8.437550e+00 5.556568e+01 -3.781158e+02
    endloop
  endfacet
  facet normal 9.710876e-01 3.097261e-02 -2.367055e-01
    outer loop
      vertex -8.262564e+00 5.803046e+01 -3.770754e+02
      vertex -8.079778e+00 5.792846e+01 -3.763388e+02
      vertex -8.437550e+00 5.556568e+01 -3.781158e+02
    endloop
  endfacet
  facet normal 9.695222e-01 3.360865e-02 -2.426872e-01
    outer loop
      vertex -8.437550e+00 5.812545e+01 -3.777613e+02
      vertex -8.262564e+00 5.803046e+01 -3.770754e+02
      vertex -8.437550e+00 5.556568e+01 -3.781158e+02
    endloop
  endfacet
  facet normal 8.360665e-01 7.525879e-02 -5.434418e-01
    outer loop
      vertex -8.704245e+00 5.818120e+01 -3.781639e+02
      vertex -8.437550e+00 5.812545e+01 -3.777613e+02
      vertex -8.704245e+00 5.562143e+01 -3.785183e+02
    endloop
  endfacet
  facet normal 3.727205e-13 9.905466e-01 1.371763e-01
    outer loop
      vertex -1.638140e+02 5.815165e+01 -3.819614e+02
      vertex -1.630640e+02 5.800076e+01 -3.808718e+02
      vertex -1.026557e+01 5.800076e+01 -3.808718e+02
    endloop
  endfacet
  facet normal 3.562697e-13 9.905466e-01 1.371763e-01
    outer loop
      vertex -1.638140e+02 5.815165e+01 -3.819614e+02
      vertex -1.635943e+02 5.803090e+01 -3.810894e+02
      vertex -1.630640e+02 5.800076e+01 -3.808718e+02
    endloop
  endfacet
  facet normal 3.731758e-13 9.905466e-01 1.371763e-01
    outer loop
      vertex -9.664867e+00 5.804204e+01 -3.811699e+02
      vertex -1.638140e+02 5.815165e+01 -3.819614e+02
      vertex -1.026557e+01 5.800076e+01 -3.808718e+02
    endloop
  endfacet
  facet normal 2.792217e-13 9.905466e-01 1.371763e-01
    outer loop
      vertex -1.638140e+02 5.815165e+01 -3.819614e+02
      vertex -1.638140e+02 5.810364e+01 -3.816147e+02
      vertex -1.635943e+02 5.803090e+01 -3.810894e+02
    endloop
  endfacet
  facet normal 3.728065e-13 9.905466e-01 1.371763e-01
    outer loop
      vertex -9.664867e+00 5.804204e+01 -3.811699e+02
      vertex -9.586699e+00 5.815165e+01 -3.819614e+02
      vertex -1.638140e+02 5.815165e+01 -3.819614e+02
    endloop
  endfacet
  facet normal -2.704789e-12 1.371763e-01 -9.905466e-01
    outer loop
      vertex -1.638140e+02 5.512058e+01 -3.823811e+02
      vertex -1.638140e+02 5.815165e+01 -3.819614e+02
      vertex -9.586699e+00 5.815165e+01 -3.819614e+02
    endloop
  endfacet
  facet normal 4.655437e-13 9.905466e-01 1.371763e-01
    outer loop
      vertex -9.664867e+00 5.804204e+01 -3.811699e+02
      vertex -9.566762e+00 5.814226e+01 -3.818935e+02
      vertex -9.586699e+00 5.815165e+01 -3.819614e+02
    endloop
  endfacet
  facet normal 9.601472e-01 3.834007e-02 -2.768527e-01
    outer loop
      vertex -9.586699e+00 5.512058e+01 -3.823811e+02
      vertex -9.586699e+00 5.815165e+01 -3.819614e+02
      vertex -9.566762e+00 5.814226e+01 -3.818935e+02
    endloop
  endfacet
  facet normal -2.704789e-12 1.371763e-01 -9.905466e-01
    outer loop
      vertex -9.586699e+00 5.512058e+01 -3.823811e+02
      vertex -1.638140e+02 5.512058e+01 -3.823811e+02
      vertex -9.586699e+00 5.815165e+01 -3.819614e+02
    endloop
  endfacet
  facet normal 3.272962e-13 9.905466e-01 1.371763e-01
    outer loop
      vertex -9.664867e+00 5.804204e+01 -3.811699e+02
      vertex -9.546231e+00 5.813276e+01 -3.818249e+02
      vertex -9.566762e+00 5.814226e+01 -3.818935e+02
    endloop
  endfacet
  facet normal 9.587598e-01 3.910156e-02 -2.815149e-01
    outer loop
      vertex -9.586699e+00 5.512058e+01 -3.823811e+02
      vertex -9.566762e+00 5.814226e+01 -3.818935e+02
      vertex -9.546231e+00 5.813276e+01 -3.818249e+02
    endloop
  endfacet
  facet normal -3.728067e-13 -9.905466e-01 -1.371763e-01
    outer loop
      vertex -1.470050e+02 5.204235e+01 -3.601533e+02
      vertex -1.638140e+02 5.512058e+01 -3.823811e+02
      vertex -9.586699e+00 5.512058e+01 -3.823811e+02
    endloop
  endfacet
  facet normal -3.521035e-13 -9.905466e-01 -1.371763e-01
    outer loop
      vertex -1.012036e+01 4.478697e+01 -3.077624e+02
      vertex -1.050001e+01 4.452634e+01 -3.058803e+02
      vertex -9.586699e+00 5.512058e+01 -3.823811e+02
    endloop
  endfacet
  facet normal -3.726375e-13 -9.905466e-01 -1.371763e-01
    outer loop
      vertex -4.826400e+01 5.183658e+01 -3.586674e+02
      vertex -9.586699e+00 5.512058e+01 -3.823811e+02
      vertex -1.050001e+01 4.452634e+01 -3.058803e+02
    endloop
  endfacet
  facet normal -3.609077e-13 -9.905466e-01 -1.371763e-01
    outer loop
      vertex -8.803626e+00 4.562304e+01 -3.137996e+02
      vertex -1.012036e+01 4.478697e+01 -3.077624e+02
      vertex -9.586699e+00 5.512058e+01 -3.823811e+02
    endloop
  endfacet
  facet normal -3.688470e-13 -9.905466e-01 -1.371763e-01
    outer loop
      vertex -7.795859e+00 5.418774e+01 -3.756451e+02
      vertex -8.803626e+00 4.562304e+01 -3.137996e+02
      vertex -9.586699e+00 5.512058e+01 -3.823811e+02
    endloop
  endfacet
  facet normal -3.756269e-13 -9.905466e-01 -1.371763e-01
    outer loop
      vertex -4.826400e+01 5.183658e+01 -3.586674e+02
      vertex -4.976400e+01 5.204235e+01 -3.601533e+02
      vertex -9.586699e+00 5.512058e+01 -3.823811e+02
    endloop
  endfacet
  facet normal -3.727413e-13 -9.905466e-01 -1.371763e-01
    outer loop
      vertex -1.470050e+02 5.204235e+01 -3.601533e+02
      vertex -9.586699e+00 5.512058e+01 -3.823811e+02
      vertex -4.976400e+01 5.204235e+01 -3.601533e+02
    endloop
  endfacet
  facet normal -5.169706e-13 -9.905466e-01 -1.371763e-01
    outer loop
      vertex -1.470050e+02 5.163082e+01 -3.571816e+02
      vertex -1.264847e+02 4.452232e+01 -3.058513e+02
      vertex -1.265140e+02 4.451262e+01 -3.057813e+02
    endloop
  endfacet
  facet normal -2.005568e-13 -9.905466e-01 -1.371763e-01
    outer loop
      vertex -4.976400e+01 5.163082e+01 -3.571816e+02
      vertex -1.264140e+02 4.452634e+01 -3.058803e+02
      vertex -1.264847e+02 4.452232e+01 -3.058513e+02
    endloop
  endfacet
  facet normal -3.725965e-13 -9.905466e-01 -1.371763e-01
    outer loop
      vertex -1.470050e+02 5.163082e+01 -3.571816e+02
      vertex -4.976400e+01 5.163082e+01 -3.571816e+02
      vertex -1.264847e+02 4.452232e+01 -3.058513e+02
    endloop
  endfacet
  facet normal -3.727361e-13 -9.905466e-01 -1.371763e-01
    outer loop
      vertex -4.976400e+01 5.163082e+01 -3.571816e+02
      vertex -1.050001e+01 4.452634e+01 -3.058803e+02
      vertex -1.264140e+02 4.452634e+01 -3.058803e+02
    endloop
  endfacet
  facet normal -3.815501e-13 -9.905466e-01 -1.371763e-01
    outer loop
      vertex -4.976400e+01 5.163082e+01 -3.571816e+02
      vertex -4.826400e+01 5.183658e+01 -3.586674e+02
      vertex -1.050001e+01 4.452634e+01 -3.058803e+02
    endloop
  endfacet
  facet normal -3.909922e-13 -9.905466e-01 -1.371763e-01
    outer loop
      vertex -7.795859e+00 5.418774e+01 -3.756451e+02
      vertex -7.706110e+00 4.640150e+01 -3.194208e+02
      vertex -8.803626e+00 4.562304e+01 -3.137996e+02
    endloop
  endfacet
  facet normal 9.755788e-01 -4.715052e-02 2.145293e-01
    outer loop
      vertex -9.889709e+00 4.782488e+01 -3.083767e+02
      vertex -1.004913e+01 4.772745e+01 -3.076731e+02
      vertex -8.803626e+00 4.562304e+01 -3.137996e+02
    endloop
  endfacet
  facet normal 9.761345e-01 -4.285479e-02 2.128964e-01
    outer loop
      vertex -9.733199e+00 4.792156e+01 -3.090748e+02
      vertex -9.889709e+00 4.782488e+01 -3.083767e+02
      vertex -8.803626e+00 4.562304e+01 -3.137996e+02
    endloop
  endfacet
  facet normal -3.829118e-13 -9.905466e-01 -1.371763e-01
    outer loop
      vertex -6.975786e+00 5.365839e+01 -3.718227e+02
      vertex -6.823055e+00 4.711772e+01 -3.245927e+02
      vertex -7.706110e+00 4.640150e+01 -3.194208e+02
    endloop
  endfacet
  facet normal -3.798648e-13 -9.905466e-01 -1.371763e-01
    outer loop
      vertex -7.795859e+00 5.418774e+01 -3.756451e+02
      vertex -6.975786e+00 5.365839e+01 -3.718227e+02
      vertex -7.706110e+00 4.640150e+01 -3.194208e+02
    endloop
  endfacet
  facet normal -3.712508e-13 -9.905466e-01 -1.371763e-01
    outer loop
      vertex -6.088627e+00 5.294321e+01 -3.666584e+02
      vertex -5.863858e+00 4.807693e+01 -3.315191e+02
      vertex -6.823055e+00 4.711772e+01 -3.245927e+02
    endloop
  endfacet
  facet normal -3.483883e-13 -9.905466e-01 -1.371763e-01
    outer loop
      vertex -6.975786e+00 5.365839e+01 -3.718227e+02
      vertex -6.088627e+00 5.294321e+01 -3.666584e+02
      vertex -6.823055e+00 4.711772e+01 -3.245927e+02
    endloop
  endfacet
  facet normal -3.554616e-13 -9.905466e-01 -1.371763e-01
    outer loop
      vertex -5.264000e+00 5.195801e+01 -3.595443e+02
      vertex -5.264000e+00 4.891361e+01 -3.375607e+02
      vertex -5.863858e+00 4.807693e+01 -3.315191e+02
    endloop
  endfacet
  facet normal -3.717365e-13 -9.905466e-01 -1.371763e-01
    outer loop
      vertex -6.088627e+00 5.294321e+01 -3.666584e+02
      vertex -5.264000e+00 5.195801e+01 -3.595443e+02
      vertex -5.863858e+00 4.807693e+01 -3.315191e+02
    endloop
  endfacet
  facet normal 7.071068e-01 -7.004223e-01 -9.699830e-02
    outer loop
      vertex -4.923378e+00 5.004086e+01 -3.432175e+02
      vertex -5.264000e+00 4.891361e+01 -3.375607e+02
      vertex -5.264000e+00 5.195801e+01 -3.595443e+02
    endloop
  endfacet
  facet normal 9.980121e-01 8.675729e-03 -6.242239e-02
    outer loop
      vertex -4.933614e+00 5.156756e+01 -3.543163e+02
      vertex -5.264000e+00 5.195801e+01 -3.595443e+02
      vertex -4.933437e+00 5.434796e+01 -3.539271e+02
    endloop
  endfacet
  facet normal 7.071068e-01 -7.004223e-01 -9.699830e-02
    outer loop
      vertex -4.814638e+00 5.093281e+01 -3.488655e+02
      vertex -5.264000e+00 5.195801e+01 -3.595443e+02
      vertex -4.933614e+00 5.156756e+01 -3.543163e+02
    endloop
  endfacet
  facet normal 7.071068e-01 -7.004223e-01 -9.699830e-02
    outer loop
      vertex -4.923378e+00 5.004086e+01 -3.432175e+02
      vertex -5.264000e+00 5.195801e+01 -3.595443e+02
      vertex -4.814638e+00 5.093281e+01 -3.488655e+02
    endloop
  endfacet
  facet normal 3.726960e-13 9.905466e-01 1.371763e-01
    outer loop
      vertex -1.638140e+02 4.792156e+01 -3.090748e+02
      vertex -1.004913e+01 4.772745e+01 -3.076731e+02
      vertex -9.889709e+00 4.782488e+01 -3.083767e+02
    endloop
  endfacet
  facet normal 3.725322e-13 9.905466e-01 1.371763e-01
    outer loop
      vertex -1.031239e+01 4.766974e+01 -3.072564e+02
      vertex -1.004913e+01 4.772745e+01 -3.076731e+02
      vertex -1.638140e+02 4.792156e+01 -3.090748e+02
    endloop
  endfacet
  facet normal 3.726648e-13 9.905466e-01 1.371763e-01
    outer loop
      vertex -1.638140e+02 4.792156e+01 -3.090748e+02
      vertex -9.889709e+00 4.782488e+01 -3.083767e+02
      vertex -9.733199e+00 4.792156e+01 -3.090748e+02
    endloop
  endfacet
  facet normal 9.998185e-01 -2.585130e-03 1.887667e-02
    outer loop
      vertex -4.923378e+00 5.004086e+01 -3.432175e+02
      vertex -4.814631e+00 5.342414e+01 -3.485140e+02
      vertex -4.923531e+00 5.269270e+01 -3.428462e+02
    endloop
  endfacet
  facet normal 9.997658e-01 3.020406e-03 -2.142739e-02
    outer loop
      vertex -4.814638e+00 5.093281e+01 -3.488655e+02
      vertex -4.933437e+00 5.434796e+01 -3.539271e+02
      vertex -4.814631e+00 5.342414e+01 -3.485140e+02
    endloop
  endfacet
  facet normal 9.998192e-01 -2.659181e-03 1.882939e-02
    outer loop
      vertex -4.923378e+00 5.004086e+01 -3.432175e+02
      vertex -4.814638e+00 5.093281e+01 -3.488655e+02
      vertex -4.814631e+00 5.342414e+01 -3.485140e+02
    endloop
  endfacet
  facet normal 9.997650e-01 2.943492e-03 -2.147926e-02
    outer loop
      vertex -4.814638e+00 5.093281e+01 -3.488655e+02
      vertex -4.933614e+00 5.156756e+01 -3.543163e+02
      vertex -4.933437e+00 5.434796e+01 -3.539271e+02
    endloop
  endfacet
  facet normal -3.446862e-12 9.905466e-01 1.371763e-01
    outer loop
      vertex -8.437550e+00 5.812545e+01 -3.777613e+02
      vertex -8.079778e+00 5.792846e+01 -3.763388e+02
      vertex -8.262564e+00 5.803046e+01 -3.770754e+02
    endloop
  endfacet
  facet normal 3.452328e-13 9.905466e-01 1.371763e-01
    outer loop
      vertex -8.704245e+00 5.818120e+01 -3.781639e+02
      vertex -8.079778e+00 5.792846e+01 -3.763388e+02
      vertex -8.437550e+00 5.812545e+01 -3.777613e+02
    endloop
  endfacet
  facet normal 3.727041e-13 9.905466e-01 1.371763e-01
    outer loop
      vertex -1.638140e+02 5.792846e+01 -3.763388e+02
      vertex -8.079778e+00 5.792846e+01 -3.763388e+02
      vertex -1.638140e+02 5.809993e+01 -3.775770e+02
    endloop
  endfacet
  facet normal 3.723900e-13 9.905466e-01 1.371763e-01
    outer loop
      vertex -1.635943e+02 5.817268e+01 -3.781023e+02
      vertex -1.638140e+02 5.809993e+01 -3.775770e+02
      vertex -8.079778e+00 5.792846e+01 -3.763388e+02
    endloop
  endfacet
  facet normal 3.269800e-13 9.905466e-01 1.371763e-01
    outer loop
      vertex -1.635943e+02 4.767735e+01 -3.073113e+02
      vertex -1.638140e+02 4.792156e+01 -3.090748e+02
      vertex -1.638140e+02 4.775009e+01 -3.078366e+02
    endloop
  endfacet
endsolid P1040852002
