solid P1040852002
  facet normal 2.699177e-12 -1.468661e-01 9.891564e-01
    outer loop
      vertex -1.638140e+02 4.962414e+01 -3.045954e+02
      vertex -1.638140e+02 4.743811e+01 -3.049199e+02
      vertex -1.265640e+02 4.743811e+01 -3.049199e+02
    endloop
  endfacet
  facet normal -3.988225e-13 -9.891564e-01 -1.468661e-01
    outer loop
      vertex -1.470050e+02 5.197640e+01 -3.354857e+02
      vertex -1.265640e+02 4.743811e+01 -3.049199e+02
      vertex -1.638140e+02 4.743811e+01 -3.049199e+02
    endloop
  endfacet
  facet normal 2.702197e-12 -1.468661e-01 9.891564e-01
    outer loop
      vertex -1.265640e+02 4.962414e+01 -3.045954e+02
      vertex -1.638140e+02 4.962414e+01 -3.045954e+02
      vertex -1.265640e+02 4.743811e+01 -3.049199e+02
    endloop
  endfacet
  facet normal 7.071068e-01 -1.038500e-01 6.994392e-01
    outer loop
      vertex -1.265140e+02 4.963149e+01 -3.046448e+02
      vertex -1.265640e+02 4.962414e+01 -3.045954e+02
      vertex -1.265640e+02 4.743811e+01 -3.049199e+02
    endloop
  endfacet
  facet normal 7.071068e-01 -1.038500e-01 6.994392e-01
    outer loop
      vertex -1.265140e+02 4.744545e+01 -3.049694e+02
      vertex -1.265140e+02 4.963149e+01 -3.046448e+02
      vertex -1.265640e+02 4.743811e+01 -3.049199e+02
    endloop
  endfacet
  facet normal -2.740498e-13 -9.891564e-01 -1.468661e-01
    outer loop
      vertex -1.265140e+02 4.758497e+01 -3.059091e+02
      vertex -1.265140e+02 4.744545e+01 -3.049694e+02
      vertex -1.265640e+02 4.743811e+01 -3.049199e+02
    endloop
  endfacet
  facet normal -4.110837e-13 -9.891564e-01 -1.468661e-01
    outer loop
      vertex -1.470050e+02 5.197640e+01 -3.354857e+02
      vertex -1.265140e+02 4.758497e+01 -3.059091e+02
      vertex -1.265640e+02 4.743811e+01 -3.049199e+02
    endloop
  endfacet
  facet normal -1.000000e+00 -2.674922e-15 2.732567e-12
    outer loop
      vertex -1.638140e+02 5.013524e+01 -3.080376e+02
      vertex -1.638140e+02 4.743811e+01 -3.049199e+02
      vertex -1.638140e+02 4.962414e+01 -3.045954e+02
    endloop
  endfacet
  facet normal -1.000000e+00 4.080954e-14 2.770186e-12
    outer loop
      vertex -1.638140e+02 5.102600e+01 -3.091691e+02
      vertex -1.638140e+02 4.743811e+01 -3.049199e+02
      vertex -1.638140e+02 5.013524e+01 -3.080376e+02
    endloop
  endfacet
  facet normal -1.000000e+00 3.002353e-13 2.790575e-12
    outer loop
      vertex -1.638140e+02 6.169085e+01 -3.763319e+02
      vertex -1.638140e+02 4.743811e+01 -3.049199e+02
      vertex -1.638140e+02 6.177040e+01 -3.763201e+02
    endloop
  endfacet
  facet normal -1.000000e+00 -8.418419e-15 2.728619e-12
    outer loop
      vertex -1.638140e+02 5.102600e+01 -3.091691e+02
      vertex -1.638140e+02 6.177040e+01 -3.763201e+02
      vertex -1.638140e+02 4.743811e+01 -3.049199e+02
    endloop
  endfacet
  facet normal -1.000000e+00 -6.274944e-14 2.720345e-12
    outer loop
      vertex -1.638140e+02 5.990573e+01 -3.819045e+02
      vertex -1.638140e+02 4.743811e+01 -3.049199e+02
      vertex -1.638140e+02 5.931826e+01 -3.779479e+02
    endloop
  endfacet
  facet normal -1.000000e+00 5.835149e-15 2.731502e-12
    outer loop
      vertex -1.638140e+02 6.187443e+01 -3.775684e+02
      vertex -1.638140e+02 5.931826e+01 -3.779479e+02
      vertex -1.638140e+02 4.743811e+01 -3.049199e+02
    endloop
  endfacet
  facet normal -1.000000e+00 -2.005821e-14 2.727259e-12
    outer loop
      vertex -1.638140e+02 5.894226e+01 -3.824014e+02
      vertex -1.638140e+02 4.743811e+01 -3.049199e+02
      vertex -1.638140e+02 5.990573e+01 -3.819045e+02
    endloop
  endfacet
  facet normal -3.991713e-13 -9.891564e-01 -1.468661e-01
    outer loop
      vertex -1.470050e+02 5.241700e+01 -3.384532e+02
      vertex -1.638140e+02 4.743811e+01 -3.049199e+02
      vertex -1.638140e+02 5.894226e+01 -3.824014e+02
    endloop
  endfacet
  facet normal -3.925619e-13 -9.891564e-01 -1.468661e-01
    outer loop
      vertex -1.470050e+02 5.241700e+01 -3.384532e+02
      vertex -1.470050e+02 5.197640e+01 -3.354857e+02
      vertex -1.638140e+02 4.743811e+01 -3.049199e+02
    endloop
  endfacet
  facet normal -1.000000e+00 -3.567155e-13 2.659458e-12
    outer loop
      vertex -1.638140e+02 6.169085e+01 -3.763319e+02
      vertex -1.638140e+02 6.187443e+01 -3.775684e+02
      vertex -1.638140e+02 4.743811e+01 -3.049199e+02
    endloop
  endfacet
  facet normal 3.992818e-13 9.891564e-01 1.468661e-01
    outer loop
      vertex -1.630640e+02 5.002509e+01 -3.072958e+02
      vertex -1.638140e+02 4.962414e+01 -3.045954e+02
      vertex -1.265640e+02 4.962414e+01 -3.045954e+02
    endloop
  endfacet
  facet normal 4.229525e-13 9.891564e-01 1.468661e-01
    outer loop
      vertex -1.635943e+02 5.005735e+01 -3.075131e+02
      vertex -1.638140e+02 4.962414e+01 -3.045954e+02
      vertex -1.630640e+02 5.002509e+01 -3.072958e+02
    endloop
  endfacet
  facet normal 4.255056e-13 9.891564e-01 1.468661e-01
    outer loop
      vertex -1.635943e+02 5.005735e+01 -3.075131e+02
      vertex -1.638140e+02 5.013524e+01 -3.080376e+02
      vertex -1.638140e+02 4.962414e+01 -3.045954e+02
    endloop
  endfacet
  facet normal 3.873735e-13 9.891564e-01 1.468661e-01
    outer loop
      vertex -1.265140e+02 4.963149e+01 -3.046448e+02
      vertex -1.630640e+02 5.002509e+01 -3.072958e+02
      vertex -1.265640e+02 4.962414e+01 -3.045954e+02
    endloop
  endfacet
  facet normal 3.992095e-13 9.891564e-01 1.468661e-01
    outer loop
      vertex -1.264140e+02 4.978570e+01 -3.056834e+02
      vertex -1.078074e+01 5.002509e+01 -3.072958e+02
      vertex -1.630640e+02 5.002509e+01 -3.072958e+02
    endloop
  endfacet
  facet normal 2.700784e-12 -1.468661e-01 9.891564e-01
    outer loop
      vertex -1.630640e+02 5.073227e+01 -3.071908e+02
      vertex -1.630640e+02 5.002509e+01 -3.072958e+02
      vertex -1.078074e+01 5.002509e+01 -3.072958e+02
    endloop
  endfacet
  facet normal 3.929210e-13 9.891564e-01 1.468661e-01
    outer loop
      vertex -1.264847e+02 4.978140e+01 -3.056545e+02
      vertex -1.264140e+02 4.978570e+01 -3.056834e+02
      vertex -1.630640e+02 5.002509e+01 -3.072958e+02
    endloop
  endfacet
  facet normal 3.913622e-13 9.891564e-01 1.468661e-01
    outer loop
      vertex -1.265140e+02 4.977101e+01 -3.055845e+02
      vertex -1.264847e+02 4.978140e+01 -3.056545e+02
      vertex -1.630640e+02 5.002509e+01 -3.072958e+02
    endloop
  endfacet
  facet normal 4.006523e-13 9.891564e-01 1.468661e-01
    outer loop
      vertex -1.265140e+02 4.963149e+01 -3.046448e+02
      vertex -1.265140e+02 4.977101e+01 -3.055845e+02
      vertex -1.630640e+02 5.002509e+01 -3.072958e+02
    endloop
  endfacet
  facet normal -3.827076e-01 -1.356851e-01 9.138514e-01
    outer loop
      vertex -1.635943e+02 5.076453e+01 -3.074081e+02
      vertex -1.635943e+02 5.005735e+01 -3.075131e+02
      vertex -1.630640e+02 5.002509e+01 -3.072958e+02
    endloop
  endfacet
  facet normal -3.827076e-01 -1.356851e-01 9.138514e-01
    outer loop
      vertex -1.635943e+02 5.076453e+01 -3.074081e+02
      vertex -1.630640e+02 5.002509e+01 -3.072958e+02
      vertex -1.630640e+02 5.073227e+01 -3.071908e+02
    endloop
  endfacet
  facet normal 3.445197e-13 9.891564e-01 1.468661e-01
    outer loop
      vertex -1.050001e+01 4.978570e+01 -3.056834e+02
      vertex -1.031239e+01 5.004921e+01 -3.074582e+02
      vertex -1.078074e+01 5.002509e+01 -3.072958e+02
    endloop
  endfacet
  facet normal 3.308644e-01 -1.385943e-01 9.334454e-01
    outer loop
      vertex -1.078074e+01 5.073227e+01 -3.071908e+02
      vertex -1.078074e+01 5.002509e+01 -3.072958e+02
      vertex -1.031239e+01 5.004921e+01 -3.074582e+02
    endloop
  endfacet
  facet normal 3.992001e-13 9.891564e-01 1.468661e-01
    outer loop
      vertex -1.264140e+02 4.978570e+01 -3.056834e+02
      vertex -1.050001e+01 4.978570e+01 -3.056834e+02
      vertex -1.078074e+01 5.002509e+01 -3.072958e+02
    endloop
  endfacet
  facet normal 2.700797e-12 -1.468661e-01 9.891564e-01
    outer loop
      vertex -1.078074e+01 5.073227e+01 -3.071908e+02
      vertex -1.630640e+02 5.073227e+01 -3.071908e+02
      vertex -1.078074e+01 5.002509e+01 -3.072958e+02
    endloop
  endfacet
  facet normal 2.680357e-13 9.891564e-01 1.468661e-01
    outer loop
      vertex -1.008467e+01 5.008789e+01 -3.077187e+02
      vertex -1.004913e+01 5.011099e+01 -3.078743e+02
      vertex -1.031239e+01 5.004921e+01 -3.074582e+02
    endloop
  endfacet
  facet normal 8.477127e-01 -7.790594e-02 5.247036e-01
    outer loop
      vertex -1.031239e+01 5.075638e+01 -3.073532e+02
      vertex -1.031239e+01 5.004921e+01 -3.074582e+02
      vertex -1.004913e+01 5.011099e+01 -3.078743e+02
    endloop
  endfacet
  facet normal 5.560453e-13 9.891564e-01 1.468661e-01
    outer loop
      vertex -1.012036e+01 5.006474e+01 -3.075628e+02
      vertex -1.008467e+01 5.008789e+01 -3.077187e+02
      vertex -1.031239e+01 5.004921e+01 -3.074582e+02
    endloop
  endfacet
  facet normal 4.730444e-13 9.891564e-01 1.468661e-01
    outer loop
      vertex -1.050001e+01 4.978570e+01 -3.056834e+02
      vertex -1.012036e+01 5.006474e+01 -3.075628e+02
      vertex -1.031239e+01 5.004921e+01 -3.074582e+02
    endloop
  endfacet
  facet normal 3.308644e-01 -1.385943e-01 9.334454e-01
    outer loop
      vertex -1.031239e+01 5.075638e+01 -3.073532e+02
      vertex -1.078074e+01 5.073227e+01 -3.071908e+02
      vertex -1.031239e+01 5.004921e+01 -3.074582e+02
    endloop
  endfacet
  facet normal 9.750801e-01 -5.858785e-02 2.139773e-01
    outer loop
      vertex -8.803626e+00 4.877383e+01 -3.139161e+02
      vertex -1.004913e+01 5.011099e+01 -3.078743e+02
      vertex -1.008467e+01 5.008789e+01 -3.077187e+02
    endloop
  endfacet
  facet normal 9.775608e-01 -3.093785e-02 2.083692e-01
    outer loop
      vertex -1.004913e+01 5.081817e+01 -3.077693e+02
      vertex -1.004913e+01 5.011099e+01 -3.078743e+02
      vertex -8.803626e+00 4.877383e+01 -3.139161e+02
    endloop
  endfacet
  facet normal 8.477127e-01 -7.790594e-02 5.247036e-01
    outer loop
      vertex -1.031239e+01 5.075638e+01 -3.073532e+02
      vertex -1.004913e+01 5.011099e+01 -3.078743e+02
      vertex -1.004913e+01 5.081817e+01 -3.077693e+02
    endloop
  endfacet
  facet normal 9.749231e-01 -6.011584e-02 2.142688e-01
    outer loop
      vertex -8.803626e+00 4.877383e+01 -3.139161e+02
      vertex -1.008467e+01 5.008789e+01 -3.077187e+02
      vertex -1.012036e+01 5.006474e+01 -3.075628e+02
    endloop
  endfacet
  facet normal 9.806147e-01 -2.877784e-02 1.938214e-01
    outer loop
      vertex -1.050001e+01 4.759966e+01 -3.060080e+02
      vertex -1.012036e+01 5.006474e+01 -3.075628e+02
      vertex -1.050001e+01 4.978570e+01 -3.056834e+02
    endloop
  endfacet
  facet normal 9.806147e-01 -2.877784e-02 1.938214e-01
    outer loop
      vertex -1.012036e+01 4.787871e+01 -3.078874e+02
      vertex -1.012036e+01 5.006474e+01 -3.075628e+02
      vertex -1.050001e+01 4.759966e+01 -3.060080e+02
    endloop
  endfacet
  facet normal 9.774495e-01 -3.101358e-02 2.088792e-01
    outer loop
      vertex -8.803626e+00 4.877383e+01 -3.139161e+02
      vertex -1.012036e+01 5.006474e+01 -3.075628e+02
      vertex -1.012036e+01 4.787871e+01 -3.078874e+02
    endloop
  endfacet
  facet normal 2.701171e-12 -1.468661e-01 9.891564e-01
    outer loop
      vertex -1.050001e+01 4.759966e+01 -3.060080e+02
      vertex -1.050001e+01 4.978570e+01 -3.056834e+02
      vertex -1.264140e+02 4.978570e+01 -3.056834e+02
    endloop
  endfacet
  facet normal 3.826834e-01 -1.356866e-01 9.138613e-01
    outer loop
      vertex -1.264140e+02 4.759966e+01 -3.060080e+02
      vertex -1.264140e+02 4.978570e+01 -3.056834e+02
      vertex -1.264847e+02 4.978140e+01 -3.056545e+02
    endloop
  endfacet
  facet normal 2.701152e-12 -1.468661e-01 9.891564e-01
    outer loop
      vertex -1.050001e+01 4.759966e+01 -3.060080e+02
      vertex -1.264140e+02 4.978570e+01 -3.056834e+02
      vertex -1.264140e+02 4.759966e+01 -3.060080e+02
    endloop
  endfacet
  facet normal 9.238795e-01 -5.620322e-02 3.785338e-01
    outer loop
      vertex -1.264847e+02 4.759536e+01 -3.059790e+02
      vertex -1.264847e+02 4.978140e+01 -3.056545e+02
      vertex -1.265140e+02 4.977101e+01 -3.055845e+02
    endloop
  endfacet
  facet normal 3.826834e-01 -1.356866e-01 9.138613e-01
    outer loop
      vertex -1.264140e+02 4.759966e+01 -3.060080e+02
      vertex -1.264847e+02 4.978140e+01 -3.056545e+02
      vertex -1.264847e+02 4.759536e+01 -3.059790e+02
    endloop
  endfacet
  facet normal 1.000000e+00 3.293601e-15 -2.736734e-12
    outer loop
      vertex -1.265140e+02 4.744545e+01 -3.049694e+02
      vertex -1.265140e+02 4.977101e+01 -3.055845e+02
      vertex -1.265140e+02 4.963149e+01 -3.046448e+02
    endloop
  endfacet
  facet normal 1.000000e+00 -8.699834e-16 -2.752475e-12
    outer loop
      vertex -1.265140e+02 4.758497e+01 -3.059091e+02
      vertex -1.265140e+02 4.977101e+01 -3.055845e+02
      vertex -1.265140e+02 4.744545e+01 -3.049694e+02
    endloop
  endfacet
  facet normal 9.238795e-01 -5.620322e-02 3.785338e-01
    outer loop
      vertex -1.264847e+02 4.759536e+01 -3.059790e+02
      vertex -1.265140e+02 4.977101e+01 -3.055845e+02
      vertex -1.265140e+02 4.758497e+01 -3.059091e+02
    endloop
  endfacet
  facet normal -9.238695e-01 -5.620677e-02 3.785577e-01
    outer loop
      vertex -1.638140e+02 5.084241e+01 -3.079326e+02
      vertex -1.638140e+02 5.013524e+01 -3.080376e+02
      vertex -1.635943e+02 5.005735e+01 -3.075131e+02
    endloop
  endfacet
  facet normal -1.000000e+00 -4.147148e-15 2.734793e-12
    outer loop
      vertex -1.638140e+02 5.102600e+01 -3.091691e+02
      vertex -1.638140e+02 5.013524e+01 -3.080376e+02
      vertex -1.638140e+02 5.084241e+01 -3.079326e+02
    endloop
  endfacet
  facet normal -9.238695e-01 -5.620677e-02 3.785577e-01
    outer loop
      vertex -1.635943e+02 5.076453e+01 -3.074081e+02
      vertex -1.638140e+02 5.084241e+01 -3.079326e+02
      vertex -1.635943e+02 5.005735e+01 -3.075131e+02
    endloop
  endfacet
  facet normal 3.991173e-13 9.891564e-01 1.468661e-01
    outer loop
      vertex -1.638140e+02 5.102600e+01 -3.091691e+02
      vertex -1.630640e+02 5.073227e+01 -3.071908e+02
      vertex -1.078074e+01 5.073227e+01 -3.071908e+02
    endloop
  endfacet
  facet normal 4.317348e-13 9.891564e-01 1.468661e-01
    outer loop
      vertex -1.635943e+02 5.076453e+01 -3.074081e+02
      vertex -1.630640e+02 5.073227e+01 -3.071908e+02
      vertex -1.638140e+02 5.102600e+01 -3.091691e+02
    endloop
  endfacet
  facet normal 3.986129e-13 9.891564e-01 1.468661e-01
    outer loop
      vertex -1.031239e+01 5.075638e+01 -3.073532e+02
      vertex -1.638140e+02 5.102600e+01 -3.091691e+02
      vertex -1.078074e+01 5.073227e+01 -3.071908e+02
    endloop
  endfacet
  facet normal 4.256126e-13 9.876713e-01 1.565418e-01
    outer loop
      vertex -1.638140e+02 6.177040e+01 -3.763201e+02
      vertex -1.470050e+02 5.569159e+01 -3.379670e+02
      vertex -4.976400e+01 5.569159e+01 -3.379670e+02
    endloop
  endfacet
  facet normal 2.700561e-12 -1.468661e-01 9.891564e-01
    outer loop
      vertex -4.976400e+01 5.241700e+01 -3.384532e+02
      vertex -4.976400e+01 5.569159e+01 -3.379670e+02
      vertex -1.470050e+02 5.569159e+01 -3.379670e+02
    endloop
  endfacet
  facet normal 4.335480e-13 9.876713e-01 1.565418e-01
    outer loop
      vertex -9.733199e+00 5.112491e+01 -3.091544e+02
      vertex -4.976400e+01 5.569159e+01 -3.379670e+02
      vertex -4.826400e+01 5.545677e+01 -3.364854e+02
    endloop
  endfacet
  facet normal -7.071068e-01 -1.038500e-01 6.994392e-01
    outer loop
      vertex -4.826400e+01 5.219670e+01 -3.369695e+02
      vertex -4.826400e+01 5.545677e+01 -3.364854e+02
      vertex -4.976400e+01 5.569159e+01 -3.379670e+02
    endloop
  endfacet
  facet normal 4.254078e-13 9.876713e-01 1.565418e-01
    outer loop
      vertex -8.421127e+00 5.210589e+01 -3.153437e+02
      vertex -4.976400e+01 5.569159e+01 -3.379670e+02
      vertex -9.733199e+00 5.112491e+01 -3.091544e+02
    endloop
  endfacet
  facet normal 4.255911e-13 9.876713e-01 1.565418e-01
    outer loop
      vertex -8.079778e+00 6.177040e+01 -3.763201e+02
      vertex -1.638140e+02 6.177040e+01 -3.763201e+02
      vertex -4.976400e+01 5.569159e+01 -3.379670e+02
    endloop
  endfacet
  facet normal 4.253441e-13 9.876713e-01 1.565418e-01
    outer loop
      vertex -8.421127e+00 5.210589e+01 -3.153437e+02
      vertex -8.079778e+00 6.177040e+01 -3.763201e+02
      vertex -4.976400e+01 5.569159e+01 -3.379670e+02
    endloop
  endfacet
  facet normal -7.071068e-01 -1.038500e-01 6.994392e-01
    outer loop
      vertex -4.826400e+01 5.219670e+01 -3.369695e+02
      vertex -4.976400e+01 5.569159e+01 -3.379670e+02
      vertex -4.976400e+01 5.241700e+01 -3.384532e+02
    endloop
  endfacet
  facet normal 4.288949e-13 9.876713e-01 1.565418e-01
    outer loop
      vertex -1.638140e+02 6.177040e+01 -3.763201e+02
      vertex -1.470050e+02 5.522194e+01 -3.350038e+02
      vertex -1.470050e+02 5.569159e+01 -3.379670e+02
    endloop
  endfacet
  facet normal 1.000000e+00 2.980706e-15 -2.733163e-12
    outer loop
      vertex -1.470050e+02 5.197640e+01 -3.354857e+02
      vertex -1.470050e+02 5.569159e+01 -3.379670e+02
      vertex -1.470050e+02 5.522194e+01 -3.350038e+02
    endloop
  endfacet
  facet normal 2.701718e-12 -1.468661e-01 9.891564e-01
    outer loop
      vertex -1.470050e+02 5.241700e+01 -3.384532e+02
      vertex -4.976400e+01 5.241700e+01 -3.384532e+02
      vertex -1.470050e+02 5.569159e+01 -3.379670e+02
    endloop
  endfacet
  facet normal 1.000000e+00 -1.196524e-15 -2.739417e-12
    outer loop
      vertex -1.470050e+02 5.241700e+01 -3.384532e+02
      vertex -1.470050e+02 5.569159e+01 -3.379670e+02
      vertex -1.470050e+02 5.197640e+01 -3.354857e+02
    endloop
  endfacet
  facet normal 4.256104e-13 9.876713e-01 1.565418e-01
    outer loop
      vertex -9.733199e+00 5.112491e+01 -3.091544e+02
      vertex -4.976400e+01 5.522194e+01 -3.350038e+02
      vertex -1.470050e+02 5.522194e+01 -3.350038e+02
    endloop
  endfacet
  facet normal -2.700562e-12 1.468661e-01 -9.891564e-01
    outer loop
      vertex -1.470050e+02 5.197640e+01 -3.354857e+02
      vertex -1.470050e+02 5.522194e+01 -3.350038e+02
      vertex -4.976400e+01 5.522194e+01 -3.350038e+02
    endloop
  endfacet
  facet normal 4.256291e-13 9.876713e-01 1.565418e-01
    outer loop
      vertex -1.638140e+02 5.112491e+01 -3.091544e+02
      vertex -9.733199e+00 5.112491e+01 -3.091544e+02
      vertex -1.470050e+02 5.522194e+01 -3.350038e+02
    endloop
  endfacet
  facet normal 4.260218e-13 9.876713e-01 1.565418e-01
    outer loop
      vertex -1.638140e+02 6.177040e+01 -3.763201e+02
      vertex -1.638140e+02 5.112491e+01 -3.091544e+02
      vertex -1.470050e+02 5.522194e+01 -3.350038e+02
    endloop
  endfacet
  facet normal 4.252928e-13 9.876713e-01 1.565418e-01
    outer loop
      vertex -9.733199e+00 5.112491e+01 -3.091544e+02
      vertex -4.826400e+01 5.545677e+01 -3.364854e+02
      vertex -4.976400e+01 5.522194e+01 -3.350038e+02
    endloop
  endfacet
  facet normal -7.071068e-01 1.038500e-01 -6.994392e-01
    outer loop
      vertex -4.976400e+01 5.197640e+01 -3.354857e+02
      vertex -4.976400e+01 5.522194e+01 -3.350038e+02
      vertex -4.826400e+01 5.545677e+01 -3.364854e+02
    endloop
  endfacet
  facet normal -2.700561e-12 1.468661e-01 -9.891564e-01
    outer loop
      vertex -1.470050e+02 5.197640e+01 -3.354857e+02
      vertex -4.976400e+01 5.522194e+01 -3.350038e+02
      vertex -4.976400e+01 5.197640e+01 -3.354857e+02
    endloop
  endfacet
  facet normal -7.071068e-01 1.038500e-01 -6.994392e-01
    outer loop
      vertex -4.976400e+01 5.197640e+01 -3.354857e+02
      vertex -4.826400e+01 5.545677e+01 -3.364854e+02
      vertex -4.826400e+01 5.219670e+01 -3.369695e+02
    endloop
  endfacet
  facet normal 2.700659e-12 -1.468661e-01 9.891564e-01
    outer loop
      vertex -9.733199e+00 5.102600e+01 -3.091691e+02
      vertex -9.733199e+00 5.112491e+01 -3.091544e+02
      vertex -1.638140e+02 5.112491e+01 -3.091544e+02
    endloop
  endfacet
  facet normal 9.787519e-01 -2.517176e-02 2.034970e-01
    outer loop
      vertex -8.803626e+00 4.877383e+01 -3.139161e+02
      vertex -8.421127e+00 5.210589e+01 -3.153437e+02
      vertex -9.733199e+00 5.112491e+01 -3.091544e+02
    endloop
  endfacet
  facet normal 9.780654e-01 -3.059188e-02 2.060391e-01
    outer loop
      vertex -9.733199e+00 5.102600e+01 -3.091691e+02
      vertex -8.803626e+00 4.877383e+01 -3.139161e+02
      vertex -9.733199e+00 5.112491e+01 -3.091544e+02
    endloop
  endfacet
  facet normal -1.000000e+00 1.654015e-13 2.756431e-12
    outer loop
      vertex -1.638140e+02 5.102600e+01 -3.091691e+02
      vertex -1.638140e+02 5.112491e+01 -3.091544e+02
      vertex -1.638140e+02 6.177040e+01 -3.763201e+02
    endloop
  endfacet
  facet normal 2.701389e-12 -1.468661e-01 9.891564e-01
    outer loop
      vertex -1.638140e+02 5.102600e+01 -3.091691e+02
      vertex -9.733199e+00 5.102600e+01 -3.091691e+02
      vertex -1.638140e+02 5.112491e+01 -3.091544e+02
    endloop
  endfacet
  facet normal -2.700883e-12 1.468661e-01 -9.891564e-01
    outer loop
      vertex -1.638140e+02 6.169085e+01 -3.763319e+02
      vertex -1.638140e+02 6.177040e+01 -3.763201e+02
      vertex -8.079778e+00 6.177040e+01 -3.763201e+02
    endloop
  endfacet
  facet normal 4.196045e-13 9.876713e-01 1.565418e-01
    outer loop
      vertex -7.129067e+00 5.321721e+01 -3.223554e+02
      vertex -7.127365e+00 6.109823e+01 -3.720792e+02
      vertex -8.079778e+00 6.177040e+01 -3.763201e+02
    endloop
  endfacet
  facet normal 9.762705e-01 3.180455e-02 -2.142065e-01
    outer loop
      vertex -8.079778e+00 6.169085e+01 -3.763319e+02
      vertex -8.079778e+00 6.177040e+01 -3.763201e+02
      vertex -7.127365e+00 6.109823e+01 -3.720792e+02
    endloop
  endfacet
  facet normal 4.363648e-13 9.876713e-01 1.565418e-01
    outer loop
      vertex -8.421127e+00 5.210589e+01 -3.153437e+02
      vertex -7.129067e+00 5.321721e+01 -3.223554e+02
      vertex -8.079778e+00 6.177040e+01 -3.763201e+02
    endloop
  endfacet
  facet normal -2.700870e-12 1.468661e-01 -9.891564e-01
    outer loop
      vertex -1.638140e+02 6.169085e+01 -3.763319e+02
      vertex -8.079778e+00 6.177040e+01 -3.763201e+02
      vertex -8.079778e+00 6.169085e+01 -3.763319e+02
    endloop
  endfacet
  facet normal 4.389785e-13 9.876713e-01 1.565418e-01
    outer loop
      vertex -6.012583e+00 5.441639e+01 -3.299213e+02
      vertex -6.345912e+00 6.042377e+01 -3.678238e+02
      vertex -7.127365e+00 6.109823e+01 -3.720792e+02
    endloop
  endfacet
  facet normal 9.839451e-01 2.960596e-02 -1.759987e-01
    outer loop
      vertex -6.975786e+00 5.737678e+01 -3.718578e+02
      vertex -7.127365e+00 6.109823e+01 -3.720792e+02
      vertex -6.345912e+00 6.042377e+01 -3.678238e+02
    endloop
  endfacet
  facet normal 4.281280e-13 9.876713e-01 1.565418e-01
    outer loop
      vertex -7.129067e+00 5.321721e+01 -3.223554e+02
      vertex -6.012583e+00 5.441639e+01 -3.299213e+02
      vertex -7.127365e+00 6.109823e+01 -3.720792e+02
    endloop
  endfacet
  facet normal 9.781520e-01 2.758187e-02 -2.060531e-01
    outer loop
      vertex -7.795859e+00 5.794352e+01 -3.756749e+02
      vertex -7.127365e+00 6.109823e+01 -3.720792e+02
      vertex -6.975786e+00 5.737678e+01 -3.718578e+02
    endloop
  endfacet
  facet normal 9.762504e-01 3.652340e-02 -2.135445e-01
    outer loop
      vertex -8.079778e+00 6.169085e+01 -3.763319e+02
      vertex -7.127365e+00 6.109823e+01 -3.720792e+02
      vertex -7.795859e+00 5.794352e+01 -3.756749e+02
    endloop
  endfacet
  facet normal 4.200900e-13 9.876713e-01 1.565418e-01
    outer loop
      vertex -6.012583e+00 5.441639e+01 -3.299213e+02
      vertex -5.728048e+00 5.974187e+01 -3.635215e+02
      vertex -6.345912e+00 6.042377e+01 -3.678238e+02
    endloop
  endfacet
  facet normal 9.900810e-01 2.614893e-02 -1.380431e-01
    outer loop
      vertex -6.088627e+00 5.661108e+01 -3.667007e+02
      vertex -6.345912e+00 6.042377e+01 -3.678238e+02
      vertex -5.728048e+00 5.974187e+01 -3.635215e+02
    endloop
  endfacet
  facet normal 9.858023e-01 1.732647e-02 -1.670136e-01
    outer loop
      vertex -6.975786e+00 5.737678e+01 -3.718578e+02
      vertex -6.345912e+00 6.042377e+01 -3.678238e+02
      vertex -6.088627e+00 5.661108e+01 -3.667007e+02
    endloop
  endfacet
  facet normal 4.318747e-13 9.876713e-01 1.565418e-01
    outer loop
      vertex -5.264000e+00 5.556351e+01 -3.371589e+02
      vertex -5.264000e+00 5.903787e+01 -3.590797e+02
      vertex -5.728048e+00 5.974187e+01 -3.635215e+02
    endloop
  endfacet
  facet normal 9.944287e-01 -7.779877e-03 -1.051241e-01
    outer loop
      vertex -6.088627e+00 5.661108e+01 -3.667007e+02
      vertex -5.728048e+00 5.974187e+01 -3.635215e+02
      vertex -5.264000e+00 5.903787e+01 -3.590797e+02
    endloop
  endfacet
  facet normal 4.029605e-13 9.876713e-01 1.565418e-01
    outer loop
      vertex -6.012583e+00 5.441639e+01 -3.299213e+02
      vertex -5.264000e+00 5.556351e+01 -3.371589e+02
      vertex -5.728048e+00 5.974187e+01 -3.635215e+02
    endloop
  endfacet
  facet normal 7.071068e-01 6.983891e-01 1.106918e-01
    outer loop
      vertex -4.933437e+00 5.789114e+01 -3.539563e+02
      vertex -5.264000e+00 5.903787e+01 -3.590797e+02
      vertex -5.264000e+00 5.556351e+01 -3.371589e+02
    endloop
  endfacet
  facet normal 9.934727e-01 1.675297e-02 -1.128328e-01
    outer loop
      vertex -6.088627e+00 5.661108e+01 -3.667007e+02
      vertex -5.264000e+00 5.903787e+01 -3.590797e+02
      vertex -5.264000e+00 5.555629e+01 -3.595966e+02
    endloop
  endfacet
  facet normal 9.980133e-01 9.253149e-03 -6.232080e-02
    outer loop
      vertex -4.933437e+00 5.789114e+01 -3.539563e+02
      vertex -5.264000e+00 5.555629e+01 -3.595966e+02
      vertex -5.264000e+00 5.903787e+01 -3.590797e+02
    endloop
  endfacet
  facet normal 9.948222e-01 -1.492612e-02 1.005287e-01
    outer loop
      vertex -5.264000e+00 5.229684e+01 -3.376439e+02
      vertex -5.264000e+00 5.556351e+01 -3.371589e+02
      vertex -6.012583e+00 5.441639e+01 -3.299213e+02
    endloop
  endfacet
  facet normal 9.982548e-01 -8.673059e-03 5.841383e-02
    outer loop
      vertex -4.923378e+00 5.347941e+01 -3.432894e+02
      vertex -5.264000e+00 5.556351e+01 -3.371589e+02
      vertex -5.264000e+00 5.229684e+01 -3.376439e+02
    endloop
  endfacet
  facet normal 7.071068e-01 6.983891e-01 1.106918e-01
    outer loop
      vertex -4.814631e+00 5.691438e+01 -3.485525e+02
      vertex -5.264000e+00 5.556351e+01 -3.371589e+02
      vertex -4.923531e+00 5.612749e+01 -3.428922e+02
    endloop
  endfacet
  facet normal 9.982538e-01 -8.705991e-03 5.842498e-02
    outer loop
      vertex -4.923378e+00 5.347941e+01 -3.432894e+02
      vertex -4.923531e+00 5.612749e+01 -3.428922e+02
      vertex -5.264000e+00 5.556351e+01 -3.371589e+02
    endloop
  endfacet
  facet normal 7.071068e-01 6.983891e-01 1.106918e-01
    outer loop
      vertex -4.933437e+00 5.789114e+01 -3.539563e+02
      vertex -5.264000e+00 5.556351e+01 -3.371589e+02
      vertex -4.814631e+00 5.691438e+01 -3.485525e+02
    endloop
  endfacet
  facet normal 9.894888e-01 -1.203838e-02 1.441074e-01
    outer loop
      vertex -6.823055e+00 5.037409e+01 -3.246941e+02
      vertex -6.012583e+00 5.441639e+01 -3.299213e+02
      vertex -7.129067e+00 5.321721e+01 -3.223554e+02
    endloop
  endfacet
  facet normal 9.907041e-01 -2.595296e-02 1.335356e-01
    outer loop
      vertex -5.863858e+00 5.140106e+01 -3.316108e+02
      vertex -6.012583e+00 5.441639e+01 -3.299213e+02
      vertex -6.823055e+00 5.037409e+01 -3.246941e+02
    endloop
  endfacet
  facet normal 9.951618e-01 -5.865094e-03 9.807476e-02
    outer loop
      vertex -5.264000e+00 5.229684e+01 -3.376439e+02
      vertex -6.012583e+00 5.441639e+01 -3.299213e+02
      vertex -5.863858e+00 5.140106e+01 -3.316108e+02
    endloop
  endfacet
  facet normal 9.837827e-01 -1.752063e-02 1.785067e-01
    outer loop
      vertex -7.706110e+00 4.960728e+01 -3.195295e+02
      vertex -7.129067e+00 5.321721e+01 -3.223554e+02
      vertex -8.421127e+00 5.210589e+01 -3.153437e+02
    endloop
  endfacet
  facet normal 9.859870e-01 -2.900926e-02 1.642805e-01
    outer loop
      vertex -6.823055e+00 5.037409e+01 -3.246941e+02
      vertex -7.129067e+00 5.321721e+01 -3.223554e+02
      vertex -7.706110e+00 4.960728e+01 -3.195295e+02
    endloop
  endfacet
  facet normal 9.817965e-01 -3.253367e-02 1.871290e-01
    outer loop
      vertex -7.706110e+00 4.960728e+01 -3.195295e+02
      vertex -8.421127e+00 5.210589e+01 -3.153437e+02
      vertex -8.803626e+00 4.877383e+01 -3.139161e+02
    endloop
  endfacet
  facet normal -2.700924e-12 1.468661e-01 -9.891564e-01
    outer loop
      vertex -1.630640e+02 5.942841e+01 -3.786898e+02
      vertex -1.630640e+02 6.198458e+01 -3.783102e+02
      vertex -9.164116e+00 6.198458e+01 -3.783102e+02
    endloop
  endfacet
  facet normal 3.991558e-13 9.891564e-01 1.468661e-01
    outer loop
      vertex -8.079778e+00 6.169085e+01 -3.763319e+02
      vertex -9.164116e+00 6.198458e+01 -3.783102e+02
      vertex -1.630640e+02 6.198458e+01 -3.783102e+02
    endloop
  endfacet
  facet normal -2.700911e-12 1.468661e-01 -9.891564e-01
    outer loop
      vertex -9.164116e+00 5.942841e+01 -3.786898e+02
      vertex -1.630640e+02 5.942841e+01 -3.786898e+02
      vertex -9.164116e+00 6.198458e+01 -3.783102e+02
    endloop
  endfacet
  facet normal 3.241207e-01 1.389376e-01 -9.357575e-01
    outer loop
      vertex -8.704245e+00 6.196144e+01 -3.781544e+02
      vertex -9.164116e+00 5.942841e+01 -3.786898e+02
      vertex -9.164116e+00 6.198458e+01 -3.783102e+02
    endloop
  endfacet
  facet normal 4.485260e-13 9.891564e-01 1.468661e-01
    outer loop
      vertex -8.704245e+00 6.196144e+01 -3.781544e+02
      vertex -9.164116e+00 6.198458e+01 -3.783102e+02
      vertex -8.079778e+00 6.169085e+01 -3.763319e+02
    endloop
  endfacet
  facet normal -3.827076e-01 1.356851e-01 -9.138514e-01
    outer loop
      vertex -1.635943e+02 5.939615e+01 -3.784725e+02
      vertex -1.630640e+02 6.198458e+01 -3.783102e+02
      vertex -1.630640e+02 5.942841e+01 -3.786898e+02
    endloop
  endfacet
  facet normal -3.827076e-01 1.356851e-01 -9.138514e-01
    outer loop
      vertex -1.635943e+02 6.195232e+01 -3.780929e+02
      vertex -1.630640e+02 6.198458e+01 -3.783102e+02
      vertex -1.635943e+02 5.939615e+01 -3.784725e+02
    endloop
  endfacet
  facet normal 3.998177e-13 9.891564e-01 1.468661e-01
    outer loop
      vertex -1.635943e+02 6.195232e+01 -3.780929e+02
      vertex -8.079778e+00 6.169085e+01 -3.763319e+02
      vertex -1.630640e+02 6.198458e+01 -3.783102e+02
    endloop
  endfacet
  facet normal 3.992469e-13 9.891564e-01 1.468661e-01
    outer loop
      vertex -1.630640e+02 5.979558e+01 -3.811627e+02
      vertex -1.630640e+02 5.942841e+01 -3.786898e+02
      vertex -9.164116e+00 5.942841e+01 -3.786898e+02
    endloop
  endfacet
  facet normal 4.584455e-13 9.891564e-01 1.468661e-01
    outer loop
      vertex -1.630640e+02 5.979558e+01 -3.811627e+02
      vertex -1.635943e+02 5.982784e+01 -3.813800e+02
      vertex -1.630640e+02 5.942841e+01 -3.786898e+02
    endloop
  endfacet
  facet normal 3.920113e-13 9.891564e-01 1.468661e-01
    outer loop
      vertex -1.635943e+02 5.939615e+01 -3.784725e+02
      vertex -1.630640e+02 5.942841e+01 -3.786898e+02
      vertex -1.635943e+02 5.982784e+01 -3.813800e+02
    endloop
  endfacet
  facet normal 3.990827e-13 9.891564e-01 1.468661e-01
    outer loop
      vertex -1.026557e+01 5.979558e+01 -3.811627e+02
      vertex -1.630640e+02 5.979558e+01 -3.811627e+02
      vertex -9.164116e+00 5.942841e+01 -3.786898e+02
    endloop
  endfacet
  facet normal 3.898844e-13 9.891564e-01 1.468661e-01
    outer loop
      vertex -9.664867e+00 5.983978e+01 -3.814603e+02
      vertex -1.026557e+01 5.979558e+01 -3.811627e+02
      vertex -9.164116e+00 5.942841e+01 -3.786898e+02
    endloop
  endfacet
  facet normal 4.046334e-13 9.891564e-01 1.468661e-01
    outer loop
      vertex -9.546231e+00 5.993690e+01 -3.821145e+02
      vertex -9.664867e+00 5.983978e+01 -3.814603e+02
      vertex -9.164116e+00 5.942841e+01 -3.786898e+02
    endloop
  endfacet
  facet normal 4.249147e-13 9.891564e-01 1.468661e-01
    outer loop
      vertex -9.001234e+00 5.965659e+01 -3.802266e+02
      vertex -9.546231e+00 5.993690e+01 -3.821145e+02
      vertex -9.164116e+00 5.942841e+01 -3.786898e+02
    endloop
  endfacet
  facet normal 4.420945e-13 9.891564e-01 1.468661e-01
    outer loop
      vertex -8.704245e+00 5.940527e+01 -3.785339e+02
      vertex -9.001234e+00 5.965659e+01 -3.802266e+02
      vertex -9.164116e+00 5.942841e+01 -3.786898e+02
    endloop
  endfacet
  facet normal 3.241207e-01 1.389376e-01 -9.357575e-01
    outer loop
      vertex -8.704245e+00 6.196144e+01 -3.781544e+02
      vertex -8.704245e+00 5.940527e+01 -3.785339e+02
      vertex -9.164116e+00 5.942841e+01 -3.786898e+02
    endloop
  endfacet
  facet normal 3.435943e-13 9.891564e-01 1.468661e-01
    outer loop
      vertex -1.635943e+02 5.939615e+01 -3.784725e+02
      vertex -1.638140e+02 5.990573e+01 -3.819045e+02
      vertex -1.638140e+02 5.931826e+01 -3.779479e+02
    endloop
  endfacet
  facet normal -9.238695e-01 5.620677e-02 -3.785577e-01
    outer loop
      vertex -1.635943e+02 6.195232e+01 -3.780929e+02
      vertex -1.635943e+02 5.939615e+01 -3.784725e+02
      vertex -1.638140e+02 5.931826e+01 -3.779479e+02
    endloop
  endfacet
  facet normal -9.238695e-01 5.620677e-02 -3.785577e-01
    outer loop
      vertex -1.635943e+02 6.195232e+01 -3.780929e+02
      vertex -1.638140e+02 5.931826e+01 -3.779479e+02
      vertex -1.638140e+02 6.187443e+01 -3.775684e+02
    endloop
  endfacet
  facet normal 3.541856e-13 9.891564e-01 1.468661e-01
    outer loop
      vertex -1.635943e+02 5.939615e+01 -3.784725e+02
      vertex -1.635943e+02 5.982784e+01 -3.813800e+02
      vertex -1.638140e+02 5.990573e+01 -3.819045e+02
    endloop
  endfacet
  facet normal -9.238695e-01 -5.620677e-02 3.785577e-01
    outer loop
      vertex -1.638140e+02 6.191767e+01 -3.816058e+02
      vertex -1.638140e+02 5.990573e+01 -3.819045e+02
      vertex -1.635943e+02 5.982784e+01 -3.813800e+02
    endloop
  endfacet
  facet normal -1.000000e+00 -4.660460e-15 2.790541e-12
    outer loop
      vertex -1.638140e+02 6.196907e+01 -3.819520e+02
      vertex -1.638140e+02 5.990573e+01 -3.819045e+02
      vertex -1.638140e+02 6.191767e+01 -3.816058e+02
    endloop
  endfacet
  facet normal -1.000000e+00 -6.712107e-15 2.701381e-12
    outer loop
      vertex -1.638140e+02 5.894226e+01 -3.824014e+02
      vertex -1.638140e+02 5.990573e+01 -3.819045e+02
      vertex -1.638140e+02 6.196907e+01 -3.819520e+02
    endloop
  endfacet
  facet normal -3.827076e-01 -1.356851e-01 9.138514e-01
    outer loop
      vertex -1.635943e+02 6.183979e+01 -3.810812e+02
      vertex -1.635943e+02 5.982784e+01 -3.813800e+02
      vertex -1.630640e+02 5.979558e+01 -3.811627e+02
    endloop
  endfacet
  facet normal -9.238695e-01 -5.620677e-02 3.785577e-01
    outer loop
      vertex -1.638140e+02 6.191767e+01 -3.816058e+02
      vertex -1.635943e+02 5.982784e+01 -3.813800e+02
      vertex -1.635943e+02 6.183979e+01 -3.810812e+02
    endloop
  endfacet
  facet normal 2.700523e-12 -1.468661e-01 9.891564e-01
    outer loop
      vertex -1.630640e+02 6.180752e+01 -3.808639e+02
      vertex -1.630640e+02 5.979558e+01 -3.811627e+02
      vertex -1.026557e+01 5.979558e+01 -3.811627e+02
    endloop
  endfacet
  facet normal -3.827076e-01 -1.356851e-01 9.138514e-01
    outer loop
      vertex -1.635943e+02 6.183979e+01 -3.810812e+02
      vertex -1.630640e+02 5.979558e+01 -3.811627e+02
      vertex -1.630640e+02 6.180752e+01 -3.808639e+02
    endloop
  endfacet
  facet normal 4.479133e-01 -1.313096e-01 8.843820e-01
    outer loop
      vertex -1.026557e+01 6.180752e+01 -3.808639e+02
      vertex -1.026557e+01 5.979558e+01 -3.811627e+02
      vertex -9.664867e+00 5.983978e+01 -3.814603e+02
    endloop
  endfacet
  facet normal 2.700523e-12 -1.468661e-01 9.891564e-01
    outer loop
      vertex -1.026557e+01 6.180752e+01 -3.808639e+02
      vertex -1.630640e+02 6.180752e+01 -3.808639e+02
      vertex -1.026557e+01 5.979558e+01 -3.811627e+02
    endloop
  endfacet
  facet normal 9.842871e-01 -2.593296e-02 1.746608e-01
    outer loop
      vertex -9.664867e+00 6.185172e+01 -3.811616e+02
      vertex -9.664867e+00 5.983978e+01 -3.814603e+02
      vertex -9.546231e+00 5.993690e+01 -3.821145e+02
    endloop
  endfacet
  facet normal 4.479133e-01 -1.313096e-01 8.843820e-01
    outer loop
      vertex -9.664867e+00 6.185172e+01 -3.811616e+02
      vertex -1.026557e+01 6.180752e+01 -3.808639e+02
      vertex -9.664867e+00 5.983978e+01 -3.814603e+02
    endloop
  endfacet
  facet normal 9.615660e-01 3.927331e-02 -2.717505e-01
    outer loop
      vertex -9.586699e+00 5.894226e+01 -3.824014e+02
      vertex -9.546231e+00 5.993690e+01 -3.821145e+02
      vertex -9.001234e+00 5.965659e+01 -3.802266e+02
    endloop
  endfacet
  facet normal 9.842871e-01 -2.593296e-02 1.746608e-01
    outer loop
      vertex -9.664867e+00 6.185172e+01 -3.811616e+02
      vertex -9.546231e+00 5.993690e+01 -3.821145e+02
      vertex -9.546231e+00 6.194884e+01 -3.818157e+02
    endloop
  endfacet
  facet normal 9.594520e-01 4.139743e-02 -2.788154e-01
    outer loop
      vertex -9.586699e+00 5.894226e+01 -3.824014e+02
      vertex -9.546231e+00 6.194884e+01 -3.818157e+02
      vertex -9.546231e+00 5.993690e+01 -3.821145e+02
    endloop
  endfacet
  facet normal 2.352889e-13 9.891564e-01 1.468661e-01
    outer loop
      vertex -8.704245e+00 5.940527e+01 -3.785339e+02
      vertex -8.437550e+00 5.934558e+01 -3.781319e+02
      vertex -9.001234e+00 5.965659e+01 -3.802266e+02
    endloop
  endfacet
  facet normal 9.656392e-01 -1.869957e-04 -2.598862e-01
    outer loop
      vertex -9.586699e+00 5.894226e+01 -3.824014e+02
      vertex -9.001234e+00 5.965659e+01 -3.802266e+02
      vertex -8.437550e+00 5.934558e+01 -3.781319e+02
    endloop
  endfacet
  facet normal 8.360665e-01 8.057487e-02 -5.426791e-01
    outer loop
      vertex -8.437550e+00 6.190175e+01 -3.777524e+02
      vertex -8.437550e+00 5.934558e+01 -3.781319e+02
      vertex -8.704245e+00 5.940527e+01 -3.785339e+02
    endloop
  endfacet
  facet normal 9.658443e-01 -1.159864e-02 -2.588634e-01
    outer loop
      vertex -7.795859e+00 5.794352e+01 -3.756749e+02
      vertex -9.586699e+00 5.894226e+01 -3.824014e+02
      vertex -8.437550e+00 5.934558e+01 -3.781319e+02
    endloop
  endfacet
  facet normal 9.714001e-01 3.235281e-02 -2.352343e-01
    outer loop
      vertex -8.079778e+00 6.169085e+01 -3.763319e+02
      vertex -7.795859e+00 5.794352e+01 -3.756749e+02
      vertex -8.437550e+00 5.934558e+01 -3.781319e+02
    endloop
  endfacet
  facet normal 9.710876e-01 3.328821e-02 -2.363910e-01
    outer loop
      vertex -8.262564e+00 6.180006e+01 -3.770674e+02
      vertex -8.079778e+00 6.169085e+01 -3.763319e+02
      vertex -8.437550e+00 5.934558e+01 -3.781319e+02
    endloop
  endfacet
  facet normal 9.695222e-01 3.598268e-02 -2.423466e-01
    outer loop
      vertex -8.437550e+00 6.190175e+01 -3.777524e+02
      vertex -8.262564e+00 6.180006e+01 -3.770674e+02
      vertex -8.437550e+00 5.934558e+01 -3.781319e+02
    endloop
  endfacet
  facet normal 8.360665e-01 8.057487e-02 -5.426791e-01
    outer loop
      vertex -8.704245e+00 6.196144e+01 -3.781544e+02
      vertex -8.437550e+00 6.190175e+01 -3.777524e+02
      vertex -8.704245e+00 5.940527e+01 -3.785339e+02
    endloop
  endfacet
  facet normal 3.990826e-13 9.891564e-01 1.468661e-01
    outer loop
      vertex -1.638140e+02 6.196907e+01 -3.819520e+02
      vertex -1.630640e+02 6.180752e+01 -3.808639e+02
      vertex -1.026557e+01 6.180752e+01 -3.808639e+02
    endloop
  endfacet
  facet normal 4.588472e-13 9.891564e-01 1.468661e-01
    outer loop
      vertex -1.638140e+02 6.196907e+01 -3.819520e+02
      vertex -1.635943e+02 6.183979e+01 -3.810812e+02
      vertex -1.630640e+02 6.180752e+01 -3.808639e+02
    endloop
  endfacet
  facet normal 3.990494e-13 9.891564e-01 1.468661e-01
    outer loop
      vertex -9.664867e+00 6.185172e+01 -3.811616e+02
      vertex -1.638140e+02 6.196907e+01 -3.819520e+02
      vertex -1.026557e+01 6.180752e+01 -3.808639e+02
    endloop
  endfacet
  facet normal 3.828243e-13 9.891564e-01 1.468661e-01
    outer loop
      vertex -1.638140e+02 6.196907e+01 -3.819520e+02
      vertex -1.638140e+02 6.191767e+01 -3.816058e+02
      vertex -1.635943e+02 6.183979e+01 -3.810812e+02
    endloop
  endfacet
  facet normal 3.991744e-13 9.891564e-01 1.468661e-01
    outer loop
      vertex -9.664867e+00 6.185172e+01 -3.811616e+02
      vertex -9.586699e+00 6.196907e+01 -3.819520e+02
      vertex -1.638140e+02 6.196907e+01 -3.819520e+02
    endloop
  endfacet
  facet normal -2.701024e-12 1.468661e-01 -9.891564e-01
    outer loop
      vertex -1.638140e+02 5.894226e+01 -3.824014e+02
      vertex -1.638140e+02 6.196907e+01 -3.819520e+02
      vertex -9.586699e+00 6.196907e+01 -3.819520e+02
    endloop
  endfacet
  facet normal 1.584413e-13 9.891564e-01 1.468661e-01
    outer loop
      vertex -9.664867e+00 6.185172e+01 -3.811616e+02
      vertex -9.566762e+00 6.195902e+01 -3.818843e+02
      vertex -9.586699e+00 6.196907e+01 -3.819520e+02
    endloop
  endfacet
  facet normal 9.601472e-01 4.104832e-02 -2.764641e-01
    outer loop
      vertex -9.586699e+00 5.894226e+01 -3.824014e+02
      vertex -9.586699e+00 6.196907e+01 -3.819520e+02
      vertex -9.566762e+00 6.195902e+01 -3.818843e+02
    endloop
  endfacet
  facet normal -2.701010e-12 1.468661e-01 -9.891564e-01
    outer loop
      vertex -9.586699e+00 5.894226e+01 -3.824014e+02
      vertex -1.638140e+02 5.894226e+01 -3.824014e+02
      vertex -9.586699e+00 6.196907e+01 -3.819520e+02
    endloop
  endfacet
  facet normal 9.264903e-13 9.891564e-01 1.468661e-01
    outer loop
      vertex -9.664867e+00 6.185172e+01 -3.811616e+02
      vertex -9.546231e+00 6.194884e+01 -3.818157e+02
      vertex -9.566762e+00 6.195902e+01 -3.818843e+02
    endloop
  endfacet
  facet normal 9.587598e-01 4.185540e-02 -2.811187e-01
    outer loop
      vertex -9.586699e+00 5.894226e+01 -3.824014e+02
      vertex -9.566762e+00 6.195902e+01 -3.818843e+02
      vertex -9.546231e+00 6.194884e+01 -3.818157e+02
    endloop
  endfacet
  facet normal -3.992708e-13 -9.891564e-01 -1.468661e-01
    outer loop
      vertex -1.470050e+02 5.241700e+01 -3.384532e+02
      vertex -1.638140e+02 5.894226e+01 -3.824014e+02
      vertex -9.586699e+00 5.894226e+01 -3.824014e+02
    endloop
  endfacet
  facet normal -3.187477e-13 -9.891564e-01 -1.468661e-01
    outer loop
      vertex -1.012036e+01 4.787871e+01 -3.078874e+02
      vertex -1.050001e+01 4.759966e+01 -3.060080e+02
      vertex -9.586699e+00 5.894226e+01 -3.824014e+02
    endloop
  endfacet
  facet normal -3.992853e-13 -9.891564e-01 -1.468661e-01
    outer loop
      vertex -4.826400e+01 5.219670e+01 -3.369695e+02
      vertex -9.586699e+00 5.894226e+01 -3.824014e+02
      vertex -1.050001e+01 4.759966e+01 -3.060080e+02
    endloop
  endfacet
  facet normal -4.139366e-13 -9.891564e-01 -1.468661e-01
    outer loop
      vertex -8.803626e+00 4.877383e+01 -3.139161e+02
      vertex -1.012036e+01 4.787871e+01 -3.078874e+02
      vertex -9.586699e+00 5.894226e+01 -3.824014e+02
    endloop
  endfacet
  facet normal -4.041150e-13 -9.891564e-01 -1.468661e-01
    outer loop
      vertex -7.795859e+00 5.794352e+01 -3.756749e+02
      vertex -8.803626e+00 4.877383e+01 -3.139161e+02
      vertex -9.586699e+00 5.894226e+01 -3.824014e+02
    endloop
  endfacet
  facet normal -3.923604e-13 -9.891564e-01 -1.468661e-01
    outer loop
      vertex -4.826400e+01 5.219670e+01 -3.369695e+02
      vertex -4.976400e+01 5.241700e+01 -3.384532e+02
      vertex -9.586699e+00 5.894226e+01 -3.824014e+02
    endloop
  endfacet
  facet normal -3.993676e-13 -9.891564e-01 -1.468661e-01
    outer loop
      vertex -1.470050e+02 5.241700e+01 -3.384532e+02
      vertex -9.586699e+00 5.894226e+01 -3.824014e+02
      vertex -4.976400e+01 5.241700e+01 -3.384532e+02
    endloop
  endfacet
  facet normal -2.445185e-13 -9.891564e-01 -1.468661e-01
    outer loop
      vertex -1.470050e+02 5.197640e+01 -3.354857e+02
      vertex -1.264847e+02 4.759536e+01 -3.059790e+02
      vertex -1.265140e+02 4.758497e+01 -3.059091e+02
    endloop
  endfacet
  facet normal -3.565382e-13 -9.891564e-01 -1.468661e-01
    outer loop
      vertex -1.470050e+02 5.197640e+01 -3.354857e+02
      vertex -1.264140e+02 4.759966e+01 -3.060080e+02
      vertex -1.264847e+02 4.759536e+01 -3.059790e+02
    endloop
  endfacet
  facet normal -3.993215e-13 -9.891564e-01 -1.468661e-01
    outer loop
      vertex -4.976400e+01 5.197640e+01 -3.354857e+02
      vertex -1.050001e+01 4.759966e+01 -3.060080e+02
      vertex -1.264140e+02 4.759966e+01 -3.060080e+02
    endloop
  endfacet
  facet normal -3.991959e-13 -9.891564e-01 -1.468661e-01
    outer loop
      vertex -1.470050e+02 5.197640e+01 -3.354857e+02
      vertex -4.976400e+01 5.197640e+01 -3.354857e+02
      vertex -1.264140e+02 4.759966e+01 -3.060080e+02
    endloop
  endfacet
  facet normal -4.013283e-13 -9.891564e-01 -1.468661e-01
    outer loop
      vertex -4.976400e+01 5.197640e+01 -3.354857e+02
      vertex -4.826400e+01 5.219670e+01 -3.369695e+02
      vertex -1.050001e+01 4.759966e+01 -3.060080e+02
    endloop
  endfacet
  facet normal -3.946125e-13 -9.891564e-01 -1.468661e-01
    outer loop
      vertex -7.795859e+00 5.794352e+01 -3.756749e+02
      vertex -7.706110e+00 4.960728e+01 -3.195295e+02
      vertex -8.803626e+00 4.877383e+01 -3.139161e+02
    endloop
  endfacet
  facet normal 9.755788e-01 -4.924826e-02 2.140574e-01
    outer loop
      vertex -9.889709e+00 5.092249e+01 -3.084719e+02
      vertex -1.004913e+01 5.081817e+01 -3.077693e+02
      vertex -8.803626e+00 4.877383e+01 -3.139161e+02
    endloop
  endfacet
  facet normal 9.761345e-01 -4.493675e-02 2.124667e-01
    outer loop
      vertex -9.733199e+00 5.102600e+01 -3.091691e+02
      vertex -9.889709e+00 5.092249e+01 -3.084719e+02
      vertex -8.803626e+00 4.877383e+01 -3.139161e+02
    endloop
  endfacet
  facet normal -4.014612e-13 -9.891564e-01 -1.468661e-01
    outer loop
      vertex -6.975786e+00 5.737678e+01 -3.718578e+02
      vertex -6.823055e+00 5.037409e+01 -3.246941e+02
      vertex -7.706110e+00 4.960728e+01 -3.195295e+02
    endloop
  endfacet
  facet normal -4.018570e-13 -9.891564e-01 -1.468661e-01
    outer loop
      vertex -7.795859e+00 5.794352e+01 -3.756749e+02
      vertex -6.975786e+00 5.737678e+01 -3.718578e+02
      vertex -7.706110e+00 4.960728e+01 -3.195295e+02
    endloop
  endfacet
  facet normal -4.183557e-13 -9.891564e-01 -1.468661e-01
    outer loop
      vertex -6.088627e+00 5.661108e+01 -3.667007e+02
      vertex -5.863858e+00 5.140106e+01 -3.316108e+02
      vertex -6.823055e+00 5.037409e+01 -3.246941e+02
    endloop
  endfacet
  facet normal -3.927286e-13 -9.891564e-01 -1.468661e-01
    outer loop
      vertex -6.975786e+00 5.737678e+01 -3.718578e+02
      vertex -6.088627e+00 5.661108e+01 -3.667007e+02
      vertex -6.823055e+00 5.037409e+01 -3.246941e+02
    endloop
  endfacet
  facet normal -3.810805e-13 -9.891564e-01 -1.468661e-01
    outer loop
      vertex -5.264000e+00 5.555629e+01 -3.595966e+02
      vertex -5.264000e+00 5.229684e+01 -3.376439e+02
      vertex -5.863858e+00 5.140106e+01 -3.316108e+02
    endloop
  endfacet
  facet normal -3.971874e-13 -9.891564e-01 -1.468661e-01
    outer loop
      vertex -6.088627e+00 5.661108e+01 -3.667007e+02
      vertex -5.264000e+00 5.555629e+01 -3.595966e+02
      vertex -5.863858e+00 5.140106e+01 -3.316108e+02
    endloop
  endfacet
  facet normal 7.071068e-01 -6.994392e-01 -1.038500e-01
    outer loop
      vertex -4.923378e+00 5.347941e+01 -3.432894e+02
      vertex -5.264000e+00 5.229684e+01 -3.376439e+02
      vertex -5.264000e+00 5.555629e+01 -3.595966e+02
    endloop
  endfacet
  facet normal 9.980121e-01 9.286360e-03 -6.233448e-02
    outer loop
      vertex -4.933614e+00 5.511468e+01 -3.543728e+02
      vertex -5.264000e+00 5.555629e+01 -3.595966e+02
      vertex -4.933437e+00 5.789114e+01 -3.539563e+02
    endloop
  endfacet
  facet normal 7.071068e-01 -6.994392e-01 -1.038500e-01
    outer loop
      vertex -4.814638e+00 5.442660e+01 -3.489284e+02
      vertex -5.264000e+00 5.555629e+01 -3.595966e+02
      vertex -4.933614e+00 5.511468e+01 -3.543728e+02
    endloop
  endfacet
  facet normal 7.071068e-01 -6.994392e-01 -1.038500e-01
    outer loop
      vertex -4.923378e+00 5.347941e+01 -3.432894e+02
      vertex -5.264000e+00 5.555629e+01 -3.595966e+02
      vertex -4.814638e+00 5.442660e+01 -3.489284e+02
    endloop
  endfacet
  facet normal 3.993251e-13 9.891564e-01 1.468661e-01
    outer loop
      vertex -1.638140e+02 5.102600e+01 -3.091691e+02
      vertex -1.004913e+01 5.081817e+01 -3.077693e+02
      vertex -9.889709e+00 5.092249e+01 -3.084719e+02
    endloop
  endfacet
  facet normal 3.992027e-13 9.891564e-01 1.468661e-01
    outer loop
      vertex -1.031239e+01 5.075638e+01 -3.073532e+02
      vertex -1.004913e+01 5.081817e+01 -3.077693e+02
      vertex -1.638140e+02 5.102600e+01 -3.091691e+02
    endloop
  endfacet
  facet normal 3.993201e-13 9.891564e-01 1.468661e-01
    outer loop
      vertex -1.638140e+02 5.102600e+01 -3.091691e+02
      vertex -9.889709e+00 5.092249e+01 -3.084719e+02
      vertex -9.733199e+00 5.102600e+01 -3.091691e+02
    endloop
  endfacet
  facet normal 9.998185e-01 -2.769788e-03 1.885046e-02
    outer loop
      vertex -4.923378e+00 5.347941e+01 -3.432894e+02
      vertex -4.814631e+00 5.691438e+01 -3.485525e+02
      vertex -4.923531e+00 5.612749e+01 -3.428922e+02
    endloop
  endfacet
  facet normal 9.997658e-01 3.230011e-03 -2.139680e-02
    outer loop
      vertex -4.814638e+00 5.442660e+01 -3.489284e+02
      vertex -4.933437e+00 5.789114e+01 -3.539563e+02
      vertex -4.814631e+00 5.691438e+01 -3.485525e+02
    endloop
  endfacet
  facet normal 9.998192e-01 -2.843372e-03 1.880245e-02
    outer loop
      vertex -4.923378e+00 5.347941e+01 -3.432894e+02
      vertex -4.814638e+00 5.442660e+01 -3.489284e+02
      vertex -4.814631e+00 5.691438e+01 -3.485525e+02
    endloop
  endfacet
  facet normal 9.997650e-01 3.153610e-03 -2.144942e-02
    outer loop
      vertex -4.814638e+00 5.442660e+01 -3.489284e+02
      vertex -4.933614e+00 5.511468e+01 -3.543728e+02
      vertex -4.933437e+00 5.789114e+01 -3.539563e+02
    endloop
  endfacet
  facet normal 3.587870e-12 9.891564e-01 1.468661e-01
    outer loop
      vertex -8.437550e+00 6.190175e+01 -3.777524e+02
      vertex -8.079778e+00 6.169085e+01 -3.763319e+02
      vertex -8.262564e+00 6.180006e+01 -3.770674e+02
    endloop
  endfacet
  facet normal 2.002467e-13 9.891564e-01 1.468661e-01
    outer loop
      vertex -8.704245e+00 6.196144e+01 -3.781544e+02
      vertex -8.079778e+00 6.169085e+01 -3.763319e+02
      vertex -8.437550e+00 6.190175e+01 -3.777524e+02
    endloop
  endfacet
  facet normal 3.992619e-13 9.891564e-01 1.468661e-01
    outer loop
      vertex -1.638140e+02 6.169085e+01 -3.763319e+02
      vertex -8.079778e+00 6.169085e+01 -3.763319e+02
      vertex -1.638140e+02 6.187443e+01 -3.775684e+02
    endloop
  endfacet
  facet normal 3.989734e-13 9.891564e-01 1.468661e-01
    outer loop
      vertex -1.635943e+02 6.195232e+01 -3.780929e+02
      vertex -1.638140e+02 6.187443e+01 -3.775684e+02
      vertex -8.079778e+00 6.169085e+01 -3.763319e+02
    endloop
  endfacet
  facet normal 3.966212e-13 9.891564e-01 1.468661e-01
    outer loop
      vertex -1.635943e+02 5.076453e+01 -3.074081e+02
      vertex -1.638140e+02 5.102600e+01 -3.091691e+02
      vertex -1.638140e+02 5.084241e+01 -3.079326e+02
    endloop
  endfacet
endsolid P1040852002
