solid P1040852002
  facet normal 2.695144e-12 -1.565418e-01 9.876713e-01
    outer loop
      vertex -1.638140e+02 5.269059e+01 -3.047107e+02
      vertex -1.638140e+02 5.050784e+01 -3.050567e+02
      vertex -1.265640e+02 5.050784e+01 -3.050567e+02
    endloop
  endfacet
  facet normal -4.252636e-13 -9.876713e-01 -1.565418e-01
    outer loop
      vertex -1.470050e+02 6.044368e+01 -3.677450e+02
      vertex -1.265640e+02 5.050784e+01 -3.050567e+02
      vertex -1.638140e+02 5.050784e+01 -3.050567e+02
    endloop
  endfacet
  facet normal 2.698159e-12 -1.565418e-01 9.876713e-01
    outer loop
      vertex -1.265640e+02 5.269059e+01 -3.047107e+02
      vertex -1.638140e+02 5.269059e+01 -3.047107e+02
      vertex -1.265640e+02 5.050784e+01 -3.050567e+02
    endloop
  endfacet
  facet normal 7.071068e-01 -1.106918e-01 6.983891e-01
    outer loop
      vertex -1.265140e+02 5.269842e+01 -3.047601e+02
      vertex -1.265640e+02 5.269059e+01 -3.047107e+02
      vertex -1.265640e+02 5.050784e+01 -3.050567e+02
    endloop
  endfacet
  facet normal 7.071068e-01 -1.106918e-01 6.983891e-01
    outer loop
      vertex -1.265140e+02 5.051567e+01 -3.051061e+02
      vertex -1.265140e+02 5.269842e+01 -3.047601e+02
      vertex -1.265640e+02 5.050784e+01 -3.050567e+02
    endloop
  endfacet
  facet normal -2.267192e-13 -9.876713e-01 -1.565418e-01
    outer loop
      vertex -1.265140e+02 5.066438e+01 -3.060443e+02
      vertex -1.265140e+02 5.051567e+01 -3.051061e+02
      vertex -1.265640e+02 5.050784e+01 -3.050567e+02
    endloop
  endfacet
  facet normal -4.958700e-13 -9.876713e-01 -1.565418e-01
    outer loop
      vertex -1.470050e+02 6.044368e+01 -3.677450e+02
      vertex -1.265140e+02 5.066438e+01 -3.060443e+02
      vertex -1.265640e+02 5.050784e+01 -3.050567e+02
    endloop
  endfacet
  facet normal -1.000000e+00 9.960754e-15 2.730383e-12
    outer loop
      vertex -1.638140e+02 5.323536e+01 -3.081478e+02
      vertex -1.638140e+02 5.050784e+01 -3.050567e+02
      vertex -1.638140e+02 5.269059e+01 -3.047107e+02
    endloop
  endfacet
  facet normal -1.000000e+00 1.585745e-13 2.861515e-12
    outer loop
      vertex -1.638140e+02 5.413715e+01 -3.092705e+02
      vertex -1.638140e+02 5.050784e+01 -3.050567e+02
      vertex -1.638140e+02 5.323536e+01 -3.081478e+02
    endloop
  endfacet
  facet normal -1.000000e+00 -7.254636e-14 2.715328e-12
    outer loop
      vertex -1.638140e+02 6.545894e+01 -3.763257e+02
      vertex -1.638140e+02 5.050784e+01 -3.050567e+02
      vertex -1.638140e+02 6.553837e+01 -3.763131e+02
    endloop
  endfacet
  facet normal -1.000000e+00 8.754460e-15 2.732477e-12
    outer loop
      vertex -1.638140e+02 5.413715e+01 -3.092705e+02
      vertex -1.638140e+02 6.553837e+01 -3.763131e+02
      vertex -1.638140e+02 5.050784e+01 -3.050567e+02
    endloop
  endfacet
  facet normal -1.000000e+00 2.389438e-13 2.771638e-12
    outer loop
      vertex -1.638140e+02 6.372846e+01 -3.819155e+02
      vertex -1.638140e+02 5.050784e+01 -3.050567e+02
      vertex -1.638140e+02 6.310229e+01 -3.779648e+02
    endloop
  endfacet
  facet normal -1.000000e+00 -9.343005e-15 2.728748e-12
    outer loop
      vertex -1.638140e+02 6.565462e+01 -3.775603e+02
      vertex -1.638140e+02 6.310229e+01 -3.779648e+02
      vertex -1.638140e+02 5.050784e+01 -3.050567e+02
    endloop
  endfacet
  facet normal -1.000000e+00 -1.742458e-14 2.727539e-12
    outer loop
      vertex -1.638140e+02 6.276989e+01 -3.824218e+02
      vertex -1.638140e+02 5.050784e+01 -3.050567e+02
      vertex -1.638140e+02 6.372846e+01 -3.819155e+02
    endloop
  endfacet
  facet normal -4.252150e-13 -9.876713e-01 -1.565418e-01
    outer loop
      vertex -1.470050e+02 6.091331e+01 -3.707080e+02
      vertex -1.638140e+02 5.050784e+01 -3.050567e+02
      vertex -1.638140e+02 6.276989e+01 -3.824218e+02
    endloop
  endfacet
  facet normal -4.167272e-13 -9.876713e-01 -1.565418e-01
    outer loop
      vertex -1.470050e+02 6.091331e+01 -3.707080e+02
      vertex -1.470050e+02 6.044368e+01 -3.677450e+02
      vertex -1.638140e+02 5.050784e+01 -3.050567e+02
    endloop
  endfacet
  facet normal -1.000000e+00 1.749863e-13 2.767256e-12
    outer loop
      vertex -1.638140e+02 6.545894e+01 -3.763257e+02
      vertex -1.638140e+02 6.565462e+01 -3.775603e+02
      vertex -1.638140e+02 5.050784e+01 -3.050567e+02
    endloop
  endfacet
  facet normal 4.257151e-13 9.876713e-01 1.565418e-01
    outer loop
      vertex -1.630640e+02 5.311795e+01 -3.074071e+02
      vertex -1.638140e+02 5.269059e+01 -3.047107e+02
      vertex -1.265640e+02 5.269059e+01 -3.047107e+02
    endloop
  endfacet
  facet normal 4.554754e-13 9.876713e-01 1.565418e-01
    outer loop
      vertex -1.635943e+02 5.315234e+01 -3.076240e+02
      vertex -1.638140e+02 5.269059e+01 -3.047107e+02
      vertex -1.630640e+02 5.311795e+01 -3.074071e+02
    endloop
  endfacet
  facet normal 3.789614e-13 9.876713e-01 1.565418e-01
    outer loop
      vertex -1.635943e+02 5.315234e+01 -3.076240e+02
      vertex -1.638140e+02 5.323536e+01 -3.081478e+02
      vertex -1.638140e+02 5.269059e+01 -3.047107e+02
    endloop
  endfacet
  facet normal 4.087598e-13 9.876713e-01 1.565418e-01
    outer loop
      vertex -1.265140e+02 5.269842e+01 -3.047601e+02
      vertex -1.630640e+02 5.311795e+01 -3.074071e+02
      vertex -1.265640e+02 5.269059e+01 -3.047107e+02
    endloop
  endfacet
  facet normal 4.256279e-13 9.876713e-01 1.565418e-01
    outer loop
      vertex -1.264140e+02 5.286279e+01 -3.057971e+02
      vertex -1.078074e+01 5.311795e+01 -3.074071e+02
      vertex -1.630640e+02 5.311795e+01 -3.074071e+02
    endloop
  endfacet
  facet normal 2.696746e-12 -1.565418e-01 9.876713e-01
    outer loop
      vertex -1.630640e+02 5.382407e+01 -3.072951e+02
      vertex -1.630640e+02 5.311795e+01 -3.074071e+02
      vertex -1.078074e+01 5.311795e+01 -3.074071e+02
    endloop
  endfacet
  facet normal 4.099945e-13 9.876713e-01 1.565418e-01
    outer loop
      vertex -1.264847e+02 5.285821e+01 -3.057682e+02
      vertex -1.264140e+02 5.286279e+01 -3.057971e+02
      vertex -1.630640e+02 5.311795e+01 -3.074071e+02
    endloop
  endfacet
  facet normal 4.288104e-13 9.876713e-01 1.565418e-01
    outer loop
      vertex -1.265140e+02 5.284714e+01 -3.056984e+02
      vertex -1.264847e+02 5.285821e+01 -3.057682e+02
      vertex -1.630640e+02 5.311795e+01 -3.074071e+02
    endloop
  endfacet
  facet normal 4.262364e-13 9.876713e-01 1.565418e-01
    outer loop
      vertex -1.265140e+02 5.269842e+01 -3.047601e+02
      vertex -1.265140e+02 5.284714e+01 -3.056984e+02
      vertex -1.630640e+02 5.311795e+01 -3.074071e+02
    endloop
  endfacet
  facet normal -3.827076e-01 -1.446242e-01 9.124794e-01
    outer loop
      vertex -1.635943e+02 5.385846e+01 -3.075121e+02
      vertex -1.635943e+02 5.315234e+01 -3.076240e+02
      vertex -1.630640e+02 5.311795e+01 -3.074071e+02
    endloop
  endfacet
  facet normal -3.827076e-01 -1.446242e-01 9.124794e-01
    outer loop
      vertex -1.635943e+02 5.385846e+01 -3.075121e+02
      vertex -1.630640e+02 5.311795e+01 -3.074071e+02
      vertex -1.630640e+02 5.382407e+01 -3.072951e+02
    endloop
  endfacet
  facet normal 3.552174e-13 9.876713e-01 1.565418e-01
    outer loop
      vertex -1.050001e+01 5.286279e+01 -3.057971e+02
      vertex -1.031239e+01 5.314366e+01 -3.075692e+02
      vertex -1.078074e+01 5.311795e+01 -3.074071e+02
    endloop
  endfacet
  facet normal 3.308644e-01 -1.477251e-01 9.320440e-01
    outer loop
      vertex -1.078074e+01 5.382407e+01 -3.072951e+02
      vertex -1.078074e+01 5.311795e+01 -3.074071e+02
      vertex -1.031239e+01 5.314366e+01 -3.075692e+02
    endloop
  endfacet
  facet normal 4.256224e-13 9.876713e-01 1.565418e-01
    outer loop
      vertex -1.264140e+02 5.286279e+01 -3.057971e+02
      vertex -1.050001e+01 5.286279e+01 -3.057971e+02
      vertex -1.078074e+01 5.311795e+01 -3.074071e+02
    endloop
  endfacet
  facet normal 2.696747e-12 -1.565418e-01 9.876713e-01
    outer loop
      vertex -1.078074e+01 5.382407e+01 -3.072951e+02
      vertex -1.630640e+02 5.382407e+01 -3.072951e+02
      vertex -1.078074e+01 5.311795e+01 -3.074071e+02
    endloop
  endfacet
  facet normal 4.396585e-13 9.876713e-01 1.565418e-01
    outer loop
      vertex -1.008467e+01 5.318489e+01 -3.078294e+02
      vertex -1.004913e+01 5.320952e+01 -3.079848e+02
      vertex -1.031239e+01 5.314366e+01 -3.075692e+02
    endloop
  endfacet
  facet normal 8.477127e-01 -8.303848e-02 5.239158e-01
    outer loop
      vertex -1.031239e+01 5.384977e+01 -3.074573e+02
      vertex -1.031239e+01 5.314366e+01 -3.075692e+02
      vertex -1.004913e+01 5.320952e+01 -3.079848e+02
    endloop
  endfacet
  facet normal 3.446918e-13 9.876713e-01 1.565418e-01
    outer loop
      vertex -1.012036e+01 5.316022e+01 -3.076737e+02
      vertex -1.008467e+01 5.318489e+01 -3.078294e+02
      vertex -1.031239e+01 5.314366e+01 -3.075692e+02
    endloop
  endfacet
  facet normal 4.468876e-13 9.876713e-01 1.565418e-01
    outer loop
      vertex -1.050001e+01 5.286279e+01 -3.057971e+02
      vertex -1.012036e+01 5.316022e+01 -3.076737e+02
      vertex -1.031239e+01 5.314366e+01 -3.075692e+02
    endloop
  endfacet
  facet normal 3.308644e-01 -1.477251e-01 9.320440e-01
    outer loop
      vertex -1.031239e+01 5.384977e+01 -3.074573e+02
      vertex -1.078074e+01 5.382407e+01 -3.072951e+02
      vertex -1.031239e+01 5.314366e+01 -3.075692e+02
    endloop
  endfacet
  facet normal 9.750801e-01 -6.067964e-02 2.133935e-01
    outer loop
      vertex -8.803626e+00 5.193156e+01 -3.140394e+02
      vertex -1.004913e+01 5.320952e+01 -3.079848e+02
      vertex -1.008467e+01 5.318489e+01 -3.078294e+02
    endloop
  endfacet
  facet normal 9.775608e-01 -3.297607e-02 2.080564e-01
    outer loop
      vertex -1.004913e+01 5.391563e+01 -3.078728e+02
      vertex -1.004913e+01 5.320952e+01 -3.079848e+02
      vertex -8.803626e+00 5.193156e+01 -3.140394e+02
    endloop
  endfacet
  facet normal 8.477127e-01 -8.303848e-02 5.239158e-01
    outer loop
      vertex -1.031239e+01 5.384977e+01 -3.074573e+02
      vertex -1.004913e+01 5.320952e+01 -3.079848e+02
      vertex -1.004913e+01 5.391563e+01 -3.078728e+02
    endloop
  endfacet
  facet normal 9.749231e-01 -6.221042e-02 2.136701e-01
    outer loop
      vertex -8.803626e+00 5.193156e+01 -3.140394e+02
      vertex -1.008467e+01 5.318489e+01 -3.078294e+02
      vertex -1.012036e+01 5.316022e+01 -3.076737e+02
    endloop
  endfacet
  facet normal 9.806147e-01 -3.067376e-02 1.935304e-01
    outer loop
      vertex -1.050001e+01 5.068004e+01 -3.061431e+02
      vertex -1.012036e+01 5.316022e+01 -3.076737e+02
      vertex -1.050001e+01 5.286279e+01 -3.057971e+02
    endloop
  endfacet
  facet normal 9.806147e-01 -3.067376e-02 1.935304e-01
    outer loop
      vertex -1.012036e+01 5.097747e+01 -3.080197e+02
      vertex -1.012036e+01 5.316022e+01 -3.076737e+02
      vertex -1.050001e+01 5.068004e+01 -3.061431e+02
    endloop
  endfacet
  facet normal 9.774495e-01 -3.305679e-02 2.085656e-01
    outer loop
      vertex -8.803626e+00 5.193156e+01 -3.140394e+02
      vertex -1.012036e+01 5.316022e+01 -3.076737e+02
      vertex -1.012036e+01 5.097747e+01 -3.080197e+02
    endloop
  endfacet
  facet normal 2.697133e-12 -1.565418e-01 9.876713e-01
    outer loop
      vertex -1.050001e+01 5.068004e+01 -3.061431e+02
      vertex -1.050001e+01 5.286279e+01 -3.057971e+02
      vertex -1.264140e+02 5.286279e+01 -3.057971e+02
    endloop
  endfacet
  facet normal 3.826834e-01 -1.446258e-01 9.124893e-01
    outer loop
      vertex -1.264140e+02 5.068004e+01 -3.061431e+02
      vertex -1.264140e+02 5.286279e+01 -3.057971e+02
      vertex -1.264847e+02 5.285821e+01 -3.057682e+02
    endloop
  endfacet
  facet normal 2.697133e-12 -1.565418e-01 9.876713e-01
    outer loop
      vertex -1.050001e+01 5.068004e+01 -3.061431e+02
      vertex -1.264140e+02 5.286279e+01 -3.057971e+02
      vertex -1.264140e+02 5.068004e+01 -3.061431e+02
    endloop
  endfacet
  facet normal 9.238795e-01 -5.990595e-02 3.779655e-01
    outer loop
      vertex -1.264847e+02 5.067545e+01 -3.061142e+02
      vertex -1.264847e+02 5.285821e+01 -3.057682e+02
      vertex -1.265140e+02 5.284714e+01 -3.056984e+02
    endloop
  endfacet
  facet normal 3.826834e-01 -1.446258e-01 9.124893e-01
    outer loop
      vertex -1.264140e+02 5.068004e+01 -3.061431e+02
      vertex -1.264847e+02 5.285821e+01 -3.057682e+02
      vertex -1.264847e+02 5.067545e+01 -3.061142e+02
    endloop
  endfacet
  facet normal 1.000000e+00 2.337457e-15 -2.725823e-12
    outer loop
      vertex -1.265140e+02 5.051567e+01 -3.051061e+02
      vertex -1.265140e+02 5.284714e+01 -3.056984e+02
      vertex -1.265140e+02 5.269842e+01 -3.047601e+02
    endloop
  endfacet
  facet normal 1.000000e+00 2.337457e-15 -2.725823e-12
    outer loop
      vertex -1.265140e+02 5.066438e+01 -3.060443e+02
      vertex -1.265140e+02 5.284714e+01 -3.056984e+02
      vertex -1.265140e+02 5.051567e+01 -3.051061e+02
    endloop
  endfacet
  facet normal 9.238795e-01 -5.990595e-02 3.779655e-01
    outer loop
      vertex -1.264847e+02 5.067545e+01 -3.061142e+02
      vertex -1.265140e+02 5.284714e+01 -3.056984e+02
      vertex -1.265140e+02 5.066438e+01 -3.060443e+02
    endloop
  endfacet
  facet normal -9.238695e-01 -5.990974e-02 3.779894e-01
    outer loop
      vertex -1.638140e+02 5.394147e+01 -3.080359e+02
      vertex -1.638140e+02 5.323536e+01 -3.081478e+02
      vertex -1.635943e+02 5.315234e+01 -3.076240e+02
    endloop
  endfacet
  facet normal -1.000000e+00 -2.735819e-14 2.712164e-12
    outer loop
      vertex -1.638140e+02 5.413715e+01 -3.092705e+02
      vertex -1.638140e+02 5.323536e+01 -3.081478e+02
      vertex -1.638140e+02 5.394147e+01 -3.080359e+02
    endloop
  endfacet
  facet normal -9.238695e-01 -5.990974e-02 3.779894e-01
    outer loop
      vertex -1.635943e+02 5.385846e+01 -3.075121e+02
      vertex -1.638140e+02 5.394147e+01 -3.080359e+02
      vertex -1.635943e+02 5.315234e+01 -3.076240e+02
    endloop
  endfacet
  facet normal 4.256278e-13 9.876713e-01 1.565418e-01
    outer loop
      vertex -1.638140e+02 5.413715e+01 -3.092705e+02
      vertex -1.630640e+02 5.382407e+01 -3.072951e+02
      vertex -1.078074e+01 5.382407e+01 -3.072951e+02
    endloop
  endfacet
  facet normal 4.050365e-13 9.876713e-01 1.565418e-01
    outer loop
      vertex -1.635943e+02 5.385846e+01 -3.075121e+02
      vertex -1.630640e+02 5.382407e+01 -3.072951e+02
      vertex -1.638140e+02 5.413715e+01 -3.092705e+02
    endloop
  endfacet
  facet normal 4.270132e-13 9.876713e-01 1.565418e-01
    outer loop
      vertex -1.031239e+01 5.384977e+01 -3.074573e+02
      vertex -1.638140e+02 5.413715e+01 -3.092705e+02
      vertex -1.078074e+01 5.382407e+01 -3.072951e+02
    endloop
  endfacet
  facet normal 4.519884e-13 9.860916e-01 1.662025e-01
    outer loop
      vertex -1.638140e+02 6.553837e+01 -3.763131e+02
      vertex -1.470050e+02 6.449790e+01 -3.701399e+02
      vertex -4.976400e+01 6.449790e+01 -3.701399e+02
    endloop
  endfacet
  facet normal 2.696524e-12 -1.565418e-01 9.876713e-01
    outer loop
      vertex -4.976400e+01 6.091331e+01 -3.707080e+02
      vertex -4.976400e+01 6.449790e+01 -3.701399e+02
      vertex -1.470050e+02 6.449790e+01 -3.701399e+02
    endloop
  endfacet
  facet normal 4.488946e-13 9.860916e-01 1.662025e-01
    outer loop
      vertex -8.079778e+00 6.553837e+01 -3.763131e+02
      vertex -4.976400e+01 6.449790e+01 -3.701399e+02
      vertex -4.826400e+01 6.424858e+01 -3.686607e+02
    endloop
  endfacet
  facet normal -7.071068e-01 -1.106918e-01 6.983891e-01
    outer loop
      vertex -4.826400e+01 6.067850e+01 -3.692265e+02
      vertex -4.826400e+01 6.424858e+01 -3.686607e+02
      vertex -4.976400e+01 6.449790e+01 -3.701399e+02
    endloop
  endfacet
  facet normal 4.519699e-13 9.860916e-01 1.662025e-01
    outer loop
      vertex -8.079778e+00 6.553837e+01 -3.763131e+02
      vertex -1.638140e+02 6.553837e+01 -3.763131e+02
      vertex -4.976400e+01 6.449790e+01 -3.701399e+02
    endloop
  endfacet
  facet normal -7.071068e-01 -1.106918e-01 6.983891e-01
    outer loop
      vertex -4.826400e+01 6.067850e+01 -3.692265e+02
      vertex -4.976400e+01 6.449790e+01 -3.701399e+02
      vertex -4.976400e+01 6.091331e+01 -3.707080e+02
    endloop
  endfacet
  facet normal 4.538692e-13 9.860916e-01 1.662025e-01
    outer loop
      vertex -1.638140e+02 6.553837e+01 -3.763131e+02
      vertex -1.470050e+02 6.399926e+01 -3.671815e+02
      vertex -1.470050e+02 6.449790e+01 -3.701399e+02
    endloop
  endfacet
  facet normal 1.000000e+00 3.735177e-15 -2.746992e-12
    outer loop
      vertex -1.470050e+02 6.044368e+01 -3.677450e+02
      vertex -1.470050e+02 6.449790e+01 -3.701399e+02
      vertex -1.470050e+02 6.399926e+01 -3.671815e+02
    endloop
  endfacet
  facet normal 2.696524e-12 -1.565418e-01 9.876713e-01
    outer loop
      vertex -1.470050e+02 6.091331e+01 -3.707080e+02
      vertex -4.976400e+01 6.091331e+01 -3.707080e+02
      vertex -1.470050e+02 6.449790e+01 -3.701399e+02
    endloop
  endfacet
  facet normal 1.000000e+00 6.489124e-15 -2.742330e-12
    outer loop
      vertex -1.470050e+02 6.091331e+01 -3.707080e+02
      vertex -1.470050e+02 6.449790e+01 -3.701399e+02
      vertex -1.470050e+02 6.044368e+01 -3.677450e+02
    endloop
  endfacet
  facet normal 4.518381e-13 9.860916e-01 1.662025e-01
    outer loop
      vertex -9.733199e+00 5.423592e+01 -3.092548e+02
      vertex -4.976400e+01 6.399926e+01 -3.671815e+02
      vertex -1.470050e+02 6.399926e+01 -3.671815e+02
    endloop
  endfacet
  facet normal -2.696546e-12 1.565418e-01 -9.876713e-01
    outer loop
      vertex -1.470050e+02 6.044368e+01 -3.677450e+02
      vertex -1.470050e+02 6.399926e+01 -3.671815e+02
      vertex -4.976400e+01 6.399926e+01 -3.671815e+02
    endloop
  endfacet
  facet normal 4.519147e-13 9.860916e-01 1.662025e-01
    outer loop
      vertex -1.638140e+02 5.423592e+01 -3.092548e+02
      vertex -9.733199e+00 5.423592e+01 -3.092548e+02
      vertex -1.470050e+02 6.399926e+01 -3.671815e+02
    endloop
  endfacet
  facet normal 4.516443e-13 9.860916e-01 1.662025e-01
    outer loop
      vertex -1.638140e+02 6.553837e+01 -3.763131e+02
      vertex -1.638140e+02 5.423592e+01 -3.092548e+02
      vertex -1.470050e+02 6.399926e+01 -3.671815e+02
    endloop
  endfacet
  facet normal 4.496384e-13 9.860916e-01 1.662025e-01
    outer loop
      vertex -9.733199e+00 5.423592e+01 -3.092548e+02
      vertex -4.826400e+01 6.424858e+01 -3.686607e+02
      vertex -4.976400e+01 6.399926e+01 -3.671815e+02
    endloop
  endfacet
  facet normal -7.071068e-01 1.106918e-01 -6.983891e-01
    outer loop
      vertex -4.976400e+01 6.044368e+01 -3.677450e+02
      vertex -4.976400e+01 6.399926e+01 -3.671815e+02
      vertex -4.826400e+01 6.424858e+01 -3.686607e+02
    endloop
  endfacet
  facet normal -2.696524e-12 1.565418e-01 -9.876713e-01
    outer loop
      vertex -1.470050e+02 6.044368e+01 -3.677450e+02
      vertex -4.976400e+01 6.399926e+01 -3.671815e+02
      vertex -4.976400e+01 6.044368e+01 -3.677450e+02
    endloop
  endfacet
  facet normal 4.527756e-13 9.860916e-01 1.662025e-01
    outer loop
      vertex -8.421127e+00 5.527743e+01 -3.154342e+02
      vertex -4.826400e+01 6.424858e+01 -3.686607e+02
      vertex -9.733199e+00 5.423592e+01 -3.092548e+02
    endloop
  endfacet
  facet normal 4.525954e-13 9.860916e-01 1.662025e-01
    outer loop
      vertex -8.421127e+00 5.527743e+01 -3.154342e+02
      vertex -8.079778e+00 6.553837e+01 -3.763131e+02
      vertex -4.826400e+01 6.424858e+01 -3.686607e+02
    endloop
  endfacet
  facet normal -7.071068e-01 1.106918e-01 -6.983891e-01
    outer loop
      vertex -4.976400e+01 6.044368e+01 -3.677450e+02
      vertex -4.826400e+01 6.424858e+01 -3.686607e+02
      vertex -4.826400e+01 6.067850e+01 -3.692265e+02
    endloop
  endfacet
  facet normal 2.696636e-12 -1.565418e-01 9.876713e-01
    outer loop
      vertex -9.733199e+00 5.413715e+01 -3.092705e+02
      vertex -9.733199e+00 5.423592e+01 -3.092548e+02
      vertex -1.638140e+02 5.423592e+01 -3.092548e+02
    endloop
  endfacet
  facet normal 9.787519e-01 -2.716256e-02 2.032408e-01
    outer loop
      vertex -8.803626e+00 5.193156e+01 -3.140394e+02
      vertex -8.421127e+00 5.527743e+01 -3.154342e+02
      vertex -9.733199e+00 5.423592e+01 -3.092548e+02
    endloop
  endfacet
  facet normal 9.780654e-01 -3.260731e-02 2.057298e-01
    outer loop
      vertex -9.733199e+00 5.413715e+01 -3.092705e+02
      vertex -8.803626e+00 5.193156e+01 -3.140394e+02
      vertex -9.733199e+00 5.423592e+01 -3.092548e+02
    endloop
  endfacet
  facet normal -1.000000e+00 -1.412774e-13 2.706963e-12
    outer loop
      vertex -1.638140e+02 5.413715e+01 -3.092705e+02
      vertex -1.638140e+02 5.423592e+01 -3.092548e+02
      vertex -1.638140e+02 6.553837e+01 -3.763131e+02
    endloop
  endfacet
  facet normal 2.697365e-12 -1.565418e-01 9.876713e-01
    outer loop
      vertex -1.638140e+02 5.413715e+01 -3.092705e+02
      vertex -9.733199e+00 5.413715e+01 -3.092705e+02
      vertex -1.638140e+02 5.423592e+01 -3.092548e+02
    endloop
  endfacet
  facet normal -2.696846e-12 1.565418e-01 -9.876713e-01
    outer loop
      vertex -1.638140e+02 6.545894e+01 -3.763257e+02
      vertex -1.638140e+02 6.553837e+01 -3.763131e+02
      vertex -8.079778e+00 6.553837e+01 -3.763131e+02
    endloop
  endfacet
  facet normal 4.539789e-13 9.860916e-01 1.662025e-01
    outer loop
      vertex -7.129067e+00 5.645734e+01 -3.224347e+02
      vertex -7.127365e+00 6.482472e+01 -3.720790e+02
      vertex -8.079778e+00 6.553837e+01 -3.763131e+02
    endloop
  endfacet
  facet normal 9.762705e-01 3.389987e-02 -2.138849e-01
    outer loop
      vertex -8.079778e+00 6.545894e+01 -3.763257e+02
      vertex -8.079778e+00 6.553837e+01 -3.763131e+02
      vertex -7.127365e+00 6.482472e+01 -3.720790e+02
    endloop
  endfacet
  facet normal 4.534519e-13 9.860916e-01 1.662025e-01
    outer loop
      vertex -8.421127e+00 5.527743e+01 -3.154342e+02
      vertex -7.129067e+00 5.645734e+01 -3.224347e+02
      vertex -8.079778e+00 6.553837e+01 -3.763131e+02
    endloop
  endfacet
  facet normal -2.696832e-12 1.565418e-01 -9.876713e-01
    outer loop
      vertex -1.638140e+02 6.545894e+01 -3.763257e+02
      vertex -8.079778e+00 6.553837e+01 -3.763131e+02
      vertex -8.079778e+00 6.545894e+01 -3.763257e+02
    endloop
  endfacet
  facet normal 4.479372e-13 9.860916e-01 1.662025e-01
    outer loop
      vertex -6.012583e+00 5.773052e+01 -3.299886e+02
      vertex -6.345912e+00 6.410864e+01 -3.678304e+02
      vertex -7.127365e+00 6.482472e+01 -3.720790e+02
    endloop
  endfacet
  facet normal 9.839451e-01 3.132737e-02 -1.757005e-01
    outer loop
      vertex -6.975786e+00 6.110128e+01 -3.718940e+02
      vertex -7.127365e+00 6.482472e+01 -3.720790e+02
      vertex -6.345912e+00 6.410864e+01 -3.678304e+02
    endloop
  endfacet
  facet normal 4.427951e-13 9.860916e-01 1.662025e-01
    outer loop
      vertex -7.129067e+00 5.645734e+01 -3.224347e+02
      vertex -6.012583e+00 5.773052e+01 -3.299886e+02
      vertex -7.127365e+00 6.482472e+01 -3.720790e+02
    endloop
  endfacet
  facet normal 9.781520e-01 2.959758e-02 -2.057732e-01
    outer loop
      vertex -7.795859e+00 6.170537e+01 -3.757054e+02
      vertex -7.127365e+00 6.482472e+01 -3.720790e+02
      vertex -6.975786e+00 6.110128e+01 -3.718940e+02
    endloop
  endfacet
  facet normal 9.762504e-01 3.861202e-02 -2.131767e-01
    outer loop
      vertex -8.079778e+00 6.545894e+01 -3.763257e+02
      vertex -7.127365e+00 6.482472e+01 -3.720790e+02
      vertex -7.795859e+00 6.170537e+01 -3.757054e+02
    endloop
  endfacet
  facet normal 4.315819e-13 9.860916e-01 1.662025e-01
    outer loop
      vertex -6.012583e+00 5.773052e+01 -3.299886e+02
      vertex -5.728048e+00 6.338466e+01 -3.635350e+02
      vertex -6.345912e+00 6.410864e+01 -3.678304e+02
    endloop
  endfacet
  facet normal 9.900810e-01 2.749897e-02 -1.377805e-01
    outer loop
      vertex -6.088627e+00 6.028514e+01 -3.667447e+02
      vertex -6.345912e+00 6.410864e+01 -3.678304e+02
      vertex -5.728048e+00 6.338466e+01 -3.635350e+02
    endloop
  endfacet
  facet normal 9.858023e-01 1.896051e-02 -1.668360e-01
    outer loop
      vertex -6.975786e+00 6.110128e+01 -3.718940e+02
      vertex -6.345912e+00 6.410864e+01 -3.678304e+02
      vertex -6.088627e+00 6.028514e+01 -3.667447e+02
    endloop
  endfacet
  facet normal 4.277353e-13 9.860916e-01 1.662025e-01
    outer loop
      vertex -5.264000e+00 5.894844e+01 -3.372146e+02
      vertex -5.264000e+00 6.263721e+01 -3.591003e+02
      vertex -5.728048e+00 6.338466e+01 -3.635350e+02
    endloop
  endfacet
  facet normal 9.944287e-01 -6.750456e-03 -1.051953e-01
    outer loop
      vertex -6.088627e+00 6.028514e+01 -3.667447e+02
      vertex -5.728048e+00 6.338466e+01 -3.635350e+02
      vertex -5.264000e+00 6.263721e+01 -3.591003e+02
    endloop
  endfacet
  facet normal 4.418586e-13 9.860916e-01 1.662025e-01
    outer loop
      vertex -6.012583e+00 5.773052e+01 -3.299886e+02
      vertex -5.264000e+00 5.894844e+01 -3.372146e+02
      vertex -5.728048e+00 6.338466e+01 -3.635350e+02
    endloop
  endfacet
  facet normal 7.071068e-01 6.972721e-01 1.175229e-01
    outer loop
      vertex -4.933437e+00 6.144038e+01 -3.539883e+02
      vertex -5.264000e+00 6.263721e+01 -3.591003e+02
      vertex -5.264000e+00 5.894844e+01 -3.372146e+02
    endloop
  endfacet
  facet normal 9.934727e-01 1.785668e-02 -1.126634e-01
    outer loop
      vertex -6.088627e+00 6.028514e+01 -3.667447e+02
      vertex -5.264000e+00 6.263721e+01 -3.591003e+02
      vertex -5.264000e+00 5.916086e+01 -3.596513e+02
    endloop
  endfacet
  facet normal 9.980133e-01 9.862757e-03 -6.222723e-02
    outer loop
      vertex -4.933437e+00 6.144038e+01 -3.539883e+02
      vertex -5.264000e+00 5.916086e+01 -3.596513e+02
      vertex -5.264000e+00 6.263721e+01 -3.591003e+02
    endloop
  endfacet
  facet normal 9.948222e-01 -1.590946e-02 1.003778e-01
    outer loop
      vertex -5.264000e+00 5.568667e+01 -3.377315e+02
      vertex -5.264000e+00 5.894844e+01 -3.372146e+02
      vertex -6.012583e+00 5.773052e+01 -3.299886e+02
    endloop
  endfacet
  facet normal 9.982548e-01 -9.244450e-03 5.832614e-02
    outer loop
      vertex -4.923378e+00 5.692444e+01 -3.433651e+02
      vertex -5.264000e+00 5.894844e+01 -3.372146e+02
      vertex -5.264000e+00 5.568667e+01 -3.377315e+02
    endloop
  endfacet
  facet normal 7.071068e-01 6.972721e-01 1.175229e-01
    outer loop
      vertex -4.814631e+00 6.041077e+01 -3.485944e+02
      vertex -5.264000e+00 5.894844e+01 -3.372146e+02
      vertex -4.923531e+00 5.956851e+01 -3.429420e+02
    endloop
  endfacet
  facet normal 9.982538e-01 -9.277490e-03 5.833696e-02
    outer loop
      vertex -4.923378e+00 5.692444e+01 -3.433651e+02
      vertex -4.923531e+00 5.956851e+01 -3.429420e+02
      vertex -5.264000e+00 5.894844e+01 -3.372146e+02
    endloop
  endfacet
  facet normal 7.071068e-01 6.972721e-01 1.175229e-01
    outer loop
      vertex -4.933437e+00 6.144038e+01 -3.539883e+02
      vertex -5.264000e+00 5.894844e+01 -3.372146e+02
      vertex -4.814631e+00 6.041077e+01 -3.485944e+02
    endloop
  endfacet
  facet normal 9.894888e-01 -1.344846e-02 1.439826e-01
    outer loop
      vertex -6.823055e+00 5.363725e+01 -3.248011e+02
      vertex -6.012583e+00 5.773052e+01 -3.299886e+02
      vertex -7.129067e+00 5.645734e+01 -3.224347e+02
    endloop
  endfacet
  facet normal 9.907041e-01 -2.725889e-02 1.332751e-01
    outer loop
      vertex -5.863858e+00 5.473187e+01 -3.317074e+02
      vertex -6.012583e+00 5.773052e+01 -3.299886e+02
      vertex -6.823055e+00 5.363725e+01 -3.248011e+02
    endloop
  endfacet
  facet normal 9.951618e-01 -6.824856e-03 9.801265e-02
    outer loop
      vertex -5.264000e+00 5.568667e+01 -3.377315e+02
      vertex -6.012583e+00 5.773052e+01 -3.299886e+02
      vertex -5.863858e+00 5.473187e+01 -3.317074e+02
    endloop
  endfacet
  facet normal 9.837827e-01 -1.926718e-02 1.783266e-01
    outer loop
      vertex -7.706110e+00 5.281992e+01 -3.196443e+02
      vertex -7.129067e+00 5.645734e+01 -3.224347e+02
      vertex -8.421127e+00 5.527743e+01 -3.154342e+02
    endloop
  endfacet
  facet normal 9.859870e-01 -3.061599e-02 1.639887e-01
    outer loop
      vertex -6.823055e+00 5.363725e+01 -3.248011e+02
      vertex -7.129067e+00 5.645734e+01 -3.224347e+02
      vertex -7.706110e+00 5.281992e+01 -3.196443e+02
    endloop
  endfacet
  facet normal 9.817965e-01 -3.436389e-02 1.868015e-01
    outer loop
      vertex -7.706110e+00 5.281992e+01 -3.196443e+02
      vertex -8.421127e+00 5.527743e+01 -3.154342e+02
      vertex -8.803626e+00 5.193156e+01 -3.140394e+02
    endloop
  endfacet
  facet normal -2.696874e-12 1.565418e-01 -9.876713e-01
    outer loop
      vertex -1.630640e+02 6.321969e+01 -3.787056e+02
      vertex -1.630640e+02 6.577203e+01 -3.783011e+02
      vertex -9.164116e+00 6.577203e+01 -3.783011e+02
    endloop
  endfacet
  facet normal 4.256670e-13 9.876713e-01 1.565418e-01
    outer loop
      vertex -8.079778e+00 6.545894e+01 -3.763257e+02
      vertex -9.164116e+00 6.577203e+01 -3.783011e+02
      vertex -1.630640e+02 6.577203e+01 -3.783011e+02
    endloop
  endfacet
  facet normal -2.696888e-12 1.565418e-01 -9.876713e-01
    outer loop
      vertex -9.164116e+00 6.321969e+01 -3.787056e+02
      vertex -1.630640e+02 6.321969e+01 -3.787056e+02
      vertex -9.164116e+00 6.577203e+01 -3.783011e+02
    endloop
  endfacet
  facet normal 3.241207e-01 1.480910e-01 -9.343526e-01
    outer loop
      vertex -8.704245e+00 6.574736e+01 -3.781454e+02
      vertex -9.164116e+00 6.321969e+01 -3.787056e+02
      vertex -9.164116e+00 6.577203e+01 -3.783011e+02
    endloop
  endfacet
  facet normal 3.822589e-13 9.876713e-01 1.565418e-01
    outer loop
      vertex -8.704245e+00 6.574736e+01 -3.781454e+02
      vertex -9.164116e+00 6.577203e+01 -3.783011e+02
      vertex -8.079778e+00 6.545894e+01 -3.763257e+02
    endloop
  endfacet
  facet normal -3.827076e-01 1.446242e-01 -9.124794e-01
    outer loop
      vertex -1.635943e+02 6.318531e+01 -3.784886e+02
      vertex -1.630640e+02 6.577203e+01 -3.783011e+02
      vertex -1.630640e+02 6.321969e+01 -3.787056e+02
    endloop
  endfacet
  facet normal -3.827076e-01 1.446242e-01 -9.124794e-01
    outer loop
      vertex -1.635943e+02 6.573764e+01 -3.780841e+02
      vertex -1.630640e+02 6.577203e+01 -3.783011e+02
      vertex -1.635943e+02 6.318531e+01 -3.784886e+02
    endloop
  endfacet
  facet normal 4.252582e-13 9.876713e-01 1.565418e-01
    outer loop
      vertex -1.635943e+02 6.573764e+01 -3.780841e+02
      vertex -8.079778e+00 6.545894e+01 -3.763257e+02
      vertex -1.630640e+02 6.577203e+01 -3.783011e+02
    endloop
  endfacet
  facet normal 4.255757e-13 9.876713e-01 1.565418e-01
    outer loop
      vertex -1.630640e+02 6.361105e+01 -3.811748e+02
      vertex -1.630640e+02 6.321969e+01 -3.787056e+02
      vertex -9.164116e+00 6.321969e+01 -3.787056e+02
    endloop
  endfacet
  facet normal 4.142308e-13 9.876713e-01 1.565418e-01
    outer loop
      vertex -1.630640e+02 6.361105e+01 -3.811748e+02
      vertex -1.635943e+02 6.364544e+01 -3.813917e+02
      vertex -1.630640e+02 6.321969e+01 -3.787056e+02
    endloop
  endfacet
  facet normal 4.173934e-13 9.876713e-01 1.565418e-01
    outer loop
      vertex -1.635943e+02 6.318531e+01 -3.784886e+02
      vertex -1.630640e+02 6.321969e+01 -3.787056e+02
      vertex -1.635943e+02 6.364544e+01 -3.813917e+02
    endloop
  endfacet
  facet normal 4.257070e-13 9.876713e-01 1.565418e-01
    outer loop
      vertex -1.026557e+01 6.361105e+01 -3.811748e+02
      vertex -1.630640e+02 6.361105e+01 -3.811748e+02
      vertex -9.164116e+00 6.321969e+01 -3.787056e+02
    endloop
  endfacet
  facet normal 4.356156e-13 9.876713e-01 1.565418e-01
    outer loop
      vertex -9.664867e+00 6.365816e+01 -3.814720e+02
      vertex -1.026557e+01 6.361105e+01 -3.811748e+02
      vertex -9.164116e+00 6.321969e+01 -3.787056e+02
    endloop
  endfacet
  facet normal 3.572755e-13 9.876713e-01 1.565418e-01
    outer loop
      vertex -9.546231e+00 6.376168e+01 -3.821252e+02
      vertex -9.664867e+00 6.365816e+01 -3.814720e+02
      vertex -9.164116e+00 6.321969e+01 -3.787056e+02
    endloop
  endfacet
  facet normal 4.896997e-13 9.876713e-01 1.565418e-01
    outer loop
      vertex -9.001234e+00 6.346290e+01 -3.802401e+02
      vertex -9.546231e+00 6.376168e+01 -3.821252e+02
      vertex -9.164116e+00 6.321969e+01 -3.787056e+02
    endloop
  endfacet
  facet normal 4.231660e-13 9.876713e-01 1.565418e-01
    outer loop
      vertex -8.704245e+00 6.319503e+01 -3.785500e+02
      vertex -9.001234e+00 6.346290e+01 -3.802401e+02
      vertex -9.164116e+00 6.321969e+01 -3.787056e+02
    endloop
  endfacet
  facet normal 3.241207e-01 1.480910e-01 -9.343526e-01
    outer loop
      vertex -8.704245e+00 6.574736e+01 -3.781454e+02
      vertex -8.704245e+00 6.319503e+01 -3.785500e+02
      vertex -9.164116e+00 6.321969e+01 -3.787056e+02
    endloop
  endfacet
  facet normal 4.170637e-13 9.876713e-01 1.565418e-01
    outer loop
      vertex -1.635943e+02 6.318531e+01 -3.784886e+02
      vertex -1.638140e+02 6.372846e+01 -3.819155e+02
      vertex -1.638140e+02 6.310229e+01 -3.779648e+02
    endloop
  endfacet
  facet normal -9.238695e-01 5.990974e-02 -3.779894e-01
    outer loop
      vertex -1.635943e+02 6.573764e+01 -3.780841e+02
      vertex -1.635943e+02 6.318531e+01 -3.784886e+02
      vertex -1.638140e+02 6.310229e+01 -3.779648e+02
    endloop
  endfacet
  facet normal -9.238695e-01 5.990974e-02 -3.779894e-01
    outer loop
      vertex -1.635943e+02 6.573764e+01 -3.780841e+02
      vertex -1.638140e+02 6.310229e+01 -3.779648e+02
      vertex -1.638140e+02 6.565462e+01 -3.775603e+02
    endloop
  endfacet
  facet normal 3.335534e-13 9.876713e-01 1.565418e-01
    outer loop
      vertex -1.635943e+02 6.318531e+01 -3.784886e+02
      vertex -1.635943e+02 6.364544e+01 -3.813917e+02
      vertex -1.638140e+02 6.372846e+01 -3.819155e+02
    endloop
  endfacet
  facet normal -9.238695e-01 -5.990974e-02 3.779894e-01
    outer loop
      vertex -1.638140e+02 6.573738e+01 -3.815971e+02
      vertex -1.638140e+02 6.372846e+01 -3.819155e+02
      vertex -1.635943e+02 6.364544e+01 -3.813917e+02
    endloop
  endfacet
  facet normal -1.000000e+00 8.337494e-15 2.714533e-12
    outer loop
      vertex -1.638140e+02 6.579217e+01 -3.819428e+02
      vertex -1.638140e+02 6.372846e+01 -3.819155e+02
      vertex -1.638140e+02 6.573738e+01 -3.815971e+02
    endloop
  endfacet
  facet normal -1.000000e+00 7.876238e-15 2.679638e-12
    outer loop
      vertex -1.638140e+02 6.276989e+01 -3.824218e+02
      vertex -1.638140e+02 6.372846e+01 -3.819155e+02
      vertex -1.638140e+02 6.579217e+01 -3.819428e+02
    endloop
  endfacet
  facet normal -3.827076e-01 -1.446242e-01 9.124794e-01
    outer loop
      vertex -1.635943e+02 6.565436e+01 -3.810733e+02
      vertex -1.635943e+02 6.364544e+01 -3.813917e+02
      vertex -1.630640e+02 6.361105e+01 -3.811748e+02
    endloop
  endfacet
  facet normal -9.238695e-01 -5.990974e-02 3.779894e-01
    outer loop
      vertex -1.638140e+02 6.573738e+01 -3.815971e+02
      vertex -1.635943e+02 6.364544e+01 -3.813917e+02
      vertex -1.635943e+02 6.565436e+01 -3.810733e+02
    endloop
  endfacet
  facet normal 2.697208e-12 -1.565418e-01 9.876713e-01
    outer loop
      vertex -1.630640e+02 6.561997e+01 -3.808564e+02
      vertex -1.630640e+02 6.361105e+01 -3.811748e+02
      vertex -1.026557e+01 6.361105e+01 -3.811748e+02
    endloop
  endfacet
  facet normal -3.827076e-01 -1.446242e-01 9.124794e-01
    outer loop
      vertex -1.635943e+02 6.565436e+01 -3.810733e+02
      vertex -1.630640e+02 6.361105e+01 -3.811748e+02
      vertex -1.630640e+02 6.561997e+01 -3.808564e+02
    endloop
  endfacet
  facet normal 4.479133e-01 -1.399604e-01 8.830542e-01
    outer loop
      vertex -1.026557e+01 6.561997e+01 -3.808564e+02
      vertex -1.026557e+01 6.361105e+01 -3.811748e+02
      vertex -9.664867e+00 6.365816e+01 -3.814720e+02
    endloop
  endfacet
  facet normal 2.696487e-12 -1.565418e-01 9.876713e-01
    outer loop
      vertex -1.026557e+01 6.561997e+01 -3.808564e+02
      vertex -1.630640e+02 6.561997e+01 -3.808564e+02
      vertex -1.026557e+01 6.361105e+01 -3.811748e+02
    endloop
  endfacet
  facet normal 9.842871e-01 -2.764145e-02 1.743986e-01
    outer loop
      vertex -9.664867e+00 6.566708e+01 -3.811536e+02
      vertex -9.664867e+00 6.365816e+01 -3.814720e+02
      vertex -9.546231e+00 6.376168e+01 -3.821252e+02
    endloop
  endfacet
  facet normal 4.479133e-01 -1.399604e-01 8.830542e-01
    outer loop
      vertex -9.664867e+00 6.566708e+01 -3.811536e+02
      vertex -1.026557e+01 6.561997e+01 -3.808564e+02
      vertex -9.664867e+00 6.365816e+01 -3.814720e+02
    endloop
  endfacet
  facet normal 9.615660e-01 4.193157e-02 -2.713531e-01
    outer loop
      vertex -9.586699e+00 6.276989e+01 -3.824218e+02
      vertex -9.546231e+00 6.376168e+01 -3.821252e+02
      vertex -9.001234e+00 6.346290e+01 -3.802401e+02
    endloop
  endfacet
  facet normal 9.842871e-01 -2.764145e-02 1.743986e-01
    outer loop
      vertex -9.664867e+00 6.566708e+01 -3.811536e+02
      vertex -9.546231e+00 6.376168e+01 -3.821252e+02
      vertex -9.546231e+00 6.577061e+01 -3.818067e+02
    endloop
  endfacet
  facet normal 9.594520e-01 4.412474e-02 -2.783968e-01
    outer loop
      vertex -9.586699e+00 6.276989e+01 -3.824218e+02
      vertex -9.546231e+00 6.577061e+01 -3.818067e+02
      vertex -9.546231e+00 6.376168e+01 -3.821252e+02
    endloop
  endfacet
  facet normal 6.114784e-13 9.876713e-01 1.565418e-01
    outer loop
      vertex -8.704245e+00 6.319503e+01 -3.785500e+02
      vertex -8.437550e+00 6.313141e+01 -3.781486e+02
      vertex -9.001234e+00 6.346290e+01 -3.802401e+02
    endloop
  endfacet
  facet normal 9.656392e-01 2.357011e-03 -2.598756e-01
    outer loop
      vertex -9.586699e+00 6.276989e+01 -3.824218e+02
      vertex -9.001234e+00 6.346290e+01 -3.802401e+02
      vertex -8.437550e+00 6.313141e+01 -3.781486e+02
    endloop
  endfacet
  facet normal 8.360665e-01 8.588324e-02 -5.418643e-01
    outer loop
      vertex -8.437550e+00 6.568374e+01 -3.777440e+02
      vertex -8.437550e+00 6.313141e+01 -3.781486e+02
      vertex -8.704245e+00 6.319503e+01 -3.785500e+02
    endloop
  endfacet
  facet normal 9.658443e-01 -9.064096e-03 -2.589645e-01
    outer loop
      vertex -7.795859e+00 6.170537e+01 -3.757054e+02
      vertex -9.586699e+00 6.276989e+01 -3.824218e+02
      vertex -8.437550e+00 6.313141e+01 -3.781486e+02
    endloop
  endfacet
  facet normal 9.714001e-01 3.465394e-02 -2.349064e-01
    outer loop
      vertex -8.079778e+00 6.545894e+01 -3.763257e+02
      vertex -7.795859e+00 6.170537e+01 -3.757054e+02
      vertex -8.437550e+00 6.313141e+01 -3.781486e+02
    endloop
  endfacet
  facet normal 9.710876e-01 3.560062e-02 -2.360538e-01
    outer loop
      vertex -8.262564e+00 6.557534e+01 -3.770601e+02
      vertex -8.079778e+00 6.545894e+01 -3.763257e+02
      vertex -8.437550e+00 6.313141e+01 -3.781486e+02
    endloop
  endfacet
  facet normal 9.695222e-01 3.835326e-02 -2.419828e-01
    outer loop
      vertex -8.437550e+00 6.568374e+01 -3.777440e+02
      vertex -8.262564e+00 6.557534e+01 -3.770601e+02
      vertex -8.437550e+00 6.313141e+01 -3.781486e+02
    endloop
  endfacet
  facet normal 8.360665e-01 8.588324e-02 -5.418643e-01
    outer loop
      vertex -8.704245e+00 6.574736e+01 -3.781454e+02
      vertex -8.437550e+00 6.568374e+01 -3.777440e+02
      vertex -8.704245e+00 6.319503e+01 -3.785500e+02
    endloop
  endfacet
  facet normal 4.254988e-13 9.876713e-01 1.565418e-01
    outer loop
      vertex -1.638140e+02 6.579217e+01 -3.819428e+02
      vertex -1.630640e+02 6.561997e+01 -3.808564e+02
      vertex -1.026557e+01 6.561997e+01 -3.808564e+02
    endloop
  endfacet
  facet normal 4.555982e-13 9.876713e-01 1.565418e-01
    outer loop
      vertex -1.638140e+02 6.579217e+01 -3.819428e+02
      vertex -1.635943e+02 6.565436e+01 -3.810733e+02
      vertex -1.630640e+02 6.561997e+01 -3.808564e+02
    endloop
  endfacet
  facet normal 4.257415e-13 9.876713e-01 1.565418e-01
    outer loop
      vertex -9.664867e+00 6.566708e+01 -3.811536e+02
      vertex -1.638140e+02 6.579217e+01 -3.819428e+02
      vertex -1.026557e+01 6.561997e+01 -3.808564e+02
    endloop
  endfacet
  facet normal 5.514042e-14 9.876713e-01 1.565418e-01
    outer loop
      vertex -1.638140e+02 6.579217e+01 -3.819428e+02
      vertex -1.638140e+02 6.573738e+01 -3.815971e+02
      vertex -1.635943e+02 6.565436e+01 -3.810733e+02
    endloop
  endfacet
  facet normal 4.256863e-13 9.876713e-01 1.565418e-01
    outer loop
      vertex -9.664867e+00 6.566708e+01 -3.811536e+02
      vertex -9.586699e+00 6.579217e+01 -3.819428e+02
      vertex -1.638140e+02 6.579217e+01 -3.819428e+02
    endloop
  endfacet
  facet normal -2.696973e-12 1.565418e-01 -9.876713e-01
    outer loop
      vertex -1.638140e+02 6.276989e+01 -3.824218e+02
      vertex -1.638140e+02 6.579217e+01 -3.819428e+02
      vertex -9.586699e+00 6.579217e+01 -3.819428e+02
    endloop
  endfacet
  facet normal 3.912132e-14 9.876713e-01 1.565418e-01
    outer loop
      vertex -9.664867e+00 6.566708e+01 -3.811536e+02
      vertex -9.566762e+00 6.578145e+01 -3.818752e+02
      vertex -9.586699e+00 6.579217e+01 -3.819428e+02
    endloop
  endfacet
  facet normal 9.601472e-01 4.375263e-02 -2.760491e-01
    outer loop
      vertex -9.586699e+00 6.276989e+01 -3.824218e+02
      vertex -9.586699e+00 6.579217e+01 -3.819428e+02
      vertex -9.566762e+00 6.578145e+01 -3.818752e+02
    endloop
  endfacet
  facet normal -2.696972e-12 1.565418e-01 -9.876713e-01
    outer loop
      vertex -9.586699e+00 6.276989e+01 -3.824218e+02
      vertex -1.638140e+02 6.276989e+01 -3.824218e+02
      vertex -9.586699e+00 6.579217e+01 -3.819428e+02
    endloop
  endfacet
  facet normal 2.986419e-13 9.876713e-01 1.565418e-01
    outer loop
      vertex -9.664867e+00 6.566708e+01 -3.811536e+02
      vertex -9.546231e+00 6.577061e+01 -3.818067e+02
      vertex -9.566762e+00 6.578145e+01 -3.818752e+02
    endloop
  endfacet
  facet normal 9.587598e-01 4.460523e-02 -2.806955e-01
    outer loop
      vertex -9.586699e+00 6.276989e+01 -3.824218e+02
      vertex -9.566762e+00 6.578145e+01 -3.818752e+02
      vertex -9.546231e+00 6.577061e+01 -3.818067e+02
    endloop
  endfacet
  facet normal -4.256861e-13 -9.876713e-01 -1.565418e-01
    outer loop
      vertex -1.470050e+02 6.091331e+01 -3.707080e+02
      vertex -1.638140e+02 6.276989e+01 -3.824218e+02
      vertex -9.586699e+00 6.276989e+01 -3.824218e+02
    endloop
  endfacet
  facet normal -4.481786e-13 -9.876713e-01 -1.565418e-01
    outer loop
      vertex -1.012036e+01 5.097747e+01 -3.080197e+02
      vertex -1.050001e+01 5.068004e+01 -3.061431e+02
      vertex -9.586699e+00 6.276989e+01 -3.824218e+02
    endloop
  endfacet
  facet normal -4.261327e-13 -9.876713e-01 -1.565418e-01
    outer loop
      vertex -4.826400e+01 6.067850e+01 -3.692265e+02
      vertex -9.586699e+00 6.276989e+01 -3.824218e+02
      vertex -1.050001e+01 5.068004e+01 -3.061431e+02
    endloop
  endfacet
  facet normal -4.153438e-13 -9.876713e-01 -1.565418e-01
    outer loop
      vertex -8.803626e+00 5.193156e+01 -3.140394e+02
      vertex -1.012036e+01 5.097747e+01 -3.080197e+02
      vertex -9.586699e+00 6.276989e+01 -3.824218e+02
    endloop
  endfacet
  facet normal -4.108811e-13 -9.876713e-01 -1.565418e-01
    outer loop
      vertex -7.795859e+00 6.170537e+01 -3.757054e+02
      vertex -8.803626e+00 5.193156e+01 -3.140394e+02
      vertex -9.586699e+00 6.276989e+01 -3.824218e+02
    endloop
  endfacet
  facet normal -4.250301e-13 -9.876713e-01 -1.565418e-01
    outer loop
      vertex -4.826400e+01 6.067850e+01 -3.692265e+02
      vertex -4.976400e+01 6.091331e+01 -3.707080e+02
      vertex -9.586699e+00 6.276989e+01 -3.824218e+02
    endloop
  endfacet
  facet normal -4.256123e-13 -9.876713e-01 -1.565418e-01
    outer loop
      vertex -1.470050e+02 6.091331e+01 -3.707080e+02
      vertex -9.586699e+00 6.276989e+01 -3.824218e+02
      vertex -4.976400e+01 6.091331e+01 -3.707080e+02
    endloop
  endfacet
  facet normal -2.427234e-13 -9.876713e-01 -1.565418e-01
    outer loop
      vertex -1.470050e+02 6.044368e+01 -3.677450e+02
      vertex -1.264847e+02 5.067545e+01 -3.061142e+02
      vertex -1.265140e+02 5.066438e+01 -3.060443e+02
    endloop
  endfacet
  facet normal 0.000000e+00 -9.876713e-01 -1.565418e-01
    outer loop
      vertex -4.976400e+01 6.044368e+01 -3.677450e+02
      vertex -1.264140e+02 5.068004e+01 -3.061431e+02
      vertex -1.264847e+02 5.067545e+01 -3.061142e+02
    endloop
  endfacet
  facet normal -4.256123e-13 -9.876713e-01 -1.565418e-01
    outer loop
      vertex -1.470050e+02 6.044368e+01 -3.677450e+02
      vertex -4.976400e+01 6.044368e+01 -3.677450e+02
      vertex -1.264847e+02 5.067545e+01 -3.061142e+02
    endloop
  endfacet
  facet normal -4.256148e-13 -9.876713e-01 -1.565418e-01
    outer loop
      vertex -4.976400e+01 6.044368e+01 -3.677450e+02
      vertex -1.050001e+01 5.068004e+01 -3.061431e+02
      vertex -1.264140e+02 5.068004e+01 -3.061431e+02
    endloop
  endfacet
  facet normal -4.257716e-13 -9.876713e-01 -1.565418e-01
    outer loop
      vertex -4.976400e+01 6.044368e+01 -3.677450e+02
      vertex -4.826400e+01 6.067850e+01 -3.692265e+02
      vertex -1.050001e+01 5.068004e+01 -3.061431e+02
    endloop
  endfacet
  facet normal -4.416764e-13 -9.876713e-01 -1.565418e-01
    outer loop
      vertex -7.795859e+00 6.170537e+01 -3.757054e+02
      vertex -7.706110e+00 5.281992e+01 -3.196443e+02
      vertex -8.803626e+00 5.193156e+01 -3.140394e+02
    endloop
  endfacet
  facet normal 9.755788e-01 -5.134129e-02 2.135651e-01
    outer loop
      vertex -9.889709e+00 5.402682e+01 -3.085744e+02
      vertex -1.004913e+01 5.391563e+01 -3.078728e+02
      vertex -8.803626e+00 5.193156e+01 -3.140394e+02
    endloop
  endfacet
  facet normal 9.761345e-01 -4.701441e-02 2.120166e-01
    outer loop
      vertex -9.733199e+00 5.413715e+01 -3.092705e+02
      vertex -9.889709e+00 5.402682e+01 -3.085744e+02
      vertex -8.803626e+00 5.193156e+01 -3.140394e+02
    endloop
  endfacet
  facet normal -4.213355e-13 -9.876713e-01 -1.565418e-01
    outer loop
      vertex -6.975786e+00 6.110128e+01 -3.718940e+02
      vertex -6.823055e+00 5.363725e+01 -3.248011e+02
      vertex -7.706110e+00 5.281992e+01 -3.196443e+02
    endloop
  endfacet
  facet normal -4.276939e-13 -9.876713e-01 -1.565418e-01
    outer loop
      vertex -7.795859e+00 6.170537e+01 -3.757054e+02
      vertex -6.975786e+00 6.110128e+01 -3.718940e+02
      vertex -7.706110e+00 5.281992e+01 -3.196443e+02
    endloop
  endfacet
  facet normal -4.231460e-13 -9.876713e-01 -1.565418e-01
    outer loop
      vertex -6.088627e+00 6.028514e+01 -3.667447e+02
      vertex -5.863858e+00 5.473187e+01 -3.317074e+02
      vertex -6.823055e+00 5.363725e+01 -3.248011e+02
    endloop
  endfacet
  facet normal -4.346722e-13 -9.876713e-01 -1.565418e-01
    outer loop
      vertex -6.975786e+00 6.110128e+01 -3.718940e+02
      vertex -6.088627e+00 6.028514e+01 -3.667447e+02
      vertex -6.823055e+00 5.363725e+01 -3.248011e+02
    endloop
  endfacet
  facet normal -4.152389e-13 -9.876713e-01 -1.565418e-01
    outer loop
      vertex -5.264000e+00 5.916086e+01 -3.596513e+02
      vertex -5.264000e+00 5.568667e+01 -3.377315e+02
      vertex -5.863858e+00 5.473187e+01 -3.317074e+02
    endloop
  endfacet
  facet normal -4.054139e-13 -9.876713e-01 -1.565418e-01
    outer loop
      vertex -6.088627e+00 6.028514e+01 -3.667447e+02
      vertex -5.264000e+00 5.916086e+01 -3.596513e+02
      vertex -5.863858e+00 5.473187e+01 -3.317074e+02
    endloop
  endfacet
  facet normal 7.071068e-01 -6.983891e-01 -1.106918e-01
    outer loop
      vertex -4.923378e+00 5.692444e+01 -3.433651e+02
      vertex -5.264000e+00 5.568667e+01 -3.377315e+02
      vertex -5.264000e+00 5.916086e+01 -3.596513e+02
    endloop
  endfacet
  facet normal 9.980121e-01 9.896100e-03 -6.224059e-02
    outer loop
      vertex -4.933614e+00 5.866813e+01 -3.544320e+02
      vertex -5.264000e+00 5.916086e+01 -3.596513e+02
      vertex -4.933437e+00 6.144038e+01 -3.539883e+02
    endloop
  endfacet
  facet normal 7.071068e-01 -6.983891e-01 -1.106918e-01
    outer loop
      vertex -4.814638e+00 5.792679e+01 -3.489946e+02
      vertex -5.264000e+00 5.916086e+01 -3.596513e+02
      vertex -4.933614e+00 5.866813e+01 -3.544320e+02
    endloop
  endfacet
  facet normal 7.071068e-01 -6.983891e-01 -1.106918e-01
    outer loop
      vertex -4.923378e+00 5.692444e+01 -3.433651e+02
      vertex -5.264000e+00 5.916086e+01 -3.596513e+02
      vertex -4.814638e+00 5.792679e+01 -3.489946e+02
    endloop
  endfacet
  facet normal 4.256515e-13 9.876713e-01 1.565418e-01
    outer loop
      vertex -1.638140e+02 5.413715e+01 -3.092705e+02
      vertex -1.004913e+01 5.391563e+01 -3.078728e+02
      vertex -9.889709e+00 5.402682e+01 -3.085744e+02
    endloop
  endfacet
  facet normal 4.253906e-13 9.876713e-01 1.565418e-01
    outer loop
      vertex -1.031239e+01 5.384977e+01 -3.074573e+02
      vertex -1.004913e+01 5.391563e+01 -3.078728e+02
      vertex -1.638140e+02 5.413715e+01 -3.092705e+02
    endloop
  endfacet
  facet normal 4.256535e-13 9.876713e-01 1.565418e-01
    outer loop
      vertex -1.638140e+02 5.413715e+01 -3.092705e+02
      vertex -9.889709e+00 5.402682e+01 -3.085744e+02
      vertex -9.733199e+00 5.413715e+01 -3.092705e+02
    endloop
  endfacet
  facet normal 9.998185e-01 -2.954181e-03 1.882245e-02
    outer loop
      vertex -4.923378e+00 5.692444e+01 -3.433651e+02
      vertex -4.814631e+00 6.041077e+01 -3.485944e+02
      vertex -4.923531e+00 5.956851e+01 -3.429420e+02
    endloop
  endfacet
  facet normal 9.997658e-01 3.439307e-03 -2.136415e-02
    outer loop
      vertex -4.814638e+00 5.792679e+01 -3.489946e+02
      vertex -4.933437e+00 6.144038e+01 -3.539883e+02
      vertex -4.814631e+00 6.041077e+01 -3.485944e+02
    endloop
  endfacet
  facet normal 9.998192e-01 -3.027291e-03 1.877372e-02
    outer loop
      vertex -4.923378e+00 5.692444e+01 -3.433651e+02
      vertex -4.814638e+00 5.792679e+01 -3.489946e+02
      vertex -4.814631e+00 6.041077e+01 -3.485944e+02
    endloop
  endfacet
  facet normal 9.997650e-01 3.363424e-03 -2.141752e-02
    outer loop
      vertex -4.814638e+00 5.792679e+01 -3.489946e+02
      vertex -4.933614e+00 5.866813e+01 -3.544320e+02
      vertex -4.933437e+00 6.144038e+01 -3.539883e+02
    endloop
  endfacet
  facet normal 3.047339e-12 9.876713e-01 1.565418e-01
    outer loop
      vertex -8.437550e+00 6.568374e+01 -3.777440e+02
      vertex -8.079778e+00 6.545894e+01 -3.763257e+02
      vertex -8.262564e+00 6.557534e+01 -3.770601e+02
    endloop
  endfacet
  facet normal 3.021810e-13 9.876713e-01 1.565418e-01
    outer loop
      vertex -8.704245e+00 6.574736e+01 -3.781454e+02
      vertex -8.079778e+00 6.545894e+01 -3.763257e+02
      vertex -8.437550e+00 6.568374e+01 -3.777440e+02
    endloop
  endfacet
  facet normal 4.256812e-13 9.876713e-01 1.565418e-01
    outer loop
      vertex -1.638140e+02 6.545894e+01 -3.763257e+02
      vertex -8.079778e+00 6.545894e+01 -3.763257e+02
      vertex -1.638140e+02 6.565462e+01 -3.775603e+02
    endloop
  endfacet
  facet normal 4.254155e-13 9.876713e-01 1.565418e-01
    outer loop
      vertex -1.635943e+02 6.573764e+01 -3.780841e+02
      vertex -1.638140e+02 6.565462e+01 -3.775603e+02
      vertex -8.079778e+00 6.545894e+01 -3.763257e+02
    endloop
  endfacet
  facet normal 4.599957e-13 9.876713e-01 1.565418e-01
    outer loop
      vertex -1.635943e+02 5.385846e+01 -3.075121e+02
      vertex -1.638140e+02 5.413715e+01 -3.092705e+02
      vertex -1.638140e+02 5.394147e+01 -3.080359e+02
    endloop
  endfacet
endsolid P1040852002
