solid AVALON_SHIELDING_ASSY
  facet normal 1.000000e+00 0.000000e+00 0.000000e+00
    outer loop
      vertex 9.398688e+01 -6.571460e+01 -3.572388e+02
      vertex 9.398688e+01 -1.047654e+02 -3.398398e+02
      vertex 9.398688e+01 -1.079399e+02 -3.430148e+02
    endloop
  endfacet
  facet normal 0.000000e+00 -7.071615e-01 7.070520e-01
    outer loop
      vertex 7.874688e+01 -1.079399e+02 -3.430148e+02
      vertex 9.398688e+01 -1.079399e+02 -3.430148e+02
      vertex 9.398688e+01 -1.047654e+02 -3.398398e+02
    endloop
  endfacet
  facet normal 1.000000e+00 0.000000e+00 0.000000e+00
    outer loop
      vertex 9.398688e+01 -1.193699e+02 -3.482963e+02
      vertex 9.398688e+01 -1.079399e+02 -3.430148e+02
      vertex 9.398688e+01 -1.111144e+02 -3.398398e+02
    endloop
  endfacet
  facet normal -2.281735e-05 7.071615e-01 7.070520e-01
    outer loop
      vertex 7.874688e+01 -1.111149e+02 -3.398398e+02
      vertex 9.398688e+01 -1.111144e+02 -3.398398e+02
      vertex 9.398688e+01 -1.079399e+02 -3.430148e+02
    endloop
  endfacet
  facet normal 1.000000e+00 0.000000e+00 0.000000e+00
    outer loop
      vertex 9.398688e+01 -1.193699e+02 -3.482963e+02
      vertex 9.398688e+01 -6.571460e+01 -3.572388e+02
      vertex 9.398688e+01 -1.079399e+02 -3.430148e+02
    endloop
  endfacet
  facet normal 0.000000e+00 7.071068e-01 7.071068e-01
    outer loop
      vertex 7.874688e+01 -1.111149e+02 -3.398398e+02
      vertex 9.398688e+01 -1.079399e+02 -3.430148e+02
      vertex 7.874688e+01 -1.079399e+02 -3.430148e+02
    endloop
  endfacet
  facet normal 1.000000e+00 0.000000e+00 0.000000e+00
    outer loop
      vertex 9.398688e+01 -1.087019e+02 -3.219328e+02
      vertex 9.398688e+01 -1.079399e+02 -3.366648e+02
      vertex 9.398688e+01 -1.047654e+02 -3.398398e+02
    endloop
  endfacet
  facet normal -2.281735e-05 -7.071615e-01 -7.070520e-01
    outer loop
      vertex 7.874688e+01 -1.047649e+02 -3.398398e+02
      vertex 9.398688e+01 -1.047654e+02 -3.398398e+02
      vertex 9.398688e+01 -1.079399e+02 -3.366648e+02
    endloop
  endfacet
  facet normal 1.000000e+00 0.000000e+00 0.000000e+00
    outer loop
      vertex 9.398688e+01 -1.020531e+02 -3.191768e+02
      vertex 9.398688e+01 -1.087019e+02 -3.219328e+02
      vertex 9.398688e+01 -1.047654e+02 -3.398398e+02
    endloop
  endfacet
  facet normal 1.000000e+00 0.000000e+00 0.000000e+00
    outer loop
      vertex 9.398688e+01 -6.571460e+01 -3.572388e+02
      vertex 9.398688e+01 -1.020531e+02 -3.191768e+02
      vertex 9.398688e+01 -1.047654e+02 -3.398398e+02
    endloop
  endfacet
  facet normal -2.281558e-05 -7.071068e-01 7.071068e-01
    outer loop
      vertex 7.874688e+01 -1.079399e+02 -3.430148e+02
      vertex 9.398688e+01 -1.047654e+02 -3.398398e+02
      vertex 7.874688e+01 -1.047649e+02 -3.398398e+02
    endloop
  endfacet
  facet normal 1.000000e+00 0.000000e+00 0.000000e+00
    outer loop
      vertex 9.398688e+01 -1.087019e+02 -3.219328e+02
      vertex 9.398688e+01 -1.111144e+02 -3.398398e+02
      vertex 9.398688e+01 -1.079399e+02 -3.366648e+02
    endloop
  endfacet
  facet normal 0.000000e+00 7.071615e-01 -7.070520e-01
    outer loop
      vertex 7.874688e+01 -1.079399e+02 -3.366648e+02
      vertex 9.398688e+01 -1.079399e+02 -3.366648e+02
      vertex 9.398688e+01 -1.111144e+02 -3.398398e+02
    endloop
  endfacet
  facet normal 0.000000e+00 -7.071068e-01 -7.071068e-01
    outer loop
      vertex 7.874688e+01 -1.047649e+02 -3.398398e+02
      vertex 9.398688e+01 -1.079399e+02 -3.366648e+02
      vertex 7.874688e+01 -1.079399e+02 -3.366648e+02
    endloop
  endfacet
  facet normal 1.000000e+00 0.000000e+00 0.000000e+00
    outer loop
      vertex 9.398688e+01 -1.193699e+02 -3.219328e+02
      vertex 9.398688e+01 -1.111144e+02 -3.398398e+02
      vertex 9.398688e+01 -1.087019e+02 -3.219328e+02
    endloop
  endfacet
  facet normal 1.000000e+00 0.000000e+00 0.000000e+00
    outer loop
      vertex 9.398688e+01 -1.193699e+02 -3.219328e+02
      vertex 9.398688e+01 -1.193699e+02 -3.482963e+02
      vertex 9.398688e+01 -1.111144e+02 -3.398398e+02
    endloop
  endfacet
  facet normal -2.281558e-05 7.071068e-01 -7.071068e-01
    outer loop
      vertex 7.874688e+01 -1.111149e+02 -3.398398e+02
      vertex 7.874688e+01 -1.079399e+02 -3.366648e+02
      vertex 9.398688e+01 -1.111144e+02 -3.398398e+02
    endloop
  endfacet
  facet normal 1.000000e+00 1.906438e-16 -1.906143e-16
    outer loop
      vertex 9.398688e+01 1.007802e-02 -3.572388e+02
      vertex 9.398688e+01 -2.221541e+01 -3.049148e+02
      vertex 9.398688e+01 -2.538992e+01 -3.080898e+02
    endloop
  endfacet
  facet normal 0.000000e+00 -7.071615e-01 7.070520e-01
    outer loop
      vertex 7.874688e+01 -2.538992e+01 -3.080898e+02
      vertex 9.398688e+01 -2.538992e+01 -3.080898e+02
      vertex 9.398688e+01 -2.221541e+01 -3.049148e+02
    endloop
  endfacet
  facet normal 1.000000e+00 -5.985688e-16 -5.984761e-16
    outer loop
      vertex 9.398688e+01 1.007802e-02 -3.572388e+02
      vertex 9.398688e+01 -2.538992e+01 -3.080898e+02
      vertex 9.398688e+01 -2.856443e+01 -3.049148e+02
    endloop
  endfacet
  facet normal -2.281735e-05 7.071615e-01 7.070520e-01
    outer loop
      vertex 7.874688e+01 -2.856492e+01 -3.049148e+02
      vertex 9.398688e+01 -2.856443e+01 -3.049148e+02
      vertex 9.398688e+01 -2.538992e+01 -3.080898e+02
    endloop
  endfacet
  facet normal 0.000000e+00 7.071068e-01 7.071068e-01
    outer loop
      vertex 7.874688e+01 -2.856492e+01 -3.049148e+02
      vertex 9.398688e+01 -2.538992e+01 -3.080898e+02
      vertex 7.874688e+01 -2.538992e+01 -3.080898e+02
    endloop
  endfacet
  facet normal 1.000000e+00 2.984122e-16 2.983660e-16
    outer loop
      vertex 9.398688e+01 1.007802e-02 -2.795148e+02
      vertex 9.398688e+01 -2.538992e+01 -3.017398e+02
      vertex 9.398688e+01 -2.221541e+01 -3.049148e+02
    endloop
  endfacet
  facet normal -2.281735e-05 -7.071615e-01 -7.070520e-01
    outer loop
      vertex 7.874688e+01 -2.221492e+01 -3.049148e+02
      vertex 9.398688e+01 -2.221541e+01 -3.049148e+02
      vertex 9.398688e+01 -2.538992e+01 -3.017398e+02
    endloop
  endfacet
  facet normal 1.000000e+00 6.393944e-16 0.000000e+00
    outer loop
      vertex 9.398688e+01 1.007802e-02 -3.572388e+02
      vertex 9.398688e+01 1.007802e-02 -2.795148e+02
      vertex 9.398688e+01 -2.221541e+01 -3.049148e+02
    endloop
  endfacet
  facet normal -2.281558e-05 -7.071068e-01 7.071068e-01
    outer loop
      vertex 7.874688e+01 -2.538992e+01 -3.080898e+02
      vertex 9.398688e+01 -2.221541e+01 -3.049148e+02
      vertex 7.874688e+01 -2.221492e+01 -3.049148e+02
    endloop
  endfacet
  facet normal 1.000000e+00 0.000000e+00 0.000000e+00
    outer loop
      vertex 9.398688e+01 -1.193699e+02 -2.795148e+02
      vertex 9.398688e+01 -2.856443e+01 -3.049148e+02
      vertex 9.398688e+01 -2.538992e+01 -3.017398e+02
    endloop
  endfacet
  facet normal 0.000000e+00 7.071615e-01 -7.070520e-01
    outer loop
      vertex 7.874688e+01 -2.538992e+01 -3.017398e+02
      vertex 9.398688e+01 -2.538992e+01 -3.017398e+02
      vertex 9.398688e+01 -2.856443e+01 -3.049148e+02
    endloop
  endfacet
  facet normal 1.000000e+00 1.190388e-16 5.033642e-16
    outer loop
      vertex 9.398688e+01 1.007802e-02 -2.795148e+02
      vertex 9.398688e+01 -1.193699e+02 -2.795148e+02
      vertex 9.398688e+01 -2.538992e+01 -3.017398e+02
    endloop
  endfacet
  facet normal 0.000000e+00 -7.071068e-01 -7.071068e-01
    outer loop
      vertex 7.874688e+01 -2.221492e+01 -3.049148e+02
      vertex 9.398688e+01 -2.538992e+01 -3.017398e+02
      vertex 7.874688e+01 -2.538992e+01 -3.017398e+02
    endloop
  endfacet
  facet normal 1.000000e+00 0.000000e+00 0.000000e+00
    outer loop
      vertex 9.398688e+01 -1.193699e+02 -2.795148e+02
      vertex 9.398688e+01 -1.020600e+02 -3.002980e+02
      vertex 9.398688e+01 -2.856443e+01 -3.049148e+02
    endloop
  endfacet
  facet normal 1.000000e+00 0.000000e+00 0.000000e+00
    outer loop
      vertex 9.398688e+01 -6.571460e+01 -3.572388e+02
      vertex 9.398688e+01 -2.856443e+01 -3.049148e+02
      vertex 9.398688e+01 -1.020600e+02 -3.002980e+02
    endloop
  endfacet
  facet normal 1.000000e+00 2.162180e-16 -1.535153e-16
    outer loop
      vertex 9.398688e+01 -6.571460e+01 -3.572388e+02
      vertex 9.398688e+01 1.007802e-02 -3.572388e+02
      vertex 9.398688e+01 -2.856443e+01 -3.049148e+02
    endloop
  endfacet
  facet normal -2.281558e-05 7.071068e-01 -7.071068e-01
    outer loop
      vertex 7.874688e+01 -2.856492e+01 -3.049148e+02
      vertex 7.874688e+01 -2.538992e+01 -3.017398e+02
      vertex 9.398688e+01 -2.856443e+01 -3.049148e+02
    endloop
  endfacet
  facet normal 6.785590e-01 -2.812743e-01 6.785590e-01
    outer loop
      vertex 9.093888e+01 -1.087019e+02 -3.188848e+02
      vertex 9.398688e+01 -1.087019e+02 -3.219328e+02
      vertex 9.398688e+01 -1.020531e+02 -3.191768e+02
    endloop
  endfacet
  facet normal 7.071068e-01 0.000000e+00 7.071068e-01
    outer loop
      vertex 9.093888e+01 -1.193699e+02 -3.188848e+02
      vertex 9.398688e+01 -1.193699e+02 -3.219328e+02
      vertex 9.398688e+01 -1.087019e+02 -3.219328e+02
    endloop
  endfacet
  facet normal 7.071068e-01 0.000000e+00 7.071068e-01
    outer loop
      vertex 9.093888e+01 -1.087019e+02 -3.188848e+02
      vertex 9.093888e+01 -1.193699e+02 -3.188848e+02
      vertex 9.398688e+01 -1.087019e+02 -3.219328e+02
    endloop
  endfacet
  facet normal 1.000000e+00 0.000000e+00 0.000000e+00
    outer loop
      vertex 9.398688e+01 -6.571460e+01 -3.572388e+02
      vertex 9.398688e+01 -9.930392e+01 -3.125348e+02
      vertex 9.398688e+01 -1.020531e+02 -3.191768e+02
    endloop
  endfacet
  facet normal 6.786111e-01 -6.786600e-01 2.809050e-01
    outer loop
      vertex 9.093888e+01 -1.042091e+02 -3.170223e+02
      vertex 9.398688e+01 -1.020531e+02 -3.191768e+02
      vertex 9.398688e+01 -9.930392e+01 -3.125348e+02
    endloop
  endfacet
  facet normal 6.785918e-01 -2.812911e-01 6.785194e-01
    outer loop
      vertex 9.093888e+01 -1.087019e+02 -3.188848e+02
      vertex 9.398688e+01 -1.020531e+02 -3.191768e+02
      vertex 9.093888e+01 -1.042091e+02 -3.170223e+02
    endloop
  endfacet
  facet normal 1.000000e+00 0.000000e+00 0.000000e+00
    outer loop
      vertex 9.398688e+01 -6.571460e+01 -3.572388e+02
      vertex 9.398688e+01 -9.930392e+01 -3.069468e+02
      vertex 9.398688e+01 -9.930392e+01 -3.125348e+02
    endloop
  endfacet
  facet normal 7.071068e-01 -7.071068e-01 -1.843673e-15
    outer loop
      vertex 9.093888e+01 -1.023519e+02 -3.125348e+02
      vertex 9.398688e+01 -9.930392e+01 -3.125348e+02
      vertex 9.398688e+01 -9.930392e+01 -3.069468e+02
    endloop
  endfacet
  facet normal 6.786438e-01 -6.786438e-01 2.808651e-01
    outer loop
      vertex 9.093888e+01 -1.042091e+02 -3.170223e+02
      vertex 9.398688e+01 -9.930392e+01 -3.125348e+02
      vertex 9.093888e+01 -1.023519e+02 -3.125348e+02
    endloop
  endfacet
  facet normal 1.000000e+00 0.000000e+00 0.000000e+00
    outer loop
      vertex 9.398688e+01 -6.571460e+01 -3.572388e+02
      vertex 9.398688e+01 -1.020600e+02 -3.002980e+02
      vertex 9.398688e+01 -9.930392e+01 -3.069468e+02
    endloop
  endfacet
  facet normal 6.785590e-01 -6.785590e-01 -2.812743e-01
    outer loop
      vertex 9.093888e+01 -1.023519e+02 -3.069468e+02
      vertex 9.398688e+01 -9.930392e+01 -3.069468e+02
      vertex 9.398688e+01 -1.020600e+02 -3.002980e+02
    endloop
  endfacet
  facet normal 7.071068e-01 -7.071068e-01 0.000000e+00
    outer loop
      vertex 9.093888e+01 -1.023519e+02 -3.125348e+02
      vertex 9.398688e+01 -9.930392e+01 -3.069468e+02
      vertex 9.093888e+01 -1.023519e+02 -3.069468e+02
    endloop
  endfacet
  facet normal 1.000000e+00 0.000000e+00 0.000000e+00
    outer loop
      vertex 9.398688e+01 -1.193699e+02 -2.795148e+02
      vertex 9.398688e+01 -1.087019e+02 -2.975488e+02
      vertex 9.398688e+01 -1.020600e+02 -3.002980e+02
    endloop
  endfacet
  facet normal 6.786111e-01 -2.809050e-01 -6.786600e-01
    outer loop
      vertex 9.093888e+01 -1.042145e+02 -3.024540e+02
      vertex 9.398688e+01 -1.020600e+02 -3.002980e+02
      vertex 9.398688e+01 -1.087019e+02 -2.975488e+02
    endloop
  endfacet
  facet normal 6.785918e-01 -6.785194e-01 -2.812911e-01
    outer loop
      vertex 9.093888e+01 -1.023519e+02 -3.069468e+02
      vertex 9.398688e+01 -1.020600e+02 -3.002980e+02
      vertex 9.093888e+01 -1.042145e+02 -3.024540e+02
    endloop
  endfacet
  facet normal 1.000000e+00 0.000000e+00 0.000000e+00
    outer loop
      vertex 9.398688e+01 -1.193699e+02 -2.795148e+02
      vertex 9.398688e+01 -1.193699e+02 -2.975488e+02
      vertex 9.398688e+01 -1.087019e+02 -2.975488e+02
    endloop
  endfacet
  facet normal 7.071068e-01 0.000000e+00 -7.071068e-01
    outer loop
      vertex 9.093888e+01 -1.087019e+02 -3.005968e+02
      vertex 9.398688e+01 -1.087019e+02 -2.975488e+02
      vertex 9.398688e+01 -1.193699e+02 -2.975488e+02
    endloop
  endfacet
  facet normal 6.786438e-01 -2.808651e-01 -6.786438e-01
    outer loop
      vertex 9.093888e+01 -1.042145e+02 -3.024540e+02
      vertex 9.398688e+01 -1.087019e+02 -2.975488e+02
      vertex 9.093888e+01 -1.087019e+02 -3.005968e+02
    endloop
  endfacet
  facet normal 0.000000e+00 -1.000000e+00 0.000000e+00
    outer loop
      vertex -9.397312e+01 -1.193699e+02 -2.795148e+02
      vertex 9.398688e+01 -1.193699e+02 -2.975488e+02
      vertex 9.398688e+01 -1.193699e+02 -2.795148e+02
    endloop
  endfacet
  facet normal 0.000000e+00 -1.000000e+00 0.000000e+00
    outer loop
      vertex 9.093888e+01 -1.193699e+02 -3.005968e+02
      vertex 9.398688e+01 -1.193699e+02 -2.975488e+02
      vertex -9.397312e+01 -1.193699e+02 -2.795148e+02
    endloop
  endfacet
  facet normal 7.071068e-01 -9.419377e-16 -7.071068e-01
    outer loop
      vertex 9.093888e+01 -1.087019e+02 -3.005968e+02
      vertex 9.398688e+01 -1.193699e+02 -2.975488e+02
      vertex 9.093888e+01 -1.193699e+02 -3.005968e+02
    endloop
  endfacet
  facet normal 0.000000e+00 0.000000e+00 1.000000e+00
    outer loop
      vertex -9.397312e+01 1.007802e-02 -2.795148e+02
      vertex 9.398688e+01 -1.193699e+02 -2.795148e+02
      vertex 9.398688e+01 1.007802e-02 -2.795148e+02
    endloop
  endfacet
  facet normal 0.000000e+00 0.000000e+00 1.000000e+00
    outer loop
      vertex -9.397312e+01 -1.193699e+02 -2.795148e+02
      vertex 9.398688e+01 -1.193699e+02 -2.795148e+02
      vertex -9.397312e+01 1.007802e-02 -2.795148e+02
    endloop
  endfacet
  facet normal 0.000000e+00 1.000000e+00 0.000000e+00
    outer loop
      vertex -9.397312e+01 1.007802e-02 -3.572388e+02
      vertex 9.398688e+01 1.007802e-02 -2.795148e+02
      vertex 9.398688e+01 1.007802e-02 -3.572388e+02
    endloop
  endfacet
  facet normal 0.000000e+00 1.000000e+00 0.000000e+00
    outer loop
      vertex -9.397312e+01 1.007802e-02 -2.795148e+02
      vertex 9.398688e+01 1.007802e-02 -2.795148e+02
      vertex -9.397312e+01 1.007802e-02 -3.572388e+02
    endloop
  endfacet
  facet normal 1.409630e-15 -8.648718e-16 -1.000000e+00
    outer loop
      vertex 7.976777e+01 -8.888992e+01 -3.572388e+02
      vertex 9.398688e+01 1.007802e-02 -3.572388e+02
      vertex 9.398688e+01 -6.571460e+01 -3.572388e+02
    endloop
  endfacet
  facet normal 0.000000e+00 -8.648718e-16 -1.000000e+00
    outer loop
      vertex -9.397312e+01 1.007802e-02 -3.572388e+02
      vertex 9.398688e+01 1.007802e-02 -3.572388e+02
      vertex -9.397312e+01 -6.571460e+01 -3.572388e+02
    endloop
  endfacet
  facet normal -2.490019e-16 -1.527740e-16 -1.000000e+00
    outer loop
      vertex -7.975401e+01 -8.888992e+01 -3.572388e+02
      vertex -9.397312e+01 -6.571460e+01 -3.572388e+02
      vertex 9.398688e+01 1.007802e-02 -3.572388e+02
    endloop
  endfacet
  facet normal 0.000000e+00 -6.394085e-16 -1.000000e+00
    outer loop
      vertex 7.976777e+01 -8.888992e+01 -3.572388e+02
      vertex -7.975401e+01 -8.888992e+01 -3.572388e+02
      vertex 9.398688e+01 1.007802e-02 -3.572388e+02
    endloop
  endfacet
  facet normal 2.588190e-01 -1.587972e-01 -9.527834e-01
    outer loop
      vertex 7.976777e+01 -8.888992e+01 -3.572388e+02
      vertex 9.398688e+01 -6.571460e+01 -3.572388e+02
      vertex 9.398688e+01 -1.193699e+02 -3.482963e+02
    endloop
  endfacet
  facet normal 0.000000e+00 -1.000000e+00 0.000000e+00
    outer loop
      vertex 9.093888e+01 -1.193699e+02 -3.188848e+02
      vertex 9.398688e+01 -1.193699e+02 -3.482963e+02
      vertex 9.398688e+01 -1.193699e+02 -3.219328e+02
    endloop
  endfacet
  facet normal 0.000000e+00 -1.000000e+00 0.000000e+00
    outer loop
      vertex 7.976777e+01 -1.193699e+02 -3.521588e+02
      vertex 9.398688e+01 -1.193699e+02 -3.482963e+02
      vertex 9.093888e+01 -1.193699e+02 -3.188848e+02
    endloop
  endfacet
  facet normal 2.588190e-01 -1.587972e-01 -9.527834e-01
    outer loop
      vertex 7.976777e+01 -8.888992e+01 -3.572388e+02
      vertex 9.398688e+01 -1.193699e+02 -3.482963e+02
      vertex 7.976777e+01 -1.193699e+02 -3.521588e+02
    endloop
  endfacet
  facet normal -1.000000e+00 0.000000e+00 0.000000e+00
    outer loop
      vertex -9.397312e+01 -1.193699e+02 -3.482963e+02
      vertex -9.397312e+01 -1.111144e+02 -3.398398e+02
      vertex -9.397312e+01 -1.079399e+02 -3.430148e+02
    endloop
  endfacet
  facet normal 0.000000e+00 7.071615e-01 7.070520e-01
    outer loop
      vertex -7.873312e+01 -1.079399e+02 -3.430148e+02
      vertex -9.397312e+01 -1.079399e+02 -3.430148e+02
      vertex -9.397312e+01 -1.111144e+02 -3.398398e+02
    endloop
  endfacet
  facet normal -1.000000e+00 0.000000e+00 0.000000e+00
    outer loop
      vertex -9.397312e+01 -6.571460e+01 -3.572388e+02
      vertex -9.397312e+01 -1.079399e+02 -3.430148e+02
      vertex -9.397312e+01 -1.047654e+02 -3.398398e+02
    endloop
  endfacet
  facet normal 2.281735e-05 -7.071615e-01 7.070520e-01
    outer loop
      vertex -7.873312e+01 -1.047649e+02 -3.398398e+02
      vertex -9.397312e+01 -1.047654e+02 -3.398398e+02
      vertex -9.397312e+01 -1.079399e+02 -3.430148e+02
    endloop
  endfacet
  facet normal -1.000000e+00 0.000000e+00 0.000000e+00
    outer loop
      vertex -9.397312e+01 -6.571460e+01 -3.572388e+02
      vertex -9.397312e+01 -1.193699e+02 -3.482963e+02
      vertex -9.397312e+01 -1.079399e+02 -3.430148e+02
    endloop
  endfacet
  facet normal 0.000000e+00 -7.071068e-01 7.071068e-01
    outer loop
      vertex -7.873312e+01 -1.047649e+02 -3.398398e+02
      vertex -9.397312e+01 -1.079399e+02 -3.430148e+02
      vertex -7.873312e+01 -1.079399e+02 -3.430148e+02
    endloop
  endfacet
  facet normal -1.000000e+00 0.000000e+00 0.000000e+00
    outer loop
      vertex -9.397312e+01 -1.087019e+02 -3.219328e+02
      vertex -9.397312e+01 -1.079399e+02 -3.366648e+02
      vertex -9.397312e+01 -1.111144e+02 -3.398398e+02
    endloop
  endfacet
  facet normal 2.281735e-05 7.071615e-01 -7.070520e-01
    outer loop
      vertex -7.873312e+01 -1.111149e+02 -3.398398e+02
      vertex -9.397312e+01 -1.111144e+02 -3.398398e+02
      vertex -9.397312e+01 -1.079399e+02 -3.366648e+02
    endloop
  endfacet
  facet normal -1.000000e+00 0.000000e+00 0.000000e+00
    outer loop
      vertex -9.397312e+01 -1.193699e+02 -3.482963e+02
      vertex -9.397312e+01 -1.087019e+02 -3.219328e+02
      vertex -9.397312e+01 -1.111144e+02 -3.398398e+02
    endloop
  endfacet
  facet normal 2.281558e-05 7.071068e-01 7.071068e-01
    outer loop
      vertex -7.873312e+01 -1.079399e+02 -3.430148e+02
      vertex -9.397312e+01 -1.111144e+02 -3.398398e+02
      vertex -7.873312e+01 -1.111149e+02 -3.398398e+02
    endloop
  endfacet
  facet normal -1.000000e+00 0.000000e+00 0.000000e+00
    outer loop
      vertex -9.397312e+01 -1.020531e+02 -3.191768e+02
      vertex -9.397312e+01 -1.047654e+02 -3.398398e+02
      vertex -9.397312e+01 -1.079399e+02 -3.366648e+02
    endloop
  endfacet
  facet normal 0.000000e+00 -7.071615e-01 -7.070520e-01
    outer loop
      vertex -7.873312e+01 -1.079399e+02 -3.366648e+02
      vertex -9.397312e+01 -1.079399e+02 -3.366648e+02
      vertex -9.397312e+01 -1.047654e+02 -3.398398e+02
    endloop
  endfacet
  facet normal -1.000000e+00 0.000000e+00 0.000000e+00
    outer loop
      vertex -9.397312e+01 -1.087019e+02 -3.219328e+02
      vertex -9.397312e+01 -1.020531e+02 -3.191768e+02
      vertex -9.397312e+01 -1.079399e+02 -3.366648e+02
    endloop
  endfacet
  facet normal 0.000000e+00 7.071068e-01 -7.071068e-01
    outer loop
      vertex -7.873312e+01 -1.111149e+02 -3.398398e+02
      vertex -9.397312e+01 -1.079399e+02 -3.366648e+02
      vertex -7.873312e+01 -1.079399e+02 -3.366648e+02
    endloop
  endfacet
  facet normal -1.000000e+00 0.000000e+00 0.000000e+00
    outer loop
      vertex -9.397312e+01 -1.020531e+02 -3.191768e+02
      vertex -9.397312e+01 -9.930392e+01 -3.125348e+02
      vertex -9.397312e+01 -1.047654e+02 -3.398398e+02
    endloop
  endfacet
  facet normal -1.000000e+00 0.000000e+00 0.000000e+00
    outer loop
      vertex -9.397312e+01 -6.571460e+01 -3.572388e+02
      vertex -9.397312e+01 -1.047654e+02 -3.398398e+02
      vertex -9.397312e+01 -9.930392e+01 -3.125348e+02
    endloop
  endfacet
  facet normal 2.281558e-05 -7.071068e-01 -7.071068e-01
    outer loop
      vertex -7.873312e+01 -1.047649e+02 -3.398398e+02
      vertex -7.873312e+01 -1.079399e+02 -3.366648e+02
      vertex -9.397312e+01 -1.047654e+02 -3.398398e+02
    endloop
  endfacet
  facet normal -1.000000e+00 0.000000e+00 0.000000e+00
    outer loop
      vertex -9.397312e+01 -6.571460e+01 -3.572388e+02
      vertex -9.397312e+01 -2.856443e+01 -3.049148e+02
      vertex -9.397312e+01 -2.538992e+01 -3.080898e+02
    endloop
  endfacet
  facet normal 0.000000e+00 7.071615e-01 7.070520e-01
    outer loop
      vertex -7.873312e+01 -2.538992e+01 -3.080898e+02
      vertex -9.397312e+01 -2.538992e+01 -3.080898e+02
      vertex -9.397312e+01 -2.856443e+01 -3.049148e+02
    endloop
  endfacet
  facet normal -1.000000e+00 0.000000e+00 0.000000e+00
    outer loop
      vertex -9.397312e+01 -6.571460e+01 -3.572388e+02
      vertex -9.397312e+01 -2.538992e+01 -3.080898e+02
      vertex -9.397312e+01 -2.221541e+01 -3.049148e+02
    endloop
  endfacet
  facet normal 2.281735e-05 -7.071615e-01 7.070520e-01
    outer loop
      vertex -7.873312e+01 -2.221492e+01 -3.049148e+02
      vertex -9.397312e+01 -2.221541e+01 -3.049148e+02
      vertex -9.397312e+01 -2.538992e+01 -3.080898e+02
    endloop
  endfacet
  facet normal 0.000000e+00 -7.071068e-01 7.071068e-01
    outer loop
      vertex -7.873312e+01 -2.221492e+01 -3.049148e+02
      vertex -9.397312e+01 -2.538992e+01 -3.080898e+02
      vertex -7.873312e+01 -2.538992e+01 -3.080898e+02
    endloop
  endfacet
  facet normal -1.000000e+00 0.000000e+00 0.000000e+00
    outer loop
      vertex -9.397312e+01 -9.930392e+01 -3.125348e+02
      vertex -9.397312e+01 -2.538992e+01 -3.017398e+02
      vertex -9.397312e+01 -2.856443e+01 -3.049148e+02
    endloop
  endfacet
  facet normal 2.281735e-05 7.071615e-01 -7.070520e-01
    outer loop
      vertex -7.873312e+01 -2.856492e+01 -3.049148e+02
      vertex -9.397312e+01 -2.856443e+01 -3.049148e+02
      vertex -9.397312e+01 -2.538992e+01 -3.017398e+02
    endloop
  endfacet
  facet normal -1.000000e+00 0.000000e+00 0.000000e+00
    outer loop
      vertex -9.397312e+01 -6.571460e+01 -3.572388e+02
      vertex -9.397312e+01 -9.930392e+01 -3.125348e+02
      vertex -9.397312e+01 -2.856443e+01 -3.049148e+02
    endloop
  endfacet
  facet normal 2.281558e-05 7.071068e-01 7.071068e-01
    outer loop
      vertex -7.873312e+01 -2.538992e+01 -3.080898e+02
      vertex -9.397312e+01 -2.856443e+01 -3.049148e+02
      vertex -7.873312e+01 -2.856492e+01 -3.049148e+02
    endloop
  endfacet
  facet normal -1.000000e+00 -2.984122e-16 -2.983660e-16
    outer loop
      vertex -9.397312e+01 1.007802e-02 -2.795148e+02
      vertex -9.397312e+01 -2.221541e+01 -3.049148e+02
      vertex -9.397312e+01 -2.538992e+01 -3.017398e+02
    endloop
  endfacet
  facet normal 0.000000e+00 -7.071615e-01 -7.070520e-01
    outer loop
      vertex -7.873312e+01 -2.538992e+01 -3.017398e+02
      vertex -9.397312e+01 -2.538992e+01 -3.017398e+02
      vertex -9.397312e+01 -2.221541e+01 -3.049148e+02
    endloop
  endfacet
  facet normal -1.000000e+00 1.120943e-16 -7.675163e-16
    outer loop
      vertex -9.397312e+01 1.007802e-02 -2.795148e+02
      vertex -9.397312e+01 -2.538992e+01 -3.017398e+02
      vertex -9.397312e+01 -9.930392e+01 -3.125348e+02
    endloop
  endfacet
  facet normal 0.000000e+00 7.071068e-01 -7.071068e-01
    outer loop
      vertex -7.873312e+01 -2.856492e+01 -3.049148e+02
      vertex -9.397312e+01 -2.538992e+01 -3.017398e+02
      vertex -7.873312e+01 -2.538992e+01 -3.017398e+02
    endloop
  endfacet
  facet normal -1.000000e+00 -1.280969e-14 1.064924e-14
    outer loop
      vertex -9.397312e+01 1.007802e-02 -2.795148e+02
      vertex -9.397312e+01 -6.571460e+01 -3.572388e+02
      vertex -9.397312e+01 -2.221541e+01 -3.049148e+02
    endloop
  endfacet
  facet normal 2.281558e-05 -7.071068e-01 -7.071068e-01
    outer loop
      vertex -7.873312e+01 -2.221492e+01 -3.049148e+02
      vertex -7.873312e+01 -2.538992e+01 -3.017398e+02
      vertex -9.397312e+01 -2.221541e+01 -3.049148e+02
    endloop
  endfacet
  facet normal -1.000000e+00 -1.430901e-16 0.000000e+00
    outer loop
      vertex -9.397312e+01 1.007802e-02 -2.795148e+02
      vertex -9.397312e+01 -9.930392e+01 -3.125348e+02
      vertex -9.397312e+01 -9.930392e+01 -3.069468e+02
    endloop
  endfacet
  facet normal -7.071068e-01 -7.071068e-01 0.000000e+00
    outer loop
      vertex -9.092512e+01 -1.023519e+02 -3.069468e+02
      vertex -9.397312e+01 -9.930392e+01 -3.069468e+02
      vertex -9.397312e+01 -9.930392e+01 -3.125348e+02
    endloop
  endfacet
  facet normal -1.000000e+00 -1.283900e-16 -5.321986e-17
    outer loop
      vertex -9.397312e+01 -1.020600e+02 -3.002980e+02
      vertex -9.397312e+01 1.007802e-02 -2.795148e+02
      vertex -9.397312e+01 -9.930392e+01 -3.069468e+02
    endloop
  endfacet
  facet normal -6.785855e-01 -6.785365e-01 -2.812650e-01
    outer loop
      vertex -9.092512e+01 -1.042145e+02 -3.024540e+02
      vertex -9.397312e+01 -1.020600e+02 -3.002980e+02
      vertex -9.397312e+01 -9.930392e+01 -3.069468e+02
    endloop
  endfacet
  facet normal -6.785527e-01 -6.785527e-01 -2.813049e-01
    outer loop
      vertex -9.092512e+01 -1.042145e+02 -3.024540e+02
      vertex -9.397312e+01 -9.930392e+01 -3.069468e+02
      vertex -9.092512e+01 -1.023519e+02 -3.069468e+02
    endloop
  endfacet
  facet normal -6.786375e-01 -6.786375e-01 2.808957e-01
    outer loop
      vertex -9.092512e+01 -1.023519e+02 -3.125348e+02
      vertex -9.397312e+01 -9.930392e+01 -3.125348e+02
      vertex -9.397312e+01 -1.020531e+02 -3.191768e+02
    endloop
  endfacet
  facet normal -7.071068e-01 -7.071068e-01 -1.798245e-15
    outer loop
      vertex -9.092512e+01 -1.023519e+02 -3.125348e+02
      vertex -9.092512e+01 -1.023519e+02 -3.069468e+02
      vertex -9.397312e+01 -9.930392e+01 -3.125348e+02
    endloop
  endfacet
  facet normal -6.785855e-01 -2.812650e-01 6.785365e-01
    outer loop
      vertex -9.092512e+01 -1.042091e+02 -3.170223e+02
      vertex -9.397312e+01 -1.020531e+02 -3.191768e+02
      vertex -9.397312e+01 -1.087019e+02 -3.219328e+02
    endloop
  endfacet
  facet normal -6.786048e-01 -6.786771e-01 2.808789e-01
    outer loop
      vertex -9.092512e+01 -1.042091e+02 -3.170223e+02
      vertex -9.092512e+01 -1.023519e+02 -3.125348e+02
      vertex -9.397312e+01 -1.020531e+02 -3.191768e+02
    endloop
  endfacet
  facet normal -1.000000e+00 0.000000e+00 0.000000e+00
    outer loop
      vertex -9.397312e+01 -1.193699e+02 -3.482963e+02
      vertex -9.397312e+01 -1.193699e+02 -3.219328e+02
      vertex -9.397312e+01 -1.087019e+02 -3.219328e+02
    endloop
  endfacet
  facet normal -7.071068e-01 0.000000e+00 7.071068e-01
    outer loop
      vertex -9.092512e+01 -1.087019e+02 -3.188848e+02
      vertex -9.397312e+01 -1.087019e+02 -3.219328e+02
      vertex -9.397312e+01 -1.193699e+02 -3.219328e+02
    endloop
  endfacet
  facet normal -6.785527e-01 -2.813049e-01 6.785527e-01
    outer loop
      vertex -9.092512e+01 -1.042091e+02 -3.170223e+02
      vertex -9.397312e+01 -1.087019e+02 -3.219328e+02
      vertex -9.092512e+01 -1.087019e+02 -3.188848e+02
    endloop
  endfacet
  facet normal 0.000000e+00 -1.000000e+00 0.000000e+00
    outer loop
      vertex -7.975401e+01 -1.193699e+02 -3.521588e+02
      vertex -9.397312e+01 -1.193699e+02 -3.219328e+02
      vertex -9.397312e+01 -1.193699e+02 -3.482963e+02
    endloop
  endfacet
  facet normal 0.000000e+00 -1.000000e+00 0.000000e+00
    outer loop
      vertex -7.975401e+01 -1.193699e+02 -3.521588e+02
      vertex -9.092512e+01 -1.193699e+02 -3.188848e+02
      vertex -9.397312e+01 -1.193699e+02 -3.219328e+02
    endloop
  endfacet
  facet normal -7.071068e-01 9.419377e-16 7.071068e-01
    outer loop
      vertex -9.092512e+01 -1.087019e+02 -3.188848e+02
      vertex -9.397312e+01 -1.193699e+02 -3.219328e+02
      vertex -9.092512e+01 -1.193699e+02 -3.188848e+02
    endloop
  endfacet
  facet normal -2.588190e-01 -1.587972e-01 -9.527834e-01
    outer loop
      vertex -7.975401e+01 -1.193699e+02 -3.521588e+02
      vertex -9.397312e+01 -1.193699e+02 -3.482963e+02
      vertex -9.397312e+01 -6.571460e+01 -3.572388e+02
    endloop
  endfacet
  facet normal -1.000000e+00 -2.162180e-16 0.000000e+00
    outer loop
      vertex -9.397312e+01 1.007802e-02 -2.795148e+02
      vertex -9.397312e+01 1.007802e-02 -3.572388e+02
      vertex -9.397312e+01 -6.571460e+01 -3.572388e+02
    endloop
  endfacet
  facet normal -2.588190e-01 -1.587972e-01 -9.527834e-01
    outer loop
      vertex -7.975401e+01 -8.888992e+01 -3.572388e+02
      vertex -7.975401e+01 -1.193699e+02 -3.521588e+02
      vertex -9.397312e+01 -6.571460e+01 -3.572388e+02
    endloop
  endfacet
  facet normal -1.000000e+00 -1.190388e-16 0.000000e+00
    outer loop
      vertex -9.397312e+01 -1.193699e+02 -2.975488e+02
      vertex -9.397312e+01 -1.193699e+02 -2.795148e+02
      vertex -9.397312e+01 1.007802e-02 -2.795148e+02
    endloop
  endfacet
  facet normal -1.000000e+00 0.000000e+00 -7.880035e-16
    outer loop
      vertex -9.397312e+01 -1.087019e+02 -2.975488e+02
      vertex -9.397312e+01 -1.193699e+02 -2.975488e+02
      vertex -9.397312e+01 1.007802e-02 -2.795148e+02
    endloop
  endfacet
  facet normal -1.000000e+00 -9.331950e-17 -2.254578e-16
    outer loop
      vertex -9.397312e+01 -1.020600e+02 -3.002980e+02
      vertex -9.397312e+01 -1.087019e+02 -2.975488e+02
      vertex -9.397312e+01 1.007802e-02 -2.795148e+02
    endloop
  endfacet
  facet normal 0.000000e+00 -1.000000e+00 0.000000e+00
    outer loop
      vertex -9.092512e+01 -1.193699e+02 -3.005968e+02
      vertex -9.397312e+01 -1.193699e+02 -2.795148e+02
      vertex -9.397312e+01 -1.193699e+02 -2.975488e+02
    endloop
  endfacet
  facet normal 0.000000e+00 -1.000000e+00 0.000000e+00
    outer loop
      vertex -9.092512e+01 -1.193699e+02 -3.005968e+02
      vertex 9.093888e+01 -1.193699e+02 -3.005968e+02
      vertex -9.397312e+01 -1.193699e+02 -2.795148e+02
    endloop
  endfacet
  facet normal -7.071068e-01 0.000000e+00 -7.071068e-01
    outer loop
      vertex -9.092512e+01 -1.193699e+02 -3.005968e+02
      vertex -9.397312e+01 -1.193699e+02 -2.975488e+02
      vertex -9.397312e+01 -1.087019e+02 -2.975488e+02
    endloop
  endfacet
  facet normal -6.786375e-01 -2.808957e-01 -6.786375e-01
    outer loop
      vertex -9.092512e+01 -1.087019e+02 -3.005968e+02
      vertex -9.397312e+01 -1.087019e+02 -2.975488e+02
      vertex -9.397312e+01 -1.020600e+02 -3.002980e+02
    endloop
  endfacet
  facet normal -7.071068e-01 9.419377e-16 -7.071068e-01
    outer loop
      vertex -9.092512e+01 -1.087019e+02 -3.005968e+02
      vertex -9.092512e+01 -1.193699e+02 -3.005968e+02
      vertex -9.397312e+01 -1.087019e+02 -2.975488e+02
    endloop
  endfacet
  facet normal -6.786048e-01 -2.808789e-01 -6.786771e-01
    outer loop
      vertex -9.092512e+01 -1.042145e+02 -3.024540e+02
      vertex -9.092512e+01 -1.087019e+02 -3.005968e+02
      vertex -9.397312e+01 -1.020600e+02 -3.002980e+02
    endloop
  endfacet
  facet normal 0.000000e+00 0.000000e+00 -1.000000e+00
    outer loop
      vertex 9.093888e+01 -1.087019e+02 -3.005968e+02
      vertex 9.093888e+01 -1.193699e+02 -3.005968e+02
      vertex -9.092512e+01 -1.193699e+02 -3.005968e+02
    endloop
  endfacet
  facet normal 0.000000e+00 0.000000e+00 -1.000000e+00
    outer loop
      vertex -9.092512e+01 -1.087019e+02 -3.005968e+02
      vertex 9.093888e+01 -1.087019e+02 -3.005968e+02
      vertex -9.092512e+01 -1.193699e+02 -3.005968e+02
    endloop
  endfacet
  facet normal 7.814001e-17 -1.000000e+00 4.379713e-16
    outer loop
      vertex 4.318688e+01 -1.193699e+02 -3.428122e+02
      vertex 9.093888e+01 -1.193699e+02 -3.188848e+02
      vertex -9.092512e+01 -1.193699e+02 -3.188848e+02
    endloop
  endfacet
  facet normal 0.000000e+00 0.000000e+00 1.000000e+00
    outer loop
      vertex -9.092512e+01 -1.087019e+02 -3.188848e+02
      vertex -9.092512e+01 -1.193699e+02 -3.188848e+02
      vertex 9.093888e+01 -1.193699e+02 -3.188848e+02
    endloop
  endfacet
  facet normal 0.000000e+00 -1.000000e+00 0.000000e+00
    outer loop
      vertex -4.490032e+01 -1.193699e+02 -3.445388e+02
      vertex -9.092512e+01 -1.193699e+02 -3.188848e+02
      vertex -7.975401e+01 -1.193699e+02 -3.521588e+02
    endloop
  endfacet
  facet normal 0.000000e+00 -1.000000e+00 0.000000e+00
    outer loop
      vertex -4.490032e+01 -1.193699e+02 -3.445388e+02
      vertex -4.317312e+01 -1.193699e+02 -3.428122e+02
      vertex -9.092512e+01 -1.193699e+02 -3.188848e+02
    endloop
  endfacet
  facet normal 0.000000e+00 -1.000000e+00 0.000000e+00
    outer loop
      vertex 4.145968e+01 -1.193699e+02 -3.445388e+02
      vertex -9.092512e+01 -1.193699e+02 -3.188848e+02
      vertex -4.317312e+01 -1.193699e+02 -3.428122e+02
    endloop
  endfacet
  facet normal 0.000000e+00 -1.000000e+00 0.000000e+00
    outer loop
      vertex 4.145968e+01 -1.193699e+02 -3.445388e+02
      vertex 4.318688e+01 -1.193699e+02 -3.428122e+02
      vertex -9.092512e+01 -1.193699e+02 -3.188848e+02
    endloop
  endfacet
  facet normal 3.577863e-16 -1.000000e+00 -1.201200e-16
    outer loop
      vertex 4.318688e+01 -1.193699e+02 -3.428122e+02
      vertex 7.976777e+01 -1.193699e+02 -3.521588e+02
      vertex 9.093888e+01 -1.193699e+02 -3.188848e+02
    endloop
  endfacet
  facet normal 0.000000e+00 0.000000e+00 1.000000e+00
    outer loop
      vertex 9.093888e+01 -1.087019e+02 -3.188848e+02
      vertex -9.092512e+01 -1.087019e+02 -3.188848e+02
      vertex 9.093888e+01 -1.193699e+02 -3.188848e+02
    endloop
  endfacet
  facet normal 8.908411e-17 -1.000000e+00 -5.529539e-16
    outer loop
      vertex -4.317312e+01 -1.193699e+02 -3.462654e+02
      vertex -7.975401e+01 -1.193699e+02 -3.521588e+02
      vertex 7.976777e+01 -1.193699e+02 -3.521588e+02
    endloop
  endfacet
  facet normal 1.729764e-17 -1.643990e-01 -9.863939e-01
    outer loop
      vertex 7.976777e+01 -8.888992e+01 -3.572388e+02
      vertex 7.976777e+01 -1.193699e+02 -3.521588e+02
      vertex -7.975401e+01 -1.193699e+02 -3.521588e+02
    endloop
  endfacet
  facet normal 1.103016e-16 -1.000000e+00 -1.103396e-16
    outer loop
      vertex -4.317312e+01 -1.193699e+02 -3.462654e+02
      vertex 7.976777e+01 -1.193699e+02 -3.521588e+02
      vertex -4.144592e+01 -1.193699e+02 -3.445388e+02
    endloop
  endfacet
  facet normal -5.632635e-17 -1.000000e+00 -2.760942e-15
    outer loop
      vertex 4.318688e+01 -1.193699e+02 -3.462654e+02
      vertex -4.144592e+01 -1.193699e+02 -3.445388e+02
      vertex 7.976777e+01 -1.193699e+02 -3.521588e+02
    endloop
  endfacet
  facet normal 5.218620e-16 -1.000000e+00 5.220418e-16
    outer loop
      vertex 4.318688e+01 -1.193699e+02 -3.428122e+02
      vertex 4.491408e+01 -1.193699e+02 -3.445388e+02
      vertex 7.976777e+01 -1.193699e+02 -3.521588e+02
    endloop
  endfacet
  facet normal 3.345595e-16 -1.000000e+00 -3.346748e-16
    outer loop
      vertex 4.318688e+01 -1.193699e+02 -3.462654e+02
      vertex 7.976777e+01 -1.193699e+02 -3.521588e+02
      vertex 4.491408e+01 -1.193699e+02 -3.445388e+02
    endloop
  endfacet
  facet normal 0.000000e+00 -1.000000e+00 0.000000e+00
    outer loop
      vertex -4.317312e+01 -1.193699e+02 -3.462654e+02
      vertex -4.490032e+01 -1.193699e+02 -3.445388e+02
      vertex -7.975401e+01 -1.193699e+02 -3.521588e+02
    endloop
  endfacet
  facet normal 1.464534e-17 -1.643990e-01 -9.863939e-01
    outer loop
      vertex 7.976777e+01 -8.888992e+01 -3.572388e+02
      vertex -7.975401e+01 -1.193699e+02 -3.521588e+02
      vertex -7.975401e+01 -8.888992e+01 -3.572388e+02
    endloop
  endfacet
  facet normal 0.000000e+00 -1.000000e+00 0.000000e+00
    outer loop
      vertex 4.145968e+01 -1.193699e+02 -3.445388e+02
      vertex -4.317312e+01 -1.193699e+02 -3.428122e+02
      vertex -4.144592e+01 -1.193699e+02 -3.445388e+02
    endloop
  endfacet
  facet normal -7.069850e-01 -1.582183e-15 -7.072286e-01
    outer loop
      vertex -4.144592e+01 -1.066699e+02 -3.445388e+02
      vertex -4.144592e+01 -1.193699e+02 -3.445388e+02
      vertex -4.317312e+01 -1.193699e+02 -3.428122e+02
    endloop
  endfacet
  facet normal -7.069850e-01 3.313058e-05 7.072286e-01
    outer loop
      vertex -4.317312e+01 -1.066699e+02 -3.462660e+02
      vertex -4.317312e+01 -1.193699e+02 -3.462654e+02
      vertex -4.144592e+01 -1.193699e+02 -3.445388e+02
    endloop
  endfacet
  facet normal 0.000000e+00 -1.000000e+00 0.000000e+00
    outer loop
      vertex 4.318688e+01 -1.193699e+02 -3.462654e+02
      vertex 4.145968e+01 -1.193699e+02 -3.445388e+02
      vertex -4.144592e+01 -1.193699e+02 -3.445388e+02
    endloop
  endfacet
  facet normal -7.071068e-01 -1.574714e-15 7.071068e-01
    outer loop
      vertex -4.317312e+01 -1.066699e+02 -3.462660e+02
      vertex -4.144592e+01 -1.193699e+02 -3.445388e+02
      vertex -4.144592e+01 -1.066699e+02 -3.445388e+02
    endloop
  endfacet
  facet normal 7.069850e-01 3.313058e-05 -7.072286e-01
    outer loop
      vertex -4.317312e+01 -1.066699e+02 -3.428116e+02
      vertex -4.317312e+01 -1.193699e+02 -3.428122e+02
      vertex -4.490032e+01 -1.193699e+02 -3.445388e+02
    endloop
  endfacet
  facet normal -7.071068e-01 3.312488e-05 -7.071068e-01
    outer loop
      vertex -4.144592e+01 -1.066699e+02 -3.445388e+02
      vertex -4.317312e+01 -1.193699e+02 -3.428122e+02
      vertex -4.317312e+01 -1.066699e+02 -3.428116e+02
    endloop
  endfacet
  facet normal 7.069850e-01 -1.186637e-15 7.072286e-01
    outer loop
      vertex -4.490032e+01 -1.066699e+02 -3.445388e+02
      vertex -4.490032e+01 -1.193699e+02 -3.445388e+02
      vertex -4.317312e+01 -1.193699e+02 -3.462654e+02
    endloop
  endfacet
  facet normal 7.071068e-01 -1.188193e-15 -7.071068e-01
    outer loop
      vertex -4.317312e+01 -1.066699e+02 -3.428116e+02
      vertex -4.490032e+01 -1.193699e+02 -3.445388e+02
      vertex -4.490032e+01 -1.066699e+02 -3.445388e+02
    endloop
  endfacet
  facet normal 7.071068e-01 3.312488e-05 7.071068e-01
    outer loop
      vertex -4.317312e+01 -1.066699e+02 -3.462660e+02
      vertex -4.490032e+01 -1.066699e+02 -3.445388e+02
      vertex -4.317312e+01 -1.193699e+02 -3.462654e+02
    endloop
  endfacet
  facet normal -7.069850e-01 0.000000e+00 -7.072286e-01
    outer loop
      vertex 4.491408e+01 -1.066699e+02 -3.445388e+02
      vertex 4.491408e+01 -1.193699e+02 -3.445388e+02
      vertex 4.318688e+01 -1.193699e+02 -3.428122e+02
    endloop
  endfacet
  facet normal -7.069850e-01 3.313058e-05 7.072286e-01
    outer loop
      vertex 4.318688e+01 -1.066699e+02 -3.462660e+02
      vertex 4.318688e+01 -1.193699e+02 -3.462654e+02
      vertex 4.491408e+01 -1.193699e+02 -3.445388e+02
    endloop
  endfacet
  facet normal -7.071068e-01 0.000000e+00 7.071068e-01
    outer loop
      vertex 4.318688e+01 -1.066699e+02 -3.462660e+02
      vertex 4.491408e+01 -1.193699e+02 -3.445388e+02
      vertex 4.491408e+01 -1.066699e+02 -3.445388e+02
    endloop
  endfacet
  facet normal 7.069850e-01 3.313058e-05 -7.072286e-01
    outer loop
      vertex 4.318688e+01 -1.066699e+02 -3.428116e+02
      vertex 4.318688e+01 -1.193699e+02 -3.428122e+02
      vertex 4.145968e+01 -1.193699e+02 -3.445388e+02
    endloop
  endfacet
  facet normal -7.071068e-01 3.312488e-05 -7.071068e-01
    outer loop
      vertex 4.491408e+01 -1.066699e+02 -3.445388e+02
      vertex 4.318688e+01 -1.193699e+02 -3.428122e+02
      vertex 4.318688e+01 -1.066699e+02 -3.428116e+02
    endloop
  endfacet
  facet normal 7.069850e-01 0.000000e+00 7.072286e-01
    outer loop
      vertex 4.145968e+01 -1.066699e+02 -3.445388e+02
      vertex 4.145968e+01 -1.193699e+02 -3.445388e+02
      vertex 4.318688e+01 -1.193699e+02 -3.462654e+02
    endloop
  endfacet
  facet normal 7.071068e-01 0.000000e+00 -7.071068e-01
    outer loop
      vertex 4.318688e+01 -1.066699e+02 -3.428116e+02
      vertex 4.145968e+01 -1.193699e+02 -3.445388e+02
      vertex 4.145968e+01 -1.066699e+02 -3.445388e+02
    endloop
  endfacet
  facet normal 7.071068e-01 3.312488e-05 7.071068e-01
    outer loop
      vertex 4.318688e+01 -1.066699e+02 -3.462660e+02
      vertex 4.145968e+01 -1.066699e+02 -3.445388e+02
      vertex 4.318688e+01 -1.193699e+02 -3.462654e+02
    endloop
  endfacet
  facet normal 1.000000e+00 0.000000e+00 0.000000e+00
    outer loop
      vertex 7.874688e+01 -1.079399e+02 -3.430148e+02
      vertex 7.874688e+01 -1.047649e+02 -3.398398e+02
      vertex 7.874688e+01 -1.079399e+02 -3.366648e+02
    endloop
  endfacet
  facet normal 1.000000e+00 0.000000e+00 0.000000e+00
    outer loop
      vertex 7.874688e+01 -1.111149e+02 -3.398398e+02
      vertex 7.874688e+01 -1.079399e+02 -3.430148e+02
      vertex 7.874688e+01 -1.079399e+02 -3.366648e+02
    endloop
  endfacet
  facet normal 1.000000e+00 0.000000e+00 0.000000e+00
    outer loop
      vertex 7.874688e+01 -2.538992e+01 -3.080898e+02
      vertex 7.874688e+01 -2.221492e+01 -3.049148e+02
      vertex 7.874688e+01 -2.538992e+01 -3.017398e+02
    endloop
  endfacet
  facet normal 1.000000e+00 0.000000e+00 0.000000e+00
    outer loop
      vertex 7.874688e+01 -2.856492e+01 -3.049148e+02
      vertex 7.874688e+01 -2.538992e+01 -3.080898e+02
      vertex 7.874688e+01 -2.538992e+01 -3.017398e+02
    endloop
  endfacet
  facet normal -1.000000e+00 0.000000e+00 0.000000e+00
    outer loop
      vertex -7.873312e+01 -1.079399e+02 -3.430148e+02
      vertex -7.873312e+01 -1.111149e+02 -3.398398e+02
      vertex -7.873312e+01 -1.079399e+02 -3.366648e+02
    endloop
  endfacet
  facet normal -1.000000e+00 0.000000e+00 0.000000e+00
    outer loop
      vertex -7.873312e+01 -1.047649e+02 -3.398398e+02
      vertex -7.873312e+01 -1.079399e+02 -3.430148e+02
      vertex -7.873312e+01 -1.079399e+02 -3.366648e+02
    endloop
  endfacet
  facet normal -1.000000e+00 0.000000e+00 0.000000e+00
    outer loop
      vertex -7.873312e+01 -2.538992e+01 -3.080898e+02
      vertex -7.873312e+01 -2.856492e+01 -3.049148e+02
      vertex -7.873312e+01 -2.538992e+01 -3.017398e+02
    endloop
  endfacet
  facet normal -1.000000e+00 0.000000e+00 0.000000e+00
    outer loop
      vertex -7.873312e+01 -2.221492e+01 -3.049148e+02
      vertex -7.873312e+01 -2.538992e+01 -3.080898e+02
      vertex -7.873312e+01 -2.538992e+01 -3.017398e+02
    endloop
  endfacet
  facet normal 3.016799e-17 -3.824059e-01 -9.239944e-01
    outer loop
      vertex -9.092512e+01 -1.042145e+02 -3.024540e+02
      vertex 9.093888e+01 -1.087019e+02 -3.005968e+02
      vertex -9.092512e+01 -1.087019e+02 -3.005968e+02
    endloop
  endfacet
  facet normal -1.138629e-12 -3.824059e-01 -9.239944e-01
    outer loop
      vertex 9.093888e+01 -1.042145e+02 -3.024540e+02
      vertex 9.093888e+01 -1.087019e+02 -3.005968e+02
      vertex -9.092512e+01 -1.042145e+02 -3.024540e+02
    endloop
  endfacet
  facet normal 1.140244e-12 -9.237646e-01 -3.829609e-01
    outer loop
      vertex 9.093888e+01 -1.042145e+02 -3.024540e+02
      vertex -9.092512e+01 -1.042145e+02 -3.024540e+02
      vertex -9.092512e+01 -1.023519e+02 -3.069468e+02
    endloop
  endfacet
  facet normal 1.443659e-16 -9.237646e-01 -3.829609e-01
    outer loop
      vertex 9.093888e+01 -1.023519e+02 -3.069468e+02
      vertex 9.093888e+01 -1.042145e+02 -3.024540e+02
      vertex -9.092512e+01 -1.023519e+02 -3.069468e+02
    endloop
  endfacet
  facet normal 1.562800e-16 -1.000000e+00 0.000000e+00
    outer loop
      vertex 9.093888e+01 -1.023519e+02 -3.125348e+02
      vertex 9.093888e+01 -1.023519e+02 -3.069468e+02
      vertex -9.092512e+01 -1.023519e+02 -3.069468e+02
    endloop
  endfacet
  facet normal 7.814001e-17 -1.000000e+00 -2.543102e-15
    outer loop
      vertex 9.093888e+01 -1.023519e+02 -3.125348e+02
      vertex -9.092512e+01 -1.023519e+02 -3.069468e+02
      vertex -9.092512e+01 -1.023519e+02 -3.125348e+02
    endloop
  endfacet
  facet normal 7.240318e-17 -9.239944e-01 3.824059e-01
    outer loop
      vertex -9.092512e+01 -1.042091e+02 -3.170223e+02
      vertex 9.093888e+01 -1.023519e+02 -3.125348e+02
      vertex -9.092512e+01 -1.023519e+02 -3.125348e+02
    endloop
  endfacet
  facet normal -1.138460e-12 -9.239944e-01 3.824059e-01
    outer loop
      vertex 9.093888e+01 -1.042091e+02 -3.170223e+02
      vertex 9.093888e+01 -1.023519e+02 -3.125348e+02
      vertex -9.092512e+01 -1.042091e+02 -3.170223e+02
    endloop
  endfacet
  facet normal 1.140075e-12 -3.829609e-01 9.237646e-01
    outer loop
      vertex 9.093888e+01 -1.042091e+02 -3.170223e+02
      vertex -9.092512e+01 -1.042091e+02 -3.170223e+02
      vertex -9.092512e+01 -1.087019e+02 -3.188848e+02
    endloop
  endfacet
  facet normal 2.992457e-17 -3.829609e-01 9.237646e-01
    outer loop
      vertex 9.093888e+01 -1.087019e+02 -3.188848e+02
      vertex 9.093888e+01 -1.042091e+02 -3.170223e+02
      vertex -9.092512e+01 -1.087019e+02 -3.188848e+02
    endloop
  endfacet
  facet normal 0.000000e+00 -1.000000e+00 0.000000e+00
    outer loop
      vertex -4.317312e+01 -1.066699e+02 -3.462660e+02
      vertex -4.317312e+01 -1.066699e+02 -3.428116e+02
      vertex -4.490032e+01 -1.066699e+02 -3.445388e+02
    endloop
  endfacet
  facet normal 0.000000e+00 -1.000000e+00 0.000000e+00
    outer loop
      vertex -4.317312e+01 -1.066699e+02 -3.462660e+02
      vertex -4.144592e+01 -1.066699e+02 -3.445388e+02
      vertex -4.317312e+01 -1.066699e+02 -3.428116e+02
    endloop
  endfacet
  facet normal 0.000000e+00 -1.000000e+00 0.000000e+00
    outer loop
      vertex 4.318688e+01 -1.066699e+02 -3.462660e+02
      vertex 4.318688e+01 -1.066699e+02 -3.428116e+02
      vertex 4.145968e+01 -1.066699e+02 -3.445388e+02
    endloop
  endfacet
  facet normal 0.000000e+00 -1.000000e+00 0.000000e+00
    outer loop
      vertex 4.318688e+01 -1.066699e+02 -3.462660e+02
      vertex 4.491408e+01 -1.066699e+02 -3.445388e+02
      vertex 4.318688e+01 -1.066699e+02 -3.428116e+02
    endloop
  endfacet
endsolid AVALON_SHIELDING_ASSY
