solid Exported from Blender-2.93.3
facet normal 0.000000 1.000000 0.000001
outer loop
vertex 30.224342 109.220001 -393.634613
vertex 0.000069 109.220001 -367.534180
vertex 134.620056 109.220001 -367.542999
endloop
endfacet
facet normal 0.000066 -0.000000 1.000000
outer loop
vertex 30.226089 102.108002 -367.536163
vertex 134.620056 109.220001 -367.542999
vertex 0.000069 109.220001 -367.534180
endloop
endfacet
facet normal 0.000000 1.000000 0.000000
outer loop
vertex 38.160660 109.220001 -401.572723
vertex 134.620056 109.220001 -367.542999
vertex 119.120934 109.220001 -445.265991
endloop
endfacet
facet normal 0.980691 0.000000 -0.195565
outer loop
vertex 134.620056 -109.220001 -367.542999
vertex 119.120934 109.220001 -445.265991
vertex 134.620056 109.220001 -367.542999
endloop
endfacet
facet normal 0.000000 1.000000 0.000000
outer loop
vertex 38.160660 109.220001 -401.572723
vertex 30.224342 109.220001 -393.634613
vertex 134.620056 109.220001 -367.542999
endloop
endfacet
facet normal 0.000065 0.000000 1.000000
outer loop
vertex 35.814095 -96.519997 -367.536560
vertex 134.620056 -109.220001 -367.542999
vertex 134.620056 109.220001 -367.542999
endloop
endfacet
facet normal 0.000064 -0.000002 1.000000
outer loop
vertex 30.226089 -90.931999 -367.536163
vertex 35.814095 -96.519997 -367.536560
vertex 134.620056 109.220001 -367.542999
endloop
endfacet
facet normal 0.000067 0.000000 1.000000
outer loop
vertex 30.226089 90.931999 -367.536163
vertex 30.226089 -90.931999 -367.536163
vertex 134.620056 109.220001 -367.542999
endloop
endfacet
facet normal 0.000065 0.000007 1.000000
outer loop
vertex 35.814095 96.519997 -367.536560
vertex 30.226089 90.931999 -367.536163
vertex 134.620056 109.220001 -367.542999
endloop
endfacet
facet normal 0.000066 -0.000005 1.000000
outer loop
vertex 30.226089 102.108002 -367.536163
vertex 35.814095 96.519997 -367.536560
vertex 134.620056 109.220001 -367.542999
endloop
endfacet
facet normal 0.000000 1.000000 -0.000000
outer loop
vertex 22.287018 109.220001 -401.571625
vertex -0.005035 109.220001 -445.258148
vertex 0.000069 109.220001 -367.534180
endloop
endfacet
facet normal -1.000000 0.000000 0.000066
outer loop
vertex -0.005035 -109.220001 -445.258148
vertex 0.000069 109.220001 -367.534180
vertex -0.005035 109.220001 -445.258148
endloop
endfacet
facet normal 0.000000 1.000000 0.000000
outer loop
vertex 30.224342 109.220001 -393.634613
vertex 22.287018 109.220001 -401.571625
vertex 0.000069 109.220001 -367.534180
endloop
endfacet
facet normal -1.000000 0.000000 0.000066
outer loop
vertex 0.000069 -109.220001 -367.534180
vertex 0.000069 109.220001 -367.534180
vertex -0.005035 -109.220001 -445.258148
endloop
endfacet
facet normal 0.000070 0.000000 1.000000
outer loop
vertex 24.638069 96.519997 -367.535858
vertex 0.000069 109.220001 -367.534180
vertex 0.000069 -109.220001 -367.534180
endloop
endfacet
facet normal 0.000059 -0.000009 1.000000
outer loop
vertex 24.638069 96.519997 -367.535858
vertex 30.226089 102.108002 -367.536163
vertex 0.000069 109.220001 -367.534180
endloop
endfacet
facet normal 0.000000 1.000000 0.000000
outer loop
vertex 38.160660 109.220001 -401.572723
vertex 119.120934 109.220001 -445.265991
vertex -0.005035 109.220001 -445.258148
endloop
endfacet
facet normal -0.000066 -0.000001 -1.000000
outer loop
vertex 30.220955 102.108002 -445.260132
vertex -0.005035 109.220001 -445.258148
vertex 119.120934 109.220001 -445.265991
endloop
endfacet
facet normal 0.000000 1.000000 0.000000
outer loop
vertex 22.287018 109.220001 -401.571625
vertex 30.223335 109.220001 -409.509705
vertex -0.005035 109.220001 -445.258148
endloop
endfacet
facet normal 0.000000 1.000000 -0.000011
outer loop
vertex 38.160660 109.220001 -401.572723
vertex -0.005035 109.220001 -445.258148
vertex 30.223335 109.220001 -409.509705
endloop
endfacet
facet normal -0.000067 0.000000 -1.000000
outer loop
vertex 24.632935 -96.519997 -445.259796
vertex -0.005035 -109.220001 -445.258148
vertex -0.005035 109.220001 -445.258148
endloop
endfacet
facet normal -0.000073 0.000001 -1.000000
outer loop
vertex 24.632935 -96.519997 -445.259796
vertex -0.005035 109.220001 -445.258148
vertex 30.220955 -90.931999 -445.260132
endloop
endfacet
facet normal -0.000063 0.000000 -1.000000
outer loop
vertex 30.220955 90.931999 -445.260132
vertex 30.220955 -90.931999 -445.260132
vertex -0.005035 109.220001 -445.258148
endloop
endfacet
facet normal -0.000063 0.000004 -1.000000
outer loop
vertex 24.632935 96.519997 -445.259796
vertex -0.005035 109.220001 -445.258148
vertex 30.220955 102.108002 -445.260132
endloop
endfacet
facet normal -0.000059 -0.000014 -1.000000
outer loop
vertex 24.632935 96.519997 -445.259796
vertex 30.220955 90.931999 -445.260132
vertex -0.005035 109.220001 -445.258148
endloop
endfacet
facet normal 0.980691 0.000000 -0.195564
outer loop
vertex 119.120934 -109.220001 -445.265991
vertex 119.120934 109.220001 -445.265991
vertex 134.620056 -109.220001 -367.542999
endloop
endfacet
facet normal -0.000067 0.000000 -1.000000
outer loop
vertex 35.808960 96.519997 -445.260498
vertex 119.120934 109.220001 -445.265991
vertex 119.120934 -109.220001 -445.265991
endloop
endfacet
facet normal -0.000066 -0.000000 -1.000000
outer loop
vertex 35.808960 96.519997 -445.260498
vertex 30.220955 102.108002 -445.260132
vertex 119.120934 109.220001 -445.265991
endloop
endfacet
facet normal 0.707187 0.000000 0.707026
outer loop
vertex 30.223335 100.488701 -409.509705
vertex 30.223335 109.220001 -409.509705
vertex 22.287018 109.220001 -401.571625
endloop
endfacet
facet normal -0.707089 -0.000017 0.707125
outer loop
vertex 38.161392 82.550003 -401.572632
vertex 38.160660 109.220001 -401.572723
vertex 30.223335 109.220001 -409.509705
endloop
endfacet
facet normal -0.950276 -0.303540 -0.069559
outer loop
vertex 34.192039 96.551788 -408.446503
vertex 38.161392 82.550003 -401.572632
vertex 30.223335 109.220001 -409.509705
endloop
endfacet
facet normal -0.258773 0.000000 0.965938
outer loop
vertex 34.192039 96.551788 -408.446503
vertex 30.223335 109.220001 -409.509705
vertex 30.223335 100.488701 -409.509705
endloop
endfacet
facet normal 0.707092 -0.000019 -0.707121
outer loop
vertex 22.286301 82.550003 -401.571625
vertex 22.287018 109.220001 -401.571625
vertex 30.224342 109.220001 -393.634613
endloop
endfacet
facet normal 0.707154 -0.000019 0.707060
outer loop
vertex 22.286301 82.550003 -401.571625
vertex 30.223335 82.550003 -409.509705
vertex 22.287018 109.220001 -401.571625
endloop
endfacet
facet normal 0.961391 0.269466 0.055819
outer loop
vertex 26.254784 96.488251 -408.446075
vertex 22.287018 109.220001 -401.571625
vertex 30.223335 82.550003 -409.509705
endloop
endfacet
facet normal 0.336405 -0.447526 0.828584
outer loop
vertex 27.419579 99.328857 -408.997803
vertex 30.223335 100.488701 -409.509705
vertex 22.287018 109.220001 -401.571625
endloop
endfacet
facet normal 0.704587 -0.154394 0.692618
outer loop
vertex 26.254784 96.488251 -408.446075
vertex 27.419579 99.328857 -408.997803
vertex 22.287018 109.220001 -401.571625
endloop
endfacet
facet normal -0.707187 0.000000 -0.707026
outer loop
vertex 30.224342 100.488701 -393.634613
vertex 30.224342 109.220001 -393.634613
vertex 38.160660 109.220001 -401.572723
endloop
endfacet
facet normal 0.950468 -0.303228 0.068290
outer loop
vertex 26.255547 96.540031 -394.697754
vertex 22.286301 82.550003 -401.571625
vertex 30.224342 109.220001 -393.634613
endloop
endfacet
facet normal 0.258755 0.000000 -0.965943
outer loop
vertex 26.255547 96.540031 -394.697754
vertex 30.224342 109.220001 -393.634613
vertex 30.224342 100.488701 -393.634613
endloop
endfacet
facet normal -0.707153 -0.000022 -0.707060
outer loop
vertex 30.224342 82.550003 -393.634613
vertex 38.160660 109.220001 -401.572723
vertex 38.161392 82.550003 -401.572632
endloop
endfacet
facet normal -0.961426 0.268999 -0.057438
outer loop
vertex 34.192986 96.507103 -394.698334
vertex 38.160660 109.220001 -401.572723
vertex 30.224342 82.550003 -393.634613
endloop
endfacet
facet normal -0.503626 -0.284011 -0.815904
outer loop
vertex 34.192986 96.507103 -394.698334
vertex 30.224342 100.488701 -393.634613
vertex 38.160660 109.220001 -401.572723
endloop
endfacet
facet normal 0.000000 -1.000000 0.000000
outer loop
vertex 0.000069 -109.220001 -367.534180
vertex 119.120934 -109.220001 -445.265991
vertex 134.620056 -109.220001 -367.542999
endloop
endfacet
facet normal 0.000066 0.000000 1.000000
outer loop
vertex 30.226089 -102.108002 -367.536163
vertex 0.000069 -109.220001 -367.534180
vertex 134.620056 -109.220001 -367.542999
endloop
endfacet
facet normal 0.000065 0.000005 1.000000
outer loop
vertex 35.814095 -96.519997 -367.536560
vertex 30.226089 -102.108002 -367.536163
vertex 134.620056 -109.220001 -367.542999
endloop
endfacet
facet normal 0.000000 -1.000000 0.000000
outer loop
vertex 30.223335 -109.220001 -409.509705
vertex -0.005035 -109.220001 -445.258148
vertex 119.120934 -109.220001 -445.265991
endloop
endfacet
facet normal -0.000066 0.000001 -1.000000
outer loop
vertex 30.220955 -102.108002 -445.260132
vertex 119.120934 -109.220001 -445.265991
vertex -0.005035 -109.220001 -445.258148
endloop
endfacet
facet normal 0.000000 -1.000000 0.000000
outer loop
vertex 30.224342 -109.220001 -393.634613
vertex 119.120934 -109.220001 -445.265991
vertex 0.000069 -109.220001 -367.534180
endloop
endfacet
facet normal 0.000000 -1.000000 -0.000002
outer loop
vertex 38.160660 -109.220001 -401.572723
vertex 30.223335 -109.220001 -409.509705
vertex 119.120934 -109.220001 -445.265991
endloop
endfacet
facet normal 0.000000 -1.000000 0.000000
outer loop
vertex 30.224342 -109.220001 -393.634613
vertex 38.160660 -109.220001 -401.572723
vertex 119.120934 -109.220001 -445.265991
endloop
endfacet
facet normal -0.000064 -0.000000 -1.000000
outer loop
vertex 35.808960 -96.519997 -445.260498
vertex 30.220955 -90.931999 -445.260132
vertex 119.120934 -109.220001 -445.265991
endloop
endfacet
facet normal -0.000066 0.000000 -1.000000
outer loop
vertex 30.220955 90.931999 -445.260132
vertex 119.120934 -109.220001 -445.265991
vertex 30.220955 -90.931999 -445.260132
endloop
endfacet
facet normal -0.000066 0.000000 -1.000000
outer loop
vertex 30.220955 -102.108002 -445.260132
vertex 35.808960 -96.519997 -445.260498
vertex 119.120934 -109.220001 -445.265991
endloop
endfacet
facet normal -0.000048 0.000000 -1.000000
outer loop
vertex 30.220955 90.931999 -445.260132
vertex 35.808960 96.519997 -445.260498
vertex 119.120934 -109.220001 -445.265991
endloop
endfacet
facet normal 0.000000 -1.000000 -0.000000
outer loop
vertex 22.287018 -109.220001 -401.571625
vertex 0.000069 -109.220001 -367.534180
vertex -0.005035 -109.220001 -445.258148
endloop
endfacet
facet normal 0.000000 -1.000000 0.000000
outer loop
vertex 22.287018 -109.220001 -401.571625
vertex -0.005035 -109.220001 -445.258148
vertex 30.223335 -109.220001 -409.509705
endloop
endfacet
facet normal -0.000063 -0.000004 -1.000000
outer loop
vertex 24.632935 -96.519997 -445.259796
vertex 30.220955 -102.108002 -445.260132
vertex -0.005035 -109.220001 -445.258148
endloop
endfacet
facet normal 0.000000 -1.000000 0.000000
outer loop
vertex 22.287018 -109.220001 -401.571625
vertex 30.224342 -109.220001 -393.634613
vertex 0.000069 -109.220001 -367.534180
endloop
endfacet
facet normal 0.000059 0.000009 1.000000
outer loop
vertex 24.638069 -96.519997 -367.535858
vertex 0.000069 -109.220001 -367.534180
vertex 30.226089 -102.108002 -367.536163
endloop
endfacet
facet normal 0.000102 -0.000028 1.000000
outer loop
vertex 24.638069 -96.519997 -367.535858
vertex 30.226089 -90.931999 -367.536163
vertex 0.000069 -109.220001 -367.534180
endloop
endfacet
facet normal 0.000065 0.000000 1.000000
outer loop
vertex 30.226089 90.931999 -367.536163
vertex 0.000069 -109.220001 -367.534180
vertex 30.226089 -90.931999 -367.536163
endloop
endfacet
facet normal 0.000049 0.000001 1.000000
outer loop
vertex 24.638069 96.519997 -367.535858
vertex 0.000069 -109.220001 -367.534180
vertex 30.226089 90.931999 -367.536163
endloop
endfacet
facet normal -0.707092 0.000000 0.707121
outer loop
vertex 30.223335 -100.488701 -409.509705
vertex 30.223335 -109.220001 -409.509705
vertex 38.160660 -109.220001 -401.572723
endloop
endfacet
facet normal 0.707186 0.000019 0.707028
outer loop
vertex 22.286301 -82.550003 -401.571625
vertex 22.287018 -109.220001 -401.571625
vertex 30.223335 -109.220001 -409.509705
endloop
endfacet
facet normal 0.950270 0.303535 -0.069667
outer loop
vertex 26.254784 -96.551750 -408.446075
vertex 22.286301 -82.550003 -401.571625
vertex 30.223335 -109.220001 -409.509705
endloop
endfacet
facet normal 0.258884 0.000000 0.965908
outer loop
vertex 26.254784 -96.551750 -408.446075
vertex 30.223335 -109.220001 -409.509705
vertex 30.223335 -100.488701 -409.509705
endloop
endfacet
facet normal -0.707189 0.000022 -0.707024
outer loop
vertex 38.161392 -82.550003 -401.572632
vertex 38.160660 -109.220001 -401.572723
vertex 30.224342 -109.220001 -393.634613
endloop
endfacet
facet normal -0.707060 0.000017 0.707154
outer loop
vertex 38.161392 -82.550003 -401.572632
vertex 30.223335 -82.550003 -409.509705
vertex 38.160660 -109.220001 -401.572723
endloop
endfacet
facet normal -0.961382 -0.269474 0.055935
outer loop
vertex 34.192039 -96.488213 -408.446503
vertex 38.160660 -109.220001 -401.572723
vertex 30.223335 -82.550003 -409.509705
endloop
endfacet
facet normal -0.336073 0.447715 0.828617
outer loop
vertex 33.025093 -99.330940 -408.998901
vertex 30.223335 -100.488701 -409.509705
vertex 38.160660 -109.220001 -401.572723
endloop
endfacet
facet normal -0.704355 0.154504 0.692830
outer loop
vertex 34.192039 -96.488213 -408.446503
vertex 33.025093 -99.330940 -408.998901
vertex 38.160660 -109.220001 -401.572723
endloop
endfacet
facet normal 0.707092 0.000000 -0.707121
outer loop
vertex 30.224342 -100.488701 -393.634613
vertex 30.224342 -109.220001 -393.634613
vertex 22.287018 -109.220001 -401.571625
endloop
endfacet
facet normal -0.950581 0.303025 0.067615
outer loop
vertex 34.192986 -96.532898 -394.698334
vertex 38.161392 -82.550003 -401.572632
vertex 30.224342 -109.220001 -393.634613
endloop
endfacet
facet normal -0.258879 0.000000 -0.965910
outer loop
vertex 30.224342 -100.488701 -393.634613
vertex 34.192986 -96.532898 -394.698334
vertex 30.224342 -109.220001 -393.634613
endloop
endfacet
facet normal 0.707060 0.000019 -0.707153
outer loop
vertex 30.224342 -82.550003 -393.634613
vertex 22.287018 -109.220001 -401.571625
vertex 22.286301 -82.550003 -401.571625
endloop
endfacet
facet normal 0.961403 -0.269188 -0.056934
outer loop
vertex 26.255547 -96.499969 -394.697754
vertex 22.287018 -109.220001 -401.571625
vertex 30.224342 -82.550003 -393.634613
endloop
endfacet
facet normal 0.503747 0.283756 -0.815917
outer loop
vertex 26.255547 -96.499969 -394.697754
vertex 30.224342 -100.488701 -393.634613
vertex 22.287018 -109.220001 -401.571625
endloop
endfacet
facet normal -0.707106 0.707108 0.000044
outer loop
vertex 30.225288 -102.108002 -380.236145
vertex 30.226089 -102.108002 -367.536163
vertex 35.814095 -96.519997 -367.536560
endloop
endfacet
facet normal 0.707108 0.707106 0.000000
outer loop
vertex 24.638077 -96.519997 -380.235809
vertex 24.638069 -96.519997 -367.535858
vertex 30.226089 -102.108002 -367.536163
endloop
endfacet
facet normal 0.707156 0.707058 -0.000044
outer loop
vertex 24.638077 -96.519997 -380.235809
vertex 30.226089 -102.108002 -367.536163
vertex 30.225288 -102.108002 -380.236145
endloop
endfacet
facet normal -0.707106 -0.707107 0.000096
outer loop
vertex 35.812386 -96.519997 -380.236511
vertex 35.814095 -96.519997 -367.536560
vertex 30.226089 -90.931999 -367.536163
endloop
endfacet
facet normal -0.707164 0.707050 0.000095
outer loop
vertex 35.812386 -96.519997 -380.236511
vertex 30.225288 -102.108002 -380.236145
vertex 35.814095 -96.519997 -367.536560
endloop
endfacet
facet normal 0.707105 -0.707109 -0.000045
outer loop
vertex 30.225288 -90.931999 -380.236145
vertex 30.226089 -90.931999 -367.536163
vertex 24.638069 -96.519997 -367.535858
endloop
endfacet
facet normal -0.707163 -0.707051 0.000044
outer loop
vertex 35.812386 -96.519997 -380.236511
vertex 30.226089 -90.931999 -367.536163
vertex 30.225288 -90.931999 -380.236145
endloop
endfacet
facet normal 0.707156 -0.707057 0.000000
outer loop
vertex 30.225288 -90.931999 -380.236145
vertex 24.638069 -96.519997 -367.535858
vertex 24.638077 -96.519997 -380.235809
endloop
endfacet
facet normal -0.707106 0.707108 0.000045
outer loop
vertex 30.225288 90.931999 -380.236145
vertex 30.226089 90.931999 -367.536163
vertex 35.814095 96.519997 -367.536560
endloop
endfacet
facet normal 0.707105 0.707108 0.000000
outer loop
vertex 24.638077 96.519997 -380.235809
vertex 24.638069 96.519997 -367.535858
vertex 30.226089 90.931999 -367.536163
endloop
endfacet
facet normal 0.707156 0.707058 -0.000044
outer loop
vertex 24.638077 96.519997 -380.235809
vertex 30.226089 90.931999 -367.536163
vertex 30.225288 90.931999 -380.236145
endloop
endfacet
facet normal -0.707106 -0.707107 0.000095
outer loop
vertex 35.812386 96.519997 -380.236511
vertex 35.814095 96.519997 -367.536560
vertex 30.226089 102.108002 -367.536163
endloop
endfacet
facet normal -0.707164 0.707050 0.000096
outer loop
vertex 35.812386 96.519997 -380.236511
vertex 30.225288 90.931999 -380.236145
vertex 35.814095 96.519997 -367.536560
endloop
endfacet
facet normal 0.707107 -0.707107 -0.000044
outer loop
vertex 30.225288 102.108002 -380.236145
vertex 30.226089 102.108002 -367.536163
vertex 24.638069 96.519997 -367.535858
endloop
endfacet
facet normal -0.707163 -0.707051 0.000044
outer loop
vertex 35.812386 96.519997 -380.236511
vertex 30.226089 102.108002 -367.536163
vertex 30.225288 102.108002 -380.236145
endloop
endfacet
facet normal 0.707156 -0.707057 -0.000000
outer loop
vertex 30.225288 102.108002 -380.236145
vertex 24.638069 96.519997 -367.535858
vertex 24.638077 96.519997 -380.235809
endloop
endfacet
facet normal -0.707109 -0.707105 0.000045
outer loop
vertex 30.221764 -90.931999 -432.560089
vertex 30.220955 -90.931999 -445.260132
vertex 35.808960 -96.519997 -445.260498
endloop
endfacet
facet normal 0.707106 -0.707107 -0.000096
outer loop
vertex 24.634659 -96.519997 -432.559784
vertex 24.632935 -96.519997 -445.259796
vertex 30.220955 -90.931999 -445.260132
endloop
endfacet
facet normal 0.707163 -0.707051 -0.000045
outer loop
vertex 24.634659 -96.519997 -432.559784
vertex 30.220955 -90.931999 -445.260132
vertex 30.221764 -90.931999 -432.560089
endloop
endfacet
facet normal -0.707105 0.707108 0.000000
outer loop
vertex 35.808960 -96.519997 -432.560516
vertex 35.808960 -96.519997 -445.260498
vertex 30.220955 -102.108002 -445.260132
endloop
endfacet
facet normal -0.707157 -0.707057 0.000000
outer loop
vertex 35.808960 -96.519997 -432.560516
vertex 30.221764 -90.931999 -432.560089
vertex 35.808960 -96.519997 -445.260498
endloop
endfacet
facet normal 0.707103 0.707111 -0.000045
outer loop
vertex 30.221764 -102.108002 -432.560089
vertex 30.220955 -102.108002 -445.260132
vertex 24.632935 -96.519997 -445.259796
endloop
endfacet
facet normal -0.707160 0.707054 0.000045
outer loop
vertex 35.808960 -96.519997 -432.560516
vertex 30.220955 -102.108002 -445.260132
vertex 30.221764 -102.108002 -432.560089
endloop
endfacet
facet normal 0.707164 0.707050 -0.000096
outer loop
vertex 30.221764 -102.108002 -432.560089
vertex 24.632935 -96.519997 -445.259796
vertex 24.634659 -96.519997 -432.559784
endloop
endfacet
facet normal -0.707109 -0.707105 0.000045
outer loop
vertex 30.221764 102.108002 -432.560089
vertex 30.220955 102.108002 -445.260132
vertex 35.808960 96.519997 -445.260498
endloop
endfacet
facet normal 0.707104 -0.707110 -0.000096
outer loop
vertex 24.634659 96.519997 -432.559784
vertex 24.632935 96.519997 -445.259796
vertex 30.220955 102.108002 -445.260132
endloop
endfacet
facet normal 0.707163 -0.707051 -0.000045
outer loop
vertex 24.634659 96.519997 -432.559784
vertex 30.220955 102.108002 -445.260132
vertex 30.221764 102.108002 -432.560089
endloop
endfacet
facet normal -0.707105 0.707108 0.000000
outer loop
vertex 35.808960 96.519997 -432.560516
vertex 35.808960 96.519997 -445.260498
vertex 30.220955 90.931999 -445.260132
endloop
endfacet
facet normal -0.707157 -0.707057 0.000000
outer loop
vertex 35.808960 96.519997 -432.560516
vertex 30.221764 102.108002 -432.560089
vertex 35.808960 96.519997 -445.260498
endloop
endfacet
facet normal 0.707105 0.707108 -0.000045
outer loop
vertex 30.221764 90.931999 -432.560089
vertex 30.220955 90.931999 -445.260132
vertex 24.632935 96.519997 -445.259796
endloop
endfacet
facet normal -0.707160 0.707054 0.000045
outer loop
vertex 35.808960 96.519997 -432.560516
vertex 30.220955 90.931999 -445.260132
vertex 30.221764 90.931999 -432.560089
endloop
endfacet
facet normal 0.707164 0.707050 -0.000096
outer loop
vertex 30.221764 90.931999 -432.560089
vertex 24.632935 96.519997 -445.259796
vertex 24.634659 96.519997 -432.559784
endloop
endfacet
facet normal 0.000000 1.000000 0.000000
outer loop
vertex 30.224342 82.550003 -393.634613
vertex 38.161392 82.550003 -401.572632
vertex 30.223335 82.550003 -409.509705
endloop
endfacet
facet normal -0.707062 0.000000 0.707152
outer loop
vertex 30.223335 92.551247 -409.509705
vertex 30.223335 82.550003 -409.509705
vertex 38.161392 82.550003 -401.572632
endloop
endfacet
facet normal 0.000000 1.000000 0.000000
outer loop
vertex 22.286301 82.550003 -401.571625
vertex 30.224342 82.550003 -393.634613
vertex 30.223335 82.550003 -409.509705
endloop
endfacet
facet normal 0.258858 0.000000 0.965915
outer loop
vertex 26.254784 96.488251 -408.446075
vertex 30.223335 82.550003 -409.509705
vertex 30.223335 92.551247 -409.509705
endloop
endfacet
facet normal -0.326322 0.414993 0.849291
outer loop
vertex 33.025093 93.709061 -408.998901
vertex 30.223335 92.551247 -409.509705
vertex 38.161392 82.550003 -401.572632
endloop
endfacet
facet normal -0.694812 0.148488 0.703696
outer loop
vertex 34.192039 96.551788 -408.446503
vertex 33.025093 93.709061 -408.998901
vertex 38.161392 82.550003 -401.572632
endloop
endfacet
facet normal 0.707060 0.000000 -0.707154
outer loop
vertex 30.224342 92.551247 -393.634613
vertex 30.224342 82.550003 -393.634613
vertex 22.286301 82.550003 -401.571625
endloop
endfacet
facet normal -0.258896 0.000000 -0.965905
outer loop
vertex 30.224342 92.551247 -393.634613
vertex 34.192986 96.507103 -394.698334
vertex 30.224342 82.550003 -393.634613
endloop
endfacet
facet normal 0.491237 0.267861 -0.828816
outer loop
vertex 26.255547 96.540031 -394.697754
vertex 30.224342 92.551247 -393.634613
vertex 22.286301 82.550003 -401.571625
endloop
endfacet
facet normal -0.704392 -0.709811 0.000998
outer loop
vertex 34.189926 96.519997 -432.560394
vertex 34.192039 96.551788 -408.446503
vertex 30.223335 100.488701 -409.509705
endloop
endfacet
facet normal 0.382255 -0.924057 -0.000025
outer loop
vertex 30.221764 100.488701 -432.560089
vertex 30.223335 100.488701 -409.509705
vertex 27.419579 99.328857 -408.997803
endloop
endfacet
facet normal -0.707155 -0.707059 0.000048
outer loop
vertex 34.189926 96.519997 -432.560394
vertex 30.223335 100.488701 -409.509705
vertex 30.221764 100.488701 -432.560089
endloop
endfacet
facet normal -0.708252 -0.705960 0.000050
outer loop
vertex 30.225288 100.488701 -380.236145
vertex 30.224342 100.488701 -393.634613
vertex 34.192986 96.507103 -394.698334
endloop
endfacet
facet normal 0.705450 -0.708759 -0.001059
outer loop
vertex 26.257126 96.519997 -380.235840
vertex 26.255547 96.540031 -394.697754
vertex 30.224342 100.488701 -393.634613
endloop
endfacet
facet normal 0.707155 -0.707058 -0.000050
outer loop
vertex 26.257126 96.519997 -380.235840
vertex 30.224342 100.488701 -393.634613
vertex 30.225288 100.488701 -380.236145
endloop
endfacet
facet normal -0.706048 0.708164 -0.000614
outer loop
vertex 34.193344 96.519997 -380.236389
vertex 34.192986 96.507103 -394.698334
vertex 30.224342 92.551247 -393.634613
endloop
endfacet
facet normal -0.707163 -0.707050 0.000648
outer loop
vertex 34.193344 96.519997 -380.236389
vertex 30.225288 100.488701 -380.236145
vertex 34.192986 96.507103 -394.698334
endloop
endfacet
facet normal 0.708889 0.705320 -0.000050
outer loop
vertex 30.225288 92.551247 -380.236145
vertex 30.224342 92.551247 -393.634613
vertex 26.255547 96.540031 -394.697754
endloop
endfacet
facet normal -0.707168 0.707046 0.000049
outer loop
vertex 34.193344 96.519997 -380.236389
vertex 30.224342 92.551247 -393.634613
vertex 30.225288 92.551247 -380.236145
endloop
endfacet
facet normal -0.381924 0.924194 0.000027
outer loop
vertex 30.221764 92.551247 -432.560089
vertex 30.223335 92.551247 -409.509705
vertex 33.025093 93.709061 -408.998901
endloop
endfacet
facet normal 0.704401 0.709802 0.000904
outer loop
vertex 26.253716 96.519997 -432.559845
vertex 26.254784 96.488251 -408.446075
vertex 30.223335 92.551247 -409.509705
endloop
endfacet
facet normal 0.707170 0.707044 -0.000049
outer loop
vertex 30.221764 92.551247 -432.560089
vertex 26.253716 96.519997 -432.559845
vertex 30.223335 92.551247 -409.509705
endloop
endfacet
facet normal -0.925060 0.379821 -0.000420
outer loop
vertex 34.189926 96.519997 -432.560394
vertex 33.025093 93.709061 -408.998901
vertex 34.192039 96.551788 -408.446503
endloop
endfacet
facet normal -0.706297 0.706195 0.049333
outer loop
vertex 34.189926 96.519997 -432.560394
vertex 30.221764 92.551247 -432.560089
vertex 33.025093 93.709061 -408.998901
endloop
endfacet
facet normal 0.925198 -0.379484 -0.000540
outer loop
vertex 26.253716 96.519997 -432.559845
vertex 27.419579 99.328857 -408.997803
vertex 26.254784 96.488251 -408.446075
endloop
endfacet
facet normal 0.706309 -0.706189 0.049237
outer loop
vertex 26.253716 96.519997 -432.559845
vertex 30.221764 100.488701 -432.560089
vertex 27.419579 99.328857 -408.997803
endloop
endfacet
facet normal 0.707158 0.707055 0.000902
outer loop
vertex 26.257126 96.519997 -380.235840
vertex 30.225288 92.551247 -380.236145
vertex 26.255547 96.540031 -394.697754
endloop
endfacet
facet normal 0.000000 -1.000000 0.000000
outer loop
vertex 30.224342 -82.550003 -393.634613
vertex 22.286301 -82.550003 -401.571625
vertex 30.223335 -82.550003 -409.509705
endloop
endfacet
facet normal 0.707152 0.000000 0.707061
outer loop
vertex 30.223335 -92.551247 -409.509705
vertex 30.223335 -82.550003 -409.509705
vertex 22.286301 -82.550003 -401.571625
endloop
endfacet
facet normal 0.000000 -1.000000 -0.000000
outer loop
vertex 38.161392 -82.550003 -401.572632
vertex 30.224342 -82.550003 -393.634613
vertex 30.223335 -82.550003 -409.509705
endloop
endfacet
facet normal -0.258770 0.000000 0.965939
outer loop
vertex 34.192039 -96.488213 -408.446503
vertex 30.223335 -82.550003 -409.509705
vertex 30.223335 -92.551247 -409.509705
endloop
endfacet
facet normal 0.326644 -0.414820 0.849251
outer loop
vertex 27.419579 -93.711143 -408.997803
vertex 30.223335 -92.551247 -409.509705
vertex 22.286301 -82.550003 -401.571625
endloop
endfacet
facet normal 0.695070 -0.148379 0.703464
outer loop
vertex 26.254784 -96.551750 -408.446075
vertex 27.419579 -93.711143 -408.997803
vertex 22.286301 -82.550003 -401.571625
endloop
endfacet
facet normal -0.707150 0.000000 -0.707063
outer loop
vertex 30.224342 -92.551247 -393.634613
vertex 30.224342 -82.550003 -393.634613
vertex 38.161392 -82.550003 -401.572632
endloop
endfacet
facet normal 0.258765 0.000000 -0.965940
outer loop
vertex 26.255547 -96.499969 -394.697754
vertex 30.224342 -82.550003 -393.634613
vertex 30.224342 -92.551247 -393.634613
endloop
endfacet
facet normal -0.491114 -0.268085 -0.828817
outer loop
vertex 34.192986 -96.532898 -394.698334
vertex 30.224342 -92.551247 -393.634613
vertex 38.161392 -82.550003 -401.572632
endloop
endfacet
facet normal -0.704396 -0.709806 0.000997
outer loop
vertex 34.189926 -96.519997 -432.560394
vertex 34.192039 -96.488213 -408.446503
vertex 30.223335 -92.551247 -409.509705
endloop
endfacet
facet normal 0.382269 -0.924051 -0.000026
outer loop
vertex 30.221764 -92.551247 -432.560089
vertex 30.223335 -92.551247 -409.509705
vertex 27.419579 -93.711143 -408.997803
endloop
endfacet
facet normal -0.707160 -0.707054 0.000048
outer loop
vertex 34.189926 -96.519997 -432.560394
vertex 30.223335 -92.551247 -409.509705
vertex 30.221764 -92.551247 -432.560089
endloop
endfacet
facet normal -0.708257 -0.705955 0.000050
outer loop
vertex 30.225288 -92.551247 -380.236145
vertex 30.224342 -92.551247 -393.634613
vertex 34.192986 -96.532898 -394.698334
endloop
endfacet
facet normal 0.705454 -0.708755 -0.001058
outer loop
vertex 26.257126 -96.519997 -380.235840
vertex 26.255547 -96.499969 -394.697754
vertex 30.224342 -92.551247 -393.634613
endloop
endfacet
facet normal 0.707160 -0.707053 -0.000050
outer loop
vertex 26.257126 -96.519997 -380.235840
vertex 30.224342 -92.551247 -393.634613
vertex 30.225288 -92.551247 -380.236145
endloop
endfacet
facet normal -0.706043 0.708169 -0.000615
outer loop
vertex 34.193344 -96.519997 -380.236389
vertex 34.192986 -96.532898 -394.698334
vertex 30.224342 -100.488701 -393.634613
endloop
endfacet
facet normal -0.707168 -0.707046 0.000647
outer loop
vertex 34.193344 -96.519997 -380.236389
vertex 30.225288 -92.551247 -380.236145
vertex 34.192986 -96.532898 -394.698334
endloop
endfacet
facet normal 0.708884 0.705325 -0.000050
outer loop
vertex 30.225288 -100.488701 -380.236145
vertex 30.224342 -100.488701 -393.634613
vertex 26.255547 -96.499969 -394.697754
endloop
endfacet
facet normal -0.707163 0.707051 0.000050
outer loop
vertex 34.193344 -96.519997 -380.236389
vertex 30.224342 -100.488701 -393.634613
vertex 30.225288 -100.488701 -380.236145
endloop
endfacet
facet normal -0.381909 0.924200 0.000026
outer loop
vertex 30.221764 -100.488701 -432.560089
vertex 30.223335 -100.488701 -409.509705
vertex 33.025093 -99.330940 -408.998901
endloop
endfacet
facet normal 0.704396 0.709806 0.000904
outer loop
vertex 26.253716 -96.519997 -432.559845
vertex 26.254784 -96.551750 -408.446075
vertex 30.223335 -100.488701 -409.509705
endloop
endfacet
facet normal 0.707165 0.707049 -0.000048
outer loop
vertex 30.221764 -100.488701 -432.560089
vertex 26.253716 -96.519997 -432.559845
vertex 30.223335 -100.488701 -409.509705
endloop
endfacet
facet normal -0.925060 0.379821 -0.000420
outer loop
vertex 34.189926 -96.519997 -432.560394
vertex 33.025093 -99.330940 -408.998901
vertex 34.192039 -96.488213 -408.446503
endloop
endfacet
facet normal -0.706292 0.706200 0.049334
outer loop
vertex 34.189926 -96.519997 -432.560394
vertex 30.221764 -100.488701 -432.560089
vertex 33.025093 -99.330940 -408.998901
endloop
endfacet
facet normal 0.925198 -0.379484 -0.000541
outer loop
vertex 26.253716 -96.519997 -432.559845
vertex 27.419579 -93.711143 -408.997803
vertex 26.254784 -96.551750 -408.446075
endloop
endfacet
facet normal 0.706314 -0.706184 0.049236
outer loop
vertex 26.253716 -96.519997 -432.559845
vertex 30.221764 -92.551247 -432.560089
vertex 27.419579 -93.711143 -408.997803
endloop
endfacet
facet normal 0.707155 0.707058 0.000901
outer loop
vertex 26.257126 -96.519997 -380.235840
vertex 30.225288 -100.488701 -380.236145
vertex 26.255547 -96.499969 -394.697754
endloop
endfacet
facet normal 0.000038 0.000058 1.000000
outer loop
vertex 24.638077 -96.519997 -380.235809
vertex 26.257126 -96.519997 -380.235840
vertex 30.225288 -92.551247 -380.236145
endloop
endfacet
facet normal 0.000038 0.000000 1.000000
outer loop
vertex 30.225288 -90.931999 -380.236145
vertex 30.225288 -92.551247 -380.236145
vertex 34.193344 -96.519997 -380.236389
endloop
endfacet
facet normal 0.000081 0.000000 1.000000
outer loop
vertex 30.225288 -90.931999 -380.236145
vertex 24.638077 -96.519997 -380.235809
vertex 30.225288 -92.551247 -380.236145
endloop
endfacet
facet normal 0.000076 0.000000 1.000000
outer loop
vertex 30.225288 -102.108002 -380.236145
vertex 30.225288 -100.488701 -380.236145
vertex 26.257126 -96.519997 -380.235840
endloop
endfacet
facet normal 0.000076 -0.000014 1.000000
outer loop
vertex 35.812386 -96.519997 -380.236511
vertex 34.193344 -96.519997 -380.236389
vertex 30.225288 -100.488701 -380.236145
endloop
endfacet
facet normal 0.000040 0.000000 1.000000
outer loop
vertex 35.812386 -96.519997 -380.236511
vertex 30.225288 -100.488701 -380.236145
vertex 30.225288 -102.108002 -380.236145
endloop
endfacet
facet normal 0.000054 -0.000041 1.000000
outer loop
vertex 24.638077 -96.519997 -380.235809
vertex 30.225288 -102.108002 -380.236145
vertex 26.257126 -96.519997 -380.235840
endloop
endfacet
facet normal -0.000076 0.000000 -1.000000
outer loop
vertex 30.221764 -90.931999 -432.560089
vertex 30.221764 -92.551247 -432.560089
vertex 26.253716 -96.519997 -432.559845
endloop
endfacet
facet normal -0.000076 0.000002 -1.000000
outer loop
vertex 35.808960 -96.519997 -432.560516
vertex 34.189926 -96.519997 -432.560394
vertex 30.221764 -92.551247 -432.560089
endloop
endfacet
facet normal -0.000040 0.000000 -1.000000
outer loop
vertex 35.808960 -96.519997 -432.560516
vertex 30.221764 -92.551247 -432.560089
vertex 30.221764 -90.931999 -432.560089
endloop
endfacet
facet normal -0.000038 0.000024 -1.000000
outer loop
vertex 24.634659 -96.519997 -432.559784
vertex 26.253716 -96.519997 -432.559845
vertex 30.221764 -100.488701 -432.560089
endloop
endfacet
facet normal -0.000054 -0.000017 -1.000000
outer loop
vertex 24.634659 -96.519997 -432.559784
vertex 30.221764 -90.931999 -432.560089
vertex 26.253716 -96.519997 -432.559845
endloop
endfacet
facet normal -0.000114 0.000000 -1.000000
outer loop
vertex 30.221764 -102.108002 -432.560089
vertex 30.221764 -100.488701 -432.560089
vertex 34.189926 -96.519997 -432.560394
endloop
endfacet
facet normal -0.000027 0.000000 -1.000000
outer loop
vertex 30.221764 -102.108002 -432.560089
vertex 24.634659 -96.519997 -432.559784
vertex 30.221764 -100.488701 -432.560089
endloop
endfacet
facet normal 0.000054 0.000010 1.000000
outer loop
vertex 35.812386 -96.519997 -380.236511
vertex 30.225288 -90.931999 -380.236145
vertex 34.193344 -96.519997 -380.236389
endloop
endfacet
facet normal -0.000054 -0.000001 -1.000000
outer loop
vertex 35.808960 -96.519997 -432.560516
vertex 30.221764 -102.108002 -432.560089
vertex 34.189926 -96.519997 -432.560394
endloop
endfacet
facet normal 0.000038 0.000058 1.000000
outer loop
vertex 24.638077 96.519997 -380.235809
vertex 26.257126 96.519997 -380.235840
vertex 30.225288 100.488701 -380.236145
endloop
endfacet
facet normal 0.000038 0.000000 1.000000
outer loop
vertex 30.225288 102.108002 -380.236145
vertex 30.225288 100.488701 -380.236145
vertex 34.193344 96.519997 -380.236389
endloop
endfacet
facet normal 0.000081 0.000000 1.000000
outer loop
vertex 30.225288 102.108002 -380.236145
vertex 24.638077 96.519997 -380.235809
vertex 30.225288 100.488701 -380.236145
endloop
endfacet
facet normal 0.000076 0.000000 1.000000
outer loop
vertex 30.225288 90.931999 -380.236145
vertex 30.225288 92.551247 -380.236145
vertex 26.257126 96.519997 -380.235840
endloop
endfacet
facet normal 0.000076 -0.000014 1.000000
outer loop
vertex 35.812386 96.519997 -380.236511
vertex 34.193344 96.519997 -380.236389
vertex 30.225288 92.551247 -380.236145
endloop
endfacet
facet normal 0.000027 0.000000 1.000000
outer loop
vertex 35.812386 96.519997 -380.236511
vertex 30.225288 92.551247 -380.236145
vertex 30.225288 90.931999 -380.236145
endloop
endfacet
facet normal 0.000054 -0.000041 1.000000
outer loop
vertex 24.638077 96.519997 -380.235809
vertex 30.225288 90.931999 -380.236145
vertex 26.257126 96.519997 -380.235840
endloop
endfacet
facet normal -0.000076 0.000000 -1.000000
outer loop
vertex 30.221764 102.108002 -432.560089
vertex 30.221764 100.488701 -432.560089
vertex 26.253716 96.519997 -432.559845
endloop
endfacet
facet normal -0.000076 0.000002 -1.000000
outer loop
vertex 35.808960 96.519997 -432.560516
vertex 34.189926 96.519997 -432.560394
vertex 30.221764 100.488701 -432.560089
endloop
endfacet
facet normal -0.000081 0.000000 -1.000000
outer loop
vertex 35.808960 96.519997 -432.560516
vertex 30.221764 100.488701 -432.560089
vertex 30.221764 102.108002 -432.560089
endloop
endfacet
facet normal -0.000038 0.000024 -1.000000
outer loop
vertex 24.634659 96.519997 -432.559784
vertex 26.253716 96.519997 -432.559845
vertex 30.221764 92.551247 -432.560089
endloop
endfacet
facet normal 0.000000 -0.000017 -1.000000
outer loop
vertex 24.634659 96.519997 -432.559784
vertex 30.221764 102.108002 -432.560089
vertex 26.253716 96.519997 -432.559845
endloop
endfacet
facet normal -0.000038 0.000000 -1.000000
outer loop
vertex 30.221764 90.931999 -432.560089
vertex 30.221764 92.551247 -432.560089
vertex 34.189926 96.519997 -432.560394
endloop
endfacet
facet normal -0.000081 0.000000 -1.000000
outer loop
vertex 30.221764 90.931999 -432.560089
vertex 24.634659 96.519997 -432.559784
vertex 30.221764 92.551247 -432.560089
endloop
endfacet
facet normal 0.000054 0.000010 1.000000
outer loop
vertex 35.812386 96.519997 -380.236511
vertex 30.225288 102.108002 -380.236145
vertex 34.193344 96.519997 -380.236389
endloop
endfacet
facet normal -0.000054 -0.000001 -1.000000
outer loop
vertex 35.808960 96.519997 -432.560516
vertex 30.221764 90.931999 -432.560089
vertex 34.189926 96.519997 -432.560394
endloop
endfacet
endsolid Exported from Blender-2.93.3
