solid 006_100022596-12
  facet normal 1.000000e+00 0.000000e+00 0.000000e+00
    outer loop
      vertex 3.199990e+02 4.072283e+01 -4.789186e+02
      vertex 3.199990e+02 3.811286e+01 -4.800295e+02
      vertex 3.199990e+02 4.079435e+01 -4.798157e+02
    endloop
  endfacet
  facet normal 2.266547e-15 7.946235e-02 -9.968379e-01
    outer loop
      vertex 2.949990e+02 3.811286e+01 -4.800295e+02
      vertex 3.199990e+02 4.079435e+01 -4.798157e+02
      vertex 3.199990e+02 3.811286e+01 -4.800295e+02
    endloop
  endfacet
  facet normal 1.026419e-16 9.968379e-01 7.946235e-02
    outer loop
      vertex 2.949990e+02 4.079435e+01 -4.798157e+02
      vertex 3.199990e+02 4.072283e+01 -4.789186e+02
      vertex 3.199990e+02 4.079435e+01 -4.798157e+02
    endloop
  endfacet
  facet normal 2.289131e-15 7.946235e-02 -9.968379e-01
    outer loop
      vertex 2.949990e+02 4.079435e+01 -4.798157e+02
      vertex 3.199990e+02 4.079435e+01 -4.798157e+02
      vertex 2.949990e+02 3.811286e+01 -4.800295e+02
    endloop
  endfacet
  facet normal 1.000000e+00 0.000000e+00 0.000000e+00
    outer loop
      vertex 3.199990e+02 3.918080e+01 -4.763871e+02
      vertex 3.199990e+02 3.775528e+01 -4.755437e+02
      vertex 3.199990e+02 3.811286e+01 -4.800295e+02
    endloop
  endfacet
  facet normal 0.000000e+00 -9.968379e-01 -7.946235e-02
    outer loop
      vertex 1.228861e+02 3.775528e+01 -4.755437e+02
      vertex 3.199990e+02 3.811286e+01 -4.800295e+02
      vertex 3.199990e+02 3.775528e+01 -4.755437e+02
    endloop
  endfacet
  facet normal 1.000000e+00 0.000000e+00 0.000000e+00
    outer loop
      vertex 3.199990e+02 3.939106e+01 -4.790247e+02
      vertex 3.199990e+02 3.918080e+01 -4.763871e+02
      vertex 3.199990e+02 3.811286e+01 -4.800295e+02
    endloop
  endfacet
  facet normal 1.000000e+00 0.000000e+00 0.000000e+00
    outer loop
      vertex 3.199990e+02 4.072283e+01 -4.789186e+02
      vertex 3.199990e+02 3.939106e+01 -4.790247e+02
      vertex 3.199990e+02 3.811286e+01 -4.800295e+02
    endloop
  endfacet
  facet normal 1.815831e-16 -9.968379e-01 -7.946235e-02
    outer loop
      vertex 1.228861e+02 3.775528e+01 -4.755437e+02
      vertex 2.949990e+02 3.811286e+01 -4.800295e+02
      vertex 3.199990e+02 3.811286e+01 -4.800295e+02
    endloop
  endfacet
  facet normal 1.000000e+00 0.000000e+00 0.000000e+00
    outer loop
      vertex 3.199990e+02 3.918080e+01 -4.763871e+02
      vertex 3.199990e+02 4.046645e+01 -4.753276e+02
      vertex 3.199990e+02 3.775528e+01 -4.755437e+02
    endloop
  endfacet
  facet normal 0.000000e+00 -7.946235e-02 9.968379e-01
    outer loop
      vertex 1.239990e+02 4.046645e+01 -4.753276e+02
      vertex 3.199990e+02 3.775528e+01 -4.755437e+02
      vertex 3.199990e+02 4.046645e+01 -4.753276e+02
    endloop
  endfacet
  facet normal 0.000000e+00 -7.946235e-02 9.968379e-01
    outer loop
      vertex 1.228861e+02 3.910499e+01 -4.754361e+02
      vertex 1.228861e+02 3.775528e+01 -4.755437e+02
      vertex 3.199990e+02 3.775528e+01 -4.755437e+02
    endloop
  endfacet
  facet normal 0.000000e+00 -7.946235e-02 9.968379e-01
    outer loop
      vertex 1.239990e+02 3.910499e+01 -4.754361e+02
      vertex 1.228861e+02 3.910499e+01 -4.754361e+02
      vertex 3.199990e+02 3.775528e+01 -4.755437e+02
    endloop
  endfacet
  facet normal 1.658958e-17 -7.946235e-02 9.968379e-01
    outer loop
      vertex 1.239990e+02 4.046645e+01 -4.753276e+02
      vertex 1.239990e+02 3.910499e+01 -4.754361e+02
      vertex 3.199990e+02 3.775528e+01 -4.755437e+02
    endloop
  endfacet
  facet normal 1.000000e+00 0.000000e+00 0.000000e+00
    outer loop
      vertex 3.199990e+02 3.918080e+01 -4.763871e+02
      vertex 3.199990e+02 4.054697e+01 -4.762782e+02
      vertex 3.199990e+02 4.046645e+01 -4.753276e+02
    endloop
  endfacet
  facet normal 0.000000e+00 9.964320e-01 8.439894e-02
    outer loop
      vertex 1.239990e+02 4.054697e+01 -4.762782e+02
      vertex 3.199990e+02 4.046645e+01 -4.753276e+02
      vertex 3.199990e+02 4.054697e+01 -4.762782e+02
    endloop
  endfacet
  facet normal 0.000000e+00 9.964320e-01 8.439894e-02
    outer loop
      vertex 1.239990e+02 4.046645e+01 -4.753276e+02
      vertex 3.199990e+02 4.046645e+01 -4.753276e+02
      vertex 1.239990e+02 4.054697e+01 -4.762782e+02
    endloop
  endfacet
  facet normal 0.000000e+00 7.946235e-02 -9.968379e-01
    outer loop
      vertex 1.239990e+02 3.918080e+01 -4.763871e+02
      vertex 3.199990e+02 4.054697e+01 -4.762782e+02
      vertex 3.199990e+02 3.918080e+01 -4.763871e+02
    endloop
  endfacet
  facet normal 0.000000e+00 7.946235e-02 -9.968379e-01
    outer loop
      vertex 1.239990e+02 4.054697e+01 -4.762782e+02
      vertex 3.199990e+02 4.054697e+01 -4.762782e+02
      vertex 1.239990e+02 3.918080e+01 -4.763871e+02
    endloop
  endfacet
  facet normal 0.000000e+00 9.968379e-01 7.946235e-02
    outer loop
      vertex 1.180861e+02 3.939106e+01 -4.790247e+02
      vertex 3.199990e+02 3.918080e+01 -4.763871e+02
      vertex 3.199990e+02 3.939106e+01 -4.790247e+02
    endloop
  endfacet
  facet normal 0.000000e+00 9.968379e-01 7.946235e-02
    outer loop
      vertex 1.239990e+02 3.918080e+01 -4.763871e+02
      vertex 3.199990e+02 3.918080e+01 -4.763871e+02
      vertex 1.180861e+02 3.939106e+01 -4.790247e+02
    endloop
  endfacet
  facet normal 0.000000e+00 -7.946235e-02 9.968379e-01
    outer loop
      vertex 2.499990e+02 4.072283e+01 -4.789186e+02
      vertex 3.199990e+02 3.939106e+01 -4.790247e+02
      vertex 3.199990e+02 4.072283e+01 -4.789186e+02
    endloop
  endfacet
  facet normal 0.000000e+00 -7.946235e-02 9.968379e-01
    outer loop
      vertex 1.180861e+02 3.939106e+01 -4.790247e+02
      vertex 3.199990e+02 3.939106e+01 -4.790247e+02
      vertex 1.180861e+02 4.077029e+01 -4.789148e+02
    endloop
  endfacet
  facet normal 1.101715e-16 -7.946235e-02 9.968379e-01
    outer loop
      vertex 2.499990e+02 4.072283e+01 -4.789186e+02
      vertex 1.180861e+02 4.077029e+01 -4.789148e+02
      vertex 3.199990e+02 3.939106e+01 -4.790247e+02
    endloop
  endfacet
  facet normal 0.000000e+00 9.968379e-01 7.946235e-02
    outer loop
      vertex 2.549990e+02 4.084997e+01 -4.805135e+02
      vertex 2.499990e+02 4.072283e+01 -4.789186e+02
      vertex 3.199990e+02 4.072283e+01 -4.789186e+02
    endloop
  endfacet
  facet normal 1.432788e-16 9.968379e-01 7.946235e-02
    outer loop
      vertex 2.949990e+02 4.079435e+01 -4.798157e+02
      vertex 2.549990e+02 4.084997e+01 -4.805135e+02
      vertex 3.199990e+02 4.072283e+01 -4.789186e+02
    endloop
  endfacet
  facet normal 1.028382e-14 -9.968379e-01 -7.946235e-02
    outer loop
      vertex 2.487866e+02 4.051691e+01 -5.101878e+02
      vertex 2.244535e+02 3.967136e+01 -4.995806e+02
      vertex 2.239990e+02 3.967644e+01 -4.996443e+02
    endloop
  endfacet
  facet normal -1.391629e-01 -7.868914e-02 9.871381e-01
    outer loop
      vertex 2.239990e+02 4.250699e+01 -4.994186e+02
      vertex 2.239990e+02 3.967644e+01 -4.996443e+02
      vertex 2.244535e+02 3.967136e+01 -4.995806e+02
    endloop
  endfacet
  facet normal 0.000000e+00 -9.968379e-01 -7.946235e-02
    outer loop
      vertex 2.487866e+02 4.051691e+01 -5.101878e+02
      vertex 2.239990e+02 3.967644e+01 -4.996443e+02
      vertex 1.319990e+02 3.967644e+01 -4.996443e+02
    endloop
  endfacet
  facet normal 0.000000e+00 -7.946235e-02 9.968379e-01
    outer loop
      vertex 1.319990e+02 4.250699e+01 -4.994186e+02
      vertex 1.319990e+02 3.967644e+01 -4.996443e+02
      vertex 2.239990e+02 3.967644e+01 -4.996443e+02
    endloop
  endfacet
  facet normal 0.000000e+00 -7.946235e-02 9.968379e-01
    outer loop
      vertex 1.319990e+02 4.250699e+01 -4.994186e+02
      vertex 2.239990e+02 3.967644e+01 -4.996443e+02
      vertex 2.239990e+02 4.250699e+01 -4.994186e+02
    endloop
  endfacet
  facet normal -5.338637e-15 -9.968379e-01 -7.946235e-02
    outer loop
      vertex 2.487866e+02 4.051691e+01 -5.101878e+02
      vertex 2.248722e+02 3.965657e+01 -4.993951e+02
      vertex 2.244535e+02 3.967136e+01 -4.995806e+02
    endloop
  endfacet
  facet normal -4.062280e-01 -7.261048e-02 9.108823e-01
    outer loop
      vertex 2.244535e+02 4.250160e+01 -4.993550e+02
      vertex 2.244535e+02 3.967136e+01 -4.995806e+02
      vertex 2.248722e+02 3.965657e+01 -4.993951e+02
    endloop
  endfacet
  facet normal -1.391627e-01 -7.868912e-02 9.871382e-01
    outer loop
      vertex 2.244535e+02 4.250160e+01 -4.993550e+02
      vertex 2.239990e+02 4.250699e+01 -4.994186e+02
      vertex 2.244535e+02 3.967136e+01 -4.995806e+02
    endloop
  endfacet
  facet normal 0.000000e+00 -9.968379e-01 -7.946235e-02
    outer loop
      vertex 2.329940e+02 3.975173e+01 -5.005888e+02
      vertex 2.329940e+02 3.965657e+01 -4.993951e+02
      vertex 2.248722e+02 3.965657e+01 -4.993951e+02
    endloop
  endfacet
  facet normal 0.000000e+00 -7.946235e-02 9.968379e-01
    outer loop
      vertex 2.248722e+02 4.248589e+01 -4.991695e+02
      vertex 2.248722e+02 3.965657e+01 -4.993951e+02
      vertex 2.329940e+02 3.965657e+01 -4.993951e+02
    endloop
  endfacet
  facet normal 1.263108e-15 -9.968379e-01 -7.946235e-02
    outer loop
      vertex 2.337455e+02 3.985513e+01 -5.018859e+02
      vertex 2.329940e+02 3.975173e+01 -5.005888e+02
      vertex 2.248722e+02 3.965657e+01 -4.993951e+02
    endloop
  endfacet
  facet normal -4.402395e-16 -9.968379e-01 -7.946235e-02
    outer loop
      vertex 2.487866e+02 4.051691e+01 -5.101878e+02
      vertex 2.337455e+02 3.985513e+01 -5.018859e+02
      vertex 2.248722e+02 3.965657e+01 -4.993951e+02
    endloop
  endfacet
  facet normal -4.062279e-01 -7.261046e-02 9.108823e-01
    outer loop
      vertex 2.244535e+02 4.250160e+01 -4.993550e+02
      vertex 2.248722e+02 3.965657e+01 -4.993951e+02
      vertex 2.248722e+02 4.248589e+01 -4.991695e+02
    endloop
  endfacet
  facet normal 1.000000e+00 0.000000e+00 0.000000e+00
    outer loop
      vertex 2.329940e+02 4.258696e+01 -5.003628e+02
      vertex 2.329940e+02 3.965657e+01 -4.993951e+02
      vertex 2.329940e+02 3.975173e+01 -5.005888e+02
    endloop
  endfacet
  facet normal 1.000000e+00 0.000000e+00 0.000000e+00
    outer loop
      vertex 2.329940e+02 4.248589e+01 -4.991695e+02
      vertex 2.329940e+02 3.965657e+01 -4.993951e+02
      vertex 2.329940e+02 4.258696e+01 -5.003628e+02
    endloop
  endfacet
  facet normal 0.000000e+00 -7.946235e-02 9.968379e-01
    outer loop
      vertex 2.248722e+02 4.248589e+01 -4.991695e+02
      vertex 2.329940e+02 3.965657e+01 -4.993951e+02
      vertex 2.329940e+02 4.248589e+01 -4.991695e+02
    endloop
  endfacet
  facet normal 8.659701e-01 -3.973878e-02 4.985143e-01
    outer loop
      vertex 2.329940e+02 4.258696e+01 -5.003628e+02
      vertex 2.329940e+02 3.975173e+01 -5.005888e+02
      vertex 2.337455e+02 3.985513e+01 -5.018859e+02
    endloop
  endfacet
  facet normal 0.000000e+00 -9.968379e-01 -7.946235e-02
    outer loop
      vertex 2.487866e+02 4.051691e+01 -5.101878e+02
      vertex 2.352475e+02 3.985513e+01 -5.018859e+02
      vertex 2.337455e+02 3.985513e+01 -5.018859e+02
    endloop
  endfacet
  facet normal 0.000000e+00 -7.946151e-02 9.968379e-01
    outer loop
      vertex 2.337455e+02 4.269678e+01 -5.016594e+02
      vertex 2.337455e+02 3.985513e+01 -5.018859e+02
      vertex 2.352475e+02 3.985513e+01 -5.018859e+02
    endloop
  endfacet
  facet normal 8.659693e-01 -3.973973e-02 4.985157e-01
    outer loop
      vertex 2.329940e+02 4.258696e+01 -5.003628e+02
      vertex 2.337455e+02 3.985513e+01 -5.018859e+02
      vertex 2.337455e+02 4.269678e+01 -5.016594e+02
    endloop
  endfacet
  facet normal 2.045976e-15 -9.968379e-01 -7.946235e-02
    outer loop
      vertex 2.487866e+02 4.051691e+01 -5.101878e+02
      vertex 2.359990e+02 3.975173e+01 -5.005888e+02
      vertex 2.352475e+02 3.985513e+01 -5.018859e+02
    endloop
  endfacet
  facet normal -8.659701e-01 -3.973962e-02 4.985143e-01
    outer loop
      vertex 2.352475e+02 4.269678e+01 -5.016594e+02
      vertex 2.352475e+02 3.985513e+01 -5.018859e+02
      vertex 2.359990e+02 3.975173e+01 -5.005888e+02
    endloop
  endfacet
  facet normal -9.464270e-09 -7.946151e-02 9.968379e-01
    outer loop
      vertex 2.337455e+02 4.269678e+01 -5.016594e+02
      vertex 2.352475e+02 3.985513e+01 -5.018859e+02
      vertex 2.352475e+02 4.269678e+01 -5.016594e+02
    endloop
  endfacet
  facet normal -8.556710e-16 -9.968379e-01 -7.946235e-02
    outer loop
      vertex 2.487866e+02 4.051691e+01 -5.101878e+02
      vertex 2.359990e+02 3.933892e+01 -4.954102e+02
      vertex 2.359990e+02 3.975173e+01 -5.005888e+02
    endloop
  endfacet
  facet normal -1.000000e+00 0.000000e+00 0.000000e+00
    outer loop
      vertex 2.359990e+02 3.995386e+01 -4.979719e+02
      vertex 2.359990e+02 3.975173e+01 -5.005888e+02
      vertex 2.359990e+02 3.933892e+01 -4.954102e+02
    endloop
  endfacet
  facet normal -8.659693e-01 -3.973889e-02 4.985157e-01
    outer loop
      vertex 2.352475e+02 4.269678e+01 -5.016594e+02
      vertex 2.359990e+02 3.975173e+01 -5.005888e+02
      vertex 2.359990e+02 4.258696e+01 -5.003628e+02
    endloop
  endfacet
  facet normal -1.000000e+00 0.000000e+00 0.000000e+00
    outer loop
      vertex 2.359990e+02 4.052860e+01 -4.987976e+02
      vertex 2.359990e+02 4.258696e+01 -5.003628e+02
      vertex 2.359990e+02 3.975173e+01 -5.005888e+02
    endloop
  endfacet
  facet normal -1.000000e+00 0.000000e+00 0.000000e+00
    outer loop
      vertex 2.359990e+02 4.052860e+01 -4.987976e+02
      vertex 2.359990e+02 3.975173e+01 -5.005888e+02
      vertex 2.359990e+02 3.995386e+01 -4.979719e+02
    endloop
  endfacet
  facet normal 3.229940e-15 -9.968379e-01 -7.946235e-02
    outer loop
      vertex 2.487866e+02 4.051691e+01 -5.101878e+02
      vertex 2.352475e+02 3.923552e+01 -4.941131e+02
      vertex 2.359990e+02 3.933892e+01 -4.954102e+02
    endloop
  endfacet
  facet normal -8.659701e-01 3.973878e-02 -4.985143e-01
    outer loop
      vertex 2.359990e+02 4.214850e+01 -4.951862e+02
      vertex 2.359990e+02 3.933892e+01 -4.954102e+02
      vertex 2.352475e+02 3.923552e+01 -4.941131e+02
    endloop
  endfacet
  facet normal -1.000000e+00 0.000000e+00 0.000000e+00
    outer loop
      vertex 2.359990e+02 4.138443e+01 -4.969763e+02
      vertex 2.359990e+02 3.933892e+01 -4.954102e+02
      vertex 2.359990e+02 4.214850e+01 -4.951862e+02
    endloop
  endfacet
  facet normal -1.000000e+00 0.000000e+00 0.000000e+00
    outer loop
      vertex 2.359990e+02 4.038153e+01 -4.970613e+02
      vertex 2.359990e+02 3.933892e+01 -4.954102e+02
      vertex 2.359990e+02 4.138443e+01 -4.969763e+02
    endloop
  endfacet
  facet normal -1.000000e+00 0.000000e+00 0.000000e+00
    outer loop
      vertex 2.359990e+02 3.995386e+01 -4.979719e+02
      vertex 2.359990e+02 3.933892e+01 -4.954102e+02
      vertex 2.359990e+02 4.038153e+01 -4.970613e+02
    endloop
  endfacet
  facet normal 0.000000e+00 -9.968379e-01 -7.946235e-02
    outer loop
      vertex 1.228861e+02 3.775528e+01 -4.755437e+02
      vertex 2.337455e+02 3.923552e+01 -4.941131e+02
      vertex 2.352475e+02 3.923552e+01 -4.941131e+02
    endloop
  endfacet
  facet normal 0.000000e+00 7.946320e-02 -9.968378e-01
    outer loop
      vertex 2.352475e+02 4.203867e+01 -4.938896e+02
      vertex 2.352475e+02 3.923552e+01 -4.941131e+02
      vertex 2.337455e+02 3.923552e+01 -4.941131e+02
    endloop
  endfacet
  facet normal -1.092727e-17 -9.968379e-01 -7.946235e-02
    outer loop
      vertex 2.499990e+02 4.031715e+01 -5.076819e+02
      vertex 2.499990e+02 3.856579e+01 -4.857115e+02
      vertex 2.352475e+02 3.923552e+01 -4.941131e+02
    endloop
  endfacet
  facet normal -5.815519e-18 -9.968379e-01 -7.946235e-02
    outer loop
      vertex 1.228861e+02 3.775528e+01 -4.755437e+02
      vertex 2.352475e+02 3.923552e+01 -4.941131e+02
      vertex 2.499990e+02 3.856579e+01 -4.857115e+02
    endloop
  endfacet
  facet normal -1.208796e-15 -9.968379e-01 -7.946235e-02
    outer loop
      vertex 2.491056e+02 4.040600e+01 -5.087965e+02
      vertex 2.499990e+02 4.031715e+01 -5.076819e+02
      vertex 2.352475e+02 3.923552e+01 -4.941131e+02
    endloop
  endfacet
  facet normal -3.509650e-16 -9.968379e-01 -7.946235e-02
    outer loop
      vertex 2.487866e+02 4.051691e+01 -5.101878e+02
      vertex 2.491056e+02 4.040600e+01 -5.087965e+02
      vertex 2.352475e+02 3.923552e+01 -4.941131e+02
    endloop
  endfacet
  facet normal -8.659693e-01 3.973804e-02 -4.985158e-01
    outer loop
      vertex 2.359990e+02 4.214850e+01 -4.951862e+02
      vertex 2.352475e+02 3.923552e+01 -4.941131e+02
      vertex 2.352475e+02 4.203867e+01 -4.938896e+02
    endloop
  endfacet
  facet normal 8.979777e-17 -9.968379e-01 -7.946235e-02
    outer loop
      vertex 1.228861e+02 3.775528e+01 -4.755437e+02
      vertex 2.329940e+02 3.933892e+01 -4.954102e+02
      vertex 2.337455e+02 3.923552e+01 -4.941131e+02
    endloop
  endfacet
  facet normal 8.659701e-01 3.973793e-02 -4.985144e-01
    outer loop
      vertex 2.337455e+02 4.203867e+01 -4.938896e+02
      vertex 2.337455e+02 3.923552e+01 -4.941131e+02
      vertex 2.329940e+02 3.933892e+01 -4.954102e+02
    endloop
  endfacet
  facet normal 9.464307e-09 7.946320e-02 -9.968378e-01
    outer loop
      vertex 2.352475e+02 4.203867e+01 -4.938896e+02
      vertex 2.337455e+02 3.923552e+01 -4.941131e+02
      vertex 2.337455e+02 4.203867e+01 -4.938896e+02
    endloop
  endfacet
  facet normal -5.388852e-17 -9.968379e-01 -7.946235e-02
    outer loop
      vertex 1.228861e+02 3.775528e+01 -4.755437e+02
      vertex 2.329940e+02 3.943408e+01 -4.966039e+02
      vertex 2.329940e+02 3.933892e+01 -4.954102e+02
    endloop
  endfacet
  facet normal 1.000000e+00 0.000000e+00 0.000000e+00
    outer loop
      vertex 2.329940e+02 4.224957e+01 -4.963795e+02
      vertex 2.329940e+02 3.933892e+01 -4.954102e+02
      vertex 2.329940e+02 3.943408e+01 -4.966039e+02
    endloop
  endfacet
  facet normal 1.000000e+00 0.000000e+00 0.000000e+00
    outer loop
      vertex 2.329940e+02 4.214850e+01 -4.951862e+02
      vertex 2.329940e+02 3.933892e+01 -4.954102e+02
      vertex 2.329940e+02 4.224957e+01 -4.963795e+02
    endloop
  endfacet
  facet normal 8.659693e-01 3.973889e-02 -4.985157e-01
    outer loop
      vertex 2.337455e+02 4.203867e+01 -4.938896e+02
      vertex 2.329940e+02 3.933892e+01 -4.954102e+02
      vertex 2.329940e+02 4.214850e+01 -4.951862e+02
    endloop
  endfacet
  facet normal 0.000000e+00 -9.968379e-01 -7.946235e-02
    outer loop
      vertex 2.244535e+02 3.941929e+01 -4.964184e+02
      vertex 2.248722e+02 3.943408e+01 -4.966039e+02
      vertex 2.329940e+02 3.943408e+01 -4.966039e+02
    endloop
  endfacet
  facet normal 0.000000e+00 7.946235e-02 -9.968379e-01
    outer loop
      vertex 2.329940e+02 4.224957e+01 -4.963795e+02
      vertex 2.329940e+02 3.943408e+01 -4.966039e+02
      vertex 2.248722e+02 3.943408e+01 -4.966039e+02
    endloop
  endfacet
  facet normal -9.329337e-16 -9.968379e-01 -7.946235e-02
    outer loop
      vertex 1.228861e+02 3.775528e+01 -4.755437e+02
      vertex 2.244535e+02 3.941929e+01 -4.964184e+02
      vertex 2.329940e+02 3.943408e+01 -4.966039e+02
    endloop
  endfacet
  facet normal -4.062280e-01 7.261045e-02 -9.108823e-01
    outer loop
      vertex 2.248722e+02 4.224957e+01 -4.963795e+02
      vertex 2.248722e+02 3.943408e+01 -4.966039e+02
      vertex 2.244535e+02 3.941929e+01 -4.964184e+02
    endloop
  endfacet
  facet normal 0.000000e+00 7.946235e-02 -9.968379e-01
    outer loop
      vertex 2.329940e+02 4.224957e+01 -4.963795e+02
      vertex 2.248722e+02 3.943408e+01 -4.966039e+02
      vertex 2.248722e+02 4.224957e+01 -4.963795e+02
    endloop
  endfacet
  facet normal 3.751134e-14 -9.968379e-01 -7.946235e-02
    outer loop
      vertex 1.228861e+02 3.775528e+01 -4.755437e+02
      vertex 2.239990e+02 3.941421e+01 -4.963547e+02
      vertex 2.244535e+02 3.941929e+01 -4.964184e+02
    endloop
  endfacet
  facet normal -1.391629e-01 7.868917e-02 -9.871381e-01
    outer loop
      vertex 2.244535e+02 4.223386e+01 -4.961940e+02
      vertex 2.244535e+02 3.941929e+01 -4.964184e+02
      vertex 2.239990e+02 3.941421e+01 -4.963547e+02
    endloop
  endfacet
  facet normal -4.062279e-01 7.261043e-02 -9.108823e-01
    outer loop
      vertex 2.248722e+02 4.224957e+01 -4.963795e+02
      vertex 2.244535e+02 3.941929e+01 -4.964184e+02
      vertex 2.244535e+02 4.223386e+01 -4.961940e+02
    endloop
  endfacet
  facet normal 0.000000e+00 -9.968379e-01 -7.946235e-02
    outer loop
      vertex 1.228861e+02 3.775528e+01 -4.755437e+02
      vertex 1.319990e+02 3.941421e+01 -4.963547e+02
      vertex 2.239990e+02 3.941421e+01 -4.963547e+02
    endloop
  endfacet
  facet normal 0.000000e+00 7.946235e-02 -9.968379e-01
    outer loop
      vertex 2.239990e+02 4.222847e+01 -4.961304e+02
      vertex 2.239990e+02 3.941421e+01 -4.963547e+02
      vertex 1.319990e+02 3.941421e+01 -4.963547e+02
    endloop
  endfacet
  facet normal -1.391627e-01 7.868914e-02 -9.871382e-01
    outer loop
      vertex 2.244535e+02 4.223386e+01 -4.961940e+02
      vertex 2.239990e+02 3.941421e+01 -4.963547e+02
      vertex 2.239990e+02 4.222847e+01 -4.961304e+02
    endloop
  endfacet
  facet normal -9.511099e-16 -9.968379e-01 -7.946235e-02
    outer loop
      vertex 1.228861e+02 3.775528e+01 -4.755437e+02
      vertex 1.305700e+02 3.947979e+01 -4.971773e+02
      vertex 1.319990e+02 3.941421e+01 -4.963547e+02
    endloop
  endfacet
  facet normal 5.000957e-01 6.881202e-02 -8.632318e-01
    outer loop
      vertex 1.319990e+02 4.222847e+01 -4.961304e+02
      vertex 1.319990e+02 3.941421e+01 -4.963547e+02
      vertex 1.305700e+02 3.947979e+01 -4.971773e+02
    endloop
  endfacet
  facet normal 0.000000e+00 7.946235e-02 -9.968379e-01
    outer loop
      vertex 2.239990e+02 4.222847e+01 -4.961304e+02
      vertex 1.319990e+02 3.941421e+01 -4.963547e+02
      vertex 1.319990e+02 4.222847e+01 -4.961304e+02
    endloop
  endfacet
  facet normal 2.802983e-15 -9.968379e-01 -7.946235e-02
    outer loop
      vertex 1.228861e+02 3.775528e+01 -4.755437e+02
      vertex 1.305700e+02 3.961086e+01 -4.988216e+02
      vertex 1.305700e+02 3.947979e+01 -4.971773e+02
    endloop
  endfacet
  facet normal 1.000000e+00 -9.320189e-07 -7.429535e-08
    outer loop
      vertex 1.305700e+02 4.229812e+01 -4.969527e+02
      vertex 1.305700e+02 3.947979e+01 -4.971773e+02
      vertex 1.305700e+02 3.961086e+01 -4.988216e+02
    endloop
  endfacet
  facet normal 5.000943e-01 6.881302e-02 -8.632326e-01
    outer loop
      vertex 1.319990e+02 4.222847e+01 -4.961304e+02
      vertex 1.305700e+02 3.947979e+01 -4.971773e+02
      vertex 1.305700e+02 4.229812e+01 -4.969527e+02
    endloop
  endfacet
  facet normal -1.199263e-15 -9.968379e-01 -7.946235e-02
    outer loop
      vertex 1.162114e+02 4.051691e+01 -5.101878e+02
      vertex 1.319990e+02 3.967644e+01 -4.996443e+02
      vertex 1.305700e+02 3.961086e+01 -4.988216e+02
    endloop
  endfacet
  facet normal 5.000957e-01 -6.881110e-02 8.632319e-01
    outer loop
      vertex 1.305700e+02 4.243734e+01 -4.985963e+02
      vertex 1.305700e+02 3.961086e+01 -4.988216e+02
      vertex 1.319990e+02 3.967644e+01 -4.996443e+02
    endloop
  endfacet
  facet normal -1.350649e-16 -9.968379e-01 -7.946235e-02
    outer loop
      vertex 1.179792e+02 3.807626e+01 -4.795704e+02
      vertex 1.162114e+02 4.051691e+01 -5.101878e+02
      vertex 1.305700e+02 3.961086e+01 -4.988216e+02
    endloop
  endfacet
  facet normal -1.168976e-15 -9.968379e-01 -7.946235e-02
    outer loop
      vertex 1.197083e+02 3.784585e+01 -4.766799e+02
      vertex 1.179792e+02 3.807626e+01 -4.795704e+02
      vertex 1.305700e+02 3.961086e+01 -4.988216e+02
    endloop
  endfacet
  facet normal 5.031511e-16 -9.968379e-01 -7.946235e-02
    outer loop
      vertex 1.228861e+02 3.775528e+01 -4.755437e+02
      vertex 1.197083e+02 3.784585e+01 -4.766799e+02
      vertex 1.305700e+02 3.961086e+01 -4.988216e+02
    endloop
  endfacet
  facet normal 1.000000e+00 -9.227276e-07 -8.765458e-08
    outer loop
      vertex 1.305700e+02 4.229812e+01 -4.969527e+02
      vertex 1.305700e+02 3.961086e+01 -4.988216e+02
      vertex 1.305700e+02 4.243734e+01 -4.985963e+02
    endloop
  endfacet
  facet normal 0.000000e+00 -9.968379e-01 -7.946235e-02
    outer loop
      vertex 1.162114e+02 4.051691e+01 -5.101878e+02
      vertex 2.487866e+02 4.051691e+01 -5.101878e+02
      vertex 1.319990e+02 3.967644e+01 -4.996443e+02
    endloop
  endfacet
  facet normal 5.000943e-01 -6.881209e-02 8.632326e-01
    outer loop
      vertex 1.305700e+02 4.243734e+01 -4.985963e+02
      vertex 1.319990e+02 3.967644e+01 -4.996443e+02
      vertex 1.319990e+02 4.250699e+01 -4.994186e+02
    endloop
  endfacet
  facet normal 1.754778e-16 -9.968379e-01 -7.946235e-02
    outer loop
      vertex 1.228861e+02 3.775528e+01 -4.755437e+02
      vertex 2.940825e+02 3.812731e+01 -4.802108e+02
      vertex 2.949990e+02 3.811286e+01 -4.800295e+02
    endloop
  endfacet
  facet normal 1.946646e-01 7.794223e-02 -9.777682e-01
    outer loop
      vertex 2.949990e+02 4.079435e+01 -4.798157e+02
      vertex 2.949990e+02 3.811286e+01 -4.800295e+02
      vertex 2.940825e+02 3.812731e+01 -4.802108e+02
    endloop
  endfacet
  facet normal -2.236348e-16 -9.968379e-01 -7.946235e-02
    outer loop
      vertex 1.228861e+02 3.775528e+01 -4.755437e+02
      vertex 2.933049e+02 3.816848e+01 -4.807273e+02
      vertex 2.940825e+02 3.812731e+01 -4.802108e+02
    endloop
  endfacet
  facet normal 5.544871e-01 6.612796e-02 -8.295608e-01
    outer loop
      vertex 2.940825e+02 4.080880e+01 -4.799970e+02
      vertex 2.940825e+02 3.812731e+01 -4.802108e+02
      vertex 2.933049e+02 3.816848e+01 -4.807273e+02
    endloop
  endfacet
  facet normal 1.946646e-01 7.794223e-02 -9.777682e-01
    outer loop
      vertex 2.949990e+02 4.079435e+01 -4.798157e+02
      vertex 2.940825e+02 3.812731e+01 -4.802108e+02
      vertex 2.940825e+02 4.080880e+01 -4.799970e+02
    endloop
  endfacet
  facet normal 0.000000e+00 -9.968379e-01 -7.946235e-02
    outer loop
      vertex 1.228861e+02 3.775528e+01 -4.755437e+02
      vertex 2.549990e+02 3.816848e+01 -4.807273e+02
      vertex 2.933049e+02 3.816848e+01 -4.807273e+02
    endloop
  endfacet
  facet normal 0.000000e+00 7.946235e-02 -9.968379e-01
    outer loop
      vertex 2.933049e+02 4.084997e+01 -4.805135e+02
      vertex 2.933049e+02 3.816848e+01 -4.807273e+02
      vertex 2.549990e+02 3.816848e+01 -4.807273e+02
    endloop
  endfacet
  facet normal 5.544871e-01 6.612796e-02 -8.295608e-01
    outer loop
      vertex 2.940825e+02 4.080880e+01 -4.799970e+02
      vertex 2.933049e+02 3.816848e+01 -4.807273e+02
      vertex 2.933049e+02 4.084997e+01 -4.805135e+02
    endloop
  endfacet
  facet normal 6.078940e-17 -9.968379e-01 -7.946235e-02
    outer loop
      vertex 1.228861e+02 3.775528e+01 -4.755437e+02
      vertex 2.514634e+02 3.828485e+01 -4.821871e+02
      vertex 2.549990e+02 3.816848e+01 -4.807273e+02
    endloop
  endfacet
  facet normal 3.826740e-01 7.341395e-02 -9.209620e-01
    outer loop
      vertex 2.549990e+02 4.084997e+01 -4.805135e+02
      vertex 2.549990e+02 3.816848e+01 -4.807273e+02
      vertex 2.514634e+02 3.828485e+01 -4.821871e+02
    endloop
  endfacet
  facet normal 0.000000e+00 7.946235e-02 -9.968379e-01
    outer loop
      vertex 2.549990e+02 4.084997e+01 -4.805135e+02
      vertex 2.933049e+02 4.084997e+01 -4.805135e+02
      vertex 2.549990e+02 3.816848e+01 -4.807273e+02
    endloop
  endfacet
  facet normal 3.251628e-17 -9.968379e-01 -7.946235e-02
    outer loop
      vertex 1.228861e+02 3.775528e+01 -4.755437e+02
      vertex 2.499990e+02 3.856579e+01 -4.857115e+02
      vertex 2.514634e+02 3.828485e+01 -4.821871e+02
    endloop
  endfacet
  facet normal 9.238834e-01 3.035653e-02 -3.814680e-01
    outer loop
      vertex 2.514635e+02 4.096635e+01 -4.819734e+02
      vertex 2.514634e+02 3.828485e+01 -4.821871e+02
      vertex 2.499990e+02 3.856579e+01 -4.857115e+02
    endloop
  endfacet
  facet normal 3.827076e-01 7.336120e-02 -9.209522e-01
    outer loop
      vertex 2.514635e+02 4.096635e+01 -4.819734e+02
      vertex 2.549990e+02 4.084997e+01 -4.805135e+02
      vertex 2.514634e+02 3.828485e+01 -4.821871e+02
    endloop
  endfacet
  facet normal 1.000000e+00 0.000000e+00 0.000000e+00
    outer loop
      vertex 2.499990e+02 3.995386e+01 -4.979719e+02
      vertex 2.499990e+02 3.856579e+01 -4.857115e+02
      vertex 2.499990e+02 4.031715e+01 -5.076819e+02
    endloop
  endfacet
  facet normal 1.000000e+00 0.000000e+00 0.000000e+00
    outer loop
      vertex 2.499990e+02 4.124729e+01 -4.854977e+02
      vertex 2.499990e+02 3.856579e+01 -4.857115e+02
      vertex 2.499990e+02 3.995386e+01 -4.979719e+02
    endloop
  endfacet
  facet normal 9.238695e-01 3.041085e-02 -3.814975e-01
    outer loop
      vertex 2.514635e+02 4.096635e+01 -4.819734e+02
      vertex 2.499990e+02 3.856579e+01 -4.857115e+02
      vertex 2.499990e+02 4.124729e+01 -4.854977e+02
    endloop
  endfacet
  facet normal 4.089636e-01 -8.233900e-01 -3.934180e-01
    outer loop
      vertex 2.499990e+02 4.094539e+01 -5.089967e+02
      vertex 2.499990e+02 4.031715e+01 -5.076819e+02
      vertex 2.491056e+02 4.040600e+01 -5.087965e+02
    endloop
  endfacet
  facet normal 1.000000e+00 0.000000e+00 0.000000e+00
    outer loop
      vertex 2.499990e+02 4.195918e+01 -4.978021e+02
      vertex 2.499990e+02 4.031715e+01 -5.076819e+02
      vertex 2.499990e+02 4.318982e+01 -5.074803e+02
    endloop
  endfacet
  facet normal 1.000000e+00 0.000000e+00 0.000000e+00
    outer loop
      vertex 2.499990e+02 4.094539e+01 -5.089967e+02
      vertex 2.499990e+02 4.318982e+01 -5.074803e+02
      vertex 2.499990e+02 4.031715e+01 -5.076819e+02
    endloop
  endfacet
  facet normal 1.000000e+00 0.000000e+00 0.000000e+00
    outer loop
      vertex 2.499990e+02 4.153150e+01 -4.987127e+02
      vertex 2.499990e+02 4.031715e+01 -5.076819e+02
      vertex 2.499990e+02 4.195918e+01 -4.978021e+02
    endloop
  endfacet
  facet normal 1.000000e+00 0.000000e+00 0.000000e+00
    outer loop
      vertex 2.499990e+02 4.052860e+01 -4.987976e+02
      vertex 2.499990e+02 3.995386e+01 -4.979719e+02
      vertex 2.499990e+02 4.031715e+01 -5.076819e+02
    endloop
  endfacet
  facet normal 1.000000e+00 0.000000e+00 0.000000e+00
    outer loop
      vertex 2.499990e+02 4.153150e+01 -4.987127e+02
      vertex 2.499990e+02 4.052860e+01 -4.987976e+02
      vertex 2.499990e+02 4.031715e+01 -5.076819e+02
    endloop
  endfacet
  facet normal 4.789728e-01 -8.595209e-01 -1.783506e-01
    outer loop
      vertex 2.499990e+02 4.094539e+01 -5.089967e+02
      vertex 2.491056e+02 4.040600e+01 -5.087965e+02
      vertex 2.487866e+02 4.051691e+01 -5.101878e+02
    endloop
  endfacet
  facet normal 0.000000e+00 7.946235e-02 -9.968379e-01
    outer loop
      vertex 2.494794e+02 4.091565e+01 -5.101560e+02
      vertex 2.487866e+02 4.051691e+01 -5.101878e+02
      vertex 1.162114e+02 4.051691e+01 -5.101878e+02
    endloop
  endfacet
  facet normal 4.955815e-01 -8.451174e-01 -2.004383e-01
    outer loop
      vertex 2.499990e+02 4.094539e+01 -5.089967e+02
      vertex 2.487866e+02 4.051691e+01 -5.101878e+02
      vertex 2.494794e+02 4.091565e+01 -5.101560e+02
    endloop
  endfacet
  facet normal 9.706106e-15 -9.968379e-01 -7.946235e-02
    outer loop
      vertex 1.158723e+02 3.919218e+01 -4.935694e+02
      vertex 1.158979e+02 4.040692e+01 -5.088080e+02
      vertex 1.162114e+02 4.051691e+01 -5.101878e+02
    endloop
  endfacet
  facet normal -4.968227e-01 -8.488572e-01 -1.805786e-01
    outer loop
      vertex 1.155186e+02 4.091565e+01 -5.101560e+02
      vertex 1.162114e+02 4.051691e+01 -5.101878e+02
      vertex 1.158979e+02 4.040692e+01 -5.088080e+02
    endloop
  endfacet
  facet normal -2.672038e-15 -9.968379e-01 -7.946235e-02
    outer loop
      vertex 1.179792e+02 3.807626e+01 -4.795704e+02
      vertex 1.158723e+02 3.919218e+01 -4.935694e+02
      vertex 1.162114e+02 4.051691e+01 -5.101878e+02
    endloop
  endfacet
  facet normal 0.000000e+00 7.946235e-02 -9.968379e-01
    outer loop
      vertex 2.494794e+02 4.091565e+01 -5.101560e+02
      vertex 1.162114e+02 4.051691e+01 -5.101878e+02
      vertex 1.155186e+02 4.091565e+01 -5.101560e+02
    endloop
  endfacet
  facet normal -5.299124e-15 -9.968379e-01 -7.946235e-02
    outer loop
      vertex 1.158723e+02 3.919218e+01 -4.935694e+02
      vertex 1.150189e+02 4.031842e+01 -5.076977e+02
      vertex 1.158979e+02 4.040692e+01 -5.088080e+02
    endloop
  endfacet
  facet normal -4.113886e-01 -8.231886e-01 -3.913054e-01
    outer loop
      vertex 1.150034e+02 4.094131e+01 -5.089918e+02
      vertex 1.158979e+02 4.040692e+01 -5.088080e+02
      vertex 1.150189e+02 4.031842e+01 -5.076977e+02
    endloop
  endfacet
  facet normal -4.968227e-01 -8.488572e-01 -1.805786e-01
    outer loop
      vertex 1.149990e+02 4.121470e+01 -5.101322e+02
      vertex 1.155186e+02 4.091565e+01 -5.101560e+02
      vertex 1.158979e+02 4.040692e+01 -5.088080e+02
    endloop
  endfacet
  facet normal -4.708591e-01 -8.583060e-01 -2.039670e-01
    outer loop
      vertex 1.149990e+02 4.121470e+01 -5.101322e+02
      vertex 1.158979e+02 4.040692e+01 -5.088080e+02
      vertex 1.150034e+02 4.094131e+01 -5.089918e+02
    endloop
  endfacet
  facet normal -9.981920e-01 -4.956895e-03 5.990204e-02
    outer loop
      vertex 1.158710e+02 4.199380e+01 -4.933598e+02
      vertex 1.150189e+02 4.031842e+01 -5.076977e+02
      vertex 1.158723e+02 3.919218e+01 -4.935694e+02
    endloop
  endfacet
  facet normal -9.981990e-01 -4.352923e-03 5.983188e-02
    outer loop
      vertex 1.150184e+02 4.319113e+01 -5.074958e+02
      vertex 1.150189e+02 4.031842e+01 -5.076977e+02
      vertex 1.158710e+02 4.199380e+01 -4.933598e+02
    endloop
  endfacet
  facet normal -9.999332e-01 -9.566537e-04 1.151583e-02
    outer loop
      vertex 1.150034e+02 4.094131e+01 -5.089918e+02
      vertex 1.150189e+02 4.031842e+01 -5.076977e+02
      vertex 1.150184e+02 4.319113e+01 -5.074958e+02
    endloop
  endfacet
  facet normal -9.889319e-01 -1.153742e-02 1.479212e-01
    outer loop
      vertex 1.158710e+02 4.199380e+01 -4.933598e+02
      vertex 1.158723e+02 3.919218e+01 -4.935694e+02
      vertex 1.179792e+02 3.807626e+01 -4.795704e+02
    endloop
  endfacet
  facet normal -8.547670e-01 -1.381486e-01 5.002882e-01
    outer loop
      vertex 1.180861e+02 3.939106e+01 -4.790247e+02
      vertex 1.179792e+02 3.807626e+01 -4.795704e+02
      vertex 1.197083e+02 3.784585e+01 -4.766799e+02
    endloop
  endfacet
  facet normal -9.889393e-01 -1.178592e-02 1.478517e-01
    outer loop
      vertex 1.158710e+02 4.199380e+01 -4.933598e+02
      vertex 1.179792e+02 3.807626e+01 -4.795704e+02
      vertex 1.179792e+02 4.080738e+01 -4.793527e+02
    endloop
  endfacet
  facet normal -9.716810e-01 -1.877669e-02 2.355494e-01
    outer loop
      vertex 1.180861e+02 3.939106e+01 -4.790247e+02
      vertex 1.179792e+02 4.080738e+01 -4.793527e+02
      vertex 1.179792e+02 3.807626e+01 -4.795704e+02
    endloop
  endfacet
  facet normal -3.371348e-01 -1.272787e-01 9.328131e-01
    outer loop
      vertex 1.198861e+02 3.918446e+01 -4.764330e+02
      vertex 1.197083e+02 3.784585e+01 -4.766799e+02
      vertex 1.228861e+02 3.775528e+01 -4.755437e+02
    endloop
  endfacet
  facet normal -8.211977e-01 3.837074e-03 5.706308e-01
    outer loop
      vertex 1.198861e+02 3.918446e+01 -4.764330e+02
      vertex 1.180861e+02 3.939106e+01 -4.790247e+02
      vertex 1.197083e+02 3.784585e+01 -4.766799e+02
    endloop
  endfacet
  facet normal -3.162278e-01 -7.538461e-02 9.456834e-01
    outer loop
      vertex 1.198861e+02 3.918446e+01 -4.764330e+02
      vertex 1.228861e+02 3.775528e+01 -4.755437e+02
      vertex 1.228861e+02 3.910499e+01 -4.754361e+02
    endloop
  endfacet
  facet normal 1.332087e-13 -9.968379e-01 -7.946235e-02
    outer loop
      vertex 1.155186e+02 4.091565e+01 -5.101560e+02
      vertex 1.180000e+02 4.336322e+01 -5.408603e+02
      vertex 1.180793e+02 4.337992e+01 -5.410698e+02
    endloop
  endfacet
  facet normal -9.356432e-01 2.775167e-02 -3.518547e-01
    outer loop
      vertex 1.180767e+02 4.456717e+01 -5.409693e+02
      vertex 1.180793e+02 4.337992e+01 -5.410698e+02
      vertex 1.180000e+02 4.336322e+01 -5.408603e+02
    endloop
  endfacet
  facet normal 0.000000e+00 -9.968379e-01 -7.946235e-02
    outer loop
      vertex 2.494794e+02 4.337992e+01 -5.410698e+02
      vertex 1.155186e+02 4.091565e+01 -5.101560e+02
      vertex 1.180793e+02 4.337992e+01 -5.410698e+02
    endloop
  endfacet
  facet normal 0.000000e+00 8.439894e-02 -9.964320e-01
    outer loop
      vertex 2.496526e+02 4.456717e+01 -5.409693e+02
      vertex 2.494794e+02 4.337992e+01 -5.410698e+02
      vertex 1.180793e+02 4.337992e+01 -5.410698e+02
    endloop
  endfacet
  facet normal 0.000000e+00 8.439894e-02 -9.964320e-01
    outer loop
      vertex 1.180767e+02 4.456717e+01 -5.409693e+02
      vertex 2.496526e+02 4.456717e+01 -5.409693e+02
      vertex 1.180793e+02 4.337992e+01 -5.410698e+02
    endloop
  endfacet
  facet normal -1.714464e-13 -9.968379e-01 -7.946235e-02
    outer loop
      vertex 1.155186e+02 4.091565e+01 -5.101560e+02
      vertex 1.179448e+02 4.334592e+01 -5.406433e+02
      vertex 1.180000e+02 4.336322e+01 -5.408603e+02
    endloop
  endfacet
  facet normal -9.691152e-01 3.969571e-02 -2.433925e-01
    outer loop
      vertex 1.180767e+02 4.456717e+01 -5.409693e+02
      vertex 1.180000e+02 4.336322e+01 -5.408603e+02
      vertex 1.179448e+02 4.334592e+01 -5.406433e+02
    endloop
  endfacet
  facet normal -3.052003e-15 -9.968379e-01 -7.946235e-02
    outer loop
      vertex 1.155186e+02 4.091565e+01 -5.101560e+02
      vertex 1.164851e+02 4.264632e+01 -5.318669e+02
      vertex 1.179448e+02 4.334592e+01 -5.406433e+02
    endloop
  endfacet
  facet normal -9.865339e-01 1.299660e-02 -1.630395e-01
    outer loop
      vertex 1.179448e+02 4.558223e+01 -5.404650e+02
      vertex 1.179448e+02 4.334592e+01 -5.406433e+02
      vertex 1.164851e+02 4.264632e+01 -5.318669e+02
    endloop
  endfacet
  facet normal -9.544654e-01 2.370534e-02 -2.973783e-01
    outer loop
      vertex 1.179448e+02 4.558223e+01 -5.404650e+02
      vertex 1.180767e+02 4.456717e+01 -5.409693e+02
      vertex 1.179448e+02 4.334592e+01 -5.406433e+02
    endloop
  endfacet
  facet normal 6.265141e-15 -9.968379e-01 -7.946235e-02
    outer loop
      vertex 1.155186e+02 4.091565e+01 -5.101560e+02
      vertex 1.155186e+02 4.194130e+01 -5.230226e+02
      vertex 1.164851e+02 4.264632e+01 -5.318669e+02
    endloop
  endfacet
  facet normal -9.939972e-01 -6.985048e-03 -1.091827e-01
    outer loop
      vertex 1.156417e+02 4.421208e+01 -5.242887e+02
      vertex 1.164851e+02 4.264632e+01 -5.318669e+02
      vertex 1.155186e+02 4.194130e+01 -5.230226e+02
    endloop
  endfacet
  facet normal -9.933362e-01 1.679599e-02 -1.140226e-01
    outer loop
      vertex 1.165851e+02 4.489961e+01 -5.324059e+02
      vertex 1.164851e+02 4.264632e+01 -5.318669e+02
      vertex 1.156417e+02 4.421208e+01 -5.242887e+02
    endloop
  endfacet
  facet normal -9.861129e-01 4.037107e-03 -1.660273e-01
    outer loop
      vertex 1.179448e+02 4.558223e+01 -5.404650e+02
      vertex 1.164851e+02 4.264632e+01 -5.318669e+02
      vertex 1.165851e+02 4.489961e+01 -5.324059e+02
    endloop
  endfacet
  facet normal -5.000000e-01 -8.632869e-01 -6.881641e-02
    outer loop
      vertex 1.151284e+02 4.165329e+01 -5.165745e+02
      vertex 1.155186e+02 4.194130e+01 -5.230226e+02
      vertex 1.155186e+02 4.091565e+01 -5.101560e+02
    endloop
  endfacet
  facet normal -9.976947e-01 1.753925e-02 -6.555726e-02
    outer loop
      vertex 1.151602e+02 4.336696e+01 -5.171859e+02
      vertex 1.156417e+02 4.421208e+01 -5.242887e+02
      vertex 1.155186e+02 4.194130e+01 -5.230226e+02
    endloop
  endfacet
  facet normal -9.981608e-01 -3.107307e-03 -6.054277e-02
    outer loop
      vertex 1.151284e+02 4.165329e+01 -5.165745e+02
      vertex 1.151602e+02 4.336696e+01 -5.171859e+02
      vertex 1.155186e+02 4.194130e+01 -5.230226e+02
    endloop
  endfacet
  facet normal 0.000000e+00 -9.968379e-01 -7.946235e-02
    outer loop
      vertex 2.494794e+02 4.337992e+01 -5.410698e+02
      vertex 2.494794e+02 4.091565e+01 -5.101560e+02
      vertex 1.155186e+02 4.091565e+01 -5.101560e+02
    endloop
  endfacet
  facet normal -5.000000e-01 -8.632869e-01 -6.881641e-02
    outer loop
      vertex 1.151284e+02 4.165329e+01 -5.165745e+02
      vertex 1.155186e+02 4.091565e+01 -5.101560e+02
      vertex 1.149990e+02 4.121470e+01 -5.101322e+02
    endloop
  endfacet
  facet normal 5.000000e-01 -8.632869e-01 -6.881641e-02
    outer loop
      vertex 2.499990e+02 4.121470e+01 -5.101322e+02
      vertex 2.494794e+02 4.091565e+01 -5.101560e+02
      vertex 2.494794e+02 4.337992e+01 -5.410698e+02
    endloop
  endfacet
  facet normal 4.955815e-01 -8.451174e-01 -2.004383e-01
    outer loop
      vertex 2.499990e+02 4.094539e+01 -5.089967e+02
      vertex 2.494794e+02 4.091565e+01 -5.101560e+02
      vertex 2.499990e+02 4.121470e+01 -5.101322e+02
    endloop
  endfacet
  facet normal 5.329355e-14 8.439894e-02 -9.964320e-01
    outer loop
      vertex 2.499990e+02 4.476645e+01 -5.409524e+02
      vertex 2.499990e+02 4.367885e+01 -5.410445e+02
      vertex 2.494794e+02 4.337992e+01 -5.410698e+02
    endloop
  endfacet
  facet normal 5.000000e-01 -8.632869e-01 -6.881641e-02
    outer loop
      vertex 2.499990e+02 4.121470e+01 -5.101322e+02
      vertex 2.494794e+02 4.337992e+01 -5.410698e+02
      vertex 2.499990e+02 4.367885e+01 -5.410445e+02
    endloop
  endfacet
  facet normal -1.418679e-13 8.439894e-02 -9.964320e-01
    outer loop
      vertex 2.496526e+02 4.456717e+01 -5.409693e+02
      vertex 2.499990e+02 4.476645e+01 -5.409524e+02
      vertex 2.494794e+02 4.337992e+01 -5.410698e+02
    endloop
  endfacet
  facet normal 1.000000e+00 0.000000e+00 0.000000e+00
    outer loop
      vertex 2.499990e+02 4.270190e+01 -5.100136e+02
      vertex 2.499990e+02 4.367885e+01 -5.410445e+02
      vertex 2.499990e+02 4.476645e+01 -5.409524e+02
    endloop
  endfacet
  facet normal 1.000000e+00 0.000000e+00 0.000000e+00
    outer loop
      vertex 2.499990e+02 4.121470e+01 -5.101322e+02
      vertex 2.499990e+02 4.367885e+01 -5.410445e+02
      vertex 2.499990e+02 4.270190e+01 -5.100136e+02
    endloop
  endfacet
  facet normal 5.000000e-01 -8.629355e-01 -7.309162e-02
    outer loop
      vertex 2.496526e+02 4.466607e+01 -5.421369e+02
      vertex 2.499990e+02 4.476645e+01 -5.409524e+02
      vertex 2.496526e+02 4.456717e+01 -5.409693e+02
    endloop
  endfacet
  facet normal 5.000000e-01 -8.629355e-01 -7.309162e-02
    outer loop
      vertex 2.499990e+02 4.482528e+01 -5.416469e+02
      vertex 2.499990e+02 4.476645e+01 -5.409524e+02
      vertex 2.496526e+02 4.466607e+01 -5.421369e+02
    endloop
  endfacet
  facet normal 1.000000e+00 0.000000e+00 0.000000e+00
    outer loop
      vertex 2.499990e+02 4.482528e+01 -5.416469e+02
      vertex 2.499990e+02 4.270190e+01 -5.100136e+02
      vertex 2.499990e+02 4.476645e+01 -5.409524e+02
    endloop
  endfacet
  facet normal 0.000000e+00 -9.964320e-01 -8.439894e-02
    outer loop
      vertex 2.496526e+02 4.466607e+01 -5.421369e+02
      vertex 2.496526e+02 4.456717e+01 -5.409693e+02
      vertex 1.180767e+02 4.456717e+01 -5.409693e+02
    endloop
  endfacet
  facet normal 8.317344e-16 -9.964320e-01 -8.439894e-02
    outer loop
      vertex 2.495767e+02 4.466760e+01 -5.421550e+02
      vertex 2.496526e+02 4.466607e+01 -5.421369e+02
      vertex 1.180767e+02 4.456717e+01 -5.409693e+02
    endloop
  endfacet
  facet normal -7.228410e-15 -9.964320e-01 -8.439894e-02
    outer loop
      vertex 2.494990e+02 4.466811e+01 -5.421610e+02
      vertex 2.495767e+02 4.466760e+01 -5.421550e+02
      vertex 1.180767e+02 4.456717e+01 -5.409693e+02
    endloop
  endfacet
  facet normal 0.000000e+00 -9.964320e-01 -8.439894e-02
    outer loop
      vertex 1.199080e+02 4.466811e+01 -5.421610e+02
      vertex 2.494990e+02 4.466811e+01 -5.421610e+02
      vertex 1.180767e+02 4.456717e+01 -5.409693e+02
    endloop
  endfacet
  facet normal 7.831107e-15 -9.964320e-01 -8.439894e-02
    outer loop
      vertex 1.188143e+02 4.464064e+01 -5.418367e+02
      vertex 1.199080e+02 4.466811e+01 -5.421610e+02
      vertex 1.180767e+02 4.456717e+01 -5.409693e+02
    endloop
  endfacet
  facet normal -7.619174e-01 3.022202e-03 -6.476671e-01
    outer loop
      vertex 1.186361e+02 4.568024e+01 -5.416221e+02
      vertex 1.188143e+02 4.464064e+01 -5.418367e+02
      vertex 1.180767e+02 4.456717e+01 -5.409693e+02
    endloop
  endfacet
  facet normal -8.554388e-01 1.369535e-01 -4.994679e-01
    outer loop
      vertex 1.186361e+02 4.568024e+01 -5.416221e+02
      vertex 1.180767e+02 4.456717e+01 -5.409693e+02
      vertex 1.179448e+02 4.558223e+01 -5.404650e+02
    endloop
  endfacet
  facet normal 2.320201e-01 8.644086e-02 -9.688626e-01
    outer loop
      vertex 2.497027e+02 4.542781e+01 -5.420570e+02
      vertex 2.496526e+02 4.466607e+01 -5.421369e+02
      vertex 2.495767e+02 4.466760e+01 -5.421550e+02
    endloop
  endfacet
  facet normal 5.000000e-01 -8.629355e-01 -7.309162e-02
    outer loop
      vertex 2.499089e+02 4.479758e+01 -5.419364e+02
      vertex 2.499990e+02 4.482528e+01 -5.416469e+02
      vertex 2.496526e+02 4.466607e+01 -5.421369e+02
    endloop
  endfacet
  facet normal 5.739616e-01 4.804570e-02 -8.174715e-01
    outer loop
      vertex 2.498643e+02 4.532569e+01 -5.419496e+02
      vertex 2.496526e+02 4.466607e+01 -5.421369e+02
      vertex 2.497027e+02 4.542781e+01 -5.420570e+02
    endloop
  endfacet
  facet normal 6.059178e-01 3.138151e-02 -7.949080e-01
    outer loop
      vertex 2.499089e+02 4.479758e+01 -5.419364e+02
      vertex 2.496526e+02 4.466607e+01 -5.421369e+02
      vertex 2.498643e+02 4.532569e+01 -5.419496e+02
    endloop
  endfacet
  facet normal 7.795931e-02 1.147384e-01 -9.903320e-01
    outer loop
      vertex 2.497027e+02 4.542781e+01 -5.420570e+02
      vertex 2.495767e+02 4.466760e+01 -5.421550e+02
      vertex 2.494990e+02 4.466811e+01 -5.421610e+02
    endloop
  endfacet
  facet normal 0.000000e+00 7.946235e-02 -9.968379e-01
    outer loop
      vertex 2.494990e+02 4.554850e+01 -5.420909e+02
      vertex 2.494990e+02 4.466811e+01 -5.421610e+02
      vertex 1.199080e+02 4.466811e+01 -5.421610e+02
    endloop
  endfacet
  facet normal 2.081702e-01 7.772154e-02 -9.749998e-01
    outer loop
      vertex 2.497027e+02 4.542781e+01 -5.420570e+02
      vertex 2.494990e+02 4.466811e+01 -5.421610e+02
      vertex 2.494990e+02 4.554850e+01 -5.420909e+02
    endloop
  endfacet
  facet normal -2.852605e-01 7.616069e-02 -9.554193e-01
    outer loop
      vertex 1.199080e+02 4.571879e+01 -5.420773e+02
      vertex 1.199080e+02 4.466811e+01 -5.421610e+02
      vertex 1.188143e+02 4.464064e+01 -5.418367e+02
    endloop
  endfacet
  facet normal 0.000000e+00 7.946235e-02 -9.968379e-01
    outer loop
      vertex 2.492031e+02 4.571879e+01 -5.420773e+02
      vertex 1.199080e+02 4.466811e+01 -5.421610e+02
      vertex 1.199080e+02 4.571879e+01 -5.420773e+02
    endloop
  endfacet
  facet normal 2.333349e-15 7.946235e-02 -9.968379e-01
    outer loop
      vertex 2.492031e+02 4.571879e+01 -5.420773e+02
      vertex 2.494990e+02 4.554850e+01 -5.420909e+02
      vertex 1.199080e+02 4.466811e+01 -5.421610e+02
    endloop
  endfacet
  facet normal -3.374702e-01 1.344150e-01 -9.316901e-01
    outer loop
      vertex 1.186361e+02 4.568024e+01 -5.416221e+02
      vertex 1.199080e+02 4.571879e+01 -5.420773e+02
      vertex 1.188143e+02 4.464064e+01 -5.418367e+02
    endloop
  endfacet
  facet normal 0.000000e+00 9.964320e-01 8.439894e-02
    outer loop
      vertex 2.494794e+02 4.300104e+01 -5.099909e+02
      vertex 2.492031e+02 4.571879e+01 -5.420773e+02
      vertex 1.199080e+02 4.571879e+01 -5.420773e+02
    endloop
  endfacet
  facet normal -7.516821e-16 9.964320e-01 8.439894e-02
    outer loop
      vertex 1.186361e+02 4.568024e+01 -5.416221e+02
      vertex 2.494794e+02 4.300104e+01 -5.099909e+02
      vertex 1.199080e+02 4.571879e+01 -5.420773e+02
    endloop
  endfacet
  facet normal 5.000000e-01 8.632869e-01 6.881641e-02
    outer loop
      vertex 2.494794e+02 4.300104e+01 -5.099909e+02
      vertex 2.494990e+02 4.554850e+01 -5.420909e+02
      vertex 2.492031e+02 4.571879e+01 -5.420773e+02
    endloop
  endfacet
  facet normal 5.000000e-01 8.632869e-01 6.881641e-02
    outer loop
      vertex 2.497027e+02 4.542781e+01 -5.420570e+02
      vertex 2.494990e+02 4.554850e+01 -5.420909e+02
      vertex 2.494794e+02 4.300104e+01 -5.099909e+02
    endloop
  endfacet
  facet normal 0.000000e+00 9.964320e-01 8.439894e-02
    outer loop
      vertex 1.156417e+02 4.421208e+01 -5.242887e+02
      vertex 1.155186e+02 4.300104e+01 -5.099909e+02
      vertex 2.494794e+02 4.300104e+01 -5.099909e+02
    endloop
  endfacet
  facet normal 0.000000e+00 8.439894e-02 -9.964320e-01
    outer loop
      vertex 2.487866e+02 4.339961e+01 -5.099571e+02
      vertex 2.494794e+02 4.300104e+01 -5.099909e+02
      vertex 1.155186e+02 4.300104e+01 -5.099909e+02
    endloop
  endfacet
  facet normal 1.287433e-16 9.964320e-01 8.439894e-02
    outer loop
      vertex 1.165851e+02 4.489961e+01 -5.324059e+02
      vertex 1.156417e+02 4.421208e+01 -5.242887e+02
      vertex 2.494794e+02 4.300104e+01 -5.099909e+02
    endloop
  endfacet
  facet normal -4.499388e-17 9.964320e-01 8.439894e-02
    outer loop
      vertex 1.179448e+02 4.558223e+01 -5.404650e+02
      vertex 1.165851e+02 4.489961e+01 -5.324059e+02
      vertex 2.494794e+02 4.300104e+01 -5.099909e+02
    endloop
  endfacet
  facet normal 4.469343e-16 9.964320e-01 8.439894e-02
    outer loop
      vertex 1.186361e+02 4.568024e+01 -5.416221e+02
      vertex 1.179448e+02 4.558223e+01 -5.404650e+02
      vertex 2.494794e+02 4.300104e+01 -5.099909e+02
    endloop
  endfacet
  facet normal 5.000000e-01 8.632883e-01 6.879916e-02
    outer loop
      vertex 2.499990e+02 4.270190e+01 -5.100136e+02
      vertex 2.494794e+02 4.300104e+01 -5.099909e+02
      vertex 2.487866e+02 4.339961e+01 -5.099571e+02
    endloop
  endfacet
  facet normal 5.000000e-01 8.632869e-01 6.881641e-02
    outer loop
      vertex 2.499990e+02 4.522101e+01 -5.416154e+02
      vertex 2.494794e+02 4.300104e+01 -5.099909e+02
      vertex 2.499990e+02 4.270190e+01 -5.100136e+02
    endloop
  endfacet
  facet normal 5.000000e-01 8.632869e-01 6.881641e-02
    outer loop
      vertex 2.498643e+02 4.532569e+01 -5.419496e+02
      vertex 2.494794e+02 4.300104e+01 -5.099909e+02
      vertex 2.499990e+02 4.522101e+01 -5.416154e+02
    endloop
  endfacet
  facet normal 5.000000e-01 8.632869e-01 6.881641e-02
    outer loop
      vertex 2.498643e+02 4.532569e+01 -5.419496e+02
      vertex 2.497027e+02 4.542781e+01 -5.420570e+02
      vertex 2.494794e+02 4.300104e+01 -5.099909e+02
    endloop
  endfacet
  facet normal -5.000000e-01 8.632869e-01 6.881641e-02
    outer loop
      vertex 1.149979e+02 4.270129e+01 -5.100137e+02
      vertex 1.155186e+02 4.300104e+01 -5.099909e+02
      vertex 1.156417e+02 4.421208e+01 -5.242887e+02
    endloop
  endfacet
  facet normal 0.000000e+00 8.439894e-02 -9.964320e-01
    outer loop
      vertex 2.487866e+02 4.339961e+01 -5.099571e+02
      vertex 1.155186e+02 4.300104e+01 -5.099909e+02
      vertex 1.162114e+02 4.339961e+01 -5.099571e+02
    endloop
  endfacet
  facet normal -5.000000e-01 8.632883e-01 6.879915e-02
    outer loop
      vertex 1.149979e+02 4.270129e+01 -5.100137e+02
      vertex 1.162114e+02 4.339961e+01 -5.099571e+02
      vertex 1.155186e+02 4.300104e+01 -5.099909e+02
    endloop
  endfacet
  facet normal -5.000000e-01 8.632869e-01 6.881641e-02
    outer loop
      vertex 1.149979e+02 4.270129e+01 -5.100137e+02
      vertex 1.156417e+02 4.421208e+01 -5.242887e+02
      vertex 1.151602e+02 4.336696e+01 -5.171859e+02
    endloop
  endfacet
  facet normal 0.000000e+00 9.964320e-01 8.439894e-02
    outer loop
      vertex 2.352475e+02 4.269678e+01 -5.016594e+02
      vertex 2.487866e+02 4.339961e+01 -5.099571e+02
      vertex 1.162114e+02 4.339961e+01 -5.099571e+02
    endloop
  endfacet
  facet normal 0.000000e+00 9.964320e-01 8.439894e-02
    outer loop
      vertex 1.319990e+02 4.250699e+01 -4.994186e+02
      vertex 2.239990e+02 4.250699e+01 -4.994186e+02
      vertex 1.162114e+02 4.339961e+01 -5.099571e+02
    endloop
  endfacet
  facet normal 6.675714e-17 9.964320e-01 8.439894e-02
    outer loop
      vertex 2.329940e+02 4.248589e+01 -4.991695e+02
      vertex 1.162114e+02 4.339961e+01 -5.099571e+02
      vertex 2.239990e+02 4.250699e+01 -4.994186e+02
    endloop
  endfacet
  facet normal -1.025722e-15 9.964320e-01 8.439894e-02
    outer loop
      vertex 1.305700e+02 4.243734e+01 -4.985963e+02
      vertex 1.319990e+02 4.250699e+01 -4.994186e+02
      vertex 1.162114e+02 4.339961e+01 -5.099571e+02
    endloop
  endfacet
  facet normal 3.337436e-15 9.964320e-01 8.439894e-02
    outer loop
      vertex 1.305700e+02 4.229812e+01 -4.969527e+02
      vertex 1.305700e+02 4.243734e+01 -4.985963e+02
      vertex 1.162114e+02 4.339961e+01 -5.099571e+02
    endloop
  endfacet
  facet normal -6.721409e-17 9.964320e-01 8.439894e-02
    outer loop
      vertex 1.180861e+02 4.077029e+01 -4.789148e+02
      vertex 1.305700e+02 4.229812e+01 -4.969527e+02
      vertex 1.162114e+02 4.339961e+01 -5.099571e+02
    endloop
  endfacet
  facet normal 2.212923e-15 9.964320e-01 8.439894e-02
    outer loop
      vertex 2.337455e+02 4.269678e+01 -5.016594e+02
      vertex 2.352475e+02 4.269678e+01 -5.016594e+02
      vertex 1.162114e+02 4.339961e+01 -5.099571e+02
    endloop
  endfacet
  facet normal 1.743431e-16 9.964320e-01 8.439894e-02
    outer loop
      vertex 2.329940e+02 4.258696e+01 -5.003628e+02
      vertex 2.337455e+02 4.269678e+01 -5.016594e+02
      vertex 1.162114e+02 4.339961e+01 -5.099571e+02
    endloop
  endfacet
  facet normal -9.844033e-17 9.964320e-01 8.439894e-02
    outer loop
      vertex 2.329940e+02 4.248589e+01 -4.991695e+02
      vertex 2.329940e+02 4.258696e+01 -5.003628e+02
      vertex 1.162114e+02 4.339961e+01 -5.099571e+02
    endloop
  endfacet
  facet normal 1.622190e-13 9.964320e-01 8.439894e-02
    outer loop
      vertex 1.180277e+02 4.078873e+01 -4.791325e+02
      vertex 1.180861e+02 4.077029e+01 -4.789148e+02
      vertex 1.162114e+02 4.339961e+01 -5.099571e+02
    endloop
  endfacet
  facet normal -7.381894e-15 9.964320e-01 8.439894e-02
    outer loop
      vertex 1.179792e+02 4.080738e+01 -4.793527e+02
      vertex 1.180277e+02 4.078873e+01 -4.791325e+02
      vertex 1.162114e+02 4.339961e+01 -5.099571e+02
    endloop
  endfacet
  facet normal -4.461791e-15 9.964320e-01 8.439894e-02
    outer loop
      vertex 1.158916e+02 4.328407e+01 -5.085930e+02
      vertex 1.179792e+02 4.080738e+01 -4.793527e+02
      vertex 1.162114e+02 4.339961e+01 -5.099571e+02
    endloop
  endfacet
  facet normal -4.781222e-01 8.774811e-01 -3.776257e-02
    outer loop
      vertex 1.150033e+02 4.278868e+01 -5.088564e+02
      vertex 1.158916e+02 4.328407e+01 -5.085930e+02
      vertex 1.162114e+02 4.339961e+01 -5.099571e+02
    endloop
  endfacet
  facet normal -4.955688e-01 8.662711e-01 -6.313340e-02
    outer loop
      vertex 1.150033e+02 4.278868e+01 -5.088564e+02
      vertex 1.162114e+02 4.339961e+01 -5.099571e+02
      vertex 1.149979e+02 4.270129e+01 -5.100137e+02
    endloop
  endfacet
  facet normal -2.501702e-15 9.964320e-01 8.439894e-02
    outer loop
      vertex 2.352475e+02 4.269678e+01 -5.016594e+02
      vertex 2.359990e+02 4.258696e+01 -5.003628e+02
      vertex 2.487866e+02 4.339961e+01 -5.099571e+02
    endloop
  endfacet
  facet normal -1.039688e-16 9.964320e-01 8.439894e-02
    outer loop
      vertex 2.499990e+02 4.077029e+01 -4.789148e+02
      vertex 2.487866e+02 4.339961e+01 -5.099571e+02
      vertex 2.359990e+02 4.258696e+01 -5.003628e+02
    endloop
  endfacet
  facet normal 1.848397e-14 9.964320e-01 8.439894e-02
    outer loop
      vertex 2.499990e+02 4.077029e+01 -4.789148e+02
      vertex 2.491117e+02 4.328313e+01 -5.085820e+02
      vertex 2.487866e+02 4.339961e+01 -5.099571e+02
    endloop
  endfacet
  facet normal 4.967488e-01 8.667760e-01 -4.404446e-02
    outer loop
      vertex 2.499990e+02 4.270190e+01 -5.100136e+02
      vertex 2.487866e+02 4.339961e+01 -5.099571e+02
      vertex 2.491117e+02 4.328313e+01 -5.085820e+02
    endloop
  endfacet
  facet normal 1.250384e-15 9.964320e-01 8.439894e-02
    outer loop
      vertex 2.244535e+02 4.250160e+01 -4.993550e+02
      vertex 2.329940e+02 4.248589e+01 -4.991695e+02
      vertex 2.239990e+02 4.250699e+01 -4.994186e+02
    endloop
  endfacet
  facet normal -1.178657e-15 9.964320e-01 8.439894e-02
    outer loop
      vertex 1.180861e+02 4.077029e+01 -4.789148e+02
      vertex 1.319990e+02 4.222847e+01 -4.961304e+02
      vertex 1.305700e+02 4.229812e+01 -4.969527e+02
    endloop
  endfacet
  facet normal 0.000000e+00 9.964320e-01 8.439894e-02
    outer loop
      vertex 2.499990e+02 4.077029e+01 -4.789148e+02
      vertex 2.239990e+02 4.222847e+01 -4.961304e+02
      vertex 1.319990e+02 4.222847e+01 -4.961304e+02
    endloop
  endfacet
  facet normal 0.000000e+00 9.964320e-01 8.439894e-02
    outer loop
      vertex 2.499990e+02 4.077029e+01 -4.789148e+02
      vertex 1.319990e+02 4.222847e+01 -4.961304e+02
      vertex 1.180861e+02 4.077029e+01 -4.789148e+02
    endloop
  endfacet
  facet normal 9.708754e-15 9.964320e-01 8.439894e-02
    outer loop
      vertex 2.499990e+02 4.077029e+01 -4.789148e+02
      vertex 2.244535e+02 4.223386e+01 -4.961940e+02
      vertex 2.239990e+02 4.222847e+01 -4.961304e+02
    endloop
  endfacet
  facet normal -1.478481e-15 9.964320e-01 8.439894e-02
    outer loop
      vertex 2.499990e+02 4.077029e+01 -4.789148e+02
      vertex 2.248722e+02 4.224957e+01 -4.963795e+02
      vertex 2.244535e+02 4.223386e+01 -4.961940e+02
    endloop
  endfacet
  facet normal 0.000000e+00 9.964320e-01 8.439894e-02
    outer loop
      vertex 2.329940e+02 4.214850e+01 -4.951862e+02
      vertex 2.329940e+02 4.224957e+01 -4.963795e+02
      vertex 2.248722e+02 4.224957e+01 -4.963795e+02
    endloop
  endfacet
  facet normal 9.645419e-16 9.964320e-01 8.439894e-02
    outer loop
      vertex 2.337455e+02 4.203867e+01 -4.938896e+02
      vertex 2.329940e+02 4.214850e+01 -4.951862e+02
      vertex 2.248722e+02 4.224957e+01 -4.963795e+02
    endloop
  endfacet
  facet normal -8.044991e-16 9.964320e-01 8.439894e-02
    outer loop
      vertex 2.499990e+02 4.077029e+01 -4.789148e+02
      vertex 2.337455e+02 4.203867e+01 -4.938896e+02
      vertex 2.248722e+02 4.224957e+01 -4.963795e+02
    endloop
  endfacet
  facet normal -9.443029e-16 9.964320e-01 8.439894e-02
    outer loop
      vertex 2.499990e+02 4.077029e+01 -4.789148e+02
      vertex 2.352475e+02 4.203867e+01 -4.938896e+02
      vertex 2.337455e+02 4.203867e+01 -4.938896e+02
    endloop
  endfacet
  facet normal 3.845303e-15 9.964320e-01 8.439894e-02
    outer loop
      vertex 2.499990e+02 4.077029e+01 -4.789148e+02
      vertex 2.359990e+02 4.214850e+01 -4.951862e+02
      vertex 2.352475e+02 4.203867e+01 -4.938896e+02
    endloop
  endfacet
  facet normal -4.884738e-16 9.964320e-01 8.439894e-02
    outer loop
      vertex 2.499990e+02 4.077029e+01 -4.789148e+02
      vertex 2.359990e+02 4.258696e+01 -5.003628e+02
      vertex 2.359990e+02 4.214850e+01 -4.951862e+02
    endloop
  endfacet
  facet normal -1.000000e+00 0.000000e+00 0.000000e+00
    outer loop
      vertex 2.359990e+02 4.195918e+01 -4.978021e+02
      vertex 2.359990e+02 4.214850e+01 -4.951862e+02
      vertex 2.359990e+02 4.258696e+01 -5.003628e+02
    endloop
  endfacet
  facet normal -1.000000e+00 0.000000e+00 0.000000e+00
    outer loop
      vertex 2.359990e+02 4.138443e+01 -4.969763e+02
      vertex 2.359990e+02 4.214850e+01 -4.951862e+02
      vertex 2.359990e+02 4.195918e+01 -4.978021e+02
    endloop
  endfacet
  facet normal -1.000000e+00 0.000000e+00 0.000000e+00
    outer loop
      vertex 2.359990e+02 4.153150e+01 -4.987127e+02
      vertex 2.359990e+02 4.195918e+01 -4.978021e+02
      vertex 2.359990e+02 4.258696e+01 -5.003628e+02
    endloop
  endfacet
  facet normal -1.000000e+00 0.000000e+00 0.000000e+00
    outer loop
      vertex 2.359990e+02 4.153150e+01 -4.987127e+02
      vertex 2.359990e+02 4.258696e+01 -5.003628e+02
      vertex 2.359990e+02 4.052860e+01 -4.987976e+02
    endloop
  endfacet
  facet normal 0.000000e+00 9.964320e-01 8.439894e-02
    outer loop
      vertex 2.244535e+02 4.250160e+01 -4.993550e+02
      vertex 2.248722e+02 4.248589e+01 -4.991695e+02
      vertex 2.329940e+02 4.248589e+01 -4.991695e+02
    endloop
  endfacet
  facet normal -9.660878e-01 -2.051829e-02 2.573975e-01
    outer loop
      vertex 1.180861e+02 3.939106e+01 -4.790247e+02
      vertex 1.180861e+02 4.077029e+01 -4.789148e+02
      vertex 1.180277e+02 4.078873e+01 -4.791325e+02
    endloop
  endfacet
  facet normal 0.000000e+00 -7.946235e-02 9.968379e-01
    outer loop
      vertex 2.499990e+02 4.072283e+01 -4.789186e+02
      vertex 2.499990e+02 4.077029e+01 -4.789148e+02
      vertex 1.180861e+02 4.077029e+01 -4.789148e+02
    endloop
  endfacet
  facet normal -9.767580e-01 -2.439196e-02 2.129527e-01
    outer loop
      vertex 1.180861e+02 3.939106e+01 -4.790247e+02
      vertex 1.180277e+02 4.078873e+01 -4.791325e+02
      vertex 1.179792e+02 4.080738e+01 -4.793527e+02
    endloop
  endfacet
  facet normal 8.739382e-16 9.964320e-01 8.439894e-02
    outer loop
      vertex 1.158916e+02 4.328407e+01 -5.085930e+02
      vertex 1.158710e+02 4.199380e+01 -4.933598e+02
      vertex 1.179792e+02 4.080738e+01 -4.793527e+02
    endloop
  endfacet
  facet normal -1.782813e-15 9.964320e-01 8.439894e-02
    outer loop
      vertex 1.158916e+02 4.328407e+01 -5.085930e+02
      vertex 1.150184e+02 4.319113e+01 -5.074958e+02
      vertex 1.158710e+02 4.199380e+01 -4.933598e+02
    endloop
  endfacet
  facet normal -4.124670e-01 8.747994e-01 -2.541595e-01
    outer loop
      vertex 1.150033e+02 4.278868e+01 -5.088564e+02
      vertex 1.150184e+02 4.319113e+01 -5.074958e+02
      vertex 1.158916e+02 4.328407e+01 -5.085930e+02
    endloop
  endfacet
  facet normal -9.999346e-01 -8.829789e-04 1.140504e-02
    outer loop
      vertex 1.150034e+02 4.094131e+01 -5.089918e+02
      vertex 1.150184e+02 4.319113e+01 -5.074958e+02
      vertex 1.150033e+02 4.278868e+01 -5.088564e+02
    endloop
  endfacet
  facet normal 5.586951e-16 9.964320e-01 8.439894e-02
    outer loop
      vertex 2.499990e+02 4.077029e+01 -4.789148e+02
      vertex 2.499990e+02 4.318982e+01 -5.074803e+02
      vertex 2.491117e+02 4.328313e+01 -5.085820e+02
    endloop
  endfacet
  facet normal 4.102242e-01 8.752473e-01 -2.562387e-01
    outer loop
      vertex 2.499990e+02 4.278578e+01 -5.088604e+02
      vertex 2.491117e+02 4.328313e+01 -5.085820e+02
      vertex 2.499990e+02 4.318982e+01 -5.074803e+02
    endloop
  endfacet
  facet normal 4.726313e-01 8.789384e-01 -6.392881e-02
    outer loop
      vertex 2.499990e+02 4.270190e+01 -5.100136e+02
      vertex 2.491117e+02 4.328313e+01 -5.085820e+02
      vertex 2.499990e+02 4.278578e+01 -5.088604e+02
    endloop
  endfacet
  facet normal 1.000000e+00 0.000000e+00 0.000000e+00
    outer loop
      vertex 2.499990e+02 4.124729e+01 -4.854977e+02
      vertex 2.499990e+02 4.318982e+01 -5.074803e+02
      vertex 2.499990e+02 4.077029e+01 -4.789148e+02
    endloop
  endfacet
  facet normal 1.000000e+00 0.000000e+00 0.000000e+00
    outer loop
      vertex 2.499990e+02 4.124729e+01 -4.854977e+02
      vertex 2.499990e+02 4.195918e+01 -4.978021e+02
      vertex 2.499990e+02 4.318982e+01 -5.074803e+02
    endloop
  endfacet
  facet normal 1.000000e+00 0.000000e+00 0.000000e+00
    outer loop
      vertex 2.499990e+02 4.094539e+01 -5.089967e+02
      vertex 2.499990e+02 4.278578e+01 -5.088604e+02
      vertex 2.499990e+02 4.318982e+01 -5.074803e+02
    endloop
  endfacet
  facet normal 1.000000e+00 0.000000e+00 0.000000e+00
    outer loop
      vertex 2.499990e+02 4.124729e+01 -4.854977e+02
      vertex 2.499990e+02 4.077029e+01 -4.789148e+02
      vertex 2.499990e+02 4.072283e+01 -4.789186e+02
    endloop
  endfacet
  facet normal 4.718448e-16 9.968379e-01 7.946235e-02
    outer loop
      vertex 1.198861e+02 3.918446e+01 -4.764330e+02
      vertex 1.228861e+02 3.910499e+01 -4.754361e+02
      vertex 1.180861e+02 3.939106e+01 -4.790247e+02
    endloop
  endfacet
  facet normal 0.000000e+00 9.968379e-01 7.946235e-02
    outer loop
      vertex 1.239990e+02 3.910499e+01 -4.754361e+02
      vertex 1.180861e+02 3.939106e+01 -4.790247e+02
      vertex 1.228861e+02 3.910499e+01 -4.754361e+02
    endloop
  endfacet
  facet normal -1.672943e-15 9.968379e-01 7.946235e-02
    outer loop
      vertex 1.239990e+02 3.910499e+01 -4.754361e+02
      vertex 1.239990e+02 3.918080e+01 -4.763871e+02
      vertex 1.180861e+02 3.939106e+01 -4.790247e+02
    endloop
  endfacet
  facet normal -8.254322e-16 9.968379e-01 7.946235e-02
    outer loop
      vertex 2.514635e+02 4.096635e+01 -4.819734e+02
      vertex 2.499990e+02 4.072283e+01 -4.789186e+02
      vertex 2.549990e+02 4.084997e+01 -4.805135e+02
    endloop
  endfacet
  facet normal 6.546951e-16 9.968379e-01 7.946235e-02
    outer loop
      vertex 2.514635e+02 4.096635e+01 -4.819734e+02
      vertex 2.499990e+02 4.124729e+01 -4.854977e+02
      vertex 2.499990e+02 4.072283e+01 -4.789186e+02
    endloop
  endfacet
  facet normal -1.000000e+00 0.000000e+00 0.000000e+00
    outer loop
      vertex 1.239990e+02 4.046645e+01 -4.753276e+02
      vertex 1.239990e+02 3.918080e+01 -4.763871e+02
      vertex 1.239990e+02 3.910499e+01 -4.754361e+02
    endloop
  endfacet
  facet normal -1.000000e+00 0.000000e+00 0.000000e+00
    outer loop
      vertex 1.239990e+02 4.046645e+01 -4.753276e+02
      vertex 1.239990e+02 4.054697e+01 -4.762782e+02
      vertex 1.239990e+02 3.918080e+01 -4.763871e+02
    endloop
  endfacet
  facet normal 0.000000e+00 9.968379e-01 7.946235e-02
    outer loop
      vertex 2.940825e+02 4.080880e+01 -4.799970e+02
      vertex 2.933049e+02 4.084997e+01 -4.805135e+02
      vertex 2.549990e+02 4.084997e+01 -4.805135e+02
    endloop
  endfacet
  facet normal 2.222614e-16 9.968379e-01 7.946235e-02
    outer loop
      vertex 2.949990e+02 4.079435e+01 -4.798157e+02
      vertex 2.940825e+02 4.080880e+01 -4.799970e+02
      vertex 2.549990e+02 4.084997e+01 -4.805135e+02
    endloop
  endfacet
  facet normal 1.000000e+00 0.000000e+00 0.000000e+00
    outer loop
      vertex 2.499990e+02 4.124729e+01 -4.854977e+02
      vertex 2.499990e+02 4.138443e+01 -4.969763e+02
      vertex 2.499990e+02 4.195918e+01 -4.978021e+02
    endloop
  endfacet
  facet normal 0.000000e+00 -8.207549e-01 -5.712805e-01
    outer loop
      vertex 2.359990e+02 4.195918e+01 -4.978021e+02
      vertex 2.499990e+02 4.195918e+01 -4.978021e+02
      vertex 2.499990e+02 4.138443e+01 -4.969763e+02
    endloop
  endfacet
  facet normal 0.000000e+00 -9.051490e-01 4.250944e-01
    outer loop
      vertex 2.359990e+02 4.153150e+01 -4.987127e+02
      vertex 2.499990e+02 4.153150e+01 -4.987127e+02
      vertex 2.499990e+02 4.195918e+01 -4.978021e+02
    endloop
  endfacet
  facet normal 0.000000e+00 -9.051490e-01 4.250944e-01
    outer loop
      vertex 2.359990e+02 4.153150e+01 -4.987127e+02
      vertex 2.499990e+02 4.195918e+01 -4.978021e+02
      vertex 2.359990e+02 4.195918e+01 -4.978021e+02
    endloop
  endfacet
  facet normal 1.000000e+00 0.000000e+00 0.000000e+00
    outer loop
      vertex 2.499990e+02 4.124729e+01 -4.854977e+02
      vertex 2.499990e+02 4.038153e+01 -4.970613e+02
      vertex 2.499990e+02 4.138443e+01 -4.969763e+02
    endloop
  endfacet
  facet normal 0.000000e+00 8.439894e-02 -9.964320e-01
    outer loop
      vertex 2.359990e+02 4.138443e+01 -4.969763e+02
      vertex 2.499990e+02 4.138443e+01 -4.969763e+02
      vertex 2.499990e+02 4.038153e+01 -4.970613e+02
    endloop
  endfacet
  facet normal 0.000000e+00 -8.207549e-01 -5.712805e-01
    outer loop
      vertex 2.359990e+02 4.138443e+01 -4.969763e+02
      vertex 2.359990e+02 4.195918e+01 -4.978021e+02
      vertex 2.499990e+02 4.138443e+01 -4.969763e+02
    endloop
  endfacet
  facet normal 1.000000e+00 0.000000e+00 0.000000e+00
    outer loop
      vertex 2.499990e+02 4.124729e+01 -4.854977e+02
      vertex 2.499990e+02 3.995386e+01 -4.979719e+02
      vertex 2.499990e+02 4.038153e+01 -4.970613e+02
    endloop
  endfacet
  facet normal 0.000000e+00 9.051490e-01 -4.250944e-01
    outer loop
      vertex 2.359990e+02 4.038153e+01 -4.970613e+02
      vertex 2.499990e+02 4.038153e+01 -4.970613e+02
      vertex 2.499990e+02 3.995386e+01 -4.979719e+02
    endloop
  endfacet
  facet normal 0.000000e+00 8.439894e-02 -9.964320e-01
    outer loop
      vertex 2.359990e+02 4.038153e+01 -4.970613e+02
      vertex 2.359990e+02 4.138443e+01 -4.969763e+02
      vertex 2.499990e+02 4.038153e+01 -4.970613e+02
    endloop
  endfacet
  facet normal 0.000000e+00 8.207549e-01 5.712805e-01
    outer loop
      vertex 2.359990e+02 3.995386e+01 -4.979719e+02
      vertex 2.499990e+02 3.995386e+01 -4.979719e+02
      vertex 2.499990e+02 4.052860e+01 -4.987976e+02
    endloop
  endfacet
  facet normal 0.000000e+00 9.051490e-01 -4.250944e-01
    outer loop
      vertex 2.359990e+02 3.995386e+01 -4.979719e+02
      vertex 2.359990e+02 4.038153e+01 -4.970613e+02
      vertex 2.499990e+02 3.995386e+01 -4.979719e+02
    endloop
  endfacet
  facet normal 0.000000e+00 -8.439894e-02 9.964320e-01
    outer loop
      vertex 2.359990e+02 4.052860e+01 -4.987976e+02
      vertex 2.499990e+02 4.052860e+01 -4.987976e+02
      vertex 2.499990e+02 4.153150e+01 -4.987127e+02
    endloop
  endfacet
  facet normal 0.000000e+00 8.207549e-01 5.712805e-01
    outer loop
      vertex 2.359990e+02 4.052860e+01 -4.987976e+02
      vertex 2.359990e+02 3.995386e+01 -4.979719e+02
      vertex 2.499990e+02 4.052860e+01 -4.987976e+02
    endloop
  endfacet
  facet normal 0.000000e+00 -8.439894e-02 9.964320e-01
    outer loop
      vertex 2.359990e+02 4.153150e+01 -4.987127e+02
      vertex 2.359990e+02 4.052860e+01 -4.987976e+02
      vertex 2.499990e+02 4.153150e+01 -4.987127e+02
    endloop
  endfacet
  facet normal 1.000000e+00 0.000000e+00 0.000000e+00
    outer loop
      vertex 2.499990e+02 4.121470e+01 -5.101322e+02
      vertex 2.499990e+02 4.270190e+01 -5.100136e+02
      vertex 2.499990e+02 4.278578e+01 -5.088604e+02
    endloop
  endfacet
  facet normal 1.000000e+00 0.000000e+00 0.000000e+00
    outer loop
      vertex 2.499990e+02 4.094539e+01 -5.089967e+02
      vertex 2.499990e+02 4.121470e+01 -5.101322e+02
      vertex 2.499990e+02 4.278578e+01 -5.088604e+02
    endloop
  endfacet
  facet normal 1.000000e+00 0.000000e+00 0.000000e+00
    outer loop
      vertex 2.499990e+02 4.482528e+01 -5.416469e+02
      vertex 2.499990e+02 4.522101e+01 -5.416154e+02
      vertex 2.499990e+02 4.270190e+01 -5.100136e+02
    endloop
  endfacet
  facet normal 9.538779e-01 2.385420e-02 -2.992457e-01
    outer loop
      vertex 2.499089e+02 4.479758e+01 -5.419364e+02
      vertex 2.499990e+02 4.522101e+01 -5.416154e+02
      vertex 2.499990e+02 4.482528e+01 -5.416469e+02
    endloop
  endfacet
  facet normal 9.325862e-01 6.997404e-02 -3.540998e-01
    outer loop
      vertex 2.499089e+02 4.479758e+01 -5.419364e+02
      vertex 2.498643e+02 4.532569e+01 -5.419496e+02
      vertex 2.499990e+02 4.522101e+01 -5.416154e+02
    endloop
  endfacet
  facet normal -9.997081e-01 1.081339e-02 -2.160625e-02
    outer loop
      vertex 1.151284e+02 4.165329e+01 -5.165745e+02
      vertex 1.149979e+02 4.270129e+01 -5.100137e+02
      vertex 1.151602e+02 4.336696e+01 -5.171859e+02
    endloop
  endfacet
  facet normal -9.999884e-01 -1.083694e-03 4.686965e-03
    outer loop
      vertex 1.149990e+02 4.121470e+01 -5.101322e+02
      vertex 1.150033e+02 4.278868e+01 -5.088564e+02
      vertex 1.149979e+02 4.270129e+01 -5.100137e+02
    endloop
  endfacet
  facet normal -9.997991e-01 8.861263e-04 -2.002231e-02
    outer loop
      vertex 1.151284e+02 4.165329e+01 -5.165745e+02
      vertex 1.149990e+02 4.121470e+01 -5.101322e+02
      vertex 1.149979e+02 4.270129e+01 -5.100137e+02
    endloop
  endfacet
  facet normal -9.999929e-01 -3.216112e-04 3.746778e-03
    outer loop
      vertex 1.149990e+02 4.121470e+01 -5.101322e+02
      vertex 1.150034e+02 4.094131e+01 -5.089918e+02
      vertex 1.150033e+02 4.278868e+01 -5.088564e+02
    endloop
  endfacet
endsolid 006_100022596-12
