solid 007_100022597-13
  facet normal 1.000000e+00 0.000000e+00 0.000000e+00
    outer loop
      vertex 3.199990e+02 4.166763e+01 -5.409892e+02
      vertex 3.199990e+02 4.324490e+01 -5.399606e+02
      vertex 3.199990e+02 4.028429e+01 -5.401966e+02
    endloop
  endfacet
  facet normal 0.000000e+00 -7.944738e-02 9.968391e-01
    outer loop
      vertex 2.949990e+02 4.324490e+01 -5.399606e+02
      vertex 3.199990e+02 4.028429e+01 -5.401966e+02
      vertex 3.199990e+02 4.324490e+01 -5.399606e+02
    endloop
  endfacet
  facet normal 1.000000e+00 0.000000e+00 0.000000e+00
    outer loop
      vertex 3.199990e+02 4.035579e+01 -5.410937e+02
      vertex 3.199990e+02 4.166763e+01 -5.409892e+02
      vertex 3.199990e+02 4.028429e+01 -5.401966e+02
    endloop
  endfacet
  facet normal 0.000000e+00 -9.968391e-01 -7.944738e-02
    outer loop
      vertex 2.949990e+02 4.028429e+01 -5.401966e+02
      vertex 3.199990e+02 4.035579e+01 -5.410937e+02
      vertex 3.199990e+02 4.028429e+01 -5.401966e+02
    endloop
  endfacet
  facet normal 0.000000e+00 -7.944738e-02 9.968391e-01
    outer loop
      vertex 2.949990e+02 4.028429e+01 -5.401966e+02
      vertex 3.199990e+02 4.028429e+01 -5.401966e+02
      vertex 2.949990e+02 4.324490e+01 -5.399606e+02
    endloop
  endfacet
  facet normal 1.000000e+00 0.000000e+00 0.000000e+00
    outer loop
      vertex 3.199990e+02 4.187785e+01 -5.436268e+02
      vertex 3.199990e+02 4.360242e+01 -5.444464e+02
      vertex 3.199990e+02 4.324490e+01 -5.399606e+02
    endloop
  endfacet
  facet normal 0.000000e+00 9.968391e-01 7.944738e-02
    outer loop
      vertex 1.226938e+02 4.360242e+01 -5.444464e+02
      vertex 3.199990e+02 4.324490e+01 -5.399606e+02
      vertex 3.199990e+02 4.360242e+01 -5.444464e+02
    endloop
  endfacet
  facet normal 1.000000e+00 0.000000e+00 0.000000e+00
    outer loop
      vertex 3.199990e+02 4.166763e+01 -5.409892e+02
      vertex 3.199990e+02 4.187785e+01 -5.436268e+02
      vertex 3.199990e+02 4.324490e+01 -5.399606e+02
    endloop
  endfacet
  facet normal 0.000000e+00 9.968391e-01 7.944738e-02
    outer loop
      vertex 1.226938e+02 4.360242e+01 -5.444464e+02
      vertex 2.949990e+02 4.324490e+01 -5.399606e+02
      vertex 3.199990e+02 4.324490e+01 -5.399606e+02
    endloop
  endfacet
  facet normal 1.000000e+00 0.000000e+00 0.000000e+00
    outer loop
      vertex 3.199990e+02 4.047673e+01 -5.437385e+02
      vertex 3.199990e+02 4.054781e+01 -5.446898e+02
      vertex 3.199990e+02 4.360242e+01 -5.444464e+02
    endloop
  endfacet
  facet normal 0.000000e+00 7.944738e-02 -9.968391e-01
    outer loop
      vertex 1.239990e+02 4.054781e+01 -5.446898e+02
      vertex 3.199990e+02 4.360242e+01 -5.444464e+02
      vertex 3.199990e+02 4.054781e+01 -5.446898e+02
    endloop
  endfacet
  facet normal 1.000000e+00 0.000000e+00 0.000000e+00
    outer loop
      vertex 3.199990e+02 4.187785e+01 -5.436268e+02
      vertex 3.199990e+02 4.047673e+01 -5.437385e+02
      vertex 3.199990e+02 4.360242e+01 -5.444464e+02
    endloop
  endfacet
  facet normal 0.000000e+00 7.944738e-02 -9.968391e-01
    outer loop
      vertex 1.226938e+02 4.195364e+01 -5.445778e+02
      vertex 1.226938e+02 4.360242e+01 -5.444464e+02
      vertex 3.199990e+02 4.360242e+01 -5.444464e+02
    endloop
  endfacet
  facet normal 0.000000e+00 7.944738e-02 -9.968391e-01
    outer loop
      vertex 1.239990e+02 4.195364e+01 -5.445778e+02
      vertex 1.226938e+02 4.195364e+01 -5.445778e+02
      vertex 3.199990e+02 4.360242e+01 -5.444464e+02
    endloop
  endfacet
  facet normal 5.502561e-16 7.944738e-02 -9.968391e-01
    outer loop
      vertex 1.239990e+02 4.054781e+01 -5.446898e+02
      vertex 1.239990e+02 4.195364e+01 -5.445778e+02
      vertex 3.199990e+02 4.360242e+01 -5.444464e+02
    endloop
  endfacet
  facet normal 0.000000e+00 -9.972204e-01 -7.450883e-02
    outer loop
      vertex 1.239990e+02 4.047673e+01 -5.437385e+02
      vertex 3.199990e+02 4.054781e+01 -5.446898e+02
      vertex 3.199990e+02 4.047673e+01 -5.437385e+02
    endloop
  endfacet
  facet normal 0.000000e+00 -9.972204e-01 -7.450883e-02
    outer loop
      vertex 1.239990e+02 4.054781e+01 -5.446898e+02
      vertex 3.199990e+02 4.054781e+01 -5.446898e+02
      vertex 1.239990e+02 4.047673e+01 -5.437385e+02
    endloop
  endfacet
  facet normal 0.000000e+00 -7.944738e-02 9.968391e-01
    outer loop
      vertex 1.239990e+02 4.187785e+01 -5.436268e+02
      vertex 3.199990e+02 4.047673e+01 -5.437385e+02
      vertex 3.199990e+02 4.187785e+01 -5.436268e+02
    endloop
  endfacet
  facet normal 0.000000e+00 -7.944738e-02 9.968391e-01
    outer loop
      vertex 1.239990e+02 4.047673e+01 -5.437385e+02
      vertex 3.199990e+02 4.047673e+01 -5.437385e+02
      vertex 1.239990e+02 4.187785e+01 -5.436268e+02
    endloop
  endfacet
  facet normal 0.000000e+00 -9.968391e-01 -7.944738e-02
    outer loop
      vertex 1.178938e+02 4.166763e+01 -5.409892e+02
      vertex 3.199990e+02 4.187785e+01 -5.436268e+02
      vertex 3.199990e+02 4.166763e+01 -5.409892e+02
    endloop
  endfacet
  facet normal 0.000000e+00 -9.968391e-01 -7.944738e-02
    outer loop
      vertex 1.239990e+02 4.187785e+01 -5.436268e+02
      vertex 3.199990e+02 4.187785e+01 -5.436268e+02
      vertex 1.178938e+02 4.166763e+01 -5.409892e+02
    endloop
  endfacet
  facet normal 0.000000e+00 7.944738e-02 -9.968391e-01
    outer loop
      vertex 2.499990e+02 4.035579e+01 -5.410937e+02
      vertex 3.199990e+02 4.166763e+01 -5.409892e+02
      vertex 3.199990e+02 4.035579e+01 -5.410937e+02
    endloop
  endfacet
  facet normal 9.336727e-17 7.944738e-02 -9.968391e-01
    outer loop
      vertex 2.499990e+02 4.035579e+01 -5.410937e+02
      vertex 1.178938e+02 4.027957e+01 -5.410998e+02
      vertex 3.199990e+02 4.166763e+01 -5.409892e+02
    endloop
  endfacet
  facet normal 0.000000e+00 7.944738e-02 -9.968391e-01
    outer loop
      vertex 1.178938e+02 4.166763e+01 -5.409892e+02
      vertex 3.199990e+02 4.166763e+01 -5.409892e+02
      vertex 1.178938e+02 4.027957e+01 -5.410998e+02
    endloop
  endfacet
  facet normal 0.000000e+00 -9.968391e-01 -7.944738e-02
    outer loop
      vertex 2.549990e+02 4.022868e+01 -5.394988e+02
      vertex 2.499990e+02 4.035579e+01 -5.410937e+02
      vertex 3.199990e+02 4.035579e+01 -5.410937e+02
    endloop
  endfacet
  facet normal 9.436896e-16 -9.968391e-01 -7.944738e-02
    outer loop
      vertex 2.949990e+02 4.028429e+01 -5.401966e+02
      vertex 2.549990e+02 4.022868e+01 -5.394988e+02
      vertex 3.199990e+02 4.035579e+01 -5.410937e+02
    endloop
  endfacet
  facet normal 0.000000e+00 9.968391e-01 7.944738e-02
    outer loop
      vertex 2.329940e+02 4.109022e+01 -5.129254e+02
      vertex 2.329940e+02 4.118536e+01 -5.141191e+02
      vertex 2.248722e+02 4.118536e+01 -5.141191e+02
    endloop
  endfacet
  facet normal 0.000000e+00 7.697834e-02 -9.970328e-01
    outer loop
      vertex 2.248722e+02 3.828043e+01 -5.143434e+02
      vertex 2.248722e+02 4.118536e+01 -5.141191e+02
      vertex 2.329940e+02 4.118536e+01 -5.141191e+02
    endloop
  endfacet
  facet normal -6.889728e-16 9.968391e-01 7.944738e-02
    outer loop
      vertex 2.337453e+02 4.098684e+01 -5.116283e+02
      vertex 2.329940e+02 4.109022e+01 -5.129254e+02
      vertex 2.248722e+02 4.118536e+01 -5.141191e+02
    endloop
  endfacet
  facet normal -5.274449e-15 9.968391e-01 7.944738e-02
    outer loop
      vertex 2.244532e+02 4.117056e+01 -5.139335e+02
      vertex 2.337453e+02 4.098684e+01 -5.116283e+02
      vertex 2.248722e+02 4.118536e+01 -5.141191e+02
    endloop
  endfacet
  facet normal -4.061771e-01 7.034237e-02 -9.110829e-01
    outer loop
      vertex 2.244532e+02 3.826655e+01 -5.141577e+02
      vertex 2.244532e+02 4.117056e+01 -5.139335e+02
      vertex 2.248722e+02 4.118536e+01 -5.141191e+02
    endloop
  endfacet
  facet normal -4.061771e-01 7.034237e-02 -9.110829e-01
    outer loop
      vertex 2.244532e+02 3.826655e+01 -5.141577e+02
      vertex 2.248722e+02 4.118536e+01 -5.141191e+02
      vertex 2.248722e+02 3.828043e+01 -5.143434e+02
    endloop
  endfacet
  facet normal 1.000000e+00 0.000000e+00 0.000000e+00
    outer loop
      vertex 2.329940e+02 3.819121e+01 -5.131493e+02
      vertex 2.329940e+02 4.118536e+01 -5.141191e+02
      vertex 2.329940e+02 4.109022e+01 -5.129254e+02
    endloop
  endfacet
  facet normal 0.000000e+00 7.697834e-02 -9.970328e-01
    outer loop
      vertex 2.329940e+02 3.828043e+01 -5.143434e+02
      vertex 2.248722e+02 3.828043e+01 -5.143434e+02
      vertex 2.329940e+02 4.118536e+01 -5.141191e+02
    endloop
  endfacet
  facet normal 1.000000e+00 0.000000e+00 0.000000e+00
    outer loop
      vertex 2.329940e+02 3.828043e+01 -5.143434e+02
      vertex 2.329940e+02 4.118536e+01 -5.141191e+02
      vertex 2.329940e+02 3.819121e+01 -5.131493e+02
    endloop
  endfacet
  facet normal 8.660252e-01 3.848920e-02 -4.985167e-01
    outer loop
      vertex 2.329940e+02 3.819121e+01 -5.131493e+02
      vertex 2.329940e+02 4.109022e+01 -5.129254e+02
      vertex 2.337453e+02 4.098684e+01 -5.116283e+02
    endloop
  endfacet
  facet normal -1.340351e-15 9.968391e-01 7.944738e-02
    outer loop
      vertex 2.487866e+02 4.090089e+01 -5.105499e+02
      vertex 2.352477e+02 4.098684e+01 -5.116283e+02
      vertex 2.337453e+02 4.098684e+01 -5.116283e+02
    endloop
  endfacet
  facet normal 8.077042e-10 7.697834e-02 -9.970328e-01
    outer loop
      vertex 2.337453e+02 3.809426e+01 -5.118517e+02
      vertex 2.337453e+02 4.098684e+01 -5.116283e+02
      vertex 2.352477e+02 4.098684e+01 -5.116283e+02
    endloop
  endfacet
  facet normal 0.000000e+00 9.968391e-01 7.944738e-02
    outer loop
      vertex 2.239990e+02 4.116550e+01 -5.138699e+02
      vertex 1.319990e+02 4.116550e+01 -5.138699e+02
      vertex 2.337453e+02 4.098684e+01 -5.116283e+02
    endloop
  endfacet
  facet normal 9.317887e-17 9.968391e-01 7.944738e-02
    outer loop
      vertex 2.487866e+02 4.090089e+01 -5.105499e+02
      vertex 2.337453e+02 4.098684e+01 -5.116283e+02
      vertex 1.319990e+02 4.116550e+01 -5.138699e+02
    endloop
  endfacet
  facet normal 5.304236e-15 9.968391e-01 7.944738e-02
    outer loop
      vertex 2.244532e+02 4.117056e+01 -5.139335e+02
      vertex 2.239990e+02 4.116550e+01 -5.138699e+02
      vertex 2.337453e+02 4.098684e+01 -5.116283e+02
    endloop
  endfacet
  facet normal 8.660252e-01 3.848920e-02 -4.985167e-01
    outer loop
      vertex 2.329940e+02 3.819121e+01 -5.131493e+02
      vertex 2.337453e+02 4.098684e+01 -5.116283e+02
      vertex 2.337453e+02 3.809426e+01 -5.118517e+02
    endloop
  endfacet
  facet normal -1.792179e-16 9.968391e-01 7.944738e-02
    outer loop
      vertex 2.487866e+02 4.090089e+01 -5.105499e+02
      vertex 2.359990e+02 4.109022e+01 -5.129254e+02
      vertex 2.352477e+02 4.098684e+01 -5.116283e+02
    endloop
  endfacet
  facet normal -8.660252e-01 3.848920e-02 -4.985167e-01
    outer loop
      vertex 2.352477e+02 3.809426e+01 -5.118517e+02
      vertex 2.352477e+02 4.098684e+01 -5.116283e+02
      vertex 2.359990e+02 4.109022e+01 -5.129254e+02
    endloop
  endfacet
  facet normal 8.076991e-10 7.697834e-02 -9.970328e-01
    outer loop
      vertex 2.337453e+02 3.809426e+01 -5.118517e+02
      vertex 2.352477e+02 4.098684e+01 -5.116283e+02
      vertex 2.352477e+02 3.809426e+01 -5.118517e+02
    endloop
  endfacet
  facet normal 3.877247e-16 9.968391e-01 7.944738e-02
    outer loop
      vertex 2.487866e+02 4.090089e+01 -5.105499e+02
      vertex 2.359990e+02 4.150295e+01 -5.181040e+02
      vertex 2.359990e+02 4.109022e+01 -5.129254e+02
    endloop
  endfacet
  facet normal -1.000000e+00 0.000000e+00 0.000000e+00
    outer loop
      vertex 2.359990e+02 4.084412e+01 -5.155522e+02
      vertex 2.359990e+02 4.109022e+01 -5.129254e+02
      vertex 2.359990e+02 4.150295e+01 -5.181040e+02
    endloop
  endfacet
  facet normal -8.660252e-01 3.848920e-02 -4.985167e-01
    outer loop
      vertex 2.352477e+02 3.809426e+01 -5.118517e+02
      vertex 2.359990e+02 4.109022e+01 -5.129254e+02
      vertex 2.359990e+02 3.819121e+01 -5.131493e+02
    endloop
  endfacet
  facet normal -1.000000e+00 0.000000e+00 0.000000e+00
    outer loop
      vertex 2.359990e+02 4.027746e+01 -5.147206e+02
      vertex 2.359990e+02 3.819121e+01 -5.131493e+02
      vertex 2.359990e+02 4.109022e+01 -5.129254e+02
    endloop
  endfacet
  facet normal -1.000000e+00 0.000000e+00 0.000000e+00
    outer loop
      vertex 2.359990e+02 4.027746e+01 -5.147206e+02
      vertex 2.359990e+02 4.109022e+01 -5.129254e+02
      vertex 2.359990e+02 4.084412e+01 -5.155522e+02
    endloop
  endfacet
  facet normal -3.651314e-15 9.968391e-01 7.944738e-02
    outer loop
      vertex 2.487866e+02 4.090089e+01 -5.105499e+02
      vertex 2.352477e+02 4.160633e+01 -5.194011e+02
      vertex 2.359990e+02 4.150295e+01 -5.181040e+02
    endloop
  endfacet
  facet normal -8.660252e-01 -3.848920e-02 4.985167e-01
    outer loop
      vertex 2.359990e+02 3.857828e+01 -5.183298e+02
      vertex 2.359990e+02 4.150295e+01 -5.181040e+02
      vertex 2.352477e+02 4.160633e+01 -5.194011e+02
    endloop
  endfacet
  facet normal -1.000000e+00 0.000000e+00 0.000000e+00
    outer loop
      vertex 2.359990e+02 3.940387e+01 -5.165336e+02
      vertex 2.359990e+02 4.150295e+01 -5.181040e+02
      vertex 2.359990e+02 3.857828e+01 -5.183298e+02
    endloop
  endfacet
  facet normal -1.000000e+00 0.000000e+00 0.000000e+00
    outer loop
      vertex 2.359990e+02 4.040732e+01 -5.164587e+02
      vertex 2.359990e+02 4.084412e+01 -5.155522e+02
      vertex 2.359990e+02 4.150295e+01 -5.181040e+02
    endloop
  endfacet
  facet normal -1.000000e+00 0.000000e+00 0.000000e+00
    outer loop
      vertex 2.359990e+02 4.040732e+01 -5.164587e+02
      vertex 2.359990e+02 4.150295e+01 -5.181040e+02
      vertex 2.359990e+02 3.940387e+01 -5.165336e+02
    endloop
  endfacet
  facet normal -1.317571e-15 9.968391e-01 7.944738e-02
    outer loop
      vertex 1.226938e+02 4.360242e+01 -5.444464e+02
      vertex 2.337453e+02 4.160633e+01 -5.194011e+02
      vertex 2.352477e+02 4.160633e+01 -5.194011e+02
    endloop
  endfacet
  facet normal -8.077042e-10 -7.697834e-02 9.970328e-01
    outer loop
      vertex 2.352477e+02 3.867523e+01 -5.196274e+02
      vertex 2.352477e+02 4.160633e+01 -5.194011e+02
      vertex 2.337453e+02 4.160633e+01 -5.194011e+02
    endloop
  endfacet
  facet normal -2.545285e-16 9.968391e-01 7.944738e-02
    outer loop
      vertex 2.499990e+02 4.110061e+01 -5.130558e+02
      vertex 2.499990e+02 4.279205e+01 -5.342786e+02
      vertex 2.352477e+02 4.160633e+01 -5.194011e+02
    endloop
  endfacet
  facet normal -2.598975e-17 9.968391e-01 7.944738e-02
    outer loop
      vertex 1.226938e+02 4.360242e+01 -5.444464e+02
      vertex 2.352477e+02 4.160633e+01 -5.194011e+02
      vertex 2.499990e+02 4.279205e+01 -5.342786e+02
    endloop
  endfacet
  facet normal -1.666442e-15 9.968391e-01 7.944738e-02
    outer loop
      vertex 2.491055e+02 4.101176e+01 -5.119410e+02
      vertex 2.499990e+02 4.110061e+01 -5.130558e+02
      vertex 2.352477e+02 4.160633e+01 -5.194011e+02
    endloop
  endfacet
  facet normal -2.044084e-17 9.968391e-01 7.944738e-02
    outer loop
      vertex 2.487866e+02 4.090089e+01 -5.105499e+02
      vertex 2.491055e+02 4.101176e+01 -5.119410e+02
      vertex 2.352477e+02 4.160633e+01 -5.194011e+02
    endloop
  endfacet
  facet normal -8.660252e-01 -3.848920e-02 4.985167e-01
    outer loop
      vertex 2.359990e+02 3.857828e+01 -5.183298e+02
      vertex 2.352477e+02 4.160633e+01 -5.194011e+02
      vertex 2.352477e+02 3.867523e+01 -5.196274e+02
    endloop
  endfacet
  facet normal -3.914213e-16 9.968391e-01 7.944738e-02
    outer loop
      vertex 1.226938e+02 4.360242e+01 -5.444464e+02
      vertex 2.329940e+02 4.150295e+01 -5.181040e+02
      vertex 2.337453e+02 4.160633e+01 -5.194011e+02
    endloop
  endfacet
  facet normal 8.660252e-01 -3.848920e-02 4.985167e-01
    outer loop
      vertex 2.337453e+02 3.867523e+01 -5.196274e+02
      vertex 2.337453e+02 4.160633e+01 -5.194011e+02
      vertex 2.329940e+02 4.150295e+01 -5.181040e+02
    endloop
  endfacet
  facet normal -8.076236e-10 -7.697834e-02 9.970328e-01
    outer loop
      vertex 2.352477e+02 3.867523e+01 -5.196274e+02
      vertex 2.337453e+02 4.160633e+01 -5.194011e+02
      vertex 2.337453e+02 3.867523e+01 -5.196274e+02
    endloop
  endfacet
  facet normal 2.151775e-16 9.968391e-01 7.944738e-02
    outer loop
      vertex 1.226938e+02 4.360242e+01 -5.444464e+02
      vertex 2.329940e+02 4.140781e+01 -5.169103e+02
      vertex 2.329940e+02 4.150295e+01 -5.181040e+02
    endloop
  endfacet
  facet normal 1.000000e+00 0.000000e+00 0.000000e+00
    outer loop
      vertex 2.329940e+02 3.848906e+01 -5.171357e+02
      vertex 2.329940e+02 4.150295e+01 -5.181040e+02
      vertex 2.329940e+02 4.140781e+01 -5.169103e+02
    endloop
  endfacet
  facet normal 1.000000e+00 0.000000e+00 0.000000e+00
    outer loop
      vertex 2.329940e+02 3.857828e+01 -5.183298e+02
      vertex 2.329940e+02 4.150295e+01 -5.181040e+02
      vertex 2.329940e+02 3.848906e+01 -5.171357e+02
    endloop
  endfacet
  facet normal 8.660252e-01 -3.848920e-02 4.985167e-01
    outer loop
      vertex 2.337453e+02 3.867523e+01 -5.196274e+02
      vertex 2.329940e+02 4.150295e+01 -5.181040e+02
      vertex 2.329940e+02 3.857828e+01 -5.183298e+02
    endloop
  endfacet
  facet normal 0.000000e+00 9.968391e-01 7.944738e-02
    outer loop
      vertex 2.244532e+02 4.142261e+01 -5.170960e+02
      vertex 2.248722e+02 4.140781e+01 -5.169103e+02
      vertex 2.329940e+02 4.140781e+01 -5.169103e+02
    endloop
  endfacet
  facet normal 0.000000e+00 -7.697834e-02 9.970328e-01
    outer loop
      vertex 2.329940e+02 3.848906e+01 -5.171357e+02
      vertex 2.329940e+02 4.140781e+01 -5.169103e+02
      vertex 2.248722e+02 4.140781e+01 -5.169103e+02
    endloop
  endfacet
  facet normal 8.577349e-16 9.968391e-01 7.944738e-02
    outer loop
      vertex 1.226938e+02 4.360242e+01 -5.444464e+02
      vertex 2.244532e+02 4.142261e+01 -5.170960e+02
      vertex 2.329940e+02 4.140781e+01 -5.169103e+02
    endloop
  endfacet
  facet normal -4.061771e-01 -7.034237e-02 9.110829e-01
    outer loop
      vertex 2.248722e+02 3.848906e+01 -5.171357e+02
      vertex 2.248722e+02 4.140781e+01 -5.169103e+02
      vertex 2.244532e+02 4.142261e+01 -5.170960e+02
    endloop
  endfacet
  facet normal 0.000000e+00 -7.697834e-02 9.970328e-01
    outer loop
      vertex 2.329940e+02 3.848906e+01 -5.171357e+02
      vertex 2.248722e+02 4.140781e+01 -5.169103e+02
      vertex 2.248722e+02 3.848906e+01 -5.171357e+02
    endloop
  endfacet
  facet normal -2.140715e-14 9.968391e-01 7.944738e-02
    outer loop
      vertex 1.226938e+02 4.360242e+01 -5.444464e+02
      vertex 2.239990e+02 4.142767e+01 -5.171595e+02
      vertex 2.244532e+02 4.142261e+01 -5.170960e+02
    endloop
  endfacet
  facet normal -1.390011e-01 -7.623105e-02 9.873538e-01
    outer loop
      vertex 2.244532e+02 3.850293e+01 -5.173214e+02
      vertex 2.244532e+02 4.142261e+01 -5.170960e+02
      vertex 2.239990e+02 4.142767e+01 -5.171595e+02
    endloop
  endfacet
  facet normal -4.061771e-01 -7.034237e-02 9.110829e-01
    outer loop
      vertex 2.248722e+02 3.848906e+01 -5.171357e+02
      vertex 2.244532e+02 4.142261e+01 -5.170960e+02
      vertex 2.244532e+02 3.850293e+01 -5.173214e+02
    endloop
  endfacet
  facet normal 0.000000e+00 9.968391e-01 7.944738e-02
    outer loop
      vertex 1.226938e+02 4.360242e+01 -5.444464e+02
      vertex 1.319990e+02 4.142767e+01 -5.171595e+02
      vertex 2.239990e+02 4.142767e+01 -5.171595e+02
    endloop
  endfacet
  facet normal 0.000000e+00 -7.697834e-02 9.970328e-01
    outer loop
      vertex 2.239990e+02 3.850768e+01 -5.173850e+02
      vertex 2.239990e+02 4.142767e+01 -5.171595e+02
      vertex 1.319990e+02 4.142767e+01 -5.171595e+02
    endloop
  endfacet
  facet normal -1.390011e-01 -7.623105e-02 9.873538e-01
    outer loop
      vertex 2.244532e+02 3.850293e+01 -5.173214e+02
      vertex 2.239990e+02 4.142767e+01 -5.171595e+02
      vertex 2.239990e+02 3.850768e+01 -5.173850e+02
    endloop
  endfacet
  facet normal 2.885189e-15 9.968391e-01 7.944738e-02
    outer loop
      vertex 1.226938e+02 4.360242e+01 -5.444464e+02
      vertex 1.305701e+02 4.136213e+01 -5.163371e+02
      vertex 1.319990e+02 4.142767e+01 -5.171595e+02
    endloop
  endfacet
  facet normal 4.999996e-01 -6.666522e-02 8.634559e-01
    outer loop
      vertex 1.319990e+02 3.850768e+01 -5.173850e+02
      vertex 1.319990e+02 4.142767e+01 -5.171595e+02
      vertex 1.305701e+02 4.136213e+01 -5.163371e+02
    endloop
  endfacet
  facet normal 0.000000e+00 -7.697834e-02 9.970328e-01
    outer loop
      vertex 2.239990e+02 3.850768e+01 -5.173850e+02
      vertex 1.319990e+02 4.142767e+01 -5.171595e+02
      vertex 1.319990e+02 3.850768e+01 -5.173850e+02
    endloop
  endfacet
  facet normal -2.405665e-14 9.968391e-01 7.944738e-02
    outer loop
      vertex 1.226938e+02 4.360242e+01 -5.444464e+02
      vertex 1.305701e+02 4.123104e+01 -5.146923e+02
      vertex 1.305701e+02 4.136213e+01 -5.163371e+02
    endloop
  endfacet
  facet normal 1.000000e+00 6.217480e-11 -8.052955e-10
    outer loop
      vertex 1.305701e+02 3.844621e+01 -5.165623e+02
      vertex 1.305701e+02 4.136213e+01 -5.163371e+02
      vertex 1.305701e+02 4.123104e+01 -5.146923e+02
    endloop
  endfacet
  facet normal 4.999996e-01 -6.666522e-02 8.634559e-01
    outer loop
      vertex 1.319990e+02 3.850768e+01 -5.173850e+02
      vertex 1.305701e+02 4.136213e+01 -5.163371e+02
      vertex 1.305701e+02 3.844621e+01 -5.165623e+02
    endloop
  endfacet
  facet normal -1.098736e-15 9.968391e-01 7.944738e-02
    outer loop
      vertex 1.162114e+02 4.090089e+01 -5.105499e+02
      vertex 1.319990e+02 4.116550e+01 -5.138699e+02
      vertex 1.305701e+02 4.123104e+01 -5.146923e+02
    endloop
  endfacet
  facet normal 4.999996e-01 6.666522e-02 -8.634559e-01
    outer loop
      vertex 1.305701e+02 3.832327e+01 -5.149168e+02
      vertex 1.305701e+02 4.123104e+01 -5.146923e+02
      vertex 1.319990e+02 4.116550e+01 -5.138699e+02
    endloop
  endfacet
  facet normal 5.036152e-16 9.968391e-01 7.944738e-02
    outer loop
      vertex 1.177807e+02 4.327893e+01 -5.403875e+02
      vertex 1.162114e+02 4.090089e+01 -5.105499e+02
      vertex 1.305701e+02 4.123104e+01 -5.146923e+02
    endloop
  endfacet
  facet normal 4.888092e-16 9.968391e-01 7.944738e-02
    outer loop
      vertex 1.195033e+02 4.351103e+01 -5.432998e+02
      vertex 1.177807e+02 4.327893e+01 -5.403875e+02
      vertex 1.305701e+02 4.123104e+01 -5.146923e+02
    endloop
  endfacet
  facet normal 3.747202e-16 9.968391e-01 7.944738e-02
    outer loop
      vertex 1.226938e+02 4.360242e+01 -5.444464e+02
      vertex 1.195033e+02 4.351103e+01 -5.432998e+02
      vertex 1.305701e+02 4.123104e+01 -5.146923e+02
    endloop
  endfacet
  facet normal 1.000000e+00 6.218585e-11 -8.053120e-10
    outer loop
      vertex 1.305701e+02 3.844621e+01 -5.165623e+02
      vertex 1.305701e+02 4.123104e+01 -5.146923e+02
      vertex 1.305701e+02 3.832327e+01 -5.149168e+02
    endloop
  endfacet
  facet normal 0.000000e+00 7.697834e-02 -9.970328e-01
    outer loop
      vertex 1.319990e+02 3.826180e+01 -5.140941e+02
      vertex 1.319990e+02 4.116550e+01 -5.138699e+02
      vertex 2.239990e+02 4.116550e+01 -5.138699e+02
    endloop
  endfacet
  facet normal 0.000000e+00 9.968391e-01 7.944738e-02
    outer loop
      vertex 1.162114e+02 4.090089e+01 -5.105499e+02
      vertex 2.487866e+02 4.090089e+01 -5.105499e+02
      vertex 1.319990e+02 4.116550e+01 -5.138699e+02
    endloop
  endfacet
  facet normal 4.999996e-01 6.666522e-02 -8.634559e-01
    outer loop
      vertex 1.305701e+02 3.832327e+01 -5.149168e+02
      vertex 1.319990e+02 4.116550e+01 -5.138699e+02
      vertex 1.319990e+02 3.826180e+01 -5.140941e+02
    endloop
  endfacet
  facet normal -1.390011e-01 7.623105e-02 -9.873538e-01
    outer loop
      vertex 2.239990e+02 3.826180e+01 -5.140941e+02
      vertex 2.239990e+02 4.116550e+01 -5.138699e+02
      vertex 2.244532e+02 4.117056e+01 -5.139335e+02
    endloop
  endfacet
  facet normal 0.000000e+00 7.697834e-02 -9.970328e-01
    outer loop
      vertex 1.319990e+02 3.826180e+01 -5.140941e+02
      vertex 2.239990e+02 4.116550e+01 -5.138699e+02
      vertex 2.239990e+02 3.826180e+01 -5.140941e+02
    endloop
  endfacet
  facet normal -1.390011e-01 7.623105e-02 -9.873538e-01
    outer loop
      vertex 2.239990e+02 3.826180e+01 -5.140941e+02
      vertex 2.244532e+02 4.117056e+01 -5.139335e+02
      vertex 2.244532e+02 3.826655e+01 -5.141577e+02
    endloop
  endfacet
  facet normal -3.067712e-16 9.968391e-01 7.944738e-02
    outer loop
      vertex 1.226938e+02 4.360242e+01 -5.444464e+02
      vertex 2.940825e+02 4.323045e+01 -5.397793e+02
      vertex 2.949990e+02 4.324490e+01 -5.399606e+02
    endloop
  endfacet
  facet normal 1.946737e-01 -7.792739e-02 9.777676e-01
    outer loop
      vertex 2.949990e+02 4.028429e+01 -5.401966e+02
      vertex 2.949990e+02 4.324490e+01 -5.399606e+02
      vertex 2.940825e+02 4.323045e+01 -5.397793e+02
    endloop
  endfacet
  facet normal 3.218839e-16 9.968391e-01 7.944738e-02
    outer loop
      vertex 1.226938e+02 4.360242e+01 -5.444464e+02
      vertex 2.933049e+02 4.318929e+01 -5.392628e+02
      vertex 2.940825e+02 4.323045e+01 -5.397793e+02
    endloop
  endfacet
  facet normal 5.544794e-01 -6.611590e-02 8.295669e-01
    outer loop
      vertex 2.940825e+02 4.026984e+01 -5.400152e+02
      vertex 2.940825e+02 4.323045e+01 -5.397793e+02
      vertex 2.933049e+02 4.318929e+01 -5.392628e+02
    endloop
  endfacet
  facet normal 1.946737e-01 -7.792739e-02 9.777676e-01
    outer loop
      vertex 2.949990e+02 4.028429e+01 -5.401966e+02
      vertex 2.940825e+02 4.323045e+01 -5.397793e+02
      vertex 2.940825e+02 4.026984e+01 -5.400152e+02
    endloop
  endfacet
  facet normal -1.850459e-16 9.968391e-01 7.944738e-02
    outer loop
      vertex 1.226938e+02 4.360242e+01 -5.444464e+02
      vertex 2.549990e+02 4.318929e+01 -5.392628e+02
      vertex 2.933049e+02 4.318929e+01 -5.392628e+02
    endloop
  endfacet
  facet normal 1.463792e-17 -7.944738e-02 9.968391e-01
    outer loop
      vertex 2.933049e+02 4.022868e+01 -5.394988e+02
      vertex 2.933049e+02 4.318929e+01 -5.392628e+02
      vertex 2.549990e+02 4.318929e+01 -5.392628e+02
    endloop
  endfacet
  facet normal 5.544794e-01 -6.611590e-02 8.295669e-01
    outer loop
      vertex 2.940825e+02 4.026984e+01 -5.400152e+02
      vertex 2.933049e+02 4.318929e+01 -5.392628e+02
      vertex 2.933049e+02 4.022868e+01 -5.394988e+02
    endloop
  endfacet
  facet normal 3.558721e-17 9.968391e-01 7.944738e-02
    outer loop
      vertex 1.226938e+02 4.360242e+01 -5.444464e+02
      vertex 2.514635e+02 4.307294e+01 -5.378030e+02
      vertex 2.549990e+02 4.318929e+01 -5.392628e+02
    endloop
  endfacet
  facet normal 3.826834e-01 -7.339981e-02 9.209592e-01
    outer loop
      vertex 2.549990e+02 4.022868e+01 -5.394988e+02
      vertex 2.549990e+02 4.318929e+01 -5.392628e+02
      vertex 2.514635e+02 4.307294e+01 -5.378030e+02
    endloop
  endfacet
  facet normal 1.473683e-17 -7.944738e-02 9.968391e-01
    outer loop
      vertex 2.549990e+02 4.022868e+01 -5.394988e+02
      vertex 2.933049e+02 4.022868e+01 -5.394988e+02
      vertex 2.549990e+02 4.318929e+01 -5.392628e+02
    endloop
  endfacet
  facet normal 6.684789e-17 9.968391e-01 7.944738e-02
    outer loop
      vertex 1.226938e+02 4.360242e+01 -5.444464e+02
      vertex 2.499990e+02 4.279205e+01 -5.342786e+02
      vertex 2.514635e+02 4.307294e+01 -5.378030e+02
    endloop
  endfacet
  facet normal 9.238795e-01 -3.040319e-02 3.814738e-01
    outer loop
      vertex 2.514635e+02 4.011233e+01 -5.380389e+02
      vertex 2.514635e+02 4.307294e+01 -5.378030e+02
      vertex 2.499990e+02 4.279205e+01 -5.342786e+02
    endloop
  endfacet
  facet normal 3.826834e-01 -7.339981e-02 9.209592e-01
    outer loop
      vertex 2.514635e+02 4.011233e+01 -5.380389e+02
      vertex 2.549990e+02 4.022868e+01 -5.394988e+02
      vertex 2.514635e+02 4.307294e+01 -5.378030e+02
    endloop
  endfacet
  facet normal 1.000000e+00 0.000000e+00 0.000000e+00
    outer loop
      vertex 2.499990e+02 3.983144e+01 -5.345146e+02
      vertex 2.499990e+02 4.279205e+01 -5.342786e+02
      vertex 2.499990e+02 4.110061e+01 -5.130558e+02
    endloop
  endfacet
  facet normal 9.238795e-01 -3.040319e-02 3.814738e-01
    outer loop
      vertex 2.514635e+02 4.011233e+01 -5.380389e+02
      vertex 2.499990e+02 4.279205e+01 -5.342786e+02
      vertex 2.499990e+02 3.983144e+01 -5.345146e+02
    endloop
  endfacet
  facet normal 4.074763e-01 8.246655e-01 3.922879e-01
    outer loop
      vertex 2.499990e+02 4.046227e+01 -5.117139e+02
      vertex 2.499990e+02 4.110061e+01 -5.130558e+02
      vertex 2.491055e+02 4.101176e+01 -5.119410e+02
    endloop
  endfacet
  facet normal 1.000000e+00 0.000000e+00 0.000000e+00
    outer loop
      vertex 2.499990e+02 3.927401e+01 -5.147956e+02
      vertex 2.499990e+02 4.110061e+01 -5.130558e+02
      vertex 2.499990e+02 3.817466e+01 -5.129277e+02
    endloop
  endfacet
  facet normal 1.000000e+00 0.000000e+00 0.000000e+00
    outer loop
      vertex 2.499990e+02 4.046227e+01 -5.117139e+02
      vertex 2.499990e+02 3.817466e+01 -5.129277e+02
      vertex 2.499990e+02 4.110061e+01 -5.130558e+02
    endloop
  endfacet
  facet normal 1.000000e+00 0.000000e+00 0.000000e+00
    outer loop
      vertex 2.499990e+02 4.027746e+01 -5.147206e+02
      vertex 2.499990e+02 4.084412e+01 -5.155522e+02
      vertex 2.499990e+02 4.110061e+01 -5.130558e+02
    endloop
  endfacet
  facet normal 1.000000e+00 0.000000e+00 0.000000e+00
    outer loop
      vertex 2.499990e+02 3.983144e+01 -5.345146e+02
      vertex 2.499990e+02 4.110061e+01 -5.130558e+02
      vertex 2.499990e+02 4.084412e+01 -5.155522e+02
    endloop
  endfacet
  facet normal 1.000000e+00 0.000000e+00 0.000000e+00
    outer loop
      vertex 2.499990e+02 3.927401e+01 -5.147956e+02
      vertex 2.499990e+02 4.027746e+01 -5.147206e+02
      vertex 2.499990e+02 4.110061e+01 -5.130558e+02
    endloop
  endfacet
  facet normal 4.820241e-01 8.577038e-01 1.788770e-01
    outer loop
      vertex 2.499990e+02 4.046227e+01 -5.117139e+02
      vertex 2.491055e+02 4.101176e+01 -5.119410e+02
      vertex 2.487866e+02 4.090089e+01 -5.105499e+02
    endloop
  endfacet
  facet normal 0.000000e+00 -7.944738e-02 9.968391e-01
    outer loop
      vertex 2.494794e+02 4.050215e+01 -5.105816e+02
      vertex 2.487866e+02 4.090089e+01 -5.105499e+02
      vertex 1.162114e+02 4.090089e+01 -5.105499e+02
    endloop
  endfacet
  facet normal 4.957623e-01 8.456496e-01 1.977282e-01
    outer loop
      vertex 2.499990e+02 4.046227e+01 -5.117139e+02
      vertex 2.487866e+02 4.090089e+01 -5.105499e+02
      vertex 2.494794e+02 4.050215e+01 -5.105816e+02
    endloop
  endfacet
  facet normal 0.000000e+00 9.968391e-01 7.944738e-02
    outer loop
      vertex 1.158060e+02 4.219398e+01 -5.267745e+02
      vertex 1.158970e+02 4.101101e+01 -5.119316e+02
      vertex 1.162114e+02 4.090089e+01 -5.105499e+02
    endloop
  endfacet
  facet normal -4.968141e-01 8.488329e-01 1.807167e-01
    outer loop
      vertex 1.155186e+02 4.050215e+01 -5.105816e+02
      vertex 1.162114e+02 4.090089e+01 -5.105499e+02
      vertex 1.158970e+02 4.101101e+01 -5.119316e+02
    endloop
  endfacet
  facet normal 3.771615e-16 9.968391e-01 7.944738e-02
    outer loop
      vertex 1.177807e+02 4.327893e+01 -5.403875e+02
      vertex 1.158060e+02 4.219398e+01 -5.267745e+02
      vertex 1.162114e+02 4.090089e+01 -5.105499e+02
    endloop
  endfacet
  facet normal 0.000000e+00 -7.944738e-02 9.968391e-01
    outer loop
      vertex 2.494794e+02 4.050215e+01 -5.105816e+02
      vertex 1.162114e+02 4.090089e+01 -5.105499e+02
      vertex 1.155186e+02 4.050215e+01 -5.105816e+02
    endloop
  endfacet
  facet normal 5.999028e-15 9.968391e-01 7.944738e-02
    outer loop
      vertex 1.158060e+02 4.219398e+01 -5.267745e+02
      vertex 1.150152e+02 4.109958e+01 -5.130428e+02
      vertex 1.158970e+02 4.101101e+01 -5.119316e+02
    endloop
  endfacet
  facet normal -4.075041e-01 8.261064e-01 3.892154e-01
    outer loop
      vertex 1.150014e+02 4.045230e+01 -5.116835e+02
      vertex 1.158970e+02 4.101101e+01 -5.119316e+02
      vertex 1.150152e+02 4.109958e+01 -5.130428e+02
    endloop
  endfacet
  facet normal -4.968141e-01 8.488329e-01 1.807167e-01
    outer loop
      vertex 1.149992e+02 4.020321e+01 -5.106055e+02
      vertex 1.155186e+02 4.050215e+01 -5.105816e+02
      vertex 1.158970e+02 4.101101e+01 -5.119316e+02
    endloop
  endfacet
  facet normal -4.791332e-01 8.554188e-01 1.966979e-01
    outer loop
      vertex 1.149992e+02 4.020321e+01 -5.106055e+02
      vertex 1.158970e+02 4.101101e+01 -5.119316e+02
      vertex 1.150014e+02 4.045230e+01 -5.116835e+02
    endloop
  endfacet
  facet normal -9.983537e-01 6.809472e-03 -5.695156e-02
    outer loop
      vertex 1.157902e+02 3.921518e+01 -5.268541e+02
      vertex 1.150152e+02 4.109958e+01 -5.130428e+02
      vertex 1.158060e+02 4.219398e+01 -5.267745e+02
    endloop
  endfacet
  facet normal -9.984306e-01 -1.806416e-04 -5.600215e-02
    outer loop
      vertex 1.150110e+02 3.817699e+01 -5.129589e+02
      vertex 1.150152e+02 4.109958e+01 -5.130428e+02
      vertex 1.157902e+02 3.921518e+01 -5.268541e+02
    endloop
  endfacet
  facet normal -9.999532e-01 1.153378e-03 -9.607710e-03
    outer loop
      vertex 1.150014e+02 4.045230e+01 -5.116835e+02
      vertex 1.150152e+02 4.109958e+01 -5.130428e+02
      vertex 1.150110e+02 3.817699e+01 -5.129589e+02
    endloop
  endfacet
  facet normal -9.897033e-01 9.057895e-03 -1.428471e-01
    outer loop
      vertex 1.157902e+02 3.921518e+01 -5.268541e+02
      vertex 1.158060e+02 4.219398e+01 -5.267745e+02
      vertex 1.177807e+02 4.327893e+01 -5.403875e+02
    endloop
  endfacet
  facet normal -8.582457e-01 1.255808e-01 -4.976383e-01
    outer loop
      vertex 1.178938e+02 4.166763e+01 -5.409892e+02
      vertex 1.177807e+02 4.327893e+01 -5.403875e+02
      vertex 1.195033e+02 4.351103e+01 -5.432998e+02
    endloop
  endfacet
  facet normal -9.897766e-01 1.133127e-02 -1.421753e-01
    outer loop
      vertex 1.157902e+02 3.921518e+01 -5.268541e+02
      vertex 1.177807e+02 4.327893e+01 -5.403875e+02
      vertex 1.177807e+02 4.024443e+01 -5.406294e+02
    endloop
  endfacet
  facet normal -9.724519e-01 1.851946e-02 -2.323666e-01
    outer loop
      vertex 1.178938e+02 4.166763e+01 -5.409892e+02
      vertex 1.177807e+02 4.024443e+01 -5.406294e+02
      vertex 1.177807e+02 4.327893e+01 -5.403875e+02
    endloop
  endfacet
  facet normal -3.387862e-01 1.208479e-01 -9.330700e-01
    outer loop
      vertex 1.196938e+02 4.187420e+01 -5.435809e+02
      vertex 1.195033e+02 4.351103e+01 -5.432998e+02
      vertex 1.226938e+02 4.360242e+01 -5.444464e+02
    endloop
  endfacet
  facet normal -8.214339e-01 2.362939e-03 -5.702989e-01
    outer loop
      vertex 1.196938e+02 4.187420e+01 -5.435809e+02
      vertex 1.178938e+02 4.166763e+01 -5.409892e+02
      vertex 1.195033e+02 4.351103e+01 -5.432998e+02
    endloop
  endfacet
  facet normal -3.162269e-01 7.537042e-02 -9.456848e-01
    outer loop
      vertex 1.196938e+02 4.187420e+01 -5.435809e+02
      vertex 1.226938e+02 4.360242e+01 -5.444464e+02
      vertex 1.226938e+02 4.195364e+01 -5.445778e+02
    endloop
  endfacet
  facet normal -2.430073e-14 9.968391e-01 7.944738e-02
    outer loop
      vertex 1.155186e+02 4.050215e+01 -5.105816e+02
      vertex 1.181960e+02 3.799606e+01 -4.791373e+02
      vertex 1.182681e+02 3.798058e+01 -4.789430e+02
    endloop
  endfacet
  facet normal -9.377979e-01 -2.787081e-02 3.460612e-01
    outer loop
      vertex 1.182707e+02 3.679925e+01 -4.790313e+02
      vertex 1.182681e+02 3.798058e+01 -4.789430e+02
      vertex 1.181960e+02 3.799606e+01 -4.791373e+02
    endloop
  endfacet
  facet normal 0.000000e+00 9.968391e-01 7.944738e-02
    outer loop
      vertex 2.494794e+02 3.798058e+01 -4.789430e+02
      vertex 1.155186e+02 4.050215e+01 -5.105816e+02
      vertex 1.182681e+02 3.798058e+01 -4.789430e+02
    endloop
  endfacet
  facet normal 0.000000e+00 -7.450883e-02 9.972204e-01
    outer loop
      vertex 1.182707e+02 3.679925e+01 -4.790313e+02
      vertex 2.494794e+02 3.798058e+01 -4.789430e+02
      vertex 1.182681e+02 3.798058e+01 -4.789430e+02
    endloop
  endfacet
  facet normal 1.438342e-13 9.968391e-01 7.944738e-02
    outer loop
      vertex 1.155186e+02 4.050215e+01 -5.105816e+02
      vertex 1.181444e+02 3.801206e+01 -4.793381e+02
      vertex 1.181960e+02 3.799606e+01 -4.791373e+02
    endloop
  endfacet
  facet normal -9.685870e-01 -3.868922e-02 2.456468e-01
    outer loop
      vertex 1.182707e+02 3.679925e+01 -4.790313e+02
      vertex 1.181960e+02 3.799606e+01 -4.791373e+02
      vertex 1.181444e+02 3.801206e+01 -4.793381e+02
    endloop
  endfacet
  facet normal -2.801854e-16 9.968391e-01 7.944738e-02
    outer loop
      vertex 1.155186e+02 4.050215e+01 -5.105816e+02
      vertex 1.165559e+02 3.875121e+01 -4.886122e+02
      vertex 1.181444e+02 3.801206e+01 -4.793381e+02
    endloop
  endfacet
  facet normal -9.857341e-01 -1.337178e-02 1.677778e-01
    outer loop
      vertex 1.181444e+02 3.607759e+01 -4.794922e+02
      vertex 1.181444e+02 3.801206e+01 -4.793381e+02
      vertex 1.165559e+02 3.875121e+01 -4.886122e+02
    endloop
  endfacet
  facet normal -9.540922e-01 -2.379553e-02 2.985663e-01
    outer loop
      vertex 1.181444e+02 3.607759e+01 -4.794922e+02
      vertex 1.182707e+02 3.679925e+01 -4.790313e+02
      vertex 1.181444e+02 3.801206e+01 -4.793381e+02
    endloop
  endfacet
  facet normal -1.894193e-15 9.968391e-01 7.944738e-02
    outer loop
      vertex 1.155186e+02 4.050215e+01 -5.105816e+02
      vertex 1.155186e+02 3.949656e+01 -4.979643e+02
      vertex 1.165559e+02 3.875121e+01 -4.886122e+02
    endloop
  endfacet
  facet normal -9.935750e-01 1.841251e-02 1.116680e-01
    outer loop
      vertex 1.162253e+02 3.695668e+01 -4.912580e+02
      vertex 1.165559e+02 3.875121e+01 -4.886122e+02
      vertex 1.155186e+02 3.949656e+01 -4.979643e+02
    endloop
  endfacet
  facet normal -9.863099e-01 -4.997776e-02 1.571467e-01
    outer loop
      vertex 1.181444e+02 3.607759e+01 -4.794922e+02
      vertex 1.165559e+02 3.875121e+01 -4.886122e+02
      vertex 1.162253e+02 3.695668e+01 -4.912580e+02
    endloop
  endfacet
  facet normal -5.000000e-01 8.632880e-01 6.880345e-02
    outer loop
      vertex 1.151334e+02 3.977754e+01 -5.042891e+02
      vertex 1.155186e+02 3.949656e+01 -4.979643e+02
      vertex 1.155186e+02 4.050215e+01 -5.105816e+02
    endloop
  endfacet
  facet normal -9.948108e-01 -6.018772e-02 8.202998e-02
    outer loop
      vertex 1.162253e+02 3.695668e+01 -4.912580e+02
      vertex 1.155186e+02 3.949656e+01 -4.979643e+02
      vertex 1.151923e+02 3.784406e+01 -5.031346e+02
    endloop
  endfacet
  facet normal -9.981157e-01 6.083759e-03 6.105745e-02
    outer loop
      vertex 1.151334e+02 3.977754e+01 -5.042891e+02
      vertex 1.151923e+02 3.784406e+01 -5.031346e+02
      vertex 1.155186e+02 3.949656e+01 -4.979643e+02
    endloop
  endfacet
  facet normal 0.000000e+00 9.968391e-01 7.944738e-02
    outer loop
      vertex 2.494794e+02 3.798058e+01 -4.789430e+02
      vertex 2.494794e+02 4.050215e+01 -5.105816e+02
      vertex 1.155186e+02 4.050215e+01 -5.105816e+02
    endloop
  endfacet
  facet normal -5.000000e-01 8.632880e-01 6.880345e-02
    outer loop
      vertex 1.151334e+02 3.977754e+01 -5.042891e+02
      vertex 1.155186e+02 4.050215e+01 -5.105816e+02
      vertex 1.149992e+02 4.020321e+01 -5.106055e+02
    endloop
  endfacet
  facet normal 5.000000e-01 8.632880e-01 6.880345e-02
    outer loop
      vertex 2.499990e+02 4.020310e+01 -5.106055e+02
      vertex 2.494794e+02 4.050215e+01 -5.105816e+02
      vertex 2.494794e+02 3.798058e+01 -4.789430e+02
    endloop
  endfacet
  facet normal 4.957623e-01 8.456496e-01 1.977282e-01
    outer loop
      vertex 2.499990e+02 4.046227e+01 -5.117139e+02
      vertex 2.494794e+02 4.050215e+01 -5.105816e+02
      vertex 2.499990e+02 4.020310e+01 -5.106055e+02
    endloop
  endfacet
  facet normal 0.000000e+00 -7.450883e-02 9.972204e-01
    outer loop
      vertex 2.496526e+02 3.679925e+01 -4.790313e+02
      vertex 2.494794e+02 3.798058e+01 -4.789430e+02
      vertex 1.182707e+02 3.679925e+01 -4.790313e+02
    endloop
  endfacet
  facet normal 2.093053e-15 -7.450883e-02 9.972204e-01
    outer loop
      vertex 2.499990e+02 3.659981e+01 -4.790462e+02
      vertex 2.499990e+02 3.768141e+01 -4.789654e+02
      vertex 2.494794e+02 3.798058e+01 -4.789430e+02
    endloop
  endfacet
  facet normal 5.000000e-01 8.632880e-01 6.880345e-02
    outer loop
      vertex 2.499990e+02 4.020310e+01 -5.106055e+02
      vertex 2.494794e+02 3.798058e+01 -4.789430e+02
      vertex 2.499990e+02 3.768141e+01 -4.789654e+02
    endloop
  endfacet
  facet normal -1.428411e-13 -7.450883e-02 9.972204e-01
    outer loop
      vertex 2.496526e+02 3.679925e+01 -4.790313e+02
      vertex 2.499990e+02 3.659981e+01 -4.790462e+02
      vertex 2.494794e+02 3.798058e+01 -4.789430e+02
    endloop
  endfacet
  facet normal 0.000000e+00 9.972204e-01 7.450883e-02
    outer loop
      vertex 2.496526e+02 3.671140e+01 -4.778555e+02
      vertex 2.496526e+02 3.679925e+01 -4.790313e+02
      vertex 1.182707e+02 3.679925e+01 -4.790313e+02
    endloop
  endfacet
  facet normal 0.000000e+00 9.972204e-01 7.450883e-02
    outer loop
      vertex 1.201051e+02 3.670960e+01 -4.778314e+02
      vertex 2.494990e+02 3.670960e+01 -4.778314e+02
      vertex 1.182707e+02 3.679925e+01 -4.790313e+02
    endloop
  endfacet
  facet normal -3.141108e-15 9.972204e-01 7.450883e-02
    outer loop
      vertex 2.495767e+02 3.671005e+01 -4.778375e+02
      vertex 1.182707e+02 3.679925e+01 -4.790313e+02
      vertex 2.494990e+02 3.670960e+01 -4.778314e+02
    endloop
  endfacet
  facet normal 5.376840e-15 9.972204e-01 7.450883e-02
    outer loop
      vertex 1.190082e+02 3.673401e+01 -4.781581e+02
      vertex 1.201051e+02 3.670960e+01 -4.778314e+02
      vertex 1.182707e+02 3.679925e+01 -4.790313e+02
    endloop
  endfacet
  facet normal -7.633423e-01 1.441762e-02 6.458333e-01
    outer loop
      vertex 1.188381e+02 3.599169e+01 -4.783426e+02
      vertex 1.190082e+02 3.673401e+01 -4.781581e+02
      vertex 1.182707e+02 3.679925e+01 -4.790313e+02
    endloop
  endfacet
  facet normal -4.587421e-16 9.972204e-01 7.450883e-02
    outer loop
      vertex 2.495767e+02 3.671005e+01 -4.778375e+02
      vertex 2.496526e+02 3.671140e+01 -4.778555e+02
      vertex 1.182707e+02 3.679925e+01 -4.790313e+02
    endloop
  endfacet
  facet normal -8.492483e-01 -1.705875e-01 4.996771e-01
    outer loop
      vertex 1.188381e+02 3.599169e+01 -4.783426e+02
      vertex 1.182707e+02 3.679925e+01 -4.790313e+02
      vertex 1.181444e+02 3.607759e+01 -4.794922e+02
    endloop
  endfacet
  facet normal 1.000000e+00 0.000000e+00 0.000000e+00
    outer loop
      vertex 2.499990e+02 3.643387e+01 -4.842608e+02
      vertex 2.499990e+02 3.768141e+01 -4.789654e+02
      vertex 2.499990e+02 3.659981e+01 -4.790462e+02
    endloop
  endfacet
  facet normal 1.000000e+00 0.000000e+00 0.000000e+00
    outer loop
      vertex 2.499990e+02 3.854407e+01 -5.107377e+02
      vertex 2.499990e+02 3.768141e+01 -4.789654e+02
      vertex 2.499990e+02 3.643387e+01 -4.842608e+02
    endloop
  endfacet
  facet normal 1.000000e+00 0.000000e+00 0.000000e+00
    outer loop
      vertex 2.499990e+02 4.020310e+01 -5.106055e+02
      vertex 2.499990e+02 3.768141e+01 -4.789654e+02
      vertex 2.499990e+02 3.854407e+01 -5.107377e+02
    endloop
  endfacet
  facet normal 5.000000e-01 8.636182e-01 6.452654e-02
    outer loop
      vertex 2.496526e+02 3.671140e+01 -4.778555e+02
      vertex 2.499990e+02 3.659981e+01 -4.790462e+02
      vertex 2.496526e+02 3.679925e+01 -4.790313e+02
    endloop
  endfacet
  facet normal 5.000000e-01 8.636182e-01 6.452654e-02
    outer loop
      vertex 2.499990e+02 3.654748e+01 -4.783459e+02
      vertex 2.499990e+02 3.659981e+01 -4.790462e+02
      vertex 2.496526e+02 3.671140e+01 -4.778555e+02
    endloop
  endfacet
  facet normal 1.000000e+00 0.000000e+00 0.000000e+00
    outer loop
      vertex 2.499990e+02 3.654748e+01 -4.783459e+02
      vertex 2.499990e+02 3.643387e+01 -4.842608e+02
      vertex 2.499990e+02 3.659981e+01 -4.790462e+02
    endloop
  endfacet
  facet normal 0.000000e+00 -7.944738e-02 9.968391e-01
    outer loop
      vertex 2.494990e+02 3.595797e+01 -4.778913e+02
      vertex 2.494990e+02 3.670960e+01 -4.778314e+02
      vertex 1.201051e+02 3.670960e+01 -4.778314e+02
    endloop
  endfacet
  facet normal 7.699248e-02 -2.327935e-01 9.694737e-01
    outer loop
      vertex 2.498526e+02 3.596888e+01 -4.780373e+02
      vertex 2.495767e+02 3.671005e+01 -4.778375e+02
      vertex 2.494990e+02 3.670960e+01 -4.778314e+02
    endloop
  endfacet
  facet normal 3.826724e-01 -7.340017e-02 9.209637e-01
    outer loop
      vertex 2.498526e+02 3.596888e+01 -4.780373e+02
      vertex 2.494990e+02 3.670960e+01 -4.778314e+02
      vertex 2.494990e+02 3.595797e+01 -4.778913e+02
    endloop
  endfacet
  facet normal -2.862017e-01 -7.612404e-02 9.551407e-01
    outer loop
      vertex 1.201051e+02 3.595797e+01 -4.778913e+02
      vertex 1.201051e+02 3.670960e+01 -4.778314e+02
      vertex 1.190082e+02 3.673401e+01 -4.781581e+02
    endloop
  endfacet
  facet normal 0.000000e+00 -7.944738e-02 9.968391e-01
    outer loop
      vertex 1.201051e+02 3.595797e+01 -4.778913e+02
      vertex 2.494990e+02 3.595797e+01 -4.778913e+02
      vertex 1.201051e+02 3.670960e+01 -4.778314e+02
    endloop
  endfacet
  facet normal -3.351735e-01 -1.541765e-01 9.294559e-01
    outer loop
      vertex 1.188381e+02 3.599169e+01 -4.783426e+02
      vertex 1.201051e+02 3.595797e+01 -4.778913e+02
      vertex 1.190082e+02 3.673401e+01 -4.781581e+02
    endloop
  endfacet
  facet normal 2.308474e-01 -1.723381e-01 9.576059e-01
    outer loop
      vertex 2.498526e+02 3.596888e+01 -4.780373e+02
      vertex 2.496526e+02 3.671140e+01 -4.778555e+02
      vertex 2.495767e+02 3.671005e+01 -4.778375e+02
    endloop
  endfacet
  facet normal 6.096661e-01 -2.978825e-02 7.920985e-01
    outer loop
      vertex 2.499111e+02 3.657696e+01 -4.780596e+02
      vertex 2.496526e+02 3.671140e+01 -4.778555e+02
      vertex 2.498526e+02 3.596888e+01 -4.780373e+02
    endloop
  endfacet
  facet normal 5.000000e-01 8.636182e-01 6.452654e-02
    outer loop
      vertex 2.499111e+02 3.657696e+01 -4.780596e+02
      vertex 2.499990e+02 3.654748e+01 -4.783459e+02
      vertex 2.496526e+02 3.671140e+01 -4.778555e+02
    endloop
  endfacet
  facet normal 0.000000e+00 -9.972204e-01 -7.450883e-02
    outer loop
      vertex 2.497754e+02 3.837575e+01 -5.102506e+02
      vertex 2.494990e+02 3.595797e+01 -4.778913e+02
      vertex 1.201051e+02 3.595797e+01 -4.778913e+02
    endloop
  endfacet
  facet normal -1.987428e-14 -9.972204e-01 -7.450883e-02
    outer loop
      vertex 2.498526e+02 3.596888e+01 -4.780373e+02
      vertex 2.494990e+02 3.595797e+01 -4.778913e+02
      vertex 2.497754e+02 3.837575e+01 -5.102506e+02
    endloop
  endfacet
  facet normal 1.461780e-15 -9.972204e-01 -7.450883e-02
    outer loop
      vertex 1.188381e+02 3.599169e+01 -4.783426e+02
      vertex 2.497754e+02 3.837575e+01 -5.102506e+02
      vertex 1.201051e+02 3.595797e+01 -4.778913e+02
    endloop
  endfacet
  facet normal 2.630199e-14 -9.972204e-01 -7.450883e-02
    outer loop
      vertex 2.498526e+02 3.596888e+01 -4.780373e+02
      vertex 2.499990e+02 3.643387e+01 -4.842608e+02
      vertex 2.499990e+02 3.599523e+01 -4.783899e+02
    endloop
  endfacet
  facet normal 1.000000e+00 0.000000e+00 0.000000e+00
    outer loop
      vertex 2.499990e+02 3.654748e+01 -4.783459e+02
      vertex 2.499990e+02 3.599523e+01 -4.783899e+02
      vertex 2.499990e+02 3.643387e+01 -4.842608e+02
    endloop
  endfacet
  facet normal 9.228741e-01 -7.510563e-02 3.777069e-01
    outer loop
      vertex 2.499111e+02 3.657696e+01 -4.780596e+02
      vertex 2.498526e+02 3.596888e+01 -4.780373e+02
      vertex 2.499990e+02 3.599523e+01 -4.783899e+02
    endloop
  endfacet
  facet normal 9.550582e-01 -2.354965e-02 2.954813e-01
    outer loop
      vertex 2.499111e+02 3.657696e+01 -4.780596e+02
      vertex 2.499990e+02 3.599523e+01 -4.783899e+02
      vertex 2.499990e+02 3.654748e+01 -4.783459e+02
    endloop
  endfacet
  facet normal 2.249376e-14 -9.972204e-01 -7.450883e-02
    outer loop
      vertex 2.498526e+02 3.596888e+01 -4.780373e+02
      vertex 2.497754e+02 3.837575e+01 -5.102506e+02
      vertex 2.499990e+02 3.643387e+01 -4.842608e+02
    endloop
  endfacet
  facet normal 5.000000e-01 -8.632880e-01 -6.880345e-02
    outer loop
      vertex 2.499990e+02 3.854407e+01 -5.107377e+02
      vertex 2.499990e+02 3.643387e+01 -4.842608e+02
      vertex 2.497754e+02 3.837575e+01 -5.102506e+02
    endloop
  endfacet
  facet normal 0.000000e+00 -9.972204e-01 -7.450883e-02
    outer loop
      vertex 1.162253e+02 3.695668e+01 -4.912580e+02
      vertex 1.152535e+02 3.837575e+01 -5.102506e+02
      vertex 2.497754e+02 3.837575e+01 -5.102506e+02
    endloop
  endfacet
  facet normal 0.000000e+00 -7.450883e-02 9.972204e-01
    outer loop
      vertex 2.490826e+02 3.797686e+01 -5.102804e+02
      vertex 2.497754e+02 3.837575e+01 -5.102506e+02
      vertex 1.152535e+02 3.837575e+01 -5.102506e+02
    endloop
  endfacet
  facet normal -3.305368e-17 -9.972204e-01 -7.450883e-02
    outer loop
      vertex 1.181444e+02 3.607759e+01 -4.794922e+02
      vertex 1.162253e+02 3.695668e+01 -4.912580e+02
      vertex 2.497754e+02 3.837575e+01 -5.102506e+02
    endloop
  endfacet
  facet normal -5.899162e-17 -9.972204e-01 -7.450883e-02
    outer loop
      vertex 1.188381e+02 3.599169e+01 -4.783426e+02
      vertex 1.181444e+02 3.607759e+01 -4.794922e+02
      vertex 2.497754e+02 3.837575e+01 -5.102506e+02
    endloop
  endfacet
  facet normal 5.000000e-01 -8.632880e-01 -6.880345e-02
    outer loop
      vertex 2.490783e+02 3.801418e+01 -5.107799e+02
      vertex 2.497754e+02 3.837575e+01 -5.102506e+02
      vertex 2.490826e+02 3.797686e+01 -5.102804e+02
    endloop
  endfacet
  facet normal 5.000000e-01 -8.632880e-01 -6.880345e-02
    outer loop
      vertex 2.499990e+02 3.854407e+01 -5.107377e+02
      vertex 2.497754e+02 3.837575e+01 -5.102506e+02
      vertex 2.490783e+02 3.801418e+01 -5.107799e+02
    endloop
  endfacet
  facet normal -1.008730e-14 -9.972204e-01 -7.450883e-02
    outer loop
      vertex 1.162253e+02 3.695668e+01 -4.912580e+02
      vertex 1.151923e+02 3.784406e+01 -5.031346e+02
      vertex 1.152535e+02 3.837575e+01 -5.102506e+02
    endloop
  endfacet
  facet normal -5.000000e-01 -8.632880e-01 -6.880345e-02
    outer loop
      vertex 1.150501e+02 3.822908e+01 -5.069327e+02
      vertex 1.152535e+02 3.837575e+01 -5.102506e+02
      vertex 1.151923e+02 3.784406e+01 -5.031346e+02
    endloop
  endfacet
  facet normal 0.000000e+00 -7.450883e-02 9.972204e-01
    outer loop
      vertex 1.159463e+02 3.797686e+01 -5.102804e+02
      vertex 2.490826e+02 3.797686e+01 -5.102804e+02
      vertex 1.152535e+02 3.837575e+01 -5.102506e+02
    endloop
  endfacet
  facet normal -5.000000e-01 -8.632880e-01 -6.880345e-02
    outer loop
      vertex 1.149992e+02 3.856175e+01 -5.107363e+02
      vertex 1.159463e+02 3.797686e+01 -5.102804e+02
      vertex 1.152535e+02 3.837575e+01 -5.102506e+02
    endloop
  endfacet
  facet normal -5.000000e-01 -8.632880e-01 -6.880345e-02
    outer loop
      vertex 1.149992e+02 3.856175e+01 -5.107363e+02
      vertex 1.152535e+02 3.837575e+01 -5.102506e+02
      vertex 1.150501e+02 3.822908e+01 -5.069327e+02
    endloop
  endfacet
  facet normal -9.992959e-01 -8.602798e-03 3.652054e-02
    outer loop
      vertex 1.151334e+02 3.977754e+01 -5.042891e+02
      vertex 1.150501e+02 3.822908e+01 -5.069327e+02
      vertex 1.151923e+02 3.784406e+01 -5.031346e+02
    endloop
  endfacet
  facet normal 0.000000e+00 -9.972204e-01 -7.450883e-02
    outer loop
      vertex 2.490783e+02 3.801418e+01 -5.107799e+02
      vertex 2.490826e+02 3.797686e+01 -5.102804e+02
      vertex 1.159463e+02 3.797686e+01 -5.102804e+02
    endloop
  endfacet
  facet normal 0.000000e+00 -9.972204e-01 -7.450883e-02
    outer loop
      vertex 1.319990e+02 3.826180e+01 -5.140941e+02
      vertex 2.239990e+02 3.826180e+01 -5.140941e+02
      vertex 1.159463e+02 3.797686e+01 -5.102804e+02
    endloop
  endfacet
  facet normal -2.278974e-15 -9.972204e-01 -7.450883e-02
    outer loop
      vertex 2.329940e+02 3.828043e+01 -5.143434e+02
      vertex 1.159463e+02 3.797686e+01 -5.102804e+02
      vertex 2.239990e+02 3.826180e+01 -5.140941e+02
    endloop
  endfacet
  facet normal 1.085996e-15 -9.972204e-01 -7.450883e-02
    outer loop
      vertex 1.305701e+02 3.832327e+01 -5.149168e+02
      vertex 1.319990e+02 3.826180e+01 -5.140941e+02
      vertex 1.159463e+02 3.797686e+01 -5.102804e+02
    endloop
  endfacet
  facet normal -1.223902e-15 -9.972204e-01 -7.450883e-02
    outer loop
      vertex 1.305701e+02 3.844621e+01 -5.165623e+02
      vertex 1.305701e+02 3.832327e+01 -5.149168e+02
      vertex 1.159463e+02 3.797686e+01 -5.102804e+02
    endloop
  endfacet
  facet normal 9.696194e-17 -9.972204e-01 -7.450883e-02
    outer loop
      vertex 1.178938e+02 4.027957e+01 -5.410998e+02
      vertex 1.305701e+02 3.844621e+01 -5.165623e+02
      vertex 1.159463e+02 3.797686e+01 -5.102804e+02
    endloop
  endfacet
  facet normal -1.331227e-15 -9.972204e-01 -7.450883e-02
    outer loop
      vertex 2.337453e+02 3.809426e+01 -5.118517e+02
      vertex 2.352477e+02 3.809426e+01 -5.118517e+02
      vertex 1.159463e+02 3.797686e+01 -5.102804e+02
    endloop
  endfacet
  facet normal -3.325859e-17 -9.972204e-01 -7.450883e-02
    outer loop
      vertex 2.490783e+02 3.801418e+01 -5.107799e+02
      vertex 1.159463e+02 3.797686e+01 -5.102804e+02
      vertex 2.352477e+02 3.809426e+01 -5.118517e+02
    endloop
  endfacet
  facet normal -9.343823e-18 -9.972204e-01 -7.450883e-02
    outer loop
      vertex 2.329940e+02 3.819121e+01 -5.131493e+02
      vertex 2.337453e+02 3.809426e+01 -5.118517e+02
      vertex 1.159463e+02 3.797686e+01 -5.102804e+02
    endloop
  endfacet
  facet normal 4.237642e-17 -9.972204e-01 -7.450883e-02
    outer loop
      vertex 2.329940e+02 3.828043e+01 -5.143434e+02
      vertex 2.329940e+02 3.819121e+01 -5.131493e+02
      vertex 1.159463e+02 3.797686e+01 -5.102804e+02
    endloop
  endfacet
  facet normal -8.072318e-14 -9.972204e-01 -7.450883e-02
    outer loop
      vertex 1.178315e+02 4.026210e+01 -5.408659e+02
      vertex 1.178938e+02 4.027957e+01 -5.410998e+02
      vertex 1.159463e+02 3.797686e+01 -5.102804e+02
    endloop
  endfacet
  facet normal -1.268851e-13 -9.972204e-01 -7.450883e-02
    outer loop
      vertex 1.177807e+02 4.024443e+01 -5.406294e+02
      vertex 1.178315e+02 4.026210e+01 -5.408659e+02
      vertex 1.159463e+02 3.797686e+01 -5.102804e+02
    endloop
  endfacet
  facet normal -9.889976e-14 -9.972204e-01 -7.450883e-02
    outer loop
      vertex 1.159506e+02 3.801418e+01 -5.107799e+02
      vertex 1.177807e+02 4.024443e+01 -5.406294e+02
      vertex 1.159463e+02 3.797686e+01 -5.102804e+02
    endloop
  endfacet
  facet normal -5.000000e-01 -8.632880e-01 -6.880345e-02
    outer loop
      vertex 1.149992e+02 3.856175e+01 -5.107363e+02
      vertex 1.159506e+02 3.801418e+01 -5.107799e+02
      vertex 1.159463e+02 3.797686e+01 -5.102804e+02
    endloop
  endfacet
  facet normal 0.000000e+00 -9.972204e-01 -7.450883e-02
    outer loop
      vertex 2.329940e+02 3.828043e+01 -5.143434e+02
      vertex 2.244532e+02 3.826655e+01 -5.141577e+02
      vertex 2.248722e+02 3.828043e+01 -5.143434e+02
    endloop
  endfacet
  facet normal -2.390382e-15 -9.972204e-01 -7.450883e-02
    outer loop
      vertex 2.329940e+02 3.828043e+01 -5.143434e+02
      vertex 2.239990e+02 3.826180e+01 -5.140941e+02
      vertex 2.244532e+02 3.826655e+01 -5.141577e+02
    endloop
  endfacet
  facet normal -1.713338e-15 -9.972204e-01 -7.450883e-02
    outer loop
      vertex 1.178938e+02 4.027957e+01 -5.410998e+02
      vertex 1.319990e+02 3.850768e+01 -5.173850e+02
      vertex 1.305701e+02 3.844621e+01 -5.165623e+02
    endloop
  endfacet
  facet normal 0.000000e+00 -9.972204e-01 -7.450883e-02
    outer loop
      vertex 2.499990e+02 4.027957e+01 -5.410998e+02
      vertex 2.239990e+02 3.850768e+01 -5.173850e+02
      vertex 1.319990e+02 3.850768e+01 -5.173850e+02
    endloop
  endfacet
  facet normal 0.000000e+00 -9.972204e-01 -7.450883e-02
    outer loop
      vertex 1.178938e+02 4.027957e+01 -5.410998e+02
      vertex 2.499990e+02 4.027957e+01 -5.410998e+02
      vertex 1.319990e+02 3.850768e+01 -5.173850e+02
    endloop
  endfacet
  facet normal -5.703012e-16 -9.972204e-01 -7.450883e-02
    outer loop
      vertex 2.499990e+02 4.027957e+01 -5.410998e+02
      vertex 2.244532e+02 3.850293e+01 -5.173214e+02
      vertex 2.239990e+02 3.850768e+01 -5.173850e+02
    endloop
  endfacet
  facet normal 7.226417e-15 -9.972204e-01 -7.450883e-02
    outer loop
      vertex 2.499990e+02 4.027957e+01 -5.410998e+02
      vertex 2.248722e+02 3.848906e+01 -5.171357e+02
      vertex 2.244532e+02 3.850293e+01 -5.173214e+02
    endloop
  endfacet
  facet normal 0.000000e+00 -9.972204e-01 -7.450883e-02
    outer loop
      vertex 2.329940e+02 3.857828e+01 -5.183298e+02
      vertex 2.329940e+02 3.848906e+01 -5.171357e+02
      vertex 2.248722e+02 3.848906e+01 -5.171357e+02
    endloop
  endfacet
  facet normal -1.110969e-15 -9.972204e-01 -7.450883e-02
    outer loop
      vertex 2.337453e+02 3.867523e+01 -5.196274e+02
      vertex 2.329940e+02 3.857828e+01 -5.183298e+02
      vertex 2.248722e+02 3.848906e+01 -5.171357e+02
    endloop
  endfacet
  facet normal 7.084517e-16 -9.972204e-01 -7.450883e-02
    outer loop
      vertex 2.499990e+02 4.027957e+01 -5.410998e+02
      vertex 2.337453e+02 3.867523e+01 -5.196274e+02
      vertex 2.248722e+02 3.848906e+01 -5.171357e+02
    endloop
  endfacet
  facet normal -7.028096e-15 -9.972204e-01 -7.450883e-02
    outer loop
      vertex 2.499990e+02 4.027957e+01 -5.410998e+02
      vertex 2.352477e+02 3.867523e+01 -5.196274e+02
      vertex 2.337453e+02 3.867523e+01 -5.196274e+02
    endloop
  endfacet
  facet normal 2.611511e-15 -9.972204e-01 -7.450883e-02
    outer loop
      vertex 2.499990e+02 4.027957e+01 -5.410998e+02
      vertex 2.359990e+02 3.857828e+01 -5.183298e+02
      vertex 2.352477e+02 3.867523e+01 -5.196274e+02
    endloop
  endfacet
  facet normal -1.953913e-16 -9.972204e-01 -7.450883e-02
    outer loop
      vertex 2.499990e+02 4.027957e+01 -5.410998e+02
      vertex 2.359990e+02 3.819121e+01 -5.131493e+02
      vertex 2.359990e+02 3.857828e+01 -5.183298e+02
    endloop
  endfacet
  facet normal -1.000000e+00 0.000000e+00 0.000000e+00
    outer loop
      vertex 2.359990e+02 3.883721e+01 -5.157021e+02
      vertex 2.359990e+02 3.857828e+01 -5.183298e+02
      vertex 2.359990e+02 3.819121e+01 -5.131493e+02
    endloop
  endfacet
  facet normal -1.000000e+00 0.000000e+00 0.000000e+00
    outer loop
      vertex 2.359990e+02 3.940387e+01 -5.165336e+02
      vertex 2.359990e+02 3.857828e+01 -5.183298e+02
      vertex 2.359990e+02 3.883721e+01 -5.157021e+02
    endloop
  endfacet
  facet normal 4.132972e-17 -9.972204e-01 -7.450883e-02
    outer loop
      vertex 2.490783e+02 3.801418e+01 -5.107799e+02
      vertex 2.352477e+02 3.809426e+01 -5.118517e+02
      vertex 2.359990e+02 3.819121e+01 -5.131493e+02
    endloop
  endfacet
  facet normal -2.376737e-16 -9.972204e-01 -7.450883e-02
    outer loop
      vertex 2.490783e+02 3.801418e+01 -5.107799e+02
      vertex 2.359990e+02 3.819121e+01 -5.131493e+02
      vertex 2.499990e+02 4.027957e+01 -5.410998e+02
    endloop
  endfacet
  facet normal -1.000000e+00 0.000000e+00 0.000000e+00
    outer loop
      vertex 2.359990e+02 3.927401e+01 -5.147956e+02
      vertex 2.359990e+02 3.819121e+01 -5.131493e+02
      vertex 2.359990e+02 4.027746e+01 -5.147206e+02
    endloop
  endfacet
  facet normal -1.000000e+00 0.000000e+00 0.000000e+00
    outer loop
      vertex 2.359990e+02 3.883721e+01 -5.157021e+02
      vertex 2.359990e+02 3.819121e+01 -5.131493e+02
      vertex 2.359990e+02 3.927401e+01 -5.147956e+02
    endloop
  endfacet
  facet normal 0.000000e+00 7.944738e-02 -9.968391e-01
    outer loop
      vertex 2.499990e+02 4.035579e+01 -5.410937e+02
      vertex 2.499990e+02 4.027957e+01 -5.410998e+02
      vertex 1.178938e+02 4.027957e+01 -5.410998e+02
    endloop
  endfacet
  facet normal 3.294350e-15 -9.972204e-01 -7.450883e-02
    outer loop
      vertex 2.493133e+02 3.810160e+01 -5.119500e+02
      vertex 2.490783e+02 3.801418e+01 -5.107799e+02
      vertex 2.499990e+02 4.027957e+01 -5.410998e+02
    endloop
  endfacet
  facet normal 6.671583e-15 -9.972204e-01 -7.450883e-02
    outer loop
      vertex 2.499990e+02 3.817466e+01 -5.129277e+02
      vertex 2.493133e+02 3.810160e+01 -5.119500e+02
      vertex 2.499990e+02 4.027957e+01 -5.410998e+02
    endloop
  endfacet
  facet normal 1.000000e+00 0.000000e+00 0.000000e+00
    outer loop
      vertex 2.499990e+02 3.983144e+01 -5.345146e+02
      vertex 2.499990e+02 3.817466e+01 -5.129277e+02
      vertex 2.499990e+02 4.027957e+01 -5.410998e+02
    endloop
  endfacet
  facet normal 1.000000e+00 0.000000e+00 0.000000e+00
    outer loop
      vertex 2.499990e+02 3.983144e+01 -5.345146e+02
      vertex 2.499990e+02 4.027957e+01 -5.410998e+02
      vertex 2.499990e+02 4.035579e+01 -5.410937e+02
    endloop
  endfacet
  facet normal -9.665106e-01 2.038832e-02 -2.558156e-01
    outer loop
      vertex 1.178938e+02 4.166763e+01 -5.409892e+02
      vertex 1.178938e+02 4.027957e+01 -5.410998e+02
      vertex 1.178315e+02 4.026210e+01 -5.408659e+02
    endloop
  endfacet
  facet normal -9.777774e-01 2.506638e-02 -2.081419e-01
    outer loop
      vertex 1.178938e+02 4.166763e+01 -5.409892e+02
      vertex 1.178315e+02 4.026210e+01 -5.408659e+02
      vertex 1.177807e+02 4.024443e+01 -5.406294e+02
    endloop
  endfacet
  facet normal 1.242895e-15 -9.972204e-01 -7.450883e-02
    outer loop
      vertex 1.159506e+02 3.801418e+01 -5.107799e+02
      vertex 1.157902e+02 3.921518e+01 -5.268541e+02
      vertex 1.177807e+02 4.024443e+01 -5.406294e+02
    endloop
  endfacet
  facet normal 3.249664e-15 -9.972204e-01 -7.450883e-02
    outer loop
      vertex 1.157106e+02 3.810295e+01 -5.119680e+02
      vertex 1.150110e+02 3.817699e+01 -5.129589e+02
      vertex 1.157902e+02 3.921518e+01 -5.268541e+02
    endloop
  endfacet
  facet normal 1.811469e-16 -9.972204e-01 -7.450883e-02
    outer loop
      vertex 1.159506e+02 3.801418e+01 -5.107799e+02
      vertex 1.157106e+02 3.810295e+01 -5.119680e+02
      vertex 1.157902e+02 3.921518e+01 -5.268541e+02
    endloop
  endfacet
  facet normal -4.200651e-01 -8.775979e-01 2.310134e-01
    outer loop
      vertex 1.150007e+02 3.850982e+01 -5.117132e+02
      vertex 1.150110e+02 3.817699e+01 -5.129589e+02
      vertex 1.157106e+02 3.810295e+01 -5.119680e+02
    endloop
  endfacet
  facet normal -9.999650e-01 4.508372e-04 -8.354557e-03
    outer loop
      vertex 1.150014e+02 4.045230e+01 -5.116835e+02
      vertex 1.150110e+02 3.817699e+01 -5.129589e+02
      vertex 1.150007e+02 3.850982e+01 -5.117132e+02
    endloop
  endfacet
  facet normal -4.879437e-01 -8.722362e-01 3.339070e-02
    outer loop
      vertex 1.150007e+02 3.850982e+01 -5.117132e+02
      vertex 1.157106e+02 3.810295e+01 -5.119680e+02
      vertex 1.159506e+02 3.801418e+01 -5.107799e+02
    endloop
  endfacet
  facet normal -4.967409e-01 -8.667171e-01 4.527551e-02
    outer loop
      vertex 1.150007e+02 3.850982e+01 -5.117132e+02
      vertex 1.159506e+02 3.801418e+01 -5.107799e+02
      vertex 1.149992e+02 3.856175e+01 -5.107363e+02
    endloop
  endfacet
  facet normal 4.972945e-01 -8.668703e-01 3.512867e-02
    outer loop
      vertex 2.499990e+02 3.854407e+01 -5.107377e+02
      vertex 2.490783e+02 3.801418e+01 -5.107799e+02
      vertex 2.493133e+02 3.810160e+01 -5.119500e+02
    endloop
  endfacet
  facet normal 4.239880e-01 -8.754723e-01 2.319103e-01
    outer loop
      vertex 2.499990e+02 3.848723e+01 -5.117478e+02
      vertex 2.493133e+02 3.810160e+01 -5.119500e+02
      vertex 2.499990e+02 3.817466e+01 -5.129277e+02
    endloop
  endfacet
  facet normal 4.785177e-01 -8.766910e-01 4.933290e-02
    outer loop
      vertex 2.499990e+02 3.854407e+01 -5.107377e+02
      vertex 2.493133e+02 3.810160e+01 -5.119500e+02
      vertex 2.499990e+02 3.848723e+01 -5.117478e+02
    endloop
  endfacet
  facet normal 1.000000e+00 0.000000e+00 0.000000e+00
    outer loop
      vertex 2.499990e+02 3.883721e+01 -5.157021e+02
      vertex 2.499990e+02 3.927401e+01 -5.147956e+02
      vertex 2.499990e+02 3.817466e+01 -5.129277e+02
    endloop
  endfacet
  facet normal 1.000000e+00 0.000000e+00 0.000000e+00
    outer loop
      vertex 2.499990e+02 3.983144e+01 -5.345146e+02
      vertex 2.499990e+02 3.883721e+01 -5.157021e+02
      vertex 2.499990e+02 3.817466e+01 -5.129277e+02
    endloop
  endfacet
  facet normal 1.000000e+00 0.000000e+00 0.000000e+00
    outer loop
      vertex 2.499990e+02 4.046227e+01 -5.117139e+02
      vertex 2.499990e+02 3.848723e+01 -5.117478e+02
      vertex 2.499990e+02 3.817466e+01 -5.129277e+02
    endloop
  endfacet
  facet normal -1.578190e-15 -9.968391e-01 -7.944738e-02
    outer loop
      vertex 2.514635e+02 4.011233e+01 -5.380389e+02
      vertex 2.499990e+02 4.035579e+01 -5.410937e+02
      vertex 2.549990e+02 4.022868e+01 -5.394988e+02
    endloop
  endfacet
  facet normal 3.434458e-15 -9.968391e-01 -7.944738e-02
    outer loop
      vertex 2.514635e+02 4.011233e+01 -5.380389e+02
      vertex 2.499990e+02 3.983144e+01 -5.345146e+02
      vertex 2.499990e+02 4.035579e+01 -5.410937e+02
    endloop
  endfacet
  facet normal 2.123295e-15 -9.968391e-01 -7.944738e-02
    outer loop
      vertex 1.196938e+02 4.187420e+01 -5.435809e+02
      vertex 1.226938e+02 4.195364e+01 -5.445778e+02
      vertex 1.178938e+02 4.166763e+01 -5.409892e+02
    endloop
  endfacet
  facet normal 0.000000e+00 -9.968391e-01 -7.944738e-02
    outer loop
      vertex 1.239990e+02 4.195364e+01 -5.445778e+02
      vertex 1.178938e+02 4.166763e+01 -5.409892e+02
      vertex 1.226938e+02 4.195364e+01 -5.445778e+02
    endloop
  endfacet
  facet normal 3.764668e-15 -9.968391e-01 -7.944738e-02
    outer loop
      vertex 1.239990e+02 4.195364e+01 -5.445778e+02
      vertex 1.239990e+02 4.187785e+01 -5.436268e+02
      vertex 1.178938e+02 4.166763e+01 -5.409892e+02
    endloop
  endfacet
  facet normal -1.000000e+00 0.000000e+00 0.000000e+00
    outer loop
      vertex 1.239990e+02 4.054781e+01 -5.446898e+02
      vertex 1.239990e+02 4.187785e+01 -5.436268e+02
      vertex 1.239990e+02 4.195364e+01 -5.445778e+02
    endloop
  endfacet
  facet normal -1.000000e+00 0.000000e+00 0.000000e+00
    outer loop
      vertex 1.239990e+02 4.054781e+01 -5.446898e+02
      vertex 1.239990e+02 4.047673e+01 -5.437385e+02
      vertex 1.239990e+02 4.187785e+01 -5.436268e+02
    endloop
  endfacet
  facet normal 1.849556e-16 -9.968391e-01 -7.944738e-02
    outer loop
      vertex 2.940825e+02 4.026984e+01 -5.400152e+02
      vertex 2.933049e+02 4.022868e+01 -5.394988e+02
      vertex 2.549990e+02 4.022868e+01 -5.394988e+02
    endloop
  endfacet
  facet normal 8.680839e-17 -9.968391e-01 -7.944738e-02
    outer loop
      vertex 2.949990e+02 4.028429e+01 -5.401966e+02
      vertex 2.940825e+02 4.026984e+01 -5.400152e+02
      vertex 2.549990e+02 4.022868e+01 -5.394988e+02
    endloop
  endfacet
  facet normal 0.000000e+00 -8.263637e-01 -5.631367e-01
    outer loop
      vertex 2.359990e+02 4.084412e+01 -5.155522e+02
      vertex 2.499990e+02 4.084412e+01 -5.155522e+02
      vertex 2.499990e+02 4.027746e+01 -5.147206e+02
    endloop
  endfacet
  facet normal 1.000000e+00 0.000000e+00 0.000000e+00
    outer loop
      vertex 2.499990e+02 3.983144e+01 -5.345146e+02
      vertex 2.499990e+02 4.084412e+01 -5.155522e+02
      vertex 2.499990e+02 4.040732e+01 -5.164587e+02
    endloop
  endfacet
  facet normal 0.000000e+00 -9.008726e-01 4.340836e-01
    outer loop
      vertex 2.359990e+02 4.040732e+01 -5.164587e+02
      vertex 2.499990e+02 4.040732e+01 -5.164587e+02
      vertex 2.499990e+02 4.084412e+01 -5.155522e+02
    endloop
  endfacet
  facet normal 0.000000e+00 -9.008726e-01 4.340836e-01
    outer loop
      vertex 2.359990e+02 4.040732e+01 -5.164587e+02
      vertex 2.499990e+02 4.084412e+01 -5.155522e+02
      vertex 2.359990e+02 4.084412e+01 -5.155522e+02
    endloop
  endfacet
  facet normal 0.000000e+00 7.450883e-02 -9.972204e-01
    outer loop
      vertex 2.359990e+02 4.027746e+01 -5.147206e+02
      vertex 2.499990e+02 4.027746e+01 -5.147206e+02
      vertex 2.499990e+02 3.927401e+01 -5.147956e+02
    endloop
  endfacet
  facet normal 0.000000e+00 -8.263637e-01 -5.631367e-01
    outer loop
      vertex 2.359990e+02 4.027746e+01 -5.147206e+02
      vertex 2.359990e+02 4.084412e+01 -5.155522e+02
      vertex 2.499990e+02 4.027746e+01 -5.147206e+02
    endloop
  endfacet
  facet normal 0.000000e+00 9.008726e-01 -4.340836e-01
    outer loop
      vertex 2.359990e+02 3.927401e+01 -5.147956e+02
      vertex 2.499990e+02 3.927401e+01 -5.147956e+02
      vertex 2.499990e+02 3.883721e+01 -5.157021e+02
    endloop
  endfacet
  facet normal 0.000000e+00 7.450883e-02 -9.972204e-01
    outer loop
      vertex 2.359990e+02 3.927401e+01 -5.147956e+02
      vertex 2.359990e+02 4.027746e+01 -5.147206e+02
      vertex 2.499990e+02 3.927401e+01 -5.147956e+02
    endloop
  endfacet
  facet normal 1.000000e+00 0.000000e+00 0.000000e+00
    outer loop
      vertex 2.499990e+02 3.983144e+01 -5.345146e+02
      vertex 2.499990e+02 3.940387e+01 -5.165336e+02
      vertex 2.499990e+02 3.883721e+01 -5.157021e+02
    endloop
  endfacet
  facet normal 0.000000e+00 8.263637e-01 5.631367e-01
    outer loop
      vertex 2.359990e+02 3.883721e+01 -5.157021e+02
      vertex 2.499990e+02 3.883721e+01 -5.157021e+02
      vertex 2.499990e+02 3.940387e+01 -5.165336e+02
    endloop
  endfacet
  facet normal 0.000000e+00 9.008726e-01 -4.340836e-01
    outer loop
      vertex 2.359990e+02 3.883721e+01 -5.157021e+02
      vertex 2.359990e+02 3.927401e+01 -5.147956e+02
      vertex 2.499990e+02 3.883721e+01 -5.157021e+02
    endloop
  endfacet
  facet normal 1.000000e+00 0.000000e+00 0.000000e+00
    outer loop
      vertex 2.499990e+02 3.983144e+01 -5.345146e+02
      vertex 2.499990e+02 4.040732e+01 -5.164587e+02
      vertex 2.499990e+02 3.940387e+01 -5.165336e+02
    endloop
  endfacet
  facet normal -3.781551e-17 -7.450883e-02 9.972204e-01
    outer loop
      vertex 2.359990e+02 3.940387e+01 -5.165336e+02
      vertex 2.499990e+02 3.940387e+01 -5.165336e+02
      vertex 2.499990e+02 4.040732e+01 -5.164587e+02
    endloop
  endfacet
  facet normal 4.194048e-16 8.263637e-01 5.631367e-01
    outer loop
      vertex 2.359990e+02 3.940387e+01 -5.165336e+02
      vertex 2.359990e+02 3.883721e+01 -5.157021e+02
      vertex 2.499990e+02 3.940387e+01 -5.165336e+02
    endloop
  endfacet
  facet normal 0.000000e+00 -7.450883e-02 9.972204e-01
    outer loop
      vertex 2.359990e+02 4.040732e+01 -5.164587e+02
      vertex 2.359990e+02 3.940387e+01 -5.165336e+02
      vertex 2.499990e+02 4.040732e+01 -5.164587e+02
    endloop
  endfacet
  facet normal 1.000000e+00 0.000000e+00 0.000000e+00
    outer loop
      vertex 2.499990e+02 4.020310e+01 -5.106055e+02
      vertex 2.499990e+02 3.854407e+01 -5.107377e+02
      vertex 2.499990e+02 3.848723e+01 -5.117478e+02
    endloop
  endfacet
  facet normal 1.000000e+00 0.000000e+00 0.000000e+00
    outer loop
      vertex 2.499990e+02 4.046227e+01 -5.117139e+02
      vertex 2.499990e+02 4.020310e+01 -5.106055e+02
      vertex 2.499990e+02 3.848723e+01 -5.117478e+02
    endloop
  endfacet
  facet normal -9.999109e-01 -1.043324e-03 1.331027e-02
    outer loop
      vertex 1.149992e+02 4.020321e+01 -5.106055e+02
      vertex 1.149992e+02 3.856175e+01 -5.107363e+02
      vertex 1.150501e+02 3.822908e+01 -5.069327e+02
    endloop
  endfacet
  facet normal -9.996282e-01 1.569120e-02 2.230122e-02
    outer loop
      vertex 1.151334e+02 3.977754e+01 -5.042891e+02
      vertex 1.149992e+02 4.020321e+01 -5.106055e+02
      vertex 1.150501e+02 3.822908e+01 -5.069327e+02
    endloop
  endfacet
  facet normal -9.999987e-01 1.456034e-04 -1.607380e-03
    outer loop
      vertex 1.149992e+02 4.020321e+01 -5.106055e+02
      vertex 1.150007e+02 3.850982e+01 -5.117132e+02
      vertex 1.149992e+02 3.856175e+01 -5.107363e+02
    endloop
  endfacet
  facet normal -9.999981e-01 3.524119e-04 -1.923528e-03
    outer loop
      vertex 1.149992e+02 4.020321e+01 -5.106055e+02
      vertex 1.150014e+02 4.045230e+01 -5.116835e+02
      vertex 1.150007e+02 3.850982e+01 -5.117132e+02
    endloop
  endfacet
endsolid 007_100022597-13
