solid 014_100022596-14
  facet normal 1.000000e+00 0.000000e+00 0.000000e+00
    outer loop
      vertex 3.199990e+02 2.161103e+01 -4.788447e+02
      vertex 3.199990e+02 1.895899e+01 -4.798511e+02
      vertex 3.199990e+02 2.164686e+01 -4.797440e+02
    endloop
  endfacet
  facet normal 0.000000e+00 3.980939e-02 -9.992073e-01
    outer loop
      vertex 2.949990e+02 1.895899e+01 -4.798511e+02
      vertex 3.199990e+02 2.164686e+01 -4.797440e+02
      vertex 3.199990e+02 1.895899e+01 -4.798511e+02
    endloop
  endfacet
  facet normal 0.000000e+00 9.992073e-01 3.980939e-02
    outer loop
      vertex 2.949990e+02 2.164686e+01 -4.797440e+02
      vertex 3.199990e+02 2.161103e+01 -4.788447e+02
      vertex 3.199990e+02 2.164686e+01 -4.797440e+02
    endloop
  endfacet
  facet normal 0.000000e+00 3.980939e-02 -9.992073e-01
    outer loop
      vertex 2.949990e+02 2.164686e+01 -4.797440e+02
      vertex 3.199990e+02 2.164686e+01 -4.797440e+02
      vertex 2.949990e+02 1.895899e+01 -4.798511e+02
    endloop
  endfacet
  facet normal 1.000000e+00 0.000000e+00 0.000000e+00
    outer loop
      vertex 3.199990e+02 2.017076e+01 -4.762540e+02
      vertex 3.199990e+02 1.877985e+01 -4.753547e+02
      vertex 3.199990e+02 1.895899e+01 -4.798511e+02
    endloop
  endfacet
  facet normal 0.000000e+00 -9.992073e-01 -3.980939e-02
    outer loop
      vertex 1.228861e+02 1.877985e+01 -4.753547e+02
      vertex 3.199990e+02 1.895899e+01 -4.798511e+02
      vertex 3.199990e+02 1.877985e+01 -4.753547e+02
    endloop
  endfacet
  facet normal 1.000000e+00 0.000000e+00 0.000000e+00
    outer loop
      vertex 3.199990e+02 2.027609e+01 -4.788979e+02
      vertex 3.199990e+02 2.017076e+01 -4.762540e+02
      vertex 3.199990e+02 1.895899e+01 -4.798511e+02
    endloop
  endfacet
  facet normal 1.000000e+00 0.000000e+00 0.000000e+00
    outer loop
      vertex 3.199990e+02 2.161103e+01 -4.788447e+02
      vertex 3.199990e+02 2.027609e+01 -4.788979e+02
      vertex 3.199990e+02 1.895899e+01 -4.798511e+02
    endloop
  endfacet
  facet normal 0.000000e+00 -9.992073e-01 -3.980939e-02
    outer loop
      vertex 1.228861e+02 1.877985e+01 -4.753547e+02
      vertex 2.949990e+02 1.895899e+01 -4.798511e+02
      vertex 3.199990e+02 1.895899e+01 -4.798511e+02
    endloop
  endfacet
  facet normal 1.000000e+00 0.000000e+00 0.000000e+00
    outer loop
      vertex 3.199990e+02 2.017076e+01 -4.762540e+02
      vertex 3.199990e+02 2.149747e+01 -4.752464e+02
      vertex 3.199990e+02 1.877985e+01 -4.753547e+02
    endloop
  endfacet
  facet normal 0.000000e+00 -3.980939e-02 9.992073e-01
    outer loop
      vertex 1.239990e+02 2.149747e+01 -4.752464e+02
      vertex 3.199990e+02 1.877985e+01 -4.753547e+02
      vertex 3.199990e+02 2.149747e+01 -4.752464e+02
    endloop
  endfacet
  facet normal 0.000000e+00 -3.980939e-02 9.992073e-01
    outer loop
      vertex 1.228861e+02 2.013278e+01 -4.753007e+02
      vertex 1.228861e+02 1.877985e+01 -4.753547e+02
      vertex 3.199990e+02 1.877985e+01 -4.753547e+02
    endloop
  endfacet
  facet normal 0.000000e+00 -3.980939e-02 9.992073e-01
    outer loop
      vertex 1.239990e+02 2.013278e+01 -4.753007e+02
      vertex 1.228861e+02 2.013278e+01 -4.753007e+02
      vertex 3.199990e+02 1.877985e+01 -4.753547e+02
    endloop
  endfacet
  facet normal -2.352610e-16 -3.980939e-02 9.992073e-01
    outer loop
      vertex 1.239990e+02 2.149747e+01 -4.752464e+02
      vertex 1.239990e+02 2.013278e+01 -4.753007e+02
      vertex 3.199990e+02 1.877985e+01 -4.753547e+02
    endloop
  endfacet
  facet normal 1.000000e+00 0.000000e+00 0.000000e+00
    outer loop
      vertex 3.199990e+02 2.017076e+01 -4.762540e+02
      vertex 3.199990e+02 2.154017e+01 -4.761994e+02
      vertex 3.199990e+02 2.149747e+01 -4.752464e+02
    endloop
  endfacet
  facet normal 0.000000e+00 9.989978e-01 4.475820e-02
    outer loop
      vertex 1.239990e+02 2.154017e+01 -4.761994e+02
      vertex 3.199990e+02 2.149747e+01 -4.752464e+02
      vertex 3.199990e+02 2.154017e+01 -4.761994e+02
    endloop
  endfacet
  facet normal 0.000000e+00 9.989978e-01 4.475820e-02
    outer loop
      vertex 1.239990e+02 2.149747e+01 -4.752464e+02
      vertex 3.199990e+02 2.149747e+01 -4.752464e+02
      vertex 1.239990e+02 2.154017e+01 -4.761994e+02
    endloop
  endfacet
  facet normal 0.000000e+00 3.980939e-02 -9.992073e-01
    outer loop
      vertex 1.239990e+02 2.017076e+01 -4.762540e+02
      vertex 3.199990e+02 2.154017e+01 -4.761994e+02
      vertex 3.199990e+02 2.017076e+01 -4.762540e+02
    endloop
  endfacet
  facet normal 0.000000e+00 3.980939e-02 -9.992073e-01
    outer loop
      vertex 1.239990e+02 2.154017e+01 -4.761994e+02
      vertex 3.199990e+02 2.154017e+01 -4.761994e+02
      vertex 1.239990e+02 2.017076e+01 -4.762540e+02
    endloop
  endfacet
  facet normal 0.000000e+00 9.992073e-01 3.980939e-02
    outer loop
      vertex 1.180861e+02 2.027609e+01 -4.788979e+02
      vertex 3.199990e+02 2.017076e+01 -4.762540e+02
      vertex 3.199990e+02 2.027609e+01 -4.788979e+02
    endloop
  endfacet
  facet normal 0.000000e+00 9.992073e-01 3.980939e-02
    outer loop
      vertex 1.239990e+02 2.017076e+01 -4.762540e+02
      vertex 3.199990e+02 2.017076e+01 -4.762540e+02
      vertex 1.180861e+02 2.027609e+01 -4.788979e+02
    endloop
  endfacet
  facet normal 0.000000e+00 -3.980939e-02 9.992073e-01
    outer loop
      vertex 2.499990e+02 2.161103e+01 -4.788447e+02
      vertex 3.199990e+02 2.027609e+01 -4.788979e+02
      vertex 3.199990e+02 2.161103e+01 -4.788447e+02
    endloop
  endfacet
  facet normal 0.000000e+00 -3.980939e-02 9.992073e-01
    outer loop
      vertex 1.180861e+02 2.027609e+01 -4.788979e+02
      vertex 3.199990e+02 2.027609e+01 -4.788979e+02
      vertex 1.180861e+02 2.165860e+01 -4.788428e+02
    endloop
  endfacet
  facet normal -1.816936e-16 -3.980939e-02 9.992073e-01
    outer loop
      vertex 2.499990e+02 2.161103e+01 -4.788447e+02
      vertex 1.180861e+02 2.165860e+01 -4.788428e+02
      vertex 3.199990e+02 2.027609e+01 -4.788979e+02
    endloop
  endfacet
  facet normal 0.000000e+00 9.992073e-01 3.980939e-02
    outer loop
      vertex 2.549990e+02 2.167473e+01 -4.804434e+02
      vertex 2.499990e+02 2.161103e+01 -4.788447e+02
      vertex 3.199990e+02 2.161103e+01 -4.788447e+02
    endloop
  endfacet
  facet normal 2.445491e-16 9.992073e-01 3.980939e-02
    outer loop
      vertex 2.949990e+02 2.164686e+01 -4.797440e+02
      vertex 2.549990e+02 2.167473e+01 -4.804434e+02
      vertex 3.199990e+02 2.161103e+01 -4.788447e+02
    endloop
  endfacet
  facet normal -1.848784e-16 -9.992073e-01 -3.980939e-02
    outer loop
      vertex 1.228861e+02 1.877985e+01 -4.753547e+02
      vertex 2.940825e+02 1.896623e+01 -4.800328e+02
      vertex 2.949990e+02 1.895899e+01 -4.798511e+02
    endloop
  endfacet
  facet normal 1.946646e-01 3.904783e-02 -9.800923e-01
    outer loop
      vertex 2.949990e+02 2.164686e+01 -4.797440e+02
      vertex 2.949990e+02 1.895899e+01 -4.798511e+02
      vertex 2.940825e+02 1.896623e+01 -4.800328e+02
    endloop
  endfacet
  facet normal 1.442805e-16 -9.992073e-01 -3.980939e-02
    outer loop
      vertex 1.228861e+02 1.877985e+01 -4.753547e+02
      vertex 2.933049e+02 1.898686e+01 -4.805505e+02
      vertex 2.940825e+02 1.896623e+01 -4.800328e+02
    endloop
  endfacet
  facet normal 5.544871e-01 3.312907e-02 -8.315326e-01
    outer loop
      vertex 2.940825e+02 2.165410e+01 -4.799257e+02
      vertex 2.940825e+02 1.896623e+01 -4.800328e+02
      vertex 2.933049e+02 1.898686e+01 -4.805505e+02
    endloop
  endfacet
  facet normal 1.946646e-01 3.904783e-02 -9.800923e-01
    outer loop
      vertex 2.949990e+02 2.164686e+01 -4.797440e+02
      vertex 2.940825e+02 1.896623e+01 -4.800328e+02
      vertex 2.940825e+02 2.165410e+01 -4.799257e+02
    endloop
  endfacet
  facet normal 0.000000e+00 -9.992073e-01 -3.980939e-02
    outer loop
      vertex 1.228861e+02 1.877985e+01 -4.753547e+02
      vertex 2.549990e+02 1.898686e+01 -4.805505e+02
      vertex 2.933049e+02 1.898686e+01 -4.805505e+02
    endloop
  endfacet
  facet normal 0.000000e+00 3.980939e-02 -9.992073e-01
    outer loop
      vertex 2.933049e+02 2.167473e+01 -4.804434e+02
      vertex 2.933049e+02 1.898686e+01 -4.805505e+02
      vertex 2.549990e+02 1.898686e+01 -4.805505e+02
    endloop
  endfacet
  facet normal 5.544871e-01 3.312907e-02 -8.315326e-01
    outer loop
      vertex 2.940825e+02 2.165410e+01 -4.799257e+02
      vertex 2.933049e+02 1.898686e+01 -4.805505e+02
      vertex 2.933049e+02 2.167473e+01 -4.804434e+02
    endloop
  endfacet
  facet normal -1.991377e-17 -9.992073e-01 -3.980939e-02
    outer loop
      vertex 1.228861e+02 1.877985e+01 -4.753547e+02
      vertex 2.514634e+02 1.904516e+01 -4.820138e+02
      vertex 2.549990e+02 1.898686e+01 -4.805505e+02
    endloop
  endfacet
  facet normal 3.826740e-01 3.677924e-02 -9.231511e-01
    outer loop
      vertex 2.549990e+02 2.167473e+01 -4.804434e+02
      vertex 2.549990e+02 1.898686e+01 -4.805505e+02
      vertex 2.514634e+02 1.904516e+01 -4.820138e+02
    endloop
  endfacet
  facet normal 0.000000e+00 3.980939e-02 -9.992073e-01
    outer loop
      vertex 2.549990e+02 2.167473e+01 -4.804434e+02
      vertex 2.933049e+02 2.167473e+01 -4.804434e+02
      vertex 2.549990e+02 1.898686e+01 -4.805505e+02
    endloop
  endfacet
  facet normal 0.000000e+00 -9.992073e-01 -3.980939e-02
    outer loop
      vertex 1.228861e+02 1.877985e+01 -4.753547e+02
      vertex 2.499990e+02 1.918591e+01 -4.855466e+02
      vertex 2.514634e+02 1.904516e+01 -4.820138e+02
    endloop
  endfacet
  facet normal 9.238834e-01 1.518226e-02 -3.823727e-01
    outer loop
      vertex 2.514635e+02 2.173303e+01 -4.819068e+02
      vertex 2.514634e+02 1.904516e+01 -4.820138e+02
      vertex 2.499990e+02 1.918591e+01 -4.855466e+02
    endloop
  endfacet
  facet normal 3.827076e-01 3.672692e-02 -9.231392e-01
    outer loop
      vertex 2.514635e+02 2.173303e+01 -4.819068e+02
      vertex 2.549990e+02 2.167473e+01 -4.804434e+02
      vertex 2.514634e+02 1.904516e+01 -4.820138e+02
    endloop
  endfacet
  facet normal -2.731817e-18 -9.992073e-01 -3.980939e-02
    outer loop
      vertex 2.352475e+02 1.989962e+01 -5.034606e+02
      vertex 2.499990e+02 2.006331e+01 -5.075692e+02
      vertex 2.499990e+02 1.918591e+01 -4.855466e+02
    endloop
  endfacet
  facet normal 1.000000e+00 0.000000e+00 0.000000e+00
    outer loop
      vertex 2.499990e+02 2.187377e+01 -4.854395e+02
      vertex 2.499990e+02 1.918591e+01 -4.855466e+02
      vertex 2.499990e+02 2.006331e+01 -5.075692e+02
    endloop
  endfacet
  facet normal -1.462397e-18 -9.992073e-01 -3.980939e-02
    outer loop
      vertex 1.228861e+02 1.877985e+01 -4.753547e+02
      vertex 2.352475e+02 1.989962e+01 -5.034606e+02
      vertex 2.499990e+02 1.918591e+01 -4.855466e+02
    endloop
  endfacet
  facet normal 9.238695e-01 1.523536e-02 -3.824042e-01
    outer loop
      vertex 2.514635e+02 2.173303e+01 -4.819068e+02
      vertex 2.499990e+02 1.918591e+01 -4.855466e+02
      vertex 2.499990e+02 2.187377e+01 -4.854395e+02
    endloop
  endfacet
  facet normal -1.100947e-16 -9.992073e-01 -3.980939e-02
    outer loop
      vertex 2.352475e+02 1.989962e+01 -5.034606e+02
      vertex 2.491056e+02 2.010782e+01 -5.086865e+02
      vertex 2.499990e+02 2.006331e+01 -5.075692e+02
    endloop
  endfacet
  facet normal 4.089636e-01 -8.383653e-01 -3.604059e-01
    outer loop
      vertex 2.499990e+02 2.063884e+01 -5.089080e+02
      vertex 2.499990e+02 2.006331e+01 -5.075692e+02
      vertex 2.491056e+02 2.010782e+01 -5.086865e+02
    endloop
  endfacet
  facet normal 1.000000e+00 0.000000e+00 0.000000e+00
    outer loop
      vertex 2.499990e+02 2.048764e+01 -5.073440e+02
      vertex 2.499990e+02 2.095114e+01 -5.064511e+02
      vertex 2.499990e+02 2.006331e+01 -5.075692e+02
    endloop
  endfacet
  facet normal 1.000000e+00 0.000000e+00 0.000000e+00
    outer loop
      vertex 2.499990e+02 2.187377e+01 -4.854395e+02
      vertex 2.499990e+02 2.006331e+01 -5.075692e+02
      vertex 2.499990e+02 2.095114e+01 -5.064511e+02
    endloop
  endfacet
  facet normal 1.000000e+00 0.000000e+00 0.000000e+00
    outer loop
      vertex 2.499990e+02 2.102914e+01 -5.081919e+02
      vertex 2.499990e+02 2.048764e+01 -5.073440e+02
      vertex 2.499990e+02 2.006331e+01 -5.075692e+02
    endloop
  endfacet
  facet normal 1.000000e+00 0.000000e+00 0.000000e+00
    outer loop
      vertex 2.499990e+02 2.063884e+01 -5.089080e+02
      vertex 2.499990e+02 2.102914e+01 -5.081919e+02
      vertex 2.499990e+02 2.006331e+01 -5.075692e+02
    endloop
  endfacet
  facet normal 2.219335e-16 -9.992073e-01 -3.980939e-02
    outer loop
      vertex 2.352475e+02 1.989962e+01 -5.034606e+02
      vertex 2.487866e+02 2.016339e+01 -5.100811e+02
      vertex 2.491056e+02 2.010782e+01 -5.086865e+02
    endloop
  endfacet
  facet normal 4.789728e-01 -8.659261e-01 -1.440732e-01
    outer loop
      vertex 2.499990e+02 2.063884e+01 -5.089080e+02
      vertex 2.491056e+02 2.010782e+01 -5.086865e+02
      vertex 2.487866e+02 2.016339e+01 -5.100811e+02
    endloop
  endfacet
  facet normal 0.000000e+00 -9.992073e-01 -3.980939e-02
    outer loop
      vertex 2.359976e+02 2.016082e+01 -5.100167e+02
      vertex 2.359934e+02 2.016339e+01 -5.100811e+02
      vertex 2.487866e+02 2.016339e+01 -5.100811e+02
    endloop
  endfacet
  facet normal 0.000000e+00 3.980939e-02 -9.992073e-01
    outer loop
      vertex 2.494794e+02 2.056307e+01 -5.100652e+02
      vertex 2.487866e+02 2.016339e+01 -5.100811e+02
      vertex 2.359934e+02 2.016339e+01 -5.100811e+02
    endloop
  endfacet
  facet normal 2.384514e-17 -9.992073e-01 -3.980939e-02
    outer loop
      vertex 2.359990e+02 2.015823e+01 -5.099517e+02
      vertex 2.359976e+02 2.016082e+01 -5.100167e+02
      vertex 2.487866e+02 2.016339e+01 -5.100811e+02
    endloop
  endfacet
  facet normal 7.353422e-17 -9.992073e-01 -3.980939e-02
    outer loop
      vertex 2.359990e+02 1.995142e+01 -5.047608e+02
      vertex 2.359990e+02 2.015823e+01 -5.099517e+02
      vertex 2.487866e+02 2.016339e+01 -5.100811e+02
    endloop
  endfacet
  facet normal 2.723159e-16 -9.992073e-01 -3.980939e-02
    outer loop
      vertex 2.352475e+02 1.989962e+01 -5.034606e+02
      vertex 2.359990e+02 1.995142e+01 -5.047608e+02
      vertex 2.487866e+02 2.016339e+01 -5.100811e+02
    endloop
  endfacet
  facet normal 4.955815e-01 -8.524112e-01 -1.667156e-01
    outer loop
      vertex 2.499990e+02 2.063884e+01 -5.089080e+02
      vertex 2.487866e+02 2.016339e+01 -5.100811e+02
      vertex 2.494794e+02 2.056307e+01 -5.100652e+02
    endloop
  endfacet
  facet normal -9.979010e-01 -2.578001e-03 6.470727e-02
    outer loop
      vertex 2.359934e+02 2.056307e+01 -5.100652e+02
      vertex 2.359934e+02 2.016339e+01 -5.100811e+02
      vertex 2.359976e+02 2.016082e+01 -5.100167e+02
    endloop
  endfacet
  facet normal 0.000000e+00 3.980939e-02 -9.992073e-01
    outer loop
      vertex 2.494794e+02 2.056307e+01 -5.100652e+02
      vertex 2.359934e+02 2.016339e+01 -5.100811e+02
      vertex 2.359934e+02 2.056307e+01 -5.100652e+02
    endloop
  endfacet
  facet normal -9.997655e-01 -8.587372e-04 2.163685e-02
    outer loop
      vertex 2.359976e+02 2.305011e+01 -5.099012e+02
      vertex 2.359976e+02 2.016082e+01 -5.100167e+02
      vertex 2.359990e+02 2.015823e+01 -5.099517e+02
    endloop
  endfacet
  facet normal -9.978980e-01 -2.572377e-03 6.475368e-02
    outer loop
      vertex 2.359935e+02 2.305297e+01 -5.099651e+02
      vertex 2.359934e+02 2.056307e+01 -5.100652e+02
      vertex 2.359976e+02 2.016082e+01 -5.100167e+02
    endloop
  endfacet
  facet normal -9.979294e-01 -2.563760e-03 6.426829e-02
    outer loop
      vertex 2.359976e+02 2.305011e+01 -5.099012e+02
      vertex 2.359935e+02 2.305297e+01 -5.099651e+02
      vertex 2.359976e+02 2.016082e+01 -5.100167e+02
    endloop
  endfacet
  facet normal -1.000000e+00 0.000000e+00 0.000000e+00
    outer loop
      vertex 2.359990e+02 2.048764e+01 -5.073440e+02
      vertex 2.359990e+02 2.015823e+01 -5.099517e+02
      vertex 2.359990e+02 1.995142e+01 -5.047608e+02
    endloop
  endfacet
  facet normal -9.997687e-01 -8.561632e-04 2.148951e-02
    outer loop
      vertex 2.359976e+02 2.305011e+01 -5.099012e+02
      vertex 2.359990e+02 2.015823e+01 -5.099517e+02
      vertex 2.359990e+02 2.304722e+01 -5.098366e+02
    endloop
  endfacet
  facet normal -1.000000e+00 0.000000e+00 0.000000e+00
    outer loop
      vertex 2.359990e+02 2.102914e+01 -5.081919e+02
      vertex 2.359990e+02 2.304722e+01 -5.098366e+02
      vertex 2.359990e+02 2.015823e+01 -5.099517e+02
    endloop
  endfacet
  facet normal -1.000000e+00 0.000000e+00 0.000000e+00
    outer loop
      vertex 2.359990e+02 2.102914e+01 -5.081919e+02
      vertex 2.359990e+02 2.015823e+01 -5.099517e+02
      vertex 2.359990e+02 2.048764e+01 -5.073440e+02
    endloop
  endfacet
  facet normal -8.659701e-01 1.990851e-02 -4.996993e-01
    outer loop
      vertex 2.359990e+02 2.281470e+01 -5.046467e+02
      vertex 2.359990e+02 1.995142e+01 -5.047608e+02
      vertex 2.352475e+02 1.989962e+01 -5.034606e+02
    endloop
  endfacet
  facet normal -1.000000e+00 0.000000e+00 0.000000e+00
    outer loop
      vertex 2.359990e+02 2.195663e+01 -5.064060e+02
      vertex 2.359990e+02 1.995142e+01 -5.047608e+02
      vertex 2.359990e+02 2.281470e+01 -5.046467e+02
    endloop
  endfacet
  facet normal -1.000000e+00 0.000000e+00 0.000000e+00
    outer loop
      vertex 2.359990e+02 2.095114e+01 -5.064511e+02
      vertex 2.359990e+02 1.995142e+01 -5.047608e+02
      vertex 2.359990e+02 2.195663e+01 -5.064060e+02
    endloop
  endfacet
  facet normal -1.000000e+00 0.000000e+00 0.000000e+00
    outer loop
      vertex 2.359990e+02 2.048764e+01 -5.073440e+02
      vertex 2.359990e+02 1.995142e+01 -5.047608e+02
      vertex 2.359990e+02 2.095114e+01 -5.064511e+02
    endloop
  endfacet
  facet normal 0.000000e+00 -9.992073e-01 -3.980939e-02
    outer loop
      vertex 1.228861e+02 1.877985e+01 -4.753547e+02
      vertex 2.337455e+02 1.989962e+01 -5.034606e+02
      vertex 2.352475e+02 1.989962e+01 -5.034606e+02
    endloop
  endfacet
  facet normal 0.000000e+00 3.981023e-02 -9.992073e-01
    outer loop
      vertex 2.352475e+02 2.275645e+01 -5.033468e+02
      vertex 2.352475e+02 1.989962e+01 -5.034606e+02
      vertex 2.337455e+02 1.989962e+01 -5.034606e+02
    endloop
  endfacet
  facet normal -8.659693e-01 1.990772e-02 -4.997007e-01
    outer loop
      vertex 2.359990e+02 2.281470e+01 -5.046467e+02
      vertex 2.352475e+02 1.989962e+01 -5.034606e+02
      vertex 2.352475e+02 2.275645e+01 -5.033468e+02
    endloop
  endfacet
  facet normal 1.288827e-16 -9.992073e-01 -3.980939e-02
    outer loop
      vertex 1.228861e+02 1.877985e+01 -4.753547e+02
      vertex 2.329940e+02 1.995142e+01 -5.047608e+02
      vertex 2.337455e+02 1.989962e+01 -5.034606e+02
    endloop
  endfacet
  facet normal 8.659701e-01 1.990767e-02 -4.996993e-01
    outer loop
      vertex 2.337455e+02 2.275645e+01 -5.033468e+02
      vertex 2.337455e+02 1.989962e+01 -5.034606e+02
      vertex 2.329940e+02 1.995142e+01 -5.047608e+02
    endloop
  endfacet
  facet normal 9.464281e-09 3.981023e-02 -9.992073e-01
    outer loop
      vertex 2.352475e+02 2.275645e+01 -5.033468e+02
      vertex 2.337455e+02 1.989962e+01 -5.034606e+02
      vertex 2.337455e+02 2.275645e+01 -5.033468e+02
    endloop
  endfacet
  facet normal -1.616656e-16 -9.992073e-01 -3.980939e-02
    outer loop
      vertex 1.228861e+02 1.877985e+01 -4.753547e+02
      vertex 2.329940e+02 1.999909e+01 -5.059574e+02
      vertex 2.329940e+02 1.995142e+01 -5.047608e+02
    endloop
  endfacet
  facet normal 1.000000e+00 0.000000e+00 0.000000e+00
    outer loop
      vertex 2.329940e+02 2.286829e+01 -5.058431e+02
      vertex 2.329940e+02 1.995142e+01 -5.047608e+02
      vertex 2.329940e+02 1.999909e+01 -5.059574e+02
    endloop
  endfacet
  facet normal 1.000000e+00 0.000000e+00 0.000000e+00
    outer loop
      vertex 2.329940e+02 2.281470e+01 -5.046467e+02
      vertex 2.329940e+02 1.995142e+01 -5.047608e+02
      vertex 2.329940e+02 2.286829e+01 -5.058431e+02
    endloop
  endfacet
  facet normal 8.659693e-01 1.990856e-02 -4.997007e-01
    outer loop
      vertex 2.337455e+02 2.275645e+01 -5.033468e+02
      vertex 2.329940e+02 1.995142e+01 -5.047608e+02
      vertex 2.329940e+02 2.281470e+01 -5.046467e+02
    endloop
  endfacet
  facet normal 0.000000e+00 -9.992073e-01 -3.980939e-02
    outer loop
      vertex 2.244535e+02 1.999168e+01 -5.057714e+02
      vertex 2.248722e+02 1.999909e+01 -5.059574e+02
      vertex 2.329940e+02 1.999909e+01 -5.059574e+02
    endloop
  endfacet
  facet normal 0.000000e+00 3.980939e-02 -9.992073e-01
    outer loop
      vertex 2.329940e+02 2.286829e+01 -5.058431e+02
      vertex 2.329940e+02 1.999909e+01 -5.059574e+02
      vertex 2.248722e+02 1.999909e+01 -5.059574e+02
    endloop
  endfacet
  facet normal 2.652655e-16 -9.992073e-01 -3.980939e-02
    outer loop
      vertex 1.228861e+02 1.877985e+01 -4.753547e+02
      vertex 2.244535e+02 1.999168e+01 -5.057714e+02
      vertex 2.329940e+02 1.999909e+01 -5.059574e+02
    endloop
  endfacet
  facet normal -4.062280e-01 3.637670e-02 -9.130474e-01
    outer loop
      vertex 2.248722e+02 2.286829e+01 -5.058431e+02
      vertex 2.248722e+02 1.999909e+01 -5.059574e+02
      vertex 2.244535e+02 1.999168e+01 -5.057714e+02
    endloop
  endfacet
  facet normal 0.000000e+00 3.980939e-02 -9.992073e-01
    outer loop
      vertex 2.329940e+02 2.286829e+01 -5.058431e+02
      vertex 2.248722e+02 1.999909e+01 -5.059574e+02
      vertex 2.248722e+02 2.286829e+01 -5.058431e+02
    endloop
  endfacet
  facet normal -1.933729e-15 -9.992073e-01 -3.980939e-02
    outer loop
      vertex 1.228861e+02 1.877985e+01 -4.753547e+02
      vertex 2.239990e+02 1.998914e+01 -5.057076e+02
      vertex 2.244535e+02 1.999168e+01 -5.057714e+02
    endloop
  endfacet
  facet normal -1.391629e-01 3.942205e-02 -9.894845e-01
    outer loop
      vertex 2.244535e+02 2.285996e+01 -5.056571e+02
      vertex 2.244535e+02 1.999168e+01 -5.057714e+02
      vertex 2.239990e+02 1.998914e+01 -5.057076e+02
    endloop
  endfacet
  facet normal -4.062279e-01 3.637668e-02 -9.130475e-01
    outer loop
      vertex 2.248722e+02 2.286829e+01 -5.058431e+02
      vertex 2.244535e+02 1.999168e+01 -5.057714e+02
      vertex 2.244535e+02 2.285996e+01 -5.056571e+02
    endloop
  endfacet
  facet normal 0.000000e+00 -9.992073e-01 -3.980939e-02
    outer loop
      vertex 1.228861e+02 1.877985e+01 -4.753547e+02
      vertex 1.319990e+02 1.998914e+01 -5.057076e+02
      vertex 2.239990e+02 1.998914e+01 -5.057076e+02
    endloop
  endfacet
  facet normal 0.000000e+00 3.980939e-02 -9.992073e-01
    outer loop
      vertex 2.239990e+02 2.285710e+01 -5.055933e+02
      vertex 2.239990e+02 1.998914e+01 -5.057076e+02
      vertex 1.319990e+02 1.998914e+01 -5.057076e+02
    endloop
  endfacet
  facet normal -1.391627e-01 3.942203e-02 -9.894845e-01
    outer loop
      vertex 2.244535e+02 2.285996e+01 -5.056571e+02
      vertex 2.239990e+02 1.998914e+01 -5.057076e+02
      vertex 2.239990e+02 2.285710e+01 -5.055933e+02
    endloop
  endfacet
  facet normal -1.395170e-16 -9.992073e-01 -3.980939e-02
    outer loop
      vertex 1.228861e+02 1.877985e+01 -4.753547e+02
      vertex 1.305700e+02 2.002199e+01 -5.065322e+02
      vertex 1.319990e+02 1.998914e+01 -5.057076e+02
    endloop
  endfacet
  facet normal 5.000957e-01 3.447374e-02 -8.652837e-01
    outer loop
      vertex 1.319990e+02 2.285710e+01 -5.055933e+02
      vertex 1.319990e+02 1.998914e+01 -5.057076e+02
      vertex 1.305700e+02 2.002199e+01 -5.065322e+02
    endloop
  endfacet
  facet normal 0.000000e+00 3.980939e-02 -9.992073e-01
    outer loop
      vertex 2.239990e+02 2.285710e+01 -5.055933e+02
      vertex 1.319990e+02 1.998914e+01 -5.057076e+02
      vertex 1.319990e+02 2.285710e+01 -5.055933e+02
    endloop
  endfacet
  facet normal -3.363580e-15 -9.992073e-01 -3.980939e-02
    outer loop
      vertex 1.228861e+02 1.877985e+01 -4.753547e+02
      vertex 1.305700e+02 2.008766e+01 -5.081804e+02
      vertex 1.305700e+02 2.002199e+01 -5.065322e+02
    endloop
  endfacet
  facet normal 1.000000e+00 -9.189397e-07 -3.661144e-08
    outer loop
      vertex 1.305700e+02 2.289404e+01 -5.064177e+02
      vertex 1.305700e+02 2.002199e+01 -5.065322e+02
      vertex 1.305700e+02 2.008766e+01 -5.081804e+02
    endloop
  endfacet
  facet normal 5.000943e-01 3.447470e-02 -8.652844e-01
    outer loop
      vertex 1.319990e+02 2.285710e+01 -5.055933e+02
      vertex 1.305700e+02 2.002199e+01 -5.065322e+02
      vertex 1.305700e+02 2.289404e+01 -5.064177e+02
    endloop
  endfacet
  facet normal 1.524243e-17 -9.992073e-01 -3.980939e-02
    outer loop
      vertex 1.162114e+02 2.016339e+01 -5.100811e+02
      vertex 1.319990e+02 2.012051e+01 -5.090050e+02
      vertex 1.305700e+02 2.008766e+01 -5.081804e+02
    endloop
  endfacet
  facet normal 5.000957e-01 -3.447283e-02 8.652837e-01
    outer loop
      vertex 1.305700e+02 2.296787e+01 -5.080656e+02
      vertex 1.305700e+02 2.008766e+01 -5.081804e+02
      vertex 1.319990e+02 2.012051e+01 -5.090050e+02
    endloop
  endfacet
  facet normal 1.623525e-17 -9.992073e-01 -3.980939e-02
    outer loop
      vertex 1.179792e+02 1.894066e+01 -4.793909e+02
      vertex 1.162114e+02 2.016339e+01 -5.100811e+02
      vertex 1.305700e+02 2.008766e+01 -5.081804e+02
    endloop
  endfacet
  facet normal 4.218317e-16 -9.992073e-01 -3.980939e-02
    outer loop
      vertex 1.197083e+02 1.882522e+01 -4.764935e+02
      vertex 1.179792e+02 1.894066e+01 -4.793909e+02
      vertex 1.305700e+02 2.008766e+01 -5.081804e+02
    endloop
  endfacet
  facet normal 1.746446e-16 -9.992073e-01 -3.980939e-02
    outer loop
      vertex 1.228861e+02 1.877985e+01 -4.753547e+02
      vertex 1.197083e+02 1.882522e+01 -4.764935e+02
      vertex 1.305700e+02 2.008766e+01 -5.081804e+02
    endloop
  endfacet
  facet normal 1.000000e+00 -9.103664e-07 -5.026134e-08
    outer loop
      vertex 1.305700e+02 2.289404e+01 -5.064177e+02
      vertex 1.305700e+02 2.008766e+01 -5.081804e+02
      vertex 1.305700e+02 2.296787e+01 -5.080656e+02
    endloop
  endfacet
  facet normal 0.000000e+00 -9.992073e-01 -3.980939e-02
    outer loop
      vertex 2.329996e+02 2.016339e+01 -5.100811e+02
      vertex 2.239990e+02 2.012051e+01 -5.090050e+02
      vertex 1.319990e+02 2.012051e+01 -5.090050e+02
    endloop
  endfacet
  facet normal 0.000000e+00 -3.980939e-02 9.992073e-01
    outer loop
      vertex 1.319990e+02 2.300481e+01 -5.088900e+02
      vertex 1.319990e+02 2.012051e+01 -5.090050e+02
      vertex 2.239990e+02 2.012051e+01 -5.090050e+02
    endloop
  endfacet
  facet normal 0.000000e+00 -9.992073e-01 -3.980939e-02
    outer loop
      vertex 1.162114e+02 2.016339e+01 -5.100811e+02
      vertex 2.329996e+02 2.016339e+01 -5.100811e+02
      vertex 1.319990e+02 2.012051e+01 -5.090050e+02
    endloop
  endfacet
  facet normal 5.000943e-01 -3.447378e-02 8.652845e-01
    outer loop
      vertex 1.305700e+02 2.296787e+01 -5.080656e+02
      vertex 1.319990e+02 2.012051e+01 -5.090050e+02
      vertex 1.319990e+02 2.300481e+01 -5.088900e+02
    endloop
  endfacet
  facet normal -1.968599e-15 -9.992073e-01 -3.980939e-02
    outer loop
      vertex 2.329996e+02 2.016339e+01 -5.100811e+02
      vertex 2.244535e+02 2.011797e+01 -5.089411e+02
      vertex 2.239990e+02 2.012051e+01 -5.090050e+02
    endloop
  endfacet
  facet normal -1.391629e-01 -3.942203e-02 9.894845e-01
    outer loop
      vertex 2.239990e+02 2.300481e+01 -5.088900e+02
      vertex 2.239990e+02 2.012051e+01 -5.090050e+02
      vertex 2.244535e+02 2.011797e+01 -5.089411e+02
    endloop
  endfacet
  facet normal 0.000000e+00 -3.980939e-02 9.992073e-01
    outer loop
      vertex 1.319990e+02 2.300481e+01 -5.088900e+02
      vertex 2.239990e+02 2.012051e+01 -5.090050e+02
      vertex 2.239990e+02 2.300481e+01 -5.088900e+02
    endloop
  endfacet
  facet normal 2.281368e-16 -9.992073e-01 -3.980939e-02
    outer loop
      vertex 2.329996e+02 2.016339e+01 -5.100811e+02
      vertex 2.248722e+02 2.011056e+01 -5.087552e+02
      vertex 2.244535e+02 2.011797e+01 -5.089411e+02
    endloop
  endfacet
  facet normal -4.062280e-01 -3.637672e-02 9.130474e-01
    outer loop
      vertex 2.244535e+02 2.300195e+01 -5.088262e+02
      vertex 2.244535e+02 2.011797e+01 -5.089411e+02
      vertex 2.248722e+02 2.011056e+01 -5.087552e+02
    endloop
  endfacet
  facet normal -1.391627e-01 -3.942200e-02 9.894845e-01
    outer loop
      vertex 2.239990e+02 2.300481e+01 -5.088900e+02
      vertex 2.244535e+02 2.011797e+01 -5.089411e+02
      vertex 2.244535e+02 2.300195e+01 -5.088262e+02
    endloop
  endfacet
  facet normal 0.000000e+00 -9.992073e-01 -3.980939e-02
    outer loop
      vertex 2.329940e+02 2.015823e+01 -5.099517e+02
      vertex 2.329940e+02 2.011056e+01 -5.087552e+02
      vertex 2.248722e+02 2.011056e+01 -5.087552e+02
    endloop
  endfacet
  facet normal 0.000000e+00 -3.980939e-02 9.992073e-01
    outer loop
      vertex 2.248722e+02 2.299362e+01 -5.086403e+02
      vertex 2.248722e+02 2.011056e+01 -5.087552e+02
      vertex 2.329940e+02 2.011056e+01 -5.087552e+02
    endloop
  endfacet
  facet normal -6.291044e-16 -9.992073e-01 -3.980939e-02
    outer loop
      vertex 2.329954e+02 2.016082e+01 -5.100167e+02
      vertex 2.329940e+02 2.015823e+01 -5.099517e+02
      vertex 2.248722e+02 2.011056e+01 -5.087552e+02
    endloop
  endfacet
  facet normal -1.375803e-15 -9.992073e-01 -3.980939e-02
    outer loop
      vertex 2.329996e+02 2.016339e+01 -5.100811e+02
      vertex 2.329954e+02 2.016082e+01 -5.100167e+02
      vertex 2.248722e+02 2.011056e+01 -5.087552e+02
    endloop
  endfacet
  facet normal -4.062279e-01 -3.637670e-02 9.130475e-01
    outer loop
      vertex 2.244535e+02 2.300195e+01 -5.088262e+02
      vertex 2.248722e+02 2.011056e+01 -5.087552e+02
      vertex 2.248722e+02 2.299362e+01 -5.086403e+02
    endloop
  endfacet
  facet normal 1.000000e+00 0.000000e+00 0.000000e+00
    outer loop
      vertex 2.329940e+02 2.304722e+01 -5.098366e+02
      vertex 2.329940e+02 2.011056e+01 -5.087552e+02
      vertex 2.329940e+02 2.015823e+01 -5.099517e+02
    endloop
  endfacet
  facet normal 1.000000e+00 0.000000e+00 0.000000e+00
    outer loop
      vertex 2.329940e+02 2.299362e+01 -5.086403e+02
      vertex 2.329940e+02 2.011056e+01 -5.087552e+02
      vertex 2.329940e+02 2.304722e+01 -5.098366e+02
    endloop
  endfacet
  facet normal 0.000000e+00 -3.980939e-02 9.992073e-01
    outer loop
      vertex 2.248722e+02 2.299362e+01 -5.086403e+02
      vertex 2.329940e+02 2.011056e+01 -5.087552e+02
      vertex 2.329940e+02 2.299362e+01 -5.086403e+02
    endloop
  endfacet
  facet normal 9.997655e-01 -8.620279e-04 2.163672e-02
    outer loop
      vertex 2.329940e+02 2.304722e+01 -5.098366e+02
      vertex 2.329940e+02 2.015823e+01 -5.099517e+02
      vertex 2.329954e+02 2.016082e+01 -5.100167e+02
    endloop
  endfacet
  facet normal 9.979010e-01 -2.578001e-03 6.470727e-02
    outer loop
      vertex 2.329954e+02 2.016082e+01 -5.100167e+02
      vertex 2.329996e+02 2.016339e+01 -5.100811e+02
      vertex 2.329996e+02 2.056307e+01 -5.100652e+02
    endloop
  endfacet
  facet normal 9.979294e-01 -2.563760e-03 6.426829e-02
    outer loop
      vertex 2.329954e+02 2.305011e+01 -5.099012e+02
      vertex 2.329954e+02 2.016082e+01 -5.100167e+02
      vertex 2.329995e+02 2.305297e+01 -5.099651e+02
    endloop
  endfacet
  facet normal 9.997687e-01 -8.528505e-04 2.148966e-02
    outer loop
      vertex 2.329940e+02 2.304722e+01 -5.098366e+02
      vertex 2.329954e+02 2.016082e+01 -5.100167e+02
      vertex 2.329954e+02 2.305011e+01 -5.099012e+02
    endloop
  endfacet
  facet normal 0.000000e+00 3.980939e-02 -9.992073e-01
    outer loop
      vertex 2.329996e+02 2.056307e+01 -5.100652e+02
      vertex 2.329996e+02 2.016339e+01 -5.100811e+02
      vertex 1.162114e+02 2.016339e+01 -5.100811e+02
    endloop
  endfacet
  facet normal 9.978980e-01 -2.572377e-03 6.475368e-02
    outer loop
      vertex 2.329996e+02 2.056307e+01 -5.100652e+02
      vertex 2.329995e+02 2.305297e+01 -5.099651e+02
      vertex 2.329954e+02 2.016082e+01 -5.100167e+02
    endloop
  endfacet
  facet normal 4.106430e-15 -9.992073e-01 -3.980939e-02
    outer loop
      vertex 1.158723e+02 1.949972e+01 -4.934232e+02
      vertex 1.158979e+02 2.010828e+01 -5.086980e+02
      vertex 1.162114e+02 2.016339e+01 -5.100811e+02
    endloop
  endfacet
  facet normal -4.968227e-01 -8.553593e-01 -1.467231e-01
    outer loop
      vertex 1.155186e+02 2.056307e+01 -5.100652e+02
      vertex 1.162114e+02 2.016339e+01 -5.100811e+02
      vertex 1.158979e+02 2.010828e+01 -5.086980e+02
    endloop
  endfacet
  facet normal -8.016113e-16 -9.992073e-01 -3.980939e-02
    outer loop
      vertex 1.179792e+02 1.894066e+01 -4.793909e+02
      vertex 1.158723e+02 1.949972e+01 -4.934232e+02
      vertex 1.162114e+02 2.016339e+01 -5.100811e+02
    endloop
  endfacet
  facet normal 0.000000e+00 3.980939e-02 -9.992073e-01
    outer loop
      vertex 2.329996e+02 2.056307e+01 -5.100652e+02
      vertex 1.162114e+02 2.016339e+01 -5.100811e+02
      vertex 1.155186e+02 2.056307e+01 -5.100652e+02
    endloop
  endfacet
  facet normal -3.179474e-15 -9.992073e-01 -3.980939e-02
    outer loop
      vertex 1.158723e+02 1.949972e+01 -4.934232e+02
      vertex 1.150189e+02 2.006394e+01 -5.075851e+02
      vertex 1.158979e+02 2.010828e+01 -5.086980e+02
    endloop
  endfacet
  facet normal -4.113886e-01 -8.380802e-01 -3.583030e-01
    outer loop
      vertex 1.150034e+02 2.063495e+01 -5.089029e+02
      vertex 1.158979e+02 2.010828e+01 -5.086980e+02
      vertex 1.150189e+02 2.006394e+01 -5.075851e+02
    endloop
  endfacet
  facet normal -4.968227e-01 -8.553593e-01 -1.467231e-01
    outer loop
      vertex 1.149990e+02 2.086283e+01 -5.100532e+02
      vertex 1.155186e+02 2.056307e+01 -5.100652e+02
      vertex 1.158979e+02 2.010828e+01 -5.086980e+02
    endloop
  endfacet
  facet normal -4.708591e-01 -8.657295e-01 -1.697177e-01
    outer loop
      vertex 1.149990e+02 2.086283e+01 -5.100532e+02
      vertex 1.158979e+02 2.010828e+01 -5.086980e+02
      vertex 1.150034e+02 2.063495e+01 -5.089029e+02
    endloop
  endfacet
  facet normal -9.981920e-01 -2.573942e-03 6.005164e-02
    outer loop
      vertex 1.158710e+02 2.230745e+01 -4.933250e+02
      vertex 1.150189e+02 2.006394e+01 -5.075851e+02
      vertex 1.158723e+02 1.949972e+01 -4.934232e+02
    endloop
  endfacet
  facet normal -9.981990e-01 -1.973179e-03 5.995755e-02
    outer loop
      vertex 1.150184e+02 2.294241e+01 -5.074974e+02
      vertex 1.150189e+02 2.006394e+01 -5.075851e+02
      vertex 1.158710e+02 2.230745e+01 -4.933250e+02
    endloop
  endfacet
  facet normal -9.999332e-01 -4.985412e-04 1.154473e-02
    outer loop
      vertex 1.150034e+02 2.063495e+01 -5.089029e+02
      vertex 1.150189e+02 2.006394e+01 -5.075851e+02
      vertex 1.150184e+02 2.294241e+01 -5.074974e+02
    endloop
  endfacet
  facet normal -9.889319e-01 -5.653486e-03 1.482627e-01
    outer loop
      vertex 1.158710e+02 2.230745e+01 -4.933250e+02
      vertex 1.158723e+02 1.949972e+01 -4.934232e+02
      vertex 1.179792e+02 1.894066e+01 -4.793909e+02
    endloop
  endfacet
  facet normal -8.547670e-01 -1.181703e-01 5.053802e-01
    outer loop
      vertex 1.180861e+02 2.027609e+01 -4.788979e+02
      vertex 1.179792e+02 1.894066e+01 -4.793909e+02
      vertex 1.197083e+02 1.882522e+01 -4.764935e+02
    endloop
  endfacet
  facet normal -9.889393e-01 -5.904559e-03 1.482032e-01
    outer loop
      vertex 1.158710e+02 2.230745e+01 -4.933250e+02
      vertex 1.179792e+02 1.894066e+01 -4.793909e+02
      vertex 1.179792e+02 2.167827e+01 -4.792818e+02
    endloop
  endfacet
  facet normal -9.716810e-01 -9.406825e-03 2.361093e-01
    outer loop
      vertex 1.180861e+02 2.027609e+01 -4.788979e+02
      vertex 1.179792e+02 2.167827e+01 -4.792818e+02
      vertex 1.179792e+02 1.894066e+01 -4.793909e+02
    endloop
  endfacet
  facet normal -3.371348e-01 -9.013081e-02 9.371321e-01
    outer loop
      vertex 1.198861e+02 2.017259e+01 -4.763000e+02
      vertex 1.197083e+02 1.882522e+01 -4.764935e+02
      vertex 1.228861e+02 1.877985e+01 -4.753547e+02
    endloop
  endfacet
  facet normal -8.211977e-01 2.649714e-02 5.700282e-01
    outer loop
      vertex 1.198861e+02 2.017259e+01 -4.763000e+02
      vertex 1.180861e+02 2.027609e+01 -4.788979e+02
      vertex 1.197083e+02 1.882522e+01 -4.764935e+02
    endloop
  endfacet
  facet normal -3.162278e-01 -3.776651e-02 9.479313e-01
    outer loop
      vertex 1.198861e+02 2.017259e+01 -4.763000e+02
      vertex 1.228861e+02 1.877985e+01 -4.753547e+02
      vertex 1.228861e+02 2.013278e+01 -4.753007e+02
    endloop
  endfacet
  facet normal -1.110073e-14 -9.992073e-01 -3.980939e-02
    outer loop
      vertex 1.155186e+02 2.056307e+01 -5.100652e+02
      vertex 1.180000e+02 2.178927e+01 -5.408425e+02
      vertex 1.180793e+02 2.179763e+01 -5.410524e+02
    endloop
  endfacet
  facet normal -9.356432e-01 1.375557e-02 -3.526793e-01
    outer loop
      vertex 1.180767e+02 2.298794e+01 -5.409991e+02
      vertex 1.180793e+02 2.179763e+01 -5.410524e+02
      vertex 1.180000e+02 2.178927e+01 -5.408425e+02
    endloop
  endfacet
  facet normal 0.000000e+00 -9.992073e-01 -3.980939e-02
    outer loop
      vertex 2.329996e+02 2.056307e+01 -5.100652e+02
      vertex 1.155186e+02 2.056307e+01 -5.100652e+02
      vertex 1.180793e+02 2.179763e+01 -5.410524e+02
    endloop
  endfacet
  facet normal 0.000000e+00 -9.992073e-01 -3.980939e-02
    outer loop
      vertex 2.494794e+02 2.179763e+01 -5.410524e+02
      vertex 2.329996e+02 2.056307e+01 -5.100652e+02
      vertex 1.180793e+02 2.179763e+01 -5.410524e+02
    endloop
  endfacet
  facet normal 0.000000e+00 4.475820e-02 -9.989978e-01
    outer loop
      vertex 2.496526e+02 2.298794e+01 -5.409991e+02
      vertex 2.494794e+02 2.179763e+01 -5.410524e+02
      vertex 1.180793e+02 2.179763e+01 -5.410524e+02
    endloop
  endfacet
  facet normal 0.000000e+00 4.475820e-02 -9.989978e-01
    outer loop
      vertex 1.180767e+02 2.298794e+01 -5.409991e+02
      vertex 2.496526e+02 2.298794e+01 -5.409991e+02
      vertex 1.180793e+02 2.179763e+01 -5.410524e+02
    endloop
  endfacet
  facet normal 4.286159e-14 -9.992073e-01 -3.980939e-02
    outer loop
      vertex 1.155186e+02 2.056307e+01 -5.100652e+02
      vertex 1.179448e+02 2.178060e+01 -5.406249e+02
      vertex 1.180000e+02 2.178927e+01 -5.408425e+02
    endloop
  endfacet
  facet normal -9.691152e-01 2.999785e-02 -2.447770e-01
    outer loop
      vertex 1.180767e+02 2.298794e+01 -5.409991e+02
      vertex 1.180000e+02 2.178927e+01 -5.408425e+02
      vertex 1.179448e+02 2.178060e+01 -5.406249e+02
    endloop
  endfacet
  facet normal 0.000000e+00 -9.992073e-01 -3.980939e-02
    outer loop
      vertex 1.155186e+02 2.056307e+01 -5.100652e+02
      vertex 1.164851e+02 2.143011e+01 -5.318277e+02
      vertex 1.179448e+02 2.178060e+01 -5.406249e+02
    endloop
  endfacet
  facet normal -9.865339e-01 6.511090e-03 -1.634270e-01
    outer loop
      vertex 1.179448e+02 2.402223e+01 -5.405356e+02
      vertex 1.179448e+02 2.178060e+01 -5.406249e+02
      vertex 1.164851e+02 2.143011e+01 -5.318277e+02
    endloop
  endfacet
  facet normal -9.544654e-01 1.187600e-02 -2.980852e-01
    outer loop
      vertex 1.179448e+02 2.402223e+01 -5.405356e+02
      vertex 1.180767e+02 2.298794e+01 -5.409991e+02
      vertex 1.179448e+02 2.178060e+01 -5.406249e+02
    endloop
  endfacet
  facet normal -2.278233e-15 -9.992073e-01 -3.980939e-02
    outer loop
      vertex 1.155186e+02 2.056307e+01 -5.100652e+02
      vertex 1.155186e+02 2.107690e+01 -5.229623e+02
      vertex 1.164851e+02 2.143011e+01 -5.318277e+02
    endloop
  endfacet
  facet normal -9.939972e-01 -1.131563e-02 -1.088192e-01
    outer loop
      vertex 1.156417e+02 2.329561e+01 -5.243176e+02
      vertex 1.164851e+02 2.143011e+01 -5.318277e+02
      vertex 1.155186e+02 2.107690e+01 -5.229623e+02
    endloop
  endfacet
  facet normal -9.933362e-01 1.225413e-02 -1.145996e-01
    outer loop
      vertex 1.165851e+02 2.366022e+01 -5.324557e+02
      vertex 1.164851e+02 2.143011e+01 -5.318277e+02
      vertex 1.156417e+02 2.329561e+01 -5.243176e+02
    endloop
  endfacet
  facet normal -9.861129e-01 -2.559856e-03 -1.660566e-01
    outer loop
      vertex 1.179448e+02 2.402223e+01 -5.405356e+02
      vertex 1.164851e+02 2.143011e+01 -5.318277e+02
      vertex 1.165851e+02 2.366022e+01 -5.324557e+02
    endloop
  endfacet
  facet normal -5.000000e-01 -8.653389e-01 -3.447594e-02
    outer loop
      vertex 1.151284e+02 2.104522e+01 -5.165078e+02
      vertex 1.155186e+02 2.107690e+01 -5.229623e+02
      vertex 1.155186e+02 2.056307e+01 -5.100652e+02
    endloop
  endfacet
  facet normal -9.976990e-01 1.496809e-02 -6.612627e-02
    outer loop
      vertex 1.151591e+02 2.273173e+01 -5.171636e+02
      vertex 1.156417e+02 2.329561e+01 -5.243176e+02
      vertex 1.155186e+02 2.107690e+01 -5.229623e+02
    endloop
  endfacet
  facet normal -9.981620e-01 -5.300770e-03 -6.037065e-02
    outer loop
      vertex 1.151284e+02 2.104522e+01 -5.165078e+02
      vertex 1.151591e+02 2.273173e+01 -5.171636e+02
      vertex 1.155186e+02 2.107690e+01 -5.229623e+02
    endloop
  endfacet
  facet normal -5.000000e-01 -8.653389e-01 -3.447594e-02
    outer loop
      vertex 1.151284e+02 2.104522e+01 -5.165078e+02
      vertex 1.155186e+02 2.056307e+01 -5.100652e+02
      vertex 1.149990e+02 2.086283e+01 -5.100532e+02
    endloop
  endfacet
  facet normal 1.687585e-14 -9.992073e-01 -3.980939e-02
    outer loop
      vertex 2.494794e+02 2.179763e+01 -5.410524e+02
      vertex 2.337826e+02 2.061054e+01 -5.112568e+02
      vertex 2.329996e+02 2.056307e+01 -5.100652e+02
    endloop
  endfacet
  facet normal 8.358995e-01 -2.159934e-02 5.484574e-01
    outer loop
      vertex 2.329997e+02 2.265338e+01 -5.099830e+02
      vertex 2.329996e+02 2.056307e+01 -5.100652e+02
      vertex 2.337826e+02 2.061054e+01 -5.112568e+02
    endloop
  endfacet
  facet normal 9.962439e-01 -3.447145e-03 8.652307e-02
    outer loop
      vertex 2.329996e+02 2.285317e+01 -5.099741e+02
      vertex 2.329996e+02 2.056307e+01 -5.100652e+02
      vertex 2.329997e+02 2.265338e+01 -5.099830e+02
    endloop
  endfacet
  facet normal 9.963004e-01 -3.421192e-03 8.587083e-02
    outer loop
      vertex 2.329996e+02 2.285317e+01 -5.099741e+02
      vertex 2.329995e+02 2.305297e+01 -5.099651e+02
      vertex 2.329996e+02 2.056307e+01 -5.100652e+02
    endloop
  endfacet
  facet normal 0.000000e+00 -9.992073e-01 -3.980939e-02
    outer loop
      vertex 2.494794e+02 2.179763e+01 -5.410524e+02
      vertex 2.352104e+02 2.061054e+01 -5.112568e+02
      vertex 2.337826e+02 2.061054e+01 -5.112568e+02
    endloop
  endfacet
  facet normal 0.000000e+00 -3.972513e-02 9.992106e-01
    outer loop
      vertex 2.337830e+02 2.270671e+01 -5.111734e+02
      vertex 2.337826e+02 2.061054e+01 -5.112568e+02
      vertex 2.352104e+02 2.061054e+01 -5.112568e+02
    endloop
  endfacet
  facet normal 8.356291e-01 -2.195113e-02 5.488554e-01
    outer loop
      vertex 2.329997e+02 2.265338e+01 -5.099830e+02
      vertex 2.337826e+02 2.061054e+01 -5.112568e+02
      vertex 2.337830e+02 2.270671e+01 -5.111734e+02
    endloop
  endfacet
  facet normal -1.936255e-15 -9.992073e-01 -3.980939e-02
    outer loop
      vertex 2.494794e+02 2.179763e+01 -5.410524e+02
      vertex 2.359934e+02 2.056307e+01 -5.100652e+02
      vertex 2.352104e+02 2.061054e+01 -5.112568e+02
    endloop
  endfacet
  facet normal -8.358995e-01 -2.159934e-02 5.484574e-01
    outer loop
      vertex 2.359933e+02 2.265338e+01 -5.099830e+02
      vertex 2.352104e+02 2.061054e+01 -5.112568e+02
      vertex 2.359934e+02 2.056307e+01 -5.100652e+02
    endloop
  endfacet
  facet normal -8.356291e-01 -2.195112e-02 5.488553e-01
    outer loop
      vertex 2.352100e+02 2.270671e+01 -5.111734e+02
      vertex 2.352104e+02 2.061054e+01 -5.112568e+02
      vertex 2.359933e+02 2.265338e+01 -5.099830e+02
    endloop
  endfacet
  facet normal -9.655596e-09 -3.972513e-02 9.992106e-01
    outer loop
      vertex 2.337830e+02 2.270671e+01 -5.111734e+02
      vertex 2.352104e+02 2.061054e+01 -5.112568e+02
      vertex 2.352100e+02 2.270671e+01 -5.111734e+02
    endloop
  endfacet
  facet normal 0.000000e+00 -9.992073e-01 -3.980939e-02
    outer loop
      vertex 2.494794e+02 2.179763e+01 -5.410524e+02
      vertex 2.494794e+02 2.056307e+01 -5.100652e+02
      vertex 2.359934e+02 2.056307e+01 -5.100652e+02
    endloop
  endfacet
  facet normal -9.962439e-01 -3.447145e-03 8.652307e-02
    outer loop
      vertex 2.359934e+02 2.285317e+01 -5.099741e+02
      vertex 2.359933e+02 2.265338e+01 -5.099830e+02
      vertex 2.359934e+02 2.056307e+01 -5.100652e+02
    endloop
  endfacet
  facet normal -9.963004e-01 -3.421192e-03 8.587083e-02
    outer loop
      vertex 2.359934e+02 2.285317e+01 -5.099741e+02
      vertex 2.359934e+02 2.056307e+01 -5.100652e+02
      vertex 2.359935e+02 2.305297e+01 -5.099651e+02
    endloop
  endfacet
  facet normal 5.000000e-01 -8.653389e-01 -3.447594e-02
    outer loop
      vertex 2.499990e+02 2.086283e+01 -5.100532e+02
      vertex 2.494794e+02 2.056307e+01 -5.100652e+02
      vertex 2.494794e+02 2.179763e+01 -5.410524e+02
    endloop
  endfacet
  facet normal 4.955815e-01 -8.524112e-01 -1.667156e-01
    outer loop
      vertex 2.499990e+02 2.063884e+01 -5.089080e+02
      vertex 2.494794e+02 2.056307e+01 -5.100652e+02
      vertex 2.499990e+02 2.086283e+01 -5.100532e+02
    endloop
  endfacet
  facet normal 5.133602e-14 4.475820e-02 -9.989978e-01
    outer loop
      vertex 2.499990e+02 2.318774e+01 -5.409902e+02
      vertex 2.499990e+02 2.209733e+01 -5.410390e+02
      vertex 2.494794e+02 2.179763e+01 -5.410524e+02
    endloop
  endfacet
  facet normal 5.000000e-01 -8.653389e-01 -3.447594e-02
    outer loop
      vertex 2.499990e+02 2.086283e+01 -5.100532e+02
      vertex 2.494794e+02 2.179763e+01 -5.410524e+02
      vertex 2.499990e+02 2.209733e+01 -5.410390e+02
    endloop
  endfacet
  facet normal -6.360244e-14 4.475820e-02 -9.989978e-01
    outer loop
      vertex 2.496526e+02 2.298794e+01 -5.409991e+02
      vertex 2.499990e+02 2.318774e+01 -5.409902e+02
      vertex 2.494794e+02 2.179763e+01 -5.410524e+02
    endloop
  endfacet
  facet normal 1.000000e+00 0.000000e+00 0.000000e+00
    outer loop
      vertex 2.499990e+02 2.235356e+01 -5.099938e+02
      vertex 2.499990e+02 2.209733e+01 -5.410390e+02
      vertex 2.499990e+02 2.318774e+01 -5.409902e+02
    endloop
  endfacet
  facet normal 1.000000e+00 0.000000e+00 0.000000e+00
    outer loop
      vertex 2.499990e+02 2.086283e+01 -5.100532e+02
      vertex 2.499990e+02 2.209733e+01 -5.410390e+02
      vertex 2.499990e+02 2.235356e+01 -5.099938e+02
    endloop
  endfacet
  facet normal 5.000000e-01 -8.651575e-01 -3.876174e-02
    outer loop
      vertex 2.496526e+02 2.304039e+01 -5.421698e+02
      vertex 2.499990e+02 2.318774e+01 -5.409902e+02
      vertex 2.496526e+02 2.298794e+01 -5.409991e+02
    endloop
  endfacet
  facet normal 5.000000e-01 -8.651575e-01 -3.876174e-02
    outer loop
      vertex 2.499990e+02 2.321893e+01 -5.416865e+02
      vertex 2.499990e+02 2.318774e+01 -5.409902e+02
      vertex 2.496526e+02 2.304039e+01 -5.421698e+02
    endloop
  endfacet
  facet normal 1.000000e+00 0.000000e+00 0.000000e+00
    outer loop
      vertex 2.499990e+02 2.321893e+01 -5.416865e+02
      vertex 2.499990e+02 2.235356e+01 -5.099938e+02
      vertex 2.499990e+02 2.318774e+01 -5.409902e+02
    endloop
  endfacet
  facet normal 0.000000e+00 -9.989978e-01 -4.475820e-02
    outer loop
      vertex 2.496526e+02 2.304039e+01 -5.421698e+02
      vertex 2.496526e+02 2.298794e+01 -5.409991e+02
      vertex 1.180767e+02 2.298794e+01 -5.409991e+02
    endloop
  endfacet
  facet normal -9.549316e-16 -9.989978e-01 -4.475820e-02
    outer loop
      vertex 2.495767e+02 2.304120e+01 -5.421879e+02
      vertex 2.496526e+02 2.304039e+01 -5.421698e+02
      vertex 1.180767e+02 2.298794e+01 -5.409991e+02
    endloop
  endfacet
  facet normal -2.225729e-15 -9.989978e-01 -4.475820e-02
    outer loop
      vertex 2.494990e+02 2.304147e+01 -5.421940e+02
      vertex 2.495767e+02 2.304120e+01 -5.421879e+02
      vertex 1.180767e+02 2.298794e+01 -5.409991e+02
    endloop
  endfacet
  facet normal 0.000000e+00 -9.989978e-01 -4.475820e-02
    outer loop
      vertex 1.199080e+02 2.304147e+01 -5.421940e+02
      vertex 2.494990e+02 2.304147e+01 -5.421940e+02
      vertex 1.180767e+02 2.298794e+01 -5.409991e+02
    endloop
  endfacet
  facet normal 3.547633e-15 -9.989978e-01 -4.475820e-02
    outer loop
      vertex 1.188143e+02 2.302690e+01 -5.418688e+02
      vertex 1.199080e+02 2.304147e+01 -5.421940e+02
      vertex 1.180767e+02 2.298794e+01 -5.409991e+02
    endloop
  endfacet
  facet normal -7.619174e-01 -2.270283e-02 -6.472762e-01
    outer loop
      vertex 1.186361e+02 2.407420e+01 -5.416957e+02
      vertex 1.188143e+02 2.302690e+01 -5.418688e+02
      vertex 1.180767e+02 2.298794e+01 -5.409991e+02
    endloop
  endfacet
  facet normal -8.554388e-01 1.170087e-01 -5.045130e-01
    outer loop
      vertex 1.186361e+02 2.407420e+01 -5.416957e+02
      vertex 1.180767e+02 2.298794e+01 -5.409991e+02
      vertex 1.179448e+02 2.402223e+01 -5.405356e+02
    endloop
  endfacet
  facet normal 2.320201e-01 4.789346e-02 -9.715312e-01
    outer loop
      vertex 2.497027e+02 2.380470e+01 -5.421202e+02
      vertex 2.496526e+02 2.304039e+01 -5.421698e+02
      vertex 2.495767e+02 2.304120e+01 -5.421879e+02
    endloop
  endfacet
  facet normal 5.000000e-01 -8.651575e-01 -3.876174e-02
    outer loop
      vertex 2.499089e+02 2.317976e+01 -5.419746e+02
      vertex 2.499990e+02 2.321893e+01 -5.416865e+02
      vertex 2.496526e+02 2.304039e+01 -5.421698e+02
    endloop
  endfacet
  facet normal 5.739616e-01 1.554121e-02 -8.187347e-01
    outer loop
      vertex 2.498643e+02 2.370693e+01 -5.420088e+02
      vertex 2.496526e+02 2.304039e+01 -5.421698e+02
      vertex 2.497027e+02 2.380470e+01 -5.421202e+02
    endloop
  endfacet
  facet normal 6.059178e-01 -2.136973e-04 -7.955272e-01
    outer loop
      vertex 2.499089e+02 2.317976e+01 -5.419746e+02
      vertex 2.496526e+02 2.304039e+01 -5.421698e+02
      vertex 2.498643e+02 2.370693e+01 -5.420088e+02
    endloop
  endfacet
  facet normal 7.795931e-02 7.531599e-02 -9.941076e-01
    outer loop
      vertex 2.497027e+02 2.380470e+01 -5.421202e+02
      vertex 2.495767e+02 2.304120e+01 -5.421879e+02
      vertex 2.494990e+02 2.304147e+01 -5.421940e+02
    endloop
  endfacet
  facet normal 0.000000e+00 3.980939e-02 -9.992073e-01
    outer loop
      vertex 2.494990e+02 2.392395e+01 -5.421588e+02
      vertex 2.494990e+02 2.304147e+01 -5.421940e+02
      vertex 1.199080e+02 2.304147e+01 -5.421940e+02
    endloop
  endfacet
  facet normal 2.081702e-01 3.893727e-02 -9.773173e-01
    outer loop
      vertex 2.497027e+02 2.380470e+01 -5.421202e+02
      vertex 2.494990e+02 2.304147e+01 -5.421940e+02
      vertex 2.494990e+02 2.392395e+01 -5.421588e+02
    endloop
  endfacet
  facet normal -2.852605e-01 3.815531e-02 -9.576902e-01
    outer loop
      vertex 1.199080e+02 2.409465e+01 -5.421520e+02
      vertex 1.199080e+02 2.304147e+01 -5.421940e+02
      vertex 1.188143e+02 2.302690e+01 -5.418688e+02
    endloop
  endfacet
  facet normal 0.000000e+00 3.980939e-02 -9.992073e-01
    outer loop
      vertex 2.492031e+02 2.409465e+01 -5.421520e+02
      vertex 1.199080e+02 2.304147e+01 -5.421940e+02
      vertex 1.199080e+02 2.409465e+01 -5.421520e+02
    endloop
  endfacet
  facet normal -3.909554e-15 3.980939e-02 -9.992073e-01
    outer loop
      vertex 2.492031e+02 2.409465e+01 -5.421520e+02
      vertex 2.494990e+02 2.392395e+01 -5.421588e+02
      vertex 1.199080e+02 2.304147e+01 -5.421940e+02
    endloop
  endfacet
  facet normal -3.374702e-01 9.730612e-02 -9.362934e-01
    outer loop
      vertex 1.186361e+02 2.407420e+01 -5.416957e+02
      vertex 1.199080e+02 2.409465e+01 -5.421520e+02
      vertex 1.188143e+02 2.302690e+01 -5.418688e+02
    endloop
  endfacet
  facet normal 0.000000e+00 9.989978e-01 4.475820e-02
    outer loop
      vertex 2.352100e+02 2.270671e+01 -5.111734e+02
      vertex 2.492031e+02 2.409465e+01 -5.421520e+02
      vertex 1.199080e+02 2.409465e+01 -5.421520e+02
    endloop
  endfacet
  facet normal -1.126901e-15 9.989978e-01 4.475820e-02
    outer loop
      vertex 2.337830e+02 2.270671e+01 -5.111734e+02
      vertex 2.352100e+02 2.270671e+01 -5.111734e+02
      vertex 1.199080e+02 2.409465e+01 -5.421520e+02
    endloop
  endfacet
  facet normal 5.968028e-17 9.989978e-01 4.475820e-02
    outer loop
      vertex 2.329997e+02 2.265338e+01 -5.099830e+02
      vertex 2.337830e+02 2.270671e+01 -5.111734e+02
      vertex 1.199080e+02 2.409465e+01 -5.421520e+02
    endloop
  endfacet
  facet normal -2.409560e-16 9.989978e-01 4.475820e-02
    outer loop
      vertex 1.186361e+02 2.407420e+01 -5.416957e+02
      vertex 2.329997e+02 2.265338e+01 -5.099830e+02
      vertex 1.199080e+02 2.409465e+01 -5.421520e+02
    endloop
  endfacet
  facet normal 5.000000e-01 8.653389e-01 3.447594e-02
    outer loop
      vertex 2.494794e+02 2.265338e+01 -5.099830e+02
      vertex 2.494990e+02 2.392395e+01 -5.421588e+02
      vertex 2.492031e+02 2.409465e+01 -5.421520e+02
    endloop
  endfacet
  facet normal 5.000000e-01 8.653389e-01 3.447594e-02
    outer loop
      vertex 2.497027e+02 2.380470e+01 -5.421202e+02
      vertex 2.494990e+02 2.392395e+01 -5.421588e+02
      vertex 2.494794e+02 2.265338e+01 -5.099830e+02
    endloop
  endfacet
  facet normal 0.000000e+00 9.989978e-01 4.475820e-02
    outer loop
      vertex 2.359933e+02 2.265338e+01 -5.099830e+02
      vertex 2.494794e+02 2.265338e+01 -5.099830e+02
      vertex 2.492031e+02 2.409465e+01 -5.421520e+02
    endloop
  endfacet
  facet normal 1.035316e-15 9.989978e-01 4.475820e-02
    outer loop
      vertex 2.352100e+02 2.270671e+01 -5.111734e+02
      vertex 2.359933e+02 2.265338e+01 -5.099830e+02
      vertex 2.492031e+02 2.409465e+01 -5.421520e+02
    endloop
  endfacet
  facet normal 0.000000e+00 4.475820e-02 -9.989978e-01
    outer loop
      vertex 2.487866e+02 2.305297e+01 -5.099651e+02
      vertex 2.494794e+02 2.265338e+01 -5.099830e+02
      vertex 2.359933e+02 2.265338e+01 -5.099830e+02
    endloop
  endfacet
  facet normal 5.000000e-01 8.653396e-01 3.445865e-02
    outer loop
      vertex 2.499990e+02 2.235356e+01 -5.099938e+02
      vertex 2.494794e+02 2.265338e+01 -5.099830e+02
      vertex 2.487866e+02 2.305297e+01 -5.099651e+02
    endloop
  endfacet
  facet normal 5.000000e-01 8.653389e-01 3.447594e-02
    outer loop
      vertex 2.499990e+02 2.361560e+01 -5.416707e+02
      vertex 2.494794e+02 2.265338e+01 -5.099830e+02
      vertex 2.499990e+02 2.235356e+01 -5.099938e+02
    endloop
  endfacet
  facet normal 5.000000e-01 8.653389e-01 3.447594e-02
    outer loop
      vertex 2.498643e+02 2.370693e+01 -5.420088e+02
      vertex 2.494794e+02 2.265338e+01 -5.099830e+02
      vertex 2.499990e+02 2.361560e+01 -5.416707e+02
    endloop
  endfacet
  facet normal 5.000000e-01 8.653389e-01 3.447594e-02
    outer loop
      vertex 2.498643e+02 2.370693e+01 -5.420088e+02
      vertex 2.497027e+02 2.380470e+01 -5.421202e+02
      vertex 2.494794e+02 2.265338e+01 -5.099830e+02
    endloop
  endfacet
  facet normal 3.860488e-16 4.475820e-02 -9.989978e-01
    outer loop
      vertex 2.359934e+02 2.285317e+01 -5.099741e+02
      vertex 2.487866e+02 2.305297e+01 -5.099651e+02
      vertex 2.359933e+02 2.265338e+01 -5.099830e+02
    endloop
  endfacet
  facet normal 0.000000e+00 9.989978e-01 4.475820e-02
    outer loop
      vertex 1.156417e+02 2.329561e+01 -5.243176e+02
      vertex 1.155186e+02 2.265338e+01 -5.099830e+02
      vertex 2.329997e+02 2.265338e+01 -5.099830e+02
    endloop
  endfacet
  facet normal 0.000000e+00 4.475820e-02 -9.989978e-01
    outer loop
      vertex 2.329996e+02 2.285317e+01 -5.099741e+02
      vertex 2.329997e+02 2.265338e+01 -5.099830e+02
      vertex 1.155186e+02 2.265338e+01 -5.099830e+02
    endloop
  endfacet
  facet normal 8.244515e-17 9.989978e-01 4.475820e-02
    outer loop
      vertex 1.165851e+02 2.366022e+01 -5.324557e+02
      vertex 1.156417e+02 2.329561e+01 -5.243176e+02
      vertex 2.329997e+02 2.265338e+01 -5.099830e+02
    endloop
  endfacet
  facet normal 9.136208e-17 9.989978e-01 4.475820e-02
    outer loop
      vertex 1.179448e+02 2.402223e+01 -5.405356e+02
      vertex 1.165851e+02 2.366022e+01 -5.324557e+02
      vertex 2.329997e+02 2.265338e+01 -5.099830e+02
    endloop
  endfacet
  facet normal -1.380344e-15 9.989978e-01 4.475820e-02
    outer loop
      vertex 1.186361e+02 2.407420e+01 -5.416957e+02
      vertex 1.179448e+02 2.402223e+01 -5.405356e+02
      vertex 2.329997e+02 2.265338e+01 -5.099830e+02
    endloop
  endfacet
  facet normal -5.000000e-01 8.653389e-01 3.447594e-02
    outer loop
      vertex 1.149990e+02 2.235357e+01 -5.099938e+02
      vertex 1.155186e+02 2.265338e+01 -5.099830e+02
      vertex 1.156417e+02 2.329561e+01 -5.243176e+02
    endloop
  endfacet
  facet normal 0.000000e+00 4.475820e-02 -9.989978e-01
    outer loop
      vertex 1.162114e+02 2.305297e+01 -5.099651e+02
      vertex 2.329995e+02 2.305297e+01 -5.099651e+02
      vertex 1.155186e+02 2.265338e+01 -5.099830e+02
    endloop
  endfacet
  facet normal -2.579322e-17 4.475820e-02 -9.989978e-01
    outer loop
      vertex 2.329996e+02 2.285317e+01 -5.099741e+02
      vertex 1.155186e+02 2.265338e+01 -5.099830e+02
      vertex 2.329995e+02 2.305297e+01 -5.099651e+02
    endloop
  endfacet
  facet normal -5.000000e-01 8.653396e-01 3.445865e-02
    outer loop
      vertex 1.149990e+02 2.235357e+01 -5.099938e+02
      vertex 1.162114e+02 2.305297e+01 -5.099651e+02
      vertex 1.155186e+02 2.265338e+01 -5.099830e+02
    endloop
  endfacet
  facet normal -5.000000e-01 8.653389e-01 3.447594e-02
    outer loop
      vertex 1.149990e+02 2.235357e+01 -5.099938e+02
      vertex 1.156417e+02 2.329561e+01 -5.243176e+02
      vertex 1.151591e+02 2.273173e+01 -5.171636e+02
    endloop
  endfacet
  facet normal 0.000000e+00 9.989978e-01 4.475820e-02
    outer loop
      vertex 2.329954e+02 2.305011e+01 -5.099012e+02
      vertex 2.329995e+02 2.305297e+01 -5.099651e+02
      vertex 1.162114e+02 2.305297e+01 -5.099651e+02
    endloop
  endfacet
  facet normal -8.394442e-14 9.989978e-01 4.475820e-02
    outer loop
      vertex 1.180277e+02 2.166838e+01 -4.790611e+02
      vertex 1.180861e+02 2.165860e+01 -4.788428e+02
      vertex 1.162114e+02 2.305297e+01 -5.099651e+02
    endloop
  endfacet
  facet normal 6.248204e-17 9.989978e-01 4.475820e-02
    outer loop
      vertex 1.305700e+02 2.289404e+01 -5.064177e+02
      vertex 1.162114e+02 2.305297e+01 -5.099651e+02
      vertex 1.180861e+02 2.165860e+01 -4.788428e+02
    endloop
  endfacet
  facet normal 1.124475e-13 9.989978e-01 4.475820e-02
    outer loop
      vertex 1.179792e+02 2.167827e+01 -4.792818e+02
      vertex 1.180277e+02 2.166838e+01 -4.790611e+02
      vertex 1.162114e+02 2.305297e+01 -5.099651e+02
    endloop
  endfacet
  facet normal 4.353245e-16 9.989978e-01 4.475820e-02
    outer loop
      vertex 1.158917e+02 2.299170e+01 -5.085975e+02
      vertex 1.179792e+02 2.167827e+01 -4.792818e+02
      vertex 1.162114e+02 2.305297e+01 -5.099651e+02
    endloop
  endfacet
  facet normal -4.781188e-01 8.752913e-01 -7.257772e-02
    outer loop
      vertex 1.150033e+02 2.248624e+01 -5.088410e+02
      vertex 1.158917e+02 2.299170e+01 -5.085975e+02
      vertex 1.162114e+02 2.305297e+01 -5.099651e+02
    endloop
  endfacet
  facet normal 2.229941e-17 9.989978e-01 4.475820e-02
    outer loop
      vertex 2.329940e+02 2.304722e+01 -5.098366e+02
      vertex 2.329954e+02 2.305011e+01 -5.099012e+02
      vertex 1.162114e+02 2.305297e+01 -5.099651e+02
    endloop
  endfacet
  facet normal 1.607349e-17 9.989978e-01 4.475820e-02
    outer loop
      vertex 2.239990e+02 2.300481e+01 -5.088900e+02
      vertex 2.329940e+02 2.304722e+01 -5.098366e+02
      vertex 1.162114e+02 2.305297e+01 -5.099651e+02
    endloop
  endfacet
  facet normal 0.000000e+00 9.989978e-01 4.475820e-02
    outer loop
      vertex 1.319990e+02 2.300481e+01 -5.088900e+02
      vertex 2.239990e+02 2.300481e+01 -5.088900e+02
      vertex 1.162114e+02 2.305297e+01 -5.099651e+02
    endloop
  endfacet
  facet normal 1.905454e-18 9.989978e-01 4.475820e-02
    outer loop
      vertex 1.305700e+02 2.296787e+01 -5.080656e+02
      vertex 1.319990e+02 2.300481e+01 -5.088900e+02
      vertex 1.162114e+02 2.305297e+01 -5.099651e+02
    endloop
  endfacet
  facet normal 1.523408e-16 9.989978e-01 4.475820e-02
    outer loop
      vertex 1.305700e+02 2.289404e+01 -5.064177e+02
      vertex 1.305700e+02 2.296787e+01 -5.080656e+02
      vertex 1.162114e+02 2.305297e+01 -5.099651e+02
    endloop
  endfacet
  facet normal -4.955688e-01 8.630803e-01 -9.748802e-02
    outer loop
      vertex 1.150033e+02 2.248624e+01 -5.088410e+02
      vertex 1.162114e+02 2.305297e+01 -5.099651e+02
      vertex 1.149990e+02 2.235357e+01 -5.099938e+02
    endloop
  endfacet
  facet normal 0.000000e+00 4.475820e-02 -9.989978e-01
    outer loop
      vertex 2.359934e+02 2.285317e+01 -5.099741e+02
      vertex 2.359935e+02 2.305297e+01 -5.099651e+02
      vertex 2.487866e+02 2.305297e+01 -5.099651e+02
    endloop
  endfacet
  facet normal 0.000000e+00 9.989978e-01 4.475820e-02
    outer loop
      vertex 2.359976e+02 2.305011e+01 -5.099012e+02
      vertex 2.487866e+02 2.305297e+01 -5.099651e+02
      vertex 2.359935e+02 2.305297e+01 -5.099651e+02
    endloop
  endfacet
  facet normal 7.166376e-17 9.989978e-01 4.475820e-02
    outer loop
      vertex 2.359976e+02 2.305011e+01 -5.099012e+02
      vertex 2.359990e+02 2.304722e+01 -5.098366e+02
      vertex 2.487866e+02 2.305297e+01 -5.099651e+02
    endloop
  endfacet
  facet normal -1.426315e-16 9.989978e-01 4.475820e-02
    outer loop
      vertex 2.499990e+02 2.165860e+01 -4.788428e+02
      vertex 2.487866e+02 2.305297e+01 -5.099651e+02
      vertex 2.359990e+02 2.304722e+01 -5.098366e+02
    endloop
  endfacet
  facet normal 3.360721e-15 9.989978e-01 4.475820e-02
    outer loop
      vertex 2.499990e+02 2.165860e+01 -4.788428e+02
      vertex 2.491117e+02 2.299120e+01 -5.085864e+02
      vertex 2.487866e+02 2.305297e+01 -5.099651e+02
    endloop
  endfacet
  facet normal 4.967488e-01 8.643429e-01 -7.843446e-02
    outer loop
      vertex 2.499990e+02 2.235356e+01 -5.099938e+02
      vertex 2.487866e+02 2.305297e+01 -5.099651e+02
      vertex 2.491117e+02 2.299120e+01 -5.085864e+02
    endloop
  endfacet
  facet normal -9.660878e-01 -1.027934e-02 2.580093e-01
    outer loop
      vertex 1.180861e+02 2.027609e+01 -4.788979e+02
      vertex 1.180861e+02 2.165860e+01 -4.788428e+02
      vertex 1.180277e+02 2.166838e+01 -4.790611e+02
    endloop
  endfacet
  facet normal 1.651519e-16 9.989978e-01 4.475820e-02
    outer loop
      vertex 1.319990e+02 2.285710e+01 -5.055933e+02
      vertex 1.305700e+02 2.289404e+01 -5.064177e+02
      vertex 1.180861e+02 2.165860e+01 -4.788428e+02
    endloop
  endfacet
  facet normal 0.000000e+00 9.989978e-01 4.475820e-02
    outer loop
      vertex 2.499990e+02 2.165860e+01 -4.788428e+02
      vertex 1.319990e+02 2.285710e+01 -5.055933e+02
      vertex 1.180861e+02 2.165860e+01 -4.788428e+02
    endloop
  endfacet
  facet normal 0.000000e+00 -3.980939e-02 9.992073e-01
    outer loop
      vertex 2.499990e+02 2.161103e+01 -4.788447e+02
      vertex 2.499990e+02 2.165860e+01 -4.788428e+02
      vertex 1.180861e+02 2.165860e+01 -4.788428e+02
    endloop
  endfacet
  facet normal -9.767580e-01 -1.591511e-02 2.137535e-01
    outer loop
      vertex 1.180861e+02 2.027609e+01 -4.788979e+02
      vertex 1.180277e+02 2.166838e+01 -4.790611e+02
      vertex 1.179792e+02 2.167827e+01 -4.792818e+02
    endloop
  endfacet
  facet normal -9.831685e-16 9.989978e-01 4.475820e-02
    outer loop
      vertex 1.158917e+02 2.299170e+01 -5.085975e+02
      vertex 1.158710e+02 2.230745e+01 -4.933250e+02
      vertex 1.179792e+02 2.167827e+01 -4.792818e+02
    endloop
  endfacet
  facet normal -3.623851e-15 9.989978e-01 4.475820e-02
    outer loop
      vertex 1.158917e+02 2.299170e+01 -5.085975e+02
      vertex 1.150184e+02 2.294241e+01 -5.074974e+02
      vertex 1.158710e+02 2.230745e+01 -4.933250e+02
    endloop
  endfacet
  facet normal -4.124726e-01 8.640127e-01 -2.887013e-01
    outer loop
      vertex 1.150033e+02 2.248624e+01 -5.088410e+02
      vertex 1.150184e+02 2.294241e+01 -5.074974e+02
      vertex 1.158917e+02 2.299170e+01 -5.085975e+02
    endloop
  endfacet
  facet normal -9.999346e-01 -4.293166e-04 1.143110e-02
    outer loop
      vertex 1.150034e+02 2.063495e+01 -5.089029e+02
      vertex 1.150184e+02 2.294241e+01 -5.074974e+02
      vertex 1.150033e+02 2.248624e+01 -5.088410e+02
    endloop
  endfacet
  facet normal 4.348225e-17 9.989978e-01 4.475820e-02
    outer loop
      vertex 2.239990e+02 2.300481e+01 -5.088900e+02
      vertex 2.329940e+02 2.299362e+01 -5.086403e+02
      vertex 2.329940e+02 2.304722e+01 -5.098366e+02
    endloop
  endfacet
  facet normal 0.000000e+00 9.989978e-01 4.475820e-02
    outer loop
      vertex 2.244535e+02 2.300195e+01 -5.088262e+02
      vertex 2.248722e+02 2.299362e+01 -5.086403e+02
      vertex 2.329940e+02 2.299362e+01 -5.086403e+02
    endloop
  endfacet
  facet normal 5.369876e-16 9.989978e-01 4.475820e-02
    outer loop
      vertex 2.239990e+02 2.300481e+01 -5.088900e+02
      vertex 2.244535e+02 2.300195e+01 -5.088262e+02
      vertex 2.329940e+02 2.299362e+01 -5.086403e+02
    endloop
  endfacet
  facet normal 0.000000e+00 9.989978e-01 4.475820e-02
    outer loop
      vertex 2.499990e+02 2.165860e+01 -4.788428e+02
      vertex 2.239990e+02 2.285710e+01 -5.055933e+02
      vertex 1.319990e+02 2.285710e+01 -5.055933e+02
    endloop
  endfacet
  facet normal 5.136798e-16 9.989978e-01 4.475820e-02
    outer loop
      vertex 2.499990e+02 2.165860e+01 -4.788428e+02
      vertex 2.244535e+02 2.285996e+01 -5.056571e+02
      vertex 2.239990e+02 2.285710e+01 -5.055933e+02
    endloop
  endfacet
  facet normal 4.443082e-16 9.989978e-01 4.475820e-02
    outer loop
      vertex 2.499990e+02 2.165860e+01 -4.788428e+02
      vertex 2.248722e+02 2.286829e+01 -5.058431e+02
      vertex 2.244535e+02 2.285996e+01 -5.056571e+02
    endloop
  endfacet
  facet normal 0.000000e+00 9.989978e-01 4.475820e-02
    outer loop
      vertex 2.329940e+02 2.281470e+01 -5.046467e+02
      vertex 2.329940e+02 2.286829e+01 -5.058431e+02
      vertex 2.248722e+02 2.286829e+01 -5.058431e+02
    endloop
  endfacet
  facet normal -7.463717e-17 9.989978e-01 4.475820e-02
    outer loop
      vertex 2.337455e+02 2.275645e+01 -5.033468e+02
      vertex 2.329940e+02 2.281470e+01 -5.046467e+02
      vertex 2.248722e+02 2.286829e+01 -5.058431e+02
    endloop
  endfacet
  facet normal -4.214270e-16 9.989978e-01 4.475820e-02
    outer loop
      vertex 2.499990e+02 2.165860e+01 -4.788428e+02
      vertex 2.337455e+02 2.275645e+01 -5.033468e+02
      vertex 2.248722e+02 2.286829e+01 -5.058431e+02
    endloop
  endfacet
  facet normal 1.349988e-15 9.989978e-01 4.475820e-02
    outer loop
      vertex 2.499990e+02 2.165860e+01 -4.788428e+02
      vertex 2.352475e+02 2.275645e+01 -5.033468e+02
      vertex 2.337455e+02 2.275645e+01 -5.033468e+02
    endloop
  endfacet
  facet normal -5.664991e-16 9.989978e-01 4.475820e-02
    outer loop
      vertex 2.499990e+02 2.165860e+01 -4.788428e+02
      vertex 2.359990e+02 2.281470e+01 -5.046467e+02
      vertex 2.352475e+02 2.275645e+01 -5.033468e+02
    endloop
  endfacet
  facet normal 4.884738e-16 9.989978e-01 4.475820e-02
    outer loop
      vertex 2.499990e+02 2.165860e+01 -4.788428e+02
      vertex 2.359990e+02 2.304722e+01 -5.098366e+02
      vertex 2.359990e+02 2.281470e+01 -5.046467e+02
    endloop
  endfacet
  facet normal -1.000000e+00 0.000000e+00 0.000000e+00
    outer loop
      vertex 2.359990e+02 2.249812e+01 -5.072539e+02
      vertex 2.359990e+02 2.281470e+01 -5.046467e+02
      vertex 2.359990e+02 2.304722e+01 -5.098366e+02
    endloop
  endfacet
  facet normal -1.000000e+00 0.000000e+00 0.000000e+00
    outer loop
      vertex 2.359990e+02 2.195663e+01 -5.064060e+02
      vertex 2.359990e+02 2.281470e+01 -5.046467e+02
      vertex 2.359990e+02 2.249812e+01 -5.072539e+02
    endloop
  endfacet
  facet normal -1.000000e+00 0.000000e+00 0.000000e+00
    outer loop
      vertex 2.359990e+02 2.203462e+01 -5.081469e+02
      vertex 2.359990e+02 2.249812e+01 -5.072539e+02
      vertex 2.359990e+02 2.304722e+01 -5.098366e+02
    endloop
  endfacet
  facet normal -1.000000e+00 0.000000e+00 0.000000e+00
    outer loop
      vertex 2.359990e+02 2.203462e+01 -5.081469e+02
      vertex 2.359990e+02 2.304722e+01 -5.098366e+02
      vertex 2.359990e+02 2.102914e+01 -5.081919e+02
    endloop
  endfacet
  facet normal 1.955433e-15 9.989978e-01 4.475820e-02
    outer loop
      vertex 2.499990e+02 2.165860e+01 -4.788428e+02
      vertex 2.499990e+02 2.294172e+01 -5.074818e+02
      vertex 2.491117e+02 2.299120e+01 -5.085864e+02
    endloop
  endfacet
  facet normal 4.102242e-01 8.643800e-01 -2.907978e-01
    outer loop
      vertex 2.499990e+02 2.248319e+01 -5.088448e+02
      vertex 2.491117e+02 2.299120e+01 -5.085864e+02
      vertex 2.499990e+02 2.294172e+01 -5.074818e+02
    endloop
  endfacet
  facet normal 4.726313e-01 8.757060e-01 -9.878616e-02
    outer loop
      vertex 2.499990e+02 2.235356e+01 -5.099938e+02
      vertex 2.491117e+02 2.299120e+01 -5.085864e+02
      vertex 2.499990e+02 2.248319e+01 -5.088448e+02
    endloop
  endfacet
  facet normal 1.000000e+00 0.000000e+00 0.000000e+00
    outer loop
      vertex 2.499990e+02 2.187377e+01 -4.854395e+02
      vertex 2.499990e+02 2.294172e+01 -5.074818e+02
      vertex 2.499990e+02 2.165860e+01 -4.788428e+02
    endloop
  endfacet
  facet normal 1.000000e+00 0.000000e+00 0.000000e+00
    outer loop
      vertex 2.499990e+02 2.203462e+01 -5.081469e+02
      vertex 2.499990e+02 2.294172e+01 -5.074818e+02
      vertex 2.499990e+02 2.249812e+01 -5.072539e+02
    endloop
  endfacet
  facet normal 1.000000e+00 0.000000e+00 0.000000e+00
    outer loop
      vertex 2.499990e+02 2.187377e+01 -4.854395e+02
      vertex 2.499990e+02 2.249812e+01 -5.072539e+02
      vertex 2.499990e+02 2.294172e+01 -5.074818e+02
    endloop
  endfacet
  facet normal 1.000000e+00 0.000000e+00 0.000000e+00
    outer loop
      vertex 2.499990e+02 2.248319e+01 -5.088448e+02
      vertex 2.499990e+02 2.294172e+01 -5.074818e+02
      vertex 2.499990e+02 2.203462e+01 -5.081469e+02
    endloop
  endfacet
  facet normal 1.000000e+00 0.000000e+00 0.000000e+00
    outer loop
      vertex 2.499990e+02 2.187377e+01 -4.854395e+02
      vertex 2.499990e+02 2.165860e+01 -4.788428e+02
      vertex 2.499990e+02 2.161103e+01 -4.788447e+02
    endloop
  endfacet
  facet normal -7.193320e-16 9.992073e-01 3.980939e-02
    outer loop
      vertex 1.198861e+02 2.017259e+01 -4.763000e+02
      vertex 1.228861e+02 2.013278e+01 -4.753007e+02
      vertex 1.180861e+02 2.027609e+01 -4.788979e+02
    endloop
  endfacet
  facet normal 0.000000e+00 9.992073e-01 3.980939e-02
    outer loop
      vertex 1.239990e+02 2.013278e+01 -4.753007e+02
      vertex 1.180861e+02 2.027609e+01 -4.788979e+02
      vertex 1.228861e+02 2.013278e+01 -4.753007e+02
    endloop
  endfacet
  facet normal 3.788725e-16 9.992073e-01 3.980939e-02
    outer loop
      vertex 1.239990e+02 2.013278e+01 -4.753007e+02
      vertex 1.239990e+02 2.017076e+01 -4.762540e+02
      vertex 1.180861e+02 2.027609e+01 -4.788979e+02
    endloop
  endfacet
  facet normal -2.117041e-16 9.992073e-01 3.980939e-02
    outer loop
      vertex 2.514635e+02 2.173303e+01 -4.819068e+02
      vertex 2.499990e+02 2.161103e+01 -4.788447e+02
      vertex 2.549990e+02 2.167473e+01 -4.804434e+02
    endloop
  endfacet
  facet normal 1.223246e-15 9.992073e-01 3.980939e-02
    outer loop
      vertex 2.514635e+02 2.173303e+01 -4.819068e+02
      vertex 2.499990e+02 2.187377e+01 -4.854395e+02
      vertex 2.499990e+02 2.161103e+01 -4.788447e+02
    endloop
  endfacet
  facet normal -1.000000e+00 0.000000e+00 0.000000e+00
    outer loop
      vertex 1.239990e+02 2.149747e+01 -4.752464e+02
      vertex 1.239990e+02 2.017076e+01 -4.762540e+02
      vertex 1.239990e+02 2.013278e+01 -4.753007e+02
    endloop
  endfacet
  facet normal -1.000000e+00 0.000000e+00 0.000000e+00
    outer loop
      vertex 1.239990e+02 2.149747e+01 -4.752464e+02
      vertex 1.239990e+02 2.154017e+01 -4.761994e+02
      vertex 1.239990e+02 2.017076e+01 -4.762540e+02
    endloop
  endfacet
  facet normal 0.000000e+00 9.992073e-01 3.980939e-02
    outer loop
      vertex 2.940825e+02 2.165410e+01 -4.799257e+02
      vertex 2.933049e+02 2.167473e+01 -4.804434e+02
      vertex 2.549990e+02 2.167473e+01 -4.804434e+02
    endloop
  endfacet
  facet normal -9.073495e-17 9.992073e-01 3.980939e-02
    outer loop
      vertex 2.949990e+02 2.164686e+01 -4.797440e+02
      vertex 2.940825e+02 2.165410e+01 -4.799257e+02
      vertex 2.549990e+02 2.167473e+01 -4.804434e+02
    endloop
  endfacet
  facet normal 1.000000e+00 0.000000e+00 0.000000e+00
    outer loop
      vertex 2.499990e+02 2.187377e+01 -4.854395e+02
      vertex 2.499990e+02 2.195663e+01 -5.064060e+02
      vertex 2.499990e+02 2.249812e+01 -5.072539e+02
    endloop
  endfacet
  facet normal 0.000000e+00 -8.427962e-01 -5.382327e-01
    outer loop
      vertex 2.359990e+02 2.249812e+01 -5.072539e+02
      vertex 2.499990e+02 2.249812e+01 -5.072539e+02
      vertex 2.499990e+02 2.195663e+01 -5.064060e+02
    endloop
  endfacet
  facet normal 0.000000e+00 -8.875519e-01 4.607078e-01
    outer loop
      vertex 2.359990e+02 2.203462e+01 -5.081469e+02
      vertex 2.499990e+02 2.203462e+01 -5.081469e+02
      vertex 2.499990e+02 2.249812e+01 -5.072539e+02
    endloop
  endfacet
  facet normal 0.000000e+00 -8.875519e-01 4.607078e-01
    outer loop
      vertex 2.359990e+02 2.203462e+01 -5.081469e+02
      vertex 2.499990e+02 2.249812e+01 -5.072539e+02
      vertex 2.359990e+02 2.249812e+01 -5.072539e+02
    endloop
  endfacet
  facet normal 1.000000e+00 0.000000e+00 0.000000e+00
    outer loop
      vertex 2.499990e+02 2.187377e+01 -4.854395e+02
      vertex 2.499990e+02 2.095114e+01 -5.064511e+02
      vertex 2.499990e+02 2.195663e+01 -5.064060e+02
    endloop
  endfacet
  facet normal 0.000000e+00 4.475820e-02 -9.989978e-01
    outer loop
      vertex 2.359990e+02 2.195663e+01 -5.064060e+02
      vertex 2.499990e+02 2.195663e+01 -5.064060e+02
      vertex 2.499990e+02 2.095114e+01 -5.064511e+02
    endloop
  endfacet
  facet normal 0.000000e+00 -8.427962e-01 -5.382327e-01
    outer loop
      vertex 2.359990e+02 2.195663e+01 -5.064060e+02
      vertex 2.359990e+02 2.249812e+01 -5.072539e+02
      vertex 2.499990e+02 2.195663e+01 -5.064060e+02
    endloop
  endfacet
  facet normal -2.252298e-16 8.875519e-01 -4.607078e-01
    outer loop
      vertex 2.359990e+02 2.095114e+01 -5.064511e+02
      vertex 2.499990e+02 2.095114e+01 -5.064511e+02
      vertex 2.499990e+02 2.048764e+01 -5.073440e+02
    endloop
  endfacet
  facet normal -1.135808e-17 4.475820e-02 -9.989978e-01
    outer loop
      vertex 2.359990e+02 2.095114e+01 -5.064511e+02
      vertex 2.359990e+02 2.195663e+01 -5.064060e+02
      vertex 2.499990e+02 2.095114e+01 -5.064511e+02
    endloop
  endfacet
  facet normal 0.000000e+00 8.427962e-01 5.382327e-01
    outer loop
      vertex 2.359990e+02 2.048764e+01 -5.073440e+02
      vertex 2.499990e+02 2.048764e+01 -5.073440e+02
      vertex 2.499990e+02 2.102914e+01 -5.081919e+02
    endloop
  endfacet
  facet normal 0.000000e+00 8.875519e-01 -4.607078e-01
    outer loop
      vertex 2.359990e+02 2.048764e+01 -5.073440e+02
      vertex 2.359990e+02 2.095114e+01 -5.064511e+02
      vertex 2.499990e+02 2.048764e+01 -5.073440e+02
    endloop
  endfacet
  facet normal 1.000000e+00 0.000000e+00 0.000000e+00
    outer loop
      vertex 2.499990e+02 2.063884e+01 -5.089080e+02
      vertex 2.499990e+02 2.203462e+01 -5.081469e+02
      vertex 2.499990e+02 2.102914e+01 -5.081919e+02
    endloop
  endfacet
  facet normal 0.000000e+00 -4.475820e-02 9.989978e-01
    outer loop
      vertex 2.359990e+02 2.102914e+01 -5.081919e+02
      vertex 2.499990e+02 2.102914e+01 -5.081919e+02
      vertex 2.499990e+02 2.203462e+01 -5.081469e+02
    endloop
  endfacet
  facet normal 0.000000e+00 8.427962e-01 5.382327e-01
    outer loop
      vertex 2.359990e+02 2.102914e+01 -5.081919e+02
      vertex 2.359990e+02 2.048764e+01 -5.073440e+02
      vertex 2.499990e+02 2.102914e+01 -5.081919e+02
    endloop
  endfacet
  facet normal 1.000000e+00 0.000000e+00 0.000000e+00
    outer loop
      vertex 2.499990e+02 2.063884e+01 -5.089080e+02
      vertex 2.499990e+02 2.248319e+01 -5.088448e+02
      vertex 2.499990e+02 2.203462e+01 -5.081469e+02
    endloop
  endfacet
  facet normal 0.000000e+00 -4.475820e-02 9.989978e-01
    outer loop
      vertex 2.359990e+02 2.203462e+01 -5.081469e+02
      vertex 2.359990e+02 2.102914e+01 -5.081919e+02
      vertex 2.499990e+02 2.203462e+01 -5.081469e+02
    endloop
  endfacet
  facet normal 1.000000e+00 0.000000e+00 0.000000e+00
    outer loop
      vertex 2.499990e+02 2.086283e+01 -5.100532e+02
      vertex 2.499990e+02 2.235356e+01 -5.099938e+02
      vertex 2.499990e+02 2.248319e+01 -5.088448e+02
    endloop
  endfacet
  facet normal 1.000000e+00 0.000000e+00 0.000000e+00
    outer loop
      vertex 2.499990e+02 2.063884e+01 -5.089080e+02
      vertex 2.499990e+02 2.086283e+01 -5.100532e+02
      vertex 2.499990e+02 2.248319e+01 -5.088448e+02
    endloop
  endfacet
  facet normal 1.000000e+00 0.000000e+00 0.000000e+00
    outer loop
      vertex 2.499990e+02 2.321893e+01 -5.416865e+02
      vertex 2.499990e+02 2.361560e+01 -5.416707e+02
      vertex 2.499990e+02 2.235356e+01 -5.099938e+02
    endloop
  endfacet
  facet normal 9.538779e-01 1.195058e-02 -2.999570e-01
    outer loop
      vertex 2.499089e+02 2.317976e+01 -5.419746e+02
      vertex 2.499990e+02 2.361560e+01 -5.416707e+02
      vertex 2.499990e+02 2.321893e+01 -5.416865e+02
    endloop
  endfacet
  facet normal 9.325862e-01 5.585545e-02 -3.565995e-01
    outer loop
      vertex 2.499089e+02 2.317976e+01 -5.419746e+02
      vertex 2.498643e+02 2.370693e+01 -5.420088e+02
      vertex 2.499990e+02 2.361560e+01 -5.416707e+02
    endloop
  endfacet
  facet normal -9.997514e-01 8.876160e-04 -2.227897e-02
    outer loop
      vertex 1.149990e+02 2.086283e+01 -5.100532e+02
      vertex 1.149990e+02 2.235357e+01 -5.099938e+02
      vertex 1.151591e+02 2.273173e+01 -5.171636e+02
    endloop
  endfacet
  facet normal -9.997496e-01 1.052492e-02 -1.974586e-02
    outer loop
      vertex 1.151284e+02 2.104522e+01 -5.165078e+02
      vertex 1.149990e+02 2.086283e+01 -5.100532e+02
      vertex 1.151591e+02 2.273173e+01 -5.171636e+02
    endloop
  endfacet
  facet normal -9.999930e-01 -1.715606e-04 3.726885e-03
    outer loop
      vertex 1.150034e+02 2.063495e+01 -5.089029e+02
      vertex 1.150033e+02 2.248624e+01 -5.088410e+02
      vertex 1.149990e+02 2.235357e+01 -5.099938e+02
    endloop
  endfacet
  facet normal -9.999929e-01 -1.498456e-04 3.761093e-03
    outer loop
      vertex 1.149990e+02 2.086283e+01 -5.100532e+02
      vertex 1.150034e+02 2.063495e+01 -5.089029e+02
      vertex 1.149990e+02 2.235357e+01 -5.099938e+02
    endloop
  endfacet
endsolid 014_100022596-14
