solid 048_100022596-13
  facet normal 1.000000e+00 0.000000e+00 0.000000e+00
    outer loop
      vertex 3.199990e+02 -2.129730e+01 -4.788563e+02
      vertex 3.199990e+02 -2.402871e+01 -4.796215e+02
      vertex 3.199990e+02 -2.134204e+01 -4.797552e+02
    endloop
  endfacet
  facet normal 2.277990e-15 -4.970591e-02 -9.987639e-01
    outer loop
      vertex 2.949990e+02 -2.402871e+01 -4.796215e+02
      vertex 3.199990e+02 -2.134204e+01 -4.797552e+02
      vertex 3.199990e+02 -2.402871e+01 -4.796215e+02
    endloop
  endfacet
  facet normal 0.000000e+00 9.987639e-01 -4.970591e-02
    outer loop
      vertex 2.949990e+02 -2.134204e+01 -4.797552e+02
      vertex 3.199990e+02 -2.129730e+01 -4.788563e+02
      vertex 3.199990e+02 -2.134204e+01 -4.797552e+02
    endloop
  endfacet
  facet normal 0.000000e+00 -4.970591e-02 -9.987639e-01
    outer loop
      vertex 2.949990e+02 -2.134204e+01 -4.797552e+02
      vertex 3.199990e+02 -2.134204e+01 -4.797552e+02
      vertex 2.949990e+02 -2.402871e+01 -4.796215e+02
    endloop
  endfacet
  facet normal 1.000000e+00 0.000000e+00 0.000000e+00
    outer loop
      vertex 3.199990e+02 -2.250013e+01 -4.761472e+02
      vertex 3.199990e+02 -2.380503e+01 -4.751270e+02
      vertex 3.199990e+02 -2.402871e+01 -4.796215e+02
    endloop
  endfacet
  facet normal 0.000000e+00 -9.987639e-01 4.970591e-02
    outer loop
      vertex 1.228861e+02 -2.380503e+01 -4.751270e+02
      vertex 3.199990e+02 -2.402871e+01 -4.796215e+02
      vertex 3.199990e+02 -2.380503e+01 -4.751270e+02
    endloop
  endfacet
  facet normal 1.000000e+00 0.000000e+00 0.000000e+00
    outer loop
      vertex 3.199990e+02 -2.263165e+01 -4.787899e+02
      vertex 3.199990e+02 -2.250013e+01 -4.761472e+02
      vertex 3.199990e+02 -2.402871e+01 -4.796215e+02
    endloop
  endfacet
  facet normal 1.000000e+00 0.000000e+00 0.000000e+00
    outer loop
      vertex 3.199990e+02 -2.129730e+01 -4.788563e+02
      vertex 3.199990e+02 -2.263165e+01 -4.787899e+02
      vertex 3.199990e+02 -2.402871e+01 -4.796215e+02
    endloop
  endfacet
  facet normal 2.960595e-17 -9.987639e-01 4.970591e-02
    outer loop
      vertex 1.228861e+02 -2.380503e+01 -4.751270e+02
      vertex 2.949990e+02 -2.402871e+01 -4.796215e+02
      vertex 3.199990e+02 -2.402871e+01 -4.796215e+02
    endloop
  endfacet
  facet normal 1.000000e+00 0.000000e+00 0.000000e+00
    outer loop
      vertex 3.199990e+02 -2.250013e+01 -4.761472e+02
      vertex 3.199990e+02 -2.108862e+01 -4.752622e+02
      vertex 3.199990e+02 -2.380503e+01 -4.751270e+02
    endloop
  endfacet
  facet normal 0.000000e+00 4.970591e-02 9.987639e-01
    outer loop
      vertex 1.239990e+02 -2.108862e+01 -4.752622e+02
      vertex 3.199990e+02 -2.380503e+01 -4.751270e+02
      vertex 3.199990e+02 -2.108862e+01 -4.752622e+02
    endloop
  endfacet
  facet normal 0.000000e+00 4.970591e-02 9.987639e-01
    outer loop
      vertex 1.228861e+02 -2.245271e+01 -4.751943e+02
      vertex 1.228861e+02 -2.380503e+01 -4.751270e+02
      vertex 3.199990e+02 -2.380503e+01 -4.751270e+02
    endloop
  endfacet
  facet normal 0.000000e+00 4.970591e-02 9.987639e-01
    outer loop
      vertex 1.239990e+02 -2.245271e+01 -4.751943e+02
      vertex 1.228861e+02 -2.245271e+01 -4.751943e+02
      vertex 3.199990e+02 -2.380503e+01 -4.751270e+02
    endloop
  endfacet
  facet normal 1.607115e-16 4.970591e-02 9.987639e-01
    outer loop
      vertex 1.239990e+02 -2.108862e+01 -4.752622e+02
      vertex 1.239990e+02 -2.245271e+01 -4.751943e+02
      vertex 3.199990e+02 -2.380503e+01 -4.751270e+02
    endloop
  endfacet
  facet normal 1.000000e+00 0.000000e+00 0.000000e+00
    outer loop
      vertex 3.199990e+02 -2.250013e+01 -4.761472e+02
      vertex 3.199990e+02 -2.113132e+01 -4.762153e+02
      vertex 3.199990e+02 -2.108862e+01 -4.752622e+02
    endloop
  endfacet
  facet normal 0.000000e+00 9.989978e-01 -4.475820e-02
    outer loop
      vertex 1.239990e+02 -2.113132e+01 -4.762153e+02
      vertex 3.199990e+02 -2.108862e+01 -4.752622e+02
      vertex 3.199990e+02 -2.113132e+01 -4.762153e+02
    endloop
  endfacet
  facet normal 0.000000e+00 9.989978e-01 -4.475820e-02
    outer loop
      vertex 1.239990e+02 -2.108862e+01 -4.752622e+02
      vertex 3.199990e+02 -2.108862e+01 -4.752622e+02
      vertex 1.239990e+02 -2.113132e+01 -4.762153e+02
    endloop
  endfacet
  facet normal 0.000000e+00 -4.970591e-02 -9.987639e-01
    outer loop
      vertex 1.239990e+02 -2.250013e+01 -4.761472e+02
      vertex 3.199990e+02 -2.113132e+01 -4.762153e+02
      vertex 3.199990e+02 -2.250013e+01 -4.761472e+02
    endloop
  endfacet
  facet normal 0.000000e+00 -4.970591e-02 -9.987639e-01
    outer loop
      vertex 1.239990e+02 -2.113132e+01 -4.762153e+02
      vertex 3.199990e+02 -2.113132e+01 -4.762153e+02
      vertex 1.239990e+02 -2.250013e+01 -4.761472e+02
    endloop
  endfacet
  facet normal 0.000000e+00 9.987639e-01 -4.970591e-02
    outer loop
      vertex 1.180861e+02 -2.263165e+01 -4.787899e+02
      vertex 3.199990e+02 -2.250013e+01 -4.761472e+02
      vertex 3.199990e+02 -2.263165e+01 -4.787899e+02
    endloop
  endfacet
  facet normal 0.000000e+00 9.987639e-01 -4.970591e-02
    outer loop
      vertex 1.239990e+02 -2.250013e+01 -4.761472e+02
      vertex 3.199990e+02 -2.250013e+01 -4.761472e+02
      vertex 1.180861e+02 -2.263165e+01 -4.787899e+02
    endloop
  endfacet
  facet normal 0.000000e+00 4.970591e-02 9.987639e-01
    outer loop
      vertex 2.499990e+02 -2.129730e+01 -4.788563e+02
      vertex 3.199990e+02 -2.263165e+01 -4.787899e+02
      vertex 3.199990e+02 -2.129730e+01 -4.788563e+02
    endloop
  endfacet
  facet normal 0.000000e+00 4.970591e-02 9.987639e-01
    outer loop
      vertex 1.180861e+02 -2.263165e+01 -4.787899e+02
      vertex 3.199990e+02 -2.263165e+01 -4.787899e+02
      vertex 1.180861e+02 -2.124975e+01 -4.788587e+02
    endloop
  endfacet
  facet normal 2.412665e-17 4.970591e-02 9.987639e-01
    outer loop
      vertex 2.499990e+02 -2.129730e+01 -4.788563e+02
      vertex 1.180861e+02 -2.124975e+01 -4.788587e+02
      vertex 3.199990e+02 -2.263165e+01 -4.787899e+02
    endloop
  endfacet
  facet normal 0.000000e+00 9.987639e-01 -4.970591e-02
    outer loop
      vertex 2.549990e+02 -2.137683e+01 -4.804543e+02
      vertex 2.499990e+02 -2.129730e+01 -4.788563e+02
      vertex 3.199990e+02 -2.129730e+01 -4.788563e+02
    endloop
  endfacet
  facet normal -2.449242e-16 9.987639e-01 -4.970591e-02
    outer loop
      vertex 2.949990e+02 -2.134204e+01 -4.797552e+02
      vertex 2.549990e+02 -2.137683e+01 -4.804543e+02
      vertex 3.199990e+02 -2.129730e+01 -4.788563e+02
    endloop
  endfacet
  facet normal 7.204732e-16 -9.987639e-01 4.970591e-02
    outer loop
      vertex 2.487866e+02 -2.553251e+01 -5.098381e+02
      vertex 2.244535e+02 -2.502845e+01 -4.997097e+02
      vertex 2.239990e+02 -2.503163e+01 -4.997735e+02
    endloop
  endfacet
  facet normal -1.391629e-01 4.922225e-02 9.890454e-01
    outer loop
      vertex 2.239990e+02 -2.219313e+01 -4.999148e+02
      vertex 2.239990e+02 -2.503163e+01 -4.997735e+02
      vertex 2.244535e+02 -2.502845e+01 -4.997097e+02
    endloop
  endfacet
  facet normal 0.000000e+00 -9.987639e-01 4.970591e-02
    outer loop
      vertex 2.487866e+02 -2.553251e+01 -5.098381e+02
      vertex 2.239990e+02 -2.503163e+01 -4.997735e+02
      vertex 1.319990e+02 -2.503163e+01 -4.997735e+02
    endloop
  endfacet
  facet normal 0.000000e+00 4.970591e-02 9.987639e-01
    outer loop
      vertex 1.319990e+02 -2.219313e+01 -4.999148e+02
      vertex 1.319990e+02 -2.503163e+01 -4.997735e+02
      vertex 2.239990e+02 -2.503163e+01 -4.997735e+02
    endloop
  endfacet
  facet normal 0.000000e+00 4.970591e-02 9.987639e-01
    outer loop
      vertex 1.319990e+02 -2.219313e+01 -4.999148e+02
      vertex 2.239990e+02 -2.503163e+01 -4.997735e+02
      vertex 2.239990e+02 -2.219313e+01 -4.999148e+02
    endloop
  endfacet
  facet normal 5.061111e-16 -9.987639e-01 4.970591e-02
    outer loop
      vertex 2.487866e+02 -2.553251e+01 -5.098381e+02
      vertex 2.248722e+02 -2.501920e+01 -4.995238e+02
      vertex 2.244535e+02 -2.502845e+01 -4.997097e+02
    endloop
  endfacet
  facet normal -4.062280e-01 4.541983e-02 9.126422e-01
    outer loop
      vertex 2.244535e+02 -2.219028e+01 -4.998510e+02
      vertex 2.244535e+02 -2.502845e+01 -4.997097e+02
      vertex 2.248722e+02 -2.501920e+01 -4.995238e+02
    endloop
  endfacet
  facet normal -1.391627e-01 4.922228e-02 9.890455e-01
    outer loop
      vertex 2.244535e+02 -2.219028e+01 -4.998510e+02
      vertex 2.239990e+02 -2.219313e+01 -4.999148e+02
      vertex 2.244535e+02 -2.502845e+01 -4.997097e+02
    endloop
  endfacet
  facet normal 0.000000e+00 -9.987639e-01 4.970591e-02
    outer loop
      vertex 2.329940e+02 -2.507872e+01 -5.007199e+02
      vertex 2.329940e+02 -2.501920e+01 -4.995238e+02
      vertex 2.248722e+02 -2.501920e+01 -4.995238e+02
    endloop
  endfacet
  facet normal 0.000000e+00 4.970591e-02 9.987639e-01
    outer loop
      vertex 2.248722e+02 -2.218195e+01 -4.996650e+02
      vertex 2.248722e+02 -2.501920e+01 -4.995238e+02
      vertex 2.329940e+02 -2.501920e+01 -4.995238e+02
    endloop
  endfacet
  facet normal 2.755872e-16 -9.987639e-01 4.970591e-02
    outer loop
      vertex 2.337455e+02 -2.514340e+01 -5.020195e+02
      vertex 2.329940e+02 -2.507872e+01 -5.007199e+02
      vertex 2.248722e+02 -2.501920e+01 -4.995238e+02
    endloop
  endfacet
  facet normal -8.358494e-17 -9.987639e-01 4.970591e-02
    outer loop
      vertex 2.487866e+02 -2.553251e+01 -5.098381e+02
      vertex 2.337455e+02 -2.514340e+01 -5.020195e+02
      vertex 2.248722e+02 -2.501920e+01 -4.995238e+02
    endloop
  endfacet
  facet normal -4.062279e-01 4.541986e-02 9.126423e-01
    outer loop
      vertex 2.244535e+02 -2.219028e+01 -4.998510e+02
      vertex 2.248722e+02 -2.501920e+01 -4.995238e+02
      vertex 2.248722e+02 -2.218195e+01 -4.996650e+02
    endloop
  endfacet
  facet normal 1.000000e+00 0.000000e+00 0.000000e+00
    outer loop
      vertex 2.329940e+02 -2.223554e+01 -5.008614e+02
      vertex 2.329940e+02 -2.501920e+01 -4.995238e+02
      vertex 2.329940e+02 -2.507872e+01 -5.007199e+02
    endloop
  endfacet
  facet normal 1.000000e+00 0.000000e+00 0.000000e+00
    outer loop
      vertex 2.329940e+02 -2.218195e+01 -4.996650e+02
      vertex 2.329940e+02 -2.501920e+01 -4.995238e+02
      vertex 2.329940e+02 -2.223554e+01 -5.008614e+02
    endloop
  endfacet
  facet normal 0.000000e+00 4.970591e-02 9.987639e-01
    outer loop
      vertex 2.248722e+02 -2.218195e+01 -4.996650e+02
      vertex 2.329940e+02 -2.501920e+01 -4.995238e+02
      vertex 2.329940e+02 -2.218195e+01 -4.996650e+02
    endloop
  endfacet
  facet normal 8.659701e-01 2.485771e-02 4.994775e-01
    outer loop
      vertex 2.329940e+02 -2.223554e+01 -5.008614e+02
      vertex 2.329940e+02 -2.507872e+01 -5.007199e+02
      vertex 2.337455e+02 -2.514340e+01 -5.020195e+02
    endloop
  endfacet
  facet normal 0.000000e+00 -9.987639e-01 4.970591e-02
    outer loop
      vertex 2.487866e+02 -2.553251e+01 -5.098381e+02
      vertex 2.352475e+02 -2.514340e+01 -5.020195e+02
      vertex 2.337455e+02 -2.514340e+01 -5.020195e+02
    endloop
  endfacet
  facet normal 0.000000e+00 4.970676e-02 9.987639e-01
    outer loop
      vertex 2.337455e+02 -2.229379e+01 -5.021613e+02
      vertex 2.337455e+02 -2.514340e+01 -5.020195e+02
      vertex 2.352475e+02 -2.514340e+01 -5.020195e+02
    endloop
  endfacet
  facet normal 8.659693e-01 2.485694e-02 4.994790e-01
    outer loop
      vertex 2.329940e+02 -2.223554e+01 -5.008614e+02
      vertex 2.337455e+02 -2.514340e+01 -5.020195e+02
      vertex 2.337455e+02 -2.229379e+01 -5.021613e+02
    endloop
  endfacet
  facet normal 3.968405e-16 -9.987639e-01 4.970591e-02
    outer loop
      vertex 2.487866e+02 -2.553251e+01 -5.098381e+02
      vertex 2.359990e+02 -2.507872e+01 -5.007199e+02
      vertex 2.352475e+02 -2.514340e+01 -5.020195e+02
    endloop
  endfacet
  facet normal -8.659701e-01 2.485687e-02 4.994776e-01
    outer loop
      vertex 2.352475e+02 -2.229379e+01 -5.021613e+02
      vertex 2.352475e+02 -2.514340e+01 -5.020195e+02
      vertex 2.359990e+02 -2.507872e+01 -5.007199e+02
    endloop
  endfacet
  facet normal -9.464319e-09 4.970675e-02 9.987639e-01
    outer loop
      vertex 2.337455e+02 -2.229379e+01 -5.021613e+02
      vertex 2.352475e+02 -2.514340e+01 -5.020195e+02
      vertex 2.352475e+02 -2.229379e+01 -5.021613e+02
    endloop
  endfacet
  facet normal -7.219724e-16 -9.987639e-01 4.970591e-02
    outer loop
      vertex 2.487866e+02 -2.553251e+01 -5.098381e+02
      vertex 2.359990e+02 -2.482050e+01 -4.955313e+02
      vertex 2.359990e+02 -2.507872e+01 -5.007199e+02
    endloop
  endfacet
  facet normal -1.000000e+00 0.000000e+00 0.000000e+00
    outer loop
      vertex 2.359990e+02 -2.453970e+01 -4.981510e+02
      vertex 2.359990e+02 -2.507872e+01 -5.007199e+02
      vertex 2.359990e+02 -2.482050e+01 -4.955313e+02
    endloop
  endfacet
  facet normal -8.659693e-01 2.485778e-02 4.994789e-01
    outer loop
      vertex 2.352475e+02 -2.229379e+01 -5.021613e+02
      vertex 2.359990e+02 -2.507872e+01 -5.007199e+02
      vertex 2.359990e+02 -2.223554e+01 -5.008614e+02
    endloop
  endfacet
  facet normal -1.000000e+00 0.000000e+00 0.000000e+00
    outer loop
      vertex 2.359990e+02 -2.407620e+01 -4.990439e+02
      vertex 2.359990e+02 -2.223554e+01 -5.008614e+02
      vertex 2.359990e+02 -2.507872e+01 -5.007199e+02
    endloop
  endfacet
  facet normal -1.000000e+00 0.000000e+00 0.000000e+00
    outer loop
      vertex 2.359990e+02 -2.407620e+01 -4.990439e+02
      vertex 2.359990e+02 -2.507872e+01 -5.007199e+02
      vertex 2.359990e+02 -2.453970e+01 -4.981510e+02
    endloop
  endfacet
  facet normal 3.628061e-15 -9.987639e-01 4.970591e-02
    outer loop
      vertex 2.487866e+02 -2.553251e+01 -5.098381e+02
      vertex 2.352475e+02 -2.475582e+01 -4.942316e+02
      vertex 2.359990e+02 -2.482050e+01 -4.955313e+02
    endloop
  endfacet
  facet normal -8.659701e-01 -2.485771e-02 -4.994775e-01
    outer loop
      vertex 2.359990e+02 -2.200302e+01 -4.956715e+02
      vertex 2.359990e+02 -2.482050e+01 -4.955313e+02
      vertex 2.352475e+02 -2.475582e+01 -4.942316e+02
    endloop
  endfacet
  facet normal -1.000000e+00 0.000000e+00 0.000000e+00
    outer loop
      vertex 2.359990e+02 -2.299272e+01 -4.973481e+02
      vertex 2.359990e+02 -2.482050e+01 -4.955313e+02
      vertex 2.359990e+02 -2.200302e+01 -4.956715e+02
    endloop
  endfacet
  facet normal -1.000000e+00 0.000000e+00 0.000000e+00
    outer loop
      vertex 2.359990e+02 -2.399820e+01 -4.973031e+02
      vertex 2.359990e+02 -2.482050e+01 -4.955313e+02
      vertex 2.359990e+02 -2.299272e+01 -4.973481e+02
    endloop
  endfacet
  facet normal -1.000000e+00 0.000000e+00 0.000000e+00
    outer loop
      vertex 2.359990e+02 -2.453970e+01 -4.981510e+02
      vertex 2.359990e+02 -2.482050e+01 -4.955313e+02
      vertex 2.359990e+02 -2.399820e+01 -4.973031e+02
    endloop
  endfacet
  facet normal 0.000000e+00 -9.987639e-01 4.970591e-02
    outer loop
      vertex 1.228861e+02 -2.380503e+01 -4.751270e+02
      vertex 2.337455e+02 -2.475582e+01 -4.942316e+02
      vertex 2.352475e+02 -2.475582e+01 -4.942316e+02
    endloop
  endfacet
  facet normal 0.000000e+00 -4.970506e-02 -9.987639e-01
    outer loop
      vertex 2.352475e+02 -2.194478e+01 -4.943715e+02
      vertex 2.352475e+02 -2.475582e+01 -4.942316e+02
      vertex 2.337455e+02 -2.475582e+01 -4.942316e+02
    endloop
  endfacet
  facet normal -1.639090e-17 -9.987639e-01 4.970591e-02
    outer loop
      vertex 2.499990e+02 -2.540756e+01 -5.073273e+02
      vertex 2.499990e+02 -2.431204e+01 -4.853144e+02
      vertex 2.352475e+02 -2.475582e+01 -4.942316e+02
    endloop
  endfacet
  facet normal -1.381991e-18 -9.987639e-01 4.970591e-02
    outer loop
      vertex 1.228861e+02 -2.380503e+01 -4.751270e+02
      vertex 2.352475e+02 -2.475582e+01 -4.942316e+02
      vertex 2.499990e+02 -2.431204e+01 -4.853144e+02
    endloop
  endfacet
  facet normal 8.383036e-16 -9.987639e-01 4.970591e-02
    outer loop
      vertex 2.491056e+02 -2.546314e+01 -5.084441e+02
      vertex 2.499990e+02 -2.540756e+01 -5.073273e+02
      vertex 2.352475e+02 -2.475582e+01 -4.942316e+02
    endloop
  endfacet
  facet normal -5.113687e-16 -9.987639e-01 4.970591e-02
    outer loop
      vertex 2.487866e+02 -2.553251e+01 -5.098381e+02
      vertex 2.491056e+02 -2.546314e+01 -5.084441e+02
      vertex 2.352475e+02 -2.475582e+01 -4.942316e+02
    endloop
  endfacet
  facet normal -8.659693e-01 -2.485864e-02 -4.994789e-01
    outer loop
      vertex 2.359990e+02 -2.200302e+01 -4.956715e+02
      vertex 2.352475e+02 -2.475582e+01 -4.942316e+02
      vertex 2.352475e+02 -2.194478e+01 -4.943715e+02
    endloop
  endfacet
  facet normal 1.791701e-16 -9.987639e-01 4.970591e-02
    outer loop
      vertex 1.228861e+02 -2.380503e+01 -4.751270e+02
      vertex 2.329940e+02 -2.482050e+01 -4.955313e+02
      vertex 2.337455e+02 -2.475582e+01 -4.942316e+02
    endloop
  endfacet
  facet normal 8.659701e-01 -2.485856e-02 -4.994775e-01
    outer loop
      vertex 2.337455e+02 -2.194478e+01 -4.943715e+02
      vertex 2.337455e+02 -2.475582e+01 -4.942316e+02
      vertex 2.329940e+02 -2.482050e+01 -4.955313e+02
    endloop
  endfacet
  facet normal 9.464281e-09 -4.970506e-02 -9.987639e-01
    outer loop
      vertex 2.352475e+02 -2.194478e+01 -4.943715e+02
      vertex 2.337455e+02 -2.475582e+01 -4.942316e+02
      vertex 2.337455e+02 -2.194478e+01 -4.943715e+02
    endloop
  endfacet
  facet normal -1.077770e-16 -9.987639e-01 4.970591e-02
    outer loop
      vertex 1.228861e+02 -2.380503e+01 -4.751270e+02
      vertex 2.329940e+02 -2.488002e+01 -4.967273e+02
      vertex 2.329940e+02 -2.482050e+01 -4.955313e+02
    endloop
  endfacet
  facet normal 1.000000e+00 0.000000e+00 0.000000e+00
    outer loop
      vertex 2.329940e+02 -2.205662e+01 -4.968678e+02
      vertex 2.329940e+02 -2.482050e+01 -4.955313e+02
      vertex 2.329940e+02 -2.488002e+01 -4.967273e+02
    endloop
  endfacet
  facet normal 1.000000e+00 0.000000e+00 0.000000e+00
    outer loop
      vertex 2.329940e+02 -2.200302e+01 -4.956715e+02
      vertex 2.329940e+02 -2.482050e+01 -4.955313e+02
      vertex 2.329940e+02 -2.205662e+01 -4.968678e+02
    endloop
  endfacet
  facet normal 8.659693e-01 -2.485778e-02 -4.994789e-01
    outer loop
      vertex 2.337455e+02 -2.194478e+01 -4.943715e+02
      vertex 2.329940e+02 -2.482050e+01 -4.955313e+02
      vertex 2.329940e+02 -2.200302e+01 -4.956715e+02
    endloop
  endfacet
  facet normal 0.000000e+00 -9.987639e-01 4.970591e-02
    outer loop
      vertex 2.244535e+02 -2.487077e+01 -4.965414e+02
      vertex 2.248722e+02 -2.488002e+01 -4.967273e+02
      vertex 2.329940e+02 -2.488002e+01 -4.967273e+02
    endloop
  endfacet
  facet normal 0.000000e+00 -4.970591e-02 -9.987639e-01
    outer loop
      vertex 2.329940e+02 -2.205662e+01 -4.968678e+02
      vertex 2.329940e+02 -2.488002e+01 -4.967273e+02
      vertex 2.248722e+02 -2.488002e+01 -4.967273e+02
    endloop
  endfacet
  facet normal -6.490523e-17 -9.987639e-01 4.970591e-02
    outer loop
      vertex 1.228861e+02 -2.380503e+01 -4.751270e+02
      vertex 2.244535e+02 -2.487077e+01 -4.965414e+02
      vertex 2.329940e+02 -2.488002e+01 -4.967273e+02
    endloop
  endfacet
  facet normal -4.062280e-01 -4.541986e-02 -9.126422e-01
    outer loop
      vertex 2.248722e+02 -2.205662e+01 -4.968678e+02
      vertex 2.248722e+02 -2.488002e+01 -4.967273e+02
      vertex 2.244535e+02 -2.487077e+01 -4.965414e+02
    endloop
  endfacet
  facet normal 0.000000e+00 -4.970591e-02 -9.987639e-01
    outer loop
      vertex 2.329940e+02 -2.205662e+01 -4.968678e+02
      vertex 2.248722e+02 -2.488002e+01 -4.967273e+02
      vertex 2.248722e+02 -2.205662e+01 -4.968678e+02
    endloop
  endfacet
  facet normal -2.180913e-15 -9.987639e-01 4.970591e-02
    outer loop
      vertex 1.228861e+02 -2.380503e+01 -4.751270e+02
      vertex 2.239990e+02 -2.486760e+01 -4.964776e+02
      vertex 2.244535e+02 -2.487077e+01 -4.965414e+02
    endloop
  endfacet
  facet normal -1.391629e-01 -4.922222e-02 -9.890454e-01
    outer loop
      vertex 2.244535e+02 -2.204829e+01 -4.966819e+02
      vertex 2.244535e+02 -2.487077e+01 -4.965414e+02
      vertex 2.239990e+02 -2.486760e+01 -4.964776e+02
    endloop
  endfacet
  facet normal -4.062279e-01 -4.541989e-02 -9.126423e-01
    outer loop
      vertex 2.248722e+02 -2.205662e+01 -4.968678e+02
      vertex 2.244535e+02 -2.487077e+01 -4.965414e+02
      vertex 2.244535e+02 -2.204829e+01 -4.966819e+02
    endloop
  endfacet
  facet normal 0.000000e+00 -9.987639e-01 4.970591e-02
    outer loop
      vertex 1.228861e+02 -2.380503e+01 -4.751270e+02
      vertex 1.319990e+02 -2.486760e+01 -4.964776e+02
      vertex 2.239990e+02 -2.486760e+01 -4.964776e+02
    endloop
  endfacet
  facet normal 0.000000e+00 -4.970591e-02 -9.987639e-01
    outer loop
      vertex 2.239990e+02 -2.204543e+01 -4.966181e+02
      vertex 2.239990e+02 -2.486760e+01 -4.964776e+02
      vertex 1.319990e+02 -2.486760e+01 -4.964776e+02
    endloop
  endfacet
  facet normal -1.391627e-01 -4.922225e-02 -9.890455e-01
    outer loop
      vertex 2.244535e+02 -2.204829e+01 -4.966819e+02
      vertex 2.239990e+02 -2.486760e+01 -4.964776e+02
      vertex 2.239990e+02 -2.204543e+01 -4.966181e+02
    endloop
  endfacet
  facet normal 7.466068e-16 -9.987639e-01 4.970591e-02
    outer loop
      vertex 1.228861e+02 -2.380503e+01 -4.751270e+02
      vertex 1.305700e+02 -2.490862e+01 -4.973018e+02
      vertex 1.319990e+02 -2.486760e+01 -4.964776e+02
    endloop
  endfacet
  facet normal 5.000957e-01 -4.304384e-02 -8.648997e-01
    outer loop
      vertex 1.319990e+02 -2.204543e+01 -4.966181e+02
      vertex 1.319990e+02 -2.486760e+01 -4.964776e+02
      vertex 1.305700e+02 -2.490862e+01 -4.973018e+02
    endloop
  endfacet
  facet normal 0.000000e+00 -4.970591e-02 -9.987639e-01
    outer loop
      vertex 2.239990e+02 -2.204543e+01 -4.966181e+02
      vertex 1.319990e+02 -2.486760e+01 -4.964776e+02
      vertex 1.319990e+02 -2.204543e+01 -4.966181e+02
    endloop
  endfacet
  facet normal 0.000000e+00 -9.987639e-01 4.970591e-02
    outer loop
      vertex 1.228861e+02 -2.380503e+01 -4.751270e+02
      vertex 1.305700e+02 -2.499061e+01 -4.989493e+02
      vertex 1.305700e+02 -2.490862e+01 -4.973018e+02
    endloop
  endfacet
  facet normal 1.000000e+00 -9.330024e-07 4.643313e-08
    outer loop
      vertex 1.305700e+02 -2.208237e+01 -4.974425e+02
      vertex 1.305700e+02 -2.490862e+01 -4.973018e+02
      vertex 1.305700e+02 -2.499061e+01 -4.989493e+02
    endloop
  endfacet
  facet normal 5.000943e-01 -4.304294e-02 -8.649006e-01
    outer loop
      vertex 1.319990e+02 -2.204543e+01 -4.966181e+02
      vertex 1.305700e+02 -2.490862e+01 -4.973018e+02
      vertex 1.305700e+02 -2.208237e+01 -4.974425e+02
    endloop
  endfacet
  facet normal 6.152513e-16 -9.987639e-01 4.970591e-02
    outer loop
      vertex 1.162114e+02 -2.553251e+01 -5.098381e+02
      vertex 1.319990e+02 -2.503163e+01 -4.997735e+02
      vertex 1.305700e+02 -2.499061e+01 -4.989493e+02
    endloop
  endfacet
  facet normal 5.000957e-01 4.304476e-02 8.648997e-01
    outer loop
      vertex 1.305700e+02 -2.215620e+01 -4.990904e+02
      vertex 1.305700e+02 -2.499061e+01 -4.989493e+02
      vertex 1.319990e+02 -2.503163e+01 -4.997735e+02
    endloop
  endfacet
  facet normal 0.000000e+00 -9.987639e-01 4.970591e-02
    outer loop
      vertex 1.179792e+02 -2.400582e+01 -4.791615e+02
      vertex 1.162114e+02 -2.553251e+01 -5.098381e+02
      vertex 1.305700e+02 -2.499061e+01 -4.989493e+02
    endloop
  endfacet
  facet normal -3.137759e-16 -9.987639e-01 4.970591e-02
    outer loop
      vertex 1.197083e+02 -2.386169e+01 -4.762654e+02
      vertex 1.179792e+02 -2.400582e+01 -4.791615e+02
      vertex 1.305700e+02 -2.499061e+01 -4.989493e+02
    endloop
  endfacet
  facet normal 5.042003e-16 -9.987639e-01 4.970591e-02
    outer loop
      vertex 1.228861e+02 -2.380503e+01 -4.751270e+02
      vertex 1.197083e+02 -2.386169e+01 -4.762654e+02
      vertex 1.305700e+02 -2.499061e+01 -4.989493e+02
    endloop
  endfacet
  facet normal 1.000000e+00 -9.255201e-07 3.199207e-08
    outer loop
      vertex 1.305700e+02 -2.208237e+01 -4.974425e+02
      vertex 1.305700e+02 -2.499061e+01 -4.989493e+02
      vertex 1.305700e+02 -2.215620e+01 -4.990904e+02
    endloop
  endfacet
  facet normal 0.000000e+00 -9.987639e-01 4.970591e-02
    outer loop
      vertex 1.162114e+02 -2.553251e+01 -5.098381e+02
      vertex 2.487866e+02 -2.553251e+01 -5.098381e+02
      vertex 1.319990e+02 -2.503163e+01 -4.997735e+02
    endloop
  endfacet
  facet normal 5.000943e-01 4.304388e-02 8.649005e-01
    outer loop
      vertex 1.305700e+02 -2.215620e+01 -4.990904e+02
      vertex 1.319990e+02 -2.503163e+01 -4.997735e+02
      vertex 1.319990e+02 -2.219313e+01 -4.999148e+02
    endloop
  endfacet
  facet normal -2.882850e-16 -9.987639e-01 4.970591e-02
    outer loop
      vertex 1.228861e+02 -2.380503e+01 -4.751270e+02
      vertex 2.940825e+02 -2.403775e+01 -4.798031e+02
      vertex 2.949990e+02 -2.402871e+01 -4.796215e+02
    endloop
  endfacet
  facet normal 1.946646e-01 -4.875503e-02 -9.796574e-01
    outer loop
      vertex 2.949990e+02 -2.134204e+01 -4.797552e+02
      vertex 2.949990e+02 -2.402871e+01 -4.796215e+02
      vertex 2.940825e+02 -2.403775e+01 -4.798031e+02
    endloop
  endfacet
  facet normal 6.252157e-17 -9.987639e-01 4.970591e-02
    outer loop
      vertex 1.228861e+02 -2.380503e+01 -4.751270e+02
      vertex 2.933049e+02 -2.406351e+01 -4.803206e+02
      vertex 2.940825e+02 -2.403775e+01 -4.798031e+02
    endloop
  endfacet
  facet normal 5.544871e-01 -4.136488e-02 -8.311636e-01
    outer loop
      vertex 2.940825e+02 -2.135108e+01 -4.799368e+02
      vertex 2.940825e+02 -2.403775e+01 -4.798031e+02
      vertex 2.933049e+02 -2.406351e+01 -4.803206e+02
    endloop
  endfacet
  facet normal 1.946646e-01 -4.875503e-02 -9.796574e-01
    outer loop
      vertex 2.949990e+02 -2.134204e+01 -4.797552e+02
      vertex 2.940825e+02 -2.403775e+01 -4.798031e+02
      vertex 2.940825e+02 -2.135108e+01 -4.799368e+02
    endloop
  endfacet
  facet normal 0.000000e+00 -9.987639e-01 4.970591e-02
    outer loop
      vertex 1.228861e+02 -2.380503e+01 -4.751270e+02
      vertex 2.549990e+02 -2.406351e+01 -4.803206e+02
      vertex 2.933049e+02 -2.406351e+01 -4.803206e+02
    endloop
  endfacet
  facet normal 0.000000e+00 -4.970591e-02 -9.987639e-01
    outer loop
      vertex 2.933049e+02 -2.137683e+01 -4.804543e+02
      vertex 2.933049e+02 -2.406351e+01 -4.803206e+02
      vertex 2.549990e+02 -2.406351e+01 -4.803206e+02
    endloop
  endfacet
  facet normal 5.544871e-01 -4.136488e-02 -8.311636e-01
    outer loop
      vertex 2.940825e+02 -2.135108e+01 -4.799368e+02
      vertex 2.933049e+02 -2.406351e+01 -4.803206e+02
      vertex 2.933049e+02 -2.137683e+01 -4.804543e+02
    endloop
  endfacet
  facet normal 2.096186e-18 -9.987639e-01 4.970591e-02
    outer loop
      vertex 1.228861e+02 -2.380503e+01 -4.751270e+02
      vertex 2.514634e+02 -2.413630e+01 -4.817832e+02
      vertex 2.549990e+02 -2.406351e+01 -4.803206e+02
    endloop
  endfacet
  facet normal 3.826740e-01 -4.592247e-02 -9.227414e-01
    outer loop
      vertex 2.549990e+02 -2.137683e+01 -4.804543e+02
      vertex 2.549990e+02 -2.406351e+01 -4.803206e+02
      vertex 2.514634e+02 -2.413630e+01 -4.817832e+02
    endloop
  endfacet
  facet normal 0.000000e+00 -4.970591e-02 -9.987639e-01
    outer loop
      vertex 2.549990e+02 -2.137683e+01 -4.804543e+02
      vertex 2.933049e+02 -2.137683e+01 -4.804543e+02
      vertex 2.549990e+02 -2.406351e+01 -4.803206e+02
    endloop
  endfacet
  facet normal -1.051997e-17 -9.987639e-01 4.970591e-02
    outer loop
      vertex 1.228861e+02 -2.380503e+01 -4.751270e+02
      vertex 2.499990e+02 -2.431204e+01 -4.853144e+02
      vertex 2.514634e+02 -2.413630e+01 -4.817832e+02
    endloop
  endfacet
  facet normal 9.238834e-01 -1.907290e-02 -3.821984e-01
    outer loop
      vertex 2.514635e+02 -2.144963e+01 -4.819170e+02
      vertex 2.514634e+02 -2.413630e+01 -4.817832e+02
      vertex 2.499990e+02 -2.431204e+01 -4.853144e+02
    endloop
  endfacet
  facet normal 3.827076e-01 -4.597352e-02 -9.227249e-01
    outer loop
      vertex 2.514635e+02 -2.144963e+01 -4.819170e+02
      vertex 2.549990e+02 -2.137683e+01 -4.804543e+02
      vertex 2.514634e+02 -2.413630e+01 -4.817832e+02
    endloop
  endfacet
  facet normal 1.000000e+00 0.000000e+00 0.000000e+00
    outer loop
      vertex 2.499990e+02 -2.453970e+01 -4.981510e+02
      vertex 2.499990e+02 -2.431204e+01 -4.853144e+02
      vertex 2.499990e+02 -2.540756e+01 -5.073273e+02
    endloop
  endfacet
  facet normal 1.000000e+00 0.000000e+00 0.000000e+00
    outer loop
      vertex 2.499990e+02 -2.162536e+01 -4.854481e+02
      vertex 2.499990e+02 -2.431204e+01 -4.853144e+02
      vertex 2.499990e+02 -2.453970e+01 -4.981510e+02
    endloop
  endfacet
  facet normal 9.238695e-01 -1.902283e-02 -3.822346e-01
    outer loop
      vertex 2.514635e+02 -2.144963e+01 -4.819170e+02
      vertex 2.499990e+02 -2.431204e+01 -4.853144e+02
      vertex 2.499990e+02 -2.162536e+01 -4.854481e+02
    endloop
  endfacet
  facet normal 4.089636e-01 -8.672362e-01 -2.839897e-01
    outer loop
      vertex 2.499990e+02 -2.495406e+01 -5.087122e+02
      vertex 2.499990e+02 -2.540756e+01 -5.073273e+02
      vertex 2.491056e+02 -2.546314e+01 -5.084441e+02
    endloop
  endfacet
  facet normal 1.000000e+00 0.000000e+00 0.000000e+00
    outer loop
      vertex 2.499990e+02 -2.252921e+01 -4.982410e+02
      vertex 2.499990e+02 -2.540756e+01 -5.073273e+02
      vertex 2.499990e+02 -2.253287e+01 -5.074977e+02
    endloop
  endfacet
  facet normal 1.000000e+00 0.000000e+00 0.000000e+00
    outer loop
      vertex 2.499990e+02 -2.495406e+01 -5.087122e+02
      vertex 2.499990e+02 -2.253287e+01 -5.074977e+02
      vertex 2.499990e+02 -2.540756e+01 -5.073273e+02
    endloop
  endfacet
  facet normal 1.000000e+00 0.000000e+00 0.000000e+00
    outer loop
      vertex 2.499990e+02 -2.307071e+01 -4.990889e+02
      vertex 2.499990e+02 -2.540756e+01 -5.073273e+02
      vertex 2.499990e+02 -2.252921e+01 -4.982410e+02
    endloop
  endfacet
  facet normal 1.000000e+00 0.000000e+00 0.000000e+00
    outer loop
      vertex 2.499990e+02 -2.407620e+01 -4.990439e+02
      vertex 2.499990e+02 -2.453970e+01 -4.981510e+02
      vertex 2.499990e+02 -2.540756e+01 -5.073273e+02
    endloop
  endfacet
  facet normal 1.000000e+00 0.000000e+00 0.000000e+00
    outer loop
      vertex 2.499990e+02 -2.307071e+01 -4.990889e+02
      vertex 2.499990e+02 -2.407620e+01 -4.990439e+02
      vertex 2.499990e+02 -2.540756e+01 -5.073273e+02
    endloop
  endfacet
  facet normal 4.789728e-01 -8.753407e-01 -6.605908e-02
    outer loop
      vertex 2.499990e+02 -2.495406e+01 -5.087122e+02
      vertex 2.491056e+02 -2.546314e+01 -5.084441e+02
      vertex 2.487866e+02 -2.553251e+01 -5.098381e+02
    endloop
  endfacet
  facet normal 0.000000e+00 -4.970591e-02 -9.987639e-01
    outer loop
      vertex 2.494794e+02 -2.513301e+01 -5.098580e+02
      vertex 2.487866e+02 -2.553251e+01 -5.098381e+02
      vertex 1.162114e+02 -2.553251e+01 -5.098381e+02
    endloop
  endfacet
  facet normal 4.955815e-01 -8.639048e-01 -8.981934e-02
    outer loop
      vertex 2.499990e+02 -2.495406e+01 -5.087122e+02
      vertex 2.487866e+02 -2.553251e+01 -5.098381e+02
      vertex 2.494794e+02 -2.513301e+01 -5.098580e+02
    endloop
  endfacet
  facet normal -7.466236e-15 -9.987639e-01 4.970591e-02
    outer loop
      vertex 1.158723e+02 -2.470386e+01 -4.931875e+02
      vertex 1.158979e+02 -2.546371e+01 -5.084556e+02
      vertex 1.162114e+02 -2.553251e+01 -5.098381e+02
    endloop
  endfacet
  facet normal -4.968227e-01 -8.650532e-01 -6.964326e-02
    outer loop
      vertex 1.155186e+02 -2.513301e+01 -5.098580e+02
      vertex 1.162114e+02 -2.553251e+01 -5.098381e+02
      vertex 1.158979e+02 -2.546371e+01 -5.084556e+02
    endloop
  endfacet
  facet normal -8.016113e-16 -9.987639e-01 4.970591e-02
    outer loop
      vertex 1.179792e+02 -2.400582e+01 -4.791615e+02
      vertex 1.158723e+02 -2.470386e+01 -4.931875e+02
      vertex 1.162114e+02 -2.553251e+01 -5.098381e+02
    endloop
  endfacet
  facet normal 1.318228e-18 -4.970591e-02 -9.987639e-01
    outer loop
      vertex 2.494794e+02 -2.513301e+01 -5.098580e+02
      vertex 1.162114e+02 -2.553251e+01 -5.098381e+02
      vertex 1.155186e+02 -2.513301e+01 -5.098580e+02
    endloop
  endfacet
  facet normal -1.324781e-15 -9.987639e-01 4.970591e-02
    outer loop
      vertex 1.158723e+02 -2.470386e+01 -4.931875e+02
      vertex 1.150189e+02 -2.540835e+01 -5.073432e+02
      vertex 1.158979e+02 -2.546371e+01 -5.084556e+02
    endloop
  endfacet
  facet normal -4.113886e-01 -8.667642e-01 -2.819207e-01
    outer loop
      vertex 1.150034e+02 -2.495748e+01 -5.087068e+02
      vertex 1.158979e+02 -2.546371e+01 -5.084556e+02
      vertex 1.150189e+02 -2.540835e+01 -5.073432e+02
    endloop
  endfacet
  facet normal -4.968227e-01 -8.650532e-01 -6.964326e-02
    outer loop
      vertex 1.149990e+02 -2.483338e+01 -5.098729e+02
      vertex 1.155186e+02 -2.513301e+01 -5.098580e+02
      vertex 1.158979e+02 -2.546371e+01 -5.084556e+02
    endloop
  endfacet
  facet normal -4.708591e-01 -8.774382e-01 -9.161841e-02
    outer loop
      vertex 1.149990e+02 -2.483338e+01 -5.098729e+02
      vertex 1.158979e+02 -2.546371e+01 -5.084556e+02
      vertex 1.150034e+02 -2.495748e+01 -5.087068e+02
    endloop
  endfacet
  facet normal -9.981920e-01 2.806609e-03 6.004122e-02
    outer loop
      vertex 1.158710e+02 -2.189860e+01 -4.933408e+02
      vertex 1.150189e+02 -2.540835e+01 -5.073432e+02
      vertex 1.158723e+02 -2.470386e+01 -4.931875e+02
    endloop
  endfacet
  facet normal -9.981990e-01 3.396498e-03 5.989379e-02
    outer loop
      vertex 1.150184e+02 -2.253357e+01 -5.075133e+02
      vertex 1.150189e+02 -2.540835e+01 -5.073432e+02
      vertex 1.158710e+02 -2.189860e+01 -4.933408e+02
    endloop
  endfacet
  facet normal -9.999332e-01 5.358667e-04 1.154306e-02
    outer loop
      vertex 1.150034e+02 -2.495748e+01 -5.087068e+02
      vertex 1.150189e+02 -2.540835e+01 -5.073432e+02
      vertex 1.150184e+02 -2.253357e+01 -5.075133e+02
    endloop
  endfacet
  facet normal -9.889319e-01 7.627792e-03 1.481743e-01
    outer loop
      vertex 1.158710e+02 -2.189860e+01 -4.933408e+02
      vertex 1.158723e+02 -2.470386e+01 -4.931875e+02
      vertex 1.179792e+02 -2.400582e+01 -4.791615e+02
    endloop
  endfacet
  facet normal -8.547670e-01 -7.250233e-02 5.139229e-01
    outer loop
      vertex 1.180861e+02 -2.263165e+01 -4.787899e+02
      vertex 1.179792e+02 -2.400582e+01 -4.791615e+02
      vertex 1.197083e+02 -2.386169e+01 -4.762654e+02
    endloop
  endfacet
  facet normal -9.889393e-01 7.372419e-03 1.481374e-01
    outer loop
      vertex 1.158710e+02 -2.189860e+01 -4.933408e+02
      vertex 1.179792e+02 -2.400582e+01 -4.791615e+02
      vertex 1.179792e+02 -2.126942e+01 -4.792977e+02
    endloop
  endfacet
  facet normal -9.716810e-01 1.174534e-02 2.360045e-01
    outer loop
      vertex 1.180861e+02 -2.263165e+01 -4.787899e+02
      vertex 1.179792e+02 -2.126942e+01 -4.792977e+02
      vertex 1.179792e+02 -2.400582e+01 -4.791615e+02
    endloop
  endfacet
  facet normal -3.371348e-01 -5.965065e-03 9.414375e-01
    outer loop
      vertex 1.198861e+02 -2.250241e+01 -4.761931e+02
      vertex 1.197083e+02 -2.386169e+01 -4.762654e+02
      vertex 1.228861e+02 -2.380503e+01 -4.751270e+02
    endloop
  endfacet
  facet normal -8.211977e-01 7.736671e-02 5.653748e-01
    outer loop
      vertex 1.198861e+02 -2.250241e+01 -4.761931e+02
      vertex 1.180861e+02 -2.263165e+01 -4.787899e+02
      vertex 1.197083e+02 -2.386169e+01 -4.762654e+02
    endloop
  endfacet
  facet normal -3.162278e-01 4.715517e-02 9.475106e-01
    outer loop
      vertex 1.198861e+02 -2.250241e+01 -4.761931e+02
      vertex 1.228861e+02 -2.380503e+01 -4.751270e+02
      vertex 1.228861e+02 -2.245271e+01 -4.751943e+02
    endloop
  endfacet
  facet normal -3.700243e-15 -9.987639e-01 4.970591e-02
    outer loop
      vertex 1.155186e+02 -2.513301e+01 -5.098580e+02
      vertex 1.180000e+02 -2.666404e+01 -5.406216e+02
      vertex 1.180793e+02 -2.667448e+01 -5.408315e+02
    endloop
  endfacet
  facet normal -9.356432e-01 -1.783849e-02 -3.524963e-01
    outer loop
      vertex 1.180767e+02 -2.548418e+01 -5.408848e+02
      vertex 1.180793e+02 -2.667448e+01 -5.408315e+02
      vertex 1.180000e+02 -2.666404e+01 -5.406216e+02
    endloop
  endfacet
  facet normal 0.000000e+00 -9.987639e-01 4.970591e-02
    outer loop
      vertex 2.494794e+02 -2.667448e+01 -5.408315e+02
      vertex 1.155186e+02 -2.513301e+01 -5.098580e+02
      vertex 1.180793e+02 -2.667448e+01 -5.408315e+02
    endloop
  endfacet
  facet normal 0.000000e+00 -4.475820e-02 -9.989978e-01
    outer loop
      vertex 2.496526e+02 -2.548418e+01 -5.408848e+02
      vertex 2.494794e+02 -2.667448e+01 -5.408315e+02
      vertex 1.180793e+02 -2.667448e+01 -5.408315e+02
    endloop
  endfacet
  facet normal 0.000000e+00 -4.475820e-02 -9.989978e-01
    outer loop
      vertex 1.180767e+02 -2.548418e+01 -5.408848e+02
      vertex 2.496526e+02 -2.548418e+01 -5.408848e+02
      vertex 1.180793e+02 -2.667448e+01 -5.408315e+02
    endloop
  endfacet
  facet normal 5.510776e-14 -9.987639e-01 4.970591e-02
    outer loop
      vertex 1.155186e+02 -2.513301e+01 -5.098580e+02
      vertex 1.179448e+02 -2.665321e+01 -5.404041e+02
      vertex 1.180000e+02 -2.666404e+01 -5.406216e+02
    endloop
  endfacet
  facet normal -9.691152e-01 7.988063e-03 -2.464789e-01
    outer loop
      vertex 1.180767e+02 -2.548418e+01 -5.408848e+02
      vertex 1.180000e+02 -2.666404e+01 -5.406216e+02
      vertex 1.179448e+02 -2.665321e+01 -5.404041e+02
    endloop
  endfacet
  facet normal 0.000000e+00 -9.987639e-01 4.970591e-02
    outer loop
      vertex 1.155186e+02 -2.513301e+01 -5.098580e+02
      vertex 1.164851e+02 -2.621559e+01 -5.316108e+02
      vertex 1.179448e+02 -2.665321e+01 -5.404041e+02
    endloop
  endfacet
  facet normal -9.865339e-01 -8.129732e-03 -1.633545e-01
    outer loop
      vertex 1.179448e+02 -2.441258e+01 -5.405157e+02
      vertex 1.179448e+02 -2.665321e+01 -5.404041e+02
      vertex 1.164851e+02 -2.621559e+01 -5.316108e+02
    endloop
  endfacet
  facet normal -9.544654e-01 -1.482835e-02 -2.979529e-01
    outer loop
      vertex 1.179448e+02 -2.441258e+01 -5.405157e+02
      vertex 1.180767e+02 -2.548418e+01 -5.408848e+02
      vertex 1.179448e+02 -2.665321e+01 -5.404041e+02
    endloop
  endfacet
  facet normal 4.983635e-15 -9.987639e-01 4.970591e-02
    outer loop
      vertex 1.155186e+02 -2.513301e+01 -5.098580e+02
      vertex 1.155186e+02 -2.577458e+01 -5.227494e+02
      vertex 1.164851e+02 -2.621559e+01 -5.316108e+02
    endloop
  endfacet
  facet normal -9.939972e-01 -2.100182e-02 -1.073713e-01
    outer loop
      vertex 1.156417e+02 -2.368596e+01 -5.242976e+02
      vertex 1.164851e+02 -2.621559e+01 -5.316108e+02
      vertex 1.155186e+02 -2.577458e+01 -5.227494e+02
    endloop
  endfacet
  facet normal -9.933362e-01 1.956860e-03 -1.152364e-01
    outer loop
      vertex 1.165851e+02 -2.405057e+01 -5.324357e+02
      vertex 1.164851e+02 -2.621559e+01 -5.316108e+02
      vertex 1.156417e+02 -2.368596e+01 -5.242976e+02
    endloop
  endfacet
  facet normal -9.861129e-01 -1.739963e-02 -1.651624e-01
    outer loop
      vertex 1.179448e+02 -2.441258e+01 -5.405157e+02
      vertex 1.164851e+02 -2.621559e+01 -5.316108e+02
      vertex 1.165851e+02 -2.405057e+01 -5.324357e+02
    endloop
  endfacet
  facet normal -5.000000e-01 -8.649549e-01 4.304658e-02
    outer loop
      vertex 1.151284e+02 -2.522894e+01 -5.163179e+02
      vertex 1.155186e+02 -2.577458e+01 -5.227494e+02
      vertex 1.155186e+02 -2.513301e+01 -5.098580e+02
    endloop
  endfacet
  facet normal -9.976947e-01 8.941723e-03 -6.727128e-02
    outer loop
      vertex 1.151602e+02 -2.360838e+01 -5.171452e+02
      vertex 1.156417e+02 -2.368596e+01 -5.242976e+02
      vertex 1.155186e+02 -2.577458e+01 -5.227494e+02
    endloop
  endfacet
  facet normal -9.981608e-01 -1.088612e-02 -5.963703e-02
    outer loop
      vertex 1.151284e+02 -2.522894e+01 -5.163179e+02
      vertex 1.151602e+02 -2.360838e+01 -5.171452e+02
      vertex 1.155186e+02 -2.577458e+01 -5.227494e+02
    endloop
  endfacet
  facet normal 2.736560e-17 -9.987639e-01 4.970591e-02
    outer loop
      vertex 2.494794e+02 -2.667448e+01 -5.408315e+02
      vertex 2.494794e+02 -2.513301e+01 -5.098580e+02
      vertex 1.155186e+02 -2.513301e+01 -5.098580e+02
    endloop
  endfacet
  facet normal -5.000000e-01 -8.649549e-01 4.304658e-02
    outer loop
      vertex 1.151284e+02 -2.522894e+01 -5.163179e+02
      vertex 1.155186e+02 -2.513301e+01 -5.098580e+02
      vertex 1.149990e+02 -2.483338e+01 -5.098729e+02
    endloop
  endfacet
  facet normal 5.000000e-01 -8.649549e-01 4.304658e-02
    outer loop
      vertex 2.499990e+02 -2.483338e+01 -5.098729e+02
      vertex 2.494794e+02 -2.513301e+01 -5.098580e+02
      vertex 2.494794e+02 -2.667448e+01 -5.408315e+02
    endloop
  endfacet
  facet normal 4.955815e-01 -8.639048e-01 -8.981934e-02
    outer loop
      vertex 2.499990e+02 -2.495406e+01 -5.087122e+02
      vertex 2.494794e+02 -2.513301e+01 -5.098580e+02
      vertex 2.499990e+02 -2.483338e+01 -5.098729e+02
    endloop
  endfacet
  facet normal 1.679065e-13 -4.475820e-02 -9.989978e-01
    outer loop
      vertex 2.499990e+02 -2.528438e+01 -5.408938e+02
      vertex 2.499990e+02 -2.637478e+01 -5.408449e+02
      vertex 2.494794e+02 -2.667448e+01 -5.408315e+02
    endloop
  endfacet
  facet normal 5.000000e-01 -8.649549e-01 4.304658e-02
    outer loop
      vertex 2.499990e+02 -2.483338e+01 -5.098729e+02
      vertex 2.494794e+02 -2.667448e+01 -5.408315e+02
      vertex 2.499990e+02 -2.637478e+01 -5.408449e+02
    endloop
  endfacet
  facet normal 4.032788e-15 -4.475820e-02 -9.989978e-01
    outer loop
      vertex 2.496526e+02 -2.548418e+01 -5.408848e+02
      vertex 2.499990e+02 -2.528438e+01 -5.408938e+02
      vertex 2.494794e+02 -2.667448e+01 -5.408315e+02
    endloop
  endfacet
  facet normal 1.000000e+00 0.000000e+00 0.000000e+00
    outer loop
      vertex 2.499990e+02 -2.334331e+01 -5.099470e+02
      vertex 2.499990e+02 -2.637478e+01 -5.408449e+02
      vertex 2.499990e+02 -2.528438e+01 -5.408938e+02
    endloop
  endfacet
  facet normal 1.000000e+00 0.000000e+00 0.000000e+00
    outer loop
      vertex 2.499990e+02 -2.483338e+01 -5.098729e+02
      vertex 2.499990e+02 -2.637478e+01 -5.408449e+02
      vertex 2.499990e+02 -2.334331e+01 -5.099470e+02
    endloop
  endfacet
  facet normal 5.000000e-01 -8.651575e-01 3.876174e-02
    outer loop
      vertex 2.496526e+02 -2.553663e+01 -5.420555e+02
      vertex 2.499990e+02 -2.528438e+01 -5.408938e+02
      vertex 2.496526e+02 -2.548418e+01 -5.408848e+02
    endloop
  endfacet
  facet normal 5.000000e-01 -8.651575e-01 3.876174e-02
    outer loop
      vertex 2.499990e+02 -2.531557e+01 -5.415901e+02
      vertex 2.499990e+02 -2.528438e+01 -5.408938e+02
      vertex 2.496526e+02 -2.553663e+01 -5.420555e+02
    endloop
  endfacet
  facet normal 1.000000e+00 0.000000e+00 0.000000e+00
    outer loop
      vertex 2.499990e+02 -2.531557e+01 -5.415901e+02
      vertex 2.499990e+02 -2.334331e+01 -5.099470e+02
      vertex 2.499990e+02 -2.528438e+01 -5.408938e+02
    endloop
  endfacet
  facet normal 0.000000e+00 -9.989978e-01 4.475820e-02
    outer loop
      vertex 2.496526e+02 -2.553663e+01 -5.420555e+02
      vertex 2.496526e+02 -2.548418e+01 -5.408848e+02
      vertex 1.180767e+02 -2.548418e+01 -5.408848e+02
    endloop
  endfacet
  facet normal -4.692995e-16 -9.989978e-01 4.475820e-02
    outer loop
      vertex 2.495767e+02 -2.553744e+01 -5.420736e+02
      vertex 2.496526e+02 -2.553663e+01 -5.420555e+02
      vertex 1.180767e+02 -2.548418e+01 -5.408848e+02
    endloop
  endfacet
  facet normal 2.491832e-15 -9.989978e-01 4.475820e-02
    outer loop
      vertex 2.494990e+02 -2.553771e+01 -5.420797e+02
      vertex 2.495767e+02 -2.553744e+01 -5.420736e+02
      vertex 1.180767e+02 -2.548418e+01 -5.408848e+02
    endloop
  endfacet
  facet normal 0.000000e+00 -9.989978e-01 4.475820e-02
    outer loop
      vertex 1.199080e+02 -2.553771e+01 -5.420797e+02
      vertex 2.494990e+02 -2.553771e+01 -5.420797e+02
      vertex 1.180767e+02 -2.548418e+01 -5.408848e+02
    endloop
  endfacet
  facet normal -3.511084e-15 -9.989978e-01 4.475820e-02
    outer loop
      vertex 1.188143e+02 -2.552314e+01 -5.417545e+02
      vertex 1.199080e+02 -2.553771e+01 -5.420797e+02
      vertex 1.180767e+02 -2.548418e+01 -5.408848e+02
    endloop
  endfacet
  facet normal -7.619174e-01 -8.049564e-02 -6.426525e-01
    outer loop
      vertex 1.186361e+02 -2.446456e+01 -5.416757e+02
      vertex 1.188143e+02 -2.552314e+01 -5.417545e+02
      vertex 1.180767e+02 -2.548418e+01 -5.408848e+02
    endloop
  endfacet
  facet normal -8.554388e-01 7.142295e-02 -5.129553e-01
    outer loop
      vertex 1.186361e+02 -2.446456e+01 -5.416757e+02
      vertex 1.180767e+02 -2.548418e+01 -5.408848e+02
      vertex 1.179448e+02 -2.441258e+01 -5.405157e+02
    endloop
  endfacet
  facet normal 2.320201e-01 -3.917926e-02 -9.719216e-01
    outer loop
      vertex 2.497027e+02 -2.477093e+01 -5.420744e+02
      vertex 2.496526e+02 -2.553663e+01 -5.420555e+02
      vertex 2.495767e+02 -2.553744e+01 -5.420736e+02
    endloop
  endfacet
  facet normal 5.000000e-01 -8.651575e-01 3.876174e-02
    outer loop
      vertex 2.499089e+02 -2.538036e+01 -5.418736e+02
      vertex 2.499990e+02 -2.531557e+01 -5.415901e+02
      vertex 2.496526e+02 -2.553663e+01 -5.420555e+02
    endloop
  endfacet
  facet normal 5.739616e-01 -5.773780e-02 -8.168442e-01
    outer loop
      vertex 2.498643e+02 -2.485836e+01 -5.419547e+02
      vertex 2.496526e+02 -2.553663e+01 -5.420555e+02
      vertex 2.497027e+02 -2.477093e+01 -5.420744e+02
    endloop
  endfacet
  facet normal 6.059178e-01 -7.135421e-02 -7.923207e-01
    outer loop
      vertex 2.499089e+02 -2.538036e+01 -5.418736e+02
      vertex 2.496526e+02 -2.553663e+01 -5.420555e+02
      vertex 2.498643e+02 -2.485836e+01 -5.419547e+02
    endloop
  endfacet
  facet normal 7.795931e-02 -1.388552e-02 -9.968598e-01
    outer loop
      vertex 2.497027e+02 -2.477093e+01 -5.420744e+02
      vertex 2.495767e+02 -2.553744e+01 -5.420736e+02
      vertex 2.494990e+02 -2.553771e+01 -5.420797e+02
    endloop
  endfacet
  facet normal 0.000000e+00 -4.970591e-02 -9.987639e-01
    outer loop
      vertex 2.494990e+02 -2.465562e+01 -5.421236e+02
      vertex 2.494990e+02 -2.553771e+01 -5.420797e+02
      vertex 1.199080e+02 -2.553771e+01 -5.420797e+02
    endloop
  endfacet
  facet normal 2.081702e-01 -4.861699e-02 -9.768836e-01
    outer loop
      vertex 2.497027e+02 -2.477093e+01 -5.420744e+02
      vertex 2.494990e+02 -2.553771e+01 -5.420797e+02
      vertex 2.494990e+02 -2.465562e+01 -5.421236e+02
    endloop
  endfacet
  facet normal -2.852605e-01 -4.764063e-02 -9.572653e-01
    outer loop
      vertex 1.199080e+02 -2.448500e+01 -5.421320e+02
      vertex 1.199080e+02 -2.553771e+01 -5.420797e+02
      vertex 1.188143e+02 -2.552314e+01 -5.417545e+02
    endloop
  endfacet
  facet normal 0.000000e+00 -4.970591e-02 -9.987639e-01
    outer loop
      vertex 2.492031e+02 -2.448500e+01 -5.421320e+02
      vertex 1.199080e+02 -2.553771e+01 -5.420797e+02
      vertex 1.199080e+02 -2.448500e+01 -5.421320e+02
    endloop
  endfacet
  facet normal -3.008052e-15 -4.970591e-02 -9.987639e-01
    outer loop
      vertex 2.492031e+02 -2.448500e+01 -5.421320e+02
      vertex 2.494990e+02 -2.465562e+01 -5.421236e+02
      vertex 1.199080e+02 -2.553771e+01 -5.420797e+02
    endloop
  endfacet
  facet normal -3.374702e-01 1.318663e-02 -9.412438e-01
    outer loop
      vertex 1.186361e+02 -2.446456e+01 -5.416757e+02
      vertex 1.199080e+02 -2.448500e+01 -5.421320e+02
      vertex 1.188143e+02 -2.552314e+01 -5.417545e+02
    endloop
  endfacet
  facet normal 0.000000e+00 9.989978e-01 -4.475820e-02
    outer loop
      vertex 2.494794e+02 -2.304373e+01 -5.099630e+02
      vertex 2.492031e+02 -2.448500e+01 -5.421320e+02
      vertex 1.199080e+02 -2.448500e+01 -5.421320e+02
    endloop
  endfacet
  facet normal 5.421424e-16 9.989978e-01 -4.475820e-02
    outer loop
      vertex 1.186361e+02 -2.446456e+01 -5.416757e+02
      vertex 2.494794e+02 -2.304373e+01 -5.099630e+02
      vertex 1.199080e+02 -2.448500e+01 -5.421320e+02
    endloop
  endfacet
  facet normal 5.000000e-01 8.649549e-01 -4.304658e-02
    outer loop
      vertex 2.494794e+02 -2.304373e+01 -5.099630e+02
      vertex 2.494990e+02 -2.465562e+01 -5.421236e+02
      vertex 2.492031e+02 -2.448500e+01 -5.421320e+02
    endloop
  endfacet
  facet normal 5.000000e-01 8.649549e-01 -4.304658e-02
    outer loop
      vertex 2.497027e+02 -2.477093e+01 -5.420744e+02
      vertex 2.494990e+02 -2.465562e+01 -5.421236e+02
      vertex 2.494794e+02 -2.304373e+01 -5.099630e+02
    endloop
  endfacet
  facet normal 0.000000e+00 9.989978e-01 -4.475820e-02
    outer loop
      vertex 1.156417e+02 -2.368596e+01 -5.242976e+02
      vertex 1.155186e+02 -2.304373e+01 -5.099630e+02
      vertex 2.494794e+02 -2.304373e+01 -5.099630e+02
    endloop
  endfacet
  facet normal 0.000000e+00 -4.475820e-02 -9.989978e-01
    outer loop
      vertex 2.487866e+02 -2.264413e+01 -5.099809e+02
      vertex 2.494794e+02 -2.304373e+01 -5.099630e+02
      vertex 1.155186e+02 -2.304373e+01 -5.099630e+02
    endloop
  endfacet
  facet normal -6.115307e-17 9.989978e-01 -4.475820e-02
    outer loop
      vertex 1.165851e+02 -2.405057e+01 -5.324357e+02
      vertex 1.156417e+02 -2.368596e+01 -5.242976e+02
      vertex 2.494794e+02 -2.304373e+01 -5.099630e+02
    endloop
  endfacet
  facet normal 5.945619e-17 9.989978e-01 -4.475820e-02
    outer loop
      vertex 1.179448e+02 -2.441258e+01 -5.405157e+02
      vertex 1.165851e+02 -2.405057e+01 -5.324357e+02
      vertex 2.494794e+02 -2.304373e+01 -5.099630e+02
    endloop
  endfacet
  facet normal 5.107821e-16 9.989978e-01 -4.475820e-02
    outer loop
      vertex 1.186361e+02 -2.446456e+01 -5.416757e+02
      vertex 1.179448e+02 -2.441258e+01 -5.405157e+02
      vertex 2.494794e+02 -2.304373e+01 -5.099630e+02
    endloop
  endfacet
  facet normal 5.000000e-01 8.649540e-01 -4.306387e-02
    outer loop
      vertex 2.499990e+02 -2.334331e+01 -5.099470e+02
      vertex 2.494794e+02 -2.304373e+01 -5.099630e+02
      vertex 2.487866e+02 -2.264413e+01 -5.099809e+02
    endloop
  endfacet
  facet normal 5.000000e-01 8.649549e-01 -4.304658e-02
    outer loop
      vertex 2.499990e+02 -2.491908e+01 -5.416098e+02
      vertex 2.494794e+02 -2.304373e+01 -5.099630e+02
      vertex 2.499990e+02 -2.334331e+01 -5.099470e+02
    endloop
  endfacet
  facet normal 5.000000e-01 8.649549e-01 -4.304658e-02
    outer loop
      vertex 2.498643e+02 -2.485836e+01 -5.419547e+02
      vertex 2.494794e+02 -2.304373e+01 -5.099630e+02
      vertex 2.499990e+02 -2.491908e+01 -5.416098e+02
    endloop
  endfacet
  facet normal 5.000000e-01 8.649549e-01 -4.304658e-02
    outer loop
      vertex 2.498643e+02 -2.485836e+01 -5.419547e+02
      vertex 2.497027e+02 -2.477093e+01 -5.420744e+02
      vertex 2.494794e+02 -2.304373e+01 -5.099630e+02
    endloop
  endfacet
  facet normal -5.000000e-01 8.649549e-01 -4.304658e-02
    outer loop
      vertex 1.149979e+02 -2.334392e+01 -5.099470e+02
      vertex 1.155186e+02 -2.304373e+01 -5.099630e+02
      vertex 1.156417e+02 -2.368596e+01 -5.242976e+02
    endloop
  endfacet
  facet normal 0.000000e+00 -4.475820e-02 -9.989978e-01
    outer loop
      vertex 2.487866e+02 -2.264413e+01 -5.099809e+02
      vertex 1.155186e+02 -2.304373e+01 -5.099630e+02
      vertex 1.162114e+02 -2.264413e+01 -5.099809e+02
    endloop
  endfacet
  facet normal -5.000000e-01 8.649540e-01 -4.306388e-02
    outer loop
      vertex 1.149979e+02 -2.334392e+01 -5.099470e+02
      vertex 1.162114e+02 -2.264413e+01 -5.099809e+02
      vertex 1.155186e+02 -2.304373e+01 -5.099630e+02
    endloop
  endfacet
  facet normal -5.000000e-01 8.649549e-01 -4.304658e-02
    outer loop
      vertex 1.149979e+02 -2.334392e+01 -5.099470e+02
      vertex 1.156417e+02 -2.368596e+01 -5.242976e+02
      vertex 1.151602e+02 -2.360838e+01 -5.171452e+02
    endloop
  endfacet
  facet normal 0.000000e+00 9.989978e-01 -4.475820e-02
    outer loop
      vertex 2.352475e+02 -2.229379e+01 -5.021613e+02
      vertex 2.487866e+02 -2.264413e+01 -5.099809e+02
      vertex 1.162114e+02 -2.264413e+01 -5.099809e+02
    endloop
  endfacet
  facet normal 0.000000e+00 9.989978e-01 -4.475820e-02
    outer loop
      vertex 1.319990e+02 -2.219313e+01 -4.999148e+02
      vertex 2.239990e+02 -2.219313e+01 -4.999148e+02
      vertex 1.162114e+02 -2.264413e+01 -5.099809e+02
    endloop
  endfacet
  facet normal -7.147139e-17 9.989978e-01 -4.475820e-02
    outer loop
      vertex 2.329940e+02 -2.218195e+01 -4.996650e+02
      vertex 1.162114e+02 -2.264413e+01 -5.099809e+02
      vertex 2.239990e+02 -2.219313e+01 -4.999148e+02
    endloop
  endfacet
  facet normal 1.169830e-15 9.989978e-01 -4.475820e-02
    outer loop
      vertex 1.305700e+02 -2.215620e+01 -4.990904e+02
      vertex 1.319990e+02 -2.219313e+01 -4.999148e+02
      vertex 1.162114e+02 -2.264413e+01 -5.099809e+02
    endloop
  endfacet
  facet normal -1.434347e-15 9.989978e-01 -4.475820e-02
    outer loop
      vertex 1.305700e+02 -2.208237e+01 -4.974425e+02
      vertex 1.305700e+02 -2.215620e+01 -4.990904e+02
      vertex 1.162114e+02 -2.264413e+01 -5.099809e+02
    endloop
  endfacet
  facet normal 4.191589e-17 9.989978e-01 -4.475820e-02
    outer loop
      vertex 1.180861e+02 -2.124975e+01 -4.788587e+02
      vertex 1.305700e+02 -2.208237e+01 -4.974425e+02
      vertex 1.162114e+02 -2.264413e+01 -5.099809e+02
    endloop
  endfacet
  facet normal 3.338550e-16 9.989978e-01 -4.475820e-02
    outer loop
      vertex 2.337455e+02 -2.229379e+01 -5.021613e+02
      vertex 2.352475e+02 -2.229379e+01 -5.021613e+02
      vertex 1.162114e+02 -2.264413e+01 -5.099809e+02
    endloop
  endfacet
  facet normal 7.130026e-17 9.989978e-01 -4.475820e-02
    outer loop
      vertex 2.329940e+02 -2.223554e+01 -5.008614e+02
      vertex 2.337455e+02 -2.229379e+01 -5.021613e+02
      vertex 1.162114e+02 -2.264413e+01 -5.099809e+02
    endloop
  endfacet
  facet normal -7.303637e-17 9.989978e-01 -4.475820e-02
    outer loop
      vertex 2.329940e+02 -2.218195e+01 -4.996650e+02
      vertex 2.329940e+02 -2.223554e+01 -5.008614e+02
      vertex 1.162114e+02 -2.264413e+01 -5.099809e+02
    endloop
  endfacet
  facet normal 2.480533e-15 9.989978e-01 -4.475820e-02
    outer loop
      vertex 1.180277e+02 -2.125954e+01 -4.790770e+02
      vertex 1.180861e+02 -2.124975e+01 -4.788587e+02
      vertex 1.162114e+02 -2.264413e+01 -5.099809e+02
    endloop
  endfacet
  facet normal -4.767894e-14 9.989978e-01 -4.475820e-02
    outer loop
      vertex 1.179792e+02 -2.126942e+01 -4.792977e+02
      vertex 1.180277e+02 -2.125954e+01 -4.790770e+02
      vertex 1.162114e+02 -2.264413e+01 -5.099809e+02
    endloop
  endfacet
  facet normal 1.450989e-16 9.989978e-01 -4.475820e-02
    outer loop
      vertex 1.158916e+02 -2.258285e+01 -5.086133e+02
      vertex 1.179792e+02 -2.126942e+01 -4.792977e+02
      vertex 1.162114e+02 -2.264413e+01 -5.099809e+02
    endloop
  endfacet
  facet normal -4.781222e-01 8.652913e-01 -1.505661e-01
    outer loop
      vertex 1.150033e+02 -2.310806e+01 -5.088106e+02
      vertex 1.158916e+02 -2.258285e+01 -5.086133e+02
      vertex 1.162114e+02 -2.264413e+01 -5.099809e+02
    endloop
  endfacet
  facet normal -4.955688e-01 8.509042e-01 -1.742801e-01
    outer loop
      vertex 1.150033e+02 -2.310806e+01 -5.088106e+02
      vertex 1.162114e+02 -2.264413e+01 -5.099809e+02
      vertex 1.149979e+02 -2.334392e+01 -5.099470e+02
    endloop
  endfacet
  facet normal -6.803067e-16 9.989978e-01 -4.475820e-02
    outer loop
      vertex 2.352475e+02 -2.229379e+01 -5.021613e+02
      vertex 2.359990e+02 -2.223554e+01 -5.008614e+02
      vertex 2.487866e+02 -2.264413e+01 -5.099809e+02
    endloop
  endfacet
  facet normal 5.206135e-17 9.989978e-01 -4.475820e-02
    outer loop
      vertex 2.499990e+02 -2.124975e+01 -4.788587e+02
      vertex 2.487866e+02 -2.264413e+01 -5.099809e+02
      vertex 2.359990e+02 -2.223554e+01 -5.008614e+02
    endloop
  endfacet
  facet normal -1.680361e-15 9.989978e-01 -4.475820e-02
    outer loop
      vertex 2.499990e+02 -2.124975e+01 -4.788587e+02
      vertex 2.491117e+02 -2.258236e+01 -5.086022e+02
      vertex 2.487866e+02 -2.264413e+01 -5.099809e+02
    endloop
  endfacet
  facet normal 4.967488e-01 8.538657e-01 -1.554155e-01
    outer loop
      vertex 2.499990e+02 -2.334331e+01 -5.099470e+02
      vertex 2.487866e+02 -2.264413e+01 -5.099809e+02
      vertex 2.491117e+02 -2.258236e+01 -5.086022e+02
    endloop
  endfacet
  facet normal 5.861468e-16 9.989978e-01 -4.475820e-02
    outer loop
      vertex 2.244535e+02 -2.219028e+01 -4.998510e+02
      vertex 2.329940e+02 -2.218195e+01 -4.996650e+02
      vertex 2.239990e+02 -2.219313e+01 -4.999148e+02
    endloop
  endfacet
  facet normal -1.348463e-15 9.989978e-01 -4.475820e-02
    outer loop
      vertex 1.180861e+02 -2.124975e+01 -4.788587e+02
      vertex 1.319990e+02 -2.204543e+01 -4.966181e+02
      vertex 1.305700e+02 -2.208237e+01 -4.974425e+02
    endloop
  endfacet
  facet normal 0.000000e+00 9.989978e-01 -4.475820e-02
    outer loop
      vertex 2.499990e+02 -2.124975e+01 -4.788587e+02
      vertex 2.239990e+02 -2.204543e+01 -4.966181e+02
      vertex 1.319990e+02 -2.204543e+01 -4.966181e+02
    endloop
  endfacet
  facet normal 0.000000e+00 9.989978e-01 -4.475820e-02
    outer loop
      vertex 2.499990e+02 -2.124975e+01 -4.788587e+02
      vertex 1.319990e+02 -2.204543e+01 -4.966181e+02
      vertex 1.180861e+02 -2.124975e+01 -4.788587e+02
    endloop
  endfacet
  facet normal 3.282314e-15 9.989978e-01 -4.475820e-02
    outer loop
      vertex 2.499990e+02 -2.124975e+01 -4.788587e+02
      vertex 2.244535e+02 -2.204829e+01 -4.966819e+02
      vertex 2.239990e+02 -2.204543e+01 -4.966181e+02
    endloop
  endfacet
  facet normal -2.034427e-15 9.989978e-01 -4.475820e-02
    outer loop
      vertex 2.499990e+02 -2.124975e+01 -4.788587e+02
      vertex 2.248722e+02 -2.205662e+01 -4.968678e+02
      vertex 2.244535e+02 -2.204829e+01 -4.966819e+02
    endloop
  endfacet
  facet normal 0.000000e+00 9.989978e-01 -4.475820e-02
    outer loop
      vertex 2.329940e+02 -2.200302e+01 -4.956715e+02
      vertex 2.329940e+02 -2.205662e+01 -4.968678e+02
      vertex 2.248722e+02 -2.205662e+01 -4.968678e+02
    endloop
  endfacet
  facet normal 5.454255e-17 9.989978e-01 -4.475820e-02
    outer loop
      vertex 2.337455e+02 -2.194478e+01 -4.943715e+02
      vertex 2.329940e+02 -2.200302e+01 -4.956715e+02
      vertex 2.248722e+02 -2.205662e+01 -4.968678e+02
    endloop
  endfacet
  facet normal 2.742028e-16 9.989978e-01 -4.475820e-02
    outer loop
      vertex 2.499990e+02 -2.124975e+01 -4.788587e+02
      vertex 2.337455e+02 -2.194478e+01 -4.943715e+02
      vertex 2.248722e+02 -2.205662e+01 -4.968678e+02
    endloop
  endfacet
  facet normal 1.066213e-15 9.989978e-01 -4.475820e-02
    outer loop
      vertex 2.499990e+02 -2.124975e+01 -4.788587e+02
      vertex 2.352475e+02 -2.194478e+01 -4.943715e+02
      vertex 2.337455e+02 -2.194478e+01 -4.943715e+02
    endloop
  endfacet
  facet normal -1.151058e-15 9.989978e-01 -4.475820e-02
    outer loop
      vertex 2.499990e+02 -2.124975e+01 -4.788587e+02
      vertex 2.359990e+02 -2.200302e+01 -4.956715e+02
      vertex 2.352475e+02 -2.194478e+01 -4.943715e+02
    endloop
  endfacet
  facet normal 9.769476e-17 9.989978e-01 -4.475820e-02
    outer loop
      vertex 2.499990e+02 -2.124975e+01 -4.788587e+02
      vertex 2.359990e+02 -2.223554e+01 -5.008614e+02
      vertex 2.359990e+02 -2.200302e+01 -4.956715e+02
    endloop
  endfacet
  facet normal -1.000000e+00 0.000000e+00 0.000000e+00
    outer loop
      vertex 2.359990e+02 -2.252921e+01 -4.982410e+02
      vertex 2.359990e+02 -2.200302e+01 -4.956715e+02
      vertex 2.359990e+02 -2.223554e+01 -5.008614e+02
    endloop
  endfacet
  facet normal -1.000000e+00 0.000000e+00 0.000000e+00
    outer loop
      vertex 2.359990e+02 -2.299272e+01 -4.973481e+02
      vertex 2.359990e+02 -2.200302e+01 -4.956715e+02
      vertex 2.359990e+02 -2.252921e+01 -4.982410e+02
    endloop
  endfacet
  facet normal -1.000000e+00 0.000000e+00 0.000000e+00
    outer loop
      vertex 2.359990e+02 -2.307071e+01 -4.990889e+02
      vertex 2.359990e+02 -2.252921e+01 -4.982410e+02
      vertex 2.359990e+02 -2.223554e+01 -5.008614e+02
    endloop
  endfacet
  facet normal -1.000000e+00 0.000000e+00 0.000000e+00
    outer loop
      vertex 2.359990e+02 -2.307071e+01 -4.990889e+02
      vertex 2.359990e+02 -2.223554e+01 -5.008614e+02
      vertex 2.359990e+02 -2.407620e+01 -4.990439e+02
    endloop
  endfacet
  facet normal 0.000000e+00 9.989978e-01 -4.475820e-02
    outer loop
      vertex 2.244535e+02 -2.219028e+01 -4.998510e+02
      vertex 2.248722e+02 -2.218195e+01 -4.996650e+02
      vertex 2.329940e+02 -2.218195e+01 -4.996650e+02
    endloop
  endfacet
  facet normal -9.660878e-01 1.283476e-02 2.578948e-01
    outer loop
      vertex 1.180861e+02 -2.263165e+01 -4.787899e+02
      vertex 1.180861e+02 -2.124975e+01 -4.788587e+02
      vertex 1.180277e+02 -2.125954e+01 -4.790770e+02
    endloop
  endfacet
  facet normal 0.000000e+00 4.970591e-02 9.987639e-01
    outer loop
      vertex 2.499990e+02 -2.129730e+01 -4.788563e+02
      vertex 2.499990e+02 -2.124975e+01 -4.788587e+02
      vertex 1.180861e+02 -2.124975e+01 -4.788587e+02
    endloop
  endfacet
  facet normal -9.767580e-01 3.263916e-03 2.143203e-01
    outer loop
      vertex 1.180861e+02 -2.263165e+01 -4.787899e+02
      vertex 1.180277e+02 -2.125954e+01 -4.790770e+02
      vertex 1.179792e+02 -2.126942e+01 -4.792977e+02
    endloop
  endfacet
  facet normal 8.739382e-16 9.989978e-01 -4.475820e-02
    outer loop
      vertex 1.158916e+02 -2.258285e+01 -5.086133e+02
      vertex 1.158710e+02 -2.189860e+01 -4.933408e+02
      vertex 1.179792e+02 -2.126942e+01 -4.792977e+02
    endloop
  endfacet
  facet normal -7.247885e-16 9.989978e-01 -4.475820e-02
    outer loop
      vertex 1.158916e+02 -2.258285e+01 -5.086133e+02
      vertex 1.150184e+02 -2.253357e+01 -5.075133e+02
      vertex 1.158710e+02 -2.189860e+01 -4.933408e+02
    endloop
  endfacet
  facet normal -4.124670e-01 8.347356e-01 -3.648116e-01
    outer loop
      vertex 1.150033e+02 -2.310806e+01 -5.088106e+02
      vertex 1.150184e+02 -2.253357e+01 -5.075133e+02
      vertex 1.158916e+02 -2.258285e+01 -5.086133e+02
    endloop
  endfacet
  facet normal -9.999346e-01 5.946453e-04 1.142370e-02
    outer loop
      vertex 1.150034e+02 -2.495748e+01 -5.087068e+02
      vertex 1.150184e+02 -2.253357e+01 -5.075133e+02
      vertex 1.150033e+02 -2.310806e+01 -5.088106e+02
    endloop
  endfacet
  facet normal 8.380427e-16 9.989978e-01 -4.475820e-02
    outer loop
      vertex 2.499990e+02 -2.124975e+01 -4.788587e+02
      vertex 2.499990e+02 -2.253287e+01 -5.074977e+02
      vertex 2.491117e+02 -2.258236e+01 -5.086022e+02
    endloop
  endfacet
  facet normal 4.102242e-01 8.349117e-01 -3.669313e-01
    outer loop
      vertex 2.499990e+02 -2.311145e+01 -5.088142e+02
      vertex 2.491117e+02 -2.258236e+01 -5.086022e+02
      vertex 2.499990e+02 -2.253287e+01 -5.074977e+02
    endloop
  endfacet
  facet normal 4.726313e-01 8.633633e-01 -1.767019e-01
    outer loop
      vertex 2.499990e+02 -2.334331e+01 -5.099470e+02
      vertex 2.491117e+02 -2.258236e+01 -5.086022e+02
      vertex 2.499990e+02 -2.311145e+01 -5.088142e+02
    endloop
  endfacet
  facet normal 1.000000e+00 0.000000e+00 0.000000e+00
    outer loop
      vertex 2.499990e+02 -2.162536e+01 -4.854481e+02
      vertex 2.499990e+02 -2.253287e+01 -5.074977e+02
      vertex 2.499990e+02 -2.124975e+01 -4.788587e+02
    endloop
  endfacet
  facet normal 1.000000e+00 0.000000e+00 0.000000e+00
    outer loop
      vertex 2.499990e+02 -2.162536e+01 -4.854481e+02
      vertex 2.499990e+02 -2.252921e+01 -4.982410e+02
      vertex 2.499990e+02 -2.253287e+01 -5.074977e+02
    endloop
  endfacet
  facet normal 1.000000e+00 0.000000e+00 0.000000e+00
    outer loop
      vertex 2.499990e+02 -2.495406e+01 -5.087122e+02
      vertex 2.499990e+02 -2.311145e+01 -5.088142e+02
      vertex 2.499990e+02 -2.253287e+01 -5.074977e+02
    endloop
  endfacet
  facet normal 1.000000e+00 0.000000e+00 0.000000e+00
    outer loop
      vertex 2.499990e+02 -2.162536e+01 -4.854481e+02
      vertex 2.499990e+02 -2.124975e+01 -4.788587e+02
      vertex 2.499990e+02 -2.129730e+01 -4.788563e+02
    endloop
  endfacet
  facet normal -3.793262e-16 9.987639e-01 -4.970591e-02
    outer loop
      vertex 1.198861e+02 -2.250241e+01 -4.761931e+02
      vertex 1.228861e+02 -2.245271e+01 -4.751943e+02
      vertex 1.180861e+02 -2.263165e+01 -4.787899e+02
    endloop
  endfacet
  facet normal 0.000000e+00 9.987639e-01 -4.970591e-02
    outer loop
      vertex 1.239990e+02 -2.245271e+01 -4.751943e+02
      vertex 1.180861e+02 -2.263165e+01 -4.787899e+02
      vertex 1.228861e+02 -2.245271e+01 -4.751943e+02
    endloop
  endfacet
  facet normal 1.161219e-15 9.987639e-01 -4.970591e-02
    outer loop
      vertex 1.239990e+02 -2.245271e+01 -4.751943e+02
      vertex 1.239990e+02 -2.250013e+01 -4.761472e+02
      vertex 1.180861e+02 -2.263165e+01 -4.787899e+02
    endloop
  endfacet
  facet normal 3.956087e-16 9.987639e-01 -4.970591e-02
    outer loop
      vertex 2.514635e+02 -2.144963e+01 -4.819170e+02
      vertex 2.499990e+02 -2.129730e+01 -4.788563e+02
      vertex 2.549990e+02 -2.137683e+01 -4.804543e+02
    endloop
  endfacet
  facet normal -2.871470e-15 9.987639e-01 -4.970591e-02
    outer loop
      vertex 2.514635e+02 -2.144963e+01 -4.819170e+02
      vertex 2.499990e+02 -2.162536e+01 -4.854481e+02
      vertex 2.499990e+02 -2.129730e+01 -4.788563e+02
    endloop
  endfacet
  facet normal -1.000000e+00 0.000000e+00 0.000000e+00
    outer loop
      vertex 1.239990e+02 -2.108862e+01 -4.752622e+02
      vertex 1.239990e+02 -2.250013e+01 -4.761472e+02
      vertex 1.239990e+02 -2.245271e+01 -4.751943e+02
    endloop
  endfacet
  facet normal -1.000000e+00 0.000000e+00 0.000000e+00
    outer loop
      vertex 1.239990e+02 -2.108862e+01 -4.752622e+02
      vertex 1.239990e+02 -2.113132e+01 -4.762153e+02
      vertex 1.239990e+02 -2.250013e+01 -4.761472e+02
    endloop
  endfacet
  facet normal 0.000000e+00 9.987639e-01 -4.970591e-02
    outer loop
      vertex 2.940825e+02 -2.135108e+01 -4.799368e+02
      vertex 2.933049e+02 -2.137683e+01 -4.804543e+02
      vertex 2.549990e+02 -2.137683e+01 -4.804543e+02
    endloop
  endfacet
  facet normal 7.543814e-17 9.987639e-01 -4.970591e-02
    outer loop
      vertex 2.949990e+02 -2.134204e+01 -4.797552e+02
      vertex 2.940825e+02 -2.135108e+01 -4.799368e+02
      vertex 2.549990e+02 -2.137683e+01 -4.804543e+02
    endloop
  endfacet
  facet normal 1.000000e+00 0.000000e+00 0.000000e+00
    outer loop
      vertex 2.499990e+02 -2.162536e+01 -4.854481e+02
      vertex 2.499990e+02 -2.299272e+01 -4.973481e+02
      vertex 2.499990e+02 -2.252921e+01 -4.982410e+02
    endloop
  endfacet
  facet normal 0.000000e+00 -8.875519e-01 -4.607078e-01
    outer loop
      vertex 2.359990e+02 -2.252921e+01 -4.982410e+02
      vertex 2.499990e+02 -2.252921e+01 -4.982410e+02
      vertex 2.499990e+02 -2.299272e+01 -4.973481e+02
    endloop
  endfacet
  facet normal 0.000000e+00 -8.427962e-01 5.382327e-01
    outer loop
      vertex 2.359990e+02 -2.307071e+01 -4.990889e+02
      vertex 2.499990e+02 -2.307071e+01 -4.990889e+02
      vertex 2.499990e+02 -2.252921e+01 -4.982410e+02
    endloop
  endfacet
  facet normal 0.000000e+00 -8.427962e-01 5.382327e-01
    outer loop
      vertex 2.359990e+02 -2.307071e+01 -4.990889e+02
      vertex 2.499990e+02 -2.252921e+01 -4.982410e+02
      vertex 2.359990e+02 -2.252921e+01 -4.982410e+02
    endloop
  endfacet
  facet normal 1.000000e+00 0.000000e+00 0.000000e+00
    outer loop
      vertex 2.499990e+02 -2.162536e+01 -4.854481e+02
      vertex 2.499990e+02 -2.399820e+01 -4.973031e+02
      vertex 2.499990e+02 -2.299272e+01 -4.973481e+02
    endloop
  endfacet
  facet normal 0.000000e+00 -4.475820e-02 -9.989978e-01
    outer loop
      vertex 2.359990e+02 -2.299272e+01 -4.973481e+02
      vertex 2.499990e+02 -2.299272e+01 -4.973481e+02
      vertex 2.499990e+02 -2.399820e+01 -4.973031e+02
    endloop
  endfacet
  facet normal 0.000000e+00 -8.875519e-01 -4.607078e-01
    outer loop
      vertex 2.359990e+02 -2.299272e+01 -4.973481e+02
      vertex 2.359990e+02 -2.252921e+01 -4.982410e+02
      vertex 2.499990e+02 -2.299272e+01 -4.973481e+02
    endloop
  endfacet
  facet normal 1.000000e+00 0.000000e+00 0.000000e+00
    outer loop
      vertex 2.499990e+02 -2.162536e+01 -4.854481e+02
      vertex 2.499990e+02 -2.453970e+01 -4.981510e+02
      vertex 2.499990e+02 -2.399820e+01 -4.973031e+02
    endloop
  endfacet
  facet normal 0.000000e+00 8.427962e-01 -5.382327e-01
    outer loop
      vertex 2.359990e+02 -2.399820e+01 -4.973031e+02
      vertex 2.499990e+02 -2.399820e+01 -4.973031e+02
      vertex 2.499990e+02 -2.453970e+01 -4.981510e+02
    endloop
  endfacet
  facet normal 0.000000e+00 -4.475820e-02 -9.989978e-01
    outer loop
      vertex 2.359990e+02 -2.399820e+01 -4.973031e+02
      vertex 2.359990e+02 -2.299272e+01 -4.973481e+02
      vertex 2.499990e+02 -2.399820e+01 -4.973031e+02
    endloop
  endfacet
  facet normal 0.000000e+00 8.875519e-01 4.607078e-01
    outer loop
      vertex 2.359990e+02 -2.453970e+01 -4.981510e+02
      vertex 2.499990e+02 -2.453970e+01 -4.981510e+02
      vertex 2.499990e+02 -2.407620e+01 -4.990439e+02
    endloop
  endfacet
  facet normal 0.000000e+00 8.427962e-01 -5.382327e-01
    outer loop
      vertex 2.359990e+02 -2.453970e+01 -4.981510e+02
      vertex 2.359990e+02 -2.399820e+01 -4.973031e+02
      vertex 2.499990e+02 -2.453970e+01 -4.981510e+02
    endloop
  endfacet
  facet normal -1.135808e-17 4.475820e-02 9.989978e-01
    outer loop
      vertex 2.359990e+02 -2.407620e+01 -4.990439e+02
      vertex 2.499990e+02 -2.407620e+01 -4.990439e+02
      vertex 2.499990e+02 -2.307071e+01 -4.990889e+02
    endloop
  endfacet
  facet normal -2.252298e-16 8.875519e-01 4.607078e-01
    outer loop
      vertex 2.359990e+02 -2.407620e+01 -4.990439e+02
      vertex 2.359990e+02 -2.453970e+01 -4.981510e+02
      vertex 2.499990e+02 -2.407620e+01 -4.990439e+02
    endloop
  endfacet
  facet normal 0.000000e+00 4.475820e-02 9.989978e-01
    outer loop
      vertex 2.359990e+02 -2.307071e+01 -4.990889e+02
      vertex 2.359990e+02 -2.407620e+01 -4.990439e+02
      vertex 2.499990e+02 -2.307071e+01 -4.990889e+02
    endloop
  endfacet
  facet normal 1.000000e+00 0.000000e+00 0.000000e+00
    outer loop
      vertex 2.499990e+02 -2.483338e+01 -5.098729e+02
      vertex 2.499990e+02 -2.334331e+01 -5.099470e+02
      vertex 2.499990e+02 -2.311145e+01 -5.088142e+02
    endloop
  endfacet
  facet normal 1.000000e+00 0.000000e+00 0.000000e+00
    outer loop
      vertex 2.499990e+02 -2.495406e+01 -5.087122e+02
      vertex 2.499990e+02 -2.483338e+01 -5.098729e+02
      vertex 2.499990e+02 -2.311145e+01 -5.088142e+02
    endloop
  endfacet
  facet normal 1.000000e+00 0.000000e+00 0.000000e+00
    outer loop
      vertex 2.499990e+02 -2.531557e+01 -5.415901e+02
      vertex 2.499990e+02 -2.491908e+01 -5.416098e+02
      vertex 2.499990e+02 -2.334331e+01 -5.099470e+02
    endloop
  endfacet
  facet normal 9.538779e-01 -1.492146e-02 -2.998239e-01
    outer loop
      vertex 2.499089e+02 -2.538036e+01 -5.418736e+02
      vertex 2.499990e+02 -2.491908e+01 -5.416098e+02
      vertex 2.499990e+02 -2.531557e+01 -5.415901e+02
    endloop
  endfacet
  facet normal 9.325862e-01 2.374215e-02 -3.601657e-01
    outer loop
      vertex 2.499089e+02 -2.538036e+01 -5.418736e+02
      vertex 2.498643e+02 -2.485836e+01 -5.419547e+02
      vertex 2.499990e+02 -2.491908e+01 -5.416098e+02
    endloop
  endfacet
  facet normal -9.997081e-01 7.937837e-03 -2.281995e-02
    outer loop
      vertex 1.151284e+02 -2.522894e+01 -5.163179e+02
      vertex 1.149979e+02 -2.334392e+01 -5.099470e+02
      vertex 1.151602e+02 -2.360838e+01 -5.171452e+02
    endloop
  endfacet
  facet normal -9.999884e-01 -4.704413e-04 4.787558e-03
    outer loop
      vertex 1.149990e+02 -2.483338e+01 -5.098729e+02
      vertex 1.150033e+02 -2.310806e+01 -5.088106e+02
      vertex 1.149979e+02 -2.334392e+01 -5.099470e+02
    endloop
  endfacet
  facet normal -9.997991e-01 -1.702401e-03 -1.996948e-02
    outer loop
      vertex 1.151284e+02 -2.522894e+01 -5.163179e+02
      vertex 1.149990e+02 -2.483338e+01 -5.098729e+02
      vertex 1.149979e+02 -2.334392e+01 -5.099470e+02
    endloop
  endfacet
  facet normal -9.999929e-01 1.640803e-04 3.756975e-03
    outer loop
      vertex 1.149990e+02 -2.483338e+01 -5.098729e+02
      vertex 1.150034e+02 -2.495748e+01 -5.087068e+02
      vertex 1.150033e+02 -2.310806e+01 -5.088106e+02
    endloop
  endfacet
endsolid 048_100022596-13
