solid 051_100022597-19
  facet normal 1.000000e+00 0.000000e+00 0.000000e+00
    outer loop
      vertex 3.199993e+02 -3.379033e+01 -5.411798e+02
      vertex 3.199993e+02 -3.208558e+01 -5.403800e+02
      vertex 3.199993e+02 -3.505029e+01 -5.402029e+02
    endloop
  endfacet
  facet normal 0.000000e+00 5.966039e-02 9.982187e-01
    outer loop
      vertex 2.949993e+02 -3.208558e+01 -5.403800e+02
      vertex 3.199993e+02 -3.505029e+01 -5.402029e+02
      vertex 3.199993e+02 -3.208558e+01 -5.403800e+02
    endloop
  endfacet
  facet normal 1.000000e+00 0.000000e+00 0.000000e+00
    outer loop
      vertex 3.199993e+02 -3.510399e+01 -5.411013e+02
      vertex 3.199993e+02 -3.379033e+01 -5.411798e+02
      vertex 3.199993e+02 -3.505029e+01 -5.402029e+02
    endloop
  endfacet
  facet normal 0.000000e+00 -9.982187e-01 5.966039e-02
    outer loop
      vertex 2.949993e+02 -3.505029e+01 -5.402029e+02
      vertex 3.199993e+02 -3.510399e+01 -5.411013e+02
      vertex 3.199993e+02 -3.505029e+01 -5.402029e+02
    endloop
  endfacet
  facet normal 0.000000e+00 5.966039e-02 9.982187e-01
    outer loop
      vertex 2.949993e+02 -3.505029e+01 -5.402029e+02
      vertex 3.199993e+02 -3.505029e+01 -5.402029e+02
      vertex 2.949993e+02 -3.208558e+01 -5.403800e+02
    endloop
  endfacet
  facet normal 1.000000e+00 0.000000e+00 0.000000e+00
    outer loop
      vertex 3.199993e+02 -3.394819e+01 -5.438211e+02
      vertex 3.199993e+02 -3.235405e+01 -5.448720e+02
      vertex 3.199993e+02 -3.208558e+01 -5.403800e+02
    endloop
  endfacet
  facet normal 0.000000e+00 9.982187e-01 -5.966039e-02
    outer loop
      vertex 1.228870e+02 -3.235405e+01 -5.448720e+02
      vertex 3.199993e+02 -3.208558e+01 -5.403800e+02
      vertex 3.199993e+02 -3.235405e+01 -5.448720e+02
    endloop
  endfacet
  facet normal 1.000000e+00 0.000000e+00 0.000000e+00
    outer loop
      vertex 3.199993e+02 -3.379033e+01 -5.411798e+02
      vertex 3.199993e+02 -3.394819e+01 -5.438211e+02
      vertex 3.199993e+02 -3.208558e+01 -5.403800e+02
    endloop
  endfacet
  facet normal 0.000000e+00 9.982187e-01 -5.966039e-02
    outer loop
      vertex 1.228870e+02 -3.235405e+01 -5.448720e+02
      vertex 2.949993e+02 -3.208558e+01 -5.403800e+02
      vertex 3.199993e+02 -3.208558e+01 -5.403800e+02
    endloop
  endfacet
  facet normal 1.000000e+00 0.000000e+00 0.000000e+00
    outer loop
      vertex 3.199993e+02 -3.535126e+01 -5.437372e+02
      vertex 3.199993e+02 -3.541289e+01 -5.446892e+02
      vertex 3.199993e+02 -3.235405e+01 -5.448720e+02
    endloop
  endfacet
  facet normal 0.000000e+00 -5.966039e-02 -9.982187e-01
    outer loop
      vertex 1.239993e+02 -3.541289e+01 -5.446892e+02
      vertex 3.199993e+02 -3.235405e+01 -5.448720e+02
      vertex 3.199993e+02 -3.541289e+01 -5.446892e+02
    endloop
  endfacet
  facet normal 1.000000e+00 0.000000e+00 0.000000e+00
    outer loop
      vertex 3.199993e+02 -3.394819e+01 -5.438211e+02
      vertex 3.199993e+02 -3.535126e+01 -5.437372e+02
      vertex 3.199993e+02 -3.235405e+01 -5.448720e+02
    endloop
  endfacet
  facet normal 0.000000e+00 -5.966039e-02 -9.982187e-01
    outer loop
      vertex 1.228870e+02 -3.400511e+01 -5.447734e+02
      vertex 1.228870e+02 -3.235405e+01 -5.448720e+02
      vertex 3.199993e+02 -3.235405e+01 -5.448720e+02
    endloop
  endfacet
  facet normal 0.000000e+00 -5.966039e-02 -9.982187e-01
    outer loop
      vertex 1.239993e+02 -3.400511e+01 -5.447734e+02
      vertex 1.228870e+02 -3.400511e+01 -5.447734e+02
      vertex 3.199993e+02 -3.235405e+01 -5.448720e+02
    endloop
  endfacet
  facet normal -5.723467e-17 -5.966039e-02 -9.982187e-01
    outer loop
      vertex 1.239993e+02 -3.541289e+01 -5.446892e+02
      vertex 1.239993e+02 -3.400511e+01 -5.447734e+02
      vertex 3.199993e+02 -3.235405e+01 -5.448720e+02
    endloop
  endfacet
  facet normal 0.000000e+00 -9.979110e-01 6.460405e-02
    outer loop
      vertex 1.239993e+02 -3.535126e+01 -5.437372e+02
      vertex 3.199993e+02 -3.541289e+01 -5.446892e+02
      vertex 3.199993e+02 -3.535126e+01 -5.437372e+02
    endloop
  endfacet
  facet normal 0.000000e+00 -9.979110e-01 6.460405e-02
    outer loop
      vertex 1.239993e+02 -3.541289e+01 -5.446892e+02
      vertex 3.199993e+02 -3.541289e+01 -5.446892e+02
      vertex 1.239993e+02 -3.535126e+01 -5.437372e+02
    endloop
  endfacet
  facet normal 0.000000e+00 5.966039e-02 9.982187e-01
    outer loop
      vertex 1.239993e+02 -3.394819e+01 -5.438211e+02
      vertex 3.199993e+02 -3.535126e+01 -5.437372e+02
      vertex 3.199993e+02 -3.394819e+01 -5.438211e+02
    endloop
  endfacet
  facet normal 0.000000e+00 5.966039e-02 9.982187e-01
    outer loop
      vertex 1.239993e+02 -3.535126e+01 -5.437372e+02
      vertex 3.199993e+02 -3.535126e+01 -5.437372e+02
      vertex 1.239993e+02 -3.394819e+01 -5.438211e+02
    endloop
  endfacet
  facet normal 0.000000e+00 -9.982187e-01 5.966039e-02
    outer loop
      vertex 1.180870e+02 -3.379033e+01 -5.411798e+02
      vertex 3.199993e+02 -3.394819e+01 -5.438211e+02
      vertex 3.199993e+02 -3.379033e+01 -5.411798e+02
    endloop
  endfacet
  facet normal 0.000000e+00 -9.982187e-01 5.966039e-02
    outer loop
      vertex 1.239993e+02 -3.394819e+01 -5.438211e+02
      vertex 3.199993e+02 -3.394819e+01 -5.438211e+02
      vertex 1.180870e+02 -3.379033e+01 -5.411798e+02
    endloop
  endfacet
  facet normal 0.000000e+00 -5.966039e-02 -9.982187e-01
    outer loop
      vertex 2.499993e+02 -3.510399e+01 -5.411013e+02
      vertex 3.199993e+02 -3.379033e+01 -5.411798e+02
      vertex 3.199993e+02 -3.510399e+01 -5.411013e+02
    endloop
  endfacet
  facet normal -7.082968e-17 -5.966039e-02 -9.982187e-01
    outer loop
      vertex 2.499993e+02 -3.510399e+01 -5.411013e+02
      vertex 1.180870e+02 -3.518031e+01 -5.410967e+02
      vertex 3.199993e+02 -3.379033e+01 -5.411798e+02
    endloop
  endfacet
  facet normal 0.000000e+00 -5.966039e-02 -9.982187e-01
    outer loop
      vertex 1.180870e+02 -3.379033e+01 -5.411798e+02
      vertex 3.199993e+02 -3.379033e+01 -5.411798e+02
      vertex 1.180870e+02 -3.518031e+01 -5.410967e+02
    endloop
  endfacet
  facet normal 0.000000e+00 -9.982187e-01 5.966039e-02
    outer loop
      vertex 2.549993e+02 -3.500853e+01 -5.395041e+02
      vertex 2.499993e+02 -3.510399e+01 -5.411013e+02
      vertex 3.199993e+02 -3.510399e+01 -5.411013e+02
    endloop
  endfacet
  facet normal -1.582818e-16 -9.982187e-01 5.966039e-02
    outer loop
      vertex 2.949993e+02 -3.505029e+01 -5.402029e+02
      vertex 2.549993e+02 -3.500853e+01 -5.395041e+02
      vertex 3.199993e+02 -3.510399e+01 -5.411013e+02
    endloop
  endfacet
  facet normal 0.000000e+00 9.982187e-01 -5.966039e-02
    outer loop
      vertex 2.329943e+02 -3.154143e+01 -5.312755e+02
      vertex 2.329943e+02 -3.161288e+01 -5.324709e+02
      vertex 2.248725e+02 -3.161288e+01 -5.324709e+02
    endloop
  endfacet
  facet normal 0.000000e+00 -6.213241e-02 -9.980679e-01
    outer loop
      vertex 2.248725e+02 -3.460981e+01 -5.322843e+02
      vertex 2.248725e+02 -3.161288e+01 -5.324709e+02
      vertex 2.329943e+02 -3.161288e+01 -5.324709e+02
    endloop
  endfacet
  facet normal -1.449714e-15 9.982187e-01 -5.966039e-02
    outer loop
      vertex 2.337456e+02 -3.146380e+01 -5.299766e+02
      vertex 2.329943e+02 -3.154143e+01 -5.312755e+02
      vertex 2.248725e+02 -3.161288e+01 -5.324709e+02
    endloop
  endfacet
  facet normal 3.506016e-16 9.982187e-01 -5.966039e-02
    outer loop
      vertex 2.487869e+02 -3.032536e+01 -5.109286e+02
      vertex 2.337456e+02 -3.146380e+01 -5.299766e+02
      vertex 2.248725e+02 -3.161288e+01 -5.324709e+02
    endloop
  endfacet
  facet normal 6.580855e-15 9.982187e-01 -5.966039e-02
    outer loop
      vertex 2.487869e+02 -3.032536e+01 -5.109286e+02
      vertex 2.248725e+02 -3.161288e+01 -5.324709e+02
      vertex 2.244535e+02 -3.160177e+01 -5.322850e+02
    endloop
  endfacet
  facet normal -4.061771e-01 -5.677625e-02 -9.120288e-01
    outer loop
      vertex 2.244535e+02 -3.459777e+01 -5.320985e+02
      vertex 2.244535e+02 -3.160177e+01 -5.322850e+02
      vertex 2.248725e+02 -3.161288e+01 -5.324709e+02
    endloop
  endfacet
  facet normal -4.061771e-01 -5.677625e-02 -9.120288e-01
    outer loop
      vertex 2.244535e+02 -3.459777e+01 -5.320985e+02
      vertex 2.248725e+02 -3.161288e+01 -5.324709e+02
      vertex 2.248725e+02 -3.460981e+01 -5.322843e+02
    endloop
  endfacet
  facet normal 1.000000e+00 0.000000e+00 0.000000e+00
    outer loop
      vertex 2.329943e+02 -3.453244e+01 -5.310893e+02
      vertex 2.329943e+02 -3.161288e+01 -5.324709e+02
      vertex 2.329943e+02 -3.154143e+01 -5.312755e+02
    endloop
  endfacet
  facet normal 0.000000e+00 -6.213241e-02 -9.980679e-01
    outer loop
      vertex 2.329943e+02 -3.460981e+01 -5.322843e+02
      vertex 2.248725e+02 -3.460981e+01 -5.322843e+02
      vertex 2.329943e+02 -3.161288e+01 -5.324709e+02
    endloop
  endfacet
  facet normal 1.000000e+00 0.000000e+00 0.000000e+00
    outer loop
      vertex 2.329943e+02 -3.460981e+01 -5.322843e+02
      vertex 2.329943e+02 -3.161288e+01 -5.324709e+02
      vertex 2.329943e+02 -3.453244e+01 -5.310893e+02
    endloop
  endfacet
  facet normal 8.660252e-01 -3.106623e-02 -4.990343e-01
    outer loop
      vertex 2.329943e+02 -3.453244e+01 -5.310893e+02
      vertex 2.329943e+02 -3.154143e+01 -5.312755e+02
      vertex 2.337456e+02 -3.146380e+01 -5.299766e+02
    endloop
  endfacet
  facet normal -2.106547e-15 9.982187e-01 -5.966039e-02
    outer loop
      vertex 2.487869e+02 -3.032536e+01 -5.109286e+02
      vertex 2.352480e+02 -3.146380e+01 -5.299766e+02
      vertex 2.337456e+02 -3.146380e+01 -5.299766e+02
    endloop
  endfacet
  facet normal 8.076492e-10 -6.213241e-02 -9.980679e-01
    outer loop
      vertex 2.337456e+02 -3.444838e+01 -5.297908e+02
      vertex 2.337456e+02 -3.146380e+01 -5.299766e+02
      vertex 2.352480e+02 -3.146380e+01 -5.299766e+02
    endloop
  endfacet
  facet normal 8.660252e-01 -3.106623e-02 -4.990343e-01
    outer loop
      vertex 2.329943e+02 -3.453244e+01 -5.310893e+02
      vertex 2.337456e+02 -3.146380e+01 -5.299766e+02
      vertex 2.337456e+02 -3.444838e+01 -5.297908e+02
    endloop
  endfacet
  facet normal -2.112580e-15 9.982187e-01 -5.966039e-02
    outer loop
      vertex 2.487869e+02 -3.032536e+01 -5.109286e+02
      vertex 2.359993e+02 -3.154143e+01 -5.312755e+02
      vertex 2.352480e+02 -3.146380e+01 -5.299766e+02
    endloop
  endfacet
  facet normal -8.660252e-01 -3.106623e-02 -4.990343e-01
    outer loop
      vertex 2.352480e+02 -3.444838e+01 -5.297908e+02
      vertex 2.352480e+02 -3.146380e+01 -5.299766e+02
      vertex 2.359993e+02 -3.154143e+01 -5.312755e+02
    endloop
  endfacet
  facet normal 8.076708e-10 -6.213241e-02 -9.980679e-01
    outer loop
      vertex 2.337456e+02 -3.444838e+01 -5.297908e+02
      vertex 2.352480e+02 -3.146380e+01 -5.299766e+02
      vertex 2.352480e+02 -3.444838e+01 -5.297908e+02
    endloop
  endfacet
  facet normal 1.764816e-15 9.982187e-01 -5.966039e-02
    outer loop
      vertex 2.487869e+02 -3.032536e+01 -5.109286e+02
      vertex 2.359993e+02 -3.185137e+01 -5.364613e+02
      vertex 2.359993e+02 -3.154143e+01 -5.312755e+02
    endloop
  endfacet
  facet normal -1.000000e+00 0.000000e+00 0.000000e+00
    outer loop
      vertex 2.359993e+02 -3.219418e+01 -5.338399e+02
      vertex 2.359993e+02 -3.154143e+01 -5.312755e+02
      vertex 2.359993e+02 -3.185137e+01 -5.364613e+02
    endloop
  endfacet
  facet normal -8.660252e-01 -3.106623e-02 -4.990343e-01
    outer loop
      vertex 2.352480e+02 -3.444838e+01 -5.297908e+02
      vertex 2.359993e+02 -3.154143e+01 -5.312755e+02
      vertex 2.359993e+02 -3.453244e+01 -5.310893e+02
    endloop
  endfacet
  facet normal -1.000000e+00 0.000000e+00 0.000000e+00
    outer loop
      vertex 2.359993e+02 -3.263995e+01 -5.329378e+02
      vertex 2.359993e+02 -3.453244e+01 -5.310893e+02
      vertex 2.359993e+02 -3.154143e+01 -5.312755e+02
    endloop
  endfacet
  facet normal -1.000000e+00 0.000000e+00 0.000000e+00
    outer loop
      vertex 2.359993e+02 -3.263995e+01 -5.329378e+02
      vertex 2.359993e+02 -3.154143e+01 -5.312755e+02
      vertex 2.359993e+02 -3.219418e+01 -5.338399e+02
    endloop
  endfacet
  facet normal 0.000000e+00 9.982187e-01 -5.966039e-02
    outer loop
      vertex 2.499993e+02 -3.047534e+01 -5.134380e+02
      vertex 2.352480e+02 -3.192900e+01 -5.377602e+02
      vertex 2.359993e+02 -3.185137e+01 -5.364613e+02
    endloop
  endfacet
  facet normal -8.660252e-01 3.106623e-02 4.990343e-01
    outer loop
      vertex 2.359993e+02 -3.486806e+01 -5.362735e+02
      vertex 2.359993e+02 -3.185137e+01 -5.364613e+02
      vertex 2.352480e+02 -3.192900e+01 -5.377602e+02
    endloop
  endfacet
  facet normal 2.938940e-16 9.982187e-01 -5.966039e-02
    outer loop
      vertex 2.491058e+02 -3.040862e+01 -5.123216e+02
      vertex 2.499993e+02 -3.047534e+01 -5.134380e+02
      vertex 2.359993e+02 -3.185137e+01 -5.364613e+02
    endloop
  endfacet
  facet normal 2.408020e-15 9.982187e-01 -5.966039e-02
    outer loop
      vertex 2.487869e+02 -3.032536e+01 -5.109286e+02
      vertex 2.491058e+02 -3.040862e+01 -5.123216e+02
      vertex 2.359993e+02 -3.185137e+01 -5.364613e+02
    endloop
  endfacet
  facet normal -1.000000e+00 0.000000e+00 0.000000e+00
    outer loop
      vertex 2.359993e+02 -3.375670e+01 -5.346120e+02
      vertex 2.359993e+02 -3.185137e+01 -5.364613e+02
      vertex 2.359993e+02 -3.486806e+01 -5.362735e+02
    endloop
  endfacet
  facet normal -1.000000e+00 0.000000e+00 0.000000e+00
    outer loop
      vertex 2.359993e+02 -3.275255e+01 -5.346770e+02
      vertex 2.359993e+02 -3.219418e+01 -5.338399e+02
      vertex 2.359993e+02 -3.185137e+01 -5.364613e+02
    endloop
  endfacet
  facet normal -1.000000e+00 0.000000e+00 0.000000e+00
    outer loop
      vertex 2.359993e+02 -3.275255e+01 -5.346770e+02
      vertex 2.359993e+02 -3.185137e+01 -5.364613e+02
      vertex 2.359993e+02 -3.375670e+01 -5.346120e+02
    endloop
  endfacet
  facet normal 2.406171e-15 9.982187e-01 -5.966039e-02
    outer loop
      vertex 1.228870e+02 -3.235405e+01 -5.448720e+02
      vertex 2.337456e+02 -3.192900e+01 -5.377602e+02
      vertex 2.352480e+02 -3.192900e+01 -5.377602e+02
    endloop
  endfacet
  facet normal -8.077248e-10 6.213241e-02 9.980679e-01
    outer loop
      vertex 2.352480e+02 -3.495213e+01 -5.375720e+02
      vertex 2.352480e+02 -3.192900e+01 -5.377602e+02
      vertex 2.337456e+02 -3.192900e+01 -5.377602e+02
    endloop
  endfacet
  facet normal -9.601729e-17 9.982187e-01 -5.966039e-02
    outer loop
      vertex 2.499993e+02 -3.174552e+01 -5.346902e+02
      vertex 2.514638e+02 -3.195645e+01 -5.382194e+02
      vertex 2.352480e+02 -3.192900e+01 -5.377602e+02
    endloop
  endfacet
  facet normal -5.842366e-17 9.982187e-01 -5.966039e-02
    outer loop
      vertex 1.228870e+02 -3.235405e+01 -5.448720e+02
      vertex 2.352480e+02 -3.192900e+01 -5.377602e+02
      vertex 2.514638e+02 -3.195645e+01 -5.382194e+02
    endloop
  endfacet
  facet normal -1.018114e-16 9.982187e-01 -5.966039e-02
    outer loop
      vertex 2.499993e+02 -3.047534e+01 -5.134380e+02
      vertex 2.499993e+02 -3.174552e+01 -5.346902e+02
      vertex 2.352480e+02 -3.192900e+01 -5.377602e+02
    endloop
  endfacet
  facet normal -8.660252e-01 3.106623e-02 4.990343e-01
    outer loop
      vertex 2.359993e+02 -3.486806e+01 -5.362735e+02
      vertex 2.352480e+02 -3.192900e+01 -5.377602e+02
      vertex 2.352480e+02 -3.495213e+01 -5.375720e+02
    endloop
  endfacet
  facet normal -1.602971e-16 9.982187e-01 -5.966039e-02
    outer loop
      vertex 1.228870e+02 -3.235405e+01 -5.448720e+02
      vertex 2.329943e+02 -3.185137e+01 -5.364613e+02
      vertex 2.337456e+02 -3.192900e+01 -5.377602e+02
    endloop
  endfacet
  facet normal 8.660252e-01 3.106623e-02 4.990343e-01
    outer loop
      vertex 2.337456e+02 -3.495213e+01 -5.375720e+02
      vertex 2.337456e+02 -3.192900e+01 -5.377602e+02
      vertex 2.329943e+02 -3.185137e+01 -5.364613e+02
    endloop
  endfacet
  facet normal -8.077464e-10 6.213241e-02 9.980679e-01
    outer loop
      vertex 2.352480e+02 -3.495213e+01 -5.375720e+02
      vertex 2.337456e+02 -3.192900e+01 -5.377602e+02
      vertex 2.337456e+02 -3.495213e+01 -5.375720e+02
    endloop
  endfacet
  facet normal -1.010412e-16 9.982187e-01 -5.966039e-02
    outer loop
      vertex 1.228870e+02 -3.235405e+01 -5.448720e+02
      vertex 2.329943e+02 -3.177993e+01 -5.352659e+02
      vertex 2.329943e+02 -3.185137e+01 -5.364613e+02
    endloop
  endfacet
  facet normal 1.000000e+00 0.000000e+00 0.000000e+00
    outer loop
      vertex 2.329943e+02 -3.479070e+01 -5.350785e+02
      vertex 2.329943e+02 -3.185137e+01 -5.364613e+02
      vertex 2.329943e+02 -3.177993e+01 -5.352659e+02
    endloop
  endfacet
  facet normal 1.000000e+00 0.000000e+00 0.000000e+00
    outer loop
      vertex 2.329943e+02 -3.486806e+01 -5.362735e+02
      vertex 2.329943e+02 -3.185137e+01 -5.364613e+02
      vertex 2.329943e+02 -3.479070e+01 -5.350785e+02
    endloop
  endfacet
  facet normal 8.660252e-01 3.106623e-02 4.990343e-01
    outer loop
      vertex 2.337456e+02 -3.495213e+01 -5.375720e+02
      vertex 2.329943e+02 -3.185137e+01 -5.364613e+02
      vertex 2.329943e+02 -3.486806e+01 -5.362735e+02
    endloop
  endfacet
  facet normal 0.000000e+00 9.982187e-01 -5.966039e-02
    outer loop
      vertex 2.244535e+02 -3.179104e+01 -5.354518e+02
      vertex 2.248725e+02 -3.177993e+01 -5.352659e+02
      vertex 2.329943e+02 -3.177993e+01 -5.352659e+02
    endloop
  endfacet
  facet normal 0.000000e+00 6.213241e-02 9.980679e-01
    outer loop
      vertex 2.329943e+02 -3.479070e+01 -5.350785e+02
      vertex 2.329943e+02 -3.177993e+01 -5.352659e+02
      vertex 2.248725e+02 -3.177993e+01 -5.352659e+02
    endloop
  endfacet
  facet normal -2.915842e-15 9.982187e-01 -5.966039e-02
    outer loop
      vertex 2.239993e+02 -3.179484e+01 -5.355155e+02
      vertex 2.244535e+02 -3.179104e+01 -5.354518e+02
      vertex 2.329943e+02 -3.177993e+01 -5.352659e+02
    endloop
  endfacet
  facet normal 9.779316e-16 9.982187e-01 -5.966039e-02
    outer loop
      vertex 1.228870e+02 -3.235405e+01 -5.448720e+02
      vertex 2.239993e+02 -3.179484e+01 -5.355155e+02
      vertex 2.329943e+02 -3.177993e+01 -5.352659e+02
    endloop
  endfacet
  facet normal -4.061771e-01 5.677625e-02 9.120288e-01
    outer loop
      vertex 2.248725e+02 -3.479070e+01 -5.350785e+02
      vertex 2.248725e+02 -3.177993e+01 -5.352659e+02
      vertex 2.244535e+02 -3.179104e+01 -5.354518e+02
    endloop
  endfacet
  facet normal 0.000000e+00 6.213241e-02 9.980679e-01
    outer loop
      vertex 2.329943e+02 -3.479070e+01 -5.350785e+02
      vertex 2.248725e+02 -3.177993e+01 -5.352659e+02
      vertex 2.248725e+02 -3.479070e+01 -5.350785e+02
    endloop
  endfacet
  facet normal -1.390011e-01 6.152924e-02 9.883789e-01
    outer loop
      vertex 2.244535e+02 -3.480273e+01 -5.352643e+02
      vertex 2.244535e+02 -3.179104e+01 -5.354518e+02
      vertex 2.239993e+02 -3.179484e+01 -5.355155e+02
    endloop
  endfacet
  facet normal -4.061771e-01 5.677625e-02 9.120288e-01
    outer loop
      vertex 2.248725e+02 -3.479070e+01 -5.350785e+02
      vertex 2.244535e+02 -3.179104e+01 -5.354518e+02
      vertex 2.244535e+02 -3.480273e+01 -5.352643e+02
    endloop
  endfacet
  facet normal 0.000000e+00 9.982187e-01 -5.966039e-02
    outer loop
      vertex 1.228870e+02 -3.235405e+01 -5.448720e+02
      vertex 1.319993e+02 -3.179484e+01 -5.355155e+02
      vertex 2.239993e+02 -3.179484e+01 -5.355155e+02
    endloop
  endfacet
  facet normal 0.000000e+00 6.213241e-02 9.980679e-01
    outer loop
      vertex 2.239993e+02 -3.480685e+01 -5.353280e+02
      vertex 2.239993e+02 -3.179484e+01 -5.355155e+02
      vertex 1.319993e+02 -3.179484e+01 -5.355155e+02
    endloop
  endfacet
  facet normal -1.390011e-01 6.152924e-02 9.883789e-01
    outer loop
      vertex 2.244535e+02 -3.480273e+01 -5.352643e+02
      vertex 2.239993e+02 -3.179484e+01 -5.355155e+02
      vertex 2.239993e+02 -3.480685e+01 -5.353280e+02
    endloop
  endfacet
  facet normal -2.123659e-15 9.982187e-01 -5.966039e-02
    outer loop
      vertex 1.228870e+02 -3.235405e+01 -5.448720e+02
      vertex 1.305704e+02 -3.174562e+01 -5.346919e+02
      vertex 1.319993e+02 -3.179484e+01 -5.355155e+02
    endloop
  endfacet
  facet normal 4.999996e-01 5.380826e-02 8.643524e-01
    outer loop
      vertex 1.319993e+02 -3.480685e+01 -5.353280e+02
      vertex 1.319993e+02 -3.179484e+01 -5.355155e+02
      vertex 1.305704e+02 -3.174562e+01 -5.346919e+02
    endloop
  endfacet
  facet normal 0.000000e+00 6.213241e-02 9.980679e-01
    outer loop
      vertex 2.239993e+02 -3.480685e+01 -5.353280e+02
      vertex 1.319993e+02 -3.179484e+01 -5.355155e+02
      vertex 1.319993e+02 -3.480685e+01 -5.353280e+02
    endloop
  endfacet
  facet normal 4.693946e-15 9.982187e-01 -5.966039e-02
    outer loop
      vertex 1.228870e+02 -3.235405e+01 -5.448720e+02
      vertex 1.305704e+02 -3.164718e+01 -5.330449e+02
      vertex 1.305704e+02 -3.174562e+01 -5.346919e+02
    endloop
  endfacet
  facet normal 1.000000e+00 -5.019327e-11 -8.061311e-10
    outer loop
      vertex 1.305704e+02 -3.475355e+01 -5.345047e+02
      vertex 1.305704e+02 -3.174562e+01 -5.346919e+02
      vertex 1.305704e+02 -3.164718e+01 -5.330449e+02
    endloop
  endfacet
  facet normal 4.999996e-01 5.380826e-02 8.643524e-01
    outer loop
      vertex 1.319993e+02 -3.480685e+01 -5.353280e+02
      vertex 1.305704e+02 -3.174562e+01 -5.346919e+02
      vertex 1.305704e+02 -3.475355e+01 -5.345047e+02
    endloop
  endfacet
  facet normal 1.796564e-15 9.982187e-01 -5.966039e-02
    outer loop
      vertex 1.162117e+02 -3.032536e+01 -5.109286e+02
      vertex 1.319993e+02 -3.159796e+01 -5.322213e+02
      vertex 1.305704e+02 -3.164718e+01 -5.330449e+02
    endloop
  endfacet
  facet normal 4.999996e-01 -5.380826e-02 -8.643524e-01
    outer loop
      vertex 1.305704e+02 -3.464695e+01 -5.328581e+02
      vertex 1.305704e+02 -3.164718e+01 -5.330449e+02
      vertex 1.319993e+02 -3.159796e+01 -5.322213e+02
    endloop
  endfacet
  facet normal 3.633835e-17 9.982187e-01 -5.966039e-02
    outer loop
      vertex 1.179802e+02 -3.211307e+01 -5.408399e+02
      vertex 1.162117e+02 -3.032536e+01 -5.109286e+02
      vertex 1.305704e+02 -3.164718e+01 -5.330449e+02
    endloop
  endfacet
  facet normal 1.656161e-15 9.982187e-01 -5.966039e-02
    outer loop
      vertex 1.197092e+02 -3.228606e+01 -5.437343e+02
      vertex 1.179802e+02 -3.211307e+01 -5.408399e+02
      vertex 1.305704e+02 -3.164718e+01 -5.330449e+02
    endloop
  endfacet
  facet normal -2.069329e-15 9.982187e-01 -5.966039e-02
    outer loop
      vertex 1.228870e+02 -3.235405e+01 -5.448720e+02
      vertex 1.197092e+02 -3.228606e+01 -5.437343e+02
      vertex 1.305704e+02 -3.164718e+01 -5.330449e+02
    endloop
  endfacet
  facet normal 1.000000e+00 -5.018493e-11 -8.061488e-10
    outer loop
      vertex 1.305704e+02 -3.475355e+01 -5.345047e+02
      vertex 1.305704e+02 -3.164718e+01 -5.330449e+02
      vertex 1.305704e+02 -3.464695e+01 -5.328581e+02
    endloop
  endfacet
  facet normal 0.000000e+00 9.982187e-01 -5.966039e-02
    outer loop
      vertex 2.487869e+02 -3.032536e+01 -5.109286e+02
      vertex 2.239993e+02 -3.159796e+01 -5.322213e+02
      vertex 1.319993e+02 -3.159796e+01 -5.322213e+02
    endloop
  endfacet
  facet normal 0.000000e+00 -6.213241e-02 -9.980679e-01
    outer loop
      vertex 1.319993e+02 -3.459366e+01 -5.320348e+02
      vertex 1.319993e+02 -3.159796e+01 -5.322213e+02
      vertex 2.239993e+02 -3.159796e+01 -5.322213e+02
    endloop
  endfacet
  facet normal 0.000000e+00 9.982187e-01 -5.966039e-02
    outer loop
      vertex 1.162117e+02 -3.032536e+01 -5.109286e+02
      vertex 2.487869e+02 -3.032536e+01 -5.109286e+02
      vertex 1.319993e+02 -3.159796e+01 -5.322213e+02
    endloop
  endfacet
  facet normal 4.999996e-01 -5.380826e-02 -8.643524e-01
    outer loop
      vertex 1.305704e+02 -3.464695e+01 -5.328581e+02
      vertex 1.319993e+02 -3.159796e+01 -5.322213e+02
      vertex 1.319993e+02 -3.459366e+01 -5.320348e+02
    endloop
  endfacet
  facet normal -6.935888e-15 9.982187e-01 -5.966039e-02
    outer loop
      vertex 2.487869e+02 -3.032536e+01 -5.109286e+02
      vertex 2.244535e+02 -3.160177e+01 -5.322850e+02
      vertex 2.239993e+02 -3.159796e+01 -5.322213e+02
    endloop
  endfacet
  facet normal -1.390011e-01 -6.152924e-02 -9.883789e-01
    outer loop
      vertex 2.239993e+02 -3.459366e+01 -5.320348e+02
      vertex 2.239993e+02 -3.159796e+01 -5.322213e+02
      vertex 2.244535e+02 -3.160177e+01 -5.322850e+02
    endloop
  endfacet
  facet normal 0.000000e+00 -6.213241e-02 -9.980679e-01
    outer loop
      vertex 1.319993e+02 -3.459366e+01 -5.320348e+02
      vertex 2.239993e+02 -3.159796e+01 -5.322213e+02
      vertex 2.239993e+02 -3.459366e+01 -5.320348e+02
    endloop
  endfacet
  facet normal -1.390011e-01 -6.152924e-02 -9.883789e-01
    outer loop
      vertex 2.239993e+02 -3.459366e+01 -5.320348e+02
      vertex 2.244535e+02 -3.160177e+01 -5.322850e+02
      vertex 2.244535e+02 -3.459777e+01 -5.320985e+02
    endloop
  endfacet
  facet normal 5.013471e-17 9.982187e-01 -5.966039e-02
    outer loop
      vertex 1.228870e+02 -3.235405e+01 -5.448720e+02
      vertex 2.940828e+02 -3.207473e+01 -5.401985e+02
      vertex 2.949993e+02 -3.208558e+01 -5.403800e+02
    endloop
  endfacet
  facet normal 1.946737e-01 5.851897e-02 9.791209e-01
    outer loop
      vertex 2.949993e+02 -3.505029e+01 -5.402029e+02
      vertex 2.949993e+02 -3.208558e+01 -5.403800e+02
      vertex 2.940828e+02 -3.207473e+01 -5.401985e+02
    endloop
  endfacet
  facet normal -2.404719e-17 9.982187e-01 -5.966039e-02
    outer loop
      vertex 1.228870e+02 -3.235405e+01 -5.448720e+02
      vertex 2.933052e+02 -3.204382e+01 -5.396813e+02
      vertex 2.940828e+02 -3.207473e+01 -5.401985e+02
    endloop
  endfacet
  facet normal 5.544794e-01 4.964922e-02 8.307151e-01
    outer loop
      vertex 2.940828e+02 -3.503944e+01 -5.400213e+02
      vertex 2.940828e+02 -3.207473e+01 -5.401985e+02
      vertex 2.933052e+02 -3.204382e+01 -5.396813e+02
    endloop
  endfacet
  facet normal 1.946737e-01 5.851897e-02 9.791209e-01
    outer loop
      vertex 2.949993e+02 -3.505029e+01 -5.402029e+02
      vertex 2.940828e+02 -3.207473e+01 -5.401985e+02
      vertex 2.940828e+02 -3.503944e+01 -5.400213e+02
    endloop
  endfacet
  facet normal 0.000000e+00 9.982187e-01 -5.966039e-02
    outer loop
      vertex 1.228870e+02 -3.235405e+01 -5.448720e+02
      vertex 2.549993e+02 -3.204382e+01 -5.396813e+02
      vertex 2.933052e+02 -3.204382e+01 -5.396813e+02
    endloop
  endfacet
  facet normal 0.000000e+00 5.966039e-02 9.982187e-01
    outer loop
      vertex 2.933052e+02 -3.500853e+01 -5.395041e+02
      vertex 2.933052e+02 -3.204382e+01 -5.396813e+02
      vertex 2.549993e+02 -3.204382e+01 -5.396813e+02
    endloop
  endfacet
  facet normal 5.544794e-01 4.964922e-02 8.307151e-01
    outer loop
      vertex 2.940828e+02 -3.503944e+01 -5.400213e+02
      vertex 2.933052e+02 -3.204382e+01 -5.396813e+02
      vertex 2.933052e+02 -3.500853e+01 -5.395041e+02
    endloop
  endfacet
  facet normal 4.821161e-17 9.982187e-01 -5.966039e-02
    outer loop
      vertex 1.228870e+02 -3.235405e+01 -5.448720e+02
      vertex 2.514638e+02 -3.195645e+01 -5.382194e+02
      vertex 2.549993e+02 -3.204382e+01 -5.396813e+02
    endloop
  endfacet
  facet normal 3.826834e-01 5.511901e-02 9.222339e-01
    outer loop
      vertex 2.549993e+02 -3.500853e+01 -5.395041e+02
      vertex 2.549993e+02 -3.204382e+01 -5.396813e+02
      vertex 2.514638e+02 -3.195645e+01 -5.382194e+02
    endloop
  endfacet
  facet normal 0.000000e+00 5.966039e-02 9.982187e-01
    outer loop
      vertex 2.549993e+02 -3.500853e+01 -5.395041e+02
      vertex 2.933052e+02 -3.500853e+01 -5.395041e+02
      vertex 2.549993e+02 -3.204382e+01 -5.396813e+02
    endloop
  endfacet
  facet normal 9.238795e-01 2.283104e-02 3.820018e-01
    outer loop
      vertex 2.514638e+02 -3.492116e+01 -5.380422e+02
      vertex 2.514638e+02 -3.195645e+01 -5.382194e+02
      vertex 2.499993e+02 -3.174552e+01 -5.346902e+02
    endloop
  endfacet
  facet normal 3.826834e-01 5.511901e-02 9.222339e-01
    outer loop
      vertex 2.514638e+02 -3.492116e+01 -5.380422e+02
      vertex 2.549993e+02 -3.500853e+01 -5.395041e+02
      vertex 2.514638e+02 -3.195645e+01 -5.382194e+02
    endloop
  endfacet
  facet normal 1.000000e+00 0.000000e+00 0.000000e+00
    outer loop
      vertex 2.499993e+02 -3.219418e+01 -5.338399e+02
      vertex 2.499993e+02 -3.174552e+01 -5.346902e+02
      vertex 2.499993e+02 -3.047534e+01 -5.134380e+02
    endloop
  endfacet
  facet normal 1.000000e+00 0.000000e+00 0.000000e+00
    outer loop
      vertex 2.499993e+02 -3.233764e+01 -5.342962e+02
      vertex 2.499993e+02 -3.267544e+01 -5.346346e+02
      vertex 2.499993e+02 -3.174552e+01 -5.346902e+02
    endloop
  endfacet
  facet normal 9.998393e-01 1.069636e-03 1.789682e-02
    outer loop
      vertex 2.500025e+02 -3.325839e+01 -5.347794e+02
      vertex 2.499993e+02 -3.174552e+01 -5.346902e+02
      vertex 2.499993e+02 -3.267544e+01 -5.346346e+02
    endloop
  endfacet
  facet normal 1.000000e+00 0.000000e+00 0.000000e+00
    outer loop
      vertex 2.499993e+02 -3.219418e+01 -5.338399e+02
      vertex 2.499993e+02 -3.233764e+01 -5.342962e+02
      vertex 2.499993e+02 -3.174552e+01 -5.346902e+02
    endloop
  endfacet
  facet normal 9.080523e-01 -2.271921e-02 4.182402e-01
    outer loop
      vertex 2.514638e+02 -3.492116e+01 -5.380422e+02
      vertex 2.499993e+02 -3.174552e+01 -5.346902e+02
      vertex 2.500025e+02 -3.325839e+01 -5.347794e+02
    endloop
  endfacet
  facet normal 4.074763e-01 8.711265e-01 2.740468e-01
    outer loop
      vertex 2.499993e+02 -3.092128e+01 -5.120205e+02
      vertex 2.499993e+02 -3.047534e+01 -5.134380e+02
      vertex 2.491058e+02 -3.040862e+01 -5.123216e+02
    endloop
  endfacet
  facet normal 1.000000e+00 0.000000e+00 0.000000e+00
    outer loop
      vertex 2.499993e+02 -3.471023e+01 -5.345130e+02
      vertex 2.499993e+02 -3.047534e+01 -5.134380e+02
      vertex 2.499993e+02 -3.335521e+01 -5.129051e+02
    endloop
  endfacet
  facet normal 1.000000e+00 0.000000e+00 0.000000e+00
    outer loop
      vertex 2.499993e+02 -3.092128e+01 -5.120205e+02
      vertex 2.499993e+02 -3.335521e+01 -5.129051e+02
      vertex 2.499993e+02 -3.047534e+01 -5.134380e+02
    endloop
  endfacet
  facet normal 1.000000e+00 0.000000e+00 0.000000e+00
    outer loop
      vertex 2.499993e+02 -3.420248e+01 -5.337099e+02
      vertex 2.499993e+02 -3.047534e+01 -5.134380e+02
      vertex 2.499993e+02 -3.471023e+01 -5.345130e+02
    endloop
  endfacet
  facet normal 1.000000e+00 0.000000e+00 0.000000e+00
    outer loop
      vertex 2.499993e+02 -3.263995e+01 -5.329378e+02
      vertex 2.499993e+02 -3.219418e+01 -5.338399e+02
      vertex 2.499993e+02 -3.047534e+01 -5.134380e+02
    endloop
  endfacet
  facet normal 1.000000e+00 0.000000e+00 0.000000e+00
    outer loop
      vertex 2.499993e+02 -3.364410e+01 -5.328728e+02
      vertex 2.499993e+02 -3.263995e+01 -5.329378e+02
      vertex 2.499993e+02 -3.047534e+01 -5.134380e+02
    endloop
  endfacet
  facet normal 1.000000e+00 0.000000e+00 0.000000e+00
    outer loop
      vertex 2.499993e+02 -3.420248e+01 -5.337099e+02
      vertex 2.499993e+02 -3.364410e+01 -5.328728e+02
      vertex 2.499993e+02 -3.047534e+01 -5.134380e+02
    endloop
  endfacet
  facet normal 4.820241e-01 8.742284e-01 5.811595e-02
    outer loop
      vertex 2.499993e+02 -3.092128e+01 -5.120205e+02
      vertex 2.491058e+02 -3.040862e+01 -5.123216e+02
      vertex 2.487869e+02 -3.032536e+01 -5.109286e+02
    endloop
  endfacet
  facet normal 0.000000e+00 5.966039e-02 9.982187e-01
    outer loop
      vertex 2.494797e+02 -3.072465e+01 -5.109047e+02
      vertex 2.487869e+02 -3.032536e+01 -5.109286e+02
      vertex 1.162117e+02 -3.032536e+01 -5.109286e+02
    endloop
  endfacet
  facet normal 4.957623e-01 8.649070e-01 7.845766e-02
    outer loop
      vertex 2.499993e+02 -3.092128e+01 -5.120205e+02
      vertex 2.487869e+02 -3.032536e+01 -5.109286e+02
      vertex 2.494797e+02 -3.072465e+01 -5.109047e+02
    endloop
  endfacet
  facet normal 4.984558e-15 9.982187e-01 -5.966039e-02
    outer loop
      vertex 1.159119e+02 -3.129717e+01 -5.271885e+02
      vertex 1.159020e+02 -3.040745e+01 -5.123020e+02
      vertex 1.162117e+02 -3.032536e+01 -5.109286e+02
    endloop
  endfacet
  facet normal -4.968621e-01 8.657310e-01 6.031475e-02
    outer loop
      vertex 1.155189e+02 -3.072465e+01 -5.109047e+02
      vertex 1.162117e+02 -3.032536e+01 -5.109286e+02
      vertex 1.159020e+02 -3.040745e+01 -5.123020e+02
    endloop
  endfacet
  facet normal 9.401483e-17 9.982187e-01 -5.966039e-02
    outer loop
      vertex 1.179802e+02 -3.211307e+01 -5.408399e+02
      vertex 1.159119e+02 -3.129717e+01 -5.271885e+02
      vertex 1.162117e+02 -3.032536e+01 -5.109286e+02
    endloop
  endfacet
  facet normal 0.000000e+00 5.966039e-02 9.982187e-01
    outer loop
      vertex 2.494797e+02 -3.072465e+01 -5.109047e+02
      vertex 1.162117e+02 -3.032536e+01 -5.109286e+02
      vertex 1.155189e+02 -3.072465e+01 -5.109047e+02
    endloop
  endfacet
  facet normal 8.213056e-16 9.982187e-01 -5.966039e-02
    outer loop
      vertex 1.159119e+02 -3.129717e+01 -5.271885e+02
      vertex 1.150326e+02 -3.047369e+01 -5.134104e+02
      vertex 1.159020e+02 -3.040745e+01 -5.123020e+02
    endloop
  endfacet
  facet normal -4.087366e-01 8.722659e-01 2.684894e-01
    outer loop
      vertex 1.150101e+02 -3.092449e+01 -5.119800e+02
      vertex 1.159020e+02 -3.040745e+01 -5.123020e+02
      vertex 1.150326e+02 -3.047369e+01 -5.134104e+02
    endloop
  endfacet
  facet normal -4.968621e-01 8.657310e-01 6.031475e-02
    outer loop
      vertex 1.150012e+02 -3.102303e+01 -5.108869e+02
      vertex 1.155189e+02 -3.072465e+01 -5.109047e+02
      vertex 1.159020e+02 -3.040745e+01 -5.123020e+02
    endloop
  endfacet
  facet normal -4.797567e-01 8.741998e-01 7.488786e-02
    outer loop
      vertex 1.150012e+02 -3.102303e+01 -5.108869e+02
      vertex 1.159020e+02 -3.040745e+01 -5.123020e+02
      vertex 1.150101e+02 -3.092449e+01 -5.119800e+02
    endloop
  endfacet
  facet normal -9.979741e-01 -1.528934e-03 -6.360364e-02
    outer loop
      vertex 1.158952e+02 -3.425826e+01 -5.268541e+02
      vertex 1.150326e+02 -3.047369e+01 -5.134104e+02
      vertex 1.159119e+02 -3.129717e+01 -5.271885e+02
    endloop
  endfacet
  facet normal -9.980604e-01 -8.340350e-03 -6.169168e-02
    outer loop
      vertex 1.150264e+02 -3.335627e+01 -5.129214e+02
      vertex 1.150326e+02 -3.047369e+01 -5.134104e+02
      vertex 1.158952e+02 -3.425826e+01 -5.268541e+02
    endloop
  endfacet
  facet normal -9.998741e-01 -5.623535e-04 -1.585862e-02
    outer loop
      vertex 1.150101e+02 -3.092449e+01 -5.119800e+02
      vertex 1.150326e+02 -3.047369e+01 -5.134104e+02
      vertex 1.150264e+02 -3.335627e+01 -5.129214e+02
    endloop
  endfacet
  facet normal -9.887542e-01 -1.124171e-02 -1.491268e-01
    outer loop
      vertex 1.158952e+02 -3.425826e+01 -5.268541e+02
      vertex 1.159119e+02 -3.129717e+01 -5.271885e+02
      vertex 1.179802e+02 -3.211307e+01 -5.408399e+02
    endloop
  endfacet
  facet normal -8.561166e-01 4.970139e-02 -5.143872e-01
    outer loop
      vertex 1.180870e+02 -3.379033e+01 -5.411798e+02
      vertex 1.179802e+02 -3.211307e+01 -5.408399e+02
      vertex 1.197092e+02 -3.228606e+01 -5.437343e+02
    endloop
  endfacet
  facet normal -9.888307e-01 -8.891977e-03 -1.487778e-01
    outer loop
      vertex 1.158952e+02 -3.425826e+01 -5.268541e+02
      vertex 1.179802e+02 -3.211307e+01 -5.408399e+02
      vertex 1.179802e+02 -3.515193e+01 -5.406582e+02
    endloop
  endfacet
  facet normal -9.716786e-01 -1.409812e-02 -2.358853e-01
    outer loop
      vertex 1.180870e+02 -3.379033e+01 -5.411798e+02
      vertex 1.179802e+02 -3.515193e+01 -5.406582e+02
      vertex 1.179802e+02 -3.211307e+01 -5.408399e+02
    endloop
  endfacet
  facet normal -3.372851e-01 -1.298563e-02 -9.413130e-01
    outer loop
      vertex 1.198870e+02 -3.394545e+01 -5.437751e+02
      vertex 1.197092e+02 -3.228606e+01 -5.437343e+02
      vertex 1.228870e+02 -3.235405e+01 -5.448720e+02
    endloop
  endfacet
  facet normal -8.215262e-01 -7.411689e-02 -5.653330e-01
    outer loop
      vertex 1.198870e+02 -3.394545e+01 -5.437751e+02
      vertex 1.180870e+02 -3.379033e+01 -5.411798e+02
      vertex 1.197092e+02 -3.228606e+01 -5.437343e+02
    endloop
  endfacet
  facet normal -3.162269e-01 -5.659883e-02 -9.469937e-01
    outer loop
      vertex 1.198870e+02 -3.394545e+01 -5.437751e+02
      vertex 1.228870e+02 -3.235405e+01 -5.448720e+02
      vertex 1.228870e+02 -3.400511e+01 -5.447734e+02
    endloop
  endfacet
  facet normal 1.159640e-14 9.982187e-01 -5.966039e-02
    outer loop
      vertex 1.155189e+02 -3.072465e+01 -5.109047e+02
      vertex 1.179959e+02 -2.884309e+01 -4.794231e+02
      vertex 1.180699e+02 -2.883109e+01 -4.792224e+02
    endloop
  endfacet
  facet normal -9.383585e-01 2.032517e-02 3.450656e-01
    outer loop
      vertex 1.180725e+02 -3.001324e+01 -4.791458e+02
      vertex 1.180699e+02 -2.883109e+01 -4.792224e+02
      vertex 1.179959e+02 -2.884309e+01 -4.794231e+02
    endloop
  endfacet
  facet normal 0.000000e+00 9.982187e-01 -5.966039e-02
    outer loop
      vertex 2.494797e+02 -2.883109e+01 -4.792224e+02
      vertex 1.155189e+02 -3.072465e+01 -5.109047e+02
      vertex 1.180699e+02 -2.883109e+01 -4.792224e+02
    endloop
  endfacet
  facet normal 0.000000e+00 6.460405e-02 9.979110e-01
    outer loop
      vertex 1.180725e+02 -3.001324e+01 -4.791458e+02
      vertex 2.494797e+02 -2.883109e+01 -4.792224e+02
      vertex 1.180699e+02 -2.883109e+01 -4.792224e+02
    endloop
  endfacet
  facet normal -7.549295e-14 9.982187e-01 -5.966039e-02
    outer loop
      vertex 1.155189e+02 -3.072465e+01 -5.109047e+02
      vertex 1.179437e+02 -2.885549e+01 -4.796306e+02
      vertex 1.179959e+02 -2.884309e+01 -4.794231e+02
    endloop
  endfacet
  facet normal -9.697565e-01 -5.676601e-03 2.440084e-01
    outer loop
      vertex 1.180725e+02 -3.001324e+01 -4.791458e+02
      vertex 1.179959e+02 -2.884309e+01 -4.794231e+02
      vertex 1.179437e+02 -2.885549e+01 -4.796306e+02
    endloop
  endfacet
  facet normal 1.458250e-15 9.982187e-01 -5.966039e-02
    outer loop
      vertex 1.155189e+02 -3.072465e+01 -5.109047e+02
      vertex 1.164849e+02 -2.938056e+01 -4.884158e+02
      vertex 1.179437e+02 -2.885549e+01 -4.796306e+02
    endloop
  endfacet
  facet normal -9.865397e-01 9.755796e-03 1.632309e-01
    outer loop
      vertex 1.179437e+02 -3.079271e+01 -4.795148e+02
      vertex 1.179437e+02 -2.885549e+01 -4.796306e+02
      vertex 1.164849e+02 -2.938056e+01 -4.884158e+02
    endloop
  endfacet
  facet normal -9.550563e-01 1.768480e-02 2.958964e-01
    outer loop
      vertex 1.179437e+02 -3.079271e+01 -4.795148e+02
      vertex 1.180725e+02 -3.001324e+01 -4.791458e+02
      vertex 1.179437e+02 -2.885549e+01 -4.796306e+02
    endloop
  endfacet
  facet normal 2.422977e-15 9.982187e-01 -5.966039e-02
    outer loop
      vertex 1.155189e+02 -3.072465e+01 -5.109047e+02
      vertex 1.155189e+02 -2.990967e+01 -4.972687e+02
      vertex 1.164849e+02 -2.938056e+01 -4.884158e+02
    endloop
  endfacet
  facet normal -9.937924e-01 3.207956e-02 1.065252e-01
    outer loop
      vertex 1.161534e+02 -3.152735e+01 -4.908624e+02
      vertex 1.164849e+02 -2.938056e+01 -4.884158e+02
      vertex 1.155189e+02 -2.990967e+01 -4.972687e+02
    endloop
  endfacet
  facet normal -9.871498e-01 -2.703450e-02 1.574940e-01
    outer loop
      vertex 1.179437e+02 -3.079271e+01 -4.795148e+02
      vertex 1.164849e+02 -2.938056e+01 -4.884158e+02
      vertex 1.161534e+02 -3.152735e+01 -4.908624e+02
    endloop
  endfacet
  facet normal -5.000000e-01 8.644828e-01 -5.166741e-02
    outer loop
      vertex 1.151140e+02 -3.055033e+01 -5.040696e+02
      vertex 1.155189e+02 -2.990967e+01 -4.972687e+02
      vertex 1.155189e+02 -3.072465e+01 -5.109047e+02
    endloop
  endfacet
  facet normal -9.951654e-01 -4.537702e-02 8.710230e-02
    outer loop
      vertex 1.161534e+02 -3.152735e+01 -4.908624e+02
      vertex 1.155189e+02 -2.990967e+01 -4.972687e+02
      vertex 1.151852e+02 -3.226844e+01 -5.023098e+02
    endloop
  endfacet
  facet normal -9.981726e-01 1.776665e-02 5.775599e-02
    outer loop
      vertex 1.151140e+02 -3.055033e+01 -5.040696e+02
      vertex 1.151852e+02 -3.226844e+01 -5.023098e+02
      vertex 1.155189e+02 -2.990967e+01 -4.972687e+02
    endloop
  endfacet
  facet normal 0.000000e+00 9.982187e-01 -5.966039e-02
    outer loop
      vertex 2.494797e+02 -2.883109e+01 -4.792224e+02
      vertex 2.494797e+02 -3.072465e+01 -5.109047e+02
      vertex 1.155189e+02 -3.072465e+01 -5.109047e+02
    endloop
  endfacet
  facet normal -5.000000e-01 8.644828e-01 -5.166741e-02
    outer loop
      vertex 1.151140e+02 -3.055033e+01 -5.040696e+02
      vertex 1.155189e+02 -3.072465e+01 -5.109047e+02
      vertex 1.150012e+02 -3.102303e+01 -5.108869e+02
    endloop
  endfacet
  facet normal 5.000000e-01 8.644828e-01 -5.166741e-02
    outer loop
      vertex 2.499993e+02 -3.102412e+01 -5.108868e+02
      vertex 2.494797e+02 -3.072465e+01 -5.109047e+02
      vertex 2.494797e+02 -2.883109e+01 -4.792224e+02
    endloop
  endfacet
  facet normal 4.957623e-01 8.649070e-01 7.845766e-02
    outer loop
      vertex 2.499993e+02 -3.092128e+01 -5.120205e+02
      vertex 2.494797e+02 -3.072465e+01 -5.109047e+02
      vertex 2.499993e+02 -3.102412e+01 -5.108868e+02
    endloop
  endfacet
  facet normal 0.000000e+00 6.460405e-02 9.979110e-01
    outer loop
      vertex 2.496529e+02 -3.001324e+01 -4.791458e+02
      vertex 2.494797e+02 -2.883109e+01 -4.792224e+02
      vertex 1.180725e+02 -3.001324e+01 -4.791458e+02
    endloop
  endfacet
  facet normal 6.173274e-14 6.460405e-02 9.979110e-01
    outer loop
      vertex 2.499993e+02 -3.021282e+01 -4.791329e+02
      vertex 2.499993e+02 -2.913047e+01 -4.792030e+02
      vertex 2.494797e+02 -2.883109e+01 -4.792224e+02
    endloop
  endfacet
  facet normal 5.000000e-01 8.644828e-01 -5.166741e-02
    outer loop
      vertex 2.499993e+02 -3.102412e+01 -5.108868e+02
      vertex 2.494797e+02 -2.883109e+01 -4.792224e+02
      vertex 2.499993e+02 -2.913047e+01 -4.792030e+02
    endloop
  endfacet
  facet normal 1.227156e-13 6.460405e-02 9.979110e-01
    outer loop
      vertex 2.496529e+02 -3.001324e+01 -4.791458e+02
      vertex 2.499993e+02 -3.021282e+01 -4.791329e+02
      vertex 2.494797e+02 -2.883109e+01 -4.792224e+02
    endloop
  endfacet
  facet normal 0.000000e+00 9.979110e-01 -6.460405e-02
    outer loop
      vertex 2.496529e+02 -2.993707e+01 -4.779692e+02
      vertex 2.496529e+02 -3.001324e+01 -4.791458e+02
      vertex 1.180725e+02 -3.001324e+01 -4.791458e+02
    endloop
  endfacet
  facet normal 0.000000e+00 9.979110e-01 -6.460405e-02
    outer loop
      vertex 1.199069e+02 -2.993551e+01 -4.779451e+02
      vertex 2.494993e+02 -2.993551e+01 -4.779451e+02
      vertex 1.180725e+02 -3.001324e+01 -4.791458e+02
    endloop
  endfacet
  facet normal 4.438816e-16 9.979110e-01 -6.460405e-02
    outer loop
      vertex 2.495770e+02 -2.993590e+01 -4.779512e+02
      vertex 1.180725e+02 -3.001324e+01 -4.791458e+02
      vertex 2.494993e+02 -2.993551e+01 -4.779451e+02
    endloop
  endfacet
  facet normal -3.035936e-15 9.979110e-01 -6.460405e-02
    outer loop
      vertex 1.188100e+02 -2.995668e+01 -4.782721e+02
      vertex 1.199069e+02 -2.993551e+01 -4.779451e+02
      vertex 1.180725e+02 -3.001324e+01 -4.791458e+02
    endloop
  endfacet
  facet normal -7.632670e-01 1.054505e-01 6.374195e-01
    outer loop
      vertex 1.186349e+02 -3.071768e+01 -4.783558e+02
      vertex 1.188100e+02 -2.995668e+01 -4.782721e+02
      vertex 1.180725e+02 -3.001324e+01 -4.791458e+02
    endloop
  endfacet
  facet normal 6.443602e-16 9.979110e-01 -6.460405e-02
    outer loop
      vertex 2.495770e+02 -2.993590e+01 -4.779512e+02
      vertex 2.496529e+02 -2.993707e+01 -4.779692e+02
      vertex 1.180725e+02 -3.001324e+01 -4.791458e+02
    endloop
  endfacet
  facet normal -8.513680e-01 -1.028721e-01 5.143830e-01
    outer loop
      vertex 1.186349e+02 -3.071768e+01 -4.783558e+02
      vertex 1.180725e+02 -3.001324e+01 -4.791458e+02
      vertex 1.179437e+02 -3.079271e+01 -4.795148e+02
    endloop
  endfacet
  facet normal 1.000000e+00 0.000000e+00 0.000000e+00
    outer loop
      vertex 2.499993e+02 -3.110081e+01 -4.842740e+02
      vertex 2.499993e+02 -2.913047e+01 -4.792030e+02
      vertex 2.499993e+02 -3.021282e+01 -4.791329e+02
    endloop
  endfacet
  facet normal 1.000000e+00 0.000000e+00 0.000000e+00
    outer loop
      vertex 2.499993e+02 -3.268545e+01 -5.107875e+02
      vertex 2.499993e+02 -2.913047e+01 -4.792030e+02
      vertex 2.499993e+02 -3.110081e+01 -4.842740e+02
    endloop
  endfacet
  facet normal 1.000000e+00 0.000000e+00 0.000000e+00
    outer loop
      vertex 2.499993e+02 -3.102412e+01 -5.108868e+02
      vertex 2.499993e+02 -2.913047e+01 -4.792030e+02
      vertex 2.499993e+02 -3.268545e+01 -5.107875e+02
    endloop
  endfacet
  facet normal 5.000000e-01 8.642163e-01 -5.594875e-02
    outer loop
      vertex 2.496529e+02 -2.993707e+01 -4.779692e+02
      vertex 2.499993e+02 -3.021282e+01 -4.791329e+02
      vertex 2.496529e+02 -3.001324e+01 -4.791458e+02
    endloop
  endfacet
  facet normal 5.000000e-01 8.642163e-01 -5.594875e-02
    outer loop
      vertex 2.499993e+02 -3.016746e+01 -4.784321e+02
      vertex 2.499993e+02 -3.021282e+01 -4.791329e+02
      vertex 2.496529e+02 -2.993707e+01 -4.779692e+02
    endloop
  endfacet
  facet normal 1.000000e+00 0.000000e+00 0.000000e+00
    outer loop
      vertex 2.499993e+02 -3.016746e+01 -4.784321e+02
      vertex 2.499993e+02 -3.110081e+01 -4.842740e+02
      vertex 2.499993e+02 -3.021282e+01 -4.791329e+02
    endloop
  endfacet
  facet normal 0.000000e+00 5.966039e-02 9.982187e-01
    outer loop
      vertex 2.494993e+02 -3.068817e+01 -4.779001e+02
      vertex 2.494993e+02 -2.993551e+01 -4.779451e+02
      vertex 1.199069e+02 -2.993551e+01 -4.779451e+02
    endloop
  endfacet
  facet normal 7.699248e-02 -9.599959e-02 9.923992e-01
    outer loop
      vertex 2.498529e+02 -3.069763e+01 -4.780462e+02
      vertex 2.495770e+02 -2.993590e+01 -4.779512e+02
      vertex 2.494993e+02 -2.993551e+01 -4.779451e+02
    endloop
  endfacet
  facet normal 3.826724e-01 5.511928e-02 9.222384e-01
    outer loop
      vertex 2.498529e+02 -3.069763e+01 -4.780462e+02
      vertex 2.494993e+02 -2.993551e+01 -4.779451e+02
      vertex 2.494993e+02 -3.068817e+01 -4.779001e+02
    endloop
  endfacet
  facet normal -2.862017e-01 5.716476e-02 9.564626e-01
    outer loop
      vertex 1.199069e+02 -3.068817e+01 -4.779001e+02
      vertex 1.199069e+02 -2.993551e+01 -4.779451e+02
      vertex 1.188100e+02 -2.995668e+01 -4.782721e+02
    endloop
  endfacet
  facet normal 0.000000e+00 5.966039e-02 9.982187e-01
    outer loop
      vertex 1.199069e+02 -3.068817e+01 -4.779001e+02
      vertex 2.494993e+02 -3.068817e+01 -4.779001e+02
      vertex 1.199069e+02 -2.993551e+01 -4.779451e+02
    endloop
  endfacet
  facet normal -3.366210e-01 -2.616321e-02 9.412767e-01
    outer loop
      vertex 1.186349e+02 -3.071768e+01 -4.783558e+02
      vertex 1.199069e+02 -3.068817e+01 -4.779001e+02
      vertex 1.188100e+02 -2.995668e+01 -4.782721e+02
    endloop
  endfacet
  facet normal 2.308474e-01 -3.777615e-02 9.722564e-01
    outer loop
      vertex 2.498529e+02 -3.069763e+01 -4.780462e+02
      vertex 2.496529e+02 -2.993707e+01 -4.779692e+02
      vertex 2.495770e+02 -2.993590e+01 -4.779512e+02
    endloop
  endfacet
  facet normal 6.096661e-01 8.042556e-02 7.885677e-01
    outer loop
      vertex 2.499114e+02 -3.009853e+01 -4.781526e+02
      vertex 2.496529e+02 -2.993707e+01 -4.779692e+02
      vertex 2.498529e+02 -3.069763e+01 -4.780462e+02
    endloop
  endfacet
  facet normal 5.000000e-01 8.642163e-01 -5.594875e-02
    outer loop
      vertex 2.499114e+02 -3.009853e+01 -4.781526e+02
      vertex 2.499993e+02 -3.016746e+01 -4.784321e+02
      vertex 2.496529e+02 -2.993707e+01 -4.779692e+02
    endloop
  endfacet
  facet normal 0.000000e+00 -9.979110e-01 6.460405e-02
    outer loop
      vertex 2.497757e+02 -3.278454e+01 -5.102818e+02
      vertex 2.494993e+02 -3.068817e+01 -4.779001e+02
      vertex 1.199069e+02 -3.068817e+01 -4.779001e+02
    endloop
  endfacet
  facet normal -8.788774e-16 -9.979110e-01 6.460405e-02
    outer loop
      vertex 2.498529e+02 -3.069763e+01 -4.780462e+02
      vertex 2.494993e+02 -3.068817e+01 -4.779001e+02
      vertex 2.497757e+02 -3.278454e+01 -5.102818e+02
    endloop
  endfacet
  facet normal 6.843418e-16 -9.979110e-01 6.460405e-02
    outer loop
      vertex 1.186349e+02 -3.071768e+01 -4.783558e+02
      vertex 2.497757e+02 -3.278454e+01 -5.102818e+02
      vertex 1.199069e+02 -3.068817e+01 -4.779001e+02
    endloop
  endfacet
  facet normal -1.062381e-14 -9.979110e-01 6.460405e-02
    outer loop
      vertex 2.498529e+02 -3.069763e+01 -4.780462e+02
      vertex 2.499993e+02 -3.110081e+01 -4.842740e+02
      vertex 2.499993e+02 -3.072048e+01 -4.783991e+02
    endloop
  endfacet
  facet normal 1.000000e+00 0.000000e+00 0.000000e+00
    outer loop
      vertex 2.499993e+02 -3.016746e+01 -4.784321e+02
      vertex 2.499993e+02 -3.072048e+01 -4.783991e+02
      vertex 2.499993e+02 -3.110081e+01 -4.842740e+02
    endloop
  endfacet
  facet normal 9.228741e-01 -2.196160e-02 3.844750e-01
    outer loop
      vertex 2.499114e+02 -3.009853e+01 -4.781526e+02
      vertex 2.498529e+02 -3.069763e+01 -4.780462e+02
      vertex 2.499993e+02 -3.072048e+01 -4.783991e+02
    endloop
  endfacet
  facet normal 9.550582e-01 1.768443e-02 2.958903e-01
    outer loop
      vertex 2.499114e+02 -3.009853e+01 -4.781526e+02
      vertex 2.499993e+02 -3.072048e+01 -4.783991e+02
      vertex 2.499993e+02 -3.016746e+01 -4.784321e+02
    endloop
  endfacet
  facet normal 1.022444e-15 -9.979110e-01 6.460405e-02
    outer loop
      vertex 2.498529e+02 -3.069763e+01 -4.780462e+02
      vertex 2.497757e+02 -3.278454e+01 -5.102818e+02
      vertex 2.499993e+02 -3.110081e+01 -4.842740e+02
    endloop
  endfacet
  facet normal 5.000000e-01 -8.644828e-01 5.166741e-02
    outer loop
      vertex 2.499993e+02 -3.268545e+01 -5.107875e+02
      vertex 2.499993e+02 -3.110081e+01 -4.842740e+02
      vertex 2.497757e+02 -3.278454e+01 -5.102818e+02
    endloop
  endfacet
  facet normal 0.000000e+00 -9.979110e-01 6.460405e-02
    outer loop
      vertex 1.161534e+02 -3.152735e+01 -4.908624e+02
      vertex 1.152538e+02 -3.278454e+01 -5.102818e+02
      vertex 2.497757e+02 -3.278454e+01 -5.102818e+02
    endloop
  endfacet
  facet normal 0.000000e+00 6.460405e-02 9.979110e-01
    outer loop
      vertex 2.490829e+02 -3.318371e+01 -5.102560e+02
      vertex 2.497757e+02 -3.278454e+01 -5.102818e+02
      vertex 1.152538e+02 -3.278454e+01 -5.102818e+02
    endloop
  endfacet
  facet normal -3.885726e-17 -9.979110e-01 6.460405e-02
    outer loop
      vertex 1.179437e+02 -3.079271e+01 -4.795148e+02
      vertex 1.161534e+02 -3.152735e+01 -4.908624e+02
      vertex 2.497757e+02 -3.278454e+01 -5.102818e+02
    endloop
  endfacet
  facet normal 3.335330e-16 -9.979110e-01 6.460405e-02
    outer loop
      vertex 1.186349e+02 -3.071768e+01 -4.783558e+02
      vertex 1.179437e+02 -3.079271e+01 -4.795148e+02
      vertex 2.497757e+02 -3.278454e+01 -5.102818e+02
    endloop
  endfacet
  facet normal 5.000000e-01 -8.644828e-01 5.166741e-02
    outer loop
      vertex 2.490786e+02 -3.321607e+01 -5.107558e+02
      vertex 2.497757e+02 -3.278454e+01 -5.102818e+02
      vertex 2.490829e+02 -3.318371e+01 -5.102560e+02
    endloop
  endfacet
  facet normal 5.000000e-01 -8.644828e-01 5.166741e-02
    outer loop
      vertex 2.499993e+02 -3.268545e+01 -5.107875e+02
      vertex 2.497757e+02 -3.278454e+01 -5.102818e+02
      vertex 2.490786e+02 -3.321607e+01 -5.107558e+02
    endloop
  endfacet
  facet normal -5.212043e-15 -9.979110e-01 6.460405e-02
    outer loop
      vertex 1.161534e+02 -3.152735e+01 -4.908624e+02
      vertex 1.151852e+02 -3.226844e+01 -5.023098e+02
      vertex 1.152538e+02 -3.278454e+01 -5.102818e+02
    endloop
  endfacet
  facet normal -5.000000e-01 -8.644828e-01 5.166741e-02
    outer loop
      vertex 1.150369e+02 -3.243609e+01 -5.065505e+02
      vertex 1.152538e+02 -3.278454e+01 -5.102818e+02
      vertex 1.151852e+02 -3.226844e+01 -5.023098e+02
    endloop
  endfacet
  facet normal 0.000000e+00 6.460405e-02 9.979110e-01
    outer loop
      vertex 1.159466e+02 -3.318371e+01 -5.102560e+02
      vertex 2.490829e+02 -3.318371e+01 -5.102560e+02
      vertex 1.152538e+02 -3.278454e+01 -5.102818e+02
    endloop
  endfacet
  facet normal -5.000000e-01 -8.644828e-01 5.166741e-02
    outer loop
      vertex 1.150012e+02 -3.266873e+01 -5.107885e+02
      vertex 1.159466e+02 -3.318371e+01 -5.102560e+02
      vertex 1.152538e+02 -3.278454e+01 -5.102818e+02
    endloop
  endfacet
  facet normal -5.000000e-01 -8.644828e-01 5.166741e-02
    outer loop
      vertex 1.150012e+02 -3.266873e+01 -5.107885e+02
      vertex 1.152538e+02 -3.278454e+01 -5.102818e+02
      vertex 1.150369e+02 -3.243609e+01 -5.065505e+02
    endloop
  endfacet
  facet normal -9.993666e-01 -5.412387e-03 3.517370e-02
    outer loop
      vertex 1.151140e+02 -3.055033e+01 -5.040696e+02
      vertex 1.150369e+02 -3.243609e+01 -5.065505e+02
      vertex 1.151852e+02 -3.226844e+01 -5.023098e+02
    endloop
  endfacet
  facet normal 0.000000e+00 -9.979110e-01 6.460405e-02
    outer loop
      vertex 2.490786e+02 -3.321607e+01 -5.107558e+02
      vertex 2.490829e+02 -3.318371e+01 -5.102560e+02
      vertex 1.159466e+02 -3.318371e+01 -5.102560e+02
    endloop
  endfacet
  facet normal 2.090400e-14 -9.979110e-01 6.460405e-02
    outer loop
      vertex 2.239993e+02 -3.459366e+01 -5.320348e+02
      vertex 2.244535e+02 -3.459777e+01 -5.320985e+02
      vertex 1.159466e+02 -3.318371e+01 -5.102560e+02
    endloop
  endfacet
  facet normal 2.703420e-16 -9.979110e-01 6.460405e-02
    outer loop
      vertex 2.329943e+02 -3.460981e+01 -5.322843e+02
      vertex 1.159466e+02 -3.318371e+01 -5.102560e+02
      vertex 2.244535e+02 -3.459777e+01 -5.320985e+02
    endloop
  endfacet
  facet normal 0.000000e+00 -9.979110e-01 6.460405e-02
    outer loop
      vertex 1.319993e+02 -3.459366e+01 -5.320348e+02
      vertex 2.239993e+02 -3.459366e+01 -5.320348e+02
      vertex 1.159466e+02 -3.318371e+01 -5.102560e+02
    endloop
  endfacet
  facet normal -1.179458e-15 -9.979110e-01 6.460405e-02
    outer loop
      vertex 1.305704e+02 -3.464695e+01 -5.328581e+02
      vertex 1.319993e+02 -3.459366e+01 -5.320348e+02
      vertex 1.159466e+02 -3.318371e+01 -5.102560e+02
    endloop
  endfacet
  facet normal -3.128773e-16 -9.979110e-01 6.460405e-02
    outer loop
      vertex 1.305704e+02 -3.475355e+01 -5.345047e+02
      vertex 1.305704e+02 -3.464695e+01 -5.328581e+02
      vertex 1.159466e+02 -3.318371e+01 -5.102560e+02
    endloop
  endfacet
  facet normal -8.883104e-17 -9.979110e-01 6.460405e-02
    outer loop
      vertex 1.180870e+02 -3.518031e+01 -5.410967e+02
      vertex 1.305704e+02 -3.475355e+01 -5.345047e+02
      vertex 1.159466e+02 -3.318371e+01 -5.102560e+02
    endloop
  endfacet
  facet normal 1.661840e-15 -9.979110e-01 6.460405e-02
    outer loop
      vertex 2.337456e+02 -3.444838e+01 -5.297908e+02
      vertex 2.352480e+02 -3.444838e+01 -5.297908e+02
      vertex 1.159466e+02 -3.318371e+01 -5.102560e+02
    endloop
  endfacet
  facet normal 7.629952e-18 -9.979110e-01 6.460405e-02
    outer loop
      vertex 2.490786e+02 -3.321607e+01 -5.107558e+02
      vertex 1.159466e+02 -3.318371e+01 -5.102560e+02
      vertex 2.352480e+02 -3.444838e+01 -5.297908e+02
    endloop
  endfacet
  facet normal -1.301968e-15 -9.979110e-01 6.460405e-02
    outer loop
      vertex 2.329943e+02 -3.453244e+01 -5.310893e+02
      vertex 2.337456e+02 -3.444838e+01 -5.297908e+02
      vertex 1.159466e+02 -3.318371e+01 -5.102560e+02
    endloop
  endfacet
  facet normal 6.162402e-16 -9.979110e-01 6.460405e-02
    outer loop
      vertex 2.329943e+02 -3.460981e+01 -5.322843e+02
      vertex 2.329943e+02 -3.453244e+01 -5.310893e+02
      vertex 1.159466e+02 -3.318371e+01 -5.102560e+02
    endloop
  endfacet
  facet normal 1.141748e-14 -9.979110e-01 6.460405e-02
    outer loop
      vertex 1.180286e+02 -3.516620e+01 -5.408787e+02
      vertex 1.180870e+02 -3.518031e+01 -5.410967e+02
      vertex 1.159466e+02 -3.318371e+01 -5.102560e+02
    endloop
  endfacet
  facet normal 7.945274e-15 -9.979110e-01 6.460405e-02
    outer loop
      vertex 1.179802e+02 -3.515193e+01 -5.406582e+02
      vertex 1.180286e+02 -3.516620e+01 -5.408787e+02
      vertex 1.159466e+02 -3.318371e+01 -5.102560e+02
    endloop
  endfacet
  facet normal 5.565726e-14 -9.979110e-01 6.460405e-02
    outer loop
      vertex 1.159509e+02 -3.321607e+01 -5.107558e+02
      vertex 1.179802e+02 -3.515193e+01 -5.406582e+02
      vertex 1.159466e+02 -3.318371e+01 -5.102560e+02
    endloop
  endfacet
  facet normal -5.000000e-01 -8.644828e-01 5.166741e-02
    outer loop
      vertex 1.150012e+02 -3.266873e+01 -5.107885e+02
      vertex 1.159509e+02 -3.321607e+01 -5.107558e+02
      vertex 1.159466e+02 -3.318371e+01 -5.102560e+02
    endloop
  endfacet
  facet normal 0.000000e+00 -9.979110e-01 6.460405e-02
    outer loop
      vertex 2.329943e+02 -3.460981e+01 -5.322843e+02
      vertex 2.244535e+02 -3.459777e+01 -5.320985e+02
      vertex 2.248725e+02 -3.460981e+01 -5.322843e+02
    endloop
  endfacet
  facet normal 5.174788e-16 -9.979110e-01 6.460405e-02
    outer loop
      vertex 1.180870e+02 -3.518031e+01 -5.410967e+02
      vertex 1.319993e+02 -3.480685e+01 -5.353280e+02
      vertex 1.305704e+02 -3.475355e+01 -5.345047e+02
    endloop
  endfacet
  facet normal 0.000000e+00 -9.979110e-01 6.460405e-02
    outer loop
      vertex 2.337456e+02 -3.495213e+01 -5.375720e+02
      vertex 2.239993e+02 -3.480685e+01 -5.353280e+02
      vertex 1.319993e+02 -3.480685e+01 -5.353280e+02
    endloop
  endfacet
  facet normal 0.000000e+00 -9.979110e-01 6.460405e-02
    outer loop
      vertex 2.499993e+02 -3.518031e+01 -5.410967e+02
      vertex 2.337456e+02 -3.495213e+01 -5.375720e+02
      vertex 1.319993e+02 -3.480685e+01 -5.353280e+02
    endloop
  endfacet
  facet normal 0.000000e+00 -9.979110e-01 6.460405e-02
    outer loop
      vertex 1.180870e+02 -3.518031e+01 -5.410967e+02
      vertex 2.499993e+02 -3.518031e+01 -5.410967e+02
      vertex 1.319993e+02 -3.480685e+01 -5.353280e+02
    endloop
  endfacet
  facet normal -4.595667e-15 -9.979110e-01 6.460405e-02
    outer loop
      vertex 2.337456e+02 -3.495213e+01 -5.375720e+02
      vertex 2.244535e+02 -3.480273e+01 -5.352643e+02
      vertex 2.239993e+02 -3.480685e+01 -5.353280e+02
    endloop
  endfacet
  facet normal -9.459050e-16 -9.979110e-01 6.460405e-02
    outer loop
      vertex 2.337456e+02 -3.495213e+01 -5.375720e+02
      vertex 2.248725e+02 -3.479070e+01 -5.350785e+02
      vertex 2.244535e+02 -3.480273e+01 -5.352643e+02
    endloop
  endfacet
  facet normal 0.000000e+00 -9.979110e-01 6.460405e-02
    outer loop
      vertex 2.329943e+02 -3.486806e+01 -5.362735e+02
      vertex 2.329943e+02 -3.479070e+01 -5.350785e+02
      vertex 2.248725e+02 -3.479070e+01 -5.350785e+02
    endloop
  endfacet
  facet normal 2.842013e-16 -9.979110e-01 6.460405e-02
    outer loop
      vertex 2.337456e+02 -3.495213e+01 -5.375720e+02
      vertex 2.329943e+02 -3.486806e+01 -5.362735e+02
      vertex 2.248725e+02 -3.479070e+01 -5.350785e+02
    endloop
  endfacet
  facet normal -3.242611e-15 -9.979110e-01 6.460405e-02
    outer loop
      vertex 2.499993e+02 -3.518031e+01 -5.410967e+02
      vertex 2.352480e+02 -3.495213e+01 -5.375720e+02
      vertex 2.337456e+02 -3.495213e+01 -5.375720e+02
    endloop
  endfacet
  facet normal 8.537074e-16 -9.979110e-01 6.460405e-02
    outer loop
      vertex 2.499993e+02 -3.518031e+01 -5.410967e+02
      vertex 2.359993e+02 -3.486806e+01 -5.362735e+02
      vertex 2.352480e+02 -3.495213e+01 -5.375720e+02
    endloop
  endfacet
  facet normal 4.579484e-16 -9.979110e-01 6.460405e-02
    outer loop
      vertex 2.499993e+02 -3.518031e+01 -5.410967e+02
      vertex 2.359993e+02 -3.453244e+01 -5.310893e+02
      vertex 2.359993e+02 -3.486806e+01 -5.362735e+02
    endloop
  endfacet
  facet normal -1.000000e+00 0.000000e+00 0.000000e+00
    outer loop
      vertex 2.359993e+02 -3.420248e+01 -5.337099e+02
      vertex 2.359993e+02 -3.486806e+01 -5.362735e+02
      vertex 2.359993e+02 -3.453244e+01 -5.310893e+02
    endloop
  endfacet
  facet normal -1.000000e+00 0.000000e+00 0.000000e+00
    outer loop
      vertex 2.359993e+02 -3.375670e+01 -5.346120e+02
      vertex 2.359993e+02 -3.486806e+01 -5.362735e+02
      vertex 2.359993e+02 -3.420248e+01 -5.337099e+02
    endloop
  endfacet
  facet normal 5.055459e-15 -9.979110e-01 6.460405e-02
    outer loop
      vertex 2.490786e+02 -3.321607e+01 -5.107558e+02
      vertex 2.352480e+02 -3.444838e+01 -5.297908e+02
      vertex 2.359993e+02 -3.453244e+01 -5.310893e+02
    endloop
  endfacet
  facet normal -3.583187e-16 -9.979110e-01 6.460405e-02
    outer loop
      vertex 2.490786e+02 -3.321607e+01 -5.107558e+02
      vertex 2.359993e+02 -3.453244e+01 -5.310893e+02
      vertex 2.499993e+02 -3.518031e+01 -5.410967e+02
    endloop
  endfacet
  facet normal -1.000000e+00 0.000000e+00 0.000000e+00
    outer loop
      vertex 2.359993e+02 -3.364410e+01 -5.328728e+02
      vertex 2.359993e+02 -3.453244e+01 -5.310893e+02
      vertex 2.359993e+02 -3.263995e+01 -5.329378e+02
    endloop
  endfacet
  facet normal -1.000000e+00 0.000000e+00 0.000000e+00
    outer loop
      vertex 2.359993e+02 -3.420248e+01 -5.337099e+02
      vertex 2.359993e+02 -3.453244e+01 -5.310893e+02
      vertex 2.359993e+02 -3.364410e+01 -5.328728e+02
    endloop
  endfacet
  facet normal 0.000000e+00 -5.966039e-02 -9.982187e-01
    outer loop
      vertex 2.499993e+02 -3.510399e+01 -5.411013e+02
      vertex 2.499993e+02 -3.518031e+01 -5.410967e+02
      vertex 1.180870e+02 -3.518031e+01 -5.410967e+02
    endloop
  endfacet
  facet normal -1.918044e-14 -9.979110e-01 6.460405e-02
    outer loop
      vertex 2.493136e+02 -3.329187e+01 -5.119267e+02
      vertex 2.490786e+02 -3.321607e+01 -5.107558e+02
      vertex 2.499993e+02 -3.518031e+01 -5.410967e+02
    endloop
  endfacet
  facet normal -5.846233e-15 -9.979110e-01 6.460405e-02
    outer loop
      vertex 2.499993e+02 -3.335521e+01 -5.129051e+02
      vertex 2.493136e+02 -3.329187e+01 -5.119267e+02
      vertex 2.499993e+02 -3.518031e+01 -5.410967e+02
    endloop
  endfacet
  facet normal 1.000000e+00 0.000000e+00 0.000000e+00
    outer loop
      vertex 2.499993e+02 -3.471023e+01 -5.345130e+02
      vertex 2.499993e+02 -3.335521e+01 -5.129051e+02
      vertex 2.499993e+02 -3.518031e+01 -5.410967e+02
    endloop
  endfacet
  facet normal 1.000000e+00 0.000000e+00 0.000000e+00
    outer loop
      vertex 2.499993e+02 -3.471023e+01 -5.345130e+02
      vertex 2.499993e+02 -3.518031e+01 -5.410967e+02
      vertex 2.499993e+02 -3.510399e+01 -5.411013e+02
    endloop
  endfacet
  facet normal -9.660865e-01 -1.540543e-02 -2.577588e-01
    outer loop
      vertex 1.180870e+02 -3.379033e+01 -5.411798e+02
      vertex 1.180870e+02 -3.518031e+01 -5.410967e+02
      vertex 1.180286e+02 -3.516620e+01 -5.408787e+02
    endloop
  endfacet
  facet normal -9.767399e-01 -5.455640e-03 -2.143581e-01
    outer loop
      vertex 1.180870e+02 -3.379033e+01 -5.411798e+02
      vertex 1.180286e+02 -3.516620e+01 -5.408787e+02
      vertex 1.179802e+02 -3.515193e+01 -5.406582e+02
    endloop
  endfacet
  facet normal -4.027105e-15 -9.979110e-01 6.460405e-02
    outer loop
      vertex 1.159509e+02 -3.321607e+01 -5.107558e+02
      vertex 1.158952e+02 -3.425826e+01 -5.268541e+02
      vertex 1.179802e+02 -3.515193e+01 -5.406582e+02
    endloop
  endfacet
  facet normal 4.590535e-15 -9.979110e-01 6.460405e-02
    outer loop
      vertex 1.157150e+02 -3.329240e+01 -5.119349e+02
      vertex 1.150264e+02 -3.335627e+01 -5.129214e+02
      vertex 1.158952e+02 -3.425826e+01 -5.268541e+02
    endloop
  endfacet
  facet normal 2.374821e-16 -9.979110e-01 6.460405e-02
    outer loop
      vertex 1.159509e+02 -3.321607e+01 -5.107558e+02
      vertex 1.157150e+02 -3.329240e+01 -5.119349e+02
      vertex 1.158952e+02 -3.425826e+01 -5.268541e+02
    endloop
  endfacet
  facet normal -4.211793e-01 -8.374820e-01 3.481837e-01
    outer loop
      vertex 1.150087e+02 -3.285593e+01 -5.117394e+02
      vertex 1.150264e+02 -3.335627e+01 -5.129214e+02
      vertex 1.157150e+02 -3.329240e+01 -5.119349e+02
    endloop
  endfacet
  facet normal -9.998940e-01 -1.081336e-03 -1.451842e-02
    outer loop
      vertex 1.150101e+02 -3.092449e+01 -5.119800e+02
      vertex 1.150264e+02 -3.335627e+01 -5.129214e+02
      vertex 1.150087e+02 -3.285593e+01 -5.117394e+02
    endloop
  endfacet
  facet normal -4.884346e-01 -8.590215e-01 1.533417e-01
    outer loop
      vertex 1.150087e+02 -3.285593e+01 -5.117394e+02
      vertex 1.157150e+02 -3.329240e+01 -5.119349e+02
      vertex 1.159509e+02 -3.321607e+01 -5.107558e+02
    endloop
  endfacet
  facet normal -4.968139e-01 -8.522498e-01 1.638481e-01
    outer loop
      vertex 1.150087e+02 -3.285593e+01 -5.117394e+02
      vertex 1.159509e+02 -3.321607e+01 -5.107558e+02
      vertex 1.150012e+02 -3.266873e+01 -5.107885e+02
    endloop
  endfacet
  facet normal 4.972945e-01 -8.536070e-01 1.550910e-01
    outer loop
      vertex 2.499993e+02 -3.268545e+01 -5.107875e+02
      vertex 2.490786e+02 -3.321607e+01 -5.107558e+02
      vertex 2.493136e+02 -3.329187e+01 -5.119267e+02
    endloop
  endfacet
  facet normal 4.239880e-01 -8.348169e-01 3.511622e-01
    outer loop
      vertex 2.499993e+02 -3.288191e+01 -5.117800e+02
      vertex 2.493136e+02 -3.329187e+01 -5.119267e+02
      vertex 2.499993e+02 -3.335521e+01 -5.129051e+02
    endloop
  endfacet
  facet normal 4.785177e-01 -8.613614e-01 1.705207e-01
    outer loop
      vertex 2.499993e+02 -3.268545e+01 -5.107875e+02
      vertex 2.493136e+02 -3.329187e+01 -5.119267e+02
      vertex 2.499993e+02 -3.288191e+01 -5.117800e+02
    endloop
  endfacet
  facet normal 1.000000e+00 0.000000e+00 0.000000e+00
    outer loop
      vertex 2.499993e+02 -3.092128e+01 -5.120205e+02
      vertex 2.499993e+02 -3.288191e+01 -5.117800e+02
      vertex 2.499993e+02 -3.335521e+01 -5.129051e+02
    endloop
  endfacet
  facet normal -7.228023e-16 -9.982187e-01 5.966039e-02
    outer loop
      vertex 2.514638e+02 -3.492116e+01 -5.380422e+02
      vertex 2.499993e+02 -3.510399e+01 -5.411013e+02
      vertex 2.549993e+02 -3.500853e+01 -5.395041e+02
    endloop
  endfacet
  facet normal -1.481756e-15 -9.982187e-01 5.966039e-02
    outer loop
      vertex 2.514638e+02 -3.492116e+01 -5.380422e+02
      vertex 2.499993e+02 -3.471023e+01 -5.345130e+02
      vertex 2.499993e+02 -3.510399e+01 -5.411013e+02
    endloop
  endfacet
  facet normal -3.423178e-16 -9.982187e-01 5.966039e-02
    outer loop
      vertex 1.198870e+02 -3.394545e+01 -5.437751e+02
      vertex 1.228870e+02 -3.400511e+01 -5.447734e+02
      vertex 1.180870e+02 -3.379033e+01 -5.411798e+02
    endloop
  endfacet
  facet normal 0.000000e+00 -9.982187e-01 5.966039e-02
    outer loop
      vertex 1.239993e+02 -3.400511e+01 -5.447734e+02
      vertex 1.180870e+02 -3.379033e+01 -5.411798e+02
      vertex 1.228870e+02 -3.400511e+01 -5.447734e+02
    endloop
  endfacet
  facet normal 9.595775e-16 -9.982187e-01 5.966039e-02
    outer loop
      vertex 1.239993e+02 -3.400511e+01 -5.447734e+02
      vertex 1.239993e+02 -3.394819e+01 -5.438211e+02
      vertex 1.180870e+02 -3.379033e+01 -5.411798e+02
    endloop
  endfacet
  facet normal -1.000000e+00 0.000000e+00 0.000000e+00
    outer loop
      vertex 1.239993e+02 -3.541289e+01 -5.446892e+02
      vertex 1.239993e+02 -3.394819e+01 -5.438211e+02
      vertex 1.239993e+02 -3.400511e+01 -5.447734e+02
    endloop
  endfacet
  facet normal -1.000000e+00 0.000000e+00 0.000000e+00
    outer loop
      vertex 1.239993e+02 -3.541289e+01 -5.446892e+02
      vertex 1.239993e+02 -3.535126e+01 -5.437372e+02
      vertex 1.239993e+02 -3.394819e+01 -5.438211e+02
    endloop
  endfacet
  facet normal 0.000000e+00 -9.982187e-01 5.966039e-02
    outer loop
      vertex 2.940828e+02 -3.503944e+01 -5.400213e+02
      vertex 2.933052e+02 -3.500853e+01 -5.395041e+02
      vertex 2.549993e+02 -3.500853e+01 -5.395041e+02
    endloop
  endfacet
  facet normal 4.144316e-17 -9.982187e-01 5.966039e-02
    outer loop
      vertex 2.949993e+02 -3.505029e+01 -5.402029e+02
      vertex 2.940828e+02 -3.503944e+01 -5.400213e+02
      vertex 2.549993e+02 -3.500853e+01 -5.395041e+02
    endloop
  endfacet
  facet normal 1.000000e+00 0.000000e+00 0.000000e+00
    outer loop
      vertex 2.499993e+02 -3.411703e+01 -5.341854e+02
      vertex 2.499993e+02 -3.471023e+01 -5.345130e+02
      vertex 2.499993e+02 -3.381989e+01 -5.345662e+02
    endloop
  endfacet
  facet normal 9.238795e-01 2.283104e-02 3.820018e-01
    outer loop
      vertex 2.514638e+02 -3.492116e+01 -5.380422e+02
      vertex 2.499993e+02 -3.381989e+01 -5.345662e+02
      vertex 2.499993e+02 -3.471023e+01 -5.345130e+02
    endloop
  endfacet
  facet normal 1.607973e-02 7.883051e-01 6.150745e-01
    outer loop
      vertex 2.359993e+02 -3.420248e+01 -5.337099e+02
      vertex 2.499993e+02 -3.411703e+01 -5.341854e+02
      vertex 2.499993e+02 -3.381989e+01 -5.345662e+02
    endloop
  endfacet
  facet normal 9.278367e-01 1.277104e-01 3.504412e-01
    outer loop
      vertex 2.514638e+02 -3.492116e+01 -5.380422e+02
      vertex 2.500025e+02 -3.325839e+01 -5.347794e+02
      vertex 2.499993e+02 -3.381989e+01 -5.345662e+02
    endloop
  endfacet
  facet normal -1.455789e-03 3.548848e-01 9.349089e-01
    outer loop
      vertex 2.359993e+02 -3.375670e+01 -5.346120e+02
      vertex 2.499993e+02 -3.381989e+01 -5.345662e+02
      vertex 2.500025e+02 -3.325839e+01 -5.347794e+02
    endloop
  endfacet
  facet normal 2.597697e-03 8.965153e-01 4.430052e-01
    outer loop
      vertex 2.359993e+02 -3.375670e+01 -5.346120e+02
      vertex 2.359993e+02 -3.420248e+01 -5.337099e+02
      vertex 2.499993e+02 -3.381989e+01 -5.345662e+02
    endloop
  endfacet
  facet normal 1.000000e+00 0.000000e+00 0.000000e+00
    outer loop
      vertex 2.499993e+02 -3.411703e+01 -5.341854e+02
      vertex 2.499993e+02 -3.420248e+01 -5.337099e+02
      vertex 2.499993e+02 -3.471023e+01 -5.345130e+02
    endloop
  endfacet
  facet normal 1.000000e+00 0.000000e+00 0.000000e+00
    outer loop
      vertex 2.499993e+02 -3.102412e+01 -5.108868e+02
      vertex 2.499993e+02 -3.268545e+01 -5.107875e+02
      vertex 2.499993e+02 -3.288191e+01 -5.117800e+02
    endloop
  endfacet
  facet normal 1.000000e+00 0.000000e+00 0.000000e+00
    outer loop
      vertex 2.499993e+02 -3.092128e+01 -5.120205e+02
      vertex 2.499993e+02 -3.102412e+01 -5.108868e+02
      vertex 2.499993e+02 -3.288191e+01 -5.117800e+02
    endloop
  endfacet
  facet normal 1.759067e-03 -7.077739e-01 7.064369e-01
    outer loop
      vertex 2.359993e+02 -3.275255e+01 -5.346770e+02
      vertex 2.499993e+02 -3.267544e+01 -5.346346e+02
      vertex 2.499993e+02 -3.233764e+01 -5.342962e+02
    endloop
  endfacet
  facet normal -1.611672e-03 -2.409793e-01 9.705289e-01
    outer loop
      vertex 2.359993e+02 -3.275255e+01 -5.346770e+02
      vertex 2.500025e+02 -3.325839e+01 -5.347794e+02
      vertex 2.499993e+02 -3.267544e+01 -5.346346e+02
    endloop
  endfacet
  facet normal 2.010906e-02 -9.537663e-01 2.998756e-01
    outer loop
      vertex 2.359993e+02 -3.275255e+01 -5.346770e+02
      vertex 2.499993e+02 -3.233764e+01 -5.342962e+02
      vertex 2.499993e+02 -3.219418e+01 -5.338399e+02
    endloop
  endfacet
  facet normal 0.000000e+00 -8.965183e-01 -4.430067e-01
    outer loop
      vertex 2.359993e+02 -3.219418e+01 -5.338399e+02
      vertex 2.499993e+02 -3.219418e+01 -5.338399e+02
      vertex 2.499993e+02 -3.263995e+01 -5.329378e+02
    endloop
  endfacet
  facet normal 0.000000e+00 -8.319142e-01 5.549042e-01
    outer loop
      vertex 2.359993e+02 -3.275255e+01 -5.346770e+02
      vertex 2.499993e+02 -3.219418e+01 -5.338399e+02
      vertex 2.359993e+02 -3.219418e+01 -5.338399e+02
    endloop
  endfacet
  facet normal 0.000000e+00 -6.460405e-02 -9.979110e-01
    outer loop
      vertex 2.359993e+02 -3.263995e+01 -5.329378e+02
      vertex 2.499993e+02 -3.263995e+01 -5.329378e+02
      vertex 2.499993e+02 -3.364410e+01 -5.328728e+02
    endloop
  endfacet
  facet normal 0.000000e+00 -8.965183e-01 -4.430067e-01
    outer loop
      vertex 2.359993e+02 -3.263995e+01 -5.329378e+02
      vertex 2.359993e+02 -3.219418e+01 -5.338399e+02
      vertex 2.499993e+02 -3.263995e+01 -5.329378e+02
    endloop
  endfacet
  facet normal -4.222219e-16 8.319142e-01 -5.549042e-01
    outer loop
      vertex 2.359993e+02 -3.364410e+01 -5.328728e+02
      vertex 2.499993e+02 -3.364410e+01 -5.328728e+02
      vertex 2.499993e+02 -3.420248e+01 -5.337099e+02
    endloop
  endfacet
  facet normal 3.278853e-17 -6.460405e-02 -9.979110e-01
    outer loop
      vertex 2.359993e+02 -3.364410e+01 -5.328728e+02
      vertex 2.359993e+02 -3.263995e+01 -5.329378e+02
      vertex 2.499993e+02 -3.364410e+01 -5.328728e+02
    endloop
  endfacet
  facet normal 0.000000e+00 9.842348e-01 1.768669e-01
    outer loop
      vertex 2.359993e+02 -3.420248e+01 -5.337099e+02
      vertex 2.499993e+02 -3.420248e+01 -5.337099e+02
      vertex 2.499993e+02 -3.411703e+01 -5.341854e+02
    endloop
  endfacet
  facet normal 0.000000e+00 8.319142e-01 -5.549042e-01
    outer loop
      vertex 2.359993e+02 -3.420248e+01 -5.337099e+02
      vertex 2.359993e+02 -3.364410e+01 -5.328728e+02
      vertex 2.499993e+02 -3.420248e+01 -5.337099e+02
    endloop
  endfacet
  facet normal -9.999646e-01 5.020160e-04 8.399574e-03
    outer loop
      vertex 1.150012e+02 -3.102303e+01 -5.108869e+02
      vertex 1.150012e+02 -3.266873e+01 -5.107885e+02
      vertex 1.150369e+02 -3.243609e+01 -5.065505e+02
    endloop
  endfacet
  facet normal -9.996651e-01 2.102757e-02 1.508548e-02
    outer loop
      vertex 1.151140e+02 -3.055033e+01 -5.040696e+02
      vertex 1.150012e+02 -3.102303e+01 -5.108869e+02
      vertex 1.150369e+02 -3.243609e+01 -5.065505e+02
    endloop
  endfacet
  facet normal -9.999689e-01 -2.542537e-04 -7.879192e-03
    outer loop
      vertex 1.150101e+02 -3.092449e+01 -5.119800e+02
      vertex 1.150087e+02 -3.285593e+01 -5.117394e+02
      vertex 1.150012e+02 -3.266873e+01 -5.107885e+02
    endloop
  endfacet
  facet normal -9.999660e-01 -4.916882e-04 -8.226771e-03
    outer loop
      vertex 1.150012e+02 -3.102303e+01 -5.108869e+02
      vertex 1.150101e+02 -3.092449e+01 -5.119800e+02
      vertex 1.150012e+02 -3.266873e+01 -5.107885e+02
    endloop
  endfacet
  facet normal 9.626519e-03 6.460106e-02 9.978647e-01
    outer loop
      vertex 2.359993e+02 -3.275255e+01 -5.346770e+02
      vertex 2.359993e+02 -3.375670e+01 -5.346120e+02
      vertex 2.500025e+02 -3.325839e+01 -5.347794e+02
    endloop
  endfacet
endsolid 051_100022597-19
