solid 053_100022597-12
  facet normal 1.000000e+00 0.000000e+00 0.000000e+00
    outer loop
      vertex 3.199990e+02 -3.918830e+01 -5.411713e+02
      vertex 3.199990e+02 -3.747570e+01 -5.403885e+02
      vertex 3.199990e+02 -4.043850e+01 -5.401819e+02
    endloop
  endfacet
  facet normal 0.000000e+00 6.956846e-02 9.975772e-01
    outer loop
      vertex 2.949990e+02 -3.747570e+01 -5.403885e+02
      vertex 3.199990e+02 -4.043850e+01 -5.401819e+02
      vertex 3.199990e+02 -3.747570e+01 -5.403885e+02
    endloop
  endfacet
  facet normal 1.000000e+00 0.000000e+00 0.000000e+00
    outer loop
      vertex 3.199990e+02 -4.050111e+01 -5.410797e+02
      vertex 3.199990e+02 -3.918830e+01 -5.411713e+02
      vertex 3.199990e+02 -4.043850e+01 -5.401819e+02
    endloop
  endfacet
  facet normal 0.000000e+00 -9.975772e-01 6.956846e-02
    outer loop
      vertex 2.949990e+02 -4.043850e+01 -5.401819e+02
      vertex 3.199990e+02 -4.050111e+01 -5.410797e+02
      vertex 3.199990e+02 -4.043850e+01 -5.401819e+02
    endloop
  endfacet
  facet normal 0.000000e+00 6.956846e-02 9.975772e-01
    outer loop
      vertex 2.949990e+02 -4.043850e+01 -5.401819e+02
      vertex 3.199990e+02 -4.043850e+01 -5.401819e+02
      vertex 2.949990e+02 -3.747570e+01 -5.403885e+02
    endloop
  endfacet
  facet normal 1.000000e+00 0.000000e+00 0.000000e+00
    outer loop
      vertex 3.199990e+02 -3.937238e+01 -5.438109e+02
      vertex 3.199990e+02 -3.778875e+01 -5.448776e+02
      vertex 3.199990e+02 -3.747570e+01 -5.403885e+02
    endloop
  endfacet
  facet normal 0.000000e+00 9.975772e-01 -6.956846e-02
    outer loop
      vertex 1.226938e+02 -3.778875e+01 -5.448776e+02
      vertex 3.199990e+02 -3.747570e+01 -5.403885e+02
      vertex 3.199990e+02 -3.778875e+01 -5.448776e+02
    endloop
  endfacet
  facet normal 1.000000e+00 0.000000e+00 0.000000e+00
    outer loop
      vertex 3.199990e+02 -3.918830e+01 -5.411713e+02
      vertex 3.199990e+02 -3.937238e+01 -5.438109e+02
      vertex 3.199990e+02 -3.747570e+01 -5.403885e+02
    endloop
  endfacet
  facet normal 0.000000e+00 9.975772e-01 -6.956846e-02
    outer loop
      vertex 1.226938e+02 -3.778875e+01 -5.448776e+02
      vertex 2.949990e+02 -3.747570e+01 -5.403885e+02
      vertex 3.199990e+02 -3.747570e+01 -5.403885e+02
    endloop
  endfacet
  facet normal 1.000000e+00 0.000000e+00 0.000000e+00
    outer loop
      vertex 3.199990e+02 -4.077454e+01 -5.437131e+02
      vertex 3.199990e+02 -4.084562e+01 -5.446644e+02
      vertex 3.199990e+02 -3.778875e+01 -5.448776e+02
    endloop
  endfacet
  facet normal 0.000000e+00 -6.956846e-02 -9.975772e-01
    outer loop
      vertex 1.239990e+02 -4.084562e+01 -5.446644e+02
      vertex 3.199990e+02 -3.778875e+01 -5.448776e+02
      vertex 3.199990e+02 -4.084562e+01 -5.446644e+02
    endloop
  endfacet
  facet normal 1.000000e+00 0.000000e+00 0.000000e+00
    outer loop
      vertex 3.199990e+02 -3.937238e+01 -5.438109e+02
      vertex 3.199990e+02 -4.077454e+01 -5.437131e+02
      vertex 3.199990e+02 -3.778875e+01 -5.448776e+02
    endloop
  endfacet
  facet normal 0.000000e+00 -6.956846e-02 -9.975772e-01
    outer loop
      vertex 1.226938e+02 -3.943875e+01 -5.447626e+02
      vertex 1.226938e+02 -3.778875e+01 -5.448776e+02
      vertex 3.199990e+02 -3.778875e+01 -5.448776e+02
    endloop
  endfacet
  facet normal 0.000000e+00 -6.956846e-02 -9.975772e-01
    outer loop
      vertex 1.239990e+02 -3.943875e+01 -5.447626e+02
      vertex 1.226938e+02 -3.943875e+01 -5.447626e+02
      vertex 3.199990e+02 -3.778875e+01 -5.448776e+02
    endloop
  endfacet
  facet normal -7.189478e-17 -6.956846e-02 -9.975772e-01
    outer loop
      vertex 1.239990e+02 -4.084562e+01 -5.446644e+02
      vertex 1.239990e+02 -3.943875e+01 -5.447626e+02
      vertex 3.199990e+02 -3.778875e+01 -5.448776e+02
    endloop
  endfacet
  facet normal 0.000000e+00 -9.972204e-01 7.450883e-02
    outer loop
      vertex 1.239990e+02 -4.077454e+01 -5.437131e+02
      vertex 3.199990e+02 -4.084562e+01 -5.446644e+02
      vertex 3.199990e+02 -4.077454e+01 -5.437131e+02
    endloop
  endfacet
  facet normal 0.000000e+00 -9.972204e-01 7.450883e-02
    outer loop
      vertex 1.239990e+02 -4.084562e+01 -5.446644e+02
      vertex 3.199990e+02 -4.084562e+01 -5.446644e+02
      vertex 1.239990e+02 -4.077454e+01 -5.437131e+02
    endloop
  endfacet
  facet normal 0.000000e+00 6.956846e-02 9.975772e-01
    outer loop
      vertex 1.239990e+02 -3.937238e+01 -5.438109e+02
      vertex 3.199990e+02 -4.077454e+01 -5.437131e+02
      vertex 3.199990e+02 -3.937238e+01 -5.438109e+02
    endloop
  endfacet
  facet normal 0.000000e+00 6.956846e-02 9.975772e-01
    outer loop
      vertex 1.239990e+02 -4.077454e+01 -5.437131e+02
      vertex 3.199990e+02 -4.077454e+01 -5.437131e+02
      vertex 1.239990e+02 -3.937238e+01 -5.438109e+02
    endloop
  endfacet
  facet normal 0.000000e+00 -9.975772e-01 6.956846e-02
    outer loop
      vertex 1.178938e+02 -3.918830e+01 -5.411713e+02
      vertex 3.199990e+02 -3.937238e+01 -5.438109e+02
      vertex 3.199990e+02 -3.918830e+01 -5.411713e+02
    endloop
  endfacet
  facet normal 0.000000e+00 -9.975772e-01 6.956846e-02
    outer loop
      vertex 1.239990e+02 -3.937238e+01 -5.438109e+02
      vertex 3.199990e+02 -3.937238e+01 -5.438109e+02
      vertex 1.178938e+02 -3.918830e+01 -5.411713e+02
    endloop
  endfacet
  facet normal 0.000000e+00 -6.956846e-02 -9.975772e-01
    outer loop
      vertex 2.499990e+02 -4.050111e+01 -5.410797e+02
      vertex 3.199990e+02 -3.918830e+01 -5.411713e+02
      vertex 3.199990e+02 -4.050111e+01 -5.410797e+02
    endloop
  endfacet
  facet normal 2.964506e-17 -6.956846e-02 -9.975772e-01
    outer loop
      vertex 2.499990e+02 -4.050111e+01 -5.410797e+02
      vertex 1.178938e+02 -4.057739e+01 -5.410744e+02
      vertex 3.199990e+02 -3.918830e+01 -5.411713e+02
    endloop
  endfacet
  facet normal 0.000000e+00 -6.956846e-02 -9.975772e-01
    outer loop
      vertex 1.178938e+02 -3.918830e+01 -5.411713e+02
      vertex 3.199990e+02 -3.918830e+01 -5.411713e+02
      vertex 1.178938e+02 -4.057739e+01 -5.410744e+02
    endloop
  endfacet
  facet normal 0.000000e+00 -9.975772e-01 6.956846e-02
    outer loop
      vertex 2.549990e+02 -4.038980e+01 -5.394836e+02
      vertex 2.499990e+02 -4.050111e+01 -5.410797e+02
      vertex 3.199990e+02 -4.050111e+01 -5.410797e+02
    endloop
  endfacet
  facet normal -2.182939e-16 -9.975772e-01 6.956846e-02
    outer loop
      vertex 2.949990e+02 -4.043850e+01 -5.401819e+02
      vertex 2.549990e+02 -4.038980e+01 -5.394836e+02
      vertex 3.199990e+02 -4.050111e+01 -5.410797e+02
    endloop
  endfacet
  facet normal 0.000000e+00 9.975772e-01 -6.956846e-02
    outer loop
      vertex 2.329940e+02 -3.618027e+01 -5.218128e+02
      vertex 2.329940e+02 -3.626358e+01 -5.230074e+02
      vertex 2.248722e+02 -3.626358e+01 -5.230074e+02
    endloop
  endfacet
  facet normal 0.000000e+00 -7.203887e-02 -9.974018e-01
    outer loop
      vertex 2.248722e+02 -3.921158e+01 -5.227945e+02
      vertex 2.248722e+02 -3.626358e+01 -5.230074e+02
      vertex 2.329940e+02 -3.626358e+01 -5.230074e+02
    endloop
  endfacet
  facet normal 5.023760e-16 9.975772e-01 -6.956846e-02
    outer loop
      vertex 2.337453e+02 -3.608975e+01 -5.205147e+02
      vertex 2.329940e+02 -3.618027e+01 -5.218128e+02
      vertex 2.248722e+02 -3.626358e+01 -5.230074e+02
    endloop
  endfacet
  facet normal -9.736102e-16 9.975772e-01 -6.956846e-02
    outer loop
      vertex 2.487866e+02 -3.542315e+01 -5.109560e+02
      vertex 2.337453e+02 -3.608975e+01 -5.205147e+02
      vertex 2.248722e+02 -3.626358e+01 -5.230074e+02
    endloop
  endfacet
  facet normal -2.800110e-15 9.975772e-01 -6.956846e-02
    outer loop
      vertex 2.487866e+02 -3.542315e+01 -5.109560e+02
      vertex 2.248722e+02 -3.626358e+01 -5.230074e+02
      vertex 2.244532e+02 -3.625062e+01 -5.228216e+02
    endloop
  endfacet
  facet normal -4.061771e-01 -6.582871e-02 -9.114202e-01
    outer loop
      vertex 2.244532e+02 -3.919770e+01 -5.226088e+02
      vertex 2.244532e+02 -3.625062e+01 -5.228216e+02
      vertex 2.248722e+02 -3.626358e+01 -5.230074e+02
    endloop
  endfacet
  facet normal -4.061771e-01 -6.582871e-02 -9.114202e-01
    outer loop
      vertex 2.244532e+02 -3.919770e+01 -5.226088e+02
      vertex 2.248722e+02 -3.626358e+01 -5.230074e+02
      vertex 2.248722e+02 -3.921158e+01 -5.227945e+02
    endloop
  endfacet
  facet normal 1.000000e+00 0.000000e+00 0.000000e+00
    outer loop
      vertex 2.329940e+02 -3.912235e+01 -5.216003e+02
      vertex 2.329940e+02 -3.626358e+01 -5.230074e+02
      vertex 2.329940e+02 -3.618027e+01 -5.218128e+02
    endloop
  endfacet
  facet normal 0.000000e+00 -7.203887e-02 -9.974018e-01
    outer loop
      vertex 2.329940e+02 -3.921158e+01 -5.227945e+02
      vertex 2.248722e+02 -3.921158e+01 -5.227945e+02
      vertex 2.329940e+02 -3.626358e+01 -5.230074e+02
    endloop
  endfacet
  facet normal 1.000000e+00 0.000000e+00 0.000000e+00
    outer loop
      vertex 2.329940e+02 -3.921158e+01 -5.227945e+02
      vertex 2.329940e+02 -3.626358e+01 -5.230074e+02
      vertex 2.329940e+02 -3.912235e+01 -5.216003e+02
    endloop
  endfacet
  facet normal 8.660252e-01 -3.601946e-02 -4.987013e-01
    outer loop
      vertex 2.329940e+02 -3.912235e+01 -5.216003e+02
      vertex 2.329940e+02 -3.618027e+01 -5.218128e+02
      vertex 2.337453e+02 -3.608975e+01 -5.205147e+02
    endloop
  endfacet
  facet normal 5.367247e-15 9.975772e-01 -6.956846e-02
    outer loop
      vertex 2.487866e+02 -3.542315e+01 -5.109560e+02
      vertex 2.352477e+02 -3.608975e+01 -5.205147e+02
      vertex 2.337453e+02 -3.608975e+01 -5.205147e+02
    endloop
  endfacet
  facet normal 8.077131e-10 -7.203887e-02 -9.974018e-01
    outer loop
      vertex 2.337453e+02 -3.902540e+01 -5.203027e+02
      vertex 2.337453e+02 -3.608975e+01 -5.205147e+02
      vertex 2.352477e+02 -3.608975e+01 -5.205147e+02
    endloop
  endfacet
  facet normal 8.660252e-01 -3.601946e-02 -4.987013e-01
    outer loop
      vertex 2.329940e+02 -3.912235e+01 -5.216003e+02
      vertex 2.337453e+02 -3.608975e+01 -5.205147e+02
      vertex 2.337453e+02 -3.902540e+01 -5.203027e+02
    endloop
  endfacet
  facet normal -1.789581e-15 9.975772e-01 -6.956846e-02
    outer loop
      vertex 2.487866e+02 -3.542315e+01 -5.109560e+02
      vertex 2.359990e+02 -3.618027e+01 -5.218128e+02
      vertex 2.352477e+02 -3.608975e+01 -5.205147e+02
    endloop
  endfacet
  facet normal -8.660252e-01 -3.601946e-02 -4.987013e-01
    outer loop
      vertex 2.352477e+02 -3.902540e+01 -5.203027e+02
      vertex 2.352477e+02 -3.608975e+01 -5.205147e+02
      vertex 2.359990e+02 -3.618027e+01 -5.218128e+02
    endloop
  endfacet
  facet normal 8.076991e-10 -7.203887e-02 -9.974018e-01
    outer loop
      vertex 2.337453e+02 -3.902540e+01 -5.203027e+02
      vertex 2.352477e+02 -3.608975e+01 -5.205147e+02
      vertex 2.352477e+02 -3.902540e+01 -5.203027e+02
    endloop
  endfacet
  facet normal 5.347927e-17 9.975772e-01 -6.956846e-02
    outer loop
      vertex 2.487866e+02 -3.542315e+01 -5.109560e+02
      vertex 2.359990e+02 -3.654168e+01 -5.269952e+02
      vertex 2.359990e+02 -3.618027e+01 -5.218128e+02
    endloop
  endfacet
  facet normal -1.000000e+00 0.000000e+00 0.000000e+00
    outer loop
      vertex 2.359990e+02 -3.683498e+01 -5.243723e+02
      vertex 2.359990e+02 -3.618027e+01 -5.218128e+02
      vertex 2.359990e+02 -3.654168e+01 -5.269952e+02
    endloop
  endfacet
  facet normal -8.660252e-01 -3.601946e-02 -4.987013e-01
    outer loop
      vertex 2.352477e+02 -3.902540e+01 -5.203027e+02
      vertex 2.359990e+02 -3.618027e+01 -5.218128e+02
      vertex 2.359990e+02 -3.912235e+01 -5.216003e+02
    endloop
  endfacet
  facet normal -1.000000e+00 0.000000e+00 0.000000e+00
    outer loop
      vertex 2.359990e+02 -3.727178e+01 -5.234658e+02
      vertex 2.359990e+02 -3.912235e+01 -5.216003e+02
      vertex 2.359990e+02 -3.618027e+01 -5.218128e+02
    endloop
  endfacet
  facet normal -1.000000e+00 0.000000e+00 0.000000e+00
    outer loop
      vertex 2.359990e+02 -3.727178e+01 -5.234658e+02
      vertex 2.359990e+02 -3.618027e+01 -5.218128e+02
      vertex 2.359990e+02 -3.683498e+01 -5.243723e+02
    endloop
  endfacet
  facet normal -1.090618e-14 9.975772e-01 -6.956846e-02
    outer loop
      vertex 2.487866e+02 -3.542315e+01 -5.109560e+02
      vertex 2.352477e+02 -3.663220e+01 -5.282933e+02
      vertex 2.359990e+02 -3.654168e+01 -5.269952e+02
    endloop
  endfacet
  facet normal -8.660252e-01 3.601946e-02 4.987013e-01
    outer loop
      vertex 2.359990e+02 -3.950943e+01 -5.267809e+02
      vertex 2.359990e+02 -3.654168e+01 -5.269952e+02
      vertex 2.352477e+02 -3.663220e+01 -5.282933e+02
    endloop
  endfacet
  facet normal -1.000000e+00 0.000000e+00 0.000000e+00
    outer loop
      vertex 2.359990e+02 -3.840509e+01 -5.251288e+02
      vertex 2.359990e+02 -3.654168e+01 -5.269952e+02
      vertex 2.359990e+02 -3.950943e+01 -5.267809e+02
    endloop
  endfacet
  facet normal -1.000000e+00 0.000000e+00 0.000000e+00
    outer loop
      vertex 2.359990e+02 -3.740164e+01 -5.252038e+02
      vertex 2.359990e+02 -3.683498e+01 -5.243723e+02
      vertex 2.359990e+02 -3.654168e+01 -5.269952e+02
    endloop
  endfacet
  facet normal -1.000000e+00 0.000000e+00 0.000000e+00
    outer loop
      vertex 2.359990e+02 -3.740164e+01 -5.252038e+02
      vertex 2.359990e+02 -3.654168e+01 -5.269952e+02
      vertex 2.359990e+02 -3.840509e+01 -5.251288e+02
    endloop
  endfacet
  facet normal -4.693628e-15 9.975772e-01 -6.956846e-02
    outer loop
      vertex 1.226938e+02 -3.778875e+01 -5.448776e+02
      vertex 2.337453e+02 -3.663220e+01 -5.282933e+02
      vertex 2.352477e+02 -3.663220e+01 -5.282933e+02
    endloop
  endfacet
  facet normal -8.076379e-10 7.203887e-02 9.974018e-01
    outer loop
      vertex 2.352477e+02 -3.960638e+01 -5.280785e+02
      vertex 2.352477e+02 -3.663220e+01 -5.282933e+02
      vertex 2.337453e+02 -3.663220e+01 -5.282933e+02
    endloop
  endfacet
  facet normal 2.601847e-16 9.975772e-01 -6.956846e-02
    outer loop
      vertex 2.499990e+02 -3.559804e+01 -5.134638e+02
      vertex 2.499990e+02 -3.707916e+01 -5.347023e+02
      vertex 2.352477e+02 -3.663220e+01 -5.282933e+02
    endloop
  endfacet
  facet normal 9.172081e-18 9.975772e-01 -6.956846e-02
    outer loop
      vertex 1.226938e+02 -3.778875e+01 -5.448776e+02
      vertex 2.352477e+02 -3.663220e+01 -5.282933e+02
      vertex 2.499990e+02 -3.707916e+01 -5.347023e+02
    endloop
  endfacet
  facet normal -1.416676e-16 9.975772e-01 -6.956846e-02
    outer loop
      vertex 2.491055e+02 -3.552023e+01 -5.123481e+02
      vertex 2.499990e+02 -3.559804e+01 -5.134638e+02
      vertex 2.352477e+02 -3.663220e+01 -5.282933e+02
    endloop
  endfacet
  facet normal -2.180766e-16 9.975772e-01 -6.956846e-02
    outer loop
      vertex 2.487866e+02 -3.542315e+01 -5.109560e+02
      vertex 2.491055e+02 -3.552023e+01 -5.123481e+02
      vertex 2.352477e+02 -3.663220e+01 -5.282933e+02
    endloop
  endfacet
  facet normal -8.660252e-01 3.601946e-02 4.987013e-01
    outer loop
      vertex 2.359990e+02 -3.950943e+01 -5.267809e+02
      vertex 2.352477e+02 -3.663220e+01 -5.282933e+02
      vertex 2.352477e+02 -3.960638e+01 -5.280785e+02
    endloop
  endfacet
  facet normal 3.620823e-16 9.975772e-01 -6.956846e-02
    outer loop
      vertex 1.226938e+02 -3.778875e+01 -5.448776e+02
      vertex 2.329940e+02 -3.654168e+01 -5.269952e+02
      vertex 2.337453e+02 -3.663220e+01 -5.282933e+02
    endloop
  endfacet
  facet normal 8.660252e-01 3.601946e-02 4.987013e-01
    outer loop
      vertex 2.337453e+02 -3.960638e+01 -5.280785e+02
      vertex 2.337453e+02 -3.663220e+01 -5.282933e+02
      vertex 2.329940e+02 -3.654168e+01 -5.269952e+02
    endloop
  endfacet
  facet normal -8.076987e-10 7.203887e-02 9.974018e-01
    outer loop
      vertex 2.352477e+02 -3.960638e+01 -5.280785e+02
      vertex 2.337453e+02 -3.663220e+01 -5.282933e+02
      vertex 2.337453e+02 -3.960638e+01 -5.280785e+02
    endloop
  endfacet
  facet normal -1.882803e-16 9.975772e-01 -6.956846e-02
    outer loop
      vertex 1.226938e+02 -3.778875e+01 -5.448776e+02
      vertex 2.329940e+02 -3.645837e+01 -5.258006e+02
      vertex 2.329940e+02 -3.654168e+01 -5.269952e+02
    endloop
  endfacet
  facet normal 1.000000e+00 0.000000e+00 0.000000e+00
    outer loop
      vertex 2.329940e+02 -3.942020e+01 -5.255867e+02
      vertex 2.329940e+02 -3.654168e+01 -5.269952e+02
      vertex 2.329940e+02 -3.645837e+01 -5.258006e+02
    endloop
  endfacet
  facet normal 1.000000e+00 0.000000e+00 0.000000e+00
    outer loop
      vertex 2.329940e+02 -3.950943e+01 -5.267809e+02
      vertex 2.329940e+02 -3.654168e+01 -5.269952e+02
      vertex 2.329940e+02 -3.942020e+01 -5.255867e+02
    endloop
  endfacet
  facet normal 8.660252e-01 3.601946e-02 4.987013e-01
    outer loop
      vertex 2.337453e+02 -3.960638e+01 -5.280785e+02
      vertex 2.329940e+02 -3.654168e+01 -5.269952e+02
      vertex 2.329940e+02 -3.950943e+01 -5.267809e+02
    endloop
  endfacet
  facet normal 0.000000e+00 9.975772e-01 -6.956846e-02
    outer loop
      vertex 2.244532e+02 -3.647133e+01 -5.259864e+02
      vertex 2.248722e+02 -3.645837e+01 -5.258006e+02
      vertex 2.329940e+02 -3.645837e+01 -5.258006e+02
    endloop
  endfacet
  facet normal 0.000000e+00 7.203887e-02 9.974018e-01
    outer loop
      vertex 2.329940e+02 -3.942020e+01 -5.255867e+02
      vertex 2.329940e+02 -3.645837e+01 -5.258006e+02
      vertex 2.248722e+02 -3.645837e+01 -5.258006e+02
    endloop
  endfacet
  facet normal 4.478670e-16 9.975772e-01 -6.956846e-02
    outer loop
      vertex 1.226938e+02 -3.778875e+01 -5.448776e+02
      vertex 2.244532e+02 -3.647133e+01 -5.259864e+02
      vertex 2.329940e+02 -3.645837e+01 -5.258006e+02
    endloop
  endfacet
  facet normal -4.061771e-01 6.582871e-02 9.114202e-01
    outer loop
      vertex 2.248722e+02 -3.942020e+01 -5.255867e+02
      vertex 2.248722e+02 -3.645837e+01 -5.258006e+02
      vertex 2.244532e+02 -3.647133e+01 -5.259864e+02
    endloop
  endfacet
  facet normal 0.000000e+00 7.203887e-02 9.974018e-01
    outer loop
      vertex 2.329940e+02 -3.942020e+01 -5.255867e+02
      vertex 2.248722e+02 -3.645837e+01 -5.258006e+02
      vertex 2.248722e+02 -3.942020e+01 -5.255867e+02
    endloop
  endfacet
  facet normal -5.042296e-15 9.975772e-01 -6.956846e-02
    outer loop
      vertex 1.226938e+02 -3.778875e+01 -5.448776e+02
      vertex 2.239990e+02 -3.647577e+01 -5.260500e+02
      vertex 2.244532e+02 -3.647133e+01 -5.259864e+02
    endloop
  endfacet
  facet normal -1.390011e-01 7.133953e-02 9.877193e-01
    outer loop
      vertex 2.244532e+02 -3.943408e+01 -5.257724e+02
      vertex 2.244532e+02 -3.647133e+01 -5.259864e+02
      vertex 2.239990e+02 -3.647577e+01 -5.260500e+02
    endloop
  endfacet
  facet normal -4.061771e-01 6.582871e-02 9.114202e-01
    outer loop
      vertex 2.248722e+02 -3.942020e+01 -5.255867e+02
      vertex 2.244532e+02 -3.647133e+01 -5.259864e+02
      vertex 2.244532e+02 -3.943408e+01 -5.257724e+02
    endloop
  endfacet
  facet normal 0.000000e+00 9.975772e-01 -6.956846e-02
    outer loop
      vertex 1.226938e+02 -3.778875e+01 -5.448776e+02
      vertex 1.319990e+02 -3.647577e+01 -5.260500e+02
      vertex 2.239990e+02 -3.647577e+01 -5.260500e+02
    endloop
  endfacet
  facet normal 0.000000e+00 7.203887e-02 9.974018e-01
    outer loop
      vertex 2.239990e+02 -3.943883e+01 -5.258360e+02
      vertex 2.239990e+02 -3.647577e+01 -5.260500e+02
      vertex 1.319990e+02 -3.647577e+01 -5.260500e+02
    endloop
  endfacet
  facet normal -1.390011e-01 7.133953e-02 9.877193e-01
    outer loop
      vertex 2.244532e+02 -3.943408e+01 -5.257724e+02
      vertex 2.239990e+02 -3.647577e+01 -5.260500e+02
      vertex 2.239990e+02 -3.943883e+01 -5.258360e+02
    endloop
  endfacet
  facet normal -2.871236e-15 9.975772e-01 -6.956846e-02
    outer loop
      vertex 1.226938e+02 -3.778875e+01 -5.448776e+02
      vertex 1.305701e+02 -3.641837e+01 -5.252270e+02
      vertex 1.319990e+02 -3.647577e+01 -5.260500e+02
    endloop
  endfacet
  facet normal 4.999996e-01 6.238751e-02 8.637755e-01
    outer loop
      vertex 1.319990e+02 -3.943883e+01 -5.258360e+02
      vertex 1.319990e+02 -3.647577e+01 -5.260500e+02
      vertex 1.305701e+02 -3.641837e+01 -5.252270e+02
    endloop
  endfacet
  facet normal 0.000000e+00 7.203887e-02 9.974018e-01
    outer loop
      vertex 2.239990e+02 -3.943883e+01 -5.258360e+02
      vertex 1.319990e+02 -3.647577e+01 -5.260500e+02
      vertex 1.319990e+02 -3.943883e+01 -5.258360e+02
    endloop
  endfacet
  facet normal 2.460339e-15 9.975772e-01 -6.956846e-02
    outer loop
      vertex 1.226938e+02 -3.778875e+01 -5.448776e+02
      vertex 1.305701e+02 -3.630358e+01 -5.235810e+02
      vertex 1.305701e+02 -3.641837e+01 -5.252270e+02
    endloop
  endfacet
  facet normal 1.000000e+00 -5.818647e-11 -8.056108e-10
    outer loop
      vertex 1.305701e+02 -3.937736e+01 -5.250133e+02
      vertex 1.305701e+02 -3.641837e+01 -5.252270e+02
      vertex 1.305701e+02 -3.630358e+01 -5.235810e+02
    endloop
  endfacet
  facet normal 4.999996e-01 6.238751e-02 8.637755e-01
    outer loop
      vertex 1.319990e+02 -3.943883e+01 -5.258360e+02
      vertex 1.305701e+02 -3.641837e+01 -5.252270e+02
      vertex 1.305701e+02 -3.937736e+01 -5.250133e+02
    endloop
  endfacet
  facet normal 5.341519e-16 9.975772e-01 -6.956846e-02
    outer loop
      vertex 1.162114e+02 -3.542315e+01 -5.109560e+02
      vertex 1.319990e+02 -3.624619e+01 -5.227580e+02
      vertex 1.305701e+02 -3.630358e+01 -5.235810e+02
    endloop
  endfacet
  facet normal 4.999996e-01 -6.238751e-02 -8.637755e-01
    outer loop
      vertex 1.305701e+02 -3.925442e+01 -5.233679e+02
      vertex 1.305701e+02 -3.630358e+01 -5.235810e+02
      vertex 1.319990e+02 -3.624619e+01 -5.227580e+02
    endloop
  endfacet
  facet normal -1.560008e-16 9.975772e-01 -6.956846e-02
    outer loop
      vertex 1.177807e+02 -3.750549e+01 -5.408158e+02
      vertex 1.162114e+02 -3.542315e+01 -5.109560e+02
      vertex 1.305701e+02 -3.630358e+01 -5.235810e+02
    endloop
  endfacet
  facet normal -2.381738e-15 9.975772e-01 -6.956846e-02
    outer loop
      vertex 1.195033e+02 -3.770873e+01 -5.437302e+02
      vertex 1.177807e+02 -3.750549e+01 -5.408158e+02
      vertex 1.305701e+02 -3.630358e+01 -5.235810e+02
    endloop
  endfacet
  facet normal 2.034246e-15 9.975772e-01 -6.956846e-02
    outer loop
      vertex 1.226938e+02 -3.778875e+01 -5.448776e+02
      vertex 1.195033e+02 -3.770873e+01 -5.437302e+02
      vertex 1.305701e+02 -3.630358e+01 -5.235810e+02
    endloop
  endfacet
  facet normal 1.000000e+00 -5.818647e-11 -8.056108e-10
    outer loop
      vertex 1.305701e+02 -3.937736e+01 -5.250133e+02
      vertex 1.305701e+02 -3.630358e+01 -5.235810e+02
      vertex 1.305701e+02 -3.925442e+01 -5.233679e+02
    endloop
  endfacet
  facet normal 0.000000e+00 9.975772e-01 -6.956846e-02
    outer loop
      vertex 2.487866e+02 -3.542315e+01 -5.109560e+02
      vertex 2.239990e+02 -3.624619e+01 -5.227580e+02
      vertex 1.319990e+02 -3.624619e+01 -5.227580e+02
    endloop
  endfacet
  facet normal 0.000000e+00 -7.203887e-02 -9.974018e-01
    outer loop
      vertex 1.319990e+02 -3.919295e+01 -5.225452e+02
      vertex 1.319990e+02 -3.624619e+01 -5.227580e+02
      vertex 2.239990e+02 -3.624619e+01 -5.227580e+02
    endloop
  endfacet
  facet normal 0.000000e+00 9.975772e-01 -6.956846e-02
    outer loop
      vertex 1.162114e+02 -3.542315e+01 -5.109560e+02
      vertex 2.487866e+02 -3.542315e+01 -5.109560e+02
      vertex 1.319990e+02 -3.624619e+01 -5.227580e+02
    endloop
  endfacet
  facet normal 4.999996e-01 -6.238751e-02 -8.637755e-01
    outer loop
      vertex 1.305701e+02 -3.925442e+01 -5.233679e+02
      vertex 1.319990e+02 -3.624619e+01 -5.227580e+02
      vertex 1.319990e+02 -3.919295e+01 -5.225452e+02
    endloop
  endfacet
  facet normal -7.663441e-16 9.975772e-01 -6.956846e-02
    outer loop
      vertex 2.487866e+02 -3.542315e+01 -5.109560e+02
      vertex 2.244532e+02 -3.625062e+01 -5.228216e+02
      vertex 2.239990e+02 -3.624619e+01 -5.227580e+02
    endloop
  endfacet
  facet normal -1.390011e-01 -7.133953e-02 -9.877193e-01
    outer loop
      vertex 2.239990e+02 -3.919295e+01 -5.225452e+02
      vertex 2.239990e+02 -3.624619e+01 -5.227580e+02
      vertex 2.244532e+02 -3.625062e+01 -5.228216e+02
    endloop
  endfacet
  facet normal 0.000000e+00 -7.203887e-02 -9.974018e-01
    outer loop
      vertex 1.319990e+02 -3.919295e+01 -5.225452e+02
      vertex 2.239990e+02 -3.624619e+01 -5.227580e+02
      vertex 2.239990e+02 -3.919295e+01 -5.225452e+02
    endloop
  endfacet
  facet normal -1.390011e-01 -7.133953e-02 -9.877193e-01
    outer loop
      vertex 2.239990e+02 -3.919295e+01 -5.225452e+02
      vertex 2.244532e+02 -3.625062e+01 -5.228216e+02
      vertex 2.244532e+02 -3.919770e+01 -5.226088e+02
    endloop
  endfacet
  facet normal -4.194627e-16 9.975772e-01 -6.956846e-02
    outer loop
      vertex 1.226938e+02 -3.778875e+01 -5.448776e+02
      vertex 2.940825e+02 -3.746304e+01 -5.402071e+02
      vertex 2.949990e+02 -3.747570e+01 -5.403885e+02
    endloop
  endfacet
  facet normal 1.946737e-01 6.823748e-02 9.784916e-01
    outer loop
      vertex 2.949990e+02 -4.043850e+01 -5.401819e+02
      vertex 2.949990e+02 -3.747570e+01 -5.403885e+02
      vertex 2.940825e+02 -3.746304e+01 -5.402071e+02
    endloop
  endfacet
  facet normal -7.206357e-17 9.975772e-01 -6.956846e-02
    outer loop
      vertex 1.226938e+02 -3.778875e+01 -5.448776e+02
      vertex 2.933049e+02 -3.742700e+01 -5.396902e+02
      vertex 2.940825e+02 -3.746304e+01 -5.402071e+02
    endloop
  endfacet
  facet normal 5.544794e-01 5.789470e-02 8.301812e-01
    outer loop
      vertex 2.940825e+02 -4.042585e+01 -5.400004e+02
      vertex 2.940825e+02 -3.746304e+01 -5.402071e+02
      vertex 2.933049e+02 -3.742700e+01 -5.396902e+02
    endloop
  endfacet
  facet normal 1.946737e-01 6.823748e-02 9.784916e-01
    outer loop
      vertex 2.949990e+02 -4.043850e+01 -5.401819e+02
      vertex 2.940825e+02 -3.746304e+01 -5.402071e+02
      vertex 2.940825e+02 -4.042585e+01 -5.400004e+02
    endloop
  endfacet
  facet normal 1.850459e-16 9.975772e-01 -6.956846e-02
    outer loop
      vertex 1.226938e+02 -3.778875e+01 -5.448776e+02
      vertex 2.549990e+02 -3.742700e+01 -5.396902e+02
      vertex 2.933049e+02 -3.742700e+01 -5.396902e+02
    endloop
  endfacet
  facet normal 1.268620e-17 6.956846e-02 9.975772e-01
    outer loop
      vertex 2.933049e+02 -4.038980e+01 -5.394836e+02
      vertex 2.933049e+02 -3.742700e+01 -5.396902e+02
      vertex 2.549990e+02 -3.742700e+01 -5.396902e+02
    endloop
  endfacet
  facet normal 5.544794e-01 5.789470e-02 8.301812e-01
    outer loop
      vertex 2.940825e+02 -4.042585e+01 -5.400004e+02
      vertex 2.933049e+02 -3.742700e+01 -5.396902e+02
      vertex 2.933049e+02 -4.038980e+01 -5.394836e+02
    endloop
  endfacet
  facet normal -2.365503e-16 9.975772e-01 -6.956846e-02
    outer loop
      vertex 1.226938e+02 -3.778875e+01 -5.448776e+02
      vertex 2.514635e+02 -3.732512e+01 -5.382293e+02
      vertex 2.549990e+02 -3.742700e+01 -5.396902e+02
    endloop
  endfacet
  facet normal 3.826834e-01 6.427288e-02 9.216411e-01
    outer loop
      vertex 2.549990e+02 -4.038980e+01 -5.394836e+02
      vertex 2.549990e+02 -3.742700e+01 -5.396902e+02
      vertex 2.514635e+02 -3.732512e+01 -5.382293e+02
    endloop
  endfacet
  facet normal 0.000000e+00 6.956846e-02 9.975772e-01
    outer loop
      vertex 2.549990e+02 -4.038980e+01 -5.394836e+02
      vertex 2.933049e+02 -4.038980e+01 -5.394836e+02
      vertex 2.549990e+02 -3.742700e+01 -5.396902e+02
    endloop
  endfacet
  facet normal -4.010874e-17 9.975772e-01 -6.956846e-02
    outer loop
      vertex 1.226938e+02 -3.778875e+01 -5.448776e+02
      vertex 2.499990e+02 -3.707916e+01 -5.347023e+02
      vertex 2.514635e+02 -3.732512e+01 -5.382293e+02
    endloop
  endfacet
  facet normal 9.238795e-01 2.662270e-02 3.817563e-01
    outer loop
      vertex 2.514635e+02 -4.028792e+01 -5.380227e+02
      vertex 2.514635e+02 -3.732512e+01 -5.382293e+02
      vertex 2.499990e+02 -3.707916e+01 -5.347023e+02
    endloop
  endfacet
  facet normal 3.826834e-01 6.427288e-02 9.216411e-01
    outer loop
      vertex 2.514635e+02 -4.028792e+01 -5.380227e+02
      vertex 2.549990e+02 -4.038980e+01 -5.394836e+02
      vertex 2.514635e+02 -3.732512e+01 -5.382293e+02
    endloop
  endfacet
  facet normal 1.000000e+00 0.000000e+00 0.000000e+00
    outer loop
      vertex 2.499990e+02 -3.683498e+01 -5.243723e+02
      vertex 2.499990e+02 -3.707916e+01 -5.347023e+02
      vertex 2.499990e+02 -3.559804e+01 -5.134638e+02
    endloop
  endfacet
  facet normal 1.000000e+00 0.000000e+00 0.000000e+00
    outer loop
      vertex 2.499990e+02 -4.004196e+01 -5.344957e+02
      vertex 2.499990e+02 -3.707916e+01 -5.347023e+02
      vertex 2.499990e+02 -3.683498e+01 -5.243723e+02
    endloop
  endfacet
  facet normal 9.238795e-01 2.662270e-02 3.817563e-01
    outer loop
      vertex 2.514635e+02 -4.028792e+01 -5.380227e+02
      vertex 2.499990e+02 -3.707916e+01 -5.347023e+02
      vertex 2.499990e+02 -4.004196e+01 -5.344957e+02
    endloop
  endfacet
  facet normal 4.074763e-01 8.738045e-01 2.653841e-01
    outer loop
      vertex 2.499990e+02 -3.602987e+01 -5.120420e+02
      vertex 2.499990e+02 -3.559804e+01 -5.134638e+02
      vertex 2.491055e+02 -3.552023e+01 -5.123481e+02
    endloop
  endfacet
  facet normal 1.000000e+00 0.000000e+00 0.000000e+00
    outer loop
      vertex 2.499990e+02 -3.884189e+01 -5.242223e+02
      vertex 2.499990e+02 -3.559804e+01 -5.134638e+02
      vertex 2.499990e+02 -3.847247e+01 -5.129024e+02
    endloop
  endfacet
  facet normal 1.000000e+00 0.000000e+00 0.000000e+00
    outer loop
      vertex 2.499990e+02 -3.602987e+01 -5.120420e+02
      vertex 2.499990e+02 -3.847247e+01 -5.129024e+02
      vertex 2.499990e+02 -3.559804e+01 -5.134638e+02
    endloop
  endfacet
  facet normal 1.000000e+00 0.000000e+00 0.000000e+00
    outer loop
      vertex 2.499990e+02 -3.727178e+01 -5.234658e+02
      vertex 2.499990e+02 -3.683498e+01 -5.243723e+02
      vertex 2.499990e+02 -3.559804e+01 -5.134638e+02
    endloop
  endfacet
  facet normal 1.000000e+00 0.000000e+00 0.000000e+00
    outer loop
      vertex 2.499990e+02 -3.827523e+01 -5.233908e+02
      vertex 2.499990e+02 -3.727178e+01 -5.234658e+02
      vertex 2.499990e+02 -3.559804e+01 -5.134638e+02
    endloop
  endfacet
  facet normal 1.000000e+00 0.000000e+00 0.000000e+00
    outer loop
      vertex 2.499990e+02 -3.884189e+01 -5.242223e+02
      vertex 2.499990e+02 -3.827523e+01 -5.233908e+02
      vertex 2.499990e+02 -3.559804e+01 -5.134638e+02
    endloop
  endfacet
  facet normal 4.820241e-01 8.747623e-01 4.943312e-02
    outer loop
      vertex 2.499990e+02 -3.602987e+01 -5.120420e+02
      vertex 2.491055e+02 -3.552023e+01 -5.123481e+02
      vertex 2.487866e+02 -3.542315e+01 -5.109560e+02
    endloop
  endfacet
  facet normal 0.000000e+00 6.956846e-02 9.975772e-01
    outer loop
      vertex 2.494794e+02 -3.582218e+01 -5.109282e+02
      vertex 2.487866e+02 -3.542315e+01 -5.109560e+02
      vertex 1.162114e+02 -3.542315e+01 -5.109560e+02
    endloop
  endfacet
  facet normal 4.957623e-01 8.656433e-01 6.986638e-02
    outer loop
      vertex 2.499990e+02 -3.602987e+01 -5.120420e+02
      vertex 2.487866e+02 -3.542315e+01 -5.109560e+02
      vertex 2.494794e+02 -3.582218e+01 -5.109282e+02
    endloop
  endfacet
  facet normal 2.963089e-14 9.975772e-01 -6.956846e-02
    outer loop
      vertex 1.158060e+02 -3.655545e+01 -5.271927e+02
      vertex 1.158970e+02 -3.551958e+01 -5.123388e+02
      vertex 1.162114e+02 -3.542315e+01 -5.109560e+02
    endloop
  endfacet
  facet normal -4.968141e-01 8.662633e-01 5.257064e-02
    outer loop
      vertex 1.155186e+02 -3.582218e+01 -5.109282e+02
      vertex 1.162114e+02 -3.542315e+01 -5.109560e+02
      vertex 1.158970e+02 -3.551958e+01 -5.123388e+02
    endloop
  endfacet
  facet normal 1.131485e-15 9.975772e-01 -6.956846e-02
    outer loop
      vertex 1.177807e+02 -3.750549e+01 -5.408158e+02
      vertex 1.158060e+02 -3.655545e+01 -5.271927e+02
      vertex 1.162114e+02 -3.542315e+01 -5.109560e+02
    endloop
  endfacet
  facet normal 0.000000e+00 6.956846e-02 9.975772e-01
    outer loop
      vertex 2.494794e+02 -3.582218e+01 -5.109282e+02
      vertex 1.162114e+02 -3.542315e+01 -5.109560e+02
      vertex 1.155186e+02 -3.582218e+01 -5.109282e+02
    endloop
  endfacet
  facet normal -2.317806e-15 9.975772e-01 -6.956846e-02
    outer loop
      vertex 1.158060e+02 -3.655545e+01 -5.271927e+02
      vertex 1.150152e+02 -3.559713e+01 -5.134508e+02
      vertex 1.158970e+02 -3.551958e+01 -5.123388e+02
    endloop
  endfacet
  facet normal -4.075041e-01 8.747728e-01 2.621317e-01
    outer loop
      vertex 1.150014e+02 -3.603521e+01 -5.120104e+02
      vertex 1.158970e+02 -3.551958e+01 -5.123388e+02
      vertex 1.150152e+02 -3.559713e+01 -5.134508e+02
    endloop
  endfacet
  facet normal -4.968141e-01 8.662633e-01 5.257064e-02
    outer loop
      vertex 1.149992e+02 -3.612134e+01 -5.109073e+02
      vertex 1.155186e+02 -3.582218e+01 -5.109282e+02
      vertex 1.158970e+02 -3.551958e+01 -5.123388e+02
    endloop
  endfacet
  facet normal -4.791332e-01 8.751509e-01 6.739579e-02
    outer loop
      vertex 1.149992e+02 -3.612134e+01 -5.109073e+02
      vertex 1.158970e+02 -3.551958e+01 -5.123388e+02
      vertex 1.150014e+02 -3.603521e+01 -5.120104e+02
    endloop
  endfacet
  facet normal -9.983537e-01 -1.729333e-03 -5.733113e-02
    outer loop
      vertex 1.157902e+02 -3.951300e+01 -5.268287e+02
      vertex 1.150152e+02 -3.559713e+01 -5.134508e+02
      vertex 1.158060e+02 -3.655545e+01 -5.271927e+02
    endloop
  endfacet
  facet normal -9.984306e-01 -8.500749e-03 -5.535351e-02
    outer loop
      vertex 1.150110e+02 -3.847480e+01 -5.129336e+02
      vertex 1.150152e+02 -3.559713e+01 -5.134508e+02
      vertex 1.157902e+02 -3.951300e+01 -5.268287e+02
    endloop
  endfacet
  facet normal -9.999532e-01 -2.871675e-04 -9.672431e-03
    outer loop
      vertex 1.150014e+02 -3.603521e+01 -5.120104e+02
      vertex 1.150152e+02 -3.559713e+01 -5.134508e+02
      vertex 1.150110e+02 -3.847480e+01 -5.129336e+02
    endloop
  endfacet
  facet normal -9.897033e-01 -1.227025e-02 -1.426071e-01
    outer loop
      vertex 1.157902e+02 -3.951300e+01 -5.268287e+02
      vertex 1.158060e+02 -3.655545e+01 -5.271927e+02
      vertex 1.177807e+02 -3.750549e+01 -5.408158e+02
    endloop
  endfacet
  facet normal -8.582457e-01 5.023570e-02 -5.107747e-01
    outer loop
      vertex 1.178938e+02 -3.918830e+01 -5.411713e+02
      vertex 1.177807e+02 -3.750549e+01 -5.408158e+02
      vertex 1.195033e+02 -3.770873e+01 -5.437302e+02
    endloop
  endfacet
  facet normal -9.897766e-01 -9.922279e-03 -1.422806e-01
    outer loop
      vertex 1.157902e+02 -3.951300e+01 -5.268287e+02
      vertex 1.177807e+02 -3.750549e+01 -5.408158e+02
      vertex 1.177807e+02 -4.054224e+01 -5.406040e+02
    endloop
  endfacet
  facet normal -9.724519e-01 -1.621665e-02 -2.325387e-01
    outer loop
      vertex 1.178938e+02 -3.918830e+01 -5.411713e+02
      vertex 1.177807e+02 -4.054224e+01 -5.406040e+02
      vertex 1.177807e+02 -3.750549e+01 -5.408158e+02
    endloop
  endfacet
  facet normal -3.387862e-01 -1.915133e-02 -9.406685e-01
    outer loop
      vertex 1.196938e+02 -3.936918e+01 -5.437650e+02
      vertex 1.195033e+02 -3.770873e+01 -5.437302e+02
      vertex 1.226938e+02 -3.778875e+01 -5.448776e+02
    endloop
  endfacet
  facet normal -8.214339e-01 -8.241168e-02 -5.643179e-01
    outer loop
      vertex 1.196938e+02 -3.936918e+01 -5.437650e+02
      vertex 1.178938e+02 -3.918830e+01 -5.411713e+02
      vertex 1.195033e+02 -3.770873e+01 -5.437302e+02
    endloop
  endfacet
  facet normal -3.162269e-01 -6.599846e-02 -9.463851e-01
    outer loop
      vertex 1.196938e+02 -3.936918e+01 -5.437650e+02
      vertex 1.226938e+02 -3.778875e+01 -5.448776e+02
      vertex 1.226938e+02 -3.943875e+01 -5.447626e+02
    endloop
  endfacet
  facet normal -8.100243e-14 9.975772e-01 -6.956846e-02
    outer loop
      vertex 1.155186e+02 -3.582218e+01 -5.109282e+02
      vertex 1.181960e+02 -3.362771e+01 -4.794606e+02
      vertex 1.182681e+02 -3.361415e+01 -4.792662e+02
    endloop
  endfacet
  facet normal -9.377979e-01 2.386454e-02 3.463606e-01
    outer loop
      vertex 1.182707e+02 -3.479548e+01 -4.791779e+02
      vertex 1.182681e+02 -3.361415e+01 -4.792662e+02
      vertex 1.181960e+02 -3.362771e+01 -4.794606e+02
    endloop
  endfacet
  facet normal 0.000000e+00 9.975772e-01 -6.956846e-02
    outer loop
      vertex 2.494794e+02 -3.361415e+01 -4.792662e+02
      vertex 1.155186e+02 -3.582218e+01 -5.109282e+02
      vertex 1.182681e+02 -3.361415e+01 -4.792662e+02
    endloop
  endfacet
  facet normal 0.000000e+00 7.450883e-02 9.972204e-01
    outer loop
      vertex 1.182707e+02 -3.479548e+01 -4.791779e+02
      vertex 2.494794e+02 -3.361415e+01 -4.792662e+02
      vertex 1.182681e+02 -3.361415e+01 -4.792662e+02
    endloop
  endfacet
  facet normal 1.438342e-13 9.975772e-01 -6.956846e-02
    outer loop
      vertex 1.155186e+02 -3.582218e+01 -5.109282e+02
      vertex 1.181444e+02 -3.364172e+01 -4.796615e+02
      vertex 1.181960e+02 -3.362771e+01 -4.794606e+02
    endloop
  endfacet
  facet normal -9.685870e-01 -1.755685e-03 2.486687e-01
    outer loop
      vertex 1.182707e+02 -3.479548e+01 -4.791779e+02
      vertex 1.181960e+02 -3.362771e+01 -4.794606e+02
      vertex 1.181444e+02 -3.364172e+01 -4.796615e+02
    endloop
  endfacet
  facet normal -5.603708e-16 9.975772e-01 -6.956846e-02
    outer loop
      vertex 1.155186e+02 -3.582218e+01 -5.109282e+02
      vertex 1.165559e+02 -3.428895e+01 -4.889425e+02
      vertex 1.181444e+02 -3.364172e+01 -4.796615e+02
    endloop
  endfacet
  facet normal -9.857341e-01 1.170906e-02 1.679021e-01
    outer loop
      vertex 1.181444e+02 -3.557763e+01 -4.795265e+02
      vertex 1.181444e+02 -3.364172e+01 -4.796615e+02
      vertex 1.165559e+02 -3.428895e+01 -4.889425e+02
    endloop
  endfacet
  facet normal -9.540922e-01 2.083666e-02 2.987874e-01
    outer loop
      vertex 1.181444e+02 -3.557763e+01 -4.795265e+02
      vertex 1.182707e+02 -3.479548e+01 -4.791779e+02
      vertex 1.181444e+02 -3.364172e+01 -4.796615e+02
    endloop
  endfacet
  facet normal -1.001216e-14 9.975772e-01 -6.956846e-02
    outer loop
      vertex 1.155186e+02 -3.582218e+01 -5.109282e+02
      vertex 1.155186e+02 -3.494163e+01 -4.983015e+02
      vertex 1.165559e+02 -3.428895e+01 -4.889425e+02
    endloop
  endfacet
  facet normal -9.935750e-01 3.480233e-02 1.076920e-01
    outer loop
      vertex 1.162253e+02 -3.645672e+01 -4.912922e+02
      vertex 1.165559e+02 -3.428895e+01 -4.889425e+02
      vertex 1.155186e+02 -3.494163e+01 -4.983015e+02
    endloop
  endfacet
  facet normal -9.863099e-01 -2.607031e-02 1.628287e-01
    outer loop
      vertex 1.181444e+02 -3.557763e+01 -4.795265e+02
      vertex 1.165559e+02 -3.428895e+01 -4.889425e+02
      vertex 1.162253e+02 -3.645672e+01 -4.912922e+02
    endloop
  endfacet
  facet normal -5.000000e-01 8.639272e-01 -6.024806e-02
    outer loop
      vertex 1.151334e+02 -3.560364e+01 -5.045978e+02
      vertex 1.155186e+02 -3.494163e+01 -4.983015e+02
      vertex 1.155186e+02 -3.582218e+01 -5.109282e+02
    endloop
  endfacet
  facet normal -9.948108e-01 -4.732951e-02 9.006330e-02
    outer loop
      vertex 1.162253e+02 -3.645672e+01 -4.912922e+02
      vertex 1.155186e+02 -3.494163e+01 -4.983015e+02
      vertex 1.151923e+02 -3.734410e+01 -5.031688e+02
    endloop
  endfacet
  facet normal -9.981157e-01 1.508956e-02 5.947546e-02
    outer loop
      vertex 1.151334e+02 -3.560364e+01 -5.045978e+02
      vertex 1.151923e+02 -3.734410e+01 -5.031688e+02
      vertex 1.155186e+02 -3.494163e+01 -4.983015e+02
    endloop
  endfacet
  facet normal 0.000000e+00 9.975772e-01 -6.956846e-02
    outer loop
      vertex 2.494794e+02 -3.361415e+01 -4.792662e+02
      vertex 2.494794e+02 -3.582218e+01 -5.109282e+02
      vertex 1.155186e+02 -3.582218e+01 -5.109282e+02
    endloop
  endfacet
  facet normal -5.000000e-01 8.639272e-01 -6.024806e-02
    outer loop
      vertex 1.151334e+02 -3.560364e+01 -5.045978e+02
      vertex 1.155186e+02 -3.582218e+01 -5.109282e+02
      vertex 1.149992e+02 -3.612134e+01 -5.109073e+02
    endloop
  endfacet
  facet normal 5.000000e-01 8.639272e-01 -6.024806e-02
    outer loop
      vertex 2.499990e+02 -3.612145e+01 -5.109073e+02
      vertex 2.494794e+02 -3.582218e+01 -5.109282e+02
      vertex 2.494794e+02 -3.361415e+01 -4.792662e+02
    endloop
  endfacet
  facet normal 4.957623e-01 8.656433e-01 6.986638e-02
    outer loop
      vertex 2.499990e+02 -3.602987e+01 -5.120420e+02
      vertex 2.494794e+02 -3.582218e+01 -5.109282e+02
      vertex 2.499990e+02 -3.612145e+01 -5.109073e+02
    endloop
  endfacet
  facet normal 0.000000e+00 7.450883e-02 9.972204e-01
    outer loop
      vertex 2.496526e+02 -3.479548e+01 -4.791779e+02
      vertex 2.494794e+02 -3.361415e+01 -4.792662e+02
      vertex 1.182707e+02 -3.479548e+01 -4.791779e+02
    endloop
  endfacet
  facet normal -2.093053e-15 7.450883e-02 9.972204e-01
    outer loop
      vertex 2.499990e+02 -3.499492e+01 -4.791630e+02
      vertex 2.499990e+02 -3.391332e+01 -4.792438e+02
      vertex 2.494794e+02 -3.361415e+01 -4.792662e+02
    endloop
  endfacet
  facet normal 5.000000e-01 8.639272e-01 -6.024806e-02
    outer loop
      vertex 2.499990e+02 -3.612145e+01 -5.109073e+02
      vertex 2.494794e+02 -3.361415e+01 -4.792662e+02
      vertex 2.499990e+02 -3.391332e+01 -4.792438e+02
    endloop
  endfacet
  facet normal 1.408927e-13 7.450883e-02 9.972204e-01
    outer loop
      vertex 2.496526e+02 -3.479548e+01 -4.791779e+02
      vertex 2.499990e+02 -3.499492e+01 -4.791630e+02
      vertex 2.494794e+02 -3.361415e+01 -4.792662e+02
    endloop
  endfacet
  facet normal 0.000000e+00 9.972204e-01 -7.450883e-02
    outer loop
      vertex 2.496526e+02 -3.470763e+01 -4.780021e+02
      vertex 2.496526e+02 -3.479548e+01 -4.791779e+02
      vertex 1.182707e+02 -3.479548e+01 -4.791779e+02
    endloop
  endfacet
  facet normal 0.000000e+00 9.972204e-01 -7.450883e-02
    outer loop
      vertex 1.201051e+02 -3.470583e+01 -4.779780e+02
      vertex 2.494990e+02 -3.470583e+01 -4.779780e+02
      vertex 1.182707e+02 -3.479548e+01 -4.791779e+02
    endloop
  endfacet
  facet normal -6.594344e-15 9.972204e-01 -7.450883e-02
    outer loop
      vertex 2.495767e+02 -3.470628e+01 -4.779841e+02
      vertex 1.182707e+02 -3.479548e+01 -4.791779e+02
      vertex 2.494990e+02 -3.470583e+01 -4.779780e+02
    endloop
  endfacet
  facet normal 6.240803e-15 9.972204e-01 -7.450883e-02
    outer loop
      vertex 1.190082e+02 -3.473024e+01 -4.783047e+02
      vertex 1.201051e+02 -3.470583e+01 -4.779780e+02
      vertex 1.182707e+02 -3.479548e+01 -4.791779e+02
    endloop
  endfacet
  facet normal -7.633423e-01 1.102306e-01 6.365200e-01
    outer loop
      vertex 1.188381e+02 -3.549173e+01 -4.783768e+02
      vertex 1.190082e+02 -3.473024e+01 -4.783047e+02
      vertex 1.182707e+02 -3.479548e+01 -4.791779e+02
    endloop
  endfacet
  facet normal 2.197883e-16 9.972204e-01 -7.450883e-02
    outer loop
      vertex 2.495767e+02 -3.470628e+01 -4.779841e+02
      vertex 2.496526e+02 -3.470763e+01 -4.780021e+02
      vertex 1.182707e+02 -3.479548e+01 -4.791779e+02
    endloop
  endfacet
  facet normal -8.492483e-01 -9.443967e-02 5.194790e-01
    outer loop
      vertex 1.188381e+02 -3.549173e+01 -4.783768e+02
      vertex 1.182707e+02 -3.479548e+01 -4.791779e+02
      vertex 1.181444e+02 -3.557763e+01 -4.795265e+02
    endloop
  endfacet
  facet normal 1.000000e+00 0.000000e+00 0.000000e+00
    outer loop
      vertex 2.499990e+02 -3.593391e+01 -4.842950e+02
      vertex 2.499990e+02 -3.391332e+01 -4.792438e+02
      vertex 2.499990e+02 -3.499492e+01 -4.791630e+02
    endloop
  endfacet
  facet normal 1.000000e+00 0.000000e+00 0.000000e+00
    outer loop
      vertex 2.499990e+02 -3.778171e+01 -5.107915e+02
      vertex 2.499990e+02 -3.391332e+01 -4.792438e+02
      vertex 2.499990e+02 -3.593391e+01 -4.842950e+02
    endloop
  endfacet
  facet normal 1.000000e+00 0.000000e+00 0.000000e+00
    outer loop
      vertex 2.499990e+02 -3.612145e+01 -5.109073e+02
      vertex 2.499990e+02 -3.391332e+01 -4.792438e+02
      vertex 2.499990e+02 -3.778171e+01 -5.107915e+02
    endloop
  endfacet
  facet normal 5.000000e-01 8.636182e-01 -6.452654e-02
    outer loop
      vertex 2.496526e+02 -3.470763e+01 -4.780021e+02
      vertex 2.499990e+02 -3.499492e+01 -4.791630e+02
      vertex 2.496526e+02 -3.479548e+01 -4.791779e+02
    endloop
  endfacet
  facet normal 5.000000e-01 8.636182e-01 -6.452654e-02
    outer loop
      vertex 2.499990e+02 -3.494260e+01 -4.784627e+02
      vertex 2.499990e+02 -3.499492e+01 -4.791630e+02
      vertex 2.496526e+02 -3.470763e+01 -4.780021e+02
    endloop
  endfacet
  facet normal 1.000000e+00 0.000000e+00 0.000000e+00
    outer loop
      vertex 2.499990e+02 -3.494260e+01 -4.784627e+02
      vertex 2.499990e+02 -3.593391e+01 -4.842950e+02
      vertex 2.499990e+02 -3.499492e+01 -4.791630e+02
    endloop
  endfacet
  facet normal 0.000000e+00 6.956846e-02 9.975772e-01
    outer loop
      vertex 2.494990e+02 -3.545801e+01 -4.779255e+02
      vertex 2.494990e+02 -3.470583e+01 -4.779780e+02
      vertex 1.201051e+02 -3.470583e+01 -4.779780e+02
    endloop
  endfacet
  facet normal 7.699248e-02 -8.614161e-02 9.933035e-01
    outer loop
      vertex 2.498526e+02 -3.546892e+01 -4.780716e+02
      vertex 2.495767e+02 -3.470628e+01 -4.779841e+02
      vertex 2.494990e+02 -3.470583e+01 -4.779780e+02
    endloop
  endfacet
  facet normal 3.826724e-01 6.427320e-02 9.216457e-01
    outer loop
      vertex 2.498526e+02 -3.546892e+01 -4.780716e+02
      vertex 2.494990e+02 -3.470583e+01 -4.779780e+02
      vertex 2.494990e+02 -3.545801e+01 -4.779255e+02
    endloop
  endfacet
  facet normal -2.862017e-01 6.665837e-02 9.558479e-01
    outer loop
      vertex 1.201051e+02 -3.545801e+01 -4.779255e+02
      vertex 1.201051e+02 -3.470583e+01 -4.779780e+02
      vertex 1.190082e+02 -3.473024e+01 -4.783047e+02
    endloop
  endfacet
  facet normal 0.000000e+00 6.956846e-02 9.975772e-01
    outer loop
      vertex 1.201051e+02 -3.545801e+01 -4.779255e+02
      vertex 2.494990e+02 -3.545801e+01 -4.779255e+02
      vertex 1.201051e+02 -3.470583e+01 -4.779780e+02
    endloop
  endfacet
  facet normal -3.351735e-01 -1.434433e-02 9.420472e-01
    outer loop
      vertex 1.188381e+02 -3.549173e+01 -4.783768e+02
      vertex 1.201051e+02 -3.545801e+01 -4.779255e+02
      vertex 1.190082e+02 -3.473024e+01 -4.783047e+02
    endloop
  endfacet
  facet normal 2.308474e-01 -2.812104e-02 9.725835e-01
    outer loop
      vertex 2.498526e+02 -3.546892e+01 -4.780716e+02
      vertex 2.496526e+02 -3.470763e+01 -4.780021e+02
      vertex 2.495767e+02 -3.470628e+01 -4.779841e+02
    endloop
  endfacet
  facet normal 6.096661e-01 8.825106e-02 7.877303e-01
    outer loop
      vertex 2.499111e+02 -3.487090e+01 -4.781839e+02
      vertex 2.496526e+02 -3.470763e+01 -4.780021e+02
      vertex 2.498526e+02 -3.546892e+01 -4.780716e+02
    endloop
  endfacet
  facet normal 5.000000e-01 8.636182e-01 -6.452654e-02
    outer loop
      vertex 2.499111e+02 -3.487090e+01 -4.781839e+02
      vertex 2.499990e+02 -3.494260e+01 -4.784627e+02
      vertex 2.496526e+02 -3.470763e+01 -4.780021e+02
    endloop
  endfacet
  facet normal 0.000000e+00 -9.972204e-01 7.450883e-02
    outer loop
      vertex 2.497754e+02 -3.787579e+01 -5.102849e+02
      vertex 2.494990e+02 -3.545801e+01 -4.779255e+02
      vertex 1.201051e+02 -3.545801e+01 -4.779255e+02
    endloop
  endfacet
  facet normal -2.855138e-15 -9.972204e-01 7.450883e-02
    outer loop
      vertex 2.498526e+02 -3.546892e+01 -4.780716e+02
      vertex 2.494990e+02 -3.545801e+01 -4.779255e+02
      vertex 2.497754e+02 -3.787579e+01 -5.102849e+02
    endloop
  endfacet
  facet normal 1.192563e-15 -9.972204e-01 7.450883e-02
    outer loop
      vertex 1.188381e+02 -3.549173e+01 -4.783768e+02
      vertex 2.497754e+02 -3.787579e+01 -5.102849e+02
      vertex 1.201051e+02 -3.545801e+01 -4.779255e+02
    endloop
  endfacet
  facet normal 9.432658e-15 -9.972204e-01 7.450883e-02
    outer loop
      vertex 2.498526e+02 -3.546892e+01 -4.780716e+02
      vertex 2.499990e+02 -3.593391e+01 -4.842950e+02
      vertex 2.499990e+02 -3.549527e+01 -4.784242e+02
    endloop
  endfacet
  facet normal 1.000000e+00 0.000000e+00 0.000000e+00
    outer loop
      vertex 2.499990e+02 -3.494260e+01 -4.784627e+02
      vertex 2.499990e+02 -3.549527e+01 -4.784242e+02
      vertex 2.499990e+02 -3.593391e+01 -4.842950e+02
    endloop
  endfacet
  facet normal 9.228741e-01 -1.814317e-02 3.846741e-01
    outer loop
      vertex 2.499111e+02 -3.487090e+01 -4.781839e+02
      vertex 2.498526e+02 -3.546892e+01 -4.780716e+02
      vertex 2.499990e+02 -3.549527e+01 -4.784242e+02
    endloop
  endfacet
  facet normal 9.550582e-01 2.062136e-02 2.957001e-01
    outer loop
      vertex 2.499111e+02 -3.487090e+01 -4.781839e+02
      vertex 2.499990e+02 -3.549527e+01 -4.784242e+02
      vertex 2.499990e+02 -3.494260e+01 -4.784627e+02
    endloop
  endfacet
  facet normal -9.201994e-15 -9.972204e-01 7.450883e-02
    outer loop
      vertex 2.498526e+02 -3.546892e+01 -4.780716e+02
      vertex 2.497754e+02 -3.787579e+01 -5.102849e+02
      vertex 2.499990e+02 -3.593391e+01 -4.842950e+02
    endloop
  endfacet
  facet normal 5.000000e-01 -8.639272e-01 6.024806e-02
    outer loop
      vertex 2.499990e+02 -3.778171e+01 -5.107915e+02
      vertex 2.499990e+02 -3.593391e+01 -4.842950e+02
      vertex 2.497754e+02 -3.787579e+01 -5.102849e+02
    endloop
  endfacet
  facet normal 0.000000e+00 -9.972204e-01 7.450883e-02
    outer loop
      vertex 1.162253e+02 -3.645672e+01 -4.912922e+02
      vertex 1.152535e+02 -3.787579e+01 -5.102849e+02
      vertex 2.497754e+02 -3.787579e+01 -5.102849e+02
    endloop
  endfacet
  facet normal 0.000000e+00 7.450883e-02 9.972204e-01
    outer loop
      vertex 2.490826e+02 -3.827467e+01 -5.102551e+02
      vertex 2.497754e+02 -3.787579e+01 -5.102849e+02
      vertex 1.152535e+02 -3.787579e+01 -5.102849e+02
    endloop
  endfacet
  facet normal 7.051452e-17 -9.972204e-01 7.450883e-02
    outer loop
      vertex 1.181444e+02 -3.557763e+01 -4.795265e+02
      vertex 1.162253e+02 -3.645672e+01 -4.912922e+02
      vertex 2.497754e+02 -3.787579e+01 -5.102849e+02
    endloop
  endfacet
  facet normal -2.513556e-16 -9.972204e-01 7.450883e-02
    outer loop
      vertex 1.188381e+02 -3.549173e+01 -4.783768e+02
      vertex 1.181444e+02 -3.557763e+01 -4.795265e+02
      vertex 2.497754e+02 -3.787579e+01 -5.102849e+02
    endloop
  endfacet
  facet normal 5.000000e-01 -8.639272e-01 6.024806e-02
    outer loop
      vertex 2.490783e+02 -3.831199e+01 -5.107545e+02
      vertex 2.497754e+02 -3.787579e+01 -5.102849e+02
      vertex 2.490826e+02 -3.827467e+01 -5.102551e+02
    endloop
  endfacet
  facet normal 5.000000e-01 -8.639272e-01 6.024806e-02
    outer loop
      vertex 2.499990e+02 -3.778171e+01 -5.107915e+02
      vertex 2.497754e+02 -3.787579e+01 -5.102849e+02
      vertex 2.490783e+02 -3.831199e+01 -5.107545e+02
    endloop
  endfacet
  facet normal 1.754314e-15 -9.972204e-01 7.450883e-02
    outer loop
      vertex 1.162253e+02 -3.645672e+01 -4.912922e+02
      vertex 1.151923e+02 -3.734410e+01 -5.031688e+02
      vertex 1.152535e+02 -3.787579e+01 -5.102849e+02
    endloop
  endfacet
  facet normal -5.000000e-01 -8.639272e-01 6.024806e-02
    outer loop
      vertex 1.150501e+02 -3.752777e+01 -5.069820e+02
      vertex 1.152535e+02 -3.787579e+01 -5.102849e+02
      vertex 1.151923e+02 -3.734410e+01 -5.031688e+02
    endloop
  endfacet
  facet normal 0.000000e+00 7.450883e-02 9.972204e-01
    outer loop
      vertex 1.159463e+02 -3.827467e+01 -5.102551e+02
      vertex 2.490826e+02 -3.827467e+01 -5.102551e+02
      vertex 1.152535e+02 -3.787579e+01 -5.102849e+02
    endloop
  endfacet
  facet normal -5.000000e-01 -8.639272e-01 6.024806e-02
    outer loop
      vertex 1.149992e+02 -3.776402e+01 -5.107928e+02
      vertex 1.159463e+02 -3.827467e+01 -5.102551e+02
      vertex 1.152535e+02 -3.787579e+01 -5.102849e+02
    endloop
  endfacet
  facet normal -5.000000e-01 -8.639272e-01 6.024806e-02
    outer loop
      vertex 1.149992e+02 -3.776402e+01 -5.107928e+02
      vertex 1.152535e+02 -3.787579e+01 -5.102849e+02
      vertex 1.150501e+02 -3.752777e+01 -5.069820e+02
    endloop
  endfacet
  facet normal -9.992959e-01 -3.080200e-03 3.739346e-02
    outer loop
      vertex 1.151334e+02 -3.560364e+01 -5.045978e+02
      vertex 1.150501e+02 -3.752777e+01 -5.069820e+02
      vertex 1.151923e+02 -3.734410e+01 -5.031688e+02
    endloop
  endfacet
  facet normal 0.000000e+00 -9.972204e-01 7.450883e-02
    outer loop
      vertex 2.490783e+02 -3.831199e+01 -5.107545e+02
      vertex 2.490826e+02 -3.827467e+01 -5.102551e+02
      vertex 1.159463e+02 -3.827467e+01 -5.102551e+02
    endloop
  endfacet
  facet normal 0.000000e+00 -9.972204e-01 7.450883e-02
    outer loop
      vertex 1.319990e+02 -3.919295e+01 -5.225452e+02
      vertex 2.239990e+02 -3.919295e+01 -5.225452e+02
      vertex 1.159463e+02 -3.827467e+01 -5.102551e+02
    endloop
  endfacet
  facet normal 4.237264e-16 -9.972204e-01 7.450883e-02
    outer loop
      vertex 2.329940e+02 -3.921158e+01 -5.227945e+02
      vertex 1.159463e+02 -3.827467e+01 -5.102551e+02
      vertex 2.239990e+02 -3.919295e+01 -5.225452e+02
    endloop
  endfacet
  facet normal -9.751324e-16 -9.972204e-01 7.450883e-02
    outer loop
      vertex 1.305701e+02 -3.925442e+01 -5.233679e+02
      vertex 1.319990e+02 -3.919295e+01 -5.225452e+02
      vertex 1.159463e+02 -3.827467e+01 -5.102551e+02
    endloop
  endfacet
  facet normal -2.751479e-15 -9.972204e-01 7.450883e-02
    outer loop
      vertex 1.305701e+02 -3.937736e+01 -5.250133e+02
      vertex 1.305701e+02 -3.925442e+01 -5.233679e+02
      vertex 1.159463e+02 -3.827467e+01 -5.102551e+02
    endloop
  endfacet
  facet normal 2.854733e-16 -9.972204e-01 7.450883e-02
    outer loop
      vertex 1.178938e+02 -4.057739e+01 -5.410744e+02
      vertex 1.305701e+02 -3.937736e+01 -5.250133e+02
      vertex 1.159463e+02 -3.827467e+01 -5.102551e+02
    endloop
  endfacet
  facet normal 1.331227e-15 -9.972204e-01 7.450883e-02
    outer loop
      vertex 2.337453e+02 -3.902540e+01 -5.203027e+02
      vertex 2.352477e+02 -3.902540e+01 -5.203027e+02
      vertex 1.159463e+02 -3.827467e+01 -5.102551e+02
    endloop
  endfacet
  facet normal -2.637742e-17 -9.972204e-01 7.450883e-02
    outer loop
      vertex 2.490783e+02 -3.831199e+01 -5.107545e+02
      vertex 1.159463e+02 -3.827467e+01 -5.102551e+02
      vertex 2.352477e+02 -3.902540e+01 -5.203027e+02
    endloop
  endfacet
  facet normal 1.642727e-16 -9.972204e-01 7.450883e-02
    outer loop
      vertex 2.329940e+02 -3.912235e+01 -5.216003e+02
      vertex 2.337453e+02 -3.902540e+01 -5.203027e+02
      vertex 1.159463e+02 -3.827467e+01 -5.102551e+02
    endloop
  endfacet
  facet normal 5.069329e-17 -9.972204e-01 7.450883e-02
    outer loop
      vertex 2.329940e+02 -3.921158e+01 -5.227945e+02
      vertex 2.329940e+02 -3.912235e+01 -5.216003e+02
      vertex 1.159463e+02 -3.827467e+01 -5.102551e+02
    endloop
  endfacet
  facet normal 4.191250e-14 -9.972204e-01 7.450883e-02
    outer loop
      vertex 1.178315e+02 -4.055992e+01 -5.408406e+02
      vertex 1.178938e+02 -4.057739e+01 -5.410744e+02
      vertex 1.159463e+02 -3.827467e+01 -5.102551e+02
    endloop
  endfacet
  facet normal 7.732997e-14 -9.972204e-01 7.450883e-02
    outer loop
      vertex 1.177807e+02 -4.054224e+01 -5.406040e+02
      vertex 1.178315e+02 -4.055992e+01 -5.408406e+02
      vertex 1.159463e+02 -3.827467e+01 -5.102551e+02
    endloop
  endfacet
  facet normal -5.832550e-14 -9.972204e-01 7.450883e-02
    outer loop
      vertex 1.159506e+02 -3.831199e+01 -5.107545e+02
      vertex 1.177807e+02 -4.054224e+01 -5.406040e+02
      vertex 1.159463e+02 -3.827467e+01 -5.102551e+02
    endloop
  endfacet
  facet normal -5.000000e-01 -8.639272e-01 6.024806e-02
    outer loop
      vertex 1.149992e+02 -3.776402e+01 -5.107928e+02
      vertex 1.159506e+02 -3.831199e+01 -5.107545e+02
      vertex 1.159463e+02 -3.827467e+01 -5.102551e+02
    endloop
  endfacet
  facet normal 0.000000e+00 -9.972204e-01 7.450883e-02
    outer loop
      vertex 2.329940e+02 -3.921158e+01 -5.227945e+02
      vertex 2.244532e+02 -3.919770e+01 -5.226088e+02
      vertex 2.248722e+02 -3.921158e+01 -5.227945e+02
    endloop
  endfacet
  facet normal -3.197549e-15 -9.972204e-01 7.450883e-02
    outer loop
      vertex 2.329940e+02 -3.921158e+01 -5.227945e+02
      vertex 2.239990e+02 -3.919295e+01 -5.225452e+02
      vertex 2.244532e+02 -3.919770e+01 -5.226088e+02
    endloop
  endfacet
  facet normal -3.714862e-15 -9.972204e-01 7.450883e-02
    outer loop
      vertex 1.178938e+02 -4.057739e+01 -5.410744e+02
      vertex 1.319990e+02 -3.943883e+01 -5.258360e+02
      vertex 1.305701e+02 -3.937736e+01 -5.250133e+02
    endloop
  endfacet
  facet normal 0.000000e+00 -9.972204e-01 7.450883e-02
    outer loop
      vertex 2.499990e+02 -4.057739e+01 -5.410744e+02
      vertex 2.239990e+02 -3.943883e+01 -5.258360e+02
      vertex 1.319990e+02 -3.943883e+01 -5.258360e+02
    endloop
  endfacet
  facet normal 0.000000e+00 -9.972204e-01 7.450883e-02
    outer loop
      vertex 1.178938e+02 -4.057739e+01 -5.410744e+02
      vertex 2.499990e+02 -4.057739e+01 -5.410744e+02
      vertex 1.319990e+02 -3.943883e+01 -5.258360e+02
    endloop
  endfacet
  facet normal 9.916516e-15 -9.972204e-01 7.450883e-02
    outer loop
      vertex 2.499990e+02 -4.057739e+01 -5.410744e+02
      vertex 2.244532e+02 -3.943408e+01 -5.257724e+02
      vertex 2.239990e+02 -3.943883e+01 -5.258360e+02
    endloop
  endfacet
  facet normal -1.905401e-15 -9.972204e-01 7.450883e-02
    outer loop
      vertex 2.499990e+02 -4.057739e+01 -5.410744e+02
      vertex 2.248722e+02 -3.942020e+01 -5.255867e+02
      vertex 2.244532e+02 -3.943408e+01 -5.257724e+02
    endloop
  endfacet
  facet normal 0.000000e+00 -9.972204e-01 7.450883e-02
    outer loop
      vertex 2.329940e+02 -3.950943e+01 -5.267809e+02
      vertex 2.329940e+02 -3.942020e+01 -5.255867e+02
      vertex 2.248722e+02 -3.942020e+01 -5.255867e+02
    endloop
  endfacet
  facet normal -2.411405e-16 -9.972204e-01 7.450883e-02
    outer loop
      vertex 2.337453e+02 -3.960638e+01 -5.280785e+02
      vertex 2.329940e+02 -3.950943e+01 -5.267809e+02
      vertex 2.248722e+02 -3.942020e+01 -5.255867e+02
    endloop
  endfacet
  facet normal 7.576957e-16 -9.972204e-01 7.450883e-02
    outer loop
      vertex 2.499990e+02 -4.057739e+01 -5.410744e+02
      vertex 2.337453e+02 -3.960638e+01 -5.280785e+02
      vertex 2.248722e+02 -3.942020e+01 -5.255867e+02
    endloop
  endfacet
  facet normal -3.447335e-15 -9.972204e-01 7.450883e-02
    outer loop
      vertex 2.499990e+02 -4.057739e+01 -5.410744e+02
      vertex 2.352477e+02 -3.960638e+01 -5.280785e+02
      vertex 2.337453e+02 -3.960638e+01 -5.280785e+02
    endloop
  endfacet
  facet normal 1.103142e-15 -9.972204e-01 7.450883e-02
    outer loop
      vertex 2.499990e+02 -4.057739e+01 -5.410744e+02
      vertex 2.359990e+02 -3.950943e+01 -5.267809e+02
      vertex 2.352477e+02 -3.960638e+01 -5.280785e+02
    endloop
  endfacet
  facet normal -2.442392e-16 -9.972204e-01 7.450883e-02
    outer loop
      vertex 2.499990e+02 -4.057739e+01 -5.410744e+02
      vertex 2.359990e+02 -3.912235e+01 -5.216003e+02
      vertex 2.359990e+02 -3.950943e+01 -5.267809e+02
    endloop
  endfacet
  facet normal -1.000000e+00 0.000000e+00 0.000000e+00
    outer loop
      vertex 2.359990e+02 -3.884189e+01 -5.242223e+02
      vertex 2.359990e+02 -3.950943e+01 -5.267809e+02
      vertex 2.359990e+02 -3.912235e+01 -5.216003e+02
    endloop
  endfacet
  facet normal -1.000000e+00 0.000000e+00 0.000000e+00
    outer loop
      vertex 2.359990e+02 -3.840509e+01 -5.251288e+02
      vertex 2.359990e+02 -3.950943e+01 -5.267809e+02
      vertex 2.359990e+02 -3.884189e+01 -5.242223e+02
    endloop
  endfacet
  facet normal -2.045074e-15 -9.972204e-01 7.450883e-02
    outer loop
      vertex 2.490783e+02 -3.831199e+01 -5.107545e+02
      vertex 2.352477e+02 -3.902540e+01 -5.203027e+02
      vertex 2.359990e+02 -3.912235e+01 -5.216003e+02
    endloop
  endfacet
  facet normal -1.655743e-16 -9.972204e-01 7.450883e-02
    outer loop
      vertex 2.490783e+02 -3.831199e+01 -5.107545e+02
      vertex 2.359990e+02 -3.912235e+01 -5.216003e+02
      vertex 2.499990e+02 -4.057739e+01 -5.410744e+02
    endloop
  endfacet
  facet normal -1.000000e+00 0.000000e+00 0.000000e+00
    outer loop
      vertex 2.359990e+02 -3.827523e+01 -5.233908e+02
      vertex 2.359990e+02 -3.912235e+01 -5.216003e+02
      vertex 2.359990e+02 -3.727178e+01 -5.234658e+02
    endloop
  endfacet
  facet normal -1.000000e+00 0.000000e+00 0.000000e+00
    outer loop
      vertex 2.359990e+02 -3.884189e+01 -5.242223e+02
      vertex 2.359990e+02 -3.912235e+01 -5.216003e+02
      vertex 2.359990e+02 -3.827523e+01 -5.233908e+02
    endloop
  endfacet
  facet normal 0.000000e+00 -6.956846e-02 -9.975772e-01
    outer loop
      vertex 2.499990e+02 -4.050111e+01 -5.410797e+02
      vertex 2.499990e+02 -4.057739e+01 -5.410744e+02
      vertex 1.178938e+02 -4.057739e+01 -5.410744e+02
    endloop
  endfacet
  facet normal 2.042497e-14 -9.972204e-01 7.450883e-02
    outer loop
      vertex 2.493133e+02 -3.839942e+01 -5.119246e+02
      vertex 2.490783e+02 -3.831199e+01 -5.107545e+02
      vertex 2.499990e+02 -4.057739e+01 -5.410744e+02
    endloop
  endfacet
  facet normal 7.015480e-15 -9.972204e-01 7.450883e-02
    outer loop
      vertex 2.499990e+02 -3.847247e+01 -5.129024e+02
      vertex 2.493133e+02 -3.839942e+01 -5.119246e+02
      vertex 2.499990e+02 -4.057739e+01 -5.410744e+02
    endloop
  endfacet
  facet normal 1.000000e+00 0.000000e+00 0.000000e+00
    outer loop
      vertex 2.499990e+02 -4.004196e+01 -5.344957e+02
      vertex 2.499990e+02 -3.847247e+01 -5.129024e+02
      vertex 2.499990e+02 -4.057739e+01 -5.410744e+02
    endloop
  endfacet
  facet normal 1.000000e+00 0.000000e+00 0.000000e+00
    outer loop
      vertex 2.499990e+02 -4.004196e+01 -5.344957e+02
      vertex 2.499990e+02 -4.057739e+01 -5.410744e+02
      vertex 2.499990e+02 -4.050111e+01 -5.410797e+02
    endloop
  endfacet
  facet normal -9.665106e-01 -1.785313e-02 -2.560050e-01
    outer loop
      vertex 1.178938e+02 -3.918830e+01 -5.411713e+02
      vertex 1.178938e+02 -4.057739e+01 -5.410744e+02
      vertex 1.178315e+02 -4.055992e+01 -5.408406e+02
    endloop
  endfacet
  facet normal -9.777774e-01 -6.142545e-03 -2.095558e-01
    outer loop
      vertex 1.178938e+02 -3.918830e+01 -5.411713e+02
      vertex 1.178315e+02 -4.055992e+01 -5.408406e+02
      vertex 1.177807e+02 -4.054224e+01 -5.406040e+02
    endloop
  endfacet
  facet normal -4.350132e-15 -9.972204e-01 7.450883e-02
    outer loop
      vertex 1.159506e+02 -3.831199e+01 -5.107545e+02
      vertex 1.157902e+02 -3.951300e+01 -5.268287e+02
      vertex 1.177807e+02 -4.054224e+01 -5.406040e+02
    endloop
  endfacet
  facet normal -1.012882e-14 -9.972204e-01 7.450883e-02
    outer loop
      vertex 1.157106e+02 -3.840077e+01 -5.119427e+02
      vertex 1.150110e+02 -3.847480e+01 -5.129336e+02
      vertex 1.157902e+02 -3.951300e+01 -5.268287e+02
    endloop
  endfacet
  facet normal 8.332758e-15 -9.972204e-01 7.450883e-02
    outer loop
      vertex 1.159506e+02 -3.831199e+01 -5.107545e+02
      vertex 1.157106e+02 -3.840077e+01 -5.119427e+02
      vertex 1.157902e+02 -3.951300e+01 -5.268287e+02
    endloop
  endfacet
  facet normal -4.200651e-01 -8.335244e-01 3.588625e-01
    outer loop
      vertex 1.150007e+02 -3.796054e+01 -5.117511e+02
      vertex 1.150110e+02 -3.847480e+01 -5.129336e+02
      vertex 1.157106e+02 -3.840077e+01 -5.119427e+02
    endloop
  endfacet
  facet normal -9.999650e-01 -7.956844e-04 -8.328791e-03
    outer loop
      vertex 1.150014e+02 -3.603521e+01 -5.120104e+02
      vertex 1.150110e+02 -3.847480e+01 -5.129336e+02
      vertex 1.150007e+02 -3.796054e+01 -5.117511e+02
    endloop
  endfacet
  facet normal -4.879437e-01 -8.575897e-01 1.626373e-01
    outer loop
      vertex 1.150007e+02 -3.796054e+01 -5.117511e+02
      vertex 1.157106e+02 -3.840077e+01 -5.119427e+02
      vertex 1.159506e+02 -3.831199e+01 -5.107545e+02
    endloop
  endfacet
  facet normal -4.967409e-01 -8.503658e-01 1.735700e-01
    outer loop
      vertex 1.150007e+02 -3.796054e+01 -5.117511e+02
      vertex 1.159506e+02 -3.831199e+01 -5.107545e+02
      vertex 1.149992e+02 -3.776402e+01 -5.107928e+02
    endloop
  endfacet
  facet normal 4.972945e-01 -8.520251e-01 1.635586e-01
    outer loop
      vertex 2.499990e+02 -3.778171e+01 -5.107915e+02
      vertex 2.490783e+02 -3.831199e+01 -5.107545e+02
      vertex 2.493133e+02 -3.839942e+01 -5.119246e+02
    endloop
  endfacet
  facet normal 4.239880e-01 -8.312892e-01 3.594335e-01
    outer loop
      vertex 2.499990e+02 -3.798802e+01 -5.117820e+02
      vertex 2.493133e+02 -3.839942e+01 -5.119246e+02
      vertex 2.499990e+02 -3.847247e+01 -5.129024e+02
    endloop
  endfacet
  facet normal 4.785177e-01 -8.596259e-01 1.790645e-01
    outer loop
      vertex 2.499990e+02 -3.778171e+01 -5.107915e+02
      vertex 2.493133e+02 -3.839942e+01 -5.119246e+02
      vertex 2.499990e+02 -3.798802e+01 -5.117820e+02
    endloop
  endfacet
  facet normal 1.000000e+00 0.000000e+00 0.000000e+00
    outer loop
      vertex 2.499990e+02 -4.004196e+01 -5.344957e+02
      vertex 2.499990e+02 -3.884189e+01 -5.242223e+02
      vertex 2.499990e+02 -3.847247e+01 -5.129024e+02
    endloop
  endfacet
  facet normal 1.000000e+00 0.000000e+00 0.000000e+00
    outer loop
      vertex 2.499990e+02 -3.602987e+01 -5.120420e+02
      vertex 2.499990e+02 -3.798802e+01 -5.117820e+02
      vertex 2.499990e+02 -3.847247e+01 -5.129024e+02
    endloop
  endfacet
  facet normal 1.240312e-16 -9.975772e-01 6.956846e-02
    outer loop
      vertex 2.514635e+02 -4.028792e+01 -5.380227e+02
      vertex 2.499990e+02 -4.050111e+01 -5.410797e+02
      vertex 2.549990e+02 -4.038980e+01 -5.394836e+02
    endloop
  endfacet
  facet normal 9.189184e-16 -9.975772e-01 6.956846e-02
    outer loop
      vertex 2.514635e+02 -4.028792e+01 -5.380227e+02
      vertex 2.499990e+02 -4.004196e+01 -5.344957e+02
      vertex 2.499990e+02 -4.050111e+01 -5.410797e+02
    endloop
  endfacet
  facet normal 2.151051e-15 -9.975772e-01 6.956846e-02
    outer loop
      vertex 1.196938e+02 -3.936918e+01 -5.437650e+02
      vertex 1.226938e+02 -3.943875e+01 -5.447626e+02
      vertex 1.178938e+02 -3.918830e+01 -5.411713e+02
    endloop
  endfacet
  facet normal 0.000000e+00 -9.975772e-01 6.956846e-02
    outer loop
      vertex 1.239990e+02 -3.943875e+01 -5.447626e+02
      vertex 1.178938e+02 -3.918830e+01 -5.411713e+02
      vertex 1.226938e+02 -3.943875e+01 -5.447626e+02
    endloop
  endfacet
  facet normal -1.686952e-15 -9.975772e-01 6.956846e-02
    outer loop
      vertex 1.239990e+02 -3.943875e+01 -5.447626e+02
      vertex 1.239990e+02 -3.937238e+01 -5.438109e+02
      vertex 1.178938e+02 -3.918830e+01 -5.411713e+02
    endloop
  endfacet
  facet normal -1.000000e+00 0.000000e+00 0.000000e+00
    outer loop
      vertex 1.239990e+02 -4.084562e+01 -5.446644e+02
      vertex 1.239990e+02 -3.937238e+01 -5.438109e+02
      vertex 1.239990e+02 -3.943875e+01 -5.447626e+02
    endloop
  endfacet
  facet normal -1.000000e+00 0.000000e+00 0.000000e+00
    outer loop
      vertex 1.239990e+02 -4.084562e+01 -5.446644e+02
      vertex 1.239990e+02 -4.077454e+01 -5.437131e+02
      vertex 1.239990e+02 -3.937238e+01 -5.438109e+02
    endloop
  endfacet
  facet normal 0.000000e+00 -9.975772e-01 6.956846e-02
    outer loop
      vertex 2.940825e+02 -4.042585e+01 -5.400004e+02
      vertex 2.933049e+02 -4.038980e+01 -5.394836e+02
      vertex 2.549990e+02 -4.038980e+01 -5.394836e+02
    endloop
  endfacet
  facet normal 3.440959e-16 -9.975772e-01 6.956846e-02
    outer loop
      vertex 2.949990e+02 -4.043850e+01 -5.401819e+02
      vertex 2.940825e+02 -4.042585e+01 -5.400004e+02
      vertex 2.549990e+02 -4.038980e+01 -5.394836e+02
    endloop
  endfacet
  facet normal 0.000000e+00 -9.008726e-01 -4.340836e-01
    outer loop
      vertex 2.359990e+02 -3.683498e+01 -5.243723e+02
      vertex 2.499990e+02 -3.683498e+01 -5.243723e+02
      vertex 2.499990e+02 -3.727178e+01 -5.234658e+02
    endloop
  endfacet
  facet normal 1.000000e+00 0.000000e+00 0.000000e+00
    outer loop
      vertex 2.499990e+02 -4.004196e+01 -5.344957e+02
      vertex 2.499990e+02 -3.683498e+01 -5.243723e+02
      vertex 2.499990e+02 -3.740164e+01 -5.252038e+02
    endloop
  endfacet
  facet normal 0.000000e+00 -8.263637e-01 5.631367e-01
    outer loop
      vertex 2.359990e+02 -3.740164e+01 -5.252038e+02
      vertex 2.499990e+02 -3.740164e+01 -5.252038e+02
      vertex 2.499990e+02 -3.683498e+01 -5.243723e+02
    endloop
  endfacet
  facet normal 0.000000e+00 -8.263637e-01 5.631367e-01
    outer loop
      vertex 2.359990e+02 -3.740164e+01 -5.252038e+02
      vertex 2.499990e+02 -3.683498e+01 -5.243723e+02
      vertex 2.359990e+02 -3.683498e+01 -5.243723e+02
    endloop
  endfacet
  facet normal 0.000000e+00 -7.450883e-02 -9.972204e-01
    outer loop
      vertex 2.359990e+02 -3.727178e+01 -5.234658e+02
      vertex 2.499990e+02 -3.727178e+01 -5.234658e+02
      vertex 2.499990e+02 -3.827523e+01 -5.233908e+02
    endloop
  endfacet
  facet normal 0.000000e+00 -9.008726e-01 -4.340836e-01
    outer loop
      vertex 2.359990e+02 -3.727178e+01 -5.234658e+02
      vertex 2.359990e+02 -3.683498e+01 -5.243723e+02
      vertex 2.499990e+02 -3.727178e+01 -5.234658e+02
    endloop
  endfacet
  facet normal 0.000000e+00 8.263637e-01 -5.631367e-01
    outer loop
      vertex 2.359990e+02 -3.827523e+01 -5.233908e+02
      vertex 2.499990e+02 -3.827523e+01 -5.233908e+02
      vertex 2.499990e+02 -3.884189e+01 -5.242223e+02
    endloop
  endfacet
  facet normal 0.000000e+00 -7.450883e-02 -9.972204e-01
    outer loop
      vertex 2.359990e+02 -3.827523e+01 -5.233908e+02
      vertex 2.359990e+02 -3.727178e+01 -5.234658e+02
      vertex 2.499990e+02 -3.827523e+01 -5.233908e+02
    endloop
  endfacet
  facet normal 1.000000e+00 0.000000e+00 0.000000e+00
    outer loop
      vertex 2.499990e+02 -4.004196e+01 -5.344957e+02
      vertex 2.499990e+02 -3.840509e+01 -5.251288e+02
      vertex 2.499990e+02 -3.884189e+01 -5.242223e+02
    endloop
  endfacet
  facet normal 0.000000e+00 9.008726e-01 4.340836e-01
    outer loop
      vertex 2.359990e+02 -3.884189e+01 -5.242223e+02
      vertex 2.499990e+02 -3.884189e+01 -5.242223e+02
      vertex 2.499990e+02 -3.840509e+01 -5.251288e+02
    endloop
  endfacet
  facet normal 0.000000e+00 8.263637e-01 -5.631367e-01
    outer loop
      vertex 2.359990e+02 -3.884189e+01 -5.242223e+02
      vertex 2.359990e+02 -3.827523e+01 -5.233908e+02
      vertex 2.499990e+02 -3.884189e+01 -5.242223e+02
    endloop
  endfacet
  facet normal 1.000000e+00 0.000000e+00 0.000000e+00
    outer loop
      vertex 2.499990e+02 -4.004196e+01 -5.344957e+02
      vertex 2.499990e+02 -3.740164e+01 -5.252038e+02
      vertex 2.499990e+02 -3.840509e+01 -5.251288e+02
    endloop
  endfacet
  facet normal 0.000000e+00 7.450883e-02 9.972204e-01
    outer loop
      vertex 2.359990e+02 -3.840509e+01 -5.251288e+02
      vertex 2.499990e+02 -3.840509e+01 -5.251288e+02
      vertex 2.499990e+02 -3.740164e+01 -5.252038e+02
    endloop
  endfacet
  facet normal 0.000000e+00 9.008726e-01 4.340836e-01
    outer loop
      vertex 2.359990e+02 -3.840509e+01 -5.251288e+02
      vertex 2.359990e+02 -3.884189e+01 -5.242223e+02
      vertex 2.499990e+02 -3.840509e+01 -5.251288e+02
    endloop
  endfacet
  facet normal 0.000000e+00 7.450883e-02 9.972204e-01
    outer loop
      vertex 2.359990e+02 -3.740164e+01 -5.252038e+02
      vertex 2.359990e+02 -3.840509e+01 -5.251288e+02
      vertex 2.499990e+02 -3.740164e+01 -5.252038e+02
    endloop
  endfacet
  facet normal 1.000000e+00 0.000000e+00 0.000000e+00
    outer loop
      vertex 2.499990e+02 -3.612145e+01 -5.109073e+02
      vertex 2.499990e+02 -3.778171e+01 -5.107915e+02
      vertex 2.499990e+02 -3.798802e+01 -5.117820e+02
    endloop
  endfacet
  facet normal 1.000000e+00 0.000000e+00 0.000000e+00
    outer loop
      vertex 2.499990e+02 -3.602987e+01 -5.120420e+02
      vertex 2.499990e+02 -3.612145e+01 -5.109073e+02
      vertex 2.499990e+02 -3.798802e+01 -5.117820e+02
    endloop
  endfacet
  facet normal -9.999109e-01 9.462116e-04 1.331752e-02
    outer loop
      vertex 1.149992e+02 -3.612134e+01 -5.109073e+02
      vertex 1.149992e+02 -3.776402e+01 -5.107928e+02
      vertex 1.150501e+02 -3.752777e+01 -5.069820e+02
    endloop
  endfacet
  facet normal -9.996282e-01 1.883101e-02 1.972184e-02
    outer loop
      vertex 1.151334e+02 -3.560364e+01 -5.045978e+02
      vertex 1.149992e+02 -3.612134e+01 -5.109073e+02
      vertex 1.150501e+02 -3.752777e+01 -5.069820e+02
    endloop
  endfacet
  facet normal -9.999987e-01 -9.487546e-05 -1.611170e-03
    outer loop
      vertex 1.149992e+02 -3.612134e+01 -5.109073e+02
      vertex 1.150007e+02 -3.796054e+01 -5.117511e+02
      vertex 1.149992e+02 -3.776402e+01 -5.107928e+02
    endloop
  endfacet
  facet normal -9.999981e-01 6.265610e-05 -1.954541e-03
    outer loop
      vertex 1.149992e+02 -3.612134e+01 -5.109073e+02
      vertex 1.150014e+02 -3.603521e+01 -5.120104e+02
      vertex 1.150007e+02 -3.796054e+01 -5.117511e+02
    endloop
  endfacet
endsolid 053_100022597-12
