solid 106_100022596-17
  facet normal -1.000000e+00 0.000000e+00 0.000000e+00
    outer loop
      vertex -3.154791e+02 3.811284e+01 -4.798875e+02
      vertex -3.154791e+02 4.072281e+01 -4.787766e+02
      vertex -3.154791e+02 4.079433e+01 -4.796737e+02
    endloop
  endfacet
  facet normal 1.011851e-16 9.968378e-01 7.946301e-02
    outer loop
      vertex -2.454791e+02 4.072281e+01 -4.787766e+02
      vertex -3.154791e+02 4.079433e+01 -4.796737e+02
      vertex -3.154791e+02 4.072281e+01 -4.787766e+02
    endloop
  endfacet
  facet normal -2.243962e-15 7.946301e-02 -9.968378e-01
    outer loop
      vertex -2.904791e+02 4.079433e+01 -4.796737e+02
      vertex -3.154791e+02 3.811284e+01 -4.798875e+02
      vertex -3.154791e+02 4.079433e+01 -4.796737e+02
    endloop
  endfacet
  facet normal 4.639963e-16 9.968378e-01 7.946301e-02
    outer loop
      vertex -2.904791e+02 4.079433e+01 -4.796737e+02
      vertex -3.154791e+02 4.079433e+01 -4.796737e+02
      vertex -2.454791e+02 4.072281e+01 -4.787766e+02
    endloop
  endfacet
  facet normal -1.000000e+00 0.000000e+00 0.000000e+00
    outer loop
      vertex -3.154791e+02 3.811284e+01 -4.798875e+02
      vertex -3.154791e+02 3.939104e+01 -4.788827e+02
      vertex -3.154791e+02 4.072281e+01 -4.787766e+02
    endloop
  endfacet
  facet normal -1.118539e-17 -7.946301e-02 9.968378e-01
    outer loop
      vertex -1.135662e+02 3.939104e+01 -4.788827e+02
      vertex -3.154791e+02 4.072281e+01 -4.787766e+02
      vertex -3.154791e+02 3.939104e+01 -4.788827e+02
    endloop
  endfacet
  facet normal -8.065980e-18 -7.946301e-02 9.968378e-01
    outer loop
      vertex -2.454791e+02 4.072281e+01 -4.787766e+02
      vertex -3.154791e+02 4.072281e+01 -4.787766e+02
      vertex -1.135662e+02 3.939104e+01 -4.788827e+02
    endloop
  endfacet
  facet normal -1.000000e+00 0.000000e+00 0.000000e+00
    outer loop
      vertex -3.154791e+02 3.775525e+01 -4.754017e+02
      vertex -3.154791e+02 3.918078e+01 -4.762451e+02
      vertex -3.154791e+02 3.939104e+01 -4.788827e+02
    endloop
  endfacet
  facet normal 1.084126e-16 9.968378e-01 7.946301e-02
    outer loop
      vertex -1.194791e+02 3.918078e+01 -4.762451e+02
      vertex -3.154791e+02 3.939104e+01 -4.788827e+02
      vertex -3.154791e+02 3.918078e+01 -4.762451e+02
    endloop
  endfacet
  facet normal -1.000000e+00 0.000000e+00 0.000000e+00
    outer loop
      vertex -3.154791e+02 3.811284e+01 -4.798875e+02
      vertex -3.154791e+02 3.775525e+01 -4.754017e+02
      vertex -3.154791e+02 3.939104e+01 -4.788827e+02
    endloop
  endfacet
  facet normal 1.404239e-16 9.968378e-01 7.946301e-02
    outer loop
      vertex -1.153662e+02 3.918444e+01 -4.762910e+02
      vertex -1.135662e+02 3.939104e+01 -4.788827e+02
      vertex -3.154791e+02 3.939104e+01 -4.788827e+02
    endloop
  endfacet
  facet normal 7.884355e-16 9.968378e-01 7.946301e-02
    outer loop
      vertex -1.153662e+02 3.918444e+01 -4.762910e+02
      vertex -3.154791e+02 3.939104e+01 -4.788827e+02
      vertex -1.194791e+02 3.918078e+01 -4.762451e+02
    endloop
  endfacet
  facet normal -1.000000e+00 0.000000e+00 0.000000e+00
    outer loop
      vertex -3.154791e+02 4.046643e+01 -4.751856e+02
      vertex -3.154791e+02 4.054695e+01 -4.761362e+02
      vertex -3.154791e+02 3.918078e+01 -4.762451e+02
    endloop
  endfacet
  facet normal 1.152283e-17 7.946301e-02 -9.968378e-01
    outer loop
      vertex -1.194791e+02 4.054695e+01 -4.761362e+02
      vertex -3.154791e+02 3.918078e+01 -4.762451e+02
      vertex -3.154791e+02 4.054695e+01 -4.761362e+02
    endloop
  endfacet
  facet normal -1.000000e+00 0.000000e+00 0.000000e+00
    outer loop
      vertex -3.154791e+02 3.775525e+01 -4.754017e+02
      vertex -3.154791e+02 4.046643e+01 -4.751856e+02
      vertex -3.154791e+02 3.918078e+01 -4.762451e+02
    endloop
  endfacet
  facet normal 8.679499e-18 7.946301e-02 -9.968378e-01
    outer loop
      vertex -1.194791e+02 4.054695e+01 -4.761362e+02
      vertex -1.194791e+02 3.918078e+01 -4.762451e+02
      vertex -3.154791e+02 3.918078e+01 -4.762451e+02
    endloop
  endfacet
  facet normal 1.083685e-16 9.964320e-01 8.439959e-02
    outer loop
      vertex -1.194791e+02 4.046643e+01 -4.751856e+02
      vertex -3.154791e+02 4.054695e+01 -4.761362e+02
      vertex -3.154791e+02 4.046643e+01 -4.751856e+02
    endloop
  endfacet
  facet normal 1.445029e-16 9.964320e-01 8.439959e-02
    outer loop
      vertex -1.194791e+02 4.046643e+01 -4.751856e+02
      vertex -1.194791e+02 4.054695e+01 -4.761362e+02
      vertex -3.154791e+02 4.054695e+01 -4.761362e+02
    endloop
  endfacet
  facet normal -8.593329e-18 -7.946301e-02 9.968378e-01
    outer loop
      vertex -1.183662e+02 3.775525e+01 -4.754017e+02
      vertex -3.154791e+02 4.046643e+01 -4.751856e+02
      vertex -3.154791e+02 3.775525e+01 -4.754017e+02
    endloop
  endfacet
  facet normal -2.495081e-16 -7.946301e-02 9.968378e-01
    outer loop
      vertex -1.194791e+02 3.910497e+01 -4.752941e+02
      vertex -3.154791e+02 4.046643e+01 -4.751856e+02
      vertex -1.183662e+02 3.775525e+01 -4.754017e+02
    endloop
  endfacet
  facet normal -8.642122e-18 -7.946301e-02 9.968378e-01
    outer loop
      vertex -1.194791e+02 4.046643e+01 -4.751856e+02
      vertex -3.154791e+02 4.046643e+01 -4.751856e+02
      vertex -1.194791e+02 3.910497e+01 -4.752941e+02
    endloop
  endfacet
  facet normal -1.806780e-16 -9.968378e-01 -7.946301e-02
    outer loop
      vertex -2.904791e+02 3.811284e+01 -4.798875e+02
      vertex -3.154791e+02 3.775525e+01 -4.754017e+02
      vertex -3.154791e+02 3.811284e+01 -4.798875e+02
    endloop
  endfacet
  facet normal -1.078826e-16 -9.968378e-01 -7.946301e-02
    outer loop
      vertex -2.504791e+02 3.816846e+01 -4.805853e+02
      vertex -1.183662e+02 3.775525e+01 -4.754017e+02
      vertex -3.154791e+02 3.775525e+01 -4.754017e+02
    endloop
  endfacet
  facet normal -2.090635e-16 -9.968378e-01 -7.946301e-02
    outer loop
      vertex -2.904791e+02 3.811284e+01 -4.798875e+02
      vertex -2.504791e+02 3.816846e+01 -4.805853e+02
      vertex -3.154791e+02 3.775525e+01 -4.754017e+02
    endloop
  endfacet
  facet normal -2.266671e-15 7.946301e-02 -9.968378e-01
    outer loop
      vertex -2.904791e+02 4.079433e+01 -4.796737e+02
      vertex -2.904791e+02 3.811284e+01 -4.798875e+02
      vertex -3.154791e+02 3.811284e+01 -4.798875e+02
    endloop
  endfacet
  facet normal -1.533413e-16 -9.968378e-01 -7.946301e-02
    outer loop
      vertex -1.116915e+02 4.051691e+01 -5.100458e+02
      vertex -1.274791e+02 3.967643e+01 -4.995023e+02
      vertex -2.194791e+02 3.967643e+01 -4.995023e+02
    endloop
  endfacet
  facet normal -1.232463e-17 -7.946301e-02 9.968378e-01
    outer loop
      vertex -2.194791e+02 4.250698e+01 -4.992766e+02
      vertex -2.194791e+02 3.967643e+01 -4.995023e+02
      vertex -1.274791e+02 3.967643e+01 -4.995023e+02
    endloop
  endfacet
  facet normal -1.065988e-15 -9.968378e-01 -7.946301e-02
    outer loop
      vertex -2.199336e+02 3.967135e+01 -4.994386e+02
      vertex -2.284741e+02 3.965657e+01 -4.992531e+02
      vertex -2.194791e+02 3.967643e+01 -4.995023e+02
    endloop
  endfacet
  facet normal 1.015906e-15 -9.968378e-01 -7.946301e-02
    outer loop
      vertex -1.116915e+02 4.051691e+01 -5.100458e+02
      vertex -2.194791e+02 3.967643e+01 -4.995023e+02
      vertex -2.284741e+02 3.965657e+01 -4.992531e+02
    endloop
  endfacet
  facet normal 1.391629e-01 -7.868977e-02 9.871381e-01
    outer loop
      vertex -2.199336e+02 4.250159e+01 -4.992130e+02
      vertex -2.199336e+02 3.967135e+01 -4.994386e+02
      vertex -2.194791e+02 3.967643e+01 -4.995023e+02
    endloop
  endfacet
  facet normal 1.391627e-01 -7.868979e-02 9.871381e-01
    outer loop
      vertex -2.199336e+02 4.250159e+01 -4.992130e+02
      vertex -2.194791e+02 3.967643e+01 -4.995023e+02
      vertex -2.194791e+02 4.250698e+01 -4.992766e+02
    endloop
  endfacet
  facet normal -9.467862e-16 -9.968378e-01 -7.946301e-02
    outer loop
      vertex -1.116915e+02 4.051691e+01 -5.100458e+02
      vertex -1.260501e+02 3.961085e+01 -4.986796e+02
      vertex -1.274791e+02 3.967643e+01 -4.995023e+02
    endloop
  endfacet
  facet normal -5.000957e-01 -6.881259e-02 8.632318e-01
    outer loop
      vertex -1.274791e+02 4.250698e+01 -4.992766e+02
      vertex -1.274791e+02 3.967643e+01 -4.995023e+02
      vertex -1.260501e+02 3.961085e+01 -4.986796e+02
    endloop
  endfacet
  facet normal -1.227432e-17 -7.946301e-02 9.968378e-01
    outer loop
      vertex -1.274791e+02 4.250698e+01 -4.992766e+02
      vertex -2.194791e+02 4.250698e+01 -4.992766e+02
      vertex -1.274791e+02 3.967643e+01 -4.995023e+02
    endloop
  endfacet
  facet normal 3.524995e-15 -9.968378e-01 -7.946301e-02
    outer loop
      vertex -1.116915e+02 4.051691e+01 -5.100458e+02
      vertex -1.260501e+02 3.947978e+01 -4.970353e+02
      vertex -1.260501e+02 3.961085e+01 -4.986796e+02
    endloop
  endfacet
  facet normal -1.000000e+00 -9.238444e-07 -7.364433e-08
    outer loop
      vertex -1.260501e+02 4.243733e+01 -4.984543e+02
      vertex -1.260501e+02 3.961085e+01 -4.986796e+02
      vertex -1.260501e+02 3.947978e+01 -4.970353e+02
    endloop
  endfacet
  facet normal -5.000943e-01 -6.881173e-02 8.632327e-01
    outer loop
      vertex -1.274791e+02 4.250698e+01 -4.992766e+02
      vertex -1.260501e+02 3.961085e+01 -4.986796e+02
      vertex -1.260501e+02 4.243733e+01 -4.984543e+02
    endloop
  endfacet
  facet normal 1.141332e-15 -9.968378e-01 -7.946301e-02
    outer loop
      vertex -1.183662e+02 3.775525e+01 -4.754017e+02
      vertex -1.274791e+02 3.941420e+01 -4.962127e+02
      vertex -1.260501e+02 3.947978e+01 -4.970353e+02
    endloop
  endfacet
  facet normal -5.000957e-01 6.881353e-02 -8.632317e-01
    outer loop
      vertex -1.260501e+02 4.229811e+01 -4.968107e+02
      vertex -1.260501e+02 3.947978e+01 -4.970353e+02
      vertex -1.274791e+02 3.941420e+01 -4.962127e+02
    endloop
  endfacet
  facet normal -6.727619e-16 -9.968378e-01 -7.946301e-02
    outer loop
      vertex -1.116915e+02 4.051691e+01 -5.100458e+02
      vertex -1.183662e+02 3.775525e+01 -4.754017e+02
      vertex -1.260501e+02 3.947978e+01 -4.970353e+02
    endloop
  endfacet
  facet normal -1.000000e+00 -9.308987e-07 -8.834731e-08
    outer loop
      vertex -1.260501e+02 4.243733e+01 -4.984543e+02
      vertex -1.260501e+02 3.947978e+01 -4.970353e+02
      vertex -1.260501e+02 4.229811e+01 -4.968107e+02
    endloop
  endfacet
  facet normal -7.879487e-17 -9.968378e-01 -7.946301e-02
    outer loop
      vertex -2.469435e+02 3.828483e+01 -4.820451e+02
      vertex -2.194791e+02 3.941420e+01 -4.962127e+02
      vertex -1.274791e+02 3.941420e+01 -4.962127e+02
    endloop
  endfacet
  facet normal 5.984272e-18 7.946301e-02 -9.968378e-01
    outer loop
      vertex -1.274791e+02 4.222846e+01 -4.959884e+02
      vertex -1.274791e+02 3.941420e+01 -4.962127e+02
      vertex -2.194791e+02 3.941420e+01 -4.962127e+02
    endloop
  endfacet
  facet normal -9.796807e-17 -9.968378e-01 -7.946301e-02
    outer loop
      vertex -2.504791e+02 3.816846e+01 -4.805853e+02
      vertex -1.274791e+02 3.941420e+01 -4.962127e+02
      vertex -1.183662e+02 3.775525e+01 -4.754017e+02
    endloop
  endfacet
  facet normal -6.036404e-16 -9.968378e-01 -7.946301e-02
    outer loop
      vertex -2.504791e+02 3.816846e+01 -4.805853e+02
      vertex -2.469435e+02 3.828483e+01 -4.820451e+02
      vertex -1.274791e+02 3.941420e+01 -4.962127e+02
    endloop
  endfacet
  facet normal -5.000943e-01 6.881265e-02 -8.632326e-01
    outer loop
      vertex -1.260501e+02 4.229811e+01 -4.968107e+02
      vertex -1.274791e+02 3.941420e+01 -4.962127e+02
      vertex -1.274791e+02 4.222846e+01 -4.959884e+02
    endloop
  endfacet
  facet normal 1.729938e-15 -9.968378e-01 -7.946301e-02
    outer loop
      vertex -2.469435e+02 3.828483e+01 -4.820451e+02
      vertex -2.199336e+02 3.941928e+01 -4.962764e+02
      vertex -2.194791e+02 3.941420e+01 -4.962127e+02
    endloop
  endfacet
  facet normal 1.391629e-01 7.868979e-02 -9.871381e-01
    outer loop
      vertex -2.194791e+02 4.222846e+01 -4.959884e+02
      vertex -2.194791e+02 3.941420e+01 -4.962127e+02
      vertex -2.199336e+02 3.941928e+01 -4.962764e+02
    endloop
  endfacet
  facet normal 6.137159e-18 7.946301e-02 -9.968378e-01
    outer loop
      vertex -1.274791e+02 4.222846e+01 -4.959884e+02
      vertex -2.194791e+02 3.941420e+01 -4.962127e+02
      vertex -2.194791e+02 4.222846e+01 -4.959884e+02
    endloop
  endfacet
  facet normal -3.228513e-16 -9.968378e-01 -7.946301e-02
    outer loop
      vertex -2.469435e+02 3.828483e+01 -4.820451e+02
      vertex -2.203523e+02 3.943407e+01 -4.964619e+02
      vertex -2.199336e+02 3.941928e+01 -4.962764e+02
    endloop
  endfacet
  facet normal 4.062280e-01 7.261103e-02 -9.108822e-01
    outer loop
      vertex -2.199336e+02 4.223385e+01 -4.960520e+02
      vertex -2.199336e+02 3.941928e+01 -4.962764e+02
      vertex -2.203523e+02 3.943407e+01 -4.964619e+02
    endloop
  endfacet
  facet normal 1.391627e-01 7.868982e-02 -9.871381e-01
    outer loop
      vertex -2.194791e+02 4.222846e+01 -4.959884e+02
      vertex -2.199336e+02 3.941928e+01 -4.962764e+02
      vertex -2.199336e+02 4.223385e+01 -4.960520e+02
    endloop
  endfacet
  facet normal -8.732619e-16 -9.968378e-01 -7.946301e-02
    outer loop
      vertex -2.284741e+02 3.933891e+01 -4.952682e+02
      vertex -2.284741e+02 3.943407e+01 -4.964619e+02
      vertex -2.203523e+02 3.943407e+01 -4.964619e+02
    endloop
  endfacet
  facet normal 7.259727e-17 7.946301e-02 -9.968378e-01
    outer loop
      vertex -2.203523e+02 4.224956e+01 -4.962375e+02
      vertex -2.203523e+02 3.943407e+01 -4.964619e+02
      vertex -2.284741e+02 3.943407e+01 -4.964619e+02
    endloop
  endfacet
  facet normal 3.731910e-16 -9.968378e-01 -7.946301e-02
    outer loop
      vertex -2.292256e+02 3.923551e+01 -4.939711e+02
      vertex -2.284741e+02 3.933891e+01 -4.952682e+02
      vertex -2.203523e+02 3.943407e+01 -4.964619e+02
    endloop
  endfacet
  facet normal -7.750090e-16 -9.968378e-01 -7.946301e-02
    outer loop
      vertex -2.469435e+02 3.828483e+01 -4.820451e+02
      vertex -2.292256e+02 3.923551e+01 -4.939711e+02
      vertex -2.203523e+02 3.943407e+01 -4.964619e+02
    endloop
  endfacet
  facet normal 4.062279e-01 7.261106e-02 -9.108823e-01
    outer loop
      vertex -2.199336e+02 4.223385e+01 -4.960520e+02
      vertex -2.203523e+02 3.943407e+01 -4.964619e+02
      vertex -2.203523e+02 4.224956e+01 -4.962375e+02
    endloop
  endfacet
  facet normal -1.000000e+00 0.000000e+00 0.000000e+00
    outer loop
      vertex -2.284741e+02 4.214849e+01 -4.950442e+02
      vertex -2.284741e+02 3.943407e+01 -4.964619e+02
      vertex -2.284741e+02 3.933891e+01 -4.952682e+02
    endloop
  endfacet
  facet normal -1.000000e+00 0.000000e+00 0.000000e+00
    outer loop
      vertex -2.284741e+02 4.224956e+01 -4.962375e+02
      vertex -2.284741e+02 3.943407e+01 -4.964619e+02
      vertex -2.284741e+02 4.214849e+01 -4.950442e+02
    endloop
  endfacet
  facet normal 0.000000e+00 7.946301e-02 -9.968378e-01
    outer loop
      vertex -2.203523e+02 4.224956e+01 -4.962375e+02
      vertex -2.284741e+02 3.943407e+01 -4.964619e+02
      vertex -2.284741e+02 4.224956e+01 -4.962375e+02
    endloop
  endfacet
  facet normal -8.659701e-01 3.973911e-02 -4.985143e-01
    outer loop
      vertex -2.284741e+02 4.214849e+01 -4.950442e+02
      vertex -2.284741e+02 3.933891e+01 -4.952682e+02
      vertex -2.292256e+02 3.923551e+01 -4.939711e+02
    endloop
  endfacet
  facet normal 2.965466e-15 -9.968378e-01 -7.946301e-02
    outer loop
      vertex -2.469435e+02 3.828483e+01 -4.820451e+02
      vertex -2.307276e+02 3.923551e+01 -4.939711e+02
      vertex -2.292256e+02 3.923551e+01 -4.939711e+02
    endloop
  endfacet
  facet normal 3.771821e-14 7.946385e-02 -9.968377e-01
    outer loop
      vertex -2.292256e+02 4.203866e+01 -4.937476e+02
      vertex -2.292256e+02 3.923551e+01 -4.939711e+02
      vertex -2.307276e+02 3.923551e+01 -4.939711e+02
    endloop
  endfacet
  facet normal -8.659693e-01 3.973837e-02 -4.985158e-01
    outer loop
      vertex -2.284741e+02 4.214849e+01 -4.950442e+02
      vertex -2.292256e+02 3.923551e+01 -4.939711e+02
      vertex -2.292256e+02 4.203866e+01 -4.937476e+02
    endloop
  endfacet
  facet normal -5.903219e-16 -9.968378e-01 -7.946301e-02
    outer loop
      vertex -2.469435e+02 3.828483e+01 -4.820451e+02
      vertex -2.314791e+02 3.933891e+01 -4.952682e+02
      vertex -2.307276e+02 3.923551e+01 -4.939711e+02
    endloop
  endfacet
  facet normal 8.659701e-01 3.973825e-02 -4.985144e-01
    outer loop
      vertex -2.307276e+02 4.203866e+01 -4.937476e+02
      vertex -2.307276e+02 3.923551e+01 -4.939711e+02
      vertex -2.314791e+02 3.933891e+01 -4.952682e+02
    endloop
  endfacet
  facet normal -9.464308e-09 7.946386e-02 -9.968377e-01
    outer loop
      vertex -2.292256e+02 4.203866e+01 -4.937476e+02
      vertex -2.307276e+02 3.923551e+01 -4.939711e+02
      vertex -2.307276e+02 4.203866e+01 -4.937476e+02
    endloop
  endfacet
  facet normal -3.980000e-16 -9.968378e-01 -7.946301e-02
    outer loop
      vertex -2.469435e+02 3.828483e+01 -4.820451e+02
      vertex -2.314791e+02 3.975172e+01 -5.004468e+02
      vertex -2.314791e+02 3.933891e+01 -4.952682e+02
    endloop
  endfacet
  facet normal 1.000000e+00 0.000000e+00 0.000000e+00
    outer loop
      vertex -2.314791e+02 3.995385e+01 -4.978299e+02
      vertex -2.314791e+02 3.933891e+01 -4.952682e+02
      vertex -2.314791e+02 3.975172e+01 -5.004468e+02
    endloop
  endfacet
  facet normal 8.659693e-01 3.973922e-02 -4.985157e-01
    outer loop
      vertex -2.307276e+02 4.203866e+01 -4.937476e+02
      vertex -2.314791e+02 3.933891e+01 -4.952682e+02
      vertex -2.314791e+02 4.214849e+01 -4.950442e+02
    endloop
  endfacet
  facet normal 1.000000e+00 0.000000e+00 0.000000e+00
    outer loop
      vertex -2.314791e+02 4.038152e+01 -4.969193e+02
      vertex -2.314791e+02 4.214849e+01 -4.950442e+02
      vertex -2.314791e+02 3.933891e+01 -4.952682e+02
    endloop
  endfacet
  facet normal 1.000000e+00 0.000000e+00 0.000000e+00
    outer loop
      vertex -2.314791e+02 4.038152e+01 -4.969193e+02
      vertex -2.314791e+02 3.933891e+01 -4.952682e+02
      vertex -2.314791e+02 3.995385e+01 -4.978299e+02
    endloop
  endfacet
  facet normal 2.603970e-16 -9.968378e-01 -7.946301e-02
    outer loop
      vertex -2.442667e+02 4.051691e+01 -5.100458e+02
      vertex -2.307276e+02 3.985512e+01 -5.017439e+02
      vertex -2.314791e+02 3.975172e+01 -5.004468e+02
    endloop
  endfacet
  facet normal 8.659701e-01 -3.973911e-02 4.985143e-01
    outer loop
      vertex -2.314791e+02 4.258695e+01 -5.002208e+02
      vertex -2.314791e+02 3.975172e+01 -5.004468e+02
      vertex -2.307276e+02 3.985512e+01 -5.017439e+02
    endloop
  endfacet
  facet normal -6.545543e-17 -9.968378e-01 -7.946301e-02
    outer loop
      vertex -2.454791e+02 3.856578e+01 -4.855695e+02
      vertex -2.442667e+02 4.051691e+01 -5.100458e+02
      vertex -2.314791e+02 3.975172e+01 -5.004468e+02
    endloop
  endfacet
  facet normal 2.891842e-15 -9.968378e-01 -7.946301e-02
    outer loop
      vertex -2.469435e+02 3.828483e+01 -4.820451e+02
      vertex -2.454791e+02 3.856578e+01 -4.855695e+02
      vertex -2.314791e+02 3.975172e+01 -5.004468e+02
    endloop
  endfacet
  facet normal 1.000000e+00 0.000000e+00 0.000000e+00
    outer loop
      vertex -2.314791e+02 4.153150e+01 -4.985707e+02
      vertex -2.314791e+02 3.975172e+01 -5.004468e+02
      vertex -2.314791e+02 4.258695e+01 -5.002208e+02
    endloop
  endfacet
  facet normal 1.000000e+00 0.000000e+00 0.000000e+00
    outer loop
      vertex -2.314791e+02 4.052860e+01 -4.986556e+02
      vertex -2.314791e+02 3.995385e+01 -4.978299e+02
      vertex -2.314791e+02 3.975172e+01 -5.004468e+02
    endloop
  endfacet
  facet normal 1.000000e+00 0.000000e+00 0.000000e+00
    outer loop
      vertex -2.314791e+02 4.052860e+01 -4.986556e+02
      vertex -2.314791e+02 3.975172e+01 -5.004468e+02
      vertex -2.314791e+02 4.153150e+01 -4.985707e+02
    endloop
  endfacet
  facet normal 0.000000e+00 -9.968378e-01 -7.946301e-02
    outer loop
      vertex -1.116915e+02 4.051691e+01 -5.100458e+02
      vertex -2.292256e+02 3.985512e+01 -5.017439e+02
      vertex -2.307276e+02 3.985512e+01 -5.017439e+02
    endloop
  endfacet
  facet normal 0.000000e+00 -7.946217e-02 9.968379e-01
    outer loop
      vertex -2.307276e+02 4.269678e+01 -5.015174e+02
      vertex -2.307276e+02 3.985512e+01 -5.017439e+02
      vertex -2.292256e+02 3.985512e+01 -5.017439e+02
    endloop
  endfacet
  facet normal -1.068520e-16 -9.968378e-01 -7.946301e-02
    outer loop
      vertex -2.442667e+02 4.051691e+01 -5.100458e+02
      vertex -1.116915e+02 4.051691e+01 -5.100458e+02
      vertex -2.307276e+02 3.985512e+01 -5.017439e+02
    endloop
  endfacet
  facet normal 8.659693e-01 -3.974006e-02 4.985156e-01
    outer loop
      vertex -2.314791e+02 4.258695e+01 -5.002208e+02
      vertex -2.307276e+02 3.985512e+01 -5.017439e+02
      vertex -2.307276e+02 4.269678e+01 -5.015174e+02
    endloop
  endfacet
  facet normal -1.562130e-16 -9.968378e-01 -7.946301e-02
    outer loop
      vertex -1.116915e+02 4.051691e+01 -5.100458e+02
      vertex -2.284741e+02 3.975172e+01 -5.004468e+02
      vertex -2.292256e+02 3.985512e+01 -5.017439e+02
    endloop
  endfacet
  facet normal -8.659701e-01 -3.973995e-02 4.985142e-01
    outer loop
      vertex -2.292256e+02 4.269678e+01 -5.015174e+02
      vertex -2.292256e+02 3.985512e+01 -5.017439e+02
      vertex -2.284741e+02 3.975172e+01 -5.004468e+02
    endloop
  endfacet
  facet normal 9.464308e-09 -7.946216e-02 9.968379e-01
    outer loop
      vertex -2.307276e+02 4.269678e+01 -5.015174e+02
      vertex -2.292256e+02 3.985512e+01 -5.017439e+02
      vertex -2.292256e+02 4.269678e+01 -5.015174e+02
    endloop
  endfacet
  facet normal -2.413405e-16 -9.968378e-01 -7.946301e-02
    outer loop
      vertex -1.116915e+02 4.051691e+01 -5.100458e+02
      vertex -2.284741e+02 3.965657e+01 -4.992531e+02
      vertex -2.284741e+02 3.975172e+01 -5.004468e+02
    endloop
  endfacet
  facet normal -1.000000e+00 0.000000e+00 0.000000e+00
    outer loop
      vertex -2.284741e+02 4.248588e+01 -4.990275e+02
      vertex -2.284741e+02 3.975172e+01 -5.004468e+02
      vertex -2.284741e+02 3.965657e+01 -4.992531e+02
    endloop
  endfacet
  facet normal -1.000000e+00 0.000000e+00 0.000000e+00
    outer loop
      vertex -2.284741e+02 4.258695e+01 -5.002208e+02
      vertex -2.284741e+02 3.975172e+01 -5.004468e+02
      vertex -2.284741e+02 4.248588e+01 -4.990275e+02
    endloop
  endfacet
  facet normal -8.659693e-01 -3.973922e-02 4.985157e-01
    outer loop
      vertex -2.292256e+02 4.269678e+01 -5.015174e+02
      vertex -2.284741e+02 3.975172e+01 -5.004468e+02
      vertex -2.284741e+02 4.258695e+01 -5.002208e+02
    endloop
  endfacet
  facet normal 0.000000e+00 -9.968378e-01 -7.946301e-02
    outer loop
      vertex -2.199336e+02 3.967135e+01 -4.994386e+02
      vertex -2.203523e+02 3.965657e+01 -4.992531e+02
      vertex -2.284741e+02 3.965657e+01 -4.992531e+02
    endloop
  endfacet
  facet normal 0.000000e+00 -7.946301e-02 9.968378e-01
    outer loop
      vertex -2.284741e+02 4.248588e+01 -4.990275e+02
      vertex -2.284741e+02 3.965657e+01 -4.992531e+02
      vertex -2.203523e+02 3.965657e+01 -4.992531e+02
    endloop
  endfacet
  facet normal 4.062280e-01 -7.261105e-02 9.108822e-01
    outer loop
      vertex -2.203523e+02 4.248588e+01 -4.990275e+02
      vertex -2.203523e+02 3.965657e+01 -4.992531e+02
      vertex -2.199336e+02 3.967135e+01 -4.994386e+02
    endloop
  endfacet
  facet normal 0.000000e+00 -7.946301e-02 9.968378e-01
    outer loop
      vertex -2.284741e+02 4.248588e+01 -4.990275e+02
      vertex -2.203523e+02 3.965657e+01 -4.992531e+02
      vertex -2.203523e+02 4.248588e+01 -4.990275e+02
    endloop
  endfacet
  facet normal 4.062279e-01 -7.261108e-02 9.108823e-01
    outer loop
      vertex -2.203523e+02 4.248588e+01 -4.990275e+02
      vertex -2.199336e+02 3.967135e+01 -4.994386e+02
      vertex -2.199336e+02 4.250159e+01 -4.992130e+02
    endloop
  endfacet
  facet normal -1.381910e-16 -9.968378e-01 -7.946301e-02
    outer loop
      vertex -1.116915e+02 4.051691e+01 -5.100458e+02
      vertex -1.151884e+02 3.784582e+01 -4.765379e+02
      vertex -1.183662e+02 3.775525e+01 -4.754017e+02
    endloop
  endfacet
  facet normal 3.376049e-01 -7.479757e-02 9.383114e-01
    outer loop
      vertex -1.183662e+02 3.910497e+01 -4.752941e+02
      vertex -1.183662e+02 3.775525e+01 -4.754017e+02
      vertex -1.151884e+02 3.784582e+01 -4.765379e+02
    endloop
  endfacet
  facet normal 0.000000e+00 -7.946301e-02 9.968378e-01
    outer loop
      vertex -1.194791e+02 3.910497e+01 -4.752941e+02
      vertex -1.183662e+02 3.775525e+01 -4.754017e+02
      vertex -1.183662e+02 3.910497e+01 -4.752941e+02
    endloop
  endfacet
  facet normal 2.961805e-15 -9.968378e-01 -7.946301e-02
    outer loop
      vertex -1.116915e+02 4.051691e+01 -5.100458e+02
      vertex -1.134593e+02 3.807624e+01 -4.794284e+02
      vertex -1.151884e+02 3.784582e+01 -4.765379e+02
    endloop
  endfacet
  facet normal 8.547670e-01 -1.381490e-01 5.002881e-01
    outer loop
      vertex -1.135662e+02 3.939104e+01 -4.788827e+02
      vertex -1.151884e+02 3.784582e+01 -4.765379e+02
      vertex -1.134593e+02 3.807624e+01 -4.794284e+02
    endloop
  endfacet
  facet normal 8.211977e-01 3.836699e-03 5.706308e-01
    outer loop
      vertex -1.153662e+02 3.918444e+01 -4.762910e+02
      vertex -1.151884e+02 3.784582e+01 -4.765379e+02
      vertex -1.135662e+02 3.939104e+01 -4.788827e+02
    endloop
  endfacet
  facet normal 3.157261e-01 -1.313954e-01 9.397086e-01
    outer loop
      vertex -1.153662e+02 3.918444e+01 -4.762910e+02
      vertex -1.183662e+02 3.910497e+01 -4.752941e+02
      vertex -1.151884e+02 3.784582e+01 -4.765379e+02
    endloop
  endfacet
  facet normal -2.618098e-15 -9.968378e-01 -7.946301e-02
    outer loop
      vertex -1.113780e+02 4.040692e+01 -5.086660e+02
      vertex -1.113524e+02 3.919217e+01 -4.934274e+02
      vertex -1.134593e+02 3.807624e+01 -4.794284e+02
    endloop
  endfacet
  facet normal 9.889319e-01 -1.178995e-02 1.479011e-01
    outer loop
      vertex -1.134593e+02 4.080736e+01 -4.792107e+02
      vertex -1.134593e+02 3.807624e+01 -4.794284e+02
      vertex -1.113524e+02 3.919217e+01 -4.934274e+02
    endloop
  endfacet
  facet normal 2.242785e-15 -9.968378e-01 -7.946301e-02
    outer loop
      vertex -1.116915e+02 4.051691e+01 -5.100458e+02
      vertex -1.113780e+02 4.040692e+01 -5.086660e+02
      vertex -1.134593e+02 3.807624e+01 -4.794284e+02
    endloop
  endfacet
  facet normal 9.660856e-01 -2.423876e-02 2.570818e-01
    outer loop
      vertex -1.135078e+02 4.078871e+01 -4.789905e+02
      vertex -1.135662e+02 4.077027e+01 -4.787728e+02
      vertex -1.134593e+02 3.807624e+01 -4.794284e+02
    endloop
  endfacet
  facet normal 9.716810e-01 -1.877684e-02 2.355494e-01
    outer loop
      vertex -1.135662e+02 3.939104e+01 -4.788827e+02
      vertex -1.134593e+02 3.807624e+01 -4.794284e+02
      vertex -1.135662e+02 4.077027e+01 -4.787728e+02
    endloop
  endfacet
  facet normal 9.767770e-01 -1.702562e-02 2.135809e-01
    outer loop
      vertex -1.135078e+02 4.078871e+01 -4.789905e+02
      vertex -1.134593e+02 3.807624e+01 -4.794284e+02
      vertex -1.134593e+02 4.080736e+01 -4.792107e+02
    endloop
  endfacet
  facet normal 3.527229e-15 -9.968378e-01 -7.946301e-02
    outer loop
      vertex -1.113780e+02 4.040692e+01 -5.086660e+02
      vertex -1.104990e+02 4.031841e+01 -5.075557e+02
      vertex -1.113524e+02 3.919217e+01 -4.934274e+02
    endloop
  endfacet
  facet normal 9.981920e-01 -4.956935e-03 5.990204e-02
    outer loop
      vertex -1.113511e+02 4.199379e+01 -4.932178e+02
      vertex -1.113524e+02 3.919217e+01 -4.934274e+02
      vertex -1.104990e+02 4.031841e+01 -5.075557e+02
    endloop
  endfacet
  facet normal 9.889391e-01 -1.153392e-02 1.478731e-01
    outer loop
      vertex -1.134593e+02 4.080736e+01 -4.792107e+02
      vertex -1.113524e+02 3.919217e+01 -4.934274e+02
      vertex -1.113511e+02 4.199379e+01 -4.932178e+02
    endloop
  endfacet
  facet normal 4.113886e-01 -8.231884e-01 -3.913059e-01
    outer loop
      vertex -1.104835e+02 4.094131e+01 -5.088498e+02
      vertex -1.104990e+02 4.031841e+01 -5.075557e+02
      vertex -1.113780e+02 4.040692e+01 -5.086660e+02
    endloop
  endfacet
  facet normal 9.981990e-01 -4.352962e-03 5.983188e-02
    outer loop
      vertex -1.113511e+02 4.199379e+01 -4.932178e+02
      vertex -1.104990e+02 4.031841e+01 -5.075557e+02
      vertex -1.104985e+02 4.319113e+01 -5.073538e+02
    endloop
  endfacet
  facet normal 9.999332e-01 -9.566613e-04 1.151583e-02
    outer loop
      vertex -1.104835e+02 4.094131e+01 -5.088498e+02
      vertex -1.104985e+02 4.319113e+01 -5.073538e+02
      vertex -1.104990e+02 4.031841e+01 -5.075557e+02
    endloop
  endfacet
  facet normal 4.776734e-01 -8.604908e-01 -1.771545e-01
    outer loop
      vertex -1.104835e+02 4.094131e+01 -5.088498e+02
      vertex -1.113780e+02 4.040692e+01 -5.086660e+02
      vertex -1.116915e+02 4.051691e+01 -5.100458e+02
    endloop
  endfacet
  facet normal 8.505142e-18 7.946301e-02 -9.968378e-01
    outer loop
      vertex -1.109987e+02 4.091565e+01 -5.100140e+02
      vertex -1.116915e+02 4.051691e+01 -5.100458e+02
      vertex -2.442667e+02 4.051691e+01 -5.100458e+02
    endloop
  endfacet
  facet normal 4.955639e-01 -8.450659e-01 -2.006990e-01
    outer loop
      vertex -1.104835e+02 4.094131e+01 -5.088498e+02
      vertex -1.116915e+02 4.051691e+01 -5.100458e+02
      vertex -1.109987e+02 4.091565e+01 -5.100140e+02
    endloop
  endfacet
  facet normal -1.619720e-14 -9.968378e-01 -7.946301e-02
    outer loop
      vertex -2.454791e+02 3.856578e+01 -4.855695e+02
      vertex -2.445857e+02 4.040600e+01 -5.086545e+02
      vertex -2.442667e+02 4.051691e+01 -5.100458e+02
    endloop
  endfacet
  facet normal -4.967659e-01 -8.486796e-01 -1.815671e-01
    outer loop
      vertex -2.449595e+02 4.091565e+01 -5.100140e+02
      vertex -2.442667e+02 4.051691e+01 -5.100458e+02
      vertex -2.445857e+02 4.040600e+01 -5.086545e+02
    endloop
  endfacet
  facet normal 8.429611e-18 7.946301e-02 -9.968378e-01
    outer loop
      vertex -1.109987e+02 4.091565e+01 -5.100140e+02
      vertex -2.442667e+02 4.051691e+01 -5.100458e+02
      vertex -2.449595e+02 4.091565e+01 -5.100140e+02
    endloop
  endfacet
  facet normal 2.165137e-15 -9.968378e-01 -7.946301e-02
    outer loop
      vertex -2.454791e+02 3.856578e+01 -4.855695e+02
      vertex -2.454791e+02 4.031715e+01 -5.075399e+02
      vertex -2.445857e+02 4.040600e+01 -5.086545e+02
    endloop
  endfacet
  facet normal -4.089636e-01 -8.233898e-01 -3.934185e-01
    outer loop
      vertex -2.454791e+02 4.094539e+01 -5.088547e+02
      vertex -2.445857e+02 4.040600e+01 -5.086545e+02
      vertex -2.454791e+02 4.031715e+01 -5.075399e+02
    endloop
  endfacet
  facet normal -4.967659e-01 -8.486796e-01 -1.815671e-01
    outer loop
      vertex -2.454791e+02 4.121470e+01 -5.099902e+02
      vertex -2.449595e+02 4.091565e+01 -5.100140e+02
      vertex -2.445857e+02 4.040600e+01 -5.086545e+02
    endloop
  endfacet
  facet normal -4.722420e-01 -8.576764e-01 -2.034176e-01
    outer loop
      vertex -2.454791e+02 4.121470e+01 -5.099902e+02
      vertex -2.445857e+02 4.040600e+01 -5.086545e+02
      vertex -2.454791e+02 4.094539e+01 -5.088547e+02
    endloop
  endfacet
  facet normal -1.000000e+00 0.000000e+00 0.000000e+00
    outer loop
      vertex -2.454791e+02 3.995385e+01 -4.978299e+02
      vertex -2.454791e+02 4.031715e+01 -5.075399e+02
      vertex -2.454791e+02 3.856578e+01 -4.855695e+02
    endloop
  endfacet
  facet normal -1.000000e+00 0.000000e+00 0.000000e+00
    outer loop
      vertex -2.454791e+02 4.052860e+01 -4.986556e+02
      vertex -2.454791e+02 4.318982e+01 -5.073383e+02
      vertex -2.454791e+02 4.031715e+01 -5.075399e+02
    endloop
  endfacet
  facet normal -1.000000e+00 0.000000e+00 0.000000e+00
    outer loop
      vertex -2.454791e+02 4.094539e+01 -5.088547e+02
      vertex -2.454791e+02 4.031715e+01 -5.075399e+02
      vertex -2.454791e+02 4.318982e+01 -5.073383e+02
    endloop
  endfacet
  facet normal -1.000000e+00 0.000000e+00 0.000000e+00
    outer loop
      vertex -2.454791e+02 3.995385e+01 -4.978299e+02
      vertex -2.454791e+02 4.052860e+01 -4.986556e+02
      vertex -2.454791e+02 4.031715e+01 -5.075399e+02
    endloop
  endfacet
  facet normal -9.238834e-01 3.040843e-02 -3.814639e-01
    outer loop
      vertex -2.454791e+02 4.124727e+01 -4.853557e+02
      vertex -2.454791e+02 3.856578e+01 -4.855695e+02
      vertex -2.469435e+02 3.828483e+01 -4.820451e+02
    endloop
  endfacet
  facet normal -1.000000e+00 0.000000e+00 0.000000e+00
    outer loop
      vertex -2.454791e+02 4.138442e+01 -4.968343e+02
      vertex -2.454791e+02 3.856578e+01 -4.855695e+02
      vertex -2.454791e+02 4.195917e+01 -4.976601e+02
    endloop
  endfacet
  facet normal -1.000000e+00 0.000000e+00 0.000000e+00
    outer loop
      vertex -2.454791e+02 4.124727e+01 -4.853557e+02
      vertex -2.454791e+02 4.195917e+01 -4.976601e+02
      vertex -2.454791e+02 3.856578e+01 -4.855695e+02
    endloop
  endfacet
  facet normal -1.000000e+00 0.000000e+00 0.000000e+00
    outer loop
      vertex -2.454791e+02 4.038152e+01 -4.969193e+02
      vertex -2.454791e+02 3.995385e+01 -4.978299e+02
      vertex -2.454791e+02 3.856578e+01 -4.855695e+02
    endloop
  endfacet
  facet normal -1.000000e+00 0.000000e+00 0.000000e+00
    outer loop
      vertex -2.454791e+02 4.138442e+01 -4.968343e+02
      vertex -2.454791e+02 4.038152e+01 -4.969193e+02
      vertex -2.454791e+02 3.856578e+01 -4.855695e+02
    endloop
  endfacet
  facet normal -3.826740e-01 7.336292e-02 -9.209661e-01
    outer loop
      vertex -2.469436e+02 4.096633e+01 -4.818314e+02
      vertex -2.469435e+02 3.828483e+01 -4.820451e+02
      vertex -2.504791e+02 3.816846e+01 -4.805853e+02
    endloop
  endfacet
  facet normal -9.238695e-01 3.035946e-02 -3.815015e-01
    outer loop
      vertex -2.469436e+02 4.096633e+01 -4.818314e+02
      vertex -2.454791e+02 4.124727e+01 -4.853557e+02
      vertex -2.469435e+02 3.828483e+01 -4.820451e+02
    endloop
  endfacet
  facet normal -1.849527e-16 -9.968378e-01 -7.946301e-02
    outer loop
      vertex -2.895626e+02 3.812729e+01 -4.800688e+02
      vertex -2.887850e+02 3.816846e+01 -4.805853e+02
      vertex -2.504791e+02 3.816846e+01 -4.805853e+02
    endloop
  endfacet
  facet normal 1.400670e-17 7.946301e-02 -9.968378e-01
    outer loop
      vertex -2.504791e+02 4.084996e+01 -4.803715e+02
      vertex -2.504791e+02 3.816846e+01 -4.805853e+02
      vertex -2.887850e+02 3.816846e+01 -4.805853e+02
    endloop
  endfacet
  facet normal -8.158301e-17 -9.968378e-01 -7.946301e-02
    outer loop
      vertex -2.904791e+02 3.811284e+01 -4.798875e+02
      vertex -2.895626e+02 3.812729e+01 -4.800688e+02
      vertex -2.504791e+02 3.816846e+01 -4.805853e+02
    endloop
  endfacet
  facet normal -3.827076e-01 7.341345e-02 -9.209481e-01
    outer loop
      vertex -2.469436e+02 4.096633e+01 -4.818314e+02
      vertex -2.504791e+02 3.816846e+01 -4.805853e+02
      vertex -2.504791e+02 4.084996e+01 -4.803715e+02
    endloop
  endfacet
  facet normal -5.544871e-01 6.612850e-02 -8.295608e-01
    outer loop
      vertex -2.887850e+02 4.084996e+01 -4.803715e+02
      vertex -2.887850e+02 3.816846e+01 -4.805853e+02
      vertex -2.895626e+02 3.812729e+01 -4.800688e+02
    endloop
  endfacet
  facet normal 1.473973e-17 7.946301e-02 -9.968378e-01
    outer loop
      vertex -2.504791e+02 4.084996e+01 -4.803715e+02
      vertex -2.887850e+02 3.816846e+01 -4.805853e+02
      vertex -2.887850e+02 4.084996e+01 -4.803715e+02
    endloop
  endfacet
  facet normal -1.946646e-01 7.794287e-02 -9.777682e-01
    outer loop
      vertex -2.895626e+02 4.080878e+01 -4.798550e+02
      vertex -2.895626e+02 3.812729e+01 -4.800688e+02
      vertex -2.904791e+02 3.811284e+01 -4.798875e+02
    endloop
  endfacet
  facet normal -5.544871e-01 6.612850e-02 -8.295608e-01
    outer loop
      vertex -2.895626e+02 4.080878e+01 -4.798550e+02
      vertex -2.887850e+02 4.084996e+01 -4.803715e+02
      vertex -2.895626e+02 3.812729e+01 -4.800688e+02
    endloop
  endfacet
  facet normal -1.946646e-01 7.794287e-02 -9.777682e-01
    outer loop
      vertex -2.895626e+02 4.080878e+01 -4.798550e+02
      vertex -2.904791e+02 3.811284e+01 -4.798875e+02
      vertex -2.904791e+02 4.079433e+01 -4.796737e+02
    endloop
  endfacet
  facet normal -1.081082e-16 -9.968378e-01 -7.946301e-02
    outer loop
      vertex -2.449595e+02 4.091565e+01 -5.100140e+02
      vertex -2.449595e+02 4.337994e+01 -5.409278e+02
      vertex -1.135594e+02 4.337994e+01 -5.409278e+02
    endloop
  endfacet
  facet normal 9.129947e-18 8.439959e-02 -9.964320e-01
    outer loop
      vertex -1.135568e+02 4.456719e+01 -5.408273e+02
      vertex -1.135594e+02 4.337994e+01 -5.409278e+02
      vertex -2.449595e+02 4.337994e+01 -5.409278e+02
    endloop
  endfacet
  facet normal -1.266337e-14 -9.968378e-01 -7.946301e-02
    outer loop
      vertex -1.134801e+02 4.336324e+01 -5.407183e+02
      vertex -2.449595e+02 4.091565e+01 -5.100140e+02
      vertex -1.135594e+02 4.337994e+01 -5.409278e+02
    endloop
  endfacet
  facet normal 9.356432e-01 2.775190e-02 -3.518547e-01
    outer loop
      vertex -1.135568e+02 4.456719e+01 -5.408273e+02
      vertex -1.134801e+02 4.336324e+01 -5.407183e+02
      vertex -1.135594e+02 4.337994e+01 -5.409278e+02
    endloop
  endfacet
  facet normal -5.000000e-01 -8.632869e-01 -6.881698e-02
    outer loop
      vertex -2.454791e+02 4.367887e+01 -5.409025e+02
      vertex -2.449595e+02 4.337994e+01 -5.409278e+02
      vertex -2.449595e+02 4.091565e+01 -5.100140e+02
    endloop
  endfacet
  facet normal 1.367336e-17 8.439959e-02 -9.964320e-01
    outer loop
      vertex -2.451327e+02 4.456719e+01 -5.408273e+02
      vertex -1.135568e+02 4.456719e+01 -5.408273e+02
      vertex -2.449595e+02 4.337994e+01 -5.409278e+02
    endloop
  endfacet
  facet normal 1.981314e-13 8.439959e-02 -9.964320e-01
    outer loop
      vertex -2.454791e+02 4.367887e+01 -5.409025e+02
      vertex -2.451327e+02 4.456719e+01 -5.408273e+02
      vertex -2.449595e+02 4.337994e+01 -5.409278e+02
    endloop
  endfacet
  facet normal -1.058162e-16 -9.968378e-01 -7.946301e-02
    outer loop
      vertex -1.109987e+02 4.194130e+01 -5.228806e+02
      vertex -1.109987e+02 4.091565e+01 -5.100140e+02
      vertex -2.449595e+02 4.091565e+01 -5.100140e+02
    endloop
  endfacet
  facet normal -1.612140e-16 -9.968378e-01 -7.946301e-02
    outer loop
      vertex -1.119652e+02 4.264633e+01 -5.317249e+02
      vertex -1.109987e+02 4.194130e+01 -5.228806e+02
      vertex -2.449595e+02 4.091565e+01 -5.100140e+02
    endloop
  endfacet
  facet normal -2.097301e-16 -9.968378e-01 -7.946301e-02
    outer loop
      vertex -1.134249e+02 4.334594e+01 -5.405013e+02
      vertex -1.119652e+02 4.264633e+01 -5.317249e+02
      vertex -2.449595e+02 4.091565e+01 -5.100140e+02
    endloop
  endfacet
  facet normal 8.167943e-15 -9.968378e-01 -7.946301e-02
    outer loop
      vertex -1.134801e+02 4.336324e+01 -5.407183e+02
      vertex -1.134249e+02 4.334594e+01 -5.405013e+02
      vertex -2.449595e+02 4.091565e+01 -5.100140e+02
    endloop
  endfacet
  facet normal -5.000000e-01 -8.632869e-01 -6.881698e-02
    outer loop
      vertex -2.454791e+02 4.121470e+01 -5.099902e+02
      vertex -2.454791e+02 4.367887e+01 -5.409025e+02
      vertex -2.449595e+02 4.091565e+01 -5.100140e+02
    endloop
  endfacet
  facet normal 5.000000e-01 -8.632869e-01 -6.881698e-02
    outer loop
      vertex -1.104791e+02 4.121470e+01 -5.099902e+02
      vertex -1.109987e+02 4.091565e+01 -5.100140e+02
      vertex -1.109987e+02 4.194130e+01 -5.228806e+02
    endloop
  endfacet
  facet normal 4.955639e-01 -8.450659e-01 -2.006990e-01
    outer loop
      vertex -1.104835e+02 4.094131e+01 -5.088498e+02
      vertex -1.109987e+02 4.091565e+01 -5.100140e+02
      vertex -1.104791e+02 4.121470e+01 -5.099902e+02
    endloop
  endfacet
  facet normal 9.939972e-01 -6.984976e-03 -1.091827e-01
    outer loop
      vertex -1.111218e+02 4.421209e+01 -5.241467e+02
      vertex -1.109987e+02 4.194130e+01 -5.228806e+02
      vertex -1.119652e+02 4.264633e+01 -5.317249e+02
    endloop
  endfacet
  facet normal 9.976947e-01 1.753929e-02 -6.555725e-02
    outer loop
      vertex -1.106403e+02 4.336697e+01 -5.170439e+02
      vertex -1.109987e+02 4.194130e+01 -5.228806e+02
      vertex -1.111218e+02 4.421209e+01 -5.241467e+02
    endloop
  endfacet
  facet normal 5.000000e-01 -8.632869e-01 -6.881698e-02
    outer loop
      vertex -1.104791e+02 4.121470e+01 -5.099902e+02
      vertex -1.109987e+02 4.194130e+01 -5.228806e+02
      vertex -1.106085e+02 4.165329e+01 -5.164325e+02
    endloop
  endfacet
  facet normal 9.981608e-01 -3.107268e-03 -6.054278e-02
    outer loop
      vertex -1.106403e+02 4.336697e+01 -5.170439e+02
      vertex -1.106085e+02 4.165329e+01 -5.164325e+02
      vertex -1.109987e+02 4.194130e+01 -5.228806e+02
    endloop
  endfacet
  facet normal 9.864990e-01 4.610469e-03 -1.637021e-01
    outer loop
      vertex -1.120652e+02 4.489963e+01 -5.322639e+02
      vertex -1.119652e+02 4.264633e+01 -5.317249e+02
      vertex -1.134249e+02 4.334594e+01 -5.405013e+02
    endloop
  endfacet
  facet normal 9.933362e-01 1.679607e-02 -1.140226e-01
    outer loop
      vertex -1.111218e+02 4.421209e+01 -5.241467e+02
      vertex -1.119652e+02 4.264633e+01 -5.317249e+02
      vertex -1.120652e+02 4.489963e+01 -5.322639e+02
    endloop
  endfacet
  facet normal 9.693136e-01 1.953419e-02 -2.450501e-01
    outer loop
      vertex -1.134249e+02 4.558225e+01 -5.403230e+02
      vertex -1.134249e+02 4.334594e+01 -5.405013e+02
      vertex -1.134801e+02 4.336324e+01 -5.407183e+02
    endloop
  endfacet
  facet normal 9.861618e-01 1.317384e-02 -1.652616e-01
    outer loop
      vertex -1.120652e+02 4.489963e+01 -5.322639e+02
      vertex -1.134249e+02 4.334594e+01 -5.405013e+02
      vertex -1.134249e+02 4.558225e+01 -5.403230e+02
    endloop
  endfacet
  facet normal 9.492180e-01 3.213387e-02 -3.129737e-01
    outer loop
      vertex -1.134249e+02 4.558225e+01 -5.403230e+02
      vertex -1.134801e+02 4.336324e+01 -5.407183e+02
      vertex -1.135568e+02 4.456719e+01 -5.408273e+02
    endloop
  endfacet
  facet normal -1.613813e-16 -9.964320e-01 -8.439959e-02
    outer loop
      vertex -1.142944e+02 4.464066e+01 -5.416947e+02
      vertex -1.135568e+02 4.456719e+01 -5.408273e+02
      vertex -2.451327e+02 4.456719e+01 -5.408273e+02
    endloop
  endfacet
  facet normal 7.619174e-01 3.022628e-03 -6.476671e-01
    outer loop
      vertex -1.141162e+02 4.568026e+01 -5.414801e+02
      vertex -1.135568e+02 4.456719e+01 -5.408273e+02
      vertex -1.142944e+02 4.464066e+01 -5.416947e+02
    endloop
  endfacet
  facet normal 8.554388e-01 1.369539e-01 -4.994678e-01
    outer loop
      vertex -1.134249e+02 4.558225e+01 -5.403230e+02
      vertex -1.135568e+02 4.456719e+01 -5.408273e+02
      vertex -1.141162e+02 4.568026e+01 -5.414801e+02
    endloop
  endfacet
  facet normal 1.088627e-13 8.439959e-02 -9.964320e-01
    outer loop
      vertex -2.454791e+02 4.367887e+01 -5.409025e+02
      vertex -2.454791e+02 4.476647e+01 -5.408104e+02
      vertex -2.451327e+02 4.456719e+01 -5.408273e+02
    endloop
  endfacet
  facet normal -5.000000e-01 -8.629354e-01 -7.309219e-02
    outer loop
      vertex -2.454791e+02 4.482530e+01 -5.415049e+02
      vertex -2.451327e+02 4.456719e+01 -5.408273e+02
      vertex -2.454791e+02 4.476647e+01 -5.408104e+02
    endloop
  endfacet
  facet normal -4.591432e-16 -9.964320e-01 -8.439959e-02
    outer loop
      vertex -1.153881e+02 4.466813e+01 -5.420190e+02
      vertex -1.142944e+02 4.464066e+01 -5.416947e+02
      vertex -2.451327e+02 4.456719e+01 -5.408273e+02
    endloop
  endfacet
  facet normal -1.092680e-16 -9.964320e-01 -8.439959e-02
    outer loop
      vertex -2.449791e+02 4.466813e+01 -5.420190e+02
      vertex -1.153881e+02 4.466813e+01 -5.420190e+02
      vertex -2.451327e+02 4.456719e+01 -5.408273e+02
    endloop
  endfacet
  facet normal 9.136811e-15 -9.964320e-01 -8.439959e-02
    outer loop
      vertex -2.450568e+02 4.466762e+01 -5.420130e+02
      vertex -2.449791e+02 4.466813e+01 -5.420190e+02
      vertex -2.451327e+02 4.456719e+01 -5.408273e+02
    endloop
  endfacet
  facet normal 6.122219e-14 -9.964320e-01 -8.439959e-02
    outer loop
      vertex -2.451327e+02 4.466609e+01 -5.419949e+02
      vertex -2.450568e+02 4.466762e+01 -5.420130e+02
      vertex -2.451327e+02 4.456719e+01 -5.408273e+02
    endloop
  endfacet
  facet normal -5.000000e-01 -8.629354e-01 -7.309219e-02
    outer loop
      vertex -2.453890e+02 4.479761e+01 -5.417944e+02
      vertex -2.451327e+02 4.466609e+01 -5.419949e+02
      vertex -2.451327e+02 4.456719e+01 -5.408273e+02
    endloop
  endfacet
  facet normal -5.000000e-01 -8.629354e-01 -7.309219e-02
    outer loop
      vertex -2.453890e+02 4.479761e+01 -5.417944e+02
      vertex -2.451327e+02 4.456719e+01 -5.408273e+02
      vertex -2.454791e+02 4.482530e+01 -5.415049e+02
    endloop
  endfacet
  facet normal -1.000000e+00 0.000000e+00 0.000000e+00
    outer loop
      vertex -2.454791e+02 4.121470e+01 -5.099902e+02
      vertex -2.454791e+02 4.476647e+01 -5.408104e+02
      vertex -2.454791e+02 4.367887e+01 -5.409025e+02
    endloop
  endfacet
  facet normal -1.000000e+00 0.000000e+00 0.000000e+00
    outer loop
      vertex -2.454791e+02 4.522103e+01 -5.414734e+02
      vertex -2.454791e+02 4.476647e+01 -5.408104e+02
      vertex -2.454791e+02 4.121470e+01 -5.099902e+02
    endloop
  endfacet
  facet normal -1.000000e+00 0.000000e+00 0.000000e+00
    outer loop
      vertex -2.454791e+02 4.522103e+01 -5.414734e+02
      vertex -2.454791e+02 4.482530e+01 -5.415049e+02
      vertex -2.454791e+02 4.476647e+01 -5.408104e+02
    endloop
  endfacet
  facet normal 2.846375e-01 1.467050e-01 -9.473432e-01
    outer loop
      vertex -1.141162e+02 4.568026e+01 -5.414801e+02
      vertex -1.142944e+02 4.464066e+01 -5.416947e+02
      vertex -1.153881e+02 4.466813e+01 -5.420190e+02
    endloop
  endfacet
  facet normal 8.737713e-18 7.946301e-02 -9.968378e-01
    outer loop
      vertex -1.153881e+02 4.571881e+01 -5.419353e+02
      vertex -1.153881e+02 4.466813e+01 -5.420190e+02
      vertex -2.449791e+02 4.466813e+01 -5.420190e+02
    endloop
  endfacet
  facet normal 3.379838e-01 7.478676e-02 -9.381758e-01
    outer loop
      vertex -1.141162e+02 4.568026e+01 -5.414801e+02
      vertex -1.153881e+02 4.466813e+01 -5.420190e+02
      vertex -1.153881e+02 4.571881e+01 -5.419353e+02
    endloop
  endfacet
  facet normal -7.799524e-02 7.922094e-02 -9.938012e-01
    outer loop
      vertex -2.449791e+02 4.554852e+01 -5.419489e+02
      vertex -2.449791e+02 4.466813e+01 -5.420190e+02
      vertex -2.450568e+02 4.466762e+01 -5.420130e+02
    endloop
  endfacet
  facet normal 8.733794e-18 7.946301e-02 -9.968378e-01
    outer loop
      vertex -2.446832e+02 4.571881e+01 -5.419353e+02
      vertex -1.153881e+02 4.571881e+01 -5.419353e+02
      vertex -2.449791e+02 4.466813e+01 -5.420190e+02
    endloop
  endfacet
  facet normal 1.469713e-14 7.946301e-02 -9.968378e-01
    outer loop
      vertex -2.449791e+02 4.554852e+01 -5.419489e+02
      vertex -2.446832e+02 4.571881e+01 -5.419353e+02
      vertex -2.449791e+02 4.466813e+01 -5.420190e+02
    endloop
  endfacet
  facet normal -2.320131e-01 9.096776e-02 -9.684497e-01
    outer loop
      vertex -2.449791e+02 4.554852e+01 -5.419489e+02
      vertex -2.450568e+02 4.466762e+01 -5.420130e+02
      vertex -2.451327e+02 4.466609e+01 -5.419949e+02
    endloop
  endfacet
  facet normal -2.139362e-01 8.805237e-02 -9.728711e-01
    outer loop
      vertex -2.451828e+02 4.542783e+01 -5.419150e+02
      vertex -2.449791e+02 4.554852e+01 -5.419489e+02
      vertex -2.451327e+02 4.466609e+01 -5.419949e+02
    endloop
  endfacet
  facet normal -6.015075e-01 4.415225e-02 -7.976461e-01
    outer loop
      vertex -2.453890e+02 4.479761e+01 -5.417944e+02
      vertex -2.451828e+02 4.542783e+01 -5.419150e+02
      vertex -2.451327e+02 4.466609e+01 -5.419949e+02
    endloop
  endfacet
  facet normal 1.092232e-16 9.964320e-01 8.439959e-02
    outer loop
      vertex -1.109987e+02 4.300104e+01 -5.098489e+02
      vertex -1.153881e+02 4.571881e+01 -5.419353e+02
      vertex -2.446832e+02 4.571881e+01 -5.419353e+02
    endloop
  endfacet
  facet normal -3.648351e-16 9.964320e-01 8.439959e-02
    outer loop
      vertex -1.109987e+02 4.300104e+01 -5.098489e+02
      vertex -1.141162e+02 4.568026e+01 -5.414801e+02
      vertex -1.153881e+02 4.571881e+01 -5.419353e+02
    endloop
  endfacet
  facet normal -5.000000e-01 8.632869e-01 6.881698e-02
    outer loop
      vertex -2.451828e+02 4.542783e+01 -5.419150e+02
      vertex -2.446832e+02 4.571881e+01 -5.419353e+02
      vertex -2.449791e+02 4.554852e+01 -5.419489e+02
    endloop
  endfacet
  facet normal 1.585556e-16 9.964320e-01 8.439959e-02
    outer loop
      vertex -2.449595e+02 4.300104e+01 -5.098489e+02
      vertex -1.109987e+02 4.300104e+01 -5.098489e+02
      vertex -2.446832e+02 4.571881e+01 -5.419353e+02
    endloop
  endfacet
  facet normal -5.000000e-01 8.632869e-01 6.881698e-02
    outer loop
      vertex -2.454791e+02 4.270190e+01 -5.098716e+02
      vertex -2.449595e+02 4.300104e+01 -5.098489e+02
      vertex -2.446832e+02 4.571881e+01 -5.419353e+02
    endloop
  endfacet
  facet normal -5.000000e-01 8.632869e-01 6.881698e-02
    outer loop
      vertex -2.454791e+02 4.270190e+01 -5.098716e+02
      vertex -2.446832e+02 4.571881e+01 -5.419353e+02
      vertex -2.454791e+02 4.522103e+01 -5.414734e+02
    endloop
  endfacet
  facet normal -5.000000e-01 8.632869e-01 6.881698e-02
    outer loop
      vertex -2.453444e+02 4.532571e+01 -5.418076e+02
      vertex -2.454791e+02 4.522103e+01 -5.414734e+02
      vertex -2.446832e+02 4.571881e+01 -5.419353e+02
    endloop
  endfacet
  facet normal -5.000000e-01 8.632869e-01 6.881698e-02
    outer loop
      vertex -2.451828e+02 4.542783e+01 -5.419150e+02
      vertex -2.453444e+02 4.532571e+01 -5.418076e+02
      vertex -2.446832e+02 4.571881e+01 -5.419353e+02
    endloop
  endfacet
  facet normal 6.204056e-15 9.964320e-01 8.439959e-02
    outer loop
      vertex -1.109987e+02 4.300104e+01 -5.098489e+02
      vertex -1.134249e+02 4.558225e+01 -5.403230e+02
      vertex -1.141162e+02 4.568026e+01 -5.414801e+02
    endloop
  endfacet
  facet normal 6.471071e-16 9.964320e-01 8.439959e-02
    outer loop
      vertex -1.109987e+02 4.300104e+01 -5.098489e+02
      vertex -1.120652e+02 4.489963e+01 -5.322639e+02
      vertex -1.134249e+02 4.558225e+01 -5.403230e+02
    endloop
  endfacet
  facet normal 2.267627e-15 9.964320e-01 8.439959e-02
    outer loop
      vertex -1.109987e+02 4.300104e+01 -5.098489e+02
      vertex -1.111218e+02 4.421209e+01 -5.241467e+02
      vertex -1.120652e+02 4.489963e+01 -5.322639e+02
    endloop
  endfacet
  facet normal 5.000000e-01 8.632869e-01 6.881698e-02
    outer loop
      vertex -1.106403e+02 4.336697e+01 -5.170439e+02
      vertex -1.111218e+02 4.421209e+01 -5.241467e+02
      vertex -1.109987e+02 4.300104e+01 -5.098489e+02
    endloop
  endfacet
  facet normal 1.343510e-17 8.439959e-02 -9.964320e-01
    outer loop
      vertex -1.116915e+02 4.339961e+01 -5.098151e+02
      vertex -1.109987e+02 4.300104e+01 -5.098489e+02
      vertex -2.449595e+02 4.300104e+01 -5.098489e+02
    endloop
  endfacet
  facet normal 5.000000e-01 8.632882e-01 6.879972e-02
    outer loop
      vertex -1.104780e+02 4.270129e+01 -5.098717e+02
      vertex -1.109987e+02 4.300104e+01 -5.098489e+02
      vertex -1.116915e+02 4.339961e+01 -5.098151e+02
    endloop
  endfacet
  facet normal 5.000000e-01 8.632869e-01 6.881698e-02
    outer loop
      vertex -1.106403e+02 4.336697e+01 -5.170439e+02
      vertex -1.109987e+02 4.300104e+01 -5.098489e+02
      vertex -1.104780e+02 4.270129e+01 -5.098717e+02
    endloop
  endfacet
  facet normal 1.357031e-17 8.439959e-02 -9.964320e-01
    outer loop
      vertex -2.442667e+02 4.339961e+01 -5.098151e+02
      vertex -1.116915e+02 4.339961e+01 -5.098151e+02
      vertex -2.449595e+02 4.300104e+01 -5.098489e+02
    endloop
  endfacet
  facet normal -5.000000e-01 8.632882e-01 6.879973e-02
    outer loop
      vertex -2.454791e+02 4.270190e+01 -5.098716e+02
      vertex -2.442667e+02 4.339961e+01 -5.098151e+02
      vertex -2.449595e+02 4.300104e+01 -5.098489e+02
    endloop
  endfacet
  facet normal 1.596272e-16 9.964320e-01 8.439959e-02
    outer loop
      vertex -1.274791e+02 4.250698e+01 -4.992766e+02
      vertex -1.116915e+02 4.339961e+01 -5.098151e+02
      vertex -2.442667e+02 4.339961e+01 -5.098151e+02
    endloop
  endfacet
  facet normal -1.029667e-15 9.964320e-01 8.439959e-02
    outer loop
      vertex -1.274791e+02 4.250698e+01 -4.992766e+02
      vertex -1.260501e+02 4.243733e+01 -4.984543e+02
      vertex -1.116915e+02 4.339961e+01 -5.098151e+02
    endloop
  endfacet
  facet normal 5.065003e-17 9.964320e-01 8.439959e-02
    outer loop
      vertex -1.134593e+02 4.080736e+01 -4.792107e+02
      vertex -1.116915e+02 4.339961e+01 -5.098151e+02
      vertex -1.260501e+02 4.243733e+01 -4.984543e+02
    endloop
  endfacet
  facet normal -1.096368e-14 9.964320e-01 8.439959e-02
    outer loop
      vertex -1.113511e+02 4.199379e+01 -4.932178e+02
      vertex -1.113717e+02 4.328407e+01 -5.084510e+02
      vertex -1.116915e+02 4.339961e+01 -5.098151e+02
    endloop
  endfacet
  facet normal 4.968055e-01 8.667937e-01 -4.304715e-02
    outer loop
      vertex -1.104780e+02 4.270129e+01 -5.098717e+02
      vertex -1.116915e+02 4.339961e+01 -5.098151e+02
      vertex -1.113717e+02 4.328407e+01 -5.084510e+02
    endloop
  endfacet
  facet normal 3.739404e-15 9.964320e-01 8.439959e-02
    outer loop
      vertex -1.134593e+02 4.080736e+01 -4.792107e+02
      vertex -1.113511e+02 4.199379e+01 -4.932178e+02
      vertex -1.116915e+02 4.339961e+01 -5.098151e+02
    endloop
  endfacet
  facet normal -1.132451e-15 9.964320e-01 8.439959e-02
    outer loop
      vertex -2.199336e+02 4.250159e+01 -4.992130e+02
      vertex -2.194791e+02 4.250698e+01 -4.992766e+02
      vertex -2.442667e+02 4.339961e+01 -5.098151e+02
    endloop
  endfacet
  facet normal 1.539147e-16 9.964320e-01 8.439959e-02
    outer loop
      vertex -1.274791e+02 4.250698e+01 -4.992766e+02
      vertex -2.442667e+02 4.339961e+01 -5.098151e+02
      vertex -2.194791e+02 4.250698e+01 -4.992766e+02
    endloop
  endfacet
  facet normal 8.959765e-16 9.964320e-01 8.439959e-02
    outer loop
      vertex -2.203523e+02 4.248588e+01 -4.990275e+02
      vertex -2.199336e+02 4.250159e+01 -4.992130e+02
      vertex -2.442667e+02 4.339961e+01 -5.098151e+02
    endloop
  endfacet
  facet normal 3.302464e-16 9.964320e-01 8.439959e-02
    outer loop
      vertex -2.292256e+02 4.269678e+01 -5.015174e+02
      vertex -2.203523e+02 4.248588e+01 -4.990275e+02
      vertex -2.442667e+02 4.339961e+01 -5.098151e+02
    endloop
  endfacet
  facet normal -2.225835e-15 9.964320e-01 8.439959e-02
    outer loop
      vertex -2.307276e+02 4.269678e+01 -5.015174e+02
      vertex -2.292256e+02 4.269678e+01 -5.015174e+02
      vertex -2.442667e+02 4.339961e+01 -5.098151e+02
    endloop
  endfacet
  facet normal 1.804201e-15 9.964320e-01 8.439959e-02
    outer loop
      vertex -2.314791e+02 4.258695e+01 -5.002208e+02
      vertex -2.307276e+02 4.269678e+01 -5.015174e+02
      vertex -2.442667e+02 4.339961e+01 -5.098151e+02
    endloop
  endfacet
  facet normal 5.481575e-16 9.964320e-01 8.439959e-02
    outer loop
      vertex -2.314791e+02 4.214849e+01 -4.950442e+02
      vertex -2.314791e+02 4.258695e+01 -5.002208e+02
      vertex -2.442667e+02 4.339961e+01 -5.098151e+02
    endloop
  endfacet
  facet normal -1.077856e-14 9.964320e-01 8.439959e-02
    outer loop
      vertex -2.307276e+02 4.203866e+01 -4.937476e+02
      vertex -2.314791e+02 4.214849e+01 -4.950442e+02
      vertex -2.442667e+02 4.339961e+01 -5.098151e+02
    endloop
  endfacet
  facet normal 8.908273e-16 9.964320e-01 8.439959e-02
    outer loop
      vertex -2.445918e+02 4.328313e+01 -5.084400e+02
      vertex -2.307276e+02 4.203866e+01 -4.937476e+02
      vertex -2.442667e+02 4.339961e+01 -5.098151e+02
    endloop
  endfacet
  facet normal -4.792438e-01 8.768125e-01 -3.905454e-02
    outer loop
      vertex -2.454791e+02 4.278578e+01 -5.087184e+02
      vertex -2.445918e+02 4.328313e+01 -5.084400e+02
      vertex -2.442667e+02 4.339961e+01 -5.098151e+02
    endloop
  endfacet
  facet normal -4.955771e-01 8.662756e-01 -6.300721e-02
    outer loop
      vertex -2.454791e+02 4.278578e+01 -5.087184e+02
      vertex -2.442667e+02 4.339961e+01 -5.098151e+02
      vertex -2.454791e+02 4.270190e+01 -5.098716e+02
    endloop
  endfacet
  facet normal 0.000000e+00 9.964320e-01 8.439959e-02
    outer loop
      vertex -2.284741e+02 4.258695e+01 -5.002208e+02
      vertex -2.284741e+02 4.248588e+01 -4.990275e+02
      vertex -2.203523e+02 4.248588e+01 -4.990275e+02
    endloop
  endfacet
  facet normal 5.282015e-16 9.964320e-01 8.439959e-02
    outer loop
      vertex -2.292256e+02 4.269678e+01 -5.015174e+02
      vertex -2.284741e+02 4.258695e+01 -5.002208e+02
      vertex -2.203523e+02 4.248588e+01 -4.990275e+02
    endloop
  endfacet
  facet normal 1.000000e+00 0.000000e+00 0.000000e+00
    outer loop
      vertex -2.314791e+02 4.195917e+01 -4.976601e+02
      vertex -2.314791e+02 4.258695e+01 -5.002208e+02
      vertex -2.314791e+02 4.214849e+01 -4.950442e+02
    endloop
  endfacet
  facet normal 1.000000e+00 0.000000e+00 0.000000e+00
    outer loop
      vertex -2.314791e+02 4.153150e+01 -4.985707e+02
      vertex -2.314791e+02 4.258695e+01 -5.002208e+02
      vertex -2.314791e+02 4.195917e+01 -4.976601e+02
    endloop
  endfacet
  facet normal 1.000000e+00 0.000000e+00 0.000000e+00
    outer loop
      vertex -2.314791e+02 4.138442e+01 -4.968343e+02
      vertex -2.314791e+02 4.195917e+01 -4.976601e+02
      vertex -2.314791e+02 4.214849e+01 -4.950442e+02
    endloop
  endfacet
  facet normal 1.000000e+00 0.000000e+00 0.000000e+00
    outer loop
      vertex -2.314791e+02 4.138442e+01 -4.968343e+02
      vertex -2.314791e+02 4.214849e+01 -4.950442e+02
      vertex -2.314791e+02 4.038152e+01 -4.969193e+02
    endloop
  endfacet
  facet normal -2.203373e-15 9.964320e-01 8.439959e-02
    outer loop
      vertex -1.135662e+02 4.077027e+01 -4.787728e+02
      vertex -2.292256e+02 4.203866e+01 -4.937476e+02
      vertex -2.307276e+02 4.203866e+01 -4.937476e+02
    endloop
  endfacet
  facet normal 1.073447e-16 9.964320e-01 8.439959e-02
    outer loop
      vertex -2.454791e+02 4.077027e+01 -4.787728e+02
      vertex -1.135662e+02 4.077027e+01 -4.787728e+02
      vertex -2.307276e+02 4.203866e+01 -4.937476e+02
    endloop
  endfacet
  facet normal 3.360402e-17 9.964320e-01 8.439959e-02
    outer loop
      vertex -2.454791e+02 4.318982e+01 -5.073383e+02
      vertex -2.454791e+02 4.077027e+01 -4.787728e+02
      vertex -2.307276e+02 4.203866e+01 -4.937476e+02
    endloop
  endfacet
  facet normal -2.500880e-15 9.964320e-01 8.439959e-02
    outer loop
      vertex -2.445918e+02 4.328313e+01 -5.084400e+02
      vertex -2.454791e+02 4.318982e+01 -5.073383e+02
      vertex -2.307276e+02 4.203866e+01 -4.937476e+02
    endloop
  endfacet
  facet normal 8.783137e-17 9.964320e-01 8.439959e-02
    outer loop
      vertex -1.135662e+02 4.077027e+01 -4.787728e+02
      vertex -2.284741e+02 4.214849e+01 -4.950442e+02
      vertex -2.292256e+02 4.203866e+01 -4.937476e+02
    endloop
  endfacet
  facet normal 6.196419e-16 9.964320e-01 8.439959e-02
    outer loop
      vertex -1.135662e+02 4.077027e+01 -4.787728e+02
      vertex -2.284741e+02 4.224956e+01 -4.962375e+02
      vertex -2.284741e+02 4.214849e+01 -4.950442e+02
    endloop
  endfacet
  facet normal 0.000000e+00 9.964320e-01 8.439959e-02
    outer loop
      vertex -2.199336e+02 4.223385e+01 -4.960520e+02
      vertex -2.203523e+02 4.224956e+01 -4.962375e+02
      vertex -2.284741e+02 4.224956e+01 -4.962375e+02
    endloop
  endfacet
  facet normal -3.876599e-16 9.964320e-01 8.439959e-02
    outer loop
      vertex -1.135662e+02 4.077027e+01 -4.787728e+02
      vertex -2.199336e+02 4.223385e+01 -4.960520e+02
      vertex -2.284741e+02 4.224956e+01 -4.962375e+02
    endloop
  endfacet
  facet normal 1.208443e-13 9.964320e-01 8.439959e-02
    outer loop
      vertex -1.135662e+02 4.077027e+01 -4.787728e+02
      vertex -2.194791e+02 4.222846e+01 -4.959884e+02
      vertex -2.199336e+02 4.223385e+01 -4.960520e+02
    endloop
  endfacet
  facet normal 7.822882e-17 9.964320e-01 8.439959e-02
    outer loop
      vertex -1.135662e+02 4.077027e+01 -4.787728e+02
      vertex -1.274791e+02 4.222846e+01 -4.959884e+02
      vertex -2.194791e+02 4.222846e+01 -4.959884e+02
    endloop
  endfacet
  facet normal -1.964428e-16 9.964320e-01 8.439959e-02
    outer loop
      vertex -1.135662e+02 4.077027e+01 -4.787728e+02
      vertex -1.260501e+02 4.229811e+01 -4.968107e+02
      vertex -1.274791e+02 4.222846e+01 -4.959884e+02
    endloop
  endfacet
  facet normal 1.380174e-15 9.964320e-01 8.439959e-02
    outer loop
      vertex -1.135662e+02 4.077027e+01 -4.787728e+02
      vertex -1.260501e+02 4.243733e+01 -4.984543e+02
      vertex -1.260501e+02 4.229811e+01 -4.968107e+02
    endloop
  endfacet
  facet normal -3.017542e-15 9.964320e-01 8.439959e-02
    outer loop
      vertex -1.135078e+02 4.078871e+01 -4.789905e+02
      vertex -1.260501e+02 4.243733e+01 -4.984543e+02
      vertex -1.135662e+02 4.077027e+01 -4.787728e+02
    endloop
  endfacet
  facet normal -2.460720e-14 9.964320e-01 8.439959e-02
    outer loop
      vertex -1.135078e+02 4.078871e+01 -4.789905e+02
      vertex -1.134593e+02 4.080736e+01 -4.792107e+02
      vertex -1.260501e+02 4.243733e+01 -4.984543e+02
    endloop
  endfacet
  facet normal -8.516060e-18 -7.946301e-02 9.968378e-01
    outer loop
      vertex -1.135662e+02 3.939104e+01 -4.788827e+02
      vertex -1.135662e+02 4.077027e+01 -4.787728e+02
      vertex -2.454791e+02 4.077027e+01 -4.787728e+02
    endloop
  endfacet
  facet normal -1.000000e+00 0.000000e+00 0.000000e+00
    outer loop
      vertex -2.454791e+02 4.072281e+01 -4.787766e+02
      vertex -2.454791e+02 4.077027e+01 -4.787728e+02
      vertex -2.454791e+02 4.318982e+01 -5.073383e+02
    endloop
  endfacet
  facet normal 3.700769e-15 -7.946301e-02 9.968378e-01
    outer loop
      vertex -2.454791e+02 4.072281e+01 -4.787766e+02
      vertex -1.135662e+02 3.939104e+01 -4.788827e+02
      vertex -2.454791e+02 4.077027e+01 -4.787728e+02
    endloop
  endfacet
  facet normal -4.102242e-01 8.752474e-01 -2.562382e-01
    outer loop
      vertex -2.454791e+02 4.278578e+01 -5.087184e+02
      vertex -2.454791e+02 4.318982e+01 -5.073383e+02
      vertex -2.445918e+02 4.328313e+01 -5.084400e+02
    endloop
  endfacet
  facet normal -1.000000e+00 0.000000e+00 0.000000e+00
    outer loop
      vertex -2.454791e+02 4.124727e+01 -4.853557e+02
      vertex -2.454791e+02 4.072281e+01 -4.787766e+02
      vertex -2.454791e+02 4.318982e+01 -5.073383e+02
    endloop
  endfacet
  facet normal -1.000000e+00 0.000000e+00 0.000000e+00
    outer loop
      vertex -2.454791e+02 4.153150e+01 -4.985707e+02
      vertex -2.454791e+02 4.195917e+01 -4.976601e+02
      vertex -2.454791e+02 4.318982e+01 -5.073383e+02
    endloop
  endfacet
  facet normal -1.000000e+00 0.000000e+00 0.000000e+00
    outer loop
      vertex -2.454791e+02 4.124727e+01 -4.853557e+02
      vertex -2.454791e+02 4.318982e+01 -5.073383e+02
      vertex -2.454791e+02 4.195917e+01 -4.976601e+02
    endloop
  endfacet
  facet normal -1.000000e+00 0.000000e+00 0.000000e+00
    outer loop
      vertex -2.454791e+02 4.052860e+01 -4.986556e+02
      vertex -2.454791e+02 4.153150e+01 -4.985707e+02
      vertex -2.454791e+02 4.318982e+01 -5.073383e+02
    endloop
  endfacet
  facet normal -1.000000e+00 0.000000e+00 0.000000e+00
    outer loop
      vertex -2.454791e+02 4.278578e+01 -5.087184e+02
      vertex -2.454791e+02 4.094539e+01 -5.088547e+02
      vertex -2.454791e+02 4.318982e+01 -5.073383e+02
    endloop
  endfacet
  facet normal 5.331777e-15 9.964320e-01 8.439959e-02
    outer loop
      vertex -1.113511e+02 4.199379e+01 -4.932178e+02
      vertex -1.104985e+02 4.319113e+01 -5.073538e+02
      vertex -1.113717e+02 4.328407e+01 -5.084510e+02
    endloop
  endfacet
  facet normal 4.124670e-01 8.747995e-01 -2.541589e-01
    outer loop
      vertex -1.104834e+02 4.278868e+01 -5.087144e+02
      vertex -1.113717e+02 4.328407e+01 -5.084510e+02
      vertex -1.104985e+02 4.319113e+01 -5.073538e+02
    endloop
  endfacet
  facet normal 4.714291e-01 8.795606e-01 -6.424753e-02
    outer loop
      vertex -1.104780e+02 4.270129e+01 -5.098717e+02
      vertex -1.113717e+02 4.328407e+01 -5.084510e+02
      vertex -1.104834e+02 4.278868e+01 -5.087144e+02
    endloop
  endfacet
  facet normal 9.999346e-01 -8.829864e-04 1.140504e-02
    outer loop
      vertex -1.104834e+02 4.278868e+01 -5.087144e+02
      vertex -1.104985e+02 4.319113e+01 -5.073538e+02
      vertex -1.104835e+02 4.094131e+01 -5.088498e+02
    endloop
  endfacet
  facet normal 1.849052e-16 9.968378e-01 7.946301e-02
    outer loop
      vertex -2.504791e+02 4.084996e+01 -4.803715e+02
      vertex -2.887850e+02 4.084996e+01 -4.803715e+02
      vertex -2.454791e+02 4.072281e+01 -4.787766e+02
    endloop
  endfacet
  facet normal 1.690680e-16 9.968378e-01 7.946301e-02
    outer loop
      vertex -2.895626e+02 4.080878e+01 -4.798550e+02
      vertex -2.454791e+02 4.072281e+01 -4.787766e+02
      vertex -2.887850e+02 4.084996e+01 -4.803715e+02
    endloop
  endfacet
  facet normal 1.047828e-15 9.968378e-01 7.946301e-02
    outer loop
      vertex -2.469436e+02 4.096633e+01 -4.818314e+02
      vertex -2.504791e+02 4.084996e+01 -4.803715e+02
      vertex -2.454791e+02 4.072281e+01 -4.787766e+02
    endloop
  endfacet
  facet normal -2.400549e-15 9.968378e-01 7.946301e-02
    outer loop
      vertex -2.469436e+02 4.096633e+01 -4.818314e+02
      vertex -2.454791e+02 4.072281e+01 -4.787766e+02
      vertex -2.454791e+02 4.124727e+01 -4.853557e+02
    endloop
  endfacet
  facet normal -5.211851e-16 9.968378e-01 7.946301e-02
    outer loop
      vertex -2.895626e+02 4.080878e+01 -4.798550e+02
      vertex -2.904791e+02 4.079433e+01 -4.796737e+02
      vertex -2.454791e+02 4.072281e+01 -4.787766e+02
    endloop
  endfacet
  facet normal 0.000000e+00 9.968378e-01 7.946301e-02
    outer loop
      vertex -1.194791e+02 3.918078e+01 -4.762451e+02
      vertex -1.194791e+02 3.910497e+01 -4.752941e+02
      vertex -1.183662e+02 3.910497e+01 -4.752941e+02
    endloop
  endfacet
  facet normal 1.320828e-15 9.968378e-01 7.946301e-02
    outer loop
      vertex -1.153662e+02 3.918444e+01 -4.762910e+02
      vertex -1.194791e+02 3.918078e+01 -4.762451e+02
      vertex -1.183662e+02 3.910497e+01 -4.752941e+02
    endloop
  endfacet
  facet normal 1.000000e+00 0.000000e+00 0.000000e+00
    outer loop
      vertex -1.194791e+02 4.054695e+01 -4.761362e+02
      vertex -1.194791e+02 3.910497e+01 -4.752941e+02
      vertex -1.194791e+02 3.918078e+01 -4.762451e+02
    endloop
  endfacet
  facet normal 1.000000e+00 0.000000e+00 0.000000e+00
    outer loop
      vertex -1.194791e+02 4.046643e+01 -4.751856e+02
      vertex -1.194791e+02 3.910497e+01 -4.752941e+02
      vertex -1.194791e+02 4.054695e+01 -4.761362e+02
    endloop
  endfacet
  facet normal -1.725985e-15 -9.051493e-01 4.250938e-01
    outer loop
      vertex -2.314791e+02 4.195917e+01 -4.976601e+02
      vertex -2.454791e+02 4.195917e+01 -4.976601e+02
      vertex -2.454791e+02 4.153150e+01 -4.985707e+02
    endloop
  endfacet
  facet normal 0.000000e+00 -8.207545e-01 -5.712810e-01
    outer loop
      vertex -2.314791e+02 4.138442e+01 -4.968343e+02
      vertex -2.454791e+02 4.138442e+01 -4.968343e+02
      vertex -2.454791e+02 4.195917e+01 -4.976601e+02
    endloop
  endfacet
  facet normal 2.321353e-15 -8.207545e-01 -5.712810e-01
    outer loop
      vertex -2.314791e+02 4.138442e+01 -4.968343e+02
      vertex -2.454791e+02 4.195917e+01 -4.976601e+02
      vertex -2.314791e+02 4.195917e+01 -4.976601e+02
    endloop
  endfacet
  facet normal -4.283537e-17 -8.439959e-02 9.964320e-01
    outer loop
      vertex -2.314791e+02 4.153150e+01 -4.985707e+02
      vertex -2.454791e+02 4.153150e+01 -4.985707e+02
      vertex -2.454791e+02 4.052860e+01 -4.986556e+02
    endloop
  endfacet
  facet normal -4.593909e-16 -9.051493e-01 4.250938e-01
    outer loop
      vertex -2.314791e+02 4.153150e+01 -4.985707e+02
      vertex -2.314791e+02 4.195917e+01 -4.976601e+02
      vertex -2.454791e+02 4.153150e+01 -4.985707e+02
    endloop
  endfacet
  facet normal 4.165580e-16 8.207545e-01 5.712810e-01
    outer loop
      vertex -2.314791e+02 4.052860e+01 -4.986556e+02
      vertex -2.454791e+02 4.052860e+01 -4.986556e+02
      vertex -2.454791e+02 3.995385e+01 -4.978299e+02
    endloop
  endfacet
  facet normal -4.283537e-17 -8.439959e-02 9.964320e-01
    outer loop
      vertex -2.314791e+02 4.052860e+01 -4.986556e+02
      vertex -2.314791e+02 4.153150e+01 -4.985707e+02
      vertex -2.454791e+02 4.052860e+01 -4.986556e+02
    endloop
  endfacet
  facet normal 4.593909e-16 9.051493e-01 -4.250938e-01
    outer loop
      vertex -2.314791e+02 3.995385e+01 -4.978299e+02
      vertex -2.454791e+02 3.995385e+01 -4.978299e+02
      vertex -2.454791e+02 4.038152e+01 -4.969193e+02
    endloop
  endfacet
  facet normal 4.177646e-16 8.207545e-01 5.712810e-01
    outer loop
      vertex -2.314791e+02 4.052860e+01 -4.986556e+02
      vertex -2.454791e+02 3.995385e+01 -4.978299e+02
      vertex -2.314791e+02 3.995385e+01 -4.978299e+02
    endloop
  endfacet
  facet normal 0.000000e+00 8.439959e-02 -9.964320e-01
    outer loop
      vertex -2.314791e+02 4.038152e+01 -4.969193e+02
      vertex -2.454791e+02 4.038152e+01 -4.969193e+02
      vertex -2.454791e+02 4.138442e+01 -4.968343e+02
    endloop
  endfacet
  facet normal 0.000000e+00 9.051493e-01 -4.250938e-01
    outer loop
      vertex -2.314791e+02 4.038152e+01 -4.969193e+02
      vertex -2.314791e+02 3.995385e+01 -4.978299e+02
      vertex -2.454791e+02 4.038152e+01 -4.969193e+02
    endloop
  endfacet
  facet normal 0.000000e+00 8.439959e-02 -9.964320e-01
    outer loop
      vertex -2.314791e+02 4.138442e+01 -4.968343e+02
      vertex -2.314791e+02 4.038152e+01 -4.969193e+02
      vertex -2.454791e+02 4.138442e+01 -4.968343e+02
    endloop
  endfacet
  facet normal -1.000000e+00 0.000000e+00 0.000000e+00
    outer loop
      vertex -2.454791e+02 4.270190e+01 -5.098716e+02
      vertex -2.454791e+02 4.121470e+01 -5.099902e+02
      vertex -2.454791e+02 4.094539e+01 -5.088547e+02
    endloop
  endfacet
  facet normal -1.000000e+00 0.000000e+00 0.000000e+00
    outer loop
      vertex -2.454791e+02 4.278578e+01 -5.087184e+02
      vertex -2.454791e+02 4.270190e+01 -5.098716e+02
      vertex -2.454791e+02 4.094539e+01 -5.088547e+02
    endloop
  endfacet
  facet normal -1.000000e+00 0.000000e+00 0.000000e+00
    outer loop
      vertex -2.454791e+02 4.270190e+01 -5.098716e+02
      vertex -2.454791e+02 4.522103e+01 -5.414734e+02
      vertex -2.454791e+02 4.121470e+01 -5.099902e+02
    endloop
  endfacet
  facet normal -9.301907e-01 2.916901e-02 -3.659158e-01
    outer loop
      vertex -2.453444e+02 4.532571e+01 -5.418076e+02
      vertex -2.454791e+02 4.482530e+01 -5.415049e+02
      vertex -2.454791e+02 4.522103e+01 -5.414734e+02
    endloop
  endfacet
  facet normal -9.502731e-01 7.274764e-02 -3.028017e-01
    outer loop
      vertex -2.453890e+02 4.479761e+01 -5.417944e+02
      vertex -2.454791e+02 4.482530e+01 -5.415049e+02
      vertex -2.453444e+02 4.532571e+01 -5.418076e+02
    endloop
  endfacet
  facet normal 9.997991e-01 8.861394e-04 -2.002231e-02
    outer loop
      vertex -1.104780e+02 4.270129e+01 -5.098717e+02
      vertex -1.104791e+02 4.121470e+01 -5.099902e+02
      vertex -1.106085e+02 4.165329e+01 -5.164325e+02
    endloop
  endfacet
  facet normal 9.997081e-01 1.081340e-02 -2.160624e-02
    outer loop
      vertex -1.106403e+02 4.336697e+01 -5.170439e+02
      vertex -1.104780e+02 4.270129e+01 -5.098717e+02
      vertex -1.106085e+02 4.165329e+01 -5.164325e+02
    endloop
  endfacet
  facet normal 9.999929e-01 -3.216136e-04 3.746778e-03
    outer loop
      vertex -1.104834e+02 4.278868e+01 -5.087144e+02
      vertex -1.104835e+02 4.094131e+01 -5.088498e+02
      vertex -1.104791e+02 4.121470e+01 -5.099902e+02
    endloop
  endfacet
  facet normal 9.999884e-01 -1.083697e-03 4.686964e-03
    outer loop
      vertex -1.104780e+02 4.270129e+01 -5.098717e+02
      vertex -1.104834e+02 4.278868e+01 -5.087144e+02
      vertex -1.104791e+02 4.121470e+01 -5.099902e+02
    endloop
  endfacet
  facet normal -5.653882e-01 2.722272e-02 -8.243756e-01
    outer loop
      vertex -2.453890e+02 4.479761e+01 -5.417944e+02
      vertex -2.453444e+02 4.532571e+01 -5.418076e+02
      vertex -2.451828e+02 4.542783e+01 -5.419150e+02
    endloop
  endfacet
endsolid 106_100022596-17
