solid 109_100022597-20
  facet normal -1.000000e+00 0.000000e+00 0.000000e+00
    outer loop
      vertex -3.154790e+02 3.627142e+01 -5.408807e+02
      vertex -3.154790e+02 3.495861e+01 -5.409722e+02
      vertex -3.154790e+02 3.489602e+01 -5.400744e+02
    endloop
  endfacet
  facet normal -2.025207e-16 -9.975788e-01 -6.954546e-02
    outer loop
      vertex -2.454790e+02 3.495861e+01 -5.409722e+02
      vertex -3.154790e+02 3.489602e+01 -5.400744e+02
      vertex -3.154790e+02 3.495861e+01 -5.409722e+02
    endloop
  endfacet
  facet normal -1.000000e+00 0.000000e+00 0.000000e+00
    outer loop
      vertex -3.154790e+02 3.785883e+01 -5.398679e+02
      vertex -3.154790e+02 3.627142e+01 -5.408807e+02
      vertex -3.154790e+02 3.489602e+01 -5.400744e+02
    endloop
  endfacet
  facet normal 0.000000e+00 -6.954546e-02 9.975788e-01
    outer loop
      vertex -2.904790e+02 3.489602e+01 -5.400744e+02
      vertex -3.154790e+02 3.785883e+01 -5.398679e+02
      vertex -3.154790e+02 3.489602e+01 -5.400744e+02
    endloop
  endfacet
  facet normal 0.000000e+00 -9.975788e-01 -6.954546e-02
    outer loop
      vertex -2.904790e+02 3.489602e+01 -5.400744e+02
      vertex -3.154790e+02 3.489602e+01 -5.400744e+02
      vertex -2.454790e+02 3.495861e+01 -5.409722e+02
    endloop
  endfacet
  facet normal 7.342053e-18 6.954546e-02 -9.975788e-01
    outer loop
      vertex -1.135667e+02 3.627142e+01 -5.408807e+02
      vertex -3.154790e+02 3.495861e+01 -5.409722e+02
      vertex -3.154790e+02 3.627142e+01 -5.408807e+02
    endloop
  endfacet
  facet normal 1.411858e-17 6.954546e-02 -9.975788e-01
    outer loop
      vertex -2.454790e+02 3.495861e+01 -5.409722e+02
      vertex -3.154790e+02 3.495861e+01 -5.409722e+02
      vertex -1.135667e+02 3.627142e+01 -5.408807e+02
    endloop
  endfacet
  facet normal -1.000000e+00 0.000000e+00 0.000000e+00
    outer loop
      vertex -3.154790e+02 3.817178e+01 -5.443570e+02
      vertex -3.154790e+02 3.645544e+01 -5.435203e+02
      vertex -3.154790e+02 3.627142e+01 -5.408807e+02
    endloop
  endfacet
  facet normal -1.446576e-16 -9.975788e-01 -6.954546e-02
    outer loop
      vertex -1.194790e+02 3.645544e+01 -5.435203e+02
      vertex -3.154790e+02 3.627142e+01 -5.408807e+02
      vertex -3.154790e+02 3.645544e+01 -5.435203e+02
    endloop
  endfacet
  facet normal -1.000000e+00 0.000000e+00 0.000000e+00
    outer loop
      vertex -3.154790e+02 3.785883e+01 -5.398679e+02
      vertex -3.154790e+02 3.817178e+01 -5.443570e+02
      vertex -3.154790e+02 3.627142e+01 -5.408807e+02
    endloop
  endfacet
  facet normal -1.053181e-16 -9.975788e-01 -6.954546e-02
    outer loop
      vertex -1.153667e+02 3.645224e+01 -5.434744e+02
      vertex -1.135667e+02 3.627142e+01 -5.408807e+02
      vertex -3.154790e+02 3.627142e+01 -5.408807e+02
    endloop
  endfacet
  facet normal 5.748206e-16 -9.975788e-01 -6.954546e-02
    outer loop
      vertex -1.153667e+02 3.645224e+01 -5.434744e+02
      vertex -3.154790e+02 3.627142e+01 -5.408807e+02
      vertex -1.194790e+02 3.645544e+01 -5.435203e+02
    endloop
  endfacet
  facet normal -1.000000e+00 0.000000e+00 0.000000e+00
    outer loop
      vertex -3.154790e+02 3.817178e+01 -5.443570e+02
      vertex -3.154790e+02 3.505327e+01 -5.436181e+02
      vertex -3.154790e+02 3.645544e+01 -5.435203e+02
    endloop
  endfacet
  facet normal -7.563524e-18 -6.954546e-02 9.975788e-01
    outer loop
      vertex -1.194790e+02 3.505327e+01 -5.436181e+02
      vertex -3.154790e+02 3.645544e+01 -5.435203e+02
      vertex -3.154790e+02 3.505327e+01 -5.436181e+02
    endloop
  endfacet
  facet normal -1.007493e-17 -6.954546e-02 9.975788e-01
    outer loop
      vertex -1.194790e+02 3.505327e+01 -5.436181e+02
      vertex -1.194790e+02 3.645544e+01 -5.435203e+02
      vertex -3.154790e+02 3.645544e+01 -5.435203e+02
    endloop
  endfacet
  facet normal -1.000000e+00 0.000000e+00 0.000000e+00
    outer loop
      vertex -3.154790e+02 3.817178e+01 -5.443570e+02
      vertex -3.154790e+02 3.511491e+01 -5.445701e+02
      vertex -3.154790e+02 3.505327e+01 -5.436181e+02
    endloop
  endfacet
  facet normal -1.085294e-16 -9.979110e-01 -6.460338e-02
    outer loop
      vertex -1.194790e+02 3.511491e+01 -5.445701e+02
      vertex -3.154790e+02 3.505327e+01 -5.436181e+02
      vertex -3.154790e+02 3.511491e+01 -5.445701e+02
    endloop
  endfacet
  facet normal -1.085070e-16 -9.979110e-01 -6.460338e-02
    outer loop
      vertex -1.194790e+02 3.511491e+01 -5.445701e+02
      vertex -1.194790e+02 3.505327e+01 -5.436181e+02
      vertex -3.154790e+02 3.505327e+01 -5.436181e+02
    endloop
  endfacet
  facet normal 7.520843e-18 6.954546e-02 -9.975788e-01
    outer loop
      vertex -1.183667e+02 3.817178e+01 -5.443570e+02
      vertex -3.154790e+02 3.511491e+01 -5.445701e+02
      vertex -3.154790e+02 3.817178e+01 -5.443570e+02
    endloop
  endfacet
  facet normal -1.164887e-16 6.954546e-02 -9.975788e-01
    outer loop
      vertex -1.194790e+02 3.652179e+01 -5.444720e+02
      vertex -3.154790e+02 3.511491e+01 -5.445701e+02
      vertex -1.183667e+02 3.817178e+01 -5.443570e+02
    endloop
  endfacet
  facet normal 7.563524e-18 6.954546e-02 -9.975788e-01
    outer loop
      vertex -1.194790e+02 3.511491e+01 -5.445701e+02
      vertex -3.154790e+02 3.511491e+01 -5.445701e+02
      vertex -1.194790e+02 3.652179e+01 -5.444720e+02
    endloop
  endfacet
  facet normal 0.000000e+00 9.975788e-01 6.954546e-02
    outer loop
      vertex -2.904790e+02 3.785883e+01 -5.398679e+02
      vertex -3.154790e+02 3.817178e+01 -5.443570e+02
      vertex -3.154790e+02 3.785883e+01 -5.398679e+02
    endloop
  endfacet
  facet normal 1.078810e-16 9.975788e-01 6.954546e-02
    outer loop
      vertex -1.183667e+02 3.817178e+01 -5.443570e+02
      vertex -3.154790e+02 3.817178e+01 -5.443570e+02
      vertex -1.274790e+02 3.751991e+01 -5.350064e+02
    endloop
  endfacet
  facet normal 1.832600e-16 9.975788e-01 6.954546e-02
    outer loop
      vertex -2.504790e+02 3.781015e+01 -5.391696e+02
      vertex -1.274790e+02 3.751991e+01 -5.350064e+02
      vertex -3.154790e+02 3.817178e+01 -5.443570e+02
    endloop
  endfacet
  facet normal 6.405133e-17 9.975788e-01 6.954546e-02
    outer loop
      vertex -2.904790e+02 3.785883e+01 -5.398679e+02
      vertex -2.504790e+02 3.781015e+01 -5.391696e+02
      vertex -3.154790e+02 3.817178e+01 -5.443570e+02
    endloop
  endfacet
  facet normal 0.000000e+00 -6.954546e-02 9.975788e-01
    outer loop
      vertex -2.904790e+02 3.489602e+01 -5.400744e+02
      vertex -2.904790e+02 3.785883e+01 -5.398679e+02
      vertex -3.154790e+02 3.785883e+01 -5.398679e+02
    endloop
  endfacet
  facet normal 0.000000e+00 9.975788e-01 6.954546e-02
    outer loop
      vertex -2.284740e+02 3.730780e+01 -5.319638e+02
      vertex -2.199332e+02 3.729485e+01 -5.317780e+02
      vertex -2.203522e+02 3.730780e+01 -5.319638e+02
    endloop
  endfacet
  facet normal 4.061771e-01 6.129242e-02 -9.117365e-01
    outer loop
      vertex -2.203522e+02 3.431183e+01 -5.321652e+02
      vertex -2.203522e+02 3.730780e+01 -5.319638e+02
      vertex -2.199332e+02 3.729485e+01 -5.317780e+02
    endloop
  endfacet
  facet normal 0.000000e+00 6.707463e-02 -9.977480e-01
    outer loop
      vertex -2.284740e+02 3.431183e+01 -5.321652e+02
      vertex -2.284740e+02 3.730780e+01 -5.319638e+02
      vertex -2.203522e+02 3.730780e+01 -5.319638e+02
    endloop
  endfacet
  facet normal 0.000000e+00 6.707463e-02 -9.977480e-01
    outer loop
      vertex -2.284740e+02 3.431183e+01 -5.321652e+02
      vertex -2.203522e+02 3.730780e+01 -5.319638e+02
      vertex -2.203522e+02 3.431183e+01 -5.321652e+02
    endloop
  endfacet
  facet normal 0.000000e+00 9.975788e-01 6.954546e-02
    outer loop
      vertex -1.116914e+02 3.580696e+01 -5.104353e+02
      vertex -2.194790e+02 3.729041e+01 -5.317144e+02
      vertex -2.199332e+02 3.729485e+01 -5.317780e+02
    endloop
  endfacet
  facet normal 1.390011e-01 6.642348e-02 -9.880621e-01
    outer loop
      vertex -2.199332e+02 3.429980e+01 -5.319793e+02
      vertex -2.199332e+02 3.729485e+01 -5.317780e+02
      vertex -2.194790e+02 3.729041e+01 -5.317144e+02
    endloop
  endfacet
  facet normal -3.496633e-16 9.975788e-01 6.954546e-02
    outer loop
      vertex -1.116914e+02 3.580696e+01 -5.104353e+02
      vertex -2.199332e+02 3.729485e+01 -5.317780e+02
      vertex -2.284740e+02 3.730780e+01 -5.319638e+02
    endloop
  endfacet
  facet normal 4.061771e-01 6.129242e-02 -9.117365e-01
    outer loop
      vertex -2.199332e+02 3.429980e+01 -5.319793e+02
      vertex -2.203522e+02 3.431183e+01 -5.321652e+02
      vertex -2.199332e+02 3.729485e+01 -5.317780e+02
    endloop
  endfacet
  facet normal 7.603545e-17 9.975788e-01 6.954546e-02
    outer loop
      vertex -1.116914e+02 3.580696e+01 -5.104353e+02
      vertex -1.274790e+02 3.729041e+01 -5.317144e+02
      vertex -2.194790e+02 3.729041e+01 -5.317144e+02
    endloop
  endfacet
  facet normal 5.226711e-18 6.707463e-02 -9.977480e-01
    outer loop
      vertex -2.194790e+02 3.429568e+01 -5.319157e+02
      vertex -2.194790e+02 3.729041e+01 -5.317144e+02
      vertex -1.274790e+02 3.729041e+01 -5.317144e+02
    endloop
  endfacet
  facet normal 1.390011e-01 6.642348e-02 -9.880621e-01
    outer loop
      vertex -2.199332e+02 3.429980e+01 -5.319793e+02
      vertex -2.194790e+02 3.729041e+01 -5.317144e+02
      vertex -2.194790e+02 3.429568e+01 -5.319157e+02
    endloop
  endfacet
  facet normal 2.776508e-15 9.975788e-01 6.954546e-02
    outer loop
      vertex -1.116914e+02 3.580696e+01 -5.104353e+02
      vertex -1.260501e+02 3.734779e+01 -5.325374e+02
      vertex -1.274790e+02 3.729041e+01 -5.317144e+02
    endloop
  endfacet
  facet normal -4.999996e-01 5.808835e-02 -8.640753e-01
    outer loop
      vertex -1.274790e+02 3.429568e+01 -5.319157e+02
      vertex -1.274790e+02 3.729041e+01 -5.317144e+02
      vertex -1.260501e+02 3.734779e+01 -5.325374e+02
    endloop
  endfacet
  facet normal 5.180368e-18 6.707463e-02 -9.977480e-01
    outer loop
      vertex -2.194790e+02 3.429568e+01 -5.319157e+02
      vertex -1.274790e+02 3.729041e+01 -5.317144e+02
      vertex -1.274790e+02 3.429568e+01 -5.319157e+02
    endloop
  endfacet
  facet normal -5.698297e-15 9.975788e-01 6.954546e-02
    outer loop
      vertex -1.116914e+02 3.580696e+01 -5.104353e+02
      vertex -1.260501e+02 3.746254e+01 -5.341834e+02
      vertex -1.260501e+02 3.734779e+01 -5.325374e+02
    endloop
  endfacet
  facet normal -1.000000e+00 5.417565e-11 -8.058732e-10
    outer loop
      vertex -1.260501e+02 3.434898e+01 -5.327390e+02
      vertex -1.260501e+02 3.734779e+01 -5.325374e+02
      vertex -1.260501e+02 3.746254e+01 -5.341834e+02
    endloop
  endfacet
  facet normal -4.999996e-01 5.808835e-02 -8.640753e-01
    outer loop
      vertex -1.274790e+02 3.429568e+01 -5.319157e+02
      vertex -1.260501e+02 3.734779e+01 -5.325374e+02
      vertex -1.260501e+02 3.434898e+01 -5.327390e+02
    endloop
  endfacet
  facet normal -2.505918e-15 9.975788e-01 6.954546e-02
    outer loop
      vertex -1.183667e+02 3.817178e+01 -5.443570e+02
      vertex -1.274790e+02 3.751991e+01 -5.350064e+02
      vertex -1.260501e+02 3.746254e+01 -5.341834e+02
    endloop
  endfacet
  facet normal -4.999996e-01 -5.808835e-02 8.640753e-01
    outer loop
      vertex -1.260501e+02 3.445557e+01 -5.343855e+02
      vertex -1.260501e+02 3.746254e+01 -5.341834e+02
      vertex -1.274790e+02 3.751991e+01 -5.350064e+02
    endloop
  endfacet
  facet normal 2.804708e-16 9.975788e-01 6.954546e-02
    outer loop
      vertex -1.116914e+02 3.580696e+01 -5.104353e+02
      vertex -1.183667e+02 3.817178e+01 -5.443570e+02
      vertex -1.260501e+02 3.746254e+01 -5.341834e+02
    endloop
  endfacet
  facet normal -1.000000e+00 5.417565e-11 -8.058732e-10
    outer loop
      vertex -1.260501e+02 3.434898e+01 -5.327390e+02
      vertex -1.260501e+02 3.746254e+01 -5.341834e+02
      vertex -1.260501e+02 3.445557e+01 -5.343855e+02
    endloop
  endfacet
  facet normal 1.540177e-16 9.975788e-01 6.954546e-02
    outer loop
      vertex -2.292253e+02 3.767630e+01 -5.372497e+02
      vertex -2.194790e+02 3.751991e+01 -5.350064e+02
      vertex -1.274790e+02 3.751991e+01 -5.350064e+02
    endloop
  endfacet
  facet normal -1.039680e-17 -6.707463e-02 9.977480e-01
    outer loop
      vertex -1.274790e+02 3.450887e+01 -5.352088e+02
      vertex -1.274790e+02 3.751991e+01 -5.350064e+02
      vertex -2.194790e+02 3.751991e+01 -5.350064e+02
    endloop
  endfacet
  facet normal 2.197601e-16 9.975788e-01 6.954546e-02
    outer loop
      vertex -2.504790e+02 3.781015e+01 -5.391696e+02
      vertex -2.292253e+02 3.767630e+01 -5.372497e+02
      vertex -1.274790e+02 3.751991e+01 -5.350064e+02
    endloop
  endfacet
  facet normal -4.999996e-01 -5.808835e-02 8.640753e-01
    outer loop
      vertex -1.260501e+02 3.445557e+01 -5.343855e+02
      vertex -1.274790e+02 3.751991e+01 -5.350064e+02
      vertex -1.274790e+02 3.450887e+01 -5.352088e+02
    endloop
  endfacet
  facet normal -3.311584e-15 9.975788e-01 6.954546e-02
    outer loop
      vertex -2.292253e+02 3.767630e+01 -5.372497e+02
      vertex -2.199332e+02 3.751548e+01 -5.349428e+02
      vertex -2.194790e+02 3.751991e+01 -5.350064e+02
    endloop
  endfacet
  facet normal 1.390011e-01 -6.642348e-02 9.880621e-01
    outer loop
      vertex -2.194790e+02 3.450887e+01 -5.352088e+02
      vertex -2.194790e+02 3.751991e+01 -5.350064e+02
      vertex -2.199332e+02 3.751548e+01 -5.349428e+02
    endloop
  endfacet
  facet normal -5.180368e-18 -6.707463e-02 9.977480e-01
    outer loop
      vertex -1.274790e+02 3.450887e+01 -5.352088e+02
      vertex -2.194790e+02 3.751991e+01 -5.350064e+02
      vertex -2.194790e+02 3.450887e+01 -5.352088e+02
    endloop
  endfacet
  facet normal 4.852904e-15 9.975788e-01 6.954546e-02
    outer loop
      vertex -2.292253e+02 3.767630e+01 -5.372497e+02
      vertex -2.203522e+02 3.750253e+01 -5.347570e+02
      vertex -2.199332e+02 3.751548e+01 -5.349428e+02
    endloop
  endfacet
  facet normal 4.061771e-01 -6.129242e-02 9.117365e-01
    outer loop
      vertex -2.199332e+02 3.450475e+01 -5.351452e+02
      vertex -2.199332e+02 3.751548e+01 -5.349428e+02
      vertex -2.203522e+02 3.750253e+01 -5.347570e+02
    endloop
  endfacet
  facet normal 1.390011e-01 -6.642348e-02 9.880621e-01
    outer loop
      vertex -2.194790e+02 3.450887e+01 -5.352088e+02
      vertex -2.199332e+02 3.751548e+01 -5.349428e+02
      vertex -2.199332e+02 3.450475e+01 -5.351452e+02
    endloop
  endfacet
  facet normal 0.000000e+00 9.975788e-01 6.954546e-02
    outer loop
      vertex -2.284740e+02 3.758581e+01 -5.359516e+02
      vertex -2.284740e+02 3.750253e+01 -5.347570e+02
      vertex -2.203522e+02 3.750253e+01 -5.347570e+02
    endloop
  endfacet
  facet normal 0.000000e+00 -6.707463e-02 9.977480e-01
    outer loop
      vertex -2.203522e+02 3.449272e+01 -5.349593e+02
      vertex -2.203522e+02 3.750253e+01 -5.347570e+02
      vertex -2.284740e+02 3.750253e+01 -5.347570e+02
    endloop
  endfacet
  facet normal -4.794102e-16 9.975788e-01 6.954546e-02
    outer loop
      vertex -2.292253e+02 3.767630e+01 -5.372497e+02
      vertex -2.284740e+02 3.758581e+01 -5.359516e+02
      vertex -2.203522e+02 3.750253e+01 -5.347570e+02
    endloop
  endfacet
  facet normal 4.061771e-01 -6.129242e-02 9.117365e-01
    outer loop
      vertex -2.199332e+02 3.450475e+01 -5.351452e+02
      vertex -2.203522e+02 3.750253e+01 -5.347570e+02
      vertex -2.203522e+02 3.449272e+01 -5.349593e+02
    endloop
  endfacet
  facet normal -1.000000e+00 0.000000e+00 0.000000e+00
    outer loop
      vertex -2.284740e+02 3.457008e+01 -5.361543e+02
      vertex -2.284740e+02 3.750253e+01 -5.347570e+02
      vertex -2.284740e+02 3.758581e+01 -5.359516e+02
    endloop
  endfacet
  facet normal -1.000000e+00 0.000000e+00 0.000000e+00
    outer loop
      vertex -2.284740e+02 3.449272e+01 -5.349593e+02
      vertex -2.284740e+02 3.750253e+01 -5.347570e+02
      vertex -2.284740e+02 3.457008e+01 -5.361543e+02
    endloop
  endfacet
  facet normal 0.000000e+00 -6.707463e-02 9.977480e-01
    outer loop
      vertex -2.203522e+02 3.449272e+01 -5.349593e+02
      vertex -2.284740e+02 3.750253e+01 -5.347570e+02
      vertex -2.284740e+02 3.449272e+01 -5.349593e+02
    endloop
  endfacet
  facet normal -8.660252e-01 -3.353734e-02 4.988743e-01
    outer loop
      vertex -2.284740e+02 3.457008e+01 -5.361543e+02
      vertex -2.284740e+02 3.758581e+01 -5.359516e+02
      vertex -2.292253e+02 3.767630e+01 -5.372497e+02
    endloop
  endfacet
  facet normal 9.022635e-16 9.975788e-01 6.954546e-02
    outer loop
      vertex -2.504790e+02 3.781015e+01 -5.391696e+02
      vertex -2.307277e+02 3.767630e+01 -5.372497e+02
      vertex -2.292253e+02 3.767630e+01 -5.372497e+02
    endloop
  endfacet
  facet normal 8.077121e-10 -6.707463e-02 9.977480e-01
    outer loop
      vertex -2.292253e+02 3.465415e+01 -5.374528e+02
      vertex -2.292253e+02 3.767630e+01 -5.372497e+02
      vertex -2.307277e+02 3.767630e+01 -5.372497e+02
    endloop
  endfacet
  facet normal -8.660252e-01 -3.353734e-02 4.988743e-01
    outer loop
      vertex -2.284740e+02 3.457008e+01 -5.361543e+02
      vertex -2.292253e+02 3.767630e+01 -5.372497e+02
      vertex -2.292253e+02 3.465415e+01 -5.374528e+02
    endloop
  endfacet
  facet normal -2.944638e-16 9.975788e-01 6.954546e-02
    outer loop
      vertex -2.504790e+02 3.781015e+01 -5.391696e+02
      vertex -2.314790e+02 3.758581e+01 -5.359516e+02
      vertex -2.307277e+02 3.767630e+01 -5.372497e+02
    endloop
  endfacet
  facet normal 8.660252e-01 -3.353734e-02 4.988743e-01
    outer loop
      vertex -2.307277e+02 3.465415e+01 -5.374528e+02
      vertex -2.307277e+02 3.767630e+01 -5.372497e+02
      vertex -2.314790e+02 3.758581e+01 -5.359516e+02
    endloop
  endfacet
  facet normal 8.076709e-10 -6.707463e-02 9.977480e-01
    outer loop
      vertex -2.292253e+02 3.465415e+01 -5.374528e+02
      vertex -2.307277e+02 3.767630e+01 -5.372497e+02
      vertex -2.307277e+02 3.465415e+01 -5.374528e+02
    endloop
  endfacet
  facet normal 1.160828e-16 9.975788e-01 6.954546e-02
    outer loop
      vertex -2.469435e+02 3.770830e+01 -5.377086e+02
      vertex -2.314790e+02 3.722452e+01 -5.307692e+02
      vertex -2.314790e+02 3.758581e+01 -5.359516e+02
    endloop
  endfacet
  facet normal 1.000000e+00 0.000000e+00 0.000000e+00
    outer loop
      vertex -2.314790e+02 3.690787e+01 -5.333963e+02
      vertex -2.314790e+02 3.758581e+01 -5.359516e+02
      vertex -2.314790e+02 3.722452e+01 -5.307692e+02
    endloop
  endfacet
  facet normal 3.583534e-16 9.975788e-01 6.954546e-02
    outer loop
      vertex -2.504790e+02 3.781015e+01 -5.391696e+02
      vertex -2.469435e+02 3.770830e+01 -5.377086e+02
      vertex -2.314790e+02 3.758581e+01 -5.359516e+02
    endloop
  endfacet
  facet normal 8.660252e-01 -3.353734e-02 4.988743e-01
    outer loop
      vertex -2.307277e+02 3.465415e+01 -5.374528e+02
      vertex -2.314790e+02 3.758581e+01 -5.359516e+02
      vertex -2.314790e+02 3.457008e+01 -5.361543e+02
    endloop
  endfacet
  facet normal 1.000000e+00 0.000000e+00 0.000000e+00
    outer loop
      vertex -2.314790e+02 3.646209e+01 -5.342984e+02
      vertex -2.314790e+02 3.457008e+01 -5.361543e+02
      vertex -2.314790e+02 3.758581e+01 -5.359516e+02
    endloop
  endfacet
  facet normal 1.000000e+00 0.000000e+00 0.000000e+00
    outer loop
      vertex -2.314790e+02 3.646209e+01 -5.342984e+02
      vertex -2.314790e+02 3.758581e+01 -5.359516e+02
      vertex -2.314790e+02 3.690787e+01 -5.333963e+02
    endloop
  endfacet
  facet normal -2.890899e-15 9.975788e-01 6.954546e-02
    outer loop
      vertex -2.442666e+02 3.580696e+01 -5.104353e+02
      vertex -2.307277e+02 3.713403e+01 -5.294711e+02
      vertex -2.314790e+02 3.722452e+01 -5.307692e+02
    endloop
  endfacet
  facet normal 8.660252e-01 3.353734e-02 -4.988743e-01
    outer loop
      vertex -2.314790e+02 3.423447e+01 -5.309702e+02
      vertex -2.314790e+02 3.722452e+01 -5.307692e+02
      vertex -2.307277e+02 3.713403e+01 -5.294711e+02
    endloop
  endfacet
  facet normal 4.533884e-16 9.975788e-01 6.954546e-02
    outer loop
      vertex -2.454790e+02 3.746242e+01 -5.341817e+02
      vertex -2.442666e+02 3.580696e+01 -5.104353e+02
      vertex -2.314790e+02 3.722452e+01 -5.307692e+02
    endloop
  endfacet
  facet normal 4.142637e-16 9.975788e-01 6.954546e-02
    outer loop
      vertex -2.469435e+02 3.770830e+01 -5.377086e+02
      vertex -2.454790e+02 3.746242e+01 -5.341817e+02
      vertex -2.314790e+02 3.722452e+01 -5.307692e+02
    endloop
  endfacet
  facet normal 1.000000e+00 0.000000e+00 0.000000e+00
    outer loop
      vertex -2.314790e+02 3.534535e+01 -5.326242e+02
      vertex -2.314790e+02 3.722452e+01 -5.307692e+02
      vertex -2.314790e+02 3.423447e+01 -5.309702e+02
    endloop
  endfacet
  facet normal 1.000000e+00 0.000000e+00 0.000000e+00
    outer loop
      vertex -2.314790e+02 3.634950e+01 -5.325592e+02
      vertex -2.314790e+02 3.690787e+01 -5.333963e+02
      vertex -2.314790e+02 3.722452e+01 -5.307692e+02
    endloop
  endfacet
  facet normal 1.000000e+00 0.000000e+00 0.000000e+00
    outer loop
      vertex -2.314790e+02 3.634950e+01 -5.325592e+02
      vertex -2.314790e+02 3.722452e+01 -5.307692e+02
      vertex -2.314790e+02 3.534535e+01 -5.326242e+02
    endloop
  endfacet
  facet normal -4.337008e-15 9.975788e-01 6.954546e-02
    outer loop
      vertex -1.116914e+02 3.580696e+01 -5.104353e+02
      vertex -2.292253e+02 3.713403e+01 -5.294711e+02
      vertex -2.307277e+02 3.713403e+01 -5.294711e+02
    endloop
  endfacet
  facet normal -8.076366e-10 6.707463e-02 -9.977480e-01
    outer loop
      vertex -2.307277e+02 3.415041e+01 -5.296717e+02
      vertex -2.307277e+02 3.713403e+01 -5.294711e+02
      vertex -2.292253e+02 3.713403e+01 -5.294711e+02
    endloop
  endfacet
  facet normal 1.069314e-16 9.975788e-01 6.954546e-02
    outer loop
      vertex -2.442666e+02 3.580696e+01 -5.104353e+02
      vertex -1.116914e+02 3.580696e+01 -5.104353e+02
      vertex -2.307277e+02 3.713403e+01 -5.294711e+02
    endloop
  endfacet
  facet normal 8.660252e-01 3.353734e-02 -4.988743e-01
    outer loop
      vertex -2.314790e+02 3.423447e+01 -5.309702e+02
      vertex -2.307277e+02 3.713403e+01 -5.294711e+02
      vertex -2.307277e+02 3.415041e+01 -5.296717e+02
    endloop
  endfacet
  facet normal 1.465507e-15 9.975788e-01 6.954546e-02
    outer loop
      vertex -1.116914e+02 3.580696e+01 -5.104353e+02
      vertex -2.284740e+02 3.722452e+01 -5.307692e+02
      vertex -2.292253e+02 3.713403e+01 -5.294711e+02
    endloop
  endfacet
  facet normal -8.660252e-01 3.353734e-02 -4.988743e-01
    outer loop
      vertex -2.292253e+02 3.415041e+01 -5.296717e+02
      vertex -2.292253e+02 3.713403e+01 -5.294711e+02
      vertex -2.284740e+02 3.722452e+01 -5.307692e+02
    endloop
  endfacet
  facet normal -8.076709e-10 6.707463e-02 -9.977480e-01
    outer loop
      vertex -2.307277e+02 3.415041e+01 -5.296717e+02
      vertex -2.292253e+02 3.713403e+01 -5.294711e+02
      vertex -2.292253e+02 3.415041e+01 -5.296717e+02
    endloop
  endfacet
  facet normal 2.794461e-16 9.975788e-01 6.954546e-02
    outer loop
      vertex -1.116914e+02 3.580696e+01 -5.104353e+02
      vertex -2.284740e+02 3.730780e+01 -5.319638e+02
      vertex -2.284740e+02 3.722452e+01 -5.307692e+02
    endloop
  endfacet
  facet normal -1.000000e+00 0.000000e+00 0.000000e+00
    outer loop
      vertex -2.284740e+02 3.431183e+01 -5.321652e+02
      vertex -2.284740e+02 3.722452e+01 -5.307692e+02
      vertex -2.284740e+02 3.730780e+01 -5.319638e+02
    endloop
  endfacet
  facet normal -1.000000e+00 0.000000e+00 0.000000e+00
    outer loop
      vertex -2.284740e+02 3.423447e+01 -5.309702e+02
      vertex -2.284740e+02 3.722452e+01 -5.307692e+02
      vertex -2.284740e+02 3.431183e+01 -5.321652e+02
    endloop
  endfacet
  facet normal -8.660252e-01 3.353734e-02 -4.988743e-01
    outer loop
      vertex -2.292253e+02 3.415041e+01 -5.296717e+02
      vertex -2.284740e+02 3.722452e+01 -5.307692e+02
      vertex -2.284740e+02 3.423447e+01 -5.309702e+02
    endloop
  endfacet
  facet normal 2.829447e-16 9.975788e-01 6.954546e-02
    outer loop
      vertex -1.116914e+02 3.580696e+01 -5.104353e+02
      vertex -1.151889e+02 3.809252e+01 -5.432200e+02
      vertex -1.183667e+02 3.817178e+01 -5.443570e+02
    endloop
  endfacet
  facet normal 3.376002e-01 6.546242e-02 -9.390105e-01
    outer loop
      vertex -1.183667e+02 3.652179e+01 -5.444720e+02
      vertex -1.183667e+02 3.817178e+01 -5.443570e+02
      vertex -1.151889e+02 3.809252e+01 -5.432200e+02
    endloop
  endfacet
  facet normal 0.000000e+00 6.954546e-02 -9.975788e-01
    outer loop
      vertex -1.194790e+02 3.652179e+01 -5.444720e+02
      vertex -1.183667e+02 3.817178e+01 -5.443570e+02
      vertex -1.183667e+02 3.652179e+01 -5.444720e+02
    endloop
  endfacet
  facet normal -2.130895e-15 9.975788e-01 6.954546e-02
    outer loop
      vertex -1.116914e+02 3.580696e+01 -5.104353e+02
      vertex -1.134599e+02 3.789086e+01 -5.403274e+02
      vertex -1.151889e+02 3.809252e+01 -5.432200e+02
    endloop
  endfacet
  facet normal 8.561166e-01 1.156103e-01 -5.036851e-01
    outer loop
      vertex -1.135667e+02 3.627142e+01 -5.408807e+02
      vertex -1.151889e+02 3.809252e+01 -5.432200e+02
      vertex -1.134599e+02 3.789086e+01 -5.403274e+02
    endloop
  endfacet
  facet normal 8.215262e-01 -6.055806e-04 -5.701705e-01
    outer loop
      vertex -1.153667e+02 3.645224e+01 -5.434744e+02
      vertex -1.151889e+02 3.809252e+01 -5.432200e+02
      vertex -1.135667e+02 3.627142e+01 -5.408807e+02
    endloop
  endfacet
  facet normal 3.158906e-01 1.119049e-01 -9.421732e-01
    outer loop
      vertex -1.153667e+02 3.645224e+01 -5.434744e+02
      vertex -1.183667e+02 3.652179e+01 -5.444720e+02
      vertex -1.151889e+02 3.809252e+01 -5.432200e+02
    endloop
  endfacet
  facet normal 6.581038e-15 9.975788e-01 6.954546e-02
    outer loop
      vertex -1.116914e+02 3.580696e+01 -5.104353e+02
      vertex -1.113916e+02 3.693978e+01 -5.266848e+02
      vertex -1.134599e+02 3.789086e+01 -5.403274e+02
    endloop
  endfacet
  facet normal 9.887569e-01 1.039929e-02 -1.491702e-01
    outer loop
      vertex -1.134599e+02 3.485395e+01 -5.405391e+02
      vertex -1.134599e+02 3.789086e+01 -5.403274e+02
      vertex -1.113916e+02 3.693978e+01 -5.266848e+02
    endloop
  endfacet
  facet normal 9.767738e-01 1.490170e-02 -2.137540e-01
    outer loop
      vertex -1.135083e+02 3.486822e+01 -5.407595e+02
      vertex -1.134599e+02 3.789086e+01 -5.403274e+02
      vertex -1.134599e+02 3.485395e+01 -5.405391e+02
    endloop
  endfacet
  facet normal 9.660769e-01 2.130947e-02 -2.573740e-01
    outer loop
      vertex -1.135667e+02 3.488233e+01 -5.409776e+02
      vertex -1.134599e+02 3.789086e+01 -5.403274e+02
      vertex -1.135083e+02 3.486822e+01 -5.407595e+02
    endloop
  endfacet
  facet normal 9.716786e-01 1.643402e-02 -2.357341e-01
    outer loop
      vertex -1.135667e+02 3.627142e+01 -5.408807e+02
      vertex -1.134599e+02 3.789086e+01 -5.403274e+02
      vertex -1.135667e+02 3.488233e+01 -5.409776e+02
    endloop
  endfacet
  facet normal -1.642611e-15 9.975788e-01 6.954546e-02
    outer loop
      vertex -1.113817e+02 3.590264e+01 -5.118078e+02
      vertex -1.105123e+02 3.597986e+01 -5.129155e+02
      vertex -1.113916e+02 3.693978e+01 -5.266848e+02
    endloop
  endfacet
  facet normal 9.979741e-01 6.684725e-03 -6.326986e-02
    outer loop
      vertex -1.113749e+02 3.396028e+01 -5.267349e+02
      vertex -1.113916e+02 3.693978e+01 -5.266848e+02
      vertex -1.105123e+02 3.597986e+01 -5.129155e+02
    endloop
  endfacet
  facet normal 3.642561e-15 9.975788e-01 6.954546e-02
    outer loop
      vertex -1.116914e+02 3.580696e+01 -5.104353e+02
      vertex -1.113817e+02 3.590264e+01 -5.118078e+02
      vertex -1.113916e+02 3.693978e+01 -5.266848e+02
    endloop
  endfacet
  facet normal 9.888297e-01 8.072165e-03 -1.488307e-01
    outer loop
      vertex -1.134599e+02 3.485395e+01 -5.405391e+02
      vertex -1.113916e+02 3.693978e+01 -5.266848e+02
      vertex -1.113749e+02 3.396028e+01 -5.267349e+02
    endloop
  endfacet
  facet normal 4.087366e-01 8.303665e-01 3.787160e-01
    outer loop
      vertex -1.104898e+02 3.534840e+01 -5.115552e+02
      vertex -1.105123e+02 3.597986e+01 -5.129155e+02
      vertex -1.113817e+02 3.590264e+01 -5.118078e+02
    endloop
  endfacet
  facet normal 9.980604e-01 -3.163584e-04 -6.225211e-02
    outer loop
      vertex -1.113749e+02 3.396028e+01 -5.267349e+02
      vertex -1.105123e+02 3.597986e+01 -5.129155e+02
      vertex -1.105061e+02 3.305830e+01 -5.128023e+02
    endloop
  endfacet
  facet normal 9.998741e-01 1.487111e-03 -1.579875e-02
    outer loop
      vertex -1.104898e+02 3.534840e+01 -5.115552e+02
      vertex -1.105061e+02 3.305830e+01 -5.128023e+02
      vertex -1.105123e+02 3.597986e+01 -5.129155e+02
    endloop
  endfacet
  facet normal 4.851605e-01 8.578804e-01 1.692944e-01
    outer loop
      vertex -1.104898e+02 3.534840e+01 -5.115552e+02
      vertex -1.113817e+02 3.590264e+01 -5.118078e+02
      vertex -1.116914e+02 3.580696e+01 -5.104353e+02
    endloop
  endfacet
  facet normal -7.458355e-18 -6.954546e-02 9.975788e-01
    outer loop
      vertex -1.109986e+02 3.540793e+01 -5.104631e+02
      vertex -1.116914e+02 3.580696e+01 -5.104353e+02
      vertex -2.442666e+02 3.580696e+01 -5.104353e+02
    endloop
  endfacet
  facet normal 4.960518e-01 8.483843e-01 1.848694e-01
    outer loop
      vertex -1.104898e+02 3.534840e+01 -5.115552e+02
      vertex -1.116914e+02 3.580696e+01 -5.104353e+02
      vertex -1.109986e+02 3.540793e+01 -5.104631e+02
    endloop
  endfacet
  facet normal -1.204240e-14 9.975788e-01 6.954546e-02
    outer loop
      vertex -2.454790e+02 3.746242e+01 -5.341817e+02
      vertex -2.445855e+02 3.590401e+01 -5.118274e+02
      vertex -2.442666e+02 3.580696e+01 -5.104353e+02
    endloop
  endfacet
  facet normal -4.967668e-01 8.504459e-01 1.731025e-01
    outer loop
      vertex -2.449594e+02 3.540793e+01 -5.104631e+02
      vertex -2.442666e+02 3.580696e+01 -5.104353e+02
      vertex -2.445855e+02 3.590401e+01 -5.118274e+02
    endloop
  endfacet
  facet normal -7.377537e-18 -6.954546e-02 9.975788e-01
    outer loop
      vertex -1.109986e+02 3.540793e+01 -5.104631e+02
      vertex -2.442666e+02 3.580696e+01 -5.104353e+02
      vertex -2.449594e+02 3.540793e+01 -5.104631e+02
    endloop
  endfacet
  facet normal 0.000000e+00 9.975788e-01 6.954546e-02
    outer loop
      vertex -2.454790e+02 3.746242e+01 -5.341817e+02
      vertex -2.454790e+02 3.598179e+01 -5.129431e+02
      vertex -2.445855e+02 3.590401e+01 -5.118274e+02
    endloop
  endfacet
  facet normal -4.074763e-01 8.285201e-01 3.840801e-01
    outer loop
      vertex -2.454790e+02 3.535681e+01 -5.115950e+02
      vertex -2.445855e+02 3.590401e+01 -5.118274e+02
      vertex -2.454790e+02 3.598179e+01 -5.129431e+02
    endloop
  endfacet
  facet normal -4.967668e-01 8.504459e-01 1.731025e-01
    outer loop
      vertex -2.454790e+02 3.510865e+01 -5.104840e+02
      vertex -2.449594e+02 3.540793e+01 -5.104631e+02
      vertex -2.445855e+02 3.590401e+01 -5.118274e+02
    endloop
  endfacet
  facet normal -4.758177e-01 8.583903e-01 1.917384e-01
    outer loop
      vertex -2.454790e+02 3.510865e+01 -5.104840e+02
      vertex -2.445855e+02 3.590401e+01 -5.118274e+02
      vertex -2.454790e+02 3.535681e+01 -5.115950e+02
    endloop
  endfacet
  facet normal -1.000000e+00 0.000000e+00 0.000000e+00
    outer loop
      vertex -2.454790e+02 3.634950e+01 -5.325592e+02
      vertex -2.454790e+02 3.598179e+01 -5.129431e+02
      vertex -2.454790e+02 3.746242e+01 -5.341817e+02
    endloop
  endfacet
  facet normal -1.000000e+00 0.000000e+00 0.000000e+00
    outer loop
      vertex -2.454790e+02 3.534535e+01 -5.326242e+02
      vertex -2.454790e+02 3.305725e+01 -5.127860e+02
      vertex -2.454790e+02 3.598179e+01 -5.129431e+02
    endloop
  endfacet
  facet normal -1.000000e+00 0.000000e+00 0.000000e+00
    outer loop
      vertex -2.454790e+02 3.535681e+01 -5.115950e+02
      vertex -2.454790e+02 3.598179e+01 -5.129431e+02
      vertex -2.454790e+02 3.305725e+01 -5.127860e+02
    endloop
  endfacet
  facet normal -1.000000e+00 0.000000e+00 0.000000e+00
    outer loop
      vertex -2.454790e+02 3.634950e+01 -5.325592e+02
      vertex -2.454790e+02 3.534535e+01 -5.326242e+02
      vertex -2.454790e+02 3.598179e+01 -5.129431e+02
    endloop
  endfacet
  facet normal -9.238795e-01 -2.661390e-02 3.817569e-01
    outer loop
      vertex -2.454790e+02 3.653309e+01 -5.342465e+02
      vertex -2.454790e+02 3.746242e+01 -5.341817e+02
      vertex -2.469435e+02 3.770830e+01 -5.377086e+02
    endloop
  endfacet
  facet normal -1.000000e+00 0.000000e+00 0.000000e+00
    outer loop
      vertex -2.454790e+02 3.690787e+01 -5.333963e+02
      vertex -2.454790e+02 3.634950e+01 -5.325592e+02
      vertex -2.454790e+02 3.746242e+01 -5.341817e+02
    endloop
  endfacet
  facet normal -1.000000e+00 0.000000e+00 0.000000e+00
    outer loop
      vertex -2.454790e+02 3.682444e+01 -5.338673e+02
      vertex -2.454790e+02 3.690787e+01 -5.333963e+02
      vertex -2.454790e+02 3.746242e+01 -5.341817e+02
    endloop
  endfacet
  facet normal -1.000000e+00 0.000000e+00 0.000000e+00
    outer loop
      vertex -2.454790e+02 3.653309e+01 -5.342465e+02
      vertex -2.454790e+02 3.682444e+01 -5.338673e+02
      vertex -2.454790e+02 3.746242e+01 -5.341817e+02
    endloop
  endfacet
  facet normal -3.826834e-01 -6.425163e-02 9.216426e-01
    outer loop
      vertex -2.469435e+02 3.474549e+01 -5.379152e+02
      vertex -2.469435e+02 3.770830e+01 -5.377086e+02
      vertex -2.504790e+02 3.781015e+01 -5.391696e+02
    endloop
  endfacet
  facet normal -9.282369e-01 -1.308020e-01 3.482343e-01
    outer loop
      vertex -2.454822e+02 3.597368e+01 -5.344652e+02
      vertex -2.454790e+02 3.653309e+01 -5.342465e+02
      vertex -2.469435e+02 3.770830e+01 -5.377086e+02
    endloop
  endfacet
  facet normal -9.238795e-01 -2.661390e-02 3.817569e-01
    outer loop
      vertex -2.469435e+02 3.474549e+01 -5.379152e+02
      vertex -2.454790e+02 3.449961e+01 -5.343882e+02
      vertex -2.469435e+02 3.770830e+01 -5.377086e+02
    endloop
  endfacet
  facet normal -9.075322e-01 1.991493e-02 4.195100e-01
    outer loop
      vertex -2.454822e+02 3.597368e+01 -5.344652e+02
      vertex -2.469435e+02 3.770830e+01 -5.377086e+02
      vertex -2.454790e+02 3.449961e+01 -5.343882e+02
    endloop
  endfacet
  facet normal 1.849556e-16 9.975788e-01 6.954546e-02
    outer loop
      vertex -2.895625e+02 3.784618e+01 -5.396864e+02
      vertex -2.887849e+02 3.781015e+01 -5.391696e+02
      vertex -2.504790e+02 3.781015e+01 -5.391696e+02
    endloop
  endfacet
  facet normal -1.268620e-17 -6.954546e-02 9.975788e-01
    outer loop
      vertex -2.504790e+02 3.484734e+01 -5.393761e+02
      vertex -2.504790e+02 3.781015e+01 -5.391696e+02
      vertex -2.887849e+02 3.781015e+01 -5.391696e+02
    endloop
  endfacet
  facet normal 2.235578e-16 9.975788e-01 6.954546e-02
    outer loop
      vertex -2.904790e+02 3.785883e+01 -5.398679e+02
      vertex -2.895625e+02 3.784618e+01 -5.396864e+02
      vertex -2.504790e+02 3.781015e+01 -5.391696e+02
    endloop
  endfacet
  facet normal -3.826834e-01 -6.425163e-02 9.216426e-01
    outer loop
      vertex -2.469435e+02 3.474549e+01 -5.379152e+02
      vertex -2.504790e+02 3.781015e+01 -5.391696e+02
      vertex -2.504790e+02 3.484734e+01 -5.393761e+02
    endloop
  endfacet
  facet normal -5.544794e-01 -5.787556e-02 8.301825e-01
    outer loop
      vertex -2.887849e+02 3.484734e+01 -5.393761e+02
      vertex -2.887849e+02 3.781015e+01 -5.391696e+02
      vertex -2.895625e+02 3.784618e+01 -5.396864e+02
    endloop
  endfacet
  facet normal -2.960682e-15 -6.954546e-02 9.975788e-01
    outer loop
      vertex -2.504790e+02 3.484734e+01 -5.393761e+02
      vertex -2.887849e+02 3.781015e+01 -5.391696e+02
      vertex -2.887849e+02 3.484734e+01 -5.393761e+02
    endloop
  endfacet
  facet normal -1.946737e-01 -6.821492e-02 9.784932e-01
    outer loop
      vertex -2.895625e+02 3.488337e+01 -5.398930e+02
      vertex -2.895625e+02 3.784618e+01 -5.396864e+02
      vertex -2.904790e+02 3.785883e+01 -5.398679e+02
    endloop
  endfacet
  facet normal -5.544794e-01 -5.787556e-02 8.301825e-01
    outer loop
      vertex -2.895625e+02 3.488337e+01 -5.398930e+02
      vertex -2.887849e+02 3.484734e+01 -5.393761e+02
      vertex -2.895625e+02 3.784618e+01 -5.396864e+02
    endloop
  endfacet
  facet normal -1.946737e-01 -6.821492e-02 9.784932e-01
    outer loop
      vertex -2.895625e+02 3.488337e+01 -5.398930e+02
      vertex -2.904790e+02 3.785883e+01 -5.398679e+02
      vertex -2.904790e+02 3.489602e+01 -5.400744e+02
    endloop
  endfacet
  facet normal 1.090311e-16 9.975788e-01 6.954546e-02
    outer loop
      vertex -2.449594e+02 3.540793e+01 -5.104631e+02
      vertex -2.449594e+02 3.320063e+01 -4.788011e+02
      vertex -1.135496e+02 3.320063e+01 -4.788011e+02
    endloop
  endfacet
  facet normal -7.042709e-18 -6.460338e-02 9.979110e-01
    outer loop
      vertex -1.135522e+02 3.201848e+01 -4.788776e+02
      vertex -1.135496e+02 3.320063e+01 -4.788011e+02
      vertex -2.449594e+02 3.320063e+01 -4.788011e+02
    endloop
  endfacet
  facet normal 5.345179e-15 9.975788e-01 6.954546e-02
    outer loop
      vertex -1.134756e+02 3.321462e+01 -4.790017e+02
      vertex -2.449594e+02 3.540793e+01 -5.104631e+02
      vertex -1.135496e+02 3.320063e+01 -4.788011e+02
    endloop
  endfacet
  facet normal 9.382930e-01 -3.582316e-02 3.439809e-01
    outer loop
      vertex -1.134234e+02 3.129310e+01 -4.793440e+02
      vertex -1.134756e+02 3.321462e+01 -4.790017e+02
      vertex -1.135496e+02 3.320063e+01 -4.788011e+02
    endloop
  endfacet
  facet normal 9.547605e-01 -2.125181e-02 2.966155e-01
    outer loop
      vertex -1.134234e+02 3.129310e+01 -4.793440e+02
      vertex -1.135496e+02 3.320063e+01 -4.788011e+02
      vertex -1.135522e+02 3.201848e+01 -4.788776e+02
    endloop
  endfacet
  facet normal -5.000000e-01 8.639286e-01 6.022814e-02
    outer loop
      vertex -2.454790e+02 3.290125e+01 -4.788204e+02
      vertex -2.449594e+02 3.320063e+01 -4.788011e+02
      vertex -2.449594e+02 3.540793e+01 -5.104631e+02
    endloop
  endfacet
  facet normal -6.977248e-18 -6.460338e-02 9.979110e-01
    outer loop
      vertex -2.451326e+02 3.201848e+01 -4.788776e+02
      vertex -1.135522e+02 3.201848e+01 -4.788776e+02
      vertex -2.449594e+02 3.320063e+01 -4.788011e+02
    endloop
  endfacet
  facet normal 1.503301e-14 -6.460338e-02 9.979110e-01
    outer loop
      vertex -2.454790e+02 3.290125e+01 -4.788204e+02
      vertex -2.451326e+02 3.201848e+01 -4.788776e+02
      vertex -2.449594e+02 3.320063e+01 -4.788011e+02
    endloop
  endfacet
  facet normal 1.058076e-16 9.975788e-01 6.954546e-02
    outer loop
      vertex -1.109986e+02 3.445791e+01 -4.968358e+02
      vertex -1.109986e+02 3.540793e+01 -5.104631e+02
      vertex -2.449594e+02 3.540793e+01 -5.104631e+02
    endloop
  endfacet
  facet normal 3.253244e-17 9.975788e-01 6.954546e-02
    outer loop
      vertex -1.119646e+02 3.384113e+01 -4.879886e+02
      vertex -1.109986e+02 3.445791e+01 -4.968358e+02
      vertex -2.449594e+02 3.540793e+01 -5.104631e+02
    endloop
  endfacet
  facet normal 1.919059e-16 9.975788e-01 6.954546e-02
    outer loop
      vertex -1.134234e+02 3.322907e+01 -4.792090e+02
      vertex -1.119646e+02 3.384113e+01 -4.879886e+02
      vertex -2.449594e+02 3.540793e+01 -5.104631e+02
    endloop
  endfacet
  facet normal -1.992396e-16 9.975788e-01 6.954546e-02
    outer loop
      vertex -1.134756e+02 3.321462e+01 -4.790017e+02
      vertex -1.134234e+02 3.322907e+01 -4.792090e+02
      vertex -2.449594e+02 3.540793e+01 -5.104631e+02
    endloop
  endfacet
  facet normal -5.000000e-01 8.639286e-01 6.022814e-02
    outer loop
      vertex -2.454790e+02 3.510865e+01 -5.104840e+02
      vertex -2.454790e+02 3.290125e+01 -4.788204e+02
      vertex -2.449594e+02 3.540793e+01 -5.104631e+02
    endloop
  endfacet
  facet normal 5.000000e-01 8.639286e-01 6.022814e-02
    outer loop
      vertex -1.104809e+02 3.510974e+01 -5.104839e+02
      vertex -1.109986e+02 3.540793e+01 -5.104631e+02
      vertex -1.109986e+02 3.445791e+01 -4.968358e+02
    endloop
  endfacet
  facet normal 4.960518e-01 8.483843e-01 1.848694e-01
    outer loop
      vertex -1.104898e+02 3.534840e+01 -5.115552e+02
      vertex -1.109986e+02 3.540793e+01 -5.104631e+02
      vertex -1.104809e+02 3.510974e+01 -5.104839e+02
    endloop
  endfacet
  facet normal 9.937924e-01 1.807668e-02 1.097723e-01
    outer loop
      vertex -1.116331e+02 3.202773e+01 -4.906916e+02
      vertex -1.109986e+02 3.445791e+01 -4.968358e+02
      vertex -1.119646e+02 3.384113e+01 -4.879886e+02
    endloop
  endfacet
  facet normal 9.951654e-01 -5.622900e-02 8.052444e-02
    outer loop
      vertex -1.106649e+02 3.276882e+01 -5.021390e+02
      vertex -1.109986e+02 3.445791e+01 -4.968358e+02
      vertex -1.116331e+02 3.202773e+01 -4.906916e+02
    endloop
  endfacet
  facet normal 9.981726e-01 1.017143e-02 5.956467e-02
    outer loop
      vertex -1.105937e+02 3.469948e+01 -5.036625e+02
      vertex -1.109986e+02 3.445791e+01 -4.968358e+02
      vertex -1.106649e+02 3.276882e+01 -5.021390e+02
    endloop
  endfacet
  facet normal 5.000000e-01 8.639286e-01 6.022814e-02
    outer loop
      vertex -1.104809e+02 3.510974e+01 -5.104839e+02
      vertex -1.109986e+02 3.445791e+01 -4.968358e+02
      vertex -1.105937e+02 3.469948e+01 -5.036625e+02
    endloop
  endfacet
  facet normal 9.854666e-01 -5.787598e-02 1.597060e-01
    outer loop
      vertex -1.116331e+02 3.202773e+01 -4.906916e+02
      vertex -1.119646e+02 3.384113e+01 -4.879886e+02
      vertex -1.134234e+02 3.322907e+01 -4.792090e+02
    endloop
  endfacet
  facet normal 9.699549e-01 -1.691936e-02 2.426958e-01
    outer loop
      vertex -1.134234e+02 3.129310e+01 -4.793440e+02
      vertex -1.134234e+02 3.322907e+01 -4.792090e+02
      vertex -1.134756e+02 3.321462e+01 -4.790017e+02
    endloop
  endfacet
  facet normal 9.878315e-01 -1.081625e-02 1.551512e-01
    outer loop
      vertex -1.116331e+02 3.202773e+01 -4.906916e+02
      vertex -1.134234e+02 3.322907e+01 -4.792090e+02
      vertex -1.134234e+02 3.129310e+01 -4.793440e+02
    endloop
  endfacet
  facet normal 1.078064e-16 9.979110e-01 6.460338e-02
    outer loop
      vertex -1.142897e+02 3.196191e+01 -4.780038e+02
      vertex -1.135522e+02 3.201848e+01 -4.788776e+02
      vertex -2.451326e+02 3.201848e+01 -4.788776e+02
    endloop
  endfacet
  facet normal 7.632670e-01 2.238294e-02 6.456953e-01
    outer loop
      vertex -1.141146e+02 3.121807e+01 -4.781850e+02
      vertex -1.135522e+02 3.201848e+01 -4.788776e+02
      vertex -1.142897e+02 3.196191e+01 -4.780038e+02
    endloop
  endfacet
  facet normal 8.513680e-01 -1.683367e-01 4.968252e-01
    outer loop
      vertex -1.134234e+02 3.129310e+01 -4.793440e+02
      vertex -1.135522e+02 3.201848e+01 -4.788776e+02
      vertex -1.141146e+02 3.121807e+01 -4.781850e+02
    endloop
  endfacet
  facet normal 7.257967e-14 -6.460338e-02 9.979110e-01
    outer loop
      vertex -2.454790e+02 3.290125e+01 -4.788204e+02
      vertex -2.454790e+02 3.181890e+01 -4.788905e+02
      vertex -2.451326e+02 3.201848e+01 -4.788776e+02
    endloop
  endfacet
  facet normal -5.000000e-01 8.642163e-01 5.594817e-02
    outer loop
      vertex -2.454790e+02 3.177353e+01 -4.781897e+02
      vertex -2.451326e+02 3.201848e+01 -4.788776e+02
      vertex -2.454790e+02 3.181890e+01 -4.788905e+02
    endloop
  endfacet
  facet normal 9.477287e-16 9.979110e-01 6.460338e-02
    outer loop
      vertex -2.450567e+02 3.194114e+01 -4.776829e+02
      vertex -2.449790e+02 3.194075e+01 -4.776769e+02
      vertex -2.451326e+02 3.201848e+01 -4.788776e+02
    endloop
  endfacet
  facet normal 1.094290e-16 9.979110e-01 6.460338e-02
    outer loop
      vertex -1.153866e+02 3.194075e+01 -4.776769e+02
      vertex -2.451326e+02 3.201848e+01 -4.788776e+02
      vertex -2.449790e+02 3.194075e+01 -4.776769e+02
    endloop
  endfacet
  facet normal 7.259308e-15 9.979110e-01 6.460338e-02
    outer loop
      vertex -2.451326e+02 3.194231e+01 -4.777010e+02
      vertex -2.450567e+02 3.194114e+01 -4.776829e+02
      vertex -2.451326e+02 3.201848e+01 -4.788776e+02
    endloop
  endfacet
  facet normal -5.000000e-01 8.642163e-01 5.594817e-02
    outer loop
      vertex -2.453911e+02 3.180585e+01 -4.779037e+02
      vertex -2.451326e+02 3.194231e+01 -4.777010e+02
      vertex -2.451326e+02 3.201848e+01 -4.788776e+02
    endloop
  endfacet
  facet normal 1.158037e-16 9.979110e-01 6.460338e-02
    outer loop
      vertex -1.153866e+02 3.194075e+01 -4.776769e+02
      vertex -1.142897e+02 3.196191e+01 -4.780038e+02
      vertex -2.451326e+02 3.201848e+01 -4.788776e+02
    endloop
  endfacet
  facet normal -5.000000e-01 8.642163e-01 5.594817e-02
    outer loop
      vertex -2.453911e+02 3.180585e+01 -4.779037e+02
      vertex -2.451326e+02 3.201848e+01 -4.788776e+02
      vertex -2.454790e+02 3.177353e+01 -4.781897e+02
    endloop
  endfacet
  facet normal -1.000000e+00 0.000000e+00 0.000000e+00
    outer loop
      vertex -2.454790e+02 3.160120e+01 -4.841032e+02
      vertex -2.454790e+02 3.181890e+01 -4.788905e+02
      vertex -2.454790e+02 3.290125e+01 -4.788204e+02
    endloop
  endfacet
  facet normal -1.000000e+00 0.000000e+00 0.000000e+00
    outer loop
      vertex -2.454790e+02 3.160120e+01 -4.841032e+02
      vertex -2.454790e+02 3.122087e+01 -4.782283e+02
      vertex -2.454790e+02 3.181890e+01 -4.788905e+02
    endloop
  endfacet
  facet normal -1.000000e+00 0.000000e+00 0.000000e+00
    outer loop
      vertex -2.454790e+02 3.177353e+01 -4.781897e+02
      vertex -2.454790e+02 3.181890e+01 -4.788905e+02
      vertex -2.454790e+02 3.122087e+01 -4.782283e+02
    endloop
  endfacet
  facet normal -1.000000e+00 0.000000e+00 0.000000e+00
    outer loop
      vertex -2.454790e+02 3.510865e+01 -5.104840e+02
      vertex -2.454790e+02 3.160120e+01 -4.841032e+02
      vertex -2.454790e+02 3.290125e+01 -4.788204e+02
    endloop
  endfacet
  facet normal -7.799524e-02 -6.933361e-02 9.945399e-01
    outer loop
      vertex -2.449790e+02 3.118856e+01 -4.777293e+02
      vertex -2.449790e+02 3.194075e+01 -4.776769e+02
      vertex -2.450567e+02 3.194114e+01 -4.776829e+02
    endloop
  endfacet
  facet normal -7.598325e-18 -6.954546e-02 9.975788e-01
    outer loop
      vertex -1.153866e+02 3.118856e+01 -4.777293e+02
      vertex -1.153866e+02 3.194075e+01 -4.776769e+02
      vertex -2.449790e+02 3.194075e+01 -4.776769e+02
    endloop
  endfacet
  facet normal -9.532779e-18 -6.954546e-02 9.975788e-01
    outer loop
      vertex -1.153866e+02 3.118856e+01 -4.777293e+02
      vertex -2.449790e+02 3.194075e+01 -4.776769e+02
      vertex -2.449790e+02 3.118856e+01 -4.777293e+02
    endloop
  endfacet
  facet normal -2.319716e-01 -8.367278e-02 9.691171e-01
    outer loop
      vertex -2.449790e+02 3.118856e+01 -4.777293e+02
      vertex -2.450567e+02 3.194114e+01 -4.776829e+02
      vertex -2.451326e+02 3.194231e+01 -4.777010e+02
    endloop
  endfacet
  facet normal -3.821420e-01 -1.123245e-01 9.172517e-01
    outer loop
      vertex -2.453326e+02 3.119802e+01 -4.778754e+02
      vertex -2.449790e+02 3.118856e+01 -4.777293e+02
      vertex -2.451326e+02 3.194231e+01 -4.777010e+02
    endloop
  endfacet
  facet normal -6.096661e-01 -2.192174e-02 7.923552e-01
    outer loop
      vertex -2.453911e+02 3.180585e+01 -4.779037e+02
      vertex -2.453326e+02 3.119802e+01 -4.778754e+02
      vertex -2.451326e+02 3.194231e+01 -4.777010e+02
    endloop
  endfacet
  facet normal 2.847205e-01 -1.630817e-01 9.446367e-01
    outer loop
      vertex -1.141146e+02 3.121807e+01 -4.781850e+02
      vertex -1.142897e+02 3.196191e+01 -4.780038e+02
      vertex -1.153866e+02 3.194075e+01 -4.776769e+02
    endloop
  endfacet
  facet normal 3.378961e-01 -6.545504e-02 9.389046e-01
    outer loop
      vertex -1.141146e+02 3.121807e+01 -4.781850e+02
      vertex -1.153866e+02 3.194075e+01 -4.776769e+02
      vertex -1.153866e+02 3.118856e+01 -4.777293e+02
    endloop
  endfacet
  facet normal -1.351738e-16 -9.979110e-01 -6.460338e-02
    outer loop
      vertex -1.107335e+02 3.328491e+01 -5.101110e+02
      vertex -1.153866e+02 3.118856e+01 -4.777293e+02
      vertex -2.449790e+02 3.118856e+01 -4.777293e+02
    endloop
  endfacet
  facet normal 1.243053e-15 -9.979110e-01 -6.460338e-02
    outer loop
      vertex -2.452554e+02 3.328491e+01 -5.101110e+02
      vertex -2.449790e+02 3.118856e+01 -4.777293e+02
      vertex -2.453326e+02 3.119802e+01 -4.778754e+02
    endloop
  endfacet
  facet normal -1.054190e-16 -9.979110e-01 -6.460338e-02
    outer loop
      vertex -2.452554e+02 3.328491e+01 -5.101110e+02
      vertex -1.107335e+02 3.328491e+01 -5.101110e+02
      vertex -2.449790e+02 3.118856e+01 -4.777293e+02
    endloop
  endfacet
  facet normal -3.629728e-16 -9.979110e-01 -6.460338e-02
    outer loop
      vertex -1.107335e+02 3.328491e+01 -5.101110e+02
      vertex -1.141146e+02 3.121807e+01 -4.781850e+02
      vertex -1.153866e+02 3.118856e+01 -4.777293e+02
    endloop
  endfacet
  facet normal 1.493397e-14 -9.979110e-01 -6.460338e-02
    outer loop
      vertex -2.452554e+02 3.328491e+01 -5.101110e+02
      vertex -2.453326e+02 3.119802e+01 -4.778754e+02
      vertex -2.454790e+02 3.122087e+01 -4.782283e+02
    endloop
  endfacet
  facet normal -9.238828e-01 -2.661335e-02 3.817490e-01
    outer loop
      vertex -2.454790e+02 3.177353e+01 -4.781897e+02
      vertex -2.454790e+02 3.122087e+01 -4.782283e+02
      vertex -2.453326e+02 3.119802e+01 -4.778754e+02
    endloop
  endfacet
  facet normal -5.397828e-15 -9.979110e-01 -6.460338e-02
    outer loop
      vertex -2.454790e+02 3.160120e+01 -4.841032e+02
      vertex -2.452554e+02 3.328491e+01 -5.101110e+02
      vertex -2.454790e+02 3.122087e+01 -4.782283e+02
    endloop
  endfacet
  facet normal -9.505373e-01 -7.762906e-02 3.007534e-01
    outer loop
      vertex -2.453911e+02 3.180585e+01 -4.779037e+02
      vertex -2.454790e+02 3.177353e+01 -4.781897e+02
      vertex -2.453326e+02 3.119802e+01 -4.778754e+02
    endloop
  endfacet
  facet normal 2.734973e-15 -9.979110e-01 -6.460338e-02
    outer loop
      vertex -1.107335e+02 3.328491e+01 -5.101110e+02
      vertex -1.134234e+02 3.129310e+01 -4.793440e+02
      vertex -1.141146e+02 3.121807e+01 -4.781850e+02
    endloop
  endfacet
  facet normal -8.661610e-16 -9.979110e-01 -6.460338e-02
    outer loop
      vertex -1.107335e+02 3.328491e+01 -5.101110e+02
      vertex -1.116331e+02 3.202773e+01 -4.906916e+02
      vertex -1.134234e+02 3.129310e+01 -4.793440e+02
    endloop
  endfacet
  facet normal 0.000000e+00 -9.979110e-01 -6.460338e-02
    outer loop
      vertex -1.107335e+02 3.328491e+01 -5.101110e+02
      vertex -1.106649e+02 3.276882e+01 -5.021390e+02
      vertex -1.116331e+02 3.202773e+01 -4.906916e+02
    endloop
  endfacet
  facet normal 5.000000e-01 -8.639286e-01 -6.022814e-02
    outer loop
      vertex -1.105166e+02 3.314934e+01 -5.063659e+02
      vertex -1.106649e+02 3.276882e+01 -5.021390e+02
      vertex -1.107335e+02 3.328491e+01 -5.101110e+02
    endloop
  endfacet
  facet normal 9.993666e-01 -9.902418e-03 3.418224e-02
    outer loop
      vertex -1.105166e+02 3.314934e+01 -5.063659e+02
      vertex -1.105937e+02 3.469948e+01 -5.036625e+02
      vertex -1.106649e+02 3.276882e+01 -5.021390e+02
    endloop
  endfacet
  facet normal -6.834599e-18 -6.460338e-02 9.979110e-01
    outer loop
      vertex -1.114263e+02 3.288575e+01 -5.101369e+02
      vertex -1.107335e+02 3.328491e+01 -5.101110e+02
      vertex -2.452554e+02 3.328491e+01 -5.101110e+02
    endloop
  endfacet
  facet normal 5.000000e-01 -8.639286e-01 -6.022814e-02
    outer loop
      vertex -1.114306e+02 3.291811e+01 -5.106367e+02
      vertex -1.107335e+02 3.328491e+01 -5.101110e+02
      vertex -1.114263e+02 3.288575e+01 -5.101369e+02
    endloop
  endfacet
  facet normal 5.000000e-01 -8.639286e-01 -6.022814e-02
    outer loop
      vertex -1.104809e+02 3.346509e+01 -5.105986e+02
      vertex -1.107335e+02 3.328491e+01 -5.101110e+02
      vertex -1.114306e+02 3.291811e+01 -5.106367e+02
    endloop
  endfacet
  facet normal 5.000000e-01 -8.639286e-01 -6.022814e-02
    outer loop
      vertex -1.105166e+02 3.314934e+01 -5.063659e+02
      vertex -1.107335e+02 3.328491e+01 -5.101110e+02
      vertex -1.104809e+02 3.346509e+01 -5.105986e+02
    endloop
  endfacet
  facet normal -5.000000e-01 -8.639286e-01 -6.022814e-02
    outer loop
      vertex -2.454790e+02 3.344839e+01 -5.105997e+02
      vertex -2.452554e+02 3.328491e+01 -5.101110e+02
      vertex -2.454790e+02 3.160120e+01 -4.841032e+02
    endloop
  endfacet
  facet normal -6.895709e-18 -6.460338e-02 9.979110e-01
    outer loop
      vertex -1.114263e+02 3.288575e+01 -5.101369e+02
      vertex -2.452554e+02 3.328491e+01 -5.101110e+02
      vertex -2.445626e+02 3.288575e+01 -5.101369e+02
    endloop
  endfacet
  facet normal -5.000000e-01 -8.639286e-01 -6.022814e-02
    outer loop
      vertex -2.454790e+02 3.344839e+01 -5.105997e+02
      vertex -2.445626e+02 3.288575e+01 -5.101369e+02
      vertex -2.452554e+02 3.328491e+01 -5.101110e+02
    endloop
  endfacet
  facet normal -1.000000e+00 0.000000e+00 0.000000e+00
    outer loop
      vertex -2.454790e+02 3.344839e+01 -5.105997e+02
      vertex -2.454790e+02 3.160120e+01 -4.841032e+02
      vertex -2.454790e+02 3.510865e+01 -5.104840e+02
    endloop
  endfacet
  facet normal -1.064983e-16 -9.979110e-01 -6.460338e-02
    outer loop
      vertex -1.114306e+02 3.291811e+01 -5.106367e+02
      vertex -1.114263e+02 3.288575e+01 -5.101369e+02
      vertex -2.445626e+02 3.288575e+01 -5.101369e+02
    endloop
  endfacet
  facet normal -3.444521e-16 -9.979110e-01 -6.460338e-02
    outer loop
      vertex -2.292253e+02 3.415041e+01 -5.296717e+02
      vertex -2.203522e+02 3.431183e+01 -5.321652e+02
      vertex -2.445626e+02 3.288575e+01 -5.101369e+02
    endloop
  endfacet
  facet normal -8.755319e-16 -9.979110e-01 -6.460338e-02
    outer loop
      vertex -2.199332e+02 3.429980e+01 -5.319793e+02
      vertex -2.445626e+02 3.288575e+01 -5.101369e+02
      vertex -2.203522e+02 3.431183e+01 -5.321652e+02
    endloop
  endfacet
  facet normal 2.208259e-15 -9.979110e-01 -6.460338e-02
    outer loop
      vertex -2.307277e+02 3.415041e+01 -5.296717e+02
      vertex -2.292253e+02 3.415041e+01 -5.296717e+02
      vertex -2.445626e+02 3.288575e+01 -5.101369e+02
    endloop
  endfacet
  facet normal -5.573468e-15 -9.979110e-01 -6.460338e-02
    outer loop
      vertex -2.314790e+02 3.423447e+01 -5.309702e+02
      vertex -2.307277e+02 3.415041e+01 -5.296717e+02
      vertex -2.445626e+02 3.288575e+01 -5.101369e+02
    endloop
  endfacet
  facet normal 2.352116e-15 -9.979110e-01 -6.460338e-02
    outer loop
      vertex -2.314790e+02 3.457008e+01 -5.361543e+02
      vertex -2.314790e+02 3.423447e+01 -5.309702e+02
      vertex -2.445626e+02 3.288575e+01 -5.101369e+02
    endloop
  endfacet
  facet normal -1.409894e-14 -9.979110e-01 -6.460338e-02
    outer loop
      vertex -2.445583e+02 3.291811e+01 -5.106367e+02
      vertex -2.314790e+02 3.457008e+01 -5.361543e+02
      vertex -2.445626e+02 3.288575e+01 -5.101369e+02
    endloop
  endfacet
  facet normal -7.707157e-17 -9.979110e-01 -6.460338e-02
    outer loop
      vertex -2.194790e+02 3.429568e+01 -5.319157e+02
      vertex -1.274790e+02 3.429568e+01 -5.319157e+02
      vertex -2.445626e+02 3.288575e+01 -5.101369e+02
    endloop
  endfacet
  facet normal -8.868103e-17 -9.979110e-01 -6.460338e-02
    outer loop
      vertex -1.114306e+02 3.291811e+01 -5.106367e+02
      vertex -2.445626e+02 3.288575e+01 -5.101369e+02
      vertex -1.274790e+02 3.429568e+01 -5.319157e+02
    endloop
  endfacet
  facet normal -3.586380e-15 -9.979110e-01 -6.460338e-02
    outer loop
      vertex -2.199332e+02 3.429980e+01 -5.319793e+02
      vertex -2.194790e+02 3.429568e+01 -5.319157e+02
      vertex -2.445626e+02 3.288575e+01 -5.101369e+02
    endloop
  endfacet
  facet normal -5.000000e-01 -8.639286e-01 -6.022814e-02
    outer loop
      vertex -2.454790e+02 3.344839e+01 -5.105997e+02
      vertex -2.445583e+02 3.291811e+01 -5.106367e+02
      vertex -2.445626e+02 3.288575e+01 -5.101369e+02
    endloop
  endfacet
  facet normal 0.000000e+00 -9.979110e-01 -6.460338e-02
    outer loop
      vertex -2.284740e+02 3.423447e+01 -5.309702e+02
      vertex -2.284740e+02 3.431183e+01 -5.321652e+02
      vertex -2.203522e+02 3.431183e+01 -5.321652e+02
    endloop
  endfacet
  facet normal -1.811424e-15 -9.979110e-01 -6.460338e-02
    outer loop
      vertex -2.292253e+02 3.415041e+01 -5.296717e+02
      vertex -2.284740e+02 3.423447e+01 -5.309702e+02
      vertex -2.203522e+02 3.431183e+01 -5.321652e+02
    endloop
  endfacet
  facet normal 1.000000e+00 0.000000e+00 0.000000e+00
    outer loop
      vertex -2.314790e+02 3.489957e+01 -5.335263e+02
      vertex -2.314790e+02 3.423447e+01 -5.309702e+02
      vertex -2.314790e+02 3.457008e+01 -5.361543e+02
    endloop
  endfacet
  facet normal 1.000000e+00 0.000000e+00 0.000000e+00
    outer loop
      vertex -2.314790e+02 3.534535e+01 -5.326242e+02
      vertex -2.314790e+02 3.423447e+01 -5.309702e+02
      vertex -2.314790e+02 3.489957e+01 -5.335263e+02
    endloop
  endfacet
  facet normal 4.549850e-14 -9.979110e-01 -6.460338e-02
    outer loop
      vertex -2.454790e+02 3.305725e+01 -5.127860e+02
      vertex -2.307277e+02 3.465415e+01 -5.374528e+02
      vertex -2.314790e+02 3.457008e+01 -5.361543e+02
    endloop
  endfacet
  facet normal -9.915691e-16 -9.979110e-01 -6.460338e-02
    outer loop
      vertex -2.447933e+02 3.299391e+01 -5.118076e+02
      vertex -2.454790e+02 3.305725e+01 -5.127860e+02
      vertex -2.314790e+02 3.457008e+01 -5.361543e+02
    endloop
  endfacet
  facet normal 6.862009e-16 -9.979110e-01 -6.460338e-02
    outer loop
      vertex -2.445583e+02 3.291811e+01 -5.106367e+02
      vertex -2.447933e+02 3.299391e+01 -5.118076e+02
      vertex -2.314790e+02 3.457008e+01 -5.361543e+02
    endloop
  endfacet
  facet normal 1.000000e+00 0.000000e+00 0.000000e+00
    outer loop
      vertex -2.314790e+02 3.545794e+01 -5.343635e+02
      vertex -2.314790e+02 3.489957e+01 -5.335263e+02
      vertex -2.314790e+02 3.457008e+01 -5.361543e+02
    endloop
  endfacet
  facet normal 1.000000e+00 0.000000e+00 0.000000e+00
    outer loop
      vertex -2.314790e+02 3.545794e+01 -5.343635e+02
      vertex -2.314790e+02 3.457008e+01 -5.361543e+02
      vertex -2.314790e+02 3.646209e+01 -5.342984e+02
    endloop
  endfacet
  facet normal 2.217527e-15 -9.979110e-01 -6.460338e-02
    outer loop
      vertex -1.135667e+02 3.488233e+01 -5.409776e+02
      vertex -2.292253e+02 3.465415e+01 -5.374528e+02
      vertex -2.307277e+02 3.465415e+01 -5.374528e+02
    endloop
  endfacet
  facet normal -4.092093e-16 -9.979110e-01 -6.460338e-02
    outer loop
      vertex -2.454790e+02 3.305725e+01 -5.127860e+02
      vertex -2.454790e+02 3.488233e+01 -5.409776e+02
      vertex -2.307277e+02 3.465415e+01 -5.374528e+02
    endloop
  endfacet
  facet normal -1.612568e-16 -9.979110e-01 -6.460338e-02
    outer loop
      vertex -1.135667e+02 3.488233e+01 -5.409776e+02
      vertex -2.307277e+02 3.465415e+01 -5.374528e+02
      vertex -2.454790e+02 3.488233e+01 -5.409776e+02
    endloop
  endfacet
  facet normal -2.044299e-16 -9.979110e-01 -6.460338e-02
    outer loop
      vertex -1.135667e+02 3.488233e+01 -5.409776e+02
      vertex -2.284740e+02 3.457008e+01 -5.361543e+02
      vertex -2.292253e+02 3.465415e+01 -5.374528e+02
    endloop
  endfacet
  facet normal -3.646903e-16 -9.979110e-01 -6.460338e-02
    outer loop
      vertex -1.135667e+02 3.488233e+01 -5.409776e+02
      vertex -2.284740e+02 3.449272e+01 -5.349593e+02
      vertex -2.284740e+02 3.457008e+01 -5.361543e+02
    endloop
  endfacet
  facet normal 0.000000e+00 -9.979110e-01 -6.460338e-02
    outer loop
      vertex -2.199332e+02 3.450475e+01 -5.351452e+02
      vertex -2.203522e+02 3.449272e+01 -5.349593e+02
      vertex -2.284740e+02 3.449272e+01 -5.349593e+02
    endloop
  endfacet
  facet normal -4.285715e-16 -9.979110e-01 -6.460338e-02
    outer loop
      vertex -2.194790e+02 3.450887e+01 -5.352088e+02
      vertex -2.199332e+02 3.450475e+01 -5.351452e+02
      vertex -2.284740e+02 3.449272e+01 -5.349593e+02
    endloop
  endfacet
  facet normal 7.308605e-16 -9.979110e-01 -6.460338e-02
    outer loop
      vertex -1.135667e+02 3.488233e+01 -5.409776e+02
      vertex -2.194790e+02 3.450887e+01 -5.352088e+02
      vertex -2.284740e+02 3.449272e+01 -5.349593e+02
    endloop
  endfacet
  facet normal -7.682124e-17 -9.979110e-01 -6.460338e-02
    outer loop
      vertex -1.135667e+02 3.488233e+01 -5.409776e+02
      vertex -1.274790e+02 3.450887e+01 -5.352088e+02
      vertex -2.194790e+02 3.450887e+01 -5.352088e+02
    endloop
  endfacet
  facet normal -2.744887e-15 -9.979110e-01 -6.460338e-02
    outer loop
      vertex -1.135667e+02 3.488233e+01 -5.409776e+02
      vertex -1.260501e+02 3.445557e+01 -5.343855e+02
      vertex -1.274790e+02 3.450887e+01 -5.352088e+02
    endloop
  endfacet
  facet normal 2.500984e-15 -9.979110e-01 -6.460338e-02
    outer loop
      vertex -1.135667e+02 3.488233e+01 -5.409776e+02
      vertex -1.260501e+02 3.434898e+01 -5.327390e+02
      vertex -1.260501e+02 3.445557e+01 -5.343855e+02
    endloop
  endfacet
  facet normal -3.251163e-16 -9.979110e-01 -6.460338e-02
    outer loop
      vertex -1.114306e+02 3.291811e+01 -5.106367e+02
      vertex -1.274790e+02 3.429568e+01 -5.319157e+02
      vertex -1.260501e+02 3.434898e+01 -5.327390e+02
    endloop
  endfacet
  facet normal -4.428157e-16 -9.979110e-01 -6.460338e-02
    outer loop
      vertex -1.134599e+02 3.485395e+01 -5.405391e+02
      vertex -1.114306e+02 3.291811e+01 -5.106367e+02
      vertex -1.260501e+02 3.434898e+01 -5.327390e+02
    endloop
  endfacet
  facet normal -1.396220e-14 -9.979110e-01 -6.460338e-02
    outer loop
      vertex -1.135083e+02 3.486822e+01 -5.407595e+02
      vertex -1.134599e+02 3.485395e+01 -5.405391e+02
      vertex -1.260501e+02 3.434898e+01 -5.327390e+02
    endloop
  endfacet
  facet normal 4.319859e-15 -9.979110e-01 -6.460338e-02
    outer loop
      vertex -1.135667e+02 3.488233e+01 -5.409776e+02
      vertex -1.135083e+02 3.486822e+01 -5.407595e+02
      vertex -1.260501e+02 3.434898e+01 -5.327390e+02
    endloop
  endfacet
  facet normal -1.000000e+00 0.000000e+00 0.000000e+00
    outer loop
      vertex -2.454790e+02 3.449961e+01 -5.343882e+02
      vertex -2.454790e+02 3.488233e+01 -5.409776e+02
      vertex -2.454790e+02 3.305725e+01 -5.127860e+02
    endloop
  endfacet
  facet normal 1.118183e-17 6.954546e-02 -9.975788e-01
    outer loop
      vertex -1.135667e+02 3.627142e+01 -5.408807e+02
      vertex -1.135667e+02 3.488233e+01 -5.409776e+02
      vertex -2.454790e+02 3.488233e+01 -5.409776e+02
    endloop
  endfacet
  facet normal 5.898283e-15 6.954546e-02 -9.975788e-01
    outer loop
      vertex -2.454790e+02 3.495861e+01 -5.409722e+02
      vertex -1.135667e+02 3.627142e+01 -5.408807e+02
      vertex -2.454790e+02 3.488233e+01 -5.409776e+02
    endloop
  endfacet
  facet normal -1.000000e+00 0.000000e+00 0.000000e+00
    outer loop
      vertex -2.454790e+02 3.449961e+01 -5.343882e+02
      vertex -2.454790e+02 3.495861e+01 -5.409722e+02
      vertex -2.454790e+02 3.488233e+01 -5.409776e+02
    endloop
  endfacet
  facet normal -4.239880e-01 -8.731265e-01 2.405917e-01
    outer loop
      vertex -2.454790e+02 3.338152e+01 -5.116092e+02
      vertex -2.454790e+02 3.305725e+01 -5.127860e+02
      vertex -2.447933e+02 3.299391e+01 -5.118076e+02
    endloop
  endfacet
  facet normal -1.000000e+00 0.000000e+00 0.000000e+00
    outer loop
      vertex -2.454790e+02 3.534535e+01 -5.326242e+02
      vertex -2.454790e+02 3.489957e+01 -5.335263e+02
      vertex -2.454790e+02 3.305725e+01 -5.127860e+02
    endloop
  endfacet
  facet normal -1.000000e+00 0.000000e+00 0.000000e+00
    outer loop
      vertex -2.454790e+02 3.449961e+01 -5.343882e+02
      vertex -2.454790e+02 3.305725e+01 -5.127860e+02
      vertex -2.454790e+02 3.489957e+01 -5.335263e+02
    endloop
  endfacet
  facet normal -1.000000e+00 0.000000e+00 0.000000e+00
    outer loop
      vertex -2.454790e+02 3.338152e+01 -5.116092e+02
      vertex -2.454790e+02 3.535681e+01 -5.115950e+02
      vertex -2.454790e+02 3.305725e+01 -5.127860e+02
    endloop
  endfacet
  facet normal -4.828630e-01 -8.747681e-01 4.030074e-02
    outer loop
      vertex -2.454790e+02 3.338152e+01 -5.116092e+02
      vertex -2.447933e+02 3.299391e+01 -5.118076e+02
      vertex -2.445583e+02 3.291811e+01 -5.106367e+02
    endloop
  endfacet
  facet normal -4.965385e-01 -8.661167e-01 5.737036e-02
    outer loop
      vertex -2.454790e+02 3.338152e+01 -5.116092e+02
      vertex -2.445583e+02 3.291811e+01 -5.106367e+02
      vertex -2.454790e+02 3.344839e+01 -5.105997e+02
    endloop
  endfacet
  facet normal 7.599426e-15 -9.979110e-01 -6.460338e-02
    outer loop
      vertex -1.113749e+02 3.396028e+01 -5.267349e+02
      vertex -1.111947e+02 3.299444e+01 -5.118158e+02
      vertex -1.114306e+02 3.291811e+01 -5.106367e+02
    endloop
  endfacet
  facet normal 4.973113e-01 -8.664854e-01 4.341035e-02
    outer loop
      vertex -1.104809e+02 3.346509e+01 -5.105986e+02
      vertex -1.114306e+02 3.291811e+01 -5.106367e+02
      vertex -1.111947e+02 3.299444e+01 -5.118158e+02
    endloop
  endfacet
  facet normal -3.614069e-15 -9.979110e-01 -6.460338e-02
    outer loop
      vertex -1.134599e+02 3.485395e+01 -5.405391e+02
      vertex -1.113749e+02 3.396028e+01 -5.267349e+02
      vertex -1.114306e+02 3.291811e+01 -5.106367e+02
    endloop
  endfacet
  facet normal -4.071051e-15 -9.979110e-01 -6.460338e-02
    outer loop
      vertex -1.113749e+02 3.396028e+01 -5.267349e+02
      vertex -1.105061e+02 3.305830e+01 -5.128023e+02
      vertex -1.111947e+02 3.299444e+01 -5.118158e+02
    endloop
  endfacet
  facet normal 4.211793e-01 -8.753853e-01 2.372945e-01
    outer loop
      vertex -1.104884e+02 3.340206e+01 -5.115656e+02
      vertex -1.111947e+02 3.299444e+01 -5.118158e+02
      vertex -1.105061e+02 3.305830e+01 -5.128023e+02
    endloop
  endfacet
  facet normal 4.849891e-01 -8.729055e-01 5.311865e-02
    outer loop
      vertex -1.104809e+02 3.346509e+01 -5.105986e+02
      vertex -1.111947e+02 3.299444e+01 -5.118158e+02
      vertex -1.104884e+02 3.340206e+01 -5.115656e+02
    endloop
  endfacet
  facet normal 9.998940e-01 7.996597e-04 -1.453666e-02
    outer loop
      vertex -1.104884e+02 3.340206e+01 -5.115656e+02
      vertex -1.105061e+02 3.305830e+01 -5.128023e+02
      vertex -1.104898e+02 3.534840e+01 -5.115552e+02
    endloop
  endfacet
  facet normal 2.064018e-16 -9.975788e-01 -6.954546e-02
    outer loop
      vertex -2.504790e+02 3.484734e+01 -5.393761e+02
      vertex -2.887849e+02 3.484734e+01 -5.393761e+02
      vertex -2.454790e+02 3.495861e+01 -5.409722e+02
    endloop
  endfacet
  facet normal -3.144067e-16 -9.975788e-01 -6.954546e-02
    outer loop
      vertex -2.895625e+02 3.488337e+01 -5.398930e+02
      vertex -2.454790e+02 3.495861e+01 -5.409722e+02
      vertex -2.887849e+02 3.484734e+01 -5.393761e+02
    endloop
  endfacet
  facet normal -9.665877e-16 -9.975788e-01 -6.954546e-02
    outer loop
      vertex -2.469435e+02 3.474549e+01 -5.379152e+02
      vertex -2.504790e+02 3.484734e+01 -5.393761e+02
      vertex -2.454790e+02 3.495861e+01 -5.409722e+02
    endloop
  endfacet
  facet normal -6.260132e-15 -9.975788e-01 -6.954546e-02
    outer loop
      vertex -2.469435e+02 3.474549e+01 -5.379152e+02
      vertex -2.454790e+02 3.495861e+01 -5.409722e+02
      vertex -2.454790e+02 3.449961e+01 -5.343882e+02
    endloop
  endfacet
  facet normal -8.956244e-16 -9.975788e-01 -6.954546e-02
    outer loop
      vertex -2.895625e+02 3.488337e+01 -5.398930e+02
      vertex -2.904790e+02 3.489602e+01 -5.400744e+02
      vertex -2.454790e+02 3.495861e+01 -5.409722e+02
    endloop
  endfacet
  facet normal 0.000000e+00 -9.975788e-01 -6.954546e-02
    outer loop
      vertex -1.194790e+02 3.645544e+01 -5.435203e+02
      vertex -1.194790e+02 3.652179e+01 -5.444720e+02
      vertex -1.183667e+02 3.652179e+01 -5.444720e+02
    endloop
  endfacet
  facet normal 1.100162e-15 -9.975788e-01 -6.954546e-02
    outer loop
      vertex -1.153667e+02 3.645224e+01 -5.434744e+02
      vertex -1.194790e+02 3.645544e+01 -5.435203e+02
      vertex -1.183667e+02 3.652179e+01 -5.444720e+02
    endloop
  endfacet
  facet normal 1.000000e+00 0.000000e+00 0.000000e+00
    outer loop
      vertex -1.194790e+02 3.505327e+01 -5.436181e+02
      vertex -1.194790e+02 3.652179e+01 -5.444720e+02
      vertex -1.194790e+02 3.645544e+01 -5.435203e+02
    endloop
  endfacet
  facet normal 1.000000e+00 0.000000e+00 0.000000e+00
    outer loop
      vertex -1.194790e+02 3.511491e+01 -5.445701e+02
      vertex -1.194790e+02 3.652179e+01 -5.444720e+02
      vertex -1.194790e+02 3.505327e+01 -5.436181e+02
    endloop
  endfacet
  facet normal -1.000000e+00 0.000000e+00 0.000000e+00
    outer loop
      vertex -2.454790e+02 3.449961e+01 -5.343882e+02
      vertex -2.454790e+02 3.504562e+01 -5.339869e+02
      vertex -2.454790e+02 3.538938e+01 -5.343262e+02
    endloop
  endfacet
  facet normal -1.546723e-03 7.025087e-01 7.116735e-01
    outer loop
      vertex -2.314790e+02 3.545794e+01 -5.343635e+02
      vertex -2.454790e+02 3.538938e+01 -5.343262e+02
      vertex -2.454790e+02 3.504562e+01 -5.339869e+02
    endloop
  endfacet
  facet normal -9.998393e-01 -1.246864e-03 1.788535e-02
    outer loop
      vertex -2.454822e+02 3.597368e+01 -5.344652e+02
      vertex -2.454790e+02 3.449961e+01 -5.343882e+02
      vertex -2.454790e+02 3.538938e+01 -5.343262e+02
    endloop
  endfacet
  facet normal 1.455789e-03 2.313776e-01 9.728629e-01
    outer loop
      vertex -2.314790e+02 3.545794e+01 -5.343635e+02
      vertex -2.454822e+02 3.597368e+01 -5.344652e+02
      vertex -2.454790e+02 3.538938e+01 -5.343262e+02
    endloop
  endfacet
  facet normal -1.000000e+00 0.000000e+00 0.000000e+00
    outer loop
      vertex -2.454790e+02 3.449961e+01 -5.343882e+02
      vertex -2.454790e+02 3.489957e+01 -5.335263e+02
      vertex -2.454790e+02 3.504562e+01 -5.339869e+02
    endloop
  endfacet
  facet normal -1.993835e-02 9.530248e-01 3.022352e-01
    outer loop
      vertex -2.314790e+02 3.545794e+01 -5.343635e+02
      vertex -2.454790e+02 3.504562e+01 -5.339869e+02
      vertex -2.454790e+02 3.489957e+01 -5.335263e+02
    endloop
  endfacet
  facet normal 4.550102e-16 8.965180e-01 -4.430073e-01
    outer loop
      vertex -2.314790e+02 3.489957e+01 -5.335263e+02
      vertex -2.454790e+02 3.489957e+01 -5.335263e+02
      vertex -2.454790e+02 3.534535e+01 -5.326242e+02
    endloop
  endfacet
  facet normal 4.255691e-16 8.319146e-01 5.549037e-01
    outer loop
      vertex -2.314790e+02 3.545794e+01 -5.343635e+02
      vertex -2.454790e+02 3.489957e+01 -5.335263e+02
      vertex -2.314790e+02 3.489957e+01 -5.335263e+02
    endloop
  endfacet
  facet normal 0.000000e+00 6.460338e-02 -9.979110e-01
    outer loop
      vertex -2.314790e+02 3.534535e+01 -5.326242e+02
      vertex -2.454790e+02 3.534535e+01 -5.326242e+02
      vertex -2.454790e+02 3.634950e+01 -5.325592e+02
    endloop
  endfacet
  facet normal 0.000000e+00 8.965180e-01 -4.430073e-01
    outer loop
      vertex -2.314790e+02 3.534535e+01 -5.326242e+02
      vertex -2.314790e+02 3.489957e+01 -5.335263e+02
      vertex -2.454790e+02 3.534535e+01 -5.326242e+02
    endloop
  endfacet
  facet normal 0.000000e+00 -8.319146e-01 -5.549037e-01
    outer loop
      vertex -2.314790e+02 3.634950e+01 -5.325592e+02
      vertex -2.454790e+02 3.634950e+01 -5.325592e+02
      vertex -2.454790e+02 3.690787e+01 -5.333963e+02
    endloop
  endfacet
  facet normal 0.000000e+00 6.460338e-02 -9.979110e-01
    outer loop
      vertex -2.314790e+02 3.634950e+01 -5.325592e+02
      vertex -2.314790e+02 3.534535e+01 -5.326242e+02
      vertex -2.454790e+02 3.634950e+01 -5.325592e+02
    endloop
  endfacet
  facet normal 0.000000e+00 -9.846693e-01 1.744315e-01
    outer loop
      vertex -2.314790e+02 3.690787e+01 -5.333963e+02
      vertex -2.454790e+02 3.690787e+01 -5.333963e+02
      vertex -2.454790e+02 3.682444e+01 -5.338673e+02
    endloop
  endfacet
  facet normal 0.000000e+00 -8.319146e-01 -5.549037e-01
    outer loop
      vertex -2.314790e+02 3.634950e+01 -5.325592e+02
      vertex -2.454790e+02 3.690787e+01 -5.333963e+02
      vertex -2.314790e+02 3.690787e+01 -5.333963e+02
    endloop
  endfacet
  facet normal -1.576903e-02 -7.928547e-01 6.092066e-01
    outer loop
      vertex -2.314790e+02 3.690787e+01 -5.333963e+02
      vertex -2.454790e+02 3.682444e+01 -5.338673e+02
      vertex -2.454790e+02 3.653309e+01 -5.342465e+02
    endloop
  endfacet
  facet normal 1.611672e-03 -3.641054e-01 9.313564e-01
    outer loop
      vertex -2.314790e+02 3.646209e+01 -5.342984e+02
      vertex -2.454790e+02 3.653309e+01 -5.342465e+02
      vertex -2.454822e+02 3.597368e+01 -5.344652e+02
    endloop
  endfacet
  facet normal -2.901666e-03 -8.965142e-01 4.430055e-01
    outer loop
      vertex -2.314790e+02 3.646209e+01 -5.342984e+02
      vertex -2.314790e+02 3.690787e+01 -5.333963e+02
      vertex -2.454790e+02 3.653309e+01 -5.342465e+02
    endloop
  endfacet
  facet normal -1.000000e+00 0.000000e+00 0.000000e+00
    outer loop
      vertex -2.454790e+02 3.344839e+01 -5.105997e+02
      vertex -2.454790e+02 3.510865e+01 -5.104840e+02
      vertex -2.454790e+02 3.535681e+01 -5.115950e+02
    endloop
  endfacet
  facet normal -1.000000e+00 0.000000e+00 0.000000e+00
    outer loop
      vertex -2.454790e+02 3.338152e+01 -5.116092e+02
      vertex -2.454790e+02 3.344839e+01 -5.105997e+02
      vertex -2.454790e+02 3.535681e+01 -5.115950e+02
    endloop
  endfacet
  facet normal 9.998637e-01 -1.148050e-03 1.646793e-02
    outer loop
      vertex -1.104809e+02 3.346509e+01 -5.105986e+02
      vertex -1.104809e+02 3.510974e+01 -5.104839e+02
      vertex -1.105937e+02 3.469948e+01 -5.036625e+02
    endloop
  endfacet
  facet normal 9.994624e-01 3.097602e-02 1.074435e-02
    outer loop
      vertex -1.105166e+02 3.314934e+01 -5.063659e+02
      vertex -1.104809e+02 3.346509e+01 -5.105986e+02
      vertex -1.105937e+02 3.469948e+01 -5.036625e+02
    endloop
  endfacet
  facet normal 9.999663e-01 7.655749e-04 -8.178630e-03
    outer loop
      vertex -1.104884e+02 3.340206e+01 -5.115656e+02
      vertex -1.104898e+02 3.534840e+01 -5.115552e+02
      vertex -1.104809e+02 3.510974e+01 -5.104839e+02
    endloop
  endfacet
  facet normal 9.999692e-01 5.460028e-04 -7.832010e-03
    outer loop
      vertex -1.104809e+02 3.346509e+01 -5.105986e+02
      vertex -1.104884e+02 3.340206e+01 -5.115656e+02
      vertex -1.104809e+02 3.510974e+01 -5.104839e+02
    endloop
  endfacet
  facet normal -9.626519e-03 -6.460039e-02 9.978648e-01
    outer loop
      vertex -2.314790e+02 3.545794e+01 -5.343635e+02
      vertex -2.314790e+02 3.646209e+01 -5.342984e+02
      vertex -2.454822e+02 3.597368e+01 -5.344652e+02
    endloop
  endfacet
endsolid 109_100022597-20
