solid 110_100022596-20
  facet normal -1.000000e+00 0.000000e+00 0.000000e+00
    outer loop
      vertex -3.154790e+02 2.852812e+01 -4.797919e+02
      vertex -3.154790e+02 3.115963e+01 -4.787330e+02
      vertex -3.154790e+02 3.121333e+01 -4.796314e+02
    endloop
  endfacet
  facet normal 1.519879e-16 9.982188e-01 5.966005e-02
    outer loop
      vertex -2.454790e+02 3.115963e+01 -4.787330e+02
      vertex -3.154790e+02 3.121333e+01 -4.796314e+02
      vertex -3.154790e+02 3.115963e+01 -4.787330e+02
    endloop
  endfacet
  facet normal 8.478203e-18 5.966005e-02 -9.982188e-01
    outer loop
      vertex -2.904790e+02 3.121333e+01 -4.796314e+02
      vertex -3.154790e+02 2.852812e+01 -4.797919e+02
      vertex -3.154790e+02 3.121333e+01 -4.796314e+02
    endloop
  endfacet
  facet normal 1.418554e-16 9.982188e-01 5.966005e-02
    outer loop
      vertex -2.904790e+02 3.121333e+01 -4.796314e+02
      vertex -3.154790e+02 3.121333e+01 -4.796314e+02
      vertex -2.454790e+02 3.115963e+01 -4.787330e+02
    endloop
  endfacet
  facet normal -1.000000e+00 0.000000e+00 0.000000e+00
    outer loop
      vertex -3.154790e+02 2.852812e+01 -4.797919e+02
      vertex -3.154790e+02 2.982601e+01 -4.788127e+02
      vertex -3.154790e+02 3.115963e+01 -4.787330e+02
    endloop
  endfacet
  facet normal -7.348147e-18 -5.966005e-02 9.982188e-01
    outer loop
      vertex -1.135661e+02 2.982601e+01 -4.788127e+02
      vertex -3.154790e+02 3.115963e+01 -4.787330e+02
      vertex -3.154790e+02 2.982601e+01 -4.788127e+02
    endloop
  endfacet
  facet normal -9.083789e-18 -5.966005e-02 9.982188e-01
    outer loop
      vertex -2.454790e+02 3.115963e+01 -4.787330e+02
      vertex -3.154790e+02 3.115963e+01 -4.787330e+02
      vertex -1.135661e+02 2.982601e+01 -4.788127e+02
    endloop
  endfacet
  facet normal -1.000000e+00 0.000000e+00 0.000000e+00
    outer loop
      vertex -3.154790e+02 2.825965e+01 -4.752999e+02
      vertex -3.154790e+02 2.966815e+01 -4.761714e+02
      vertex -3.154790e+02 2.982601e+01 -4.788127e+02
    endloop
  endfacet
  facet normal 1.085628e-16 9.982188e-01 5.966005e-02
    outer loop
      vertex -1.194790e+02 2.966815e+01 -4.761714e+02
      vertex -3.154790e+02 2.982601e+01 -4.788127e+02
      vertex -3.154790e+02 2.966815e+01 -4.761714e+02
    endloop
  endfacet
  facet normal -1.000000e+00 0.000000e+00 0.000000e+00
    outer loop
      vertex -3.154790e+02 2.852812e+01 -4.797919e+02
      vertex -3.154790e+02 2.825965e+01 -4.752999e+02
      vertex -3.154790e+02 2.982601e+01 -4.788127e+02
    endloop
  endfacet
  facet normal 1.229766e-16 9.982188e-01 5.966005e-02
    outer loop
      vertex -1.153661e+02 2.967090e+01 -4.762174e+02
      vertex -1.135661e+02 2.982601e+01 -4.788127e+02
      vertex -3.154790e+02 2.982601e+01 -4.788127e+02
    endloop
  endfacet
  facet normal 3.079118e-16 9.982188e-01 5.966005e-02
    outer loop
      vertex -1.153661e+02 2.967090e+01 -4.762174e+02
      vertex -3.154790e+02 2.982601e+01 -4.788127e+02
      vertex -1.194790e+02 2.966815e+01 -4.761714e+02
    endloop
  endfacet
  facet normal -1.000000e+00 0.000000e+00 0.000000e+00
    outer loop
      vertex -3.154790e+02 3.097458e+01 -4.751377e+02
      vertex -3.154790e+02 3.103621e+01 -4.760897e+02
      vertex -3.154790e+02 2.966815e+01 -4.761714e+02
    endloop
  endfacet
  facet normal 7.569824e-18 5.966005e-02 -9.982188e-01
    outer loop
      vertex -1.194790e+02 3.103621e+01 -4.760897e+02
      vertex -3.154790e+02 2.966815e+01 -4.761714e+02
      vertex -3.154790e+02 3.103621e+01 -4.760897e+02
    endloop
  endfacet
  facet normal -1.000000e+00 0.000000e+00 0.000000e+00
    outer loop
      vertex -3.154790e+02 2.825965e+01 -4.752999e+02
      vertex -3.154790e+02 3.097458e+01 -4.751377e+02
      vertex -3.154790e+02 2.966815e+01 -4.761714e+02
    endloop
  endfacet
  facet normal 6.509624e-18 5.966005e-02 -9.982188e-01
    outer loop
      vertex -1.194790e+02 3.103621e+01 -4.760897e+02
      vertex -1.194790e+02 2.966815e+01 -4.761714e+02
      vertex -3.154790e+02 2.966815e+01 -4.761714e+02
    endloop
  endfacet
  facet normal 1.266176e-16 9.979110e-01 6.460372e-02
    outer loop
      vertex -1.194790e+02 3.097458e+01 -4.751377e+02
      vertex -3.154790e+02 3.103621e+01 -4.760897e+02
      vertex -3.154790e+02 3.097458e+01 -4.751377e+02
    endloop
  endfacet
  facet normal 1.266163e-16 9.979110e-01 6.460372e-02
    outer loop
      vertex -1.194790e+02 3.097458e+01 -4.751377e+02
      vertex -1.194790e+02 3.103621e+01 -4.760897e+02
      vertex -3.154790e+02 3.103621e+01 -4.760897e+02
    endloop
  endfacet
  facet normal -7.527085e-18 -5.966005e-02 9.982188e-01
    outer loop
      vertex -1.183661e+02 2.825965e+01 -4.752999e+02
      vertex -3.154790e+02 3.097458e+01 -4.751377e+02
      vertex -3.154790e+02 2.825965e+01 -4.752999e+02
    endloop
  endfacet
  facet normal 2.130602e-16 -5.966005e-02 9.982188e-01
    outer loop
      vertex -1.194790e+02 2.961124e+01 -4.752191e+02
      vertex -3.154790e+02 3.097458e+01 -4.751377e+02
      vertex -1.183661e+02 2.825965e+01 -4.752999e+02
    endloop
  endfacet
  facet normal -7.569824e-18 -5.966005e-02 9.982188e-01
    outer loop
      vertex -1.194790e+02 3.097458e+01 -4.751377e+02
      vertex -3.154790e+02 3.097458e+01 -4.751377e+02
      vertex -1.194790e+02 2.961124e+01 -4.752191e+02
    endloop
  endfacet
  facet normal 0.000000e+00 -9.982188e-01 -5.966005e-02
    outer loop
      vertex -2.904790e+02 2.852812e+01 -4.797919e+02
      vertex -3.154790e+02 2.825965e+01 -4.752999e+02
      vertex -3.154790e+02 2.852812e+01 -4.797919e+02
    endloop
  endfacet
  facet normal -1.258630e-16 -9.982188e-01 -5.966005e-02
    outer loop
      vertex -2.504790e+02 2.856988e+01 -4.804907e+02
      vertex -1.183661e+02 2.825965e+01 -4.752999e+02
      vertex -3.154790e+02 2.825965e+01 -4.752999e+02
    endloop
  endfacet
  facet normal -1.337392e-16 -9.982188e-01 -5.966005e-02
    outer loop
      vertex -2.904790e+02 2.852812e+01 -4.797919e+02
      vertex -2.504790e+02 2.856988e+01 -4.804907e+02
      vertex -3.154790e+02 2.825965e+01 -4.752999e+02
    endloop
  endfacet
  facet normal 0.000000e+00 5.966005e-02 -9.982188e-01
    outer loop
      vertex -2.904790e+02 3.121333e+01 -4.796314e+02
      vertex -2.904790e+02 2.852812e+01 -4.797919e+02
      vertex -3.154790e+02 2.852812e+01 -4.797919e+02
    endloop
  endfacet
  facet normal -5.527642e-16 -9.982188e-01 -5.966005e-02
    outer loop
      vertex -1.116914e+02 3.033307e+01 -5.099920e+02
      vertex -1.151883e+02 2.832765e+01 -4.764377e+02
      vertex -1.183661e+02 2.825965e+01 -4.752999e+02
    endloop
  endfacet
  facet normal 3.376049e-01 -5.615728e-02 9.396112e-01
    outer loop
      vertex -1.183661e+02 2.961124e+01 -4.752191e+02
      vertex -1.183661e+02 2.825965e+01 -4.752999e+02
      vertex -1.151883e+02 2.832765e+01 -4.764377e+02
    endloop
  endfacet
  facet normal -2.184242e-16 -9.982188e-01 -5.966005e-02
    outer loop
      vertex -1.258347e+02 3.028291e+01 -5.091526e+02
      vertex -1.116914e+02 3.033307e+01 -5.099920e+02
      vertex -1.183661e+02 2.825965e+01 -4.752999e+02
    endloop
  endfacet
  facet normal -3.075644e-15 -9.982188e-01 -5.966005e-02
    outer loop
      vertex -1.260068e+02 3.023033e+01 -5.082730e+02
      vertex -1.258347e+02 3.028291e+01 -5.091526e+02
      vertex -1.183661e+02 2.825965e+01 -4.752999e+02
    endloop
  endfacet
  facet normal 1.139527e-15 -9.982188e-01 -5.966005e-02
    outer loop
      vertex -1.266150e+02 3.019093e+01 -5.076137e+02
      vertex -1.260068e+02 3.023033e+01 -5.082730e+02
      vertex -1.183661e+02 2.825965e+01 -4.752999e+02
    endloop
  endfacet
  facet normal -1.414390e-15 -9.982188e-01 -5.966005e-02
    outer loop
      vertex -1.274790e+02 3.017635e+01 -5.073697e+02
      vertex -1.266150e+02 3.019093e+01 -5.076137e+02
      vertex -1.183661e+02 2.825965e+01 -4.752999e+02
    endloop
  endfacet
  facet normal -1.096202e-16 -9.982188e-01 -5.966005e-02
    outer loop
      vertex -2.504790e+02 2.856988e+01 -4.804907e+02
      vertex -1.274790e+02 3.017635e+01 -5.073697e+02
      vertex -1.183661e+02 2.825965e+01 -4.752999e+02
    endloop
  endfacet
  facet normal 0.000000e+00 -5.966005e-02 9.982188e-01
    outer loop
      vertex -1.194790e+02 2.961124e+01 -4.752191e+02
      vertex -1.183661e+02 2.825965e+01 -4.752999e+02
      vertex -1.183661e+02 2.961124e+01 -4.752191e+02
    endloop
  endfacet
  facet normal -1.777083e-15 -9.982188e-01 -5.966005e-02
    outer loop
      vertex -1.116914e+02 3.033307e+01 -5.099920e+02
      vertex -1.134592e+02 2.850064e+01 -4.793322e+02
      vertex -1.151883e+02 2.832765e+01 -4.764377e+02
    endloop
  endfacet
  facet normal 8.547670e-01 -1.281910e-01 5.029318e-01
    outer loop
      vertex -1.135661e+02 2.982601e+01 -4.788127e+02
      vertex -1.151883e+02 2.832765e+01 -4.764377e+02
      vertex -1.134592e+02 2.850064e+01 -4.793322e+02
    endloop
  endfacet
  facet normal 8.211977e-01 1.516301e-02 5.704422e-01
    outer loop
      vertex -1.153661e+02 2.967090e+01 -4.762174e+02
      vertex -1.151883e+02 2.832765e+01 -4.764377e+02
      vertex -1.135661e+02 2.982601e+01 -4.788127e+02
    endloop
  endfacet
  facet normal 3.157261e-01 -1.127163e-01 9.421317e-01
    outer loop
      vertex -1.153661e+02 2.967090e+01 -4.762174e+02
      vertex -1.183661e+02 2.961124e+01 -4.752191e+02
      vertex -1.151883e+02 2.832765e+01 -4.764377e+02
    endloop
  endfacet
  facet normal 2.072661e-15 -9.982188e-01 -5.966005e-02
    outer loop
      vertex -1.113779e+02 3.025049e+01 -5.086103e+02
      vertex -1.113523e+02 2.933847e+01 -4.933506e+02
      vertex -1.134592e+02 2.850064e+01 -4.793322e+02
    endloop
  endfacet
  facet normal 9.889319e-01 -8.851776e-03 1.481060e-01
    outer loop
      vertex -1.134592e+02 3.123554e+01 -4.791687e+02
      vertex -1.134592e+02 2.850064e+01 -4.793322e+02
      vertex -1.113523e+02 2.933847e+01 -4.933506e+02
    endloop
  endfacet
  facet normal -4.375270e-15 -9.982188e-01 -5.966005e-02
    outer loop
      vertex -1.116914e+02 3.033307e+01 -5.099920e+02
      vertex -1.113779e+02 3.025049e+01 -5.086103e+02
      vertex -1.134592e+02 2.850064e+01 -4.793322e+02
    endloop
  endfacet
  facet normal 9.660856e-01 -1.913089e-02 2.575122e-01
    outer loop
      vertex -1.135077e+02 3.122127e+01 -4.789483e+02
      vertex -1.135661e+02 3.120715e+01 -4.787302e+02
      vertex -1.134592e+02 2.850064e+01 -4.793322e+02
    endloop
  endfacet
  facet normal 9.716810e-01 -1.409747e-02 2.358757e-01
    outer loop
      vertex -1.135661e+02 2.982601e+01 -4.788127e+02
      vertex -1.134592e+02 2.850064e+01 -4.793322e+02
      vertex -1.135661e+02 3.120715e+01 -4.787302e+02
    endloop
  endfacet
  facet normal 9.767770e-01 -1.278267e-02 2.138767e-01
    outer loop
      vertex -1.135077e+02 3.122127e+01 -4.789483e+02
      vertex -1.134592e+02 2.850064e+01 -4.793322e+02
      vertex -1.134592e+02 3.123554e+01 -4.791687e+02
    endloop
  endfacet
  facet normal 5.398482e-15 -9.982188e-01 -5.966005e-02
    outer loop
      vertex -1.113779e+02 3.025049e+01 -5.086103e+02
      vertex -1.104989e+02 3.018404e+01 -5.074985e+02
      vertex -1.113523e+02 2.933847e+01 -4.933506e+02
    endloop
  endfacet
  facet normal 9.981920e-01 -3.766898e-03 5.998863e-02
    outer loop
      vertex -1.113510e+02 3.214369e+01 -4.931966e+02
      vertex -1.113523e+02 2.933847e+01 -4.933506e+02
      vertex -1.104989e+02 3.018404e+01 -5.074985e+02
    endloop
  endfacet
  facet normal 9.889391e-01 -8.596359e-03 1.480729e-01
    outer loop
      vertex -1.134592e+02 3.123554e+01 -4.791687e+02
      vertex -1.113523e+02 2.933847e+01 -4.933506e+02
      vertex -1.113510e+02 3.214369e+01 -4.931966e+02
    endloop
  endfacet
  facet normal 4.113886e-01 -8.307936e-01 -3.748885e-01
    outer loop
      vertex -1.104834e+02 3.078112e+01 -5.088047e+02
      vertex -1.104989e+02 3.018404e+01 -5.074985e+02
      vertex -1.113779e+02 3.025049e+01 -5.086103e+02
    endloop
  endfacet
  facet normal 9.981990e-01 -3.164437e-03 5.990650e-02
    outer loop
      vertex -1.113510e+02 3.214369e+01 -4.931966e+02
      vertex -1.104989e+02 3.018404e+01 -5.074985e+02
      vertex -1.104984e+02 3.306020e+01 -5.073536e+02
    endloop
  endfacet
  facet normal 9.999332e-01 -7.278828e-04 1.153255e-02
    outer loop
      vertex -1.104834e+02 3.078112e+01 -5.088047e+02
      vertex -1.104984e+02 3.306020e+01 -5.073536e+02
      vertex -1.104989e+02 3.018404e+01 -5.074985e+02
    endloop
  endfacet
  facet normal 4.776734e-01 -8.638378e-01 -1.600388e-01
    outer loop
      vertex -1.104834e+02 3.078112e+01 -5.088047e+02
      vertex -1.113779e+02 3.025049e+01 -5.086103e+02
      vertex -1.116914e+02 3.033307e+01 -5.099920e+02
    endloop
  endfacet
  facet normal 0.000000e+00 -9.982188e-01 -5.966005e-02
    outer loop
      vertex -1.258347e+02 3.028291e+01 -5.091526e+02
      vertex -1.261493e+02 3.033307e+01 -5.099920e+02
      vertex -1.116914e+02 3.033307e+01 -5.099920e+02
    endloop
  endfacet
  facet normal 0.000000e+00 5.966005e-02 -9.982188e-01
    outer loop
      vertex -1.109986e+02 3.073236e+01 -5.099682e+02
      vertex -1.116914e+02 3.033307e+01 -5.099920e+02
      vertex -1.261493e+02 3.033307e+01 -5.099920e+02
    endloop
  endfacet
  facet normal 4.955639e-01 -8.488833e-01 -1.838848e-01
    outer loop
      vertex -1.104834e+02 3.078112e+01 -5.088047e+02
      vertex -1.116914e+02 3.033307e+01 -5.099920e+02
      vertex -1.109986e+02 3.073236e+01 -5.099682e+02
    endloop
  endfacet
  facet normal -9.365842e-01 -2.090742e-02 3.498183e-01
    outer loop
      vertex -1.261493e+02 3.073236e+01 -5.099682e+02
      vertex -1.261493e+02 3.033307e+01 -5.099920e+02
      vertex -1.258347e+02 3.028291e+01 -5.091526e+02
    endloop
  endfacet
  facet normal 1.398976e-17 5.966005e-02 -9.982188e-01
    outer loop
      vertex -1.109986e+02 3.073236e+01 -5.099682e+02
      vertex -1.261493e+02 3.033307e+01 -5.099920e+02
      vertex -1.261493e+02 3.073236e+01 -5.099682e+02
    endloop
  endfacet
  facet normal -9.814592e-01 1.151194e-02 -1.913252e-01
    outer loop
      vertex -1.258346e+02 3.316546e+01 -5.089795e+02
      vertex -1.258347e+02 3.028291e+01 -5.091526e+02
      vertex -1.260068e+02 3.023033e+01 -5.082730e+02
    endloop
  endfacet
  facet normal -9.365657e-01 -2.079198e-02 3.498748e-01
    outer loop
      vertex -1.261487e+02 3.321979e+01 -5.098186e+02
      vertex -1.261493e+02 3.073236e+01 -5.099682e+02
      vertex -1.258347e+02 3.028291e+01 -5.091526e+02
    endloop
  endfacet
  facet normal -9.367865e-01 -2.095189e-02 3.492737e-01
    outer loop
      vertex -1.258346e+02 3.316546e+01 -5.089795e+02
      vertex -1.261487e+02 3.321979e+01 -5.098186e+02
      vertex -1.258347e+02 3.028291e+01 -5.091526e+02
    endloop
  endfacet
  facet normal -7.356436e-01 4.046362e-02 -6.761591e-01
    outer loop
      vertex -1.260071e+02 3.310856e+01 -5.081005e+02
      vertex -1.260068e+02 3.023033e+01 -5.082730e+02
      vertex -1.266150e+02 3.019093e+01 -5.076137e+02
    endloop
  endfacet
  facet normal -9.813796e-01 1.140764e-02 -1.917391e-01
    outer loop
      vertex -1.258346e+02 3.316546e+01 -5.089795e+02
      vertex -1.260068e+02 3.023033e+01 -5.082730e+02
      vertex -1.260071e+02 3.310856e+01 -5.081005e+02
    endloop
  endfacet
  facet normal -2.721938e-01 5.743360e-02 -9.605269e-01
    outer loop
      vertex -1.266152e+02 3.306591e+01 -5.074417e+02
      vertex -1.266150e+02 3.019093e+01 -5.076137e+02
      vertex -1.274790e+02 3.017635e+01 -5.073697e+02
    endloop
  endfacet
  facet normal -7.354738e-01 4.039676e-02 -6.763478e-01
    outer loop
      vertex -1.260071e+02 3.310856e+01 -5.081005e+02
      vertex -1.266150e+02 3.019093e+01 -5.076137e+02
      vertex -1.266152e+02 3.306591e+01 -5.074417e+02
    endloop
  endfacet
  facet normal -1.152614e-16 -9.982188e-01 -5.966005e-02
    outer loop
      vertex -2.469434e+02 2.865725e+01 -4.819525e+02
      vertex -2.194790e+02 3.017635e+01 -5.073697e+02
      vertex -1.274790e+02 3.017635e+01 -5.073697e+02
    endloop
  endfacet
  facet normal 6.916375e-18 5.966005e-02 -9.982188e-01
    outer loop
      vertex -1.274790e+02 3.305013e+01 -5.071979e+02
      vertex -1.274790e+02 3.017635e+01 -5.073697e+02
      vertex -2.194790e+02 3.017635e+01 -5.073697e+02
    endloop
  endfacet
  facet normal 7.320998e-16 -9.982188e-01 -5.966005e-02
    outer loop
      vertex -2.504790e+02 2.856988e+01 -4.804907e+02
      vertex -2.469434e+02 2.865725e+01 -4.819525e+02
      vertex -1.274790e+02 3.017635e+01 -5.073697e+02
    endloop
  endfacet
  facet normal -2.721128e-01 5.740880e-02 -9.605513e-01
    outer loop
      vertex -1.266152e+02 3.306591e+01 -5.074417e+02
      vertex -1.274790e+02 3.017635e+01 -5.073697e+02
      vertex -1.274790e+02 3.305013e+01 -5.071979e+02
    endloop
  endfacet
  facet normal 3.731751e-15 -9.982188e-01 -5.966005e-02
    outer loop
      vertex -2.469434e+02 2.865725e+01 -4.819525e+02
      vertex -2.199335e+02 3.018016e+01 -5.074335e+02
      vertex -2.194790e+02 3.017635e+01 -5.073697e+02
    endloop
  endfacet
  facet normal 1.391629e-01 5.907953e-02 -9.885056e-01
    outer loop
      vertex -2.194790e+02 3.305013e+01 -5.071979e+02
      vertex -2.194790e+02 3.017635e+01 -5.073697e+02
      vertex -2.199335e+02 3.018016e+01 -5.074335e+02
    endloop
  endfacet
  facet normal 4.607719e-18 5.966005e-02 -9.982188e-01
    outer loop
      vertex -1.274790e+02 3.305013e+01 -5.071979e+02
      vertex -2.194790e+02 3.017635e+01 -5.073697e+02
      vertex -2.194790e+02 3.305013e+01 -5.071979e+02
    endloop
  endfacet
  facet normal -9.043346e-16 -9.982188e-01 -5.966005e-02
    outer loop
      vertex -2.469434e+02 2.865725e+01 -4.819525e+02
      vertex -2.203522e+02 3.019126e+01 -5.076193e+02
      vertex -2.199335e+02 3.018016e+01 -5.074335e+02
    endloop
  endfacet
  facet normal 4.062280e-01 5.451564e-02 -9.121441e-01
    outer loop
      vertex -2.199335e+02 3.305425e+01 -5.072617e+02
      vertex -2.199335e+02 3.018016e+01 -5.074335e+02
      vertex -2.203522e+02 3.019126e+01 -5.076193e+02
    endloop
  endfacet
  facet normal 1.391627e-01 5.907955e-02 -9.885056e-01
    outer loop
      vertex -2.194790e+02 3.305013e+01 -5.071979e+02
      vertex -2.199335e+02 3.018016e+01 -5.074335e+02
      vertex -2.199335e+02 3.305425e+01 -5.072617e+02
    endloop
  endfacet
  facet normal 0.000000e+00 -9.982188e-01 -5.966005e-02
    outer loop
      vertex -2.284740e+02 3.011982e+01 -5.064239e+02
      vertex -2.284740e+02 3.019126e+01 -5.076193e+02
      vertex -2.203522e+02 3.019126e+01 -5.076193e+02
    endloop
  endfacet
  facet normal 0.000000e+00 5.966005e-02 -9.982188e-01
    outer loop
      vertex -2.203522e+02 3.306628e+01 -5.074474e+02
      vertex -2.203522e+02 3.019126e+01 -5.076193e+02
      vertex -2.284740e+02 3.019126e+01 -5.076193e+02
    endloop
  endfacet
  facet normal -6.947094e-16 -9.982188e-01 -5.966005e-02
    outer loop
      vertex -2.292255e+02 3.004219e+01 -5.051250e+02
      vertex -2.284740e+02 3.011982e+01 -5.064239e+02
      vertex -2.203522e+02 3.019126e+01 -5.076193e+02
    endloop
  endfacet
  facet normal -1.757580e-16 -9.982188e-01 -5.966005e-02
    outer loop
      vertex -2.469434e+02 2.865725e+01 -4.819525e+02
      vertex -2.292255e+02 3.004219e+01 -5.051250e+02
      vertex -2.203522e+02 3.019126e+01 -5.076193e+02
    endloop
  endfacet
  facet normal 4.062279e-01 5.451567e-02 -9.121442e-01
    outer loop
      vertex -2.199335e+02 3.305425e+01 -5.072617e+02
      vertex -2.203522e+02 3.019126e+01 -5.076193e+02
      vertex -2.203522e+02 3.306628e+01 -5.074474e+02
    endloop
  endfacet
  facet normal -1.000000e+00 0.000000e+00 0.000000e+00
    outer loop
      vertex -2.284740e+02 3.298891e+01 -5.062524e+02
      vertex -2.284740e+02 3.019126e+01 -5.076193e+02
      vertex -2.284740e+02 3.011982e+01 -5.064239e+02
    endloop
  endfacet
  facet normal -1.000000e+00 0.000000e+00 0.000000e+00
    outer loop
      vertex -2.284740e+02 3.306628e+01 -5.074474e+02
      vertex -2.284740e+02 3.019126e+01 -5.076193e+02
      vertex -2.284740e+02 3.298891e+01 -5.062524e+02
    endloop
  endfacet
  facet normal 0.000000e+00 5.966005e-02 -9.982188e-01
    outer loop
      vertex -2.203522e+02 3.306628e+01 -5.074474e+02
      vertex -2.284740e+02 3.019126e+01 -5.076193e+02
      vertex -2.284740e+02 3.306628e+01 -5.074474e+02
    endloop
  endfacet
  facet normal -8.659701e-01 2.983573e-02 -4.992049e-01
    outer loop
      vertex -2.284740e+02 3.298891e+01 -5.062524e+02
      vertex -2.284740e+02 3.011982e+01 -5.064239e+02
      vertex -2.292255e+02 3.004219e+01 -5.051250e+02
    endloop
  endfacet
  facet normal 0.000000e+00 -9.982188e-01 -5.966005e-02
    outer loop
      vertex -2.469434e+02 2.865725e+01 -4.819525e+02
      vertex -2.307275e+02 3.004219e+01 -5.051250e+02
      vertex -2.292255e+02 3.004219e+01 -5.051250e+02
    endloop
  endfacet
  facet normal 0.000000e+00 5.966088e-02 -9.982187e-01
    outer loop
      vertex -2.292255e+02 3.290485e+01 -5.049539e+02
      vertex -2.292255e+02 3.004219e+01 -5.051250e+02
      vertex -2.307275e+02 3.004219e+01 -5.051250e+02
    endloop
  endfacet
  facet normal -8.659693e-01 2.983498e-02 -4.992063e-01
    outer loop
      vertex -2.284740e+02 3.298891e+01 -5.062524e+02
      vertex -2.292255e+02 3.004219e+01 -5.051250e+02
      vertex -2.292255e+02 3.290485e+01 -5.049539e+02
    endloop
  endfacet
  facet normal -1.106037e-15 -9.982188e-01 -5.966005e-02
    outer loop
      vertex -2.469434e+02 2.865725e+01 -4.819525e+02
      vertex -2.314790e+02 3.011982e+01 -5.064239e+02
      vertex -2.307275e+02 3.004219e+01 -5.051250e+02
    endloop
  endfacet
  facet normal 8.659701e-01 2.983489e-02 -4.992050e-01
    outer loop
      vertex -2.307275e+02 3.290485e+01 -5.049539e+02
      vertex -2.307275e+02 3.004219e+01 -5.051250e+02
      vertex -2.314790e+02 3.011982e+01 -5.064239e+02
    endloop
  endfacet
  facet normal -9.464312e-09 5.966089e-02 -9.982187e-01
    outer loop
      vertex -2.292255e+02 3.290485e+01 -5.049539e+02
      vertex -2.307275e+02 3.004219e+01 -5.051250e+02
      vertex -2.307275e+02 3.290485e+01 -5.049539e+02
    endloop
  endfacet
  facet normal 1.542489e-15 -9.982188e-01 -5.966005e-02
    outer loop
      vertex -2.469434e+02 2.865725e+01 -4.819525e+02
      vertex -2.314790e+02 3.033307e+01 -5.099920e+02
      vertex -2.314790e+02 3.011982e+01 -5.064239e+02
    endloop
  endfacet
  facet normal 1.000000e+00 0.000000e+00 0.000000e+00
    outer loop
      vertex -2.314790e+02 3.071160e+01 -5.089956e+02
      vertex -2.314790e+02 3.011982e+01 -5.064239e+02
      vertex -2.314790e+02 3.033307e+01 -5.099920e+02
    endloop
  endfacet
  facet normal 8.659693e-01 2.983582e-02 -4.992063e-01
    outer loop
      vertex -2.307275e+02 3.290485e+01 -5.049539e+02
      vertex -2.314790e+02 3.011982e+01 -5.064239e+02
      vertex -2.314790e+02 3.298891e+01 -5.062524e+02
    endloop
  endfacet
  facet normal 1.000000e+00 0.000000e+00 0.000000e+00
    outer loop
      vertex -2.314790e+02 3.115726e+01 -5.080937e+02
      vertex -2.314790e+02 3.298891e+01 -5.062524e+02
      vertex -2.314790e+02 3.011982e+01 -5.064239e+02
    endloop
  endfacet
  facet normal 1.000000e+00 0.000000e+00 0.000000e+00
    outer loop
      vertex -2.314790e+02 3.115726e+01 -5.080937e+02
      vertex -2.314790e+02 3.011982e+01 -5.064239e+02
      vertex -2.314790e+02 3.071160e+01 -5.089956e+02
    endloop
  endfacet
  facet normal -2.715572e-16 -9.982188e-01 -5.966005e-02
    outer loop
      vertex -2.454790e+02 2.886818e+01 -4.854818e+02
      vertex -2.442666e+02 3.033307e+01 -5.099920e+02
      vertex -2.314790e+02 3.033307e+01 -5.099920e+02
    endloop
  endfacet
  facet normal 1.661799e-17 5.966005e-02 -9.982188e-01
    outer loop
      vertex -2.314790e+02 3.073236e+01 -5.099682e+02
      vertex -2.314790e+02 3.033307e+01 -5.099920e+02
      vertex -2.442666e+02 3.033307e+01 -5.099920e+02
    endloop
  endfacet
  facet normal -5.050893e-15 -9.982188e-01 -5.966005e-02
    outer loop
      vertex -2.469434e+02 2.865725e+01 -4.819525e+02
      vertex -2.454790e+02 2.886818e+01 -4.854818e+02
      vertex -2.314790e+02 3.033307e+01 -5.099920e+02
    endloop
  endfacet
  facet normal 1.000000e+00 0.000000e+00 0.000000e+00
    outer loop
      vertex -2.314790e+02 3.073236e+01 -5.099682e+02
      vertex -2.314790e+02 3.321979e+01 -5.098186e+02
      vertex -2.314790e+02 3.126984e+01 -5.098326e+02
    endloop
  endfacet
  facet normal 1.000000e+00 0.000000e+00 0.000000e+00
    outer loop
      vertex -2.314790e+02 3.126984e+01 -5.098326e+02
      vertex -2.314790e+02 3.033307e+01 -5.099920e+02
      vertex -2.314790e+02 3.073236e+01 -5.099682e+02
    endloop
  endfacet
  facet normal 1.000000e+00 0.000000e+00 0.000000e+00
    outer loop
      vertex -2.314790e+02 3.126984e+01 -5.098326e+02
      vertex -2.314790e+02 3.071160e+01 -5.089956e+02
      vertex -2.314790e+02 3.033307e+01 -5.099920e+02
    endloop
  endfacet
  facet normal -5.784715e-15 -9.982188e-01 -5.966005e-02
    outer loop
      vertex -2.454790e+02 2.886818e+01 -4.854818e+02
      vertex -2.445856e+02 3.024980e+01 -5.085988e+02
      vertex -2.442666e+02 3.033307e+01 -5.099920e+02
    endloop
  endfacet
  facet normal -4.967659e-01 -8.521165e-01 -1.646850e-01
    outer loop
      vertex -2.449594e+02 3.073236e+01 -5.099682e+02
      vertex -2.442666e+02 3.033307e+01 -5.099920e+02
      vertex -2.445856e+02 3.024980e+01 -5.085988e+02
    endloop
  endfacet
  facet normal 0.000000e+00 5.966005e-02 -9.982188e-01
    outer loop
      vertex -2.314790e+02 3.073236e+01 -5.099682e+02
      vertex -2.442666e+02 3.033307e+01 -5.099920e+02
      vertex -2.449594e+02 3.073236e+01 -5.099682e+02
    endloop
  endfacet
  facet normal 2.525994e-15 -9.982188e-01 -5.966005e-02
    outer loop
      vertex -2.454790e+02 2.886818e+01 -4.854818e+02
      vertex -2.454790e+02 3.018309e+01 -5.074826e+02
      vertex -2.445856e+02 3.024980e+01 -5.085988e+02
    endloop
  endfacet
  facet normal -4.053490e-01 -8.340293e-01 -3.742824e-01
    outer loop
      vertex -2.453279e+02 3.071450e+01 -5.088304e+02
      vertex -2.445856e+02 3.024980e+01 -5.085988e+02
      vertex -2.454790e+02 3.018309e+01 -5.074826e+02
    endloop
  endfacet
  facet normal -4.967659e-01 -8.521165e-01 -1.646850e-01
    outer loop
      vertex -2.454790e+02 3.103183e+01 -5.099503e+02
      vertex -2.449594e+02 3.073236e+01 -5.099682e+02
      vertex -2.445856e+02 3.024980e+01 -5.085988e+02
    endloop
  endfacet
  facet normal -5.646384e-01 -8.186601e-01 -1.047811e-01
    outer loop
      vertex -2.454790e+02 3.101883e+01 -5.097930e+02
      vertex -2.445856e+02 3.024980e+01 -5.085988e+02
      vertex -2.454790e+02 3.099884e+01 -5.096367e+02
    endloop
  endfacet
  facet normal -4.277455e-01 5.171295e-01 7.413575e-01
    outer loop
      vertex -2.452254e+02 3.080273e+01 -5.093536e+02
      vertex -2.454790e+02 3.099884e+01 -5.096367e+02
      vertex -2.445856e+02 3.024980e+01 -5.085988e+02
    endloop
  endfacet
  facet normal -5.988791e-01 -7.981203e-01 -6.593786e-02
    outer loop
      vertex -2.454790e+02 3.103183e+01 -5.099503e+02
      vertex -2.445856e+02 3.024980e+01 -5.085988e+02
      vertex -2.454790e+02 3.101883e+01 -5.097930e+02
    endloop
  endfacet
  facet normal -4.806495e-01 -8.500809e-01 -2.152640e-01
    outer loop
      vertex -2.452246e+02 3.071160e+01 -5.089956e+02
      vertex -2.452254e+02 3.080273e+01 -5.093536e+02
      vertex -2.445856e+02 3.024980e+01 -5.085988e+02
    endloop
  endfacet
  facet normal -4.503350e-01 -8.521611e-01 -2.664954e-01
    outer loop
      vertex -2.453279e+02 3.071450e+01 -5.088304e+02
      vertex -2.452246e+02 3.071160e+01 -5.089956e+02
      vertex -2.445856e+02 3.024980e+01 -5.085988e+02
    endloop
  endfacet
  facet normal -1.000000e+00 0.000000e+00 0.000000e+00
    outer loop
      vertex -2.454790e+02 3.305920e+01 -5.073381e+02
      vertex -2.454790e+02 3.018309e+01 -5.074826e+02
      vertex -2.454790e+02 2.886818e+01 -4.854818e+02
    endloop
  endfacet
  facet normal -1.000000e+00 0.000000e+00 0.000000e+00
    outer loop
      vertex -2.454790e+02 3.165971e+01 -5.079260e+02
      vertex -2.454790e+02 3.018309e+01 -5.074826e+02
      vertex -2.454790e+02 3.305920e+01 -5.073381e+02
    endloop
  endfacet
  facet normal -1.000000e+00 0.000000e+00 0.000000e+00
    outer loop
      vertex -2.454790e+02 3.073974e+01 -5.086858e+02
      vertex -2.454790e+02 3.018309e+01 -5.074826e+02
      vertex -2.454790e+02 3.050234e+01 -5.081250e+02
    endloop
  endfacet
  facet normal -1.000000e+00 0.000000e+00 0.000000e+00
    outer loop
      vertex -2.454790e+02 3.165971e+01 -5.079260e+02
      vertex -2.454790e+02 3.050234e+01 -5.081250e+02
      vertex -2.454790e+02 3.018309e+01 -5.074826e+02
    endloop
  endfacet
  facet normal -4.842146e-01 -7.940849e-01 -3.673765e-01
    outer loop
      vertex -2.453279e+02 3.071450e+01 -5.088304e+02
      vertex -2.454790e+02 3.018309e+01 -5.074826e+02
      vertex -2.454790e+02 3.073974e+01 -5.086858e+02
    endloop
  endfacet
  facet normal -9.238834e-01 2.283035e-02 -3.819923e-01
    outer loop
      vertex -2.454790e+02 3.155339e+01 -4.853213e+02
      vertex -2.454790e+02 2.886818e+01 -4.854818e+02
      vertex -2.469434e+02 2.865725e+01 -4.819525e+02
    endloop
  endfacet
  facet normal -1.000000e+00 0.000000e+00 0.000000e+00
    outer loop
      vertex -2.454790e+02 3.155339e+01 -4.853213e+02
      vertex -2.454790e+02 3.305920e+01 -5.073381e+02
      vertex -2.454790e+02 2.886818e+01 -4.854818e+02
    endloop
  endfacet
  facet normal -3.826740e-01 5.506722e-02 -9.222409e-01
    outer loop
      vertex -2.469435e+02 3.134246e+01 -4.817921e+02
      vertex -2.469434e+02 2.865725e+01 -4.819525e+02
      vertex -2.504790e+02 2.856988e+01 -4.804907e+02
    endloop
  endfacet
  facet normal -9.238695e-01 2.278064e-02 -3.820290e-01
    outer loop
      vertex -2.469435e+02 3.134246e+01 -4.817921e+02
      vertex -2.454790e+02 3.155339e+01 -4.853213e+02
      vertex -2.469434e+02 2.865725e+01 -4.819525e+02
    endloop
  endfacet
  facet normal -9.247634e-17 -9.982188e-01 -5.966005e-02
    outer loop
      vertex -2.895625e+02 2.853897e+01 -4.799735e+02
      vertex -2.887849e+02 2.856988e+01 -4.804907e+02
      vertex -2.504790e+02 2.856988e+01 -4.804907e+02
    endloop
  endfacet
  facet normal 5.387191e-18 5.966005e-02 -9.982188e-01
    outer loop
      vertex -2.504790e+02 3.125509e+01 -4.803302e+02
      vertex -2.504790e+02 2.856988e+01 -4.804907e+02
      vertex -2.887849e+02 2.856988e+01 -4.804907e+02
    endloop
  endfacet
  facet normal -2.858020e-16 -9.982188e-01 -5.966005e-02
    outer loop
      vertex -2.904790e+02 2.852812e+01 -4.797919e+02
      vertex -2.895625e+02 2.853897e+01 -4.799735e+02
      vertex -2.504790e+02 2.856988e+01 -4.804907e+02
    endloop
  endfacet
  facet normal -3.827076e-01 5.511810e-02 -9.222239e-01
    outer loop
      vertex -2.469435e+02 3.134246e+01 -4.817921e+02
      vertex -2.504790e+02 2.856988e+01 -4.804907e+02
      vertex -2.504790e+02 3.125509e+01 -4.803302e+02
    endloop
  endfacet
  facet normal -5.544871e-01 4.964863e-02 -8.307100e-01
    outer loop
      vertex -2.887849e+02 3.125509e+01 -4.803302e+02
      vertex -2.887849e+02 2.856988e+01 -4.804907e+02
      vertex -2.895625e+02 2.853897e+01 -4.799735e+02
    endloop
  endfacet
  facet normal 5.533224e-18 5.966005e-02 -9.982188e-01
    outer loop
      vertex -2.504790e+02 3.125509e+01 -4.803302e+02
      vertex -2.887849e+02 2.856988e+01 -4.804907e+02
      vertex -2.887849e+02 3.125509e+01 -4.803302e+02
    endloop
  endfacet
  facet normal -1.946646e-01 5.851874e-02 -9.791227e-01
    outer loop
      vertex -2.895625e+02 3.122418e+01 -4.798130e+02
      vertex -2.895625e+02 2.853897e+01 -4.799735e+02
      vertex -2.904790e+02 2.852812e+01 -4.797919e+02
    endloop
  endfacet
  facet normal -5.544871e-01 4.964863e-02 -8.307100e-01
    outer loop
      vertex -2.895625e+02 3.122418e+01 -4.798130e+02
      vertex -2.887849e+02 3.125509e+01 -4.803302e+02
      vertex -2.895625e+02 2.853897e+01 -4.799735e+02
    endloop
  endfacet
  facet normal -1.946646e-01 5.851874e-02 -9.791227e-01
    outer loop
      vertex -2.895625e+02 3.122418e+01 -4.798130e+02
      vertex -2.904790e+02 2.852812e+01 -4.797919e+02
      vertex -2.904790e+02 3.121333e+01 -4.796314e+02
    endloop
  endfacet
  facet normal -1.621623e-16 -9.982188e-01 -5.966005e-02
    outer loop
      vertex -2.449594e+02 3.073236e+01 -5.099682e+02
      vertex -2.449594e+02 3.258253e+01 -5.409248e+02
      vertex -1.135593e+02 3.258253e+01 -5.409248e+02
    endloop
  endfacet
  facet normal 1.054819e-17 6.460372e-02 -9.979110e-01
    outer loop
      vertex -1.135567e+02 3.377154e+01 -5.408478e+02
      vertex -1.135593e+02 3.258253e+01 -5.409248e+02
      vertex -2.449594e+02 3.258253e+01 -5.409248e+02
    endloop
  endfacet
  facet normal 1.778272e-15 -9.982188e-01 -5.966005e-02
    outer loop
      vertex -2.307275e+02 3.090667e+01 -5.128847e+02
      vertex -2.449594e+02 3.073236e+01 -5.099682e+02
      vertex -1.135593e+02 3.258253e+01 -5.409248e+02
    endloop
  endfacet
  facet normal 0.000000e+00 -9.982188e-01 -5.966005e-02
    outer loop
      vertex -2.292255e+02 3.090667e+01 -5.128847e+02
      vertex -2.307275e+02 3.090667e+01 -5.128847e+02
      vertex -1.135593e+02 3.258253e+01 -5.409248e+02
    endloop
  endfacet
  facet normal -5.020029e-16 -9.982188e-01 -5.966005e-02
    outer loop
      vertex -2.284740e+02 3.082904e+01 -5.115858e+02
      vertex -2.292255e+02 3.090667e+01 -5.128847e+02
      vertex -1.135593e+02 3.258253e+01 -5.409248e+02
    endloop
  endfacet
  facet normal -2.323547e-16 -9.982188e-01 -5.966005e-02
    outer loop
      vertex -2.284740e+02 3.075760e+01 -5.103904e+02
      vertex -2.284740e+02 3.082904e+01 -5.115858e+02
      vertex -1.135593e+02 3.258253e+01 -5.409248e+02
    endloop
  endfacet
  facet normal -2.305106e-16 -9.982188e-01 -5.966005e-02
    outer loop
      vertex -2.199334e+02 3.076870e+01 -5.105762e+02
      vertex -2.284740e+02 3.075760e+01 -5.103904e+02
      vertex -1.135593e+02 3.258253e+01 -5.409248e+02
    endloop
  endfacet
  facet normal 2.258427e-15 -9.982188e-01 -5.966005e-02
    outer loop
      vertex -2.194790e+02 3.077251e+01 -5.106400e+02
      vertex -2.199334e+02 3.076870e+01 -5.105762e+02
      vertex -1.135593e+02 3.258253e+01 -5.409248e+02
    endloop
  endfacet
  facet normal -1.156430e-16 -9.982188e-01 -5.966005e-02
    outer loop
      vertex -1.274790e+02 3.077251e+01 -5.106400e+02
      vertex -2.194790e+02 3.077251e+01 -5.106400e+02
      vertex -1.135593e+02 3.258253e+01 -5.409248e+02
    endloop
  endfacet
  facet normal -9.115070e-16 -9.982188e-01 -5.966005e-02
    outer loop
      vertex -1.267336e+02 3.076189e+01 -5.104623e+02
      vertex -1.274790e+02 3.077251e+01 -5.106400e+02
      vertex -1.135593e+02 3.258253e+01 -5.409248e+02
    endloop
  endfacet
  facet normal -6.701787e-16 -9.982188e-01 -5.966005e-02
    outer loop
      vertex -1.261493e+02 3.073236e+01 -5.099682e+02
      vertex -1.267336e+02 3.076189e+01 -5.104623e+02
      vertex -1.135593e+02 3.258253e+01 -5.409248e+02
    endloop
  endfacet
  facet normal 6.317728e-14 -9.982188e-01 -5.966005e-02
    outer loop
      vertex -1.134800e+02 3.256999e+01 -5.407150e+02
      vertex -1.261493e+02 3.073236e+01 -5.099682e+02
      vertex -1.135593e+02 3.258253e+01 -5.409248e+02
    endloop
  endfacet
  facet normal 9.356432e-01 2.076209e-02 -3.523362e-01
    outer loop
      vertex -1.135567e+02 3.377154e+01 -5.408478e+02
      vertex -1.134800e+02 3.256999e+01 -5.407150e+02
      vertex -1.135593e+02 3.258253e+01 -5.409248e+02
    endloop
  endfacet
  facet normal -5.000000e-01 -8.644828e-01 -5.166712e-02
    outer loop
      vertex -2.454790e+02 3.288191e+01 -5.409054e+02
      vertex -2.449594e+02 3.258253e+01 -5.409248e+02
      vertex -2.449594e+02 3.073236e+01 -5.099682e+02
    endloop
  endfacet
  facet normal 1.046628e-17 6.460372e-02 -9.979110e-01
    outer loop
      vertex -2.451326e+02 3.377154e+01 -5.408478e+02
      vertex -1.135567e+02 3.377154e+01 -5.408478e+02
      vertex -2.449594e+02 3.258253e+01 -5.409248e+02
    endloop
  endfacet
  facet normal 7.477718e-14 6.460372e-02 -9.979110e-01
    outer loop
      vertex -2.454790e+02 3.288191e+01 -5.409054e+02
      vertex -2.451326e+02 3.377154e+01 -5.408478e+02
      vertex -2.449594e+02 3.258253e+01 -5.409248e+02
    endloop
  endfacet
  facet normal 0.000000e+00 -9.982188e-01 -5.966005e-02
    outer loop
      vertex -2.314790e+02 3.082904e+01 -5.115858e+02
      vertex -2.314790e+02 3.073236e+01 -5.099682e+02
      vertex -2.449594e+02 3.073236e+01 -5.099682e+02
    endloop
  endfacet
  facet normal -2.601517e-16 -9.982188e-01 -5.966005e-02
    outer loop
      vertex -2.307275e+02 3.090667e+01 -5.128847e+02
      vertex -2.314790e+02 3.082904e+01 -5.115858e+02
      vertex -2.449594e+02 3.073236e+01 -5.099682e+02
    endloop
  endfacet
  facet normal -5.000000e-01 -8.644828e-01 -5.166712e-02
    outer loop
      vertex -2.454790e+02 3.103183e+01 -5.099503e+02
      vertex -2.454790e+02 3.288191e+01 -5.409054e+02
      vertex -2.449594e+02 3.073236e+01 -5.099682e+02
    endloop
  endfacet
  facet normal 1.000000e+00 0.000000e+00 0.000000e+00
    outer loop
      vertex -2.314790e+02 3.282062e+01 -5.098445e+02
      vertex -2.314790e+02 3.073236e+01 -5.099682e+02
      vertex -2.314790e+02 3.082904e+01 -5.115858e+02
    endloop
  endfacet
  facet normal 1.000000e+00 0.000000e+00 0.000000e+00
    outer loop
      vertex -2.314790e+02 3.321979e+01 -5.098186e+02
      vertex -2.314790e+02 3.073236e+01 -5.099682e+02
      vertex -2.314790e+02 3.282062e+01 -5.098445e+02
    endloop
  endfacet
  facet normal 8.659701e-01 -2.983573e-02 4.992049e-01
    outer loop
      vertex -2.314790e+02 3.292524e+01 -5.114605e+02
      vertex -2.314790e+02 3.082904e+01 -5.115858e+02
      vertex -2.307275e+02 3.090667e+01 -5.128847e+02
    endloop
  endfacet
  facet normal 1.000000e+00 0.000000e+00 0.000000e+00
    outer loop
      vertex -2.314790e+02 3.282062e+01 -5.098445e+02
      vertex -2.314790e+02 3.082904e+01 -5.115858e+02
      vertex -2.314790e+02 3.292524e+01 -5.114605e+02
    endloop
  endfacet
  facet normal 0.000000e+00 -5.965891e-02 9.982188e-01
    outer loop
      vertex -2.307275e+02 3.300931e+01 -5.127590e+02
      vertex -2.307275e+02 3.090667e+01 -5.128847e+02
      vertex -2.292255e+02 3.090667e+01 -5.128847e+02
    endloop
  endfacet
  facet normal 8.659693e-01 -2.983695e-02 4.992062e-01
    outer loop
      vertex -2.314790e+02 3.292524e+01 -5.114605e+02
      vertex -2.307275e+02 3.090667e+01 -5.128847e+02
      vertex -2.307275e+02 3.300931e+01 -5.127590e+02
    endloop
  endfacet
  facet normal -8.659701e-01 -2.983688e-02 4.992048e-01
    outer loop
      vertex -2.292255e+02 3.300931e+01 -5.127590e+02
      vertex -2.292255e+02 3.090667e+01 -5.128847e+02
      vertex -2.284740e+02 3.082904e+01 -5.115858e+02
    endloop
  endfacet
  facet normal 9.464312e-09 -5.965891e-02 9.982188e-01
    outer loop
      vertex -2.307275e+02 3.300931e+01 -5.127590e+02
      vertex -2.292255e+02 3.090667e+01 -5.128847e+02
      vertex -2.292255e+02 3.300931e+01 -5.127590e+02
    endloop
  endfacet
  facet normal -1.000000e+00 0.000000e+00 0.000000e+00
    outer loop
      vertex -2.284740e+02 3.284788e+01 -5.102655e+02
      vertex -2.284740e+02 3.082904e+01 -5.115858e+02
      vertex -2.284740e+02 3.075760e+01 -5.103904e+02
    endloop
  endfacet
  facet normal -1.000000e+00 0.000000e+00 0.000000e+00
    outer loop
      vertex -2.284740e+02 3.292524e+01 -5.114605e+02
      vertex -2.284740e+02 3.082904e+01 -5.115858e+02
      vertex -2.284740e+02 3.284788e+01 -5.102655e+02
    endloop
  endfacet
  facet normal -8.659693e-01 -2.983582e-02 4.992063e-01
    outer loop
      vertex -2.292255e+02 3.300931e+01 -5.127590e+02
      vertex -2.284740e+02 3.082904e+01 -5.115858e+02
      vertex -2.284740e+02 3.292524e+01 -5.114605e+02
    endloop
  endfacet
  facet normal 0.000000e+00 -9.982188e-01 -5.966005e-02
    outer loop
      vertex -2.199334e+02 3.076870e+01 -5.105762e+02
      vertex -2.203522e+02 3.075760e+01 -5.103904e+02
      vertex -2.284740e+02 3.075760e+01 -5.103904e+02
    endloop
  endfacet
  facet normal 0.000000e+00 -5.966005e-02 9.982188e-01
    outer loop
      vertex -2.284740e+02 3.284788e+01 -5.102655e+02
      vertex -2.284740e+02 3.075760e+01 -5.103904e+02
      vertex -2.203522e+02 3.075760e+01 -5.103904e+02
    endloop
  endfacet
  facet normal 4.061568e-01 -5.451755e-02 9.121757e-01
    outer loop
      vertex -2.203522e+02 3.284788e+01 -5.102655e+02
      vertex -2.203522e+02 3.075760e+01 -5.103904e+02
      vertex -2.199334e+02 3.076870e+01 -5.105762e+02
    endloop
  endfacet
  facet normal 0.000000e+00 -5.966005e-02 9.982188e-01
    outer loop
      vertex -2.284740e+02 3.284788e+01 -5.102655e+02
      vertex -2.203522e+02 3.075760e+01 -5.103904e+02
      vertex -2.203522e+02 3.284788e+01 -5.102655e+02
    endloop
  endfacet
  facet normal 1.391221e-01 -5.907977e-02 9.885113e-01
    outer loop
      vertex -2.199334e+02 3.285991e+01 -5.104513e+02
      vertex -2.199334e+02 3.076870e+01 -5.105762e+02
      vertex -2.194790e+02 3.077251e+01 -5.106400e+02
    endloop
  endfacet
  facet normal 4.061562e-01 -5.451770e-02 9.121759e-01
    outer loop
      vertex -2.203522e+02 3.284788e+01 -5.102655e+02
      vertex -2.199334e+02 3.076870e+01 -5.105762e+02
      vertex -2.199334e+02 3.285991e+01 -5.104513e+02
    endloop
  endfacet
  facet normal -6.911432e-18 -5.966005e-02 9.982188e-01
    outer loop
      vertex -2.194790e+02 3.286403e+01 -5.105150e+02
      vertex -2.194790e+02 3.077251e+01 -5.106400e+02
      vertex -1.274790e+02 3.077251e+01 -5.106400e+02
    endloop
  endfacet
  facet normal 1.391217e-01 -5.907987e-02 9.885114e-01
    outer loop
      vertex -2.199334e+02 3.285991e+01 -5.104513e+02
      vertex -2.194790e+02 3.077251e+01 -5.106400e+02
      vertex -2.194790e+02 3.286403e+01 -5.105150e+02
    endloop
  endfacet
  facet normal -2.322800e-01 -5.802828e-02 9.709164e-01
    outer loop
      vertex -1.274790e+02 3.286403e+01 -5.105150e+02
      vertex -1.274790e+02 3.077251e+01 -5.106400e+02
      vertex -1.267336e+02 3.076189e+01 -5.104623e+02
    endloop
  endfacet
  facet normal 6.121550e-16 -5.966005e-02 9.982188e-01
    outer loop
      vertex -2.194790e+02 3.286403e+01 -5.105150e+02
      vertex -1.274790e+02 3.077251e+01 -5.106400e+02
      vertex -1.274790e+02 3.286403e+01 -5.105150e+02
    endloop
  endfacet
  facet normal -6.463967e-01 -4.536907e-02 7.616515e-01
    outer loop
      vertex -1.261502e+02 3.282062e+01 -5.098445e+02
      vertex -1.267336e+02 3.076189e+01 -5.104623e+02
      vertex -1.261493e+02 3.073236e+01 -5.099682e+02
    endloop
  endfacet
  facet normal -6.459208e-01 -4.562054e-02 7.620401e-01
    outer loop
      vertex -1.267343e+02 3.285255e+01 -5.103376e+02
      vertex -1.267336e+02 3.076189e+01 -5.104623e+02
      vertex -1.261502e+02 3.282062e+01 -5.098445e+02
    endloop
  endfacet
  facet normal -2.320772e-01 -5.795503e-02 9.709693e-01
    outer loop
      vertex -1.274790e+02 3.286403e+01 -5.105150e+02
      vertex -1.267336e+02 3.076189e+01 -5.104623e+02
      vertex -1.267343e+02 3.285255e+01 -5.103376e+02
    endloop
  endfacet
  facet normal -2.270905e-16 -9.982188e-01 -5.966005e-02
    outer loop
      vertex -1.109986e+02 3.150241e+01 -5.228525e+02
      vertex -1.109986e+02 3.073236e+01 -5.099682e+02
      vertex -1.261493e+02 3.073236e+01 -5.099682e+02
    endloop
  endfacet
  facet normal 3.023096e-16 -9.982188e-01 -5.966005e-02
    outer loop
      vertex -1.119651e+02 3.203174e+01 -5.317091e+02
      vertex -1.109986e+02 3.150241e+01 -5.228525e+02
      vertex -1.261493e+02 3.073236e+01 -5.099682e+02
    endloop
  endfacet
  facet normal -7.483140e-16 -9.982188e-01 -5.966005e-02
    outer loop
      vertex -1.134248e+02 3.255700e+01 -5.404977e+02
      vertex -1.119651e+02 3.203174e+01 -5.317091e+02
      vertex -1.261493e+02 3.073236e+01 -5.099682e+02
    endloop
  endfacet
  facet normal -1.960814e-14 -9.982188e-01 -5.966005e-02
    outer loop
      vertex -1.134800e+02 3.256999e+01 -5.407150e+02
      vertex -1.134248e+02 3.255700e+01 -5.404977e+02
      vertex -1.261493e+02 3.073236e+01 -5.099682e+02
    endloop
  endfacet
  facet normal -8.055798e-01 -3.534780e-02 5.914320e-01
    outer loop
      vertex -1.261494e+02 3.302019e+01 -5.098315e+02
      vertex -1.261502e+02 3.282062e+01 -5.098445e+02
      vertex -1.261493e+02 3.073236e+01 -5.099682e+02
    endloop
  endfacet
  facet normal -8.060166e-01 -3.531238e-02 5.908386e-01
    outer loop
      vertex -1.261494e+02 3.302019e+01 -5.098315e+02
      vertex -1.261493e+02 3.073236e+01 -5.099682e+02
      vertex -1.261487e+02 3.321979e+01 -5.098186e+02
    endloop
  endfacet
  facet normal 5.000000e-01 -8.644828e-01 -5.166712e-02
    outer loop
      vertex -1.104790e+02 3.103183e+01 -5.099503e+02
      vertex -1.109986e+02 3.073236e+01 -5.099682e+02
      vertex -1.109986e+02 3.150241e+01 -5.228525e+02
    endloop
  endfacet
  facet normal 4.955639e-01 -8.488833e-01 -1.838848e-01
    outer loop
      vertex -1.104834e+02 3.078112e+01 -5.088047e+02
      vertex -1.109986e+02 3.073236e+01 -5.099682e+02
      vertex -1.104790e+02 3.103183e+01 -5.099503e+02
    endloop
  endfacet
  facet normal 9.939972e-01 -9.150885e-03 -1.090226e-01
    outer loop
      vertex -1.111217e+02 3.374762e+01 -5.241635e+02
      vertex -1.109986e+02 3.150241e+01 -5.228525e+02
      vertex -1.119651e+02 3.203174e+01 -5.317091e+02
    endloop
  endfacet
  facet normal 9.976947e-01 1.623452e-02 -6.589249e-02
    outer loop
      vertex -1.106402e+02 3.304366e+01 -5.170453e+02
      vertex -1.109986e+02 3.150241e+01 -5.228525e+02
      vertex -1.111217e+02 3.374762e+01 -5.241635e+02
    endloop
  endfacet
  facet normal 5.000000e-01 -8.644828e-01 -5.166712e-02
    outer loop
      vertex -1.104790e+02 3.103183e+01 -5.099503e+02
      vertex -1.109986e+02 3.150241e+01 -5.228525e+02
      vertex -1.106084e+02 3.134246e+01 -5.164000e+02
    endloop
  endfacet
  facet normal 9.981608e-01 -4.308434e-03 -6.046917e-02
    outer loop
      vertex -1.106402e+02 3.304366e+01 -5.170453e+02
      vertex -1.106084e+02 3.134246e+01 -5.164000e+02
      vertex -1.109986e+02 3.150241e+01 -5.228525e+02
    endloop
  endfacet
  facet normal 9.864990e-01 1.360061e-03 -1.637614e-01
    outer loop
      vertex -1.120651e+02 3.427390e+01 -5.322927e+02
      vertex -1.119651e+02 3.203174e+01 -5.317091e+02
      vertex -1.134248e+02 3.255700e+01 -5.404977e+02
    endloop
  endfacet
  facet normal 9.933362e-01 1.452940e-02 -1.143336e-01
    outer loop
      vertex -1.111217e+02 3.374762e+01 -5.241635e+02
      vertex -1.119651e+02 3.203174e+01 -5.317091e+02
      vertex -1.120651e+02 3.427390e+01 -5.322927e+02
    endloop
  endfacet
  facet normal 9.693136e-01 1.466608e-02 -2.453896e-01
    outer loop
      vertex -1.134248e+02 3.479641e+01 -5.403638e+02
      vertex -1.134248e+02 3.255700e+01 -5.404977e+02
      vertex -1.134800e+02 3.256999e+01 -5.407150e+02
    endloop
  endfacet
  facet normal 9.861618e-01 9.890794e-03 -1.654906e-01
    outer loop
      vertex -1.120651e+02 3.427390e+01 -5.322927e+02
      vertex -1.134248e+02 3.255700e+01 -5.404977e+02
      vertex -1.134248e+02 3.479641e+01 -5.403638e+02
    endloop
  endfacet
  facet normal 9.492180e-01 2.591499e-02 -3.135499e-01
    outer loop
      vertex -1.134248e+02 3.479641e+01 -5.403638e+02
      vertex -1.134800e+02 3.256999e+01 -5.407150e+02
      vertex -1.135567e+02 3.377154e+01 -5.408478e+02
    endloop
  endfacet
  facet normal -1.616842e-16 -9.979110e-01 -6.460372e-02
    outer loop
      vertex -1.142943e+02 3.382778e+01 -5.417165e+02
      vertex -1.135567e+02 3.377154e+01 -5.408478e+02
      vertex -2.451326e+02 3.377154e+01 -5.408478e+02
    endloop
  endfacet
  facet normal 7.619174e-01 -9.834207e-03 -6.475995e-01
    outer loop
      vertex -1.141161e+02 3.487143e+01 -5.415227e+02
      vertex -1.135567e+02 3.377154e+01 -5.408478e+02
      vertex -1.142943e+02 3.382778e+01 -5.417165e+02
    endloop
  endfacet
  facet normal 8.554388e-01 1.270124e-01 -5.020879e-01
    outer loop
      vertex -1.134248e+02 3.479641e+01 -5.403638e+02
      vertex -1.135567e+02 3.377154e+01 -5.408478e+02
      vertex -1.141161e+02 3.487143e+01 -5.415227e+02
    endloop
  endfacet
  facet normal 7.149850e-14 6.460372e-02 -9.979110e-01
    outer loop
      vertex -2.454790e+02 3.288191e+01 -5.409054e+02
      vertex -2.454790e+02 3.397112e+01 -5.408349e+02
      vertex -2.451326e+02 3.377154e+01 -5.408478e+02
    endloop
  endfacet
  facet normal -5.000000e-01 -8.642163e-01 -5.594846e-02
    outer loop
      vertex -2.454790e+02 3.401615e+01 -5.415304e+02
      vertex -2.451326e+02 3.377154e+01 -5.408478e+02
      vertex -2.454790e+02 3.397112e+01 -5.408349e+02
    endloop
  endfacet
  facet normal -2.468632e-16 -9.979110e-01 -6.460372e-02
    outer loop
      vertex -1.153880e+02 3.384881e+01 -5.420413e+02
      vertex -1.142943e+02 3.382778e+01 -5.417165e+02
      vertex -2.451326e+02 3.377154e+01 -5.408478e+02
    endloop
  endfacet
  facet normal -1.094302e-16 -9.979110e-01 -6.460372e-02
    outer loop
      vertex -2.449790e+02 3.384881e+01 -5.420413e+02
      vertex -1.153880e+02 3.384881e+01 -5.420413e+02
      vertex -2.451326e+02 3.377154e+01 -5.408478e+02
    endloop
  endfacet
  facet normal -9.241525e-14 -9.979110e-01 -6.460372e-02
    outer loop
      vertex -2.450567e+02 3.384841e+01 -5.420353e+02
      vertex -2.449790e+02 3.384881e+01 -5.420413e+02
      vertex -2.451326e+02 3.377154e+01 -5.408478e+02
    endloop
  endfacet
  facet normal 3.249440e-15 -9.979110e-01 -6.460372e-02
    outer loop
      vertex -2.451326e+02 3.384725e+01 -5.420172e+02
      vertex -2.450567e+02 3.384841e+01 -5.420353e+02
      vertex -2.451326e+02 3.377154e+01 -5.408478e+02
    endloop
  endfacet
  facet normal -5.000000e-01 -8.642163e-01 -5.594846e-02
    outer loop
      vertex -2.453889e+02 3.398271e+01 -5.418193e+02
      vertex -2.451326e+02 3.384725e+01 -5.420172e+02
      vertex -2.451326e+02 3.377154e+01 -5.408478e+02
    endloop
  endfacet
  facet normal -5.000000e-01 -8.642163e-01 -5.594846e-02
    outer loop
      vertex -2.453889e+02 3.398271e+01 -5.418193e+02
      vertex -2.451326e+02 3.377154e+01 -5.408478e+02
      vertex -2.454790e+02 3.401615e+01 -5.415304e+02
    endloop
  endfacet
  facet normal -1.000000e+00 0.000000e+00 0.000000e+00
    outer loop
      vertex -2.454790e+02 3.103183e+01 -5.099503e+02
      vertex -2.454790e+02 3.397112e+01 -5.408349e+02
      vertex -2.454790e+02 3.288191e+01 -5.409054e+02
    endloop
  endfacet
  facet normal -1.000000e+00 0.000000e+00 0.000000e+00
    outer loop
      vertex -2.454790e+02 3.177990e+01 -5.099348e+02
      vertex -2.454790e+02 3.441243e+01 -5.415068e+02
      vertex -2.454790e+02 3.397112e+01 -5.408349e+02
    endloop
  endfacet
  facet normal -1.000000e+00 0.000000e+00 0.000000e+00
    outer loop
      vertex -2.454790e+02 3.401615e+01 -5.415304e+02
      vertex -2.454790e+02 3.397112e+01 -5.408349e+02
      vertex -2.454790e+02 3.441243e+01 -5.415068e+02
    endloop
  endfacet
  facet normal -1.000000e+00 0.000000e+00 0.000000e+00
    outer loop
      vertex -2.454790e+02 3.103183e+01 -5.099503e+02
      vertex -2.454790e+02 3.177990e+01 -5.099348e+02
      vertex -2.454790e+02 3.397112e+01 -5.408349e+02
    endloop
  endfacet
  facet normal 2.846375e-01 1.278713e-01 -9.500687e-01
    outer loop
      vertex -1.141161e+02 3.487143e+01 -5.415227e+02
      vertex -1.142943e+02 3.382778e+01 -5.417165e+02
      vertex -1.153880e+02 3.384881e+01 -5.420413e+02
    endloop
  endfacet
  facet normal 6.502484e-18 5.966005e-02 -9.982188e-01
    outer loop
      vertex -1.153880e+02 3.490094e+01 -5.419785e+02
      vertex -1.153880e+02 3.384881e+01 -5.420413e+02
      vertex -2.449790e+02 3.384881e+01 -5.420413e+02
    endloop
  endfacet
  facet normal 3.379838e-01 5.614917e-02 -9.394755e-01
    outer loop
      vertex -1.141161e+02 3.487143e+01 -5.415227e+02
      vertex -1.153880e+02 3.384881e+01 -5.420413e+02
      vertex -1.153880e+02 3.490094e+01 -5.419785e+02
    endloop
  endfacet
  facet normal -7.799524e-02 5.947831e-02 -9.951779e-01
    outer loop
      vertex -2.449790e+02 3.473042e+01 -5.419886e+02
      vertex -2.449790e+02 3.384881e+01 -5.420413e+02
      vertex -2.450567e+02 3.384841e+01 -5.420353e+02
    endloop
  endfacet
  facet normal 6.557247e-18 5.966005e-02 -9.982188e-01
    outer loop
      vertex -2.446831e+02 3.490094e+01 -5.419785e+02
      vertex -1.153880e+02 3.490094e+01 -5.419785e+02
      vertex -2.449790e+02 3.384881e+01 -5.420413e+02
    endloop
  endfacet
  facet normal 2.211474e-13 5.966005e-02 -9.982188e-01
    outer loop
      vertex -2.449790e+02 3.473042e+01 -5.419886e+02
      vertex -2.446831e+02 3.490094e+01 -5.419785e+02
      vertex -2.449790e+02 3.384881e+01 -5.420413e+02
    endloop
  endfacet
  facet normal -2.320131e-01 7.172605e-02 -9.700646e-01
    outer loop
      vertex -2.449790e+02 3.473042e+01 -5.419886e+02
      vertex -2.450567e+02 3.384841e+01 -5.420353e+02
      vertex -2.451326e+02 3.384725e+01 -5.420172e+02
    endloop
  endfacet
  facet normal -2.139362e-01 6.872346e-02 -9.744272e-01
    outer loop
      vertex -2.451827e+02 3.461042e+01 -5.419524e+02
      vertex -2.449790e+02 3.473042e+01 -5.419886e+02
      vertex -2.451326e+02 3.384725e+01 -5.420172e+02
    endloop
  endfacet
  facet normal -6.015075e-01 2.831022e-02 -7.983654e-01
    outer loop
      vertex -2.453889e+02 3.398271e+01 -5.418193e+02
      vertex -2.451827e+02 3.461042e+01 -5.419524e+02
      vertex -2.451326e+02 3.384725e+01 -5.420172e+02
    endloop
  endfacet
  facet normal 1.109256e-16 9.979110e-01 6.460372e-02
    outer loop
      vertex -1.267343e+02 3.285255e+01 -5.103376e+02
      vertex -1.153880e+02 3.490094e+01 -5.419785e+02
      vertex -2.446831e+02 3.490094e+01 -5.419785e+02
    endloop
  endfacet
  facet normal 1.459340e-15 9.979110e-01 6.460372e-02
    outer loop
      vertex -1.109986e+02 3.282062e+01 -5.098445e+02
      vertex -1.141161e+02 3.487143e+01 -5.415227e+02
      vertex -1.153880e+02 3.490094e+01 -5.419785e+02
    endloop
  endfacet
  facet normal 0.000000e+00 9.979110e-01 6.460372e-02
    outer loop
      vertex -1.261502e+02 3.282062e+01 -5.098445e+02
      vertex -1.109986e+02 3.282062e+01 -5.098445e+02
      vertex -1.153880e+02 3.490094e+01 -5.419785e+02
    endloop
  endfacet
  facet normal 1.951037e-15 9.979110e-01 6.460372e-02
    outer loop
      vertex -1.267343e+02 3.285255e+01 -5.103376e+02
      vertex -1.261502e+02 3.282062e+01 -5.098445e+02
      vertex -1.153880e+02 3.490094e+01 -5.419785e+02
    endloop
  endfacet
  facet normal -5.000000e-01 8.644828e-01 5.166712e-02
    outer loop
      vertex -2.451827e+02 3.461042e+01 -5.419524e+02
      vertex -2.446831e+02 3.490094e+01 -5.419785e+02
      vertex -2.449790e+02 3.473042e+01 -5.419886e+02
    endloop
  endfacet
  facet normal -1.522054e-14 9.979110e-01 6.460372e-02
    outer loop
      vertex -1.274790e+02 3.286403e+01 -5.105150e+02
      vertex -1.267343e+02 3.285255e+01 -5.103376e+02
      vertex -2.446831e+02 3.490094e+01 -5.419785e+02
    endloop
  endfacet
  facet normal 1.169878e-16 9.979110e-01 6.460372e-02
    outer loop
      vertex -2.194790e+02 3.286403e+01 -5.105150e+02
      vertex -1.274790e+02 3.286403e+01 -5.105150e+02
      vertex -2.446831e+02 3.490094e+01 -5.419785e+02
    endloop
  endfacet
  facet normal 5.110645e-15 9.979110e-01 6.460372e-02
    outer loop
      vertex -2.199334e+02 3.285991e+01 -5.104513e+02
      vertex -2.194790e+02 3.286403e+01 -5.105150e+02
      vertex -2.446831e+02 3.490094e+01 -5.419785e+02
    endloop
  endfacet
  facet normal 1.698870e-15 9.979110e-01 6.460372e-02
    outer loop
      vertex -2.203522e+02 3.284788e+01 -5.102655e+02
      vertex -2.199334e+02 3.285991e+01 -5.104513e+02
      vertex -2.446831e+02 3.490094e+01 -5.419785e+02
    endloop
  endfacet
  facet normal 4.150571e-16 9.979110e-01 6.460372e-02
    outer loop
      vertex -2.284740e+02 3.292524e+01 -5.114605e+02
      vertex -2.203522e+02 3.284788e+01 -5.102655e+02
      vertex -2.446831e+02 3.490094e+01 -5.419785e+02
    endloop
  endfacet
  facet normal -9.873728e-15 9.979110e-01 6.460372e-02
    outer loop
      vertex -2.292255e+02 3.300931e+01 -5.127590e+02
      vertex -2.284740e+02 3.292524e+01 -5.114605e+02
      vertex -2.446831e+02 3.490094e+01 -5.419785e+02
    endloop
  endfacet
  facet normal 1.003068e-15 9.979110e-01 6.460372e-02
    outer loop
      vertex -2.307275e+02 3.300931e+01 -5.127590e+02
      vertex -2.292255e+02 3.300931e+01 -5.127590e+02
      vertex -2.446831e+02 3.490094e+01 -5.419785e+02
    endloop
  endfacet
  facet normal -6.855369e-16 9.979110e-01 6.460372e-02
    outer loop
      vertex -2.314790e+02 3.292524e+01 -5.114605e+02
      vertex -2.307275e+02 3.300931e+01 -5.127590e+02
      vertex -2.446831e+02 3.490094e+01 -5.419785e+02
    endloop
  endfacet
  facet normal -5.067487e-15 9.979110e-01 6.460372e-02
    outer loop
      vertex -2.314790e+02 3.282062e+01 -5.098445e+02
      vertex -2.314790e+02 3.292524e+01 -5.114605e+02
      vertex -2.446831e+02 3.490094e+01 -5.419785e+02
    endloop
  endfacet
  facet normal 0.000000e+00 9.979110e-01 6.460372e-02
    outer loop
      vertex -2.449594e+02 3.282062e+01 -5.098445e+02
      vertex -2.314790e+02 3.282062e+01 -5.098445e+02
      vertex -2.446831e+02 3.490094e+01 -5.419785e+02
    endloop
  endfacet
  facet normal -5.000000e-01 8.644828e-01 5.166712e-02
    outer loop
      vertex -2.454790e+02 3.252108e+01 -5.098613e+02
      vertex -2.449594e+02 3.282062e+01 -5.098445e+02
      vertex -2.446831e+02 3.490094e+01 -5.419785e+02
    endloop
  endfacet
  facet normal -5.000000e-01 8.644828e-01 5.166712e-02
    outer loop
      vertex -2.454790e+02 3.252108e+01 -5.098613e+02
      vertex -2.446831e+02 3.490094e+01 -5.419785e+02
      vertex -2.454790e+02 3.441243e+01 -5.415068e+02
    endloop
  endfacet
  facet normal -5.000000e-01 8.644828e-01 5.166712e-02
    outer loop
      vertex -2.453443e+02 3.451045e+01 -5.418430e+02
      vertex -2.454790e+02 3.441243e+01 -5.415068e+02
      vertex -2.446831e+02 3.490094e+01 -5.419785e+02
    endloop
  endfacet
  facet normal -5.000000e-01 8.644828e-01 5.166712e-02
    outer loop
      vertex -2.451827e+02 3.461042e+01 -5.419524e+02
      vertex -2.453443e+02 3.451045e+01 -5.418430e+02
      vertex -2.446831e+02 3.490094e+01 -5.419785e+02
    endloop
  endfacet
  facet normal 1.240811e-14 9.979110e-01 6.460372e-02
    outer loop
      vertex -1.109986e+02 3.282062e+01 -5.098445e+02
      vertex -1.134248e+02 3.479641e+01 -5.403638e+02
      vertex -1.141161e+02 3.487143e+01 -5.415227e+02
    endloop
  endfacet
  facet normal 1.617768e-15 9.979110e-01 6.460372e-02
    outer loop
      vertex -1.109986e+02 3.282062e+01 -5.098445e+02
      vertex -1.120651e+02 3.427390e+01 -5.322927e+02
      vertex -1.134248e+02 3.479641e+01 -5.403638e+02
    endloop
  endfacet
  facet normal -8.503600e-16 9.979110e-01 6.460372e-02
    outer loop
      vertex -1.109986e+02 3.282062e+01 -5.098445e+02
      vertex -1.111217e+02 3.374762e+01 -5.241635e+02
      vertex -1.120651e+02 3.427390e+01 -5.322927e+02
    endloop
  endfacet
  facet normal 5.000000e-01 8.644828e-01 5.166712e-02
    outer loop
      vertex -1.106402e+02 3.304366e+01 -5.170453e+02
      vertex -1.111217e+02 3.374762e+01 -5.241635e+02
      vertex -1.109986e+02 3.282062e+01 -5.098445e+02
    endloop
  endfacet
  facet normal 0.000000e+00 6.460372e-02 -9.979110e-01
    outer loop
      vertex -1.116914e+02 3.321979e+01 -5.098186e+02
      vertex -1.109986e+02 3.282062e+01 -5.098445e+02
      vertex -1.261502e+02 3.282062e+01 -5.098445e+02
    endloop
  endfacet
  facet normal 5.000000e-01 8.644838e-01 5.164983e-02
    outer loop
      vertex -1.104779e+02 3.252048e+01 -5.098613e+02
      vertex -1.109986e+02 3.282062e+01 -5.098445e+02
      vertex -1.116914e+02 3.321979e+01 -5.098186e+02
    endloop
  endfacet
  facet normal 5.000000e-01 8.644828e-01 5.166712e-02
    outer loop
      vertex -1.106402e+02 3.304366e+01 -5.170453e+02
      vertex -1.109986e+02 3.282062e+01 -5.098445e+02
      vertex -1.104779e+02 3.252048e+01 -5.098613e+02
    endloop
  endfacet
  facet normal 4.998542e-15 6.460372e-02 -9.979110e-01
    outer loop
      vertex -1.116914e+02 3.321979e+01 -5.098186e+02
      vertex -1.261502e+02 3.282062e+01 -5.098445e+02
      vertex -1.261494e+02 3.302019e+01 -5.098315e+02
    endloop
  endfacet
  facet normal 0.000000e+00 9.979110e-01 6.460372e-02
    outer loop
      vertex -2.284740e+02 3.292524e+01 -5.114605e+02
      vertex -2.284740e+02 3.284788e+01 -5.102655e+02
      vertex -2.203522e+02 3.284788e+01 -5.102655e+02
    endloop
  endfacet
  facet normal 0.000000e+00 6.460372e-02 -9.979110e-01
    outer loop
      vertex -2.314790e+02 3.321979e+01 -5.098186e+02
      vertex -2.314790e+02 3.282062e+01 -5.098445e+02
      vertex -2.449594e+02 3.282062e+01 -5.098445e+02
    endloop
  endfacet
  facet normal 0.000000e+00 6.460372e-02 -9.979110e-01
    outer loop
      vertex -2.442666e+02 3.321979e+01 -5.098186e+02
      vertex -2.314790e+02 3.321979e+01 -5.098186e+02
      vertex -2.449594e+02 3.282062e+01 -5.098445e+02
    endloop
  endfacet
  facet normal -5.000000e-01 8.644838e-01 5.164984e-02
    outer loop
      vertex -2.454790e+02 3.252108e+01 -5.098613e+02
      vertex -2.442666e+02 3.321979e+01 -5.098186e+02
      vertex -2.449594e+02 3.282062e+01 -5.098445e+02
    endloop
  endfacet
  facet normal 0.000000e+00 9.979110e-01 6.460372e-02
    outer loop
      vertex -2.314790e+02 3.298891e+01 -5.062524e+02
      vertex -2.314790e+02 3.321979e+01 -5.098186e+02
      vertex -2.442666e+02 3.321979e+01 -5.098186e+02
    endloop
  endfacet
  facet normal 1.000000e+00 0.000000e+00 0.000000e+00
    outer loop
      vertex -2.314790e+02 3.271989e+01 -5.088656e+02
      vertex -2.314790e+02 3.321979e+01 -5.098186e+02
      vertex -2.314790e+02 3.298891e+01 -5.062524e+02
    endloop
  endfacet
  facet normal 1.000000e+00 0.000000e+00 0.000000e+00
    outer loop
      vertex -2.314790e+02 3.227423e+01 -5.097676e+02
      vertex -2.314790e+02 3.321979e+01 -5.098186e+02
      vertex -2.314790e+02 3.271989e+01 -5.088656e+02
    endloop
  endfacet
  facet normal 1.000000e+00 0.000000e+00 0.000000e+00
    outer loop
      vertex -2.314790e+02 3.126984e+01 -5.098326e+02
      vertex -2.314790e+02 3.321979e+01 -5.098186e+02
      vertex -2.314790e+02 3.227423e+01 -5.097676e+02
    endloop
  endfacet
  facet normal 1.194001e-15 9.979110e-01 6.460372e-02
    outer loop
      vertex -2.307275e+02 3.290485e+01 -5.049539e+02
      vertex -2.442666e+02 3.321979e+01 -5.098186e+02
      vertex -2.445917e+02 3.313063e+01 -5.084414e+02
    endloop
  endfacet
  facet normal -5.051924e-01 8.606628e-01 -6.356251e-02
    outer loop
      vertex -2.452381e+02 3.271989e+01 -5.088656e+02
      vertex -2.445917e+02 3.313063e+01 -5.084414e+02
      vertex -2.442666e+02 3.321979e+01 -5.098186e+02
    endloop
  endfacet
  facet normal -5.569210e-17 9.979110e-01 6.460372e-02
    outer loop
      vertex -2.307275e+02 3.290485e+01 -5.049539e+02
      vertex -2.314790e+02 3.298891e+01 -5.062524e+02
      vertex -2.442666e+02 3.321979e+01 -5.098186e+02
    endloop
  endfacet
  facet normal -4.998884e-01 8.655127e-01 3.161402e-02
    outer loop
      vertex -2.454790e+02 3.251521e+01 -5.097004e+02
      vertex -2.442666e+02 3.321979e+01 -5.098186e+02
      vertex -2.454790e+02 3.252108e+01 -5.098613e+02
    endloop
  endfacet
  facet normal -5.030108e-01 8.642433e-01 -7.974663e-03
    outer loop
      vertex -2.454790e+02 3.251669e+01 -5.095398e+02
      vertex -2.442666e+02 3.321979e+01 -5.098186e+02
      vertex -2.454790e+02 3.251521e+01 -5.097004e+02
    endloop
  endfacet
  facet normal -5.072897e-01 8.610828e-01 -3.454751e-02
    outer loop
      vertex -2.452313e+02 3.267482e+01 -5.092351e+02
      vertex -2.442666e+02 3.321979e+01 -5.098186e+02
      vertex -2.454790e+02 3.251669e+01 -5.095398e+02
    endloop
  endfacet
  facet normal -5.391032e-01 8.347999e-01 -1.117001e-01
    outer loop
      vertex -2.452313e+02 3.267482e+01 -5.092351e+02
      vertex -2.452381e+02 3.271989e+01 -5.088656e+02
      vertex -2.442666e+02 3.321979e+01 -5.098186e+02
    endloop
  endfacet
  facet normal 0.000000e+00 6.460372e-02 -9.979110e-01
    outer loop
      vertex -1.116914e+02 3.321979e+01 -5.098186e+02
      vertex -1.261494e+02 3.302019e+01 -5.098315e+02
      vertex -1.261487e+02 3.321979e+01 -5.098186e+02
    endloop
  endfacet
  facet normal 0.000000e+00 9.979110e-01 6.460372e-02
    outer loop
      vertex -1.134592e+02 3.123554e+01 -4.791687e+02
      vertex -1.116914e+02 3.321979e+01 -5.098186e+02
      vertex -1.261487e+02 3.321979e+01 -5.098186e+02
    endloop
  endfacet
  facet normal 1.283426e-13 9.979110e-01 6.460372e-02
    outer loop
      vertex -1.258346e+02 3.316546e+01 -5.089795e+02
      vertex -1.135661e+02 3.120715e+01 -4.787302e+02
      vertex -1.261487e+02 3.321979e+01 -5.098186e+02
    endloop
  endfacet
  facet normal -1.180919e-14 9.979110e-01 6.460372e-02
    outer loop
      vertex -1.135077e+02 3.122127e+01 -4.789483e+02
      vertex -1.261487e+02 3.321979e+01 -5.098186e+02
      vertex -1.135661e+02 3.120715e+01 -4.787302e+02
    endloop
  endfacet
  facet normal 1.339906e-14 9.979110e-01 6.460372e-02
    outer loop
      vertex -1.135077e+02 3.122127e+01 -4.789483e+02
      vertex -1.134592e+02 3.123554e+01 -4.791687e+02
      vertex -1.261487e+02 3.321979e+01 -5.098186e+02
    endloop
  endfacet
  facet normal 1.681097e-14 9.979110e-01 6.460372e-02
    outer loop
      vertex -1.113510e+02 3.214369e+01 -4.931966e+02
      vertex -1.113716e+02 3.313134e+01 -5.084524e+02
      vertex -1.116914e+02 3.321979e+01 -5.098186e+02
    endloop
  endfacet
  facet normal 4.968055e-01 8.657684e-01 -6.024459e-02
    outer loop
      vertex -1.104779e+02 3.252048e+01 -5.098613e+02
      vertex -1.116914e+02 3.321979e+01 -5.098186e+02
      vertex -1.113716e+02 3.313134e+01 -5.084524e+02
    endloop
  endfacet
  facet normal -3.116170e-15 9.979110e-01 6.460372e-02
    outer loop
      vertex -1.134592e+02 3.123554e+01 -4.791687e+02
      vertex -1.113510e+02 3.214369e+01 -4.931966e+02
      vertex -1.116914e+02 3.321979e+01 -5.098186e+02
    endloop
  endfacet
  facet normal 1.070987e-16 9.979110e-01 6.460372e-02
    outer loop
      vertex -2.454790e+02 3.305920e+01 -5.073381e+02
      vertex -2.454790e+02 3.120715e+01 -4.787302e+02
      vertex -1.135661e+02 3.120715e+01 -4.787302e+02
    endloop
  endfacet
  facet normal -6.387045e-18 -5.966005e-02 9.982188e-01
    outer loop
      vertex -1.135661e+02 2.982601e+01 -4.788127e+02
      vertex -1.135661e+02 3.120715e+01 -4.787302e+02
      vertex -2.454790e+02 3.120715e+01 -4.787302e+02
    endloop
  endfacet
  facet normal 4.122318e-17 9.979110e-01 6.460372e-02
    outer loop
      vertex -2.307275e+02 3.290485e+01 -5.049539e+02
      vertex -2.454790e+02 3.305920e+01 -5.073381e+02
      vertex -1.135661e+02 3.120715e+01 -4.787302e+02
    endloop
  endfacet
  facet normal 1.003068e-15 9.979110e-01 6.460372e-02
    outer loop
      vertex -2.292255e+02 3.290485e+01 -5.049539e+02
      vertex -2.307275e+02 3.290485e+01 -5.049539e+02
      vertex -1.135661e+02 3.120715e+01 -4.787302e+02
    endloop
  endfacet
  facet normal 1.069459e-15 9.979110e-01 6.460372e-02
    outer loop
      vertex -2.284740e+02 3.298891e+01 -5.062524e+02
      vertex -2.292255e+02 3.290485e+01 -5.049539e+02
      vertex -1.135661e+02 3.120715e+01 -4.787302e+02
    endloop
  endfacet
  facet normal -5.486412e-16 9.979110e-01 6.460372e-02
    outer loop
      vertex -2.284740e+02 3.306628e+01 -5.074474e+02
      vertex -2.284740e+02 3.298891e+01 -5.062524e+02
      vertex -1.135661e+02 3.120715e+01 -4.787302e+02
    endloop
  endfacet
  facet normal -1.316131e-16 9.979110e-01 6.460372e-02
    outer loop
      vertex -2.199335e+02 3.305425e+01 -5.072617e+02
      vertex -2.284740e+02 3.306628e+01 -5.074474e+02
      vertex -1.135661e+02 3.120715e+01 -4.787302e+02
    endloop
  endfacet
  facet normal 2.077364e-14 9.979110e-01 6.460372e-02
    outer loop
      vertex -2.194790e+02 3.305013e+01 -5.071979e+02
      vertex -2.199335e+02 3.305425e+01 -5.072617e+02
      vertex -1.135661e+02 3.120715e+01 -4.787302e+02
    endloop
  endfacet
  facet normal 7.707157e-17 9.979110e-01 6.460372e-02
    outer loop
      vertex -1.274790e+02 3.305013e+01 -5.071979e+02
      vertex -2.194790e+02 3.305013e+01 -5.071979e+02
      vertex -1.135661e+02 3.120715e+01 -4.787302e+02
    endloop
  endfacet
  facet normal 5.087982e-16 9.979110e-01 6.460372e-02
    outer loop
      vertex -1.266152e+02 3.306591e+01 -5.074417e+02
      vertex -1.274790e+02 3.305013e+01 -5.071979e+02
      vertex -1.135661e+02 3.120715e+01 -4.787302e+02
    endloop
  endfacet
  facet normal -8.248111e-16 9.979110e-01 6.460372e-02
    outer loop
      vertex -1.260071e+02 3.310856e+01 -5.081005e+02
      vertex -1.266152e+02 3.306591e+01 -5.074417e+02
      vertex -1.135661e+02 3.120715e+01 -4.787302e+02
    endloop
  endfacet
  facet normal -2.215839e-15 9.979110e-01 6.460372e-02
    outer loop
      vertex -1.258346e+02 3.316546e+01 -5.089795e+02
      vertex -1.260071e+02 3.310856e+01 -5.081005e+02
      vertex -1.135661e+02 3.120715e+01 -4.787302e+02
    endloop
  endfacet
  facet normal -1.000000e+00 0.000000e+00 0.000000e+00
    outer loop
      vertex -2.454790e+02 3.115963e+01 -4.787330e+02
      vertex -2.454790e+02 3.120715e+01 -4.787302e+02
      vertex -2.454790e+02 3.305920e+01 -5.073381e+02
    endloop
  endfacet
  facet normal 1.212066e-15 -5.966005e-02 9.982188e-01
    outer loop
      vertex -2.454790e+02 3.115963e+01 -4.787330e+02
      vertex -1.135661e+02 2.982601e+01 -4.788127e+02
      vertex -2.454790e+02 3.120715e+01 -4.787302e+02
    endloop
  endfacet
  facet normal -6.626435e-17 9.979110e-01 6.460372e-02
    outer loop
      vertex -2.307275e+02 3.290485e+01 -5.049539e+02
      vertex -2.445917e+02 3.313063e+01 -5.084414e+02
      vertex -2.454790e+02 3.305920e+01 -5.073381e+02
    endloop
  endfacet
  facet normal -4.405719e-01 8.462837e-01 -2.995002e-01
    outer loop
      vertex -2.454790e+02 3.282400e+01 -5.080026e+02
      vertex -2.454790e+02 3.305920e+01 -5.073381e+02
      vertex -2.445917e+02 3.313063e+01 -5.084414e+02
    endloop
  endfacet
  facet normal -1.000000e+00 0.000000e+00 0.000000e+00
    outer loop
      vertex -2.454790e+02 3.155339e+01 -4.853213e+02
      vertex -2.454790e+02 3.115963e+01 -4.787330e+02
      vertex -2.454790e+02 3.305920e+01 -5.073381e+02
    endloop
  endfacet
  facet normal -1.000000e+00 0.000000e+00 0.000000e+00
    outer loop
      vertex -2.454790e+02 3.282400e+01 -5.080026e+02
      vertex -2.454790e+02 3.165971e+01 -5.079260e+02
      vertex -2.454790e+02 3.305920e+01 -5.073381e+02
    endloop
  endfacet
  facet normal -4.243540e-01 8.703298e-01 -2.498994e-01
    outer loop
      vertex -2.454790e+02 3.282400e+01 -5.080026e+02
      vertex -2.445917e+02 3.313063e+01 -5.084414e+02
      vertex -2.454790e+02 3.265853e+01 -5.085789e+02
    endloop
  endfacet
  facet normal -4.352916e-01 8.771571e-01 -2.027725e-01
    outer loop
      vertex -2.453345e+02 3.269870e+01 -5.087154e+02
      vertex -2.454790e+02 3.265853e+01 -5.085789e+02
      vertex -2.445917e+02 3.313063e+01 -5.084414e+02
    endloop
  endfacet
  facet normal -4.497442e-01 8.778446e-01 -1.646785e-01
    outer loop
      vertex -2.453345e+02 3.269870e+01 -5.087154e+02
      vertex -2.445917e+02 3.313063e+01 -5.084414e+02
      vertex -2.452381e+02 3.271989e+01 -5.088656e+02
    endloop
  endfacet
  facet normal 1.000000e+00 0.000000e+00 0.000000e+00
    outer loop
      vertex -2.314790e+02 3.216165e+01 -5.080287e+02
      vertex -2.314790e+02 3.271989e+01 -5.088656e+02
      vertex -2.314790e+02 3.298891e+01 -5.062524e+02
    endloop
  endfacet
  facet normal 1.000000e+00 0.000000e+00 0.000000e+00
    outer loop
      vertex -2.314790e+02 3.216165e+01 -5.080287e+02
      vertex -2.314790e+02 3.298891e+01 -5.062524e+02
      vertex -2.314790e+02 3.115726e+01 -5.080937e+02
    endloop
  endfacet
  facet normal 0.000000e+00 9.979110e-01 6.460372e-02
    outer loop
      vertex -2.199335e+02 3.305425e+01 -5.072617e+02
      vertex -2.203522e+02 3.306628e+01 -5.074474e+02
      vertex -2.284740e+02 3.306628e+01 -5.074474e+02
    endloop
  endfacet
  facet normal -7.064605e-15 9.979110e-01 6.460372e-02
    outer loop
      vertex -1.113510e+02 3.214369e+01 -4.931966e+02
      vertex -1.104984e+02 3.306020e+01 -5.073536e+02
      vertex -1.113716e+02 3.313134e+01 -5.084524e+02
    endloop
  endfacet
  facet normal 4.124670e-01 8.695821e-01 -2.714736e-01
    outer loop
      vertex -1.104833e+02 3.263082e+01 -5.087060e+02
      vertex -1.113716e+02 3.313134e+01 -5.084524e+02
      vertex -1.104984e+02 3.306020e+01 -5.073536e+02
    endloop
  endfacet
  facet normal 4.714291e-01 8.781120e-01 -8.169421e-02
    outer loop
      vertex -1.104779e+02 3.252048e+01 -5.098613e+02
      vertex -1.113716e+02 3.313134e+01 -5.084524e+02
      vertex -1.104833e+02 3.263082e+01 -5.087060e+02
    endloop
  endfacet
  facet normal 9.999346e-01 -6.564216e-04 1.142032e-02
    outer loop
      vertex -1.104833e+02 3.263082e+01 -5.087060e+02
      vertex -1.104984e+02 3.306020e+01 -5.073536e+02
      vertex -1.104834e+02 3.078112e+01 -5.088047e+02
    endloop
  endfacet
  facet normal 9.258068e-17 9.982188e-01 5.966005e-02
    outer loop
      vertex -2.504790e+02 3.125509e+01 -4.803302e+02
      vertex -2.887849e+02 3.125509e+01 -4.803302e+02
      vertex -2.454790e+02 3.115963e+01 -4.787330e+02
    endloop
  endfacet
  facet normal 1.485572e-16 9.982188e-01 5.966005e-02
    outer loop
      vertex -2.895625e+02 3.122418e+01 -4.798130e+02
      vertex -2.454790e+02 3.115963e+01 -4.787330e+02
      vertex -2.887849e+02 3.125509e+01 -4.803302e+02
    endloop
  endfacet
  facet normal 5.174989e-16 9.982188e-01 5.966005e-02
    outer loop
      vertex -2.469435e+02 3.134246e+01 -4.817921e+02
      vertex -2.504790e+02 3.125509e+01 -4.803302e+02
      vertex -2.454790e+02 3.115963e+01 -4.787330e+02
    endloop
  endfacet
  facet normal 1.355334e-15 9.982188e-01 5.966005e-02
    outer loop
      vertex -2.469435e+02 3.134246e+01 -4.817921e+02
      vertex -2.454790e+02 3.115963e+01 -4.787330e+02
      vertex -2.454790e+02 3.155339e+01 -4.853213e+02
    endloop
  endfacet
  facet normal -3.465583e-18 9.982188e-01 5.966005e-02
    outer loop
      vertex -2.895625e+02 3.122418e+01 -4.798130e+02
      vertex -2.904790e+02 3.121333e+01 -4.796314e+02
      vertex -2.454790e+02 3.115963e+01 -4.787330e+02
    endloop
  endfacet
  facet normal 0.000000e+00 9.982188e-01 5.966005e-02
    outer loop
      vertex -1.194790e+02 2.966815e+01 -4.761714e+02
      vertex -1.194790e+02 2.961124e+01 -4.752191e+02
      vertex -1.183661e+02 2.961124e+01 -4.752191e+02
    endloop
  endfacet
  facet normal 5.054845e-16 9.982188e-01 5.966005e-02
    outer loop
      vertex -1.153661e+02 2.967090e+01 -4.762174e+02
      vertex -1.194790e+02 2.966815e+01 -4.761714e+02
      vertex -1.183661e+02 2.961124e+01 -4.752191e+02
    endloop
  endfacet
  facet normal 1.000000e+00 0.000000e+00 0.000000e+00
    outer loop
      vertex -1.194790e+02 3.103621e+01 -4.760897e+02
      vertex -1.194790e+02 2.961124e+01 -4.752191e+02
      vertex -1.194790e+02 2.966815e+01 -4.761714e+02
    endloop
  endfacet
  facet normal 1.000000e+00 0.000000e+00 0.000000e+00
    outer loop
      vertex -1.194790e+02 3.097458e+01 -4.751377e+02
      vertex -1.194790e+02 2.961124e+01 -4.752191e+02
      vertex -1.194790e+02 3.103621e+01 -4.760897e+02
    endloop
  endfacet
  facet normal -1.000000e+00 0.000000e+00 0.000000e+00
    outer loop
      vertex -2.454790e+02 3.177990e+01 -5.099348e+02
      vertex -2.454790e+02 3.252108e+01 -5.098613e+02
      vertex -2.454790e+02 3.441243e+01 -5.415068e+02
    endloop
  endfacet
  facet normal -9.301907e-01 2.189981e-02 -3.664227e-01
    outer loop
      vertex -2.453443e+02 3.451045e+01 -5.418430e+02
      vertex -2.454790e+02 3.401615e+01 -5.415304e+02
      vertex -2.454790e+02 3.441243e+01 -5.415068e+02
    endloop
  endfacet
  facet normal -1.000000e+00 0.000000e+00 0.000000e+00
    outer loop
      vertex -2.454790e+02 3.177990e+01 -5.099348e+02
      vertex -2.454790e+02 3.251521e+01 -5.097004e+02
      vertex -2.454790e+02 3.252108e+01 -5.098613e+02
    endloop
  endfacet
  facet normal -1.000000e+00 0.000000e+00 0.000000e+00
    outer loop
      vertex -2.454790e+02 3.177990e+01 -5.099348e+02
      vertex -2.454790e+02 3.251669e+01 -5.095398e+02
      vertex -2.454790e+02 3.251521e+01 -5.097004e+02
    endloop
  endfacet
  facet normal 6.158348e-03 -4.725604e-01 8.812768e-01
    outer loop
      vertex -2.314790e+02 3.227423e+01 -5.097676e+02
      vertex -2.454790e+02 3.251669e+01 -5.095398e+02
      vertex -2.454790e+02 3.177990e+01 -5.099348e+02
    endloop
  endfacet
  facet normal -9.645778e-03 -8.842746e-01 4.668676e-01
    outer loop
      vertex -2.314790e+02 3.271989e+01 -5.088656e+02
      vertex -2.452313e+02 3.267482e+01 -5.092351e+02
      vertex -2.454790e+02 3.251669e+01 -5.095398e+02
    endloop
  endfacet
  facet normal -8.317212e-03 -8.965018e-01 4.429620e-01
    outer loop
      vertex -2.314790e+02 3.227423e+01 -5.097676e+02
      vertex -2.314790e+02 3.271989e+01 -5.088656e+02
      vertex -2.454790e+02 3.251669e+01 -5.095398e+02
    endloop
  endfacet
  facet normal -1.000000e+00 0.000000e+00 0.000000e+00
    outer loop
      vertex -2.454790e+02 3.101883e+01 -5.097930e+02
      vertex -2.454790e+02 3.099884e+01 -5.096367e+02
      vertex -2.454790e+02 3.177990e+01 -5.099348e+02
    endloop
  endfacet
  facet normal 6.169620e-03 3.565670e-01 9.342494e-01
    outer loop
      vertex -2.314790e+02 3.126984e+01 -5.098326e+02
      vertex -2.454790e+02 3.177990e+01 -5.099348e+02
      vertex -2.454790e+02 3.099884e+01 -5.096367e+02
    endloop
  endfacet
  facet normal -1.000000e+00 0.000000e+00 0.000000e+00
    outer loop
      vertex -2.454790e+02 3.103183e+01 -5.099503e+02
      vertex -2.454790e+02 3.101883e+01 -5.097930e+02
      vertex -2.454790e+02 3.177990e+01 -5.099348e+02
    endloop
  endfacet
  facet normal -9.639153e-03 -6.460072e-02 9.978646e-01
    outer loop
      vertex -2.314790e+02 3.126984e+01 -5.098326e+02
      vertex -2.314790e+02 3.227423e+01 -5.097676e+02
      vertex -2.454790e+02 3.177990e+01 -5.099348e+02
    endloop
  endfacet
  facet normal -7.814771e-03 8.187122e-01 5.741510e-01
    outer loop
      vertex -2.314790e+02 3.126984e+01 -5.098326e+02
      vertex -2.454790e+02 3.099884e+01 -5.096367e+02
      vertex -2.452254e+02 3.080273e+01 -5.093536e+02
    endloop
  endfacet
  facet normal -9.502731e-01 6.672267e-02 -3.041861e-01
    outer loop
      vertex -2.453889e+02 3.398271e+01 -5.418193e+02
      vertex -2.454790e+02 3.401615e+01 -5.415304e+02
      vertex -2.453443e+02 3.451045e+01 -5.418430e+02
    endloop
  endfacet
  facet normal -1.000000e+00 0.000000e+00 0.000000e+00
    outer loop
      vertex -2.454790e+02 3.107507e+01 -5.081548e+02
      vertex -2.454790e+02 3.073974e+01 -5.086858e+02
      vertex -2.454790e+02 3.050234e+01 -5.081250e+02
    endloop
  endfacet
  facet normal -1.000000e+00 0.000000e+00 0.000000e+00
    outer loop
      vertex -2.454790e+02 3.165971e+01 -5.079260e+02
      vertex -2.454790e+02 3.107507e+01 -5.081548e+02
      vertex -2.454790e+02 3.050234e+01 -5.081250e+02
    endloop
  endfacet
  facet normal -1.011717e-02 8.454881e-01 -5.338984e-01
    outer loop
      vertex -2.314790e+02 3.071160e+01 -5.089956e+02
      vertex -2.454790e+02 3.073974e+01 -5.086858e+02
      vertex -2.454790e+02 3.107507e+01 -5.081548e+02
    endloop
  endfacet
  facet normal -1.867527e-03 9.847757e-01 -1.738198e-01
    outer loop
      vertex -2.314790e+02 3.071160e+01 -5.089956e+02
      vertex -2.453279e+02 3.071450e+01 -5.088304e+02
      vertex -2.454790e+02 3.073974e+01 -5.086858e+02
    endloop
  endfacet
  facet normal 1.923784e-03 3.643481e-01 -9.312608e-01
    outer loop
      vertex -2.314790e+02 3.115726e+01 -5.080937e+02
      vertex -2.454790e+02 3.107507e+01 -5.081548e+02
      vertex -2.454790e+02 3.165971e+01 -5.079260e+02
    endloop
  endfacet
  facet normal -3.330862e-03 8.965278e-01 -4.429749e-01
    outer loop
      vertex -2.314790e+02 3.115726e+01 -5.080937e+02
      vertex -2.314790e+02 3.071160e+01 -5.089956e+02
      vertex -2.454790e+02 3.107507e+01 -5.081548e+02
    endloop
  endfacet
  facet normal -1.000000e+00 0.000000e+00 0.000000e+00
    outer loop
      vertex -2.454790e+02 3.282400e+01 -5.080026e+02
      vertex -2.454790e+02 3.226624e+01 -5.080884e+02
      vertex -2.454790e+02 3.165971e+01 -5.079260e+02
    endloop
  endfacet
  facet normal 2.188712e-03 -2.585693e-01 -9.659902e-01
    outer loop
      vertex -2.314790e+02 3.216165e+01 -5.080287e+02
      vertex -2.454790e+02 3.165971e+01 -5.079260e+02
      vertex -2.454790e+02 3.226624e+01 -5.080884e+02
    endloop
  endfacet
  facet normal -9.631537e-03 6.460072e-02 -9.978647e-01
    outer loop
      vertex -2.314790e+02 3.216165e+01 -5.080287e+02
      vertex -2.314790e+02 3.115726e+01 -5.080937e+02
      vertex -2.454790e+02 3.165971e+01 -5.079260e+02
    endloop
  endfacet
  facet normal -1.000000e+00 0.000000e+00 0.000000e+00
    outer loop
      vertex -2.454790e+02 3.282400e+01 -5.080026e+02
      vertex -2.454790e+02 3.265853e+01 -5.085789e+02
      vertex -2.454790e+02 3.226624e+01 -5.080884e+02
    endloop
  endfacet
  facet normal -3.170607e-03 -7.809895e-01 -6.245361e-01
    outer loop
      vertex -2.314790e+02 3.216165e+01 -5.080287e+02
      vertex -2.454790e+02 3.226624e+01 -5.080884e+02
      vertex -2.454790e+02 3.265853e+01 -5.085789e+02
    endloop
  endfacet
  facet normal -2.187366e-02 -9.525467e-01 -3.036057e-01
    outer loop
      vertex -2.314790e+02 3.216165e+01 -5.080287e+02
      vertex -2.454790e+02 3.265853e+01 -5.085789e+02
      vertex -2.453345e+02 3.269870e+01 -5.087154e+02
    endloop
  endfacet
  facet normal 9.997991e-01 4.885205e-04 -2.003596e-02
    outer loop
      vertex -1.104779e+02 3.252048e+01 -5.098613e+02
      vertex -1.104790e+02 3.103183e+01 -5.099503e+02
      vertex -1.106084e+02 3.134246e+01 -5.164000e+02
    endloop
  endfacet
  facet normal 9.997081e-01 1.038239e-02 -2.181663e-02
    outer loop
      vertex -1.106402e+02 3.304366e+01 -5.170453e+02
      vertex -1.104779e+02 3.252048e+01 -5.098613e+02
      vertex -1.106084e+02 3.134246e+01 -5.164000e+02
    endloop
  endfacet
  facet normal 9.999929e-01 -2.471765e-04 3.752424e-03
    outer loop
      vertex -1.104833e+02 3.263082e+01 -5.087060e+02
      vertex -1.104834e+02 3.078112e+01 -5.088047e+02
      vertex -1.104790e+02 3.103183e+01 -5.099503e+02
    endloop
  endfacet
  facet normal 9.999884e-01 -9.904467e-04 4.707552e-03
    outer loop
      vertex -1.104779e+02 3.252048e+01 -5.098613e+02
      vertex -1.104833e+02 3.263082e+01 -5.087060e+02
      vertex -1.104790e+02 3.103183e+01 -5.099503e+02
    endloop
  endfacet
  facet normal -5.653882e-01 1.085344e-02 -8.247536e-01
    outer loop
      vertex -2.453889e+02 3.398271e+01 -5.418193e+02
      vertex -2.453443e+02 3.451045e+01 -5.418430e+02
      vertex -2.451827e+02 3.461042e+01 -5.419524e+02
    endloop
  endfacet
  facet normal -2.432554e-02 9.687955e-01 2.466648e-01
    outer loop
      vertex -2.314790e+02 3.126984e+01 -5.098326e+02
      vertex -2.452254e+02 3.080273e+01 -5.093536e+02
      vertex -2.452246e+02 3.071160e+01 -5.089956e+02
    endloop
  endfacet
  facet normal 0.000000e+00 9.998458e-01 -1.755866e-02
    outer loop
      vertex -2.314790e+02 3.071160e+01 -5.089956e+02
      vertex -2.452246e+02 3.071160e+01 -5.089956e+02
      vertex -2.453279e+02 3.071450e+01 -5.088304e+02
    endloop
  endfacet
  facet normal 0.000000e+00 8.319328e-01 5.548764e-01
    outer loop
      vertex -2.314790e+02 3.126984e+01 -5.098326e+02
      vertex -2.452246e+02 3.071160e+01 -5.089956e+02
      vertex -2.314790e+02 3.071160e+01 -5.089956e+02
    endloop
  endfacet
  facet normal 0.000000e+00 -9.926411e-01 1.210937e-01
    outer loop
      vertex -2.314790e+02 3.271989e+01 -5.088656e+02
      vertex -2.452381e+02 3.271989e+01 -5.088656e+02
      vertex -2.452313e+02 3.267482e+01 -5.092351e+02
    endloop
  endfacet
  facet normal -3.038723e-02 -9.868631e-01 -1.586750e-01
    outer loop
      vertex -2.314790e+02 3.216165e+01 -5.080287e+02
      vertex -2.453345e+02 3.269870e+01 -5.087154e+02
      vertex -2.452381e+02 3.271989e+01 -5.088656e+02
    endloop
  endfacet
  facet normal 0.000000e+00 -8.319328e-01 -5.548764e-01
    outer loop
      vertex -2.314790e+02 3.216165e+01 -5.080287e+02
      vertex -2.452381e+02 3.271989e+01 -5.088656e+02
      vertex -2.314790e+02 3.271989e+01 -5.088656e+02
    endloop
  endfacet
endsolid 110_100022596-20
