solid 112_100022596-17
  facet normal -1.000000e+00 0.000000e+00 0.000000e+00
    outer loop
      vertex -3.154790e+02 2.374188e+01 -4.797485e+02
      vertex -3.154790e+02 2.638378e+01 -4.787158e+02
      vertex -3.154790e+02 2.642855e+01 -4.796147e+02
    endloop
  endfacet
  facet normal 1.520707e-16 9.987622e-01 4.974005e-02
    outer loop
      vertex -2.454790e+02 2.638378e+01 -4.787158e+02
      vertex -3.154790e+02 2.642855e+01 -4.796147e+02
      vertex -3.154790e+02 2.638378e+01 -4.787158e+02
    endloop
  endfacet
  facet normal -2.263854e-15 4.974005e-02 -9.987622e-01
    outer loop
      vertex -2.904790e+02 2.642855e+01 -4.796147e+02
      vertex -3.154790e+02 2.374188e+01 -4.797485e+02
      vertex -3.154790e+02 2.642855e+01 -4.796147e+02
    endloop
  endfacet
  facet normal 2.550284e-16 9.987622e-01 4.974005e-02
    outer loop
      vertex -2.904790e+02 2.642855e+01 -4.796147e+02
      vertex -3.154790e+02 2.642855e+01 -4.796147e+02
      vertex -2.454790e+02 2.638378e+01 -4.787158e+02
    endloop
  endfacet
  facet normal -1.000000e+00 0.000000e+00 0.000000e+00
    outer loop
      vertex -3.154790e+02 2.374188e+01 -4.797485e+02
      vertex -3.154790e+02 2.504944e+01 -4.787823e+02
      vertex -3.154790e+02 2.638378e+01 -4.787158e+02
    endloop
  endfacet
  facet normal -6.126330e-18 -4.974005e-02 9.987622e-01
    outer loop
      vertex -1.135661e+02 2.504944e+01 -4.787823e+02
      vertex -3.154790e+02 2.638378e+01 -4.787158e+02
      vertex -3.154790e+02 2.504944e+01 -4.787823e+02
    endloop
  endfacet
  facet normal -7.573378e-18 -4.974005e-02 9.987622e-01
    outer loop
      vertex -2.454790e+02 2.638378e+01 -4.787158e+02
      vertex -3.154790e+02 2.638378e+01 -4.787158e+02
      vertex -1.135661e+02 2.504944e+01 -4.787823e+02
    endloop
  endfacet
  facet normal -1.000000e+00 0.000000e+00 0.000000e+00
    outer loop
      vertex -3.154790e+02 2.351805e+01 -4.752541e+02
      vertex -3.154790e+02 2.491782e+01 -4.761396e+02
      vertex -3.154790e+02 2.504944e+01 -4.787823e+02
    endloop
  endfacet
  facet normal 1.267256e-16 9.987622e-01 4.974005e-02
    outer loop
      vertex -1.194790e+02 2.491782e+01 -4.761396e+02
      vertex -3.154790e+02 2.504944e+01 -4.787823e+02
      vertex -3.154790e+02 2.491782e+01 -4.761396e+02
    endloop
  endfacet
  facet normal -1.000000e+00 0.000000e+00 0.000000e+00
    outer loop
      vertex -3.154790e+02 2.374188e+01 -4.797485e+02
      vertex -3.154790e+02 2.351805e+01 -4.752541e+02
      vertex -3.154790e+02 2.504944e+01 -4.787823e+02
    endloop
  endfacet
  facet normal 1.229766e-16 9.987622e-01 4.974005e-02
    outer loop
      vertex -1.153661e+02 2.492011e+01 -4.761855e+02
      vertex -1.135661e+02 2.504944e+01 -4.787823e+02
      vertex -3.154790e+02 2.504944e+01 -4.787823e+02
    endloop
  endfacet
  facet normal 2.268801e-16 9.987622e-01 4.974005e-02
    outer loop
      vertex -1.153661e+02 2.492011e+01 -4.761855e+02
      vertex -3.154790e+02 2.504944e+01 -4.787823e+02
      vertex -1.194790e+02 2.491782e+01 -4.761396e+02
    endloop
  endfacet
  facet normal -1.000000e+00 0.000000e+00 0.000000e+00
    outer loop
      vertex -3.154790e+02 2.623445e+01 -4.751188e+02
      vertex -3.154790e+02 2.628663e+01 -4.760714e+02
      vertex -3.154790e+02 2.491782e+01 -4.761396e+02
    endloop
  endfacet
  facet normal 6.311148e-18 4.974005e-02 -9.987622e-01
    outer loop
      vertex -1.194790e+02 2.628663e+01 -4.760714e+02
      vertex -3.154790e+02 2.491782e+01 -4.761396e+02
      vertex -3.154790e+02 2.628663e+01 -4.760714e+02
    endloop
  endfacet
  facet normal -1.000000e+00 0.000000e+00 0.000000e+00
    outer loop
      vertex -3.154790e+02 2.351805e+01 -4.752541e+02
      vertex -3.154790e+02 2.623445e+01 -4.751188e+02
      vertex -3.154790e+02 2.491782e+01 -4.761396e+02
    endloop
  endfacet
  facet normal 6.302969e-18 4.974005e-02 -9.987622e-01
    outer loop
      vertex -1.194790e+02 2.628663e+01 -4.760714e+02
      vertex -1.194790e+02 2.491782e+01 -4.761396e+02
      vertex -3.154790e+02 2.491782e+01 -4.761396e+02
    endloop
  endfacet
  facet normal 1.085938e-16 9.985036e-01 5.468653e-02
    outer loop
      vertex -1.194790e+02 2.623445e+01 -4.751188e+02
      vertex -3.154790e+02 2.628663e+01 -4.760714e+02
      vertex -3.154790e+02 2.623445e+01 -4.751188e+02
    endloop
  endfacet
  facet normal 1.266905e-16 9.985036e-01 5.468653e-02
    outer loop
      vertex -1.194790e+02 2.623445e+01 -4.751188e+02
      vertex -1.194790e+02 2.628663e+01 -4.760714e+02
      vertex -3.154790e+02 2.628663e+01 -4.760714e+02
    endloop
  endfacet
  facet normal -6.275516e-18 -4.974005e-02 9.987622e-01
    outer loop
      vertex -1.183661e+02 2.351805e+01 -4.752541e+02
      vertex -3.154790e+02 2.623445e+01 -4.751188e+02
      vertex -3.154790e+02 2.351805e+01 -4.752541e+02
    endloop
  endfacet
  facet normal -4.191779e-17 -4.974005e-02 9.987622e-01
    outer loop
      vertex -1.194790e+02 2.487037e+01 -4.751867e+02
      vertex -3.154790e+02 2.623445e+01 -4.751188e+02
      vertex -1.183661e+02 2.351805e+01 -4.752541e+02
    endloop
  endfacet
  facet normal -5.409555e-18 -4.974005e-02 9.987622e-01
    outer loop
      vertex -1.194790e+02 2.623445e+01 -4.751188e+02
      vertex -3.154790e+02 2.623445e+01 -4.751188e+02
      vertex -1.194790e+02 2.487037e+01 -4.751867e+02
    endloop
  endfacet
  facet normal -1.130958e-16 -9.987622e-01 -4.974005e-02
    outer loop
      vertex -2.904790e+02 2.374188e+01 -4.797485e+02
      vertex -3.154790e+02 2.351805e+01 -4.752541e+02
      vertex -3.154790e+02 2.374188e+01 -4.797485e+02
    endloop
  endfacet
  facet normal -1.260796e-16 -9.987622e-01 -4.974005e-02
    outer loop
      vertex -2.504790e+02 2.377670e+01 -4.804477e+02
      vertex -1.183661e+02 2.351805e+01 -4.752541e+02
      vertex -3.154790e+02 2.351805e+01 -4.752541e+02
    endloop
  endfacet
  facet normal -1.117055e-16 -9.987622e-01 -4.974005e-02
    outer loop
      vertex -2.904790e+02 2.374188e+01 -4.797485e+02
      vertex -2.504790e+02 2.377670e+01 -4.804477e+02
      vertex -3.154790e+02 2.351805e+01 -4.752541e+02
    endloop
  endfacet
  facet normal -2.270798e-15 4.974005e-02 -9.987622e-01
    outer loop
      vertex -2.904790e+02 2.642855e+01 -4.796147e+02
      vertex -2.904790e+02 2.374188e+01 -4.797485e+02
      vertex -3.154790e+02 2.374188e+01 -4.797485e+02
    endloop
  endfacet
  facet normal -1.150060e-16 -9.987622e-01 -4.974005e-02
    outer loop
      vertex -1.116914e+02 2.524671e+01 -5.099651e+02
      vertex -1.274790e+02 2.472061e+01 -4.994012e+02
      vertex -2.194790e+02 2.472061e+01 -4.994012e+02
    endloop
  endfacet
  facet normal -5.737330e-18 -4.974005e-02 9.987622e-01
    outer loop
      vertex -2.194790e+02 2.755663e+01 -4.992599e+02
      vertex -2.194790e+02 2.472061e+01 -4.994012e+02
      vertex -1.274790e+02 2.472061e+01 -4.994012e+02
    endloop
  endfacet
  facet normal 1.144079e-15 -9.987622e-01 -4.974005e-02
    outer loop
      vertex -2.199335e+02 2.471744e+01 -4.993374e+02
      vertex -2.284740e+02 2.470818e+01 -4.991515e+02
      vertex -2.194790e+02 2.472061e+01 -4.994012e+02
    endloop
  endfacet
  facet normal -4.949286e-16 -9.987622e-01 -4.974005e-02
    outer loop
      vertex -1.116914e+02 2.524671e+01 -5.099651e+02
      vertex -2.194790e+02 2.472061e+01 -4.994012e+02
      vertex -2.284740e+02 2.470818e+01 -4.991515e+02
    endloop
  endfacet
  facet normal 1.391629e-01 -4.925603e-02 9.890437e-01
    outer loop
      vertex -2.199335e+02 2.755313e+01 -4.991961e+02
      vertex -2.199335e+02 2.471744e+01 -4.993374e+02
      vertex -2.194790e+02 2.472061e+01 -4.994012e+02
    endloop
  endfacet
  facet normal 1.391627e-01 -4.925605e-02 9.890438e-01
    outer loop
      vertex -2.199335e+02 2.755313e+01 -4.991961e+02
      vertex -2.194790e+02 2.472061e+01 -4.994012e+02
      vertex -2.194790e+02 2.755663e+01 -4.992599e+02
    endloop
  endfacet
  facet normal 8.836672e-16 -9.987622e-01 -4.974005e-02
    outer loop
      vertex -1.116914e+02 2.524671e+01 -5.099651e+02
      vertex -1.260500e+02 2.467956e+01 -4.985769e+02
      vertex -1.274790e+02 2.472061e+01 -4.994012e+02
    endloop
  endfacet
  facet normal -5.000957e-01 -4.307340e-02 8.648982e-01
    outer loop
      vertex -1.274790e+02 2.755663e+01 -4.992599e+02
      vertex -1.274790e+02 2.472061e+01 -4.994012e+02
      vertex -1.260500e+02 2.467956e+01 -4.985769e+02
    endloop
  endfacet
  facet normal -5.762353e-18 -4.974005e-02 9.987622e-01
    outer loop
      vertex -1.274790e+02 2.755663e+01 -4.992599e+02
      vertex -2.194790e+02 2.755663e+01 -4.992599e+02
      vertex -1.274790e+02 2.472061e+01 -4.994012e+02
    endloop
  endfacet
  facet normal -5.999992e-16 -9.987622e-01 -4.974005e-02
    outer loop
      vertex -1.116914e+02 2.524671e+01 -5.099651e+02
      vertex -1.260500e+02 2.459752e+01 -4.969295e+02
      vertex -1.260500e+02 2.467956e+01 -4.985769e+02
    endloop
  endfacet
  facet normal -1.000000e+00 -9.256279e-07 -4.609783e-08
    outer loop
      vertex -1.260500e+02 2.751150e+01 -4.984359e+02
      vertex -1.260500e+02 2.467956e+01 -4.985769e+02
      vertex -1.260500e+02 2.459752e+01 -4.969295e+02
    endloop
  endfacet
  facet normal -5.000943e-01 -4.307251e-02 8.648991e-01
    outer loop
      vertex -1.274790e+02 2.755663e+01 -4.992599e+02
      vertex -1.260500e+02 2.467956e+01 -4.985769e+02
      vertex -1.260500e+02 2.751150e+01 -4.984359e+02
    endloop
  endfacet
  facet normal 7.608879e-16 -9.987622e-01 -4.974005e-02
    outer loop
      vertex -1.183661e+02 2.351805e+01 -4.752541e+02
      vertex -1.274790e+02 2.455647e+01 -4.961053e+02
      vertex -1.260500e+02 2.459752e+01 -4.969295e+02
    endloop
  endfacet
  facet normal -5.000957e-01 4.307433e-02 -8.648982e-01
    outer loop
      vertex -1.260500e+02 2.742129e+01 -4.967888e+02
      vertex -1.260500e+02 2.459752e+01 -4.969295e+02
      vertex -1.274790e+02 2.455647e+01 -4.961053e+02
    endloop
  endfacet
  facet normal 2.587546e-17 -9.987622e-01 -4.974005e-02
    outer loop
      vertex -1.116914e+02 2.524671e+01 -5.099651e+02
      vertex -1.183661e+02 2.351805e+01 -4.752541e+02
      vertex -1.260500e+02 2.459752e+01 -4.969295e+02
    endloop
  endfacet
  facet normal -1.000000e+00 -9.331170e-07 -6.058420e-08
    outer loop
      vertex -1.260500e+02 2.751150e+01 -4.984359e+02
      vertex -1.260500e+02 2.459752e+01 -4.969295e+02
      vertex -1.260500e+02 2.742129e+01 -4.967888e+02
    endloop
  endfacet
  facet normal -1.535141e-16 -9.987622e-01 -4.974005e-02
    outer loop
      vertex -2.469434e+02 2.384954e+01 -4.819103e+02
      vertex -2.194790e+02 2.455647e+01 -4.961053e+02
      vertex -1.274790e+02 2.455647e+01 -4.961053e+02
    endloop
  endfacet
  facet normal 7.694064e-18 4.974005e-02 -9.987622e-01
    outer loop
      vertex -1.274790e+02 2.737616e+01 -4.959648e+02
      vertex -1.274790e+02 2.455647e+01 -4.961053e+02
      vertex -2.194790e+02 2.455647e+01 -4.961053e+02
    endloop
  endfacet
  facet normal -1.395799e-16 -9.987622e-01 -4.974005e-02
    outer loop
      vertex -2.504790e+02 2.377670e+01 -4.804477e+02
      vertex -1.274790e+02 2.455647e+01 -4.961053e+02
      vertex -1.183661e+02 2.351805e+01 -4.752541e+02
    endloop
  endfacet
  facet normal 1.335488e-16 -9.987622e-01 -4.974005e-02
    outer loop
      vertex -2.504790e+02 2.377670e+01 -4.804477e+02
      vertex -2.469434e+02 2.384954e+01 -4.819103e+02
      vertex -1.274790e+02 2.455647e+01 -4.961053e+02
    endloop
  endfacet
  facet normal -5.000943e-01 4.307344e-02 -8.648990e-01
    outer loop
      vertex -1.260500e+02 2.742129e+01 -4.967888e+02
      vertex -1.274790e+02 2.455647e+01 -4.961053e+02
      vertex -1.274790e+02 2.737616e+01 -4.959648e+02
    endloop
  endfacet
  facet normal 4.324846e-16 -9.987622e-01 -4.974005e-02
    outer loop
      vertex -2.469434e+02 2.384954e+01 -4.819103e+02
      vertex -2.199335e+02 2.455965e+01 -4.961690e+02
      vertex -2.194790e+02 2.455647e+01 -4.961053e+02
    endloop
  endfacet
  facet normal 1.391629e-01 4.925605e-02 -9.890437e-01
    outer loop
      vertex -2.194790e+02 2.737616e+01 -4.959648e+02
      vertex -2.194790e+02 2.455647e+01 -4.961053e+02
      vertex -2.199335e+02 2.455965e+01 -4.961690e+02
    endloop
  endfacet
  facet normal 5.762353e-18 4.974005e-02 -9.987622e-01
    outer loop
      vertex -1.274790e+02 2.737616e+01 -4.959648e+02
      vertex -2.194790e+02 2.455647e+01 -4.961053e+02
      vertex -2.194790e+02 2.737616e+01 -4.959648e+02
    endloop
  endfacet
  facet normal -4.842769e-16 -9.987622e-01 -4.974005e-02
    outer loop
      vertex -2.469434e+02 2.384954e+01 -4.819103e+02
      vertex -2.203522e+02 2.456891e+01 -4.963549e+02
      vertex -2.199335e+02 2.455965e+01 -4.961690e+02
    endloop
  endfacet
  facet normal 4.062280e-01 4.545102e-02 -9.126407e-01
    outer loop
      vertex -2.199335e+02 2.737965e+01 -4.960286e+02
      vertex -2.199335e+02 2.455965e+01 -4.961690e+02
      vertex -2.203522e+02 2.456891e+01 -4.963549e+02
    endloop
  endfacet
  facet normal 1.391627e-01 4.925608e-02 -9.890438e-01
    outer loop
      vertex -2.194790e+02 2.737616e+01 -4.959648e+02
      vertex -2.199335e+02 2.455965e+01 -4.961690e+02
      vertex -2.199335e+02 2.737965e+01 -4.960286e+02
    endloop
  endfacet
  facet normal 0.000000e+00 -9.987622e-01 -4.974005e-02
    outer loop
      vertex -2.284740e+02 2.450934e+01 -4.951589e+02
      vertex -2.284740e+02 2.456891e+01 -4.963549e+02
      vertex -2.203522e+02 2.456891e+01 -4.963549e+02
    endloop
  endfacet
  facet normal 0.000000e+00 4.974005e-02 -9.987622e-01
    outer loop
      vertex -2.203522e+02 2.738983e+01 -4.962145e+02
      vertex -2.203522e+02 2.456891e+01 -4.963549e+02
      vertex -2.284740e+02 2.456891e+01 -4.963549e+02
    endloop
  endfacet
  facet normal -2.669751e-16 -9.987622e-01 -4.974005e-02
    outer loop
      vertex -2.292255e+02 2.444462e+01 -4.938593e+02
      vertex -2.284740e+02 2.450934e+01 -4.951589e+02
      vertex -2.203522e+02 2.456891e+01 -4.963549e+02
    endloop
  endfacet
  facet normal -5.453767e-16 -9.987622e-01 -4.974005e-02
    outer loop
      vertex -2.469434e+02 2.384954e+01 -4.819103e+02
      vertex -2.292255e+02 2.444462e+01 -4.938593e+02
      vertex -2.203522e+02 2.456891e+01 -4.963549e+02
    endloop
  endfacet
  facet normal 4.062279e-01 4.545105e-02 -9.126407e-01
    outer loop
      vertex -2.199335e+02 2.737965e+01 -4.960286e+02
      vertex -2.203522e+02 2.456891e+01 -4.963549e+02
      vertex -2.203522e+02 2.738983e+01 -4.962145e+02
    endloop
  endfacet
  facet normal -1.000000e+00 0.000000e+00 0.000000e+00
    outer loop
      vertex -2.284740e+02 2.732434e+01 -4.950187e+02
      vertex -2.284740e+02 2.456891e+01 -4.963549e+02
      vertex -2.284740e+02 2.450934e+01 -4.951589e+02
    endloop
  endfacet
  facet normal -1.000000e+00 0.000000e+00 0.000000e+00
    outer loop
      vertex -2.284740e+02 2.738983e+01 -4.962145e+02
      vertex -2.284740e+02 2.456891e+01 -4.963549e+02
      vertex -2.284740e+02 2.732434e+01 -4.950187e+02
    endloop
  endfacet
  facet normal 0.000000e+00 4.974005e-02 -9.987622e-01
    outer loop
      vertex -2.203522e+02 2.738983e+01 -4.962145e+02
      vertex -2.284740e+02 2.456891e+01 -4.963549e+02
      vertex -2.284740e+02 2.738983e+01 -4.962145e+02
    endloop
  endfacet
  facet normal -8.659701e-01 2.487478e-02 -4.994767e-01
    outer loop
      vertex -2.284740e+02 2.732434e+01 -4.950187e+02
      vertex -2.284740e+02 2.450934e+01 -4.951589e+02
      vertex -2.292255e+02 2.444462e+01 -4.938593e+02
    endloop
  endfacet
  facet normal 0.000000e+00 -9.987622e-01 -4.974005e-02
    outer loop
      vertex -2.469434e+02 2.384954e+01 -4.819103e+02
      vertex -2.307275e+02 2.444462e+01 -4.938593e+02
      vertex -2.292255e+02 2.444462e+01 -4.938593e+02
    endloop
  endfacet
  facet normal 0.000000e+00 4.974090e-02 -9.987622e-01
    outer loop
      vertex -2.292255e+02 2.725318e+01 -4.937194e+02
      vertex -2.292255e+02 2.444462e+01 -4.938593e+02
      vertex -2.307275e+02 2.444462e+01 -4.938593e+02
    endloop
  endfacet
  facet normal -8.659693e-01 2.487400e-02 -4.994781e-01
    outer loop
      vertex -2.284740e+02 2.732434e+01 -4.950187e+02
      vertex -2.292255e+02 2.444462e+01 -4.938593e+02
      vertex -2.292255e+02 2.725318e+01 -4.937194e+02
    endloop
  endfacet
  facet normal 1.770966e-16 -9.987622e-01 -4.974005e-02
    outer loop
      vertex -2.469434e+02 2.384954e+01 -4.819103e+02
      vertex -2.314790e+02 2.450934e+01 -4.951589e+02
      vertex -2.307275e+02 2.444462e+01 -4.938593e+02
    endloop
  endfacet
  facet normal 8.659701e-01 2.487393e-02 -4.994767e-01
    outer loop
      vertex -2.307275e+02 2.725318e+01 -4.937194e+02
      vertex -2.307275e+02 2.444462e+01 -4.938593e+02
      vertex -2.314790e+02 2.450934e+01 -4.951589e+02
    endloop
  endfacet
  facet normal -9.464305e-09 4.974090e-02 -9.987622e-01
    outer loop
      vertex -2.292255e+02 2.725318e+01 -4.937194e+02
      vertex -2.307275e+02 2.444462e+01 -4.938593e+02
      vertex -2.307275e+02 2.725318e+01 -4.937194e+02
    endloop
  endfacet
  facet normal 2.874444e-16 -9.987622e-01 -4.974005e-02
    outer loop
      vertex -2.469434e+02 2.384954e+01 -4.819103e+02
      vertex -2.314790e+02 2.476774e+01 -5.003475e+02
      vertex -2.314790e+02 2.450934e+01 -4.951589e+02
    endloop
  endfacet
  facet normal 1.000000e+00 0.000000e+00 0.000000e+00
    outer loop
      vertex -2.314790e+02 2.504771e+01 -4.977378e+02
      vertex -2.314790e+02 2.450934e+01 -4.951589e+02
      vertex -2.314790e+02 2.476774e+01 -5.003475e+02
    endloop
  endfacet
  facet normal 8.659693e-01 2.487485e-02 -4.994781e-01
    outer loop
      vertex -2.307275e+02 2.725318e+01 -4.937194e+02
      vertex -2.314790e+02 2.450934e+01 -4.951589e+02
      vertex -2.314790e+02 2.732434e+01 -4.950187e+02
    endloop
  endfacet
  facet normal 1.000000e+00 0.000000e+00 0.000000e+00
    outer loop
      vertex -2.314790e+02 2.550232e+01 -4.968403e+02
      vertex -2.314790e+02 2.732434e+01 -4.950187e+02
      vertex -2.314790e+02 2.450934e+01 -4.951589e+02
    endloop
  endfacet
  facet normal 1.000000e+00 0.000000e+00 0.000000e+00
    outer loop
      vertex -2.314790e+02 2.550232e+01 -4.968403e+02
      vertex -2.314790e+02 2.450934e+01 -4.951589e+02
      vertex -2.314790e+02 2.504771e+01 -4.977378e+02
    endloop
  endfacet
  facet normal -2.045976e-16 -9.987622e-01 -4.974005e-02
    outer loop
      vertex -2.442666e+02 2.524671e+01 -5.099651e+02
      vertex -2.307275e+02 2.483247e+01 -5.016471e+02
      vertex -2.314790e+02 2.476774e+01 -5.003475e+02
    endloop
  endfacet
  facet normal 8.659701e-01 -2.487478e-02 4.994767e-01
    outer loop
      vertex -2.314790e+02 2.760844e+01 -5.002060e+02
      vertex -2.314790e+02 2.476774e+01 -5.003475e+02
      vertex -2.307275e+02 2.483247e+01 -5.016471e+02
    endloop
  endfacet
  facet normal -1.309109e-16 -9.987622e-01 -4.974005e-02
    outer loop
      vertex -2.454790e+02 2.402540e+01 -4.854415e+02
      vertex -2.442666e+02 2.524671e+01 -5.099651e+02
      vertex -2.314790e+02 2.476774e+01 -5.003475e+02
    endloop
  endfacet
  facet normal -9.639473e-16 -9.987622e-01 -4.974005e-02
    outer loop
      vertex -2.469434e+02 2.384954e+01 -4.819103e+02
      vertex -2.454790e+02 2.402540e+01 -4.854415e+02
      vertex -2.314790e+02 2.476774e+01 -5.003475e+02
    endloop
  endfacet
  facet normal 1.000000e+00 0.000000e+00 0.000000e+00
    outer loop
      vertex -2.314790e+02 2.660260e+01 -4.985253e+02
      vertex -2.314790e+02 2.476774e+01 -5.003475e+02
      vertex -2.314790e+02 2.760844e+01 -5.002060e+02
    endloop
  endfacet
  facet normal 1.000000e+00 0.000000e+00 0.000000e+00
    outer loop
      vertex -2.314790e+02 2.559761e+01 -4.985803e+02
      vertex -2.314790e+02 2.504771e+01 -4.977378e+02
      vertex -2.314790e+02 2.476774e+01 -5.003475e+02
    endloop
  endfacet
  facet normal 1.000000e+00 0.000000e+00 0.000000e+00
    outer loop
      vertex -2.314790e+02 2.559761e+01 -4.985803e+02
      vertex -2.314790e+02 2.476774e+01 -5.003475e+02
      vertex -2.314790e+02 2.660260e+01 -4.985253e+02
    endloop
  endfacet
  facet normal 0.000000e+00 -9.987622e-01 -4.974005e-02
    outer loop
      vertex -1.116914e+02 2.524671e+01 -5.099651e+02
      vertex -2.292255e+02 2.483247e+01 -5.016471e+02
      vertex -2.307275e+02 2.483247e+01 -5.016471e+02
    endloop
  endfacet
  facet normal 0.000000e+00 -4.973921e-02 9.987622e-01
    outer loop
      vertex -2.307275e+02 2.767960e+01 -5.015053e+02
      vertex -2.307275e+02 2.483247e+01 -5.016471e+02
      vertex -2.292255e+02 2.483247e+01 -5.016471e+02
    endloop
  endfacet
  facet normal -1.070583e-16 -9.987622e-01 -4.974005e-02
    outer loop
      vertex -2.442666e+02 2.524671e+01 -5.099651e+02
      vertex -1.116914e+02 2.524671e+01 -5.099651e+02
      vertex -2.307275e+02 2.483247e+01 -5.016471e+02
    endloop
  endfacet
  facet normal 8.659693e-01 -2.487569e-02 4.994780e-01
    outer loop
      vertex -2.314790e+02 2.760844e+01 -5.002060e+02
      vertex -2.307275e+02 2.483247e+01 -5.016471e+02
      vertex -2.307275e+02 2.767960e+01 -5.015053e+02
    endloop
  endfacet
  facet normal -8.647505e-17 -9.987622e-01 -4.974005e-02
    outer loop
      vertex -1.116914e+02 2.524671e+01 -5.099651e+02
      vertex -2.284740e+02 2.476774e+01 -5.003475e+02
      vertex -2.292255e+02 2.483247e+01 -5.016471e+02
    endloop
  endfacet
  facet normal -8.659701e-01 -2.487563e-02 4.994766e-01
    outer loop
      vertex -2.292255e+02 2.767960e+01 -5.015053e+02
      vertex -2.292255e+02 2.483247e+01 -5.016471e+02
      vertex -2.284740e+02 2.476774e+01 -5.003475e+02
    endloop
  endfacet
  facet normal 9.464304e-09 -4.973920e-02 9.987622e-01
    outer loop
      vertex -2.307275e+02 2.767960e+01 -5.015053e+02
      vertex -2.292255e+02 2.483247e+01 -5.016471e+02
      vertex -2.292255e+02 2.767960e+01 -5.015053e+02
    endloop
  endfacet
  facet normal -1.524256e-16 -9.987622e-01 -4.974005e-02
    outer loop
      vertex -1.116914e+02 2.524671e+01 -5.099651e+02
      vertex -2.284740e+02 2.470818e+01 -4.991515e+02
      vertex -2.284740e+02 2.476774e+01 -5.003475e+02
    endloop
  endfacet
  facet normal -1.000000e+00 0.000000e+00 0.000000e+00
    outer loop
      vertex -2.284740e+02 2.754296e+01 -4.990103e+02
      vertex -2.284740e+02 2.476774e+01 -5.003475e+02
      vertex -2.284740e+02 2.470818e+01 -4.991515e+02
    endloop
  endfacet
  facet normal -1.000000e+00 0.000000e+00 0.000000e+00
    outer loop
      vertex -2.284740e+02 2.760844e+01 -5.002060e+02
      vertex -2.284740e+02 2.476774e+01 -5.003475e+02
      vertex -2.284740e+02 2.754296e+01 -4.990103e+02
    endloop
  endfacet
  facet normal -8.659693e-01 -2.487485e-02 4.994781e-01
    outer loop
      vertex -2.292255e+02 2.767960e+01 -5.015053e+02
      vertex -2.284740e+02 2.476774e+01 -5.003475e+02
      vertex -2.284740e+02 2.760844e+01 -5.002060e+02
    endloop
  endfacet
  facet normal -4.369385e-16 -9.987622e-01 -4.974005e-02
    outer loop
      vertex -2.199335e+02 2.471744e+01 -4.993374e+02
      vertex -2.203522e+02 2.470818e+01 -4.991515e+02
      vertex -2.284740e+02 2.470818e+01 -4.991515e+02
    endloop
  endfacet
  facet normal -2.167276e-17 -4.974005e-02 9.987622e-01
    outer loop
      vertex -2.284740e+02 2.754296e+01 -4.990103e+02
      vertex -2.284740e+02 2.470818e+01 -4.991515e+02
      vertex -2.203522e+02 2.470818e+01 -4.991515e+02
    endloop
  endfacet
  facet normal 4.062280e-01 -4.545105e-02 9.126407e-01
    outer loop
      vertex -2.203522e+02 2.754296e+01 -4.990103e+02
      vertex -2.203522e+02 2.470818e+01 -4.991515e+02
      vertex -2.199335e+02 2.471744e+01 -4.993374e+02
    endloop
  endfacet
  facet normal 0.000000e+00 -4.974005e-02 9.987622e-01
    outer loop
      vertex -2.284740e+02 2.754296e+01 -4.990103e+02
      vertex -2.203522e+02 2.470818e+01 -4.991515e+02
      vertex -2.203522e+02 2.754296e+01 -4.990103e+02
    endloop
  endfacet
  facet normal 4.062279e-01 -4.545108e-02 9.126407e-01
    outer loop
      vertex -2.203522e+02 2.754296e+01 -4.990103e+02
      vertex -2.199335e+02 2.471744e+01 -4.993374e+02
      vertex -2.199335e+02 2.755313e+01 -4.991961e+02
    endloop
  endfacet
  facet normal -4.145731e-16 -9.987622e-01 -4.974005e-02
    outer loop
      vertex -1.116914e+02 2.524671e+01 -5.099651e+02
      vertex -1.151883e+02 2.357474e+01 -4.763925e+02
      vertex -1.183661e+02 2.351805e+01 -4.752541e+02
    endloop
  endfacet
  facet normal 3.376049e-01 -4.681970e-02 9.401228e-01
    outer loop
      vertex -1.183661e+02 2.487037e+01 -4.751867e+02
      vertex -1.183661e+02 2.351805e+01 -4.752541e+02
      vertex -1.151883e+02 2.357474e+01 -4.763925e+02
    endloop
  endfacet
  facet normal 0.000000e+00 -4.974005e-02 9.987622e-01
    outer loop
      vertex -1.194790e+02 2.487037e+01 -4.751867e+02
      vertex -1.183661e+02 2.351805e+01 -4.752541e+02
      vertex -1.183661e+02 2.487037e+01 -4.751867e+02
    endloop
  endfacet
  facet normal 4.442707e-16 -9.987622e-01 -4.974005e-02
    outer loop
      vertex -1.116914e+02 2.524671e+01 -5.099651e+02
      vertex -1.134592e+02 2.371897e+01 -4.792885e+02
      vertex -1.151883e+02 2.357474e+01 -4.763925e+02
    endloop
  endfacet
  facet normal 8.547670e-01 -1.231882e-01 5.041806e-01
    outer loop
      vertex -1.135661e+02 2.504944e+01 -4.787823e+02
      vertex -1.151883e+02 2.357474e+01 -4.763925e+02
      vertex -1.134592e+02 2.371897e+01 -4.792885e+02
    endloop
  endfacet
  facet normal 8.211977e-01 2.082946e-02 5.702634e-01
    outer loop
      vertex -1.153661e+02 2.492011e+01 -4.761855e+02
      vertex -1.151883e+02 2.357474e+01 -4.763925e+02
      vertex -1.135661e+02 2.504944e+01 -4.787823e+02
    endloop
  endfacet
  facet normal 3.157261e-01 -1.033508e-01 9.432050e-01
    outer loop
      vertex -1.153661e+02 2.492011e+01 -4.761855e+02
      vertex -1.183661e+02 2.487037e+01 -4.751867e+02
      vertex -1.151883e+02 2.357474e+01 -4.763925e+02
    endloop
  endfacet
  facet normal 1.309049e-15 -9.987622e-01 -4.974005e-02
    outer loop
      vertex -1.113779e+02 2.517786e+01 -5.085826e+02
      vertex -1.113523e+02 2.441749e+01 -4.933146e+02
      vertex -1.134592e+02 2.371897e+01 -4.792885e+02
    endloop
  endfacet
  facet normal 9.889319e-01 -7.379943e-03 1.481866e-01
    outer loop
      vertex -1.134592e+02 2.645536e+01 -4.791523e+02
      vertex -1.134592e+02 2.371897e+01 -4.792885e+02
      vertex -1.113523e+02 2.441749e+01 -4.933146e+02
    endloop
  endfacet
  facet normal -9.522645e-15 -9.987622e-01 -4.974005e-02
    outer loop
      vertex -1.116914e+02 2.524671e+01 -5.099651e+02
      vertex -1.113779e+02 2.517786e+01 -5.085826e+02
      vertex -1.134592e+02 2.371897e+01 -4.792885e+02
    endloop
  endfacet
  facet normal 9.660856e-01 -1.657163e-02 2.576896e-01
    outer loop
      vertex -1.135077e+02 2.644328e+01 -4.789317e+02
      vertex -1.135661e+02 2.643133e+01 -4.787135e+02
      vertex -1.134592e+02 2.371897e+01 -4.792885e+02
    endloop
  endfacet
  facet normal 9.716810e-01 -1.175340e-02 2.360041e-01
    outer loop
      vertex -1.135661e+02 2.504944e+01 -4.787823e+02
      vertex -1.134592e+02 2.371897e+01 -4.792885e+02
      vertex -1.135661e+02 2.643133e+01 -4.787135e+02
    endloop
  endfacet
  facet normal 9.767770e-01 -1.065722e-02 2.139932e-01
    outer loop
      vertex -1.135077e+02 2.644328e+01 -4.789317e+02
      vertex -1.134592e+02 2.371897e+01 -4.792885e+02
      vertex -1.134592e+02 2.645536e+01 -4.791523e+02
    endloop
  endfacet
  facet normal 8.197082e-16 -9.987622e-01 -4.974005e-02
    outer loop
      vertex -1.113779e+02 2.517786e+01 -5.085826e+02
      vertex -1.104989e+02 2.512246e+01 -5.074702e+02
      vertex -1.113523e+02 2.441749e+01 -4.933146e+02
    endloop
  endfacet
  facet normal 9.981920e-01 -3.170740e-03 6.002309e-02
    outer loop
      vertex -1.113510e+02 2.722410e+01 -4.931885e+02
      vertex -1.113523e+02 2.441749e+01 -4.933146e+02
      vertex -1.104989e+02 2.512246e+01 -5.074702e+02
    endloop
  endfacet
  facet normal 9.889391e-01 -7.124867e-03 1.481510e-01
    outer loop
      vertex -1.134592e+02 2.645536e+01 -4.791523e+02
      vertex -1.113523e+02 2.441749e+01 -4.933146e+02
      vertex -1.113510e+02 2.722410e+01 -4.931885e+02
    endloop
  endfacet
  facet normal 4.113886e-01 -8.344770e-01 -3.666163e-01
    outer loop
      vertex -1.104834e+02 2.570654e+01 -5.087822e+02
      vertex -1.104989e+02 2.512246e+01 -5.074702e+02
      vertex -1.113779e+02 2.517786e+01 -5.085826e+02
    endloop
  endfacet
  facet normal 9.981990e-01 -2.569125e-03 5.993498e-02
    outer loop
      vertex -1.113510e+02 2.722410e+01 -4.931885e+02
      vertex -1.104989e+02 2.512246e+01 -5.074702e+02
      vertex -1.104984e+02 2.799992e+01 -5.073539e+02
    endloop
  endfacet
  facet normal 9.999332e-01 -6.132739e-04 1.153921e-02
    outer loop
      vertex -1.104834e+02 2.570654e+01 -5.087822e+02
      vertex -1.104984e+02 2.799992e+01 -5.073539e+02
      vertex -1.104989e+02 2.512246e+01 -5.074702e+02
    endloop
  endfacet
  facet normal 4.776734e-01 -8.653851e-01 -1.514489e-01
    outer loop
      vertex -1.104834e+02 2.570654e+01 -5.087822e+02
      vertex -1.113779e+02 2.517786e+01 -5.085826e+02
      vertex -1.116914e+02 2.524671e+01 -5.099651e+02
    endloop
  endfacet
  facet normal 5.332070e-18 4.974005e-02 -9.987622e-01
    outer loop
      vertex -1.109986e+02 2.564622e+01 -5.099452e+02
      vertex -1.116914e+02 2.524671e+01 -5.099651e+02
      vertex -2.442666e+02 2.524671e+01 -5.099651e+02
    endloop
  endfacet
  facet normal 4.955639e-01 -8.506682e-01 -1.754423e-01
    outer loop
      vertex -1.104834e+02 2.570654e+01 -5.087822e+02
      vertex -1.116914e+02 2.524671e+01 -5.099651e+02
      vertex -1.109986e+02 2.564622e+01 -5.099452e+02
    endloop
  endfacet
  facet normal -2.313886e-15 -9.987622e-01 -4.974005e-02
    outer loop
      vertex -2.454790e+02 2.402540e+01 -4.854415e+02
      vertex -2.445856e+02 2.517729e+01 -5.085711e+02
      vertex -2.442666e+02 2.524671e+01 -5.099651e+02
    endloop
  endfacet
  facet normal -4.967659e-01 -8.537105e-01 -1.562113e-01
    outer loop
      vertex -2.449594e+02 2.564622e+01 -5.099452e+02
      vertex -2.442666e+02 2.524671e+01 -5.099651e+02
      vertex -2.445856e+02 2.517729e+01 -5.085711e+02
    endloop
  endfacet
  facet normal 5.276534e-18 4.974005e-02 -9.987622e-01
    outer loop
      vertex -1.109986e+02 2.564622e+01 -5.099452e+02
      vertex -2.442666e+02 2.524671e+01 -5.099651e+02
      vertex -2.449594e+02 2.564622e+01 -5.099452e+02
    endloop
  endfacet
  facet normal 2.886850e-15 -9.987622e-01 -4.974005e-02
    outer loop
      vertex -2.454790e+02 2.402540e+01 -4.854415e+02
      vertex -2.454790e+02 2.512167e+01 -5.074543e+02
      vertex -2.445856e+02 2.517729e+01 -5.085711e+02
    endloop
  endfacet
  facet normal -4.089636e-01 -8.347413e-01 -3.687219e-01
    outer loop
      vertex -2.454790e+02 2.571048e+01 -5.087873e+02
      vertex -2.445856e+02 2.517729e+01 -5.085711e+02
      vertex -2.454790e+02 2.512167e+01 -5.074543e+02
    endloop
  endfacet
  facet normal -4.967659e-01 -8.537105e-01 -1.562113e-01
    outer loop
      vertex -2.454790e+02 2.594585e+01 -5.099303e+02
      vertex -2.449594e+02 2.564622e+01 -5.099452e+02
      vertex -2.445856e+02 2.517729e+01 -5.085711e+02
    endloop
  endfacet
  facet normal -4.722420e-01 -8.633541e-01 -1.777841e-01
    outer loop
      vertex -2.454790e+02 2.594585e+01 -5.099303e+02
      vertex -2.445856e+02 2.517729e+01 -5.085711e+02
      vertex -2.454790e+02 2.571048e+01 -5.087873e+02
    endloop
  endfacet
  facet normal -1.000000e+00 0.000000e+00 0.000000e+00
    outer loop
      vertex -2.454790e+02 2.504771e+01 -4.977378e+02
      vertex -2.454790e+02 2.512167e+01 -5.074543e+02
      vertex -2.454790e+02 2.402540e+01 -4.854415e+02
    endloop
  endfacet
  facet normal -1.000000e+00 0.000000e+00 0.000000e+00
    outer loop
      vertex -2.454790e+02 2.559761e+01 -4.985803e+02
      vertex -2.454790e+02 2.799907e+01 -5.073383e+02
      vertex -2.454790e+02 2.512167e+01 -5.074543e+02
    endloop
  endfacet
  facet normal -1.000000e+00 0.000000e+00 0.000000e+00
    outer loop
      vertex -2.454790e+02 2.571048e+01 -5.087873e+02
      vertex -2.454790e+02 2.512167e+01 -5.074543e+02
      vertex -2.454790e+02 2.799907e+01 -5.073383e+02
    endloop
  endfacet
  facet normal -1.000000e+00 0.000000e+00 0.000000e+00
    outer loop
      vertex -2.454790e+02 2.504771e+01 -4.977378e+02
      vertex -2.454790e+02 2.559761e+01 -4.985803e+02
      vertex -2.454790e+02 2.512167e+01 -5.074543e+02
    endloop
  endfacet
  facet normal -9.238834e-01 1.903422e-02 -3.822003e-01
    outer loop
      vertex -2.454790e+02 2.671207e+01 -4.853077e+02
      vertex -2.454790e+02 2.402540e+01 -4.854415e+02
      vertex -2.469434e+02 2.384954e+01 -4.819103e+02
    endloop
  endfacet
  facet normal -1.000000e+00 0.000000e+00 0.000000e+00
    outer loop
      vertex -2.454790e+02 2.650730e+01 -4.967853e+02
      vertex -2.454790e+02 2.402540e+01 -4.854415e+02
      vertex -2.454790e+02 2.705720e+01 -4.976278e+02
    endloop
  endfacet
  facet normal -1.000000e+00 0.000000e+00 0.000000e+00
    outer loop
      vertex -2.454790e+02 2.671207e+01 -4.853077e+02
      vertex -2.454790e+02 2.705720e+01 -4.976278e+02
      vertex -2.454790e+02 2.402540e+01 -4.854415e+02
    endloop
  endfacet
  facet normal -1.000000e+00 0.000000e+00 0.000000e+00
    outer loop
      vertex -2.454790e+02 2.550232e+01 -4.968403e+02
      vertex -2.454790e+02 2.504771e+01 -4.977378e+02
      vertex -2.454790e+02 2.402540e+01 -4.854415e+02
    endloop
  endfacet
  facet normal -1.000000e+00 0.000000e+00 0.000000e+00
    outer loop
      vertex -2.454790e+02 2.650730e+01 -4.967853e+02
      vertex -2.454790e+02 2.550232e+01 -4.968403e+02
      vertex -2.454790e+02 2.402540e+01 -4.854415e+02
    endloop
  endfacet
  facet normal -3.826740e-01 4.590227e-02 -9.227424e-01
    outer loop
      vertex -2.469435e+02 2.653621e+01 -4.817766e+02
      vertex -2.469434e+02 2.384954e+01 -4.819103e+02
      vertex -2.504790e+02 2.377670e+01 -4.804477e+02
    endloop
  endfacet
  facet normal -9.238695e-01 1.898416e-02 -3.822365e-01
    outer loop
      vertex -2.469435e+02 2.653621e+01 -4.817766e+02
      vertex -2.454790e+02 2.671207e+01 -4.853077e+02
      vertex -2.469434e+02 2.384954e+01 -4.819103e+02
    endloop
  endfacet
  facet normal -1.879245e-17 -9.987622e-01 -4.974005e-02
    outer loop
      vertex -2.895625e+02 2.375092e+01 -4.799302e+02
      vertex -2.887849e+02 2.377670e+01 -4.804477e+02
      vertex -2.504790e+02 2.377670e+01 -4.804477e+02
    endloop
  endfacet
  facet normal 1.486865e-15 4.974005e-02 -9.987622e-01
    outer loop
      vertex -2.504790e+02 2.646337e+01 -4.803139e+02
      vertex -2.504790e+02 2.377670e+01 -4.804477e+02
      vertex -2.887849e+02 2.377670e+01 -4.804477e+02
    endloop
  endfacet
  facet normal -3.739221e-17 -9.987622e-01 -4.974005e-02
    outer loop
      vertex -2.904790e+02 2.374188e+01 -4.797485e+02
      vertex -2.895625e+02 2.375092e+01 -4.799302e+02
      vertex -2.504790e+02 2.377670e+01 -4.804477e+02
    endloop
  endfacet
  facet normal -3.827076e-01 4.595331e-02 -9.227259e-01
    outer loop
      vertex -2.469435e+02 2.653621e+01 -4.817766e+02
      vertex -2.504790e+02 2.377670e+01 -4.804477e+02
      vertex -2.504790e+02 2.646337e+01 -4.803139e+02
    endloop
  endfacet
  facet normal -5.544871e-01 4.139328e-02 -8.311622e-01
    outer loop
      vertex -2.887849e+02 2.646337e+01 -4.803139e+02
      vertex -2.887849e+02 2.377670e+01 -4.804477e+02
      vertex -2.895625e+02 2.375092e+01 -4.799302e+02
    endloop
  endfacet
  facet normal 9.226369e-18 4.974005e-02 -9.987622e-01
    outer loop
      vertex -2.504790e+02 2.646337e+01 -4.803139e+02
      vertex -2.887849e+02 2.377670e+01 -4.804477e+02
      vertex -2.887849e+02 2.646337e+01 -4.803139e+02
    endloop
  endfacet
  facet normal -1.946646e-01 4.878851e-02 -9.796557e-01
    outer loop
      vertex -2.895625e+02 2.643760e+01 -4.797964e+02
      vertex -2.895625e+02 2.375092e+01 -4.799302e+02
      vertex -2.904790e+02 2.374188e+01 -4.797485e+02
    endloop
  endfacet
  facet normal -5.544871e-01 4.139328e-02 -8.311622e-01
    outer loop
      vertex -2.895625e+02 2.643760e+01 -4.797964e+02
      vertex -2.887849e+02 2.646337e+01 -4.803139e+02
      vertex -2.895625e+02 2.375092e+01 -4.799302e+02
    endloop
  endfacet
  facet normal -1.946646e-01 4.878851e-02 -9.796557e-01
    outer loop
      vertex -2.895625e+02 2.643760e+01 -4.797964e+02
      vertex -2.904790e+02 2.374188e+01 -4.797485e+02
      vertex -2.904790e+02 2.642855e+01 -4.796147e+02
    endloop
  endfacet
  facet normal -1.360071e-16 -9.987622e-01 -4.974005e-02
    outer loop
      vertex -2.449594e+02 2.564622e+01 -5.099452e+02
      vertex -2.449594e+02 2.718875e+01 -5.409186e+02
      vertex -1.135593e+02 2.718875e+01 -5.409186e+02
    endloop
  endfacet
  facet normal 7.357142e-18 5.468653e-02 -9.985036e-01
    outer loop
      vertex -1.135567e+02 2.837846e+01 -5.408535e+02
      vertex -1.135593e+02 2.718875e+01 -5.409186e+02
      vertex -2.449594e+02 2.718875e+01 -5.409186e+02
    endloop
  endfacet
  facet normal 4.965664e-16 -9.987622e-01 -4.974005e-02
    outer loop
      vertex -1.134800e+02 2.717830e+01 -5.407088e+02
      vertex -2.449594e+02 2.564622e+01 -5.099452e+02
      vertex -1.135593e+02 2.718875e+01 -5.409186e+02
    endloop
  endfacet
  facet normal 9.356432e-01 1.726070e-02 -3.525251e-01
    outer loop
      vertex -1.135567e+02 2.837846e+01 -5.408535e+02
      vertex -1.134800e+02 2.717830e+01 -5.407088e+02
      vertex -1.135593e+02 2.718875e+01 -5.409186e+02
    endloop
  endfacet
  facet normal -5.000000e-01 -8.649534e-01 -4.307614e-02
    outer loop
      vertex -2.454790e+02 2.748830e+01 -5.409022e+02
      vertex -2.449594e+02 2.718875e+01 -5.409186e+02
      vertex -2.449594e+02 2.564622e+01 -5.099452e+02
    endloop
  endfacet
  facet normal 5.906418e-18 5.468653e-02 -9.985036e-01
    outer loop
      vertex -2.451326e+02 2.837846e+01 -5.408535e+02
      vertex -1.135567e+02 2.837846e+01 -5.408535e+02
      vertex -2.449594e+02 2.718875e+01 -5.409186e+02
    endloop
  endfacet
  facet normal -1.583540e-13 5.468653e-02 -9.985036e-01
    outer loop
      vertex -2.454790e+02 2.748830e+01 -5.409022e+02
      vertex -2.451326e+02 2.837846e+01 -5.408535e+02
      vertex -2.449594e+02 2.718875e+01 -5.409186e+02
    endloop
  endfacet
  facet normal -1.068435e-16 -9.987622e-01 -4.974005e-02
    outer loop
      vertex -1.109986e+02 2.628823e+01 -5.228366e+02
      vertex -1.109986e+02 2.564622e+01 -5.099452e+02
      vertex -2.449594e+02 2.564622e+01 -5.099452e+02
    endloop
  endfacet
  facet normal -1.967107e-16 -9.987622e-01 -4.974005e-02
    outer loop
      vertex -1.119651e+02 2.672954e+01 -5.316980e+02
      vertex -1.109986e+02 2.628823e+01 -5.228366e+02
      vertex -2.449594e+02 2.564622e+01 -5.099452e+02
    endloop
  endfacet
  facet normal -9.452625e-17 -9.987622e-01 -4.974005e-02
    outer loop
      vertex -1.134248e+02 2.716747e+01 -5.404913e+02
      vertex -1.119651e+02 2.672954e+01 -5.316980e+02
      vertex -2.449594e+02 2.564622e+01 -5.099452e+02
    endloop
  endfacet
  facet normal 2.279043e-15 -9.987622e-01 -4.974005e-02
    outer loop
      vertex -1.134800e+02 2.717830e+01 -5.407088e+02
      vertex -1.134248e+02 2.716747e+01 -5.404913e+02
      vertex -2.449594e+02 2.564622e+01 -5.099452e+02
    endloop
  endfacet
  facet normal -5.000000e-01 -8.649534e-01 -4.307614e-02
    outer loop
      vertex -2.454790e+02 2.594585e+01 -5.099303e+02
      vertex -2.454790e+02 2.748830e+01 -5.409022e+02
      vertex -2.449594e+02 2.564622e+01 -5.099452e+02
    endloop
  endfacet
  facet normal 5.000000e-01 -8.649534e-01 -4.307614e-02
    outer loop
      vertex -1.104790e+02 2.594585e+01 -5.099303e+02
      vertex -1.109986e+02 2.564622e+01 -5.099452e+02
      vertex -1.109986e+02 2.628823e+01 -5.228366e+02
    endloop
  endfacet
  facet normal 4.955639e-01 -8.506682e-01 -1.754423e-01
    outer loop
      vertex -1.104834e+02 2.570654e+01 -5.087822e+02
      vertex -1.109986e+02 2.564622e+01 -5.099452e+02
      vertex -1.104790e+02 2.594585e+01 -5.099303e+02
    endloop
  endfacet
  facet normal 9.939972e-01 -1.023355e-02 -1.089263e-01
    outer loop
      vertex -1.111217e+02 2.852030e+01 -5.241697e+02
      vertex -1.109986e+02 2.628823e+01 -5.228366e+02
      vertex -1.119651e+02 2.672954e+01 -5.316980e+02
    endloop
  endfacet
  facet normal 9.976947e-01 1.557909e-02 -6.605052e-02
    outer loop
      vertex -1.106402e+02 2.788709e+01 -5.170449e+02
      vertex -1.109986e+02 2.628823e+01 -5.228366e+02
      vertex -1.111217e+02 2.852030e+01 -5.241697e+02
    endloop
  endfacet
  facet normal 5.000000e-01 -8.649534e-01 -4.307614e-02
    outer loop
      vertex -1.104790e+02 2.594585e+01 -5.099303e+02
      vertex -1.109986e+02 2.628823e+01 -5.228366e+02
      vertex -1.106084e+02 2.619239e+01 -5.163827e+02
    endloop
  endfacet
  facet normal 9.981608e-01 -4.908967e-03 -6.042338e-02
    outer loop
      vertex -1.106402e+02 2.788709e+01 -5.170449e+02
      vertex -1.106084e+02 2.619239e+01 -5.163827e+02
      vertex -1.109986e+02 2.628823e+01 -5.228366e+02
    endloop
  endfacet
  facet normal 9.864990e-01 -2.669349e-04 -1.637668e-01
    outer loop
      vertex -1.120651e+02 2.896579e+01 -5.323038e+02
      vertex -1.119651e+02 2.672954e+01 -5.316980e+02
      vertex -1.134248e+02 2.716747e+01 -5.404913e+02
    endloop
  endfacet
  facet normal 9.933362e-01 1.339281e-02 -1.144723e-01
    outer loop
      vertex -1.111217e+02 2.852030e+01 -5.241697e+02
      vertex -1.119651e+02 2.672954e+01 -5.316980e+02
      vertex -1.120651e+02 2.896579e+01 -5.323038e+02
    endloop
  endfacet
  facet normal 9.693136e-01 1.222747e-02 -2.455232e-01
    outer loop
      vertex -1.134248e+02 2.940810e+01 -5.403797e+02
      vertex -1.134248e+02 2.716747e+01 -5.404913e+02
      vertex -1.134800e+02 2.717830e+01 -5.407088e+02
    endloop
  endfacet
  facet normal 9.861618e-01 8.246198e-03 -1.655807e-01
    outer loop
      vertex -1.120651e+02 2.896579e+01 -5.323038e+02
      vertex -1.134248e+02 2.716747e+01 -5.404913e+02
      vertex -1.134248e+02 2.940810e+01 -5.403797e+02
    endloop
  endfacet
  facet normal 9.492180e-01 2.279867e-02 -3.137919e-01
    outer loop
      vertex -1.134248e+02 2.940810e+01 -5.403797e+02
      vertex -1.134800e+02 2.717830e+01 -5.407088e+02
      vertex -1.135567e+02 2.837846e+01 -5.408535e+02
    endloop
  endfacet
  facet normal -1.078298e-16 -9.985036e-01 -5.468653e-02
    outer loop
      vertex -1.142943e+02 2.842607e+01 -5.417227e+02
      vertex -1.135567e+02 2.837846e+01 -5.408535e+02
      vertex -2.451326e+02 2.837846e+01 -5.408535e+02
    endloop
  endfacet
  facet normal 7.619174e-01 -1.626746e-02 -6.474699e-01
    outer loop
      vertex -1.141161e+02 2.947160e+01 -5.415392e+02
      vertex -1.135567e+02 2.837846e+01 -5.408535e+02
      vertex -1.142943e+02 2.842607e+01 -5.417227e+02
    endloop
  endfacet
  facet normal 8.554388e-01 1.220180e-01 -5.033250e-01
    outer loop
      vertex -1.134248e+02 2.940810e+01 -5.403797e+02
      vertex -1.135567e+02 2.837846e+01 -5.408535e+02
      vertex -1.141161e+02 2.947160e+01 -5.415392e+02
    endloop
  endfacet
  facet normal -1.800859e-13 5.468653e-02 -9.985036e-01
    outer loop
      vertex -2.454790e+02 2.748830e+01 -5.409022e+02
      vertex -2.454790e+02 2.857816e+01 -5.408425e+02
      vertex -2.451326e+02 2.837846e+01 -5.408535e+02
    endloop
  endfacet
  facet normal -5.000000e-01 -8.647295e-01 -4.735992e-02
    outer loop
      vertex -2.454790e+02 2.861628e+01 -5.415385e+02
      vertex -2.451326e+02 2.837846e+01 -5.408535e+02
      vertex -2.454790e+02 2.857816e+01 -5.408425e+02
    endloop
  endfacet
  facet normal -3.808928e-17 -9.985036e-01 -5.468653e-02
    outer loop
      vertex -1.153880e+02 2.844387e+01 -5.420477e+02
      vertex -1.142943e+02 2.842607e+01 -5.417227e+02
      vertex -2.451326e+02 2.837846e+01 -5.408535e+02
    endloop
  endfacet
  facet normal -1.368689e-16 -9.985036e-01 -5.468653e-02
    outer loop
      vertex -2.449790e+02 2.844387e+01 -5.420477e+02
      vertex -1.153880e+02 2.844387e+01 -5.420477e+02
      vertex -2.451326e+02 2.837846e+01 -5.408535e+02
    endloop
  endfacet
  facet normal 1.542080e-14 -9.985036e-01 -5.468653e-02
    outer loop
      vertex -2.450567e+02 2.844354e+01 -5.420417e+02
      vertex -2.449790e+02 2.844387e+01 -5.420477e+02
      vertex -2.451326e+02 2.837846e+01 -5.408535e+02
    endloop
  endfacet
  facet normal -2.113600e-14 -9.985036e-01 -5.468653e-02
    outer loop
      vertex -2.451326e+02 2.844255e+01 -5.420236e+02
      vertex -2.450567e+02 2.844354e+01 -5.420417e+02
      vertex -2.451326e+02 2.837846e+01 -5.408535e+02
    endloop
  endfacet
  facet normal -5.000000e-01 -8.647295e-01 -4.735992e-02
    outer loop
      vertex -2.453889e+02 2.857998e+01 -5.418271e+02
      vertex -2.451326e+02 2.844255e+01 -5.420236e+02
      vertex -2.451326e+02 2.837846e+01 -5.408535e+02
    endloop
  endfacet
  facet normal -5.000000e-01 -8.647295e-01 -4.735992e-02
    outer loop
      vertex -2.453889e+02 2.857998e+01 -5.418271e+02
      vertex -2.451326e+02 2.837846e+01 -5.408535e+02
      vertex -2.454790e+02 2.861628e+01 -5.415385e+02
    endloop
  endfacet
  facet normal -1.000000e+00 0.000000e+00 0.000000e+00
    outer loop
      vertex -2.454790e+02 2.594585e+01 -5.099303e+02
      vertex -2.454790e+02 2.857816e+01 -5.408425e+02
      vertex -2.454790e+02 2.748830e+01 -5.409022e+02
    endloop
  endfacet
  facet normal -1.000000e+00 0.000000e+00 0.000000e+00
    outer loop
      vertex -2.454790e+02 2.901277e+01 -5.415188e+02
      vertex -2.454790e+02 2.857816e+01 -5.408425e+02
      vertex -2.454790e+02 2.594585e+01 -5.099303e+02
    endloop
  endfacet
  facet normal -1.000000e+00 0.000000e+00 0.000000e+00
    outer loop
      vertex -2.454790e+02 2.901277e+01 -5.415188e+02
      vertex -2.454790e+02 2.861628e+01 -5.415385e+02
      vertex -2.454790e+02 2.857816e+01 -5.408425e+02
    endloop
  endfacet
  facet normal 2.846375e-01 1.184263e-01 -9.512921e-01
    outer loop
      vertex -1.141161e+02 2.947160e+01 -5.415392e+02
      vertex -1.142943e+02 2.842607e+01 -5.417227e+02
      vertex -1.153880e+02 2.844387e+01 -5.420477e+02
    endloop
  endfacet
  facet normal 6.807288e-18 4.974005e-02 -9.987622e-01
    outer loop
      vertex -1.153880e+02 2.949658e+01 -5.419953e+02
      vertex -1.153880e+02 2.844387e+01 -5.420477e+02
      vertex -2.449790e+02 2.844387e+01 -5.420477e+02
    endloop
  endfacet
  facet normal 3.379838e-01 4.681294e-02 -9.399870e-01
    outer loop
      vertex -1.141161e+02 2.947160e+01 -5.415392e+02
      vertex -1.153880e+02 2.844387e+01 -5.420477e+02
      vertex -1.153880e+02 2.949658e+01 -5.419953e+02
    endloop
  endfacet
  facet normal -7.799524e-02 4.958853e-02 -9.957197e-01
    outer loop
      vertex -2.449790e+02 2.932596e+01 -5.420038e+02
      vertex -2.449790e+02 2.844387e+01 -5.420477e+02
      vertex -2.450567e+02 2.844354e+01 -5.420417e+02
    endloop
  endfacet
  facet normal 5.466938e-18 4.974005e-02 -9.987622e-01
    outer loop
      vertex -2.446831e+02 2.949658e+01 -5.419953e+02
      vertex -1.153880e+02 2.949658e+01 -5.419953e+02
      vertex -2.449790e+02 2.844387e+01 -5.420477e+02
    endloop
  endfacet
  facet normal 1.652996e-13 4.974005e-02 -9.987622e-01
    outer loop
      vertex -2.449790e+02 2.932596e+01 -5.420038e+02
      vertex -2.446831e+02 2.949658e+01 -5.419953e+02
      vertex -2.449790e+02 2.844387e+01 -5.420477e+02
    endloop
  endfacet
  facet normal -2.320131e-01 6.208515e-02 -9.707293e-01
    outer loop
      vertex -2.449790e+02 2.932596e+01 -5.420038e+02
      vertex -2.450567e+02 2.844354e+01 -5.420417e+02
      vertex -2.451326e+02 2.844255e+01 -5.420236e+02
    endloop
  endfacet
  facet normal -2.139362e-01 5.903937e-02 -9.750619e-01
    outer loop
      vertex -2.451827e+02 2.920633e+01 -5.419664e+02
      vertex -2.449790e+02 2.932596e+01 -5.420038e+02
      vertex -2.451326e+02 2.844255e+01 -5.420236e+02
    endloop
  endfacet
  facet normal -6.015075e-01 2.037726e-02 -7.986072e-01
    outer loop
      vertex -2.453889e+02 2.857998e+01 -5.418271e+02
      vertex -2.451827e+02 2.920633e+01 -5.419664e+02
      vertex -2.451326e+02 2.844255e+01 -5.420236e+02
    endloop
  endfacet
  facet normal 1.092232e-16 9.985036e-01 5.468653e-02
    outer loop
      vertex -1.109986e+02 2.773560e+01 -5.098422e+02
      vertex -1.153880e+02 2.949658e+01 -5.419953e+02
      vertex -2.446831e+02 2.949658e+01 -5.419953e+02
    endloop
  endfacet
  facet normal 3.465933e-15 9.985036e-01 5.468653e-02
    outer loop
      vertex -1.109986e+02 2.773560e+01 -5.098422e+02
      vertex -1.141161e+02 2.947160e+01 -5.415392e+02
      vertex -1.153880e+02 2.949658e+01 -5.419953e+02
    endloop
  endfacet
  facet normal -5.000000e-01 8.649534e-01 4.307614e-02
    outer loop
      vertex -2.451827e+02 2.920633e+01 -5.419664e+02
      vertex -2.446831e+02 2.949658e+01 -5.419953e+02
      vertex -2.449790e+02 2.932596e+01 -5.420038e+02
    endloop
  endfacet
  facet normal 1.059235e-16 9.985036e-01 5.468653e-02
    outer loop
      vertex -2.449594e+02 2.773560e+01 -5.098422e+02
      vertex -1.109986e+02 2.773560e+01 -5.098422e+02
      vertex -2.446831e+02 2.949658e+01 -5.419953e+02
    endloop
  endfacet
  facet normal -5.000000e-01 8.649534e-01 4.307614e-02
    outer loop
      vertex -2.454790e+02 2.743592e+01 -5.098560e+02
      vertex -2.449594e+02 2.773560e+01 -5.098422e+02
      vertex -2.446831e+02 2.949658e+01 -5.419953e+02
    endloop
  endfacet
  facet normal -5.000000e-01 8.649534e-01 4.307614e-02
    outer loop
      vertex -2.454790e+02 2.743592e+01 -5.098560e+02
      vertex -2.446831e+02 2.949658e+01 -5.419953e+02
      vertex -2.454790e+02 2.901277e+01 -5.415188e+02
    endloop
  endfacet
  facet normal -5.000000e-01 8.649534e-01 4.307614e-02
    outer loop
      vertex -2.453443e+02 2.910746e+01 -5.418559e+02
      vertex -2.454790e+02 2.901277e+01 -5.415188e+02
      vertex -2.446831e+02 2.949658e+01 -5.419953e+02
    endloop
  endfacet
  facet normal -5.000000e-01 8.649534e-01 4.307614e-02
    outer loop
      vertex -2.451827e+02 2.920633e+01 -5.419664e+02
      vertex -2.453443e+02 2.910746e+01 -5.418559e+02
      vertex -2.446831e+02 2.949658e+01 -5.419953e+02
    endloop
  endfacet
  facet normal -2.326521e-15 9.985036e-01 5.468653e-02
    outer loop
      vertex -1.109986e+02 2.773560e+01 -5.098422e+02
      vertex -1.134248e+02 2.940810e+01 -5.403797e+02
      vertex -1.141161e+02 2.947160e+01 -5.415392e+02
    endloop
  endfacet
  facet normal 9.706607e-16 9.985036e-01 5.468653e-02
    outer loop
      vertex -1.109986e+02 2.773560e+01 -5.098422e+02
      vertex -1.120651e+02 2.896579e+01 -5.323038e+02
      vertex -1.134248e+02 2.940810e+01 -5.403797e+02
    endloop
  endfacet
  facet normal -3.401440e-15 9.985036e-01 5.468653e-02
    outer loop
      vertex -1.109986e+02 2.773560e+01 -5.098422e+02
      vertex -1.111217e+02 2.852030e+01 -5.241697e+02
      vertex -1.120651e+02 2.896579e+01 -5.323038e+02
    endloop
  endfacet
  facet normal 5.000000e-01 8.649534e-01 4.307614e-02
    outer loop
      vertex -1.106402e+02 2.788709e+01 -5.170449e+02
      vertex -1.111217e+02 2.852030e+01 -5.241697e+02
      vertex -1.109986e+02 2.773560e+01 -5.098422e+02
    endloop
  endfacet
  facet normal 5.794897e-18 5.468653e-02 -9.985036e-01
    outer loop
      vertex -1.116914e+02 2.813501e+01 -5.098204e+02
      vertex -1.109986e+02 2.773560e+01 -5.098422e+02
      vertex -2.449594e+02 2.773560e+01 -5.098422e+02
    endloop
  endfacet
  facet normal 5.000000e-01 8.649543e-01 4.305884e-02
    outer loop
      vertex -1.104779e+02 2.743531e+01 -5.098561e+02
      vertex -1.109986e+02 2.773560e+01 -5.098422e+02
      vertex -1.116914e+02 2.813501e+01 -5.098204e+02
    endloop
  endfacet
  facet normal 5.000000e-01 8.649534e-01 4.307614e-02
    outer loop
      vertex -1.106402e+02 2.788709e+01 -5.170449e+02
      vertex -1.109986e+02 2.773560e+01 -5.098422e+02
      vertex -1.104779e+02 2.743531e+01 -5.098561e+02
    endloop
  endfacet
  facet normal 7.327377e-18 5.468653e-02 -9.985036e-01
    outer loop
      vertex -2.442666e+02 2.813501e+01 -5.098204e+02
      vertex -1.116914e+02 2.813501e+01 -5.098204e+02
      vertex -2.449594e+02 2.773560e+01 -5.098422e+02
    endloop
  endfacet
  facet normal -5.000000e-01 8.649543e-01 4.305886e-02
    outer loop
      vertex -2.454790e+02 2.743592e+01 -5.098560e+02
      vertex -2.442666e+02 2.813501e+01 -5.098204e+02
      vertex -2.449594e+02 2.773560e+01 -5.098422e+02
    endloop
  endfacet
  facet normal 1.336561e-16 9.985036e-01 5.468653e-02
    outer loop
      vertex -1.274790e+02 2.755663e+01 -4.992599e+02
      vertex -1.116914e+02 2.813501e+01 -5.098204e+02
      vertex -2.442666e+02 2.813501e+01 -5.098204e+02
    endloop
  endfacet
  facet normal -3.195518e-16 9.985036e-01 5.468653e-02
    outer loop
      vertex -1.274790e+02 2.755663e+01 -4.992599e+02
      vertex -1.260500e+02 2.751150e+01 -4.984359e+02
      vertex -1.116914e+02 2.813501e+01 -5.098204e+02
    endloop
  endfacet
  facet normal 1.181834e-16 9.985036e-01 5.468653e-02
    outer loop
      vertex -1.134592e+02 2.645536e+01 -4.791523e+02
      vertex -1.116914e+02 2.813501e+01 -5.098204e+02
      vertex -1.260500e+02 2.751150e+01 -4.984359e+02
    endloop
  endfacet
  facet normal -3.654558e-16 9.985036e-01 5.468653e-02
    outer loop
      vertex -1.113510e+02 2.722410e+01 -4.931885e+02
      vertex -1.113716e+02 2.806014e+01 -5.084534e+02
      vertex -1.116914e+02 2.813501e+01 -5.098204e+02
    endloop
  endfacet
  facet normal 4.968055e-01 8.651272e-01 -6.884281e-02
    outer loop
      vertex -1.104779e+02 2.743531e+01 -5.098561e+02
      vertex -1.116914e+02 2.813501e+01 -5.098204e+02
      vertex -1.113716e+02 2.806014e+01 -5.084534e+02
    endloop
  endfacet
  facet normal -1.513568e-15 9.985036e-01 5.468653e-02
    outer loop
      vertex -1.134592e+02 2.645536e+01 -4.791523e+02
      vertex -1.113510e+02 2.722410e+01 -4.931885e+02
      vertex -1.116914e+02 2.813501e+01 -5.098204e+02
    endloop
  endfacet
  facet normal 3.910919e-15 9.985036e-01 5.468653e-02
    outer loop
      vertex -2.199335e+02 2.755313e+01 -4.991961e+02
      vertex -2.194790e+02 2.755663e+01 -4.992599e+02
      vertex -2.442666e+02 2.813501e+01 -5.098204e+02
    endloop
  endfacet
  facet normal 1.156760e-16 9.985036e-01 5.468653e-02
    outer loop
      vertex -1.274790e+02 2.755663e+01 -4.992599e+02
      vertex -2.442666e+02 2.813501e+01 -5.098204e+02
      vertex -2.194790e+02 2.755663e+01 -4.992599e+02
    endloop
  endfacet
  facet normal 1.955700e-15 9.985036e-01 5.468653e-02
    outer loop
      vertex -2.203522e+02 2.754296e+01 -4.990103e+02
      vertex -2.199335e+02 2.755313e+01 -4.991961e+02
      vertex -2.442666e+02 2.813501e+01 -5.098204e+02
    endloop
  endfacet
  facet normal -9.173512e-16 9.985036e-01 5.468653e-02
    outer loop
      vertex -2.292255e+02 2.767960e+01 -5.015053e+02
      vertex -2.203522e+02 2.754296e+01 -4.990103e+02
      vertex -2.442666e+02 2.813501e+01 -5.098204e+02
    endloop
  endfacet
  facet normal 1.964457e-15 9.985036e-01 5.468653e-02
    outer loop
      vertex -2.307275e+02 2.767960e+01 -5.015053e+02
      vertex -2.292255e+02 2.767960e+01 -5.015053e+02
      vertex -2.442666e+02 2.813501e+01 -5.098204e+02
    endloop
  endfacet
  facet normal -5.394004e-16 9.985036e-01 5.468653e-02
    outer loop
      vertex -2.314790e+02 2.760844e+01 -5.002060e+02
      vertex -2.307275e+02 2.767960e+01 -5.015053e+02
      vertex -2.442666e+02 2.813501e+01 -5.098204e+02
    endloop
  endfacet
  facet normal 4.144605e-16 9.985036e-01 5.468653e-02
    outer loop
      vertex -2.314790e+02 2.732434e+01 -4.950187e+02
      vertex -2.314790e+02 2.760844e+01 -5.002060e+02
      vertex -2.442666e+02 2.813501e+01 -5.098204e+02
    endloop
  endfacet
  facet normal 3.673593e-15 9.985036e-01 5.468653e-02
    outer loop
      vertex -2.307275e+02 2.725318e+01 -4.937194e+02
      vertex -2.314790e+02 2.732434e+01 -4.950187e+02
      vertex -2.442666e+02 2.813501e+01 -5.098204e+02
    endloop
  endfacet
  facet normal -1.391918e-15 9.985036e-01 5.468653e-02
    outer loop
      vertex -2.445917e+02 2.805953e+01 -5.084423e+02
      vertex -2.307275e+02 2.725318e+01 -4.937194e+02
      vertex -2.442666e+02 2.813501e+01 -5.098204e+02
    endloop
  endfacet
  facet normal -4.792438e-01 8.752604e-01 -6.515035e-02
    outer loop
      vertex -2.454790e+02 2.755411e+01 -5.087058e+02
      vertex -2.445917e+02 2.805953e+01 -5.084423e+02
      vertex -2.442666e+02 2.813501e+01 -5.098204e+02
    endloop
  endfacet
  facet normal -4.955771e-01 8.640149e-01 -8.877859e-02
    outer loop
      vertex -2.454790e+02 2.755411e+01 -5.087058e+02
      vertex -2.442666e+02 2.813501e+01 -5.098204e+02
      vertex -2.454790e+02 2.743592e+01 -5.098560e+02
    endloop
  endfacet
  facet normal 0.000000e+00 9.985036e-01 5.468653e-02
    outer loop
      vertex -2.284740e+02 2.760844e+01 -5.002060e+02
      vertex -2.284740e+02 2.754296e+01 -4.990103e+02
      vertex -2.203522e+02 2.754296e+01 -4.990103e+02
    endloop
  endfacet
  facet normal -5.454255e-17 9.985036e-01 5.468653e-02
    outer loop
      vertex -2.292255e+02 2.767960e+01 -5.015053e+02
      vertex -2.284740e+02 2.760844e+01 -5.002060e+02
      vertex -2.203522e+02 2.754296e+01 -4.990103e+02
    endloop
  endfacet
  facet normal 1.000000e+00 0.000000e+00 0.000000e+00
    outer loop
      vertex -2.314790e+02 2.705720e+01 -4.976278e+02
      vertex -2.314790e+02 2.760844e+01 -5.002060e+02
      vertex -2.314790e+02 2.732434e+01 -4.950187e+02
    endloop
  endfacet
  facet normal 1.000000e+00 0.000000e+00 0.000000e+00
    outer loop
      vertex -2.314790e+02 2.660260e+01 -4.985253e+02
      vertex -2.314790e+02 2.760844e+01 -5.002060e+02
      vertex -2.314790e+02 2.705720e+01 -4.976278e+02
    endloop
  endfacet
  facet normal 1.000000e+00 0.000000e+00 0.000000e+00
    outer loop
      vertex -2.314790e+02 2.650730e+01 -4.967853e+02
      vertex -2.314790e+02 2.705720e+01 -4.976278e+02
      vertex -2.314790e+02 2.732434e+01 -4.950187e+02
    endloop
  endfacet
  facet normal 1.000000e+00 0.000000e+00 0.000000e+00
    outer loop
      vertex -2.314790e+02 2.650730e+01 -4.967853e+02
      vertex -2.314790e+02 2.732434e+01 -4.950187e+02
      vertex -2.314790e+02 2.550232e+01 -4.968403e+02
    endloop
  endfacet
  facet normal -3.934595e-16 9.985036e-01 5.468653e-02
    outer loop
      vertex -1.135661e+02 2.643133e+01 -4.787135e+02
      vertex -2.292255e+02 2.725318e+01 -4.937194e+02
      vertex -2.307275e+02 2.725318e+01 -4.937194e+02
    endloop
  endfacet
  facet normal 1.075679e-16 9.985036e-01 5.468653e-02
    outer loop
      vertex -2.454790e+02 2.643133e+01 -4.787135e+02
      vertex -1.135661e+02 2.643133e+01 -4.787135e+02
      vertex -2.307275e+02 2.725318e+01 -4.937194e+02
    endloop
  endfacet
  facet normal 7.560904e-17 9.985036e-01 5.468653e-02
    outer loop
      vertex -2.454790e+02 2.799907e+01 -5.073383e+02
      vertex -2.454790e+02 2.643133e+01 -4.787135e+02
      vertex -2.307275e+02 2.725318e+01 -4.937194e+02
    endloop
  endfacet
  facet normal 7.268181e-16 9.985036e-01 5.468653e-02
    outer loop
      vertex -2.445917e+02 2.805953e+01 -5.084423e+02
      vertex -2.454790e+02 2.799907e+01 -5.073383e+02
      vertex -2.307275e+02 2.725318e+01 -4.937194e+02
    endloop
  endfacet
  facet normal 2.634941e-16 9.985036e-01 5.468653e-02
    outer loop
      vertex -1.135661e+02 2.643133e+01 -4.787135e+02
      vertex -2.284740e+02 2.732434e+01 -4.950187e+02
      vertex -2.292255e+02 2.725318e+01 -4.937194e+02
    endloop
  endfacet
  facet normal 2.710933e-16 9.985036e-01 5.468653e-02
    outer loop
      vertex -1.135661e+02 2.643133e+01 -4.787135e+02
      vertex -2.284740e+02 2.738983e+01 -4.962145e+02
      vertex -2.284740e+02 2.732434e+01 -4.950187e+02
    endloop
  endfacet
  facet normal 0.000000e+00 9.985036e-01 5.468653e-02
    outer loop
      vertex -2.199335e+02 2.737965e+01 -4.960286e+02
      vertex -2.203522e+02 2.738983e+01 -4.962145e+02
      vertex -2.284740e+02 2.738983e+01 -4.962145e+02
    endloop
  endfacet
  facet normal -2.768999e-17 9.985036e-01 5.468653e-02
    outer loop
      vertex -1.135661e+02 2.643133e+01 -4.787135e+02
      vertex -2.199335e+02 2.737965e+01 -4.960286e+02
      vertex -2.284740e+02 2.738983e+01 -4.962145e+02
    endloop
  endfacet
  facet normal -6.532125e-15 9.985036e-01 5.468653e-02
    outer loop
      vertex -1.135661e+02 2.643133e+01 -4.787135e+02
      vertex -2.194790e+02 2.737616e+01 -4.959648e+02
      vertex -2.199335e+02 2.737965e+01 -4.960286e+02
    endloop
  endfacet
  facet normal 1.139906e-16 9.985036e-01 5.468653e-02
    outer loop
      vertex -1.135661e+02 2.643133e+01 -4.787135e+02
      vertex -1.274790e+02 2.737616e+01 -4.959648e+02
      vertex -2.194790e+02 2.737616e+01 -4.959648e+02
    endloop
  endfacet
  facet normal -4.911071e-16 9.985036e-01 5.468653e-02
    outer loop
      vertex -1.135661e+02 2.643133e+01 -4.787135e+02
      vertex -1.260500e+02 2.742129e+01 -4.967888e+02
      vertex -1.274790e+02 2.737616e+01 -4.959648e+02
    endloop
  endfacet
  facet normal 2.070262e-15 9.985036e-01 5.468653e-02
    outer loop
      vertex -1.135661e+02 2.643133e+01 -4.787135e+02
      vertex -1.260500e+02 2.751150e+01 -4.984359e+02
      vertex -1.260500e+02 2.742129e+01 -4.967888e+02
    endloop
  endfacet
  facet normal 1.395792e-14 9.985036e-01 5.468653e-02
    outer loop
      vertex -1.135077e+02 2.644328e+01 -4.789317e+02
      vertex -1.260500e+02 2.751150e+01 -4.984359e+02
      vertex -1.135661e+02 2.643133e+01 -4.787135e+02
    endloop
  endfacet
  facet normal -9.257564e-16 9.985036e-01 5.468653e-02
    outer loop
      vertex -1.135077e+02 2.644328e+01 -4.789317e+02
      vertex -1.134592e+02 2.645536e+01 -4.791523e+02
      vertex -1.260500e+02 2.751150e+01 -4.984359e+02
    endloop
  endfacet
  facet normal -5.398574e-18 -4.974005e-02 9.987622e-01
    outer loop
      vertex -1.135661e+02 2.504944e+01 -4.787823e+02
      vertex -1.135661e+02 2.643133e+01 -4.787135e+02
      vertex -2.454790e+02 2.643133e+01 -4.787135e+02
    endloop
  endfacet
  facet normal -1.000000e+00 0.000000e+00 0.000000e+00
    outer loop
      vertex -2.454790e+02 2.638378e+01 -4.787158e+02
      vertex -2.454790e+02 2.643133e+01 -4.787135e+02
      vertex -2.454790e+02 2.799907e+01 -5.073383e+02
    endloop
  endfacet
  facet normal -1.029997e-14 -4.974005e-02 9.987622e-01
    outer loop
      vertex -2.454790e+02 2.638378e+01 -4.787158e+02
      vertex -1.135661e+02 2.504944e+01 -4.787823e+02
      vertex -2.454790e+02 2.643133e+01 -4.787135e+02
    endloop
  endfacet
  facet normal -4.102242e-01 8.672279e-01 -2.821910e-01
    outer loop
      vertex -2.454790e+02 2.755411e+01 -5.087058e+02
      vertex -2.454790e+02 2.799907e+01 -5.073383e+02
      vertex -2.445917e+02 2.805953e+01 -5.084423e+02
    endloop
  endfacet
  facet normal -1.000000e+00 0.000000e+00 0.000000e+00
    outer loop
      vertex -2.454790e+02 2.671207e+01 -4.853077e+02
      vertex -2.454790e+02 2.638378e+01 -4.787158e+02
      vertex -2.454790e+02 2.799907e+01 -5.073383e+02
    endloop
  endfacet
  facet normal -1.000000e+00 0.000000e+00 0.000000e+00
    outer loop
      vertex -2.454790e+02 2.660260e+01 -4.985253e+02
      vertex -2.454790e+02 2.705720e+01 -4.976278e+02
      vertex -2.454790e+02 2.799907e+01 -5.073383e+02
    endloop
  endfacet
  facet normal -1.000000e+00 0.000000e+00 0.000000e+00
    outer loop
      vertex -2.454790e+02 2.671207e+01 -4.853077e+02
      vertex -2.454790e+02 2.799907e+01 -5.073383e+02
      vertex -2.454790e+02 2.705720e+01 -4.976278e+02
    endloop
  endfacet
  facet normal -1.000000e+00 0.000000e+00 0.000000e+00
    outer loop
      vertex -2.454790e+02 2.559761e+01 -4.985803e+02
      vertex -2.454790e+02 2.660260e+01 -4.985253e+02
      vertex -2.454790e+02 2.799907e+01 -5.073383e+02
    endloop
  endfacet
  facet normal -1.000000e+00 0.000000e+00 0.000000e+00
    outer loop
      vertex -2.454790e+02 2.755411e+01 -5.087058e+02
      vertex -2.454790e+02 2.571048e+01 -5.087873e+02
      vertex -2.454790e+02 2.799907e+01 -5.073383e+02
    endloop
  endfacet
  facet normal 2.532594e-15 9.985036e-01 5.468653e-02
    outer loop
      vertex -1.113510e+02 2.722410e+01 -4.931885e+02
      vertex -1.104984e+02 2.799992e+01 -5.073539e+02
      vertex -1.113716e+02 2.806014e+01 -5.084534e+02
    endloop
  endfacet
  facet normal 4.124670e-01 8.668422e-01 -2.800993e-01
    outer loop
      vertex -1.104833e+02 2.755713e+01 -5.087019e+02
      vertex -1.113716e+02 2.806014e+01 -5.084534e+02
      vertex -1.104984e+02 2.799992e+01 -5.073539e+02
    endloop
  endfacet
  facet normal 4.714291e-01 8.772571e-01 -9.041401e-02
    outer loop
      vertex -1.104779e+02 2.743531e+01 -5.098561e+02
      vertex -1.113716e+02 2.806014e+01 -5.084534e+02
      vertex -1.104833e+02 2.755713e+01 -5.087019e+02
    endloop
  endfacet
  facet normal 9.999346e-01 -5.429311e-04 1.142628e-02
    outer loop
      vertex -1.104833e+02 2.755713e+01 -5.087019e+02
      vertex -1.104984e+02 2.799992e+01 -5.073539e+02
      vertex -1.104834e+02 2.570654e+01 -5.087822e+02
    endloop
  endfacet
  facet normal 1.852622e-16 9.987622e-01 4.974005e-02
    outer loop
      vertex -2.504790e+02 2.646337e+01 -4.803139e+02
      vertex -2.887849e+02 2.646337e+01 -4.803139e+02
      vertex -2.454790e+02 2.638378e+01 -4.787158e+02
    endloop
  endfacet
  facet normal -3.135230e-17 9.987622e-01 4.974005e-02
    outer loop
      vertex -2.895625e+02 2.643760e+01 -4.797964e+02
      vertex -2.454790e+02 2.638378e+01 -4.787158e+02
      vertex -2.887849e+02 2.646337e+01 -4.803139e+02
    endloop
  endfacet
  facet normal 4.276851e-18 9.987622e-01 4.974005e-02
    outer loop
      vertex -2.469435e+02 2.653621e+01 -4.817766e+02
      vertex -2.504790e+02 2.646337e+01 -4.803139e+02
      vertex -2.454790e+02 2.638378e+01 -4.787158e+02
    endloop
  endfacet
  facet normal 2.630266e-15 9.987622e-01 4.974005e-02
    outer loop
      vertex -2.469435e+02 2.653621e+01 -4.817766e+02
      vertex -2.454790e+02 2.638378e+01 -4.787158e+02
      vertex -2.454790e+02 2.671207e+01 -4.853077e+02
    endloop
  endfacet
  facet normal 2.125557e-16 9.987622e-01 4.974005e-02
    outer loop
      vertex -2.895625e+02 2.643760e+01 -4.797964e+02
      vertex -2.904790e+02 2.642855e+01 -4.796147e+02
      vertex -2.454790e+02 2.638378e+01 -4.787158e+02
    endloop
  endfacet
  facet normal 0.000000e+00 9.987622e-01 4.974005e-02
    outer loop
      vertex -1.194790e+02 2.491782e+01 -4.761396e+02
      vertex -1.194790e+02 2.487037e+01 -4.751867e+02
      vertex -1.183661e+02 2.487037e+01 -4.751867e+02
    endloop
  endfacet
  facet normal 2.960025e-16 9.987622e-01 4.974005e-02
    outer loop
      vertex -1.153661e+02 2.492011e+01 -4.761855e+02
      vertex -1.194790e+02 2.491782e+01 -4.761396e+02
      vertex -1.183661e+02 2.487037e+01 -4.751867e+02
    endloop
  endfacet
  facet normal 1.000000e+00 0.000000e+00 0.000000e+00
    outer loop
      vertex -1.194790e+02 2.628663e+01 -4.760714e+02
      vertex -1.194790e+02 2.487037e+01 -4.751867e+02
      vertex -1.194790e+02 2.491782e+01 -4.761396e+02
    endloop
  endfacet
  facet normal 1.000000e+00 0.000000e+00 0.000000e+00
    outer loop
      vertex -1.194790e+02 2.623445e+01 -4.751188e+02
      vertex -1.194790e+02 2.487037e+01 -4.751867e+02
      vertex -1.194790e+02 2.628663e+01 -4.760714e+02
    endloop
  endfacet
  facet normal 0.000000e+00 -8.920877e-01 4.518623e-01
    outer loop
      vertex -2.314790e+02 2.705720e+01 -4.976278e+02
      vertex -2.454790e+02 2.705720e+01 -4.976278e+02
      vertex -2.454790e+02 2.660260e+01 -4.985253e+02
    endloop
  endfacet
  facet normal 0.000000e+00 -8.374043e-01 -5.465840e-01
    outer loop
      vertex -2.314790e+02 2.650730e+01 -4.967853e+02
      vertex -2.454790e+02 2.650730e+01 -4.967853e+02
      vertex -2.454790e+02 2.705720e+01 -4.976278e+02
    endloop
  endfacet
  facet normal 0.000000e+00 -8.374043e-01 -5.465840e-01
    outer loop
      vertex -2.314790e+02 2.650730e+01 -4.967853e+02
      vertex -2.454790e+02 2.705720e+01 -4.976278e+02
      vertex -2.314790e+02 2.705720e+01 -4.976278e+02
    endloop
  endfacet
  facet normal 0.000000e+00 -5.468653e-02 9.985036e-01
    outer loop
      vertex -2.314790e+02 2.660260e+01 -4.985253e+02
      vertex -2.454790e+02 2.660260e+01 -4.985253e+02
      vertex -2.454790e+02 2.559761e+01 -4.985803e+02
    endloop
  endfacet
  facet normal 0.000000e+00 -8.920877e-01 4.518623e-01
    outer loop
      vertex -2.314790e+02 2.660260e+01 -4.985253e+02
      vertex -2.314790e+02 2.705720e+01 -4.976278e+02
      vertex -2.454790e+02 2.660260e+01 -4.985253e+02
    endloop
  endfacet
  facet normal 2.125041e-16 8.374043e-01 5.465840e-01
    outer loop
      vertex -2.314790e+02 2.559761e+01 -4.985803e+02
      vertex -2.454790e+02 2.559761e+01 -4.985803e+02
      vertex -2.454790e+02 2.504771e+01 -4.977378e+02
    endloop
  endfacet
  facet normal -1.387754e-17 -5.468653e-02 9.985036e-01
    outer loop
      vertex -2.314790e+02 2.559761e+01 -4.985803e+02
      vertex -2.314790e+02 2.660260e+01 -4.985253e+02
      vertex -2.454790e+02 2.559761e+01 -4.985803e+02
    endloop
  endfacet
  facet normal 0.000000e+00 8.920877e-01 -4.518623e-01
    outer loop
      vertex -2.314790e+02 2.504771e+01 -4.977378e+02
      vertex -2.454790e+02 2.504771e+01 -4.977378e+02
      vertex -2.454790e+02 2.550232e+01 -4.968403e+02
    endloop
  endfacet
  facet normal 0.000000e+00 8.374043e-01 5.465840e-01
    outer loop
      vertex -2.314790e+02 2.559761e+01 -4.985803e+02
      vertex -2.454790e+02 2.504771e+01 -4.977378e+02
      vertex -2.314790e+02 2.504771e+01 -4.977378e+02
    endloop
  endfacet
  facet normal 0.000000e+00 5.468653e-02 -9.985036e-01
    outer loop
      vertex -2.314790e+02 2.550232e+01 -4.968403e+02
      vertex -2.454790e+02 2.550232e+01 -4.968403e+02
      vertex -2.454790e+02 2.650730e+01 -4.967853e+02
    endloop
  endfacet
  facet normal 0.000000e+00 8.920877e-01 -4.518623e-01
    outer loop
      vertex -2.314790e+02 2.550232e+01 -4.968403e+02
      vertex -2.314790e+02 2.504771e+01 -4.977378e+02
      vertex -2.454790e+02 2.550232e+01 -4.968403e+02
    endloop
  endfacet
  facet normal 0.000000e+00 5.468653e-02 -9.985036e-01
    outer loop
      vertex -2.314790e+02 2.650730e+01 -4.967853e+02
      vertex -2.314790e+02 2.550232e+01 -4.968403e+02
      vertex -2.454790e+02 2.650730e+01 -4.967853e+02
    endloop
  endfacet
  facet normal -1.000000e+00 0.000000e+00 0.000000e+00
    outer loop
      vertex -2.454790e+02 2.743592e+01 -5.098560e+02
      vertex -2.454790e+02 2.594585e+01 -5.099303e+02
      vertex -2.454790e+02 2.571048e+01 -5.087873e+02
    endloop
  endfacet
  facet normal -1.000000e+00 0.000000e+00 0.000000e+00
    outer loop
      vertex -2.454790e+02 2.755411e+01 -5.087058e+02
      vertex -2.454790e+02 2.743592e+01 -5.098560e+02
      vertex -2.454790e+02 2.571048e+01 -5.087873e+02
    endloop
  endfacet
  facet normal -1.000000e+00 0.000000e+00 0.000000e+00
    outer loop
      vertex -2.454790e+02 2.743592e+01 -5.098560e+02
      vertex -2.454790e+02 2.901277e+01 -5.415188e+02
      vertex -2.454790e+02 2.594585e+01 -5.099303e+02
    endloop
  endfacet
  facet normal -9.301907e-01 1.825841e-02 -3.666222e-01
    outer loop
      vertex -2.453443e+02 2.910746e+01 -5.418559e+02
      vertex -2.454790e+02 2.861628e+01 -5.415385e+02
      vertex -2.454790e+02 2.901277e+01 -5.415188e+02
    endloop
  endfacet
  facet normal -9.502731e-01 6.369737e-02 -3.048339e-01
    outer loop
      vertex -2.453889e+02 2.857998e+01 -5.418271e+02
      vertex -2.454790e+02 2.861628e+01 -5.415385e+02
      vertex -2.453443e+02 2.910746e+01 -5.418559e+02
    endloop
  endfacet
  facet normal 9.997991e-01 2.894441e-04 -2.003982e-02
    outer loop
      vertex -1.104779e+02 2.743531e+01 -5.098561e+02
      vertex -1.104790e+02 2.594585e+01 -5.099303e+02
      vertex -1.106084e+02 2.619239e+01 -5.163827e+02
    endloop
  endfacet
  facet normal 9.997081e-01 1.016513e-02 -2.191870e-02
    outer loop
      vertex -1.106402e+02 2.788709e+01 -5.170449e+02
      vertex -1.104779e+02 2.743531e+01 -5.098561e+02
      vertex -1.106084e+02 2.619239e+01 -5.163827e+02
    endloop
  endfacet
  facet normal 9.999929e-01 -2.098849e-04 3.754694e-03
    outer loop
      vertex -1.104833e+02 2.755713e+01 -5.087019e+02
      vertex -1.104834e+02 2.570654e+01 -5.087822e+02
      vertex -1.104790e+02 2.594585e+01 -5.099303e+02
    endloop
  endfacet
  facet normal 9.999884e-01 -9.436295e-04 4.717160e-03
    outer loop
      vertex -1.104779e+02 2.743531e+01 -5.098561e+02
      vertex -1.104833e+02 2.755713e+01 -5.087019e+02
      vertex -1.104790e+02 2.594585e+01 -5.099303e+02
    endloop
  endfacet
  facet normal -5.653882e-01 2.659183e-03 -8.248207e-01
    outer loop
      vertex -2.453889e+02 2.857998e+01 -5.418271e+02
      vertex -2.453443e+02 2.910746e+01 -5.418559e+02
      vertex -2.451827e+02 2.920633e+01 -5.419664e+02
    endloop
  endfacet
endsolid 112_100022596-17
