solid 117_100022026-24
  facet normal -1.000000e+00 0.000000e+00 0.000000e+00
    outer loop
      vertex -3.154788e+02 1.826763e+01 -5.413635e+02
      vertex -3.154788e+02 1.737101e+01 -5.413948e+02
      vertex -3.154788e+02 1.733382e+01 -5.402454e+02
    endloop
  endfacet
  facet normal 0.000000e+00 -9.994771e-01 -3.233465e-02
    outer loop
      vertex -1.136710e+02 1.737101e+01 -5.413948e+02
      vertex -3.154788e+02 1.733382e+01 -5.402454e+02
      vertex -3.154788e+02 1.737101e+01 -5.413948e+02
    endloop
  endfacet
  facet normal -1.000000e+00 0.000000e+00 0.000000e+00
    outer loop
      vertex -3.154788e+02 1.903111e+01 -5.401862e+02
      vertex -3.154788e+02 1.826763e+01 -5.413635e+02
      vertex -3.154788e+02 1.733382e+01 -5.402454e+02
    endloop
  endfacet
  facet normal 0.000000e+00 -3.480988e-02 9.993940e-01
    outer loop
      vertex -2.904788e+02 1.733382e+01 -5.402454e+02
      vertex -3.154788e+02 1.903111e+01 -5.401862e+02
      vertex -3.154788e+02 1.733382e+01 -5.402454e+02
    endloop
  endfacet
  facet normal 0.000000e+00 -9.994771e-01 -3.233465e-02
    outer loop
      vertex -1.136710e+02 1.737101e+01 -5.413948e+02
      vertex -2.904788e+02 1.733382e+01 -5.402454e+02
      vertex -3.154788e+02 1.733382e+01 -5.402454e+02
    endloop
  endfacet
  facet normal 0.000000e+00 3.480988e-02 -9.993940e-01
    outer loop
      vertex -1.136702e+02 1.826763e+01 -5.413635e+02
      vertex -3.154788e+02 1.737101e+01 -5.413948e+02
      vertex -3.154788e+02 1.826763e+01 -5.413635e+02
    endloop
  endfacet
  facet normal 0.000000e+00 3.480988e-02 -9.993940e-01
    outer loop
      vertex -1.136702e+02 1.826763e+01 -5.413635e+02
      vertex -1.136710e+02 1.737101e+01 -5.413948e+02
      vertex -3.154788e+02 1.737101e+01 -5.413948e+02
    endloop
  endfacet
  facet normal -1.000000e+00 0.000000e+00 0.000000e+00
    outer loop
      vertex -3.154788e+02 1.918775e+01 -5.446835e+02
      vertex -3.154788e+02 1.835103e+01 -5.437581e+02
      vertex -3.154788e+02 1.826763e+01 -5.413635e+02
    endloop
  endfacet
  facet normal 0.000000e+00 -9.993940e-01 -3.480988e-02
    outer loop
      vertex -1.184788e+02 1.835103e+01 -5.437581e+02
      vertex -3.154788e+02 1.826763e+01 -5.413635e+02
      vertex -3.154788e+02 1.835103e+01 -5.437581e+02
    endloop
  endfacet
  facet normal -1.000000e+00 0.000000e+00 0.000000e+00
    outer loop
      vertex -3.154788e+02 1.903111e+01 -5.401862e+02
      vertex -3.154788e+02 1.918775e+01 -5.446835e+02
      vertex -3.154788e+02 1.826763e+01 -5.413635e+02
    endloop
  endfacet
  facet normal 0.000000e+00 -9.993940e-01 -3.480988e-02
    outer loop
      vertex -1.154961e+02 1.835212e+01 -5.437894e+02
      vertex -1.136702e+02 1.826763e+01 -5.413635e+02
      vertex -3.154788e+02 1.826763e+01 -5.413635e+02
    endloop
  endfacet
  facet normal -6.742177e-15 -9.993940e-01 -3.480988e-02
    outer loop
      vertex -1.154961e+02 1.835212e+01 -5.437894e+02
      vertex -3.154788e+02 1.826763e+01 -5.413635e+02
      vertex -1.184788e+02 1.835103e+01 -5.437581e+02
    endloop
  endfacet
  facet normal -1.000000e+00 0.000000e+00 0.000000e+00
    outer loop
      vertex -3.154788e+02 1.918775e+01 -5.446835e+02
      vertex -3.154788e+02 1.744848e+01 -5.437895e+02
      vertex -3.154788e+02 1.835103e+01 -5.437581e+02
    endloop
  endfacet
  facet normal 0.000000e+00 -3.480988e-02 9.993940e-01
    outer loop
      vertex -1.184788e+02 1.744848e+01 -5.437895e+02
      vertex -3.154788e+02 1.835103e+01 -5.437581e+02
      vertex -3.154788e+02 1.744848e+01 -5.437895e+02
    endloop
  endfacet
  facet normal 0.000000e+00 -3.480988e-02 9.993940e-01
    outer loop
      vertex -1.184788e+02 1.744848e+01 -5.437895e+02
      vertex -1.184788e+02 1.835103e+01 -5.437581e+02
      vertex -3.154788e+02 1.835103e+01 -5.437581e+02
    endloop
  endfacet
  facet normal -1.000000e+00 0.000000e+00 0.000000e+00
    outer loop
      vertex -3.154788e+02 1.918775e+01 -5.446835e+02
      vertex -3.154788e+02 1.745552e+01 -5.440069e+02
      vertex -3.154788e+02 1.744848e+01 -5.437895e+02
    endloop
  endfacet
  facet normal 0.000000e+00 -9.994771e-01 -3.233465e-02
    outer loop
      vertex -1.184788e+02 1.745552e+01 -5.440069e+02
      vertex -3.154788e+02 1.744848e+01 -5.437895e+02
      vertex -3.154788e+02 1.745552e+01 -5.440069e+02
    endloop
  endfacet
  facet normal 0.000000e+00 -9.994771e-01 -3.233465e-02
    outer loop
      vertex -1.184788e+02 1.745552e+01 -5.440069e+02
      vertex -1.184788e+02 1.744848e+01 -5.437895e+02
      vertex -3.154788e+02 1.744848e+01 -5.437895e+02
    endloop
  endfacet
  facet normal -1.000000e+00 0.000000e+00 0.000000e+00
    outer loop
      vertex -3.154788e+02 1.918775e+01 -5.446835e+02
      vertex -3.154788e+02 1.821721e+01 -5.447173e+02
      vertex -3.154788e+02 1.745552e+01 -5.440069e+02
    endloop
  endfacet
  facet normal -1.230040e-17 -6.820639e-01 -7.312925e-01
    outer loop
      vertex -1.184788e+02 1.821721e+01 -5.447173e+02
      vertex -3.154788e+02 1.745552e+01 -5.440069e+02
      vertex -3.154788e+02 1.821721e+01 -5.447173e+02
    endloop
  endfacet
  facet normal 0.000000e+00 -6.820639e-01 -7.312925e-01
    outer loop
      vertex -1.184788e+02 1.821721e+01 -5.447173e+02
      vertex -1.184788e+02 1.745552e+01 -5.440069e+02
      vertex -3.154788e+02 1.745552e+01 -5.440069e+02
    endloop
  endfacet
  facet normal 0.000000e+00 3.480988e-02 -9.993940e-01
    outer loop
      vertex -1.182490e+02 1.918775e+01 -5.446835e+02
      vertex -3.154788e+02 1.821721e+01 -5.447173e+02
      vertex -3.154788e+02 1.918775e+01 -5.446835e+02
    endloop
  endfacet
  facet normal 6.277641e-19 3.480988e-02 -9.993940e-01
    outer loop
      vertex -1.184788e+02 1.821721e+01 -5.447173e+02
      vertex -3.154788e+02 1.821721e+01 -5.447173e+02
      vertex -1.184788e+02 1.838424e+01 -5.447115e+02
    endloop
  endfacet
  facet normal 4.855266e-17 3.480988e-02 -9.993940e-01
    outer loop
      vertex -1.182490e+02 1.918775e+01 -5.446835e+02
      vertex -1.184788e+02 1.838424e+01 -5.447115e+02
      vertex -3.154788e+02 1.821721e+01 -5.447173e+02
    endloop
  endfacet
  facet normal 0.000000e+00 9.993940e-01 3.480988e-02
    outer loop
      vertex -2.904788e+02 1.903111e+01 -5.401862e+02
      vertex -3.154788e+02 1.918775e+01 -5.446835e+02
      vertex -3.154788e+02 1.903111e+01 -5.401862e+02
    endloop
  endfacet
  facet normal 0.000000e+00 9.993940e-01 3.480988e-02
    outer loop
      vertex -1.274788e+02 1.864535e+01 -5.291110e+02
      vertex -1.182490e+02 1.918775e+01 -5.446835e+02
      vertex -3.154788e+02 1.918775e+01 -5.446835e+02
    endloop
  endfacet
  facet normal -3.948421e-16 9.993940e-01 3.480988e-02
    outer loop
      vertex -2.504788e+02 1.899116e+01 -5.390393e+02
      vertex -1.274788e+02 1.864535e+01 -5.291110e+02
      vertex -3.154788e+02 1.918775e+01 -5.446835e+02
    endloop
  endfacet
  facet normal 4.145643e-17 9.993940e-01 3.480988e-02
    outer loop
      vertex -2.904788e+02 1.903111e+01 -5.401862e+02
      vertex -2.504788e+02 1.899116e+01 -5.390393e+02
      vertex -3.154788e+02 1.918775e+01 -5.446835e+02
    endloop
  endfacet
  facet normal 0.000000e+00 -3.480988e-02 9.993940e-01
    outer loop
      vertex -2.904788e+02 1.903111e+01 -5.401862e+02
      vertex -3.154788e+02 1.903111e+01 -5.401862e+02
      vertex -2.904788e+02 1.733382e+01 -5.402454e+02
    endloop
  endfacet
  facet normal 0.000000e+00 -9.994771e-01 -3.233465e-02
    outer loop
      vertex -1.106528e+02 1.675939e+01 -5.101186e+02
      vertex -1.154017e+02 1.569801e+01 -4.773111e+02
      vertex -2.449788e+02 1.569801e+01 -4.773111e+02
    endloop
  endfacet
  facet normal 0.000000e+00 -3.480988e-02 9.993940e-01
    outer loop
      vertex -2.449788e+02 1.605180e+01 -4.772988e+02
      vertex -2.449788e+02 1.569801e+01 -4.773111e+02
      vertex -1.154017e+02 1.569801e+01 -4.773111e+02
    endloop
  endfacet
  facet normal 6.446958e-15 -9.994771e-01 -3.233465e-02
    outer loop
      vertex -2.451532e+02 1.569903e+01 -4.773425e+02
      vertex -1.106528e+02 1.675939e+01 -5.101186e+02
      vertex -2.449788e+02 1.569801e+01 -4.773111e+02
    endloop
  endfacet
  facet normal -1.771678e-01 -4.391576e-02 9.832004e-01
    outer loop
      vertex -2.451324e+02 1.605258e+01 -4.773230e+02
      vertex -2.451532e+02 1.569903e+01 -4.773425e+02
      vertex -2.449788e+02 1.569801e+01 -4.773111e+02
    endloop
  endfacet
  facet normal -2.319880e-01 -6.809211e-02 9.703324e-01
    outer loop
      vertex -2.450567e+02 1.605200e+01 -4.773049e+02
      vertex -2.451324e+02 1.605258e+01 -4.773230e+02
      vertex -2.449788e+02 1.569801e+01 -4.773111e+02
    endloop
  endfacet
  facet normal -7.808727e-02 -3.470358e-02 9.963423e-01
    outer loop
      vertex -2.450567e+02 1.605200e+01 -4.773049e+02
      vertex -2.449788e+02 1.569801e+01 -4.773111e+02
      vertex -2.449788e+02 1.605180e+01 -4.772988e+02
    endloop
  endfacet
  facet normal -1.300574e-15 -9.994771e-01 -3.233465e-02
    outer loop
      vertex -1.106528e+02 1.675939e+01 -5.101186e+02
      vertex -1.141682e+02 1.571331e+01 -4.777840e+02
      vertex -1.154017e+02 1.569801e+01 -4.773111e+02
    endloop
  endfacet
  facet normal 3.518762e-01 -2.148882e-01 9.110468e-01
    outer loop
      vertex -1.143652e+02 1.606237e+01 -4.776256e+02
      vertex -1.154017e+02 1.569801e+01 -4.773111e+02
      vertex -1.141682e+02 1.571331e+01 -4.777840e+02
    endloop
  endfacet
  facet normal 2.915993e-01 -4.159016e-03 9.565315e-01
    outer loop
      vertex -1.154211e+02 1.589128e+01 -4.773044e+02
      vertex -1.154017e+02 1.569801e+01 -4.773111e+02
      vertex -1.143652e+02 1.606237e+01 -4.776256e+02
    endloop
  endfacet
  facet normal 0.000000e+00 -3.480988e-02 9.993940e-01
    outer loop
      vertex -2.449788e+02 1.605180e+01 -4.772988e+02
      vertex -1.154017e+02 1.569801e+01 -4.773111e+02
      vertex -1.154610e+02 1.605180e+01 -4.772988e+02
    endloop
  endfacet
  facet normal 1.791858e-12 -3.480988e-02 9.993940e-01
    outer loop
      vertex -1.154381e+02 1.599902e+01 -4.773007e+02
      vertex -1.154610e+02 1.605180e+01 -4.772988e+02
      vertex -1.154017e+02 1.569801e+01 -4.773111e+02
    endloop
  endfacet
  facet normal -1.553401e-12 -3.480988e-02 9.993940e-01
    outer loop
      vertex -1.154211e+02 1.589128e+01 -4.773044e+02
      vertex -1.154381e+02 1.599902e+01 -4.773007e+02
      vertex -1.154017e+02 1.569801e+01 -4.773111e+02
    endloop
  endfacet
  facet normal 2.012289e-15 -9.994771e-01 -3.233465e-02
    outer loop
      vertex -1.106528e+02 1.675939e+01 -5.101186e+02
      vertex -1.134987e+02 1.575015e+01 -4.789227e+02
      vertex -1.141682e+02 1.571331e+01 -4.777840e+02
    endloop
  endfacet
  facet normal 8.309627e-01 -2.821938e-01 4.794451e-01
    outer loop
      vertex -1.136277e+02 1.609062e+01 -4.784987e+02
      vertex -1.141682e+02 1.571331e+01 -4.777840e+02
      vertex -1.134987e+02 1.575015e+01 -4.789227e+02
    endloop
  endfacet
  facet normal 7.548570e-01 1.346335e-01 6.419227e-01
    outer loop
      vertex -1.143652e+02 1.606237e+01 -4.776256e+02
      vertex -1.141682e+02 1.571331e+01 -4.777840e+02
      vertex -1.136277e+02 1.609062e+01 -4.784987e+02
    endloop
  endfacet
  facet normal -5.750481e-16 -9.994771e-01 -3.233465e-02
    outer loop
      vertex -1.106528e+02 1.675939e+01 -5.101186e+02
      vertex -1.116414e+02 1.612803e+01 -4.906031e+02
      vertex -1.134987e+02 1.575015e+01 -4.789227e+02
    endloop
  endfacet
  facet normal 9.876054e-01 -5.075166e-03 1.568754e-01
    outer loop
      vertex -1.134987e+02 1.649616e+01 -4.788986e+02
      vertex -1.134987e+02 1.575015e+01 -4.789227e+02
      vertex -1.116414e+02 1.612803e+01 -4.906031e+02
    endloop
  endfacet
  facet normal 9.692112e-01 -7.961786e-03 2.461020e-01
    outer loop
      vertex -1.135521e+02 1.648885e+01 -4.786887e+02
      vertex -1.134987e+02 1.575015e+01 -4.789227e+02
      vertex -1.134987e+02 1.649616e+01 -4.788986e+02
    endloop
  endfacet
  facet normal 9.364780e-01 -4.264422e-02 3.481243e-01
    outer loop
      vertex -1.136277e+02 1.648179e+01 -4.784861e+02
      vertex -1.134987e+02 1.575015e+01 -4.789227e+02
      vertex -1.135521e+02 1.648885e+01 -4.786887e+02
    endloop
  endfacet
  facet normal 9.544725e-01 -9.645387e-03 2.981428e-01
    outer loop
      vertex -1.136277e+02 1.609062e+01 -4.784987e+02
      vertex -1.134987e+02 1.575015e+01 -4.789227e+02
      vertex -1.136277e+02 1.648179e+01 -4.784861e+02
    endloop
  endfacet
  facet normal -1.278045e-15 -9.994771e-01 -3.233465e-02
    outer loop
      vertex -1.106528e+02 1.675939e+01 -5.101186e+02
      vertex -1.106528e+02 1.650935e+01 -5.023898e+02
      vertex -1.116414e+02 1.612803e+01 -4.906031e+02
    endloop
  endfacet
  facet normal 9.965048e-01 -3.115852e-03 8.347710e-02
    outer loop
      vertex -1.116403e+02 1.690327e+01 -4.905867e+02
      vertex -1.116414e+02 1.612803e+01 -4.906031e+02
      vertex -1.106528e+02 1.650935e+01 -5.023898e+02
    endloop
  endfacet
  facet normal 9.876094e-01 -4.659247e-03 1.568630e-01
    outer loop
      vertex -1.134987e+02 1.649616e+01 -4.788986e+02
      vertex -1.116414e+02 1.612803e+01 -4.906031e+02
      vertex -1.116403e+02 1.690327e+01 -4.905867e+02
    endloop
  endfacet
  facet normal 5.000000e-01 -8.655726e-01 -2.800263e-02
    outer loop
      vertex -1.105192e+02 1.671146e+01 -5.062511e+02
      vertex -1.106528e+02 1.650935e+01 -5.023898e+02
      vertex -1.106528e+02 1.675939e+01 -5.101186e+02
    endloop
  endfacet
  facet normal 9.965112e-01 -1.914247e-03 8.343753e-02
    outer loop
      vertex -1.116403e+02 1.690327e+01 -4.905867e+02
      vertex -1.106528e+02 1.650935e+01 -5.023898e+02
      vertex -1.106520e+02 1.731407e+01 -5.023808e+02
    endloop
  endfacet
  facet normal 9.994033e-01 -1.372367e-03 3.451459e-02
    outer loop
      vertex -1.105192e+02 1.671146e+01 -5.062511e+02
      vertex -1.106520e+02 1.731407e+01 -5.023808e+02
      vertex -1.106528e+02 1.650935e+01 -5.023898e+02
    endloop
  endfacet
  facet normal 0.000000e+00 -9.994771e-01 -3.233465e-02
    outer loop
      vertex -2.453056e+02 1.570195e+01 -4.774327e+02
      vertex -2.453056e+02 1.675939e+01 -5.101186e+02
      vertex -1.106528e+02 1.675939e+01 -5.101186e+02
    endloop
  endfacet
  facet normal 0.000000e+00 -3.233465e-02 9.994771e-01
    outer loop
      vertex -1.113457e+02 1.635960e+01 -5.101316e+02
      vertex -1.106528e+02 1.675939e+01 -5.101186e+02
      vertex -2.453056e+02 1.675939e+01 -5.101186e+02
    endloop
  endfacet
  facet normal -2.596020e-15 -9.994771e-01 -3.233465e-02
    outer loop
      vertex -2.451532e+02 1.569903e+01 -4.773425e+02
      vertex -2.453056e+02 1.570195e+01 -4.774327e+02
      vertex -1.106528e+02 1.675939e+01 -5.101186e+02
    endloop
  endfacet
  facet normal 4.942192e-01 -8.604678e-01 1.238654e-01
    outer loop
      vertex -1.111105e+02 1.638438e+01 -5.108975e+02
      vertex -1.106528e+02 1.675939e+01 -5.101186e+02
      vertex -1.113457e+02 1.635960e+01 -5.101316e+02
    endloop
  endfacet
  facet normal 4.942192e-01 -8.604678e-01 1.238654e-01
    outer loop
      vertex -1.104791e+02 1.685966e+01 -5.101154e+02
      vertex -1.106528e+02 1.675939e+01 -5.101186e+02
      vertex -1.111105e+02 1.638438e+01 -5.108975e+02
    endloop
  endfacet
  facet normal 5.000000e-01 -8.655726e-01 -2.800263e-02
    outer loop
      vertex -1.105192e+02 1.671146e+01 -5.062511e+02
      vertex -1.106528e+02 1.675939e+01 -5.101186e+02
      vertex -1.104791e+02 1.685966e+01 -5.101154e+02
    endloop
  endfacet
  facet normal -5.000000e-01 -8.655726e-01 -2.800263e-02
    outer loop
      vertex -2.454788e+02 1.685934e+01 -5.101154e+02
      vertex -2.453056e+02 1.675939e+01 -5.101186e+02
      vertex -2.453056e+02 1.570195e+01 -4.774327e+02
    endloop
  endfacet
  facet normal 0.000000e+00 -3.233465e-02 9.994771e-01
    outer loop
      vertex -1.113457e+02 1.635960e+01 -5.101316e+02
      vertex -2.453056e+02 1.675939e+01 -5.101186e+02
      vertex -2.446128e+02 1.635960e+01 -5.101316e+02
    endloop
  endfacet
  facet normal -4.895128e-01 -8.540054e-01 1.762159e-01
    outer loop
      vertex -2.454788e+02 1.675471e+01 -5.106225e+02
      vertex -2.446128e+02 1.635960e+01 -5.101316e+02
      vertex -2.453056e+02 1.675939e+01 -5.101186e+02
    endloop
  endfacet
  facet normal -4.895128e-01 -8.540054e-01 1.762159e-01
    outer loop
      vertex -2.454788e+02 1.675471e+01 -5.106225e+02
      vertex -2.453056e+02 1.675939e+01 -5.101186e+02
      vertex -2.454788e+02 1.685934e+01 -5.101154e+02
    endloop
  endfacet
  facet normal -5.003851e-01 1.580504e-01 8.512549e-01
    outer loop
      vertex -2.453915e+02 1.590932e+01 -4.775217e+02
      vertex -2.453056e+02 1.570195e+01 -4.774327e+02
      vertex -2.451532e+02 1.569903e+01 -4.773425e+02
    endloop
  endfacet
  facet normal -5.000000e-01 -8.655726e-01 -2.800263e-02
    outer loop
      vertex -2.454788e+02 1.685934e+01 -5.101154e+02
      vertex -2.453056e+02 1.570195e+01 -4.774327e+02
      vertex -2.454788e+02 1.581412e+01 -4.778074e+02
    endloop
  endfacet
  facet normal -5.000000e-01 -8.655726e-01 -2.800263e-02
    outer loop
      vertex -2.454360e+02 1.578283e+01 -4.776058e+02
      vertex -2.454788e+02 1.581412e+01 -4.778074e+02
      vertex -2.453056e+02 1.570195e+01 -4.774327e+02
    endloop
  endfacet
  facet normal -8.158916e-01 -9.310753e-02 5.706592e-01
    outer loop
      vertex -2.454360e+02 1.578283e+01 -4.776058e+02
      vertex -2.453056e+02 1.570195e+01 -4.774327e+02
      vertex -2.453915e+02 1.590932e+01 -4.775217e+02
    endloop
  endfacet
  facet normal -6.055286e-01 -8.373285e-03 7.957795e-01
    outer loop
      vertex -2.453915e+02 1.590932e+01 -4.775217e+02
      vertex -2.451532e+02 1.569903e+01 -4.773425e+02
      vertex -2.451324e+02 1.605258e+01 -4.773230e+02
    endloop
  endfacet
  facet normal 0.000000e+00 -9.994771e-01 -3.233465e-02
    outer loop
      vertex -1.274788e+02 1.691069e+01 -5.271661e+02
      vertex -1.113457e+02 1.635960e+01 -5.101316e+02
      vertex -2.446128e+02 1.635960e+01 -5.101316e+02
    endloop
  endfacet
  facet normal -2.552842e-15 -9.994771e-01 -3.233465e-02
    outer loop
      vertex -2.294568e+02 1.681369e+01 -5.241677e+02
      vertex -2.287568e+02 1.682306e+01 -5.244575e+02
      vertex -2.446128e+02 1.635960e+01 -5.101316e+02
    endloop
  endfacet
  facet normal -1.194249e-16 -9.994771e-01 -3.233465e-02
    outer loop
      vertex -2.244788e+02 1.690261e+01 -5.269162e+02
      vertex -2.446128e+02 1.635960e+01 -5.101316e+02
      vertex -2.287568e+02 1.682306e+01 -5.244575e+02
    endloop
  endfacet
  facet normal 0.000000e+00 -9.994771e-01 -3.233465e-02
    outer loop
      vertex -2.304888e+02 1.681369e+01 -5.241677e+02
      vertex -2.294568e+02 1.681369e+01 -5.241677e+02
      vertex -2.446128e+02 1.635960e+01 -5.101316e+02
    endloop
  endfacet
  facet normal 9.965129e-16 -9.994771e-01 -3.233465e-02
    outer loop
      vertex -2.311889e+02 1.682306e+01 -5.244575e+02
      vertex -2.304888e+02 1.681369e+01 -5.241677e+02
      vertex -2.446128e+02 1.635960e+01 -5.101316e+02
    endloop
  endfacet
  facet normal 8.805827e-16 -9.994771e-01 -3.233465e-02
    outer loop
      vertex -2.314788e+02 1.684570e+01 -5.251571e+02
      vertex -2.311889e+02 1.682306e+01 -5.244575e+02
      vertex -2.446128e+02 1.635960e+01 -5.101316e+02
    endloop
  endfacet
  facet normal -4.942654e-16 -9.994771e-01 -3.233465e-02
    outer loop
      vertex -2.314788e+02 1.704035e+01 -5.311740e+02
      vertex -2.314788e+02 1.684570e+01 -5.251571e+02
      vertex -2.446128e+02 1.635960e+01 -5.101316e+02
    endloop
  endfacet
  facet normal 6.019156e-15 -9.994771e-01 -3.233465e-02
    outer loop
      vertex -2.311889e+02 1.706299e+01 -5.318737e+02
      vertex -2.314788e+02 1.704035e+01 -5.311740e+02
      vertex -2.446128e+02 1.635960e+01 -5.101316e+02
    endloop
  endfacet
  facet normal 3.068939e-15 -9.994771e-01 -3.233465e-02
    outer loop
      vertex -2.448499e+02 1.638447e+01 -5.109003e+02
      vertex -2.311889e+02 1.706299e+01 -5.318737e+02
      vertex -2.446128e+02 1.635960e+01 -5.101316e+02
    endloop
  endfacet
  facet normal 0.000000e+00 -9.994771e-01 -3.233465e-02
    outer loop
      vertex -2.238212e+02 1.691069e+01 -5.271661e+02
      vertex -1.274788e+02 1.691069e+01 -5.271661e+02
      vertex -2.446128e+02 1.635960e+01 -5.101316e+02
    endloop
  endfacet
  facet normal -3.503361e-14 -9.994771e-01 -3.233465e-02
    outer loop
      vertex -2.241270e+02 1.690470e+01 -5.269808e+02
      vertex -2.238212e+02 1.691069e+01 -5.271661e+02
      vertex -2.446128e+02 1.635960e+01 -5.101316e+02
    endloop
  endfacet
  facet normal 2.747308e-15 -9.994771e-01 -3.233465e-02
    outer loop
      vertex -2.244788e+02 1.690261e+01 -5.269162e+02
      vertex -2.241270e+02 1.690470e+01 -5.269808e+02
      vertex -2.446128e+02 1.635960e+01 -5.101316e+02
    endloop
  endfacet
  facet normal -4.656434e-01 -8.774363e-01 1.152465e-01
    outer loop
      vertex -2.454788e+02 1.675471e+01 -5.106225e+02
      vertex -2.448499e+02 1.638447e+01 -5.109003e+02
      vertex -2.446128e+02 1.635960e+01 -5.101316e+02
    endloop
  endfacet
  facet normal 1.923714e-15 -9.994771e-01 -3.233465e-02
    outer loop
      vertex -1.274788e+02 1.691069e+01 -5.271661e+02
      vertex -1.266128e+02 1.692686e+01 -5.276658e+02
      vertex -1.113457e+02 1.635960e+01 -5.101316e+02
    endloop
  endfacet
  facet normal 4.962622e-17 -9.994771e-01 -3.233465e-02
    outer loop
      vertex -1.134840e+02 1.734877e+01 -5.407074e+02
      vertex -1.113457e+02 1.635960e+01 -5.101316e+02
      vertex -1.266128e+02 1.692686e+01 -5.276658e+02
    endloop
  endfacet
  facet normal -7.851122e-15 -9.994771e-01 -3.233465e-02
    outer loop
      vertex -1.113085e+02 1.687694e+01 -5.261227e+02
      vertex -1.111105e+02 1.638438e+01 -5.108975e+02
      vertex -1.113457e+02 1.635960e+01 -5.101316e+02
    endloop
  endfacet
  facet normal 4.522465e-16 -9.994771e-01 -3.233465e-02
    outer loop
      vertex -1.134840e+02 1.734877e+01 -5.407074e+02
      vertex -1.113085e+02 1.687694e+01 -5.261227e+02
      vertex -1.113457e+02 1.635960e+01 -5.101316e+02
    endloop
  endfacet
  facet normal 0.000000e+00 -9.994771e-01 -3.233465e-02
    outer loop
      vertex -2.244788e+02 1.690261e+01 -5.269162e+02
      vertex -2.284668e+02 1.684570e+01 -5.251571e+02
      vertex -2.284668e+02 1.690261e+01 -5.269162e+02
    endloop
  endfacet
  facet normal -1.000000e+00 0.000000e+00 0.000000e+00
    outer loop
      vertex -2.284668e+02 1.856703e+01 -5.268624e+02
      vertex -2.284668e+02 1.690261e+01 -5.269162e+02
      vertex -2.284668e+02 1.684570e+01 -5.251571e+02
    endloop
  endfacet
  facet normal 0.000000e+00 3.233465e-02 -9.994771e-01
    outer loop
      vertex -2.244788e+02 1.856703e+01 -5.268624e+02
      vertex -2.244788e+02 1.690261e+01 -5.269162e+02
      vertex -2.284668e+02 1.690261e+01 -5.269162e+02
    endloop
  endfacet
  facet normal 0.000000e+00 3.233465e-02 -9.994771e-01
    outer loop
      vertex -2.244788e+02 1.856703e+01 -5.268624e+02
      vertex -2.284668e+02 1.690261e+01 -5.269162e+02
      vertex -2.284668e+02 1.856703e+01 -5.268624e+02
    endloop
  endfacet
  facet normal 8.394540e-16 -9.994771e-01 -3.233465e-02
    outer loop
      vertex -2.244788e+02 1.690261e+01 -5.269162e+02
      vertex -2.287568e+02 1.682306e+01 -5.244575e+02
      vertex -2.284668e+02 1.684570e+01 -5.251571e+02
    endloop
  endfacet
  facet normal -9.238795e-01 1.237393e-02 -3.824833e-01
    outer loop
      vertex -2.284668e+02 1.850576e+01 -5.251034e+02
      vertex -2.284668e+02 1.684570e+01 -5.251571e+02
      vertex -2.287568e+02 1.682306e+01 -5.244575e+02
    endloop
  endfacet
  facet normal -1.000000e+00 0.000000e+00 0.000000e+00
    outer loop
      vertex -2.284668e+02 1.850576e+01 -5.251034e+02
      vertex -2.284668e+02 1.856703e+01 -5.268624e+02
      vertex -2.284668e+02 1.684570e+01 -5.251571e+02
    endloop
  endfacet
  facet normal -3.826834e-01 2.987354e-02 -9.233964e-01
    outer loop
      vertex -2.287568e+02 1.848139e+01 -5.244038e+02
      vertex -2.287568e+02 1.682306e+01 -5.244575e+02
      vertex -2.294568e+02 1.681369e+01 -5.241677e+02
    endloop
  endfacet
  facet normal -9.238794e-01 1.237373e-02 -3.824838e-01
    outer loop
      vertex -2.284668e+02 1.850576e+01 -5.251034e+02
      vertex -2.287568e+02 1.682306e+01 -5.244575e+02
      vertex -2.287568e+02 1.848139e+01 -5.244038e+02
    endloop
  endfacet
  facet normal 0.000000e+00 3.233465e-02 -9.994771e-01
    outer loop
      vertex -2.304888e+02 1.847130e+01 -5.241140e+02
      vertex -2.294568e+02 1.681369e+01 -5.241677e+02
      vertex -2.304888e+02 1.681369e+01 -5.241677e+02
    endloop
  endfacet
  facet normal 0.000000e+00 3.233465e-02 -9.994771e-01
    outer loop
      vertex -2.294568e+02 1.847130e+01 -5.241140e+02
      vertex -2.294568e+02 1.681369e+01 -5.241677e+02
      vertex -2.304888e+02 1.847130e+01 -5.241140e+02
    endloop
  endfacet
  facet normal -3.826830e-01 2.987333e-02 -9.233966e-01
    outer loop
      vertex -2.287568e+02 1.848139e+01 -5.244038e+02
      vertex -2.294568e+02 1.681369e+01 -5.241677e+02
      vertex -2.294568e+02 1.847130e+01 -5.241140e+02
    endloop
  endfacet
  facet normal 3.826834e-01 2.987332e-02 -9.233964e-01
    outer loop
      vertex -2.304888e+02 1.847130e+01 -5.241140e+02
      vertex -2.304888e+02 1.681369e+01 -5.241677e+02
      vertex -2.311889e+02 1.682306e+01 -5.244575e+02
    endloop
  endfacet
  facet normal 9.238795e-01 1.237372e-02 -3.824833e-01
    outer loop
      vertex -2.311889e+02 1.848139e+01 -5.244038e+02
      vertex -2.311889e+02 1.682306e+01 -5.244575e+02
      vertex -2.314788e+02 1.684570e+01 -5.251571e+02
    endloop
  endfacet
  facet normal 3.826830e-01 2.987354e-02 -9.233966e-01
    outer loop
      vertex -2.304888e+02 1.847130e+01 -5.241140e+02
      vertex -2.311889e+02 1.682306e+01 -5.244575e+02
      vertex -2.311889e+02 1.848139e+01 -5.244038e+02
    endloop
  endfacet
  facet normal 1.000000e+00 0.000000e+00 0.000000e+00
    outer loop
      vertex -2.314788e+02 1.712718e+01 -5.281612e+02
      vertex -2.314788e+02 1.684570e+01 -5.251571e+02
      vertex -2.314788e+02 1.704035e+01 -5.311740e+02
    endloop
  endfacet
  facet normal 9.238794e-01 1.237395e-02 -3.824838e-01
    outer loop
      vertex -2.311889e+02 1.848139e+01 -5.244038e+02
      vertex -2.314788e+02 1.684570e+01 -5.251571e+02
      vertex -2.314788e+02 1.850576e+01 -5.251034e+02
    endloop
  endfacet
  facet normal 1.000000e+00 0.000000e+00 0.000000e+00
    outer loop
      vertex -2.314788e+02 1.730145e+01 -5.276953e+02
      vertex -2.314788e+02 1.850576e+01 -5.251034e+02
      vertex -2.314788e+02 1.684570e+01 -5.251571e+02
    endloop
  endfacet
  facet normal 1.000000e+00 0.000000e+00 0.000000e+00
    outer loop
      vertex -2.314788e+02 1.730145e+01 -5.276953e+02
      vertex -2.314788e+02 1.684570e+01 -5.251571e+02
      vertex -2.314788e+02 1.712718e+01 -5.281612e+02
    endloop
  endfacet
  facet normal 9.238795e-01 -1.237393e-02 3.824833e-01
    outer loop
      vertex -2.314788e+02 1.871532e+01 -5.311198e+02
      vertex -2.314788e+02 1.704035e+01 -5.311740e+02
      vertex -2.311889e+02 1.706299e+01 -5.318737e+02
    endloop
  endfacet
  facet normal 1.000000e+00 0.000000e+00 0.000000e+00
    outer loop
      vertex -2.314788e+02 1.825211e+01 -5.285819e+02
      vertex -2.314788e+02 1.704035e+01 -5.311740e+02
      vertex -2.314788e+02 1.871532e+01 -5.311198e+02
    endloop
  endfacet
  facet normal 1.000000e+00 0.000000e+00 0.000000e+00
    outer loop
      vertex -2.314788e+02 1.733345e+01 -5.286139e+02
      vertex -2.314788e+02 1.712718e+01 -5.281612e+02
      vertex -2.314788e+02 1.704035e+01 -5.311740e+02
    endloop
  endfacet
  facet normal 1.000000e+00 0.000000e+00 0.000000e+00
    outer loop
      vertex -2.314788e+02 1.779941e+01 -5.287882e+02
      vertex -2.314788e+02 1.704035e+01 -5.311740e+02
      vertex -2.314788e+02 1.825211e+01 -5.285819e+02
    endloop
  endfacet
  facet normal 1.000000e+00 0.000000e+00 0.000000e+00
    outer loop
      vertex -2.314788e+02 1.733345e+01 -5.286139e+02
      vertex -2.314788e+02 1.704035e+01 -5.311740e+02
      vertex -2.314788e+02 1.779941e+01 -5.287882e+02
    endloop
  endfacet
  facet normal -2.531805e-16 -9.994771e-01 -3.233465e-02
    outer loop
      vertex -2.454788e+02 1.713491e+01 -5.340968e+02
      vertex -2.304888e+02 1.707236e+01 -5.321635e+02
      vertex -2.311889e+02 1.706299e+01 -5.318737e+02
    endloop
  endfacet
  facet normal 3.826834e-01 -2.987311e-02 9.233964e-01
    outer loop
      vertex -2.311889e+02 1.873969e+01 -5.318194e+02
      vertex -2.311889e+02 1.706299e+01 -5.318737e+02
      vertex -2.304888e+02 1.707236e+01 -5.321635e+02
    endloop
  endfacet
  facet normal 2.244569e-16 -9.994771e-01 -3.233465e-02
    outer loop
      vertex -2.454788e+02 1.640070e+01 -5.114021e+02
      vertex -2.454788e+02 1.713491e+01 -5.340968e+02
      vertex -2.311889e+02 1.706299e+01 -5.318737e+02
    endloop
  endfacet
  facet normal -2.053721e-15 -9.994771e-01 -3.233465e-02
    outer loop
      vertex -2.448499e+02 1.638447e+01 -5.109003e+02
      vertex -2.454788e+02 1.640070e+01 -5.114021e+02
      vertex -2.311889e+02 1.706299e+01 -5.318737e+02
    endloop
  endfacet
  facet normal 9.238794e-01 -1.237416e-02 3.824838e-01
    outer loop
      vertex -2.314788e+02 1.871532e+01 -5.311198e+02
      vertex -2.311889e+02 1.706299e+01 -5.318737e+02
      vertex -2.311889e+02 1.873969e+01 -5.318194e+02
    endloop
  endfacet
  facet normal 0.000000e+00 -9.994771e-01 -3.233465e-02
    outer loop
      vertex -1.136710e+02 1.737101e+01 -5.413948e+02
      vertex -2.294568e+02 1.707236e+01 -5.321635e+02
      vertex -2.304888e+02 1.707236e+01 -5.321635e+02
    endloop
  endfacet
  facet normal 0.000000e+00 -3.233465e-02 9.994771e-01
    outer loop
      vertex -2.294568e+02 1.874978e+01 -5.321092e+02
      vertex -2.304888e+02 1.707236e+01 -5.321635e+02
      vertex -2.294568e+02 1.707236e+01 -5.321635e+02
    endloop
  endfacet
  facet normal 5.727690e-17 -9.994771e-01 -3.233465e-02
    outer loop
      vertex -1.136710e+02 1.737101e+01 -5.413948e+02
      vertex -2.304888e+02 1.707236e+01 -5.321635e+02
      vertex -2.454788e+02 1.713491e+01 -5.340968e+02
    endloop
  endfacet
  facet normal 0.000000e+00 -3.233465e-02 9.994771e-01
    outer loop
      vertex -2.304888e+02 1.874978e+01 -5.321092e+02
      vertex -2.304888e+02 1.707236e+01 -5.321635e+02
      vertex -2.294568e+02 1.874978e+01 -5.321092e+02
    endloop
  endfacet
  facet normal 3.826830e-01 -2.987333e-02 9.233966e-01
    outer loop
      vertex -2.311889e+02 1.873969e+01 -5.318194e+02
      vertex -2.304888e+02 1.707236e+01 -5.321635e+02
      vertex -2.304888e+02 1.874978e+01 -5.321092e+02
    endloop
  endfacet
  facet normal 2.440090e-16 -9.994771e-01 -3.233465e-02
    outer loop
      vertex -1.136710e+02 1.737101e+01 -5.413948e+02
      vertex -2.287568e+02 1.706299e+01 -5.318737e+02
      vertex -2.294568e+02 1.707236e+01 -5.321635e+02
    endloop
  endfacet
  facet normal -3.826834e-01 -2.987332e-02 9.233964e-01
    outer loop
      vertex -2.294568e+02 1.874978e+01 -5.321092e+02
      vertex -2.294568e+02 1.707236e+01 -5.321635e+02
      vertex -2.287568e+02 1.706299e+01 -5.318737e+02
    endloop
  endfacet
  facet normal 7.994273e-17 -9.994771e-01 -3.233465e-02
    outer loop
      vertex -1.136710e+02 1.737101e+01 -5.413948e+02
      vertex -2.284668e+02 1.704035e+01 -5.311740e+02
      vertex -2.287568e+02 1.706299e+01 -5.318737e+02
    endloop
  endfacet
  facet normal -9.238795e-01 -1.237415e-02 3.824833e-01
    outer loop
      vertex -2.287568e+02 1.873969e+01 -5.318194e+02
      vertex -2.287568e+02 1.706299e+01 -5.318737e+02
      vertex -2.284668e+02 1.704035e+01 -5.311740e+02
    endloop
  endfacet
  facet normal -3.826830e-01 -2.987311e-02 9.233966e-01
    outer loop
      vertex -2.294568e+02 1.874978e+01 -5.321092e+02
      vertex -2.287568e+02 1.706299e+01 -5.318737e+02
      vertex -2.287568e+02 1.873969e+01 -5.318194e+02
    endloop
  endfacet
  facet normal -5.495048e-17 -9.994771e-01 -3.233465e-02
    outer loop
      vertex -1.136710e+02 1.737101e+01 -5.413948e+02
      vertex -2.284668e+02 1.698344e+01 -5.294149e+02
      vertex -2.284668e+02 1.704035e+01 -5.311740e+02
    endloop
  endfacet
  facet normal -1.000000e+00 0.000000e+00 0.000000e+00
    outer loop
      vertex -2.284668e+02 1.871532e+01 -5.311198e+02
      vertex -2.284668e+02 1.704035e+01 -5.311740e+02
      vertex -2.284668e+02 1.698344e+01 -5.294149e+02
    endloop
  endfacet
  facet normal -9.238794e-01 -1.237395e-02 3.824838e-01
    outer loop
      vertex -2.287568e+02 1.873969e+01 -5.318194e+02
      vertex -2.284668e+02 1.704035e+01 -5.311740e+02
      vertex -2.284668e+02 1.871532e+01 -5.311198e+02
    endloop
  endfacet
  facet normal 0.000000e+00 -9.994771e-01 -3.233465e-02
    outer loop
      vertex -1.136710e+02 1.737101e+01 -5.413948e+02
      vertex -2.244788e+02 1.698344e+01 -5.294149e+02
      vertex -2.284668e+02 1.698344e+01 -5.294149e+02
    endloop
  endfacet
  facet normal 0.000000e+00 -3.233465e-02 9.994771e-01
    outer loop
      vertex -2.284668e+02 1.865405e+01 -5.293609e+02
      vertex -2.284668e+02 1.698344e+01 -5.294149e+02
      vertex -2.244788e+02 1.698344e+01 -5.294149e+02
    endloop
  endfacet
  facet normal -1.000000e+00 0.000000e+00 0.000000e+00
    outer loop
      vertex -2.284668e+02 1.871532e+01 -5.311198e+02
      vertex -2.284668e+02 1.698344e+01 -5.294149e+02
      vertex -2.284668e+02 1.865405e+01 -5.293609e+02
    endloop
  endfacet
  facet normal -7.805613e-16 -9.994771e-01 -3.233465e-02
    outer loop
      vertex -1.136710e+02 1.737101e+01 -5.413948e+02
      vertex -2.241270e+02 1.698135e+01 -5.293503e+02
      vertex -2.244788e+02 1.698344e+01 -5.294149e+02
    endloop
  endfacet
  facet normal -1.806877e-01 -3.180244e-02 9.830262e-01
    outer loop
      vertex -2.244788e+02 1.865405e+01 -5.293609e+02
      vertex -2.244788e+02 1.698344e+01 -5.294149e+02
      vertex -2.241270e+02 1.698135e+01 -5.293503e+02
    endloop
  endfacet
  facet normal 0.000000e+00 -3.233465e-02 9.994771e-01
    outer loop
      vertex -2.284668e+02 1.865405e+01 -5.293609e+02
      vertex -2.244788e+02 1.698344e+01 -5.294149e+02
      vertex -2.244788e+02 1.865405e+01 -5.293609e+02
    endloop
  endfacet
  facet normal -4.411405e-16 -9.994771e-01 -3.233465e-02
    outer loop
      vertex -1.136710e+02 1.737101e+01 -5.413948e+02
      vertex -2.238212e+02 1.697536e+01 -5.291651e+02
      vertex -2.241270e+02 1.698135e+01 -5.293503e+02
    endloop
  endfacet
  facet normal -5.183328e-01 -2.765193e-02 8.547318e-01
    outer loop
      vertex -2.241270e+02 1.865180e+01 -5.292963e+02
      vertex -2.241270e+02 1.698135e+01 -5.293503e+02
      vertex -2.238212e+02 1.697536e+01 -5.291651e+02
    endloop
  endfacet
  facet normal -1.806876e-01 -3.180242e-02 9.830262e-01
    outer loop
      vertex -2.244788e+02 1.865405e+01 -5.293609e+02
      vertex -2.241270e+02 1.698135e+01 -5.293503e+02
      vertex -2.241270e+02 1.865180e+01 -5.292963e+02
    endloop
  endfacet
  facet normal 0.000000e+00 -9.994771e-01 -3.233465e-02
    outer loop
      vertex -1.136710e+02 1.737101e+01 -5.413948e+02
      vertex -1.274788e+02 1.697536e+01 -5.291651e+02
      vertex -2.238212e+02 1.697536e+01 -5.291651e+02
    endloop
  endfacet
  facet normal 0.000000e+00 -3.233465e-02 9.994771e-01
    outer loop
      vertex -2.238212e+02 1.864535e+01 -5.291110e+02
      vertex -2.238212e+02 1.697536e+01 -5.291651e+02
      vertex -1.274788e+02 1.697536e+01 -5.291651e+02
    endloop
  endfacet
  facet normal -5.183327e-01 -2.765192e-02 8.547319e-01
    outer loop
      vertex -2.241270e+02 1.865180e+01 -5.292963e+02
      vertex -2.238212e+02 1.697536e+01 -5.291651e+02
      vertex -2.238212e+02 1.864535e+01 -5.291110e+02
    endloop
  endfacet
  facet normal 7.105579e-16 -9.994771e-01 -3.233465e-02
    outer loop
      vertex -1.136710e+02 1.737101e+01 -5.413948e+02
      vertex -1.266128e+02 1.695919e+01 -5.286654e+02
      vertex -1.274788e+02 1.697536e+01 -5.291651e+02
    endloop
  endfacet
  facet normal -4.999861e-01 -2.800289e-02 8.655806e-01
    outer loop
      vertex -1.274788e+02 1.864535e+01 -5.291110e+02
      vertex -1.274788e+02 1.697536e+01 -5.291651e+02
      vertex -1.266128e+02 1.695919e+01 -5.286654e+02
    endloop
  endfacet
  facet normal 0.000000e+00 -3.233465e-02 9.994771e-01
    outer loop
      vertex -2.238212e+02 1.864535e+01 -5.291110e+02
      vertex -1.274788e+02 1.697536e+01 -5.291651e+02
      vertex -1.274788e+02 1.864535e+01 -5.291110e+02
    endloop
  endfacet
  facet normal 0.000000e+00 -9.994771e-01 -3.233465e-02
    outer loop
      vertex -1.136710e+02 1.737101e+01 -5.413948e+02
      vertex -1.266128e+02 1.692686e+01 -5.276658e+02
      vertex -1.266128e+02 1.695919e+01 -5.286654e+02
    endloop
  endfacet
  facet normal -1.000000e+00 -2.447196e-07 -7.917062e-09
    outer loop
      vertex -1.266128e+02 1.862795e+01 -5.286114e+02
      vertex -1.266128e+02 1.695919e+01 -5.286654e+02
      vertex -1.266128e+02 1.692686e+01 -5.276658e+02
    endloop
  endfacet
  facet normal -4.999858e-01 -2.800265e-02 8.655808e-01
    outer loop
      vertex -1.274788e+02 1.864535e+01 -5.291110e+02
      vertex -1.266128e+02 1.695919e+01 -5.286654e+02
      vertex -1.266128e+02 1.862795e+01 -5.286114e+02
    endloop
  endfacet
  facet normal -4.999861e-01 2.800313e-02 -8.655806e-01
    outer loop
      vertex -1.266128e+02 1.859313e+01 -5.276119e+02
      vertex -1.266128e+02 1.692686e+01 -5.276658e+02
      vertex -1.274788e+02 1.691069e+01 -5.271661e+02
    endloop
  endfacet
  facet normal 2.754856e-15 -9.994771e-01 -3.233465e-02
    outer loop
      vertex -1.135653e+02 1.736001e+01 -5.410547e+02
      vertex -1.134840e+02 1.734877e+01 -5.407074e+02
      vertex -1.266128e+02 1.692686e+01 -5.276658e+02
    endloop
  endfacet
  facet normal 3.815791e-15 -9.994771e-01 -3.233465e-02
    outer loop
      vertex -1.136710e+02 1.737101e+01 -5.413948e+02
      vertex -1.135653e+02 1.736001e+01 -5.410547e+02
      vertex -1.266128e+02 1.692686e+01 -5.276658e+02
    endloop
  endfacet
  facet normal -1.000000e+00 -2.443334e-07 -7.222228e-09
    outer loop
      vertex -1.266128e+02 1.862795e+01 -5.286114e+02
      vertex -1.266128e+02 1.692686e+01 -5.276658e+02
      vertex -1.266128e+02 1.859313e+01 -5.276119e+02
    endloop
  endfacet
  facet normal 0.000000e+00 3.233465e-02 -9.994771e-01
    outer loop
      vertex -1.274788e+02 1.857573e+01 -5.271122e+02
      vertex -1.274788e+02 1.691069e+01 -5.271661e+02
      vertex -2.238212e+02 1.691069e+01 -5.271661e+02
    endloop
  endfacet
  facet normal -4.999858e-01 2.800289e-02 -8.655808e-01
    outer loop
      vertex -1.266128e+02 1.859313e+01 -5.276119e+02
      vertex -1.274788e+02 1.691069e+01 -5.271661e+02
      vertex -1.274788e+02 1.857573e+01 -5.271122e+02
    endloop
  endfacet
  facet normal -5.183328e-01 2.765191e-02 -8.547318e-01
    outer loop
      vertex -2.238212e+02 1.857573e+01 -5.271122e+02
      vertex -2.238212e+02 1.691069e+01 -5.271661e+02
      vertex -2.241270e+02 1.690470e+01 -5.269808e+02
    endloop
  endfacet
  facet normal 0.000000e+00 3.233465e-02 -9.994771e-01
    outer loop
      vertex -1.274788e+02 1.857573e+01 -5.271122e+02
      vertex -2.238212e+02 1.691069e+01 -5.271661e+02
      vertex -2.238212e+02 1.857573e+01 -5.271122e+02
    endloop
  endfacet
  facet normal -1.806877e-01 3.180246e-02 -9.830262e-01
    outer loop
      vertex -2.241270e+02 1.856928e+01 -5.269270e+02
      vertex -2.241270e+02 1.690470e+01 -5.269808e+02
      vertex -2.244788e+02 1.690261e+01 -5.269162e+02
    endloop
  endfacet
  facet normal -5.183327e-01 2.765190e-02 -8.547319e-01
    outer loop
      vertex -2.238212e+02 1.857573e+01 -5.271122e+02
      vertex -2.241270e+02 1.690470e+01 -5.269808e+02
      vertex -2.241270e+02 1.856928e+01 -5.269270e+02
    endloop
  endfacet
  facet normal -1.806876e-01 3.180244e-02 -9.830262e-01
    outer loop
      vertex -2.241270e+02 1.856928e+01 -5.269270e+02
      vertex -2.244788e+02 1.690261e+01 -5.269162e+02
      vertex -2.244788e+02 1.856703e+01 -5.268624e+02
    endloop
  endfacet
  facet normal -1.991384e-18 -9.994771e-01 -3.233465e-02
    outer loop
      vertex -1.136710e+02 1.737101e+01 -5.413948e+02
      vertex -2.893032e+02 1.732388e+01 -5.399378e+02
      vertex -2.904788e+02 1.733382e+01 -5.402454e+02
    endloop
  endfacet
  facet normal -2.531773e-01 -3.367577e-02 9.668336e-01
    outer loop
      vertex -2.904788e+02 1.903111e+01 -5.401862e+02
      vertex -2.904788e+02 1.733382e+01 -5.402454e+02
      vertex -2.893032e+02 1.732388e+01 -5.399378e+02
    endloop
  endfacet
  facet normal 4.278443e-17 -9.994771e-01 -3.233465e-02
    outer loop
      vertex -1.136710e+02 1.737101e+01 -5.413948e+02
      vertex -2.884289e+02 1.729658e+01 -5.390941e+02
      vertex -2.893032e+02 1.732388e+01 -5.399378e+02
    endloop
  endfacet
  facet normal -6.946195e-01 -2.431017e-02 7.189665e-01
    outer loop
      vertex -2.884315e+02 1.899116e+01 -5.390393e+02
      vertex -2.893032e+02 1.732388e+01 -5.399378e+02
      vertex -2.884289e+02 1.729658e+01 -5.390941e+02
    endloop
  endfacet
  facet normal -6.936982e-01 -2.525336e-02 7.198230e-01
    outer loop
      vertex -2.893042e+02 1.902042e+01 -5.398793e+02
      vertex -2.893032e+02 1.732388e+01 -5.399378e+02
      vertex -2.884315e+02 1.899116e+01 -5.390393e+02
    endloop
  endfacet
  facet normal -2.529316e-01 -3.349629e-02 9.669041e-01
    outer loop
      vertex -2.904788e+02 1.903111e+01 -5.401862e+02
      vertex -2.893032e+02 1.732388e+01 -5.399378e+02
      vertex -2.893042e+02 1.902042e+01 -5.398793e+02
    endloop
  endfacet
  facet normal 0.000000e+00 -9.994771e-01 -3.233465e-02
    outer loop
      vertex -1.136710e+02 1.737101e+01 -5.413948e+02
      vertex -2.504788e+02 1.729658e+01 -5.390941e+02
      vertex -2.884289e+02 1.729658e+01 -5.390941e+02
    endloop
  endfacet
  facet normal 0.000000e+00 -3.233465e-02 9.994771e-01
    outer loop
      vertex -2.884315e+02 1.899116e+01 -5.390393e+02
      vertex -2.884289e+02 1.729658e+01 -5.390941e+02
      vertex -2.504788e+02 1.729658e+01 -5.390941e+02
    endloop
  endfacet
  facet normal -5.937451e-17 -9.994771e-01 -3.233465e-02
    outer loop
      vertex -1.136710e+02 1.737101e+01 -5.413948e+02
      vertex -2.469433e+02 1.724923e+01 -5.376304e+02
      vertex -2.504788e+02 1.729658e+01 -5.390941e+02
    endloop
  endfacet
  facet normal -3.826866e-01 -2.987328e-02 9.233951e-01
    outer loop
      vertex -2.504788e+02 1.899116e+01 -5.390393e+02
      vertex -2.504788e+02 1.729658e+01 -5.390941e+02
      vertex -2.469433e+02 1.724923e+01 -5.376304e+02
    endloop
  endfacet
  facet normal 0.000000e+00 -3.233465e-02 9.994771e-01
    outer loop
      vertex -2.884315e+02 1.899116e+01 -5.390393e+02
      vertex -2.504788e+02 1.729658e+01 -5.390941e+02
      vertex -2.504788e+02 1.899116e+01 -5.390393e+02
    endloop
  endfacet
  facet normal -2.189224e-17 -9.994771e-01 -3.233465e-02
    outer loop
      vertex -1.136710e+02 1.737101e+01 -5.413948e+02
      vertex -2.454788e+02 1.713491e+01 -5.340968e+02
      vertex -2.469433e+02 1.724923e+01 -5.376304e+02
    endloop
  endfacet
  facet normal -9.238782e-01 -1.237511e-02 3.824864e-01
    outer loop
      vertex -2.469433e+02 1.894018e+01 -5.375757e+02
      vertex -2.469433e+02 1.724923e+01 -5.376304e+02
      vertex -2.454788e+02 1.713491e+01 -5.340968e+02
    endloop
  endfacet
  facet normal -3.826861e-01 -2.987221e-02 9.233954e-01
    outer loop
      vertex -2.504788e+02 1.899116e+01 -5.390393e+02
      vertex -2.469433e+02 1.724923e+01 -5.376304e+02
      vertex -2.469433e+02 1.894018e+01 -5.375757e+02
    endloop
  endfacet
  facet normal -1.000000e+00 0.000000e+00 0.000000e+00
    outer loop
      vertex -2.454788e+02 1.712718e+01 -5.281612e+02
      vertex -2.454788e+02 1.713491e+01 -5.340968e+02
      vertex -2.454788e+02 1.640070e+01 -5.114021e+02
    endloop
  endfacet
  facet normal -9.238780e-01 -1.237405e-02 3.824869e-01
    outer loop
      vertex -2.469433e+02 1.894018e+01 -5.375757e+02
      vertex -2.454788e+02 1.713491e+01 -5.340968e+02
      vertex -2.454788e+02 1.881711e+01 -5.340423e+02
    endloop
  endfacet
  facet normal -1.000000e+00 0.000000e+00 0.000000e+00
    outer loop
      vertex -2.454788e+02 1.712718e+01 -5.281612e+02
      vertex -2.454788e+02 1.881711e+01 -5.340423e+02
      vertex -2.454788e+02 1.713491e+01 -5.340968e+02
    endloop
  endfacet
  facet normal -3.331972e-01 -8.585075e-01 3.898007e-01
    outer loop
      vertex -2.454788e+02 1.675471e+01 -5.106225e+02
      vertex -2.454788e+02 1.640070e+01 -5.114021e+02
      vertex -2.448499e+02 1.638447e+01 -5.109003e+02
    endloop
  endfacet
  facet normal -1.000000e+00 0.000000e+00 0.000000e+00
    outer loop
      vertex -2.454788e+02 1.775415e+01 -5.274890e+02
      vertex -2.454788e+02 1.640070e+01 -5.114021e+02
      vertex -2.454788e+02 1.803093e+01 -5.114709e+02
    endloop
  endfacet
  facet normal -1.000000e+00 0.000000e+00 0.000000e+00
    outer loop
      vertex -2.454788e+02 1.762568e+01 -5.107173e+02
      vertex -2.454788e+02 1.803093e+01 -5.114709e+02
      vertex -2.454788e+02 1.640070e+01 -5.114021e+02
    endloop
  endfacet
  facet normal -1.000000e+00 0.000000e+00 0.000000e+00
    outer loop
      vertex -2.454788e+02 1.730145e+01 -5.276953e+02
      vertex -2.454788e+02 1.712718e+01 -5.281612e+02
      vertex -2.454788e+02 1.640070e+01 -5.114021e+02
    endloop
  endfacet
  facet normal -1.000000e+00 0.000000e+00 0.000000e+00
    outer loop
      vertex -2.454788e+02 1.775415e+01 -5.274890e+02
      vertex -2.454788e+02 1.730145e+01 -5.276953e+02
      vertex -2.454788e+02 1.640070e+01 -5.114021e+02
    endloop
  endfacet
  facet normal -1.000000e+00 0.000000e+00 0.000000e+00
    outer loop
      vertex -2.454788e+02 1.762568e+01 -5.107173e+02
      vertex -2.454788e+02 1.640070e+01 -5.114021e+02
      vertex -2.454788e+02 1.675471e+01 -5.106225e+02
    endloop
  endfacet
  facet normal 3.235051e-15 -9.994771e-01 -3.233465e-02
    outer loop
      vertex -1.113085e+02 1.687694e+01 -5.261227e+02
      vertex -1.104863e+02 1.640063e+01 -5.113999e+02
      vertex -1.111105e+02 1.638438e+01 -5.108975e+02
    endloop
  endfacet
  facet normal 3.369077e-01 -8.565303e-01 3.909592e-01
    outer loop
      vertex -1.104809e+02 1.673810e+01 -5.106652e+02
      vertex -1.111105e+02 1.638438e+01 -5.108975e+02
      vertex -1.104863e+02 1.640063e+01 -5.113999e+02
    endloop
  endfacet
  facet normal 4.250777e-01 -8.841105e-01 1.940556e-01
    outer loop
      vertex -1.104809e+02 1.673810e+01 -5.106652e+02
      vertex -1.104791e+02 1.685966e+01 -5.101154e+02
      vertex -1.111105e+02 1.638438e+01 -5.108975e+02
    endloop
  endfacet
  facet normal 9.984401e-01 -1.597673e-03 -5.581056e-02
    outer loop
      vertex -1.104875e+02 1.803083e+01 -5.114683e+02
      vertex -1.104863e+02 1.640063e+01 -5.113999e+02
      vertex -1.113085e+02 1.687694e+01 -5.261227e+02
    endloop
  endfacet
  facet normal 9.999664e-01 4.005353e-04 -8.181801e-03
    outer loop
      vertex -1.104818e+02 1.766335e+01 -5.107967e+02
      vertex -1.104863e+02 1.640063e+01 -5.113999e+02
      vertex -1.104875e+02 1.803083e+01 -5.114683e+02
    endloop
  endfacet
  facet normal 9.999738e-01 -4.907708e-05 -7.240676e-03
    outer loop
      vertex -1.104809e+02 1.673810e+01 -5.106652e+02
      vertex -1.104863e+02 1.640063e+01 -5.113999e+02
      vertex -1.104818e+02 1.766335e+01 -5.107967e+02
    endloop
  endfacet
  facet normal 9.890666e-01 3.093325e-03 -1.474374e-01
    outer loop
      vertex -1.113147e+02 1.854149e+01 -5.261293e+02
      vertex -1.113085e+02 1.687694e+01 -5.261227e+02
      vertex -1.134840e+02 1.734877e+01 -5.407074e+02
    endloop
  endfacet
  facet normal 9.984129e-01 3.488259e-03 -5.620951e-02
    outer loop
      vertex -1.104875e+02 1.803083e+01 -5.114683e+02
      vertex -1.113085e+02 1.687694e+01 -5.261227e+02
      vertex -1.113147e+02 1.854149e+01 -5.261293e+02
    endloop
  endfacet
  facet normal 9.737095e-01 7.365620e-03 -2.276743e-01
    outer loop
      vertex -1.134840e+02 1.904735e+01 -5.406525e+02
      vertex -1.134840e+02 1.734877e+01 -5.407074e+02
      vertex -1.135653e+02 1.736001e+01 -5.410547e+02
    endloop
  endfacet
  facet normal 9.890399e-01 4.774152e-03 -1.475710e-01
    outer loop
      vertex -1.113147e+02 1.854149e+01 -5.261293e+02
      vertex -1.134840e+02 1.734877e+01 -5.407074e+02
      vertex -1.134840e+02 1.904735e+01 -5.406525e+02
    endloop
  endfacet
  facet normal 9.549995e-01 9.497871e-03 -2.964552e-01
    outer loop
      vertex -1.136702e+02 1.826763e+01 -5.413635e+02
      vertex -1.135653e+02 1.736001e+01 -5.410547e+02
      vertex -1.136710e+02 1.737101e+01 -5.413948e+02
    endloop
  endfacet
  facet normal 9.620490e-01 1.855141e-02 -2.722452e-01
    outer loop
      vertex -1.134840e+02 1.904735e+01 -5.406525e+02
      vertex -1.135653e+02 1.736001e+01 -5.410547e+02
      vertex -1.136702e+02 1.826763e+01 -5.413635e+02
    endloop
  endfacet
  facet normal 7.913586e-01 -1.184661e-01 -5.997644e-01
    outer loop
      vertex -1.151599e+02 1.914663e+01 -5.435027e+02
      vertex -1.136702e+02 1.826763e+01 -5.413635e+02
      vertex -1.154961e+02 1.835212e+01 -5.437894e+02
    endloop
  endfacet
  facet normal 8.400403e-01 2.421500e-01 -4.854850e-01
    outer loop
      vertex -1.134840e+02 1.904735e+01 -5.406525e+02
      vertex -1.136702e+02 1.826763e+01 -5.413635e+02
      vertex -1.151599e+02 1.914663e+01 -5.435027e+02
    endloop
  endfacet
  facet normal 0.000000e+00 -9.993940e-01 -3.480988e-02
    outer loop
      vertex -1.184788e+02 1.835103e+01 -5.437581e+02
      vertex -1.184788e+02 1.838424e+01 -5.447115e+02
      vertex -1.183901e+02 1.838424e+01 -5.447115e+02
    endloop
  endfacet
  facet normal 0.000000e+00 3.480988e-02 -9.993940e-01
    outer loop
      vertex -1.182490e+02 1.918775e+01 -5.446835e+02
      vertex -1.183901e+02 1.838424e+01 -5.447115e+02
      vertex -1.184788e+02 1.838424e+01 -5.447115e+02
    endloop
  endfacet
  facet normal -8.840022e-16 -9.993940e-01 -3.480988e-02
    outer loop
      vertex -1.154961e+02 1.835212e+01 -5.437894e+02
      vertex -1.184788e+02 1.835103e+01 -5.437581e+02
      vertex -1.183901e+02 1.838424e+01 -5.447115e+02
    endloop
  endfacet
  facet normal 2.975238e-01 -1.688678e-01 -9.396612e-01
    outer loop
      vertex -1.183536e+02 1.843822e+01 -5.447096e+02
      vertex -1.154961e+02 1.835212e+01 -5.437894e+02
      vertex -1.183901e+02 1.838424e+01 -5.447115e+02
    endloop
  endfacet
  facet normal 2.546928e-12 3.480988e-02 -9.993940e-01
    outer loop
      vertex -1.182490e+02 1.918775e+01 -5.446835e+02
      vertex -1.183536e+02 1.843822e+01 -5.447096e+02
      vertex -1.183901e+02 1.838424e+01 -5.447115e+02
    endloop
  endfacet
  facet normal 1.000000e+00 1.699520e-13 5.919597e-15
    outer loop
      vertex -1.184788e+02 1.821721e+01 -5.447173e+02
      vertex -1.184788e+02 1.838424e+01 -5.447115e+02
      vertex -1.184788e+02 1.835103e+01 -5.437581e+02
    endloop
  endfacet
  facet normal 1.000000e+00 3.145502e-14 1.017619e-15
    outer loop
      vertex -1.184788e+02 1.745552e+01 -5.440069e+02
      vertex -1.184788e+02 1.835103e+01 -5.437581e+02
      vertex -1.184788e+02 1.744848e+01 -5.437895e+02
    endloop
  endfacet
  facet normal 1.000000e+00 2.445307e-14 2.621799e-14
    outer loop
      vertex -1.184788e+02 1.821721e+01 -5.447173e+02
      vertex -1.184788e+02 1.835103e+01 -5.437581e+02
      vertex -1.184788e+02 1.745552e+01 -5.440069e+02
    endloop
  endfacet
  facet normal 3.051896e-01 -4.031733e-02 -9.514378e-01
    outer loop
      vertex -1.183238e+02 1.856205e+01 -5.447053e+02
      vertex -1.154961e+02 1.835212e+01 -5.437894e+02
      vertex -1.183536e+02 1.843822e+01 -5.447096e+02
    endloop
  endfacet
  facet normal 3.072767e-01 -1.263366e-02 -9.515363e-01
    outer loop
      vertex -1.182902e+02 1.878735e+01 -5.446975e+02
      vertex -1.154961e+02 1.835212e+01 -5.437894e+02
      vertex -1.183238e+02 1.856205e+01 -5.447053e+02
    endloop
  endfacet
  facet normal 3.092699e-01 1.336829e-03 -9.509734e-01
    outer loop
      vertex -1.182490e+02 1.918775e+01 -5.446835e+02
      vertex -1.154961e+02 1.835212e+01 -5.437894e+02
      vertex -1.182902e+02 1.878735e+01 -5.446975e+02
    endloop
  endfacet
  facet normal 3.532209e-01 1.817045e-01 -9.177246e-01
    outer loop
      vertex -1.151599e+02 1.914663e+01 -5.435027e+02
      vertex -1.154961e+02 1.835212e+01 -5.437894e+02
      vertex -1.182490e+02 1.918775e+01 -5.446835e+02
    endloop
  endfacet
  facet normal -6.399417e-12 3.480988e-02 -9.993940e-01
    outer loop
      vertex -1.182490e+02 1.918775e+01 -5.446835e+02
      vertex -1.183238e+02 1.856205e+01 -5.447053e+02
      vertex -1.183536e+02 1.843822e+01 -5.447096e+02
    endloop
  endfacet
  facet normal -1.008387e-12 3.480988e-02 -9.993940e-01
    outer loop
      vertex -1.182490e+02 1.918775e+01 -5.446835e+02
      vertex -1.182902e+02 1.878735e+01 -5.446975e+02
      vertex -1.183238e+02 1.856205e+01 -5.447053e+02
    endloop
  endfacet
  facet normal 3.154419e-15 9.993940e-01 3.480988e-02
    outer loop
      vertex -1.274788e+02 1.864535e+01 -5.291110e+02
      vertex -1.266128e+02 1.862795e+01 -5.286114e+02
      vertex -1.182490e+02 1.918775e+01 -5.446835e+02
    endloop
  endfacet
  facet normal -2.667201e-16 9.993940e-01 3.480988e-02
    outer loop
      vertex -1.113459e+02 1.798667e+01 -5.102004e+02
      vertex -1.182490e+02 1.918775e+01 -5.446835e+02
      vertex -1.266128e+02 1.862795e+01 -5.286114e+02
    endloop
  endfacet
  facet normal 3.609328e-16 9.993940e-01 3.480988e-02
    outer loop
      vertex -1.113459e+02 1.798667e+01 -5.102004e+02
      vertex -1.151599e+02 1.914663e+01 -5.435027e+02
      vertex -1.182490e+02 1.918775e+01 -5.446835e+02
    endloop
  endfacet
  facet normal 0.000000e+00 9.993940e-01 3.480988e-02
    outer loop
      vertex -1.113459e+02 1.798667e+01 -5.102004e+02
      vertex -2.244788e+02 1.856703e+01 -5.268624e+02
      vertex -2.284668e+02 1.856703e+01 -5.268624e+02
    endloop
  endfacet
  facet normal -2.068202e-16 9.993940e-01 3.480988e-02
    outer loop
      vertex -1.113459e+02 1.798667e+01 -5.102004e+02
      vertex -2.284668e+02 1.856703e+01 -5.268624e+02
      vertex -2.284668e+02 1.850576e+01 -5.251034e+02
    endloop
  endfacet
  facet normal 2.561223e-15 9.993940e-01 3.480988e-02
    outer loop
      vertex -1.113459e+02 1.798667e+01 -5.102004e+02
      vertex -2.241270e+02 1.856928e+01 -5.269270e+02
      vertex -2.244788e+02 1.856703e+01 -5.268624e+02
    endloop
  endfacet
  facet normal -2.662016e-15 9.993940e-01 3.480988e-02
    outer loop
      vertex -1.113459e+02 1.798667e+01 -5.102004e+02
      vertex -2.238212e+02 1.857573e+01 -5.271122e+02
      vertex -2.241270e+02 1.856928e+01 -5.269270e+02
    endloop
  endfacet
  facet normal 0.000000e+00 9.993940e-01 3.480988e-02
    outer loop
      vertex -1.113459e+02 1.798667e+01 -5.102004e+02
      vertex -1.274788e+02 1.857573e+01 -5.271122e+02
      vertex -2.238212e+02 1.857573e+01 -5.271122e+02
    endloop
  endfacet
  facet normal 1.407321e-15 9.993940e-01 3.480988e-02
    outer loop
      vertex -1.113459e+02 1.798667e+01 -5.102004e+02
      vertex -1.266128e+02 1.859313e+01 -5.276119e+02
      vertex -1.274788e+02 1.857573e+01 -5.271122e+02
    endloop
  endfacet
  facet normal 3.839319e-15 9.993940e-01 3.480988e-02
    outer loop
      vertex -1.113459e+02 1.798667e+01 -5.102004e+02
      vertex -1.266128e+02 1.862795e+01 -5.286114e+02
      vertex -1.266128e+02 1.859313e+01 -5.276119e+02
    endloop
  endfacet
  facet normal 0.000000e+00 9.993940e-01 3.480988e-02
    outer loop
      vertex -2.241270e+02 1.865180e+01 -5.292963e+02
      vertex -2.238212e+02 1.864535e+01 -5.291110e+02
      vertex -1.274788e+02 1.864535e+01 -5.291110e+02
    endloop
  endfacet
  facet normal -1.050192e-17 9.993940e-01 3.480988e-02
    outer loop
      vertex -2.287568e+02 1.873969e+01 -5.318194e+02
      vertex -2.241270e+02 1.865180e+01 -5.292963e+02
      vertex -1.274788e+02 1.864535e+01 -5.291110e+02
    endloop
  endfacet
  facet normal -3.000888e-16 9.993940e-01 3.480988e-02
    outer loop
      vertex -2.294568e+02 1.874978e+01 -5.321092e+02
      vertex -2.287568e+02 1.873969e+01 -5.318194e+02
      vertex -1.274788e+02 1.864535e+01 -5.291110e+02
    endloop
  endfacet
  facet normal -6.894930e-18 9.993940e-01 3.480988e-02
    outer loop
      vertex -2.504788e+02 1.899116e+01 -5.390393e+02
      vertex -2.294568e+02 1.874978e+01 -5.321092e+02
      vertex -1.274788e+02 1.864535e+01 -5.291110e+02
    endloop
  endfacet
  facet normal -1.036735e-15 9.993940e-01 3.480988e-02
    outer loop
      vertex -2.287568e+02 1.873969e+01 -5.318194e+02
      vertex -2.244788e+02 1.865405e+01 -5.293609e+02
      vertex -2.241270e+02 1.865180e+01 -5.292963e+02
    endloop
  endfacet
  facet normal 0.000000e+00 9.993940e-01 3.480988e-02
    outer loop
      vertex -2.284668e+02 1.871532e+01 -5.311198e+02
      vertex -2.284668e+02 1.865405e+01 -5.293609e+02
      vertex -2.244788e+02 1.865405e+01 -5.293609e+02
    endloop
  endfacet
  facet normal 1.824893e-16 9.993940e-01 3.480988e-02
    outer loop
      vertex -2.287568e+02 1.873969e+01 -5.318194e+02
      vertex -2.284668e+02 1.871532e+01 -5.311198e+02
      vertex -2.244788e+02 1.865405e+01 -5.293609e+02
    endloop
  endfacet
  facet normal 0.000000e+00 9.993940e-01 3.480988e-02
    outer loop
      vertex -2.504788e+02 1.899116e+01 -5.390393e+02
      vertex -2.304888e+02 1.874978e+01 -5.321092e+02
      vertex -2.294568e+02 1.874978e+01 -5.321092e+02
    endloop
  endfacet
  facet normal -1.751231e-15 9.993940e-01 3.480988e-02
    outer loop
      vertex -2.504788e+02 1.899116e+01 -5.390393e+02
      vertex -2.311889e+02 1.873969e+01 -5.318194e+02
      vertex -2.304888e+02 1.874978e+01 -5.321092e+02
    endloop
  endfacet
  facet normal 4.721058e-16 9.993940e-01 3.480988e-02
    outer loop
      vertex -2.469433e+02 1.894018e+01 -5.375757e+02
      vertex -2.314788e+02 1.871532e+01 -5.311198e+02
      vertex -2.311889e+02 1.873969e+01 -5.318194e+02
    endloop
  endfacet
  facet normal 2.111280e-15 9.993940e-01 3.480988e-02
    outer loop
      vertex -2.504788e+02 1.899116e+01 -5.390393e+02
      vertex -2.469433e+02 1.894018e+01 -5.375757e+02
      vertex -2.311889e+02 1.873969e+01 -5.318194e+02
    endloop
  endfacet
  facet normal 8.586370e-17 9.993940e-01 3.480988e-02
    outer loop
      vertex -2.469433e+02 1.894018e+01 -5.375757e+02
      vertex -2.314788e+02 1.850576e+01 -5.251034e+02
      vertex -2.314788e+02 1.871532e+01 -5.311198e+02
    endloop
  endfacet
  facet normal 1.000000e+00 0.000000e+00 0.000000e+00
    outer loop
      vertex -2.314788e+02 1.842639e+01 -5.281160e+02
      vertex -2.314788e+02 1.871532e+01 -5.311198e+02
      vertex -2.314788e+02 1.850576e+01 -5.251034e+02
    endloop
  endfacet
  facet normal 1.000000e+00 0.000000e+00 0.000000e+00
    outer loop
      vertex -2.314788e+02 1.825211e+01 -5.285819e+02
      vertex -2.314788e+02 1.871532e+01 -5.311198e+02
      vertex -2.314788e+02 1.842639e+01 -5.281160e+02
    endloop
  endfacet
  facet normal -6.570212e-16 9.993940e-01 3.480988e-02
    outer loop
      vertex -2.446128e+02 1.798667e+01 -5.102004e+02
      vertex -2.311889e+02 1.848139e+01 -5.244038e+02
      vertex -2.314788e+02 1.850576e+01 -5.251034e+02
    endloop
  endfacet
  facet normal 7.078351e-17 9.993940e-01 3.480988e-02
    outer loop
      vertex -2.454788e+02 1.881711e+01 -5.340423e+02
      vertex -2.446128e+02 1.798667e+01 -5.102004e+02
      vertex -2.314788e+02 1.850576e+01 -5.251034e+02
    endloop
  endfacet
  facet normal -4.331236e-16 9.993940e-01 3.480988e-02
    outer loop
      vertex -2.469433e+02 1.894018e+01 -5.375757e+02
      vertex -2.454788e+02 1.881711e+01 -5.340423e+02
      vertex -2.314788e+02 1.850576e+01 -5.251034e+02
    endloop
  endfacet
  facet normal 1.000000e+00 0.000000e+00 0.000000e+00
    outer loop
      vertex -2.314788e+02 1.775415e+01 -5.274890e+02
      vertex -2.314788e+02 1.850576e+01 -5.251034e+02
      vertex -2.314788e+02 1.730145e+01 -5.276953e+02
    endloop
  endfacet
  facet normal 1.000000e+00 0.000000e+00 0.000000e+00
    outer loop
      vertex -2.314788e+02 1.822011e+01 -5.276633e+02
      vertex -2.314788e+02 1.850576e+01 -5.251034e+02
      vertex -2.314788e+02 1.775415e+01 -5.274890e+02
    endloop
  endfacet
  facet normal 1.000000e+00 0.000000e+00 0.000000e+00
    outer loop
      vertex -2.314788e+02 1.842639e+01 -5.281160e+02
      vertex -2.314788e+02 1.850576e+01 -5.251034e+02
      vertex -2.314788e+02 1.822011e+01 -5.276633e+02
    endloop
  endfacet
  facet normal -8.983570e-16 9.993940e-01 3.480988e-02
    outer loop
      vertex -2.446128e+02 1.798667e+01 -5.102004e+02
      vertex -2.304888e+02 1.847130e+01 -5.241140e+02
      vertex -2.311889e+02 1.848139e+01 -5.244038e+02
    endloop
  endfacet
  facet normal 0.000000e+00 9.993940e-01 3.480988e-02
    outer loop
      vertex -1.113459e+02 1.798667e+01 -5.102004e+02
      vertex -2.294568e+02 1.847130e+01 -5.241140e+02
      vertex -2.304888e+02 1.847130e+01 -5.241140e+02
    endloop
  endfacet
  facet normal 0.000000e+00 9.993940e-01 3.480988e-02
    outer loop
      vertex -2.446128e+02 1.798667e+01 -5.102004e+02
      vertex -1.113459e+02 1.798667e+01 -5.102004e+02
      vertex -2.304888e+02 1.847130e+01 -5.241140e+02
    endloop
  endfacet
  facet normal 2.826414e-16 9.993940e-01 3.480988e-02
    outer loop
      vertex -1.113459e+02 1.798667e+01 -5.102004e+02
      vertex -2.287568e+02 1.848139e+01 -5.244038e+02
      vertex -2.294568e+02 1.847130e+01 -5.241140e+02
    endloop
  endfacet
  facet normal 1.029019e-16 9.993940e-01 3.480988e-02
    outer loop
      vertex -1.113459e+02 1.798667e+01 -5.102004e+02
      vertex -2.284668e+02 1.850576e+01 -5.251034e+02
      vertex -2.287568e+02 1.848139e+01 -5.244038e+02
    endloop
  endfacet
  facet normal 1.422158e-15 9.993940e-01 3.480988e-02
    outer loop
      vertex -1.113459e+02 1.798667e+01 -5.102004e+02
      vertex -1.134840e+02 1.904735e+01 -5.406525e+02
      vertex -1.151599e+02 1.914663e+01 -5.435027e+02
    endloop
  endfacet
  facet normal -4.056652e-16 9.993940e-01 3.480988e-02
    outer loop
      vertex -1.113459e+02 1.798667e+01 -5.102004e+02
      vertex -1.113147e+02 1.854149e+01 -5.261293e+02
      vertex -1.134840e+02 1.904735e+01 -5.406525e+02
    endloop
  endfacet
  facet normal -2.855622e-15 9.993940e-01 3.480988e-02
    outer loop
      vertex -1.111111e+02 1.801334e+01 -5.109659e+02
      vertex -1.104875e+02 1.803083e+01 -5.114683e+02
      vertex -1.113147e+02 1.854149e+01 -5.261293e+02
    endloop
  endfacet
  facet normal -2.836141e-16 9.993940e-01 3.480988e-02
    outer loop
      vertex -1.113459e+02 1.798667e+01 -5.102004e+02
      vertex -1.111111e+02 1.801334e+01 -5.109659e+02
      vertex -1.113147e+02 1.854149e+01 -5.261293e+02
    endloop
  endfacet
  facet normal 3.388694e-01 8.265395e-01 4.494441e-01
    outer loop
      vertex -1.104818e+02 1.766335e+01 -5.107967e+02
      vertex -1.104875e+02 1.803083e+01 -5.114683e+02
      vertex -1.111111e+02 1.801334e+01 -5.109659e+02
    endloop
  endfacet
  facet normal 4.445641e-01 8.800356e-01 1.670331e-01
    outer loop
      vertex -1.104818e+02 1.766335e+01 -5.107967e+02
      vertex -1.111111e+02 1.801334e+01 -5.109659e+02
      vertex -1.113459e+02 1.798667e+01 -5.102004e+02
    endloop
  endfacet
  facet normal 0.000000e+00 -3.480988e-02 9.993940e-01
    outer loop
      vertex -1.106531e+02 1.758692e+01 -5.102143e+02
      vertex -1.113459e+02 1.798667e+01 -5.102004e+02
      vertex -2.446128e+02 1.798667e+01 -5.102004e+02
    endloop
  endfacet
  facet normal 4.873226e-01 8.357670e-01 2.530022e-01
    outer loop
      vertex -1.104818e+02 1.766335e+01 -5.107967e+02
      vertex -1.113459e+02 1.798667e+01 -5.102004e+02
      vertex -1.106531e+02 1.758692e+01 -5.102143e+02
    endloop
  endfacet
  facet normal 7.118344e-16 9.993940e-01 3.480988e-02
    outer loop
      vertex -2.454788e+02 1.881711e+01 -5.340423e+02
      vertex -2.448499e+02 1.801345e+01 -5.109691e+02
      vertex -2.446128e+02 1.798667e+01 -5.102004e+02
    endloop
  endfacet
  facet normal -4.941633e-01 8.500938e-01 1.820525e-01
    outer loop
      vertex -2.453056e+02 1.758692e+01 -5.102143e+02
      vertex -2.446128e+02 1.798667e+01 -5.102004e+02
      vertex -2.448499e+02 1.801345e+01 -5.109691e+02
    endloop
  endfacet
  facet normal 0.000000e+00 -3.480988e-02 9.993940e-01
    outer loop
      vertex -2.453056e+02 1.758692e+01 -5.102143e+02
      vertex -1.106531e+02 1.758692e+01 -5.102143e+02
      vertex -2.446128e+02 1.798667e+01 -5.102004e+02
    endloop
  endfacet
  facet normal -5.002511e-16 9.993940e-01 3.480988e-02
    outer loop
      vertex -2.454788e+02 1.881711e+01 -5.340423e+02
      vertex -2.454788e+02 1.803093e+01 -5.114709e+02
      vertex -2.448499e+02 1.801345e+01 -5.109691e+02
    endloop
  endfacet
  facet normal -3.332308e-01 8.303785e-01 4.465746e-01
    outer loop
      vertex -2.454788e+02 1.762568e+01 -5.107173e+02
      vertex -2.448499e+02 1.801345e+01 -5.109691e+02
      vertex -2.454788e+02 1.803093e+01 -5.114709e+02
    endloop
  endfacet
  facet normal -4.941633e-01 8.500938e-01 1.820525e-01
    outer loop
      vertex -2.454788e+02 1.748698e+01 -5.102178e+02
      vertex -2.453056e+02 1.758692e+01 -5.102143e+02
      vertex -2.448499e+02 1.801345e+01 -5.109691e+02
    endloop
  endfacet
  facet normal -4.378447e-01 8.662760e-01 2.405368e-01
    outer loop
      vertex -2.454788e+02 1.748698e+01 -5.102178e+02
      vertex -2.448499e+02 1.801345e+01 -5.109691e+02
      vertex -2.454788e+02 1.762568e+01 -5.107173e+02
    endloop
  endfacet
  facet normal -1.000000e+00 0.000000e+00 0.000000e+00
    outer loop
      vertex -2.454788e+02 1.842639e+01 -5.281160e+02
      vertex -2.454788e+02 1.803093e+01 -5.114709e+02
      vertex -2.454788e+02 1.881711e+01 -5.340423e+02
    endloop
  endfacet
  facet normal -1.000000e+00 0.000000e+00 0.000000e+00
    outer loop
      vertex -2.454788e+02 1.822011e+01 -5.276633e+02
      vertex -2.454788e+02 1.775415e+01 -5.274890e+02
      vertex -2.454788e+02 1.803093e+01 -5.114709e+02
    endloop
  endfacet
  facet normal -1.000000e+00 0.000000e+00 0.000000e+00
    outer loop
      vertex -2.454788e+02 1.842639e+01 -5.281160e+02
      vertex -2.454788e+02 1.822011e+01 -5.276633e+02
      vertex -2.454788e+02 1.803093e+01 -5.114709e+02
    endloop
  endfacet
  facet normal -1.000000e+00 0.000000e+00 0.000000e+00
    outer loop
      vertex -2.454788e+02 1.733345e+01 -5.286139e+02
      vertex -2.454788e+02 1.881711e+01 -5.340423e+02
      vertex -2.454788e+02 1.712718e+01 -5.281612e+02
    endloop
  endfacet
  facet normal -1.000000e+00 0.000000e+00 0.000000e+00
    outer loop
      vertex -2.454788e+02 1.825211e+01 -5.285819e+02
      vertex -2.454788e+02 1.842639e+01 -5.281160e+02
      vertex -2.454788e+02 1.881711e+01 -5.340423e+02
    endloop
  endfacet
  facet normal -1.000000e+00 0.000000e+00 0.000000e+00
    outer loop
      vertex -2.454788e+02 1.779941e+01 -5.287882e+02
      vertex -2.454788e+02 1.825211e+01 -5.285819e+02
      vertex -2.454788e+02 1.881711e+01 -5.340423e+02
    endloop
  endfacet
  facet normal -1.000000e+00 0.000000e+00 0.000000e+00
    outer loop
      vertex -2.454788e+02 1.733345e+01 -5.286139e+02
      vertex -2.454788e+02 1.779941e+01 -5.287882e+02
      vertex -2.454788e+02 1.881711e+01 -5.340423e+02
    endloop
  endfacet
  facet normal 0.000000e+00 9.993940e-01 3.480988e-02
    outer loop
      vertex -2.893042e+02 1.902042e+01 -5.398793e+02
      vertex -2.884315e+02 1.899116e+01 -5.390393e+02
      vertex -2.504788e+02 1.899116e+01 -5.390393e+02
    endloop
  endfacet
  facet normal -3.774000e-16 9.993940e-01 3.480988e-02
    outer loop
      vertex -2.904788e+02 1.903111e+01 -5.401862e+02
      vertex -2.893042e+02 1.902042e+01 -5.398793e+02
      vertex -2.504788e+02 1.899116e+01 -5.390393e+02
    endloop
  endfacet
  facet normal 0.000000e+00 9.993940e-01 3.480988e-02
    outer loop
      vertex -1.106520e+02 1.731407e+01 -5.023808e+02
      vertex -1.106531e+02 1.758692e+01 -5.102143e+02
      vertex -2.453056e+02 1.758692e+01 -5.102143e+02
    endloop
  endfacet
  facet normal 4.977261e-01 8.668109e-01 3.012508e-02
    outer loop
      vertex -1.104793e+02 1.748726e+01 -5.102178e+02
      vertex -1.106531e+02 1.758692e+01 -5.102143e+02
      vertex -1.106520e+02 1.731407e+01 -5.023808e+02
    endloop
  endfacet
  facet normal 4.851635e-01 8.371588e-01 2.525499e-01
    outer loop
      vertex -1.104818e+02 1.766335e+01 -5.107967e+02
      vertex -1.106531e+02 1.758692e+01 -5.102143e+02
      vertex -1.104793e+02 1.748726e+01 -5.102178e+02
    endloop
  endfacet
  facet normal 5.562102e-18 9.993940e-01 3.480988e-02
    outer loop
      vertex -1.116403e+02 1.690327e+01 -4.905867e+02
      vertex -1.106520e+02 1.731407e+01 -5.023808e+02
      vertex -2.453056e+02 1.758692e+01 -5.102143e+02
    endloop
  endfacet
  facet normal 1.332486e-17 9.993940e-01 3.480988e-02
    outer loop
      vertex -1.134987e+02 1.649616e+01 -4.788986e+02
      vertex -1.116403e+02 1.690327e+01 -4.905867e+02
      vertex -2.453056e+02 1.758692e+01 -5.102143e+02
    endloop
  endfacet
  facet normal 1.191526e-16 9.993940e-01 3.480988e-02
    outer loop
      vertex -1.135521e+02 1.648885e+01 -4.786887e+02
      vertex -1.134987e+02 1.649616e+01 -4.788986e+02
      vertex -2.453056e+02 1.758692e+01 -5.102143e+02
    endloop
  endfacet
  facet normal -3.300618e-16 9.993940e-01 3.480988e-02
    outer loop
      vertex -1.136277e+02 1.648179e+01 -4.784861e+02
      vertex -1.135521e+02 1.648885e+01 -4.786887e+02
      vertex -2.453056e+02 1.758692e+01 -5.102143e+02
    endloop
  endfacet
  facet normal 0.000000e+00 9.993940e-01 3.480988e-02
    outer loop
      vertex -2.453056e+02 1.648179e+01 -4.784861e+02
      vertex -1.136277e+02 1.648179e+01 -4.784861e+02
      vertex -2.453056e+02 1.758692e+01 -5.102143e+02
    endloop
  endfacet
  facet normal -5.000000e-01 8.655006e-01 3.014624e-02
    outer loop
      vertex -2.454788e+02 1.638184e+01 -4.784893e+02
      vertex -2.453056e+02 1.648179e+01 -4.784861e+02
      vertex -2.453056e+02 1.758692e+01 -5.102143e+02
    endloop
  endfacet
  facet normal -5.000000e-01 8.655006e-01 3.014624e-02
    outer loop
      vertex -2.454788e+02 1.748698e+01 -5.102178e+02
      vertex -2.454788e+02 1.638184e+01 -4.784893e+02
      vertex -2.453056e+02 1.758692e+01 -5.102143e+02
    endloop
  endfacet
  facet normal 9.994124e-01 1.625683e-04 3.427591e-02
    outer loop
      vertex -1.105176e+02 1.737293e+01 -5.062995e+02
      vertex -1.106520e+02 1.731407e+01 -5.023808e+02
      vertex -1.105192e+02 1.671146e+01 -5.062511e+02
    endloop
  endfacet
  facet normal 5.000000e-01 8.655006e-01 3.014624e-02
    outer loop
      vertex -1.104793e+02 1.748726e+01 -5.102178e+02
      vertex -1.106520e+02 1.731407e+01 -5.023808e+02
      vertex -1.105176e+02 1.737293e+01 -5.062995e+02
    endloop
  endfacet
  facet normal 0.000000e+00 -3.233465e-02 9.994771e-01
    outer loop
      vertex -1.136277e+02 1.609062e+01 -4.784987e+02
      vertex -1.136277e+02 1.648179e+01 -4.784861e+02
      vertex -2.453056e+02 1.648179e+01 -4.784861e+02
    endloop
  endfacet
  facet normal 0.000000e+00 -3.233465e-02 9.994771e-01
    outer loop
      vertex -2.451324e+02 1.609062e+01 -4.784987e+02
      vertex -1.136277e+02 1.609062e+01 -4.784987e+02
      vertex -2.453056e+02 1.648179e+01 -4.784861e+02
    endloop
  endfacet
  facet normal -2.000737e-13 -3.233465e-02 9.994771e-01
    outer loop
      vertex -2.454788e+02 1.638184e+01 -4.784893e+02
      vertex -2.451324e+02 1.609062e+01 -4.784987e+02
      vertex -2.453056e+02 1.648179e+01 -4.784861e+02
    endloop
  endfacet
  facet normal 0.000000e+00 9.994771e-01 3.233465e-02
    outer loop
      vertex -1.143652e+02 1.606237e+01 -4.776256e+02
      vertex -1.136277e+02 1.609062e+01 -4.784987e+02
      vertex -2.451324e+02 1.609062e+01 -4.784987e+02
    endloop
  endfacet
  facet normal -1.165264e-13 -3.233465e-02 9.994771e-01
    outer loop
      vertex -2.454788e+02 1.638184e+01 -4.784893e+02
      vertex -2.454788e+02 1.589072e+01 -4.785052e+02
      vertex -2.451324e+02 1.609062e+01 -4.784987e+02
    endloop
  endfacet
  facet normal -5.000000e-01 8.655726e-01 2.800263e-02
    outer loop
      vertex -2.454788e+02 1.586809e+01 -4.778055e+02
      vertex -2.451324e+02 1.609062e+01 -4.784987e+02
      vertex -2.454788e+02 1.589072e+01 -4.785052e+02
    endloop
  endfacet
  facet normal -2.321996e-14 9.994771e-01 3.233465e-02
    outer loop
      vertex -2.450567e+02 1.605200e+01 -4.773049e+02
      vertex -2.451324e+02 1.609062e+01 -4.784987e+02
      vertex -2.451324e+02 1.605258e+01 -4.773230e+02
    endloop
  endfacet
  facet normal -5.000000e-01 8.655726e-01 2.800263e-02
    outer loop
      vertex -2.453915e+02 1.590932e+01 -4.775217e+02
      vertex -2.451324e+02 1.605258e+01 -4.773230e+02
      vertex -2.451324e+02 1.609062e+01 -4.784987e+02
    endloop
  endfacet
  facet normal 5.001110e-18 9.994771e-01 3.233465e-02
    outer loop
      vertex -1.154610e+02 1.605180e+01 -4.772988e+02
      vertex -1.143652e+02 1.606237e+01 -4.776256e+02
      vertex -2.451324e+02 1.609062e+01 -4.784987e+02
    endloop
  endfacet
  facet normal 0.000000e+00 9.994771e-01 3.233465e-02
    outer loop
      vertex -2.449788e+02 1.605180e+01 -4.772988e+02
      vertex -1.154610e+02 1.605180e+01 -4.772988e+02
      vertex -2.451324e+02 1.609062e+01 -4.784987e+02
    endloop
  endfacet
  facet normal -1.309172e-14 9.994771e-01 3.233465e-02
    outer loop
      vertex -2.450567e+02 1.605200e+01 -4.773049e+02
      vertex -2.449788e+02 1.605180e+01 -4.772988e+02
      vertex -2.451324e+02 1.609062e+01 -4.784987e+02
    endloop
  endfacet
  facet normal -5.000000e-01 8.655726e-01 2.800263e-02
    outer loop
      vertex -2.453915e+02 1.590932e+01 -4.775217e+02
      vertex -2.451324e+02 1.609062e+01 -4.784987e+02
      vertex -2.454788e+02 1.586809e+01 -4.778055e+02
    endloop
  endfacet
  facet normal -1.000000e+00 0.000000e+00 0.000000e+00
    outer loop
      vertex -2.454788e+02 1.748698e+01 -5.102178e+02
      vertex -2.454788e+02 1.589072e+01 -4.785052e+02
      vertex -2.454788e+02 1.638184e+01 -4.784893e+02
    endloop
  endfacet
  facet normal -1.000000e+00 0.000000e+00 0.000000e+00
    outer loop
      vertex -2.454788e+02 1.581412e+01 -4.778074e+02
      vertex -2.454788e+02 1.586809e+01 -4.778055e+02
      vertex -2.454788e+02 1.589072e+01 -4.785052e+02
    endloop
  endfacet
  facet normal -1.000000e+00 0.000000e+00 0.000000e+00
    outer loop
      vertex -2.454788e+02 1.685934e+01 -5.101154e+02
      vertex -2.454788e+02 1.581412e+01 -4.778074e+02
      vertex -2.454788e+02 1.589072e+01 -4.785052e+02
    endloop
  endfacet
  facet normal -1.000000e+00 0.000000e+00 0.000000e+00
    outer loop
      vertex -2.454788e+02 1.748698e+01 -5.102178e+02
      vertex -2.454788e+02 1.685934e+01 -5.101154e+02
      vertex -2.454788e+02 1.589072e+01 -4.785052e+02
    endloop
  endfacet
  facet normal 2.837973e-01 8.972954e-02 9.546768e-01
    outer loop
      vertex -1.154381e+02 1.599902e+01 -4.773007e+02
      vertex -1.143652e+02 1.606237e+01 -4.776256e+02
      vertex -1.154610e+02 1.605180e+01 -4.772988e+02
    endloop
  endfacet
  facet normal 2.891352e-01 1.231889e-02 9.572090e-01
    outer loop
      vertex -1.154211e+02 1.589128e+01 -4.773044e+02
      vertex -1.143652e+02 1.606237e+01 -4.776256e+02
      vertex -1.154381e+02 1.599902e+01 -4.773007e+02
    endloop
  endfacet
  facet normal 0.000000e+00 9.366316e-01 -3.503159e-01
    outer loop
      vertex -2.314788e+02 1.712718e+01 -5.281612e+02
      vertex -2.454788e+02 1.712718e+01 -5.281612e+02
      vertex -2.454788e+02 1.730145e+01 -5.276953e+02
    endloop
  endfacet
  facet normal 0.000000e+00 9.099876e-01 4.146355e-01
    outer loop
      vertex -2.314788e+02 1.733345e+01 -5.286139e+02
      vertex -2.454788e+02 1.733345e+01 -5.286139e+02
      vertex -2.454788e+02 1.712718e+01 -5.281612e+02
    endloop
  endfacet
  facet normal 0.000000e+00 9.099876e-01 4.146355e-01
    outer loop
      vertex -2.314788e+02 1.733345e+01 -5.286139e+02
      vertex -2.454788e+02 1.712718e+01 -5.281612e+02
      vertex -2.314788e+02 1.712718e+01 -5.281612e+02
    endloop
  endfacet
  facet normal 0.000000e+00 4.146355e-01 -9.099876e-01
    outer loop
      vertex -2.314788e+02 1.730145e+01 -5.276953e+02
      vertex -2.454788e+02 1.730145e+01 -5.276953e+02
      vertex -2.454788e+02 1.775415e+01 -5.274890e+02
    endloop
  endfacet
  facet normal 0.000000e+00 9.366316e-01 -3.503159e-01
    outer loop
      vertex -2.314788e+02 1.730145e+01 -5.276953e+02
      vertex -2.314788e+02 1.712718e+01 -5.281612e+02
      vertex -2.454788e+02 1.730145e+01 -5.276953e+02
    endloop
  endfacet
  facet normal -8.889801e-17 -3.503159e-01 -9.366316e-01
    outer loop
      vertex -2.314788e+02 1.775415e+01 -5.274890e+02
      vertex -2.454788e+02 1.775415e+01 -5.274890e+02
      vertex -2.454788e+02 1.822011e+01 -5.276633e+02
    endloop
  endfacet
  facet normal 1.052201e-16 4.146355e-01 -9.099876e-01
    outer loop
      vertex -2.314788e+02 1.775415e+01 -5.274890e+02
      vertex -2.314788e+02 1.730145e+01 -5.276953e+02
      vertex -2.454788e+02 1.775415e+01 -5.274890e+02
    endloop
  endfacet
  facet normal 0.000000e+00 -9.099876e-01 -4.146355e-01
    outer loop
      vertex -2.314788e+02 1.822011e+01 -5.276633e+02
      vertex -2.454788e+02 1.822011e+01 -5.276633e+02
      vertex -2.454788e+02 1.842639e+01 -5.281160e+02
    endloop
  endfacet
  facet normal 0.000000e+00 -3.503159e-01 -9.366316e-01
    outer loop
      vertex -2.314788e+02 1.822011e+01 -5.276633e+02
      vertex -2.314788e+02 1.775415e+01 -5.274890e+02
      vertex -2.454788e+02 1.822011e+01 -5.276633e+02
    endloop
  endfacet
  facet normal 0.000000e+00 -9.366316e-01 3.503159e-01
    outer loop
      vertex -2.314788e+02 1.842639e+01 -5.281160e+02
      vertex -2.454788e+02 1.842639e+01 -5.281160e+02
      vertex -2.454788e+02 1.825211e+01 -5.285819e+02
    endloop
  endfacet
  facet normal 0.000000e+00 -9.099876e-01 -4.146355e-01
    outer loop
      vertex -2.314788e+02 1.842639e+01 -5.281160e+02
      vertex -2.314788e+02 1.822011e+01 -5.276633e+02
      vertex -2.454788e+02 1.842639e+01 -5.281160e+02
    endloop
  endfacet
  facet normal 0.000000e+00 -4.146355e-01 9.099876e-01
    outer loop
      vertex -2.314788e+02 1.825211e+01 -5.285819e+02
      vertex -2.454788e+02 1.825211e+01 -5.285819e+02
      vertex -2.454788e+02 1.779941e+01 -5.287882e+02
    endloop
  endfacet
  facet normal 0.000000e+00 -9.366316e-01 3.503159e-01
    outer loop
      vertex -2.314788e+02 1.825211e+01 -5.285819e+02
      vertex -2.314788e+02 1.842639e+01 -5.281160e+02
      vertex -2.454788e+02 1.825211e+01 -5.285819e+02
    endloop
  endfacet
  facet normal 0.000000e+00 3.503159e-01 9.366316e-01
    outer loop
      vertex -2.314788e+02 1.779941e+01 -5.287882e+02
      vertex -2.454788e+02 1.779941e+01 -5.287882e+02
      vertex -2.454788e+02 1.733345e+01 -5.286139e+02
    endloop
  endfacet
  facet normal 0.000000e+00 -4.146355e-01 9.099876e-01
    outer loop
      vertex -2.314788e+02 1.779941e+01 -5.287882e+02
      vertex -2.314788e+02 1.825211e+01 -5.285819e+02
      vertex -2.454788e+02 1.779941e+01 -5.287882e+02
    endloop
  endfacet
  facet normal 0.000000e+00 3.503159e-01 9.366316e-01
    outer loop
      vertex -2.314788e+02 1.733345e+01 -5.286139e+02
      vertex -2.314788e+02 1.779941e+01 -5.287882e+02
      vertex -2.454788e+02 1.733345e+01 -5.286139e+02
    endloop
  endfacet
  facet normal -9.783286e-01 -7.207673e-03 2.069328e-01
    outer loop
      vertex -2.454360e+02 1.578283e+01 -4.776058e+02
      vertex -2.454788e+02 1.586809e+01 -4.778055e+02
      vertex -2.454788e+02 1.581412e+01 -4.778074e+02
    endloop
  endfacet
  facet normal -9.504713e-01 1.542119e-01 2.698573e-01
    outer loop
      vertex -2.454360e+02 1.578283e+01 -4.776058e+02
      vertex -2.453915e+02 1.590932e+01 -4.775217e+02
      vertex -2.454788e+02 1.586809e+01 -4.778055e+02
    endloop
  endfacet
  facet normal -1.000000e+00 0.000000e+00 0.000000e+00
    outer loop
      vertex -2.454788e+02 1.748698e+01 -5.102178e+02
      vertex -2.454788e+02 1.675471e+01 -5.106225e+02
      vertex -2.454788e+02 1.685934e+01 -5.101154e+02
    endloop
  endfacet
  facet normal -1.000000e+00 0.000000e+00 0.000000e+00
    outer loop
      vertex -2.454788e+02 1.748698e+01 -5.102178e+02
      vertex -2.454788e+02 1.762568e+01 -5.107173e+02
      vertex -2.454788e+02 1.675471e+01 -5.106225e+02
    endloop
  endfacet
  facet normal 9.999454e-01 -1.590939e-03 1.032538e-02
    outer loop
      vertex -1.105176e+02 1.737293e+01 -5.062995e+02
      vertex -1.105192e+02 1.671146e+01 -5.062511e+02
      vertex -1.104791e+02 1.685966e+01 -5.101154e+02
    endloop
  endfacet
  facet normal 9.999496e-01 2.014183e-03 9.840502e-03
    outer loop
      vertex -1.104793e+02 1.748726e+01 -5.102178e+02
      vertex -1.105176e+02 1.737293e+01 -5.062995e+02
      vertex -1.104791e+02 1.685966e+01 -5.101154e+02
    endloop
  endfacet
  facet normal 9.999944e-01 -1.389782e-04 -3.354137e-03
    outer loop
      vertex -1.104809e+02 1.673810e+01 -5.106652e+02
      vertex -1.104793e+02 1.748726e+01 -5.102178e+02
      vertex -1.104791e+02 1.685966e+01 -5.101154e+02
    endloop
  endfacet
  facet normal 9.999910e-01 3.799113e-04 -4.223122e-03
    outer loop
      vertex -1.104809e+02 1.673810e+01 -5.106652e+02
      vertex -1.104818e+02 1.766335e+01 -5.107967e+02
      vertex -1.104793e+02 1.748726e+01 -5.102178e+02
    endloop
  endfacet
endsolid 117_100022026-24
