solid 119_100022026-26
  facet normal -1.000000e+00 0.000000e+00 0.000000e+00
    outer loop
      vertex -3.154792e+02 1.557162e+01 -5.413718e+02
      vertex -3.154792e+02 1.467486e+01 -5.413986e+02
      vertex -3.154792e+02 1.464339e+01 -5.402490e+02
    endloop
  endfacet
  facet normal 0.000000e+00 -9.996256e-01 -2.736278e-02
    outer loop
      vertex -1.136710e+02 1.467486e+01 -5.413986e+02
      vertex -3.154792e+02 1.464339e+01 -5.402490e+02
      vertex -3.154792e+02 1.467486e+01 -5.413986e+02
    endloop
  endfacet
  facet normal -1.000000e+00 0.000000e+00 0.000000e+00
    outer loop
      vertex -3.154792e+02 1.634095e+01 -5.401983e+02
      vertex -3.154792e+02 1.557162e+01 -5.413718e+02
      vertex -3.154792e+02 1.464339e+01 -5.402490e+02
    endloop
  endfacet
  facet normal 0.000000e+00 -2.983838e-02 9.995547e-01
    outer loop
      vertex -2.904792e+02 1.464339e+01 -5.402490e+02
      vertex -3.154792e+02 1.634095e+01 -5.401983e+02
      vertex -3.154792e+02 1.464339e+01 -5.402490e+02
    endloop
  endfacet
  facet normal 0.000000e+00 -9.996256e-01 -2.736278e-02
    outer loop
      vertex -1.136710e+02 1.467486e+01 -5.413986e+02
      vertex -2.904792e+02 1.464339e+01 -5.402490e+02
      vertex -3.154792e+02 1.464339e+01 -5.402490e+02
    endloop
  endfacet
  facet normal 0.000000e+00 2.983838e-02 -9.995547e-01
    outer loop
      vertex -1.136710e+02 1.557162e+01 -5.413718e+02
      vertex -3.154792e+02 1.467486e+01 -5.413986e+02
      vertex -3.154792e+02 1.557162e+01 -5.413718e+02
    endloop
  endfacet
  facet normal 0.000000e+00 2.983838e-02 -9.995547e-01
    outer loop
      vertex -1.136710e+02 1.557162e+01 -5.413718e+02
      vertex -1.136710e+02 1.467486e+01 -5.413986e+02
      vertex -3.154792e+02 1.467486e+01 -5.413986e+02
    endloop
  endfacet
  facet normal -1.000000e+00 0.000000e+00 0.000000e+00
    outer loop
      vertex -3.154792e+02 1.647522e+01 -5.446963e+02
      vertex -3.154792e+02 1.564311e+01 -5.437667e+02
      vertex -3.154792e+02 1.557162e+01 -5.413718e+02
    endloop
  endfacet
  facet normal 0.000000e+00 -9.995547e-01 -2.983838e-02
    outer loop
      vertex -1.194792e+02 1.564311e+01 -5.437667e+02
      vertex -3.154792e+02 1.557162e+01 -5.413718e+02
      vertex -3.154792e+02 1.564311e+01 -5.437667e+02
    endloop
  endfacet
  facet normal -1.000000e+00 0.000000e+00 0.000000e+00
    outer loop
      vertex -3.154792e+02 1.634095e+01 -5.401983e+02
      vertex -3.154792e+02 1.647522e+01 -5.446963e+02
      vertex -3.154792e+02 1.557162e+01 -5.413718e+02
    endloop
  endfacet
  facet normal 0.000000e+00 -9.995547e-01 -2.983838e-02
    outer loop
      vertex -1.154969e+02 1.564405e+01 -5.437981e+02
      vertex -1.136710e+02 1.557162e+01 -5.413718e+02
      vertex -3.154792e+02 1.557162e+01 -5.413718e+02
    endloop
  endfacet
  facet normal 1.724417e-15 -9.995547e-01 -2.983838e-02
    outer loop
      vertex -1.154969e+02 1.564405e+01 -5.437981e+02
      vertex -3.154792e+02 1.557162e+01 -5.413718e+02
      vertex -1.194792e+02 1.564311e+01 -5.437667e+02
    endloop
  endfacet
  facet normal -1.000000e+00 0.000000e+00 0.000000e+00
    outer loop
      vertex -3.154792e+02 1.647522e+01 -5.446963e+02
      vertex -3.154792e+02 1.474042e+01 -5.437937e+02
      vertex -3.154792e+02 1.564311e+01 -5.437667e+02
    endloop
  endfacet
  facet normal 2.704266e-19 -2.983838e-02 9.995547e-01
    outer loop
      vertex -1.194792e+02 1.474042e+01 -5.437937e+02
      vertex -3.154792e+02 1.564311e+01 -5.437667e+02
      vertex -3.154792e+02 1.474042e+01 -5.437937e+02
    endloop
  endfacet
  facet normal 0.000000e+00 -2.983838e-02 9.995547e-01
    outer loop
      vertex -1.194792e+02 1.474042e+01 -5.437937e+02
      vertex -1.194792e+02 1.564311e+01 -5.437667e+02
      vertex -3.154792e+02 1.564311e+01 -5.437667e+02
    endloop
  endfacet
  facet normal -1.000000e+00 0.000000e+00 0.000000e+00
    outer loop
      vertex -3.154792e+02 1.647522e+01 -5.446963e+02
      vertex -3.154792e+02 1.474637e+01 -5.440111e+02
      vertex -3.154792e+02 1.474042e+01 -5.437937e+02
    endloop
  endfacet
  facet normal 0.000000e+00 -9.996256e-01 -2.736278e-02
    outer loop
      vertex -1.194792e+02 1.474637e+01 -5.440111e+02
      vertex -3.154792e+02 1.474042e+01 -5.437937e+02
      vertex -3.154792e+02 1.474637e+01 -5.440111e+02
    endloop
  endfacet
  facet normal 9.059289e-18 -9.996256e-01 -2.736278e-02
    outer loop
      vertex -1.194792e+02 1.474637e+01 -5.440111e+02
      vertex -1.194792e+02 1.474042e+01 -5.437937e+02
      vertex -3.154792e+02 1.474042e+01 -5.437937e+02
    endloop
  endfacet
  facet normal -1.000000e+00 0.000000e+00 0.000000e+00
    outer loop
      vertex -3.154792e+02 1.647522e+01 -5.446963e+02
      vertex -3.154792e+02 1.550452e+01 -5.447253e+02
      vertex -3.154792e+02 1.474637e+01 -5.440111e+02
    endloop
  endfacet
  facet normal -1.242893e-17 -6.856930e-01 -7.278909e-01
    outer loop
      vertex -1.194792e+02 1.550452e+01 -5.447253e+02
      vertex -3.154792e+02 1.474637e+01 -5.440111e+02
      vertex -3.154792e+02 1.550452e+01 -5.447253e+02
    endloop
  endfacet
  facet normal 0.000000e+00 -6.856930e-01 -7.278909e-01
    outer loop
      vertex -1.194792e+02 1.550452e+01 -5.447253e+02
      vertex -1.194792e+02 1.474637e+01 -5.440111e+02
      vertex -3.154792e+02 1.474637e+01 -5.440111e+02
    endloop
  endfacet
  facet normal 0.000000e+00 2.983838e-02 -9.995547e-01
    outer loop
      vertex -1.183909e+02 1.647522e+01 -5.446963e+02
      vertex -3.154792e+02 1.550452e+01 -5.447253e+02
      vertex -3.154792e+02 1.647522e+01 -5.446963e+02
    endloop
  endfacet
  facet normal 5.408532e-19 2.983838e-02 -9.995547e-01
    outer loop
      vertex -1.194792e+02 1.550452e+01 -5.447253e+02
      vertex -3.154792e+02 1.550452e+01 -5.447253e+02
      vertex -1.194792e+02 1.567158e+01 -5.447203e+02
    endloop
  endfacet
  facet normal -2.906449e-16 2.983838e-02 -9.995547e-01
    outer loop
      vertex -1.183909e+02 1.647522e+01 -5.446963e+02
      vertex -1.194792e+02 1.567158e+01 -5.447203e+02
      vertex -3.154792e+02 1.550452e+01 -5.447253e+02
    endloop
  endfacet
  facet normal 0.000000e+00 9.995547e-01 2.983838e-02
    outer loop
      vertex -2.904792e+02 1.634095e+01 -5.401983e+02
      vertex -3.154792e+02 1.647522e+01 -5.446963e+02
      vertex -3.154792e+02 1.634095e+01 -5.401983e+02
    endloop
  endfacet
  facet normal 0.000000e+00 9.995547e-01 2.983838e-02
    outer loop
      vertex -2.504792e+02 1.630671e+01 -5.390512e+02
      vertex -1.183909e+02 1.647522e+01 -5.446963e+02
      vertex -3.154792e+02 1.647522e+01 -5.446963e+02
    endloop
  endfacet
  facet normal -2.091165e-17 9.995547e-01 2.983838e-02
    outer loop
      vertex -2.904792e+02 1.634095e+01 -5.401983e+02
      vertex -2.504792e+02 1.630671e+01 -5.390512e+02
      vertex -3.154792e+02 1.647522e+01 -5.446963e+02
    endloop
  endfacet
  facet normal 0.000000e+00 -2.983838e-02 9.995547e-01
    outer loop
      vertex -2.904792e+02 1.634095e+01 -5.401983e+02
      vertex -3.154792e+02 1.634095e+01 -5.401983e+02
      vertex -2.904792e+02 1.464339e+01 -5.402490e+02
    endloop
  endfacet
  facet normal 0.000000e+00 -2.736278e-02 9.996256e-01
    outer loop
      vertex -2.287188e+02 1.421881e+01 -5.101198e+02
      vertex -1.113460e+02 1.381896e+01 -5.101307e+02
      vertex -1.106532e+02 1.421881e+01 -5.101198e+02
    endloop
  endfacet
  facet normal 4.942192e-01 -8.598410e-01 1.281439e-01
    outer loop
      vertex -1.111109e+02 1.383993e+01 -5.108968e+02
      vertex -1.106532e+02 1.421881e+01 -5.101198e+02
      vertex -1.113460e+02 1.381896e+01 -5.101307e+02
    endloop
  endfacet
  facet normal 0.000000e+00 -9.996256e-01 -2.736278e-02
    outer loop
      vertex -1.154021e+02 1.332064e+01 -4.773074e+02
      vertex -2.287188e+02 1.421881e+01 -5.101198e+02
      vertex -1.106532e+02 1.421881e+01 -5.101198e+02
    endloop
  endfacet
  facet normal 4.942184e-01 -8.598414e-01 1.281445e-01
    outer loop
      vertex -1.104794e+02 1.431910e+01 -5.101171e+02
      vertex -1.106532e+02 1.421881e+01 -5.101198e+02
      vertex -1.111109e+02 1.383993e+01 -5.108968e+02
    endloop
  endfacet
  facet normal -4.732000e-16 -9.996256e-01 -2.736278e-02
    outer loop
      vertex -1.141686e+02 1.333358e+01 -4.777803e+02
      vertex -1.154021e+02 1.332064e+01 -4.773074e+02
      vertex -1.106532e+02 1.421881e+01 -5.101198e+02
    endloop
  endfacet
  facet normal 7.734734e-16 -9.996256e-01 -2.736278e-02
    outer loop
      vertex -1.134990e+02 1.336476e+01 -4.789192e+02
      vertex -1.141686e+02 1.333358e+01 -4.777803e+02
      vertex -1.106532e+02 1.421881e+01 -5.101198e+02
    endloop
  endfacet
  facet normal -7.188100e-17 -9.996256e-01 -2.736278e-02
    outer loop
      vertex -1.116417e+02 1.368453e+01 -4.906013e+02
      vertex -1.134990e+02 1.336476e+01 -4.789192e+02
      vertex -1.106532e+02 1.421881e+01 -5.101198e+02
    endloop
  endfacet
  facet normal -9.294880e-16 -9.996256e-01 -2.736278e-02
    outer loop
      vertex -1.106532e+02 1.400722e+01 -5.023898e+02
      vertex -1.116417e+02 1.368453e+01 -4.906013e+02
      vertex -1.106532e+02 1.421881e+01 -5.101198e+02
    endloop
  endfacet
  facet normal 4.999995e-01 -8.657014e-01 -2.369689e-02
    outer loop
      vertex -1.105195e+02 1.419012e+01 -5.062521e+02
      vertex -1.106532e+02 1.400722e+01 -5.023898e+02
      vertex -1.106532e+02 1.421881e+01 -5.101198e+02
    endloop
  endfacet
  facet normal 4.999993e-01 -8.657016e-01 -2.369688e-02
    outer loop
      vertex -1.105195e+02 1.419012e+01 -5.062521e+02
      vertex -1.106532e+02 1.421881e+01 -5.101198e+02
      vertex -1.104794e+02 1.431910e+01 -5.101171e+02
    endloop
  endfacet
  facet normal 0.000000e+00 -2.736278e-02 9.996256e-01
    outer loop
      vertex -2.287188e+02 1.421881e+01 -5.101198e+02
      vertex -2.287188e+02 1.381896e+01 -5.101307e+02
      vertex -1.113460e+02 1.381896e+01 -5.101307e+02
    endloop
  endfacet
  facet normal 0.000000e+00 -9.996256e-01 -2.736278e-02
    outer loop
      vertex -1.274792e+02 1.389201e+01 -5.127992e+02
      vertex -1.113460e+02 1.381896e+01 -5.101307e+02
      vertex -2.287188e+02 1.381896e+01 -5.101307e+02
    endloop
  endfacet
  facet normal -1.785272e-16 -9.996256e-01 -2.736278e-02
    outer loop
      vertex -1.274792e+02 1.389201e+01 -5.127992e+02
      vertex -1.266132e+02 1.390569e+01 -5.132989e+02
      vertex -1.113460e+02 1.381896e+01 -5.101307e+02
    endloop
  endfacet
  facet normal 0.000000e+00 -9.996256e-01 -2.736278e-02
    outer loop
      vertex -1.134848e+02 1.465610e+01 -5.407134e+02
      vertex -1.113460e+02 1.381896e+01 -5.101307e+02
      vertex -1.266132e+02 1.390569e+01 -5.132989e+02
    endloop
  endfacet
  facet normal 7.136684e-16 -9.996256e-01 -2.736278e-02
    outer loop
      vertex -1.113089e+02 1.425679e+01 -5.261254e+02
      vertex -1.111109e+02 1.383993e+01 -5.108968e+02
      vertex -1.113460e+02 1.381896e+01 -5.101307e+02
    endloop
  endfacet
  facet normal -5.024082e-17 -9.996256e-01 -2.736278e-02
    outer loop
      vertex -1.134848e+02 1.465610e+01 -5.407134e+02
      vertex -1.113089e+02 1.425679e+01 -5.261254e+02
      vertex -1.113460e+02 1.381896e+01 -5.101307e+02
    endloop
  endfacet
  facet normal -7.953879e-01 1.658460e-02 -6.058738e-01
    outer loop
      vertex -2.286255e+02 1.504586e+01 -5.102196e+02
      vertex -2.287188e+02 1.381896e+01 -5.101307e+02
      vertex -2.287188e+02 1.421881e+01 -5.101198e+02
    endloop
  endfacet
  facet normal 2.401635e-17 -9.996256e-01 -2.736278e-02
    outer loop
      vertex -2.241274e+02 1.388693e+01 -5.126139e+02
      vertex -1.274792e+02 1.389201e+01 -5.127992e+02
      vertex -2.287188e+02 1.381896e+01 -5.101307e+02
    endloop
  endfacet
  facet normal -1.289971e-14 -9.996256e-01 -2.736278e-02
    outer loop
      vertex -2.244792e+02 1.388516e+01 -5.125493e+02
      vertex -2.241274e+02 1.388693e+01 -5.126139e+02
      vertex -2.287188e+02 1.381896e+01 -5.101307e+02
    endloop
  endfacet
  facet normal -2.806201e-15 -9.996256e-01 -2.736278e-02
    outer loop
      vertex -2.285322e+02 1.382735e+01 -5.104371e+02
      vertex -2.244792e+02 1.388516e+01 -5.125493e+02
      vertex -2.287188e+02 1.381896e+01 -5.101307e+02
    endloop
  endfacet
  facet normal -8.541683e-01 2.732607e-02 -5.192782e-01
    outer loop
      vertex -2.286255e+02 1.504586e+01 -5.102196e+02
      vertex -2.285322e+02 1.382735e+01 -5.104371e+02
      vertex -2.287188e+02 1.381896e+01 -5.101307e+02
    endloop
  endfacet
  facet normal -6.798665e-01 -1.181622e-02 -7.332407e-01
    outer loop
      vertex -2.289836e+02 1.503594e+01 -5.098874e+02
      vertex -2.286255e+02 1.504586e+01 -5.102196e+02
      vertex -2.287188e+02 1.421881e+01 -5.101198e+02
    endloop
  endfacet
  facet normal -5.902148e-01 3.803184e-02 -8.063499e-01
    outer loop
      vertex -2.290526e+02 1.421213e+01 -5.098758e+02
      vertex -2.289836e+02 1.503594e+01 -5.098874e+02
      vertex -2.287188e+02 1.421881e+01 -5.101198e+02
    endloop
  endfacet
  facet normal 0.000000e+00 -9.996256e-01 -2.736278e-02
    outer loop
      vertex -2.449792e+02 1.332064e+01 -4.773074e+02
      vertex -2.287188e+02 1.421881e+01 -5.101198e+02
      vertex -1.154021e+02 1.332064e+01 -4.773074e+02
    endloop
  endfacet
  facet normal 1.008813e-15 -9.996256e-01 -2.736278e-02
    outer loop
      vertex -2.290526e+02 1.421213e+01 -5.098758e+02
      vertex -2.287188e+02 1.421881e+01 -5.101198e+02
      vertex -2.449792e+02 1.332064e+01 -4.773074e+02
    endloop
  endfacet
  facet normal 0.000000e+00 -2.736278e-02 9.996256e-01
    outer loop
      vertex -2.312276e+02 1.381896e+01 -5.101307e+02
      vertex -2.453060e+02 1.421881e+01 -5.101198e+02
      vertex -2.446131e+02 1.381896e+01 -5.101307e+02
    endloop
  endfacet
  facet normal -4.895128e-01 -8.531183e-01 1.804616e-01
    outer loop
      vertex -2.454792e+02 1.421163e+01 -5.106236e+02
      vertex -2.446131e+02 1.381896e+01 -5.101307e+02
      vertex -2.453060e+02 1.421881e+01 -5.101198e+02
    endloop
  endfacet
  facet normal 0.000000e+00 -9.996256e-01 -2.736278e-02
    outer loop
      vertex -2.314141e+02 1.382735e+01 -5.104371e+02
      vertex -2.312276e+02 1.381896e+01 -5.101307e+02
      vertex -2.446131e+02 1.381896e+01 -5.101307e+02
    endloop
  endfacet
  facet normal 6.620022e-16 -9.996256e-01 -2.736278e-02
    outer loop
      vertex -2.311892e+02 1.402088e+01 -5.175074e+02
      vertex -2.446131e+02 1.381896e+01 -5.101307e+02
      vertex -2.448503e+02 1.384001e+01 -5.108996e+02
    endloop
  endfacet
  facet normal -4.656434e-01 -8.768522e-01 1.196095e-01
    outer loop
      vertex -2.454792e+02 1.421163e+01 -5.106236e+02
      vertex -2.448503e+02 1.384001e+01 -5.108996e+02
      vertex -2.446131e+02 1.381896e+01 -5.101307e+02
    endloop
  endfacet
  facet normal 1.320068e-16 -9.996256e-01 -2.736278e-02
    outer loop
      vertex -2.314792e+02 1.383701e+01 -5.107899e+02
      vertex -2.314141e+02 1.382735e+01 -5.104371e+02
      vertex -2.446131e+02 1.381896e+01 -5.101307e+02
    endloop
  endfacet
  facet normal 4.493322e-17 -9.996256e-01 -2.736278e-02
    outer loop
      vertex -2.314792e+02 1.400173e+01 -5.168077e+02
      vertex -2.314792e+02 1.383701e+01 -5.107899e+02
      vertex -2.446131e+02 1.381896e+01 -5.101307e+02
    endloop
  endfacet
  facet normal -1.147327e-15 -9.996256e-01 -2.736278e-02
    outer loop
      vertex -2.311892e+02 1.402088e+01 -5.175074e+02
      vertex -2.314792e+02 1.400173e+01 -5.168077e+02
      vertex -2.446131e+02 1.381896e+01 -5.101307e+02
    endloop
  endfacet
  facet normal 0.000000e+00 -2.736278e-02 9.996256e-01
    outer loop
      vertex -2.312276e+02 1.381896e+01 -5.101307e+02
      vertex -2.312276e+02 1.421881e+01 -5.101198e+02
      vertex -2.453060e+02 1.421881e+01 -5.101198e+02
    endloop
  endfacet
  facet normal 0.000000e+00 -9.996256e-01 -2.736278e-02
    outer loop
      vertex -2.453060e+02 1.332397e+01 -4.774290e+02
      vertex -2.453060e+02 1.421881e+01 -5.101198e+02
      vertex -2.312276e+02 1.421881e+01 -5.101198e+02
    endloop
  endfacet
  facet normal -5.000000e-01 -8.657011e-01 -2.369686e-02
    outer loop
      vertex -2.454792e+02 1.431877e+01 -5.101171e+02
      vertex -2.453060e+02 1.421881e+01 -5.101198e+02
      vertex -2.453060e+02 1.332397e+01 -4.774290e+02
    endloop
  endfacet
  facet normal -4.895128e-01 -8.531183e-01 1.804616e-01
    outer loop
      vertex -2.454792e+02 1.421163e+01 -5.106236e+02
      vertex -2.453060e+02 1.421881e+01 -5.101198e+02
      vertex -2.454792e+02 1.431877e+01 -5.101171e+02
    endloop
  endfacet
  facet normal 8.542416e-01 1.422526e-02 -5.196815e-01
    outer loop
      vertex -2.314141e+02 1.382735e+01 -5.104371e+02
      vertex -2.312276e+02 1.421881e+01 -5.101198e+02
      vertex -2.312276e+02 1.381896e+01 -5.101307e+02
    endloop
  endfacet
  facet normal 8.446462e-01 3.076140e-02 -5.344404e-01
    outer loop
      vertex -2.313209e+02 1.504586e+01 -5.102196e+02
      vertex -2.312276e+02 1.421881e+01 -5.101198e+02
      vertex -2.314141e+02 1.382735e+01 -5.104371e+02
    endloop
  endfacet
  facet normal 6.798665e-01 -1.181622e-02 -7.332407e-01
    outer loop
      vertex -2.309628e+02 1.503594e+01 -5.098874e+02
      vertex -2.312276e+02 1.421881e+01 -5.101198e+02
      vertex -2.313209e+02 1.504586e+01 -5.102196e+02
    endloop
  endfacet
  facet normal 5.902148e-01 3.803184e-02 -8.063499e-01
    outer loop
      vertex -2.308938e+02 1.421213e+01 -5.098758e+02
      vertex -2.312276e+02 1.421881e+01 -5.101198e+02
      vertex -2.309628e+02 1.503594e+01 -5.098874e+02
    endloop
  endfacet
  facet normal -4.924811e-16 -9.996256e-01 -2.736278e-02
    outer loop
      vertex -2.308938e+02 1.421213e+01 -5.098758e+02
      vertex -2.449792e+02 1.332064e+01 -4.773074e+02
      vertex -2.312276e+02 1.421881e+01 -5.101198e+02
    endloop
  endfacet
  facet normal 1.069765e-15 -9.996256e-01 -2.736278e-02
    outer loop
      vertex -2.451535e+02 1.332150e+01 -4.773388e+02
      vertex -2.312276e+02 1.421881e+01 -5.101198e+02
      vertex -2.449792e+02 1.332064e+01 -4.773074e+02
    endloop
  endfacet
  facet normal -1.519992e-15 -9.996256e-01 -2.736278e-02
    outer loop
      vertex -2.451535e+02 1.332150e+01 -4.773388e+02
      vertex -2.453060e+02 1.332397e+01 -4.774290e+02
      vertex -2.312276e+02 1.421881e+01 -5.101198e+02
    endloop
  endfacet
  facet normal 5.177588e-17 -9.996256e-01 -2.736278e-02
    outer loop
      vertex -1.136710e+02 1.467486e+01 -5.413986e+02
      vertex -2.893035e+02 1.463497e+01 -5.399414e+02
      vertex -2.904792e+02 1.464339e+01 -5.402490e+02
    endloop
  endfacet
  facet normal -2.531773e-01 -2.886625e-02 9.669891e-01
    outer loop
      vertex -2.904792e+02 1.634095e+01 -5.401983e+02
      vertex -2.904792e+02 1.464339e+01 -5.402490e+02
      vertex -2.893035e+02 1.463497e+01 -5.399414e+02
    endloop
  endfacet
  facet normal -1.438519e-17 -9.996256e-01 -2.736278e-02
    outer loop
      vertex -1.136710e+02 1.467486e+01 -5.413986e+02
      vertex -2.884293e+02 1.461187e+01 -5.390976e+02
      vertex -2.893035e+02 1.463497e+01 -5.399414e+02
    endloop
  endfacet
  facet normal -6.946195e-01 -2.073367e-02 7.190785e-01
    outer loop
      vertex -2.884318e+02 1.630671e+01 -5.390512e+02
      vertex -2.893035e+02 1.463497e+01 -5.399414e+02
      vertex -2.884293e+02 1.461187e+01 -5.390976e+02
    endloop
  endfacet
  facet normal -6.936982e-01 -2.167260e-02 7.199397e-01
    outer loop
      vertex -2.893046e+02 1.633179e+01 -5.398914e+02
      vertex -2.893035e+02 1.463497e+01 -5.399414e+02
      vertex -2.884318e+02 1.630671e+01 -5.390512e+02
    endloop
  endfacet
  facet normal -2.529316e-01 -2.868642e-02 9.670588e-01
    outer loop
      vertex -2.904792e+02 1.634095e+01 -5.401983e+02
      vertex -2.893035e+02 1.463497e+01 -5.399414e+02
      vertex -2.893046e+02 1.633179e+01 -5.398914e+02
    endloop
  endfacet
  facet normal 0.000000e+00 -9.996256e-01 -2.736278e-02
    outer loop
      vertex -1.136710e+02 1.467486e+01 -5.413986e+02
      vertex -2.504792e+02 1.461187e+01 -5.390976e+02
      vertex -2.884293e+02 1.461187e+01 -5.390976e+02
    endloop
  endfacet
  facet normal 0.000000e+00 -2.736278e-02 9.996256e-01
    outer loop
      vertex -2.884318e+02 1.630671e+01 -5.390512e+02
      vertex -2.884293e+02 1.461187e+01 -5.390976e+02
      vertex -2.504792e+02 1.461187e+01 -5.390976e+02
    endloop
  endfacet
  facet normal 1.198137e-18 -9.996256e-01 -2.736278e-02
    outer loop
      vertex -1.136710e+02 1.467486e+01 -5.413986e+02
      vertex -2.469436e+02 1.457180e+01 -5.376337e+02
      vertex -2.504792e+02 1.461187e+01 -5.390976e+02
    endloop
  endfacet
  facet normal -3.826866e-01 -2.527987e-02 9.235323e-01
    outer loop
      vertex -2.504792e+02 1.630671e+01 -5.390512e+02
      vertex -2.504792e+02 1.461187e+01 -5.390976e+02
      vertex -2.469436e+02 1.457180e+01 -5.376337e+02
    endloop
  endfacet
  facet normal 0.000000e+00 -2.736278e-02 9.996256e-01
    outer loop
      vertex -2.884318e+02 1.630671e+01 -5.390512e+02
      vertex -2.504792e+02 1.461187e+01 -5.390976e+02
      vertex -2.504792e+02 1.630671e+01 -5.390512e+02
    endloop
  endfacet
  facet normal -1.280926e-17 -9.996256e-01 -2.736278e-02
    outer loop
      vertex -1.136710e+02 1.467486e+01 -5.413986e+02
      vertex -2.454792e+02 1.447506e+01 -5.340995e+02
      vertex -2.469436e+02 1.457180e+01 -5.376337e+02
    endloop
  endfacet
  facet normal -9.238782e-01 -1.047244e-02 3.825433e-01
    outer loop
      vertex -2.469436e+02 1.626301e+01 -5.375874e+02
      vertex -2.469436e+02 1.457180e+01 -5.376337e+02
      vertex -2.454792e+02 1.447506e+01 -5.340995e+02
    endloop
  endfacet
  facet normal -3.826861e-01 -2.527880e-02 9.235325e-01
    outer loop
      vertex -2.504792e+02 1.630671e+01 -5.390512e+02
      vertex -2.469436e+02 1.457180e+01 -5.376337e+02
      vertex -2.469436e+02 1.626301e+01 -5.375874e+02
    endloop
  endfacet
  facet normal 7.527518e-17 -9.996256e-01 -2.736278e-02
    outer loop
      vertex -2.311892e+02 1.402088e+01 -5.175074e+02
      vertex -2.454792e+02 1.385375e+01 -5.114015e+02
      vertex -2.454792e+02 1.447506e+01 -5.340995e+02
    endloop
  endfacet
  facet normal -1.000000e+00 0.000000e+00 0.000000e+00
    outer loop
      vertex -2.454792e+02 1.408574e+01 -5.137959e+02
      vertex -2.454792e+02 1.447506e+01 -5.340995e+02
      vertex -2.454792e+02 1.385375e+01 -5.114015e+02
    endloop
  endfacet
  facet normal -2.676433e-15 -9.996256e-01 -2.736278e-02
    outer loop
      vertex -2.304892e+02 1.402882e+01 -5.177973e+02
      vertex -2.311892e+02 1.402088e+01 -5.175074e+02
      vertex -2.454792e+02 1.447506e+01 -5.340995e+02
    endloop
  endfacet
  facet normal 1.179509e-18 -9.996256e-01 -2.736278e-02
    outer loop
      vertex -1.136710e+02 1.467486e+01 -5.413986e+02
      vertex -2.304892e+02 1.402882e+01 -5.177973e+02
      vertex -2.454792e+02 1.447506e+01 -5.340995e+02
    endloop
  endfacet
  facet normal -9.238780e-01 -1.047138e-02 3.825437e-01
    outer loop
      vertex -2.469436e+02 1.626301e+01 -5.375874e+02
      vertex -2.454792e+02 1.447506e+01 -5.340995e+02
      vertex -2.454792e+02 1.615751e+01 -5.340534e+02
    endloop
  endfacet
  facet normal -1.000000e+00 0.000000e+00 0.000000e+00
    outer loop
      vertex -2.454792e+02 1.408574e+01 -5.137959e+02
      vertex -2.454792e+02 1.615751e+01 -5.340534e+02
      vertex -2.454792e+02 1.447506e+01 -5.340995e+02
    endloop
  endfacet
  facet normal -5.240626e-16 -9.996256e-01 -2.736278e-02
    outer loop
      vertex -2.311892e+02 1.402088e+01 -5.175074e+02
      vertex -2.448503e+02 1.384001e+01 -5.108996e+02
      vertex -2.454792e+02 1.385375e+01 -5.114015e+02
    endloop
  endfacet
  facet normal -3.331972e-01 -8.565580e-01 3.940661e-01
    outer loop
      vertex -2.454792e+02 1.421163e+01 -5.106236e+02
      vertex -2.454792e+02 1.385375e+01 -5.114015e+02
      vertex -2.448503e+02 1.384001e+01 -5.108996e+02
    endloop
  endfacet
  facet normal -1.000000e+00 0.000000e+00 0.000000e+00
    outer loop
      vertex -2.454792e+02 1.471606e+01 -5.131267e+02
      vertex -2.454792e+02 1.385375e+01 -5.114015e+02
      vertex -2.454792e+02 1.548361e+01 -5.114783e+02
    endloop
  endfacet
  facet normal -1.000000e+00 0.000000e+00 0.000000e+00
    outer loop
      vertex -2.454792e+02 1.508211e+01 -5.107228e+02
      vertex -2.454792e+02 1.548361e+01 -5.114783e+02
      vertex -2.454792e+02 1.385375e+01 -5.114015e+02
    endloop
  endfacet
  facet normal -1.000000e+00 0.000000e+00 0.000000e+00
    outer loop
      vertex -2.454792e+02 1.426234e+01 -5.133308e+02
      vertex -2.454792e+02 1.408574e+01 -5.137959e+02
      vertex -2.454792e+02 1.385375e+01 -5.114015e+02
    endloop
  endfacet
  facet normal -1.000000e+00 0.000000e+00 0.000000e+00
    outer loop
      vertex -2.454792e+02 1.471606e+01 -5.131267e+02
      vertex -2.454792e+02 1.426234e+01 -5.133308e+02
      vertex -2.454792e+02 1.385375e+01 -5.114015e+02
    endloop
  endfacet
  facet normal -1.000000e+00 0.000000e+00 0.000000e+00
    outer loop
      vertex -2.454792e+02 1.508211e+01 -5.107228e+02
      vertex -2.454792e+02 1.385375e+01 -5.114015e+02
      vertex -2.454792e+02 1.421163e+01 -5.106236e+02
    endloop
  endfacet
  facet normal 9.834093e-01 1.169646e-02 -1.810228e-01
    outer loop
      vertex -2.314386e+02 1.545336e+01 -5.104650e+02
      vertex -2.314141e+02 1.382735e+01 -5.104371e+02
      vertex -2.314792e+02 1.383701e+01 -5.107899e+02
    endloop
  endfacet
  facet normal 9.085658e-01 6.507266e-03 -4.176910e-01
    outer loop
      vertex -2.313202e+02 1.544568e+01 -5.102077e+02
      vertex -2.314141e+02 1.382735e+01 -5.104371e+02
      vertex -2.314386e+02 1.545336e+01 -5.104650e+02
    endloop
  endfacet
  facet normal 8.929172e-01 1.200466e-02 -4.500609e-01
    outer loop
      vertex -2.313209e+02 1.504586e+01 -5.102196e+02
      vertex -2.314141e+02 1.382735e+01 -5.104371e+02
      vertex -2.313202e+02 1.544568e+01 -5.102077e+02
    endloop
  endfacet
  facet normal 1.000000e+00 0.000000e+00 0.000000e+00
    outer loop
      vertex -2.314792e+02 1.408574e+01 -5.137959e+02
      vertex -2.314792e+02 1.383701e+01 -5.107899e+02
      vertex -2.314792e+02 1.400173e+01 -5.168077e+02
    endloop
  endfacet
  facet normal 9.896997e-01 3.917234e-03 -1.431056e-01
    outer loop
      vertex -2.314386e+02 1.545336e+01 -5.104650e+02
      vertex -2.314792e+02 1.383701e+01 -5.107899e+02
      vertex -2.314792e+02 1.546173e+01 -5.107454e+02
    endloop
  endfacet
  facet normal 1.000000e+00 0.000000e+00 0.000000e+00
    outer loop
      vertex -2.314792e+02 1.426234e+01 -5.133308e+02
      vertex -2.314792e+02 1.546173e+01 -5.107454e+02
      vertex -2.314792e+02 1.383701e+01 -5.107899e+02
    endloop
  endfacet
  facet normal 1.000000e+00 0.000000e+00 0.000000e+00
    outer loop
      vertex -2.314792e+02 1.426234e+01 -5.133308e+02
      vertex -2.314792e+02 1.383701e+01 -5.107899e+02
      vertex -2.314792e+02 1.408574e+01 -5.137959e+02
    endloop
  endfacet
  facet normal 9.238795e-01 -1.047128e-02 3.825401e-01
    outer loop
      vertex -2.314792e+02 1.564136e+01 -5.167628e+02
      vertex -2.314792e+02 1.400173e+01 -5.168077e+02
      vertex -2.311892e+02 1.402088e+01 -5.175074e+02
    endloop
  endfacet
  facet normal 1.000000e+00 0.000000e+00 0.000000e+00
    outer loop
      vertex -2.314792e+02 1.520857e+01 -5.142221e+02
      vertex -2.314792e+02 1.400173e+01 -5.168077e+02
      vertex -2.314792e+02 1.564136e+01 -5.167628e+02
    endloop
  endfacet
  facet normal 1.000000e+00 0.000000e+00 0.000000e+00
    outer loop
      vertex -2.314792e+02 1.475485e+01 -5.144262e+02
      vertex -2.314792e+02 1.400173e+01 -5.168077e+02
      vertex -2.314792e+02 1.520857e+01 -5.142221e+02
    endloop
  endfacet
  facet normal 1.000000e+00 0.000000e+00 0.000000e+00
    outer loop
      vertex -2.314792e+02 1.428976e+01 -5.142496e+02
      vertex -2.314792e+02 1.400173e+01 -5.168077e+02
      vertex -2.314792e+02 1.475485e+01 -5.144262e+02
    endloop
  endfacet
  facet normal 1.000000e+00 0.000000e+00 0.000000e+00
    outer loop
      vertex -2.314792e+02 1.408574e+01 -5.137959e+02
      vertex -2.314792e+02 1.400173e+01 -5.168077e+02
      vertex -2.314792e+02 1.428976e+01 -5.142496e+02
    endloop
  endfacet
  facet normal 3.826834e-01 -2.527969e-02 9.235336e-01
    outer loop
      vertex -2.311892e+02 1.566225e+01 -5.174625e+02
      vertex -2.311892e+02 1.402088e+01 -5.175074e+02
      vertex -2.304892e+02 1.402882e+01 -5.177973e+02
    endloop
  endfacet
  facet normal 9.238794e-01 -1.047151e-02 3.825406e-01
    outer loop
      vertex -2.314792e+02 1.564136e+01 -5.167628e+02
      vertex -2.311892e+02 1.402088e+01 -5.175074e+02
      vertex -2.311892e+02 1.566225e+01 -5.174625e+02
    endloop
  endfacet
  facet normal 0.000000e+00 -9.996256e-01 -2.736278e-02
    outer loop
      vertex -1.136710e+02 1.467486e+01 -5.413986e+02
      vertex -2.294572e+02 1.402882e+01 -5.177973e+02
      vertex -2.304892e+02 1.402882e+01 -5.177973e+02
    endloop
  endfacet
  facet normal 0.000000e+00 -2.736278e-02 9.996256e-01
    outer loop
      vertex -2.294572e+02 1.567090e+01 -5.177523e+02
      vertex -2.304892e+02 1.402882e+01 -5.177973e+02
      vertex -2.294572e+02 1.402882e+01 -5.177973e+02
    endloop
  endfacet
  facet normal 0.000000e+00 -2.736278e-02 9.996256e-01
    outer loop
      vertex -2.304892e+02 1.567090e+01 -5.177523e+02
      vertex -2.304892e+02 1.402882e+01 -5.177973e+02
      vertex -2.294572e+02 1.567090e+01 -5.177523e+02
    endloop
  endfacet
  facet normal 3.826830e-01 -2.527991e-02 9.235338e-01
    outer loop
      vertex -2.311892e+02 1.566225e+01 -5.174625e+02
      vertex -2.304892e+02 1.402882e+01 -5.177973e+02
      vertex -2.304892e+02 1.567090e+01 -5.177523e+02
    endloop
  endfacet
  facet normal 1.205469e-15 -9.996256e-01 -2.736278e-02
    outer loop
      vertex -1.136710e+02 1.467486e+01 -5.413986e+02
      vertex -2.287571e+02 1.402088e+01 -5.175074e+02
      vertex -2.294572e+02 1.402882e+01 -5.177973e+02
    endloop
  endfacet
  facet normal -3.826834e-01 -2.527991e-02 9.235336e-01
    outer loop
      vertex -2.294572e+02 1.567090e+01 -5.177523e+02
      vertex -2.294572e+02 1.402882e+01 -5.177973e+02
      vertex -2.287571e+02 1.402088e+01 -5.175074e+02
    endloop
  endfacet
  facet normal -3.654447e-16 -9.996256e-01 -2.736278e-02
    outer loop
      vertex -1.136710e+02 1.467486e+01 -5.413986e+02
      vertex -2.284672e+02 1.400173e+01 -5.168077e+02
      vertex -2.287571e+02 1.402088e+01 -5.175074e+02
    endloop
  endfacet
  facet normal -9.238795e-01 -1.047150e-02 3.825401e-01
    outer loop
      vertex -2.287571e+02 1.566225e+01 -5.174625e+02
      vertex -2.287571e+02 1.402088e+01 -5.175074e+02
      vertex -2.284672e+02 1.400173e+01 -5.168077e+02
    endloop
  endfacet
  facet normal -3.826830e-01 -2.527970e-02 9.235338e-01
    outer loop
      vertex -2.294572e+02 1.567090e+01 -5.177523e+02
      vertex -2.287571e+02 1.402088e+01 -5.175074e+02
      vertex -2.287571e+02 1.566225e+01 -5.174625e+02
    endloop
  endfacet
  facet normal 2.637615e-16 -9.996256e-01 -2.736278e-02
    outer loop
      vertex -1.136710e+02 1.467486e+01 -5.413986e+02
      vertex -2.284672e+02 1.395357e+01 -5.150483e+02
      vertex -2.284672e+02 1.400173e+01 -5.168077e+02
    endloop
  endfacet
  facet normal -1.000000e+00 0.000000e+00 0.000000e+00
    outer loop
      vertex -2.284672e+02 1.564136e+01 -5.167628e+02
      vertex -2.284672e+02 1.400173e+01 -5.168077e+02
      vertex -2.284672e+02 1.395357e+01 -5.150483e+02
    endloop
  endfacet
  facet normal -9.238794e-01 -1.047129e-02 3.825406e-01
    outer loop
      vertex -2.287571e+02 1.566225e+01 -5.174625e+02
      vertex -2.284672e+02 1.400173e+01 -5.168077e+02
      vertex -2.284672e+02 1.564136e+01 -5.167628e+02
    endloop
  endfacet
  facet normal 0.000000e+00 -9.996256e-01 -2.736278e-02
    outer loop
      vertex -1.136710e+02 1.467486e+01 -5.413986e+02
      vertex -2.244792e+02 1.395357e+01 -5.150483e+02
      vertex -2.284672e+02 1.395357e+01 -5.150483e+02
    endloop
  endfacet
  facet normal 0.000000e+00 -2.736278e-02 9.996256e-01
    outer loop
      vertex -2.284672e+02 1.558884e+01 -5.150036e+02
      vertex -2.284672e+02 1.395357e+01 -5.150483e+02
      vertex -2.244792e+02 1.395357e+01 -5.150483e+02
    endloop
  endfacet
  facet normal -1.000000e+00 0.000000e+00 0.000000e+00
    outer loop
      vertex -2.284672e+02 1.564136e+01 -5.167628e+02
      vertex -2.284672e+02 1.395357e+01 -5.150483e+02
      vertex -2.284672e+02 1.558884e+01 -5.150036e+02
    endloop
  endfacet
  facet normal -3.026209e-15 -9.996256e-01 -2.736278e-02
    outer loop
      vertex -1.136710e+02 1.467486e+01 -5.413986e+02
      vertex -2.241274e+02 1.395180e+01 -5.149837e+02
      vertex -2.244792e+02 1.395357e+01 -5.150483e+02
    endloop
  endfacet
  facet normal -1.806877e-01 -2.691240e-02 9.831723e-01
    outer loop
      vertex -2.244792e+02 1.558884e+01 -5.150036e+02
      vertex -2.244792e+02 1.395357e+01 -5.150483e+02
      vertex -2.241274e+02 1.395180e+01 -5.149837e+02
    endloop
  endfacet
  facet normal 0.000000e+00 -2.736278e-02 9.996256e-01
    outer loop
      vertex -2.284672e+02 1.558884e+01 -5.150036e+02
      vertex -2.244792e+02 1.395357e+01 -5.150483e+02
      vertex -2.244792e+02 1.558884e+01 -5.150036e+02
    endloop
  endfacet
  facet normal 8.708698e-16 -9.996256e-01 -2.736278e-02
    outer loop
      vertex -1.136710e+02 1.467486e+01 -5.413986e+02
      vertex -2.238215e+02 1.394673e+01 -5.147984e+02
      vertex -2.241274e+02 1.395180e+01 -5.149837e+02
    endloop
  endfacet
  facet normal -5.183328e-01 -2.340009e-02 8.548588e-01
    outer loop
      vertex -2.241274e+02 1.558691e+01 -5.149390e+02
      vertex -2.241274e+02 1.395180e+01 -5.149837e+02
      vertex -2.238215e+02 1.394673e+01 -5.147984e+02
    endloop
  endfacet
  facet normal -1.806876e-01 -2.691238e-02 9.831723e-01
    outer loop
      vertex -2.244792e+02 1.558884e+01 -5.150036e+02
      vertex -2.241274e+02 1.395180e+01 -5.149837e+02
      vertex -2.241274e+02 1.558691e+01 -5.149390e+02
    endloop
  endfacet
  facet normal 0.000000e+00 -9.996256e-01 -2.736278e-02
    outer loop
      vertex -1.136710e+02 1.467486e+01 -5.413986e+02
      vertex -1.274792e+02 1.394673e+01 -5.147984e+02
      vertex -2.238215e+02 1.394673e+01 -5.147984e+02
    endloop
  endfacet
  facet normal 0.000000e+00 -2.736278e-02 9.996256e-01
    outer loop
      vertex -2.238215e+02 1.558138e+01 -5.147537e+02
      vertex -2.238215e+02 1.394673e+01 -5.147984e+02
      vertex -1.274792e+02 1.394673e+01 -5.147984e+02
    endloop
  endfacet
  facet normal -5.183327e-01 -2.340007e-02 8.548589e-01
    outer loop
      vertex -2.241274e+02 1.558691e+01 -5.149390e+02
      vertex -2.238215e+02 1.394673e+01 -5.147984e+02
      vertex -2.238215e+02 1.558138e+01 -5.147537e+02
    endloop
  endfacet
  facet normal -2.253998e-15 -9.996256e-01 -2.736278e-02
    outer loop
      vertex -1.136710e+02 1.467486e+01 -5.413986e+02
      vertex -1.266132e+02 1.393305e+01 -5.142986e+02
      vertex -1.274792e+02 1.394673e+01 -5.147984e+02
    endloop
  endfacet
  facet normal -4.999861e-01 -2.369708e-02 8.657091e-01
    outer loop
      vertex -1.274792e+02 1.558138e+01 -5.147537e+02
      vertex -1.274792e+02 1.394673e+01 -5.147984e+02
      vertex -1.266132e+02 1.393305e+01 -5.142986e+02
    endloop
  endfacet
  facet normal 0.000000e+00 -2.736278e-02 9.996256e-01
    outer loop
      vertex -2.238215e+02 1.558138e+01 -5.147537e+02
      vertex -1.274792e+02 1.394673e+01 -5.147984e+02
      vertex -1.274792e+02 1.558138e+01 -5.147537e+02
    endloop
  endfacet
  facet normal 3.293806e-15 -9.996256e-01 -2.736278e-02
    outer loop
      vertex -1.136710e+02 1.467486e+01 -5.413986e+02
      vertex -1.266132e+02 1.390569e+01 -5.132989e+02
      vertex -1.266132e+02 1.393305e+01 -5.142986e+02
    endloop
  endfacet
  facet normal -1.000000e+00 -2.500882e-07 -6.845671e-09
    outer loop
      vertex -1.266132e+02 1.556647e+01 -5.142539e+02
      vertex -1.266132e+02 1.393305e+01 -5.142986e+02
      vertex -1.266132e+02 1.390569e+01 -5.132989e+02
    endloop
  endfacet
  facet normal -4.999858e-01 -2.369683e-02 8.657093e-01
    outer loop
      vertex -1.274792e+02 1.558138e+01 -5.147537e+02
      vertex -1.266132e+02 1.393305e+01 -5.142986e+02
      vertex -1.266132e+02 1.556647e+01 -5.142539e+02
    endloop
  endfacet
  facet normal -4.999861e-01 2.369733e-02 -8.657091e-01
    outer loop
      vertex -1.266132e+02 1.553662e+01 -5.132543e+02
      vertex -1.266132e+02 1.390569e+01 -5.132989e+02
      vertex -1.274792e+02 1.389201e+01 -5.127992e+02
    endloop
  endfacet
  facet normal -1.009940e-14 -9.996256e-01 -2.736278e-02
    outer loop
      vertex -1.135658e+02 1.466558e+01 -5.410595e+02
      vertex -1.134848e+02 1.465610e+01 -5.407134e+02
      vertex -1.266132e+02 1.390569e+01 -5.132989e+02
    endloop
  endfacet
  facet normal 9.278836e-15 -9.996256e-01 -2.736278e-02
    outer loop
      vertex -1.136710e+02 1.467486e+01 -5.413986e+02
      vertex -1.135658e+02 1.466558e+01 -5.410595e+02
      vertex -1.266132e+02 1.390569e+01 -5.132989e+02
    endloop
  endfacet
  facet normal -1.000000e+00 -2.496974e-07 -6.165978e-09
    outer loop
      vertex -1.266132e+02 1.556647e+01 -5.142539e+02
      vertex -1.266132e+02 1.390569e+01 -5.132989e+02
      vertex -1.266132e+02 1.553662e+01 -5.132543e+02
    endloop
  endfacet
  facet normal 0.000000e+00 -9.996256e-01 -2.736278e-02
    outer loop
      vertex -2.241274e+02 1.388693e+01 -5.126139e+02
      vertex -2.238215e+02 1.389201e+01 -5.127992e+02
      vertex -1.274792e+02 1.389201e+01 -5.127992e+02
    endloop
  endfacet
  facet normal 0.000000e+00 2.736278e-02 -9.996256e-01
    outer loop
      vertex -1.274792e+02 1.552171e+01 -5.127546e+02
      vertex -1.274792e+02 1.389201e+01 -5.127992e+02
      vertex -2.238215e+02 1.389201e+01 -5.127992e+02
    endloop
  endfacet
  facet normal -4.999858e-01 2.369708e-02 -8.657093e-01
    outer loop
      vertex -1.266132e+02 1.553662e+01 -5.132543e+02
      vertex -1.274792e+02 1.389201e+01 -5.127992e+02
      vertex -1.274792e+02 1.552171e+01 -5.127546e+02
    endloop
  endfacet
  facet normal -5.183328e-01 2.340007e-02 -8.548588e-01
    outer loop
      vertex -2.238215e+02 1.552171e+01 -5.127546e+02
      vertex -2.238215e+02 1.389201e+01 -5.127992e+02
      vertex -2.241274e+02 1.388693e+01 -5.126139e+02
    endloop
  endfacet
  facet normal 0.000000e+00 2.736278e-02 -9.996256e-01
    outer loop
      vertex -1.274792e+02 1.552171e+01 -5.127546e+02
      vertex -2.238215e+02 1.389201e+01 -5.127992e+02
      vertex -2.238215e+02 1.552171e+01 -5.127546e+02
    endloop
  endfacet
  facet normal -1.806877e-01 2.691242e-02 -9.831723e-01
    outer loop
      vertex -2.241274e+02 1.551618e+01 -5.125693e+02
      vertex -2.241274e+02 1.388693e+01 -5.126139e+02
      vertex -2.244792e+02 1.388516e+01 -5.125493e+02
    endloop
  endfacet
  facet normal -5.183327e-01 2.340006e-02 -8.548589e-01
    outer loop
      vertex -2.238215e+02 1.552171e+01 -5.127546e+02
      vertex -2.241274e+02 1.388693e+01 -5.126139e+02
      vertex -2.241274e+02 1.551618e+01 -5.125693e+02
    endloop
  endfacet
  facet normal 0.000000e+00 -9.996256e-01 -2.736278e-02
    outer loop
      vertex -2.284672e+02 1.383701e+01 -5.107899e+02
      vertex -2.284672e+02 1.388516e+01 -5.125493e+02
      vertex -2.244792e+02 1.388516e+01 -5.125493e+02
    endloop
  endfacet
  facet normal 0.000000e+00 2.736278e-02 -9.996256e-01
    outer loop
      vertex -2.244792e+02 1.551425e+01 -5.125047e+02
      vertex -2.244792e+02 1.388516e+01 -5.125493e+02
      vertex -2.284672e+02 1.388516e+01 -5.125493e+02
    endloop
  endfacet
  facet normal 1.169917e-15 -9.996256e-01 -2.736278e-02
    outer loop
      vertex -2.285322e+02 1.382735e+01 -5.104371e+02
      vertex -2.284672e+02 1.383701e+01 -5.107899e+02
      vertex -2.244792e+02 1.388516e+01 -5.125493e+02
    endloop
  endfacet
  facet normal -1.806876e-01 2.691240e-02 -9.831723e-01
    outer loop
      vertex -2.241274e+02 1.551618e+01 -5.125693e+02
      vertex -2.244792e+02 1.388516e+01 -5.125493e+02
      vertex -2.244792e+02 1.551425e+01 -5.125047e+02
    endloop
  endfacet
  facet normal -1.000000e+00 0.000000e+00 0.000000e+00
    outer loop
      vertex -2.284672e+02 1.551425e+01 -5.125047e+02
      vertex -2.284672e+02 1.388516e+01 -5.125493e+02
      vertex -2.284672e+02 1.383701e+01 -5.107899e+02
    endloop
  endfacet
  facet normal 0.000000e+00 2.736278e-02 -9.996256e-01
    outer loop
      vertex -2.244792e+02 1.551425e+01 -5.125047e+02
      vertex -2.284672e+02 1.388516e+01 -5.125493e+02
      vertex -2.284672e+02 1.551425e+01 -5.125047e+02
    endloop
  endfacet
  facet normal -9.834317e-01 4.960302e-03 -1.812113e-01
    outer loop
      vertex -2.284672e+02 1.546173e+01 -5.107454e+02
      vertex -2.284672e+02 1.383701e+01 -5.107899e+02
      vertex -2.285322e+02 1.382735e+01 -5.104371e+02
    endloop
  endfacet
  facet normal -1.000000e+00 0.000000e+00 0.000000e+00
    outer loop
      vertex -2.284672e+02 1.551425e+01 -5.125047e+02
      vertex -2.284672e+02 1.383701e+01 -5.107899e+02
      vertex -2.284672e+02 1.546173e+01 -5.107454e+02
    endloop
  endfacet
  facet normal -9.896666e-01 1.244598e-02 -1.428462e-01
    outer loop
      vertex -2.284672e+02 1.546173e+01 -5.107454e+02
      vertex -2.285322e+02 1.382735e+01 -5.104371e+02
      vertex -2.285077e+02 1.545336e+01 -5.104650e+02
    endloop
  endfacet
  facet normal -9.056869e-01 6.357353e-03 -4.238996e-01
    outer loop
      vertex -2.286255e+02 1.504586e+01 -5.102196e+02
      vertex -2.285077e+02 1.545336e+01 -5.104650e+02
      vertex -2.285322e+02 1.382735e+01 -5.104371e+02
    endloop
  endfacet
  facet normal -8.318020e-16 -9.996256e-01 -2.736278e-02
    outer loop
      vertex -1.113089e+02 1.425679e+01 -5.261254e+02
      vertex -1.104866e+02 1.385369e+01 -5.113992e+02
      vertex -1.111109e+02 1.383993e+01 -5.108968e+02
    endloop
  endfacet
  facet normal 3.369077e-01 -8.545750e-01 3.952148e-01
    outer loop
      vertex -1.104813e+02 1.419481e+01 -5.106662e+02
      vertex -1.111109e+02 1.383993e+01 -5.108968e+02
      vertex -1.104866e+02 1.385369e+01 -5.113992e+02
    endloop
  endfacet
  facet normal 4.250778e-01 -8.831343e-01 1.984505e-01
    outer loop
      vertex -1.104813e+02 1.419481e+01 -5.106662e+02
      vertex -1.104794e+02 1.431910e+01 -5.101171e+02
      vertex -1.111109e+02 1.383993e+01 -5.108968e+02
    endloop
  endfacet
  facet normal 9.984399e-01 -1.875432e-03 -5.580560e-02
    outer loop
      vertex -1.104878e+02 1.548353e+01 -5.114757e+02
      vertex -1.104866e+02 1.385369e+01 -5.113992e+02
      vertex -1.113089e+02 1.425679e+01 -5.261254e+02
    endloop
  endfacet
  facet normal 9.999664e-01 3.598329e-04 -8.183703e-03
    outer loop
      vertex -1.104822e+02 1.511937e+01 -5.108023e+02
      vertex -1.104866e+02 1.385369e+01 -5.113992e+02
      vertex -1.104878e+02 1.548353e+01 -5.114757e+02
    endloop
  endfacet
  facet normal 9.999738e-01 -8.510113e-05 -7.240338e-03
    outer loop
      vertex -1.104813e+02 1.419481e+01 -5.106662e+02
      vertex -1.104866e+02 1.385369e+01 -5.113992e+02
      vertex -1.104822e+02 1.511937e+01 -5.108023e+02
    endloop
  endfacet
  facet normal 9.890650e-01 2.418888e-03 -1.474603e-01
    outer loop
      vertex -1.113149e+02 1.592123e+01 -5.261382e+02
      vertex -1.113089e+02 1.425679e+01 -5.261254e+02
      vertex -1.134848e+02 1.465610e+01 -5.407134e+02
    endloop
  endfacet
  facet normal 9.984132e-01 3.149871e-03 -5.622491e-02
    outer loop
      vertex -1.104878e+02 1.548353e+01 -5.114757e+02
      vertex -1.113089e+02 1.425679e+01 -5.261254e+02
      vertex -1.113149e+02 1.592123e+01 -5.261382e+02
    endloop
  endfacet
  facet normal 9.737339e-01 6.319510e-03 -2.276011e-01
    outer loop
      vertex -1.134840e+02 1.635481e+01 -5.406627e+02
      vertex -1.134848e+02 1.465610e+01 -5.407134e+02
      vertex -1.135658e+02 1.466558e+01 -5.410595e+02
    endloop
  endfacet
  facet normal 9.890412e-01 3.924332e-03 -1.475874e-01
    outer loop
      vertex -1.113149e+02 1.592123e+01 -5.261382e+02
      vertex -1.134848e+02 1.465610e+01 -5.407134e+02
      vertex -1.134840e+02 1.635481e+01 -5.406627e+02
    endloop
  endfacet
  facet normal 9.549945e-01 2.322681e-02 -2.957126e-01
    outer loop
      vertex -1.134840e+02 1.635481e+01 -5.406627e+02
      vertex -1.135658e+02 1.466558e+01 -5.410595e+02
      vertex -1.136710e+02 1.467486e+01 -5.413986e+02
    endloop
  endfacet
  facet normal 9.647390e-01 7.853716e-03 -2.630913e-01
    outer loop
      vertex -1.134840e+02 1.635481e+01 -5.406627e+02
      vertex -1.136710e+02 1.467486e+01 -5.413986e+02
      vertex -1.136710e+02 1.557162e+01 -5.413718e+02
    endloop
  endfacet
  facet normal 7.935332e-01 -1.004606e-01 -6.001772e-01
    outer loop
      vertex -1.152147e+02 1.644125e+01 -5.435583e+02
      vertex -1.136710e+02 1.557162e+01 -5.413718e+02
      vertex -1.154969e+02 1.564405e+01 -5.437981e+02
    endloop
  endfacet
  facet normal 8.352289e-01 2.458943e-01 -4.918624e-01
    outer loop
      vertex -1.134840e+02 1.635481e+01 -5.406627e+02
      vertex -1.136710e+02 1.557162e+01 -5.413718e+02
      vertex -1.152147e+02 1.644125e+01 -5.435583e+02
    endloop
  endfacet
  facet normal 0.000000e+00 -9.995547e-01 -2.983838e-02
    outer loop
      vertex -1.194792e+02 1.564311e+01 -5.437667e+02
      vertex -1.194792e+02 1.567158e+01 -5.447203e+02
      vertex -1.183909e+02 1.567158e+01 -5.447203e+02
    endloop
  endfacet
  facet normal 0.000000e+00 2.983838e-02 -9.995547e-01
    outer loop
      vertex -1.183909e+02 1.647522e+01 -5.446963e+02
      vertex -1.183909e+02 1.567158e+01 -5.447203e+02
      vertex -1.194792e+02 1.567158e+01 -5.447203e+02
    endloop
  endfacet
  facet normal 5.972805e-16 -9.995547e-01 -2.983838e-02
    outer loop
      vertex -1.154969e+02 1.564405e+01 -5.437981e+02
      vertex -1.194792e+02 1.564311e+01 -5.437667e+02
      vertex -1.183909e+02 1.567158e+01 -5.447203e+02
    endloop
  endfacet
  facet normal 3.004308e-01 1.755383e-01 -9.375114e-01
    outer loop
      vertex -1.152147e+02 1.644125e+01 -5.435583e+02
      vertex -1.154969e+02 1.564405e+01 -5.437981e+02
      vertex -1.183909e+02 1.567158e+01 -5.447203e+02
    endloop
  endfacet
  facet normal 3.374144e-01 2.808855e-02 -9.409371e-01
    outer loop
      vertex -1.152147e+02 1.644125e+01 -5.435583e+02
      vertex -1.183909e+02 1.567158e+01 -5.447203e+02
      vertex -1.183909e+02 1.647522e+01 -5.446963e+02
    endloop
  endfacet
  facet normal 1.000000e+00 1.699794e-13 5.074169e-15
    outer loop
      vertex -1.194792e+02 1.550452e+01 -5.447253e+02
      vertex -1.194792e+02 1.567158e+01 -5.447203e+02
      vertex -1.194792e+02 1.564311e+01 -5.437667e+02
    endloop
  endfacet
  facet normal 1.000000e+00 3.145969e-14 8.611470e-16
    outer loop
      vertex -1.194792e+02 1.474637e+01 -5.440111e+02
      vertex -1.194792e+02 1.564311e+01 -5.437667e+02
      vertex -1.194792e+02 1.474042e+01 -5.437937e+02
    endloop
  endfacet
  facet normal 1.000000e+00 2.458318e-14 2.609604e-14
    outer loop
      vertex -1.194792e+02 1.550452e+01 -5.447253e+02
      vertex -1.194792e+02 1.564311e+01 -5.437667e+02
      vertex -1.194792e+02 1.474637e+01 -5.440111e+02
    endloop
  endfacet
  facet normal -3.497712e-16 9.995547e-01 2.983838e-02
    outer loop
      vertex -1.113462e+02 1.544568e+01 -5.102077e+02
      vertex -1.152147e+02 1.644125e+01 -5.435583e+02
      vertex -1.183909e+02 1.647522e+01 -5.446963e+02
    endloop
  endfacet
  facet normal -1.943017e-16 9.995547e-01 2.983838e-02
    outer loop
      vertex -1.266132e+02 1.556647e+01 -5.142539e+02
      vertex -1.113462e+02 1.544568e+01 -5.102077e+02
      vertex -1.183909e+02 1.647522e+01 -5.446963e+02
    endloop
  endfacet
  facet normal -2.895266e-16 9.995547e-01 2.983838e-02
    outer loop
      vertex -1.274792e+02 1.558138e+01 -5.147537e+02
      vertex -1.266132e+02 1.556647e+01 -5.142539e+02
      vertex -1.183909e+02 1.647522e+01 -5.446963e+02
    endloop
  endfacet
  facet normal 1.432727e-17 9.995547e-01 2.983838e-02
    outer loop
      vertex -2.504792e+02 1.630671e+01 -5.390512e+02
      vertex -1.274792e+02 1.558138e+01 -5.147537e+02
      vertex -1.183909e+02 1.647522e+01 -5.446963e+02
    endloop
  endfacet
  facet normal 6.870593e-16 9.995547e-01 2.983838e-02
    outer loop
      vertex -1.113462e+02 1.544568e+01 -5.102077e+02
      vertex -1.134840e+02 1.635481e+01 -5.406627e+02
      vertex -1.152147e+02 1.644125e+01 -5.435583e+02
    endloop
  endfacet
  facet normal 1.622893e-15 9.995547e-01 2.983838e-02
    outer loop
      vertex -1.113462e+02 1.544568e+01 -5.102077e+02
      vertex -1.113149e+02 1.592123e+01 -5.261382e+02
      vertex -1.134840e+02 1.635481e+01 -5.406627e+02
    endloop
  endfacet
  facet normal -1.445322e-15 9.995547e-01 2.983838e-02
    outer loop
      vertex -1.111114e+02 1.546853e+01 -5.109733e+02
      vertex -1.104878e+02 1.548353e+01 -5.114757e+02
      vertex -1.113149e+02 1.592123e+01 -5.261382e+02
    endloop
  endfacet
  facet normal 7.061069e-15 9.995547e-01 2.983838e-02
    outer loop
      vertex -1.113462e+02 1.544568e+01 -5.102077e+02
      vertex -1.111114e+02 1.546853e+01 -5.109733e+02
      vertex -1.113149e+02 1.592123e+01 -5.261382e+02
    endloop
  endfacet
  facet normal 3.388806e-01 8.287529e-01 4.453409e-01
    outer loop
      vertex -1.104822e+02 1.511937e+01 -5.108023e+02
      vertex -1.104878e+02 1.548353e+01 -5.114757e+02
      vertex -1.111114e+02 1.546853e+01 -5.109733e+02
    endloop
  endfacet
  facet normal 4.445789e-01 8.808473e-01 1.626580e-01
    outer loop
      vertex -1.104822e+02 1.511937e+01 -5.108023e+02
      vertex -1.111114e+02 1.546853e+01 -5.109733e+02
      vertex -1.113462e+02 1.544568e+01 -5.102077e+02
    endloop
  endfacet
  facet normal 0.000000e+00 9.995547e-01 2.983838e-02
    outer loop
      vertex -2.285077e+02 1.545336e+01 -5.104650e+02
      vertex -2.286261e+02 1.544568e+01 -5.102077e+02
      vertex -1.113462e+02 1.544568e+01 -5.102077e+02
    endloop
  endfacet
  facet normal 0.000000e+00 -2.983838e-02 9.995547e-01
    outer loop
      vertex -2.286255e+02 1.504586e+01 -5.102196e+02
      vertex -1.113462e+02 1.544568e+01 -5.102077e+02
      vertex -2.286261e+02 1.544568e+01 -5.102077e+02
    endloop
  endfacet
  facet normal 2.859679e-17 9.995547e-01 2.983838e-02
    outer loop
      vertex -2.284672e+02 1.546173e+01 -5.107454e+02
      vertex -2.285077e+02 1.545336e+01 -5.104650e+02
      vertex -1.113462e+02 1.544568e+01 -5.102077e+02
    endloop
  endfacet
  facet normal -1.763896e-17 9.995547e-01 2.983838e-02
    outer loop
      vertex -2.284672e+02 1.551425e+01 -5.125047e+02
      vertex -2.284672e+02 1.546173e+01 -5.107454e+02
      vertex -1.113462e+02 1.544568e+01 -5.102077e+02
    endloop
  endfacet
  facet normal 0.000000e+00 9.995547e-01 2.983838e-02
    outer loop
      vertex -2.244792e+02 1.551425e+01 -5.125047e+02
      vertex -2.284672e+02 1.551425e+01 -5.125047e+02
      vertex -1.113462e+02 1.544568e+01 -5.102077e+02
    endloop
  endfacet
  facet normal -8.264982e-16 9.995547e-01 2.983838e-02
    outer loop
      vertex -2.241274e+02 1.551618e+01 -5.125693e+02
      vertex -2.244792e+02 1.551425e+01 -5.125047e+02
      vertex -1.113462e+02 1.544568e+01 -5.102077e+02
    endloop
  endfacet
  facet normal 6.921706e-17 9.995547e-01 2.983838e-02
    outer loop
      vertex -2.238215e+02 1.552171e+01 -5.127546e+02
      vertex -2.241274e+02 1.551618e+01 -5.125693e+02
      vertex -1.113462e+02 1.544568e+01 -5.102077e+02
    endloop
  endfacet
  facet normal 0.000000e+00 9.995547e-01 2.983838e-02
    outer loop
      vertex -1.274792e+02 1.552171e+01 -5.127546e+02
      vertex -2.238215e+02 1.552171e+01 -5.127546e+02
      vertex -1.113462e+02 1.544568e+01 -5.102077e+02
    endloop
  endfacet
  facet normal -2.114291e-16 9.995547e-01 2.983838e-02
    outer loop
      vertex -1.266132e+02 1.553662e+01 -5.132543e+02
      vertex -1.274792e+02 1.552171e+01 -5.127546e+02
      vertex -1.113462e+02 1.544568e+01 -5.102077e+02
    endloop
  endfacet
  facet normal 9.789172e-16 9.995547e-01 2.983838e-02
    outer loop
      vertex -1.266132e+02 1.556647e+01 -5.142539e+02
      vertex -1.266132e+02 1.553662e+01 -5.132543e+02
      vertex -1.113462e+02 1.544568e+01 -5.102077e+02
    endloop
  endfacet
  facet normal 0.000000e+00 -2.983838e-02 9.995547e-01
    outer loop
      vertex -2.286255e+02 1.504586e+01 -5.102196e+02
      vertex -1.106534e+02 1.504586e+01 -5.102196e+02
      vertex -1.113462e+02 1.544568e+01 -5.102077e+02
    endloop
  endfacet
  facet normal 4.873250e-01 8.370199e-01 2.488214e-01
    outer loop
      vertex -1.104822e+02 1.511937e+01 -5.108023e+02
      vertex -1.113462e+02 1.544568e+01 -5.102077e+02
      vertex -1.106534e+02 1.504586e+01 -5.102196e+02
    endloop
  endfacet
  facet normal -9.085810e-01 1.100947e-02 -4.175636e-01
    outer loop
      vertex -2.286255e+02 1.504586e+01 -5.102196e+02
      vertex -2.286261e+02 1.544568e+01 -5.102077e+02
      vertex -2.285077e+02 1.545336e+01 -5.104650e+02
    endloop
  endfacet
  facet normal 0.000000e+00 9.995547e-01 2.983838e-02
    outer loop
      vertex -2.469436e+02 1.626301e+01 -5.375874e+02
      vertex -2.238215e+02 1.558138e+01 -5.147537e+02
      vertex -1.274792e+02 1.558138e+01 -5.147537e+02
    endloop
  endfacet
  facet normal -9.170528e-16 9.995547e-01 2.983838e-02
    outer loop
      vertex -2.504792e+02 1.630671e+01 -5.390512e+02
      vertex -2.469436e+02 1.626301e+01 -5.375874e+02
      vertex -1.274792e+02 1.558138e+01 -5.147537e+02
    endloop
  endfacet
  facet normal 3.683925e-14 9.995547e-01 2.983838e-02
    outer loop
      vertex -2.469436e+02 1.626301e+01 -5.375874e+02
      vertex -2.241274e+02 1.558691e+01 -5.149390e+02
      vertex -2.238215e+02 1.558138e+01 -5.147537e+02
    endloop
  endfacet
  facet normal -1.093656e-15 9.995547e-01 2.983838e-02
    outer loop
      vertex -2.469436e+02 1.626301e+01 -5.375874e+02
      vertex -2.244792e+02 1.558884e+01 -5.150036e+02
      vertex -2.241274e+02 1.558691e+01 -5.149390e+02
    endloop
  endfacet
  facet normal 0.000000e+00 9.995547e-01 2.983838e-02
    outer loop
      vertex -2.284672e+02 1.564136e+01 -5.167628e+02
      vertex -2.284672e+02 1.558884e+01 -5.150036e+02
      vertex -2.244792e+02 1.558884e+01 -5.150036e+02
    endloop
  endfacet
  facet normal -1.931345e-15 9.995547e-01 2.983838e-02
    outer loop
      vertex -2.287571e+02 1.566225e+01 -5.174625e+02
      vertex -2.284672e+02 1.564136e+01 -5.167628e+02
      vertex -2.244792e+02 1.558884e+01 -5.150036e+02
    endloop
  endfacet
  facet normal 3.862369e-16 9.995547e-01 2.983838e-02
    outer loop
      vertex -2.469436e+02 1.626301e+01 -5.375874e+02
      vertex -2.287571e+02 1.566225e+01 -5.174625e+02
      vertex -2.244792e+02 1.558884e+01 -5.150036e+02
    endloop
  endfacet
  facet normal -8.055172e-16 9.995547e-01 2.983838e-02
    outer loop
      vertex -2.469436e+02 1.626301e+01 -5.375874e+02
      vertex -2.294572e+02 1.567090e+01 -5.177523e+02
      vertex -2.287571e+02 1.566225e+01 -5.174625e+02
    endloop
  endfacet
  facet normal 0.000000e+00 9.995547e-01 2.983838e-02
    outer loop
      vertex -2.469436e+02 1.626301e+01 -5.375874e+02
      vertex -2.304892e+02 1.567090e+01 -5.177523e+02
      vertex -2.294572e+02 1.567090e+01 -5.177523e+02
    endloop
  endfacet
  facet normal 3.807303e-16 9.995547e-01 2.983838e-02
    outer loop
      vertex -2.469436e+02 1.626301e+01 -5.375874e+02
      vertex -2.311892e+02 1.566225e+01 -5.174625e+02
      vertex -2.304892e+02 1.567090e+01 -5.177523e+02
    endloop
  endfacet
  facet normal -2.422282e-15 9.995547e-01 2.983838e-02
    outer loop
      vertex -2.469436e+02 1.626301e+01 -5.375874e+02
      vertex -2.314792e+02 1.564136e+01 -5.167628e+02
      vertex -2.311892e+02 1.566225e+01 -5.174625e+02
    endloop
  endfacet
  facet normal -4.961014e-16 9.995547e-01 2.983838e-02
    outer loop
      vertex -2.469436e+02 1.626301e+01 -5.375874e+02
      vertex -2.314792e+02 1.546173e+01 -5.107454e+02
      vertex -2.314792e+02 1.564136e+01 -5.167628e+02
    endloop
  endfacet
  facet normal 1.000000e+00 0.000000e+00 0.000000e+00
    outer loop
      vertex -2.314792e+02 1.538517e+01 -5.137571e+02
      vertex -2.314792e+02 1.564136e+01 -5.167628e+02
      vertex -2.314792e+02 1.546173e+01 -5.107454e+02
    endloop
  endfacet
  facet normal 1.000000e+00 0.000000e+00 0.000000e+00
    outer loop
      vertex -2.314792e+02 1.520857e+01 -5.142221e+02
      vertex -2.314792e+02 1.564136e+01 -5.167628e+02
      vertex -2.314792e+02 1.538517e+01 -5.137571e+02
    endloop
  endfacet
  facet normal -2.625681e-16 9.995547e-01 2.983838e-02
    outer loop
      vertex -2.446131e+02 1.544568e+01 -5.102077e+02
      vertex -2.314386e+02 1.545336e+01 -5.104650e+02
      vertex -2.314792e+02 1.546173e+01 -5.107454e+02
    endloop
  endfacet
  facet normal 1.471830e-16 9.995547e-01 2.983838e-02
    outer loop
      vertex -2.454792e+02 1.615751e+01 -5.340534e+02
      vertex -2.446131e+02 1.544568e+01 -5.102077e+02
      vertex -2.314792e+02 1.546173e+01 -5.107454e+02
    endloop
  endfacet
  facet normal 2.806612e-15 9.995547e-01 2.983838e-02
    outer loop
      vertex -2.469436e+02 1.626301e+01 -5.375874e+02
      vertex -2.454792e+02 1.615751e+01 -5.340534e+02
      vertex -2.314792e+02 1.546173e+01 -5.107454e+02
    endloop
  endfacet
  facet normal 1.000000e+00 0.000000e+00 0.000000e+00
    outer loop
      vertex -2.314792e+02 1.518115e+01 -5.133033e+02
      vertex -2.314792e+02 1.538517e+01 -5.137571e+02
      vertex -2.314792e+02 1.546173e+01 -5.107454e+02
    endloop
  endfacet
  facet normal 1.000000e+00 0.000000e+00 0.000000e+00
    outer loop
      vertex -2.314792e+02 1.471606e+01 -5.131267e+02
      vertex -2.314792e+02 1.546173e+01 -5.107454e+02
      vertex -2.314792e+02 1.426234e+01 -5.133308e+02
    endloop
  endfacet
  facet normal 1.000000e+00 0.000000e+00 0.000000e+00
    outer loop
      vertex -2.314792e+02 1.518115e+01 -5.133033e+02
      vertex -2.314792e+02 1.546173e+01 -5.107454e+02
      vertex -2.314792e+02 1.471606e+01 -5.131267e+02
    endloop
  endfacet
  facet normal 0.000000e+00 9.995547e-01 2.983838e-02
    outer loop
      vertex -2.446131e+02 1.544568e+01 -5.102077e+02
      vertex -2.313202e+02 1.544568e+01 -5.102077e+02
      vertex -2.314386e+02 1.545336e+01 -5.104650e+02
    endloop
  endfacet
  facet normal 0.000000e+00 -2.983838e-02 9.995547e-01
    outer loop
      vertex -2.313209e+02 1.504586e+01 -5.102196e+02
      vertex -2.313202e+02 1.544568e+01 -5.102077e+02
      vertex -2.446131e+02 1.544568e+01 -5.102077e+02
    endloop
  endfacet
  facet normal -2.135503e-15 9.995547e-01 2.983838e-02
    outer loop
      vertex -2.454792e+02 1.615751e+01 -5.340534e+02
      vertex -2.448503e+02 1.546863e+01 -5.109765e+02
      vertex -2.446131e+02 1.544568e+01 -5.102077e+02
    endloop
  endfacet
  facet normal -4.941633e-01 8.509889e-01 1.778218e-01
    outer loop
      vertex -2.453060e+02 1.504586e+01 -5.102196e+02
      vertex -2.446131e+02 1.544568e+01 -5.102077e+02
      vertex -2.448503e+02 1.546863e+01 -5.109765e+02
    endloop
  endfacet
  facet normal 0.000000e+00 -2.983838e-02 9.995547e-01
    outer loop
      vertex -2.453060e+02 1.504586e+01 -5.102196e+02
      vertex -2.313209e+02 1.504586e+01 -5.102196e+02
      vertex -2.446131e+02 1.544568e+01 -5.102077e+02
    endloop
  endfacet
  facet normal 5.002511e-16 9.995547e-01 2.983838e-02
    outer loop
      vertex -2.454792e+02 1.615751e+01 -5.340534e+02
      vertex -2.454792e+02 1.548361e+01 -5.114783e+02
      vertex -2.448503e+02 1.546863e+01 -5.109765e+02
    endloop
  endfacet
  facet normal -3.332308e-01 8.325895e-01 4.424387e-01
    outer loop
      vertex -2.454792e+02 1.508211e+01 -5.107228e+02
      vertex -2.448503e+02 1.546863e+01 -5.109765e+02
      vertex -2.454792e+02 1.548361e+01 -5.114783e+02
    endloop
  endfacet
  facet normal -4.941633e-01 8.509889e-01 1.778218e-01
    outer loop
      vertex -2.454792e+02 1.494590e+01 -5.102226e+02
      vertex -2.453060e+02 1.504586e+01 -5.102196e+02
      vertex -2.448503e+02 1.546863e+01 -5.109765e+02
    endloop
  endfacet
  facet normal -4.378447e-01 8.674617e-01 2.362249e-01
    outer loop
      vertex -2.454792e+02 1.494590e+01 -5.102226e+02
      vertex -2.448503e+02 1.546863e+01 -5.109765e+02
      vertex -2.454792e+02 1.508211e+01 -5.107228e+02
    endloop
  endfacet
  facet normal -1.000000e+00 0.000000e+00 0.000000e+00
    outer loop
      vertex -2.454792e+02 1.538517e+01 -5.137571e+02
      vertex -2.454792e+02 1.548361e+01 -5.114783e+02
      vertex -2.454792e+02 1.615751e+01 -5.340534e+02
    endloop
  endfacet
  facet normal -1.000000e+00 0.000000e+00 0.000000e+00
    outer loop
      vertex -2.454792e+02 1.518115e+01 -5.133033e+02
      vertex -2.454792e+02 1.548361e+01 -5.114783e+02
      vertex -2.454792e+02 1.538517e+01 -5.137571e+02
    endloop
  endfacet
  facet normal -1.000000e+00 0.000000e+00 0.000000e+00
    outer loop
      vertex -2.454792e+02 1.518115e+01 -5.133033e+02
      vertex -2.454792e+02 1.471606e+01 -5.131267e+02
      vertex -2.454792e+02 1.548361e+01 -5.114783e+02
    endloop
  endfacet
  facet normal -1.000000e+00 0.000000e+00 0.000000e+00
    outer loop
      vertex -2.454792e+02 1.520857e+01 -5.142221e+02
      vertex -2.454792e+02 1.538517e+01 -5.137571e+02
      vertex -2.454792e+02 1.615751e+01 -5.340534e+02
    endloop
  endfacet
  facet normal -1.000000e+00 0.000000e+00 0.000000e+00
    outer loop
      vertex -2.454792e+02 1.475485e+01 -5.144262e+02
      vertex -2.454792e+02 1.520857e+01 -5.142221e+02
      vertex -2.454792e+02 1.615751e+01 -5.340534e+02
    endloop
  endfacet
  facet normal -1.000000e+00 0.000000e+00 0.000000e+00
    outer loop
      vertex -2.454792e+02 1.428976e+01 -5.142496e+02
      vertex -2.454792e+02 1.475485e+01 -5.144262e+02
      vertex -2.454792e+02 1.615751e+01 -5.340534e+02
    endloop
  endfacet
  facet normal -1.000000e+00 0.000000e+00 0.000000e+00
    outer loop
      vertex -2.454792e+02 1.408574e+01 -5.137959e+02
      vertex -2.454792e+02 1.428976e+01 -5.142496e+02
      vertex -2.454792e+02 1.615751e+01 -5.340534e+02
    endloop
  endfacet
  facet normal 0.000000e+00 9.995547e-01 2.983838e-02
    outer loop
      vertex -2.893046e+02 1.633179e+01 -5.398914e+02
      vertex -2.884318e+02 1.630671e+01 -5.390512e+02
      vertex -2.504792e+02 1.630671e+01 -5.390512e+02
    endloop
  endfacet
  facet normal -1.637145e-16 9.995547e-01 2.983838e-02
    outer loop
      vertex -2.904792e+02 1.634095e+01 -5.401983e+02
      vertex -2.893046e+02 1.633179e+01 -5.398914e+02
      vertex -2.504792e+02 1.630671e+01 -5.390512e+02
    endloop
  endfacet
  facet normal 0.000000e+00 9.995547e-01 2.983838e-02
    outer loop
      vertex -1.106541e+02 1.481087e+01 -5.023478e+02
      vertex -1.106534e+02 1.504586e+01 -5.102196e+02
      vertex -2.286255e+02 1.504586e+01 -5.102196e+02
    endloop
  endfacet
  facet normal 5.014670e-01 8.647902e-01 2.585881e-02
    outer loop
      vertex -1.104797e+02 1.494518e+01 -5.102226e+02
      vertex -1.106534e+02 1.504586e+01 -5.102196e+02
      vertex -1.106541e+02 1.481087e+01 -5.023478e+02
    endloop
  endfacet
  facet normal 4.887177e-01 8.361195e-01 2.491171e-01
    outer loop
      vertex -1.104822e+02 1.511937e+01 -5.108023e+02
      vertex -1.106534e+02 1.504586e+01 -5.102196e+02
      vertex -1.104797e+02 1.494518e+01 -5.102226e+02
    endloop
  endfacet
  facet normal 2.149322e-16 9.995547e-01 2.983838e-02
    outer loop
      vertex -1.136280e+02 1.409856e+01 -4.784862e+02
      vertex -2.286255e+02 1.504586e+01 -5.102196e+02
      vertex -2.289836e+02 1.503594e+01 -5.098874e+02
    endloop
  endfacet
  facet normal -2.096851e-17 9.995547e-01 2.983838e-02
    outer loop
      vertex -1.116429e+02 1.445929e+01 -4.905703e+02
      vertex -1.106541e+02 1.481087e+01 -5.023478e+02
      vertex -2.286255e+02 1.504586e+01 -5.102196e+02
    endloop
  endfacet
  facet normal -3.166492e-17 9.995547e-01 2.983838e-02
    outer loop
      vertex -1.134990e+02 1.411088e+01 -4.788988e+02
      vertex -1.116429e+02 1.445929e+01 -4.905703e+02
      vertex -2.286255e+02 1.504586e+01 -5.102196e+02
    endloop
  endfacet
  facet normal 6.217354e-16 9.995547e-01 2.983838e-02
    outer loop
      vertex -1.135524e+02 1.410461e+01 -4.786889e+02
      vertex -1.134990e+02 1.411088e+01 -4.788988e+02
      vertex -2.286255e+02 1.504586e+01 -5.102196e+02
    endloop
  endfacet
  facet normal -2.029242e-16 9.995547e-01 2.983838e-02
    outer loop
      vertex -1.136280e+02 1.409856e+01 -4.784862e+02
      vertex -1.135524e+02 1.410461e+01 -4.786889e+02
      vertex -2.286255e+02 1.504586e+01 -5.102196e+02
    endloop
  endfacet
  facet normal 0.000000e+00 9.995547e-01 2.983838e-02
    outer loop
      vertex -2.309628e+02 1.503594e+01 -5.098874e+02
      vertex -2.313209e+02 1.504586e+01 -5.102196e+02
      vertex -2.453060e+02 1.504586e+01 -5.102196e+02
    endloop
  endfacet
  facet normal -5.178906e-17 9.995547e-01 2.983838e-02
    outer loop
      vertex -1.136280e+02 1.409856e+01 -4.784862e+02
      vertex -2.309628e+02 1.503594e+01 -5.098874e+02
      vertex -2.453060e+02 1.504586e+01 -5.102196e+02
    endloop
  endfacet
  facet normal 0.000000e+00 9.995547e-01 2.983838e-02
    outer loop
      vertex -2.453060e+02 1.409856e+01 -4.784862e+02
      vertex -1.136280e+02 1.409856e+01 -4.784862e+02
      vertex -2.453060e+02 1.504586e+01 -5.102196e+02
    endloop
  endfacet
  facet normal -5.000000e-01 8.656398e-01 2.584080e-02
    outer loop
      vertex -2.454792e+02 1.399860e+01 -4.784890e+02
      vertex -2.453060e+02 1.409856e+01 -4.784862e+02
      vertex -2.453060e+02 1.504586e+01 -5.102196e+02
    endloop
  endfacet
  facet normal -5.000000e-01 8.656398e-01 2.584080e-02
    outer loop
      vertex -2.454792e+02 1.494590e+01 -5.102226e+02
      vertex -2.454792e+02 1.399860e+01 -4.784890e+02
      vertex -2.453060e+02 1.504586e+01 -5.102196e+02
    endloop
  endfacet
  facet normal -3.929198e-14 9.995547e-01 2.983838e-02
    outer loop
      vertex -1.136280e+02 1.409856e+01 -4.784862e+02
      vertex -2.304892e+02 1.503234e+01 -5.097668e+02
      vertex -2.309628e+02 1.503594e+01 -5.098874e+02
    endloop
  endfacet
  facet normal 2.467807e-01 6.965191e-03 -9.690463e-01
    outer loop
      vertex -2.308938e+02 1.421213e+01 -5.098758e+02
      vertex -2.309628e+02 1.503594e+01 -5.098874e+02
      vertex -2.304892e+02 1.503234e+01 -5.097668e+02
    endloop
  endfacet
  facet normal 0.000000e+00 9.995547e-01 2.983838e-02
    outer loop
      vertex -1.136280e+02 1.409856e+01 -4.784862e+02
      vertex -2.294572e+02 1.503234e+01 -5.097668e+02
      vertex -2.304892e+02 1.503234e+01 -5.097668e+02
    endloop
  endfacet
  facet normal 0.000000e+00 2.736278e-02 -9.996256e-01
    outer loop
      vertex -2.304892e+02 1.420977e+01 -5.097893e+02
      vertex -2.304892e+02 1.503234e+01 -5.097668e+02
      vertex -2.294572e+02 1.503234e+01 -5.097668e+02
    endloop
  endfacet
  facet normal 2.089455e-01 2.675881e-02 -9.775611e-01
    outer loop
      vertex -2.308938e+02 1.421213e+01 -5.098758e+02
      vertex -2.304892e+02 1.503234e+01 -5.097668e+02
      vertex -2.304892e+02 1.420977e+01 -5.097893e+02
    endloop
  endfacet
  facet normal 1.357261e-15 9.995547e-01 2.983838e-02
    outer loop
      vertex -1.136280e+02 1.409856e+01 -4.784862e+02
      vertex -2.289836e+02 1.503594e+01 -5.098874e+02
      vertex -2.294572e+02 1.503234e+01 -5.097668e+02
    endloop
  endfacet
  facet normal -2.468394e-01 2.651607e-02 -9.686935e-01
    outer loop
      vertex -2.294572e+02 1.420977e+01 -5.097893e+02
      vertex -2.294572e+02 1.503234e+01 -5.097668e+02
      vertex -2.289836e+02 1.503594e+01 -5.098874e+02
    endloop
  endfacet
  facet normal 0.000000e+00 2.736278e-02 -9.996256e-01
    outer loop
      vertex -2.304892e+02 1.420977e+01 -5.097893e+02
      vertex -2.294572e+02 1.503234e+01 -5.097668e+02
      vertex -2.294572e+02 1.420977e+01 -5.097893e+02
    endloop
  endfacet
  facet normal -2.088897e-01 3.665815e-03 -9.779323e-01
    outer loop
      vertex -2.294572e+02 1.420977e+01 -5.097893e+02
      vertex -2.289836e+02 1.503594e+01 -5.098874e+02
      vertex -2.290526e+02 1.421213e+01 -5.098758e+02
    endloop
  endfacet
  facet normal 9.964969e-01 -1.818747e-03 8.361006e-02
    outer loop
      vertex -1.116417e+02 1.368453e+01 -4.906013e+02
      vertex -1.106541e+02 1.481087e+01 -5.023478e+02
      vertex -1.116429e+02 1.445929e+01 -4.905703e+02
    endloop
  endfacet
  facet normal 9.965045e-01 -3.206211e-03 8.347766e-02
    outer loop
      vertex -1.106532e+02 1.400722e+01 -5.023898e+02
      vertex -1.106541e+02 1.481087e+01 -5.023478e+02
      vertex -1.116417e+02 1.368453e+01 -4.906013e+02
    endloop
  endfacet
  facet normal 9.994029e-01 -6.426474e-04 3.454743e-02
    outer loop
      vertex -1.105195e+02 1.419012e+01 -5.062521e+02
      vertex -1.106541e+02 1.481087e+01 -5.023478e+02
      vertex -1.106532e+02 1.400722e+01 -5.023898e+02
    endloop
  endfacet
  facet normal 9.994066e-01 1.072790e-06 3.444521e-02
    outer loop
      vertex -1.105184e+02 1.485002e+01 -5.062853e+02
      vertex -1.106541e+02 1.481087e+01 -5.023478e+02
      vertex -1.105195e+02 1.419012e+01 -5.062521e+02
    endloop
  endfacet
  facet normal 5.000000e-01 8.656398e-01 2.584080e-02
    outer loop
      vertex -1.104797e+02 1.494518e+01 -5.102226e+02
      vertex -1.106541e+02 1.481087e+01 -5.023478e+02
      vertex -1.105184e+02 1.485002e+01 -5.062853e+02
    endloop
  endfacet
  facet normal 9.876006e-01 -4.765911e-03 1.569151e-01
    outer loop
      vertex -1.116417e+02 1.368453e+01 -4.906013e+02
      vertex -1.116429e+02 1.445929e+01 -4.905703e+02
      vertex -1.134990e+02 1.411088e+01 -4.788988e+02
    endloop
  endfacet
  facet normal 9.692112e-01 -6.737558e-03 2.461386e-01
    outer loop
      vertex -1.134990e+02 1.336476e+01 -4.789192e+02
      vertex -1.134990e+02 1.411088e+01 -4.788988e+02
      vertex -1.135524e+02 1.410461e+01 -4.786889e+02
    endloop
  endfacet
  facet normal 9.876054e-01 -4.294793e-03 1.568987e-01
    outer loop
      vertex -1.116417e+02 1.368453e+01 -4.906013e+02
      vertex -1.134990e+02 1.411088e+01 -4.788988e+02
      vertex -1.134990e+02 1.336476e+01 -4.789192e+02
    endloop
  endfacet
  facet normal 9.364780e-01 -4.091209e-02 3.483321e-01
    outer loop
      vertex -1.134990e+02 1.336476e+01 -4.789192e+02
      vertex -1.135524e+02 1.410461e+01 -4.786889e+02
      vertex -1.136280e+02 1.409856e+01 -4.784862e+02
    endloop
  endfacet
  facet normal 0.000000e+00 -2.736278e-02 9.996256e-01
    outer loop
      vertex -1.136280e+02 1.370733e+01 -4.784970e+02
      vertex -1.136280e+02 1.409856e+01 -4.784862e+02
      vertex -2.453060e+02 1.409856e+01 -4.784862e+02
    endloop
  endfacet
  facet normal 9.544725e-01 -8.162283e-03 2.981871e-01
    outer loop
      vertex -1.134990e+02 1.336476e+01 -4.789192e+02
      vertex -1.136280e+02 1.409856e+01 -4.784862e+02
      vertex -1.136280e+02 1.370733e+01 -4.784970e+02
    endloop
  endfacet
  facet normal 0.000000e+00 -2.736278e-02 9.996256e-01
    outer loop
      vertex -2.451328e+02 1.370733e+01 -4.784970e+02
      vertex -1.136280e+02 1.370733e+01 -4.784970e+02
      vertex -2.453060e+02 1.409856e+01 -4.784862e+02
    endloop
  endfacet
  facet normal 1.791257e-13 -2.736278e-02 9.996256e-01
    outer loop
      vertex -2.454792e+02 1.399860e+01 -4.784890e+02
      vertex -2.451328e+02 1.370733e+01 -4.784970e+02
      vertex -2.453060e+02 1.409856e+01 -4.784862e+02
    endloop
  endfacet
  facet normal 0.000000e+00 9.996256e-01 2.736278e-02
    outer loop
      vertex -1.143655e+02 1.368343e+01 -4.776236e+02
      vertex -1.136280e+02 1.370733e+01 -4.784970e+02
      vertex -2.451328e+02 1.370733e+01 -4.784970e+02
    endloop
  endfacet
  facet normal 7.548570e-01 1.378248e-01 6.412451e-01
    outer loop
      vertex -1.141686e+02 1.333358e+01 -4.777803e+02
      vertex -1.136280e+02 1.370733e+01 -4.784970e+02
      vertex -1.143655e+02 1.368343e+01 -4.776236e+02
    endloop
  endfacet
  facet normal 8.309627e-01 -2.798055e-01 4.808428e-01
    outer loop
      vertex -1.134990e+02 1.336476e+01 -4.789192e+02
      vertex -1.136280e+02 1.370733e+01 -4.784970e+02
      vertex -1.141686e+02 1.333358e+01 -4.777803e+02
    endloop
  endfacet
  facet normal 5.555232e-14 -2.736278e-02 9.996256e-01
    outer loop
      vertex -2.454792e+02 1.399860e+01 -4.784890e+02
      vertex -2.454792e+02 1.350741e+01 -4.785024e+02
      vertex -2.451328e+02 1.370733e+01 -4.784970e+02
    endloop
  endfacet
  facet normal -5.000000e-01 8.657011e-01 2.369686e-02
    outer loop
      vertex -2.454792e+02 1.348825e+01 -4.778026e+02
      vertex -2.451328e+02 1.370733e+01 -4.784970e+02
      vertex -2.454792e+02 1.350741e+01 -4.785024e+02
    endloop
  endfacet
  facet normal -9.984265e-15 9.996256e-01 2.736278e-02
    outer loop
      vertex -2.450570e+02 1.367465e+01 -4.773030e+02
      vertex -2.451328e+02 1.370733e+01 -4.784970e+02
      vertex -2.451328e+02 1.367514e+01 -4.773210e+02
    endloop
  endfacet
  facet normal -5.000000e-01 8.657011e-01 2.369686e-02
    outer loop
      vertex -2.453919e+02 1.353090e+01 -4.775190e+02
      vertex -2.451328e+02 1.367514e+01 -4.773210e+02
      vertex -2.451328e+02 1.370733e+01 -4.784970e+02
    endloop
  endfacet
  facet normal 1.786111e-18 9.996256e-01 2.736278e-02
    outer loop
      vertex -1.154613e+02 1.367448e+01 -4.772969e+02
      vertex -1.143655e+02 1.368343e+01 -4.776236e+02
      vertex -2.451328e+02 1.370733e+01 -4.784970e+02
    endloop
  endfacet
  facet normal 0.000000e+00 9.996256e-01 2.736278e-02
    outer loop
      vertex -2.449792e+02 1.367448e+01 -4.772969e+02
      vertex -1.154613e+02 1.367448e+01 -4.772969e+02
      vertex -2.451328e+02 1.370733e+01 -4.784970e+02
    endloop
  endfacet
  facet normal 6.321899e-16 9.996256e-01 2.736278e-02
    outer loop
      vertex -2.450570e+02 1.367465e+01 -4.773030e+02
      vertex -2.449792e+02 1.367448e+01 -4.772969e+02
      vertex -2.451328e+02 1.370733e+01 -4.784970e+02
    endloop
  endfacet
  facet normal -5.000000e-01 8.657011e-01 2.369686e-02
    outer loop
      vertex -2.453919e+02 1.353090e+01 -4.775190e+02
      vertex -2.451328e+02 1.370733e+01 -4.784970e+02
      vertex -2.454792e+02 1.348825e+01 -4.778026e+02
    endloop
  endfacet
  facet normal -1.000000e+00 0.000000e+00 0.000000e+00
    outer loop
      vertex -2.454792e+02 1.494590e+01 -5.102226e+02
      vertex -2.454792e+02 1.350741e+01 -4.785024e+02
      vertex -2.454792e+02 1.399860e+01 -4.784890e+02
    endloop
  endfacet
  facet normal -1.000000e+00 0.000000e+00 0.000000e+00
    outer loop
      vertex -2.454792e+02 1.343428e+01 -4.778043e+02
      vertex -2.454792e+02 1.348825e+01 -4.778026e+02
      vertex -2.454792e+02 1.350741e+01 -4.785024e+02
    endloop
  endfacet
  facet normal -1.000000e+00 0.000000e+00 0.000000e+00
    outer loop
      vertex -2.454792e+02 1.431877e+01 -5.101171e+02
      vertex -2.454792e+02 1.343428e+01 -4.778043e+02
      vertex -2.454792e+02 1.350741e+01 -4.785024e+02
    endloop
  endfacet
  facet normal -1.000000e+00 0.000000e+00 0.000000e+00
    outer loop
      vertex -2.454792e+02 1.494590e+01 -5.102226e+02
      vertex -2.454792e+02 1.431877e+01 -5.101171e+02
      vertex -2.454792e+02 1.350741e+01 -4.785024e+02
    endloop
  endfacet
  facet normal -2.319880e-01 -6.326476e-02 9.706591e-01
    outer loop
      vertex -2.449792e+02 1.332064e+01 -4.773074e+02
      vertex -2.450570e+02 1.367465e+01 -4.773030e+02
      vertex -2.451328e+02 1.367514e+01 -4.773210e+02
    endloop
  endfacet
  facet normal -1.771678e-01 -3.902471e-02 9.834066e-01
    outer loop
      vertex -2.451535e+02 1.332150e+01 -4.773388e+02
      vertex -2.449792e+02 1.332064e+01 -4.773074e+02
      vertex -2.451328e+02 1.367514e+01 -4.773210e+02
    endloop
  endfacet
  facet normal -6.055286e-01 -4.414915e-03 7.958113e-01
    outer loop
      vertex -2.453919e+02 1.353090e+01 -4.775190e+02
      vertex -2.451535e+02 1.332150e+01 -4.773388e+02
      vertex -2.451328e+02 1.367514e+01 -4.773210e+02
    endloop
  endfacet
  facet normal 2.837973e-01 9.447706e-02 9.542186e-01
    outer loop
      vertex -1.154384e+02 1.362169e+01 -4.772984e+02
      vertex -1.143655e+02 1.368343e+01 -4.776236e+02
      vertex -1.154613e+02 1.367448e+01 -4.772969e+02
    endloop
  endfacet
  facet normal 2.891352e-01 1.707997e-02 9.571359e-01
    outer loop
      vertex -1.154214e+02 1.351393e+01 -4.773017e+02
      vertex -1.143655e+02 1.368343e+01 -4.776236e+02
      vertex -1.154384e+02 1.362169e+01 -4.772984e+02
    endloop
  endfacet
  facet normal 2.915993e-01 5.988945e-04 9.565404e-01
    outer loop
      vertex -1.154021e+02 1.332064e+01 -4.773074e+02
      vertex -1.143655e+02 1.368343e+01 -4.776236e+02
      vertex -1.154214e+02 1.351393e+01 -4.773017e+02
    endloop
  endfacet
  facet normal 3.518762e-01 -2.103539e-01 9.121044e-01
    outer loop
      vertex -1.141686e+02 1.333358e+01 -4.777803e+02
      vertex -1.143655e+02 1.368343e+01 -4.776236e+02
      vertex -1.154021e+02 1.332064e+01 -4.773074e+02
    endloop
  endfacet
  facet normal 0.000000e+00 -2.983838e-02 9.995547e-01
    outer loop
      vertex -1.154021e+02 1.332064e+01 -4.773074e+02
      vertex -1.154613e+02 1.367448e+01 -4.772969e+02
      vertex -2.449792e+02 1.367448e+01 -4.772969e+02
    endloop
  endfacet
  facet normal 3.768971e-12 -2.983838e-02 9.995547e-01
    outer loop
      vertex -1.154021e+02 1.332064e+01 -4.773074e+02
      vertex -1.154384e+02 1.362169e+01 -4.772984e+02
      vertex -1.154613e+02 1.367448e+01 -4.772969e+02
    endloop
  endfacet
  facet normal -7.808727e-02 -2.974727e-02 9.965026e-01
    outer loop
      vertex -2.449792e+02 1.332064e+01 -4.773074e+02
      vertex -2.449792e+02 1.367448e+01 -4.772969e+02
      vertex -2.450570e+02 1.367465e+01 -4.773030e+02
    endloop
  endfacet
  facet normal 0.000000e+00 -2.983838e-02 9.995547e-01
    outer loop
      vertex -2.449792e+02 1.332064e+01 -4.773074e+02
      vertex -1.154021e+02 1.332064e+01 -4.773074e+02
      vertex -2.449792e+02 1.367448e+01 -4.772969e+02
    endloop
  endfacet
  facet normal -8.530002e-12 -2.983838e-02 9.995547e-01
    outer loop
      vertex -1.154021e+02 1.332064e+01 -4.773074e+02
      vertex -1.154214e+02 1.351393e+01 -4.773017e+02
      vertex -1.154384e+02 1.362169e+01 -4.772984e+02
    endloop
  endfacet
  facet normal 3.458662e-15 -9.996256e-01 -2.736278e-02
    outer loop
      vertex -2.294572e+02 1.420977e+01 -5.097893e+02
      vertex -2.290526e+02 1.421213e+01 -5.098758e+02
      vertex -2.449792e+02 1.332064e+01 -4.773074e+02
    endloop
  endfacet
  facet normal 0.000000e+00 -9.996256e-01 -2.736278e-02
    outer loop
      vertex -2.304892e+02 1.420977e+01 -5.097893e+02
      vertex -2.294572e+02 1.420977e+01 -5.097893e+02
      vertex -2.449792e+02 1.332064e+01 -4.773074e+02
    endloop
  endfacet
  facet normal -2.834536e-15 -9.996256e-01 -2.736278e-02
    outer loop
      vertex -2.308938e+02 1.421213e+01 -5.098758e+02
      vertex -2.304892e+02 1.420977e+01 -5.097893e+02
      vertex -2.449792e+02 1.332064e+01 -4.773074e+02
    endloop
  endfacet
  facet normal -5.003851e-01 1.622827e-01 8.504582e-01
    outer loop
      vertex -2.453919e+02 1.353090e+01 -4.775190e+02
      vertex -2.453060e+02 1.332397e+01 -4.774290e+02
      vertex -2.451535e+02 1.332150e+01 -4.773388e+02
    endloop
  endfacet
  facet normal -5.000000e-01 -8.657011e-01 -2.369686e-02
    outer loop
      vertex -2.454792e+02 1.431877e+01 -5.101171e+02
      vertex -2.453060e+02 1.332397e+01 -4.774290e+02
      vertex -2.454792e+02 1.343428e+01 -4.778043e+02
    endloop
  endfacet
  facet normal -5.000000e-01 -8.657011e-01 -2.369686e-02
    outer loop
      vertex -2.454363e+02 1.340399e+01 -4.776025e+02
      vertex -2.454792e+02 1.343428e+01 -4.778043e+02
      vertex -2.453060e+02 1.332397e+01 -4.774290e+02
    endloop
  endfacet
  facet normal -8.158916e-01 -9.026788e-02 5.711153e-01
    outer loop
      vertex -2.454363e+02 1.340399e+01 -4.776025e+02
      vertex -2.453060e+02 1.332397e+01 -4.774290e+02
      vertex -2.453919e+02 1.353090e+01 -4.775190e+02
    endloop
  endfacet
  facet normal 0.000000e+00 -9.348775e-01 3.549704e-01
    outer loop
      vertex -2.314792e+02 1.538517e+01 -5.137571e+02
      vertex -2.454792e+02 1.538517e+01 -5.137571e+02
      vertex -2.454792e+02 1.520857e+01 -5.142221e+02
    endloop
  endfacet
  facet normal -1.157219e-16 -9.120388e-01 -4.101040e-01
    outer loop
      vertex -2.314792e+02 1.518115e+01 -5.133033e+02
      vertex -2.454792e+02 1.518115e+01 -5.133033e+02
      vertex -2.454792e+02 1.538517e+01 -5.137571e+02
    endloop
  endfacet
  facet normal 0.000000e+00 -9.120388e-01 -4.101040e-01
    outer loop
      vertex -2.314792e+02 1.518115e+01 -5.133033e+02
      vertex -2.454792e+02 1.538517e+01 -5.137571e+02
      vertex -2.314792e+02 1.538517e+01 -5.137571e+02
    endloop
  endfacet
  facet normal 0.000000e+00 -4.101040e-01 9.120388e-01
    outer loop
      vertex -2.314792e+02 1.520857e+01 -5.142221e+02
      vertex -2.454792e+02 1.520857e+01 -5.142221e+02
      vertex -2.454792e+02 1.475485e+01 -5.144262e+02
    endloop
  endfacet
  facet normal 0.000000e+00 -9.348775e-01 3.549704e-01
    outer loop
      vertex -2.314792e+02 1.520857e+01 -5.142221e+02
      vertex -2.314792e+02 1.538517e+01 -5.137571e+02
      vertex -2.454792e+02 1.520857e+01 -5.142221e+02
    endloop
  endfacet
  facet normal 0.000000e+00 3.549704e-01 9.348775e-01
    outer loop
      vertex -2.314792e+02 1.475485e+01 -5.144262e+02
      vertex -2.454792e+02 1.475485e+01 -5.144262e+02
      vertex -2.454792e+02 1.428976e+01 -5.142496e+02
    endloop
  endfacet
  facet normal 0.000000e+00 -4.101040e-01 9.120388e-01
    outer loop
      vertex -2.314792e+02 1.475485e+01 -5.144262e+02
      vertex -2.314792e+02 1.520857e+01 -5.142221e+02
      vertex -2.454792e+02 1.475485e+01 -5.144262e+02
    endloop
  endfacet
  facet normal -1.157219e-16 9.120388e-01 4.101040e-01
    outer loop
      vertex -2.314792e+02 1.428976e+01 -5.142496e+02
      vertex -2.454792e+02 1.428976e+01 -5.142496e+02
      vertex -2.454792e+02 1.408574e+01 -5.137959e+02
    endloop
  endfacet
  facet normal -4.503958e-17 3.549704e-01 9.348775e-01
    outer loop
      vertex -2.314792e+02 1.428976e+01 -5.142496e+02
      vertex -2.314792e+02 1.475485e+01 -5.144262e+02
      vertex -2.454792e+02 1.428976e+01 -5.142496e+02
    endloop
  endfacet
  facet normal 0.000000e+00 9.348775e-01 -3.549704e-01
    outer loop
      vertex -2.314792e+02 1.408574e+01 -5.137959e+02
      vertex -2.454792e+02 1.408574e+01 -5.137959e+02
      vertex -2.454792e+02 1.426234e+01 -5.133308e+02
    endloop
  endfacet
  facet normal 0.000000e+00 9.120388e-01 4.101040e-01
    outer loop
      vertex -2.314792e+02 1.408574e+01 -5.137959e+02
      vertex -2.314792e+02 1.428976e+01 -5.142496e+02
      vertex -2.454792e+02 1.408574e+01 -5.137959e+02
    endloop
  endfacet
  facet normal 5.203507e-17 4.101040e-01 -9.120388e-01
    outer loop
      vertex -2.314792e+02 1.426234e+01 -5.133308e+02
      vertex -2.454792e+02 1.426234e+01 -5.133308e+02
      vertex -2.454792e+02 1.471606e+01 -5.131267e+02
    endloop
  endfacet
  facet normal 1.186197e-16 9.348775e-01 -3.549704e-01
    outer loop
      vertex -2.314792e+02 1.426234e+01 -5.133308e+02
      vertex -2.314792e+02 1.408574e+01 -5.137959e+02
      vertex -2.454792e+02 1.426234e+01 -5.133308e+02
    endloop
  endfacet
  facet normal 0.000000e+00 -3.549704e-01 -9.348775e-01
    outer loop
      vertex -2.314792e+02 1.471606e+01 -5.131267e+02
      vertex -2.454792e+02 1.471606e+01 -5.131267e+02
      vertex -2.454792e+02 1.518115e+01 -5.133033e+02
    endloop
  endfacet
  facet normal 0.000000e+00 4.101040e-01 -9.120388e-01
    outer loop
      vertex -2.314792e+02 1.471606e+01 -5.131267e+02
      vertex -2.314792e+02 1.426234e+01 -5.133308e+02
      vertex -2.454792e+02 1.471606e+01 -5.131267e+02
    endloop
  endfacet
  facet normal -4.503958e-17 -3.549704e-01 -9.348775e-01
    outer loop
      vertex -2.314792e+02 1.518115e+01 -5.133033e+02
      vertex -2.314792e+02 1.471606e+01 -5.131267e+02
      vertex -2.454792e+02 1.518115e+01 -5.133033e+02
    endloop
  endfacet
  facet normal -9.783286e-01 -6.178285e-03 2.069661e-01
    outer loop
      vertex -2.454363e+02 1.340399e+01 -4.776025e+02
      vertex -2.454792e+02 1.348825e+01 -4.778026e+02
      vertex -2.454792e+02 1.343428e+01 -4.778043e+02
    endloop
  endfacet
  facet normal -9.504713e-01 1.555523e-01 2.690869e-01
    outer loop
      vertex -2.454363e+02 1.340399e+01 -4.776025e+02
      vertex -2.453919e+02 1.353090e+01 -4.775190e+02
      vertex -2.454792e+02 1.348825e+01 -4.778026e+02
    endloop
  endfacet
  facet normal -1.000000e+00 0.000000e+00 0.000000e+00
    outer loop
      vertex -2.454792e+02 1.494590e+01 -5.102226e+02
      vertex -2.454792e+02 1.421163e+01 -5.106236e+02
      vertex -2.454792e+02 1.431877e+01 -5.101171e+02
    endloop
  endfacet
  facet normal -1.000000e+00 0.000000e+00 0.000000e+00
    outer loop
      vertex -2.454792e+02 1.494590e+01 -5.102226e+02
      vertex -2.454792e+02 1.508211e+01 -5.107228e+02
      vertex -2.454792e+02 1.421163e+01 -5.106236e+02
    endloop
  endfacet
  facet normal 9.999458e-01 -1.211244e-03 1.034417e-02
    outer loop
      vertex -1.105184e+02 1.485002e+01 -5.062853e+02
      vertex -1.105195e+02 1.419012e+01 -5.062521e+02
      vertex -1.104794e+02 1.431910e+01 -5.101171e+02
    endloop
  endfacet
  facet normal 9.999489e-01 2.076701e-03 9.888630e-03
    outer loop
      vertex -1.104797e+02 1.494518e+01 -5.102226e+02
      vertex -1.105184e+02 1.485002e+01 -5.062853e+02
      vertex -1.104794e+02 1.431910e+01 -5.101171e+02
    endloop
  endfacet
  facet normal 9.999944e-01 -1.560440e-04 -3.353318e-03
    outer loop
      vertex -1.104813e+02 1.419481e+01 -5.106662e+02
      vertex -1.104797e+02 1.494518e+01 -5.102226e+02
      vertex -1.104794e+02 1.431910e+01 -5.101171e+02
    endloop
  endfacet
  facet normal 9.999910e-01 3.589742e-04 -4.224546e-03
    outer loop
      vertex -1.104813e+02 1.419481e+01 -5.106662e+02
      vertex -1.104822e+02 1.511937e+01 -5.108023e+02
      vertex -1.104797e+02 1.494518e+01 -5.102226e+02
    endloop
  endfacet
endsolid 119_100022026-26
