solid 123_100022026-25
  facet normal -1.000000e+00 0.000000e+00 0.000000e+00
    outer loop
      vertex -3.154789e+02 1.018064e+01 -5.413860e+02
      vertex -3.154789e+02 9.283652e+00 -5.414038e+02
      vertex -3.154789e+02 9.243564e+00 -5.391024e+02
    endloop
  endfacet
  facet normal 0.000000e+00 -9.998483e-01 -1.741553e-02
    outer loop
      vertex -1.136710e+02 9.283652e+00 -5.414038e+02
      vertex -3.154789e+02 9.243564e+00 -5.391024e+02
      vertex -3.154789e+02 9.283652e+00 -5.414038e+02
    endloop
  endfacet
  facet normal -1.000000e+00 0.000000e+00 0.000000e+00
    outer loop
      vertex -3.154789e+02 1.093877e+01 -5.390728e+02
      vertex -3.154789e+02 1.018064e+01 -5.413860e+02
      vertex -3.154789e+02 9.243564e+00 -5.391024e+02
    endloop
  endfacet
  facet normal 0.000000e+00 -1.741553e-02 9.998483e-01
    outer loop
      vertex -2.504789e+02 9.243564e+00 -5.391024e+02
      vertex -3.154789e+02 1.093877e+01 -5.390728e+02
      vertex -3.154789e+02 9.243564e+00 -5.391024e+02
    endloop
  endfacet
  facet normal 0.000000e+00 -9.998483e-01 -1.741553e-02
    outer loop
      vertex -2.504789e+02 9.243564e+00 -5.391024e+02
      vertex -3.154789e+02 9.243564e+00 -5.391024e+02
      vertex -1.136710e+02 9.283652e+00 -5.414038e+02
    endloop
  endfacet
  facet normal 0.000000e+00 1.989172e-02 -9.998021e-01
    outer loop
      vertex -1.136702e+02 1.018064e+01 -5.413860e+02
      vertex -3.154789e+02 9.283652e+00 -5.414038e+02
      vertex -3.154789e+02 1.018064e+01 -5.413860e+02
    endloop
  endfacet
  facet normal 0.000000e+00 1.989172e-02 -9.998021e-01
    outer loop
      vertex -1.136702e+02 1.018064e+01 -5.413860e+02
      vertex -1.136710e+02 9.283652e+00 -5.414038e+02
      vertex -3.154789e+02 9.283652e+00 -5.414038e+02
    endloop
  endfacet
  facet normal -1.000000e+00 0.000000e+00 0.000000e+00
    outer loop
      vertex -3.154789e+02 1.105112e+01 -5.447193e+02
      vertex -3.154789e+02 1.022830e+01 -5.437815e+02
      vertex -3.154789e+02 1.018064e+01 -5.413860e+02
    endloop
  endfacet
  facet normal 0.000000e+00 -9.998021e-01 -1.989172e-02
    outer loop
      vertex -1.194789e+02 1.022830e+01 -5.437815e+02
      vertex -3.154789e+02 1.018064e+01 -5.413860e+02
      vertex -3.154789e+02 1.022830e+01 -5.437815e+02
    endloop
  endfacet
  facet normal -1.000000e+00 0.000000e+00 0.000000e+00
    outer loop
      vertex -3.154789e+02 1.093877e+01 -5.390728e+02
      vertex -3.154789e+02 1.105112e+01 -5.447193e+02
      vertex -3.154789e+02 1.018064e+01 -5.413860e+02
    endloop
  endfacet
  facet normal 0.000000e+00 -9.998021e-01 -1.989172e-02
    outer loop
      vertex -1.154699e+02 1.022855e+01 -5.437944e+02
      vertex -1.136702e+02 1.018064e+01 -5.413860e+02
      vertex -3.154789e+02 1.018064e+01 -5.413860e+02
    endloop
  endfacet
  facet normal -2.917373e-16 -9.998021e-01 -1.989172e-02
    outer loop
      vertex -1.154699e+02 1.022855e+01 -5.437944e+02
      vertex -3.154789e+02 1.018064e+01 -5.413860e+02
      vertex -1.194789e+02 1.022830e+01 -5.437815e+02
    endloop
  endfacet
  facet normal -1.000000e+00 0.000000e+00 0.000000e+00
    outer loop
      vertex -3.154789e+02 1.105112e+01 -5.447193e+02
      vertex -3.154789e+02 9.325379e+00 -5.437995e+02
      vertex -3.154789e+02 1.022830e+01 -5.437815e+02
    endloop
  endfacet
  facet normal 0.000000e+00 -1.989172e-02 9.998021e-01
    outer loop
      vertex -1.194789e+02 9.325379e+00 -5.437995e+02
      vertex -3.154789e+02 1.022830e+01 -5.437815e+02
      vertex -3.154789e+02 9.325379e+00 -5.437995e+02
    endloop
  endfacet
  facet normal 0.000000e+00 -1.989172e-02 9.998021e-01
    outer loop
      vertex -1.194789e+02 9.325379e+00 -5.437995e+02
      vertex -1.194789e+02 1.022830e+01 -5.437815e+02
      vertex -3.154789e+02 1.022830e+01 -5.437815e+02
    endloop
  endfacet
  facet normal -1.000000e+00 0.000000e+00 0.000000e+00
    outer loop
      vertex -3.154789e+02 1.105112e+01 -5.447193e+02
      vertex -3.154789e+02 9.329167e+00 -5.440169e+02
      vertex -3.154789e+02 9.325379e+00 -5.437995e+02
    endloop
  endfacet
  facet normal 0.000000e+00 -9.998483e-01 -1.741553e-02
    outer loop
      vertex -1.194789e+02 9.329167e+00 -5.440169e+02
      vertex -3.154789e+02 9.325379e+00 -5.437995e+02
      vertex -3.154789e+02 9.329167e+00 -5.440169e+02
    endloop
  endfacet
  facet normal 0.000000e+00 -9.998483e-01 -1.741553e-02
    outer loop
      vertex -1.194789e+02 9.329167e+00 -5.440169e+02
      vertex -1.194789e+02 9.325379e+00 -5.437995e+02
      vertex -3.154789e+02 9.325379e+00 -5.437995e+02
    endloop
  endfacet
  facet normal -1.000000e+00 0.000000e+00 0.000000e+00
    outer loop
      vertex -3.154789e+02 1.105112e+01 -5.447193e+02
      vertex -3.154789e+02 1.008018e+01 -5.447386e+02
      vertex -3.154789e+02 9.329167e+00 -5.440169e+02
    endloop
  endfacet
  facet normal -1.255959e-17 -6.929013e-01 -7.210324e-01
    outer loop
      vertex -1.194789e+02 1.008018e+01 -5.447386e+02
      vertex -3.154789e+02 9.329167e+00 -5.440169e+02
      vertex -3.154789e+02 1.008018e+01 -5.447386e+02
    endloop
  endfacet
  facet normal 0.000000e+00 -6.929013e-01 -7.210324e-01
    outer loop
      vertex -1.194789e+02 1.008018e+01 -5.447386e+02
      vertex -1.194789e+02 9.329167e+00 -5.440169e+02
      vertex -3.154789e+02 9.329167e+00 -5.440169e+02
    endloop
  endfacet
  facet normal 0.000000e+00 1.989172e-02 -9.998021e-01
    outer loop
      vertex -1.182352e+02 1.105112e+01 -5.447193e+02
      vertex -3.154789e+02 1.008018e+01 -5.447386e+02
      vertex -3.154789e+02 1.105112e+01 -5.447193e+02
    endloop
  endfacet
  facet normal 3.605592e-19 1.989172e-02 -9.998021e-01
    outer loop
      vertex -1.194789e+02 1.008018e+01 -5.447386e+02
      vertex -3.154789e+02 1.008018e+01 -5.447386e+02
      vertex -1.194789e+02 1.024727e+01 -5.447353e+02
    endloop
  endfacet
  facet normal 5.656894e-17 1.989172e-02 -9.998021e-01
    outer loop
      vertex -1.182352e+02 1.105112e+01 -5.447193e+02
      vertex -1.194789e+02 1.024727e+01 -5.447353e+02
      vertex -3.154789e+02 1.008018e+01 -5.447386e+02
    endloop
  endfacet
  facet normal 0.000000e+00 9.998021e-01 1.989172e-02
    outer loop
      vertex -2.504789e+02 1.093877e+01 -5.390728e+02
      vertex -3.154789e+02 1.105112e+01 -5.447193e+02
      vertex -3.154789e+02 1.093877e+01 -5.390728e+02
    endloop
  endfacet
  facet normal 0.000000e+00 9.998021e-01 1.989172e-02
    outer loop
      vertex -2.504789e+02 1.093877e+01 -5.390728e+02
      vertex -1.182352e+02 1.105112e+01 -5.447193e+02
      vertex -3.154789e+02 1.105112e+01 -5.447193e+02
    endloop
  endfacet
  facet normal 0.000000e+00 -1.741553e-02 9.998483e-01
    outer loop
      vertex -2.504789e+02 1.093877e+01 -5.390728e+02
      vertex -3.154789e+02 1.093877e+01 -5.390728e+02
      vertex -2.504789e+02 9.243564e+00 -5.391024e+02
    endloop
  endfacet
  facet normal 0.000000e+00 -1.741553e-02 9.998483e-01
    outer loop
      vertex -1.113457e+02 8.738902e+00 -5.101290e+02
      vertex -2.453057e+02 9.138841e+00 -5.101221e+02
      vertex -2.446129e+02 8.738902e+00 -5.101290e+02
    endloop
  endfacet
  facet normal -4.968378e-01 -8.623733e-01 9.728569e-02
    outer loop
      vertex -2.454789e+02 9.211900e+00 -5.103590e+02
      vertex -2.446129e+02 8.738902e+00 -5.101290e+02
      vertex -2.453057e+02 9.138841e+00 -5.101221e+02
    endloop
  endfacet
  facet normal 0.000000e+00 -9.998483e-01 -1.741553e-02
    outer loop
      vertex -1.274789e+02 8.898888e+00 -5.193141e+02
      vertex -1.113457e+02 8.738902e+00 -5.101290e+02
      vertex -2.446129e+02 8.738902e+00 -5.101290e+02
    endloop
  endfacet
  facet normal 0.000000e+00 -9.998483e-01 -1.741553e-02
    outer loop
      vertex -2.304789e+02 8.846642e+00 -5.163145e+02
      vertex -2.294669e+02 8.846642e+00 -5.163145e+02
      vertex -2.446129e+02 8.738902e+00 -5.101290e+02
    endloop
  endfacet
  facet normal -4.076798e-18 -9.998483e-01 -1.741553e-02
    outer loop
      vertex -1.274789e+02 8.898888e+00 -5.193141e+02
      vertex -2.446129e+02 8.738902e+00 -5.101290e+02
      vertex -2.294669e+02 8.846642e+00 -5.163145e+02
    endloop
  endfacet
  facet normal 5.802624e-16 -9.998483e-01 -1.741553e-02
    outer loop
      vertex -2.311860e+02 8.851743e+00 -5.166074e+02
      vertex -2.304789e+02 8.846642e+00 -5.163145e+02
      vertex -2.446129e+02 8.738902e+00 -5.101290e+02
    endloop
  endfacet
  facet normal -9.502032e-17 -9.998483e-01 -1.741553e-02
    outer loop
      vertex -2.314789e+02 8.864057e+00 -5.173144e+02
      vertex -2.311860e+02 8.851743e+00 -5.166074e+02
      vertex -2.446129e+02 8.738902e+00 -5.101290e+02
    endloop
  endfacet
  facet normal 3.381225e-17 -9.998483e-01 -1.741553e-02
    outer loop
      vertex -2.314789e+02 8.968550e+00 -5.233135e+02
      vertex -2.314789e+02 8.864057e+00 -5.173144e+02
      vertex -2.446129e+02 8.738902e+00 -5.101290e+02
    endloop
  endfacet
  facet normal -4.144292e-16 -9.998483e-01 -1.741553e-02
    outer loop
      vertex -2.311860e+02 8.980865e+00 -5.240205e+02
      vertex -2.314789e+02 8.968550e+00 -5.233135e+02
      vertex -2.446129e+02 8.738902e+00 -5.101290e+02
    endloop
  endfacet
  facet normal 1.200228e-15 -9.998483e-01 -1.741553e-02
    outer loop
      vertex -2.448500e+02 8.752296e+00 -5.108980e+02
      vertex -2.311860e+02 8.980865e+00 -5.240205e+02
      vertex -2.446129e+02 8.738902e+00 -5.101290e+02
    endloop
  endfacet
  facet normal -5.030249e-01 -8.528186e-01 1.402370e-01
    outer loop
      vertex -2.454789e+02 9.211900e+00 -5.103590e+02
      vertex -2.448500e+02 8.752296e+00 -5.108980e+02
      vertex -2.446129e+02 8.738902e+00 -5.101290e+02
    endloop
  endfacet
  facet normal 0.000000e+00 -1.741553e-02 9.998483e-01
    outer loop
      vertex -1.113457e+02 8.738902e+00 -5.101290e+02
      vertex -1.106529e+02 9.138841e+00 -5.101221e+02
      vertex -2.453057e+02 9.138841e+00 -5.101221e+02
    endloop
  endfacet
  facet normal 0.000000e+00 -9.998483e-01 -1.741553e-02
    outer loop
      vertex -2.453057e+02 8.569299e+00 -4.774239e+02
      vertex -2.453057e+02 9.138841e+00 -5.101221e+02
      vertex -1.106529e+02 9.138841e+00 -5.101221e+02
    endloop
  endfacet
  facet normal -5.000000e-01 -8.658941e-01 -1.508229e-02
    outer loop
      vertex -2.454789e+02 9.238826e+00 -5.101203e+02
      vertex -2.453057e+02 9.138841e+00 -5.101221e+02
      vertex -2.453057e+02 8.569299e+00 -4.774239e+02
    endloop
  endfacet
  facet normal -4.968378e-01 -8.623733e-01 9.728569e-02
    outer loop
      vertex -2.454789e+02 9.211900e+00 -5.103590e+02
      vertex -2.453057e+02 9.138841e+00 -5.101221e+02
      vertex -2.454789e+02 9.238826e+00 -5.101203e+02
    endloop
  endfacet
  facet normal 4.942200e-01 -8.585247e-01 1.366822e-01
    outer loop
      vertex -1.111106e+02 8.752248e+00 -5.108953e+02
      vertex -1.106529e+02 9.138841e+00 -5.101221e+02
      vertex -1.113457e+02 8.738902e+00 -5.101290e+02
    endloop
  endfacet
  facet normal 4.924054e-01 -8.593305e-01 1.381593e-01
    outer loop
      vertex -1.104791e+02 9.238691e+00 -5.101203e+02
      vertex -1.106529e+02 9.138841e+00 -5.101221e+02
      vertex -1.111106e+02 8.752248e+00 -5.108953e+02
    endloop
  endfacet
  facet normal 0.000000e+00 -9.998483e-01 -1.741553e-02
    outer loop
      vertex -2.449789e+02 8.567182e+00 -4.773024e+02
      vertex -1.106529e+02 9.138841e+00 -5.101221e+02
      vertex -1.154015e+02 8.567182e+00 -4.773024e+02
    endloop
  endfacet
  facet normal -1.378134e-16 -9.998483e-01 -1.741553e-02
    outer loop
      vertex -1.141812e+02 8.575228e+00 -4.777643e+02
      vertex -1.154015e+02 8.567182e+00 -4.773024e+02
      vertex -1.106529e+02 9.138841e+00 -5.101221e+02
    endloop
  endfacet
  facet normal 3.012780e-15 -9.998483e-01 -1.741553e-02
    outer loop
      vertex -2.451532e+02 8.567729e+00 -4.773338e+02
      vertex -1.106529e+02 9.138841e+00 -5.101221e+02
      vertex -2.449789e+02 8.567182e+00 -4.773024e+02
    endloop
  endfacet
  facet normal 8.669528e-16 -9.998483e-01 -1.741553e-02
    outer loop
      vertex -1.135055e+02 8.594670e+00 -4.788805e+02
      vertex -1.141812e+02 8.575228e+00 -4.777643e+02
      vertex -1.106529e+02 9.138841e+00 -5.101221e+02
    endloop
  endfacet
  facet normal -5.908793e-16 -9.998483e-01 -1.741553e-02
    outer loop
      vertex -1.116425e+02 8.798643e+00 -4.905908e+02
      vertex -1.135055e+02 8.594670e+00 -4.788805e+02
      vertex -1.106529e+02 9.138841e+00 -5.101221e+02
    endloop
  endfacet
  facet normal 6.094538e-16 -9.998483e-01 -1.741553e-02
    outer loop
      vertex -1.106521e+02 9.004466e+00 -5.024074e+02
      vertex -1.116425e+02 8.798643e+00 -4.905908e+02
      vertex -1.106529e+02 9.138841e+00 -5.101221e+02
    endloop
  endfacet
  facet normal 4.988809e-01 -8.665382e-01 -1.514496e-02
    outer loop
      vertex -1.105191e+02 9.148426e+00 -5.062626e+02
      vertex -1.106521e+02 9.004466e+00 -5.024074e+02
      vertex -1.106529e+02 9.138841e+00 -5.101221e+02
    endloop
  endfacet
  facet normal -9.936101e-16 -9.998483e-01 -1.741553e-02
    outer loop
      vertex -2.451532e+02 8.567729e+00 -4.773338e+02
      vertex -2.453057e+02 8.569299e+00 -4.774239e+02
      vertex -1.106529e+02 9.138841e+00 -5.101221e+02
    endloop
  endfacet
  facet normal 4.982801e-01 -8.668842e-01 -1.512327e-02
    outer loop
      vertex -1.105191e+02 9.148426e+00 -5.062626e+02
      vertex -1.106529e+02 9.138841e+00 -5.101221e+02
      vertex -1.104791e+02 9.238691e+00 -5.101203e+02
    endloop
  endfacet
  facet normal 7.587743e-16 -9.998483e-01 -1.741553e-02
    outer loop
      vertex -1.274789e+02 8.898888e+00 -5.193141e+02
      vertex -1.266129e+02 8.907596e+00 -5.198140e+02
      vertex -1.113457e+02 8.738902e+00 -5.101290e+02
    endloop
  endfacet
  facet normal -7.561624e-17 -9.998483e-01 -1.741553e-02
    outer loop
      vertex -1.134842e+02 9.271682e+00 -5.407167e+02
      vertex -1.113457e+02 8.738902e+00 -5.101290e+02
      vertex -1.266129e+02 8.907596e+00 -5.198140e+02
    endloop
  endfacet
  facet normal -1.903465e-15 -9.998483e-01 -1.741553e-02
    outer loop
      vertex -1.113086e+02 9.017546e+00 -5.261264e+02
      vertex -1.111106e+02 8.752248e+00 -5.108953e+02
      vertex -1.113457e+02 8.738902e+00 -5.101290e+02
    endloop
  endfacet
  facet normal 2.261151e-16 -9.998483e-01 -1.741553e-02
    outer loop
      vertex -1.134842e+02 9.271682e+00 -5.407167e+02
      vertex -1.113086e+02 9.017546e+00 -5.261264e+02
      vertex -1.113457e+02 8.738902e+00 -5.101290e+02
    endloop
  endfacet
  facet normal 0.000000e+00 -9.998483e-01 -1.741553e-02
    outer loop
      vertex -2.244789e+02 8.894534e+00 -5.190641e+02
      vertex -2.284669e+02 8.864057e+00 -5.173144e+02
      vertex -2.284669e+02 8.894534e+00 -5.190641e+02
    endloop
  endfacet
  facet normal -1.000000e+00 0.000000e+00 0.000000e+00
    outer loop
      vertex -2.284669e+02 1.054012e+01 -5.190355e+02
      vertex -2.284669e+02 8.894534e+00 -5.190641e+02
      vertex -2.284669e+02 8.864057e+00 -5.173144e+02
    endloop
  endfacet
  facet normal 0.000000e+00 1.741553e-02 -9.998483e-01
    outer loop
      vertex -2.244789e+02 1.054012e+01 -5.190355e+02
      vertex -2.244789e+02 8.894534e+00 -5.190641e+02
      vertex -2.284669e+02 8.894534e+00 -5.190641e+02
    endloop
  endfacet
  facet normal 0.000000e+00 1.741553e-02 -9.998483e-01
    outer loop
      vertex -2.244789e+02 1.054012e+01 -5.190355e+02
      vertex -2.284669e+02 8.894534e+00 -5.190641e+02
      vertex -2.284669e+02 1.054012e+01 -5.190355e+02
    endloop
  endfacet
  facet normal 2.165248e-16 -9.998483e-01 -1.741553e-02
    outer loop
      vertex -2.244789e+02 8.894534e+00 -5.190641e+02
      vertex -2.287598e+02 8.851743e+00 -5.166074e+02
      vertex -2.284669e+02 8.864057e+00 -5.173144e+02
    endloop
  endfacet
  facet normal -9.238772e-01 6.664733e-03 -3.826310e-01
    outer loop
      vertex -2.284669e+02 1.050531e+01 -5.172858e+02
      vertex -2.284669e+02 8.864057e+00 -5.173144e+02
      vertex -2.287598e+02 8.851743e+00 -5.166074e+02
    endloop
  endfacet
  facet normal -1.000000e+00 0.000000e+00 0.000000e+00
    outer loop
      vertex -2.284669e+02 1.050531e+01 -5.172858e+02
      vertex -2.284669e+02 1.054012e+01 -5.190355e+02
      vertex -2.284669e+02 8.864057e+00 -5.173144e+02
    endloop
  endfacet
  facet normal 8.201457e-17 -9.998483e-01 -1.741553e-02
    outer loop
      vertex -1.274789e+02 8.898888e+00 -5.193141e+02
      vertex -2.294669e+02 8.846642e+00 -5.163145e+02
      vertex -2.287598e+02 8.851743e+00 -5.166074e+02
    endloop
  endfacet
  facet normal -3.826890e-01 1.609004e-02 -9.237371e-01
    outer loop
      vertex -2.287598e+02 1.049124e+01 -5.165788e+02
      vertex -2.287598e+02 8.851743e+00 -5.166074e+02
      vertex -2.294669e+02 8.846642e+00 -5.163145e+02
    endloop
  endfacet
  facet normal 9.093168e-18 -9.998483e-01 -1.741553e-02
    outer loop
      vertex -2.241253e+02 8.895659e+00 -5.191287e+02
      vertex -1.274789e+02 8.898888e+00 -5.193141e+02
      vertex -2.287598e+02 8.851743e+00 -5.166074e+02
    endloop
  endfacet
  facet normal -5.989328e-15 -9.998483e-01 -1.741553e-02
    outer loop
      vertex -2.244789e+02 8.894534e+00 -5.190641e+02
      vertex -2.241253e+02 8.895659e+00 -5.191287e+02
      vertex -2.287598e+02 8.851743e+00 -5.166074e+02
    endloop
  endfacet
  facet normal -9.238770e-01 6.664519e-03 -3.826314e-01
    outer loop
      vertex -2.284669e+02 1.050531e+01 -5.172858e+02
      vertex -2.287598e+02 8.851743e+00 -5.166074e+02
      vertex -2.287598e+02 1.049124e+01 -5.165788e+02
    endloop
  endfacet
  facet normal 0.000000e+00 1.741553e-02 -9.998483e-01
    outer loop
      vertex -2.304789e+02 1.048542e+01 -5.162860e+02
      vertex -2.294669e+02 8.846642e+00 -5.163145e+02
      vertex -2.304789e+02 8.846642e+00 -5.163145e+02
    endloop
  endfacet
  facet normal 0.000000e+00 1.741553e-02 -9.998483e-01
    outer loop
      vertex -2.294669e+02 1.048542e+01 -5.162860e+02
      vertex -2.294669e+02 8.846642e+00 -5.163145e+02
      vertex -2.304789e+02 1.048542e+01 -5.162860e+02
    endloop
  endfacet
  facet normal -3.826886e-01 1.608982e-02 -9.237373e-01
    outer loop
      vertex -2.287598e+02 1.049124e+01 -5.165788e+02
      vertex -2.294669e+02 8.846642e+00 -5.163145e+02
      vertex -2.294669e+02 1.048542e+01 -5.162860e+02
    endloop
  endfacet
  facet normal 3.826890e-01 1.608982e-02 -9.237371e-01
    outer loop
      vertex -2.304789e+02 1.048542e+01 -5.162860e+02
      vertex -2.304789e+02 8.846642e+00 -5.163145e+02
      vertex -2.311860e+02 8.851743e+00 -5.166074e+02
    endloop
  endfacet
  facet normal 9.238772e-01 6.664512e-03 -3.826310e-01
    outer loop
      vertex -2.311860e+02 1.049124e+01 -5.165788e+02
      vertex -2.311860e+02 8.851743e+00 -5.166074e+02
      vertex -2.314789e+02 8.864057e+00 -5.173144e+02
    endloop
  endfacet
  facet normal 3.826886e-01 1.609004e-02 -9.237373e-01
    outer loop
      vertex -2.304789e+02 1.048542e+01 -5.162860e+02
      vertex -2.311860e+02 8.851743e+00 -5.166074e+02
      vertex -2.311860e+02 1.049124e+01 -5.165788e+02
    endloop
  endfacet
  facet normal 1.000000e+00 0.000000e+00 0.000000e+00
    outer loop
      vertex -2.314789e+02 9.090770e+00 -5.203125e+02
      vertex -2.314789e+02 8.864057e+00 -5.173144e+02
      vertex -2.314789e+02 8.968550e+00 -5.233135e+02
    endloop
  endfacet
  facet normal 9.238770e-01 6.664741e-03 -3.826314e-01
    outer loop
      vertex -2.311860e+02 1.049124e+01 -5.165788e+02
      vertex -2.314789e+02 8.864057e+00 -5.173144e+02
      vertex -2.314789e+02 1.050531e+01 -5.172858e+02
    endloop
  endfacet
  facet normal 1.000000e+00 0.000000e+00 0.000000e+00
    outer loop
      vertex -2.314789e+02 9.090770e+00 -5.203125e+02
      vertex -2.314789e+02 1.050531e+01 -5.172858e+02
      vertex -2.314789e+02 8.864057e+00 -5.173144e+02
    endloop
  endfacet
  facet normal 9.238772e-01 -6.664733e-03 3.826310e-01
    outer loop
      vertex -2.314789e+02 1.062466e+01 -5.232846e+02
      vertex -2.314789e+02 8.968550e+00 -5.233135e+02
      vertex -2.311860e+02 8.980865e+00 -5.240205e+02
    endloop
  endfacet
  facet normal 1.000000e+00 0.000000e+00 0.000000e+00
    outer loop
      vertex -2.314789e+02 1.039051e+01 -5.202866e+02
      vertex -2.314789e+02 8.968550e+00 -5.233135e+02
      vertex -2.314789e+02 1.062466e+01 -5.232846e+02
    endloop
  endfacet
  facet normal 1.000000e+00 0.000000e+00 0.000000e+00
    outer loop
      vertex -2.314789e+02 1.007679e+01 -5.208559e+02
      vertex -2.314789e+02 8.968550e+00 -5.233135e+02
      vertex -2.314789e+02 1.039051e+01 -5.202866e+02
    endloop
  endfacet
  facet normal 1.000000e+00 0.000000e+00 0.000000e+00
    outer loop
      vertex -2.314789e+02 9.426885e+00 -5.208688e+02
      vertex -2.314789e+02 8.968550e+00 -5.233135e+02
      vertex -2.314789e+02 1.007679e+01 -5.208559e+02
    endloop
  endfacet
  facet normal 1.000000e+00 0.000000e+00 0.000000e+00
    outer loop
      vertex -2.314789e+02 9.090770e+00 -5.203125e+02
      vertex -2.314789e+02 8.968550e+00 -5.233135e+02
      vertex -2.314789e+02 9.426885e+00 -5.208688e+02
    endloop
  endfacet
  facet normal 8.829277e-16 -9.998483e-01 -1.741553e-02
    outer loop
      vertex -2.454789e+02 9.156486e+00 -5.341031e+02
      vertex -2.304789e+02 8.985966e+00 -5.243133e+02
      vertex -2.311860e+02 8.980865e+00 -5.240205e+02
    endloop
  endfacet
  facet normal 3.826890e-01 -1.608960e-02 9.237371e-01
    outer loop
      vertex -2.311860e+02 1.063872e+01 -5.239916e+02
      vertex -2.311860e+02 8.980865e+00 -5.240205e+02
      vertex -2.304789e+02 8.985966e+00 -5.243133e+02
    endloop
  endfacet
  facet normal -4.976238e-16 -9.998483e-01 -1.741553e-02
    outer loop
      vertex -2.448500e+02 8.752296e+00 -5.108980e+02
      vertex -2.454789e+02 8.761041e+00 -5.114001e+02
      vertex -2.311860e+02 8.980865e+00 -5.240205e+02
    endloop
  endfacet
  facet normal -2.326210e-17 -9.998483e-01 -1.741553e-02
    outer loop
      vertex -2.454789e+02 9.156486e+00 -5.341031e+02
      vertex -2.311860e+02 8.980865e+00 -5.240205e+02
      vertex -2.454789e+02 8.761041e+00 -5.114001e+02
    endloop
  endfacet
  facet normal 9.238770e-01 -6.664960e-03 3.826314e-01
    outer loop
      vertex -2.314789e+02 1.062466e+01 -5.232846e+02
      vertex -2.311860e+02 8.980865e+00 -5.240205e+02
      vertex -2.311860e+02 1.063872e+01 -5.239916e+02
    endloop
  endfacet
  facet normal 0.000000e+00 -9.998483e-01 -1.741553e-02
    outer loop
      vertex -1.136710e+02 9.283652e+00 -5.414038e+02
      vertex -2.294669e+02 8.985966e+00 -5.243133e+02
      vertex -2.304789e+02 8.985966e+00 -5.243133e+02
    endloop
  endfacet
  facet normal 0.000000e+00 -1.741553e-02 9.998483e-01
    outer loop
      vertex -2.294669e+02 1.064455e+01 -5.242844e+02
      vertex -2.304789e+02 8.985966e+00 -5.243133e+02
      vertex -2.294669e+02 8.985966e+00 -5.243133e+02
    endloop
  endfacet
  facet normal 1.744516e-17 -9.998483e-01 -1.741553e-02
    outer loop
      vertex -2.454789e+02 9.156486e+00 -5.341031e+02
      vertex -1.136710e+02 9.283652e+00 -5.414038e+02
      vertex -2.304789e+02 8.985966e+00 -5.243133e+02
    endloop
  endfacet
  facet normal 0.000000e+00 -1.741553e-02 9.998483e-01
    outer loop
      vertex -2.304789e+02 1.064455e+01 -5.242844e+02
      vertex -2.304789e+02 8.985966e+00 -5.243133e+02
      vertex -2.294669e+02 1.064455e+01 -5.242844e+02
    endloop
  endfacet
  facet normal 3.826886e-01 -1.608982e-02 9.237373e-01
    outer loop
      vertex -2.311860e+02 1.063872e+01 -5.239916e+02
      vertex -2.304789e+02 8.985966e+00 -5.243133e+02
      vertex -2.304789e+02 1.064455e+01 -5.242844e+02
    endloop
  endfacet
  facet normal -3.668337e-16 -9.998483e-01 -1.741553e-02
    outer loop
      vertex -1.136710e+02 9.283652e+00 -5.414038e+02
      vertex -2.287598e+02 8.980865e+00 -5.240205e+02
      vertex -2.294669e+02 8.985966e+00 -5.243133e+02
    endloop
  endfacet
  facet normal -3.826890e-01 -1.608982e-02 9.237371e-01
    outer loop
      vertex -2.294669e+02 1.064455e+01 -5.242844e+02
      vertex -2.294669e+02 8.985966e+00 -5.243133e+02
      vertex -2.287598e+02 8.980865e+00 -5.240205e+02
    endloop
  endfacet
  facet normal 0.000000e+00 -9.998483e-01 -1.741553e-02
    outer loop
      vertex -1.136710e+02 9.283652e+00 -5.414038e+02
      vertex -2.284669e+02 8.968550e+00 -5.233135e+02
      vertex -2.287598e+02 8.980865e+00 -5.240205e+02
    endloop
  endfacet
  facet normal -9.238772e-01 -6.664952e-03 3.826310e-01
    outer loop
      vertex -2.287598e+02 1.063872e+01 -5.239916e+02
      vertex -2.287598e+02 8.980865e+00 -5.240205e+02
      vertex -2.284669e+02 8.968550e+00 -5.233135e+02
    endloop
  endfacet
  facet normal -3.826886e-01 -1.608960e-02 9.237373e-01
    outer loop
      vertex -2.294669e+02 1.064455e+01 -5.242844e+02
      vertex -2.287598e+02 8.980865e+00 -5.240205e+02
      vertex -2.287598e+02 1.063872e+01 -5.239916e+02
    endloop
  endfacet
  facet normal 9.284428e-17 -9.998483e-01 -1.741553e-02
    outer loop
      vertex -1.136710e+02 9.283652e+00 -5.414038e+02
      vertex -2.284669e+02 8.938073e+00 -5.215637e+02
      vertex -2.284669e+02 8.968550e+00 -5.233135e+02
    endloop
  endfacet
  facet normal -1.000000e+00 0.000000e+00 0.000000e+00
    outer loop
      vertex -2.284669e+02 1.062466e+01 -5.232846e+02
      vertex -2.284669e+02 8.968550e+00 -5.233135e+02
      vertex -2.284669e+02 8.938073e+00 -5.215637e+02
    endloop
  endfacet
  facet normal -9.238770e-01 -6.664741e-03 3.826314e-01
    outer loop
      vertex -2.287598e+02 1.063872e+01 -5.239916e+02
      vertex -2.284669e+02 8.968550e+00 -5.233135e+02
      vertex -2.284669e+02 1.062466e+01 -5.232846e+02
    endloop
  endfacet
  facet normal 0.000000e+00 -9.998483e-01 -1.741553e-02
    outer loop
      vertex -1.136710e+02 9.283652e+00 -5.414038e+02
      vertex -2.244789e+02 8.938073e+00 -5.215637e+02
      vertex -2.284669e+02 8.938073e+00 -5.215637e+02
    endloop
  endfacet
  facet normal 0.000000e+00 -1.741553e-02 9.998483e-01
    outer loop
      vertex -2.284669e+02 1.058985e+01 -5.215350e+02
      vertex -2.284669e+02 8.938073e+00 -5.215637e+02
      vertex -2.244789e+02 8.938073e+00 -5.215637e+02
    endloop
  endfacet
  facet normal -1.000000e+00 0.000000e+00 0.000000e+00
    outer loop
      vertex -2.284669e+02 1.062466e+01 -5.232846e+02
      vertex -2.284669e+02 8.938073e+00 -5.215637e+02
      vertex -2.284669e+02 1.058985e+01 -5.215350e+02
    endloop
  endfacet
  facet normal -5.013637e-16 -9.998483e-01 -1.741553e-02
    outer loop
      vertex -1.136710e+02 9.283652e+00 -5.414038e+02
      vertex -2.241253e+02 8.936948e+00 -5.214992e+02
      vertex -2.244789e+02 8.938073e+00 -5.215637e+02
    endloop
  endfacet
  facet normal -1.797021e-01 -1.713203e-02 9.835719e-01
    outer loop
      vertex -2.244789e+02 1.058985e+01 -5.215350e+02
      vertex -2.244789e+02 8.938073e+00 -5.215637e+02
      vertex -2.241253e+02 8.936948e+00 -5.214992e+02
    endloop
  endfacet
  facet normal 0.000000e+00 -1.741553e-02 9.998483e-01
    outer loop
      vertex -2.284669e+02 1.058985e+01 -5.215350e+02
      vertex -2.244789e+02 8.938073e+00 -5.215637e+02
      vertex -2.244789e+02 1.058985e+01 -5.215350e+02
    endloop
  endfacet
  facet normal -6.341966e-16 -9.998483e-01 -1.741553e-02
    outer loop
      vertex -1.136710e+02 9.283652e+00 -5.414038e+02
      vertex -2.238175e+02 8.933719e+00 -5.213138e+02
      vertex -2.241253e+02 8.936948e+00 -5.214992e+02
    endloop
  endfacet
  facet normal -5.158938e-01 -1.491908e-02 8.565226e-01
    outer loop
      vertex -2.241253e+02 1.058856e+01 -5.214704e+02
      vertex -2.241253e+02 8.936948e+00 -5.214992e+02
      vertex -2.238175e+02 8.933719e+00 -5.213138e+02
    endloop
  endfacet
  facet normal -1.797020e-01 -1.713201e-02 9.835719e-01
    outer loop
      vertex -2.244789e+02 1.058985e+01 -5.215350e+02
      vertex -2.241253e+02 8.936948e+00 -5.214992e+02
      vertex -2.241253e+02 1.058856e+01 -5.214704e+02
    endloop
  endfacet
  facet normal 0.000000e+00 -9.998483e-01 -1.741553e-02
    outer loop
      vertex -1.136710e+02 9.283652e+00 -5.414038e+02
      vertex -1.274789e+02 8.933719e+00 -5.213138e+02
      vertex -2.238175e+02 8.933719e+00 -5.213138e+02
    endloop
  endfacet
  facet normal 0.000000e+00 -1.741553e-02 9.998483e-01
    outer loop
      vertex -2.238175e+02 1.058487e+01 -5.212850e+02
      vertex -2.238175e+02 8.933719e+00 -5.213138e+02
      vertex -1.274789e+02 8.933719e+00 -5.213138e+02
    endloop
  endfacet
  facet normal -5.158938e-01 -1.491906e-02 8.565226e-01
    outer loop
      vertex -2.241253e+02 1.058856e+01 -5.214704e+02
      vertex -2.238175e+02 8.933719e+00 -5.213138e+02
      vertex -2.238175e+02 1.058487e+01 -5.212850e+02
    endloop
  endfacet
  facet normal 2.046452e-15 -9.998483e-01 -1.741553e-02
    outer loop
      vertex -1.136710e+02 9.283652e+00 -5.414038e+02
      vertex -1.266129e+02 8.925012e+00 -5.208139e+02
      vertex -1.274789e+02 8.933719e+00 -5.213138e+02
    endloop
  endfacet
  facet normal -4.999928e-01 -1.508237e-02 8.658982e-01
    outer loop
      vertex -1.274789e+02 1.058487e+01 -5.212850e+02
      vertex -1.274789e+02 8.933719e+00 -5.213138e+02
      vertex -1.266129e+02 8.925012e+00 -5.208139e+02
    endloop
  endfacet
  facet normal 0.000000e+00 -1.741553e-02 9.998483e-01
    outer loop
      vertex -2.238175e+02 1.058487e+01 -5.212850e+02
      vertex -1.274789e+02 8.933719e+00 -5.213138e+02
      vertex -1.274789e+02 1.058487e+01 -5.212850e+02
    endloop
  endfacet
  facet normal 7.548823e-16 -9.998483e-01 -1.741553e-02
    outer loop
      vertex -1.136710e+02 9.283652e+00 -5.414038e+02
      vertex -1.266129e+02 8.907596e+00 -5.198140e+02
      vertex -1.266129e+02 8.925012e+00 -5.208139e+02
    endloop
  endfacet
  facet normal -1.000000e+00 -2.492207e-07 -4.340969e-09
    outer loop
      vertex -1.266129e+02 1.057493e+01 -5.207851e+02
      vertex -1.266129e+02 8.925012e+00 -5.208139e+02
      vertex -1.266129e+02 8.907596e+00 -5.198140e+02
    endloop
  endfacet
  facet normal -4.999925e-01 -1.508212e-02 8.658984e-01
    outer loop
      vertex -1.274789e+02 1.058487e+01 -5.212850e+02
      vertex -1.266129e+02 8.925012e+00 -5.208139e+02
      vertex -1.266129e+02 1.057493e+01 -5.207851e+02
    endloop
  endfacet
  facet normal -4.999928e-01 1.508262e-02 -8.658982e-01
    outer loop
      vertex -1.266129e+02 1.055504e+01 -5.197853e+02
      vertex -1.266129e+02 8.907596e+00 -5.198140e+02
      vertex -1.274789e+02 8.898888e+00 -5.193141e+02
    endloop
  endfacet
  facet normal 1.775558e-17 -9.998483e-01 -1.741553e-02
    outer loop
      vertex -1.135654e+02 9.277726e+00 -5.410636e+02
      vertex -1.134842e+02 9.271682e+00 -5.407167e+02
      vertex -1.266129e+02 8.907596e+00 -5.198140e+02
    endloop
  endfacet
  facet normal -2.179807e-15 -9.998483e-01 -1.741553e-02
    outer loop
      vertex -1.136710e+02 9.283652e+00 -5.414038e+02
      vertex -1.135654e+02 9.277726e+00 -5.410636e+02
      vertex -1.266129e+02 8.907596e+00 -5.198140e+02
    endloop
  endfacet
  facet normal -1.000000e+00 -2.491459e-07 -4.212584e-09
    outer loop
      vertex -1.266129e+02 1.057493e+01 -5.207851e+02
      vertex -1.266129e+02 8.907596e+00 -5.198140e+02
      vertex -1.266129e+02 1.055504e+01 -5.197853e+02
    endloop
  endfacet
  facet normal 0.000000e+00 -9.998483e-01 -1.741553e-02
    outer loop
      vertex -2.241253e+02 8.895659e+00 -5.191287e+02
      vertex -2.238175e+02 8.898888e+00 -5.193141e+02
      vertex -1.274789e+02 8.898888e+00 -5.193141e+02
    endloop
  endfacet
  facet normal 0.000000e+00 1.741553e-02 -9.998483e-01
    outer loop
      vertex -1.274789e+02 1.054509e+01 -5.192854e+02
      vertex -1.274789e+02 8.898888e+00 -5.193141e+02
      vertex -2.238175e+02 8.898888e+00 -5.193141e+02
    endloop
  endfacet
  facet normal -4.999925e-01 1.508237e-02 -8.658984e-01
    outer loop
      vertex -1.266129e+02 1.055504e+01 -5.197853e+02
      vertex -1.274789e+02 8.898888e+00 -5.193141e+02
      vertex -1.274789e+02 1.054509e+01 -5.192854e+02
    endloop
  endfacet
  facet normal -5.158938e-01 1.491906e-02 -8.565226e-01
    outer loop
      vertex -2.238175e+02 1.054509e+01 -5.192854e+02
      vertex -2.238175e+02 8.898888e+00 -5.193141e+02
      vertex -2.241253e+02 8.895659e+00 -5.191287e+02
    endloop
  endfacet
  facet normal 0.000000e+00 1.741553e-02 -9.998483e-01
    outer loop
      vertex -1.274789e+02 1.054509e+01 -5.192854e+02
      vertex -2.238175e+02 8.898888e+00 -5.193141e+02
      vertex -2.238175e+02 1.054509e+01 -5.192854e+02
    endloop
  endfacet
  facet normal -1.797021e-01 1.713204e-02 -9.835719e-01
    outer loop
      vertex -2.241253e+02 1.054140e+01 -5.191000e+02
      vertex -2.241253e+02 8.895659e+00 -5.191287e+02
      vertex -2.244789e+02 8.894534e+00 -5.190641e+02
    endloop
  endfacet
  facet normal -5.158938e-01 1.491904e-02 -8.565226e-01
    outer loop
      vertex -2.238175e+02 1.054509e+01 -5.192854e+02
      vertex -2.241253e+02 8.895659e+00 -5.191287e+02
      vertex -2.241253e+02 1.054140e+01 -5.191000e+02
    endloop
  endfacet
  facet normal -1.797020e-01 1.713203e-02 -9.835719e-01
    outer loop
      vertex -2.241253e+02 1.054140e+01 -5.191000e+02
      vertex -2.244789e+02 8.894534e+00 -5.190641e+02
      vertex -2.244789e+02 1.054012e+01 -5.190355e+02
    endloop
  endfacet
  facet normal -3.320168e-01 -8.537663e-01 4.010585e-01
    outer loop
      vertex -2.454789e+02 9.135143e+00 -5.106037e+02
      vertex -2.454789e+02 8.761041e+00 -5.114001e+02
      vertex -2.448500e+02 8.752296e+00 -5.108980e+02
    endloop
  endfacet
  facet normal -1.000000e+00 0.000000e+00 0.000000e+00
    outer loop
      vertex -2.454789e+02 9.090770e+00 -5.203125e+02
      vertex -2.454789e+02 9.156486e+00 -5.341031e+02
      vertex -2.454789e+02 8.761041e+00 -5.114001e+02
    endloop
  endfacet
  facet normal -1.000000e+00 0.000000e+00 0.000000e+00
    outer loop
      vertex -2.454789e+02 1.005440e+01 -5.197303e+02
      vertex -2.454789e+02 8.761041e+00 -5.114001e+02
      vertex -2.454789e+02 1.039006e+01 -5.114931e+02
    endloop
  endfacet
  facet normal -1.000000e+00 0.000000e+00 0.000000e+00
    outer loop
      vertex -2.454789e+02 9.986238e+00 -5.107106e+02
      vertex -2.454789e+02 1.039006e+01 -5.114931e+02
      vertex -2.454789e+02 8.761041e+00 -5.114001e+02
    endloop
  endfacet
  facet normal -1.000000e+00 0.000000e+00 0.000000e+00
    outer loop
      vertex -2.454789e+02 9.404491e+00 -5.197432e+02
      vertex -2.454789e+02 9.090770e+00 -5.203125e+02
      vertex -2.454789e+02 8.761041e+00 -5.114001e+02
    endloop
  endfacet
  facet normal -1.000000e+00 0.000000e+00 0.000000e+00
    outer loop
      vertex -2.454789e+02 1.005440e+01 -5.197303e+02
      vertex -2.454789e+02 9.404491e+00 -5.197432e+02
      vertex -2.454789e+02 8.761041e+00 -5.114001e+02
    endloop
  endfacet
  facet normal -1.000000e+00 0.000000e+00 0.000000e+00
    outer loop
      vertex -2.454789e+02 9.986238e+00 -5.107106e+02
      vertex -2.454789e+02 8.761041e+00 -5.114001e+02
      vertex -2.454789e+02 9.135143e+00 -5.106037e+02
    endloop
  endfacet
  facet normal -4.033048e-01 -8.731130e-01 2.738957e-01
    outer loop
      vertex -2.454789e+02 9.135143e+00 -5.106037e+02
      vertex -2.448500e+02 8.752296e+00 -5.108980e+02
      vertex -2.454789e+02 9.211900e+00 -5.103590e+02
    endloop
  endfacet
  facet normal -2.772740e-16 -9.998483e-01 -1.741553e-02
    outer loop
      vertex -1.113086e+02 9.017546e+00 -5.261264e+02
      vertex -1.104863e+02 8.761002e+00 -5.113978e+02
      vertex -1.111106e+02 8.752248e+00 -5.108953e+02
    endloop
  endfacet
  facet normal 3.357150e-01 -8.517857e-01 4.021898e-01
    outer loop
      vertex -1.104809e+02 9.119234e+00 -5.106437e+02
      vertex -1.111106e+02 8.752248e+00 -5.108953e+02
      vertex -1.104863e+02 8.761002e+00 -5.113978e+02
    endloop
  endfacet
  facet normal 5.351240e-01 -8.398454e-01 9.111543e-02
    outer loop
      vertex -1.104797e+02 9.212915e+00 -5.103546e+02
      vertex -1.104791e+02 9.238691e+00 -5.101203e+02
      vertex -1.111106e+02 8.752248e+00 -5.108953e+02
    endloop
  endfacet
  facet normal 3.967030e-01 -8.737173e-01 2.815044e-01
    outer loop
      vertex -1.104797e+02 9.212915e+00 -5.103546e+02
      vertex -1.111106e+02 8.752248e+00 -5.108953e+02
      vertex -1.104809e+02 9.119234e+00 -5.106437e+02
    endloop
  endfacet
  facet normal 9.984401e-01 -2.430400e-03 -5.578095e-02
    outer loop
      vertex -1.104875e+02 1.039001e+01 -5.114905e+02
      vertex -1.104863e+02 8.761002e+00 -5.113978e+02
      vertex -1.113086e+02 9.017546e+00 -5.261264e+02
    endloop
  endfacet
  facet normal 9.999688e-01 2.949280e-04 -7.896217e-03
    outer loop
      vertex -1.104814e+02 9.992588e+00 -5.107243e+02
      vertex -1.104863e+02 8.761002e+00 -5.113978e+02
      vertex -1.104875e+02 1.039001e+01 -5.114905e+02
    endloop
  endfacet
  facet normal 9.999741e-01 -8.705139e-05 -7.197741e-03
    outer loop
      vertex -1.104809e+02 9.119234e+00 -5.106437e+02
      vertex -1.104863e+02 8.761002e+00 -5.113978e+02
      vertex -1.104814e+02 9.992588e+00 -5.107243e+02
    endloop
  endfacet
  facet normal 9.890662e-01 8.999935e-04 -1.474695e-01
    outer loop
      vertex -1.113147e+02 1.068182e+01 -5.261575e+02
      vertex -1.113086e+02 9.017546e+00 -5.261264e+02
      vertex -1.134842e+02 9.271682e+00 -5.407167e+02
    endloop
  endfacet
  facet normal 9.984129e-01 2.641693e-03 -5.625506e-02
    outer loop
      vertex -1.104875e+02 1.039001e+01 -5.114905e+02
      vertex -1.113086e+02 9.017546e+00 -5.261264e+02
      vertex -1.113147e+02 1.068182e+01 -5.261575e+02
    endloop
  endfacet
  facet normal 9.737187e-01 3.966459e-03 -2.277195e-01
    outer loop
      vertex -1.134842e+02 1.097089e+01 -5.406871e+02
      vertex -1.134842e+02 9.271682e+00 -5.407167e+02
      vertex -1.135654e+02 9.277726e+00 -5.410636e+02
    endloop
  endfacet
  facet normal 9.890397e-01 2.571401e-03 -1.476275e-01
    outer loop
      vertex -1.113147e+02 1.068182e+01 -5.261575e+02
      vertex -1.134842e+02 9.271682e+00 -5.407167e+02
      vertex -1.134842e+02 1.097089e+01 -5.406871e+02
    endloop
  endfacet
  facet normal 9.550246e-01 5.071320e-03 -2.964831e-01
    outer loop
      vertex -1.136702e+02 1.018064e+01 -5.413860e+02
      vertex -1.135654e+02 9.277726e+00 -5.410636e+02
      vertex -1.136710e+02 9.283652e+00 -5.414038e+02
    endloop
  endfacet
  facet normal 9.620631e-01 1.447179e-02 -2.724428e-01
    outer loop
      vertex -1.134842e+02 1.097089e+01 -5.406871e+02
      vertex -1.135654e+02 9.277726e+00 -5.410636e+02
      vertex -1.136702e+02 1.018064e+01 -5.413860e+02
    endloop
  endfacet
  facet normal -1.845214e-17 -9.998483e-01 -1.741553e-02
    outer loop
      vertex -2.479789e+02 9.231898e+00 -5.384326e+02
      vertex -2.504789e+02 9.243564e+00 -5.391024e+02
      vertex -1.136710e+02 9.283652e+00 -5.414038e+02
    endloop
  endfacet
  facet normal 8.727285e-18 -9.998483e-01 -1.741553e-02
    outer loop
      vertex -2.461487e+02 9.200025e+00 -5.366027e+02
      vertex -2.479789e+02 9.231898e+00 -5.384326e+02
      vertex -1.136710e+02 9.283652e+00 -5.414038e+02
    endloop
  endfacet
  facet normal -1.493991e-17 -9.998483e-01 -1.741553e-02
    outer loop
      vertex -2.454789e+02 9.156486e+00 -5.341031e+02
      vertex -2.461487e+02 9.200025e+00 -5.366027e+02
      vertex -1.136710e+02 9.283652e+00 -5.414038e+02
    endloop
  endfacet
  facet normal -2.588172e-01 -1.682212e-02 9.657798e-01
    outer loop
      vertex -2.504789e+02 1.093877e+01 -5.390728e+02
      vertex -2.504789e+02 9.243564e+00 -5.391024e+02
      vertex -2.479789e+02 9.231898e+00 -5.384326e+02
    endloop
  endfacet
  facet normal -7.071068e-01 -1.231527e-02 7.069995e-01
    outer loop
      vertex -2.479789e+02 1.092545e+01 -5.384031e+02
      vertex -2.479789e+02 9.231898e+00 -5.384326e+02
      vertex -2.461487e+02 9.200025e+00 -5.366027e+02
    endloop
  endfacet
  facet normal -2.588168e-01 -1.682149e-02 9.657799e-01
    outer loop
      vertex -2.504789e+02 1.093877e+01 -5.390728e+02
      vertex -2.479789e+02 9.231898e+00 -5.384326e+02
      vertex -2.479789e+02 1.092545e+01 -5.384031e+02
    endloop
  endfacet
  facet normal -9.659263e-01 -4.508073e-03 2.587780e-01
    outer loop
      vertex -2.461488e+02 1.088904e+01 -5.365733e+02
      vertex -2.461487e+02 9.200025e+00 -5.366027e+02
      vertex -2.454789e+02 9.156486e+00 -5.341031e+02
    endloop
  endfacet
  facet normal -7.071062e-01 -1.231402e-02 7.070001e-01
    outer loop
      vertex -2.479789e+02 1.092545e+01 -5.384031e+02
      vertex -2.461487e+02 9.200025e+00 -5.366027e+02
      vertex -2.461488e+02 1.088904e+01 -5.365733e+02
    endloop
  endfacet
  facet normal -9.659262e-01 -4.507447e-03 2.587784e-01
    outer loop
      vertex -2.461488e+02 1.088904e+01 -5.365733e+02
      vertex -2.454789e+02 9.156486e+00 -5.341031e+02
      vertex -2.454789e+02 1.083932e+01 -5.340738e+02
    endloop
  endfacet
  facet normal -1.000000e+00 0.000000e+00 0.000000e+00
    outer loop
      vertex -2.454789e+02 9.090770e+00 -5.203125e+02
      vertex -2.454789e+02 1.083932e+01 -5.340738e+02
      vertex -2.454789e+02 9.156486e+00 -5.341031e+02
    endloop
  endfacet
  facet normal 7.942196e-01 -1.191001e-01 -5.958442e-01
    outer loop
      vertex -1.151546e+02 1.102753e+01 -5.435339e+02
      vertex -1.136702e+02 1.018064e+01 -5.413860e+02
      vertex -1.154699e+02 1.022855e+01 -5.437944e+02
    endloop
  endfacet
  facet normal 8.405225e-01 2.342060e-01 -4.885380e-01
    outer loop
      vertex -1.134842e+02 1.097089e+01 -5.406871e+02
      vertex -1.136702e+02 1.018064e+01 -5.413860e+02
      vertex -1.151546e+02 1.102753e+01 -5.435339e+02
    endloop
  endfacet
  facet normal 0.000000e+00 -9.998021e-01 -1.989172e-02
    outer loop
      vertex -1.194789e+02 1.022830e+01 -5.437815e+02
      vertex -1.194789e+02 1.024727e+01 -5.447353e+02
      vertex -1.183259e+02 1.024727e+01 -5.447353e+02
    endloop
  endfacet
  facet normal 0.000000e+00 1.989172e-02 -9.998021e-01
    outer loop
      vertex -1.182352e+02 1.105112e+01 -5.447193e+02
      vertex -1.183259e+02 1.024727e+01 -5.447353e+02
      vertex -1.194789e+02 1.024727e+01 -5.447353e+02
    endloop
  endfacet
  facet normal -2.186450e-16 -9.998021e-01 -1.989172e-02
    outer loop
      vertex -1.154699e+02 1.022855e+01 -5.437944e+02
      vertex -1.194789e+02 1.022830e+01 -5.437815e+02
      vertex -1.183259e+02 1.024727e+01 -5.447353e+02
    endloop
  endfacet
  facet normal 3.126239e-01 -2.722854e-02 -9.494867e-01
    outer loop
      vertex -1.182867e+02 1.051311e+01 -5.447300e+02
      vertex -1.154699e+02 1.022855e+01 -5.437944e+02
      vertex -1.183259e+02 1.024727e+01 -5.447353e+02
    endloop
  endfacet
  facet normal 1.572337e-12 1.989172e-02 -9.998021e-01
    outer loop
      vertex -1.182352e+02 1.105112e+01 -5.447193e+02
      vertex -1.182867e+02 1.051311e+01 -5.447300e+02
      vertex -1.183259e+02 1.024727e+01 -5.447353e+02
    endloop
  endfacet
  facet normal 1.000000e+00 1.700214e-13 3.382689e-15
    outer loop
      vertex -1.194789e+02 1.008018e+01 -5.447386e+02
      vertex -1.194789e+02 1.024727e+01 -5.447353e+02
      vertex -1.194789e+02 1.022830e+01 -5.437815e+02
    endloop
  endfacet
  facet normal 1.000000e+00 3.146670e-14 5.480926e-16
    outer loop
      vertex -1.194789e+02 9.329167e+00 -5.440169e+02
      vertex -1.194789e+02 1.022830e+01 -5.437815e+02
      vertex -1.194789e+02 9.325379e+00 -5.437995e+02
    endloop
  endfacet
  facet normal 1.000000e+00 2.484161e-14 2.585015e-14
    outer loop
      vertex -1.194789e+02 1.008018e+01 -5.447386e+02
      vertex -1.194789e+02 1.022830e+01 -5.437815e+02
      vertex -1.194789e+02 9.329167e+00 -5.440169e+02
    endloop
  endfacet
  facet normal 3.141806e-01 -1.119555e-02 -9.492972e-01
    outer loop
      vertex -1.182352e+02 1.105112e+01 -5.447193e+02
      vertex -1.154699e+02 1.022855e+01 -5.437944e+02
      vertex -1.182867e+02 1.051311e+01 -5.447300e+02
    endloop
  endfacet
  facet normal 3.555849e-01 1.599848e-01 -9.208497e-01
    outer loop
      vertex -1.151546e+02 1.102753e+01 -5.435339e+02
      vertex -1.154699e+02 1.022855e+01 -5.437944e+02
      vertex -1.182352e+02 1.105112e+01 -5.447193e+02
    endloop
  endfacet
  facet normal -1.287537e-15 9.998021e-01 1.989172e-02
    outer loop
      vertex -1.274789e+02 1.058487e+01 -5.212850e+02
      vertex -1.266129e+02 1.057493e+01 -5.207851e+02
      vertex -1.182352e+02 1.105112e+01 -5.447193e+02
    endloop
  endfacet
  facet normal 4.891019e-17 9.998021e-01 1.989172e-02
    outer loop
      vertex -1.113460e+02 1.036477e+01 -5.102222e+02
      vertex -1.182352e+02 1.105112e+01 -5.447193e+02
      vertex -1.266129e+02 1.057493e+01 -5.207851e+02
    endloop
  endfacet
  facet normal 1.202230e-17 9.998021e-01 1.989172e-02
    outer loop
      vertex -2.504789e+02 1.093877e+01 -5.390728e+02
      vertex -1.274789e+02 1.058487e+01 -5.212850e+02
      vertex -1.182352e+02 1.105112e+01 -5.447193e+02
    endloop
  endfacet
  facet normal -7.965408e-16 9.998021e-01 1.989172e-02
    outer loop
      vertex -1.113460e+02 1.036477e+01 -5.102222e+02
      vertex -1.151546e+02 1.102753e+01 -5.435339e+02
      vertex -1.182352e+02 1.105112e+01 -5.447193e+02
    endloop
  endfacet
  facet normal 0.000000e+00 9.998021e-01 1.989172e-02
    outer loop
      vertex -1.113460e+02 1.036477e+01 -5.102222e+02
      vertex -2.244789e+02 1.054012e+01 -5.190355e+02
      vertex -2.284669e+02 1.054012e+01 -5.190355e+02
    endloop
  endfacet
  facet normal 3.683369e-17 9.998021e-01 1.989172e-02
    outer loop
      vertex -1.113460e+02 1.036477e+01 -5.102222e+02
      vertex -2.284669e+02 1.054012e+01 -5.190355e+02
      vertex -2.284669e+02 1.050531e+01 -5.172858e+02
    endloop
  endfacet
  facet normal -1.171642e-15 9.998021e-01 1.989172e-02
    outer loop
      vertex -1.113460e+02 1.036477e+01 -5.102222e+02
      vertex -2.241253e+02 1.054140e+01 -5.191000e+02
      vertex -2.244789e+02 1.054012e+01 -5.190355e+02
    endloop
  endfacet
  facet normal 5.916211e-16 9.998021e-01 1.989172e-02
    outer loop
      vertex -1.113460e+02 1.036477e+01 -5.102222e+02
      vertex -2.238175e+02 1.054509e+01 -5.192854e+02
      vertex -2.241253e+02 1.054140e+01 -5.191000e+02
    endloop
  endfacet
  facet normal 0.000000e+00 9.998021e-01 1.989172e-02
    outer loop
      vertex -1.113460e+02 1.036477e+01 -5.102222e+02
      vertex -1.274789e+02 1.054509e+01 -5.192854e+02
      vertex -2.238175e+02 1.054509e+01 -5.192854e+02
    endloop
  endfacet
  facet normal -1.255548e-16 9.998021e-01 1.989172e-02
    outer loop
      vertex -1.113460e+02 1.036477e+01 -5.102222e+02
      vertex -1.266129e+02 1.055504e+01 -5.197853e+02
      vertex -1.274789e+02 1.054509e+01 -5.192854e+02
    endloop
  endfacet
  facet normal -8.726132e-17 9.998021e-01 1.989172e-02
    outer loop
      vertex -1.113460e+02 1.036477e+01 -5.102222e+02
      vertex -1.266129e+02 1.057493e+01 -5.207851e+02
      vertex -1.266129e+02 1.055504e+01 -5.197853e+02
    endloop
  endfacet
  facet normal 0.000000e+00 9.998021e-01 1.989172e-02
    outer loop
      vertex -2.479789e+02 1.092545e+01 -5.384031e+02
      vertex -2.238175e+02 1.058487e+01 -5.212850e+02
      vertex -1.274789e+02 1.058487e+01 -5.212850e+02
    endloop
  endfacet
  facet normal -2.986755e-16 9.998021e-01 1.989172e-02
    outer loop
      vertex -2.504789e+02 1.093877e+01 -5.390728e+02
      vertex -2.479789e+02 1.092545e+01 -5.384031e+02
      vertex -1.274789e+02 1.058487e+01 -5.212850e+02
    endloop
  endfacet
  facet normal -1.122087e-15 9.998021e-01 1.989172e-02
    outer loop
      vertex -2.479789e+02 1.092545e+01 -5.384031e+02
      vertex -2.241253e+02 1.058856e+01 -5.214704e+02
      vertex -2.238175e+02 1.058487e+01 -5.212850e+02
    endloop
  endfacet
  facet normal 6.390923e-15 9.998021e-01 1.989172e-02
    outer loop
      vertex -2.479789e+02 1.092545e+01 -5.384031e+02
      vertex -2.244789e+02 1.058985e+01 -5.215350e+02
      vertex -2.241253e+02 1.058856e+01 -5.214704e+02
    endloop
  endfacet
  facet normal 0.000000e+00 9.998021e-01 1.989172e-02
    outer loop
      vertex -2.284669e+02 1.062466e+01 -5.232846e+02
      vertex -2.284669e+02 1.058985e+01 -5.215350e+02
      vertex -2.244789e+02 1.058985e+01 -5.215350e+02
    endloop
  endfacet
  facet normal 5.593537e-16 9.998021e-01 1.989172e-02
    outer loop
      vertex -2.287598e+02 1.063872e+01 -5.239916e+02
      vertex -2.284669e+02 1.062466e+01 -5.232846e+02
      vertex -2.244789e+02 1.058985e+01 -5.215350e+02
    endloop
  endfacet
  facet normal -1.287848e-15 9.998021e-01 1.989172e-02
    outer loop
      vertex -2.479789e+02 1.092545e+01 -5.384031e+02
      vertex -2.287598e+02 1.063872e+01 -5.239916e+02
      vertex -2.244789e+02 1.058985e+01 -5.215350e+02
    endloop
  endfacet
  facet normal 4.671333e-15 9.998021e-01 1.989172e-02
    outer loop
      vertex -2.479789e+02 1.092545e+01 -5.384031e+02
      vertex -2.294669e+02 1.064455e+01 -5.242844e+02
      vertex -2.287598e+02 1.063872e+01 -5.239916e+02
    endloop
  endfacet
  facet normal 0.000000e+00 9.998021e-01 1.989172e-02
    outer loop
      vertex -2.479789e+02 1.092545e+01 -5.384031e+02
      vertex -2.304789e+02 1.064455e+01 -5.242844e+02
      vertex -2.294669e+02 1.064455e+01 -5.242844e+02
    endloop
  endfacet
  facet normal -9.404287e-16 9.998021e-01 1.989172e-02
    outer loop
      vertex -2.479789e+02 1.092545e+01 -5.384031e+02
      vertex -2.311860e+02 1.063872e+01 -5.239916e+02
      vertex -2.304789e+02 1.064455e+01 -5.242844e+02
    endloop
  endfacet
  facet normal 3.310739e-16 9.998021e-01 1.989172e-02
    outer loop
      vertex -2.479789e+02 1.092545e+01 -5.384031e+02
      vertex -2.314789e+02 1.062466e+01 -5.232846e+02
      vertex -2.311860e+02 1.063872e+01 -5.239916e+02
    endloop
  endfacet
  facet normal 1.715420e-16 9.998021e-01 1.989172e-02
    outer loop
      vertex -2.461488e+02 1.088904e+01 -5.365733e+02
      vertex -2.314789e+02 1.050531e+01 -5.172858e+02
      vertex -2.314789e+02 1.062466e+01 -5.232846e+02
    endloop
  endfacet
  facet normal 1.000000e+00 0.000000e+00 0.000000e+00
    outer loop
      vertex -2.314789e+02 1.039051e+01 -5.202866e+02
      vertex -2.314789e+02 1.062466e+01 -5.232846e+02
      vertex -2.314789e+02 1.050531e+01 -5.172858e+02
    endloop
  endfacet
  facet normal 8.360625e-15 9.998021e-01 1.989172e-02
    outer loop
      vertex -2.479789e+02 1.092545e+01 -5.384031e+02
      vertex -2.461488e+02 1.088904e+01 -5.365733e+02
      vertex -2.314789e+02 1.062466e+01 -5.232846e+02
    endloop
  endfacet
  facet normal 8.016444e-16 9.998021e-01 1.989172e-02
    outer loop
      vertex -2.446129e+02 1.036477e+01 -5.102222e+02
      vertex -2.311860e+02 1.049124e+01 -5.165788e+02
      vertex -2.314789e+02 1.050531e+01 -5.172858e+02
    endloop
  endfacet
  facet normal -1.308793e-15 9.998021e-01 1.989172e-02
    outer loop
      vertex -2.461488e+02 1.088904e+01 -5.365733e+02
      vertex -2.454789e+02 1.083932e+01 -5.340738e+02
      vertex -2.314789e+02 1.050531e+01 -5.172858e+02
    endloop
  endfacet
  facet normal -8.063039e-17 9.998021e-01 1.989172e-02
    outer loop
      vertex -2.446129e+02 1.036477e+01 -5.102222e+02
      vertex -2.314789e+02 1.050531e+01 -5.172858e+02
      vertex -2.454789e+02 1.083932e+01 -5.340738e+02
    endloop
  endfacet
  facet normal 1.000000e+00 0.000000e+00 0.000000e+00
    outer loop
      vertex -2.314789e+02 1.005440e+01 -5.197303e+02
      vertex -2.314789e+02 1.039051e+01 -5.202866e+02
      vertex -2.314789e+02 1.050531e+01 -5.172858e+02
    endloop
  endfacet
  facet normal 1.000000e+00 0.000000e+00 0.000000e+00
    outer loop
      vertex -2.314789e+02 9.404491e+00 -5.197432e+02
      vertex -2.314789e+02 1.050531e+01 -5.172858e+02
      vertex -2.314789e+02 9.090770e+00 -5.203125e+02
    endloop
  endfacet
  facet normal 1.000000e+00 0.000000e+00 0.000000e+00
    outer loop
      vertex -2.314789e+02 1.005440e+01 -5.197303e+02
      vertex -2.314789e+02 1.050531e+01 -5.172858e+02
      vertex -2.314789e+02 9.404491e+00 -5.197432e+02
    endloop
  endfacet
  facet normal -5.532413e-16 9.998021e-01 1.989172e-02
    outer loop
      vertex -2.446129e+02 1.036477e+01 -5.102222e+02
      vertex -2.304789e+02 1.048542e+01 -5.162860e+02
      vertex -2.311860e+02 1.049124e+01 -5.165788e+02
    endloop
  endfacet
  facet normal 0.000000e+00 9.998021e-01 1.989172e-02
    outer loop
      vertex -1.113460e+02 1.036477e+01 -5.102222e+02
      vertex -2.294669e+02 1.048542e+01 -5.162860e+02
      vertex -2.304789e+02 1.048542e+01 -5.162860e+02
    endloop
  endfacet
  facet normal 0.000000e+00 9.998021e-01 1.989172e-02
    outer loop
      vertex -2.446129e+02 1.036477e+01 -5.102222e+02
      vertex -1.113460e+02 1.036477e+01 -5.102222e+02
      vertex -2.304789e+02 1.048542e+01 -5.162860e+02
    endloop
  endfacet
  facet normal -8.279737e-17 9.998021e-01 1.989172e-02
    outer loop
      vertex -1.113460e+02 1.036477e+01 -5.102222e+02
      vertex -2.287598e+02 1.049124e+01 -5.165788e+02
      vertex -2.294669e+02 1.048542e+01 -5.162860e+02
    endloop
  endfacet
  facet normal 0.000000e+00 9.998021e-01 1.989172e-02
    outer loop
      vertex -1.113460e+02 1.036477e+01 -5.102222e+02
      vertex -2.284669e+02 1.050531e+01 -5.172858e+02
      vertex -2.287598e+02 1.049124e+01 -5.165788e+02
    endloop
  endfacet
  facet normal -1.150904e-15 9.998021e-01 1.989172e-02
    outer loop
      vertex -2.448500e+02 1.038007e+01 -5.109911e+02
      vertex -2.454789e+02 1.083932e+01 -5.340738e+02
      vertex -2.454789e+02 1.039006e+01 -5.114931e+02
    endloop
  endfacet
  facet normal -1.000000e+00 0.000000e+00 0.000000e+00
    outer loop
      vertex -2.454789e+02 1.039051e+01 -5.202866e+02
      vertex -2.454789e+02 1.039006e+01 -5.114931e+02
      vertex -2.454789e+02 1.083932e+01 -5.340738e+02
    endloop
  endfacet
  facet normal -3.319806e-01 8.382497e-01 4.325810e-01
    outer loop
      vertex -2.454789e+02 9.986238e+00 -5.107106e+02
      vertex -2.448500e+02 1.038007e+01 -5.109911e+02
      vertex -2.454789e+02 1.039006e+01 -5.114931e+02
    endloop
  endfacet
  facet normal -1.000000e+00 0.000000e+00 0.000000e+00
    outer loop
      vertex -2.454789e+02 1.005440e+01 -5.197303e+02
      vertex -2.454789e+02 1.039006e+01 -5.114931e+02
      vertex -2.454789e+02 1.039051e+01 -5.202866e+02
    endloop
  endfacet
  facet normal 1.713127e-15 9.998021e-01 1.989172e-02
    outer loop
      vertex -2.448500e+02 1.038007e+01 -5.109911e+02
      vertex -2.446129e+02 1.036477e+01 -5.102222e+02
      vertex -2.454789e+02 1.083932e+01 -5.340738e+02
    endloop
  endfacet
  facet normal -1.000000e+00 0.000000e+00 0.000000e+00
    outer loop
      vertex -2.454789e+02 1.007679e+01 -5.208559e+02
      vertex -2.454789e+02 1.039051e+01 -5.202866e+02
      vertex -2.454789e+02 1.083932e+01 -5.340738e+02
    endloop
  endfacet
  facet normal -1.000000e+00 0.000000e+00 0.000000e+00
    outer loop
      vertex -2.454789e+02 9.426885e+00 -5.208688e+02
      vertex -2.454789e+02 1.007679e+01 -5.208559e+02
      vertex -2.454789e+02 1.083932e+01 -5.340738e+02
    endloop
  endfacet
  facet normal -1.000000e+00 0.000000e+00 0.000000e+00
    outer loop
      vertex -2.454789e+02 9.090770e+00 -5.203125e+02
      vertex -2.454789e+02 9.426885e+00 -5.208688e+02
      vertex -2.454789e+02 1.083932e+01 -5.340738e+02
    endloop
  endfacet
  facet normal 0.000000e+00 9.998021e-01 1.989172e-02
    outer loop
      vertex -1.113460e+02 1.036477e+01 -5.102222e+02
      vertex -1.134842e+02 1.097089e+01 -5.406871e+02
      vertex -1.151546e+02 1.102753e+01 -5.435339e+02
    endloop
  endfacet
  facet normal 4.056475e-16 9.998021e-01 1.989172e-02
    outer loop
      vertex -1.113460e+02 1.036477e+01 -5.102222e+02
      vertex -1.113147e+02 1.068182e+01 -5.261575e+02
      vertex -1.134842e+02 1.097089e+01 -5.406871e+02
    endloop
  endfacet
  facet normal 3.859580e-16 9.998021e-01 1.989172e-02
    outer loop
      vertex -1.111112e+02 1.038001e+01 -5.109879e+02
      vertex -1.104875e+02 1.039001e+01 -5.114905e+02
      vertex -1.113147e+02 1.068182e+01 -5.261575e+02
    endloop
  endfacet
  facet normal -1.657083e-15 9.998021e-01 1.989172e-02
    outer loop
      vertex -1.113460e+02 1.036477e+01 -5.102222e+02
      vertex -1.111112e+02 1.038001e+01 -5.109879e+02
      vertex -1.113147e+02 1.068182e+01 -5.261575e+02
    endloop
  endfacet
  facet normal 3.345610e-01 8.376281e-01 4.317964e-01
    outer loop
      vertex -1.104814e+02 9.992588e+00 -5.107243e+02
      vertex -1.104875e+02 1.039001e+01 -5.114905e+02
      vertex -1.111112e+02 1.038001e+01 -5.109879e+02
    endloop
  endfacet
  facet normal 5.032273e-01 8.470349e-01 1.711553e-01
    outer loop
      vertex -1.104801e+02 9.899234e+00 -5.104640e+02
      vertex -1.111112e+02 1.038001e+01 -5.109879e+02
      vertex -1.113460e+02 1.036477e+01 -5.102222e+02
    endloop
  endfacet
  facet normal 4.019614e-01 8.625336e-01 3.073481e-01
    outer loop
      vertex -1.104814e+02 9.992588e+00 -5.107243e+02
      vertex -1.111112e+02 1.038001e+01 -5.109879e+02
      vertex -1.104801e+02 9.899234e+00 -5.104640e+02
    endloop
  endfacet
  facet normal 0.000000e+00 -1.989172e-02 9.998021e-01
    outer loop
      vertex -1.106531e+02 9.964850e+00 -5.102301e+02
      vertex -1.113460e+02 1.036477e+01 -5.102222e+02
      vertex -2.446129e+02 1.036477e+01 -5.102222e+02
    endloop
  endfacet
  facet normal 4.969808e-01 8.584430e-01 1.268290e-01
    outer loop
      vertex -1.104801e+02 9.899234e+00 -5.104640e+02
      vertex -1.113460e+02 1.036477e+01 -5.102222e+02
      vertex -1.106531e+02 9.964850e+00 -5.102301e+02
    endloop
  endfacet
  facet normal -4.941643e-01 8.527182e-01 1.693321e-01
    outer loop
      vertex -2.453057e+02 9.964850e+00 -5.102301e+02
      vertex -2.446129e+02 1.036477e+01 -5.102222e+02
      vertex -2.448500e+02 1.038007e+01 -5.109911e+02
    endloop
  endfacet
  facet normal 0.000000e+00 -1.989172e-02 9.998021e-01
    outer loop
      vertex -2.453057e+02 9.964850e+00 -5.102301e+02
      vertex -1.106531e+02 9.964850e+00 -5.102301e+02
      vertex -2.446129e+02 1.036477e+01 -5.102222e+02
    endloop
  endfacet
  facet normal -4.941643e-01 8.527182e-01 1.693321e-01
    outer loop
      vertex -2.454789e+02 9.864870e+00 -5.102321e+02
      vertex -2.453057e+02 9.964850e+00 -5.102301e+02
      vertex -2.448500e+02 1.038007e+01 -5.109911e+02
    endloop
  endfacet
  facet normal -4.036862e-01 8.623402e-01 3.056253e-01
    outer loop
      vertex -2.454789e+02 9.900234e+00 -5.104680e+02
      vertex -2.448500e+02 1.038007e+01 -5.109911e+02
      vertex -2.454789e+02 9.986238e+00 -5.107106e+02
    endloop
  endfacet
  facet normal -5.337373e-01 8.363013e-01 1.253976e-01
    outer loop
      vertex -2.454789e+02 9.864870e+00 -5.102321e+02
      vertex -2.448500e+02 1.038007e+01 -5.109911e+02
      vertex -2.454789e+02 9.900234e+00 -5.104680e+02
    endloop
  endfacet
  facet normal 0.000000e+00 9.998021e-01 1.989172e-02
    outer loop
      vertex -1.106521e+02 9.808934e+00 -5.023934e+02
      vertex -1.106531e+02 9.964850e+00 -5.102301e+02
      vertex -2.453057e+02 9.964850e+00 -5.102301e+02
    endloop
  endfacet
  facet normal 4.977261e-01 8.671640e-01 1.718603e-02
    outer loop
      vertex -1.104794e+02 9.865152e+00 -5.102321e+02
      vertex -1.106531e+02 9.964850e+00 -5.102301e+02
      vertex -1.106521e+02 9.808934e+00 -5.023934e+02
    endloop
  endfacet
  facet normal 4.948323e-01 8.599790e-01 1.248086e-01
    outer loop
      vertex -1.104801e+02 9.899234e+00 -5.104640e+02
      vertex -1.106531e+02 9.964850e+00 -5.102301e+02
      vertex -1.104794e+02 9.865152e+00 -5.102321e+02
    endloop
  endfacet
  facet normal -1.610699e-17 9.998021e-01 1.989172e-02
    outer loop
      vertex -1.116425e+02 9.573849e+00 -4.905775e+02
      vertex -1.106521e+02 9.808934e+00 -5.023934e+02
      vertex -2.453057e+02 9.964850e+00 -5.102301e+02
    endloop
  endfacet
  facet normal -8.315627e-18 9.998021e-01 1.989172e-02
    outer loop
      vertex -1.135055e+02 9.340871e+00 -4.788675e+02
      vertex -1.116425e+02 9.573849e+00 -4.905775e+02
      vertex -2.453057e+02 9.964850e+00 -5.102301e+02
    endloop
  endfacet
  facet normal 5.839586e-16 9.998021e-01 1.989172e-02
    outer loop
      vertex -1.135570e+02 9.337044e+00 -4.786752e+02
      vertex -1.135055e+02 9.340871e+00 -4.788675e+02
      vertex -2.453057e+02 9.964850e+00 -5.102301e+02
    endloop
  endfacet
  facet normal -2.208344e-16 9.998021e-01 1.989172e-02
    outer loop
      vertex -1.136274e+02 9.333338e+00 -4.784889e+02
      vertex -1.135570e+02 9.337044e+00 -4.786752e+02
      vertex -2.453057e+02 9.964850e+00 -5.102301e+02
    endloop
  endfacet
  facet normal 1.348746e-17 9.998021e-01 1.989172e-02
    outer loop
      vertex -2.453057e+02 9.333338e+00 -4.784889e+02
      vertex -1.136274e+02 9.333338e+00 -4.784889e+02
      vertex -2.453057e+02 9.964850e+00 -5.102301e+02
    endloop
  endfacet
  facet normal -5.000000e-01 8.658541e-01 1.722674e-02
    outer loop
      vertex -2.454789e+02 9.233353e+00 -4.784906e+02
      vertex -2.453057e+02 9.333338e+00 -4.784889e+02
      vertex -2.453057e+02 9.964850e+00 -5.102301e+02
    endloop
  endfacet
  facet normal -5.000000e-01 8.658541e-01 1.722674e-02
    outer loop
      vertex -2.454789e+02 9.864870e+00 -5.102321e+02
      vertex -2.454789e+02 9.233353e+00 -4.784906e+02
      vertex -2.453057e+02 9.964850e+00 -5.102301e+02
    endloop
  endfacet
  facet normal 9.965072e-01 -1.454317e-03 8.349421e-02
    outer loop
      vertex -1.106521e+02 9.004466e+00 -5.024074e+02
      vertex -1.106521e+02 9.808934e+00 -5.023934e+02
      vertex -1.116425e+02 9.573849e+00 -4.905775e+02
    endloop
  endfacet
  facet normal 9.994058e-01 -6.002582e-04 3.446160e-02
    outer loop
      vertex -1.105191e+02 9.148426e+00 -5.062626e+02
      vertex -1.106521e+02 9.808934e+00 -5.023934e+02
      vertex -1.106521e+02 9.004466e+00 -5.024074e+02
    endloop
  endfacet
  facet normal 9.994125e-01 5.217956e-04 3.427028e-02
    outer loop
      vertex -1.105177e+02 9.809303e+00 -5.063123e+02
      vertex -1.106521e+02 9.808934e+00 -5.023934e+02
      vertex -1.105191e+02 9.148426e+00 -5.062626e+02
    endloop
  endfacet
  facet normal 5.000000e-01 8.658541e-01 1.722674e-02
    outer loop
      vertex -1.104794e+02 9.865152e+00 -5.102321e+02
      vertex -1.106521e+02 9.808934e+00 -5.023934e+02
      vertex -1.105177e+02 9.809303e+00 -5.063123e+02
    endloop
  endfacet
  facet normal 9.875843e-01 -2.727278e-03 1.570665e-01
    outer loop
      vertex -1.116425e+02 8.798643e+00 -4.905908e+02
      vertex -1.116425e+02 9.573849e+00 -4.905775e+02
      vertex -1.135055e+02 9.340871e+00 -4.788675e+02
    endloop
  endfacet
  facet normal 9.965072e-01 -1.462857e-03 8.349462e-02
    outer loop
      vertex -1.106521e+02 9.004466e+00 -5.024074e+02
      vertex -1.116425e+02 9.573849e+00 -4.905775e+02
      vertex -1.116425e+02 8.798643e+00 -4.905908e+02
    endloop
  endfacet
  facet normal 9.659308e-01 -4.507150e-03 2.587613e-01
    outer loop
      vertex -1.135055e+02 8.594670e+00 -4.788805e+02
      vertex -1.135055e+02 9.340871e+00 -4.788675e+02
      vertex -1.135570e+02 9.337044e+00 -4.786752e+02
    endloop
  endfacet
  facet normal 9.875842e-01 -2.735818e-03 1.570669e-01
    outer loop
      vertex -1.116425e+02 8.798643e+00 -4.905908e+02
      vertex -1.135055e+02 9.340871e+00 -4.788675e+02
      vertex -1.135055e+02 8.594670e+00 -4.788805e+02
    endloop
  endfacet
  facet normal 9.350959e-01 -3.268306e-02 3.528845e-01
    outer loop
      vertex -1.135055e+02 8.594670e+00 -4.788805e+02
      vertex -1.135570e+02 9.337044e+00 -4.786752e+02
      vertex -1.136274e+02 9.333338e+00 -4.784889e+02
    endloop
  endfacet
  facet normal -2.356244e-19 -1.741553e-02 9.998483e-01
    outer loop
      vertex -1.136274e+02 8.942021e+00 -4.784957e+02
      vertex -1.136274e+02 9.333338e+00 -4.784889e+02
      vertex -2.453057e+02 9.333338e+00 -4.784889e+02
    endloop
  endfacet
  facet normal 9.518468e-01 -5.339151e-03 3.065276e-01
    outer loop
      vertex -1.135055e+02 8.594670e+00 -4.788805e+02
      vertex -1.136274e+02 9.333338e+00 -4.784889e+02
      vertex -1.136274e+02 8.942021e+00 -4.784957e+02
    endloop
  endfacet
  facet normal 0.000000e+00 -1.741553e-02 9.998483e-01
    outer loop
      vertex -2.451325e+02 8.942021e+00 -4.784957e+02
      vertex -1.136274e+02 8.942021e+00 -4.784957e+02
      vertex -2.453057e+02 9.333338e+00 -4.784889e+02
    endloop
  endfacet
  facet normal -1.511547e-13 -1.741553e-02 9.998483e-01
    outer loop
      vertex -2.454789e+02 9.233353e+00 -4.784906e+02
      vertex -2.451325e+02 8.942021e+00 -4.784957e+02
      vertex -2.453057e+02 9.333338e+00 -4.784889e+02
    endloop
  endfacet
  facet normal 0.000000e+00 9.998483e-01 1.741553e-02
    outer loop
      vertex -1.143650e+02 8.926805e+00 -4.776222e+02
      vertex -1.136274e+02 8.942021e+00 -4.784957e+02
      vertex -2.451325e+02 8.942021e+00 -4.784957e+02
    endloop
  endfacet
  facet normal 7.557824e-01 1.362061e-01 6.405004e-01
    outer loop
      vertex -1.141812e+02 8.575228e+00 -4.777643e+02
      vertex -1.136274e+02 8.942021e+00 -4.784957e+02
      vertex -1.143650e+02 8.926805e+00 -4.776222e+02
    endloop
  endfacet
  facet normal 8.281400e-01 -2.595714e-01 4.967965e-01
    outer loop
      vertex -1.135055e+02 8.594670e+00 -4.788805e+02
      vertex -1.136274e+02 8.942021e+00 -4.784957e+02
      vertex -1.141812e+02 8.575228e+00 -4.777643e+02
    endloop
  endfacet
  facet normal -3.686163e-14 -1.741553e-02 9.998483e-01
    outer loop
      vertex -2.454789e+02 9.233353e+00 -4.784906e+02
      vertex -2.454789e+02 8.742051e+00 -4.784992e+02
      vertex -2.451325e+02 8.942021e+00 -4.784957e+02
    endloop
  endfacet
  facet normal -5.000000e-01 8.658941e-01 1.508229e-02
    outer loop
      vertex -2.454789e+02 8.729860e+00 -4.777993e+02
      vertex -2.451325e+02 8.942021e+00 -4.784957e+02
      vertex -2.454789e+02 8.742051e+00 -4.784992e+02
    endloop
  endfacet
  facet normal 5.715536e-15 9.998483e-01 1.741553e-02
    outer loop
      vertex -2.450567e+02 8.921219e+00 -4.773014e+02
      vertex -2.451325e+02 8.942021e+00 -4.784957e+02
      vertex -2.451325e+02 8.921534e+00 -4.773195e+02
    endloop
  endfacet
  facet normal -5.000000e-01 8.658941e-01 1.508229e-02
    outer loop
      vertex -2.453917e+02 8.775280e+00 -4.775162e+02
      vertex -2.451325e+02 8.921534e+00 -4.773195e+02
      vertex -2.451325e+02 8.942021e+00 -4.784957e+02
    endloop
  endfacet
  facet normal 1.439009e-17 9.998483e-01 1.741553e-02
    outer loop
      vertex -1.154607e+02 8.921113e+00 -4.772954e+02
      vertex -1.143650e+02 8.926805e+00 -4.776222e+02
      vertex -2.451325e+02 8.942021e+00 -4.784957e+02
    endloop
  endfacet
  facet normal 0.000000e+00 9.998483e-01 1.741553e-02
    outer loop
      vertex -2.449789e+02 8.921113e+00 -4.772954e+02
      vertex -1.154607e+02 8.921113e+00 -4.772954e+02
      vertex -2.451325e+02 8.942021e+00 -4.784957e+02
    endloop
  endfacet
  facet normal 4.617199e-15 9.998483e-01 1.741553e-02
    outer loop
      vertex -2.450567e+02 8.921219e+00 -4.773014e+02
      vertex -2.449789e+02 8.921113e+00 -4.772954e+02
      vertex -2.451325e+02 8.942021e+00 -4.784957e+02
    endloop
  endfacet
  facet normal -5.000000e-01 8.658941e-01 1.508229e-02
    outer loop
      vertex -2.453917e+02 8.775280e+00 -4.775162e+02
      vertex -2.451325e+02 8.942021e+00 -4.784957e+02
      vertex -2.454789e+02 8.729860e+00 -4.777993e+02
    endloop
  endfacet
  facet normal -1.000000e+00 0.000000e+00 0.000000e+00
    outer loop
      vertex -2.454789e+02 9.864870e+00 -5.102321e+02
      vertex -2.454789e+02 8.742051e+00 -4.784992e+02
      vertex -2.454789e+02 9.233353e+00 -4.784906e+02
    endloop
  endfacet
  facet normal -1.000000e+00 0.000000e+00 0.000000e+00
    outer loop
      vertex -2.454789e+02 8.675870e+00 -4.778003e+02
      vertex -2.454789e+02 8.729860e+00 -4.777993e+02
      vertex -2.454789e+02 8.742051e+00 -4.784992e+02
    endloop
  endfacet
  facet normal -1.000000e+00 0.000000e+00 0.000000e+00
    outer loop
      vertex -2.454789e+02 9.238826e+00 -5.101203e+02
      vertex -2.454789e+02 8.675870e+00 -4.778003e+02
      vertex -2.454789e+02 8.742051e+00 -4.784992e+02
    endloop
  endfacet
  facet normal -1.000000e+00 0.000000e+00 0.000000e+00
    outer loop
      vertex -2.454789e+02 9.864870e+00 -5.102321e+02
      vertex -2.454789e+02 9.238826e+00 -5.101203e+02
      vertex -2.454789e+02 8.742051e+00 -4.784992e+02
    endloop
  endfacet
  facet normal -2.319286e-01 -5.357745e-02 9.712562e-01
    outer loop
      vertex -2.449789e+02 8.567182e+00 -4.773024e+02
      vertex -2.450567e+02 8.921219e+00 -4.773014e+02
      vertex -2.451325e+02 8.921534e+00 -4.773195e+02
    endloop
  endfacet
  facet normal -1.771536e-01 -2.923198e-02 9.837490e-01
    outer loop
      vertex -2.451532e+02 8.567729e+00 -4.773338e+02
      vertex -2.449789e+02 8.567182e+00 -4.773024e+02
      vertex -2.451325e+02 8.921534e+00 -4.773195e+02
    endloop
  endfacet
  facet normal -6.056409e-01 3.466514e-03 7.957305e-01
    outer loop
      vertex -2.453917e+02 8.775280e+00 -4.775162e+02
      vertex -2.451532e+02 8.567729e+00 -4.773338e+02
      vertex -2.451325e+02 8.921534e+00 -4.773195e+02
    endloop
  endfacet
  facet normal 2.809966e-01 1.672217e-01 9.450279e-01
    outer loop
      vertex -1.154457e+02 8.898505e+00 -4.772958e+02
      vertex -1.143650e+02 8.926805e+00 -4.776222e+02
      vertex -1.154607e+02 8.921113e+00 -4.772954e+02
    endloop
  endfacet
  facet normal 2.875866e-01 4.828296e-02 9.565368e-01
    outer loop
      vertex -1.154333e+02 8.845546e+00 -4.772969e+02
      vertex -1.143650e+02 8.926805e+00 -4.776222e+02
      vertex -1.154457e+02 8.898505e+00 -4.772958e+02
    endloop
  endfacet
  facet normal 2.896410e-01 2.260059e-02 9.568685e-01
    outer loop
      vertex -1.154192e+02 8.746854e+00 -4.772988e+02
      vertex -1.143650e+02 8.926805e+00 -4.776222e+02
      vertex -1.154333e+02 8.845546e+00 -4.772969e+02
    endloop
  endfacet
  facet normal 2.917248e-01 9.647981e-03 9.564536e-01
    outer loop
      vertex -1.154015e+02 8.567182e+00 -4.773024e+02
      vertex -1.143650e+02 8.926805e+00 -4.776222e+02
      vertex -1.154192e+02 8.746854e+00 -4.772988e+02
    endloop
  endfacet
  facet normal 3.487338e-01 -1.888546e-01 9.179971e-01
    outer loop
      vertex -1.141812e+02 8.575228e+00 -4.777643e+02
      vertex -1.143650e+02 8.926805e+00 -4.776222e+02
      vertex -1.154015e+02 8.567182e+00 -4.773024e+02
    endloop
  endfacet
  facet normal 0.000000e+00 -1.989172e-02 9.998021e-01
    outer loop
      vertex -1.154015e+02 8.567182e+00 -4.773024e+02
      vertex -1.154607e+02 8.921113e+00 -4.772954e+02
      vertex -2.449789e+02 8.921113e+00 -4.772954e+02
    endloop
  endfacet
  facet normal -5.325300e-12 -1.989172e-02 9.998021e-01
    outer loop
      vertex -1.154015e+02 8.567182e+00 -4.773024e+02
      vertex -1.154457e+02 8.898505e+00 -4.772958e+02
      vertex -1.154607e+02 8.921113e+00 -4.772954e+02
    endloop
  endfacet
  facet normal -7.801773e-02 -1.983109e-02 9.967547e-01
    outer loop
      vertex -2.449789e+02 8.567182e+00 -4.773024e+02
      vertex -2.449789e+02 8.921113e+00 -4.772954e+02
      vertex -2.450567e+02 8.921219e+00 -4.773014e+02
    endloop
  endfacet
  facet normal 0.000000e+00 -1.989172e-02 9.998021e-01
    outer loop
      vertex -2.449789e+02 8.567182e+00 -4.773024e+02
      vertex -1.154015e+02 8.567182e+00 -4.773024e+02
      vertex -2.449789e+02 8.921113e+00 -4.772954e+02
    endloop
  endfacet
  facet normal 9.264426e-12 -1.989172e-02 9.998021e-01
    outer loop
      vertex -1.154015e+02 8.567182e+00 -4.773024e+02
      vertex -1.154333e+02 8.845546e+00 -4.772969e+02
      vertex -1.154457e+02 8.898505e+00 -4.772958e+02
    endloop
  endfacet
  facet normal -3.316425e-13 -1.989172e-02 9.998021e-01
    outer loop
      vertex -1.154015e+02 8.567182e+00 -4.773024e+02
      vertex -1.154192e+02 8.746854e+00 -4.772988e+02
      vertex -1.154333e+02 8.845546e+00 -4.772969e+02
    endloop
  endfacet
  facet normal -5.002897e-01 1.711306e-01 8.487783e-01
    outer loop
      vertex -2.453917e+02 8.775280e+00 -4.775162e+02
      vertex -2.453057e+02 8.569299e+00 -4.774239e+02
      vertex -2.451532e+02 8.567729e+00 -4.773338e+02
    endloop
  endfacet
  facet normal -5.000000e-01 -8.658941e-01 -1.508229e-02
    outer loop
      vertex -2.454789e+02 9.238826e+00 -5.101203e+02
      vertex -2.453057e+02 8.569299e+00 -4.774239e+02
      vertex -2.454789e+02 8.675870e+00 -4.778003e+02
    endloop
  endfacet
  facet normal -5.000000e-01 -8.658941e-01 -1.508229e-02
    outer loop
      vertex -2.454360e+02 8.647611e+00 -4.775983e+02
      vertex -2.454789e+02 8.675870e+00 -4.778003e+02
      vertex -2.453057e+02 8.569299e+00 -4.774239e+02
    endloop
  endfacet
  facet normal -8.159339e-01 -8.462951e-02 5.719176e-01
    outer loop
      vertex -2.454360e+02 8.647611e+00 -4.775983e+02
      vertex -2.453057e+02 8.569299e+00 -4.774239e+02
      vertex -2.453917e+02 8.775280e+00 -4.775162e+02
    endloop
  endfacet
  facet normal 0.000000e+00 -8.758054e-01 4.826644e-01
    outer loop
      vertex -2.314789e+02 1.039051e+01 -5.202866e+02
      vertex -2.454789e+02 1.039051e+01 -5.202866e+02
      vertex -2.454789e+02 1.007679e+01 -5.208559e+02
    endloop
  endfacet
  facet normal 1.086006e-16 -8.559141e-01 -5.171181e-01
    outer loop
      vertex -2.314789e+02 1.005440e+01 -5.197303e+02
      vertex -2.454789e+02 1.005440e+01 -5.197303e+02
      vertex -2.454789e+02 1.039051e+01 -5.202866e+02
    endloop
  endfacet
  facet normal 0.000000e+00 -8.559141e-01 -5.171181e-01
    outer loop
      vertex -2.314789e+02 1.005440e+01 -5.197303e+02
      vertex -2.454789e+02 1.039051e+01 -5.202866e+02
      vertex -2.314789e+02 1.039051e+01 -5.202866e+02
    endloop
  endfacet
  facet normal -2.523914e-18 -1.989172e-02 9.998021e-01
    outer loop
      vertex -2.314789e+02 1.007679e+01 -5.208559e+02
      vertex -2.454789e+02 1.007679e+01 -5.208559e+02
      vertex -2.454789e+02 9.426885e+00 -5.208688e+02
    endloop
  endfacet
  facet normal -1.111245e-16 -8.758054e-01 4.826644e-01
    outer loop
      vertex -2.314789e+02 1.007679e+01 -5.208559e+02
      vertex -2.314789e+02 1.039051e+01 -5.202866e+02
      vertex -2.454789e+02 1.007679e+01 -5.208559e+02
    endloop
  endfacet
  facet normal 0.000000e+00 8.559141e-01 5.171181e-01
    outer loop
      vertex -2.314789e+02 9.426885e+00 -5.208688e+02
      vertex -2.454789e+02 9.426885e+00 -5.208688e+02
      vertex -2.454789e+02 9.090770e+00 -5.203125e+02
    endloop
  endfacet
  facet normal 0.000000e+00 -1.989172e-02 9.998021e-01
    outer loop
      vertex -2.314789e+02 9.426885e+00 -5.208688e+02
      vertex -2.314789e+02 1.007679e+01 -5.208559e+02
      vertex -2.454789e+02 9.426885e+00 -5.208688e+02
    endloop
  endfacet
  facet normal 0.000000e+00 8.758054e-01 -4.826644e-01
    outer loop
      vertex -2.314789e+02 9.090770e+00 -5.203125e+02
      vertex -2.454789e+02 9.090770e+00 -5.203125e+02
      vertex -2.454789e+02 9.404491e+00 -5.197432e+02
    endloop
  endfacet
  facet normal 0.000000e+00 8.559141e-01 5.171181e-01
    outer loop
      vertex -2.314789e+02 9.090770e+00 -5.203125e+02
      vertex -2.314789e+02 9.426885e+00 -5.208688e+02
      vertex -2.454789e+02 9.090770e+00 -5.203125e+02
    endloop
  endfacet
  facet normal 0.000000e+00 1.989172e-02 -9.998021e-01
    outer loop
      vertex -2.314789e+02 9.404491e+00 -5.197432e+02
      vertex -2.454789e+02 9.404491e+00 -5.197432e+02
      vertex -2.454789e+02 1.005440e+01 -5.197303e+02
    endloop
  endfacet
  facet normal 0.000000e+00 8.758054e-01 -4.826644e-01
    outer loop
      vertex -2.314789e+02 9.404491e+00 -5.197432e+02
      vertex -2.314789e+02 9.090770e+00 -5.203125e+02
      vertex -2.454789e+02 9.404491e+00 -5.197432e+02
    endloop
  endfacet
  facet normal -2.523914e-18 1.989172e-02 -9.998021e-01
    outer loop
      vertex -2.314789e+02 1.005440e+01 -5.197303e+02
      vertex -2.314789e+02 9.404491e+00 -5.197432e+02
      vertex -2.454789e+02 1.005440e+01 -5.197303e+02
    endloop
  endfacet
  facet normal -9.783425e-01 -4.117440e-03 2.069517e-01
    outer loop
      vertex -2.454360e+02 8.647611e+00 -4.775983e+02
      vertex -2.454789e+02 8.729860e+00 -4.777993e+02
      vertex -2.454789e+02 8.675870e+00 -4.778003e+02
    endloop
  endfacet
  facet normal -9.505222e-01 1.580911e-01 2.674224e-01
    outer loop
      vertex -2.454360e+02 8.647611e+00 -4.775983e+02
      vertex -2.453917e+02 8.775280e+00 -4.775162e+02
      vertex -2.454789e+02 8.729860e+00 -4.777993e+02
    endloop
  endfacet
  facet normal -1.000000e+00 0.000000e+00 0.000000e+00
    outer loop
      vertex -2.454789e+02 9.864870e+00 -5.102321e+02
      vertex -2.454789e+02 9.211900e+00 -5.103590e+02
      vertex -2.454789e+02 9.238826e+00 -5.101203e+02
    endloop
  endfacet
  facet normal -1.000000e+00 0.000000e+00 0.000000e+00
    outer loop
      vertex -2.454789e+02 9.900234e+00 -5.104680e+02
      vertex -2.454789e+02 9.135143e+00 -5.106037e+02
      vertex -2.454789e+02 9.211900e+00 -5.103590e+02
    endloop
  endfacet
  facet normal -1.000000e+00 0.000000e+00 0.000000e+00
    outer loop
      vertex -2.454789e+02 9.864870e+00 -5.102321e+02
      vertex -2.454789e+02 9.900234e+00 -5.104680e+02
      vertex -2.454789e+02 9.211900e+00 -5.103590e+02
    endloop
  endfacet
  facet normal -1.000000e+00 0.000000e+00 0.000000e+00
    outer loop
      vertex -2.454789e+02 9.900234e+00 -5.104680e+02
      vertex -2.454789e+02 9.986238e+00 -5.107106e+02
      vertex -2.454789e+02 9.135143e+00 -5.106037e+02
    endloop
  endfacet
  facet normal 9.999459e-01 -1.283031e-03 1.032582e-02
    outer loop
      vertex -1.105177e+02 9.809303e+00 -5.063123e+02
      vertex -1.105191e+02 9.148426e+00 -5.062626e+02
      vertex -1.104791e+02 9.238691e+00 -5.101203e+02
    endloop
  endfacet
  facet normal 9.999495e-01 2.159228e-03 9.810052e-03
    outer loop
      vertex -1.104794e+02 9.865152e+00 -5.102321e+02
      vertex -1.105177e+02 9.809303e+00 -5.063123e+02
      vertex -1.104791e+02 9.238691e+00 -5.101203e+02
    endloop
  endfacet
  facet normal 9.999970e-01 -2.423538e-05 -2.429057e-03
    outer loop
      vertex -1.104797e+02 9.212915e+00 -5.103546e+02
      vertex -1.104794e+02 9.865152e+00 -5.102321e+02
      vertex -1.104791e+02 9.238691e+00 -5.101203e+02
    endloop
  endfacet
  facet normal 9.999949e-01 1.185753e-04 -3.189516e-03
    outer loop
      vertex -1.104797e+02 9.212915e+00 -5.103546e+02
      vertex -1.104801e+02 9.899234e+00 -5.104640e+02
      vertex -1.104794e+02 9.865152e+00 -5.102321e+02
    endloop
  endfacet
  facet normal 9.999888e-01 1.415391e-04 -4.722370e-03
    outer loop
      vertex -1.104809e+02 9.119234e+00 -5.106437e+02
      vertex -1.104814e+02 9.992588e+00 -5.107243e+02
      vertex -1.104801e+02 9.899234e+00 -5.104640e+02
    endloop
  endfacet
  facet normal 9.999919e-01 -1.645850e-05 -4.036626e-03
    outer loop
      vertex -1.104797e+02 9.212915e+00 -5.103546e+02
      vertex -1.104809e+02 9.119234e+00 -5.106437e+02
      vertex -1.104801e+02 9.899234e+00 -5.104640e+02
    endloop
  endfacet
endsolid 123_100022026-25
