solid 129_100022026-23
  facet normal -1.000000e+00 0.000000e+00 0.000000e+00
    outer loop
      vertex -3.154788e+02 2.095269e+00 -5.414014e+02
      vertex -3.154788e+02 1.198117e+00 -5.414059e+02
      vertex -3.154788e+02 1.195254e+00 -5.402559e+02
    endloop
  endfacet
  facet normal 0.000000e+00 -9.999969e-01 -2.489430e-03
    outer loop
      vertex -1.136710e+02 1.198117e+00 -5.414059e+02
      vertex -3.154788e+02 1.195254e+00 -5.402559e+02
      vertex -3.154788e+02 1.198117e+00 -5.414059e+02
    endloop
  endfacet
  facet normal -1.000000e+00 0.000000e+00 0.000000e+00
    outer loop
      vertex -3.154788e+02 2.893548e+00 -5.402474e+02
      vertex -3.154788e+02 2.095269e+00 -5.414014e+02
      vertex -3.154788e+02 1.195254e+00 -5.402559e+02
    endloop
  endfacet
  facet normal 0.000000e+00 -4.966034e-03 9.999877e-01
    outer loop
      vertex -2.904788e+02 1.195254e+00 -5.402559e+02
      vertex -3.154788e+02 2.893548e+00 -5.402474e+02
      vertex -3.154788e+02 1.195254e+00 -5.402559e+02
    endloop
  endfacet
  facet normal 0.000000e+00 -9.999969e-01 -2.489430e-03
    outer loop
      vertex -2.904788e+02 1.195254e+00 -5.402559e+02
      vertex -3.154788e+02 1.195254e+00 -5.402559e+02
      vertex -1.136710e+02 1.198117e+00 -5.414059e+02
    endloop
  endfacet
  facet normal 0.000000e+00 4.966034e-03 -9.999877e-01
    outer loop
      vertex -1.136702e+02 2.095269e+00 -5.414014e+02
      vertex -3.154788e+02 1.198117e+00 -5.414059e+02
      vertex -3.154788e+02 2.095269e+00 -5.414014e+02
    endloop
  endfacet
  facet normal 0.000000e+00 4.966034e-03 -9.999877e-01
    outer loop
      vertex -1.136702e+02 2.095269e+00 -5.414014e+02
      vertex -1.136710e+02 1.198117e+00 -5.414059e+02
      vertex -3.154788e+02 1.198117e+00 -5.414059e+02
    endloop
  endfacet
  facet normal -1.000000e+00 0.000000e+00 0.000000e+00
    outer loop
      vertex -3.154788e+02 2.915895e+00 -5.447474e+02
      vertex -3.154788e+02 2.107167e+00 -5.437974e+02
      vertex -3.154788e+02 2.095269e+00 -5.414014e+02
    endloop
  endfacet
  facet normal 0.000000e+00 -9.999877e-01 -4.966034e-03
    outer loop
      vertex -1.194788e+02 2.107167e+00 -5.437974e+02
      vertex -3.154788e+02 2.095269e+00 -5.414014e+02
      vertex -3.154788e+02 2.107167e+00 -5.437974e+02
    endloop
  endfacet
  facet normal -1.000000e+00 0.000000e+00 0.000000e+00
    outer loop
      vertex -3.154788e+02 2.893548e+00 -5.402474e+02
      vertex -3.154788e+02 2.915895e+00 -5.447474e+02
      vertex -3.154788e+02 2.095269e+00 -5.414014e+02
    endloop
  endfacet
  facet normal 0.000000e+00 -9.999877e-01 -4.966034e-03
    outer loop
      vertex -1.154961e+02 2.107323e+00 -5.438287e+02
      vertex -1.136702e+02 2.095269e+00 -5.414014e+02
      vertex -3.154788e+02 2.095269e+00 -5.414014e+02
    endloop
  endfacet
  facet normal -6.320852e-17 -9.999877e-01 -4.966034e-03
    outer loop
      vertex -1.154961e+02 2.107323e+00 -5.438287e+02
      vertex -3.154788e+02 2.095269e+00 -5.414014e+02
      vertex -1.194788e+02 2.107167e+00 -5.437974e+02
    endloop
  endfacet
  facet normal -1.000000e+00 0.000000e+00 0.000000e+00
    outer loop
      vertex -3.154788e+02 2.915895e+00 -5.447474e+02
      vertex -3.154788e+02 1.204082e+00 -5.438019e+02
      vertex -3.154788e+02 2.107167e+00 -5.437974e+02
    endloop
  endfacet
  facet normal 5.625924e-21 -4.966034e-03 9.999877e-01
    outer loop
      vertex -1.194788e+02 1.204082e+00 -5.438019e+02
      vertex -3.154788e+02 2.107167e+00 -5.437974e+02
      vertex -3.154788e+02 1.204082e+00 -5.438019e+02
    endloop
  endfacet
  facet normal 0.000000e+00 -4.966034e-03 9.999877e-01
    outer loop
      vertex -1.194788e+02 1.204082e+00 -5.438019e+02
      vertex -1.194788e+02 2.107167e+00 -5.437974e+02
      vertex -3.154788e+02 2.107167e+00 -5.437974e+02
    endloop
  endfacet
  facet normal -1.000000e+00 0.000000e+00 0.000000e+00
    outer loop
      vertex -3.154788e+02 2.915895e+00 -5.447474e+02
      vertex -3.154788e+02 1.204623e+00 -5.440194e+02
      vertex -3.154788e+02 1.204082e+00 -5.438019e+02
    endloop
  endfacet
  facet normal 0.000000e+00 -9.999969e-01 -2.489430e-03
    outer loop
      vertex -1.194788e+02 1.204623e+00 -5.440194e+02
      vertex -3.154788e+02 1.204082e+00 -5.438019e+02
      vertex -3.154788e+02 1.204623e+00 -5.440194e+02
    endloop
  endfacet
  facet normal 1.133047e-18 -9.999969e-01 -2.489430e-03
    outer loop
      vertex -1.194788e+02 1.204623e+00 -5.440194e+02
      vertex -1.194788e+02 1.204082e+00 -5.438019e+02
      vertex -3.154788e+02 1.204082e+00 -5.438019e+02
    endloop
  endfacet
  facet normal -1.000000e+00 0.000000e+00 0.000000e+00
    outer loop
      vertex -3.154788e+02 2.915895e+00 -5.447474e+02
      vertex -3.154788e+02 1.944775e+00 -5.447522e+02
      vertex -3.154788e+02 1.204623e+00 -5.440194e+02
    endloop
  endfacet
  facet normal -1.275327e-17 -7.035865e-01 -7.106096e-01
    outer loop
      vertex -1.194788e+02 1.944775e+00 -5.447522e+02
      vertex -3.154788e+02 1.204623e+00 -5.440194e+02
      vertex -3.154788e+02 1.944775e+00 -5.447522e+02
    endloop
  endfacet
  facet normal 0.000000e+00 -7.035865e-01 -7.106096e-01
    outer loop
      vertex -1.194788e+02 1.944775e+00 -5.447522e+02
      vertex -1.194788e+02 1.204623e+00 -5.440194e+02
      vertex -3.154788e+02 1.204623e+00 -5.440194e+02
    endloop
  endfacet
  facet normal 0.000000e+00 4.966034e-03 -9.999877e-01
    outer loop
      vertex -1.182490e+02 2.915895e+00 -5.447474e+02
      vertex -3.154788e+02 1.944775e+00 -5.447522e+02
      vertex -3.154788e+02 2.915895e+00 -5.447474e+02
    endloop
  endfacet
  facet normal 9.001478e-20 4.966034e-03 -9.999877e-01
    outer loop
      vertex -1.194788e+02 1.944775e+00 -5.447522e+02
      vertex -3.154788e+02 1.944775e+00 -5.447522e+02
      vertex -1.194788e+02 2.111905e+00 -5.447514e+02
    endloop
  endfacet
  facet normal 2.206123e-16 4.966034e-03 -9.999877e-01
    outer loop
      vertex -1.182490e+02 2.915895e+00 -5.447474e+02
      vertex -1.194788e+02 2.111905e+00 -5.447514e+02
      vertex -3.154788e+02 1.944775e+00 -5.447522e+02
    endloop
  endfacet
  facet normal 0.000000e+00 9.999877e-01 4.966034e-03
    outer loop
      vertex -2.904788e+02 2.893548e+00 -5.402474e+02
      vertex -3.154788e+02 2.915895e+00 -5.447474e+02
      vertex -3.154788e+02 2.893548e+00 -5.402474e+02
    endloop
  endfacet
  facet normal 0.000000e+00 9.999877e-01 4.966034e-03
    outer loop
      vertex -1.274788e+02 2.870248e+00 -5.355556e+02
      vertex -1.182490e+02 2.915895e+00 -5.447474e+02
      vertex -3.154788e+02 2.915895e+00 -5.447474e+02
    endloop
  endfacet
  facet normal -1.486756e-18 9.999877e-01 4.966034e-03
    outer loop
      vertex -2.294568e+02 2.885146e+00 -5.385556e+02
      vertex -1.274788e+02 2.870248e+00 -5.355556e+02
      vertex -3.154788e+02 2.915895e+00 -5.447474e+02
    endloop
  endfacet
  facet normal 0.000000e+00 9.999877e-01 4.966034e-03
    outer loop
      vertex -2.304888e+02 2.885146e+00 -5.385556e+02
      vertex -2.294568e+02 2.885146e+00 -5.385556e+02
      vertex -3.154788e+02 2.915895e+00 -5.447474e+02
    endloop
  endfacet
  facet normal 7.363045e-18 9.999877e-01 4.966034e-03
    outer loop
      vertex -2.311889e+02 2.883706e+00 -5.382656e+02
      vertex -2.304888e+02 2.885146e+00 -5.385556e+02
      vertex -3.154788e+02 2.915895e+00 -5.447474e+02
    endloop
  endfacet
  facet normal 1.618315e-17 9.999877e-01 4.966034e-03
    outer loop
      vertex -2.314788e+02 2.880229e+00 -5.375656e+02
      vertex -2.311889e+02 2.883706e+00 -5.382656e+02
      vertex -3.154788e+02 2.915895e+00 -5.447474e+02
    endloop
  endfacet
  facet normal -4.002722e-16 9.999877e-01 4.966034e-03
    outer loop
      vertex -2.504788e+02 2.887849e+00 -5.390998e+02
      vertex -2.314788e+02 2.880229e+00 -5.375656e+02
      vertex -3.154788e+02 2.915895e+00 -5.447474e+02
    endloop
  endfacet
  facet normal -6.649538e-18 9.999877e-01 4.966034e-03
    outer loop
      vertex -2.504788e+02 2.887849e+00 -5.390998e+02
      vertex -3.154788e+02 2.915895e+00 -5.447474e+02
      vertex -2.904788e+02 2.893548e+00 -5.402474e+02
    endloop
  endfacet
  facet normal 0.000000e+00 -4.966034e-03 9.999877e-01
    outer loop
      vertex -2.904788e+02 2.893548e+00 -5.402474e+02
      vertex -3.154788e+02 2.893548e+00 -5.402474e+02
      vertex -2.904788e+02 1.195254e+00 -5.402559e+02
    endloop
  endfacet
  facet normal -3.632757e-15 9.999969e-01 2.489430e-03
    outer loop
      vertex -2.450567e+02 1.792545e+00 -4.773052e+02
      vertex -2.451324e+02 1.795518e+00 -4.784997e+02
      vertex -2.451324e+02 1.792590e+00 -4.773233e+02
    endloop
  endfacet
  facet normal -5.000000e-01 8.660227e-01 2.155909e-03
    outer loop
      vertex -2.453915e+02 1.643466e+00 -4.775176e+02
      vertex -2.451324e+02 1.792590e+00 -4.773233e+02
      vertex -2.451324e+02 1.795518e+00 -4.784997e+02
    endloop
  endfacet
  facet normal -2.319880e-01 -3.910082e-02 9.719325e-01
    outer loop
      vertex -2.449788e+02 1.438533e+00 -4.773009e+02
      vertex -2.450567e+02 1.792545e+00 -4.773052e+02
      vertex -2.451324e+02 1.792590e+00 -4.773233e+02
    endloop
  endfacet
  facet normal -1.771678e-01 -1.455119e-02 9.840731e-01
    outer loop
      vertex -2.451532e+02 1.438611e+00 -4.773323e+02
      vertex -2.449788e+02 1.438533e+00 -4.773009e+02
      vertex -2.451324e+02 1.792590e+00 -4.773233e+02
    endloop
  endfacet
  facet normal -6.055286e-01 1.538162e-02 7.956749e-01
    outer loop
      vertex -2.453915e+02 1.643466e+00 -4.775176e+02
      vertex -2.451532e+02 1.438611e+00 -4.773323e+02
      vertex -2.451324e+02 1.792590e+00 -4.773233e+02
    endloop
  endfacet
  facet normal 0.000000e+00 9.999969e-01 2.489430e-03
    outer loop
      vertex -1.143652e+02 1.793343e+00 -4.776260e+02
      vertex -1.136277e+02 1.795518e+00 -4.784997e+02
      vertex -2.451324e+02 1.795518e+00 -4.784997e+02
    endloop
  endfacet
  facet normal 0.000000e+00 -2.489430e-03 9.999969e-01
    outer loop
      vertex -2.453056e+02 2.186893e+00 -4.784987e+02
      vertex -2.451324e+02 1.795518e+00 -4.784997e+02
      vertex -1.136277e+02 1.795518e+00 -4.784997e+02
    endloop
  endfacet
  facet normal -9.377082e-19 9.999969e-01 2.489430e-03
    outer loop
      vertex -1.154610e+02 1.792529e+00 -4.772991e+02
      vertex -1.143652e+02 1.793343e+00 -4.776260e+02
      vertex -2.451324e+02 1.795518e+00 -4.784997e+02
    endloop
  endfacet
  facet normal 0.000000e+00 9.999969e-01 2.489430e-03
    outer loop
      vertex -2.449788e+02 1.792529e+00 -4.772991e+02
      vertex -1.154610e+02 1.792529e+00 -4.772991e+02
      vertex -2.451324e+02 1.795518e+00 -4.784997e+02
    endloop
  endfacet
  facet normal 2.414435e-15 9.999969e-01 2.489430e-03
    outer loop
      vertex -2.450567e+02 1.792545e+00 -4.773052e+02
      vertex -2.449788e+02 1.792529e+00 -4.772991e+02
      vertex -2.451324e+02 1.795518e+00 -4.784997e+02
    endloop
  endfacet
  facet normal -8.333252e-14 -2.489430e-03 9.999969e-01
    outer loop
      vertex -2.454788e+02 2.086893e+00 -4.784989e+02
      vertex -2.451324e+02 1.795518e+00 -4.784997e+02
      vertex -2.453056e+02 2.186893e+00 -4.784987e+02
    endloop
  endfacet
  facet normal -9.520698e-14 -2.489430e-03 9.999969e-01
    outer loop
      vertex -2.454788e+02 2.086893e+00 -4.784989e+02
      vertex -2.454788e+02 1.595519e+00 -4.785002e+02
      vertex -2.451324e+02 1.795518e+00 -4.784997e+02
    endloop
  endfacet
  facet normal -5.000000e-01 8.660227e-01 2.155909e-03
    outer loop
      vertex -2.454788e+02 1.593776e+00 -4.778001e+02
      vertex -2.451324e+02 1.795518e+00 -4.784997e+02
      vertex -2.454788e+02 1.595519e+00 -4.785002e+02
    endloop
  endfacet
  facet normal -5.000000e-01 8.660227e-01 2.155909e-03
    outer loop
      vertex -2.453915e+02 1.643466e+00 -4.775176e+02
      vertex -2.451324e+02 1.795518e+00 -4.784997e+02
      vertex -2.454788e+02 1.593776e+00 -4.778001e+02
    endloop
  endfacet
  facet normal 7.548570e-01 1.537326e-01 6.376184e-01
    outer loop
      vertex -1.141682e+02 1.439710e+00 -4.777739e+02
      vertex -1.136277e+02 1.795518e+00 -4.784997e+02
      vertex -1.143652e+02 1.793343e+00 -4.776260e+02
    endloop
  endfacet
  facet normal 8.309627e-01 -2.677583e-01 4.876540e-01
    outer loop
      vertex -1.134987e+02 1.442547e+00 -4.789133e+02
      vertex -1.136277e+02 1.795518e+00 -4.784997e+02
      vertex -1.141682e+02 1.439710e+00 -4.777739e+02
    endloop
  endfacet
  facet normal 9.544725e-01 -7.425939e-04 2.982979e-01
    outer loop
      vertex -1.136277e+02 2.186893e+00 -4.784987e+02
      vertex -1.136277e+02 1.795518e+00 -4.784997e+02
      vertex -1.134987e+02 1.442547e+00 -4.789133e+02
    endloop
  endfacet
  facet normal 0.000000e+00 -2.489430e-03 9.999969e-01
    outer loop
      vertex -2.453056e+02 2.186893e+00 -4.784987e+02
      vertex -1.136277e+02 1.795518e+00 -4.784997e+02
      vertex -1.136277e+02 2.186893e+00 -4.784987e+02
    endloop
  endfacet
  facet normal 2.837973e-01 1.181832e-01 9.515733e-01
    outer loop
      vertex -1.154381e+02 1.739714e+00 -4.772994e+02
      vertex -1.143652e+02 1.793343e+00 -4.776260e+02
      vertex -1.154610e+02 1.792529e+00 -4.772991e+02
    endloop
  endfacet
  facet normal 2.891352e-01 4.088267e-02 9.564149e-01
    outer loop
      vertex -1.154211e+02 1.631910e+00 -4.772999e+02
      vertex -1.143652e+02 1.793343e+00 -4.776260e+02
      vertex -1.154381e+02 1.739714e+00 -4.772994e+02
    endloop
  endfacet
  facet normal 2.915993e-01 2.439188e-02 9.562295e-01
    outer loop
      vertex -1.154017e+02 1.438533e+00 -4.773009e+02
      vertex -1.143652e+02 1.793343e+00 -4.776260e+02
      vertex -1.154211e+02 1.631910e+00 -4.772999e+02
    endloop
  endfacet
  facet normal 3.518762e-01 -1.876010e-01 9.170545e-01
    outer loop
      vertex -1.141682e+02 1.439710e+00 -4.777739e+02
      vertex -1.143652e+02 1.793343e+00 -4.776260e+02
      vertex -1.154017e+02 1.438533e+00 -4.773009e+02
    endloop
  endfacet
  facet normal 0.000000e+00 -4.966034e-03 9.999877e-01
    outer loop
      vertex -1.154017e+02 1.438533e+00 -4.773009e+02
      vertex -1.154610e+02 1.792529e+00 -4.772991e+02
      vertex -2.449788e+02 1.792529e+00 -4.772991e+02
    endloop
  endfacet
  facet normal 1.104919e-12 -4.966034e-03 9.999877e-01
    outer loop
      vertex -1.154017e+02 1.438533e+00 -4.773009e+02
      vertex -1.154381e+02 1.739714e+00 -4.772994e+02
      vertex -1.154610e+02 1.792529e+00 -4.772991e+02
    endloop
  endfacet
  facet normal -7.808727e-02 -4.950870e-03 9.969342e-01
    outer loop
      vertex -2.449788e+02 1.438533e+00 -4.773009e+02
      vertex -2.449788e+02 1.792529e+00 -4.772991e+02
      vertex -2.450567e+02 1.792545e+00 -4.773052e+02
    endloop
  endfacet
  facet normal 0.000000e+00 -4.966034e-03 9.999877e-01
    outer loop
      vertex -2.449788e+02 1.438533e+00 -4.773009e+02
      vertex -1.154017e+02 1.438533e+00 -4.773009e+02
      vertex -2.449788e+02 1.792529e+00 -4.772991e+02
    endloop
  endfacet
  facet normal -4.374381e-12 -4.966034e-03 9.999877e-01
    outer loop
      vertex -1.154017e+02 1.438533e+00 -4.773009e+02
      vertex -1.154211e+02 1.631910e+00 -4.772999e+02
      vertex -1.154381e+02 1.739714e+00 -4.772994e+02
    endloop
  endfacet
  facet normal 0.000000e+00 -9.999969e-01 -2.489430e-03
    outer loop
      vertex -1.106528e+02 1.520247e+00 -5.101254e+02
      vertex -1.154017e+02 1.438533e+00 -4.773009e+02
      vertex -2.449788e+02 1.438533e+00 -4.773009e+02
    endloop
  endfacet
  facet normal -8.128589e-17 -9.999969e-01 -2.489430e-03
    outer loop
      vertex -1.106528e+02 1.520247e+00 -5.101254e+02
      vertex -1.141682e+02 1.439710e+00 -4.777739e+02
      vertex -1.154017e+02 1.438533e+00 -4.773009e+02
    endloop
  endfacet
  facet normal -9.357896e-17 -9.999969e-01 -2.489430e-03
    outer loop
      vertex -2.451532e+02 1.438611e+00 -4.773323e+02
      vertex -1.106528e+02 1.520247e+00 -5.101254e+02
      vertex -2.449788e+02 1.438533e+00 -4.773009e+02
    endloop
  endfacet
  facet normal 1.257680e-16 -9.999969e-01 -2.489430e-03
    outer loop
      vertex -1.106528e+02 1.520247e+00 -5.101254e+02
      vertex -1.134987e+02 1.442547e+00 -4.789133e+02
      vertex -1.141682e+02 1.439710e+00 -4.777739e+02
    endloop
  endfacet
  facet normal -7.188103e-17 -9.999969e-01 -2.489430e-03
    outer loop
      vertex -1.106528e+02 1.520247e+00 -5.101254e+02
      vertex -1.116414e+02 1.471639e+00 -4.905997e+02
      vertex -1.134987e+02 1.442547e+00 -4.789133e+02
    endloop
  endfacet
  facet normal 9.876054e-01 -3.907348e-04 1.569571e-01
    outer loop
      vertex -1.134987e+02 2.188942e+00 -4.789114e+02
      vertex -1.134987e+02 1.442547e+00 -4.789133e+02
      vertex -1.116414e+02 1.471639e+00 -4.905997e+02
    endloop
  endfacet
  facet normal 9.692112e-01 -6.129742e-04 2.462300e-01
    outer loop
      vertex -1.135521e+02 2.187899e+00 -4.787014e+02
      vertex -1.134987e+02 1.442547e+00 -4.789133e+02
      vertex -1.134987e+02 2.188942e+00 -4.789114e+02
    endloop
  endfacet
  facet normal 9.364780e-01 -3.223495e-02 3.492420e-01
    outer loop
      vertex -1.136277e+02 2.186893e+00 -4.784987e+02
      vertex -1.134987e+02 1.442547e+00 -4.789133e+02
      vertex -1.135521e+02 2.187899e+00 -4.787014e+02
    endloop
  endfacet
  facet normal -6.535452e-17 -9.999969e-01 -2.489430e-03
    outer loop
      vertex -1.106528e+02 1.520247e+00 -5.101254e+02
      vertex -1.106528e+02 1.500997e+00 -5.023926e+02
      vertex -1.116414e+02 1.471639e+00 -4.905997e+02
    endloop
  endfacet
  facet normal 9.965048e-01 -6.238578e-04 8.353293e-02
    outer loop
      vertex -1.116403e+02 2.247021e+00 -4.906065e+02
      vertex -1.116414e+02 1.471639e+00 -4.905997e+02
      vertex -1.106528e+02 1.500997e+00 -5.023926e+02
    endloop
  endfacet
  facet normal 9.876094e-01 2.551494e-05 1.569321e-01
    outer loop
      vertex -1.116403e+02 2.247021e+00 -4.906065e+02
      vertex -1.134987e+02 2.188942e+00 -4.789114e+02
      vertex -1.116414e+02 1.471639e+00 -4.905997e+02
    endloop
  endfacet
  facet normal 5.000000e-01 -8.660227e-01 -2.155909e-03
    outer loop
      vertex -1.105192e+02 1.587771e+00 -5.062582e+02
      vertex -1.106528e+02 1.500997e+00 -5.023926e+02
      vertex -1.106528e+02 1.520247e+00 -5.101254e+02
    endloop
  endfacet
  facet normal 9.965112e-01 5.769172e-04 8.345746e-02
    outer loop
      vertex -1.116403e+02 2.247021e+00 -4.906065e+02
      vertex -1.106528e+02 1.500997e+00 -5.023926e+02
      vertex -1.106520e+02 2.305627e+00 -5.024076e+02
    endloop
  endfacet
  facet normal 9.994032e-01 -3.416170e-04 3.454024e-02
    outer loop
      vertex -1.105192e+02 1.587771e+00 -5.062582e+02
      vertex -1.106520e+02 2.305627e+00 -5.024076e+02
      vertex -1.106528e+02 1.500997e+00 -5.023926e+02
    endloop
  endfacet
  facet normal 0.000000e+00 -9.999969e-01 -2.489430e-03
    outer loop
      vertex -2.453056e+02 1.438835e+00 -4.774225e+02
      vertex -2.453056e+02 1.520247e+00 -5.101254e+02
      vertex -1.106528e+02 1.520247e+00 -5.101254e+02
    endloop
  endfacet
  facet normal 0.000000e+00 -2.489430e-03 9.999969e-01
    outer loop
      vertex -1.113457e+02 1.120249e+00 -5.101264e+02
      vertex -1.106528e+02 1.520247e+00 -5.101254e+02
      vertex -2.453056e+02 1.520247e+00 -5.101254e+02
    endloop
  endfacet
  facet normal 4.854371e-16 -9.999969e-01 -2.489430e-03
    outer loop
      vertex -2.451532e+02 1.438611e+00 -4.773323e+02
      vertex -2.453056e+02 1.438835e+00 -4.774225e+02
      vertex -1.106528e+02 1.520247e+00 -5.101254e+02
    endloop
  endfacet
  facet normal 4.942192e-01 -8.563875e-01 1.494921e-01
    outer loop
      vertex -1.111105e+02 1.122156e+00 -5.108928e+02
      vertex -1.106528e+02 1.520247e+00 -5.101254e+02
      vertex -1.113457e+02 1.120249e+00 -5.101264e+02
    endloop
  endfacet
  facet normal 4.942192e-01 -8.563875e-01 1.494921e-01
    outer loop
      vertex -1.104791e+02 1.620572e+00 -5.101252e+02
      vertex -1.106528e+02 1.520247e+00 -5.101254e+02
      vertex -1.111105e+02 1.122156e+00 -5.108928e+02
    endloop
  endfacet
  facet normal 5.000000e-01 -8.660227e-01 -2.155909e-03
    outer loop
      vertex -1.105192e+02 1.587771e+00 -5.062582e+02
      vertex -1.106528e+02 1.520247e+00 -5.101254e+02
      vertex -1.104791e+02 1.620572e+00 -5.101252e+02
    endloop
  endfacet
  facet normal -5.000000e-01 -8.660227e-01 -2.155909e-03
    outer loop
      vertex -2.454788e+02 1.620247e+00 -5.101252e+02
      vertex -2.453056e+02 1.520247e+00 -5.101254e+02
      vertex -2.453056e+02 1.438835e+00 -4.774225e+02
    endloop
  endfacet
  facet normal 0.000000e+00 -2.489430e-03 9.999969e-01
    outer loop
      vertex -1.113457e+02 1.120249e+00 -5.101264e+02
      vertex -2.453056e+02 1.520247e+00 -5.101254e+02
      vertex -2.446128e+02 1.120249e+00 -5.101264e+02
    endloop
  endfacet
  facet normal -4.895128e-01 -8.483655e-01 2.016264e-01
    outer loop
      vertex -2.454788e+02 1.500533e+00 -5.106289e+02
      vertex -2.446128e+02 1.120249e+00 -5.101264e+02
      vertex -2.453056e+02 1.520247e+00 -5.101254e+02
    endloop
  endfacet
  facet normal -4.895128e-01 -8.483655e-01 2.016264e-01
    outer loop
      vertex -2.454788e+02 1.500533e+00 -5.106289e+02
      vertex -2.453056e+02 1.520247e+00 -5.101254e+02
      vertex -2.454788e+02 1.620247e+00 -5.101252e+02
    endloop
  endfacet
  facet normal -5.003851e-01 1.833869e-01 8.461584e-01
    outer loop
      vertex -2.453915e+02 1.643466e+00 -4.775176e+02
      vertex -2.453056e+02 1.438835e+00 -4.774225e+02
      vertex -2.451532e+02 1.438611e+00 -4.773323e+02
    endloop
  endfacet
  facet normal -5.000000e-01 -8.660227e-01 -2.155909e-03
    outer loop
      vertex -2.454788e+02 1.620247e+00 -5.101252e+02
      vertex -2.453056e+02 1.438835e+00 -4.774225e+02
      vertex -2.454788e+02 1.539776e+00 -4.778004e+02
    endloop
  endfacet
  facet normal -5.000000e-01 -8.660227e-01 -2.155909e-03
    outer loop
      vertex -2.454360e+02 1.514520e+00 -4.775979e+02
      vertex -2.454788e+02 1.539776e+00 -4.778004e+02
      vertex -2.453056e+02 1.438835e+00 -4.774225e+02
    endloop
  endfacet
  facet normal -8.158916e-01 -7.603392e-02 5.731839e-01
    outer loop
      vertex -2.453915e+02 1.643466e+00 -4.775176e+02
      vertex -2.454360e+02 1.514520e+00 -4.775979e+02
      vertex -2.453056e+02 1.438835e+00 -4.774225e+02
    endloop
  endfacet
  facet normal 0.000000e+00 -9.999969e-01 -2.489430e-03
    outer loop
      vertex -1.274788e+02 1.178584e+00 -5.335598e+02
      vertex -1.113457e+02 1.120249e+00 -5.101264e+02
      vertex -2.446128e+02 1.120249e+00 -5.101264e+02
    endloop
  endfacet
  facet normal 1.825852e-16 -9.999969e-01 -2.489430e-03
    outer loop
      vertex -2.294568e+02 1.171116e+00 -5.305598e+02
      vertex -2.287568e+02 1.171838e+00 -5.308498e+02
      vertex -2.446128e+02 1.120249e+00 -5.101264e+02
    endloop
  endfacet
  facet normal 1.677156e-18 -9.999969e-01 -2.489430e-03
    outer loop
      vertex -2.244788e+02 1.177962e+00 -5.333098e+02
      vertex -2.446128e+02 1.120249e+00 -5.101264e+02
      vertex -2.287568e+02 1.171838e+00 -5.308498e+02
    endloop
  endfacet
  facet normal 0.000000e+00 -9.999969e-01 -2.489430e-03
    outer loop
      vertex -2.304888e+02 1.171116e+00 -5.305598e+02
      vertex -2.294568e+02 1.171116e+00 -5.305598e+02
      vertex -2.446128e+02 1.120249e+00 -5.101264e+02
    endloop
  endfacet
  facet normal -9.842896e-17 -9.999969e-01 -2.489430e-03
    outer loop
      vertex -2.311889e+02 1.171838e+00 -5.308498e+02
      vertex -2.304888e+02 1.171116e+00 -5.305598e+02
      vertex -2.446128e+02 1.120249e+00 -5.101264e+02
    endloop
  endfacet
  facet normal 7.971971e-17 -9.999969e-01 -2.489430e-03
    outer loop
      vertex -2.314788e+02 1.173581e+00 -5.315498e+02
      vertex -2.311889e+02 1.171838e+00 -5.308498e+02
      vertex -2.446128e+02 1.120249e+00 -5.101264e+02
    endloop
  endfacet
  facet normal -7.933522e-17 -9.999969e-01 -2.489430e-03
    outer loop
      vertex -2.314788e+02 1.188567e+00 -5.375698e+02
      vertex -2.314788e+02 1.173581e+00 -5.315498e+02
      vertex -2.446128e+02 1.120249e+00 -5.101264e+02
    endloop
  endfacet
  facet normal 1.442053e-15 -9.999969e-01 -2.489430e-03
    outer loop
      vertex -2.311889e+02 1.190310e+00 -5.382698e+02
      vertex -2.314788e+02 1.188567e+00 -5.375698e+02
      vertex -2.446128e+02 1.120249e+00 -5.101264e+02
    endloop
  endfacet
  facet normal -5.755663e-17 -9.999969e-01 -2.489430e-03
    outer loop
      vertex -2.448499e+02 1.122163e+00 -5.108956e+02
      vertex -2.311889e+02 1.190310e+00 -5.382698e+02
      vertex -2.446128e+02 1.120249e+00 -5.101264e+02
    endloop
  endfacet
  facet normal 0.000000e+00 -9.999969e-01 -2.489430e-03
    outer loop
      vertex -2.238212e+02 1.178584e+00 -5.335598e+02
      vertex -1.274788e+02 1.178584e+00 -5.335598e+02
      vertex -2.446128e+02 1.120249e+00 -5.101264e+02
    endloop
  endfacet
  facet normal -3.142062e-16 -9.999969e-01 -2.489430e-03
    outer loop
      vertex -2.241270e+02 1.178123e+00 -5.333744e+02
      vertex -2.238212e+02 1.178584e+00 -5.335598e+02
      vertex -2.446128e+02 1.120249e+00 -5.101264e+02
    endloop
  endfacet
  facet normal 8.992479e-16 -9.999969e-01 -2.489430e-03
    outer loop
      vertex -2.244788e+02 1.177962e+00 -5.333098e+02
      vertex -2.241270e+02 1.178123e+00 -5.333744e+02
      vertex -2.446128e+02 1.120249e+00 -5.101264e+02
    endloop
  endfacet
  facet normal -4.656434e-01 -8.736057e-01 1.413835e-01
    outer loop
      vertex -2.454788e+02 1.500533e+00 -5.106289e+02
      vertex -2.448499e+02 1.122163e+00 -5.108956e+02
      vertex -2.446128e+02 1.120249e+00 -5.101264e+02
    endloop
  endfacet
  facet normal 2.754066e-18 -9.999969e-01 -2.489430e-03
    outer loop
      vertex -1.134840e+02 1.196405e+00 -5.407182e+02
      vertex -1.113457e+02 1.120249e+00 -5.101264e+02
      vertex -1.274788e+02 1.178584e+00 -5.335598e+02
    endloop
  endfacet
  facet normal 2.973919e-16 -9.999969e-01 -2.489430e-03
    outer loop
      vertex -1.113085e+02 1.160078e+00 -5.261259e+02
      vertex -1.111105e+02 1.122156e+00 -5.108928e+02
      vertex -1.113457e+02 1.120249e+00 -5.101264e+02
    endloop
  endfacet
  facet normal -1.633111e-16 -9.999969e-01 -2.489430e-03
    outer loop
      vertex -1.134840e+02 1.196405e+00 -5.407182e+02
      vertex -1.113085e+02 1.160078e+00 -5.261259e+02
      vertex -1.113457e+02 1.120249e+00 -5.101264e+02
    endloop
  endfacet
  facet normal 0.000000e+00 -9.999969e-01 -2.489430e-03
    outer loop
      vertex -2.244788e+02 1.177962e+00 -5.333098e+02
      vertex -2.284668e+02 1.173581e+00 -5.315498e+02
      vertex -2.284668e+02 1.177962e+00 -5.333098e+02
    endloop
  endfacet
  facet normal -1.000000e+00 0.000000e+00 0.000000e+00
    outer loop
      vertex -2.284668e+02 2.859074e+00 -5.333056e+02
      vertex -2.284668e+02 1.177962e+00 -5.333098e+02
      vertex -2.284668e+02 1.173581e+00 -5.315498e+02
    endloop
  endfacet
  facet normal 0.000000e+00 2.489430e-03 -9.999969e-01
    outer loop
      vertex -2.244788e+02 2.859074e+00 -5.333056e+02
      vertex -2.244788e+02 1.177962e+00 -5.333098e+02
      vertex -2.284668e+02 1.177962e+00 -5.333098e+02
    endloop
  endfacet
  facet normal 0.000000e+00 2.489430e-03 -9.999969e-01
    outer loop
      vertex -2.244788e+02 2.859074e+00 -5.333056e+02
      vertex -2.284668e+02 1.177962e+00 -5.333098e+02
      vertex -2.284668e+02 2.859074e+00 -5.333056e+02
    endloop
  endfacet
  facet normal 6.539225e-17 -9.999969e-01 -2.489430e-03
    outer loop
      vertex -2.244788e+02 1.177962e+00 -5.333098e+02
      vertex -2.287568e+02 1.171838e+00 -5.308498e+02
      vertex -2.284668e+02 1.173581e+00 -5.315498e+02
    endloop
  endfacet
  facet normal -9.238795e-01 9.526635e-04 -3.826822e-01
    outer loop
      vertex -2.284668e+02 2.850334e+00 -5.315456e+02
      vertex -2.284668e+02 1.173581e+00 -5.315498e+02
      vertex -2.287568e+02 1.171838e+00 -5.308498e+02
    endloop
  endfacet
  facet normal -1.000000e+00 0.000000e+00 0.000000e+00
    outer loop
      vertex -2.284668e+02 2.850334e+00 -5.315456e+02
      vertex -2.284668e+02 2.859074e+00 -5.333056e+02
      vertex -2.284668e+02 1.173581e+00 -5.315498e+02
    endloop
  endfacet
  facet normal -3.826834e-01 2.300146e-03 -9.238767e-01
    outer loop
      vertex -2.287568e+02 2.846857e+00 -5.308456e+02
      vertex -2.287568e+02 1.171838e+00 -5.308498e+02
      vertex -2.294568e+02 1.171116e+00 -5.305598e+02
    endloop
  endfacet
  facet normal -9.238794e-01 9.524514e-04 -3.826827e-01
    outer loop
      vertex -2.284668e+02 2.850334e+00 -5.315456e+02
      vertex -2.287568e+02 1.171838e+00 -5.308498e+02
      vertex -2.287568e+02 2.846857e+00 -5.308456e+02
    endloop
  endfacet
  facet normal 0.000000e+00 2.489430e-03 -9.999969e-01
    outer loop
      vertex -2.304888e+02 2.845417e+00 -5.305556e+02
      vertex -2.294568e+02 1.171116e+00 -5.305598e+02
      vertex -2.304888e+02 1.171116e+00 -5.305598e+02
    endloop
  endfacet
  facet normal 0.000000e+00 2.489430e-03 -9.999969e-01
    outer loop
      vertex -2.294568e+02 2.845417e+00 -5.305556e+02
      vertex -2.294568e+02 1.171116e+00 -5.305598e+02
      vertex -2.304888e+02 2.845417e+00 -5.305556e+02
    endloop
  endfacet
  facet normal -3.826830e-01 2.299934e-03 -9.238769e-01
    outer loop
      vertex -2.287568e+02 2.846857e+00 -5.308456e+02
      vertex -2.294568e+02 1.171116e+00 -5.305598e+02
      vertex -2.294568e+02 2.845417e+00 -5.305556e+02
    endloop
  endfacet
  facet normal 3.826834e-01 2.299933e-03 -9.238767e-01
    outer loop
      vertex -2.304888e+02 2.845417e+00 -5.305556e+02
      vertex -2.304888e+02 1.171116e+00 -5.305598e+02
      vertex -2.311889e+02 1.171838e+00 -5.308498e+02
    endloop
  endfacet
  facet normal 9.238795e-01 9.524503e-04 -3.826822e-01
    outer loop
      vertex -2.311889e+02 2.846857e+00 -5.308456e+02
      vertex -2.311889e+02 1.171838e+00 -5.308498e+02
      vertex -2.314788e+02 1.173581e+00 -5.315498e+02
    endloop
  endfacet
  facet normal 3.826830e-01 2.300147e-03 -9.238768e-01
    outer loop
      vertex -2.304888e+02 2.845417e+00 -5.305556e+02
      vertex -2.311889e+02 1.171838e+00 -5.308498e+02
      vertex -2.311889e+02 2.846857e+00 -5.308456e+02
    endloop
  endfacet
  facet normal 1.000000e+00 0.000000e+00 0.000000e+00
    outer loop
      vertex -2.314788e+02 1.373185e+00 -5.345609e+02
      vertex -2.314788e+02 1.173581e+00 -5.315498e+02
      vertex -2.314788e+02 1.188567e+00 -5.375698e+02
    endloop
  endfacet
  facet normal 9.238794e-01 9.526646e-04 -3.826827e-01
    outer loop
      vertex -2.311889e+02 2.846857e+00 -5.308456e+02
      vertex -2.314788e+02 1.173581e+00 -5.315498e+02
      vertex -2.314788e+02 2.850334e+00 -5.315456e+02
    endloop
  endfacet
  facet normal 1.000000e+00 0.000000e+00 0.000000e+00
    outer loop
      vertex -2.314788e+02 1.561290e+00 -5.341004e+02
      vertex -2.314788e+02 2.850334e+00 -5.315456e+02
      vertex -2.314788e+02 1.173581e+00 -5.315498e+02
    endloop
  endfacet
  facet normal 1.000000e+00 0.000000e+00 0.000000e+00
    outer loop
      vertex -2.314788e+02 1.561290e+00 -5.341004e+02
      vertex -2.314788e+02 1.173581e+00 -5.315498e+02
      vertex -2.314788e+02 1.373185e+00 -5.345609e+02
    endloop
  endfacet
  facet normal 9.238795e-01 -9.526635e-04 3.826822e-01
    outer loop
      vertex -2.314788e+02 2.880229e+00 -5.375656e+02
      vertex -2.314788e+02 1.188567e+00 -5.375698e+02
      vertex -2.311889e+02 1.190310e+00 -5.382698e+02
    endloop
  endfacet
  facet normal 1.000000e+00 0.000000e+00 0.000000e+00
    outer loop
      vertex -2.314788e+02 2.485063e+00 -5.350150e+02
      vertex -2.314788e+02 1.188567e+00 -5.375698e+02
      vertex -2.314788e+02 2.880229e+00 -5.375656e+02
    endloop
  endfacet
  facet normal 1.000000e+00 0.000000e+00 0.000000e+00
    outer loop
      vertex -2.314788e+02 1.565855e+00 -5.350196e+02
      vertex -2.314788e+02 1.373185e+00 -5.345609e+02
      vertex -2.314788e+02 1.188567e+00 -5.375698e+02
    endloop
  endfacet
  facet normal 1.000000e+00 0.000000e+00 0.000000e+00
    outer loop
      vertex -2.314788e+02 2.026404e+00 -5.352077e+02
      vertex -2.314788e+02 1.188567e+00 -5.375698e+02
      vertex -2.314788e+02 2.485063e+00 -5.350150e+02
    endloop
  endfacet
  facet normal 1.000000e+00 0.000000e+00 0.000000e+00
    outer loop
      vertex -2.314788e+02 1.565855e+00 -5.350196e+02
      vertex -2.314788e+02 1.188567e+00 -5.375698e+02
      vertex -2.314788e+02 2.026404e+00 -5.352077e+02
    endloop
  endfacet
  facet normal 4.239970e-16 -9.999969e-01 -2.489430e-03
    outer loop
      vertex -2.454788e+02 1.179939e+00 -5.341041e+02
      vertex -2.304888e+02 1.191032e+00 -5.385598e+02
      vertex -2.311889e+02 1.190310e+00 -5.382698e+02
    endloop
  endfacet
  facet normal 3.826834e-01 -2.299722e-03 9.238767e-01
    outer loop
      vertex -2.311889e+02 2.883706e+00 -5.382656e+02
      vertex -2.311889e+02 1.190310e+00 -5.382698e+02
      vertex -2.304888e+02 1.191032e+00 -5.385598e+02
    endloop
  endfacet
  facet normal -1.094912e-17 -9.999969e-01 -2.489430e-03
    outer loop
      vertex -2.454788e+02 1.123413e+00 -5.113977e+02
      vertex -2.454788e+02 1.179939e+00 -5.341041e+02
      vertex -2.311889e+02 1.190310e+00 -5.382698e+02
    endloop
  endfacet
  facet normal -4.467487e-17 -9.999969e-01 -2.489430e-03
    outer loop
      vertex -2.448499e+02 1.122163e+00 -5.108956e+02
      vertex -2.454788e+02 1.123413e+00 -5.113977e+02
      vertex -2.311889e+02 1.190310e+00 -5.382698e+02
    endloop
  endfacet
  facet normal 9.238794e-01 -9.528755e-04 3.826827e-01
    outer loop
      vertex -2.314788e+02 2.880229e+00 -5.375656e+02
      vertex -2.311889e+02 1.190310e+00 -5.382698e+02
      vertex -2.311889e+02 2.883706e+00 -5.382656e+02
    endloop
  endfacet
  facet normal 0.000000e+00 -9.999969e-01 -2.489430e-03
    outer loop
      vertex -1.136710e+02 1.198117e+00 -5.414059e+02
      vertex -2.294568e+02 1.191032e+00 -5.385598e+02
      vertex -2.304888e+02 1.191032e+00 -5.385598e+02
    endloop
  endfacet
  facet normal 0.000000e+00 -2.489430e-03 9.999969e-01
    outer loop
      vertex -2.294568e+02 2.885146e+00 -5.385556e+02
      vertex -2.304888e+02 1.191032e+00 -5.385598e+02
      vertex -2.294568e+02 1.191032e+00 -5.385598e+02
    endloop
  endfacet
  facet normal -2.632162e-18 -9.999969e-01 -2.489430e-03
    outer loop
      vertex -2.469433e+02 1.188741e+00 -5.376396e+02
      vertex -2.504788e+02 1.192387e+00 -5.391041e+02
      vertex -2.304888e+02 1.191032e+00 -5.385598e+02
    endloop
  endfacet
  facet normal -6.911464e-19 -9.999969e-01 -2.489430e-03
    outer loop
      vertex -1.136710e+02 1.198117e+00 -5.414059e+02
      vertex -2.304888e+02 1.191032e+00 -5.385598e+02
      vertex -2.504788e+02 1.192387e+00 -5.391041e+02
    endloop
  endfacet
  facet normal 6.994525e-19 -9.999969e-01 -2.489430e-03
    outer loop
      vertex -2.454788e+02 1.179939e+00 -5.341041e+02
      vertex -2.469433e+02 1.188741e+00 -5.376396e+02
      vertex -2.304888e+02 1.191032e+00 -5.385598e+02
    endloop
  endfacet
  facet normal 0.000000e+00 -2.489430e-03 9.999969e-01
    outer loop
      vertex -2.304888e+02 2.885146e+00 -5.385556e+02
      vertex -2.304888e+02 1.191032e+00 -5.385598e+02
      vertex -2.294568e+02 2.885146e+00 -5.385556e+02
    endloop
  endfacet
  facet normal 3.826830e-01 -2.299934e-03 9.238769e-01
    outer loop
      vertex -2.311889e+02 2.883706e+00 -5.382656e+02
      vertex -2.304888e+02 1.191032e+00 -5.385598e+02
      vertex -2.304888e+02 2.885146e+00 -5.385556e+02
    endloop
  endfacet
  facet normal 1.170590e-17 -9.999969e-01 -2.489430e-03
    outer loop
      vertex -1.136710e+02 1.198117e+00 -5.414059e+02
      vertex -2.287568e+02 1.190310e+00 -5.382698e+02
      vertex -2.294568e+02 1.191032e+00 -5.385598e+02
    endloop
  endfacet
  facet normal -3.826834e-01 -2.299933e-03 9.238767e-01
    outer loop
      vertex -2.294568e+02 2.885146e+00 -5.385556e+02
      vertex -2.294568e+02 1.191032e+00 -5.385598e+02
      vertex -2.287568e+02 1.190310e+00 -5.382698e+02
    endloop
  endfacet
  facet normal 2.171771e-18 -9.999969e-01 -2.489430e-03
    outer loop
      vertex -1.136710e+02 1.198117e+00 -5.414059e+02
      vertex -2.284668e+02 1.188567e+00 -5.375698e+02
      vertex -2.287568e+02 1.190310e+00 -5.382698e+02
    endloop
  endfacet
  facet normal -9.238795e-01 -9.528744e-04 3.826822e-01
    outer loop
      vertex -2.287568e+02 2.883706e+00 -5.382656e+02
      vertex -2.287568e+02 1.190310e+00 -5.382698e+02
      vertex -2.284668e+02 1.188567e+00 -5.375698e+02
    endloop
  endfacet
  facet normal -3.826830e-01 -2.299723e-03 9.238769e-01
    outer loop
      vertex -2.294568e+02 2.885146e+00 -5.385556e+02
      vertex -2.287568e+02 1.190310e+00 -5.382698e+02
      vertex -2.287568e+02 2.883706e+00 -5.382656e+02
    endloop
  endfacet
  facet normal -1.820235e-18 -9.999969e-01 -2.489430e-03
    outer loop
      vertex -1.136710e+02 1.198117e+00 -5.414059e+02
      vertex -2.284668e+02 1.184186e+00 -5.358098e+02
      vertex -2.284668e+02 1.188567e+00 -5.375698e+02
    endloop
  endfacet
  facet normal -1.000000e+00 0.000000e+00 0.000000e+00
    outer loop
      vertex -2.284668e+02 2.880229e+00 -5.375656e+02
      vertex -2.284668e+02 1.188567e+00 -5.375698e+02
      vertex -2.284668e+02 1.184186e+00 -5.358098e+02
    endloop
  endfacet
  facet normal -9.238794e-01 -9.526646e-04 3.826827e-01
    outer loop
      vertex -2.287568e+02 2.883706e+00 -5.382656e+02
      vertex -2.284668e+02 1.188567e+00 -5.375698e+02
      vertex -2.284668e+02 2.880229e+00 -5.375656e+02
    endloop
  endfacet
  facet normal 0.000000e+00 -9.999969e-01 -2.489430e-03
    outer loop
      vertex -1.136710e+02 1.198117e+00 -5.414059e+02
      vertex -2.244788e+02 1.184186e+00 -5.358098e+02
      vertex -2.284668e+02 1.184186e+00 -5.358098e+02
    endloop
  endfacet
  facet normal 0.000000e+00 -2.489430e-03 9.999969e-01
    outer loop
      vertex -2.284668e+02 2.871489e+00 -5.358056e+02
      vertex -2.284668e+02 1.184186e+00 -5.358098e+02
      vertex -2.244788e+02 1.184186e+00 -5.358098e+02
    endloop
  endfacet
  facet normal -1.000000e+00 0.000000e+00 0.000000e+00
    outer loop
      vertex -2.284668e+02 2.880229e+00 -5.375656e+02
      vertex -2.284668e+02 1.184186e+00 -5.358098e+02
      vertex -2.284668e+02 2.871489e+00 -5.358056e+02
    endloop
  endfacet
  facet normal 1.063944e-17 -9.999969e-01 -2.489430e-03
    outer loop
      vertex -1.136710e+02 1.198117e+00 -5.414059e+02
      vertex -2.241270e+02 1.184025e+00 -5.357452e+02
      vertex -2.244788e+02 1.184186e+00 -5.358098e+02
    endloop
  endfacet
  facet normal -1.806877e-01 -2.448455e-03 9.835375e-01
    outer loop
      vertex -2.244788e+02 2.871489e+00 -5.358056e+02
      vertex -2.244788e+02 1.184186e+00 -5.358098e+02
      vertex -2.241270e+02 1.184025e+00 -5.357452e+02
    endloop
  endfacet
  facet normal 0.000000e+00 -2.489430e-03 9.999969e-01
    outer loop
      vertex -2.284668e+02 2.871489e+00 -5.358056e+02
      vertex -2.244788e+02 1.184186e+00 -5.358098e+02
      vertex -2.244788e+02 2.871489e+00 -5.358056e+02
    endloop
  endfacet
  facet normal -6.187026e-17 -9.999969e-01 -2.489430e-03
    outer loop
      vertex -1.136710e+02 1.198117e+00 -5.414059e+02
      vertex -2.238212e+02 1.183563e+00 -5.355598e+02
      vertex -2.241270e+02 1.184025e+00 -5.357452e+02
    endloop
  endfacet
  facet normal -5.183328e-01 -2.128925e-03 8.551764e-01
    outer loop
      vertex -2.241270e+02 2.871168e+00 -5.357410e+02
      vertex -2.241270e+02 1.184025e+00 -5.357452e+02
      vertex -2.238212e+02 1.183563e+00 -5.355598e+02
    endloop
  endfacet
  facet normal -1.806876e-01 -2.448438e-03 9.835375e-01
    outer loop
      vertex -2.244788e+02 2.871489e+00 -5.358056e+02
      vertex -2.241270e+02 1.184025e+00 -5.357452e+02
      vertex -2.241270e+02 2.871168e+00 -5.357410e+02
    endloop
  endfacet
  facet normal 0.000000e+00 -9.999969e-01 -2.489430e-03
    outer loop
      vertex -1.136710e+02 1.198117e+00 -5.414059e+02
      vertex -1.274788e+02 1.183563e+00 -5.355598e+02
      vertex -2.238212e+02 1.183563e+00 -5.355598e+02
    endloop
  endfacet
  facet normal 0.000000e+00 -2.489430e-03 9.999969e-01
    outer loop
      vertex -2.238212e+02 2.870248e+00 -5.355556e+02
      vertex -2.238212e+02 1.183563e+00 -5.355598e+02
      vertex -1.274788e+02 1.183563e+00 -5.355598e+02
    endloop
  endfacet
  facet normal -5.183327e-01 -2.128908e-03 8.551764e-01
    outer loop
      vertex -2.241270e+02 2.871168e+00 -5.357410e+02
      vertex -2.238212e+02 1.183563e+00 -5.355598e+02
      vertex -2.238212e+02 2.870248e+00 -5.355556e+02
    endloop
  endfacet
  facet normal 8.002415e-17 -9.999969e-01 -2.489430e-03
    outer loop
      vertex -1.136710e+02 1.198117e+00 -5.414059e+02
      vertex -1.266128e+02 1.182319e+00 -5.350598e+02
      vertex -1.274788e+02 1.183563e+00 -5.355598e+02
    endloop
  endfacet
  facet normal -4.999861e-01 -2.155929e-03 8.660307e-01
    outer loop
      vertex -1.274788e+02 2.870248e+00 -5.355556e+02
      vertex -1.274788e+02 1.183563e+00 -5.355598e+02
      vertex -1.266128e+02 1.182319e+00 -5.350598e+02
    endloop
  endfacet
  facet normal 0.000000e+00 -2.489430e-03 9.999969e-01
    outer loop
      vertex -2.238212e+02 2.870248e+00 -5.355556e+02
      vertex -1.274788e+02 1.183563e+00 -5.355598e+02
      vertex -1.274788e+02 2.870248e+00 -5.355556e+02
    endloop
  endfacet
  facet normal 3.967254e-17 -9.999969e-01 -2.489430e-03
    outer loop
      vertex -1.136710e+02 1.198117e+00 -5.414059e+02
      vertex -1.266128e+02 1.179829e+00 -5.340598e+02
      vertex -1.266128e+02 1.182319e+00 -5.350598e+02
    endloop
  endfacet
  facet normal -1.000000e+00 -2.425479e-07 -6.038077e-10
    outer loop
      vertex -1.266128e+02 2.867765e+00 -5.350556e+02
      vertex -1.266128e+02 1.182319e+00 -5.350598e+02
      vertex -1.266128e+02 1.179829e+00 -5.340598e+02
    endloop
  endfacet
  facet normal -4.999858e-01 -2.155688e-03 8.660309e-01
    outer loop
      vertex -1.274788e+02 2.870248e+00 -5.355556e+02
      vertex -1.266128e+02 1.182319e+00 -5.350598e+02
      vertex -1.266128e+02 2.867765e+00 -5.350556e+02
    endloop
  endfacet
  facet normal 5.616332e-15 -9.999969e-01 -2.489430e-03
    outer loop
      vertex -1.136710e+02 1.198117e+00 -5.414059e+02
      vertex -1.274788e+02 1.178584e+00 -5.335598e+02
      vertex -1.266128e+02 1.179829e+00 -5.340598e+02
    endloop
  endfacet
  facet normal -4.999861e-01 2.156171e-03 -8.660307e-01
    outer loop
      vertex -1.266128e+02 2.862798e+00 -5.340556e+02
      vertex -1.266128e+02 1.179829e+00 -5.340598e+02
      vertex -1.274788e+02 1.178584e+00 -5.335598e+02
    endloop
  endfacet
  facet normal -1.000000e+00 -2.421415e-07 8.488027e-11
    outer loop
      vertex -1.266128e+02 2.867765e+00 -5.350556e+02
      vertex -1.266128e+02 1.179829e+00 -5.340598e+02
      vertex -1.266128e+02 2.862798e+00 -5.340556e+02
    endloop
  endfacet
  facet normal 0.000000e+00 2.489430e-03 -9.999969e-01
    outer loop
      vertex -1.274788e+02 2.860316e+00 -5.335556e+02
      vertex -1.274788e+02 1.178584e+00 -5.335598e+02
      vertex -2.238212e+02 1.178584e+00 -5.335598e+02
    endloop
  endfacet
  facet normal 5.128592e-16 -9.999969e-01 -2.489430e-03
    outer loop
      vertex -1.135653e+02 1.197270e+00 -5.410656e+02
      vertex -1.134840e+02 1.196405e+00 -5.407182e+02
      vertex -1.274788e+02 1.178584e+00 -5.335598e+02
    endloop
  endfacet
  facet normal -2.648693e-16 -9.999969e-01 -2.489430e-03
    outer loop
      vertex -1.136710e+02 1.198117e+00 -5.414059e+02
      vertex -1.135653e+02 1.197270e+00 -5.410656e+02
      vertex -1.274788e+02 1.178584e+00 -5.335598e+02
    endloop
  endfacet
  facet normal -4.999858e-01 2.155930e-03 -8.660309e-01
    outer loop
      vertex -1.266128e+02 2.862798e+00 -5.340556e+02
      vertex -1.274788e+02 1.178584e+00 -5.335598e+02
      vertex -1.274788e+02 2.860316e+00 -5.335556e+02
    endloop
  endfacet
  facet normal -5.183328e-01 2.128908e-03 -8.551764e-01
    outer loop
      vertex -2.238212e+02 2.860316e+00 -5.335556e+02
      vertex -2.238212e+02 1.178584e+00 -5.335598e+02
      vertex -2.241270e+02 1.178123e+00 -5.333744e+02
    endloop
  endfacet
  facet normal 0.000000e+00 2.489430e-03 -9.999969e-01
    outer loop
      vertex -1.274788e+02 2.860316e+00 -5.335556e+02
      vertex -2.238212e+02 1.178584e+00 -5.335598e+02
      vertex -2.238212e+02 2.860316e+00 -5.335556e+02
    endloop
  endfacet
  facet normal -1.806877e-01 2.448472e-03 -9.835375e-01
    outer loop
      vertex -2.241270e+02 2.859395e+00 -5.333702e+02
      vertex -2.241270e+02 1.178123e+00 -5.333744e+02
      vertex -2.244788e+02 1.177962e+00 -5.333098e+02
    endloop
  endfacet
  facet normal -5.183327e-01 2.128891e-03 -8.551764e-01
    outer loop
      vertex -2.238212e+02 2.860316e+00 -5.335556e+02
      vertex -2.241270e+02 1.178123e+00 -5.333744e+02
      vertex -2.241270e+02 2.859395e+00 -5.333702e+02
    endloop
  endfacet
  facet normal -1.806876e-01 2.448455e-03 -9.835375e-01
    outer loop
      vertex -2.241270e+02 2.859395e+00 -5.333702e+02
      vertex -2.244788e+02 1.177962e+00 -5.333098e+02
      vertex -2.244788e+02 2.859074e+00 -5.333056e+02
    endloop
  endfacet
  facet normal 0.000000e+00 -9.999969e-01 -2.489430e-03
    outer loop
      vertex -1.136710e+02 1.198117e+00 -5.414059e+02
      vertex -2.504788e+02 1.192387e+00 -5.391041e+02
      vertex -2.884289e+02 1.192387e+00 -5.391041e+02
    endloop
  endfacet
  facet normal 0.000000e+00 -2.489430e-03 9.999969e-01
    outer loop
      vertex -2.884315e+02 2.887849e+00 -5.390998e+02
      vertex -2.884289e+02 1.192387e+00 -5.391041e+02
      vertex -2.504788e+02 1.192387e+00 -5.391041e+02
    endloop
  endfacet
  facet normal -1.473325e-18 -9.999969e-01 -2.489430e-03
    outer loop
      vertex -2.893032e+02 1.194488e+00 -5.399482e+02
      vertex -1.136710e+02 1.198117e+00 -5.414059e+02
      vertex -2.884289e+02 1.192387e+00 -5.391041e+02
    endloop
  endfacet
  facet normal -6.946195e-01 -2.840760e-03 7.193718e-01
    outer loop
      vertex -2.884315e+02 2.887849e+00 -5.390998e+02
      vertex -2.893032e+02 1.194488e+00 -5.399482e+02
      vertex -2.884289e+02 1.192387e+00 -5.391041e+02
    endloop
  endfacet
  facet normal -3.826866e-01 -2.299930e-03 9.238754e-01
    outer loop
      vertex -2.504788e+02 2.887849e+00 -5.390998e+02
      vertex -2.504788e+02 1.192387e+00 -5.391041e+02
      vertex -2.469433e+02 1.188741e+00 -5.376396e+02
    endloop
  endfacet
  facet normal 0.000000e+00 -2.489430e-03 9.999969e-01
    outer loop
      vertex -2.504788e+02 2.887849e+00 -5.390998e+02
      vertex -2.884315e+02 2.887849e+00 -5.390998e+02
      vertex -2.504788e+02 1.192387e+00 -5.391041e+02
    endloop
  endfacet
  facet normal -7.178372e-01 6.287800e-01 2.989070e-01
    outer loop
      vertex -2.454998e+02 1.373185e+00 -5.345609e+02
      vertex -2.469433e+02 1.188741e+00 -5.376396e+02
      vertex -2.454788e+02 1.179939e+00 -5.341041e+02
    endloop
  endfacet
  facet normal -3.826861e-01 -2.298854e-03 9.238756e-01
    outer loop
      vertex -2.504788e+02 2.887849e+00 -5.390998e+02
      vertex -2.469433e+02 1.188741e+00 -5.376396e+02
      vertex -2.469433e+02 2.880576e+00 -5.376354e+02
    endloop
  endfacet
  facet normal -9.053899e-01 -1.057921e-03 4.245798e-01
    outer loop
      vertex -2.454998e+02 1.373185e+00 -5.345609e+02
      vertex -2.469433e+02 2.880576e+00 -5.376354e+02
      vertex -2.469433e+02 1.188741e+00 -5.376396e+02
    endloop
  endfacet
  facet normal -1.000000e+00 0.000000e+00 0.000000e+00
    outer loop
      vertex -2.454788e+02 1.558549e+00 -5.341031e+02
      vertex -2.454788e+02 1.179939e+00 -5.341041e+02
      vertex -2.454788e+02 1.123413e+00 -5.113977e+02
    endloop
  endfacet
  facet normal -9.997775e-01 -5.251663e-05 2.109578e-02
    outer loop
      vertex -2.454833e+02 1.420443e+00 -5.343144e+02
      vertex -2.454788e+02 1.179939e+00 -5.341041e+02
      vertex -2.454788e+02 1.558549e+00 -5.341031e+02
    endloop
  endfacet
  facet normal -9.975972e-01 3.421911e-02 6.024084e-02
    outer loop
      vertex -2.454833e+02 1.420443e+00 -5.343144e+02
      vertex -2.454998e+02 1.373185e+00 -5.345609e+02
      vertex -2.454788e+02 1.179939e+00 -5.341041e+02
    endloop
  endfacet
  facet normal -3.331972e-01 -8.464908e-01 4.152504e-01
    outer loop
      vertex -2.454788e+02 1.500533e+00 -5.106289e+02
      vertex -2.454788e+02 1.123413e+00 -5.113977e+02
      vertex -2.448499e+02 1.122163e+00 -5.108956e+02
    endloop
  endfacet
  facet normal -1.000000e+00 0.000000e+00 0.000000e+00
    outer loop
      vertex -2.454788e+02 2.021547e+00 -5.339077e+02
      vertex -2.454788e+02 1.123413e+00 -5.113977e+02
      vertex -2.454788e+02 2.750860e+00 -5.115150e+02
    endloop
  endfacet
  facet normal -1.000000e+00 0.000000e+00 0.000000e+00
    outer loop
      vertex -2.454788e+02 2.368283e+00 -5.107497e+02
      vertex -2.454788e+02 2.750860e+00 -5.115150e+02
      vertex -2.454788e+02 1.123413e+00 -5.113977e+02
    endloop
  endfacet
  facet normal -1.000000e+00 0.000000e+00 0.000000e+00
    outer loop
      vertex -2.454788e+02 2.368283e+00 -5.107497e+02
      vertex -2.454788e+02 1.123413e+00 -5.113977e+02
      vertex -2.454788e+02 1.500533e+00 -5.106289e+02
    endloop
  endfacet
  facet normal -1.000000e+00 0.000000e+00 0.000000e+00
    outer loop
      vertex -2.454788e+02 2.021547e+00 -5.339077e+02
      vertex -2.454788e+02 1.558549e+00 -5.341031e+02
      vertex -2.454788e+02 1.123413e+00 -5.113977e+02
    endloop
  endfacet
  facet normal -1.039841e-16 -9.999969e-01 -2.489430e-03
    outer loop
      vertex -1.113085e+02 1.160078e+00 -5.261259e+02
      vertex -1.104863e+02 1.123408e+00 -5.113954e+02
      vertex -1.111105e+02 1.122156e+00 -5.108928e+02
    endloop
  endfacet
  facet normal 3.369077e-01 -8.444799e-01 4.163494e-01
    outer loop
      vertex -1.104809e+02 1.482658e+00 -5.106711e+02
      vertex -1.111105e+02 1.122156e+00 -5.108928e+02
      vertex -1.104863e+02 1.123408e+00 -5.113954e+02
    endloop
  endfacet
  facet normal 4.250777e-01 -8.779248e-01 2.203567e-01
    outer loop
      vertex -1.104791e+02 1.620572e+00 -5.101252e+02
      vertex -1.111105e+02 1.122156e+00 -5.108928e+02
      vertex -1.104809e+02 1.482658e+00 -5.106711e+02
    endloop
  endfacet
  facet normal 9.984401e-01 -3.262699e-03 -5.573790e-02
    outer loop
      vertex -1.104875e+02 2.750847e+00 -5.115124e+02
      vertex -1.104863e+02 1.123408e+00 -5.113954e+02
      vertex -1.113085e+02 1.160078e+00 -5.261259e+02
    endloop
  endfacet
  facet normal 9.999664e-01 1.561594e-04 -8.190110e-03
    outer loop
      vertex -1.104818e+02 2.403565e+00 -5.108302e+02
      vertex -1.104863e+02 1.123408e+00 -5.113954e+02
      vertex -1.104875e+02 2.750847e+00 -5.115124e+02
    endloop
  endfacet
  facet normal 9.999738e-01 -2.651635e-04 -7.235985e-03
    outer loop
      vertex -1.104809e+02 1.482658e+00 -5.106711e+02
      vertex -1.104863e+02 1.123408e+00 -5.113954e+02
      vertex -1.104818e+02 2.403565e+00 -5.108302e+02
    endloop
  endfacet
  facet normal 9.890666e-01 -1.305271e-03 -1.474639e-01
    outer loop
      vertex -1.113146e+02 2.823698e+00 -5.261820e+02
      vertex -1.113085e+02 1.160078e+00 -5.261259e+02
      vertex -1.134840e+02 1.196405e+00 -5.407182e+02
    endloop
  endfacet
  facet normal 9.984129e-01 1.806148e-03 -5.628815e-02
    outer loop
      vertex -1.104875e+02 2.750847e+00 -5.115124e+02
      vertex -1.113085e+02 1.160078e+00 -5.261259e+02
      vertex -1.113146e+02 2.823698e+00 -5.261820e+02
    endloop
  endfacet
  facet normal 9.737095e-01 5.670757e-04 -2.277927e-01
    outer loop
      vertex -1.134840e+02 2.895865e+00 -5.407139e+02
      vertex -1.134840e+02 1.196405e+00 -5.407182e+02
      vertex -1.135653e+02 1.197270e+00 -5.410656e+02
    endloop
  endfacet
  facet normal 9.890400e-01 3.675586e-04 -1.476472e-01
    outer loop
      vertex -1.113146e+02 2.823698e+00 -5.261820e+02
      vertex -1.134840e+02 1.196405e+00 -5.407182e+02
      vertex -1.134840e+02 2.895865e+00 -5.407139e+02
    endloop
  endfacet
  facet normal 9.549995e-01 6.455117e-04 -2.966066e-01
    outer loop
      vertex -1.136702e+02 2.095269e+00 -5.414014e+02
      vertex -1.135653e+02 1.197270e+00 -5.410656e+02
      vertex -1.136710e+02 1.198117e+00 -5.414059e+02
    endloop
  endfacet
  facet normal 9.620490e-01 1.041760e-02 -2.726776e-01
    outer loop
      vertex -1.134840e+02 2.895865e+00 -5.407139e+02
      vertex -1.135653e+02 1.197270e+00 -5.410656e+02
      vertex -1.136702e+02 2.095269e+00 -5.414014e+02
    endloop
  endfacet
  facet normal 8.867881e-19 -9.999969e-01 -2.489430e-03
    outer loop
      vertex -2.893032e+02 1.194488e+00 -5.399482e+02
      vertex -2.904788e+02 1.195254e+00 -5.402559e+02
      vertex -1.136710e+02 1.198117e+00 -5.414059e+02
    endloop
  endfacet
  facet normal -2.531773e-01 -4.804240e-03 9.674080e-01
    outer loop
      vertex -2.904788e+02 2.893548e+00 -5.402474e+02
      vertex -2.904788e+02 1.195254e+00 -5.402559e+02
      vertex -2.893032e+02 1.194488e+00 -5.399482e+02
    endloop
  endfacet
  facet normal -6.936982e-01 -3.757971e-03 7.202560e-01
    outer loop
      vertex -2.893042e+02 2.892023e+00 -5.399404e+02
      vertex -2.893032e+02 1.194488e+00 -5.399482e+02
      vertex -2.884315e+02 2.887849e+00 -5.390998e+02
    endloop
  endfacet
  facet normal -2.529316e-01 -4.622741e-03 9.674731e-01
    outer loop
      vertex -2.904788e+02 2.893548e+00 -5.402474e+02
      vertex -2.893032e+02 1.194488e+00 -5.399482e+02
      vertex -2.893042e+02 2.892023e+00 -5.399404e+02
    endloop
  endfacet
  facet normal 7.913586e-01 -1.363142e-01 -5.959614e-01
    outer loop
      vertex -1.151599e+02 2.910027e+00 -5.435659e+02
      vertex -1.136702e+02 2.095269e+00 -5.414014e+02
      vertex -1.154961e+02 2.107323e+00 -5.438287e+02
    endloop
  endfacet
  facet normal 8.400403e-01 2.275521e-01 -4.924961e-01
    outer loop
      vertex -1.134840e+02 2.895865e+00 -5.407139e+02
      vertex -1.136702e+02 2.095269e+00 -5.414014e+02
      vertex -1.151599e+02 2.910027e+00 -5.435659e+02
    endloop
  endfacet
  facet normal 0.000000e+00 -9.999877e-01 -4.966034e-03
    outer loop
      vertex -1.194788e+02 2.107167e+00 -5.437974e+02
      vertex -1.194788e+02 2.111905e+00 -5.447514e+02
      vertex -1.183901e+02 2.111905e+00 -5.447514e+02
    endloop
  endfacet
  facet normal 0.000000e+00 4.966034e-03 -9.999877e-01
    outer loop
      vertex -1.182490e+02 2.915895e+00 -5.447474e+02
      vertex -1.183901e+02 2.111905e+00 -5.447514e+02
      vertex -1.194788e+02 2.111905e+00 -5.447514e+02
    endloop
  endfacet
  facet normal -2.637536e-17 -9.999877e-01 -4.966034e-03
    outer loop
      vertex -1.154961e+02 2.107323e+00 -5.438287e+02
      vertex -1.194788e+02 2.107167e+00 -5.437974e+02
      vertex -1.183901e+02 2.111905e+00 -5.447514e+02
    endloop
  endfacet
  facet normal 2.975240e-01 -1.968348e-01 -9.342031e-01
    outer loop
      vertex -1.183536e+02 2.165915e+00 -5.447511e+02
      vertex -1.154961e+02 2.107323e+00 -5.438287e+02
      vertex -1.183901e+02 2.111905e+00 -5.447514e+02
    endloop
  endfacet
  facet normal -5.411089e-13 4.966034e-03 -9.999877e-01
    outer loop
      vertex -1.182490e+02 2.915895e+00 -5.447474e+02
      vertex -1.183536e+02 2.165915e+00 -5.447511e+02
      vertex -1.183901e+02 2.111905e+00 -5.447514e+02
    endloop
  endfacet
  facet normal 1.000000e+00 1.700530e-13 8.444994e-16
    outer loop
      vertex -1.194788e+02 1.944775e+00 -5.447522e+02
      vertex -1.194788e+02 2.111905e+00 -5.447514e+02
      vertex -1.194788e+02 2.107167e+00 -5.437974e+02
    endloop
  endfacet
  facet normal 1.000000e+00 3.147138e-14 7.834603e-17
    outer loop
      vertex -1.194788e+02 1.204623e+00 -5.440194e+02
      vertex -1.194788e+02 2.107167e+00 -5.437974e+02
      vertex -1.194788e+02 1.204082e+00 -5.438019e+02
    endloop
  endfacet
  facet normal 1.000000e+00 2.522469e-14 2.547648e-14
    outer loop
      vertex -1.194788e+02 1.944775e+00 -5.447522e+02
      vertex -1.194788e+02 2.107167e+00 -5.437974e+02
      vertex -1.194788e+02 1.204623e+00 -5.440194e+02
    endloop
  endfacet
  facet normal 3.051896e-01 -6.869548e-02 -9.498106e-01
    outer loop
      vertex -1.183238e+02 2.289820e+00 -5.447505e+02
      vertex -1.154961e+02 2.107323e+00 -5.438287e+02
      vertex -1.183536e+02 2.165915e+00 -5.447511e+02
    endloop
  endfacet
  facet normal 3.072768e-01 -4.102767e-02 -9.507354e-01
    outer loop
      vertex -1.182902e+02 2.515260e+00 -5.447494e+02
      vertex -1.154961e+02 2.107323e+00 -5.438287e+02
      vertex -1.183238e+02 2.289820e+00 -5.447505e+02
    endloop
  endfacet
  facet normal 3.092699e-01 -2.704686e-02 -9.505896e-01
    outer loop
      vertex -1.182490e+02 2.915895e+00 -5.447474e+02
      vertex -1.154961e+02 2.107323e+00 -5.438287e+02
      vertex -1.182902e+02 2.515260e+00 -5.447494e+02
    endloop
  endfacet
  facet normal 3.532209e-01 1.542328e-01 -9.227390e-01
    outer loop
      vertex -1.151599e+02 2.910027e+00 -5.435659e+02
      vertex -1.154961e+02 2.107323e+00 -5.438287e+02
      vertex -1.182490e+02 2.915895e+00 -5.447474e+02
    endloop
  endfacet
  facet normal -2.729695e-12 4.966034e-03 -9.999877e-01
    outer loop
      vertex -1.182490e+02 2.915895e+00 -5.447474e+02
      vertex -1.183238e+02 2.289820e+00 -5.447505e+02
      vertex -1.183536e+02 2.165915e+00 -5.447511e+02
    endloop
  endfacet
  facet normal -6.814796e-13 4.966034e-03 -9.999877e-01
    outer loop
      vertex -1.182490e+02 2.915895e+00 -5.447474e+02
      vertex -1.182902e+02 2.515260e+00 -5.447494e+02
      vertex -1.183238e+02 2.289820e+00 -5.447505e+02
    endloop
  endfacet
  facet normal 1.967235e-16 9.999877e-01 4.966034e-03
    outer loop
      vertex -1.274788e+02 2.870248e+00 -5.355556e+02
      vertex -1.266128e+02 2.867765e+00 -5.350556e+02
      vertex -1.182490e+02 2.915895e+00 -5.447474e+02
    endloop
  endfacet
  facet normal -2.748316e-17 9.999877e-01 4.966034e-03
    outer loop
      vertex -1.113459e+02 2.744547e+00 -5.102438e+02
      vertex -1.182490e+02 2.915895e+00 -5.447474e+02
      vertex -1.266128e+02 2.867765e+00 -5.350556e+02
    endloop
  endfacet
  facet normal 1.263265e-16 9.999877e-01 4.966034e-03
    outer loop
      vertex -1.113459e+02 2.744547e+00 -5.102438e+02
      vertex -1.151599e+02 2.910027e+00 -5.435659e+02
      vertex -1.182490e+02 2.915895e+00 -5.447474e+02
    endloop
  endfacet
  facet normal 0.000000e+00 9.999877e-01 4.966034e-03
    outer loop
      vertex -1.113459e+02 2.744547e+00 -5.102438e+02
      vertex -2.244788e+02 2.859074e+00 -5.333056e+02
      vertex -2.284668e+02 2.859074e+00 -5.333056e+02
    endloop
  endfacet
  facet normal -2.154377e-18 9.999877e-01 4.966034e-03
    outer loop
      vertex -1.113459e+02 2.744547e+00 -5.102438e+02
      vertex -2.284668e+02 2.859074e+00 -5.333056e+02
      vertex -2.284668e+02 2.850334e+00 -5.315456e+02
    endloop
  endfacet
  facet normal 7.197224e-16 9.999877e-01 4.966034e-03
    outer loop
      vertex -1.113459e+02 2.744547e+00 -5.102438e+02
      vertex -2.241270e+02 2.859395e+00 -5.333702e+02
      vertex -2.244788e+02 2.859074e+00 -5.333056e+02
    endloop
  endfacet
  facet normal 1.587231e-17 9.999877e-01 4.966034e-03
    outer loop
      vertex -1.113459e+02 2.744547e+00 -5.102438e+02
      vertex -2.238212e+02 2.860316e+00 -5.335556e+02
      vertex -2.241270e+02 2.859395e+00 -5.333702e+02
    endloop
  endfacet
  facet normal 0.000000e+00 9.999877e-01 4.966034e-03
    outer loop
      vertex -1.113459e+02 2.744547e+00 -5.102438e+02
      vertex -1.274788e+02 2.860316e+00 -5.335556e+02
      vertex -2.238212e+02 2.860316e+00 -5.335556e+02
    endloop
  endfacet
  facet normal -2.357685e-16 9.999877e-01 4.966034e-03
    outer loop
      vertex -1.113459e+02 2.744547e+00 -5.102438e+02
      vertex -1.266128e+02 2.862798e+00 -5.340556e+02
      vertex -1.274788e+02 2.860316e+00 -5.335556e+02
    endloop
  endfacet
  facet normal 6.108007e-16 9.999877e-01 4.966034e-03
    outer loop
      vertex -1.113459e+02 2.744547e+00 -5.102438e+02
      vertex -1.266128e+02 2.867765e+00 -5.350556e+02
      vertex -1.266128e+02 2.862798e+00 -5.340556e+02
    endloop
  endfacet
  facet normal 0.000000e+00 9.999877e-01 4.966034e-03
    outer loop
      vertex -2.241270e+02 2.871168e+00 -5.357410e+02
      vertex -2.238212e+02 2.870248e+00 -5.355556e+02
      vertex -1.274788e+02 2.870248e+00 -5.355556e+02
    endloop
  endfacet
  facet normal -1.683732e-18 9.999877e-01 4.966034e-03
    outer loop
      vertex -2.287568e+02 2.883706e+00 -5.382656e+02
      vertex -2.241270e+02 2.871168e+00 -5.357410e+02
      vertex -1.274788e+02 2.870248e+00 -5.355556e+02
    endloop
  endfacet
  facet normal 2.810175e-18 9.999877e-01 4.966034e-03
    outer loop
      vertex -2.294568e+02 2.885146e+00 -5.385556e+02
      vertex -2.287568e+02 2.883706e+00 -5.382656e+02
      vertex -1.274788e+02 2.870248e+00 -5.355556e+02
    endloop
  endfacet
  facet normal 1.001392e-15 9.999877e-01 4.966034e-03
    outer loop
      vertex -2.287568e+02 2.883706e+00 -5.382656e+02
      vertex -2.244788e+02 2.871489e+00 -5.358056e+02
      vertex -2.241270e+02 2.871168e+00 -5.357410e+02
    endloop
  endfacet
  facet normal 0.000000e+00 9.999877e-01 4.966034e-03
    outer loop
      vertex -2.284668e+02 2.880229e+00 -5.375656e+02
      vertex -2.284668e+02 2.871489e+00 -5.358056e+02
      vertex -2.244788e+02 2.871489e+00 -5.358056e+02
    endloop
  endfacet
  facet normal 1.262218e-16 9.999877e-01 4.966034e-03
    outer loop
      vertex -2.287568e+02 2.883706e+00 -5.382656e+02
      vertex -2.284668e+02 2.880229e+00 -5.375656e+02
      vertex -2.244788e+02 2.871489e+00 -5.358056e+02
    endloop
  endfacet
  facet normal -2.159677e-17 9.999877e-01 4.966034e-03
    outer loop
      vertex -2.504788e+02 2.887849e+00 -5.390998e+02
      vertex -2.314788e+02 2.850334e+00 -5.315456e+02
      vertex -2.314788e+02 2.880229e+00 -5.375656e+02
    endloop
  endfacet
  facet normal 1.000000e+00 0.000000e+00 0.000000e+00
    outer loop
      vertex -2.314788e+02 2.673168e+00 -5.345545e+02
      vertex -2.314788e+02 2.880229e+00 -5.375656e+02
      vertex -2.314788e+02 2.850334e+00 -5.315456e+02
    endloop
  endfacet
  facet normal 1.000000e+00 0.000000e+00 0.000000e+00
    outer loop
      vertex -2.314788e+02 2.485063e+00 -5.350150e+02
      vertex -2.314788e+02 2.880229e+00 -5.375656e+02
      vertex -2.314788e+02 2.673168e+00 -5.345545e+02
    endloop
  endfacet
  facet normal 5.489309e-16 9.999877e-01 4.966034e-03
    outer loop
      vertex -2.446128e+02 2.744547e+00 -5.102438e+02
      vertex -2.311889e+02 2.846857e+00 -5.308456e+02
      vertex -2.314788e+02 2.850334e+00 -5.315456e+02
    endloop
  endfacet
  facet normal -4.718271e-17 9.999877e-01 4.966034e-03
    outer loop
      vertex -2.454788e+02 2.863019e+00 -5.340999e+02
      vertex -2.446128e+02 2.744547e+00 -5.102438e+02
      vertex -2.314788e+02 2.850334e+00 -5.315456e+02
    endloop
  endfacet
  facet normal -6.824124e-17 9.999877e-01 4.966034e-03
    outer loop
      vertex -2.469433e+02 2.880576e+00 -5.376354e+02
      vertex -2.454788e+02 2.863019e+00 -5.340999e+02
      vertex -2.314788e+02 2.850334e+00 -5.315456e+02
    endloop
  endfacet
  facet normal 2.485627e-17 9.999877e-01 4.966034e-03
    outer loop
      vertex -2.504788e+02 2.887849e+00 -5.390998e+02
      vertex -2.469433e+02 2.880576e+00 -5.376354e+02
      vertex -2.314788e+02 2.850334e+00 -5.315456e+02
    endloop
  endfacet
  facet normal 1.000000e+00 0.000000e+00 0.000000e+00
    outer loop
      vertex -2.314788e+02 2.019949e+00 -5.339077e+02
      vertex -2.314788e+02 2.850334e+00 -5.315456e+02
      vertex -2.314788e+02 1.561290e+00 -5.341004e+02
    endloop
  endfacet
  facet normal 1.000000e+00 0.000000e+00 0.000000e+00
    outer loop
      vertex -2.314788e+02 2.480498e+00 -5.340958e+02
      vertex -2.314788e+02 2.850334e+00 -5.315456e+02
      vertex -2.314788e+02 2.019949e+00 -5.339077e+02
    endloop
  endfacet
  facet normal 1.000000e+00 0.000000e+00 0.000000e+00
    outer loop
      vertex -2.314788e+02 2.673168e+00 -5.345545e+02
      vertex -2.314788e+02 2.850334e+00 -5.315456e+02
      vertex -2.314788e+02 2.480498e+00 -5.340958e+02
    endloop
  endfacet
  facet normal -1.697346e-16 9.999877e-01 4.966034e-03
    outer loop
      vertex -2.446128e+02 2.744547e+00 -5.102438e+02
      vertex -2.304888e+02 2.845417e+00 -5.305556e+02
      vertex -2.311889e+02 2.846857e+00 -5.308456e+02
    endloop
  endfacet
  facet normal 0.000000e+00 9.999877e-01 4.966034e-03
    outer loop
      vertex -1.113459e+02 2.744547e+00 -5.102438e+02
      vertex -2.294568e+02 2.845417e+00 -5.305556e+02
      vertex -2.304888e+02 2.845417e+00 -5.305556e+02
    endloop
  endfacet
  facet normal 0.000000e+00 9.999877e-01 4.966034e-03
    outer loop
      vertex -2.446128e+02 2.744547e+00 -5.102438e+02
      vertex -1.113459e+02 2.744547e+00 -5.102438e+02
      vertex -2.304888e+02 2.845417e+00 -5.305556e+02
    endloop
  endfacet
  facet normal 6.413881e-17 9.999877e-01 4.966034e-03
    outer loop
      vertex -1.113459e+02 2.744547e+00 -5.102438e+02
      vertex -2.287568e+02 2.846857e+00 -5.308456e+02
      vertex -2.294568e+02 2.845417e+00 -5.305556e+02
    endloop
  endfacet
  facet normal -9.570235e-17 9.999877e-01 4.966034e-03
    outer loop
      vertex -1.113459e+02 2.744547e+00 -5.102438e+02
      vertex -2.284668e+02 2.850334e+00 -5.315456e+02
      vertex -2.287568e+02 2.846857e+00 -5.308456e+02
    endloop
  endfacet
  facet normal 0.000000e+00 9.999877e-01 4.966034e-03
    outer loop
      vertex -2.504788e+02 2.887849e+00 -5.390998e+02
      vertex -2.893042e+02 2.892023e+00 -5.399404e+02
      vertex -2.884315e+02 2.887849e+00 -5.390998e+02
    endloop
  endfacet
  facet normal 2.062295e-17 9.999877e-01 4.966034e-03
    outer loop
      vertex -2.504788e+02 2.887849e+00 -5.390998e+02
      vertex -2.904788e+02 2.893548e+00 -5.402474e+02
      vertex -2.893042e+02 2.892023e+00 -5.399404e+02
    endloop
  endfacet
  facet normal -5.135572e-16 9.999877e-01 4.966034e-03
    outer loop
      vertex -1.113459e+02 2.744547e+00 -5.102438e+02
      vertex -1.134840e+02 2.895865e+00 -5.407139e+02
      vertex -1.151599e+02 2.910027e+00 -5.435659e+02
    endloop
  endfacet
  facet normal 3.422787e-16 9.999877e-01 4.966034e-03
    outer loop
      vertex -1.113459e+02 2.744547e+00 -5.102438e+02
      vertex -1.113146e+02 2.823698e+00 -5.261820e+02
      vertex -1.134840e+02 2.895865e+00 -5.407139e+02
    endloop
  endfacet
  facet normal 2.684429e-17 9.999877e-01 4.966034e-03
    outer loop
      vertex -1.111111e+02 2.748351e+00 -5.110097e+02
      vertex -1.104875e+02 2.750847e+00 -5.115124e+02
      vertex -1.113146e+02 2.823698e+00 -5.261820e+02
    endloop
  endfacet
  facet normal -1.296804e-15 9.999877e-01 4.966034e-03
    outer loop
      vertex -1.113459e+02 2.744547e+00 -5.102438e+02
      vertex -1.111111e+02 2.748351e+00 -5.110097e+02
      vertex -1.113146e+02 2.823698e+00 -5.261820e+02
    endloop
  endfacet
  facet normal 3.388694e-01 8.395856e-01 4.245746e-01
    outer loop
      vertex -1.104818e+02 2.403565e+00 -5.108302e+02
      vertex -1.104875e+02 2.750847e+00 -5.115124e+02
      vertex -1.111111e+02 2.748351e+00 -5.110097e+02
    endloop
  endfacet
  facet normal 4.445641e-01 8.846289e-01 1.406928e-01
    outer loop
      vertex -1.104818e+02 2.403565e+00 -5.108302e+02
      vertex -1.111111e+02 2.748351e+00 -5.110097e+02
      vertex -1.113459e+02 2.744547e+00 -5.102438e+02
    endloop
  endfacet
  facet normal 0.000000e+00 -4.966034e-03 9.999877e-01
    outer loop
      vertex -1.106531e+02 2.344552e+00 -5.102458e+02
      vertex -1.113459e+02 2.744547e+00 -5.102438e+02
      vertex -2.446128e+02 2.744547e+00 -5.102438e+02
    endloop
  endfacet
  facet normal 4.873226e-01 8.429459e-01 2.279449e-01
    outer loop
      vertex -1.104818e+02 2.403565e+00 -5.108302e+02
      vertex -1.113459e+02 2.744547e+00 -5.102438e+02
      vertex -1.106531e+02 2.344552e+00 -5.102458e+02
    endloop
  endfacet
  facet normal 1.423669e-15 9.999877e-01 4.966034e-03
    outer loop
      vertex -2.454788e+02 2.863019e+00 -5.340999e+02
      vertex -2.448499e+02 2.748367e+00 -5.110130e+02
      vertex -2.446128e+02 2.744547e+00 -5.102438e+02
    endloop
  endfacet
  facet normal -4.941633e-01 8.551487e-01 1.565992e-01
    outer loop
      vertex -2.453056e+02 2.344552e+00 -5.102458e+02
      vertex -2.446128e+02 2.744547e+00 -5.102438e+02
      vertex -2.448499e+02 2.748367e+00 -5.110130e+02
    endloop
  endfacet
  facet normal 0.000000e+00 -4.966034e-03 9.999877e-01
    outer loop
      vertex -2.453056e+02 2.344552e+00 -5.102458e+02
      vertex -1.106531e+02 2.344552e+00 -5.102458e+02
      vertex -2.446128e+02 2.744547e+00 -5.102438e+02
    endloop
  endfacet
  facet normal -3.751883e-16 9.999877e-01 4.966034e-03
    outer loop
      vertex -2.454788e+02 2.863019e+00 -5.340999e+02
      vertex -2.454788e+02 2.750860e+00 -5.115150e+02
      vertex -2.448499e+02 2.748367e+00 -5.110130e+02
    endloop
  endfacet
  facet normal -3.332308e-01 8.433372e-01 4.215918e-01
    outer loop
      vertex -2.454788e+02 2.368283e+00 -5.107497e+02
      vertex -2.448499e+02 2.748367e+00 -5.110130e+02
      vertex -2.454788e+02 2.750860e+00 -5.115150e+02
    endloop
  endfacet
  facet normal -4.941633e-01 8.551487e-01 1.565992e-01
    outer loop
      vertex -2.454788e+02 2.244553e+00 -5.102463e+02
      vertex -2.453056e+02 2.344552e+00 -5.102458e+02
      vertex -2.448499e+02 2.748367e+00 -5.110130e+02
    endloop
  endfacet
  facet normal -4.378447e-01 8.730692e-01 2.145744e-01
    outer loop
      vertex -2.454788e+02 2.244553e+00 -5.102463e+02
      vertex -2.448499e+02 2.748367e+00 -5.110130e+02
      vertex -2.454788e+02 2.368283e+00 -5.107497e+02
    endloop
  endfacet
  facet normal -1.000000e+00 0.000000e+00 0.000000e+00
    outer loop
      vertex -2.454788e+02 2.021547e+00 -5.339077e+02
      vertex -2.454788e+02 2.750860e+00 -5.115150e+02
      vertex -2.454788e+02 2.863019e+00 -5.340999e+02
    endloop
  endfacet
  facet normal -7.199225e-01 -6.281995e-01 2.950880e-01
    outer loop
      vertex -2.454995e+02 2.673168e+00 -5.345545e+02
      vertex -2.454788e+02 2.863019e+00 -5.340999e+02
      vertex -2.469433e+02 2.880576e+00 -5.376354e+02
    endloop
  endfacet
  facet normal -1.000000e+00 0.000000e+00 0.000000e+00
    outer loop
      vertex -2.454788e+02 2.485535e+00 -5.341008e+02
      vertex -2.454788e+02 2.021547e+00 -5.339077e+02
      vertex -2.454788e+02 2.863019e+00 -5.340999e+02
    endloop
  endfacet
  facet normal -9.997976e-01 -5.008333e-05 2.011833e-02
    outer loop
      vertex -2.454829e+02 2.620617e+00 -5.343016e+02
      vertex -2.454788e+02 2.485535e+00 -5.341008e+02
      vertex -2.454788e+02 2.863019e+00 -5.340999e+02
    endloop
  endfacet
  facet normal -9.977432e-01 -3.232330e-02 5.885375e-02
    outer loop
      vertex -2.454995e+02 2.673168e+00 -5.345545e+02
      vertex -2.454829e+02 2.620617e+00 -5.343016e+02
      vertex -2.454788e+02 2.863019e+00 -5.340999e+02
    endloop
  endfacet
  facet normal -8.335724e-01 -4.167632e-01 3.625818e-01
    outer loop
      vertex -2.455837e+02 2.349789e+00 -5.351197e+02
      vertex -2.454995e+02 2.673168e+00 -5.345545e+02
      vertex -2.469433e+02 2.880576e+00 -5.376354e+02
    endloop
  endfacet
  facet normal -8.799244e-01 -2.165464e-03 4.751089e-01
    outer loop
      vertex -2.455841e+02 1.703169e+00 -5.351235e+02
      vertex -2.455837e+02 2.349789e+00 -5.351197e+02
      vertex -2.469433e+02 2.880576e+00 -5.376354e+02
    endloop
  endfacet
  facet normal -2.468474e-01 8.192564e-01 5.175765e-01
    outer loop
      vertex -2.454998e+02 1.373185e+00 -5.345609e+02
      vertex -2.455841e+02 1.703169e+00 -5.351235e+02
      vertex -2.469433e+02 2.880576e+00 -5.376354e+02
    endloop
  endfacet
  facet normal 0.000000e+00 9.999877e-01 4.966034e-03
    outer loop
      vertex -1.106520e+02 2.305627e+00 -5.024076e+02
      vertex -1.106531e+02 2.344552e+00 -5.102458e+02
      vertex -2.453056e+02 2.344552e+00 -5.102458e+02
    endloop
  endfacet
  facet normal 4.977261e-01 8.673239e-01 4.240457e-03
    outer loop
      vertex -1.104793e+02 2.244836e+00 -5.102463e+02
      vertex -1.106531e+02 2.344552e+00 -5.102458e+02
      vertex -1.106520e+02 2.305627e+00 -5.024076e+02
    endloop
  endfacet
  facet normal 4.851635e-01 8.443236e-01 2.274512e-01
    outer loop
      vertex -1.104818e+02 2.403565e+00 -5.108302e+02
      vertex -1.106531e+02 2.344552e+00 -5.102458e+02
      vertex -1.104793e+02 2.244836e+00 -5.102463e+02
    endloop
  endfacet
  facet normal -2.149003e-16 9.999877e-01 4.966034e-03
    outer loop
      vertex -1.135521e+02 2.187899e+00 -4.787014e+02
      vertex -1.134987e+02 2.188942e+00 -4.789114e+02
      vertex -2.453056e+02 2.344552e+00 -5.102458e+02
    endloop
  endfacet
  facet normal 2.637210e-18 9.999877e-01 4.966034e-03
    outer loop
      vertex -1.116403e+02 2.247021e+00 -4.906065e+02
      vertex -2.453056e+02 2.344552e+00 -5.102458e+02
      vertex -1.134987e+02 2.188942e+00 -4.789114e+02
    endloop
  endfacet
  facet normal 1.273504e-16 9.999877e-01 4.966034e-03
    outer loop
      vertex -1.136277e+02 2.186893e+00 -4.784987e+02
      vertex -1.135521e+02 2.187899e+00 -4.787014e+02
      vertex -2.453056e+02 2.344552e+00 -5.102458e+02
    endloop
  endfacet
  facet normal 0.000000e+00 9.999877e-01 4.966034e-03
    outer loop
      vertex -2.453056e+02 2.186893e+00 -4.784987e+02
      vertex -1.136277e+02 2.186893e+00 -4.784987e+02
      vertex -2.453056e+02 2.344552e+00 -5.102458e+02
    endloop
  endfacet
  facet normal -5.000000e-01 8.660147e-01 4.300712e-03
    outer loop
      vertex -2.454788e+02 2.086893e+00 -4.784989e+02
      vertex -2.453056e+02 2.186893e+00 -4.784987e+02
      vertex -2.453056e+02 2.344552e+00 -5.102458e+02
    endloop
  endfacet
  facet normal 4.171580e-18 9.999877e-01 4.966034e-03
    outer loop
      vertex -1.116403e+02 2.247021e+00 -4.906065e+02
      vertex -1.106520e+02 2.305627e+00 -5.024076e+02
      vertex -2.453056e+02 2.344552e+00 -5.102458e+02
    endloop
  endfacet
  facet normal -5.000000e-01 8.660147e-01 4.300712e-03
    outer loop
      vertex -2.454788e+02 2.244553e+00 -5.102463e+02
      vertex -2.454788e+02 2.086893e+00 -4.784989e+02
      vertex -2.453056e+02 2.344552e+00 -5.102458e+02
    endloop
  endfacet
  facet normal 5.000000e-01 8.660147e-01 4.300712e-03
    outer loop
      vertex -1.104793e+02 2.244836e+00 -5.102463e+02
      vertex -1.106520e+02 2.305627e+00 -5.024076e+02
      vertex -1.105176e+02 2.247499e+00 -5.063264e+02
    endloop
  endfacet
  facet normal 9.994124e-01 1.185880e-03 3.425578e-02
    outer loop
      vertex -1.105192e+02 1.587771e+00 -5.062582e+02
      vertex -1.105176e+02 2.247499e+00 -5.063264e+02
      vertex -1.106520e+02 2.305627e+00 -5.024076e+02
    endloop
  endfacet
  facet normal -1.000000e+00 0.000000e+00 0.000000e+00
    outer loop
      vertex -2.454788e+02 2.244553e+00 -5.102463e+02
      vertex -2.454788e+02 1.595519e+00 -4.785002e+02
      vertex -2.454788e+02 2.086893e+00 -4.784989e+02
    endloop
  endfacet
  facet normal -1.000000e+00 0.000000e+00 0.000000e+00
    outer loop
      vertex -2.454788e+02 1.539776e+00 -4.778004e+02
      vertex -2.454788e+02 1.593776e+00 -4.778001e+02
      vertex -2.454788e+02 1.595519e+00 -4.785002e+02
    endloop
  endfacet
  facet normal -1.000000e+00 0.000000e+00 0.000000e+00
    outer loop
      vertex -2.454788e+02 1.620247e+00 -5.101252e+02
      vertex -2.454788e+02 1.539776e+00 -4.778004e+02
      vertex -2.454788e+02 1.595519e+00 -4.785002e+02
    endloop
  endfacet
  facet normal -1.000000e+00 0.000000e+00 0.000000e+00
    outer loop
      vertex -2.454788e+02 2.244553e+00 -5.102463e+02
      vertex -2.454788e+02 1.620247e+00 -5.101252e+02
      vertex -2.454788e+02 1.595519e+00 -4.785002e+02
    endloop
  endfacet
  facet normal -9.783286e-01 -1.028259e-03 2.070557e-01
    outer loop
      vertex -2.454360e+02 1.514520e+00 -4.775979e+02
      vertex -2.454788e+02 1.593776e+00 -4.778001e+02
      vertex -2.454788e+02 1.539776e+00 -4.778004e+02
    endloop
  endfacet
  facet normal -9.504713e-01 1.621975e-01 2.651344e-01
    outer loop
      vertex -2.453915e+02 1.643466e+00 -4.775176e+02
      vertex -2.454788e+02 1.593776e+00 -4.778001e+02
      vertex -2.454360e+02 1.514520e+00 -4.775979e+02
    endloop
  endfacet
  facet normal -1.000000e+00 0.000000e+00 0.000000e+00
    outer loop
      vertex -2.454788e+02 2.244553e+00 -5.102463e+02
      vertex -2.454788e+02 1.500533e+00 -5.106289e+02
      vertex -2.454788e+02 1.620247e+00 -5.101252e+02
    endloop
  endfacet
  facet normal -1.000000e+00 0.000000e+00 0.000000e+00
    outer loop
      vertex -2.454788e+02 2.244553e+00 -5.102463e+02
      vertex -2.454788e+02 2.368283e+00 -5.107497e+02
      vertex -2.454788e+02 1.500533e+00 -5.106289e+02
    endloop
  endfacet
  facet normal 1.058054e-04 3.888939e-01 -9.212825e-01
    outer loop
      vertex -2.314788e+02 1.561290e+00 -5.341004e+02
      vertex -2.454788e+02 1.558549e+00 -5.341031e+02
      vertex -2.454788e+02 2.021547e+00 -5.339077e+02
    endloop
  endfacet
  facet normal -6.805812e-03 8.370563e-01 -5.470744e-01
    outer loop
      vertex -2.314788e+02 1.373185e+00 -5.345609e+02
      vertex -2.454833e+02 1.420443e+00 -5.343144e+02
      vertex -2.454788e+02 1.558549e+00 -5.341031e+02
    endloop
  endfacet
  facet normal -1.065748e-04 9.257587e-01 -3.781149e-01
    outer loop
      vertex -2.314788e+02 1.561290e+00 -5.341004e+02
      vertex -2.314788e+02 1.373185e+00 -5.345609e+02
      vertex -2.454788e+02 1.558549e+00 -5.341031e+02
    endloop
  endfacet
  facet normal 1.929164e-04 -3.842855e-01 -9.232143e-01
    outer loop
      vertex -2.314788e+02 2.480498e+00 -5.340958e+02
      vertex -2.454788e+02 2.021547e+00 -5.339077e+02
      vertex -2.454788e+02 2.485535e+00 -5.341008e+02
    endloop
  endfacet
  facet normal 4.381388e-05 3.872909e-01 -9.219576e-01
    outer loop
      vertex -2.314788e+02 2.019949e+00 -5.339077e+02
      vertex -2.314788e+02 1.561290e+00 -5.341004e+02
      vertex -2.454788e+02 2.021547e+00 -5.339077e+02
    endloop
  endfacet
  facet normal -4.355462e-05 -3.781149e-01 -9.257587e-01
    outer loop
      vertex -2.314788e+02 2.480498e+00 -5.340958e+02
      vertex -2.314788e+02 2.019949e+00 -5.339077e+02
      vertex -2.454788e+02 2.021547e+00 -5.339077e+02
    endloop
  endfacet
  facet normal -9.830116e-05 -8.297356e-01 -5.581566e-01
    outer loop
      vertex -2.314788e+02 2.480498e+00 -5.340958e+02
      vertex -2.454788e+02 2.485535e+00 -5.341008e+02
      vertex -2.454829e+02 2.620617e+00 -5.343016e+02
    endloop
  endfacet
  facet normal -6.812187e-03 -9.791403e-01 -2.030711e-01
    outer loop
      vertex -2.314788e+02 2.480498e+00 -5.340958e+02
      vertex -2.454829e+02 2.620617e+00 -5.343016e+02
      vertex -2.454995e+02 2.673168e+00 -5.345545e+02
    endloop
  endfacet
  facet normal 0.000000e+00 -8.679772e-01 4.966041e-01
    outer loop
      vertex -2.314788e+02 2.673168e+00 -5.345545e+02
      vertex -2.454995e+02 2.673168e+00 -5.345545e+02
      vertex -2.455837e+02 2.349789e+00 -5.351197e+02
    endloop
  endfacet
  facet normal 0.000000e+00 -9.219576e-01 -3.872909e-01
    outer loop
      vertex -2.314788e+02 2.673168e+00 -5.345545e+02
      vertex -2.314788e+02 2.480498e+00 -5.340958e+02
      vertex -2.454995e+02 2.673168e+00 -5.345545e+02
    endloop
  endfacet
  facet normal 6.105087e-03 -5.860972e-03 9.999642e-01
    outer loop
      vertex -2.314788e+02 2.026404e+00 -5.352077e+02
      vertex -2.455837e+02 2.349789e+00 -5.351197e+02
      vertex -2.455841e+02 1.703169e+00 -5.351235e+02
    endloop
  endfacet
  facet normal 6.072744e-03 -9.257416e-01 3.781080e-01
    outer loop
      vertex -2.314788e+02 2.485063e+00 -5.350150e+02
      vertex -2.314788e+02 2.673168e+00 -5.345545e+02
      vertex -2.455837e+02 2.349789e+00 -5.351197e+02
    endloop
  endfacet
  facet normal -3.126770e-03 -3.872890e-01 9.219531e-01
    outer loop
      vertex -2.314788e+02 2.026404e+00 -5.352077e+02
      vertex -2.314788e+02 2.485063e+00 -5.350150e+02
      vertex -2.455837e+02 2.349789e+00 -5.351197e+02
    endloop
  endfacet
  facet normal 4.677245e-03 8.628481e-01 5.054416e-01
    outer loop
      vertex -2.314788e+02 1.565855e+00 -5.350196e+02
      vertex -2.455841e+02 1.703169e+00 -5.351235e+02
      vertex -2.454998e+02 1.373185e+00 -5.345609e+02
    endloop
  endfacet
  facet normal -3.137139e-03 3.781131e-01 9.257541e-01
    outer loop
      vertex -2.314788e+02 1.565855e+00 -5.350196e+02
      vertex -2.314788e+02 2.026404e+00 -5.352077e+02
      vertex -2.455841e+02 1.703169e+00 -5.351235e+02
    endloop
  endfacet
  facet normal 0.000000e+00 9.821180e-01 -1.882666e-01
    outer loop
      vertex -2.314788e+02 1.373185e+00 -5.345609e+02
      vertex -2.454998e+02 1.373185e+00 -5.345609e+02
      vertex -2.454833e+02 1.420443e+00 -5.343144e+02
    endloop
  endfacet
  facet normal 0.000000e+00 9.219576e-01 3.872909e-01
    outer loop
      vertex -2.314788e+02 1.565855e+00 -5.350196e+02
      vertex -2.454998e+02 1.373185e+00 -5.345609e+02
      vertex -2.314788e+02 1.373185e+00 -5.345609e+02
    endloop
  endfacet
  facet normal 9.999496e-01 2.306989e-03 9.776002e-03
    outer loop
      vertex -1.104791e+02 1.620572e+00 -5.101252e+02
      vertex -1.104793e+02 2.244836e+00 -5.102463e+02
      vertex -1.105176e+02 2.247499e+00 -5.063264e+02
    endloop
  endfacet
  facet normal 9.999454e-01 -1.282353e-03 1.036831e-02
    outer loop
      vertex -1.105192e+02 1.587771e+00 -5.062582e+02
      vertex -1.104791e+02 1.620572e+00 -5.101252e+02
      vertex -1.105176e+02 2.247499e+00 -5.063264e+02
    endloop
  endfacet
  facet normal 9.999910e-01 2.536970e-04 -4.232580e-03
    outer loop
      vertex -1.104809e+02 1.482658e+00 -5.106711e+02
      vertex -1.104818e+02 2.403565e+00 -5.108302e+02
      vertex -1.104793e+02 2.244836e+00 -5.102463e+02
    endloop
  endfacet
  facet normal 9.999944e-01 -2.390253e-04 -3.348495e-03
    outer loop
      vertex -1.104791e+02 1.620572e+00 -5.101252e+02
      vertex -1.104809e+02 1.482658e+00 -5.106711e+02
      vertex -1.104793e+02 2.244836e+00 -5.102463e+02
    endloop
  endfacet
endsolid 129_100022026-23
