solid 149_100022597-18
  facet normal -1.000000e+00 0.000000e+00 0.000000e+00
    outer loop
      vertex -3.154788e+02 -2.839539e+01 -5.410441e+02
      vertex -3.154788e+02 -2.970976e+01 -5.409786e+02
      vertex -3.154788e+02 -2.966499e+01 -5.400797e+02
    endloop
  endfacet
  facet normal -1.520707e-16 -9.987621e-01 4.974105e-02
    outer loop
      vertex -2.454788e+02 -2.970976e+01 -5.409786e+02
      vertex -3.154788e+02 -2.966499e+01 -5.400797e+02
      vertex -3.154788e+02 -2.970976e+01 -5.409786e+02
    endloop
  endfacet
  facet normal -1.000000e+00 0.000000e+00 0.000000e+00
    outer loop
      vertex -3.154788e+02 -2.669867e+01 -5.402275e+02
      vertex -3.154788e+02 -2.839539e+01 -5.410441e+02
      vertex -3.154788e+02 -2.966499e+01 -5.400797e+02
    endloop
  endfacet
  facet normal 7.068628e-18 4.974105e-02 9.987621e-01
    outer loop
      vertex -2.904788e+02 -2.966499e+01 -5.400797e+02
      vertex -3.154788e+02 -2.669867e+01 -5.402275e+02
      vertex -3.154788e+02 -2.966499e+01 -5.400797e+02
    endloop
  endfacet
  facet normal -1.419326e-16 -9.987621e-01 4.974105e-02
    outer loop
      vertex -2.904788e+02 -2.966499e+01 -5.400797e+02
      vertex -3.154788e+02 -2.966499e+01 -5.400797e+02
      vertex -2.454788e+02 -2.970976e+01 -5.409786e+02
    endloop
  endfacet
  facet normal -6.120623e-18 -4.974105e-02 -9.987621e-01
    outer loop
      vertex -1.133735e+02 -2.839539e+01 -5.410441e+02
      vertex -3.154788e+02 -2.970976e+01 -5.409786e+02
      vertex -3.154788e+02 -2.839539e+01 -5.410441e+02
    endloop
  endfacet
  facet normal -7.573530e-18 -4.974105e-02 -9.987621e-01
    outer loop
      vertex -2.454788e+02 -2.970976e+01 -5.409786e+02
      vertex -3.154788e+02 -2.970976e+01 -5.409786e+02
      vertex -1.133735e+02 -2.839539e+01 -5.410441e+02
    endloop
  endfacet
  facet normal -1.000000e+00 0.000000e+00 0.000000e+00
    outer loop
      vertex -3.154788e+02 -2.692250e+01 -5.447219e+02
      vertex -3.154788e+02 -2.852700e+01 -5.436868e+02
      vertex -3.154788e+02 -2.839539e+01 -5.410441e+02
    endloop
  endfacet
  facet normal -1.267256e-16 -9.987621e-01 4.974105e-02
    outer loop
      vertex -1.194788e+02 -2.852700e+01 -5.436868e+02
      vertex -3.154788e+02 -2.839539e+01 -5.410441e+02
      vertex -3.154788e+02 -2.852700e+01 -5.436868e+02
    endloop
  endfacet
  facet normal -1.000000e+00 0.000000e+00 0.000000e+00
    outer loop
      vertex -3.154788e+02 -2.669867e+01 -5.402275e+02
      vertex -3.154788e+02 -2.692250e+01 -5.447219e+02
      vertex -3.154788e+02 -2.839539e+01 -5.410441e+02
    endloop
  endfacet
  facet normal -1.228595e-16 -9.987621e-01 4.974105e-02
    outer loop
      vertex -1.151735e+02 -2.852471e+01 -5.436409e+02
      vertex -1.133735e+02 -2.839539e+01 -5.410441e+02
      vertex -3.154788e+02 -2.839539e+01 -5.410441e+02
    endloop
  endfacet
  facet normal 5.172582e-16 -9.987621e-01 4.974105e-02
    outer loop
      vertex -1.151735e+02 -2.852471e+01 -5.436409e+02
      vertex -3.154788e+02 -2.839539e+01 -5.410441e+02
      vertex -1.194788e+02 -2.852700e+01 -5.436868e+02
    endloop
  endfacet
  facet normal -1.000000e+00 0.000000e+00 0.000000e+00
    outer loop
      vertex -3.154788e+02 -2.692250e+01 -5.447219e+02
      vertex -3.154788e+02 -2.993083e+01 -5.436169e+02
      vertex -3.154788e+02 -2.852700e+01 -5.436868e+02
    endloop
  endfacet
  facet normal 6.311275e-18 4.974105e-02 9.987621e-01
    outer loop
      vertex -1.194788e+02 -2.993083e+01 -5.436169e+02
      vertex -3.154788e+02 -2.852700e+01 -5.436868e+02
      vertex -3.154788e+02 -2.993083e+01 -5.436169e+02
    endloop
  endfacet
  facet normal 6.296830e-18 4.974105e-02 9.987621e-01
    outer loop
      vertex -1.194788e+02 -2.993083e+01 -5.436169e+02
      vertex -1.194788e+02 -2.852700e+01 -5.436868e+02
      vertex -3.154788e+02 -2.852700e+01 -5.436868e+02
    endloop
  endfacet
  facet normal -1.000000e+00 0.000000e+00 0.000000e+00
    outer loop
      vertex -3.154788e+02 -2.692250e+01 -5.447219e+02
      vertex -3.154788e+02 -2.998300e+01 -5.445695e+02
      vertex -3.154788e+02 -2.993083e+01 -5.436169e+02
    endloop
  endfacet
  facet normal -1.266928e-16 -9.985035e-01 5.468753e-02
    outer loop
      vertex -1.194788e+02 -2.998300e+01 -5.445695e+02
      vertex -3.154788e+02 -2.993083e+01 -5.436169e+02
      vertex -3.154788e+02 -2.998300e+01 -5.445695e+02
    endloop
  endfacet
  facet normal -1.266905e-16 -9.985035e-01 5.468753e-02
    outer loop
      vertex -1.194788e+02 -2.998300e+01 -5.445695e+02
      vertex -1.194788e+02 -2.993083e+01 -5.436169e+02
      vertex -3.154788e+02 -2.993083e+01 -5.436169e+02
    endloop
  endfacet
  facet normal -6.269524e-18 -4.974105e-02 -9.987621e-01
    outer loop
      vertex -1.181735e+02 -2.692250e+01 -5.447219e+02
      vertex -3.154788e+02 -2.998300e+01 -5.445695e+02
      vertex -3.154788e+02 -2.692250e+01 -5.447219e+02
    endloop
  endfacet
  facet normal -2.591780e-16 -4.974105e-02 -9.987621e-01
    outer loop
      vertex -1.194788e+02 -2.857445e+01 -5.446396e+02
      vertex -3.154788e+02 -2.998300e+01 -5.445695e+02
      vertex -1.181735e+02 -2.692250e+01 -5.447219e+02
    endloop
  endfacet
  facet normal -6.311275e-18 -4.974105e-02 -9.987621e-01
    outer loop
      vertex -1.194788e+02 -2.998300e+01 -5.445695e+02
      vertex -3.154788e+02 -2.998300e+01 -5.445695e+02
      vertex -1.194788e+02 -2.857445e+01 -5.446396e+02
    endloop
  endfacet
  facet normal 1.419326e-16 9.987621e-01 -4.974105e-02
    outer loop
      vertex -2.904788e+02 -2.669867e+01 -5.402275e+02
      vertex -3.154788e+02 -2.692250e+01 -5.447219e+02
      vertex -3.154788e+02 -2.669867e+01 -5.402275e+02
    endloop
  endfacet
  facet normal 1.259567e-16 9.987621e-01 -4.974105e-02
    outer loop
      vertex -2.504788e+02 -2.666385e+01 -5.395283e+02
      vertex -1.181735e+02 -2.692250e+01 -5.447219e+02
      vertex -3.154788e+02 -2.692250e+01 -5.447219e+02
    endloop
  endfacet
  facet normal 1.446706e-16 9.987621e-01 -4.974105e-02
    outer loop
      vertex -2.904788e+02 -2.669867e+01 -5.402275e+02
      vertex -2.504788e+02 -2.666385e+01 -5.395283e+02
      vertex -3.154788e+02 -2.692250e+01 -5.447219e+02
    endloop
  endfacet
  facet normal 7.476249e-18 4.974105e-02 9.987621e-01
    outer loop
      vertex -2.904788e+02 -2.966499e+01 -5.400797e+02
      vertex -2.904788e+02 -2.669867e+01 -5.402275e+02
      vertex -3.154788e+02 -2.669867e+01 -5.402275e+02
    endloop
  endfacet
  facet normal 0.000000e+00 9.987621e-01 -4.974105e-02
    outer loop
      vertex -2.284738e+02 -2.537190e+01 -5.135871e+02
      vertex -2.199330e+02 -2.536264e+01 -5.134011e+02
      vertex -2.203520e+02 -2.537190e+01 -5.135871e+02
    endloop
  endfacet
  facet normal 4.061771e-01 -4.771327e-02 -9.125479e-01
    outer loop
      vertex -2.203520e+02 -2.827779e+01 -5.134352e+02
      vertex -2.203520e+02 -2.537190e+01 -5.135871e+02
      vertex -2.199330e+02 -2.536264e+01 -5.134011e+02
    endloop
  endfacet
  facet normal 0.000000e+00 -5.221445e-02 -9.986359e-01
    outer loop
      vertex -2.284738e+02 -2.827779e+01 -5.134352e+02
      vertex -2.284738e+02 -2.537190e+01 -5.135871e+02
      vertex -2.203520e+02 -2.537190e+01 -5.135871e+02
    endloop
  endfacet
  facet normal -2.284017e-17 -5.221445e-02 -9.986359e-01
    outer loop
      vertex -2.284738e+02 -2.827779e+01 -5.134352e+02
      vertex -2.203520e+02 -2.537190e+01 -5.135871e+02
      vertex -2.203520e+02 -2.827779e+01 -5.134352e+02
    endloop
  endfacet
  facet normal -1.546441e-16 9.987621e-01 -4.974105e-02
    outer loop
      vertex -2.284738e+02 -2.537190e+01 -5.135871e+02
      vertex -2.194788e+02 -2.535947e+01 -5.133374e+02
      vertex -2.199330e+02 -2.536264e+01 -5.134011e+02
    endloop
  endfacet
  facet normal 1.390011e-01 -5.170757e-02 -9.889414e-01
    outer loop
      vertex -2.199330e+02 -2.826761e+01 -5.132492e+02
      vertex -2.199330e+02 -2.536264e+01 -5.134011e+02
      vertex -2.194788e+02 -2.535947e+01 -5.133374e+02
    endloop
  endfacet
  facet normal 4.061771e-01 -4.771327e-02 -9.125479e-01
    outer loop
      vertex -2.199330e+02 -2.826761e+01 -5.132492e+02
      vertex -2.203520e+02 -2.827779e+01 -5.134352e+02
      vertex -2.199330e+02 -2.536264e+01 -5.134011e+02
    endloop
  endfacet
  facet normal 1.157379e-16 9.987621e-01 -4.974105e-02
    outer loop
      vertex -1.116912e+02 -2.523111e+01 -5.107600e+02
      vertex -1.274788e+02 -2.535947e+01 -5.133374e+02
      vertex -2.194788e+02 -2.535947e+01 -5.133374e+02
    endloop
  endfacet
  facet normal -6.223388e-18 -5.221445e-02 -9.986359e-01
    outer loop
      vertex -2.194788e+02 -2.826412e+01 -5.131855e+02
      vertex -2.194788e+02 -2.535947e+01 -5.133374e+02
      vertex -1.274788e+02 -2.535947e+01 -5.133374e+02
    endloop
  endfacet
  facet normal -1.795672e-16 9.987621e-01 -4.974105e-02
    outer loop
      vertex -2.284738e+02 -2.537190e+01 -5.135871e+02
      vertex -2.284738e+02 -2.531234e+01 -5.123911e+02
      vertex -2.194788e+02 -2.535947e+01 -5.133374e+02
    endloop
  endfacet
  facet normal 3.875191e-17 9.987621e-01 -4.974105e-02
    outer loop
      vertex -1.116912e+02 -2.523111e+01 -5.107600e+02
      vertex -2.194788e+02 -2.535947e+01 -5.133374e+02
      vertex -2.284738e+02 -2.531234e+01 -5.123911e+02
    endloop
  endfacet
  facet normal 1.390011e-01 -5.170757e-02 -9.889414e-01
    outer loop
      vertex -2.199330e+02 -2.826761e+01 -5.132492e+02
      vertex -2.194788e+02 -2.535947e+01 -5.133374e+02
      vertex -2.194788e+02 -2.826412e+01 -5.131855e+02
    endloop
  endfacet
  facet normal 3.454438e-16 9.987621e-01 -4.974105e-02
    outer loop
      vertex -1.116912e+02 -2.523111e+01 -5.107600e+02
      vertex -1.260498e+02 -2.540051e+01 -5.141614e+02
      vertex -1.274788e+02 -2.535947e+01 -5.133374e+02
    endloop
  endfacet
  facet normal -4.999996e-01 -4.521905e-02 -8.648443e-01
    outer loop
      vertex -1.274788e+02 -2.826412e+01 -5.131855e+02
      vertex -1.274788e+02 -2.535947e+01 -5.133374e+02
      vertex -1.260498e+02 -2.540051e+01 -5.141614e+02
    endloop
  endfacet
  facet normal -6.049011e-18 -5.221445e-02 -9.986359e-01
    outer loop
      vertex -2.194788e+02 -2.826412e+01 -5.131855e+02
      vertex -1.274788e+02 -2.535947e+01 -5.133374e+02
      vertex -1.274788e+02 -2.826412e+01 -5.131855e+02
    endloop
  endfacet
  facet normal 3.936324e-16 9.987621e-01 -4.974105e-02
    outer loop
      vertex -1.116912e+02 -2.523111e+01 -5.107600e+02
      vertex -1.260498e+02 -2.548258e+01 -5.158093e+02
      vertex -1.260498e+02 -2.540051e+01 -5.141614e+02
    endloop
  endfacet
  facet normal -1.000000e+00 -4.217320e-11 -8.065904e-10
    outer loop
      vertex -1.260498e+02 -2.830924e+01 -5.140093e+02
      vertex -1.260498e+02 -2.540051e+01 -5.141614e+02
      vertex -1.260498e+02 -2.548258e+01 -5.158093e+02
    endloop
  endfacet
  facet normal -4.999996e-01 -4.521905e-02 -8.648443e-01
    outer loop
      vertex -1.274788e+02 -2.826412e+01 -5.131855e+02
      vertex -1.260498e+02 -2.540051e+01 -5.141614e+02
      vertex -1.260498e+02 -2.830924e+01 -5.140093e+02
    endloop
  endfacet
  facet normal 3.265942e-15 9.987621e-01 -4.974105e-02
    outer loop
      vertex -1.181735e+02 -2.692250e+01 -5.447219e+02
      vertex -1.274788e+02 -2.552361e+01 -5.166333e+02
      vertex -1.260498e+02 -2.548258e+01 -5.158093e+02
    endloop
  endfacet
  facet normal -4.999996e-01 4.521905e-02 8.648443e-01
    outer loop
      vertex -1.260498e+02 -2.839947e+01 -5.156568e+02
      vertex -1.260498e+02 -2.548258e+01 -5.158093e+02
      vertex -1.274788e+02 -2.552361e+01 -5.166333e+02
    endloop
  endfacet
  facet normal -1.637992e-16 9.987621e-01 -4.974105e-02
    outer loop
      vertex -1.116912e+02 -2.523111e+01 -5.107600e+02
      vertex -1.181735e+02 -2.692250e+01 -5.447219e+02
      vertex -1.260498e+02 -2.548258e+01 -5.158093e+02
    endloop
  endfacet
  facet normal -1.000000e+00 -4.217320e-11 -8.065904e-10
    outer loop
      vertex -1.260498e+02 -2.830924e+01 -5.140093e+02
      vertex -1.260498e+02 -2.548258e+01 -5.158093e+02
      vertex -1.260498e+02 -2.839947e+01 -5.156568e+02
    endloop
  endfacet
  facet normal 1.151714e-16 9.987621e-01 -4.974105e-02
    outer loop
      vertex -2.469432e+02 -2.659100e+01 -5.380657e+02
      vertex -2.194788e+02 -2.552361e+01 -5.166333e+02
      vertex -1.274788e+02 -2.552361e+01 -5.166333e+02
    endloop
  endfacet
  facet normal 5.982322e-18 5.221445e-02 9.986359e-01
    outer loop
      vertex -1.274788e+02 -2.844459e+01 -5.164806e+02
      vertex -1.274788e+02 -2.552361e+01 -5.166333e+02
      vertex -2.194788e+02 -2.552361e+01 -5.166333e+02
    endloop
  endfacet
  facet normal 9.964088e-17 9.987621e-01 -4.974105e-02
    outer loop
      vertex -2.504788e+02 -2.666385e+01 -5.395283e+02
      vertex -1.274788e+02 -2.552361e+01 -5.166333e+02
      vertex -1.181735e+02 -2.692250e+01 -5.447219e+02
    endloop
  endfacet
  facet normal 2.868477e-16 9.987621e-01 -4.974105e-02
    outer loop
      vertex -2.504788e+02 -2.666385e+01 -5.395283e+02
      vertex -2.469432e+02 -2.659100e+01 -5.380657e+02
      vertex -1.274788e+02 -2.552361e+01 -5.166333e+02
    endloop
  endfacet
  facet normal -4.999996e-01 4.521905e-02 8.648443e-01
    outer loop
      vertex -1.260498e+02 -2.839947e+01 -5.156568e+02
      vertex -1.274788e+02 -2.552361e+01 -5.166333e+02
      vertex -1.274788e+02 -2.844459e+01 -5.164806e+02
    endloop
  endfacet
  facet normal -3.089915e-16 9.987621e-01 -4.974105e-02
    outer loop
      vertex -2.469432e+02 -2.659100e+01 -5.380657e+02
      vertex -2.199330e+02 -2.552044e+01 -5.165697e+02
      vertex -2.194788e+02 -2.552361e+01 -5.166333e+02
    endloop
  endfacet
  facet normal 1.390011e-01 5.170757e-02 9.889414e-01
    outer loop
      vertex -2.194788e+02 -2.844459e+01 -5.164806e+02
      vertex -2.194788e+02 -2.552361e+01 -5.166333e+02
      vertex -2.199330e+02 -2.552044e+01 -5.165697e+02
    endloop
  endfacet
  facet normal 6.049011e-18 5.221445e-02 9.986359e-01
    outer loop
      vertex -1.274788e+02 -2.844459e+01 -5.164806e+02
      vertex -2.194788e+02 -2.552361e+01 -5.166333e+02
      vertex -2.194788e+02 -2.844459e+01 -5.164806e+02
    endloop
  endfacet
  facet normal 2.275974e-15 9.987621e-01 -4.974105e-02
    outer loop
      vertex -2.469432e+02 -2.659100e+01 -5.380657e+02
      vertex -2.203520e+02 -2.551118e+01 -5.163836e+02
      vertex -2.199330e+02 -2.552044e+01 -5.165697e+02
    endloop
  endfacet
  facet normal 4.061771e-01 4.771327e-02 9.125479e-01
    outer loop
      vertex -2.199330e+02 -2.844110e+01 -5.164169e+02
      vertex -2.199330e+02 -2.552044e+01 -5.165697e+02
      vertex -2.203520e+02 -2.551118e+01 -5.163836e+02
    endloop
  endfacet
  facet normal 1.390011e-01 5.170757e-02 9.889414e-01
    outer loop
      vertex -2.194788e+02 -2.844459e+01 -5.164806e+02
      vertex -2.199330e+02 -2.552044e+01 -5.165697e+02
      vertex -2.199330e+02 -2.844110e+01 -5.164169e+02
    endloop
  endfacet
  facet normal 0.000000e+00 9.987621e-01 -4.974105e-02
    outer loop
      vertex -2.284738e+02 -2.557074e+01 -5.175797e+02
      vertex -2.284738e+02 -2.551118e+01 -5.163836e+02
      vertex -2.203520e+02 -2.551118e+01 -5.163836e+02
    endloop
  endfacet
  facet normal 0.000000e+00 5.221445e-02 9.986359e-01
    outer loop
      vertex -2.203520e+02 -2.843092e+01 -5.162310e+02
      vertex -2.203520e+02 -2.551118e+01 -5.163836e+02
      vertex -2.284738e+02 -2.551118e+01 -5.163836e+02
    endloop
  endfacet
  facet normal -8.296380e-16 9.987621e-01 -4.974105e-02
    outer loop
      vertex -2.292250e+02 -2.563547e+01 -5.188793e+02
      vertex -2.284738e+02 -2.557074e+01 -5.175797e+02
      vertex -2.203520e+02 -2.551118e+01 -5.163836e+02
    endloop
  endfacet
  facet normal -3.378705e-16 9.987621e-01 -4.974105e-02
    outer loop
      vertex -2.469432e+02 -2.659100e+01 -5.380657e+02
      vertex -2.292250e+02 -2.563547e+01 -5.188793e+02
      vertex -2.203520e+02 -2.551118e+01 -5.163836e+02
    endloop
  endfacet
  facet normal 4.061771e-01 4.771327e-02 9.125479e-01
    outer loop
      vertex -2.199330e+02 -2.844110e+01 -5.164169e+02
      vertex -2.203520e+02 -2.551118e+01 -5.163836e+02
      vertex -2.203520e+02 -2.843092e+01 -5.162310e+02
    endloop
  endfacet
  facet normal -1.000000e+00 0.000000e+00 0.000000e+00
    outer loop
      vertex -2.284738e+02 -2.849641e+01 -5.174267e+02
      vertex -2.284738e+02 -2.551118e+01 -5.163836e+02
      vertex -2.284738e+02 -2.557074e+01 -5.175797e+02
    endloop
  endfacet
  facet normal -1.000000e+00 0.000000e+00 0.000000e+00
    outer loop
      vertex -2.284738e+02 -2.843092e+01 -5.162310e+02
      vertex -2.284738e+02 -2.551118e+01 -5.163836e+02
      vertex -2.284738e+02 -2.849641e+01 -5.174267e+02
    endloop
  endfacet
  facet normal 0.000000e+00 5.221445e-02 9.986359e-01
    outer loop
      vertex -2.203520e+02 -2.843092e+01 -5.162310e+02
      vertex -2.284738e+02 -2.551118e+01 -5.163836e+02
      vertex -2.284738e+02 -2.843092e+01 -5.162310e+02
    endloop
  endfacet
  facet normal -8.660252e-01 2.610724e-02 4.993183e-01
    outer loop
      vertex -2.284738e+02 -2.849641e+01 -5.174267e+02
      vertex -2.284738e+02 -2.557074e+01 -5.175797e+02
      vertex -2.292250e+02 -2.563547e+01 -5.188793e+02
    endloop
  endfacet
  facet normal -2.092489e-15 9.987621e-01 -4.974105e-02
    outer loop
      vertex -2.469432e+02 -2.659100e+01 -5.380657e+02
      vertex -2.307275e+02 -2.563547e+01 -5.188793e+02
      vertex -2.292250e+02 -2.563547e+01 -5.188793e+02
    endloop
  endfacet
  facet normal 8.077399e-10 5.221445e-02 9.986359e-01
    outer loop
      vertex -2.292250e+02 -2.856757e+01 -5.187259e+02
      vertex -2.292250e+02 -2.563547e+01 -5.188793e+02
      vertex -2.307275e+02 -2.563547e+01 -5.188793e+02
    endloop
  endfacet
  facet normal -8.660252e-01 2.610724e-02 4.993183e-01
    outer loop
      vertex -2.284738e+02 -2.849641e+01 -5.174267e+02
      vertex -2.292250e+02 -2.563547e+01 -5.188793e+02
      vertex -2.292250e+02 -2.856757e+01 -5.187259e+02
    endloop
  endfacet
  facet normal 6.999100e-16 9.987621e-01 -4.974105e-02
    outer loop
      vertex -2.469432e+02 -2.659100e+01 -5.380657e+02
      vertex -2.314788e+02 -2.557074e+01 -5.175797e+02
      vertex -2.307275e+02 -2.563547e+01 -5.188793e+02
    endloop
  endfacet
  facet normal 8.660252e-01 2.610724e-02 4.993183e-01
    outer loop
      vertex -2.307275e+02 -2.856757e+01 -5.187259e+02
      vertex -2.307275e+02 -2.563547e+01 -5.188793e+02
      vertex -2.314788e+02 -2.557074e+01 -5.175797e+02
    endloop
  endfacet
  facet normal 8.076462e-10 5.221445e-02 9.986359e-01
    outer loop
      vertex -2.292250e+02 -2.856757e+01 -5.187259e+02
      vertex -2.307275e+02 -2.563547e+01 -5.188793e+02
      vertex -2.307275e+02 -2.856757e+01 -5.187259e+02
    endloop
  endfacet
  facet normal 8.402180e-16 9.987621e-01 -4.974105e-02
    outer loop
      vertex -2.469432e+02 -2.659100e+01 -5.380657e+02
      vertex -2.314788e+02 -2.531234e+01 -5.123911e+02
      vertex -2.314788e+02 -2.557074e+01 -5.175797e+02
    endloop
  endfacet
  facet normal 1.000000e+00 0.000000e+00 0.000000e+00
    outer loop
      vertex -2.314788e+02 -2.589320e+01 -5.149642e+02
      vertex -2.314788e+02 -2.557074e+01 -5.175797e+02
      vertex -2.314788e+02 -2.531234e+01 -5.123911e+02
    endloop
  endfacet
  facet normal 8.660252e-01 2.610724e-02 4.993183e-01
    outer loop
      vertex -2.307275e+02 -2.856757e+01 -5.187259e+02
      vertex -2.314788e+02 -2.557074e+01 -5.175797e+02
      vertex -2.314788e+02 -2.849641e+01 -5.174267e+02
    endloop
  endfacet
  facet normal 1.000000e+00 0.000000e+00 0.000000e+00
    outer loop
      vertex -2.314788e+02 -2.644323e+01 -5.158069e+02
      vertex -2.314788e+02 -2.849641e+01 -5.174267e+02
      vertex -2.314788e+02 -2.557074e+01 -5.175797e+02
    endloop
  endfacet
  facet normal 1.000000e+00 0.000000e+00 0.000000e+00
    outer loop
      vertex -2.314788e+02 -2.644323e+01 -5.158069e+02
      vertex -2.314788e+02 -2.557074e+01 -5.175797e+02
      vertex -2.314788e+02 -2.589320e+01 -5.149642e+02
    endloop
  endfacet
  facet normal -7.767643e-18 9.987621e-01 -4.974105e-02
    outer loop
      vertex -2.442663e+02 -2.523111e+01 -5.107600e+02
      vertex -2.307275e+02 -2.524762e+01 -5.110915e+02
      vertex -2.314788e+02 -2.531234e+01 -5.123911e+02
    endloop
  endfacet
  facet normal 8.660252e-01 -2.610724e-02 -4.993183e-01
    outer loop
      vertex -2.314788e+02 -2.821230e+01 -5.122394e+02
      vertex -2.314788e+02 -2.531234e+01 -5.123911e+02
      vertex -2.307275e+02 -2.524762e+01 -5.110915e+02
    endloop
  endfacet
  facet normal 5.797978e-17 9.987621e-01 -4.974105e-02
    outer loop
      vertex -2.454788e+02 -2.641514e+01 -5.345345e+02
      vertex -2.442663e+02 -2.523111e+01 -5.107600e+02
      vertex -2.314788e+02 -2.531234e+01 -5.123911e+02
    endloop
  endfacet
  facet normal 6.780406e-16 9.987621e-01 -4.974105e-02
    outer loop
      vertex -2.469432e+02 -2.659100e+01 -5.380657e+02
      vertex -2.454788e+02 -2.641514e+01 -5.345345e+02
      vertex -2.314788e+02 -2.531234e+01 -5.123911e+02
    endloop
  endfacet
  facet normal 1.000000e+00 0.000000e+00 0.000000e+00
    outer loop
      vertex -2.314788e+02 -2.735266e+01 -5.140116e+02
      vertex -2.314788e+02 -2.531234e+01 -5.123911e+02
      vertex -2.314788e+02 -2.821230e+01 -5.122394e+02
    endloop
  endfacet
  facet normal 1.000000e+00 0.000000e+00 0.000000e+00
    outer loop
      vertex -2.314788e+02 -2.634792e+01 -5.140666e+02
      vertex -2.314788e+02 -2.589320e+01 -5.149642e+02
      vertex -2.314788e+02 -2.531234e+01 -5.123911e+02
    endloop
  endfacet
  facet normal 1.000000e+00 0.000000e+00 0.000000e+00
    outer loop
      vertex -2.314788e+02 -2.634792e+01 -5.140666e+02
      vertex -2.314788e+02 -2.531234e+01 -5.123911e+02
      vertex -2.314788e+02 -2.735266e+01 -5.140116e+02
    endloop
  endfacet
  facet normal -2.069813e-16 9.987621e-01 -4.974105e-02
    outer loop
      vertex -1.116912e+02 -2.523111e+01 -5.107600e+02
      vertex -2.292250e+02 -2.524762e+01 -5.110915e+02
      vertex -2.307275e+02 -2.524762e+01 -5.110915e+02
    endloop
  endfacet
  facet normal -8.077021e-10 -5.221445e-02 -9.986359e-01
    outer loop
      vertex -2.307275e+02 -2.814114e+01 -5.109402e+02
      vertex -2.307275e+02 -2.524762e+01 -5.110915e+02
      vertex -2.292250e+02 -2.524762e+01 -5.110915e+02
    endloop
  endfacet
  facet normal 1.070583e-16 9.987621e-01 -4.974105e-02
    outer loop
      vertex -2.442663e+02 -2.523111e+01 -5.107600e+02
      vertex -1.116912e+02 -2.523111e+01 -5.107600e+02
      vertex -2.307275e+02 -2.524762e+01 -5.110915e+02
    endloop
  endfacet
  facet normal 8.660252e-01 -2.610724e-02 -4.993183e-01
    outer loop
      vertex -2.314788e+02 -2.821230e+01 -5.122394e+02
      vertex -2.307275e+02 -2.524762e+01 -5.110915e+02
      vertex -2.307275e+02 -2.814114e+01 -5.109402e+02
    endloop
  endfacet
  facet normal 1.324723e-16 9.987621e-01 -4.974105e-02
    outer loop
      vertex -1.116912e+02 -2.523111e+01 -5.107600e+02
      vertex -2.284738e+02 -2.531234e+01 -5.123911e+02
      vertex -2.292250e+02 -2.524762e+01 -5.110915e+02
    endloop
  endfacet
  facet normal -8.660252e-01 -2.610724e-02 -4.993183e-01
    outer loop
      vertex -2.292250e+02 -2.814114e+01 -5.109402e+02
      vertex -2.292250e+02 -2.524762e+01 -5.110915e+02
      vertex -2.284738e+02 -2.531234e+01 -5.123911e+02
    endloop
  endfacet
  facet normal -8.076841e-10 -5.221445e-02 -9.986359e-01
    outer loop
      vertex -2.307275e+02 -2.814114e+01 -5.109402e+02
      vertex -2.292250e+02 -2.524762e+01 -5.110915e+02
      vertex -2.292250e+02 -2.814114e+01 -5.109402e+02
    endloop
  endfacet
  facet normal -1.000000e+00 0.000000e+00 0.000000e+00
    outer loop
      vertex -2.284738e+02 -2.827779e+01 -5.134352e+02
      vertex -2.284738e+02 -2.531234e+01 -5.123911e+02
      vertex -2.284738e+02 -2.537190e+01 -5.135871e+02
    endloop
  endfacet
  facet normal -1.000000e+00 0.000000e+00 0.000000e+00
    outer loop
      vertex -2.284738e+02 -2.821230e+01 -5.122394e+02
      vertex -2.284738e+02 -2.531234e+01 -5.123911e+02
      vertex -2.284738e+02 -2.827779e+01 -5.134352e+02
    endloop
  endfacet
  facet normal -8.660252e-01 -2.610724e-02 -4.993183e-01
    outer loop
      vertex -2.292250e+02 -2.814114e+01 -5.109402e+02
      vertex -2.284738e+02 -2.531234e+01 -5.123911e+02
      vertex -2.284738e+02 -2.821230e+01 -5.122394e+02
    endloop
  endfacet
  facet normal 1.406549e-15 9.987621e-01 -4.974105e-02
    outer loop
      vertex -1.116912e+02 -2.523111e+01 -5.107600e+02
      vertex -1.149830e+02 -2.686529e+01 -5.435731e+02
      vertex -1.181735e+02 -2.692250e+01 -5.447219e+02
    endloop
  endfacet
  facet normal 3.391505e-01 -4.679300e-02 -9.395677e-01
    outer loop
      vertex -1.181735e+02 -2.857445e+01 -5.446396e+02
      vertex -1.181735e+02 -2.692250e+01 -5.447219e+02
      vertex -1.149830e+02 -2.686529e+01 -5.435731e+02
    endloop
  endfacet
  facet normal 0.000000e+00 -4.974105e-02 -9.987621e-01
    outer loop
      vertex -1.194788e+02 -2.857445e+01 -5.446396e+02
      vertex -1.181735e+02 -2.692250e+01 -5.447219e+02
      vertex -1.181735e+02 -2.857445e+01 -5.446396e+02
    endloop
  endfacet
  facet normal -6.050256e-16 9.987621e-01 -4.974105e-02
    outer loop
      vertex -1.116912e+02 -2.523111e+01 -5.107600e+02
      vertex -1.132605e+02 -2.671997e+01 -5.406552e+02
      vertex -1.149830e+02 -2.686529e+01 -5.435731e+02
    endloop
  endfacet
  facet normal 8.582457e-01 6.037070e-02 -5.096761e-01
    outer loop
      vertex -1.133735e+02 -2.839539e+01 -5.410441e+02
      vertex -1.149830e+02 -2.686529e+01 -5.435731e+02
      vertex -1.132605e+02 -2.671997e+01 -5.406552e+02
    endloop
  endfacet
  facet normal 8.214339e-01 -7.118705e-02 -5.658434e-01
    outer loop
      vertex -1.151735e+02 -2.852471e+01 -5.436409e+02
      vertex -1.149830e+02 -2.686529e+01 -5.435731e+02
      vertex -1.133735e+02 -2.839539e+01 -5.410441e+02
    endloop
  endfacet
  facet normal 3.158364e-01 2.494960e-03 -9.488104e-01
    outer loop
      vertex -1.151735e+02 -2.852471e+01 -5.436409e+02
      vertex -1.181735e+02 -2.857445e+01 -5.446396e+02
      vertex -1.149830e+02 -2.686529e+01 -5.435731e+02
    endloop
  endfacet
  facet normal -2.318488e-16 9.987621e-01 -4.974105e-02
    outer loop
      vertex -1.113767e+02 -2.530006e+01 -5.121444e+02
      vertex -1.112857e+02 -2.604070e+01 -5.270160e+02
      vertex -1.132605e+02 -2.671997e+01 -5.406552e+02
    endloop
  endfacet
  facet normal 9.897060e-01 -7.118721e-03 -1.429385e-01
    outer loop
      vertex -1.132605e+02 -2.976033e+01 -5.405038e+02
      vertex -1.132605e+02 -2.671997e+01 -5.406552e+02
      vertex -1.112857e+02 -2.604070e+01 -5.270160e+02
    endloop
  endfacet
  facet normal 6.438418e-15 9.987621e-01 -4.974105e-02
    outer loop
      vertex -1.116912e+02 -2.523111e+01 -5.107600e+02
      vertex -1.113767e+02 -2.530006e+01 -5.121444e+02
      vertex -1.132605e+02 -2.671997e+01 -5.406552e+02
    endloop
  endfacet
  facet normal 9.778209e-01 -1.041791e-02 -2.091837e-01
    outer loop
      vertex -1.133113e+02 -2.977330e+01 -5.407407e+02
      vertex -1.132605e+02 -2.671997e+01 -5.406552e+02
      vertex -1.132605e+02 -2.976033e+01 -5.405038e+02
    endloop
  endfacet
  facet normal 9.664986e-01 -8.904714e-03 -2.565173e-01
    outer loop
      vertex -1.133735e+02 -2.978613e+01 -5.409748e+02
      vertex -1.132605e+02 -2.671997e+01 -5.406552e+02
      vertex -1.133113e+02 -2.977330e+01 -5.407407e+02
    endloop
  endfacet
  facet normal 9.724519e-01 -1.159481e-02 -2.328149e-01
    outer loop
      vertex -1.133735e+02 -2.839539e+01 -5.410441e+02
      vertex -1.132605e+02 -2.671997e+01 -5.406552e+02
      vertex -1.133735e+02 -2.978613e+01 -5.409748e+02
    endloop
  endfacet
  facet normal 8.180493e-16 9.987621e-01 -4.974105e-02
    outer loop
      vertex -1.113767e+02 -2.530006e+01 -5.121444e+02
      vertex -1.104949e+02 -2.535550e+01 -5.132578e+02
      vertex -1.112857e+02 -2.604070e+01 -5.270160e+02
    endloop
  endfacet
  facet normal 9.983537e-01 -5.902922e-04 -5.735417e-02
    outer loop
      vertex -1.112699e+02 -2.900489e+01 -5.267108e+02
      vertex -1.112857e+02 -2.604070e+01 -5.270160e+02
      vertex -1.104949e+02 -2.535550e+01 -5.132578e+02
    endloop
  endfacet
  facet normal 9.897756e-01 -9.383674e-03 -1.423240e-01
    outer loop
      vertex -1.132605e+02 -2.976033e+01 -5.405038e+02
      vertex -1.112857e+02 -2.604070e+01 -5.270160e+02
      vertex -1.112699e+02 -2.900489e+01 -5.267108e+02
    endloop
  endfacet
  facet normal 4.075041e-01 8.693938e-01 2.794545e-01
    outer loop
      vertex -1.104811e+02 -2.582211e+01 -5.118263e+02
      vertex -1.104949e+02 -2.535550e+01 -5.132578e+02
      vertex -1.113767e+02 -2.530006e+01 -5.121444e+02
    endloop
  endfacet
  facet normal 9.984306e-01 -7.399651e-03 -5.551143e-02
    outer loop
      vertex -1.112699e+02 -2.900489e+01 -5.267108e+02
      vertex -1.104949e+02 -2.535550e+01 -5.132578e+02
      vertex -1.104908e+02 -2.824288e+01 -5.127978e+02
    endloop
  endfacet
  facet normal 9.999532e-01 -9.499887e-05 -9.676226e-03
    outer loop
      vertex -1.104811e+02 -2.582211e+01 -5.118263e+02
      vertex -1.104908e+02 -2.824288e+01 -5.127978e+02
      vertex -1.104949e+02 -2.535550e+01 -5.132578e+02
    endloop
  endfacet
  facet normal 4.846912e-01 8.721416e-01 6.665894e-02
    outer loop
      vertex -1.104811e+02 -2.582211e+01 -5.118263e+02
      vertex -1.113767e+02 -2.530006e+01 -5.121444e+02
      vertex -1.116912e+02 -2.523111e+01 -5.107600e+02
    endloop
  endfacet
  facet normal 5.332070e-18 4.974105e-02 9.987621e-01
    outer loop
      vertex -1.109984e+02 -2.563061e+01 -5.107401e+02
      vertex -1.116912e+02 -2.523111e+01 -5.107600e+02
      vertex -2.442663e+02 -2.523111e+01 -5.107600e+02
    endloop
  endfacet
  facet normal 4.959705e-01 8.642850e-01 8.381382e-02
    outer loop
      vertex -1.104811e+02 -2.582211e+01 -5.118263e+02
      vertex -1.116912e+02 -2.523111e+01 -5.107600e+02
      vertex -1.109984e+02 -2.563061e+01 -5.107401e+02
    endloop
  endfacet
  facet normal -2.408479e-15 9.987621e-01 -4.974105e-02
    outer loop
      vertex -2.454788e+02 -2.641514e+01 -5.345345e+02
      vertex -2.445853e+02 -2.530052e+01 -5.121538e+02
      vertex -2.442663e+02 -2.523111e+01 -5.107600e+02
    endloop
  endfacet
  facet normal -4.967668e-01 8.650078e-01 7.059976e-02
    outer loop
      vertex -2.449592e+02 -2.563061e+01 -5.107401e+02
      vertex -2.442663e+02 -2.523111e+01 -5.107600e+02
      vertex -2.445853e+02 -2.530052e+01 -5.121538e+02
    endloop
  endfacet
  facet normal 5.276641e-18 4.974105e-02 9.987621e-01
    outer loop
      vertex -1.109984e+02 -2.563061e+01 -5.107401e+02
      vertex -2.442663e+02 -2.523111e+01 -5.107600e+02
      vertex -2.449592e+02 -2.563061e+01 -5.107401e+02
    endloop
  endfacet
  facet normal 1.867650e-16 9.987621e-01 -4.974105e-02
    outer loop
      vertex -2.454788e+02 -2.641514e+01 -5.345345e+02
      vertex -2.454788e+02 -2.535615e+01 -5.132708e+02
      vertex -2.445853e+02 -2.530052e+01 -5.121538e+02
    endloop
  endfacet
  facet normal -4.074763e-01 8.683611e-01 2.826871e-01
    outer loop
      vertex -2.454788e+02 -2.581614e+01 -5.118578e+02
      vertex -2.445853e+02 -2.530052e+01 -5.121538e+02
      vertex -2.454788e+02 -2.535615e+01 -5.132708e+02
    endloop
  endfacet
  facet normal -4.967668e-01 8.650078e-01 7.059976e-02
    outer loop
      vertex -2.454788e+02 -2.593024e+01 -5.107252e+02
      vertex -2.449592e+02 -2.563061e+01 -5.107401e+02
      vertex -2.445853e+02 -2.530052e+01 -5.121538e+02
    endloop
  endfacet
  facet normal -4.758177e-01 8.751147e-01 8.815697e-02
    outer loop
      vertex -2.454788e+02 -2.593024e+01 -5.107252e+02
      vertex -2.445853e+02 -2.530052e+01 -5.121538e+02
      vertex -2.454788e+02 -2.581614e+01 -5.118578e+02
    endloop
  endfacet
  facet normal -1.000000e+00 0.000000e+00 0.000000e+00
    outer loop
      vertex -2.454788e+02 -2.589320e+01 -5.149642e+02
      vertex -2.454788e+02 -2.535615e+01 -5.132708e+02
      vertex -2.454788e+02 -2.641514e+01 -5.345345e+02
    endloop
  endfacet
  facet normal -1.000000e+00 0.000000e+00 0.000000e+00
    outer loop
      vertex -2.454788e+02 -2.735266e+01 -5.140116e+02
      vertex -2.454788e+02 -2.824117e+01 -5.127665e+02
      vertex -2.454788e+02 -2.535615e+01 -5.132708e+02
    endloop
  endfacet
  facet normal -1.000000e+00 0.000000e+00 0.000000e+00
    outer loop
      vertex -2.454788e+02 -2.581614e+01 -5.118578e+02
      vertex -2.454788e+02 -2.535615e+01 -5.132708e+02
      vertex -2.454788e+02 -2.824117e+01 -5.127665e+02
    endloop
  endfacet
  facet normal -1.000000e+00 0.000000e+00 0.000000e+00
    outer loop
      vertex -2.454788e+02 -2.634792e+01 -5.140666e+02
      vertex -2.454788e+02 -2.535615e+01 -5.132708e+02
      vertex -2.454788e+02 -2.589320e+01 -5.149642e+02
    endloop
  endfacet
  facet normal -1.000000e+00 0.000000e+00 0.000000e+00
    outer loop
      vertex -2.454788e+02 -2.634792e+01 -5.140666e+02
      vertex -2.454788e+02 -2.735266e+01 -5.140116e+02
      vertex -2.454788e+02 -2.535615e+01 -5.132708e+02
    endloop
  endfacet
  facet normal -9.238795e-01 1.903508e-02 3.822097e-01
    outer loop
      vertex -2.454788e+02 -2.938147e+01 -5.343868e+02
      vertex -2.454788e+02 -2.641514e+01 -5.345345e+02
      vertex -2.469432e+02 -2.659100e+01 -5.380657e+02
    endloop
  endfacet
  facet normal -1.000000e+00 0.000000e+00 0.000000e+00
    outer loop
      vertex -2.454788e+02 -2.790269e+01 -5.148542e+02
      vertex -2.454788e+02 -2.641514e+01 -5.345345e+02
      vertex -2.454788e+02 -2.824117e+01 -5.127665e+02
    endloop
  endfacet
  facet normal -1.000000e+00 0.000000e+00 0.000000e+00
    outer loop
      vertex -2.454788e+02 -2.938147e+01 -5.343868e+02
      vertex -2.454788e+02 -2.824117e+01 -5.127665e+02
      vertex -2.454788e+02 -2.641514e+01 -5.345345e+02
    endloop
  endfacet
  facet normal -1.000000e+00 0.000000e+00 0.000000e+00
    outer loop
      vertex -2.454788e+02 -2.644323e+01 -5.158069e+02
      vertex -2.454788e+02 -2.589320e+01 -5.149642e+02
      vertex -2.454788e+02 -2.641514e+01 -5.345345e+02
    endloop
  endfacet
  facet normal -1.000000e+00 0.000000e+00 0.000000e+00
    outer loop
      vertex -2.454788e+02 -2.744798e+01 -5.157518e+02
      vertex -2.454788e+02 -2.644323e+01 -5.158069e+02
      vertex -2.454788e+02 -2.641514e+01 -5.345345e+02
    endloop
  endfacet
  facet normal -1.000000e+00 0.000000e+00 0.000000e+00
    outer loop
      vertex -2.454788e+02 -2.790269e+01 -5.148542e+02
      vertex -2.454788e+02 -2.744798e+01 -5.157518e+02
      vertex -2.454788e+02 -2.641514e+01 -5.345345e+02
    endloop
  endfacet
  facet normal -3.826834e-01 4.595474e-02 9.227359e-01
    outer loop
      vertex -2.469432e+02 -2.955733e+01 -5.379180e+02
      vertex -2.469432e+02 -2.659100e+01 -5.380657e+02
      vertex -2.504788e+02 -2.666385e+01 -5.395283e+02
    endloop
  endfacet
  facet normal -9.238795e-01 1.903508e-02 3.822097e-01
    outer loop
      vertex -2.469432e+02 -2.955733e+01 -5.379180e+02
      vertex -2.454788e+02 -2.938147e+01 -5.343868e+02
      vertex -2.469432e+02 -2.659100e+01 -5.380657e+02
    endloop
  endfacet
  facet normal 9.265261e-17 9.987621e-01 -4.974105e-02
    outer loop
      vertex -2.895623e+02 -2.668962e+01 -5.400458e+02
      vertex -2.887847e+02 -2.666385e+01 -5.395283e+02
      vertex -2.504788e+02 -2.666385e+01 -5.395283e+02
    endloop
  endfacet
  facet normal 4.879308e-18 4.974105e-02 9.987621e-01
    outer loop
      vertex -2.504788e+02 -2.963017e+01 -5.393806e+02
      vertex -2.504788e+02 -2.666385e+01 -5.395283e+02
      vertex -2.887847e+02 -2.666385e+01 -5.395283e+02
    endloop
  endfacet
  facet normal 2.012020e-16 9.987621e-01 -4.974105e-02
    outer loop
      vertex -2.904788e+02 -2.669867e+01 -5.402275e+02
      vertex -2.895623e+02 -2.668962e+01 -5.400458e+02
      vertex -2.504788e+02 -2.666385e+01 -5.395283e+02
    endloop
  endfacet
  facet normal -3.826834e-01 4.595474e-02 9.227359e-01
    outer loop
      vertex -2.469432e+02 -2.955733e+01 -5.379180e+02
      vertex -2.504788e+02 -2.666385e+01 -5.395283e+02
      vertex -2.504788e+02 -2.963017e+01 -5.393806e+02
    endloop
  endfacet
  facet normal -5.544794e-01 4.139438e-02 8.311673e-01
    outer loop
      vertex -2.887847e+02 -2.963017e+01 -5.393806e+02
      vertex -2.887847e+02 -2.666385e+01 -5.395283e+02
      vertex -2.895623e+02 -2.668962e+01 -5.400458e+02
    endloop
  endfacet
  facet normal 4.613277e-18 4.974105e-02 9.987621e-01
    outer loop
      vertex -2.504788e+02 -2.963017e+01 -5.393806e+02
      vertex -2.887847e+02 -2.666385e+01 -5.395283e+02
      vertex -2.887847e+02 -2.963017e+01 -5.393806e+02
    endloop
  endfacet
  facet normal -1.946737e-01 4.878941e-02 9.796539e-01
    outer loop
      vertex -2.895623e+02 -2.965594e+01 -5.398981e+02
      vertex -2.895623e+02 -2.668962e+01 -5.400458e+02
      vertex -2.904788e+02 -2.669867e+01 -5.402275e+02
    endloop
  endfacet
  facet normal -5.544794e-01 4.139438e-02 8.311673e-01
    outer loop
      vertex -2.895623e+02 -2.965594e+01 -5.398981e+02
      vertex -2.887847e+02 -2.963017e+01 -5.393806e+02
      vertex -2.895623e+02 -2.668962e+01 -5.400458e+02
    endloop
  endfacet
  facet normal -1.946737e-01 4.878941e-02 9.796539e-01
    outer loop
      vertex -2.895623e+02 -2.965594e+01 -5.398981e+02
      vertex -2.904788e+02 -2.669867e+01 -5.402275e+02
      vertex -2.904788e+02 -2.966499e+01 -5.400797e+02
    endloop
  endfacet
  facet normal 1.364951e-16 9.987621e-01 -4.974105e-02
    outer loop
      vertex -2.449592e+02 -2.563061e+01 -5.107401e+02
      vertex -2.449592e+02 -2.405188e+01 -4.790405e+02
      vertex -1.137479e+02 -2.405188e+01 -4.790405e+02
    endloop
  endfacet
  facet normal 7.410495e-18 5.468753e-02 9.985035e-01
    outer loop
      vertex -1.137504e+02 -2.523473e+01 -4.789757e+02
      vertex -1.137479e+02 -2.405188e+01 -4.790405e+02
      vertex -2.449592e+02 -2.405188e+01 -4.790405e+02
    endloop
  endfacet
  facet normal -3.719222e-15 9.987621e-01 -4.974105e-02
    outer loop
      vertex -1.136757e+02 -2.406158e+01 -4.792351e+02
      vertex -2.449592e+02 -2.563061e+01 -5.107401e+02
      vertex -1.137479e+02 -2.405188e+01 -4.790405e+02
    endloop
  endfacet
  facet normal 9.377400e-01 6.168027e-03 3.472833e-01
    outer loop
      vertex -1.136242e+02 -2.600980e+01 -4.793397e+02
      vertex -1.136757e+02 -2.406158e+01 -4.792351e+02
      vertex -1.137479e+02 -2.405188e+01 -4.790405e+02
    endloop
  endfacet
  facet normal 9.537936e-01 1.439126e-02 3.001179e-01
    outer loop
      vertex -1.136242e+02 -2.600980e+01 -4.793397e+02
      vertex -1.137479e+02 -2.405188e+01 -4.790405e+02
      vertex -1.137504e+02 -2.523473e+01 -4.789757e+02
    endloop
  endfacet
  facet normal -5.000000e-01 8.649534e-01 -4.307701e-02
    outer loop
      vertex -2.454788e+02 -2.435144e+01 -4.790241e+02
      vertex -2.449592e+02 -2.405188e+01 -4.790405e+02
      vertex -2.449592e+02 -2.563061e+01 -5.107401e+02
    endloop
  endfacet
  facet normal 7.394059e-18 5.468753e-02 9.985035e-01
    outer loop
      vertex -2.451324e+02 -2.523473e+01 -4.789757e+02
      vertex -1.137504e+02 -2.523473e+01 -4.789757e+02
      vertex -2.449592e+02 -2.405188e+01 -4.790405e+02
    endloop
  endfacet
  facet normal -8.368498e-14 5.468753e-02 9.985035e-01
    outer loop
      vertex -2.454788e+02 -2.435144e+01 -4.790241e+02
      vertex -2.451324e+02 -2.523473e+01 -4.789757e+02
      vertex -2.449592e+02 -2.405188e+01 -4.790405e+02
    endloop
  endfacet
  facet normal 1.058110e-16 9.987621e-01 -4.974105e-02
    outer loop
      vertex -1.109984e+02 -2.500102e+01 -4.980984e+02
      vertex -1.109984e+02 -2.563061e+01 -5.107401e+02
      vertex -2.449592e+02 -2.563061e+01 -5.107401e+02
    endloop
  endfacet
  facet normal 1.258923e-16 9.987621e-01 -4.974105e-02
    outer loop
      vertex -1.120357e+02 -2.453436e+01 -4.887283e+02
      vertex -1.109984e+02 -2.500102e+01 -4.980984e+02
      vertex -2.449592e+02 -2.563061e+01 -5.107401e+02
    endloop
  endfacet
  facet normal 4.330291e-17 9.987621e-01 -4.974105e-02
    outer loop
      vertex -1.136242e+02 -2.407160e+01 -4.794363e+02
      vertex -1.120357e+02 -2.453436e+01 -4.887283e+02
      vertex -2.449592e+02 -2.563061e+01 -5.107401e+02
    endloop
  endfacet
  facet normal 2.819034e-15 9.987621e-01 -4.974105e-02
    outer loop
      vertex -1.136757e+02 -2.406158e+01 -4.792351e+02
      vertex -1.136242e+02 -2.407160e+01 -4.794363e+02
      vertex -2.449592e+02 -2.563061e+01 -5.107401e+02
    endloop
  endfacet
  facet normal -5.000000e-01 8.649534e-01 -4.307701e-02
    outer loop
      vertex -2.454788e+02 -2.593024e+01 -5.107252e+02
      vertex -2.454788e+02 -2.435144e+01 -4.790241e+02
      vertex -2.449592e+02 -2.563061e+01 -5.107401e+02
    endloop
  endfacet
  facet normal 5.000000e-01 8.649534e-01 -4.307701e-02
    outer loop
      vertex -1.104790e+02 -2.593013e+01 -5.107252e+02
      vertex -1.109984e+02 -2.563061e+01 -5.107401e+02
      vertex -1.109984e+02 -2.500102e+01 -4.980984e+02
    endloop
  endfacet
  facet normal 4.959705e-01 8.642850e-01 8.381382e-02
    outer loop
      vertex -1.104811e+02 -2.582211e+01 -5.118263e+02
      vertex -1.109984e+02 -2.563061e+01 -5.107401e+02
      vertex -1.104790e+02 -2.593013e+01 -5.107252e+02
    endloop
  endfacet
  facet normal 9.935750e-01 3.265651e-02 1.083620e-01
    outer loop
      vertex -1.117050e+02 -2.665504e+01 -4.911206e+02
      vertex -1.109984e+02 -2.500102e+01 -4.980984e+02
      vertex -1.120357e+02 -2.453436e+01 -4.887283e+02
    endloop
  endfacet
  facet normal 9.948108e-01 -4.910900e-02 8.910548e-02
    outer loop
      vertex -1.106720e+02 -2.730635e+01 -5.030125e+02
      vertex -1.109984e+02 -2.500102e+01 -4.980984e+02
      vertex -1.117050e+02 -2.665504e+01 -4.911206e+02
    endloop
  endfacet
  facet normal 9.981157e-01 1.390529e-02 5.976343e-02
    outer loop
      vertex -1.106132e+02 -2.553785e+01 -5.044066e+02
      vertex -1.109984e+02 -2.500102e+01 -4.980984e+02
      vertex -1.106720e+02 -2.730635e+01 -5.030125e+02
    endloop
  endfacet
  facet normal 5.000000e-01 8.649534e-01 -4.307701e-02
    outer loop
      vertex -1.104790e+02 -2.593013e+01 -5.107252e+02
      vertex -1.109984e+02 -2.500102e+01 -4.980984e+02
      vertex -1.106132e+02 -2.553785e+01 -5.044066e+02
    endloop
  endfacet
  facet normal 9.846460e-01 -3.855371e-02 1.702525e-01
    outer loop
      vertex -1.117050e+02 -2.665504e+01 -4.911206e+02
      vertex -1.120357e+02 -2.453436e+01 -4.887283e+02
      vertex -1.136242e+02 -2.407160e+01 -4.794363e+02
    endloop
  endfacet
  facet normal 9.687628e-01 1.233524e-02 2.476821e-01
    outer loop
      vertex -1.136242e+02 -2.600980e+01 -4.793397e+02
      vertex -1.136242e+02 -2.407160e+01 -4.794363e+02
      vertex -1.136757e+02 -2.406158e+01 -4.792351e+02
    endloop
  endfacet
  facet normal 9.870273e-01 7.986042e-03 1.603536e-01
    outer loop
      vertex -1.117050e+02 -2.665504e+01 -4.911206e+02
      vertex -1.136242e+02 -2.407160e+01 -4.794363e+02
      vertex -1.136242e+02 -2.600980e+01 -4.793397e+02
    endloop
  endfacet
  facet normal 1.350521e-16 9.985035e-01 -5.468753e-02
    outer loop
      vertex -1.144880e+02 -2.518685e+01 -4.781014e+02
      vertex -1.137504e+02 -2.523473e+01 -4.789757e+02
      vertex -2.451324e+02 -2.523473e+01 -4.789757e+02
    endloop
  endfacet
  facet normal 7.633423e-01 9.756642e-02 6.385838e-01
    outer loop
      vertex -1.143179e+02 -2.594676e+01 -4.781886e+02
      vertex -1.137504e+02 -2.523473e+01 -4.789757e+02
      vertex -1.144880e+02 -2.518685e+01 -4.781014e+02
    endloop
  endfacet
  facet normal 8.492483e-01 -1.047388e-01 5.175008e-01
    outer loop
      vertex -1.136242e+02 -2.600980e+01 -4.793397e+02
      vertex -1.137504e+02 -2.523473e+01 -4.789757e+02
      vertex -1.143179e+02 -2.594676e+01 -4.781886e+02
    endloop
  endfacet
  facet normal -4.445274e-14 5.468753e-02 9.985035e-01
    outer loop
      vertex -2.454788e+02 -2.435144e+01 -4.790241e+02
      vertex -2.454788e+02 -2.543444e+01 -4.789647e+02
      vertex -2.451324e+02 -2.523473e+01 -4.789757e+02
    endloop
  endfacet
  facet normal -5.000000e-01 8.647294e-01 -4.736079e-02
    outer loop
      vertex -2.454788e+02 -2.539603e+01 -4.782635e+02
      vertex -2.451324e+02 -2.523473e+01 -4.789757e+02
      vertex -2.454788e+02 -2.543444e+01 -4.789647e+02
    endloop
  endfacet
  facet normal 2.385420e-14 9.985035e-01 -5.468753e-02
    outer loop
      vertex -2.450565e+02 -2.516926e+01 -4.777803e+02
      vertex -2.449788e+02 -2.516893e+01 -4.777742e+02
      vertex -2.451324e+02 -2.523473e+01 -4.789757e+02
    endloop
  endfacet
  facet normal 1.096620e-16 9.985035e-01 -5.468753e-02
    outer loop
      vertex -1.155849e+02 -2.516893e+01 -4.777742e+02
      vertex -2.451324e+02 -2.523473e+01 -4.789757e+02
      vertex -2.449788e+02 -2.516893e+01 -4.777742e+02
    endloop
  endfacet
  facet normal -3.515697e-15 9.985035e-01 -5.468753e-02
    outer loop
      vertex -2.451324e+02 -2.517025e+01 -4.777984e+02
      vertex -2.450565e+02 -2.516926e+01 -4.777803e+02
      vertex -2.451324e+02 -2.523473e+01 -4.789757e+02
    endloop
  endfacet
  facet normal -5.000000e-01 8.647294e-01 -4.736079e-02
    outer loop
      vertex -2.453909e+02 -2.532988e+01 -4.779834e+02
      vertex -2.451324e+02 -2.517025e+01 -4.777984e+02
      vertex -2.451324e+02 -2.523473e+01 -4.789757e+02
    endloop
  endfacet
  facet normal 1.684542e-16 9.985035e-01 -5.468753e-02
    outer loop
      vertex -1.155849e+02 -2.516893e+01 -4.777742e+02
      vertex -1.144880e+02 -2.518685e+01 -4.781014e+02
      vertex -2.451324e+02 -2.523473e+01 -4.789757e+02
    endloop
  endfacet
  facet normal -5.000000e-01 8.647294e-01 -4.736079e-02
    outer loop
      vertex -2.453909e+02 -2.532988e+01 -4.779834e+02
      vertex -2.451324e+02 -2.523473e+01 -4.789757e+02
      vertex -2.454788e+02 -2.539603e+01 -4.782635e+02
    endloop
  endfacet
  facet normal -1.000000e+00 0.000000e+00 0.000000e+00
    outer loop
      vertex -2.454788e+02 -2.627131e+01 -4.841144e+02
      vertex -2.454788e+02 -2.543444e+01 -4.789647e+02
      vertex -2.454788e+02 -2.435144e+01 -4.790241e+02
    endloop
  endfacet
  facet normal -1.000000e+00 0.000000e+00 0.000000e+00
    outer loop
      vertex -2.454788e+02 -2.627131e+01 -4.841144e+02
      vertex -2.454788e+02 -2.594935e+01 -4.782360e+02
      vertex -2.454788e+02 -2.543444e+01 -4.789647e+02
    endloop
  endfacet
  facet normal -1.000000e+00 0.000000e+00 0.000000e+00
    outer loop
      vertex -2.454788e+02 -2.539603e+01 -4.782635e+02
      vertex -2.454788e+02 -2.543444e+01 -4.789647e+02
      vertex -2.454788e+02 -2.594935e+01 -4.782360e+02
    endloop
  endfacet
  facet normal -1.000000e+00 0.000000e+00 0.000000e+00
    outer loop
      vertex -2.454788e+02 -2.593024e+01 -5.107252e+02
      vertex -2.454788e+02 -2.627131e+01 -4.841144e+02
      vertex -2.454788e+02 -2.435144e+01 -4.790241e+02
    endloop
  endfacet
  facet normal -7.799524e-02 4.958953e-02 9.957197e-01
    outer loop
      vertex -2.449788e+02 -2.592201e+01 -4.777367e+02
      vertex -2.449788e+02 -2.516893e+01 -4.777742e+02
      vertex -2.450565e+02 -2.516926e+01 -4.777803e+02
    endloop
  endfacet
  facet normal 5.440781e-18 4.974105e-02 9.987621e-01
    outer loop
      vertex -1.155849e+02 -2.592201e+01 -4.777367e+02
      vertex -1.155849e+02 -2.516893e+01 -4.777742e+02
      vertex -2.449788e+02 -2.516893e+01 -4.777742e+02
    endloop
  endfacet
  facet normal 6.828595e-18 4.974105e-02 9.987621e-01
    outer loop
      vertex -1.155849e+02 -2.592201e+01 -4.777367e+02
      vertex -2.449788e+02 -2.516893e+01 -4.777742e+02
      vertex -2.449788e+02 -2.592201e+01 -4.777367e+02
    endloop
  endfacet
  facet normal -2.319716e-01 3.232505e-02 9.721853e-01
    outer loop
      vertex -2.449788e+02 -2.592201e+01 -4.777367e+02
      vertex -2.450565e+02 -2.516926e+01 -4.777803e+02
      vertex -2.451324e+02 -2.517025e+01 -4.777984e+02
    endloop
  endfacet
  facet normal -3.821420e-01 -2.298975e-03 9.241008e-01
    outer loop
      vertex -2.453323e+02 -2.593002e+01 -4.778830e+02
      vertex -2.449788e+02 -2.592201e+01 -4.777367e+02
      vertex -2.451324e+02 -2.517025e+01 -4.777984e+02
    endloop
  endfacet
  facet normal -6.096661e-01 7.258789e-02 7.893277e-01
    outer loop
      vertex -2.453909e+02 -2.532988e+01 -4.779834e+02
      vertex -2.453323e+02 -2.593002e+01 -4.778830e+02
      vertex -2.451324e+02 -2.517025e+01 -4.777984e+02
    endloop
  endfacet
  facet normal 2.848148e-01 -4.614889e-02 9.574711e-01
    outer loop
      vertex -1.143179e+02 -2.594676e+01 -4.781886e+02
      vertex -1.144880e+02 -2.518685e+01 -4.781014e+02
      vertex -1.155849e+02 -2.516893e+01 -4.777742e+02
    endloop
  endfacet
  facet normal 3.363728e-01 4.684259e-02 9.405632e-01
    outer loop
      vertex -1.143179e+02 -2.594676e+01 -4.781886e+02
      vertex -1.155849e+02 -2.516893e+01 -4.777742e+02
      vertex -1.155849e+02 -2.592201e+01 -4.777367e+02
    endloop
  endfacet
  facet normal -1.370734e-16 -9.985035e-01 5.468753e-02
    outer loop
      vertex -1.107333e+02 -2.769659e+01 -5.101377e+02
      vertex -1.155849e+02 -2.592201e+01 -4.777367e+02
      vertex -2.449788e+02 -2.592201e+01 -4.777367e+02
    endloop
  endfacet
  facet normal 2.486106e-15 -9.985035e-01 5.468753e-02
    outer loop
      vertex -2.452552e+02 -2.769659e+01 -5.101377e+02
      vertex -2.449788e+02 -2.592201e+01 -4.777367e+02
      vertex -2.453323e+02 -2.593002e+01 -4.778830e+02
    endloop
  endfacet
  facet normal -1.318520e-16 -9.985035e-01 5.468753e-02
    outer loop
      vertex -2.452552e+02 -2.769659e+01 -5.101377e+02
      vertex -1.107333e+02 -2.769659e+01 -5.101377e+02
      vertex -2.449788e+02 -2.592201e+01 -4.777367e+02
    endloop
  endfacet
  facet normal 1.643155e-15 -9.985035e-01 5.468753e-02
    outer loop
      vertex -1.107333e+02 -2.769659e+01 -5.101377e+02
      vertex -1.143179e+02 -2.594676e+01 -4.781886e+02
      vertex -1.155849e+02 -2.592201e+01 -4.777367e+02
    endloop
  endfacet
  facet normal -2.986795e-15 -9.985035e-01 5.468753e-02
    outer loop
      vertex -2.452552e+02 -2.769659e+01 -5.101377e+02
      vertex -2.453323e+02 -2.593002e+01 -4.778830e+02
      vertex -2.454788e+02 -2.594935e+01 -4.782360e+02
    endloop
  endfacet
  facet normal -9.238828e-01 1.903468e-02 3.822018e-01
    outer loop
      vertex -2.454788e+02 -2.539603e+01 -4.782635e+02
      vertex -2.454788e+02 -2.594935e+01 -4.782360e+02
      vertex -2.453323e+02 -2.593002e+01 -4.778830e+02
    endloop
  endfacet
  facet normal 4.183317e-14 -9.985035e-01 5.468753e-02
    outer loop
      vertex -2.454788e+02 -2.627131e+01 -4.841144e+02
      vertex -2.452552e+02 -2.769659e+01 -5.101377e+02
      vertex -2.454788e+02 -2.594935e+01 -4.782360e+02
    endloop
  endfacet
  facet normal -9.505373e-01 -4.126299e-02 3.078575e-01
    outer loop
      vertex -2.453909e+02 -2.532988e+01 -4.779834e+02
      vertex -2.454788e+02 -2.539603e+01 -4.782635e+02
      vertex -2.453323e+02 -2.593002e+01 -4.778830e+02
    endloop
  endfacet
  facet normal 3.540365e-15 -9.985035e-01 5.468753e-02
    outer loop
      vertex -1.107333e+02 -2.769659e+01 -5.101377e+02
      vertex -1.136242e+02 -2.600980e+01 -4.793397e+02
      vertex -1.143179e+02 -2.594676e+01 -4.781886e+02
    endloop
  endfacet
  facet normal -1.982718e-15 -9.985035e-01 5.468753e-02
    outer loop
      vertex -1.107333e+02 -2.769659e+01 -5.101377e+02
      vertex -1.117050e+02 -2.665504e+01 -4.911206e+02
      vertex -1.136242e+02 -2.600980e+01 -4.793397e+02
    endloop
  endfacet
  facet normal 0.000000e+00 -9.985035e-01 5.468753e-02
    outer loop
      vertex -1.107333e+02 -2.769659e+01 -5.101377e+02
      vertex -1.106720e+02 -2.730635e+01 -5.030125e+02
      vertex -1.117050e+02 -2.665504e+01 -4.911206e+02
    endloop
  endfacet
  facet normal 5.000000e-01 -8.649534e-01 4.307701e-02
    outer loop
      vertex -1.105299e+02 -2.741424e+01 -5.068285e+02
      vertex -1.106720e+02 -2.730635e+01 -5.030125e+02
      vertex -1.107333e+02 -2.769659e+01 -5.101377e+02
    endloop
  endfacet
  facet normal 9.992959e-01 -3.822295e-03 3.732490e-02
    outer loop
      vertex -1.105299e+02 -2.741424e+01 -5.068285e+02
      vertex -1.106132e+02 -2.553785e+01 -5.044066e+02
      vertex -1.106720e+02 -2.730635e+01 -5.030125e+02
    endloop
  endfacet
  facet normal 7.221463e-18 5.468753e-02 9.985035e-01
    outer loop
      vertex -1.114261e+02 -2.809599e+01 -5.101158e+02
      vertex -1.107333e+02 -2.769659e+01 -5.101377e+02
      vertex -2.452552e+02 -2.769659e+01 -5.101377e+02
    endloop
  endfacet
  facet normal 5.000000e-01 -8.649534e-01 4.307701e-02
    outer loop
      vertex -1.114304e+02 -2.812339e+01 -5.106159e+02
      vertex -1.107333e+02 -2.769659e+01 -5.101377e+02
      vertex -1.114261e+02 -2.809599e+01 -5.101158e+02
    endloop
  endfacet
  facet normal 5.000000e-01 -8.649534e-01 4.307701e-02
    outer loop
      vertex -1.104789e+02 -2.757476e+01 -5.106433e+02
      vertex -1.107333e+02 -2.769659e+01 -5.101377e+02
      vertex -1.114304e+02 -2.812339e+01 -5.106159e+02
    endloop
  endfacet
  facet normal 5.000000e-01 -8.649534e-01 4.307701e-02
    outer loop
      vertex -1.105299e+02 -2.741424e+01 -5.068285e+02
      vertex -1.107333e+02 -2.769659e+01 -5.101377e+02
      vertex -1.104789e+02 -2.757476e+01 -5.106433e+02
    endloop
  endfacet
  facet normal -5.000000e-01 -8.649534e-01 4.307701e-02
    outer loop
      vertex -2.454788e+02 -2.759247e+01 -5.106424e+02
      vertex -2.452552e+02 -2.769659e+01 -5.101377e+02
      vertex -2.454788e+02 -2.627131e+01 -4.841144e+02
    endloop
  endfacet
  facet normal 5.837300e-18 5.468753e-02 9.985035e-01
    outer loop
      vertex -1.114261e+02 -2.809599e+01 -5.101158e+02
      vertex -2.452552e+02 -2.769659e+01 -5.101377e+02
      vertex -2.445624e+02 -2.809599e+01 -5.101158e+02
    endloop
  endfacet
  facet normal -5.000000e-01 -8.649534e-01 4.307701e-02
    outer loop
      vertex -2.454788e+02 -2.759247e+01 -5.106424e+02
      vertex -2.445624e+02 -2.809599e+01 -5.101158e+02
      vertex -2.452552e+02 -2.769659e+01 -5.101377e+02
    endloop
  endfacet
  facet normal -1.000000e+00 0.000000e+00 0.000000e+00
    outer loop
      vertex -2.454788e+02 -2.759247e+01 -5.106424e+02
      vertex -2.454788e+02 -2.627131e+01 -4.841144e+02
      vertex -2.454788e+02 -2.593024e+01 -5.107252e+02
    endloop
  endfacet
  facet normal -1.065763e-16 -9.985035e-01 5.468753e-02
    outer loop
      vertex -1.114304e+02 -2.812339e+01 -5.106159e+02
      vertex -1.114261e+02 -2.809599e+01 -5.101158e+02
      vertex -2.445624e+02 -2.809599e+01 -5.101158e+02
    endloop
  endfacet
  facet normal -1.555541e-15 -9.985035e-01 5.468753e-02
    outer loop
      vertex -2.307275e+02 -2.814114e+01 -5.109402e+02
      vertex -2.292250e+02 -2.814114e+01 -5.109402e+02
      vertex -2.445624e+02 -2.809599e+01 -5.101158e+02
    endloop
  endfacet
  facet normal -1.065075e-16 -9.985035e-01 5.468753e-02
    outer loop
      vertex -1.274788e+02 -2.826412e+01 -5.131855e+02
      vertex -2.445624e+02 -2.809599e+01 -5.101158e+02
      vertex -2.292250e+02 -2.814114e+01 -5.109402e+02
    endloop
  endfacet
  facet normal 9.389851e-17 -9.985035e-01 5.468753e-02
    outer loop
      vertex -2.314788e+02 -2.821230e+01 -5.122394e+02
      vertex -2.307275e+02 -2.814114e+01 -5.109402e+02
      vertex -2.445624e+02 -2.809599e+01 -5.101158e+02
    endloop
  endfacet
  facet normal -2.482789e-16 -9.985035e-01 5.468753e-02
    outer loop
      vertex -2.314788e+02 -2.849641e+01 -5.174267e+02
      vertex -2.314788e+02 -2.821230e+01 -5.122394e+02
      vertex -2.445624e+02 -2.809599e+01 -5.101158e+02
    endloop
  endfacet
  facet normal -1.297998e-15 -9.985035e-01 5.468753e-02
    outer loop
      vertex -2.445581e+02 -2.812339e+01 -5.106159e+02
      vertex -2.314788e+02 -2.849641e+01 -5.174267e+02
      vertex -2.445624e+02 -2.809599e+01 -5.101158e+02
    endloop
  endfacet
  facet normal -1.087205e-16 -9.985035e-01 5.468753e-02
    outer loop
      vertex -1.114304e+02 -2.812339e+01 -5.106159e+02
      vertex -2.445624e+02 -2.809599e+01 -5.101158e+02
      vertex -1.274788e+02 -2.826412e+01 -5.131855e+02
    endloop
  endfacet
  facet normal -5.000000e-01 -8.649534e-01 4.307701e-02
    outer loop
      vertex -2.454788e+02 -2.759247e+01 -5.106424e+02
      vertex -2.445581e+02 -2.812339e+01 -5.106159e+02
      vertex -2.445624e+02 -2.809599e+01 -5.101158e+02
    endloop
  endfacet
  facet normal -4.380565e-16 -9.985035e-01 5.468753e-02
    outer loop
      vertex -2.284738e+02 -2.821230e+01 -5.122394e+02
      vertex -2.284738e+02 -2.827779e+01 -5.134352e+02
      vertex -2.203520e+02 -2.827779e+01 -5.134352e+02
    endloop
  endfacet
  facet normal -2.985549e-16 -9.985035e-01 5.468753e-02
    outer loop
      vertex -2.292250e+02 -2.814114e+01 -5.109402e+02
      vertex -2.284738e+02 -2.821230e+01 -5.122394e+02
      vertex -2.203520e+02 -2.827779e+01 -5.134352e+02
    endloop
  endfacet
  facet normal 2.080734e-15 -9.985035e-01 5.468753e-02
    outer loop
      vertex -2.199330e+02 -2.826761e+01 -5.132492e+02
      vertex -2.292250e+02 -2.814114e+01 -5.109402e+02
      vertex -2.203520e+02 -2.827779e+01 -5.134352e+02
    endloop
  endfacet
  facet normal -1.156760e-16 -9.985035e-01 5.468753e-02
    outer loop
      vertex -2.194788e+02 -2.826412e+01 -5.131855e+02
      vertex -1.274788e+02 -2.826412e+01 -5.131855e+02
      vertex -2.292250e+02 -2.814114e+01 -5.109402e+02
    endloop
  endfacet
  facet normal -3.861754e-15 -9.985035e-01 5.468753e-02
    outer loop
      vertex -2.199330e+02 -2.826761e+01 -5.132492e+02
      vertex -2.194788e+02 -2.826412e+01 -5.131855e+02
      vertex -2.292250e+02 -2.814114e+01 -5.109402e+02
    endloop
  endfacet
  facet normal 1.000000e+00 0.000000e+00 0.000000e+00
    outer loop
      vertex -2.314788e+02 -2.790269e+01 -5.148542e+02
      vertex -2.314788e+02 -2.821230e+01 -5.122394e+02
      vertex -2.314788e+02 -2.849641e+01 -5.174267e+02
    endloop
  endfacet
  facet normal 1.000000e+00 0.000000e+00 0.000000e+00
    outer loop
      vertex -2.314788e+02 -2.735266e+01 -5.140116e+02
      vertex -2.314788e+02 -2.821230e+01 -5.122394e+02
      vertex -2.314788e+02 -2.790269e+01 -5.148542e+02
    endloop
  endfacet
  facet normal 7.467049e-17 -9.985035e-01 5.468753e-02
    outer loop
      vertex -2.445581e+02 -2.812339e+01 -5.106159e+02
      vertex -2.307275e+02 -2.856757e+01 -5.187259e+02
      vertex -2.314788e+02 -2.849641e+01 -5.174267e+02
    endloop
  endfacet
  facet normal 1.000000e+00 0.000000e+00 0.000000e+00
    outer loop
      vertex -2.314788e+02 -2.744798e+01 -5.157518e+02
      vertex -2.314788e+02 -2.790269e+01 -5.148542e+02
      vertex -2.314788e+02 -2.849641e+01 -5.174267e+02
    endloop
  endfacet
  facet normal 1.000000e+00 0.000000e+00 0.000000e+00
    outer loop
      vertex -2.314788e+02 -2.744798e+01 -5.157518e+02
      vertex -2.314788e+02 -2.849641e+01 -5.174267e+02
      vertex -2.314788e+02 -2.644323e+01 -5.158069e+02
    endloop
  endfacet
  facet normal -1.273413e-15 -9.985035e-01 5.468753e-02
    outer loop
      vertex -1.133735e+02 -2.978613e+01 -5.409748e+02
      vertex -2.292250e+02 -2.856757e+01 -5.187259e+02
      vertex -2.307275e+02 -2.856757e+01 -5.187259e+02
    endloop
  endfacet
  facet normal -2.983818e-17 -9.985035e-01 5.468753e-02
    outer loop
      vertex -2.454788e+02 -2.824117e+01 -5.127665e+02
      vertex -2.454788e+02 -2.978613e+01 -5.409748e+02
      vertex -2.307275e+02 -2.856757e+01 -5.187259e+02
    endloop
  endfacet
  facet normal -1.342641e-16 -9.985035e-01 5.468753e-02
    outer loop
      vertex -1.133735e+02 -2.978613e+01 -5.409748e+02
      vertex -2.307275e+02 -2.856757e+01 -5.187259e+02
      vertex -2.454788e+02 -2.978613e+01 -5.409748e+02
    endloop
  endfacet
  facet normal 4.876314e-16 -9.985035e-01 5.468753e-02
    outer loop
      vertex -2.447931e+02 -2.818755e+01 -5.117875e+02
      vertex -2.454788e+02 -2.824117e+01 -5.127665e+02
      vertex -2.307275e+02 -2.856757e+01 -5.187259e+02
    endloop
  endfacet
  facet normal -1.530346e-16 -9.985035e-01 5.468753e-02
    outer loop
      vertex -2.445581e+02 -2.812339e+01 -5.106159e+02
      vertex -2.447931e+02 -2.818755e+01 -5.117875e+02
      vertex -2.307275e+02 -2.856757e+01 -5.187259e+02
    endloop
  endfacet
  facet normal -2.969674e-16 -9.985035e-01 5.468753e-02
    outer loop
      vertex -1.133735e+02 -2.978613e+01 -5.409748e+02
      vertex -2.284738e+02 -2.849641e+01 -5.174267e+02
      vertex -2.292250e+02 -2.856757e+01 -5.187259e+02
    endloop
  endfacet
  facet normal 2.577550e-16 -9.985035e-01 5.468753e-02
    outer loop
      vertex -1.133735e+02 -2.978613e+01 -5.409748e+02
      vertex -2.284738e+02 -2.843092e+01 -5.162310e+02
      vertex -2.284738e+02 -2.849641e+01 -5.174267e+02
    endloop
  endfacet
  facet normal 0.000000e+00 -9.985035e-01 5.468753e-02
    outer loop
      vertex -2.199330e+02 -2.844110e+01 -5.164169e+02
      vertex -2.203520e+02 -2.843092e+01 -5.162310e+02
      vertex -2.284738e+02 -2.843092e+01 -5.162310e+02
    endloop
  endfacet
  facet normal -4.109088e-16 -9.985035e-01 5.468753e-02
    outer loop
      vertex -1.133735e+02 -2.978613e+01 -5.409748e+02
      vertex -2.199330e+02 -2.844110e+01 -5.164169e+02
      vertex -2.284738e+02 -2.843092e+01 -5.162310e+02
    endloop
  endfacet
  facet normal 1.947827e-14 -9.985035e-01 5.468753e-02
    outer loop
      vertex -1.133735e+02 -2.978613e+01 -5.409748e+02
      vertex -2.194788e+02 -2.844459e+01 -5.164806e+02
      vertex -2.199330e+02 -2.844110e+01 -5.164169e+02
    endloop
  endfacet
  facet normal -1.164904e-16 -9.985035e-01 5.468753e-02
    outer loop
      vertex -1.133735e+02 -2.978613e+01 -5.409748e+02
      vertex -1.274788e+02 -2.844459e+01 -5.164806e+02
      vertex -2.194788e+02 -2.844459e+01 -5.164806e+02
    endloop
  endfacet
  facet normal -1.978376e-15 -9.985035e-01 5.468753e-02
    outer loop
      vertex -1.133735e+02 -2.978613e+01 -5.409748e+02
      vertex -1.260498e+02 -2.839947e+01 -5.156568e+02
      vertex -1.274788e+02 -2.844459e+01 -5.164806e+02
    endloop
  endfacet
  facet normal -3.057416e-15 -9.985035e-01 5.468753e-02
    outer loop
      vertex -1.133735e+02 -2.978613e+01 -5.409748e+02
      vertex -1.260498e+02 -2.830924e+01 -5.140093e+02
      vertex -1.260498e+02 -2.839947e+01 -5.156568e+02
    endloop
  endfacet
  facet normal -3.412588e-16 -9.985035e-01 5.468753e-02
    outer loop
      vertex -1.114304e+02 -2.812339e+01 -5.106159e+02
      vertex -1.274788e+02 -2.826412e+01 -5.131855e+02
      vertex -1.260498e+02 -2.830924e+01 -5.140093e+02
    endloop
  endfacet
  facet normal 1.482425e-16 -9.985035e-01 5.468753e-02
    outer loop
      vertex -1.132605e+02 -2.976033e+01 -5.405038e+02
      vertex -1.114304e+02 -2.812339e+01 -5.106159e+02
      vertex -1.260498e+02 -2.830924e+01 -5.140093e+02
    endloop
  endfacet
  facet normal -1.255316e-14 -9.985035e-01 5.468753e-02
    outer loop
      vertex -1.133113e+02 -2.977330e+01 -5.407407e+02
      vertex -1.132605e+02 -2.976033e+01 -5.405038e+02
      vertex -1.260498e+02 -2.830924e+01 -5.140093e+02
    endloop
  endfacet
  facet normal -1.816659e-14 -9.985035e-01 5.468753e-02
    outer loop
      vertex -1.133735e+02 -2.978613e+01 -5.409748e+02
      vertex -1.133113e+02 -2.977330e+01 -5.407407e+02
      vertex -1.260498e+02 -2.830924e+01 -5.140093e+02
    endloop
  endfacet
  facet normal -1.000000e+00 0.000000e+00 0.000000e+00
    outer loop
      vertex -2.454788e+02 -2.938147e+01 -5.343868e+02
      vertex -2.454788e+02 -2.978613e+01 -5.409748e+02
      vertex -2.454788e+02 -2.824117e+01 -5.127665e+02
    endloop
  endfacet
  facet normal -6.714391e-18 -4.974105e-02 -9.987621e-01
    outer loop
      vertex -1.133735e+02 -2.839539e+01 -5.410441e+02
      vertex -1.133735e+02 -2.978613e+01 -5.409748e+02
      vertex -2.454788e+02 -2.978613e+01 -5.409748e+02
    endloop
  endfacet
  facet normal 1.373025e-16 -4.974105e-02 -9.987621e-01
    outer loop
      vertex -2.454788e+02 -2.970976e+01 -5.409786e+02
      vertex -1.133735e+02 -2.839539e+01 -5.410441e+02
      vertex -2.454788e+02 -2.978613e+01 -5.409748e+02
    endloop
  endfacet
  facet normal -1.000000e+00 0.000000e+00 0.000000e+00
    outer loop
      vertex -2.454788e+02 -2.938147e+01 -5.343868e+02
      vertex -2.454788e+02 -2.970976e+01 -5.409786e+02
      vertex -2.454788e+02 -2.978613e+01 -5.409748e+02
    endloop
  endfacet
  facet normal -4.239880e-01 -8.382642e-01 3.428517e-01
    outer loop
      vertex -2.454788e+02 -2.777907e+01 -5.116367e+02
      vertex -2.454788e+02 -2.824117e+01 -5.127665e+02
      vertex -2.447931e+02 -2.818755e+01 -5.117875e+02
    endloop
  endfacet
  facet normal -1.000000e+00 0.000000e+00 0.000000e+00
    outer loop
      vertex -2.454788e+02 -2.735266e+01 -5.140116e+02
      vertex -2.454788e+02 -2.790269e+01 -5.148542e+02
      vertex -2.454788e+02 -2.824117e+01 -5.127665e+02
    endloop
  endfacet
  facet normal -1.000000e+00 0.000000e+00 0.000000e+00
    outer loop
      vertex -2.454788e+02 -2.777907e+01 -5.116367e+02
      vertex -2.454788e+02 -2.581614e+01 -5.118578e+02
      vertex -2.454788e+02 -2.824117e+01 -5.127665e+02
    endloop
  endfacet
  facet normal -4.828629e-01 -8.637448e-01 1.441814e-01
    outer loop
      vertex -2.454788e+02 -2.777907e+01 -5.116367e+02
      vertex -2.447931e+02 -2.818755e+01 -5.117875e+02
      vertex -2.445581e+02 -2.812339e+01 -5.106159e+02
    endloop
  endfacet
  facet normal -4.965385e-01 -8.531224e-01 1.600993e-01
    outer loop
      vertex -2.454788e+02 -2.777907e+01 -5.116367e+02
      vertex -2.445581e+02 -2.812339e+01 -5.106159e+02
      vertex -2.454788e+02 -2.759247e+01 -5.106424e+02
    endloop
  endfacet
  facet normal -1.400869e-14 -9.985035e-01 5.468753e-02
    outer loop
      vertex -1.112699e+02 -2.900489e+01 -5.267108e+02
      vertex -1.111904e+02 -2.818854e+01 -5.118056e+02
      vertex -1.114304e+02 -2.812339e+01 -5.106159e+02
    endloop
  endfacet
  facet normal 4.972660e-01 -8.550292e-01 1.471446e-01
    outer loop
      vertex -1.104789e+02 -2.757476e+01 -5.106433e+02
      vertex -1.114304e+02 -2.812339e+01 -5.106159e+02
      vertex -1.111904e+02 -2.818854e+01 -5.118056e+02
    endloop
  endfacet
  facet normal 0.000000e+00 -9.985035e-01 5.468753e-02
    outer loop
      vertex -1.132605e+02 -2.976033e+01 -5.405038e+02
      vertex -1.112699e+02 -2.900489e+01 -5.267108e+02
      vertex -1.114304e+02 -2.812339e+01 -5.106159e+02
    endloop
  endfacet
  facet normal 7.427803e-15 -9.985035e-01 5.468753e-02
    outer loop
      vertex -1.112699e+02 -2.900489e+01 -5.267108e+02
      vertex -1.104908e+02 -2.824288e+01 -5.127978e+02
      vertex -1.111904e+02 -2.818854e+01 -5.118056e+02
    endloop
  endfacet
  facet normal 4.200651e-01 -8.404877e-01 3.422364e-01
    outer loop
      vertex -1.104805e+02 -2.775221e+01 -5.116053e+02
      vertex -1.111904e+02 -2.818854e+01 -5.118056e+02
      vertex -1.104908e+02 -2.824288e+01 -5.127978e+02
    endloop
  endfacet
  facet normal 4.843617e-01 -8.604952e-01 1.579295e-01
    outer loop
      vertex -1.104789e+02 -2.757476e+01 -5.106433e+02
      vertex -1.111904e+02 -2.818854e+01 -5.118056e+02
      vertex -1.104805e+02 -2.775221e+01 -5.116053e+02
    endloop
  endfacet
  facet normal 9.999650e-01 -6.301026e-04 -8.342952e-03
    outer loop
      vertex -1.104805e+02 -2.775221e+01 -5.116053e+02
      vertex -1.104908e+02 -2.824288e+01 -5.127978e+02
      vertex -1.104811e+02 -2.582211e+01 -5.118263e+02
    endloop
  endfacet
  facet normal -9.263107e-17 -9.987621e-01 4.974105e-02
    outer loop
      vertex -2.504788e+02 -2.963017e+01 -5.393806e+02
      vertex -2.887847e+02 -2.963017e+01 -5.393806e+02
      vertex -2.454788e+02 -2.970976e+01 -5.409786e+02
    endloop
  endfacet
  facet normal 8.541431e-17 -9.987621e-01 4.974105e-02
    outer loop
      vertex -2.895623e+02 -2.965594e+01 -5.398981e+02
      vertex -2.454788e+02 -2.970976e+01 -5.409786e+02
      vertex -2.887847e+02 -2.963017e+01 -5.393806e+02
    endloop
  endfacet
  facet normal -7.484639e-17 -9.987621e-01 4.974105e-02
    outer loop
      vertex -2.469432e+02 -2.955733e+01 -5.379180e+02
      vertex -2.504788e+02 -2.963017e+01 -5.393806e+02
      vertex -2.454788e+02 -2.970976e+01 -5.409786e+02
    endloop
  endfacet
  facet normal -1.240540e-15 -9.987621e-01 4.974105e-02
    outer loop
      vertex -2.469432e+02 -2.955733e+01 -5.379180e+02
      vertex -2.454788e+02 -2.970976e+01 -5.409786e+02
      vertex -2.454788e+02 -2.938147e+01 -5.343868e+02
    endloop
  endfacet
  facet normal 1.925246e-19 -9.987621e-01 4.974105e-02
    outer loop
      vertex -2.895623e+02 -2.965594e+01 -5.398981e+02
      vertex -2.904788e+02 -2.966499e+01 -5.400797e+02
      vertex -2.454788e+02 -2.970976e+01 -5.409786e+02
    endloop
  endfacet
  facet normal 0.000000e+00 -9.987621e-01 4.974105e-02
    outer loop
      vertex -1.194788e+02 -2.852700e+01 -5.436868e+02
      vertex -1.194788e+02 -2.857445e+01 -5.446396e+02
      vertex -1.181735e+02 -2.857445e+01 -5.446396e+02
    endloop
  endfacet
  facet normal 1.058593e-15 -9.987621e-01 4.974105e-02
    outer loop
      vertex -1.151735e+02 -2.852471e+01 -5.436409e+02
      vertex -1.194788e+02 -2.852700e+01 -5.436868e+02
      vertex -1.181735e+02 -2.857445e+01 -5.446396e+02
    endloop
  endfacet
  facet normal 1.000000e+00 0.000000e+00 0.000000e+00
    outer loop
      vertex -1.194788e+02 -2.993083e+01 -5.436169e+02
      vertex -1.194788e+02 -2.857445e+01 -5.446396e+02
      vertex -1.194788e+02 -2.852700e+01 -5.436868e+02
    endloop
  endfacet
  facet normal 1.000000e+00 0.000000e+00 0.000000e+00
    outer loop
      vertex -1.194788e+02 -2.998300e+01 -5.445695e+02
      vertex -1.194788e+02 -2.857445e+01 -5.446396e+02
      vertex -1.194788e+02 -2.993083e+01 -5.436169e+02
    endloop
  endfacet
  facet normal -2.124994e-16 -8.373856e-01 5.466126e-01
    outer loop
      vertex -2.314788e+02 -2.589320e+01 -5.149642e+02
      vertex -2.454788e+02 -2.589320e+01 -5.149642e+02
      vertex -2.454788e+02 -2.644323e+01 -5.158069e+02
    endloop
  endfacet
  facet normal 0.000000e+00 -8.920732e-01 -4.518910e-01
    outer loop
      vertex -2.314788e+02 -2.634792e+01 -5.140666e+02
      vertex -2.454788e+02 -2.634792e+01 -5.140666e+02
      vertex -2.454788e+02 -2.589320e+01 -5.149642e+02
    endloop
  endfacet
  facet normal -2.285464e-16 -8.920732e-01 -4.518910e-01
    outer loop
      vertex -2.314788e+02 -2.634792e+01 -5.140666e+02
      vertex -2.454788e+02 -2.589320e+01 -5.149642e+02
      vertex -2.314788e+02 -2.589320e+01 -5.149642e+02
    endloop
  endfacet
  facet normal 1.387780e-17 5.468753e-02 9.985035e-01
    outer loop
      vertex -2.314788e+02 -2.644323e+01 -5.158069e+02
      vertex -2.454788e+02 -2.644323e+01 -5.158069e+02
      vertex -2.454788e+02 -2.744798e+01 -5.157518e+02
    endloop
  endfacet
  facet normal -2.124994e-16 -8.373856e-01 5.466126e-01
    outer loop
      vertex -2.314788e+02 -2.644323e+01 -5.158069e+02
      vertex -2.314788e+02 -2.589320e+01 -5.149642e+02
      vertex -2.454788e+02 -2.644323e+01 -5.158069e+02
    endloop
  endfacet
  facet normal 2.263772e-16 8.920732e-01 4.518910e-01
    outer loop
      vertex -2.314788e+02 -2.744798e+01 -5.157518e+02
      vertex -2.454788e+02 -2.744798e+01 -5.157518e+02
      vertex -2.454788e+02 -2.790269e+01 -5.148542e+02
    endloop
  endfacet
  facet normal 1.387780e-17 5.468753e-02 9.985035e-01
    outer loop
      vertex -2.314788e+02 -2.744798e+01 -5.157518e+02
      vertex -2.314788e+02 -2.644323e+01 -5.158069e+02
      vertex -2.454788e+02 -2.744798e+01 -5.157518e+02
    endloop
  endfacet
  facet normal 0.000000e+00 8.373856e-01 -5.466126e-01
    outer loop
      vertex -2.314788e+02 -2.790269e+01 -5.148542e+02
      vertex -2.454788e+02 -2.790269e+01 -5.148542e+02
      vertex -2.454788e+02 -2.735266e+01 -5.140116e+02
    endloop
  endfacet
  facet normal 0.000000e+00 8.920732e-01 4.518910e-01
    outer loop
      vertex -2.314788e+02 -2.744798e+01 -5.157518e+02
      vertex -2.454788e+02 -2.790269e+01 -5.148542e+02
      vertex -2.314788e+02 -2.790269e+01 -5.148542e+02
    endloop
  endfacet
  facet normal -1.387780e-17 -5.468753e-02 -9.985035e-01
    outer loop
      vertex -2.314788e+02 -2.735266e+01 -5.140116e+02
      vertex -2.454788e+02 -2.735266e+01 -5.140116e+02
      vertex -2.454788e+02 -2.634792e+01 -5.140666e+02
    endloop
  endfacet
  facet normal 2.124994e-16 8.373856e-01 -5.466126e-01
    outer loop
      vertex -2.314788e+02 -2.735266e+01 -5.140116e+02
      vertex -2.314788e+02 -2.790269e+01 -5.148542e+02
      vertex -2.454788e+02 -2.735266e+01 -5.140116e+02
    endloop
  endfacet
  facet normal 0.000000e+00 -5.468753e-02 -9.985035e-01
    outer loop
      vertex -2.314788e+02 -2.634792e+01 -5.140666e+02
      vertex -2.314788e+02 -2.735266e+01 -5.140116e+02
      vertex -2.454788e+02 -2.634792e+01 -5.140666e+02
    endloop
  endfacet
  facet normal -1.000000e+00 0.000000e+00 0.000000e+00
    outer loop
      vertex -2.454788e+02 -2.759247e+01 -5.106424e+02
      vertex -2.454788e+02 -2.593024e+01 -5.107252e+02
      vertex -2.454788e+02 -2.581614e+01 -5.118578e+02
    endloop
  endfacet
  facet normal -1.000000e+00 0.000000e+00 0.000000e+00
    outer loop
      vertex -2.454788e+02 -2.777907e+01 -5.116367e+02
      vertex -2.454788e+02 -2.759247e+01 -5.106424e+02
      vertex -2.454788e+02 -2.581614e+01 -5.118578e+02
    endloop
  endfacet
  facet normal 9.997753e-01 1.071936e-03 2.117309e-02
    outer loop
      vertex -1.104789e+02 -2.757476e+01 -5.106433e+02
      vertex -1.104790e+02 -2.593013e+01 -5.107252e+02
      vertex -1.106132e+02 -2.553785e+01 -5.044066e+02
    endloop
  endfacet
  facet normal 9.995148e-01 2.868123e-02 1.215023e-02
    outer loop
      vertex -1.105299e+02 -2.741424e+01 -5.068285e+02
      vertex -1.104789e+02 -2.757476e+01 -5.106433e+02
      vertex -1.106132e+02 -2.553785e+01 -5.044066e+02
    endloop
  endfacet
  facet normal 9.999981e-01 1.014645e-04 -1.952911e-03
    outer loop
      vertex -1.104805e+02 -2.775221e+01 -5.116053e+02
      vertex -1.104811e+02 -2.582211e+01 -5.118263e+02
      vertex -1.104790e+02 -2.593013e+01 -5.107252e+02
    endloop
  endfacet
  facet normal 9.999987e-01 -6.285598e-05 -1.612737e-03
    outer loop
      vertex -1.104789e+02 -2.757476e+01 -5.106433e+02
      vertex -1.104805e+02 -2.775221e+01 -5.116053e+02
      vertex -1.104790e+02 -2.593013e+01 -5.107252e+02
    endloop
  endfacet
endsolid 149_100022597-18
