solid 150_100022596-16
  facet normal -1.000000e+00 0.000000e+00 0.000000e+00
    outer loop
      vertex -3.154787e+02 -2.880603e+01 -4.794680e+02
      vertex -3.154787e+02 -2.606715e+01 -4.787300e+02
      vertex -3.154787e+02 -2.612082e+01 -4.796284e+02
    endloop
  endfacet
  facet normal 1.519882e-16 9.982204e-01 -5.963267e-02
    outer loop
      vertex -2.454787e+02 -2.606715e+01 -4.787300e+02
      vertex -3.154787e+02 -2.612082e+01 -4.796284e+02
      vertex -3.154787e+02 -2.606715e+01 -4.787300e+02
    endloop
  endfacet
  facet normal -8.474313e-18 -5.963267e-02 -9.982204e-01
    outer loop
      vertex -2.904787e+02 -2.612082e+01 -4.796284e+02
      vertex -3.154787e+02 -2.880603e+01 -4.794680e+02
      vertex -3.154787e+02 -2.612082e+01 -4.796284e+02
    endloop
  endfacet
  facet normal 1.418556e-16 9.982204e-01 -5.963267e-02
    outer loop
      vertex -2.904787e+02 -2.612082e+01 -4.796284e+02
      vertex -3.154787e+02 -2.612082e+01 -4.796284e+02
      vertex -2.454787e+02 -2.606715e+01 -4.787300e+02
    endloop
  endfacet
  facet normal -1.000000e+00 0.000000e+00 0.000000e+00
    outer loop
      vertex -3.154787e+02 -2.880603e+01 -4.794680e+02
      vertex -3.154787e+02 -2.740077e+01 -4.786503e+02
      vertex -3.154787e+02 -2.606715e+01 -4.787300e+02
    endloop
  endfacet
  facet normal 7.344775e-18 5.963267e-02 9.982204e-01
    outer loop
      vertex -1.135658e+02 -2.740077e+01 -4.786503e+02
      vertex -3.154787e+02 -2.606715e+01 -4.787300e+02
      vertex -3.154787e+02 -2.740077e+01 -4.786503e+02
    endloop
  endfacet
  facet normal 9.079621e-18 5.963267e-02 9.982204e-01
    outer loop
      vertex -2.454787e+02 -2.606715e+01 -4.787300e+02
      vertex -3.154787e+02 -2.606715e+01 -4.787300e+02
      vertex -1.135658e+02 -2.740077e+01 -4.786503e+02
    endloop
  endfacet
  facet normal -1.000000e+00 0.000000e+00 0.000000e+00
    outer loop
      vertex -3.154787e+02 -2.853768e+01 -4.749760e+02
      vertex -3.154787e+02 -2.724298e+01 -4.760090e+02
      vertex -3.154787e+02 -2.740077e+01 -4.786503e+02
    endloop
  endfacet
  facet normal 1.085630e-16 9.982204e-01 -5.963267e-02
    outer loop
      vertex -1.194787e+02 -2.724298e+01 -4.760090e+02
      vertex -3.154787e+02 -2.740077e+01 -4.786503e+02
      vertex -3.154787e+02 -2.724298e+01 -4.760090e+02
    endloop
  endfacet
  facet normal -1.000000e+00 0.000000e+00 0.000000e+00
    outer loop
      vertex -3.154787e+02 -2.880603e+01 -4.794680e+02
      vertex -3.154787e+02 -2.853768e+01 -4.749760e+02
      vertex -3.154787e+02 -2.740077e+01 -4.786503e+02
    endloop
  endfacet
  facet normal 1.228709e-16 9.982204e-01 -5.963267e-02
    outer loop
      vertex -1.153658e+02 -2.724573e+01 -4.760549e+02
      vertex -1.135658e+02 -2.740077e+01 -4.786503e+02
      vertex -3.154787e+02 -2.740077e+01 -4.786503e+02
    endloop
  endfacet
  facet normal 4.662265e-16 9.982204e-01 -5.963267e-02
    outer loop
      vertex -1.153658e+02 -2.724573e+01 -4.760549e+02
      vertex -3.154787e+02 -2.740077e+01 -4.786503e+02
      vertex -1.194787e+02 -2.724298e+01 -4.760090e+02
    endloop
  endfacet
  facet normal -1.000000e+00 0.000000e+00 0.000000e+00
    outer loop
      vertex -3.154787e+02 -2.582275e+01 -4.751382e+02
      vertex -3.154787e+02 -2.587492e+01 -4.760908e+02
      vertex -3.154787e+02 -2.724298e+01 -4.760090e+02
    endloop
  endfacet
  facet normal -7.566351e-18 -5.963267e-02 -9.982204e-01
    outer loop
      vertex -1.194787e+02 -2.587492e+01 -4.760908e+02
      vertex -3.154787e+02 -2.724298e+01 -4.760090e+02
      vertex -3.154787e+02 -2.587492e+01 -4.760908e+02
    endloop
  endfacet
  facet normal -1.000000e+00 0.000000e+00 0.000000e+00
    outer loop
      vertex -3.154787e+02 -2.853768e+01 -4.749760e+02
      vertex -3.154787e+02 -2.582275e+01 -4.751382e+02
      vertex -3.154787e+02 -2.724298e+01 -4.760090e+02
    endloop
  endfacet
  facet normal -6.509624e-18 -5.963267e-02 -9.982204e-01
    outer loop
      vertex -1.194787e+02 -2.587492e+01 -4.760908e+02
      vertex -1.194787e+02 -2.724298e+01 -4.760090e+02
      vertex -3.154787e+02 -2.724298e+01 -4.760090e+02
    endloop
  endfacet
  facet normal 1.266928e-16 9.985035e-01 -5.468753e-02
    outer loop
      vertex -1.194787e+02 -2.582275e+01 -4.751382e+02
      vertex -3.154787e+02 -2.587492e+01 -4.760908e+02
      vertex -3.154787e+02 -2.582275e+01 -4.751382e+02
    endloop
  endfacet
  facet normal 1.266905e-16 9.985035e-01 -5.468753e-02
    outer loop
      vertex -1.194787e+02 -2.582275e+01 -4.751382e+02
      vertex -1.194787e+02 -2.587492e+01 -4.760908e+02
      vertex -3.154787e+02 -2.587492e+01 -4.760908e+02
    endloop
  endfacet
  facet normal 6.448827e-18 5.963267e-02 9.982204e-01
    outer loop
      vertex -1.183658e+02 -2.853768e+01 -4.749760e+02
      vertex -3.154787e+02 -2.582275e+01 -4.751382e+02
      vertex -3.154787e+02 -2.853768e+01 -4.749760e+02
    endloop
  endfacet
  facet normal -4.954398e-17 5.963267e-02 9.982204e-01
    outer loop
      vertex -1.194787e+02 -2.718609e+01 -4.750567e+02
      vertex -3.154787e+02 -2.582275e+01 -4.751382e+02
      vertex -1.183658e+02 -2.853768e+01 -4.749760e+02
    endloop
  endfacet
  facet normal 7.566351e-18 5.963267e-02 9.982204e-01
    outer loop
      vertex -1.194787e+02 -2.582275e+01 -4.751382e+02
      vertex -3.154787e+02 -2.582275e+01 -4.751382e+02
      vertex -1.194787e+02 -2.718609e+01 -4.750567e+02
    endloop
  endfacet
  facet normal -1.418556e-16 -9.982204e-01 5.963267e-02
    outer loop
      vertex -2.904787e+02 -2.880603e+01 -4.794680e+02
      vertex -3.154787e+02 -2.853768e+01 -4.749760e+02
      vertex -3.154787e+02 -2.880603e+01 -4.794680e+02
    endloop
  endfacet
  facet normal -1.079501e-16 -9.982204e-01 5.963267e-02
    outer loop
      vertex -1.183658e+02 -2.853768e+01 -4.749760e+02
      vertex -3.154787e+02 -2.853768e+01 -4.749760e+02
      vertex -1.274787e+02 -2.921612e+01 -4.863327e+02
    endloop
  endfacet
  facet normal -4.942718e-17 -9.982204e-01 5.963267e-02
    outer loop
      vertex -2.504787e+02 -2.884777e+01 -4.801667e+02
      vertex -1.274787e+02 -2.921612e+01 -4.863327e+02
      vertex -3.154787e+02 -2.853768e+01 -4.749760e+02
    endloop
  endfacet
  facet normal -1.407421e-16 -9.982204e-01 5.963267e-02
    outer loop
      vertex -2.904787e+02 -2.880603e+01 -4.794680e+02
      vertex -2.504787e+02 -2.884777e+01 -4.801667e+02
      vertex -3.154787e+02 -2.853768e+01 -4.749760e+02
    endloop
  endfacet
  facet normal -8.254446e-18 -5.963267e-02 -9.982204e-01
    outer loop
      vertex -2.904787e+02 -2.612082e+01 -4.796284e+02
      vertex -2.904787e+02 -2.880603e+01 -4.794680e+02
      vertex -3.154787e+02 -2.880603e+01 -4.794680e+02
    endloop
  endfacet
  facet normal -1.154050e-16 -9.982204e-01 5.963267e-02
    outer loop
      vertex -1.116912e+02 -3.061016e+01 -5.096681e+02
      vertex -1.274787e+02 -2.941291e+01 -4.896269e+02
      vertex -2.194787e+02 -2.941291e+01 -4.896269e+02
    endloop
  endfacet
  facet normal 6.914382e-18 5.963267e-02 9.982204e-01
    outer loop
      vertex -2.194787e+02 -2.662541e+01 -4.897934e+02
      vertex -2.194787e+02 -2.941291e+01 -4.896269e+02
      vertex -1.274787e+02 -2.941291e+01 -4.896269e+02
    endloop
  endfacet
  facet normal 2.378274e-14 -9.982204e-01 5.963267e-02
    outer loop
      vertex -1.116912e+02 -3.061016e+01 -5.096681e+02
      vertex -2.194787e+02 -2.941291e+01 -4.896269e+02
      vertex -2.199333e+02 -2.940910e+01 -4.895631e+02
    endloop
  endfacet
  facet normal 1.391629e-01 5.905245e-02 9.885072e-01
    outer loop
      vertex -2.199333e+02 -2.662191e+01 -4.897296e+02
      vertex -2.199333e+02 -2.940910e+01 -4.895631e+02
      vertex -2.194787e+02 -2.941291e+01 -4.896269e+02
    endloop
  endfacet
  facet normal 1.391627e-01 5.905242e-02 9.885072e-01
    outer loop
      vertex -2.199333e+02 -2.662191e+01 -4.897296e+02
      vertex -2.194787e+02 -2.941291e+01 -4.896269e+02
      vertex -2.194787e+02 -2.662541e+01 -4.897934e+02
    endloop
  endfacet
  facet normal -9.367543e-16 -9.982204e-01 5.963267e-02
    outer loop
      vertex -1.116912e+02 -3.061016e+01 -5.096681e+02
      vertex -1.260497e+02 -2.936370e+01 -4.888031e+02
      vertex -1.274787e+02 -2.941291e+01 -4.896269e+02
    endloop
  endfacet
  facet normal -5.000957e-01 5.164012e-02 8.644291e-01
    outer loop
      vertex -1.274787e+02 -2.662541e+01 -4.897934e+02
      vertex -1.274787e+02 -2.941291e+01 -4.896269e+02
      vertex -1.260497e+02 -2.936370e+01 -4.888031e+02
    endloop
  endfacet
  facet normal 6.908407e-18 5.963267e-02 9.982204e-01
    outer loop
      vertex -1.274787e+02 -2.662541e+01 -4.897934e+02
      vertex -2.194787e+02 -2.662541e+01 -4.897934e+02
      vertex -1.274787e+02 -2.941291e+01 -4.896269e+02
    endloop
  endfacet
  facet normal -2.399997e-15 -9.982204e-01 5.963267e-02
    outer loop
      vertex -1.116912e+02 -3.061016e+01 -5.096681e+02
      vertex -1.260497e+02 -2.926534e+01 -4.871565e+02
      vertex -1.260497e+02 -2.936370e+01 -4.888031e+02
    endloop
  endfacet
  facet normal -1.000000e+00 -9.407380e-07 5.619873e-08
    outer loop
      vertex -1.260497e+02 -2.658028e+01 -4.889694e+02
      vertex -1.260497e+02 -2.936370e+01 -4.888031e+02
      vertex -1.260497e+02 -2.926534e+01 -4.871565e+02
    endloop
  endfacet
  facet normal -5.000943e-01 5.164111e-02 8.644298e-01
    outer loop
      vertex -1.274787e+02 -2.662541e+01 -4.897934e+02
      vertex -1.260497e+02 -2.936370e+01 -4.888031e+02
      vertex -1.260497e+02 -2.658028e+01 -4.889694e+02
    endloop
  endfacet
  facet normal -8.217672e-16 -9.982204e-01 5.963267e-02
    outer loop
      vertex -1.183658e+02 -2.853768e+01 -4.749760e+02
      vertex -1.274787e+02 -2.921612e+01 -4.863327e+02
      vertex -1.260497e+02 -2.926534e+01 -4.871565e+02
    endloop
  endfacet
  facet normal -5.000957e-01 -5.163916e-02 -8.644291e-01
    outer loop
      vertex -1.260497e+02 -2.649007e+01 -4.873223e+02
      vertex -1.260497e+02 -2.926534e+01 -4.871565e+02
      vertex -1.274787e+02 -2.921612e+01 -4.863327e+02
    endloop
  endfacet
  facet normal 8.155624e-17 -9.982204e-01 5.963267e-02
    outer loop
      vertex -1.116912e+02 -3.061016e+01 -5.096681e+02
      vertex -1.183658e+02 -2.853768e+01 -4.749760e+02
      vertex -1.260497e+02 -2.926534e+01 -4.871565e+02
    endloop
  endfacet
  facet normal -1.000000e+00 -9.499534e-07 4.254967e-08
    outer loop
      vertex -1.260497e+02 -2.658028e+01 -4.889694e+02
      vertex -1.260497e+02 -2.926534e+01 -4.871565e+02
      vertex -1.260497e+02 -2.649007e+01 -4.873223e+02
    endloop
  endfacet
  facet normal -1.156456e-16 -9.982204e-01 5.963267e-02
    outer loop
      vertex -2.292252e+02 -2.908203e+01 -4.840880e+02
      vertex -2.194787e+02 -2.921612e+01 -4.863327e+02
      vertex -1.274787e+02 -2.921612e+01 -4.863327e+02
    endloop
  endfacet
  facet normal -6.955094e-18 -5.963267e-02 -9.982204e-01
    outer loop
      vertex -1.274787e+02 -2.644494e+01 -4.864983e+02
      vertex -1.274787e+02 -2.921612e+01 -4.863327e+02
      vertex -2.194787e+02 -2.921612e+01 -4.863327e+02
    endloop
  endfacet
  facet normal -1.697396e-16 -9.982204e-01 5.963267e-02
    outer loop
      vertex -2.504787e+02 -2.884777e+01 -4.801667e+02
      vertex -2.292252e+02 -2.908203e+01 -4.840880e+02
      vertex -1.274787e+02 -2.921612e+01 -4.863327e+02
    endloop
  endfacet
  facet normal -5.000943e-01 -5.164016e-02 -8.644299e-01
    outer loop
      vertex -1.260497e+02 -2.649007e+01 -4.873223e+02
      vertex -1.274787e+02 -2.921612e+01 -4.863327e+02
      vertex -1.274787e+02 -2.644494e+01 -4.864983e+02
    endloop
  endfacet
  facet normal 9.112658e-16 -9.982204e-01 5.963267e-02
    outer loop
      vertex -2.292252e+02 -2.908203e+01 -4.840880e+02
      vertex -2.199333e+02 -2.921993e+01 -4.863965e+02
      vertex -2.194787e+02 -2.921612e+01 -4.863327e+02
    endloop
  endfacet
  facet normal 1.391629e-01 -5.905242e-02 -9.885072e-01
    outer loop
      vertex -2.194787e+02 -2.644494e+01 -4.864983e+02
      vertex -2.194787e+02 -2.921612e+01 -4.863327e+02
      vertex -2.199333e+02 -2.921993e+01 -4.863965e+02
    endloop
  endfacet
  facet normal -6.908407e-18 -5.963267e-02 -9.982204e-01
    outer loop
      vertex -1.274787e+02 -2.644494e+01 -4.864983e+02
      vertex -2.194787e+02 -2.921612e+01 -4.863327e+02
      vertex -2.194787e+02 -2.644494e+01 -4.864983e+02
    endloop
  endfacet
  facet normal -1.049459e-15 -9.982204e-01 5.963267e-02
    outer loop
      vertex -2.292252e+02 -2.908203e+01 -4.840880e+02
      vertex -2.203519e+02 -2.923103e+01 -4.865823e+02
      vertex -2.199333e+02 -2.921993e+01 -4.863965e+02
    endloop
  endfacet
  facet normal 4.062280e-01 -5.449068e-02 -9.121456e-01
    outer loop
      vertex -2.199333e+02 -2.644843e+01 -4.865621e+02
      vertex -2.199333e+02 -2.921993e+01 -4.863965e+02
      vertex -2.203519e+02 -2.923103e+01 -4.865823e+02
    endloop
  endfacet
  facet normal 1.391627e-01 -5.905239e-02 -9.885072e-01
    outer loop
      vertex -2.194787e+02 -2.644494e+01 -4.864983e+02
      vertex -2.199333e+02 -2.921993e+01 -4.863965e+02
      vertex -2.199333e+02 -2.644843e+01 -4.865621e+02
    endloop
  endfacet
  facet normal 0.000000e+00 -9.982204e-01 5.963267e-02
    outer loop
      vertex -2.284737e+02 -2.915962e+01 -4.853869e+02
      vertex -2.284737e+02 -2.923103e+01 -4.865823e+02
      vertex -2.203519e+02 -2.923103e+01 -4.865823e+02
    endloop
  endfacet
  facet normal 0.000000e+00 -5.963267e-02 -9.982204e-01
    outer loop
      vertex -2.203519e+02 -2.645861e+01 -4.867479e+02
      vertex -2.203519e+02 -2.923103e+01 -4.865823e+02
      vertex -2.284737e+02 -2.923103e+01 -4.865823e+02
    endloop
  endfacet
  facet normal -2.497509e-16 -9.982204e-01 5.963267e-02
    outer loop
      vertex -2.292252e+02 -2.908203e+01 -4.840880e+02
      vertex -2.284737e+02 -2.915962e+01 -4.853869e+02
      vertex -2.203519e+02 -2.923103e+01 -4.865823e+02
    endloop
  endfacet
  facet normal 4.062279e-01 -5.449066e-02 -9.121457e-01
    outer loop
      vertex -2.199333e+02 -2.644843e+01 -4.865621e+02
      vertex -2.203519e+02 -2.923103e+01 -4.865823e+02
      vertex -2.203519e+02 -2.645861e+01 -4.867479e+02
    endloop
  endfacet
  facet normal -1.000000e+00 0.000000e+00 0.000000e+00
    outer loop
      vertex -2.284737e+02 -2.639312e+01 -4.855522e+02
      vertex -2.284737e+02 -2.923103e+01 -4.865823e+02
      vertex -2.284737e+02 -2.915962e+01 -4.853869e+02
    endloop
  endfacet
  facet normal -1.000000e+00 0.000000e+00 0.000000e+00
    outer loop
      vertex -2.284737e+02 -2.645861e+01 -4.867479e+02
      vertex -2.284737e+02 -2.923103e+01 -4.865823e+02
      vertex -2.284737e+02 -2.639312e+01 -4.855522e+02
    endloop
  endfacet
  facet normal 0.000000e+00 -5.963267e-02 -9.982204e-01
    outer loop
      vertex -2.203519e+02 -2.645861e+01 -4.867479e+02
      vertex -2.284737e+02 -2.923103e+01 -4.865823e+02
      vertex -2.284737e+02 -2.645861e+01 -4.867479e+02
    endloop
  endfacet
  facet normal -8.659701e-01 -2.982204e-02 -4.992057e-01
    outer loop
      vertex -2.284737e+02 -2.639312e+01 -4.855522e+02
      vertex -2.284737e+02 -2.915962e+01 -4.853869e+02
      vertex -2.292252e+02 -2.908203e+01 -4.840880e+02
    endloop
  endfacet
  facet normal 0.000000e+00 -9.982204e-01 5.963267e-02
    outer loop
      vertex -2.504787e+02 -2.884777e+01 -4.801667e+02
      vertex -2.307273e+02 -2.908203e+01 -4.840880e+02
      vertex -2.292252e+02 -2.908203e+01 -4.840880e+02
    endloop
  endfacet
  facet normal 0.000000e+00 -5.963181e-02 -9.982204e-01
    outer loop
      vertex -2.292252e+02 -2.632196e+01 -4.842529e+02
      vertex -2.292252e+02 -2.908203e+01 -4.840880e+02
      vertex -2.307273e+02 -2.908203e+01 -4.840880e+02
    endloop
  endfacet
  facet normal -8.659693e-01 -2.982299e-02 -4.992071e-01
    outer loop
      vertex -2.284737e+02 -2.639312e+01 -4.855522e+02
      vertex -2.292252e+02 -2.908203e+01 -4.840880e+02
      vertex -2.292252e+02 -2.632196e+01 -4.842529e+02
    endloop
  endfacet
  facet normal 1.937325e-16 -9.982204e-01 5.963267e-02
    outer loop
      vertex -2.504787e+02 -2.884777e+01 -4.801667e+02
      vertex -2.314787e+02 -2.915962e+01 -4.853869e+02
      vertex -2.307273e+02 -2.908203e+01 -4.840880e+02
    endloop
  endfacet
  facet normal 8.659701e-01 -2.982292e-02 -4.992057e-01
    outer loop
      vertex -2.307273e+02 -2.632196e+01 -4.842529e+02
      vertex -2.307273e+02 -2.908203e+01 -4.840880e+02
      vertex -2.314787e+02 -2.915962e+01 -4.853869e+02
    endloop
  endfacet
  facet normal -9.464305e-09 -5.963181e-02 -9.982204e-01
    outer loop
      vertex -2.292252e+02 -2.632196e+01 -4.842529e+02
      vertex -2.307273e+02 -2.908203e+01 -4.840880e+02
      vertex -2.307273e+02 -2.632196e+01 -4.842529e+02
    endloop
  endfacet
  facet normal 2.763889e-17 -9.982204e-01 5.963267e-02
    outer loop
      vertex -2.469432e+02 -2.893510e+01 -4.816286e+02
      vertex -2.314787e+02 -2.946941e+01 -4.905727e+02
      vertex -2.314787e+02 -2.915962e+01 -4.853869e+02
    endloop
  endfacet
  facet normal 1.000000e+00 0.000000e+00 0.000000e+00
    outer loop
      vertex -2.314787e+02 -2.892960e+01 -4.880078e+02
      vertex -2.314787e+02 -2.915962e+01 -4.853869e+02
      vertex -2.314787e+02 -2.946941e+01 -4.905727e+02
    endloop
  endfacet
  facet normal -1.284450e-15 -9.982204e-01 5.963267e-02
    outer loop
      vertex -2.504787e+02 -2.884777e+01 -4.801667e+02
      vertex -2.469432e+02 -2.893510e+01 -4.816286e+02
      vertex -2.314787e+02 -2.915962e+01 -4.853869e+02
    endloop
  endfacet
  facet normal 8.659693e-01 -2.982213e-02 -4.992071e-01
    outer loop
      vertex -2.307273e+02 -2.632196e+01 -4.842529e+02
      vertex -2.314787e+02 -2.915962e+01 -4.853869e+02
      vertex -2.314787e+02 -2.639312e+01 -4.855522e+02
    endloop
  endfacet
  facet normal 1.000000e+00 0.000000e+00 0.000000e+00
    outer loop
      vertex -2.314787e+02 -2.837970e+01 -4.871653e+02
      vertex -2.314787e+02 -2.639312e+01 -4.855522e+02
      vertex -2.314787e+02 -2.915962e+01 -4.853869e+02
    endloop
  endfacet
  facet normal 1.000000e+00 0.000000e+00 0.000000e+00
    outer loop
      vertex -2.314787e+02 -2.837970e+01 -4.871653e+02
      vertex -2.314787e+02 -2.915962e+01 -4.853869e+02
      vertex -2.314787e+02 -2.892960e+01 -4.880078e+02
    endloop
  endfacet
  facet normal 1.260031e-15 -9.982204e-01 5.963267e-02
    outer loop
      vertex -2.442663e+02 -3.061016e+01 -5.096681e+02
      vertex -2.307273e+02 -2.954701e+01 -4.918716e+02
      vertex -2.314787e+02 -2.946941e+01 -4.905727e+02
    endloop
  endfacet
  facet normal 8.659701e-01 2.982204e-02 4.992057e-01
    outer loop
      vertex -2.314787e+02 -2.667723e+01 -4.907395e+02
      vertex -2.314787e+02 -2.946941e+01 -4.905727e+02
      vertex -2.307273e+02 -2.954701e+01 -4.918716e+02
    endloop
  endfacet
  facet normal -2.765851e-16 -9.982204e-01 5.963267e-02
    outer loop
      vertex -2.454787e+02 -2.914594e+01 -4.851578e+02
      vertex -2.442663e+02 -3.061016e+01 -5.096681e+02
      vertex -2.314787e+02 -2.946941e+01 -4.905727e+02
    endloop
  endfacet
  facet normal 5.877863e-17 -9.982204e-01 5.963267e-02
    outer loop
      vertex -2.469432e+02 -2.893510e+01 -4.816286e+02
      vertex -2.454787e+02 -2.914594e+01 -4.851578e+02
      vertex -2.314787e+02 -2.946941e+01 -4.905727e+02
    endloop
  endfacet
  facet normal 1.000000e+00 0.000000e+00 0.000000e+00
    outer loop
      vertex -2.314787e+02 -2.747001e+01 -4.889603e+02
      vertex -2.314787e+02 -2.946941e+01 -4.905727e+02
      vertex -2.314787e+02 -2.667723e+01 -4.907395e+02
    endloop
  endfacet
  facet normal 1.000000e+00 0.000000e+00 0.000000e+00
    outer loop
      vertex -2.314787e+02 -2.847500e+01 -4.889053e+02
      vertex -2.314787e+02 -2.892960e+01 -4.880078e+02
      vertex -2.314787e+02 -2.946941e+01 -4.905727e+02
    endloop
  endfacet
  facet normal 1.000000e+00 0.000000e+00 0.000000e+00
    outer loop
      vertex -2.314787e+02 -2.847500e+01 -4.889053e+02
      vertex -2.314787e+02 -2.946941e+01 -4.905727e+02
      vertex -2.314787e+02 -2.747001e+01 -4.889603e+02
    endloop
  endfacet
  facet normal 2.255338e-15 -9.982204e-01 5.963267e-02
    outer loop
      vertex -1.116912e+02 -3.061016e+01 -5.096681e+02
      vertex -2.292252e+02 -2.954701e+01 -4.918716e+02
      vertex -2.307273e+02 -2.954701e+01 -4.918716e+02
    endloop
  endfacet
  facet normal -1.449994e-16 5.963353e-02 9.982203e-01
    outer loop
      vertex -2.307273e+02 -2.674839e+01 -4.920388e+02
      vertex -2.307273e+02 -2.954701e+01 -4.918716e+02
      vertex -2.292252e+02 -2.954701e+01 -4.918716e+02
    endloop
  endfacet
  facet normal -1.593186e-16 -9.982204e-01 5.963267e-02
    outer loop
      vertex -2.442663e+02 -3.061016e+01 -5.096681e+02
      vertex -1.116912e+02 -3.061016e+01 -5.096681e+02
      vertex -2.307273e+02 -2.954701e+01 -4.918716e+02
    endloop
  endfacet
  facet normal 8.659693e-01 2.982127e-02 4.992072e-01
    outer loop
      vertex -2.314787e+02 -2.667723e+01 -4.907395e+02
      vertex -2.307273e+02 -2.954701e+01 -4.918716e+02
      vertex -2.307273e+02 -2.674839e+01 -4.920388e+02
    endloop
  endfacet
  facet normal -7.902598e-16 -9.982204e-01 5.963267e-02
    outer loop
      vertex -1.116912e+02 -3.061016e+01 -5.096681e+02
      vertex -2.284737e+02 -2.946941e+01 -4.905727e+02
      vertex -2.292252e+02 -2.954701e+01 -4.918716e+02
    endloop
  endfacet
  facet normal -8.659701e-01 2.982118e-02 4.992058e-01
    outer loop
      vertex -2.292252e+02 -2.674839e+01 -4.920388e+02
      vertex -2.292252e+02 -2.954701e+01 -4.918716e+02
      vertex -2.284737e+02 -2.946941e+01 -4.905727e+02
    endloop
  endfacet
  facet normal 9.464305e-09 5.963353e-02 9.982203e-01
    outer loop
      vertex -2.307273e+02 -2.674839e+01 -4.920388e+02
      vertex -2.292252e+02 -2.954701e+01 -4.918716e+02
      vertex -2.292252e+02 -2.674839e+01 -4.920388e+02
    endloop
  endfacet
  facet normal -2.286384e-16 -9.982204e-01 5.963267e-02
    outer loop
      vertex -1.116912e+02 -3.061016e+01 -5.096681e+02
      vertex -2.284737e+02 -2.939800e+01 -4.893773e+02
      vertex -2.284737e+02 -2.946941e+01 -4.905727e+02
    endloop
  endfacet
  facet normal -1.000000e+00 0.000000e+00 0.000000e+00
    outer loop
      vertex -2.284737e+02 -2.661174e+01 -4.895438e+02
      vertex -2.284737e+02 -2.946941e+01 -4.905727e+02
      vertex -2.284737e+02 -2.939800e+01 -4.893773e+02
    endloop
  endfacet
  facet normal -1.000000e+00 0.000000e+00 0.000000e+00
    outer loop
      vertex -2.284737e+02 -2.667723e+01 -4.907395e+02
      vertex -2.284737e+02 -2.946941e+01 -4.905727e+02
      vertex -2.284737e+02 -2.661174e+01 -4.895438e+02
    endloop
  endfacet
  facet normal -8.659693e-01 2.982213e-02 4.992071e-01
    outer loop
      vertex -2.292252e+02 -2.674839e+01 -4.920388e+02
      vertex -2.284737e+02 -2.946941e+01 -4.905727e+02
      vertex -2.284737e+02 -2.667723e+01 -4.907395e+02
    endloop
  endfacet
  facet normal 0.000000e+00 -9.982204e-01 5.963267e-02
    outer loop
      vertex -2.199333e+02 -2.940910e+01 -4.895631e+02
      vertex -2.203519e+02 -2.939800e+01 -4.893773e+02
      vertex -2.284737e+02 -2.939800e+01 -4.893773e+02
    endloop
  endfacet
  facet normal 0.000000e+00 5.963267e-02 9.982204e-01
    outer loop
      vertex -2.284737e+02 -2.661174e+01 -4.895438e+02
      vertex -2.284737e+02 -2.939800e+01 -4.893773e+02
      vertex -2.203519e+02 -2.939800e+01 -4.893773e+02
    endloop
  endfacet
  facet normal 1.403625e-16 -9.982204e-01 5.963267e-02
    outer loop
      vertex -1.116912e+02 -3.061016e+01 -5.096681e+02
      vertex -2.199333e+02 -2.940910e+01 -4.895631e+02
      vertex -2.284737e+02 -2.939800e+01 -4.893773e+02
    endloop
  endfacet
  facet normal 4.062280e-01 5.449065e-02 9.121456e-01
    outer loop
      vertex -2.203519e+02 -2.661174e+01 -4.895438e+02
      vertex -2.203519e+02 -2.939800e+01 -4.893773e+02
      vertex -2.199333e+02 -2.940910e+01 -4.895631e+02
    endloop
  endfacet
  facet normal 2.608512e-17 5.963267e-02 9.982204e-01
    outer loop
      vertex -2.284737e+02 -2.661174e+01 -4.895438e+02
      vertex -2.203519e+02 -2.939800e+01 -4.893773e+02
      vertex -2.203519e+02 -2.661174e+01 -4.895438e+02
    endloop
  endfacet
  facet normal 4.062279e-01 5.449063e-02 9.121457e-01
    outer loop
      vertex -2.203519e+02 -2.661174e+01 -4.895438e+02
      vertex -2.199333e+02 -2.940910e+01 -4.895631e+02
      vertex -2.199333e+02 -2.662191e+01 -4.897296e+02
    endloop
  endfacet
  facet normal -4.145731e-16 -9.982204e-01 5.963267e-02
    outer loop
      vertex -1.116912e+02 -3.061016e+01 -5.096681e+02
      vertex -1.151880e+02 -2.860565e+01 -4.761137e+02
      vertex -1.183658e+02 -2.853768e+01 -4.749760e+02
    endloop
  endfacet
  facet normal 3.376049e-01 5.613152e-02 9.396128e-01
    outer loop
      vertex -1.183658e+02 -2.718609e+01 -4.750567e+02
      vertex -1.183658e+02 -2.853768e+01 -4.749760e+02
      vertex -1.151880e+02 -2.860565e+01 -4.761137e+02
    endloop
  endfacet
  facet normal 0.000000e+00 5.963267e-02 9.982204e-01
    outer loop
      vertex -1.194787e+02 -2.718609e+01 -4.750567e+02
      vertex -1.183658e+02 -2.853768e+01 -4.749760e+02
      vertex -1.183658e+02 -2.718609e+01 -4.750567e+02
    endloop
  endfacet
  facet normal -2.073263e-15 -9.982204e-01 5.963267e-02
    outer loop
      vertex -1.116912e+02 -3.061016e+01 -5.096681e+02
      vertex -1.134590e+02 -2.877857e+01 -4.790082e+02
      vertex -1.151880e+02 -2.860565e+01 -4.761137e+02
    endloop
  endfacet
  facet normal 8.547670e-01 -6.738958e-02 5.146183e-01
    outer loop
      vertex -1.135658e+02 -2.740077e+01 -4.786503e+02
      vertex -1.151880e+02 -2.860565e+01 -4.761137e+02
      vertex -1.134590e+02 -2.877857e+01 -4.790082e+02
    endloop
  endfacet
  facet normal 8.211977e-01 8.298357e-02 5.645777e-01
    outer loop
      vertex -1.153658e+02 -2.724573e+01 -4.760549e+02
      vertex -1.151880e+02 -2.860565e+01 -4.761137e+02
      vertex -1.135658e+02 -2.740077e+01 -4.786503e+02
    endloop
  endfacet
  facet normal 3.157261e-01 2.751187e-04 9.488503e-01
    outer loop
      vertex -1.153658e+02 -2.724573e+01 -4.760549e+02
      vertex -1.183658e+02 -2.718609e+01 -4.750567e+02
      vertex -1.151880e+02 -2.860565e+01 -4.761137e+02
    endloop
  endfacet
  facet normal -9.817868e-16 -9.982204e-01 5.963267e-02
    outer loop
      vertex -1.113776e+02 -3.052762e+01 -5.082864e+02
      vertex -1.113520e+02 -2.961601e+01 -4.930266e+02
      vertex -1.134590e+02 -2.877857e+01 -4.790082e+02
    endloop
  endfacet
  facet normal 9.889319e-01 8.847715e-03 1.481062e-01
    outer loop
      vertex -1.134590e+02 -2.604366e+01 -4.791716e+02
      vertex -1.134590e+02 -2.877857e+01 -4.790082e+02
      vertex -1.113520e+02 -2.961601e+01 -4.930266e+02
    endloop
  endfacet
  facet normal 9.559412e-16 -9.982204e-01 5.963267e-02
    outer loop
      vertex -1.116912e+02 -3.061016e+01 -5.096681e+02
      vertex -1.113776e+02 -3.052762e+01 -5.082864e+02
      vertex -1.134590e+02 -2.877857e+01 -4.790082e+02
    endloop
  endfacet
  facet normal 9.660856e-01 1.166987e-02 2.579581e-01
    outer loop
      vertex -1.135074e+02 -2.603158e+01 -4.789510e+02
      vertex -1.135658e+02 -2.601963e+01 -4.787328e+02
      vertex -1.134590e+02 -2.877857e+01 -4.790082e+02
    endloop
  endfacet
  facet normal 9.716810e-01 1.409100e-02 2.358761e-01
    outer loop
      vertex -1.135658e+02 -2.740077e+01 -4.786503e+02
      vertex -1.134590e+02 -2.877857e+01 -4.790082e+02
      vertex -1.135658e+02 -2.601963e+01 -4.787328e+02
    endloop
  endfacet
  facet normal 9.767770e-01 1.277680e-02 2.138771e-01
    outer loop
      vertex -1.135074e+02 -2.603158e+01 -4.789510e+02
      vertex -1.134590e+02 -2.877857e+01 -4.790082e+02
      vertex -1.134590e+02 -2.604366e+01 -4.791716e+02
    endloop
  endfacet
  facet normal 2.334926e-15 -9.982204e-01 5.963267e-02
    outer loop
      vertex -1.113776e+02 -3.052762e+01 -5.082864e+02
      vertex -1.104986e+02 -3.046120e+01 -5.071746e+02
      vertex -1.113520e+02 -2.961601e+01 -4.930266e+02
    endloop
  endfacet
  facet normal 9.981920e-01 3.403353e-03 6.001035e-02
    outer loop
      vertex -1.113507e+02 -2.681242e+01 -4.932078e+02
      vertex -1.113520e+02 -2.961601e+01 -4.930266e+02
      vertex -1.104986e+02 -3.046120e+01 -5.071746e+02
    endloop
  endfacet
  facet normal 9.889391e-01 9.097391e-03 1.480429e-01
    outer loop
      vertex -1.134590e+02 -2.604366e+01 -4.791716e+02
      vertex -1.113520e+02 -2.961601e+01 -4.930266e+02
      vertex -1.113507e+02 -2.681242e+01 -4.932078e+02
    endloop
  endfacet
  facet normal 4.113886e-01 -8.695241e-01 -2.732898e-01
    outer loop
      vertex -1.104831e+02 -3.002390e+01 -5.085426e+02
      vertex -1.104986e+02 -3.046120e+01 -5.071746e+02
      vertex -1.113776e+02 -3.052762e+01 -5.082864e+02
    endloop
  endfacet
  facet normal 9.981990e-01 3.991798e-03 5.985705e-02
    outer loop
      vertex -1.113507e+02 -2.681242e+01 -4.932078e+02
      vertex -1.104986e+02 -3.046120e+01 -5.071746e+02
      vertex -1.104982e+02 -2.758825e+01 -5.073732e+02
    endloop
  endfacet
  facet normal 9.999332e-01 6.505925e-04 1.153716e-02
    outer loop
      vertex -1.104831e+02 -3.002390e+01 -5.085426e+02
      vertex -1.104982e+02 -2.758825e+01 -5.073732e+02
      vertex -1.104986e+02 -3.046120e+01 -5.071746e+02
    endloop
  endfacet
  facet normal 4.776734e-01 -8.767487e-01 -5.603399e-02
    outer loop
      vertex -1.104831e+02 -3.002390e+01 -5.085426e+02
      vertex -1.113776e+02 -3.052762e+01 -5.082864e+02
      vertex -1.116912e+02 -3.061016e+01 -5.096681e+02
    endloop
  endfacet
  facet normal 4.200232e-16 -5.963267e-02 -9.982204e-01
    outer loop
      vertex -1.109983e+02 -3.021087e+01 -5.096920e+02
      vertex -1.116912e+02 -3.061016e+01 -5.096681e+02
      vertex -2.442663e+02 -3.061016e+01 -5.096681e+02
    endloop
  endfacet
  facet normal 4.955639e-01 -8.647402e-01 -8.149111e-02
    outer loop
      vertex -1.104831e+02 -3.002390e+01 -5.085426e+02
      vertex -1.116912e+02 -3.061016e+01 -5.096681e+02
      vertex -1.109983e+02 -3.021087e+01 -5.096920e+02
    endloop
  endfacet
  facet normal 1.735415e-14 -9.982204e-01 5.963267e-02
    outer loop
      vertex -2.454787e+02 -2.914594e+01 -4.851578e+02
      vertex -2.445853e+02 -3.052693e+01 -5.082749e+02
      vertex -2.442663e+02 -3.061016e+01 -5.096681e+02
    endloop
  endfacet
  facet normal -4.967659e-01 -8.656641e-01 -6.204287e-02
    outer loop
      vertex -2.449591e+02 -3.021087e+01 -5.096920e+02
      vertex -2.442663e+02 -3.061016e+01 -5.096681e+02
      vertex -2.445853e+02 -3.052693e+01 -5.082749e+02
    endloop
  endfacet
  facet normal -7.907457e-18 -5.963267e-02 -9.982204e-01
    outer loop
      vertex -2.449591e+02 -3.021087e+01 -5.096920e+02
      vertex -1.109983e+02 -3.021087e+01 -5.096920e+02
      vertex -2.442663e+02 -3.061016e+01 -5.096681e+02
    endloop
  endfacet
  facet normal -2.525994e-15 -9.982204e-01 5.963267e-02
    outer loop
      vertex -2.454787e+02 -2.914594e+01 -4.851578e+02
      vertex -2.454787e+02 -3.046025e+01 -5.071587e+02
      vertex -2.445853e+02 -3.052693e+01 -5.082749e+02
    endloop
  endfacet
  facet normal -4.089636e-01 -8.700166e-01 -2.753540e-01
    outer loop
      vertex -2.454787e+02 -3.002054e+01 -5.085480e+02
      vertex -2.445853e+02 -3.052693e+01 -5.082749e+02
      vertex -2.454787e+02 -3.046025e+01 -5.071587e+02
    endloop
  endfacet
  facet normal -4.967659e-01 -8.656641e-01 -6.204287e-02
    outer loop
      vertex -2.454787e+02 -2.991140e+01 -5.097099e+02
      vertex -2.449591e+02 -3.021087e+01 -5.096920e+02
      vertex -2.445853e+02 -3.052693e+01 -5.082749e+02
    endloop
  endfacet
  facet normal -4.722420e-01 -8.776060e-01 -8.243347e-02
    outer loop
      vertex -2.454787e+02 -2.991140e+01 -5.097099e+02
      vertex -2.445853e+02 -3.052693e+01 -5.082749e+02
      vertex -2.454787e+02 -3.002054e+01 -5.085480e+02
    endloop
  endfacet
  facet normal -1.000000e+00 0.000000e+00 0.000000e+00
    outer loop
      vertex -2.454787e+02 -2.892960e+01 -4.880078e+02
      vertex -2.454787e+02 -3.046025e+01 -5.071587e+02
      vertex -2.454787e+02 -2.914594e+01 -4.851578e+02
    endloop
  endfacet
  facet normal -1.000000e+00 0.000000e+00 0.000000e+00
    outer loop
      vertex -2.454787e+02 -2.847500e+01 -4.889053e+02
      vertex -2.454787e+02 -2.758608e+01 -5.073336e+02
      vertex -2.454787e+02 -3.046025e+01 -5.071587e+02
    endloop
  endfacet
  facet normal -1.000000e+00 0.000000e+00 0.000000e+00
    outer loop
      vertex -2.454787e+02 -3.002054e+01 -5.085480e+02
      vertex -2.454787e+02 -3.046025e+01 -5.071587e+02
      vertex -2.454787e+02 -2.758608e+01 -5.073336e+02
    endloop
  endfacet
  facet normal -1.000000e+00 0.000000e+00 0.000000e+00
    outer loop
      vertex -2.454787e+02 -2.892960e+01 -4.880078e+02
      vertex -2.454787e+02 -2.847500e+01 -4.889053e+02
      vertex -2.454787e+02 -3.046025e+01 -5.071587e+02
    endloop
  endfacet
  facet normal -9.238834e-01 -2.281987e-02 -3.819930e-01
    outer loop
      vertex -2.454787e+02 -2.646072e+01 -4.853182e+02
      vertex -2.454787e+02 -2.914594e+01 -4.851578e+02
      vertex -2.469432e+02 -2.893510e+01 -4.816286e+02
    endloop
  endfacet
  facet normal -1.000000e+00 0.000000e+00 0.000000e+00
    outer loop
      vertex -2.454787e+02 -2.837970e+01 -4.871653e+02
      vertex -2.454787e+02 -2.892960e+01 -4.880078e+02
      vertex -2.454787e+02 -2.914594e+01 -4.851578e+02
    endloop
  endfacet
  facet normal -1.000000e+00 0.000000e+00 0.000000e+00
    outer loop
      vertex -2.454787e+02 -2.737471e+01 -4.872203e+02
      vertex -2.454787e+02 -2.837970e+01 -4.871653e+02
      vertex -2.454787e+02 -2.914594e+01 -4.851578e+02
    endloop
  endfacet
  facet normal -1.000000e+00 0.000000e+00 0.000000e+00
    outer loop
      vertex -2.454787e+02 -2.646072e+01 -4.853182e+02
      vertex -2.454787e+02 -2.737471e+01 -4.872203e+02
      vertex -2.454787e+02 -2.914594e+01 -4.851578e+02
    endloop
  endfacet
  facet normal -3.826740e-01 -5.514535e-02 -9.222362e-01
    outer loop
      vertex -2.469433e+02 -2.624989e+01 -4.817891e+02
      vertex -2.469432e+02 -2.893510e+01 -4.816286e+02
      vertex -2.504787e+02 -2.884777e+01 -4.801667e+02
    endloop
  endfacet
  facet normal -9.238695e-01 -2.287359e-02 -3.820235e-01
    outer loop
      vertex -2.469433e+02 -2.624989e+01 -4.817891e+02
      vertex -2.454787e+02 -2.646072e+01 -4.853182e+02
      vertex -2.469432e+02 -2.893510e+01 -4.816286e+02
    endloop
  endfacet
  facet normal -1.851275e-16 -9.982204e-01 5.963267e-02
    outer loop
      vertex -2.895622e+02 -2.881688e+01 -4.796495e+02
      vertex -2.887846e+02 -2.884777e+01 -4.801667e+02
      vertex -2.504787e+02 -2.884777e+01 -4.801667e+02
    endloop
  endfacet
  facet normal -1.077438e-17 -5.963267e-02 -9.982204e-01
    outer loop
      vertex -2.504787e+02 -2.616256e+01 -4.803271e+02
      vertex -2.504787e+02 -2.884777e+01 -4.801667e+02
      vertex -2.887846e+02 -2.884777e+01 -4.801667e+02
    endloop
  endfacet
  facet normal -3.018833e-16 -9.982204e-01 5.963267e-02
    outer loop
      vertex -2.904787e+02 -2.880603e+01 -4.794680e+02
      vertex -2.895622e+02 -2.881688e+01 -4.796495e+02
      vertex -2.504787e+02 -2.884777e+01 -4.801667e+02
    endloop
  endfacet
  facet normal -3.827076e-01 -5.509281e-02 -9.222254e-01
    outer loop
      vertex -2.469433e+02 -2.624989e+01 -4.817891e+02
      vertex -2.504787e+02 -2.884777e+01 -4.801667e+02
      vertex -2.504787e+02 -2.616256e+01 -4.803271e+02
    endloop
  endfacet
  facet normal -5.544871e-01 -4.962585e-02 -8.307113e-01
    outer loop
      vertex -2.887846e+02 -2.616256e+01 -4.803271e+02
      vertex -2.887846e+02 -2.884777e+01 -4.801667e+02
      vertex -2.895622e+02 -2.881688e+01 -4.796495e+02
    endloop
  endfacet
  facet normal -5.530685e-18 -5.963267e-02 -9.982204e-01
    outer loop
      vertex -2.504787e+02 -2.616256e+01 -4.803271e+02
      vertex -2.887846e+02 -2.884777e+01 -4.801667e+02
      vertex -2.887846e+02 -2.616256e+01 -4.803271e+02
    endloop
  endfacet
  facet normal -1.946646e-01 -5.849189e-02 -9.791243e-01
    outer loop
      vertex -2.895622e+02 -2.613166e+01 -4.798100e+02
      vertex -2.895622e+02 -2.881688e+01 -4.796495e+02
      vertex -2.904787e+02 -2.880603e+01 -4.794680e+02
    endloop
  endfacet
  facet normal -5.544871e-01 -4.962585e-02 -8.307113e-01
    outer loop
      vertex -2.895622e+02 -2.613166e+01 -4.798100e+02
      vertex -2.887846e+02 -2.616256e+01 -4.803271e+02
      vertex -2.895622e+02 -2.881688e+01 -4.796495e+02
    endloop
  endfacet
  facet normal -1.946646e-01 -5.849189e-02 -9.791243e-01
    outer loop
      vertex -2.895622e+02 -2.613166e+01 -4.798100e+02
      vertex -2.904787e+02 -2.880603e+01 -4.794680e+02
      vertex -2.904787e+02 -2.612082e+01 -4.796284e+02
    endloop
  endfacet
  facet normal -1.325271e-16 -9.982204e-01 5.963267e-02
    outer loop
      vertex -1.109983e+02 -3.098057e+01 -5.225764e+02
      vertex -1.109983e+02 -3.021087e+01 -5.096920e+02
      vertex -2.449591e+02 -3.021087e+01 -5.096920e+02
    endloop
  endfacet
  facet normal 5.000000e-01 -8.644842e-01 5.164341e-02
    outer loop
      vertex -1.104787e+02 -2.991140e+01 -5.097099e+02
      vertex -1.109983e+02 -3.021087e+01 -5.096920e+02
      vertex -1.109983e+02 -3.098057e+01 -5.225764e+02
    endloop
  endfacet
  facet normal 4.955639e-01 -8.647402e-01 -8.149111e-02
    outer loop
      vertex -1.104831e+02 -3.002390e+01 -5.085426e+02
      vertex -1.109983e+02 -3.021087e+01 -5.096920e+02
      vertex -1.104787e+02 -2.991140e+01 -5.097099e+02
    endloop
  endfacet
  facet normal -1.079570e-16 -9.982204e-01 5.963267e-02
    outer loop
      vertex -2.449591e+02 -3.206019e+01 -5.406486e+02
      vertex -1.135590e+02 -3.206019e+01 -5.406486e+02
      vertex -2.449591e+02 -3.021087e+01 -5.096920e+02
    endloop
  endfacet
  facet normal 8.377019e-15 -9.982204e-01 5.963267e-02
    outer loop
      vertex -1.134797e+02 -3.204766e+01 -5.404389e+02
      vertex -2.449591e+02 -3.021087e+01 -5.096920e+02
      vertex -1.135590e+02 -3.206019e+01 -5.406486e+02
    endloop
  endfacet
  facet normal -5.000000e-01 -8.644842e-01 5.164341e-02
    outer loop
      vertex -2.454787e+02 -3.176063e+01 -5.406651e+02
      vertex -2.449591e+02 -3.206019e+01 -5.406486e+02
      vertex -2.449591e+02 -3.021087e+01 -5.096920e+02
    endloop
  endfacet
  facet normal -1.922736e-17 -9.982204e-01 5.963267e-02
    outer loop
      vertex -1.119649e+02 -3.150966e+01 -5.314330e+02
      vertex -1.109983e+02 -3.098057e+01 -5.225764e+02
      vertex -2.449591e+02 -3.021087e+01 -5.096920e+02
    endloop
  endfacet
  facet normal -1.860985e-16 -9.982204e-01 5.963267e-02
    outer loop
      vertex -1.134245e+02 -3.203467e+01 -5.402216e+02
      vertex -1.119649e+02 -3.150966e+01 -5.314330e+02
      vertex -2.449591e+02 -3.021087e+01 -5.096920e+02
    endloop
  endfacet
  facet normal -8.145976e-15 -9.982204e-01 5.963267e-02
    outer loop
      vertex -1.134797e+02 -3.204766e+01 -5.404389e+02
      vertex -1.134245e+02 -3.203467e+01 -5.402216e+02
      vertex -2.449591e+02 -3.021087e+01 -5.096920e+02
    endloop
  endfacet
  facet normal -5.000000e-01 -8.644842e-01 5.164341e-02
    outer loop
      vertex -2.454787e+02 -2.991140e+01 -5.097099e+02
      vertex -2.454787e+02 -3.176063e+01 -5.406651e+02
      vertex -2.449591e+02 -3.021087e+01 -5.096920e+02
    endloop
  endfacet
  facet normal -5.938898e-18 -5.468753e-02 -9.985035e-01
    outer loop
      vertex -1.135564e+02 -3.087047e+01 -5.407138e+02
      vertex -1.135590e+02 -3.206019e+01 -5.406486e+02
      vertex -2.449591e+02 -3.206019e+01 -5.406486e+02
    endloop
  endfacet
  facet normal 9.356432e-01 -2.134195e-02 -3.523016e-01
    outer loop
      vertex -1.135564e+02 -3.087047e+01 -5.407138e+02
      vertex -1.134797e+02 -3.204766e+01 -5.404389e+02
      vertex -1.135590e+02 -3.206019e+01 -5.406486e+02
    endloop
  endfacet
  facet normal -7.383157e-18 -5.468753e-02 -9.985035e-01
    outer loop
      vertex -2.451323e+02 -3.087047e+01 -5.407138e+02
      vertex -1.135564e+02 -3.087047e+01 -5.407138e+02
      vertex -2.449591e+02 -3.206019e+01 -5.406486e+02
    endloop
  endfacet
  facet normal 1.683924e-13 -5.468753e-02 -9.985035e-01
    outer loop
      vertex -2.454787e+02 -3.176063e+01 -5.406651e+02
      vertex -2.451323e+02 -3.087047e+01 -5.407138e+02
      vertex -2.449591e+02 -3.206019e+01 -5.406486e+02
    endloop
  endfacet
  facet normal 9.939972e-01 -2.206803e-02 -1.071572e-01
    outer loop
      vertex -1.111215e+02 -2.890745e+01 -5.241453e+02
      vertex -1.109983e+02 -3.098057e+01 -5.225764e+02
      vertex -1.119649e+02 -3.150966e+01 -5.314330e+02
    endloop
  endfacet
  facet normal 9.976990e-01 8.326152e-03 -6.728598e-02
    outer loop
      vertex -1.106388e+02 -2.875798e+01 -5.169707e+02
      vertex -1.109983e+02 -3.098057e+01 -5.225764e+02
      vertex -1.111215e+02 -2.890745e+01 -5.241453e+02
    endloop
  endfacet
  facet normal 5.000000e-01 -8.644842e-01 5.164341e-02
    outer loop
      vertex -1.104787e+02 -2.991140e+01 -5.097099e+02
      vertex -1.109983e+02 -3.098057e+01 -5.225764e+02
      vertex -1.106081e+02 -3.037102e+01 -5.161507e+02
    endloop
  endfacet
  facet normal 9.981620e-01 -1.127081e-02 -5.954563e-02
    outer loop
      vertex -1.106388e+02 -2.875798e+01 -5.169707e+02
      vertex -1.106081e+02 -3.037102e+01 -5.161507e+02
      vertex -1.109983e+02 -3.098057e+01 -5.225764e+02
    endloop
  endfacet
  facet normal 9.864990e-01 -1.815026e-02 -1.627582e-01
    outer loop
      vertex -1.120648e+02 -2.935295e+01 -5.322794e+02
      vertex -1.119649e+02 -3.150966e+01 -5.314330e+02
      vertex -1.134245e+02 -3.203467e+01 -5.402216e+02
    endloop
  endfacet
  facet normal 9.933362e-01 8.110512e-04 -1.152501e-01
    outer loop
      vertex -1.111215e+02 -2.890745e+01 -5.241453e+02
      vertex -1.119649e+02 -3.150966e+01 -5.314330e+02
      vertex -1.120648e+02 -2.935295e+01 -5.322794e+02
    endloop
  endfacet
  facet normal 9.693136e-01 -1.465935e-02 -2.453900e-01
    outer loop
      vertex -1.134245e+02 -2.979526e+01 -5.403553e+02
      vertex -1.134245e+02 -3.203467e+01 -5.402216e+02
      vertex -1.134797e+02 -3.204766e+01 -5.404389e+02
    endloop
  endfacet
  facet normal 9.861618e-01 -9.886254e-03 -1.654908e-01
    outer loop
      vertex -1.120648e+02 -2.935295e+01 -5.322794e+02
      vertex -1.134245e+02 -3.203467e+01 -5.402216e+02
      vertex -1.134245e+02 -2.979526e+01 -5.403553e+02
    endloop
  endfacet
  facet normal 9.492180e-01 -1.160703e-02 -3.144048e-01
    outer loop
      vertex -1.134245e+02 -2.979526e+01 -5.403553e+02
      vertex -1.134797e+02 -3.204766e+01 -5.404389e+02
      vertex -1.135564e+02 -3.087047e+01 -5.407138e+02
    endloop
  endfacet
  facet normal -1.348479e-16 -9.985035e-01 5.468753e-02
    outer loop
      vertex -1.142941e+02 -3.091808e+01 -5.415831e+02
      vertex -1.135564e+02 -3.087047e+01 -5.407138e+02
      vertex -2.451323e+02 -3.087047e+01 -5.407138e+02
    endloop
  endfacet
  facet normal 7.619174e-01 -8.688060e-02 -6.418205e-01
    outer loop
      vertex -1.141158e+02 -2.985877e+01 -5.415148e+02
      vertex -1.135564e+02 -3.087047e+01 -5.407138e+02
      vertex -1.142941e+02 -3.091808e+01 -5.415831e+02
    endloop
  endfacet
  facet normal 8.554388e-01 6.631987e-02 -5.136400e-01
    outer loop
      vertex -1.134245e+02 -2.979526e+01 -5.403553e+02
      vertex -1.135564e+02 -3.087047e+01 -5.407138e+02
      vertex -1.141158e+02 -2.985877e+01 -5.415148e+02
    endloop
  endfacet
  facet normal -1.684509e-13 -5.468753e-02 -9.985035e-01
    outer loop
      vertex -2.454787e+02 -3.176063e+01 -5.406651e+02
      vertex -2.454787e+02 -3.067077e+01 -5.407247e+02
      vertex -2.451323e+02 -3.087047e+01 -5.407138e+02
    endloop
  endfacet
  facet normal -5.000000e-01 -8.647294e-01 4.736079e-02
    outer loop
      vertex -2.454787e+02 -3.070889e+01 -5.414207e+02
      vertex -2.451323e+02 -3.087047e+01 -5.407138e+02
      vertex -2.454787e+02 -3.067077e+01 -5.407247e+02
    endloop
  endfacet
  facet normal -1.861434e-16 -9.985035e-01 5.468753e-02
    outer loop
      vertex -1.153877e+02 -3.093588e+01 -5.419081e+02
      vertex -1.142941e+02 -3.091808e+01 -5.415831e+02
      vertex -2.451323e+02 -3.087047e+01 -5.407138e+02
    endloop
  endfacet
  facet normal -1.094951e-16 -9.985035e-01 5.468753e-02
    outer loop
      vertex -2.449787e+02 -3.093588e+01 -5.419081e+02
      vertex -1.153877e+02 -3.093588e+01 -5.419081e+02
      vertex -2.451323e+02 -3.087047e+01 -5.407138e+02
    endloop
  endfacet
  facet normal 1.845502e-14 -9.985035e-01 5.468753e-02
    outer loop
      vertex -2.450565e+02 -3.093555e+01 -5.419020e+02
      vertex -2.449787e+02 -3.093588e+01 -5.419081e+02
      vertex -2.451323e+02 -3.087047e+01 -5.407138e+02
    endloop
  endfacet
  facet normal -2.678593e-15 -9.985035e-01 5.468753e-02
    outer loop
      vertex -2.451323e+02 -3.093456e+01 -5.418839e+02
      vertex -2.450565e+02 -3.093555e+01 -5.419020e+02
      vertex -2.451323e+02 -3.087047e+01 -5.407138e+02
    endloop
  endfacet
  facet normal -5.000000e-01 -8.647294e-01 4.736079e-02
    outer loop
      vertex -2.453886e+02 -3.077649e+01 -5.417036e+02
      vertex -2.451323e+02 -3.093456e+01 -5.418839e+02
      vertex -2.451323e+02 -3.087047e+01 -5.407138e+02
    endloop
  endfacet
  facet normal -5.000000e-01 -8.647294e-01 4.736079e-02
    outer loop
      vertex -2.453886e+02 -3.077649e+01 -5.417036e+02
      vertex -2.451323e+02 -3.087047e+01 -5.407138e+02
      vertex -2.454787e+02 -3.070889e+01 -5.414207e+02
    endloop
  endfacet
  facet normal -1.000000e+00 0.000000e+00 0.000000e+00
    outer loop
      vertex -2.454787e+02 -2.991140e+01 -5.097099e+02
      vertex -2.454787e+02 -3.067077e+01 -5.407247e+02
      vertex -2.454787e+02 -3.176063e+01 -5.406651e+02
    endloop
  endfacet
  facet normal -1.000000e+00 0.000000e+00 0.000000e+00
    outer loop
      vertex -2.454787e+02 -3.032360e+01 -5.414438e+02
      vertex -2.454787e+02 -3.067077e+01 -5.407247e+02
      vertex -2.454787e+02 -2.991140e+01 -5.097099e+02
    endloop
  endfacet
  facet normal -1.000000e+00 0.000000e+00 0.000000e+00
    outer loop
      vertex -2.454787e+02 -3.032360e+01 -5.414438e+02
      vertex -2.454787e+02 -3.070889e+01 -5.414207e+02
      vertex -2.454787e+02 -3.067077e+01 -5.407247e+02
    endloop
  endfacet
  facet normal 2.846375e-01 1.382692e-02 -9.585355e-01
    outer loop
      vertex -1.141158e+02 -2.985877e+01 -5.415148e+02
      vertex -1.142941e+02 -3.091808e+01 -5.415831e+02
      vertex -1.153877e+02 -3.093588e+01 -5.419081e+02
    endloop
  endfacet
  facet normal -6.604086e-18 -5.963267e-02 -9.982204e-01
    outer loop
      vertex -1.153877e+02 -2.988374e+01 -5.419709e+02
      vertex -1.153877e+02 -3.093588e+01 -5.419081e+02
      vertex -2.449787e+02 -3.093588e+01 -5.419081e+02
    endloop
  endfacet
  facet normal 3.379838e-01 -5.612341e-02 -9.394770e-01
    outer loop
      vertex -1.141158e+02 -2.985877e+01 -5.415148e+02
      vertex -1.153877e+02 -3.093588e+01 -5.419081e+02
      vertex -1.153877e+02 -2.988374e+01 -5.419709e+02
    endloop
  endfacet
  facet normal -7.799524e-02 -5.945102e-02 -9.951795e-01
    outer loop
      vertex -2.449787e+02 -3.006525e+01 -5.419601e+02
      vertex -2.449787e+02 -3.093588e+01 -5.419081e+02
      vertex -2.450565e+02 -3.093555e+01 -5.419020e+02
    endloop
  endfacet
  facet normal -6.555205e-18 -5.963267e-02 -9.982204e-01
    outer loop
      vertex -2.446638e+02 -2.988374e+01 -5.419709e+02
      vertex -1.153877e+02 -2.988374e+01 -5.419709e+02
      vertex -2.449787e+02 -3.093588e+01 -5.419081e+02
    endloop
  endfacet
  facet normal 2.662231e-13 -5.963267e-02 -9.982204e-01
    outer loop
      vertex -2.449787e+02 -3.006525e+01 -5.419601e+02
      vertex -2.446638e+02 -2.988374e+01 -5.419709e+02
      vertex -2.449787e+02 -3.093588e+01 -5.419081e+02
    endloop
  endfacet
  facet normal -2.320127e-01 -4.412702e-02 -9.717113e-01
    outer loop
      vertex -2.449787e+02 -3.006525e+01 -5.419601e+02
      vertex -2.450565e+02 -3.093555e+01 -5.419020e+02
      vertex -2.451323e+02 -3.093456e+01 -5.418839e+02
    endloop
  endfacet
  facet normal -2.140168e-01 -4.765305e-02 -9.756669e-01
    outer loop
      vertex -2.451824e+02 -3.018007e+01 -5.419098e+02
      vertex -2.449787e+02 -3.006525e+01 -5.419601e+02
      vertex -2.451323e+02 -3.093456e+01 -5.418839e+02
    endloop
  endfacet
  facet normal -6.016115e-01 -6.724664e-02 -7.959532e-01
    outer loop
      vertex -2.453886e+02 -3.077649e+01 -5.417036e+02
      vertex -2.451824e+02 -3.018007e+01 -5.419098e+02
      vertex -2.451323e+02 -3.093456e+01 -5.418839e+02
    endloop
  endfacet
  facet normal 1.092393e-16 9.985035e-01 -5.468753e-02
    outer loop
      vertex -1.109984e+02 -2.812274e+01 -5.098178e+02
      vertex -1.153877e+02 -2.988374e+01 -5.419709e+02
      vertex -2.446638e+02 -2.988374e+01 -5.419709e+02
    endloop
  endfacet
  facet normal -1.459340e-15 9.985035e-01 -5.468753e-02
    outer loop
      vertex -1.109984e+02 -2.812274e+01 -5.098178e+02
      vertex -1.141158e+02 -2.985877e+01 -5.415148e+02
      vertex -1.153877e+02 -2.988374e+01 -5.419709e+02
    endloop
  endfacet
  facet normal -5.000000e-01 8.644842e-01 -5.164341e-02
    outer loop
      vertex -2.451824e+02 -3.018007e+01 -5.419098e+02
      vertex -2.446638e+02 -2.988374e+01 -5.419709e+02
      vertex -2.449787e+02 -3.006525e+01 -5.419601e+02
    endloop
  endfacet
  facet normal 1.059385e-16 9.985035e-01 -5.468753e-02
    outer loop
      vertex -2.449401e+02 -2.812274e+01 -5.098178e+02
      vertex -1.109984e+02 -2.812274e+01 -5.098178e+02
      vertex -2.446638e+02 -2.988374e+01 -5.419709e+02
    endloop
  endfacet
  facet normal -5.000000e-01 8.644842e-01 -5.164341e-02
    outer loop
      vertex -2.454787e+02 -2.843312e+01 -5.097982e+02
      vertex -2.449401e+02 -2.812274e+01 -5.098178e+02
      vertex -2.446638e+02 -2.988374e+01 -5.419709e+02
    endloop
  endfacet
  facet normal -5.000000e-01 8.644842e-01 -5.164341e-02
    outer loop
      vertex -2.454787e+02 -2.843312e+01 -5.097982e+02
      vertex -2.446638e+02 -2.988374e+01 -5.419709e+02
      vertex -2.454787e+02 -3.032360e+01 -5.414438e+02
    endloop
  endfacet
  facet normal -5.000000e-01 8.644842e-01 -5.164341e-02
    outer loop
      vertex -2.453440e+02 -3.026630e+01 -5.417892e+02
      vertex -2.454787e+02 -3.032360e+01 -5.414438e+02
      vertex -2.446638e+02 -2.988374e+01 -5.419709e+02
    endloop
  endfacet
  facet normal -5.000000e-01 8.644842e-01 -5.164341e-02
    outer loop
      vertex -2.451824e+02 -3.018007e+01 -5.419098e+02
      vertex -2.453440e+02 -3.026630e+01 -5.417892e+02
      vertex -2.446638e+02 -2.988374e+01 -5.419709e+02
    endloop
  endfacet
  facet normal 3.489782e-15 9.985035e-01 -5.468753e-02
    outer loop
      vertex -1.109984e+02 -2.812274e+01 -5.098178e+02
      vertex -1.134245e+02 -2.979526e+01 -5.403553e+02
      vertex -1.141158e+02 -2.985877e+01 -5.415148e+02
    endloop
  endfacet
  facet normal -1.941321e-15 9.985035e-01 -5.468753e-02
    outer loop
      vertex -1.109984e+02 -2.812274e+01 -5.098178e+02
      vertex -1.120648e+02 -2.935295e+01 -5.322794e+02
      vertex -1.134245e+02 -2.979526e+01 -5.403553e+02
    endloop
  endfacet
  facet normal -8.503610e-16 9.985035e-01 -5.468753e-02
    outer loop
      vertex -1.109984e+02 -2.812274e+01 -5.098178e+02
      vertex -1.111215e+02 -2.890745e+01 -5.241453e+02
      vertex -1.120648e+02 -2.935295e+01 -5.322794e+02
    endloop
  endfacet
  facet normal 5.000000e-01 8.644842e-01 -5.164341e-02
    outer loop
      vertex -1.106388e+02 -2.875798e+01 -5.169707e+02
      vertex -1.111215e+02 -2.890745e+01 -5.241453e+02
      vertex -1.109984e+02 -2.812274e+01 -5.098178e+02
    endloop
  endfacet
  facet normal -5.795721e-18 -5.468753e-02 -9.985035e-01
    outer loop
      vertex -1.116912e+02 -2.772334e+01 -5.098397e+02
      vertex -1.109984e+02 -2.812274e+01 -5.098178e+02
      vertex -2.449401e+02 -2.812274e+01 -5.098178e+02
    endloop
  endfacet
  facet normal 5.000000e-01 8.644832e-01 -5.166068e-02
    outer loop
      vertex -1.104787e+02 -2.842214e+01 -5.097988e+02
      vertex -1.109984e+02 -2.812274e+01 -5.098178e+02
      vertex -1.116912e+02 -2.772334e+01 -5.098397e+02
    endloop
  endfacet
  facet normal 5.000000e-01 8.644842e-01 -5.164341e-02
    outer loop
      vertex -1.106388e+02 -2.875798e+01 -5.169707e+02
      vertex -1.109984e+02 -2.812274e+01 -5.098178e+02
      vertex -1.104787e+02 -2.842214e+01 -5.097988e+02
    endloop
  endfacet
  facet normal -5.862851e-18 -5.468753e-02 -9.985035e-01
    outer loop
      vertex -2.442472e+02 -2.772334e+01 -5.098397e+02
      vertex -1.116912e+02 -2.772334e+01 -5.098397e+02
      vertex -2.449401e+02 -2.812274e+01 -5.098178e+02
    endloop
  endfacet
  facet normal -5.000000e-01 8.644832e-01 -5.166085e-02
    outer loop
      vertex -2.454787e+02 -2.843312e+01 -5.097982e+02
      vertex -2.442472e+02 -2.772334e+01 -5.098397e+02
      vertex -2.449401e+02 -2.812274e+01 -5.098178e+02
    endloop
  endfacet
  facet normal 1.067986e-16 9.985035e-01 -5.468753e-02
    outer loop
      vertex -1.274787e+02 -2.662541e+01 -4.897934e+02
      vertex -1.116912e+02 -2.772334e+01 -5.098397e+02
      vertex -2.442472e+02 -2.772334e+01 -5.098397e+02
    endloop
  endfacet
  facet normal -2.182257e-16 9.985035e-01 -5.468753e-02
    outer loop
      vertex -1.274787e+02 -2.662541e+01 -4.897934e+02
      vertex -1.260497e+02 -2.658028e+01 -4.889694e+02
      vertex -1.116912e+02 -2.772334e+01 -5.098397e+02
    endloop
  endfacet
  facet normal 1.934359e-16 9.985035e-01 -5.468753e-02
    outer loop
      vertex -1.134590e+02 -2.604366e+01 -4.791716e+02
      vertex -1.116912e+02 -2.772334e+01 -5.098397e+02
      vertex -1.260497e+02 -2.658028e+01 -4.889694e+02
    endloop
  endfacet
  facet normal 1.827415e-15 9.985035e-01 -5.468753e-02
    outer loop
      vertex -1.113507e+02 -2.681242e+01 -4.932078e+02
      vertex -1.113714e+02 -2.764847e+01 -5.084728e+02
      vertex -1.116912e+02 -2.772334e+01 -5.098397e+02
    endloop
  endfacet
  facet normal 4.968056e-01 8.524349e-01 -1.629078e-01
    outer loop
      vertex -1.104787e+02 -2.842214e+01 -5.097988e+02
      vertex -1.116912e+02 -2.772334e+01 -5.098397e+02
      vertex -1.113714e+02 -2.764847e+01 -5.084728e+02
    endloop
  endfacet
  facet normal -1.780670e-16 9.985035e-01 -5.468753e-02
    outer loop
      vertex -1.134590e+02 -2.604366e+01 -4.791716e+02
      vertex -1.113507e+02 -2.681242e+01 -4.932078e+02
      vertex -1.116912e+02 -2.772334e+01 -5.098397e+02
    endloop
  endfacet
  facet normal -4.976795e-16 9.985035e-01 -5.468753e-02
    outer loop
      vertex -2.199333e+02 -2.662191e+01 -4.897296e+02
      vertex -2.194787e+02 -2.662541e+01 -4.897934e+02
      vertex -2.442472e+02 -2.772334e+01 -5.098397e+02
    endloop
  endfacet
  facet normal 1.156760e-16 9.985035e-01 -5.468753e-02
    outer loop
      vertex -1.274787e+02 -2.662541e+01 -4.897934e+02
      vertex -2.442472e+02 -2.772334e+01 -5.098397e+02
      vertex -2.194787e+02 -2.662541e+01 -4.897934e+02
    endloop
  endfacet
  facet normal 4.562580e-16 9.985035e-01 -5.468753e-02
    outer loop
      vertex -2.203519e+02 -2.661174e+01 -4.895438e+02
      vertex -2.199333e+02 -2.662191e+01 -4.897296e+02
      vertex -2.442472e+02 -2.772334e+01 -5.098397e+02
    endloop
  endfacet
  facet normal 2.686942e-16 9.985035e-01 -5.468753e-02
    outer loop
      vertex -2.292252e+02 -2.674839e+01 -4.920388e+02
      vertex -2.203519e+02 -2.661174e+01 -4.895438e+02
      vertex -2.442472e+02 -2.772334e+01 -5.098397e+02
    endloop
  endfacet
  facet normal 3.318487e-16 9.985035e-01 -5.468753e-02
    outer loop
      vertex -2.307273e+02 -2.674839e+01 -4.920388e+02
      vertex -2.292252e+02 -2.674839e+01 -4.920388e+02
      vertex -2.442472e+02 -2.772334e+01 -5.098397e+02
    endloop
  endfacet
  facet normal -1.182231e-15 9.985035e-01 -5.468753e-02
    outer loop
      vertex -2.314787e+02 -2.667723e+01 -4.907395e+02
      vertex -2.307273e+02 -2.674839e+01 -4.920388e+02
      vertex -2.442472e+02 -2.772334e+01 -5.098397e+02
    endloop
  endfacet
  facet normal -1.472861e-16 9.985035e-01 -5.468753e-02
    outer loop
      vertex -2.314787e+02 -2.639312e+01 -4.855522e+02
      vertex -2.314787e+02 -2.667723e+01 -4.907395e+02
      vertex -2.442472e+02 -2.772334e+01 -5.098397e+02
    endloop
  endfacet
  facet normal 2.628134e-15 9.985035e-01 -5.468753e-02
    outer loop
      vertex -2.445777e+02 -2.764704e+01 -5.084466e+02
      vertex -2.314787e+02 -2.639312e+01 -4.855522e+02
      vertex -2.442472e+02 -2.772334e+01 -5.098397e+02
    endloop
  endfacet
  facet normal -4.790214e-01 8.629310e-01 -1.608994e-01
    outer loop
      vertex -2.454787e+02 -2.818663e+01 -5.086581e+02
      vertex -2.445777e+02 -2.764704e+01 -5.084466e+02
      vertex -2.442472e+02 -2.772334e+01 -5.098397e+02
    endloop
  endfacet
  facet normal -4.955139e-01 8.489834e-01 -1.835569e-01
    outer loop
      vertex -2.454787e+02 -2.818663e+01 -5.086581e+02
      vertex -2.442472e+02 -2.772334e+01 -5.098397e+02
      vertex -2.454787e+02 -2.843312e+01 -5.097982e+02
    endloop
  endfacet
  facet normal 4.366256e-16 9.985035e-01 -5.468753e-02
    outer loop
      vertex -2.284737e+02 -2.667723e+01 -4.907395e+02
      vertex -2.284737e+02 -2.661174e+01 -4.895438e+02
      vertex -2.203519e+02 -2.661174e+01 -4.895438e+02
    endloop
  endfacet
  facet normal -1.492743e-16 9.985035e-01 -5.468753e-02
    outer loop
      vertex -2.292252e+02 -2.674839e+01 -4.920388e+02
      vertex -2.284737e+02 -2.667723e+01 -4.907395e+02
      vertex -2.203519e+02 -2.661174e+01 -4.895438e+02
    endloop
  endfacet
  facet normal 1.000000e+00 0.000000e+00 0.000000e+00
    outer loop
      vertex -2.314787e+02 -2.692011e+01 -4.881178e+02
      vertex -2.314787e+02 -2.667723e+01 -4.907395e+02
      vertex -2.314787e+02 -2.639312e+01 -4.855522e+02
    endloop
  endfacet
  facet normal 1.000000e+00 0.000000e+00 0.000000e+00
    outer loop
      vertex -2.314787e+02 -2.747001e+01 -4.889603e+02
      vertex -2.314787e+02 -2.667723e+01 -4.907395e+02
      vertex -2.314787e+02 -2.692011e+01 -4.881178e+02
    endloop
  endfacet
  facet normal 2.141243e-14 9.985035e-01 -5.468753e-02
    outer loop
      vertex -2.454787e+02 -2.758608e+01 -5.073336e+02
      vertex -2.307273e+02 -2.632196e+01 -4.842529e+02
      vertex -2.314787e+02 -2.639312e+01 -4.855522e+02
    endloop
  endfacet
  facet normal -5.604586e-16 9.985035e-01 -5.468753e-02
    outer loop
      vertex -2.445777e+02 -2.764704e+01 -5.084466e+02
      vertex -2.454787e+02 -2.758608e+01 -5.073336e+02
      vertex -2.314787e+02 -2.639312e+01 -4.855522e+02
    endloop
  endfacet
  facet normal 1.000000e+00 0.000000e+00 0.000000e+00
    outer loop
      vertex -2.314787e+02 -2.737471e+01 -4.872203e+02
      vertex -2.314787e+02 -2.692011e+01 -4.881178e+02
      vertex -2.314787e+02 -2.639312e+01 -4.855522e+02
    endloop
  endfacet
  facet normal 1.000000e+00 0.000000e+00 0.000000e+00
    outer loop
      vertex -2.314787e+02 -2.737471e+01 -4.872203e+02
      vertex -2.314787e+02 -2.639312e+01 -4.855522e+02
      vertex -2.314787e+02 -2.837970e+01 -4.871653e+02
    endloop
  endfacet
  facet normal -2.032237e-15 9.985035e-01 -5.468753e-02
    outer loop
      vertex -1.135658e+02 -2.601963e+01 -4.787328e+02
      vertex -2.292252e+02 -2.632196e+01 -4.842529e+02
      vertex -2.307273e+02 -2.632196e+01 -4.842529e+02
    endloop
  endfacet
  facet normal 1.075679e-16 9.985035e-01 -5.468753e-02
    outer loop
      vertex -2.454787e+02 -2.601963e+01 -4.787328e+02
      vertex -1.135658e+02 -2.601963e+01 -4.787328e+02
      vertex -2.307273e+02 -2.632196e+01 -4.842529e+02
    endloop
  endfacet
  facet normal 8.408085e-17 9.985035e-01 -5.468753e-02
    outer loop
      vertex -2.454787e+02 -2.758608e+01 -5.073336e+02
      vertex -2.454787e+02 -2.601963e+01 -4.787328e+02
      vertex -2.307273e+02 -2.632196e+01 -4.842529e+02
    endloop
  endfacet
  facet normal 3.015000e-16 9.985035e-01 -5.468753e-02
    outer loop
      vertex -1.135658e+02 -2.601963e+01 -4.787328e+02
      vertex -2.284737e+02 -2.639312e+01 -4.855522e+02
      vertex -2.292252e+02 -2.632196e+01 -4.842529e+02
    endloop
  endfacet
  facet normal -6.777333e-17 9.985035e-01 -5.468753e-02
    outer loop
      vertex -1.135658e+02 -2.601963e+01 -4.787328e+02
      vertex -2.284737e+02 -2.645861e+01 -4.867479e+02
      vertex -2.284737e+02 -2.639312e+01 -4.855522e+02
    endloop
  endfacet
  facet normal 0.000000e+00 9.985035e-01 -5.468753e-02
    outer loop
      vertex -2.199333e+02 -2.644843e+01 -4.865621e+02
      vertex -2.203519e+02 -2.645861e+01 -4.867479e+02
      vertex -2.284737e+02 -2.645861e+01 -4.867479e+02
    endloop
  endfacet
  facet normal 9.337892e-17 9.985035e-01 -5.468753e-02
    outer loop
      vertex -2.194787e+02 -2.644494e+01 -4.864983e+02
      vertex -2.199333e+02 -2.644843e+01 -4.865621e+02
      vertex -2.284737e+02 -2.645861e+01 -4.867479e+02
    endloop
  endfacet
  facet normal 4.800807e-16 9.985035e-01 -5.468753e-02
    outer loop
      vertex -1.135658e+02 -2.601963e+01 -4.787328e+02
      vertex -2.194787e+02 -2.644494e+01 -4.864983e+02
      vertex -2.284737e+02 -2.645861e+01 -4.867479e+02
    endloop
  endfacet
  facet normal 1.154457e-16 9.985035e-01 -5.468753e-02
    outer loop
      vertex -1.135658e+02 -2.601963e+01 -4.787328e+02
      vertex -1.274787e+02 -2.644494e+01 -4.864983e+02
      vertex -2.194787e+02 -2.644494e+01 -4.864983e+02
    endloop
  endfacet
  facet normal -4.127423e-16 9.985035e-01 -5.468753e-02
    outer loop
      vertex -1.135658e+02 -2.601963e+01 -4.787328e+02
      vertex -1.260497e+02 -2.649007e+01 -4.873223e+02
      vertex -1.274787e+02 -2.644494e+01 -4.864983e+02
    endloop
  endfacet
  facet normal 3.881741e-16 9.985035e-01 -5.468753e-02
    outer loop
      vertex -1.135658e+02 -2.601963e+01 -4.787328e+02
      vertex -1.260497e+02 -2.658028e+01 -4.889694e+02
      vertex -1.260497e+02 -2.649007e+01 -4.873223e+02
    endloop
  endfacet
  facet normal 6.382538e-16 9.985035e-01 -5.468753e-02
    outer loop
      vertex -1.135074e+02 -2.603158e+01 -4.789510e+02
      vertex -1.260497e+02 -2.658028e+01 -4.889694e+02
      vertex -1.135658e+02 -2.601963e+01 -4.787328e+02
    endloop
  endfacet
  facet normal 1.576388e-15 9.985035e-01 -5.468753e-02
    outer loop
      vertex -1.135074e+02 -2.603158e+01 -4.789510e+02
      vertex -1.134590e+02 -2.604366e+01 -4.791716e+02
      vertex -1.260497e+02 -2.658028e+01 -4.889694e+02
    endloop
  endfacet
  facet normal 6.463081e-18 5.963267e-02 9.982204e-01
    outer loop
      vertex -1.135658e+02 -2.740077e+01 -4.786503e+02
      vertex -1.135658e+02 -2.601963e+01 -4.787328e+02
      vertex -2.454787e+02 -2.601963e+01 -4.787328e+02
    endloop
  endfacet
  facet normal -1.000000e+00 0.000000e+00 0.000000e+00
    outer loop
      vertex -2.454787e+02 -2.606715e+01 -4.787300e+02
      vertex -2.454787e+02 -2.601963e+01 -4.787328e+02
      vertex -2.454787e+02 -2.758608e+01 -5.073336e+02
    endloop
  endfacet
  facet normal -5.959157e-15 5.963267e-02 9.982204e-01
    outer loop
      vertex -2.454787e+02 -2.606715e+01 -4.787300e+02
      vertex -1.135658e+02 -2.740077e+01 -4.786503e+02
      vertex -2.454787e+02 -2.601963e+01 -4.787328e+02
    endloop
  endfacet
  facet normal -4.092245e-01 8.310054e-01 -3.767829e-01
    outer loop
      vertex -2.454787e+02 -2.818663e+01 -5.086581e+02
      vertex -2.454787e+02 -2.758608e+01 -5.073336e+02
      vertex -2.445777e+02 -2.764704e+01 -5.084466e+02
    endloop
  endfacet
  facet normal -1.000000e+00 0.000000e+00 0.000000e+00
    outer loop
      vertex -2.454787e+02 -2.646072e+01 -4.853182e+02
      vertex -2.454787e+02 -2.606715e+01 -4.787300e+02
      vertex -2.454787e+02 -2.758608e+01 -5.073336e+02
    endloop
  endfacet
  facet normal -1.000000e+00 0.000000e+00 0.000000e+00
    outer loop
      vertex -2.454787e+02 -2.747001e+01 -4.889603e+02
      vertex -2.454787e+02 -2.692011e+01 -4.881178e+02
      vertex -2.454787e+02 -2.758608e+01 -5.073336e+02
    endloop
  endfacet
  facet normal -1.000000e+00 0.000000e+00 0.000000e+00
    outer loop
      vertex -2.454787e+02 -2.646072e+01 -4.853182e+02
      vertex -2.454787e+02 -2.758608e+01 -5.073336e+02
      vertex -2.454787e+02 -2.692011e+01 -4.881178e+02
    endloop
  endfacet
  facet normal -1.000000e+00 0.000000e+00 0.000000e+00
    outer loop
      vertex -2.454787e+02 -2.847500e+01 -4.889053e+02
      vertex -2.454787e+02 -2.747001e+01 -4.889603e+02
      vertex -2.454787e+02 -2.758608e+01 -5.073336e+02
    endloop
  endfacet
  facet normal -1.000000e+00 0.000000e+00 0.000000e+00
    outer loop
      vertex -2.454787e+02 -2.818663e+01 -5.086581e+02
      vertex -2.454787e+02 -3.002054e+01 -5.085480e+02
      vertex -2.454787e+02 -2.758608e+01 -5.073336e+02
    endloop
  endfacet
  facet normal -1.332911e-15 9.985035e-01 -5.468753e-02
    outer loop
      vertex -1.113507e+02 -2.681242e+01 -4.932078e+02
      vertex -1.104982e+02 -2.758825e+01 -5.073732e+02
      vertex -1.113714e+02 -2.764847e+01 -5.084728e+02
    endloop
  endfacet
  facet normal 4.124726e-01 8.310653e-01 -3.730909e-01
    outer loop
      vertex -1.104830e+02 -2.817561e+01 -5.086648e+02
      vertex -1.113714e+02 -2.764847e+01 -5.084728e+02
      vertex -1.104982e+02 -2.758825e+01 -5.073732e+02
    endloop
  endfacet
  facet normal 4.714332e-01 8.621397e-01 -1.856498e-01
    outer loop
      vertex -1.104787e+02 -2.842214e+01 -5.097988e+02
      vertex -1.113714e+02 -2.764847e+01 -5.084728e+02
      vertex -1.104830e+02 -2.817561e+01 -5.086648e+02
    endloop
  endfacet
  facet normal 9.999346e-01 7.081880e-04 1.141721e-02
    outer loop
      vertex -1.104830e+02 -2.817561e+01 -5.086648e+02
      vertex -1.104982e+02 -2.758825e+01 -5.073732e+02
      vertex -1.104831e+02 -3.002390e+01 -5.085426e+02
    endloop
  endfacet
  facet normal 9.258083e-17 9.982204e-01 -5.963267e-02
    outer loop
      vertex -2.504787e+02 -2.616256e+01 -4.803271e+02
      vertex -2.887846e+02 -2.616256e+01 -4.803271e+02
      vertex -2.454787e+02 -2.606715e+01 -4.787300e+02
    endloop
  endfacet
  facet normal 3.316898e-16 9.982204e-01 -5.963267e-02
    outer loop
      vertex -2.895622e+02 -2.613166e+01 -4.798100e+02
      vertex -2.454787e+02 -2.606715e+01 -4.787300e+02
      vertex -2.887846e+02 -2.616256e+01 -4.803271e+02
    endloop
  endfacet
  facet normal 9.836757e-17 9.982204e-01 -5.963267e-02
    outer loop
      vertex -2.469433e+02 -2.624989e+01 -4.817891e+02
      vertex -2.504787e+02 -2.616256e+01 -4.803271e+02
      vertex -2.454787e+02 -2.606715e+01 -4.787300e+02
    endloop
  endfacet
  facet normal 1.401277e-15 9.982204e-01 -5.963267e-02
    outer loop
      vertex -2.469433e+02 -2.624989e+01 -4.817891e+02
      vertex -2.454787e+02 -2.606715e+01 -4.787300e+02
      vertex -2.454787e+02 -2.646072e+01 -4.853182e+02
    endloop
  endfacet
  facet normal -8.856489e-18 9.982204e-01 -5.963267e-02
    outer loop
      vertex -2.895622e+02 -2.613166e+01 -4.798100e+02
      vertex -2.904787e+02 -2.612082e+01 -4.796284e+02
      vertex -2.454787e+02 -2.606715e+01 -4.787300e+02
    endloop
  endfacet
  facet normal 0.000000e+00 9.982204e-01 -5.963267e-02
    outer loop
      vertex -1.194787e+02 -2.724298e+01 -4.760090e+02
      vertex -1.194787e+02 -2.718609e+01 -4.750567e+02
      vertex -1.183658e+02 -2.718609e+01 -4.750567e+02
    endloop
  endfacet
  facet normal 7.839210e-16 9.982204e-01 -5.963267e-02
    outer loop
      vertex -1.153658e+02 -2.724573e+01 -4.760549e+02
      vertex -1.194787e+02 -2.724298e+01 -4.760090e+02
      vertex -1.183658e+02 -2.718609e+01 -4.750567e+02
    endloop
  endfacet
  facet normal 1.000000e+00 0.000000e+00 0.000000e+00
    outer loop
      vertex -1.194787e+02 -2.587492e+01 -4.760908e+02
      vertex -1.194787e+02 -2.718609e+01 -4.750567e+02
      vertex -1.194787e+02 -2.724298e+01 -4.760090e+02
    endloop
  endfacet
  facet normal 1.000000e+00 0.000000e+00 0.000000e+00
    outer loop
      vertex -1.194787e+02 -2.582275e+01 -4.751382e+02
      vertex -1.194787e+02 -2.718609e+01 -4.750567e+02
      vertex -1.194787e+02 -2.587492e+01 -4.760908e+02
    endloop
  endfacet
  facet normal -2.125040e-16 -8.374038e-01 5.465848e-01
    outer loop
      vertex -2.314787e+02 -2.692011e+01 -4.881178e+02
      vertex -2.454787e+02 -2.692011e+01 -4.881178e+02
      vertex -2.454787e+02 -2.747001e+01 -4.889603e+02
    endloop
  endfacet
  facet normal -1.000000e+00 0.000000e+00 0.000000e+00
    outer loop
      vertex -2.454787e+02 -2.646072e+01 -4.853182e+02
      vertex -2.454787e+02 -2.692011e+01 -4.881178e+02
      vertex -2.454787e+02 -2.737471e+01 -4.872203e+02
    endloop
  endfacet
  facet normal -2.263810e-16 -8.920881e-01 -4.518614e-01
    outer loop
      vertex -2.314787e+02 -2.737471e+01 -4.872203e+02
      vertex -2.454787e+02 -2.737471e+01 -4.872203e+02
      vertex -2.454787e+02 -2.692011e+01 -4.881178e+02
    endloop
  endfacet
  facet normal -2.285882e-16 -8.920881e-01 -4.518614e-01
    outer loop
      vertex -2.314787e+02 -2.737471e+01 -4.872203e+02
      vertex -2.454787e+02 -2.692011e+01 -4.881178e+02
      vertex -2.314787e+02 -2.692011e+01 -4.881178e+02
    endloop
  endfacet
  facet normal 0.000000e+00 5.468753e-02 9.985035e-01
    outer loop
      vertex -2.314787e+02 -2.747001e+01 -4.889603e+02
      vertex -2.454787e+02 -2.747001e+01 -4.889603e+02
      vertex -2.454787e+02 -2.847500e+01 -4.889053e+02
    endloop
  endfacet
  facet normal 0.000000e+00 -8.374038e-01 5.465848e-01
    outer loop
      vertex -2.314787e+02 -2.747001e+01 -4.889603e+02
      vertex -2.314787e+02 -2.692011e+01 -4.881178e+02
      vertex -2.454787e+02 -2.747001e+01 -4.889603e+02
    endloop
  endfacet
  facet normal 2.263810e-16 8.920881e-01 4.518614e-01
    outer loop
      vertex -2.314787e+02 -2.847500e+01 -4.889053e+02
      vertex -2.454787e+02 -2.847500e+01 -4.889053e+02
      vertex -2.454787e+02 -2.892960e+01 -4.880078e+02
    endloop
  endfacet
  facet normal 1.387780e-17 5.468753e-02 9.985035e-01
    outer loop
      vertex -2.314787e+02 -2.847500e+01 -4.889053e+02
      vertex -2.314787e+02 -2.747001e+01 -4.889603e+02
      vertex -2.454787e+02 -2.847500e+01 -4.889053e+02
    endloop
  endfacet
  facet normal 2.125040e-16 8.374038e-01 -5.465848e-01
    outer loop
      vertex -2.314787e+02 -2.892960e+01 -4.880078e+02
      vertex -2.454787e+02 -2.892960e+01 -4.880078e+02
      vertex -2.454787e+02 -2.837970e+01 -4.871653e+02
    endloop
  endfacet
  facet normal 2.246470e-16 8.920881e-01 4.518614e-01
    outer loop
      vertex -2.314787e+02 -2.847500e+01 -4.889053e+02
      vertex -2.454787e+02 -2.892960e+01 -4.880078e+02
      vertex -2.314787e+02 -2.892960e+01 -4.880078e+02
    endloop
  endfacet
  facet normal -1.387780e-17 -5.468753e-02 -9.985035e-01
    outer loop
      vertex -2.314787e+02 -2.837970e+01 -4.871653e+02
      vertex -2.454787e+02 -2.837970e+01 -4.871653e+02
      vertex -2.454787e+02 -2.737471e+01 -4.872203e+02
    endloop
  endfacet
  facet normal 2.125040e-16 8.374038e-01 -5.465848e-01
    outer loop
      vertex -2.314787e+02 -2.837970e+01 -4.871653e+02
      vertex -2.314787e+02 -2.892960e+01 -4.880078e+02
      vertex -2.454787e+02 -2.837970e+01 -4.871653e+02
    endloop
  endfacet
  facet normal -1.387780e-17 -5.468753e-02 -9.985035e-01
    outer loop
      vertex -2.314787e+02 -2.737471e+01 -4.872203e+02
      vertex -2.314787e+02 -2.837970e+01 -4.871653e+02
      vertex -2.454787e+02 -2.737471e+01 -4.872203e+02
    endloop
  endfacet
  facet normal -1.000000e+00 0.000000e+00 0.000000e+00
    outer loop
      vertex -2.454787e+02 -2.843312e+01 -5.097982e+02
      vertex -2.454787e+02 -2.991140e+01 -5.097099e+02
      vertex -2.454787e+02 -3.002054e+01 -5.085480e+02
    endloop
  endfacet
  facet normal -1.000000e+00 0.000000e+00 0.000000e+00
    outer loop
      vertex -2.454787e+02 -2.818663e+01 -5.086581e+02
      vertex -2.454787e+02 -2.843312e+01 -5.097982e+02
      vertex -2.454787e+02 -3.002054e+01 -5.085480e+02
    endloop
  endfacet
  facet normal -1.000000e+00 0.000000e+00 0.000000e+00
    outer loop
      vertex -2.454787e+02 -2.843312e+01 -5.097982e+02
      vertex -2.454787e+02 -3.032360e+01 -5.414438e+02
      vertex -2.454787e+02 -2.991140e+01 -5.097099e+02
    endloop
  endfacet
  facet normal -9.301907e-01 -2.188976e-02 -3.664233e-01
    outer loop
      vertex -2.453440e+02 -3.026630e+01 -5.417892e+02
      vertex -2.454787e+02 -3.070889e+01 -5.414207e+02
      vertex -2.454787e+02 -3.032360e+01 -5.414438e+02
    endloop
  endfacet
  facet normal -9.501732e-01 3.102651e-02 -3.101745e-01
    outer loop
      vertex -2.453886e+02 -3.077649e+01 -5.417036e+02
      vertex -2.454787e+02 -3.070889e+01 -5.414207e+02
      vertex -2.453440e+02 -3.026630e+01 -5.417892e+02
    endloop
  endfacet
  facet normal 9.997992e-01 -1.194896e-03 -2.000194e-02
    outer loop
      vertex -1.104787e+02 -2.842214e+01 -5.097988e+02
      vertex -1.104787e+02 -2.991140e+01 -5.097099e+02
      vertex -1.106081e+02 -3.037102e+01 -5.161507e+02
    endloop
  endfacet
  facet normal 9.997148e-01 7.506226e-03 -2.266991e-02
    outer loop
      vertex -1.106388e+02 -2.875798e+01 -5.169707e+02
      vertex -1.104787e+02 -2.842214e+01 -5.097988e+02
      vertex -1.106081e+02 -3.037102e+01 -5.161507e+02
    endloop
  endfacet
  facet normal 9.999929e-01 2.014185e-04 3.755157e-03
    outer loop
      vertex -1.104830e+02 -2.817561e+01 -5.086648e+02
      vertex -1.104831e+02 -3.002390e+01 -5.085426e+02
      vertex -1.104787e+02 -2.991140e+01 -5.097099e+02
    endloop
  endfacet
  facet normal 9.999931e-01 2.222612e-04 3.720538e-03
    outer loop
      vertex -1.104787e+02 -2.842214e+01 -5.097988e+02
      vertex -1.104830e+02 -2.817561e+01 -5.086648e+02
      vertex -1.104787e+02 -2.991140e+01 -5.097099e+02
    endloop
  endfacet
  facet normal -5.650298e-01 -8.831991e-02 -8.203298e-01
    outer loop
      vertex -2.453886e+02 -3.077649e+01 -5.417036e+02
      vertex -2.453440e+02 -3.026630e+01 -5.417892e+02
      vertex -2.451824e+02 -3.018007e+01 -5.419098e+02
    endloop
  endfacet
endsolid 150_100022596-16
