solid 154_100022596-17
  facet normal -1.000000e+00 0.000000e+00 0.000000e+00
    outer loop
      vertex -3.154787e+02 -3.837885e+01 -4.794560e+02
      vertex -3.154787e+02 -3.562585e+01 -4.787726e+02
      vertex -3.154787e+02 -3.569735e+01 -4.796697e+02
    endloop
  endfacet
  facet normal 2.023705e-16 9.968391e-01 -7.944732e-02
    outer loop
      vertex -2.454787e+02 -3.562585e+01 -4.787726e+02
      vertex -3.154787e+02 -3.569735e+01 -4.796697e+02
      vertex -3.154787e+02 -3.562585e+01 -4.787726e+02
    endloop
  endfacet
  facet normal 0.000000e+00 -7.944732e-02 -9.968391e-01
    outer loop
      vertex -2.904787e+02 -3.569735e+01 -4.796697e+02
      vertex -3.154787e+02 -3.837885e+01 -4.794560e+02
      vertex -3.154787e+02 -3.569735e+01 -4.796697e+02
    endloop
  endfacet
  facet normal 0.000000e+00 9.968391e-01 -7.944732e-02
    outer loop
      vertex -2.904787e+02 -3.569735e+01 -4.796697e+02
      vertex -3.154787e+02 -3.569735e+01 -4.796697e+02
      vertex -2.454787e+02 -3.562585e+01 -4.787726e+02
    endloop
  endfacet
  facet normal -1.000000e+00 0.000000e+00 0.000000e+00
    outer loop
      vertex -3.154787e+02 -3.837885e+01 -4.794560e+02
      vertex -3.154787e+02 -3.695763e+01 -4.786664e+02
      vertex -3.154787e+02 -3.562585e+01 -4.787726e+02
    endloop
  endfacet
  facet normal 8.387387e-18 7.944732e-02 9.968391e-01
    outer loop
      vertex -1.135658e+02 -3.695763e+01 -4.786664e+02
      vertex -3.154787e+02 -3.562585e+01 -4.787726e+02
      vertex -3.154787e+02 -3.695763e+01 -4.786664e+02
    endloop
  endfacet
  facet normal 1.612878e-17 7.944732e-02 9.968391e-01
    outer loop
      vertex -2.454787e+02 -3.562585e+01 -4.787726e+02
      vertex -3.154787e+02 -3.562585e+01 -4.787726e+02
      vertex -1.135658e+02 -3.695763e+01 -4.786664e+02
    endloop
  endfacet
  facet normal -1.000000e+00 0.000000e+00 0.000000e+00
    outer loop
      vertex -3.154787e+02 -3.802134e+01 -4.749702e+02
      vertex -3.154787e+02 -3.674741e+01 -4.760288e+02
      vertex -3.154787e+02 -3.695763e+01 -4.786664e+02
    endloop
  endfacet
  facet normal 1.084128e-16 9.968391e-01 -7.944732e-02
    outer loop
      vertex -1.194787e+02 -3.674741e+01 -4.760288e+02
      vertex -3.154787e+02 -3.695763e+01 -4.786664e+02
      vertex -3.154787e+02 -3.674741e+01 -4.760288e+02
    endloop
  endfacet
  facet normal -1.000000e+00 0.000000e+00 0.000000e+00
    outer loop
      vertex -3.154787e+02 -3.837885e+01 -4.794560e+02
      vertex -3.154787e+02 -3.802134e+01 -4.749702e+02
      vertex -3.154787e+02 -3.695763e+01 -4.786664e+02
    endloop
  endfacet
  facet normal 1.051064e-16 9.968391e-01 -7.944732e-02
    outer loop
      vertex -1.153658e+02 -3.675106e+01 -4.760746e+02
      vertex -1.135658e+02 -3.695763e+01 -4.786664e+02
      vertex -3.154787e+02 -3.695763e+01 -4.786664e+02
    endloop
  endfacet
  facet normal 3.931716e-17 9.968391e-01 -7.944732e-02
    outer loop
      vertex -1.153658e+02 -3.675106e+01 -4.760746e+02
      vertex -3.154787e+02 -3.695763e+01 -4.786664e+02
      vertex -1.194787e+02 -3.674741e+01 -4.760288e+02
    endloop
  endfacet
  facet normal -1.000000e+00 0.000000e+00 0.000000e+00
    outer loop
      vertex -3.154787e+02 -3.531016e+01 -4.751863e+02
      vertex -3.154787e+02 -3.538124e+01 -4.761377e+02
      vertex -3.154787e+02 -3.674741e+01 -4.760288e+02
    endloop
  endfacet
  facet normal -1.152055e-17 -7.944732e-02 -9.968391e-01
    outer loop
      vertex -1.194787e+02 -3.538124e+01 -4.761377e+02
      vertex -3.154787e+02 -3.674741e+01 -4.760288e+02
      vertex -3.154787e+02 -3.538124e+01 -4.761377e+02
    endloop
  endfacet
  facet normal -1.000000e+00 0.000000e+00 0.000000e+00
    outer loop
      vertex -3.154787e+02 -3.802134e+01 -4.749702e+02
      vertex -3.154787e+02 -3.531016e+01 -4.751863e+02
      vertex -3.154787e+02 -3.674741e+01 -4.760288e+02
    endloop
  endfacet
  facet normal -8.679499e-18 -7.944732e-02 -9.968391e-01
    outer loop
      vertex -1.194787e+02 -3.538124e+01 -4.761377e+02
      vertex -1.194787e+02 -3.674741e+01 -4.760288e+02
      vertex -3.154787e+02 -3.674741e+01 -4.760288e+02
    endloop
  endfacet
  facet normal 1.446056e-16 9.972204e-01 -7.450878e-02
    outer loop
      vertex -1.194787e+02 -3.531016e+01 -4.751863e+02
      vertex -3.154787e+02 -3.538124e+01 -4.761377e+02
      vertex -3.154787e+02 -3.531016e+01 -4.751863e+02
    endloop
  endfacet
  facet normal 1.445771e-16 9.972204e-01 -7.450878e-02
    outer loop
      vertex -1.194787e+02 -3.531016e+01 -4.751863e+02
      vertex -1.194787e+02 -3.538124e+01 -4.761377e+02
      vertex -3.154787e+02 -3.538124e+01 -4.761377e+02
    endloop
  endfacet
  facet normal 8.591632e-18 7.944732e-02 9.968391e-01
    outer loop
      vertex -1.183658e+02 -3.802134e+01 -4.749702e+02
      vertex -3.154787e+02 -3.531016e+01 -4.751863e+02
      vertex -3.154787e+02 -3.802134e+01 -4.749702e+02
    endloop
  endfacet
  facet normal -1.312758e-16 7.944732e-02 9.968391e-01
    outer loop
      vertex -1.194787e+02 -3.667162e+01 -4.750778e+02
      vertex -3.154787e+02 -3.531016e+01 -4.751863e+02
      vertex -1.183658e+02 -3.802134e+01 -4.749702e+02
    endloop
  endfacet
  facet normal 1.152055e-17 7.944732e-02 9.968391e-01
    outer loop
      vertex -1.194787e+02 -3.531016e+01 -4.751863e+02
      vertex -3.154787e+02 -3.531016e+01 -4.751863e+02
      vertex -1.194787e+02 -3.667162e+01 -4.750778e+02
    endloop
  endfacet
  facet normal 0.000000e+00 -9.968391e-01 7.944732e-02
    outer loop
      vertex -2.904787e+02 -3.837885e+01 -4.794560e+02
      vertex -3.154787e+02 -3.802134e+01 -4.749702e+02
      vertex -3.154787e+02 -3.837885e+01 -4.794560e+02
    endloop
  endfacet
  facet normal -1.074493e-16 -9.968391e-01 7.944732e-02
    outer loop
      vertex -2.504787e+02 -3.843446e+01 -4.801538e+02
      vertex -1.183658e+02 -3.802134e+01 -4.749702e+02
      vertex -3.154787e+02 -3.802134e+01 -4.749702e+02
    endloop
  endfacet
  facet normal -1.620926e-16 -9.968391e-01 7.944732e-02
    outer loop
      vertex -2.904787e+02 -3.837885e+01 -4.794560e+02
      vertex -2.504787e+02 -3.843446e+01 -4.801538e+02
      vertex -3.154787e+02 -3.802134e+01 -4.749702e+02
    endloop
  endfacet
  facet normal 0.000000e+00 -7.944732e-02 -9.968391e-01
    outer loop
      vertex -2.904787e+02 -3.569735e+01 -4.796697e+02
      vertex -2.904787e+02 -3.837885e+01 -4.794560e+02
      vertex -3.154787e+02 -3.837885e+01 -4.794560e+02
    endloop
  endfacet
  facet normal -7.849615e-17 -9.968391e-01 7.944732e-02
    outer loop
      vertex -1.116912e+02 -4.078245e+01 -5.096144e+02
      vertex -1.274787e+02 -3.994213e+01 -4.990708e+02
      vertex -2.194787e+02 -3.994213e+01 -4.990708e+02
    endloop
  endfacet
  facet normal 5.949823e-18 7.944732e-02 9.968391e-01
    outer loop
      vertex -2.194787e+02 -3.711158e+01 -4.992964e+02
      vertex -2.194787e+02 -3.994213e+01 -4.990708e+02
      vertex -1.274787e+02 -3.994213e+01 -4.990708e+02
    endloop
  endfacet
  facet normal 2.095754e-16 -9.968391e-01 7.944732e-02
    outer loop
      vertex -2.199333e+02 -3.993706e+01 -4.990071e+02
      vertex -2.284737e+02 -3.992227e+01 -4.988216e+02
      vertex -2.194787e+02 -3.994213e+01 -4.990708e+02
    endloop
  endfacet
  facet normal -2.083910e-16 -9.968391e-01 7.944732e-02
    outer loop
      vertex -1.116912e+02 -4.078245e+01 -5.096144e+02
      vertex -2.194787e+02 -3.994213e+01 -4.990708e+02
      vertex -2.284737e+02 -3.992227e+01 -4.988216e+02
    endloop
  endfacet
  facet normal 1.391629e-01 7.867428e-02 9.871393e-01
    outer loop
      vertex -2.199333e+02 -3.710682e+01 -4.992327e+02
      vertex -2.199333e+02 -3.993706e+01 -4.990071e+02
      vertex -2.194787e+02 -3.994213e+01 -4.990708e+02
    endloop
  endfacet
  facet normal 1.391627e-01 7.867426e-02 9.871394e-01
    outer loop
      vertex -2.199333e+02 -3.710682e+01 -4.992327e+02
      vertex -2.194787e+02 -3.994213e+01 -4.990708e+02
      vertex -2.194787e+02 -3.711158e+01 -4.992964e+02
    endloop
  endfacet
  facet normal -1.767334e-15 -9.968391e-01 7.944732e-02
    outer loop
      vertex -1.116912e+02 -4.078245e+01 -5.096144e+02
      vertex -1.260497e+02 -3.987657e+01 -4.982482e+02
      vertex -1.274787e+02 -3.994213e+01 -4.990708e+02
    endloop
  endfacet
  facet normal -5.000957e-01 6.879901e-02 8.632329e-01
    outer loop
      vertex -1.274787e+02 -3.711158e+01 -4.992964e+02
      vertex -1.274787e+02 -3.994213e+01 -4.990708e+02
      vertex -1.260497e+02 -3.987657e+01 -4.982482e+02
    endloop
  endfacet
  facet normal 1.227189e-17 7.944732e-02 9.968391e-01
    outer loop
      vertex -1.274787e+02 -3.711158e+01 -4.992964e+02
      vertex -2.194787e+02 -3.711158e+01 -4.992964e+02
      vertex -1.274787e+02 -3.994213e+01 -4.990708e+02
    endloop
  endfacet
  facet normal 3.224996e-15 -9.968391e-01 7.944732e-02
    outer loop
      vertex -1.116912e+02 -4.078245e+01 -5.096144e+02
      vertex -1.260497e+02 -3.974552e+01 -4.966039e+02
      vertex -1.260497e+02 -3.987657e+01 -4.982482e+02
    endloop
  endfacet
  facet normal -1.000000e+00 -9.238456e-07 7.362979e-08
    outer loop
      vertex -1.260497e+02 -3.705009e+01 -4.984734e+02
      vertex -1.260497e+02 -3.987657e+01 -4.982482e+02
      vertex -1.260497e+02 -3.974552e+01 -4.966039e+02
    endloop
  endfacet
  facet normal -5.000943e-01 6.880000e-02 8.632336e-01
    outer loop
      vertex -1.274787e+02 -3.711158e+01 -4.992964e+02
      vertex -1.260497e+02 -3.987657e+01 -4.982482e+02
      vertex -1.260497e+02 -3.705009e+01 -4.984734e+02
    endloop
  endfacet
  facet normal 2.472886e-15 -9.968391e-01 7.944732e-02
    outer loop
      vertex -1.183658e+02 -3.802134e+01 -4.749702e+02
      vertex -1.274787e+02 -3.967996e+01 -4.957812e+02
      vertex -1.260497e+02 -3.974552e+01 -4.966039e+02
    endloop
  endfacet
  facet normal -5.000957e-01 -6.879807e-02 -8.632329e-01
    outer loop
      vertex -1.260497e+02 -3.692719e+01 -4.968285e+02
      vertex -1.260497e+02 -3.974552e+01 -4.966039e+02
      vertex -1.274787e+02 -3.967996e+01 -4.957812e+02
    endloop
  endfacet
  facet normal -4.657582e-16 -9.968391e-01 7.944732e-02
    outer loop
      vertex -1.116912e+02 -4.078245e+01 -5.096144e+02
      vertex -1.183658e+02 -3.802134e+01 -4.749702e+02
      vertex -1.260497e+02 -3.974552e+01 -4.966039e+02
    endloop
  endfacet
  facet normal -1.000000e+00 -9.331399e-07 6.022992e-08
    outer loop
      vertex -1.260497e+02 -3.705009e+01 -4.984734e+02
      vertex -1.260497e+02 -3.974552e+01 -4.966039e+02
      vertex -1.260497e+02 -3.692719e+01 -4.968285e+02
    endloop
  endfacet
  facet normal -1.535141e-16 -9.968391e-01 7.944732e-02
    outer loop
      vertex -2.469432e+02 -3.855081e+01 -4.816136e+02
      vertex -2.194787e+02 -3.967996e+01 -4.957812e+02
      vertex -1.274787e+02 -3.967996e+01 -4.957812e+02
    endloop
  endfacet
  facet normal -1.239599e-17 -7.944732e-02 -9.968391e-01
    outer loop
      vertex -1.274787e+02 -3.686570e+01 -4.960055e+02
      vertex -1.274787e+02 -3.967996e+01 -4.957812e+02
      vertex -2.194787e+02 -3.967996e+01 -4.957812e+02
    endloop
  endfacet
  facet normal -1.235250e-16 -9.968391e-01 7.944732e-02
    outer loop
      vertex -2.504787e+02 -3.843446e+01 -4.801538e+02
      vertex -1.274787e+02 -3.967996e+01 -4.957812e+02
      vertex -1.183658e+02 -3.802134e+01 -4.749702e+02
    endloop
  endfacet
  facet normal 3.561300e-17 -9.968391e-01 7.944732e-02
    outer loop
      vertex -2.504787e+02 -3.843446e+01 -4.801538e+02
      vertex -2.469432e+02 -3.855081e+01 -4.816136e+02
      vertex -1.274787e+02 -3.967996e+01 -4.957812e+02
    endloop
  endfacet
  facet normal -5.000943e-01 -6.879907e-02 -8.632337e-01
    outer loop
      vertex -1.260497e+02 -3.692719e+01 -4.968285e+02
      vertex -1.274787e+02 -3.967996e+01 -4.957812e+02
      vertex -1.274787e+02 -3.686570e+01 -4.960055e+02
    endloop
  endfacet
  facet normal 9.082177e-15 -9.968391e-01 7.944732e-02
    outer loop
      vertex -2.469432e+02 -3.855081e+01 -4.816136e+02
      vertex -2.199333e+02 -3.968503e+01 -4.958449e+02
      vertex -2.194787e+02 -3.967996e+01 -4.957812e+02
    endloop
  endfacet
  facet normal 1.391629e-01 -7.867426e-02 -9.871393e-01
    outer loop
      vertex -2.194787e+02 -3.686570e+01 -4.960055e+02
      vertex -2.194787e+02 -3.967996e+01 -4.957812e+02
      vertex -2.199333e+02 -3.968503e+01 -4.958449e+02
    endloop
  endfacet
  facet normal -1.227189e-17 -7.944732e-02 -9.968391e-01
    outer loop
      vertex -1.274787e+02 -3.686570e+01 -4.960055e+02
      vertex -2.194787e+02 -3.967996e+01 -4.957812e+02
      vertex -2.194787e+02 -3.686570e+01 -4.960055e+02
    endloop
  endfacet
  facet normal -4.842769e-15 -9.968391e-01 7.944732e-02
    outer loop
      vertex -2.469432e+02 -3.855081e+01 -4.816136e+02
      vertex -2.203519e+02 -3.969982e+01 -4.960304e+02
      vertex -2.199333e+02 -3.968503e+01 -4.958449e+02
    endloop
  endfacet
  facet normal 4.062280e-01 -7.259674e-02 -9.108834e-01
    outer loop
      vertex -2.199333e+02 -3.687046e+01 -4.960692e+02
      vertex -2.199333e+02 -3.968503e+01 -4.958449e+02
      vertex -2.203519e+02 -3.969982e+01 -4.960304e+02
    endloop
  endfacet
  facet normal 1.391627e-01 -7.867423e-02 -9.871394e-01
    outer loop
      vertex -2.194787e+02 -3.686570e+01 -4.960055e+02
      vertex -2.199333e+02 -3.968503e+01 -4.958449e+02
      vertex -2.199333e+02 -3.687046e+01 -4.960692e+02
    endloop
  endfacet
  facet normal 0.000000e+00 -9.968391e-01 7.944732e-02
    outer loop
      vertex -2.284737e+02 -3.960468e+01 -4.948367e+02
      vertex -2.284737e+02 -3.969982e+01 -4.960304e+02
      vertex -2.203519e+02 -3.969982e+01 -4.960304e+02
    endloop
  endfacet
  facet normal 0.000000e+00 -7.944732e-02 -9.968391e-01
    outer loop
      vertex -2.203519e+02 -3.688433e+01 -4.962548e+02
      vertex -2.203519e+02 -3.969982e+01 -4.960304e+02
      vertex -2.284737e+02 -3.969982e+01 -4.960304e+02
    endloop
  endfacet
  facet normal -6.889680e-17 -9.968391e-01 7.944732e-02
    outer loop
      vertex -2.292252e+02 -3.950130e+01 -4.935396e+02
      vertex -2.284737e+02 -3.960468e+01 -4.948367e+02
      vertex -2.203519e+02 -3.969982e+01 -4.960304e+02
    endloop
  endfacet
  facet normal 0.000000e+00 -9.968391e-01 7.944732e-02
    outer loop
      vertex -2.469432e+02 -3.855081e+01 -4.816136e+02
      vertex -2.292252e+02 -3.950130e+01 -4.935396e+02
      vertex -2.203519e+02 -3.969982e+01 -4.960304e+02
    endloop
  endfacet
  facet normal 4.062279e-01 -7.259672e-02 -9.108834e-01
    outer loop
      vertex -2.199333e+02 -3.687046e+01 -4.960692e+02
      vertex -2.203519e+02 -3.969982e+01 -4.960304e+02
      vertex -2.203519e+02 -3.688433e+01 -4.962548e+02
    endloop
  endfacet
  facet normal -1.000000e+00 0.000000e+00 0.000000e+00
    outer loop
      vertex -2.284737e+02 -3.679510e+01 -4.950607e+02
      vertex -2.284737e+02 -3.969982e+01 -4.960304e+02
      vertex -2.284737e+02 -3.960468e+01 -4.948367e+02
    endloop
  endfacet
  facet normal -1.000000e+00 0.000000e+00 0.000000e+00
    outer loop
      vertex -2.284737e+02 -3.688433e+01 -4.962548e+02
      vertex -2.284737e+02 -3.969982e+01 -4.960304e+02
      vertex -2.284737e+02 -3.679510e+01 -4.950607e+02
    endloop
  endfacet
  facet normal 0.000000e+00 -7.944732e-02 -9.968391e-01
    outer loop
      vertex -2.203519e+02 -3.688433e+01 -4.962548e+02
      vertex -2.284737e+02 -3.969982e+01 -4.960304e+02
      vertex -2.284737e+02 -3.688433e+01 -4.962548e+02
    endloop
  endfacet
  facet normal -8.659701e-01 -3.973126e-02 -4.985149e-01
    outer loop
      vertex -2.284737e+02 -3.679510e+01 -4.950607e+02
      vertex -2.284737e+02 -3.960468e+01 -4.948367e+02
      vertex -2.292252e+02 -3.950130e+01 -4.935396e+02
    endloop
  endfacet
  facet normal 0.000000e+00 -9.968391e-01 7.944732e-02
    outer loop
      vertex -2.469432e+02 -3.855081e+01 -4.816136e+02
      vertex -2.307273e+02 -3.950130e+01 -4.935396e+02
      vertex -2.292252e+02 -3.950130e+01 -4.935396e+02
    endloop
  endfacet
  facet normal 0.000000e+00 -7.944647e-02 -9.968391e-01
    outer loop
      vertex -2.292252e+02 -3.669814e+01 -4.937630e+02
      vertex -2.292252e+02 -3.950130e+01 -4.935396e+02
      vertex -2.307273e+02 -3.950130e+01 -4.935396e+02
    endloop
  endfacet
  facet normal -8.659693e-01 -3.973222e-02 -4.985163e-01
    outer loop
      vertex -2.284737e+02 -3.679510e+01 -4.950607e+02
      vertex -2.292252e+02 -3.950130e+01 -4.935396e+02
      vertex -2.292252e+02 -3.669814e+01 -4.937630e+02
    endloop
  endfacet
  facet normal -1.180644e-16 -9.968391e-01 7.944732e-02
    outer loop
      vertex -2.469432e+02 -3.855081e+01 -4.816136e+02
      vertex -2.314787e+02 -3.960468e+01 -4.948367e+02
      vertex -2.307273e+02 -3.950130e+01 -4.935396e+02
    endloop
  endfacet
  facet normal 8.659701e-01 -3.973212e-02 -4.985149e-01
    outer loop
      vertex -2.307273e+02 -3.669814e+01 -4.937630e+02
      vertex -2.307273e+02 -3.950130e+01 -4.935396e+02
      vertex -2.314787e+02 -3.960468e+01 -4.948367e+02
    endloop
  endfacet
  facet normal -9.464302e-09 -7.944647e-02 -9.968391e-01
    outer loop
      vertex -2.292252e+02 -3.669814e+01 -4.937630e+02
      vertex -2.307273e+02 -3.950130e+01 -4.935396e+02
      vertex -2.307273e+02 -3.669814e+01 -4.937630e+02
    endloop
  endfacet
  facet normal -8.844445e-17 -9.968391e-01 7.944732e-02
    outer loop
      vertex -2.469432e+02 -3.855081e+01 -4.816136e+02
      vertex -2.314787e+02 -4.001741e+01 -5.000153e+02
      vertex -2.314787e+02 -3.960468e+01 -4.948367e+02
    endloop
  endfacet
  facet normal 1.000000e+00 0.000000e+00 0.000000e+00
    outer loop
      vertex -2.314787e+02 -3.940330e+01 -4.974635e+02
      vertex -2.314787e+02 -3.960468e+01 -4.948367e+02
      vertex -2.314787e+02 -4.001741e+01 -5.000153e+02
    endloop
  endfacet
  facet normal 8.659693e-01 -3.973137e-02 -4.985163e-01
    outer loop
      vertex -2.307273e+02 -3.669814e+01 -4.937630e+02
      vertex -2.314787e+02 -3.960468e+01 -4.948367e+02
      vertex -2.314787e+02 -3.679510e+01 -4.950607e+02
    endloop
  endfacet
  facet normal 1.000000e+00 0.000000e+00 0.000000e+00
    outer loop
      vertex -2.314787e+02 -3.883678e+01 -4.966321e+02
      vertex -2.314787e+02 -3.679510e+01 -4.950607e+02
      vertex -2.314787e+02 -3.960468e+01 -4.948367e+02
    endloop
  endfacet
  facet normal 1.000000e+00 0.000000e+00 0.000000e+00
    outer loop
      vertex -2.314787e+02 -3.883678e+01 -4.966321e+02
      vertex -2.314787e+02 -3.960468e+01 -4.948367e+02
      vertex -2.314787e+02 -3.940330e+01 -4.974635e+02
    endloop
  endfacet
  facet normal 7.439913e-17 -9.968391e-01 7.944732e-02
    outer loop
      vertex -2.442663e+02 -4.078245e+01 -5.096144e+02
      vertex -2.307273e+02 -4.012079e+01 -5.013124e+02
      vertex -2.314787e+02 -4.001741e+01 -5.000153e+02
    endloop
  endfacet
  facet normal 8.659701e-01 3.973126e-02 4.985149e-01
    outer loop
      vertex -2.314787e+02 -3.718218e+01 -5.002413e+02
      vertex -2.314787e+02 -4.001741e+01 -5.000153e+02
      vertex -2.307273e+02 -4.012079e+01 -5.013124e+02
    endloop
  endfacet
  facet normal 0.000000e+00 -9.968391e-01 7.944732e-02
    outer loop
      vertex -2.454787e+02 -3.883170e+01 -4.851380e+02
      vertex -2.442663e+02 -4.078245e+01 -5.096144e+02
      vertex -2.314787e+02 -4.001741e+01 -5.000153e+02
    endloop
  endfacet
  facet normal 2.891842e-16 -9.968391e-01 7.944732e-02
    outer loop
      vertex -2.469432e+02 -3.855081e+01 -4.816136e+02
      vertex -2.454787e+02 -3.883170e+01 -4.851380e+02
      vertex -2.314787e+02 -4.001741e+01 -5.000153e+02
    endloop
  endfacet
  facet normal 1.000000e+00 0.000000e+00 0.000000e+00
    outer loop
      vertex -2.314787e+02 -3.796292e+01 -4.984449e+02
      vertex -2.314787e+02 -4.001741e+01 -5.000153e+02
      vertex -2.314787e+02 -3.718218e+01 -5.002413e+02
    endloop
  endfacet
  facet normal 1.000000e+00 0.000000e+00 0.000000e+00
    outer loop
      vertex -2.314787e+02 -3.896662e+01 -4.983699e+02
      vertex -2.314787e+02 -3.940330e+01 -4.974635e+02
      vertex -2.314787e+02 -4.001741e+01 -5.000153e+02
    endloop
  endfacet
  facet normal 1.000000e+00 0.000000e+00 0.000000e+00
    outer loop
      vertex -2.314787e+02 -3.896662e+01 -4.983699e+02
      vertex -2.314787e+02 -4.001741e+01 -5.000153e+02
      vertex -2.314787e+02 -3.796292e+01 -4.984449e+02
    endloop
  endfacet
  facet normal 0.000000e+00 -9.968391e-01 7.944732e-02
    outer loop
      vertex -1.116912e+02 -4.078245e+01 -5.096144e+02
      vertex -2.292252e+02 -4.012079e+01 -5.013124e+02
      vertex -2.307273e+02 -4.012079e+01 -5.013124e+02
    endloop
  endfacet
  facet normal 0.000000e+00 7.944816e-02 9.968390e-01
    outer loop
      vertex -2.307273e+02 -3.727913e+01 -5.015389e+02
      vertex -2.307273e+02 -4.012079e+01 -5.013124e+02
      vertex -2.292252e+02 -4.012079e+01 -5.013124e+02
    endloop
  endfacet
  facet normal -1.068521e-16 -9.968391e-01 7.944732e-02
    outer loop
      vertex -2.442663e+02 -4.078245e+01 -5.096144e+02
      vertex -1.116912e+02 -4.078245e+01 -5.096144e+02
      vertex -2.307273e+02 -4.012079e+01 -5.013124e+02
    endloop
  endfacet
  facet normal 8.659693e-01 3.973053e-02 4.985164e-01
    outer loop
      vertex -2.314787e+02 -3.718218e+01 -5.002413e+02
      vertex -2.307273e+02 -4.012079e+01 -5.013124e+02
      vertex -2.307273e+02 -3.727913e+01 -5.015389e+02
    endloop
  endfacet
  facet normal -1.283178e-16 -9.968391e-01 7.944732e-02
    outer loop
      vertex -1.116912e+02 -4.078245e+01 -5.096144e+02
      vertex -2.284737e+02 -4.001741e+01 -5.000153e+02
      vertex -2.292252e+02 -4.012079e+01 -5.013124e+02
    endloop
  endfacet
  facet normal -8.659701e-01 3.973042e-02 4.985150e-01
    outer loop
      vertex -2.292252e+02 -3.727913e+01 -5.015389e+02
      vertex -2.292252e+02 -4.012079e+01 -5.013124e+02
      vertex -2.284737e+02 -4.001741e+01 -5.000153e+02
    endloop
  endfacet
  facet normal 9.464301e-09 7.944816e-02 9.968390e-01
    outer loop
      vertex -2.307273e+02 -3.727913e+01 -5.015389e+02
      vertex -2.292252e+02 -4.012079e+01 -5.013124e+02
      vertex -2.292252e+02 -3.727913e+01 -5.015389e+02
    endloop
  endfacet
  facet normal -2.794469e-16 -9.968391e-01 7.944732e-02
    outer loop
      vertex -1.116912e+02 -4.078245e+01 -5.096144e+02
      vertex -2.284737e+02 -3.992227e+01 -4.988216e+02
      vertex -2.284737e+02 -4.001741e+01 -5.000153e+02
    endloop
  endfacet
  facet normal -1.000000e+00 0.000000e+00 0.000000e+00
    outer loop
      vertex -2.284737e+02 -3.709295e+01 -4.990471e+02
      vertex -2.284737e+02 -4.001741e+01 -5.000153e+02
      vertex -2.284737e+02 -3.992227e+01 -4.988216e+02
    endloop
  endfacet
  facet normal -1.000000e+00 0.000000e+00 0.000000e+00
    outer loop
      vertex -2.284737e+02 -3.718218e+01 -5.002413e+02
      vertex -2.284737e+02 -4.001741e+01 -5.000153e+02
      vertex -2.284737e+02 -3.709295e+01 -4.990471e+02
    endloop
  endfacet
  facet normal -8.659693e-01 3.973137e-02 4.985163e-01
    outer loop
      vertex -2.292252e+02 -3.727913e+01 -5.015389e+02
      vertex -2.284737e+02 -4.001741e+01 -5.000153e+02
      vertex -2.284737e+02 -3.718218e+01 -5.002413e+02
    endloop
  endfacet
  facet normal 0.000000e+00 -9.968391e-01 7.944732e-02
    outer loop
      vertex -2.199333e+02 -3.993706e+01 -4.990071e+02
      vertex -2.203519e+02 -3.992227e+01 -4.988216e+02
      vertex -2.284737e+02 -3.992227e+01 -4.988216e+02
    endloop
  endfacet
  facet normal 0.000000e+00 7.944732e-02 9.968391e-01
    outer loop
      vertex -2.284737e+02 -3.709295e+01 -4.990471e+02
      vertex -2.284737e+02 -3.992227e+01 -4.988216e+02
      vertex -2.203519e+02 -3.992227e+01 -4.988216e+02
    endloop
  endfacet
  facet normal 4.062280e-01 7.259672e-02 9.108834e-01
    outer loop
      vertex -2.203519e+02 -3.709295e+01 -4.990471e+02
      vertex -2.203519e+02 -3.992227e+01 -4.988216e+02
      vertex -2.199333e+02 -3.993706e+01 -4.990071e+02
    endloop
  endfacet
  facet normal 0.000000e+00 7.944732e-02 9.968391e-01
    outer loop
      vertex -2.284737e+02 -3.709295e+01 -4.990471e+02
      vertex -2.203519e+02 -3.992227e+01 -4.988216e+02
      vertex -2.203519e+02 -3.709295e+01 -4.990471e+02
    endloop
  endfacet
  facet normal 4.062279e-01 7.259670e-02 9.108834e-01
    outer loop
      vertex -2.203519e+02 -3.709295e+01 -4.990471e+02
      vertex -2.199333e+02 -3.993706e+01 -4.990071e+02
      vertex -2.199333e+02 -3.710682e+01 -4.992327e+02
    endloop
  endfacet
  facet normal -1.381910e-16 -9.968391e-01 7.944732e-02
    outer loop
      vertex -1.116912e+02 -4.078245e+01 -5.096144e+02
      vertex -1.151880e+02 -3.811189e+01 -4.761064e+02
      vertex -1.183658e+02 -3.802134e+01 -4.749702e+02
    endloop
  endfacet
  facet normal 3.376049e-01 7.478280e-02 9.383126e-01
    outer loop
      vertex -1.183658e+02 -3.667162e+01 -4.750778e+02
      vertex -1.183658e+02 -3.802134e+01 -4.749702e+02
      vertex -1.151880e+02 -3.811189e+01 -4.761064e+02
    endloop
  endfacet
  facet normal 0.000000e+00 7.944732e-02 9.968391e-01
    outer loop
      vertex -1.194787e+02 -3.667162e+01 -4.750778e+02
      vertex -1.183658e+02 -3.802134e+01 -4.749702e+02
      vertex -1.183658e+02 -3.667162e+01 -4.750778e+02
    endloop
  endfacet
  facet normal -1.184722e-15 -9.968391e-01 7.944732e-02
    outer loop
      vertex -1.116912e+02 -4.078245e+01 -5.096144e+02
      vertex -1.134590e+02 -3.834226e+01 -4.789969e+02
      vertex -1.151880e+02 -3.811189e+01 -4.761064e+02
    endloop
  endfacet
  facet normal 8.547670e-01 -5.715506e-02 5.158553e-01
    outer loop
      vertex -1.135658e+02 -3.695763e+01 -4.786664e+02
      vertex -1.151880e+02 -3.811189e+01 -4.761064e+02
      vertex -1.134590e+02 -3.834226e+01 -4.789969e+02
    endloop
  endfacet
  facet normal 8.211977e-01 9.418070e-02 5.628181e-01
    outer loop
      vertex -1.153658e+02 -3.675106e+01 -4.760746e+02
      vertex -1.151880e+02 -3.811189e+01 -4.761064e+02
      vertex -1.135658e+02 -3.695763e+01 -4.786664e+02
    endloop
  endfacet
  facet normal 3.157261e-01 1.912090e-02 9.486577e-01
    outer loop
      vertex -1.153658e+02 -3.675106e+01 -4.760746e+02
      vertex -1.183658e+02 -3.667162e+01 -4.750778e+02
      vertex -1.151880e+02 -3.811189e+01 -4.761064e+02
    endloop
  endfacet
  facet normal -1.963574e-15 -9.968391e-01 7.944732e-02
    outer loop
      vertex -1.113776e+02 -4.067248e+01 -5.082346e+02
      vertex -1.113520e+02 -3.945797e+01 -4.929959e+02
      vertex -1.134590e+02 -3.834226e+01 -4.789969e+02
    endloop
  endfacet
  facet normal 9.889319e-01 1.178762e-02 1.479013e-01
    outer loop
      vertex -1.134590e+02 -3.561114e+01 -4.792146e+02
      vertex -1.134590e+02 -3.834226e+01 -4.789969e+02
      vertex -1.113520e+02 -3.945797e+01 -4.929959e+02
    endloop
  endfacet
  facet normal 7.868132e-15 -9.968391e-01 7.944732e-02
    outer loop
      vertex -1.116912e+02 -4.078245e+01 -5.096144e+02
      vertex -1.113776e+02 -4.067248e+01 -5.082346e+02
      vertex -1.134590e+02 -3.834226e+01 -4.789969e+02
    endloop
  endfacet
  facet normal 9.660856e-01 1.679107e-02 2.576754e-01
    outer loop
      vertex -1.135074e+02 -3.559468e+01 -4.789943e+02
      vertex -1.135658e+02 -3.557839e+01 -4.787763e+02
      vertex -1.134590e+02 -3.834226e+01 -4.789969e+02
    endloop
  endfacet
  facet normal 9.716810e-01 1.877313e-02 2.355497e-01
    outer loop
      vertex -1.135658e+02 -3.695763e+01 -4.786664e+02
      vertex -1.134590e+02 -3.834226e+01 -4.789969e+02
      vertex -1.135658e+02 -3.557839e+01 -4.787763e+02
    endloop
  endfacet
  facet normal 9.767770e-01 1.702225e-02 2.135811e-01
    outer loop
      vertex -1.135074e+02 -3.559468e+01 -4.789943e+02
      vertex -1.134590e+02 -3.834226e+01 -4.789969e+02
      vertex -1.134590e+02 -3.561114e+01 -4.792146e+02
    endloop
  endfacet
  facet normal -5.332243e-15 -9.968391e-01 7.944732e-02
    outer loop
      vertex -1.113776e+02 -4.067248e+01 -5.082346e+02
      vertex -1.104986e+02 -4.058399e+01 -5.071243e+02
      vertex -1.113520e+02 -3.945797e+01 -4.929959e+02
    endloop
  endfacet
  facet normal 9.981920e-01 4.594610e-03 5.993092e-02
    outer loop
      vertex -1.113507e+02 -3.665853e+01 -4.932328e+02
      vertex -1.113520e+02 -3.945797e+01 -4.929959e+02
      vertex -1.104986e+02 -4.058399e+01 -5.071243e+02
    endloop
  endfacet
  facet normal 9.889391e-01 1.203597e-02 1.478330e-01
    outer loop
      vertex -1.134590e+02 -3.561114e+01 -4.792146e+02
      vertex -1.113520e+02 -3.945797e+01 -4.929959e+02
      vertex -1.113507e+02 -3.665853e+01 -4.932328e+02
    endloop
  endfacet
  facet normal 4.113886e-01 -8.747805e-01 -2.559657e-01
    outer loop
      vertex -1.104831e+02 -4.017396e+01 -5.085007e+02
      vertex -1.104986e+02 -4.058399e+01 -5.071243e+02
      vertex -1.113776e+02 -4.067248e+01 -5.082346e+02
    endloop
  endfacet
  facet normal 9.981990e-01 5.179843e-03 5.976597e-02
    outer loop
      vertex -1.113507e+02 -3.665853e+01 -4.932328e+02
      vertex -1.104986e+02 -4.058399e+01 -5.071243e+02
      vertex -1.104982e+02 -3.771555e+01 -5.073799e+02
    endloop
  endfacet
  facet normal 9.999332e-01 8.796157e-04 1.152197e-02
    outer loop
      vertex -1.104831e+02 -4.017396e+01 -5.085007e+02
      vertex -1.104982e+02 -3.771555e+01 -5.073799e+02
      vertex -1.104986e+02 -4.058399e+01 -5.071243e+02
    endloop
  endfacet
  facet normal 4.776734e-01 -8.776887e-01 -3.860916e-02
    outer loop
      vertex -1.104831e+02 -4.017396e+01 -5.085007e+02
      vertex -1.113776e+02 -4.067248e+01 -5.082346e+02
      vertex -1.116912e+02 -4.078245e+01 -5.096144e+02
    endloop
  endfacet
  facet normal -8.505142e-18 -7.944732e-02 -9.968391e-01
    outer loop
      vertex -1.109983e+02 -4.038371e+01 -5.096461e+02
      vertex -1.116912e+02 -4.078245e+01 -5.096144e+02
      vertex -2.442663e+02 -4.078245e+01 -5.096144e+02
    endloop
  endfacet
  facet normal 4.955639e-01 -8.661882e-01 -6.429978e-02
    outer loop
      vertex -1.104831e+02 -4.017396e+01 -5.085007e+02
      vertex -1.116912e+02 -4.078245e+01 -5.096144e+02
      vertex -1.109983e+02 -4.038371e+01 -5.096461e+02
    endloop
  endfacet
  facet normal -1.156943e-15 -9.968391e-01 7.944732e-02
    outer loop
      vertex -2.454787e+02 -3.883170e+01 -4.851380e+02
      vertex -2.445853e+02 -4.067156e+01 -5.082231e+02
      vertex -2.442663e+02 -4.078245e+01 -5.096144e+02
    endloop
  endfacet
  facet normal -4.967659e-01 -8.667256e-01 -4.483702e-02
    outer loop
      vertex -2.449591e+02 -4.038371e+01 -5.096461e+02
      vertex -2.442663e+02 -4.078245e+01 -5.096144e+02
      vertex -2.445853e+02 -4.067156e+01 -5.082231e+02
    endloop
  endfacet
  facet normal -1.264192e-17 -7.944732e-02 -9.968391e-01
    outer loop
      vertex -1.109983e+02 -4.038371e+01 -5.096461e+02
      vertex -2.442663e+02 -4.078245e+01 -5.096144e+02
      vertex -2.449591e+02 -4.038371e+01 -5.096461e+02
    endloop
  endfacet
  facet normal -2.886850e-15 -9.968391e-01 7.944732e-02
    outer loop
      vertex -2.454787e+02 -3.883170e+01 -4.851380e+02
      vertex -2.454787e+02 -4.058272e+01 -5.071084e+02
      vertex -2.445853e+02 -4.067156e+01 -5.082231e+02
    endloop
  endfacet
  facet normal -4.089636e-01 -8.753140e-01 -2.580196e-01
    outer loop
      vertex -2.454787e+02 -4.017070e+01 -5.085062e+02
      vertex -2.445853e+02 -4.067156e+01 -5.082231e+02
      vertex -2.454787e+02 -4.058272e+01 -5.071084e+02
    endloop
  endfacet
  facet normal -4.967659e-01 -8.667256e-01 -4.483702e-02
    outer loop
      vertex -2.454787e+02 -4.008466e+01 -5.096700e+02
      vertex -2.449591e+02 -4.038371e+01 -5.096461e+02
      vertex -2.445853e+02 -4.067156e+01 -5.082231e+02
    endloop
  endfacet
  facet normal -4.722420e-01 -8.790701e-01 -6.498642e-02
    outer loop
      vertex -2.454787e+02 -4.008466e+01 -5.096700e+02
      vertex -2.445853e+02 -4.067156e+01 -5.082231e+02
      vertex -2.454787e+02 -4.017070e+01 -5.085062e+02
    endloop
  endfacet
  facet normal -1.000000e+00 0.000000e+00 0.000000e+00
    outer loop
      vertex -2.454787e+02 -3.940330e+01 -4.974635e+02
      vertex -2.454787e+02 -4.058272e+01 -5.071084e+02
      vertex -2.454787e+02 -3.883170e+01 -4.851380e+02
    endloop
  endfacet
  facet normal -1.000000e+00 0.000000e+00 0.000000e+00
    outer loop
      vertex -2.454787e+02 -3.896662e+01 -4.983699e+02
      vertex -2.454787e+02 -3.771439e+01 -5.073644e+02
      vertex -2.454787e+02 -4.058272e+01 -5.071084e+02
    endloop
  endfacet
  facet normal -1.000000e+00 0.000000e+00 0.000000e+00
    outer loop
      vertex -2.454787e+02 -4.017070e+01 -5.085062e+02
      vertex -2.454787e+02 -4.058272e+01 -5.071084e+02
      vertex -2.454787e+02 -3.771439e+01 -5.073644e+02
    endloop
  endfacet
  facet normal -1.000000e+00 0.000000e+00 0.000000e+00
    outer loop
      vertex -2.454787e+02 -3.940330e+01 -4.974635e+02
      vertex -2.454787e+02 -3.896662e+01 -4.983699e+02
      vertex -2.454787e+02 -4.058272e+01 -5.071084e+02
    endloop
  endfacet
  facet normal -9.238834e-01 -3.040242e-02 -3.814644e-01
    outer loop
      vertex -2.454787e+02 -3.615020e+01 -4.853517e+02
      vertex -2.454787e+02 -3.883170e+01 -4.851380e+02
      vertex -2.469432e+02 -3.855081e+01 -4.816136e+02
    endloop
  endfacet
  facet normal -1.000000e+00 0.000000e+00 0.000000e+00
    outer loop
      vertex -2.454787e+02 -3.783308e+01 -4.967071e+02
      vertex -2.454787e+02 -3.883170e+01 -4.851380e+02
      vertex -2.454787e+02 -3.739640e+01 -4.976135e+02
    endloop
  endfacet
  facet normal -1.000000e+00 0.000000e+00 0.000000e+00
    outer loop
      vertex -2.454787e+02 -3.615020e+01 -4.853517e+02
      vertex -2.454787e+02 -3.739640e+01 -4.976135e+02
      vertex -2.454787e+02 -3.883170e+01 -4.851380e+02
    endloop
  endfacet
  facet normal -1.000000e+00 0.000000e+00 0.000000e+00
    outer loop
      vertex -2.454787e+02 -3.883678e+01 -4.966321e+02
      vertex -2.454787e+02 -3.940330e+01 -4.974635e+02
      vertex -2.454787e+02 -3.883170e+01 -4.851380e+02
    endloop
  endfacet
  facet normal -1.000000e+00 0.000000e+00 0.000000e+00
    outer loop
      vertex -2.454787e+02 -3.783308e+01 -4.967071e+02
      vertex -2.454787e+02 -3.883678e+01 -4.966321e+02
      vertex -2.454787e+02 -3.883170e+01 -4.851380e+02
    endloop
  endfacet
  facet normal -3.826740e-01 -7.345170e-02 -9.209590e-01
    outer loop
      vertex -2.469433e+02 -3.586932e+01 -4.818274e+02
      vertex -2.469432e+02 -3.855081e+01 -4.816136e+02
      vertex -2.504787e+02 -3.843446e+01 -4.801538e+02
    endloop
  endfacet
  facet normal -9.238695e-01 -3.045674e-02 -3.814938e-01
    outer loop
      vertex -2.469433e+02 -3.586932e+01 -4.818274e+02
      vertex -2.454787e+02 -3.615020e+01 -4.853517e+02
      vertex -2.469432e+02 -3.855081e+01 -4.816136e+02
    endloop
  endfacet
  facet normal -1.849527e-16 -9.968391e-01 7.944732e-02
    outer loop
      vertex -2.895622e+02 -3.839330e+01 -4.796373e+02
      vertex -2.887846e+02 -3.843446e+01 -4.801538e+02
      vertex -2.504787e+02 -3.843446e+01 -4.801538e+02
    endloop
  endfacet
  facet normal -1.508413e-17 -7.944732e-02 -9.968391e-01
    outer loop
      vertex -2.504787e+02 -3.575296e+01 -4.803675e+02
      vertex -2.504787e+02 -3.843446e+01 -4.801538e+02
      vertex -2.887846e+02 -3.843446e+01 -4.801538e+02
    endloop
  endfacet
  facet normal -1.579363e-16 -9.968391e-01 7.944732e-02
    outer loop
      vertex -2.904787e+02 -3.837885e+01 -4.794560e+02
      vertex -2.895622e+02 -3.839330e+01 -4.796373e+02
      vertex -2.504787e+02 -3.843446e+01 -4.801538e+02
    endloop
  endfacet
  facet normal -3.827076e-01 -7.339896e-02 -9.209492e-01
    outer loop
      vertex -2.469433e+02 -3.586932e+01 -4.818274e+02
      vertex -2.504787e+02 -3.843446e+01 -4.801538e+02
      vertex -2.504787e+02 -3.575296e+01 -4.803675e+02
    endloop
  endfacet
  facet normal -5.544871e-01 -6.611545e-02 -8.295618e-01
    outer loop
      vertex -2.887846e+02 -3.575296e+01 -4.803675e+02
      vertex -2.887846e+02 -3.843446e+01 -4.801538e+02
      vertex -2.895622e+02 -3.839330e+01 -4.796373e+02
    endloop
  endfacet
  facet normal -1.473682e-17 -7.944732e-02 -9.968391e-01
    outer loop
      vertex -2.504787e+02 -3.575296e+01 -4.803675e+02
      vertex -2.887846e+02 -3.843446e+01 -4.801538e+02
      vertex -2.887846e+02 -3.575296e+01 -4.803675e+02
    endloop
  endfacet
  facet normal -1.946646e-01 -7.792748e-02 -9.777694e-01
    outer loop
      vertex -2.895622e+02 -3.571180e+01 -4.798510e+02
      vertex -2.895622e+02 -3.839330e+01 -4.796373e+02
      vertex -2.904787e+02 -3.837885e+01 -4.794560e+02
    endloop
  endfacet
  facet normal -5.544871e-01 -6.611545e-02 -8.295618e-01
    outer loop
      vertex -2.895622e+02 -3.571180e+01 -4.798510e+02
      vertex -2.887846e+02 -3.575296e+01 -4.803675e+02
      vertex -2.895622e+02 -3.839330e+01 -4.796373e+02
    endloop
  endfacet
  facet normal -1.946646e-01 -7.792748e-02 -9.777694e-01
    outer loop
      vertex -2.895622e+02 -3.571180e+01 -4.798510e+02
      vertex -2.904787e+02 -3.837885e+01 -4.794560e+02
      vertex -2.904787e+02 -3.569735e+01 -4.796697e+02
    endloop
  endfacet
  facet normal -1.081082e-16 -9.968391e-01 7.944732e-02
    outer loop
      vertex -2.449591e+02 -4.038371e+01 -5.096461e+02
      vertex -2.449591e+02 -4.284752e+01 -5.405600e+02
      vertex -1.135590e+02 -4.284752e+01 -5.405600e+02
    endloop
  endfacet
  facet normal -8.066264e-18 -7.450878e-02 -9.972204e-01
    outer loop
      vertex -1.135564e+02 -4.165933e+01 -5.406487e+02
      vertex -1.135590e+02 -4.284752e+01 -5.405600e+02
      vertex -2.449591e+02 -4.284752e+01 -5.405600e+02
    endloop
  endfacet
  facet normal -7.258360e-15 -9.968391e-01 7.944732e-02
    outer loop
      vertex -1.134797e+02 -4.283083e+01 -5.403505e+02
      vertex -2.449591e+02 -4.038371e+01 -5.096461e+02
      vertex -1.135590e+02 -4.284752e+01 -5.405600e+02
    endloop
  endfacet
  facet normal 9.356432e-01 -2.833507e-02 -3.518082e-01
    outer loop
      vertex -1.135564e+02 -4.165933e+01 -5.406487e+02
      vertex -1.134797e+02 -4.283083e+01 -5.403505e+02
      vertex -1.135590e+02 -4.284752e+01 -5.405600e+02
    endloop
  endfacet
  facet normal -5.000000e-01 -8.632880e-01 6.880340e-02
    outer loop
      vertex -2.454787e+02 -4.254835e+01 -5.405823e+02
      vertex -2.449591e+02 -4.284752e+01 -5.405600e+02
      vertex -2.449591e+02 -4.038371e+01 -5.096461e+02
    endloop
  endfacet
  facet normal -8.047319e-18 -7.450878e-02 -9.972204e-01
    outer loop
      vertex -2.451323e+02 -4.165933e+01 -5.406487e+02
      vertex -1.135564e+02 -4.165933e+01 -5.406487e+02
      vertex -2.449591e+02 -4.284752e+01 -5.405600e+02
    endloop
  endfacet
  facet normal -8.947080e-14 -7.450878e-02 -9.972204e-01
    outer loop
      vertex -2.454787e+02 -4.254835e+01 -5.405823e+02
      vertex -2.451323e+02 -4.165933e+01 -5.406487e+02
      vertex -2.449591e+02 -4.284752e+01 -5.405600e+02
    endloop
  endfacet
  facet normal -1.582106e-16 -9.968391e-01 7.944732e-02
    outer loop
      vertex -1.109983e+02 -4.140917e+01 -5.225127e+02
      vertex -1.109983e+02 -4.038371e+01 -5.096461e+02
      vertex -2.449591e+02 -4.038371e+01 -5.096461e+02
    endloop
  endfacet
  facet normal -9.317876e-17 -9.968391e-01 7.944732e-02
    outer loop
      vertex -1.119649e+02 -4.211406e+01 -5.313571e+02
      vertex -1.109983e+02 -4.140917e+01 -5.225127e+02
      vertex -2.449591e+02 -4.038371e+01 -5.096461e+02
    endloop
  endfacet
  facet normal -1.772367e-16 -9.968391e-01 7.944732e-02
    outer loop
      vertex -1.134245e+02 -4.281353e+01 -5.401335e+02
      vertex -1.119649e+02 -4.211406e+01 -5.313571e+02
      vertex -2.449591e+02 -4.038371e+01 -5.096461e+02
    endloop
  endfacet
  facet normal 9.405399e-15 -9.968391e-01 7.944732e-02
    outer loop
      vertex -1.134797e+02 -4.283083e+01 -5.403505e+02
      vertex -1.134245e+02 -4.281353e+01 -5.401335e+02
      vertex -2.449591e+02 -4.038371e+01 -5.096461e+02
    endloop
  endfacet
  facet normal -5.000000e-01 -8.632880e-01 6.880340e-02
    outer loop
      vertex -2.454787e+02 -4.008466e+01 -5.096700e+02
      vertex -2.454787e+02 -4.254835e+01 -5.405823e+02
      vertex -2.449591e+02 -4.038371e+01 -5.096461e+02
    endloop
  endfacet
  facet normal 5.000000e-01 -8.632880e-01 6.880340e-02
    outer loop
      vertex -1.104787e+02 -4.008466e+01 -5.096700e+02
      vertex -1.109983e+02 -4.038371e+01 -5.096461e+02
      vertex -1.109983e+02 -4.140917e+01 -5.225127e+02
    endloop
  endfacet
  facet normal 4.955639e-01 -8.661882e-01 -6.429978e-02
    outer loop
      vertex -1.104831e+02 -4.017396e+01 -5.085007e+02
      vertex -1.109983e+02 -4.038371e+01 -5.096461e+02
      vertex -1.104787e+02 -4.008466e+01 -5.096700e+02
    endloop
  endfacet
  facet normal 9.939972e-01 -2.419219e-02 -1.066977e-01
    outer loop
      vertex -1.111215e+02 -3.936762e+01 -5.241225e+02
      vertex -1.109983e+02 -4.140917e+01 -5.225127e+02
      vertex -1.119649e+02 -4.211406e+01 -5.313571e+02
    endloop
  endfacet
  facet normal 9.976947e-01 6.933046e-03 -6.750787e-02
    outer loop
      vertex -1.106399e+02 -3.907692e+01 -5.169755e+02
      vertex -1.109983e+02 -4.140917e+01 -5.225127e+02
      vertex -1.111215e+02 -3.936762e+01 -5.241225e+02
    endloop
  endfacet
  facet normal 5.000000e-01 -8.632880e-01 6.880340e-02
    outer loop
      vertex -1.104787e+02 -4.008466e+01 -5.096700e+02
      vertex -1.109983e+02 -4.140917e+01 -5.225127e+02
      vertex -1.106081e+02 -4.067211e+01 -5.161004e+02
    endloop
  endfacet
  facet normal 9.981608e-01 -1.265849e-02 -5.928613e-02
    outer loop
      vertex -1.106399e+02 -3.907692e+01 -5.169755e+02
      vertex -1.106081e+02 -4.067211e+01 -5.161004e+02
      vertex -1.109983e+02 -4.140917e+01 -5.225127e+02
    endloop
  endfacet
  facet normal 9.864990e-01 -2.137946e-02 -1.623655e-01
    outer loop
      vertex -1.120648e+02 -3.997458e+01 -5.322462e+02
      vertex -1.119649e+02 -4.211406e+01 -5.313571e+02
      vertex -1.134245e+02 -4.281353e+01 -5.401335e+02
    endloop
  endfacet
  facet normal 9.933362e-01 -1.478092e-03 -1.152436e-01
    outer loop
      vertex -1.111215e+02 -3.936762e+01 -5.241225e+02
      vertex -1.119649e+02 -4.211406e+01 -5.313571e+02
      vertex -1.120648e+02 -3.997458e+01 -5.322462e+02
    endloop
  endfacet
  facet normal 9.693136e-01 -1.953033e-02 -2.450504e-01
    outer loop
      vertex -1.134245e+02 -4.057721e+01 -5.403117e+02
      vertex -1.134245e+02 -4.281353e+01 -5.401335e+02
      vertex -1.134797e+02 -4.283083e+01 -5.403505e+02
    endloop
  endfacet
  facet normal 9.861618e-01 -1.317124e-02 -1.652618e-01
    outer loop
      vertex -1.120648e+02 -3.997458e+01 -5.322462e+02
      vertex -1.134245e+02 -4.281353e+01 -5.401335e+02
      vertex -1.134245e+02 -4.057721e+01 -5.403117e+02
    endloop
  endfacet
  facet normal 9.492180e-01 -1.784937e-02 -3.141123e-01
    outer loop
      vertex -1.134245e+02 -4.057721e+01 -5.403117e+02
      vertex -1.134797e+02 -4.283083e+01 -5.403505e+02
      vertex -1.135564e+02 -4.165933e+01 -5.406487e+02
    endloop
  endfacet
  facet normal -1.077087e-16 -9.972204e-01 7.450878e-02
    outer loop
      vertex -1.142941e+02 -4.172420e+01 -5.415169e+02
      vertex -1.135564e+02 -4.165933e+01 -5.406487e+02
      vertex -2.451323e+02 -4.165933e+01 -5.406487e+02
    endloop
  endfacet
  facet normal 7.619174e-01 -9.961114e-02 -6.399683e-01
    outer loop
      vertex -1.141158e+02 -4.066374e+01 -5.414697e+02
      vertex -1.135564e+02 -4.165933e+01 -5.406487e+02
      vertex -1.142941e+02 -4.172420e+01 -5.415169e+02
    endloop
  endfacet
  facet normal 8.554388e-01 5.610500e-02 -5.148559e-01
    outer loop
      vertex -1.134245e+02 -4.057721e+01 -5.403117e+02
      vertex -1.135564e+02 -4.165933e+01 -5.406487e+02
      vertex -1.141158e+02 -4.066374e+01 -5.414697e+02
    endloop
  endfacet
  facet normal -1.211217e-13 -7.450878e-02 -9.972204e-01
    outer loop
      vertex -2.454787e+02 -4.254835e+01 -5.405823e+02
      vertex -2.454787e+02 -4.145989e+01 -5.406636e+02
      vertex -2.451323e+02 -4.165933e+01 -5.406487e+02
    endloop
  endfacet
  facet normal -5.000000e-01 -8.636182e-01 6.452649e-02
    outer loop
      vertex -2.454787e+02 -4.151183e+01 -5.413587e+02
      vertex -2.451323e+02 -4.165933e+01 -5.406487e+02
      vertex -2.454787e+02 -4.145989e+01 -5.406636e+02
    endloop
  endfacet
  facet normal -7.912690e-17 -9.972204e-01 7.450878e-02
    outer loop
      vertex -1.153877e+02 -4.174845e+01 -5.418415e+02
      vertex -1.142941e+02 -4.172420e+01 -5.415169e+02
      vertex -2.451323e+02 -4.165933e+01 -5.406487e+02
    endloop
  endfacet
  facet normal -1.093544e-16 -9.972204e-01 7.450878e-02
    outer loop
      vertex -2.449787e+02 -4.174845e+01 -5.418415e+02
      vertex -1.153877e+02 -4.174845e+01 -5.418415e+02
      vertex -2.451323e+02 -4.165933e+01 -5.406487e+02
    endloop
  endfacet
  facet normal -1.304384e-14 -9.972204e-01 7.450878e-02
    outer loop
      vertex -2.450565e+02 -4.174800e+01 -5.418354e+02
      vertex -2.449787e+02 -4.174845e+01 -5.418415e+02
      vertex -2.451323e+02 -4.165933e+01 -5.406487e+02
    endloop
  endfacet
  facet normal -7.578856e-14 -9.972204e-01 7.450878e-02
    outer loop
      vertex -2.451323e+02 -4.174665e+01 -5.418174e+02
      vertex -2.450565e+02 -4.174800e+01 -5.418354e+02
      vertex -2.451323e+02 -4.165933e+01 -5.406487e+02
    endloop
  endfacet
  facet normal -5.000000e-01 -8.636182e-01 6.452649e-02
    outer loop
      vertex -2.453886e+02 -4.158503e+01 -5.416402e+02
      vertex -2.451323e+02 -4.174665e+01 -5.418174e+02
      vertex -2.451323e+02 -4.165933e+01 -5.406487e+02
    endloop
  endfacet
  facet normal -5.000000e-01 -8.636182e-01 6.452649e-02
    outer loop
      vertex -2.453886e+02 -4.158503e+01 -5.416402e+02
      vertex -2.451323e+02 -4.165933e+01 -5.406487e+02
      vertex -2.454787e+02 -4.151183e+01 -5.413587e+02
    endloop
  endfacet
  facet normal -1.000000e+00 0.000000e+00 0.000000e+00
    outer loop
      vertex -2.454787e+02 -4.008466e+01 -5.096700e+02
      vertex -2.454787e+02 -4.145989e+01 -5.406636e+02
      vertex -2.454787e+02 -4.254835e+01 -5.405823e+02
    endloop
  endfacet
  facet normal -1.000000e+00 0.000000e+00 0.000000e+00
    outer loop
      vertex -2.454787e+02 -4.111610e+01 -5.413903e+02
      vertex -2.454787e+02 -4.145989e+01 -5.406636e+02
      vertex -2.454787e+02 -4.008466e+01 -5.096700e+02
    endloop
  endfacet
  facet normal -1.000000e+00 0.000000e+00 0.000000e+00
    outer loop
      vertex -2.454787e+02 -4.111610e+01 -5.413903e+02
      vertex -2.454787e+02 -4.151183e+01 -5.413587e+02
      vertex -2.454787e+02 -4.145989e+01 -5.406636e+02
    endloop
  endfacet
  facet normal 2.846375e-01 -5.214005e-03 -9.586210e-01
    outer loop
      vertex -1.141158e+02 -4.066374e+01 -5.414697e+02
      vertex -1.142941e+02 -4.172420e+01 -5.415169e+02
      vertex -1.153877e+02 -4.174845e+01 -5.418415e+02
    endloop
  endfacet
  facet normal -8.737713e-18 -7.944732e-02 -9.968391e-01
    outer loop
      vertex -1.153877e+02 -4.069777e+01 -5.419252e+02
      vertex -1.153877e+02 -4.174845e+01 -5.418415e+02
      vertex -2.449787e+02 -4.174845e+01 -5.418415e+02
    endloop
  endfacet
  facet normal 3.379838e-01 -7.477200e-02 -9.381770e-01
    outer loop
      vertex -1.141158e+02 -4.066374e+01 -5.414697e+02
      vertex -1.153877e+02 -4.174845e+01 -5.418415e+02
      vertex -1.153877e+02 -4.069777e+01 -5.419252e+02
    endloop
  endfacet
  facet normal -7.799524e-02 -7.920530e-02 -9.938024e-01
    outer loop
      vertex -2.449787e+02 -4.086806e+01 -5.419116e+02
      vertex -2.449787e+02 -4.174845e+01 -5.418415e+02
      vertex -2.450565e+02 -4.174800e+01 -5.418354e+02
    endloop
  endfacet
  facet normal -1.309811e-17 -7.944732e-02 -9.968391e-01
    outer loop
      vertex -2.446828e+02 -4.069777e+01 -5.419252e+02
      vertex -1.153877e+02 -4.069777e+01 -5.419252e+02
      vertex -2.449787e+02 -4.174845e+01 -5.418415e+02
    endloop
  endfacet
  facet normal 7.061794e-14 -7.944732e-02 -9.968391e-01
    outer loop
      vertex -2.449787e+02 -4.086806e+01 -5.419116e+02
      vertex -2.446828e+02 -4.069777e+01 -5.419252e+02
      vertex -2.449787e+02 -4.174845e+01 -5.418415e+02
    endloop
  endfacet
  facet normal -2.320131e-01 -6.359092e-02 -9.706318e-01
    outer loop
      vertex -2.449787e+02 -4.086806e+01 -5.419116e+02
      vertex -2.450565e+02 -4.174800e+01 -5.418354e+02
      vertex -2.451323e+02 -4.174665e+01 -5.418174e+02
    endloop
  endfacet
  facet normal -2.139362e-01 -6.716988e-02 -9.745355e-01
    outer loop
      vertex -2.451824e+02 -4.098186e+01 -5.418591e+02
      vertex -2.449787e+02 -4.086806e+01 -5.419116e+02
      vertex -2.451323e+02 -4.174665e+01 -5.418174e+02
    endloop
  endfacet
  facet normal -6.015075e-01 -8.275869e-02 -7.945689e-01
    outer loop
      vertex -2.453886e+02 -4.158503e+01 -5.416402e+02
      vertex -2.451824e+02 -4.098186e+01 -5.418591e+02
      vertex -2.451323e+02 -4.174665e+01 -5.418174e+02
    endloop
  endfacet
  facet normal 1.638348e-16 9.972204e-01 -7.450878e-02
    outer loop
      vertex -1.109984e+02 -3.829849e+01 -5.098134e+02
      vertex -1.153877e+02 -4.069777e+01 -5.419252e+02
      vertex -2.446828e+02 -4.069777e+01 -5.419252e+02
    endloop
  endfacet
  facet normal 1.094505e-15 9.972204e-01 -7.450878e-02
    outer loop
      vertex -1.109984e+02 -3.829849e+01 -5.098134e+02
      vertex -1.141158e+02 -4.066374e+01 -5.414697e+02
      vertex -1.153877e+02 -4.069777e+01 -5.419252e+02
    endloop
  endfacet
  facet normal -5.000000e-01 8.632880e-01 -6.880340e-02
    outer loop
      vertex -2.451824e+02 -4.098186e+01 -5.418591e+02
      vertex -2.446828e+02 -4.069777e+01 -5.419252e+02
      vertex -2.449787e+02 -4.086806e+01 -5.419116e+02
    endloop
  endfacet
  facet normal 1.586810e-16 9.972204e-01 -7.450878e-02
    outer loop
      vertex -2.449591e+02 -3.829849e+01 -5.098134e+02
      vertex -1.109984e+02 -3.829849e+01 -5.098134e+02
      vertex -2.446828e+02 -4.069777e+01 -5.419252e+02
    endloop
  endfacet
  facet normal -5.000000e-01 8.632880e-01 -6.880340e-02
    outer loop
      vertex -2.454787e+02 -3.859746e+01 -5.097885e+02
      vertex -2.449591e+02 -3.829849e+01 -5.098134e+02
      vertex -2.446828e+02 -4.069777e+01 -5.419252e+02
    endloop
  endfacet
  facet normal -5.000000e-01 8.632880e-01 -6.880340e-02
    outer loop
      vertex -2.454787e+02 -3.859746e+01 -5.097885e+02
      vertex -2.446828e+02 -4.069777e+01 -5.419252e+02
      vertex -2.454787e+02 -4.111610e+01 -5.413903e+02
    endloop
  endfacet
  facet normal -5.000000e-01 8.632880e-01 -6.880340e-02
    outer loop
      vertex -2.453440e+02 -4.106568e+01 -5.417368e+02
      vertex -2.454787e+02 -4.111610e+01 -5.413903e+02
      vertex -2.446828e+02 -4.069777e+01 -5.419252e+02
    endloop
  endfacet
  facet normal -5.000000e-01 8.632880e-01 -6.880340e-02
    outer loop
      vertex -2.451824e+02 -4.098186e+01 -5.418591e+02
      vertex -2.453440e+02 -4.106568e+01 -5.417368e+02
      vertex -2.446828e+02 -4.069777e+01 -5.419252e+02
    endloop
  endfacet
  facet normal -1.008159e-14 9.972204e-01 -7.450878e-02
    outer loop
      vertex -1.109984e+02 -3.829849e+01 -5.098134e+02
      vertex -1.134245e+02 -4.057721e+01 -5.403117e+02
      vertex -1.141158e+02 -4.066374e+01 -5.414697e+02
    endloop
  endfacet
  facet normal -3.235536e-15 9.972204e-01 -7.450878e-02
    outer loop
      vertex -1.109984e+02 -3.829849e+01 -5.098134e+02
      vertex -1.120648e+02 -3.997458e+01 -5.322462e+02
      vertex -1.134245e+02 -4.057721e+01 -5.403117e+02
    endloop
  endfacet
  facet normal -3.684893e-15 9.972204e-01 -7.450878e-02
    outer loop
      vertex -1.109984e+02 -3.829849e+01 -5.098134e+02
      vertex -1.111215e+02 -3.936762e+01 -5.241225e+02
      vertex -1.120648e+02 -3.997458e+01 -5.322462e+02
    endloop
  endfacet
  facet normal 5.000000e-01 8.632880e-01 -6.880340e-02
    outer loop
      vertex -1.106399e+02 -3.907692e+01 -5.169755e+02
      vertex -1.111215e+02 -3.936762e+01 -5.241225e+02
      vertex -1.109984e+02 -3.829849e+01 -5.098134e+02
    endloop
  endfacet
  facet normal -1.184878e-17 -7.450878e-02 -9.972204e-01
    outer loop
      vertex -1.116912e+02 -3.789960e+01 -5.098433e+02
      vertex -1.109984e+02 -3.829849e+01 -5.098134e+02
      vertex -2.449591e+02 -3.829849e+01 -5.098134e+02
    endloop
  endfacet
  facet normal 5.000000e-01 8.632866e-01 -6.882066e-02
    outer loop
      vertex -1.104777e+02 -3.859807e+01 -5.097885e+02
      vertex -1.109984e+02 -3.829849e+01 -5.098134e+02
      vertex -1.116912e+02 -3.789960e+01 -5.098433e+02
    endloop
  endfacet
  facet normal 5.000000e-01 8.632880e-01 -6.880340e-02
    outer loop
      vertex -1.106399e+02 -3.907692e+01 -5.169755e+02
      vertex -1.109984e+02 -3.829849e+01 -5.098134e+02
      vertex -1.104777e+02 -3.859807e+01 -5.097885e+02
    endloop
  endfacet
  facet normal -7.986667e-18 -7.450878e-02 -9.972204e-01
    outer loop
      vertex -2.442663e+02 -3.789960e+01 -5.098433e+02
      vertex -1.116912e+02 -3.789960e+01 -5.098433e+02
      vertex -2.449591e+02 -3.829849e+01 -5.098134e+02
    endloop
  endfacet
  facet normal -5.000000e-01 8.632866e-01 -6.882065e-02
    outer loop
      vertex -2.454787e+02 -3.859746e+01 -5.097885e+02
      vertex -2.442663e+02 -3.789960e+01 -5.098433e+02
      vertex -2.449591e+02 -3.829849e+01 -5.098134e+02
    endloop
  endfacet
  facet normal 1.076850e-16 9.972204e-01 -7.450878e-02
    outer loop
      vertex -1.274787e+02 -3.711158e+01 -4.992964e+02
      vertex -1.116912e+02 -3.789960e+01 -5.098433e+02
      vertex -2.442663e+02 -3.789960e+01 -5.098433e+02
    endloop
  endfacet
  facet normal -1.301878e-16 9.972204e-01 -7.450878e-02
    outer loop
      vertex -1.274787e+02 -3.711158e+01 -4.992964e+02
      vertex -1.260497e+02 -3.705009e+01 -4.984734e+02
      vertex -1.116912e+02 -3.789960e+01 -5.098433e+02
    endloop
  endfacet
  facet normal -1.688334e-17 9.972204e-01 -7.450878e-02
    outer loop
      vertex -1.134590e+02 -3.561114e+01 -4.792146e+02
      vertex -1.116912e+02 -3.789960e+01 -5.098433e+02
      vertex -1.260497e+02 -3.705009e+01 -4.984734e+02
    endloop
  endfacet
  facet normal -8.770940e-15 9.972204e-01 -7.450878e-02
    outer loop
      vertex -1.113507e+02 -3.665853e+01 -4.932328e+02
      vertex -1.113714e+02 -3.779760e+01 -5.084780e+02
      vertex -1.116912e+02 -3.789960e+01 -5.098433e+02
    endloop
  endfacet
  facet normal 4.968055e-01 8.490303e-01 -1.798106e-01
    outer loop
      vertex -1.104777e+02 -3.859807e+01 -5.097885e+02
      vertex -1.116912e+02 -3.789960e+01 -5.098433e+02
      vertex -1.113714e+02 -3.779760e+01 -5.084780e+02
    endloop
  endfacet
  facet normal 1.246468e-15 9.972204e-01 -7.450878e-02
    outer loop
      vertex -1.134590e+02 -3.561114e+01 -4.792146e+02
      vertex -1.113507e+02 -3.665853e+01 -4.932328e+02
      vertex -1.116912e+02 -3.789960e+01 -5.098433e+02
    endloop
  endfacet
  facet normal -1.301830e-15 9.972204e-01 -7.450878e-02
    outer loop
      vertex -2.199333e+02 -3.710682e+01 -4.992327e+02
      vertex -2.194787e+02 -3.711158e+01 -4.992964e+02
      vertex -2.442663e+02 -3.789960e+01 -5.098433e+02
    endloop
  endfacet
  facet normal 1.540365e-16 9.972204e-01 -7.450878e-02
    outer loop
      vertex -1.274787e+02 -3.711158e+01 -4.992964e+02
      vertex -2.442663e+02 -3.789960e+01 -5.098433e+02
      vertex -2.194787e+02 -3.711158e+01 -4.992964e+02
    endloop
  endfacet
  facet normal 2.969081e-15 9.972204e-01 -7.450878e-02
    outer loop
      vertex -2.203519e+02 -3.709295e+01 -4.990471e+02
      vertex -2.199333e+02 -3.710682e+01 -4.992327e+02
      vertex -2.442663e+02 -3.789960e+01 -5.098433e+02
    endloop
  endfacet
  facet normal 2.813210e-16 9.972204e-01 -7.450878e-02
    outer loop
      vertex -2.292252e+02 -3.727913e+01 -5.015389e+02
      vertex -2.203519e+02 -3.709295e+01 -4.990471e+02
      vertex -2.442663e+02 -3.789960e+01 -5.098433e+02
    endloop
  endfacet
  facet normal -2.325093e-15 9.972204e-01 -7.450878e-02
    outer loop
      vertex -2.307273e+02 -3.727913e+01 -5.015389e+02
      vertex -2.292252e+02 -3.727913e+01 -5.015389e+02
      vertex -2.442663e+02 -3.789960e+01 -5.098433e+02
    endloop
  endfacet
  facet normal 9.672007e-16 9.972204e-01 -7.450878e-02
    outer loop
      vertex -2.314787e+02 -3.718218e+01 -5.002413e+02
      vertex -2.307273e+02 -3.727913e+01 -5.015389e+02
      vertex -2.442663e+02 -3.789960e+01 -5.098433e+02
    endloop
  endfacet
  facet normal -5.080484e-16 9.972204e-01 -7.450878e-02
    outer loop
      vertex -2.314787e+02 -3.679510e+01 -4.950607e+02
      vertex -2.314787e+02 -3.718218e+01 -5.002413e+02
      vertex -2.442663e+02 -3.789960e+01 -5.098433e+02
    endloop
  endfacet
  facet normal 9.325273e-15 9.972204e-01 -7.450878e-02
    outer loop
      vertex -2.307273e+02 -3.669814e+01 -4.937630e+02
      vertex -2.314787e+02 -3.679510e+01 -4.950607e+02
      vertex -2.442663e+02 -3.789960e+01 -5.098433e+02
    endloop
  endfacet
  facet normal 7.794739e-16 9.972204e-01 -7.450878e-02
    outer loop
      vertex -2.445915e+02 -3.779677e+01 -5.084670e+02
      vertex -2.307273e+02 -3.669814e+01 -4.937630e+02
      vertex -2.442663e+02 -3.789960e+01 -5.098433e+02
    endloop
  endfacet
  facet normal -4.792438e-01 8.595551e-01 -1.774555e-01
    outer loop
      vertex -2.454787e+02 -3.833195e+01 -5.086631e+02
      vertex -2.445915e+02 -3.779677e+01 -5.084670e+02
      vertex -2.442663e+02 -3.789960e+01 -5.098433e+02
    endloop
  endfacet
  facet normal -4.955771e-01 8.453569e-01 -1.994366e-01
    outer loop
      vertex -2.454787e+02 -3.833195e+01 -5.086631e+02
      vertex -2.442663e+02 -3.789960e+01 -5.098433e+02
      vertex -2.454787e+02 -3.859746e+01 -5.097885e+02
    endloop
  endfacet
  facet normal 0.000000e+00 9.972204e-01 -7.450878e-02
    outer loop
      vertex -2.284737e+02 -3.718218e+01 -5.002413e+02
      vertex -2.284737e+02 -3.709295e+01 -4.990471e+02
      vertex -2.203519e+02 -3.709295e+01 -4.990471e+02
    endloop
  endfacet
  facet normal -1.607570e-16 9.972204e-01 -7.450878e-02
    outer loop
      vertex -2.292252e+02 -3.727913e+01 -5.015389e+02
      vertex -2.284737e+02 -3.718218e+01 -5.002413e+02
      vertex -2.203519e+02 -3.709295e+01 -4.990471e+02
    endloop
  endfacet
  facet normal 1.000000e+00 0.000000e+00 0.000000e+00
    outer loop
      vertex -2.314787e+02 -3.739640e+01 -4.976135e+02
      vertex -2.314787e+02 -3.718218e+01 -5.002413e+02
      vertex -2.314787e+02 -3.679510e+01 -4.950607e+02
    endloop
  endfacet
  facet normal 1.000000e+00 0.000000e+00 0.000000e+00
    outer loop
      vertex -2.314787e+02 -3.796292e+01 -4.984449e+02
      vertex -2.314787e+02 -3.718218e+01 -5.002413e+02
      vertex -2.314787e+02 -3.739640e+01 -4.976135e+02
    endloop
  endfacet
  facet normal 1.000000e+00 0.000000e+00 0.000000e+00
    outer loop
      vertex -2.314787e+02 -3.783308e+01 -4.967071e+02
      vertex -2.314787e+02 -3.739640e+01 -4.976135e+02
      vertex -2.314787e+02 -3.679510e+01 -4.950607e+02
    endloop
  endfacet
  facet normal 1.000000e+00 0.000000e+00 0.000000e+00
    outer loop
      vertex -2.314787e+02 -3.783308e+01 -4.967071e+02
      vertex -2.314787e+02 -3.679510e+01 -4.950607e+02
      vertex -2.314787e+02 -3.883678e+01 -4.966321e+02
    endloop
  endfacet
  facet normal 2.360757e-15 9.972204e-01 -7.450878e-02
    outer loop
      vertex -1.135658e+02 -3.557839e+01 -4.787763e+02
      vertex -2.292252e+02 -3.669814e+01 -4.937630e+02
      vertex -2.307273e+02 -3.669814e+01 -4.937630e+02
    endloop
  endfacet
  facet normal 1.611445e-16 9.972204e-01 -7.450878e-02
    outer loop
      vertex -2.454787e+02 -3.557839e+01 -4.787763e+02
      vertex -1.135658e+02 -3.557839e+01 -4.787763e+02
      vertex -2.307273e+02 -3.669814e+01 -4.937630e+02
    endloop
  endfacet
  facet normal 1.680201e-17 9.972204e-01 -7.450878e-02
    outer loop
      vertex -2.454787e+02 -3.771439e+01 -5.073644e+02
      vertex -2.454787e+02 -3.557839e+01 -4.787763e+02
      vertex -2.307273e+02 -3.669814e+01 -4.937630e+02
    endloop
  endfacet
  facet normal 5.470674e-16 9.972204e-01 -7.450878e-02
    outer loop
      vertex -2.445915e+02 -3.779677e+01 -5.084670e+02
      vertex -2.454787e+02 -3.771439e+01 -5.073644e+02
      vertex -2.307273e+02 -3.669814e+01 -4.937630e+02
    endloop
  endfacet
  facet normal 1.097892e-16 9.972204e-01 -7.450878e-02
    outer loop
      vertex -1.135658e+02 -3.557839e+01 -4.787763e+02
      vertex -2.284737e+02 -3.679510e+01 -4.950607e+02
      vertex -2.292252e+02 -3.669814e+01 -4.937630e+02
    endloop
  endfacet
  facet normal 2.065473e-16 9.972204e-01 -7.450878e-02
    outer loop
      vertex -1.135658e+02 -3.557839e+01 -4.787763e+02
      vertex -2.284737e+02 -3.688433e+01 -4.962548e+02
      vertex -2.284737e+02 -3.679510e+01 -4.950607e+02
    endloop
  endfacet
  facet normal 0.000000e+00 9.972204e-01 -7.450878e-02
    outer loop
      vertex -2.199333e+02 -3.687046e+01 -4.960692e+02
      vertex -2.203519e+02 -3.688433e+01 -4.962548e+02
      vertex -2.284737e+02 -3.688433e+01 -4.962548e+02
    endloop
  endfacet
  facet normal -3.045899e-16 9.972204e-01 -7.450878e-02
    outer loop
      vertex -1.135658e+02 -3.557839e+01 -4.787763e+02
      vertex -2.199333e+02 -3.687046e+01 -4.960692e+02
      vertex -2.284737e+02 -3.688433e+01 -4.962548e+02
    endloop
  endfacet
  facet normal 3.266062e-15 9.972204e-01 -7.450878e-02
    outer loop
      vertex -1.135658e+02 -3.557839e+01 -4.787763e+02
      vertex -2.194787e+02 -3.686570e+01 -4.960055e+02
      vertex -2.199333e+02 -3.687046e+01 -4.960692e+02
    endloop
  endfacet
  facet normal 1.542225e-16 9.972204e-01 -7.450878e-02
    outer loop
      vertex -1.135658e+02 -3.557839e+01 -4.787763e+02
      vertex -1.274787e+02 -3.686570e+01 -4.960055e+02
      vertex -2.194787e+02 -3.686570e+01 -4.960055e+02
    endloop
  endfacet
  facet normal -6.875499e-16 9.972204e-01 -7.450878e-02
    outer loop
      vertex -1.135658e+02 -3.557839e+01 -4.787763e+02
      vertex -1.260497e+02 -3.692719e+01 -4.968285e+02
      vertex -1.274787e+02 -3.686570e+01 -4.960055e+02
    endloop
  endfacet
  facet normal 1.552696e-15 9.972204e-01 -7.450878e-02
    outer loop
      vertex -1.135658e+02 -3.557839e+01 -4.787763e+02
      vertex -1.260497e+02 -3.705009e+01 -4.984734e+02
      vertex -1.260497e+02 -3.692719e+01 -4.968285e+02
    endloop
  endfacet
  facet normal -2.731519e-15 9.972204e-01 -7.450878e-02
    outer loop
      vertex -1.135074e+02 -3.559468e+01 -4.789943e+02
      vertex -1.260497e+02 -3.705009e+01 -4.984734e+02
      vertex -1.135658e+02 -3.557839e+01 -4.787763e+02
    endloop
  endfacet
  facet normal -3.140106e-14 9.972204e-01 -7.450878e-02
    outer loop
      vertex -1.135074e+02 -3.559468e+01 -4.789943e+02
      vertex -1.134590e+02 -3.561114e+01 -4.792146e+02
      vertex -1.260497e+02 -3.705009e+01 -4.984734e+02
    endloop
  endfacet
  facet normal 1.277409e-17 7.944732e-02 9.968391e-01
    outer loop
      vertex -1.135658e+02 -3.695763e+01 -4.786664e+02
      vertex -1.135658e+02 -3.557839e+01 -4.787763e+02
      vertex -2.454787e+02 -3.557839e+01 -4.787763e+02
    endloop
  endfacet
  facet normal -1.000000e+00 0.000000e+00 0.000000e+00
    outer loop
      vertex -2.454787e+02 -3.562585e+01 -4.787726e+02
      vertex -2.454787e+02 -3.557839e+01 -4.787763e+02
      vertex -2.454787e+02 -3.771439e+01 -5.073644e+02
    endloop
  endfacet
  facet normal -7.831364e-17 7.944732e-02 9.968391e-01
    outer loop
      vertex -2.454787e+02 -3.562585e+01 -4.787726e+02
      vertex -1.135658e+02 -3.695763e+01 -4.786664e+02
      vertex -2.454787e+02 -3.557839e+01 -4.787763e+02
    endloop
  endfacet
  facet normal -4.102242e-01 8.236062e-01 -3.916490e-01
    outer loop
      vertex -2.454787e+02 -3.833195e+01 -5.086631e+02
      vertex -2.454787e+02 -3.771439e+01 -5.073644e+02
      vertex -2.445915e+02 -3.779677e+01 -5.084670e+02
    endloop
  endfacet
  facet normal -1.000000e+00 0.000000e+00 0.000000e+00
    outer loop
      vertex -2.454787e+02 -3.615020e+01 -4.853517e+02
      vertex -2.454787e+02 -3.562585e+01 -4.787726e+02
      vertex -2.454787e+02 -3.771439e+01 -5.073644e+02
    endloop
  endfacet
  facet normal -1.000000e+00 0.000000e+00 0.000000e+00
    outer loop
      vertex -2.454787e+02 -3.796292e+01 -4.984449e+02
      vertex -2.454787e+02 -3.739640e+01 -4.976135e+02
      vertex -2.454787e+02 -3.771439e+01 -5.073644e+02
    endloop
  endfacet
  facet normal -1.000000e+00 0.000000e+00 0.000000e+00
    outer loop
      vertex -2.454787e+02 -3.615020e+01 -4.853517e+02
      vertex -2.454787e+02 -3.771439e+01 -5.073644e+02
      vertex -2.454787e+02 -3.739640e+01 -4.976135e+02
    endloop
  endfacet
  facet normal -1.000000e+00 0.000000e+00 0.000000e+00
    outer loop
      vertex -2.454787e+02 -3.896662e+01 -4.983699e+02
      vertex -2.454787e+02 -3.796292e+01 -4.984449e+02
      vertex -2.454787e+02 -3.771439e+01 -5.073644e+02
    endloop
  endfacet
  facet normal -1.000000e+00 0.000000e+00 0.000000e+00
    outer loop
      vertex -2.454787e+02 -3.833195e+01 -5.086631e+02
      vertex -2.454787e+02 -4.017070e+01 -5.085062e+02
      vertex -2.454787e+02 -3.771439e+01 -5.073644e+02
    endloop
  endfacet
  facet normal 3.998833e-15 9.972204e-01 -7.450878e-02
    outer loop
      vertex -1.113507e+02 -3.665853e+01 -4.932328e+02
      vertex -1.104982e+02 -3.771555e+01 -5.073799e+02
      vertex -1.113714e+02 -3.779760e+01 -5.084780e+02
    endloop
  endfacet
  facet normal 4.124670e-01 8.234933e-01 -3.895250e-01
    outer loop
      vertex -1.104830e+02 -3.832846e+01 -5.086596e+02
      vertex -1.113714e+02 -3.779760e+01 -5.084780e+02
      vertex -1.104982e+02 -3.771555e+01 -5.073799e+02
    endloop
  endfacet
  facet normal 4.714291e-01 8.582778e-01 -2.027657e-01
    outer loop
      vertex -1.104777e+02 -3.859807e+01 -5.097885e+02
      vertex -1.113714e+02 -3.779760e+01 -5.084780e+02
      vertex -1.104830e+02 -3.832846e+01 -5.086596e+02
    endloop
  endfacet
  facet normal 9.999346e-01 9.348113e-04 1.140091e-02
    outer loop
      vertex -1.104830e+02 -3.832846e+01 -5.086596e+02
      vertex -1.104982e+02 -3.771555e+01 -5.073799e+02
      vertex -1.104831e+02 -4.017396e+01 -5.085007e+02
    endloop
  endfacet
  facet normal 1.849054e-16 9.968391e-01 -7.944732e-02
    outer loop
      vertex -2.504787e+02 -3.575296e+01 -4.803675e+02
      vertex -2.887846e+02 -3.575296e+01 -4.803675e+02
      vertex -2.454787e+02 -3.562585e+01 -4.787726e+02
    endloop
  endfacet
  facet normal 1.195490e-16 9.968391e-01 -7.944732e-02
    outer loop
      vertex -2.895622e+02 -3.571180e+01 -4.798510e+02
      vertex -2.454787e+02 -3.562585e+01 -4.787726e+02
      vertex -2.887846e+02 -3.575296e+01 -4.803675e+02
    endloop
  endfacet
  facet normal -2.095657e-16 9.968391e-01 -7.944732e-02
    outer loop
      vertex -2.469433e+02 -3.586932e+01 -4.818274e+02
      vertex -2.504787e+02 -3.575296e+01 -4.803675e+02
      vertex -2.454787e+02 -3.562585e+01 -4.787726e+02
    endloop
  endfacet
  facet normal 2.940385e-15 9.968391e-01 -7.944732e-02
    outer loop
      vertex -2.469433e+02 -3.586932e+01 -4.818274e+02
      vertex -2.454787e+02 -3.562585e+01 -4.787726e+02
      vertex -2.454787e+02 -3.615020e+01 -4.853517e+02
    endloop
  endfacet
  facet normal 1.659629e-16 9.968391e-01 -7.944732e-02
    outer loop
      vertex -2.895622e+02 -3.571180e+01 -4.798510e+02
      vertex -2.904787e+02 -3.569735e+01 -4.796697e+02
      vertex -2.454787e+02 -3.562585e+01 -4.787726e+02
    endloop
  endfacet
  facet normal 0.000000e+00 9.968391e-01 -7.944732e-02
    outer loop
      vertex -1.194787e+02 -3.674741e+01 -4.760288e+02
      vertex -1.194787e+02 -3.667162e+01 -4.750778e+02
      vertex -1.183658e+02 -3.667162e+01 -4.750778e+02
    endloop
  endfacet
  facet normal -4.058714e-17 9.968391e-01 -7.944732e-02
    outer loop
      vertex -1.153658e+02 -3.675106e+01 -4.760746e+02
      vertex -1.194787e+02 -3.674741e+01 -4.760288e+02
      vertex -1.183658e+02 -3.667162e+01 -4.750778e+02
    endloop
  endfacet
  facet normal 1.000000e+00 0.000000e+00 0.000000e+00
    outer loop
      vertex -1.194787e+02 -3.538124e+01 -4.761377e+02
      vertex -1.194787e+02 -3.667162e+01 -4.750778e+02
      vertex -1.194787e+02 -3.674741e+01 -4.760288e+02
    endloop
  endfacet
  facet normal 1.000000e+00 0.000000e+00 0.000000e+00
    outer loop
      vertex -1.194787e+02 -3.531016e+01 -4.751863e+02
      vertex -1.194787e+02 -3.667162e+01 -4.750778e+02
      vertex -1.194787e+02 -3.538124e+01 -4.761377e+02
    endloop
  endfacet
  facet normal 0.000000e+00 -8.263824e-01 5.631093e-01
    outer loop
      vertex -2.314787e+02 -3.739640e+01 -4.976135e+02
      vertex -2.454787e+02 -3.739640e+01 -4.976135e+02
      vertex -2.454787e+02 -3.796292e+01 -4.984449e+02
    endloop
  endfacet
  facet normal 0.000000e+00 -9.008869e-01 -4.340538e-01
    outer loop
      vertex -2.314787e+02 -3.783308e+01 -4.967071e+02
      vertex -2.454787e+02 -3.783308e+01 -4.967071e+02
      vertex -2.454787e+02 -3.739640e+01 -4.976135e+02
    endloop
  endfacet
  facet normal 0.000000e+00 -9.008869e-01 -4.340538e-01
    outer loop
      vertex -2.314787e+02 -3.783308e+01 -4.967071e+02
      vertex -2.454787e+02 -3.739640e+01 -4.976135e+02
      vertex -2.314787e+02 -3.739640e+01 -4.976135e+02
    endloop
  endfacet
  facet normal 0.000000e+00 7.450878e-02 9.972204e-01
    outer loop
      vertex -2.314787e+02 -3.796292e+01 -4.984449e+02
      vertex -2.454787e+02 -3.796292e+01 -4.984449e+02
      vertex -2.454787e+02 -3.896662e+01 -4.983699e+02
    endloop
  endfacet
  facet normal 0.000000e+00 -8.263824e-01 5.631093e-01
    outer loop
      vertex -2.314787e+02 -3.796292e+01 -4.984449e+02
      vertex -2.314787e+02 -3.739640e+01 -4.976135e+02
      vertex -2.454787e+02 -3.796292e+01 -4.984449e+02
    endloop
  endfacet
  facet normal 4.572276e-16 9.008869e-01 4.340538e-01
    outer loop
      vertex -2.314787e+02 -3.896662e+01 -4.983699e+02
      vertex -2.454787e+02 -3.896662e+01 -4.983699e+02
      vertex -2.454787e+02 -3.940330e+01 -4.974635e+02
    endloop
  endfacet
  facet normal 3.781548e-17 7.450878e-02 9.972204e-01
    outer loop
      vertex -2.314787e+02 -3.896662e+01 -4.983699e+02
      vertex -2.314787e+02 -3.796292e+01 -4.984449e+02
      vertex -2.454787e+02 -3.896662e+01 -4.983699e+02
    endloop
  endfacet
  facet normal 4.194143e-16 8.263824e-01 -5.631093e-01
    outer loop
      vertex -2.314787e+02 -3.940330e+01 -4.974635e+02
      vertex -2.454787e+02 -3.940330e+01 -4.974635e+02
      vertex -2.454787e+02 -3.883678e+01 -4.966321e+02
    endloop
  endfacet
  facet normal 4.571764e-16 9.008869e-01 4.340538e-01
    outer loop
      vertex -2.314787e+02 -3.896662e+01 -4.983699e+02
      vertex -2.454787e+02 -3.940330e+01 -4.974635e+02
      vertex -2.314787e+02 -3.940330e+01 -4.974635e+02
    endloop
  endfacet
  facet normal 0.000000e+00 -7.450878e-02 -9.972204e-01
    outer loop
      vertex -2.314787e+02 -3.883678e+01 -4.966321e+02
      vertex -2.454787e+02 -3.883678e+01 -4.966321e+02
      vertex -2.454787e+02 -3.783308e+01 -4.967071e+02
    endloop
  endfacet
  facet normal 0.000000e+00 8.263824e-01 -5.631093e-01
    outer loop
      vertex -2.314787e+02 -3.883678e+01 -4.966321e+02
      vertex -2.314787e+02 -3.940330e+01 -4.974635e+02
      vertex -2.454787e+02 -3.883678e+01 -4.966321e+02
    endloop
  endfacet
  facet normal 0.000000e+00 -7.450878e-02 -9.972204e-01
    outer loop
      vertex -2.314787e+02 -3.783308e+01 -4.967071e+02
      vertex -2.314787e+02 -3.883678e+01 -4.966321e+02
      vertex -2.454787e+02 -3.783308e+01 -4.967071e+02
    endloop
  endfacet
  facet normal -1.000000e+00 0.000000e+00 0.000000e+00
    outer loop
      vertex -2.454787e+02 -3.859746e+01 -5.097885e+02
      vertex -2.454787e+02 -4.008466e+01 -5.096700e+02
      vertex -2.454787e+02 -4.017070e+01 -5.085062e+02
    endloop
  endfacet
  facet normal -1.000000e+00 0.000000e+00 0.000000e+00
    outer loop
      vertex -2.454787e+02 -3.833195e+01 -5.086631e+02
      vertex -2.454787e+02 -3.859746e+01 -5.097885e+02
      vertex -2.454787e+02 -4.017070e+01 -5.085062e+02
    endloop
  endfacet
  facet normal -1.000000e+00 0.000000e+00 0.000000e+00
    outer loop
      vertex -2.454787e+02 -3.859746e+01 -5.097885e+02
      vertex -2.454787e+02 -4.111610e+01 -5.413903e+02
      vertex -2.454787e+02 -4.008466e+01 -5.096700e+02
    endloop
  endfacet
  facet normal -9.301907e-01 -2.916325e-02 -3.659163e-01
    outer loop
      vertex -2.453440e+02 -4.106568e+01 -5.417368e+02
      vertex -2.454787e+02 -4.151183e+01 -5.413587e+02
      vertex -2.454787e+02 -4.111610e+01 -5.413903e+02
    endloop
  endfacet
  facet normal -9.502731e-01 2.386293e-02 -3.105022e-01
    outer loop
      vertex -2.453886e+02 -4.158503e+01 -5.416402e+02
      vertex -2.454787e+02 -4.151183e+01 -5.413587e+02
      vertex -2.453440e+02 -4.106568e+01 -5.417368e+02
    endloop
  endfacet
  facet normal 9.997991e-01 -2.296742e-03 -1.990988e-02
    outer loop
      vertex -1.104777e+02 -3.859807e+01 -5.097885e+02
      vertex -1.104787e+02 -4.008466e+01 -5.096700e+02
      vertex -1.106081e+02 -4.067211e+01 -5.161004e+02
    endloop
  endfacet
  facet normal 9.997081e-01 7.254270e-03 -2.304637e-02
    outer loop
      vertex -1.106399e+02 -3.907692e+01 -5.169755e+02
      vertex -1.104777e+02 -3.859807e+01 -5.097885e+02
      vertex -1.106081e+02 -4.067211e+01 -5.161004e+02
    endloop
  endfacet
  facet normal 9.999929e-01 2.759664e-04 3.750416e-03
    outer loop
      vertex -1.104830e+02 -3.832846e+01 -5.086596e+02
      vertex -1.104831e+02 -4.017396e+01 -5.085007e+02
      vertex -1.104787e+02 -4.008466e+01 -5.096700e+02
    endloop
  endfacet
  facet normal 9.999884e-01 -3.275616e-04 4.799451e-03
    outer loop
      vertex -1.104777e+02 -3.859807e+01 -5.097885e+02
      vertex -1.104830e+02 -3.832846e+01 -5.086596e+02
      vertex -1.104787e+02 -4.008466e+01 -5.096700e+02
    endloop
  endfacet
  facet normal -5.653882e-01 -1.037086e-01 -8.182791e-01
    outer loop
      vertex -2.453886e+02 -4.158503e+01 -5.416402e+02
      vertex -2.453440e+02 -4.106568e+01 -5.417368e+02
      vertex -2.451824e+02 -4.098186e+01 -5.418591e+02
    endloop
  endfacet
endsolid 154_100022596-17
