solid 156_100022596-16
  facet normal -1.000000e+00 0.000000e+00 0.000000e+00
    outer loop
      vertex -3.154787e+02 -4.316937e+01 -4.794555e+02
      vertex -3.154787e+02 -4.040973e+01 -4.787994e+02
      vertex -3.154787e+02 -4.049013e+01 -4.796958e+02
    endloop
  endfacet
  facet normal 1.011002e-16 9.960017e-01 -8.933476e-02
    outer loop
      vertex -2.454787e+02 -4.040973e+01 -4.787994e+02
      vertex -3.154787e+02 -4.049013e+01 -4.796958e+02
      vertex -3.154787e+02 -4.040973e+01 -4.787994e+02
    endloop
  endfacet
  facet normal -2.539047e-17 -8.933476e-02 -9.960017e-01
    outer loop
      vertex -2.904787e+02 -4.049013e+01 -4.796958e+02
      vertex -3.154787e+02 -4.316937e+01 -4.794555e+02
      vertex -3.154787e+02 -4.049013e+01 -4.796958e+02
    endloop
  endfacet
  facet normal 2.830807e-16 9.960017e-01 -8.933476e-02
    outer loop
      vertex -2.904787e+02 -4.049013e+01 -4.796958e+02
      vertex -3.154787e+02 -4.049013e+01 -4.796958e+02
      vertex -2.454787e+02 -4.040973e+01 -4.787994e+02
    endloop
  endfacet
  facet normal -1.000000e+00 0.000000e+00 0.000000e+00
    outer loop
      vertex -3.154787e+02 -4.316937e+01 -4.794555e+02
      vertex -3.154787e+02 -4.174039e+01 -4.786801e+02
      vertex -3.154787e+02 -4.040973e+01 -4.787994e+02
    endloop
  endfacet
  facet normal 9.431221e-18 8.933476e-02 9.960017e-01
    outer loop
      vertex -1.135658e+02 -4.174039e+01 -4.786801e+02
      vertex -3.154787e+02 -4.040973e+01 -4.787994e+02
      vertex -3.154787e+02 -4.174039e+01 -4.786801e+02
    endloop
  endfacet
  facet normal 9.068024e-18 8.933476e-02 9.960017e-01
    outer loop
      vertex -2.454787e+02 -4.040973e+01 -4.787994e+02
      vertex -3.154787e+02 -4.040973e+01 -4.787994e+02
      vertex -1.135658e+02 -4.174039e+01 -4.786801e+02
    endloop
  endfacet
  facet normal -1.000000e+00 0.000000e+00 0.000000e+00
    outer loop
      vertex -3.154787e+02 -4.276737e+01 -4.749735e+02
      vertex -3.154787e+02 -4.150401e+01 -4.760446e+02
      vertex -3.154787e+02 -4.174039e+01 -4.786801e+02
    endloop
  endfacet
  facet normal 1.083217e-16 9.960017e-01 -8.933476e-02
    outer loop
      vertex -1.194787e+02 -4.150401e+01 -4.760446e+02
      vertex -3.154787e+02 -4.174039e+01 -4.786801e+02
      vertex -3.154787e+02 -4.150401e+01 -4.760446e+02
    endloop
  endfacet
  facet normal -1.000000e+00 0.000000e+00 0.000000e+00
    outer loop
      vertex -3.154787e+02 -4.316937e+01 -4.794555e+02
      vertex -3.154787e+02 -4.276737e+01 -4.749735e+02
      vertex -3.154787e+02 -4.174039e+01 -4.786801e+02
    endloop
  endfacet
  facet normal 1.051064e-16 9.960017e-01 -8.933476e-02
    outer loop
      vertex -1.153658e+02 -4.150812e+01 -4.760905e+02
      vertex -1.135658e+02 -4.174039e+01 -4.786801e+02
      vertex -3.154787e+02 -4.174039e+01 -4.786801e+02
    endloop
  endfacet
  facet normal -5.814755e-17 9.960017e-01 -8.933476e-02
    outer loop
      vertex -1.153658e+02 -4.150812e+01 -4.760905e+02
      vertex -3.154787e+02 -4.174039e+01 -4.786801e+02
      vertex -1.194787e+02 -4.150401e+01 -4.760446e+02
    endloop
  endfacet
  facet normal -1.000000e+00 0.000000e+00 0.000000e+00
    outer loop
      vertex -3.154787e+02 -4.005847e+01 -4.752165e+02
      vertex -3.154787e+02 -4.013899e+01 -4.761671e+02
      vertex -3.154787e+02 -4.150401e+01 -4.760446e+02
    endloop
  endfacet
  facet normal -9.715740e-18 -8.933476e-02 -9.960017e-01
    outer loop
      vertex -1.194787e+02 -4.013899e+01 -4.761671e+02
      vertex -3.154787e+02 -4.150401e+01 -4.760446e+02
      vertex -3.154787e+02 -4.013899e+01 -4.761671e+02
    endloop
  endfacet
  facet normal -1.000000e+00 0.000000e+00 0.000000e+00
    outer loop
      vertex -3.154787e+02 -4.276737e+01 -4.749735e+02
      vertex -3.154787e+02 -4.005847e+01 -4.752165e+02
      vertex -3.154787e+02 -4.150401e+01 -4.760446e+02
    endloop
  endfacet
  facet normal -9.712772e-18 -8.933476e-02 -9.960017e-01
    outer loop
      vertex -1.194787e+02 -4.013899e+01 -4.761671e+02
      vertex -1.194787e+02 -4.150401e+01 -4.760446e+02
      vertex -3.154787e+02 -4.150401e+01 -4.760446e+02
    endloop
  endfacet
  facet normal 1.444913e-16 9.964319e-01 -8.440025e-02
    outer loop
      vertex -1.194787e+02 -4.005847e+01 -4.752165e+02
      vertex -3.154787e+02 -4.013899e+01 -4.761671e+02
      vertex -3.154787e+02 -4.005847e+01 -4.752165e+02
    endloop
  endfacet
  facet normal 1.083586e-16 9.964319e-01 -8.440025e-02
    outer loop
      vertex -1.194787e+02 -4.005847e+01 -4.752165e+02
      vertex -1.194787e+02 -4.013899e+01 -4.761671e+02
      vertex -3.154787e+02 -4.013899e+01 -4.761671e+02
    endloop
  endfacet
  facet normal 9.660885e-18 8.933476e-02 9.960017e-01
    outer loop
      vertex -1.183658e+02 -4.276737e+01 -4.749735e+02
      vertex -3.154787e+02 -4.005847e+01 -4.752165e+02
      vertex -3.154787e+02 -4.276737e+01 -4.749735e+02
    endloop
  endfacet
  facet normal -1.399013e-17 8.933476e-02 9.960017e-01
    outer loop
      vertex -1.194787e+02 -4.141878e+01 -4.750945e+02
      vertex -3.154787e+02 -4.005847e+01 -4.752165e+02
      vertex -1.183658e+02 -4.276737e+01 -4.749735e+02
    endloop
  endfacet
  facet normal 1.295432e-17 8.933476e-02 9.960017e-01
    outer loop
      vertex -1.194787e+02 -4.005847e+01 -4.752165e+02
      vertex -3.154787e+02 -4.005847e+01 -4.752165e+02
      vertex -1.194787e+02 -4.141878e+01 -4.750945e+02
    endloop
  endfacet
  facet normal -2.830807e-16 -9.960017e-01 8.933476e-02
    outer loop
      vertex -2.904787e+02 -4.316937e+01 -4.794555e+02
      vertex -3.154787e+02 -4.276737e+01 -4.749735e+02
      vertex -3.154787e+02 -4.316937e+01 -4.794555e+02
    endloop
  endfacet
  facet normal -1.077101e-16 -9.960017e-01 8.933476e-02
    outer loop
      vertex -1.183658e+02 -4.276737e+01 -4.749735e+02
      vertex -3.154787e+02 -4.276737e+01 -4.749735e+02
      vertex -1.274787e+02 -4.378373e+01 -4.863050e+02
    endloop
  endfacet
  facet normal -1.175061e-16 -9.960017e-01 8.933476e-02
    outer loop
      vertex -2.504787e+02 -4.323191e+01 -4.801527e+02
      vertex -1.274787e+02 -4.378373e+01 -4.863050e+02
      vertex -3.154787e+02 -4.276737e+01 -4.749735e+02
    endloop
  endfacet
  facet normal -5.465713e-17 -9.960017e-01 8.933476e-02
    outer loop
      vertex -2.904787e+02 -4.316937e+01 -4.794555e+02
      vertex -2.504787e+02 -4.323191e+01 -4.801527e+02
      vertex -3.154787e+02 -4.276737e+01 -4.749735e+02
    endloop
  endfacet
  facet normal -2.476334e-17 -8.933476e-02 -9.960017e-01
    outer loop
      vertex -2.904787e+02 -4.049013e+01 -4.796958e+02
      vertex -2.904787e+02 -4.316937e+01 -4.794555e+02
      vertex -3.154787e+02 -4.316937e+01 -4.794555e+02
    endloop
  endfacet
  facet normal -7.693670e-17 -9.960017e-01 8.933476e-02
    outer loop
      vertex -1.116912e+02 -4.587211e+01 -5.095885e+02
      vertex -1.274787e+02 -4.407853e+01 -4.895918e+02
      vertex -2.194787e+02 -4.407853e+01 -4.895918e+02
    endloop
  endfacet
  facet normal 6.914382e-18 8.933476e-02 9.960017e-01
    outer loop
      vertex -2.194787e+02 -4.129723e+01 -4.898413e+02
      vertex -2.194787e+02 -4.407853e+01 -4.895918e+02
      vertex -1.274787e+02 -4.407853e+01 -4.895918e+02
    endloop
  endfacet
  facet normal -9.195992e-14 -9.960017e-01 8.933476e-02
    outer loop
      vertex -1.116912e+02 -4.587211e+01 -5.095885e+02
      vertex -2.194787e+02 -4.407853e+01 -4.895918e+02
      vertex -2.199333e+02 -4.407283e+01 -4.895282e+02
    endloop
  endfacet
  facet normal 1.391629e-01 8.846552e-02 9.863101e-01
    outer loop
      vertex -2.199333e+02 -4.129183e+01 -4.897776e+02
      vertex -2.199333e+02 -4.407283e+01 -4.895282e+02
      vertex -2.194787e+02 -4.407853e+01 -4.895918e+02
    endloop
  endfacet
  facet normal 1.391627e-01 8.846549e-02 9.863101e-01
    outer loop
      vertex -2.199333e+02 -4.129183e+01 -4.897776e+02
      vertex -2.194787e+02 -4.407853e+01 -4.895918e+02
      vertex -2.194787e+02 -4.129723e+01 -4.898413e+02
    endloop
  endfacet
  facet normal -8.515948e-16 -9.960017e-01 8.933476e-02
    outer loop
      vertex -1.116912e+02 -4.587211e+01 -5.095885e+02
      vertex -1.260497e+02 -4.400481e+01 -4.887699e+02
      vertex -1.274787e+02 -4.407853e+01 -4.895918e+02
    endloop
  endfacet
  facet normal -5.000957e-01 7.736124e-02 8.625077e-01
    outer loop
      vertex -1.274787e+02 -4.129723e+01 -4.898413e+02
      vertex -1.274787e+02 -4.407853e+01 -4.895918e+02
      vertex -1.260497e+02 -4.400481e+01 -4.887699e+02
    endloop
  endfacet
  facet normal 1.379917e-17 8.933476e-02 9.960017e-01
    outer loop
      vertex -1.274787e+02 -4.129723e+01 -4.898413e+02
      vertex -2.194787e+02 -4.129723e+01 -4.898413e+02
      vertex -1.274787e+02 -4.407853e+01 -4.895918e+02
    endloop
  endfacet
  facet normal 2.099997e-15 -9.960017e-01 8.933476e-02
    outer loop
      vertex -1.116912e+02 -4.587211e+01 -5.095885e+02
      vertex -1.260497e+02 -4.385745e+01 -4.871270e+02
      vertex -1.260497e+02 -4.400481e+01 -4.887699e+02
    endloop
  endfacet
  facet normal -1.000000e+00 -9.386470e-07 8.419043e-08
    outer loop
      vertex -1.260497e+02 -4.122757e+01 -4.890190e+02
      vertex -1.260497e+02 -4.400481e+01 -4.887699e+02
      vertex -1.260497e+02 -4.385745e+01 -4.871270e+02
    endloop
  endfacet
  facet normal -5.000943e-01 7.736225e-02 8.625084e-01
    outer loop
      vertex -1.274787e+02 -4.129723e+01 -4.898413e+02
      vertex -1.260497e+02 -4.400481e+01 -4.887699e+02
      vertex -1.260497e+02 -4.122757e+01 -4.890190e+02
    endloop
  endfacet
  facet normal 8.964733e-16 -9.960017e-01 8.933476e-02
    outer loop
      vertex -1.183658e+02 -4.276737e+01 -4.749735e+02
      vertex -1.274787e+02 -4.378373e+01 -4.863050e+02
      vertex -1.260497e+02 -4.385745e+01 -4.871270e+02
    endloop
  endfacet
  facet normal -5.000957e-01 -7.736029e-02 -8.625078e-01
    outer loop
      vertex -1.260497e+02 -4.108835e+01 -4.873753e+02
      vertex -1.260497e+02 -4.385745e+01 -4.871270e+02
      vertex -1.274787e+02 -4.378373e+01 -4.863050e+02
    endloop
  endfacet
  facet normal 1.631125e-16 -9.960017e-01 8.933476e-02
    outer loop
      vertex -1.116912e+02 -4.587211e+01 -5.095885e+02
      vertex -1.183658e+02 -4.276737e+01 -4.749735e+02
      vertex -1.260497e+02 -4.385745e+01 -4.871270e+02
    endloop
  endfacet
  facet normal -1.000000e+00 -9.482648e-07 7.082187e-08
    outer loop
      vertex -1.260497e+02 -4.122757e+01 -4.890190e+02
      vertex -1.260497e+02 -4.385745e+01 -4.871270e+02
      vertex -1.260497e+02 -4.108835e+01 -4.873753e+02
    endloop
  endfacet
  facet normal -1.537469e-16 -9.960017e-01 8.933476e-02
    outer loop
      vertex -2.292252e+02 -4.358284e+01 -4.840653e+02
      vertex -2.194787e+02 -4.378373e+01 -4.863050e+02
      vertex -1.274787e+02 -4.378373e+01 -4.863050e+02
    endloop
  endfacet
  facet normal -1.391019e-17 -8.933476e-02 -9.960017e-01
    outer loop
      vertex -1.274787e+02 -4.101870e+01 -4.865530e+02
      vertex -1.274787e+02 -4.378373e+01 -4.863050e+02
      vertex -2.194787e+02 -4.378373e+01 -4.863050e+02
    endloop
  endfacet
  facet normal -1.716326e-16 -9.960017e-01 8.933476e-02
    outer loop
      vertex -2.504787e+02 -4.323191e+01 -4.801527e+02
      vertex -2.292252e+02 -4.358284e+01 -4.840653e+02
      vertex -1.274787e+02 -4.378373e+01 -4.863050e+02
    endloop
  endfacet
  facet normal -5.000943e-01 -7.736131e-02 -8.625085e-01
    outer loop
      vertex -1.260497e+02 -4.108835e+01 -4.873753e+02
      vertex -1.274787e+02 -4.378373e+01 -4.863050e+02
      vertex -1.274787e+02 -4.101870e+01 -4.865530e+02
    endloop
  endfacet
  facet normal -2.565045e-15 -9.960017e-01 8.933476e-02
    outer loop
      vertex -2.292252e+02 -4.358284e+01 -4.840653e+02
      vertex -2.199333e+02 -4.378943e+01 -4.863686e+02
      vertex -2.194787e+02 -4.378373e+01 -4.863050e+02
    endloop
  endfacet
  facet normal 1.391629e-01 -8.846549e-02 -9.863101e-01
    outer loop
      vertex -2.194787e+02 -4.101870e+01 -4.865530e+02
      vertex -2.194787e+02 -4.378373e+01 -4.863050e+02
      vertex -2.199333e+02 -4.378943e+01 -4.863686e+02
    endloop
  endfacet
  facet normal -6.899583e-18 -8.933476e-02 -9.960017e-01
    outer loop
      vertex -1.274787e+02 -4.101870e+01 -4.865530e+02
      vertex -2.194787e+02 -4.378373e+01 -4.863050e+02
      vertex -2.194787e+02 -4.101870e+01 -4.865530e+02
    endloop
  endfacet
  facet normal 4.774008e-15 -9.960017e-01 8.933476e-02
    outer loop
      vertex -2.292252e+02 -4.358284e+01 -4.840653e+02
      vertex -2.203519e+02 -4.380606e+01 -4.865540e+02
      vertex -2.199333e+02 -4.378943e+01 -4.863686e+02
    endloop
  endfacet
  facet normal 4.062280e-01 -8.163161e-02 -9.101182e-01
    outer loop
      vertex -2.199333e+02 -4.102409e+01 -4.866167e+02
      vertex -2.199333e+02 -4.378943e+01 -4.863686e+02
      vertex -2.203519e+02 -4.380606e+01 -4.865540e+02
    endloop
  endfacet
  facet normal 1.391627e-01 -8.846547e-02 -9.863101e-01
    outer loop
      vertex -2.194787e+02 -4.101870e+01 -4.865530e+02
      vertex -2.199333e+02 -4.378943e+01 -4.863686e+02
      vertex -2.199333e+02 -4.102409e+01 -4.866167e+02
    endloop
  endfacet
  facet normal 0.000000e+00 -9.960017e-01 8.933476e-02
    outer loop
      vertex -2.284737e+02 -4.369908e+01 -4.853613e+02
      vertex -2.284737e+02 -4.380606e+01 -4.865540e+02
      vertex -2.203519e+02 -4.380606e+01 -4.865540e+02
    endloop
  endfacet
  facet normal 0.000000e+00 -8.933476e-02 -9.960017e-01
    outer loop
      vertex -2.203519e+02 -4.103980e+01 -4.868021e+02
      vertex -2.203519e+02 -4.380606e+01 -4.865540e+02
      vertex -2.284737e+02 -4.380606e+01 -4.865540e+02
    endloop
  endfacet
  facet normal 2.641044e-16 -9.960017e-01 8.933476e-02
    outer loop
      vertex -2.292252e+02 -4.358284e+01 -4.840653e+02
      vertex -2.284737e+02 -4.369908e+01 -4.853613e+02
      vertex -2.203519e+02 -4.380606e+01 -4.865540e+02
    endloop
  endfacet
  facet normal 4.062279e-01 -8.163159e-02 -9.101182e-01
    outer loop
      vertex -2.199333e+02 -4.102409e+01 -4.866167e+02
      vertex -2.203519e+02 -4.380606e+01 -4.865540e+02
      vertex -2.203519e+02 -4.103980e+01 -4.868021e+02
    endloop
  endfacet
  facet normal -1.000000e+00 0.000000e+00 0.000000e+00
    outer loop
      vertex -2.284737e+02 -4.093873e+01 -4.856089e+02
      vertex -2.284737e+02 -4.380606e+01 -4.865540e+02
      vertex -2.284737e+02 -4.369908e+01 -4.853613e+02
    endloop
  endfacet
  facet normal -1.000000e+00 0.000000e+00 0.000000e+00
    outer loop
      vertex -2.284737e+02 -4.103980e+01 -4.868021e+02
      vertex -2.284737e+02 -4.380606e+01 -4.865540e+02
      vertex -2.284737e+02 -4.093873e+01 -4.856089e+02
    endloop
  endfacet
  facet normal 0.000000e+00 -8.933476e-02 -9.960017e-01
    outer loop
      vertex -2.203519e+02 -4.103980e+01 -4.868021e+02
      vertex -2.284737e+02 -4.380606e+01 -4.865540e+02
      vertex -2.284737e+02 -4.103980e+01 -4.868021e+02
    endloop
  endfacet
  facet normal -8.659701e-01 -4.467593e-02 -4.980962e-01
    outer loop
      vertex -2.284737e+02 -4.093873e+01 -4.856089e+02
      vertex -2.284737e+02 -4.369908e+01 -4.853613e+02
      vertex -2.292252e+02 -4.358284e+01 -4.840653e+02
    endloop
  endfacet
  facet normal 4.703943e-15 -9.960017e-01 8.933476e-02
    outer loop
      vertex -2.504787e+02 -4.323191e+01 -4.801527e+02
      vertex -2.307273e+02 -4.358284e+01 -4.840653e+02
      vertex -2.292252e+02 -4.358284e+01 -4.840653e+02
    endloop
  endfacet
  facet normal 4.009769e-16 -8.933390e-02 -9.960017e-01
    outer loop
      vertex -2.292252e+02 -4.082890e+01 -4.843123e+02
      vertex -2.292252e+02 -4.358284e+01 -4.840653e+02
      vertex -2.307273e+02 -4.358284e+01 -4.840653e+02
    endloop
  endfacet
  facet normal -8.659693e-01 -4.467692e-02 -4.980975e-01
    outer loop
      vertex -2.284737e+02 -4.093873e+01 -4.856089e+02
      vertex -2.292252e+02 -4.358284e+01 -4.840653e+02
      vertex -2.292252e+02 -4.082890e+01 -4.843123e+02
    endloop
  endfacet
  facet normal -8.059273e-16 -9.960017e-01 8.933476e-02
    outer loop
      vertex -2.504787e+02 -4.323191e+01 -4.801527e+02
      vertex -2.314787e+02 -4.369908e+01 -4.853613e+02
      vertex -2.307273e+02 -4.358284e+01 -4.840653e+02
    endloop
  endfacet
  facet normal 8.659701e-01 -4.467680e-02 -4.980961e-01
    outer loop
      vertex -2.307273e+02 -4.082890e+01 -4.843123e+02
      vertex -2.307273e+02 -4.358284e+01 -4.840653e+02
      vertex -2.314787e+02 -4.369908e+01 -4.853613e+02
    endloop
  endfacet
  facet normal -9.464309e-09 -8.933390e-02 -9.960017e-01
    outer loop
      vertex -2.292252e+02 -4.082890e+01 -4.843123e+02
      vertex -2.307273e+02 -4.358284e+01 -4.840653e+02
      vertex -2.307273e+02 -4.082890e+01 -4.843123e+02
    endloop
  endfacet
  facet normal -2.100556e-16 -9.960017e-01 8.933476e-02
    outer loop
      vertex -2.469432e+02 -4.336273e+01 -4.816113e+02
      vertex -2.314787e+02 -4.416318e+01 -4.905355e+02
      vertex -2.314787e+02 -4.369908e+01 -4.853613e+02
    endloop
  endfacet
  facet normal 1.000000e+00 0.000000e+00 0.000000e+00
    outer loop
      vertex -2.314787e+02 -4.354721e+01 -4.879879e+02
      vertex -2.314787e+02 -4.369908e+01 -4.853613e+02
      vertex -2.314787e+02 -4.416318e+01 -4.905355e+02
    endloop
  endfacet
  facet normal -6.184387e-16 -9.960017e-01 8.933476e-02
    outer loop
      vertex -2.504787e+02 -4.323191e+01 -4.801527e+02
      vertex -2.469432e+02 -4.336273e+01 -4.816113e+02
      vertex -2.314787e+02 -4.369908e+01 -4.853613e+02
    endloop
  endfacet
  facet normal 8.659693e-01 -4.467606e-02 -4.980975e-01
    outer loop
      vertex -2.307273e+02 -4.082890e+01 -4.843123e+02
      vertex -2.314787e+02 -4.369908e+01 -4.853613e+02
      vertex -2.314787e+02 -4.093873e+01 -4.856089e+02
    endloop
  endfacet
  facet normal 1.000000e+00 0.000000e+00 0.000000e+00
    outer loop
      vertex -2.314787e+02 -4.297247e+01 -4.871621e+02
      vertex -2.314787e+02 -4.093873e+01 -4.856089e+02
      vertex -2.314787e+02 -4.369908e+01 -4.853613e+02
    endloop
  endfacet
  facet normal 1.000000e+00 0.000000e+00 0.000000e+00
    outer loop
      vertex -2.314787e+02 -4.297247e+01 -4.871621e+02
      vertex -2.314787e+02 -4.369908e+01 -4.853613e+02
      vertex -2.314787e+02 -4.354721e+01 -4.879879e+02
    endloop
  endfacet
  facet normal 1.832773e-15 -9.960017e-01 8.933476e-02
    outer loop
      vertex -2.442663e+02 -4.587211e+01 -5.095885e+02
      vertex -2.307273e+02 -4.427942e+01 -4.918316e+02
      vertex -2.314787e+02 -4.416318e+01 -4.905355e+02
    endloop
  endfacet
  facet normal 8.659701e-01 4.467593e-02 4.980962e-01
    outer loop
      vertex -2.314787e+02 -4.137720e+01 -4.907854e+02
      vertex -2.314787e+02 -4.416318e+01 -4.905355e+02
      vertex -2.307273e+02 -4.427942e+01 -4.918316e+02
    endloop
  endfacet
  facet normal -3.319021e-16 -9.960017e-01 8.933476e-02
    outer loop
      vertex -2.454787e+02 -4.367858e+01 -4.851327e+02
      vertex -2.442663e+02 -4.587211e+01 -5.095885e+02
      vertex -2.314787e+02 -4.416318e+01 -4.905355e+02
    endloop
  endfacet
  facet normal -1.923664e-16 -9.960017e-01 8.933476e-02
    outer loop
      vertex -2.469432e+02 -4.336273e+01 -4.816113e+02
      vertex -2.454787e+02 -4.367858e+01 -4.851327e+02
      vertex -2.314787e+02 -4.416318e+01 -4.905355e+02
    endloop
  endfacet
  facet normal 1.000000e+00 0.000000e+00 0.000000e+00
    outer loop
      vertex -2.314787e+02 -4.211664e+01 -4.889834e+02
      vertex -2.314787e+02 -4.416318e+01 -4.905355e+02
      vertex -2.314787e+02 -4.137720e+01 -4.907854e+02
    endloop
  endfacet
  facet normal 1.000000e+00 0.000000e+00 0.000000e+00
    outer loop
      vertex -2.314787e+02 -4.311954e+01 -4.888985e+02
      vertex -2.314787e+02 -4.354721e+01 -4.879879e+02
      vertex -2.314787e+02 -4.416318e+01 -4.905355e+02
    endloop
  endfacet
  facet normal 1.000000e+00 0.000000e+00 0.000000e+00
    outer loop
      vertex -2.314787e+02 -4.311954e+01 -4.888985e+02
      vertex -2.314787e+02 -4.416318e+01 -4.905355e+02
      vertex -2.314787e+02 -4.211664e+01 -4.889834e+02
    endloop
  endfacet
  facet normal 0.000000e+00 -9.960017e-01 8.933476e-02
    outer loop
      vertex -1.116912e+02 -4.587211e+01 -5.095885e+02
      vertex -2.292252e+02 -4.427942e+01 -4.918316e+02
      vertex -2.307273e+02 -4.427942e+01 -4.918316e+02
    endloop
  endfacet
  facet normal 0.000000e+00 8.933561e-02 9.960016e-01
    outer loop
      vertex -2.307273e+02 -4.148702e+01 -4.920820e+02
      vertex -2.307273e+02 -4.427942e+01 -4.918316e+02
      vertex -2.292252e+02 -4.427942e+01 -4.918316e+02
    endloop
  endfacet
  facet normal -1.067624e-16 -9.960017e-01 8.933476e-02
    outer loop
      vertex -2.442663e+02 -4.587211e+01 -5.095885e+02
      vertex -1.116912e+02 -4.587211e+01 -5.095885e+02
      vertex -2.307273e+02 -4.427942e+01 -4.918316e+02
    endloop
  endfacet
  facet normal 8.659693e-01 4.467520e-02 4.980976e-01
    outer loop
      vertex -2.314787e+02 -4.137720e+01 -4.907854e+02
      vertex -2.307273e+02 -4.427942e+01 -4.918316e+02
      vertex -2.307273e+02 -4.148702e+01 -4.920820e+02
    endloop
  endfacet
  facet normal -4.485258e-16 -9.960017e-01 8.933476e-02
    outer loop
      vertex -1.116912e+02 -4.587211e+01 -5.095885e+02
      vertex -2.284737e+02 -4.416318e+01 -4.905355e+02
      vertex -2.292252e+02 -4.427942e+01 -4.918316e+02
    endloop
  endfacet
  facet normal -8.659701e-01 4.467507e-02 4.980962e-01
    outer loop
      vertex -2.292252e+02 -4.148702e+01 -4.920820e+02
      vertex -2.292252e+02 -4.427942e+01 -4.918316e+02
      vertex -2.284737e+02 -4.416318e+01 -4.905355e+02
    endloop
  endfacet
  facet normal 9.464308e-09 8.933562e-02 9.960016e-01
    outer loop
      vertex -2.307273e+02 -4.148702e+01 -4.920820e+02
      vertex -2.292252e+02 -4.427942e+01 -4.918316e+02
      vertex -2.292252e+02 -4.148702e+01 -4.920820e+02
    endloop
  endfacet
  facet normal 1.016171e-16 -9.960017e-01 8.933476e-02
    outer loop
      vertex -1.116912e+02 -4.587211e+01 -5.095885e+02
      vertex -2.284737e+02 -4.405620e+01 -4.893428e+02
      vertex -2.284737e+02 -4.416318e+01 -4.905355e+02
    endloop
  endfacet
  facet normal -1.000000e+00 0.000000e+00 0.000000e+00
    outer loop
      vertex -2.284737e+02 -4.127612e+01 -4.895922e+02
      vertex -2.284737e+02 -4.416318e+01 -4.905355e+02
      vertex -2.284737e+02 -4.405620e+01 -4.893428e+02
    endloop
  endfacet
  facet normal -1.000000e+00 0.000000e+00 0.000000e+00
    outer loop
      vertex -2.284737e+02 -4.137720e+01 -4.907854e+02
      vertex -2.284737e+02 -4.416318e+01 -4.905355e+02
      vertex -2.284737e+02 -4.127612e+01 -4.895922e+02
    endloop
  endfacet
  facet normal -8.659693e-01 4.467606e-02 4.980975e-01
    outer loop
      vertex -2.292252e+02 -4.148702e+01 -4.920820e+02
      vertex -2.284737e+02 -4.416318e+01 -4.905355e+02
      vertex -2.284737e+02 -4.137720e+01 -4.907854e+02
    endloop
  endfacet
  facet normal 0.000000e+00 -9.960017e-01 8.933476e-02
    outer loop
      vertex -2.199333e+02 -4.407283e+01 -4.895282e+02
      vertex -2.203519e+02 -4.405620e+01 -4.893428e+02
      vertex -2.284737e+02 -4.405620e+01 -4.893428e+02
    endloop
  endfacet
  facet normal 0.000000e+00 8.933476e-02 9.960017e-01
    outer loop
      vertex -2.284737e+02 -4.127612e+01 -4.895922e+02
      vertex -2.284737e+02 -4.405620e+01 -4.893428e+02
      vertex -2.203519e+02 -4.405620e+01 -4.893428e+02
    endloop
  endfacet
  facet normal 9.357500e-16 -9.960017e-01 8.933476e-02
    outer loop
      vertex -1.116912e+02 -4.587211e+01 -5.095885e+02
      vertex -2.199333e+02 -4.407283e+01 -4.895282e+02
      vertex -2.284737e+02 -4.405620e+01 -4.893428e+02
    endloop
  endfacet
  facet normal 4.062280e-01 8.163158e-02 9.101182e-01
    outer loop
      vertex -2.203519e+02 -4.127612e+01 -4.895922e+02
      vertex -2.203519e+02 -4.405620e+01 -4.893428e+02
      vertex -2.199333e+02 -4.407283e+01 -4.895282e+02
    endloop
  endfacet
  facet normal 7.815541e-17 8.933476e-02 9.960017e-01
    outer loop
      vertex -2.284737e+02 -4.127612e+01 -4.895922e+02
      vertex -2.203519e+02 -4.405620e+01 -4.893428e+02
      vertex -2.203519e+02 -4.127612e+01 -4.895922e+02
    endloop
  endfacet
  facet normal 4.062279e-01 8.163156e-02 9.101182e-01
    outer loop
      vertex -2.203519e+02 -4.127612e+01 -4.895922e+02
      vertex -2.199333e+02 -4.407283e+01 -4.895282e+02
      vertex -2.199333e+02 -4.129183e+01 -4.897776e+02
    endloop
  endfacet
  facet normal -1.520102e-15 -9.960017e-01 8.933476e-02
    outer loop
      vertex -1.116912e+02 -4.587211e+01 -5.095885e+02
      vertex -1.151880e+02 -4.286919e+01 -4.761087e+02
      vertex -1.183658e+02 -4.276737e+01 -4.749735e+02
    endloop
  endfacet
  facet normal 3.376049e-01 8.408973e-02 9.375243e-01
    outer loop
      vertex -1.183658e+02 -4.141878e+01 -4.750945e+02
      vertex -1.183658e+02 -4.276737e+01 -4.749735e+02
      vertex -1.151880e+02 -4.286919e+01 -4.761087e+02
    endloop
  endfacet
  facet normal 0.000000e+00 8.933476e-02 9.960017e-01
    outer loop
      vertex -1.194787e+02 -4.141878e+01 -4.750945e+02
      vertex -1.183658e+02 -4.276737e+01 -4.749735e+02
      vertex -1.183658e+02 -4.141878e+01 -4.750945e+02
    endloop
  endfacet
  facet normal 0.000000e+00 -9.960017e-01 8.933476e-02
    outer loop
      vertex -1.116912e+02 -4.587211e+01 -5.095885e+02
      vertex -1.134590e+02 -4.312823e+01 -4.789968e+02
      vertex -1.151880e+02 -4.286919e+01 -4.761087e+02
    endloop
  endfacet
  facet normal 8.547670e-01 -5.203356e-02 5.163970e-01
    outer loop
      vertex -1.135658e+02 -4.174039e+01 -4.786801e+02
      vertex -1.151880e+02 -4.286919e+01 -4.761087e+02
      vertex -1.134590e+02 -4.312823e+01 -4.789968e+02
    endloop
  endfacet
  facet normal 8.211977e-01 9.976075e-02 5.618559e-01
    outer loop
      vertex -1.153658e+02 -4.150812e+01 -4.760905e+02
      vertex -1.151880e+02 -4.286919e+01 -4.761087e+02
      vertex -1.135658e+02 -4.174039e+01 -4.786801e+02
    endloop
  endfacet
  facet normal 3.157261e-01 2.853322e-02 9.484213e-01
    outer loop
      vertex -1.153658e+02 -4.150812e+01 -4.760905e+02
      vertex -1.183658e+02 -4.141878e+01 -4.750945e+02
      vertex -1.151880e+02 -4.286919e+01 -4.761087e+02
    endloop
  endfacet
  facet normal -1.527224e-15 -9.960017e-01 8.933476e-02
    outer loop
      vertex -1.113776e+02 -4.574845e+01 -5.082099e+02
      vertex -1.113520e+02 -4.438279e+01 -4.929840e+02
      vertex -1.134590e+02 -4.312823e+01 -4.789968e+02
    endloop
  endfacet
  facet normal 9.889319e-01 1.325462e-02 1.477770e-01
    outer loop
      vertex -1.134590e+02 -4.039940e+01 -4.792416e+02
      vertex -1.134590e+02 -4.312823e+01 -4.789968e+02
      vertex -1.113520e+02 -4.438279e+01 -4.929840e+02
    endloop
  endfacet
  facet normal 8.493170e-15 -9.960017e-01 8.933476e-02
    outer loop
      vertex -1.116912e+02 -4.587211e+01 -5.095885e+02
      vertex -1.113776e+02 -4.574845e+01 -5.082099e+02
      vertex -1.134590e+02 -4.312823e+01 -4.789968e+02
    endloop
  endfacet
  facet normal 9.660856e-01 1.934708e-02 2.574961e-01
    outer loop
      vertex -1.135074e+02 -4.038076e+01 -4.790214e+02
      vertex -1.135658e+02 -4.036231e+01 -4.788037e+02
      vertex -1.134590e+02 -4.312823e+01 -4.789968e+02
    endloop
  endfacet
  facet normal 9.716810e-01 2.110950e-02 2.353518e-01
    outer loop
      vertex -1.135658e+02 -4.174039e+01 -4.786801e+02
      vertex -1.134590e+02 -4.312823e+01 -4.789968e+02
      vertex -1.135658e+02 -4.036231e+01 -4.788037e+02
    endloop
  endfacet
  facet normal 9.767770e-01 1.914072e-02 2.134017e-01
    outer loop
      vertex -1.135074e+02 -4.038076e+01 -4.790214e+02
      vertex -1.134590e+02 -4.312823e+01 -4.789968e+02
      vertex -1.134590e+02 -4.039940e+01 -4.792416e+02
    endloop
  endfacet
  facet normal -2.417725e-15 -9.960017e-01 8.933476e-02
    outer loop
      vertex -1.113776e+02 -4.574845e+01 -5.082099e+02
      vertex -1.104986e+02 -4.564895e+01 -5.071006e+02
      vertex -1.113520e+02 -4.438279e+01 -4.929840e+02
    endloop
  endfacet
  facet normal 9.981920e-01 5.189044e-03 5.988238e-02
    outer loop
      vertex -1.113507e+02 -4.158584e+01 -4.932487e+02
      vertex -1.113520e+02 -4.438279e+01 -4.929840e+02
      vertex -1.104986e+02 -4.564895e+01 -5.071006e+02
    endloop
  endfacet
  facet normal 9.889391e-01 1.350230e-02 1.477063e-01
    outer loop
      vertex -1.134590e+02 -4.039940e+01 -4.792416e+02
      vertex -1.113520e+02 -4.438279e+01 -4.929840e+02
      vertex -1.113507e+02 -4.158584e+01 -4.932487e+02
    endloop
  endfacet
  facet normal 4.113886e-01 -8.772774e-01 -2.472729e-01
    outer loop
      vertex -1.104831e+02 -4.525259e+01 -5.084810e+02
      vertex -1.104986e+02 -4.564895e+01 -5.071006e+02
      vertex -1.113776e+02 -4.574845e+01 -5.082099e+02
    endloop
  endfacet
  facet normal 9.981990e-01 5.772663e-03 5.971162e-02
    outer loop
      vertex -1.113507e+02 -4.158584e+01 -4.932487e+02
      vertex -1.104986e+02 -4.564895e+01 -5.071006e+02
      vertex -1.104982e+02 -4.278319e+01 -5.073847e+02
    endloop
  endfacet
  facet normal 9.999332e-01 9.938984e-04 1.151267e-02
    outer loop
      vertex -1.104831e+02 -4.525259e+01 -5.084810e+02
      vertex -1.104982e+02 -4.278319e+01 -5.073847e+02
      vertex -1.104986e+02 -4.564895e+01 -5.071006e+02
    endloop
  endfacet
  facet normal 4.776734e-01 -8.780286e-01 -2.989820e-02
    outer loop
      vertex -1.104831e+02 -4.525259e+01 -5.084810e+02
      vertex -1.113776e+02 -4.574845e+01 -5.082099e+02
      vertex -1.116912e+02 -4.587211e+01 -5.095885e+02
    endloop
  endfacet
  facet normal -9.584640e-18 -8.933476e-02 -9.960017e-01
    outer loop
      vertex -1.109983e+02 -4.547371e+01 -5.096243e+02
      vertex -1.116912e+02 -4.587211e+01 -5.095885e+02
      vertex -2.442663e+02 -4.587211e+01 -5.095885e+02
    endloop
  endfacet
  facet normal 4.955639e-01 -8.667836e-01 -5.570167e-02
    outer loop
      vertex -1.104831e+02 -4.525259e+01 -5.084810e+02
      vertex -1.116912e+02 -4.587211e+01 -5.095885e+02
      vertex -1.109983e+02 -4.547371e+01 -5.096243e+02
    endloop
  endfacet
  facet normal -2.082497e-14 -9.960017e-01 8.933476e-02
    outer loop
      vertex -2.454787e+02 -4.367858e+01 -4.851327e+02
      vertex -2.445853e+02 -4.574742e+01 -5.081984e+02
      vertex -2.442663e+02 -4.587211e+01 -5.095885e+02
    endloop
  endfacet
  facet normal -4.967659e-01 -8.671278e-01 -3.623454e-02
    outer loop
      vertex -2.449591e+02 -4.547371e+01 -5.096243e+02
      vertex -2.442663e+02 -4.587211e+01 -5.095885e+02
      vertex -2.445853e+02 -4.574742e+01 -5.081984e+02
    endloop
  endfacet
  facet normal 4.131554e-16 -8.933476e-02 -9.960017e-01
    outer loop
      vertex -2.449591e+02 -4.547371e+01 -5.096243e+02
      vertex -1.109983e+02 -4.547371e+01 -5.096243e+02
      vertex -2.442663e+02 -4.587211e+01 -5.095885e+02
    endloop
  endfacet
  facet normal 7.217125e-16 -9.960017e-01 8.933476e-02
    outer loop
      vertex -2.454787e+02 -4.367858e+01 -4.851327e+02
      vertex -2.454787e+02 -4.564753e+01 -5.070847e+02
      vertex -2.445853e+02 -4.574742e+01 -5.081984e+02
    endloop
  endfacet
  facet normal -4.089636e-01 -8.778312e-01 -2.493214e-01
    outer loop
      vertex -2.454787e+02 -4.524939e+01 -5.084865e+02
      vertex -2.445853e+02 -4.574742e+01 -5.081984e+02
      vertex -2.454787e+02 -4.564753e+01 -5.070847e+02
    endloop
  endfacet
  facet normal -4.967659e-01 -8.671278e-01 -3.623454e-02
    outer loop
      vertex -2.454787e+02 -4.517491e+01 -5.096511e+02
      vertex -2.449591e+02 -4.547371e+01 -5.096243e+02
      vertex -2.445853e+02 -4.574742e+01 -5.081984e+02
    endloop
  endfacet
  facet normal -4.722420e-01 -8.796717e-01 -5.626045e-02
    outer loop
      vertex -2.454787e+02 -4.517491e+01 -5.096511e+02
      vertex -2.445853e+02 -4.574742e+01 -5.081984e+02
      vertex -2.454787e+02 -4.524939e+01 -5.084865e+02
    endloop
  endfacet
  facet normal -1.000000e+00 0.000000e+00 0.000000e+00
    outer loop
      vertex -2.454787e+02 -4.354721e+01 -4.879879e+02
      vertex -2.454787e+02 -4.564753e+01 -5.070847e+02
      vertex -2.454787e+02 -4.367858e+01 -4.851327e+02
    endloop
  endfacet
  facet normal -1.000000e+00 0.000000e+00 0.000000e+00
    outer loop
      vertex -2.454787e+02 -4.311954e+01 -4.888985e+02
      vertex -2.454787e+02 -4.277984e+01 -5.073451e+02
      vertex -2.454787e+02 -4.564753e+01 -5.070847e+02
    endloop
  endfacet
  facet normal -1.000000e+00 0.000000e+00 0.000000e+00
    outer loop
      vertex -2.454787e+02 -4.524939e+01 -5.084865e+02
      vertex -2.454787e+02 -4.564753e+01 -5.070847e+02
      vertex -2.454787e+02 -4.277984e+01 -5.073451e+02
    endloop
  endfacet
  facet normal -1.000000e+00 0.000000e+00 0.000000e+00
    outer loop
      vertex -2.454787e+02 -4.354721e+01 -4.879879e+02
      vertex -2.454787e+02 -4.311954e+01 -4.888985e+02
      vertex -2.454787e+02 -4.564753e+01 -5.070847e+02
    endloop
  endfacet
  facet normal -9.238834e-01 -3.418609e-02 -3.811439e-01
    outer loop
      vertex -2.454787e+02 -4.099934e+01 -4.853730e+02
      vertex -2.454787e+02 -4.367858e+01 -4.851327e+02
      vertex -2.469432e+02 -4.336273e+01 -4.816113e+02
    endloop
  endfacet
  facet normal -1.000000e+00 0.000000e+00 0.000000e+00
    outer loop
      vertex -2.454787e+02 -4.297247e+01 -4.871621e+02
      vertex -2.454787e+02 -4.354721e+01 -4.879879e+02
      vertex -2.454787e+02 -4.367858e+01 -4.851327e+02
    endloop
  endfacet
  facet normal -1.000000e+00 0.000000e+00 0.000000e+00
    outer loop
      vertex -2.454787e+02 -4.196957e+01 -4.872471e+02
      vertex -2.454787e+02 -4.297247e+01 -4.871621e+02
      vertex -2.454787e+02 -4.367858e+01 -4.851327e+02
    endloop
  endfacet
  facet normal -1.000000e+00 0.000000e+00 0.000000e+00
    outer loop
      vertex -2.454787e+02 -4.099934e+01 -4.853730e+02
      vertex -2.454787e+02 -4.196957e+01 -4.872471e+02
      vertex -2.454787e+02 -4.367858e+01 -4.851327e+02
    endloop
  endfacet
  facet normal -3.826740e-01 -8.258650e-02 -9.201848e-01
    outer loop
      vertex -2.469433e+02 -4.068350e+01 -4.818517e+02
      vertex -2.469432e+02 -4.336273e+01 -4.816113e+02
      vertex -2.504787e+02 -4.323191e+01 -4.801527e+02
    endloop
  endfacet
  facet normal -9.238695e-01 -3.424069e-02 -3.811728e-01
    outer loop
      vertex -2.469433e+02 -4.068350e+01 -4.818517e+02
      vertex -2.454787e+02 -4.099934e+01 -4.853730e+02
      vertex -2.469432e+02 -4.336273e+01 -4.816113e+02
    endloop
  endfacet
  facet normal -1.326834e-16 -9.960017e-01 8.933476e-02
    outer loop
      vertex -2.895622e+02 -4.318562e+01 -4.796367e+02
      vertex -2.887846e+02 -4.323191e+01 -4.801527e+02
      vertex -2.504787e+02 -4.323191e+01 -4.801527e+02
    endloop
  endfacet
  facet normal 1.478245e-15 -8.933476e-02 -9.960017e-01
    outer loop
      vertex -2.504787e+02 -4.055266e+01 -4.803930e+02
      vertex -2.504787e+02 -4.323191e+01 -4.801527e+02
      vertex -2.887846e+02 -4.323191e+01 -4.801527e+02
    endloop
  endfacet
  facet normal -5.441482e-16 -9.960017e-01 8.933476e-02
    outer loop
      vertex -2.904787e+02 -4.316937e+01 -4.794555e+02
      vertex -2.895622e+02 -4.318562e+01 -4.796367e+02
      vertex -2.504787e+02 -4.323191e+01 -4.801527e+02
    endloop
  endfacet
  facet normal -3.827076e-01 -8.253366e-02 -9.201756e-01
    outer loop
      vertex -2.469433e+02 -4.068350e+01 -4.818517e+02
      vertex -2.504787e+02 -4.323191e+01 -4.801527e+02
      vertex -2.504787e+02 -4.055266e+01 -4.803930e+02
    endloop
  endfacet
  facet normal -5.544871e-01 -7.434370e-02 -8.288649e-01
    outer loop
      vertex -2.887846e+02 -4.055266e+01 -4.803930e+02
      vertex -2.887846e+02 -4.323191e+01 -4.801527e+02
      vertex -2.895622e+02 -4.318562e+01 -4.796367e+02
    endloop
  endfacet
  facet normal 0.000000e+00 -8.933476e-02 -9.960017e-01
    outer loop
      vertex -2.504787e+02 -4.055266e+01 -4.803930e+02
      vertex -2.887846e+02 -4.323191e+01 -4.801527e+02
      vertex -2.887846e+02 -4.055266e+01 -4.803930e+02
    endloop
  endfacet
  facet normal -1.946646e-01 -8.762578e-02 -9.769480e-01
    outer loop
      vertex -2.895622e+02 -4.050638e+01 -4.798770e+02
      vertex -2.895622e+02 -4.318562e+01 -4.796367e+02
      vertex -2.904787e+02 -4.316937e+01 -4.794555e+02
    endloop
  endfacet
  facet normal -5.544871e-01 -7.434370e-02 -8.288649e-01
    outer loop
      vertex -2.895622e+02 -4.050638e+01 -4.798770e+02
      vertex -2.887846e+02 -4.055266e+01 -4.803930e+02
      vertex -2.895622e+02 -4.318562e+01 -4.796367e+02
    endloop
  endfacet
  facet normal -1.946646e-01 -8.762578e-02 -9.769480e-01
    outer loop
      vertex -2.895622e+02 -4.050638e+01 -4.798770e+02
      vertex -2.904787e+02 -4.316937e+01 -4.794555e+02
      vertex -2.904787e+02 -4.049013e+01 -4.796958e+02
    endloop
  endfacet
  facet normal -1.428005e-16 -9.960017e-01 8.933476e-02
    outer loop
      vertex -1.109983e+02 -4.662678e+01 -5.224800e+02
      vertex -1.109983e+02 -4.547371e+01 -5.096243e+02
      vertex -2.449591e+02 -4.547371e+01 -5.096243e+02
    endloop
  endfacet
  facet normal 5.000000e-01 -8.625627e-01 7.736617e-02
    outer loop
      vertex -1.104787e+02 -4.517491e+01 -5.096511e+02
      vertex -1.109983e+02 -4.547371e+01 -5.096243e+02
      vertex -1.109983e+02 -4.662678e+01 -5.224800e+02
    endloop
  endfacet
  facet normal 4.955639e-01 -8.667836e-01 -5.570167e-02
    outer loop
      vertex -1.104831e+02 -4.525259e+01 -5.084810e+02
      vertex -1.109983e+02 -4.547371e+01 -5.096243e+02
      vertex -1.104787e+02 -4.517491e+01 -5.096511e+02
    endloop
  endfacet
  facet normal -1.615756e-16 -9.960017e-01 8.933476e-02
    outer loop
      vertex -2.449591e+02 -4.824414e+01 -5.405121e+02
      vertex -1.135590e+02 -4.824414e+01 -5.405121e+02
      vertex -2.449591e+02 -4.547371e+01 -5.096243e+02
    endloop
  endfacet
  facet normal 4.976739e-15 -9.960017e-01 8.933476e-02
    outer loop
      vertex -1.134797e+02 -4.822537e+01 -5.403028e+02
      vertex -2.449591e+02 -4.547371e+01 -5.096243e+02
      vertex -1.135590e+02 -4.824414e+01 -5.405121e+02
    endloop
  endfacet
  facet normal -5.000000e-01 -8.625627e-01 7.736617e-02
    outer loop
      vertex -2.454787e+02 -4.794521e+01 -5.405375e+02
      vertex -2.449591e+02 -4.824414e+01 -5.405121e+02
      vertex -2.449591e+02 -4.547371e+01 -5.096243e+02
    endloop
  endfacet
  facet normal -2.070639e-17 -9.960017e-01 8.933476e-02
    outer loop
      vertex -1.119649e+02 -4.741940e+01 -5.313170e+02
      vertex -1.109983e+02 -4.662678e+01 -5.224800e+02
      vertex -2.449591e+02 -4.547371e+01 -5.096243e+02
    endloop
  endfacet
  facet normal -8.861836e-17 -9.960017e-01 8.933476e-02
    outer loop
      vertex -1.134245e+02 -4.820592e+01 -5.400860e+02
      vertex -1.119649e+02 -4.741940e+01 -5.313170e+02
      vertex -2.449591e+02 -4.547371e+01 -5.096243e+02
    endloop
  endfacet
  facet normal -7.651726e-16 -9.960017e-01 8.933476e-02
    outer loop
      vertex -1.134797e+02 -4.822537e+01 -5.403028e+02
      vertex -1.134245e+02 -4.820592e+01 -5.400860e+02
      vertex -2.449591e+02 -4.547371e+01 -5.096243e+02
    endloop
  endfacet
  facet normal -5.000000e-01 -8.625627e-01 7.736617e-02
    outer loop
      vertex -2.454787e+02 -4.517491e+01 -5.096511e+02
      vertex -2.454787e+02 -4.794521e+01 -5.405375e+02
      vertex -2.449591e+02 -4.547371e+01 -5.096243e+02
    endloop
  endfacet
  facet normal -1.365060e-17 -8.440025e-02 -9.964319e-01
    outer loop
      vertex -1.135564e+02 -4.705690e+01 -5.406127e+02
      vertex -1.135590e+02 -4.824414e+01 -5.405121e+02
      vertex -2.449591e+02 -4.824414e+01 -5.405121e+02
    endloop
  endfacet
  facet normal 9.356432e-01 -3.182457e-02 -3.515097e-01
    outer loop
      vertex -1.135564e+02 -4.705690e+01 -5.406127e+02
      vertex -1.134797e+02 -4.822537e+01 -5.403028e+02
      vertex -1.135590e+02 -4.824414e+01 -5.405121e+02
    endloop
  endfacet
  facet normal -9.115647e-18 -8.440025e-02 -9.964319e-01
    outer loop
      vertex -2.451323e+02 -4.705690e+01 -5.406127e+02
      vertex -1.135564e+02 -4.705690e+01 -5.406127e+02
      vertex -2.449591e+02 -4.824414e+01 -5.405121e+02
    endloop
  endfacet
  facet normal -3.474594e-15 -8.440025e-02 -9.964319e-01
    outer loop
      vertex -2.454787e+02 -4.794521e+01 -5.405375e+02
      vertex -2.451323e+02 -4.705690e+01 -5.406127e+02
      vertex -2.449591e+02 -4.824414e+01 -5.405121e+02
    endloop
  endfacet
  facet normal 9.939972e-01 -2.524954e-02 -1.064524e-01
    outer loop
      vertex -1.111215e+02 -4.460130e+01 -5.241100e+02
      vertex -1.109983e+02 -4.662678e+01 -5.224800e+02
      vertex -1.119649e+02 -4.741940e+01 -5.313170e+02
    endloop
  endfacet
  facet normal 9.976990e-01 6.318579e-03 -6.750410e-02
    outer loop
      vertex -1.106388e+02 -4.423823e+01 -5.169431e+02
      vertex -1.109983e+02 -4.662678e+01 -5.224800e+02
      vertex -1.111215e+02 -4.460130e+01 -5.241100e+02
    endloop
  endfacet
  facet normal 5.000000e-01 -8.625627e-01 7.736617e-02
    outer loop
      vertex -1.104787e+02 -4.517491e+01 -5.096511e+02
      vertex -1.109983e+02 -4.662678e+01 -5.224800e+02
      vertex -1.106081e+02 -4.582613e+01 -5.160753e+02
    endloop
  endfacet
  facet normal 9.981620e-01 -1.303917e-02 -5.918355e-02
    outer loop
      vertex -1.106388e+02 -4.423823e+01 -5.169431e+02
      vertex -1.106081e+02 -4.582613e+01 -5.160753e+02
      vertex -1.109983e+02 -4.662678e+01 -5.224800e+02
    endloop
  endfacet
  facet normal 9.864990e-01 -2.298940e-02 -1.621454e-01
    outer loop
      vertex -1.120648e+02 -4.528885e+01 -5.322272e+02
      vertex -1.119649e+02 -4.741940e+01 -5.313170e+02
      vertex -1.134245e+02 -4.820592e+01 -5.400860e+02
    endloop
  endfacet
  facet normal 9.933362e-01 -2.621634e-03 -1.152231e-01
    outer loop
      vertex -1.111215e+02 -4.460130e+01 -5.241100e+02
      vertex -1.119649e+02 -4.741940e+01 -5.313170e+02
      vertex -1.120648e+02 -4.528885e+01 -5.322272e+02
    endloop
  endfacet
  facet normal 9.693136e-01 -2.196094e-02 -2.448446e-01
    outer loop
      vertex -1.134245e+02 -4.597148e+01 -5.402864e+02
      vertex -1.134245e+02 -4.820592e+01 -5.400860e+02
      vertex -1.134797e+02 -4.822537e+01 -5.403028e+02
    endloop
  endfacet
  facet normal 9.861618e-01 -1.481044e-02 -1.651230e-01
    outer loop
      vertex -1.120648e+02 -4.528885e+01 -5.322272e+02
      vertex -1.134245e+02 -4.820592e+01 -5.400860e+02
      vertex -1.134245e+02 -4.597148e+01 -5.402864e+02
    endloop
  endfacet
  facet normal 9.492180e-01 -2.096534e-02 -3.139197e-01
    outer loop
      vertex -1.134245e+02 -4.597148e+01 -5.402864e+02
      vertex -1.134797e+02 -4.822537e+01 -5.403028e+02
      vertex -1.135564e+02 -4.705690e+01 -5.406127e+02
    endloop
  endfacet
  facet normal -1.075875e-16 -9.964319e-01 8.440025e-02
    outer loop
      vertex -1.142941e+02 -4.713037e+01 -5.414801e+02
      vertex -1.135564e+02 -4.705690e+01 -5.406127e+02
      vertex -2.451323e+02 -4.705690e+01 -5.406127e+02
    endloop
  endfacet
  facet normal 7.619174e-01 -1.059565e-01 -6.389484e-01
    outer loop
      vertex -1.141158e+02 -4.606949e+01 -5.414435e+02
      vertex -1.135564e+02 -4.705690e+01 -5.406127e+02
      vertex -1.142941e+02 -4.713037e+01 -5.414801e+02
    endloop
  endfacet
  facet normal 8.554388e-01 5.099346e-02 -5.153873e-01
    outer loop
      vertex -1.134245e+02 -4.597148e+01 -5.402864e+02
      vertex -1.135564e+02 -4.705690e+01 -5.406127e+02
      vertex -1.141158e+02 -4.606949e+01 -5.414435e+02
    endloop
  endfacet
  facet normal 3.160175e-14 -8.440025e-02 -9.964319e-01
    outer loop
      vertex -2.454787e+02 -4.794521e+01 -5.405375e+02
      vertex -2.454787e+02 -4.685761e+01 -5.406296e+02
      vertex -2.451323e+02 -4.705690e+01 -5.406127e+02
    endloop
  endfacet
  facet normal -5.000000e-01 -8.629354e-01 7.309276e-02
    outer loop
      vertex -2.454787e+02 -4.691644e+01 -5.413241e+02
      vertex -2.451323e+02 -4.705690e+01 -5.406127e+02
      vertex -2.454787e+02 -4.685761e+01 -5.406296e+02
    endloop
  endfacet
  facet normal -1.099649e-16 -9.964319e-01 8.440025e-02
    outer loop
      vertex -1.153877e+02 -4.715784e+01 -5.418045e+02
      vertex -1.142941e+02 -4.713037e+01 -5.414801e+02
      vertex -2.451323e+02 -4.705690e+01 -5.406127e+02
    endloop
  endfacet
  facet normal -1.092680e-16 -9.964319e-01 8.440025e-02
    outer loop
      vertex -2.449787e+02 -4.715784e+01 -5.418045e+02
      vertex -1.153877e+02 -4.715784e+01 -5.418045e+02
      vertex -2.451323e+02 -4.705690e+01 -5.406127e+02
    endloop
  endfacet
  facet normal 9.393707e-14 -9.964319e-01 8.440025e-02
    outer loop
      vertex -2.450565e+02 -4.715733e+01 -5.417984e+02
      vertex -2.449787e+02 -4.715784e+01 -5.418045e+02
      vertex -2.451323e+02 -4.705690e+01 -5.406127e+02
    endloop
  endfacet
  facet normal -1.081366e-13 -9.964319e-01 8.440025e-02
    outer loop
      vertex -2.451323e+02 -4.715580e+01 -5.417804e+02
      vertex -2.450565e+02 -4.715733e+01 -5.417984e+02
      vertex -2.451323e+02 -4.705690e+01 -5.406127e+02
    endloop
  endfacet
  facet normal -5.000000e-01 -8.629354e-01 7.309276e-02
    outer loop
      vertex -2.453886e+02 -4.699243e+01 -5.416048e+02
      vertex -2.451323e+02 -4.715580e+01 -5.417804e+02
      vertex -2.451323e+02 -4.705690e+01 -5.406127e+02
    endloop
  endfacet
  facet normal -5.000000e-01 -8.629354e-01 7.309276e-02
    outer loop
      vertex -2.453886e+02 -4.699243e+01 -5.416048e+02
      vertex -2.451323e+02 -4.705690e+01 -5.406127e+02
      vertex -2.454787e+02 -4.691644e+01 -5.413241e+02
    endloop
  endfacet
  facet normal -1.000000e+00 0.000000e+00 0.000000e+00
    outer loop
      vertex -2.454787e+02 -4.517491e+01 -5.096511e+02
      vertex -2.454787e+02 -4.685761e+01 -5.406296e+02
      vertex -2.454787e+02 -4.794521e+01 -5.405375e+02
    endloop
  endfacet
  facet normal -1.000000e+00 0.000000e+00 0.000000e+00
    outer loop
      vertex -2.454787e+02 -4.653200e+01 -5.413586e+02
      vertex -2.454787e+02 -4.685761e+01 -5.406296e+02
      vertex -2.454787e+02 -4.517491e+01 -5.096511e+02
    endloop
  endfacet
  facet normal -1.000000e+00 0.000000e+00 0.000000e+00
    outer loop
      vertex -2.454787e+02 -4.653200e+01 -5.413586e+02
      vertex -2.454787e+02 -4.691644e+01 -5.413241e+02
      vertex -2.454787e+02 -4.685761e+01 -5.406296e+02
    endloop
  endfacet
  facet normal 2.846375e-01 -1.472588e-02 -9.585221e-01
    outer loop
      vertex -1.141158e+02 -4.606949e+01 -5.414435e+02
      vertex -1.142941e+02 -4.713037e+01 -5.414801e+02
      vertex -1.153877e+02 -4.715784e+01 -5.418045e+02
    endloop
  endfacet
  facet normal -9.855328e-18 -8.933476e-02 -9.960017e-01
    outer loop
      vertex -1.153877e+02 -4.610804e+01 -5.418986e+02
      vertex -1.153877e+02 -4.715784e+01 -5.418045e+02
      vertex -2.449787e+02 -4.715784e+01 -5.418045e+02
    endloop
  endfacet
  facet normal 3.379838e-01 -8.407758e-02 -9.373889e-01
    outer loop
      vertex -1.141158e+02 -4.606949e+01 -5.414435e+02
      vertex -1.153877e+02 -4.715784e+01 -5.418045e+02
      vertex -1.153877e+02 -4.610804e+01 -5.418986e+02
    endloop
  endfacet
  facet normal -7.799524e-02 -8.906263e-02 -9.929676e-01
    outer loop
      vertex -2.449787e+02 -4.628915e+01 -5.418824e+02
      vertex -2.449787e+02 -4.715784e+01 -5.418045e+02
      vertex -2.450565e+02 -4.715733e+01 -5.417984e+02
    endloop
  endfacet
  facet normal -9.820248e-18 -8.933476e-02 -9.960017e-01
    outer loop
      vertex -2.446638e+02 -4.610804e+01 -5.418986e+02
      vertex -1.153877e+02 -4.610804e+01 -5.418986e+02
      vertex -2.449787e+02 -4.715784e+01 -5.418045e+02
    endloop
  endfacet
  facet normal 9.459747e-14 -8.933476e-02 -9.960017e-01
    outer loop
      vertex -2.449787e+02 -4.628915e+01 -5.418824e+02
      vertex -2.446638e+02 -4.610804e+01 -5.418986e+02
      vertex -2.449787e+02 -4.715784e+01 -5.418045e+02
    endloop
  endfacet
  facet normal -2.320127e-01 -7.304651e-02 -9.699661e-01
    outer loop
      vertex -2.449787e+02 -4.628915e+01 -5.418824e+02
      vertex -2.450565e+02 -4.715733e+01 -5.417984e+02
      vertex -2.451323e+02 -4.715580e+01 -5.417804e+02
    endloop
  endfacet
  facet normal -2.140168e-01 -7.668877e-02 -9.738150e-01
    outer loop
      vertex -2.451824e+02 -4.640242e+01 -5.418287e+02
      vertex -2.449787e+02 -4.628915e+01 -5.418824e+02
      vertex -2.451323e+02 -4.715580e+01 -5.417804e+02
    endloop
  endfacet
  facet normal -6.016115e-01 -9.092152e-02 -7.935974e-01
    outer loop
      vertex -2.453886e+02 -4.699243e+01 -5.416048e+02
      vertex -2.451824e+02 -4.640242e+01 -5.418287e+02
      vertex -2.451323e+02 -4.715580e+01 -5.417804e+02
    endloop
  endfacet
  facet normal 1.092393e-16 9.964319e-01 -8.440025e-02
    outer loop
      vertex -1.109984e+02 -4.339025e+01 -5.098123e+02
      vertex -1.153877e+02 -4.610804e+01 -5.418986e+02
      vertex -2.446638e+02 -4.610804e+01 -5.418986e+02
    endloop
  endfacet
  facet normal 3.648351e-16 9.964319e-01 -8.440025e-02
    outer loop
      vertex -1.109984e+02 -4.339025e+01 -5.098123e+02
      vertex -1.141158e+02 -4.606949e+01 -5.414435e+02
      vertex -1.153877e+02 -4.610804e+01 -5.418986e+02
    endloop
  endfacet
  facet normal -5.000000e-01 8.625627e-01 -7.736617e-02
    outer loop
      vertex -2.451824e+02 -4.640242e+01 -5.418287e+02
      vertex -2.446638e+02 -4.610804e+01 -5.418986e+02
      vertex -2.449787e+02 -4.628915e+01 -5.418824e+02
    endloop
  endfacet
  facet normal 1.057188e-16 9.964319e-01 -8.440025e-02
    outer loop
      vertex -2.449401e+02 -4.339025e+01 -5.098123e+02
      vertex -1.109984e+02 -4.339025e+01 -5.098123e+02
      vertex -2.446638e+02 -4.610804e+01 -5.418986e+02
    endloop
  endfacet
  facet normal -5.000000e-01 8.625627e-01 -7.736617e-02
    outer loop
      vertex -2.454787e+02 -4.369991e+01 -5.097834e+02
      vertex -2.449401e+02 -4.339025e+01 -5.098123e+02
      vertex -2.446638e+02 -4.610804e+01 -5.418986e+02
    endloop
  endfacet
  facet normal -5.000000e-01 8.625627e-01 -7.736617e-02
    outer loop
      vertex -2.454787e+02 -4.369991e+01 -5.097834e+02
      vertex -2.446638e+02 -4.610804e+01 -5.418986e+02
      vertex -2.454787e+02 -4.653200e+01 -5.413586e+02
    endloop
  endfacet
  facet normal -5.000000e-01 8.625627e-01 -7.736617e-02
    outer loop
      vertex -2.453440e+02 -4.648502e+01 -5.417056e+02
      vertex -2.454787e+02 -4.653200e+01 -5.413586e+02
      vertex -2.446638e+02 -4.610804e+01 -5.418986e+02
    endloop
  endfacet
  facet normal -5.000000e-01 8.625627e-01 -7.736617e-02
    outer loop
      vertex -2.451824e+02 -4.640242e+01 -5.418287e+02
      vertex -2.453440e+02 -4.648502e+01 -5.417056e+02
      vertex -2.446638e+02 -4.610804e+01 -5.418986e+02
    endloop
  endfacet
  facet normal 1.551014e-15 9.964319e-01 -8.440025e-02
    outer loop
      vertex -1.109984e+02 -4.339025e+01 -5.098123e+02
      vertex -1.134245e+02 -4.597148e+01 -5.402864e+02
      vertex -1.141158e+02 -4.606949e+01 -5.414435e+02
    endloop
  endfacet
  facet normal 2.911981e-15 9.964319e-01 -8.440025e-02
    outer loop
      vertex -1.109984e+02 -4.339025e+01 -5.098123e+02
      vertex -1.120648e+02 -4.528885e+01 -5.322272e+02
      vertex -1.134245e+02 -4.597148e+01 -5.402864e+02
    endloop
  endfacet
  facet normal -6.519434e-15 9.964319e-01 -8.440025e-02
    outer loop
      vertex -1.109984e+02 -4.339025e+01 -5.098123e+02
      vertex -1.111215e+02 -4.460130e+01 -5.241100e+02
      vertex -1.120648e+02 -4.528885e+01 -5.322272e+02
    endloop
  endfacet
  facet normal 5.000000e-01 8.625627e-01 -7.736617e-02
    outer loop
      vertex -1.106388e+02 -4.423823e+01 -5.169431e+02
      vertex -1.111215e+02 -4.460130e+01 -5.241100e+02
      vertex -1.109984e+02 -4.339025e+01 -5.098123e+02
    endloop
  endfacet
  facet normal -8.936419e-18 -8.440025e-02 -9.964319e-01
    outer loop
      vertex -1.116912e+02 -4.299168e+01 -5.098460e+02
      vertex -1.109984e+02 -4.339025e+01 -5.098123e+02
      vertex -2.449401e+02 -4.339025e+01 -5.098123e+02
    endloop
  endfacet
  facet normal 5.000000e-01 8.625612e-01 -7.738341e-02
    outer loop
      vertex -1.104787e+02 -4.368895e+01 -5.097844e+02
      vertex -1.109984e+02 -4.339025e+01 -5.098123e+02
      vertex -1.116912e+02 -4.299168e+01 -5.098460e+02
    endloop
  endfacet
  facet normal 5.000000e-01 8.625627e-01 -7.736617e-02
    outer loop
      vertex -1.106388e+02 -4.423823e+01 -5.169431e+02
      vertex -1.109984e+02 -4.339025e+01 -5.098123e+02
      vertex -1.104787e+02 -4.368895e+01 -5.097844e+02
    endloop
  endfacet
  facet normal -9.048243e-18 -8.440025e-02 -9.964319e-01
    outer loop
      vertex -2.442472e+02 -4.299168e+01 -5.098460e+02
      vertex -1.116912e+02 -4.299168e+01 -5.098460e+02
      vertex -2.449401e+02 -4.339025e+01 -5.098123e+02
    endloop
  endfacet
  facet normal -5.000000e-01 8.625612e-01 -7.738357e-02
    outer loop
      vertex -2.454787e+02 -4.369991e+01 -5.097834e+02
      vertex -2.442472e+02 -4.299168e+01 -5.098460e+02
      vertex -2.449401e+02 -4.339025e+01 -5.098123e+02
    endloop
  endfacet
  facet normal 1.067986e-16 9.964319e-01 -8.440025e-02
    outer loop
      vertex -1.274787e+02 -4.129723e+01 -4.898413e+02
      vertex -1.116912e+02 -4.299168e+01 -5.098460e+02
      vertex -2.442472e+02 -4.299168e+01 -5.098460e+02
    endloop
  endfacet
  facet normal 2.389838e-15 9.964319e-01 -8.440025e-02
    outer loop
      vertex -1.274787e+02 -4.129723e+01 -4.898413e+02
      vertex -1.260497e+02 -4.122757e+01 -4.890190e+02
      vertex -1.116912e+02 -4.299168e+01 -5.098460e+02
    endloop
  endfacet
  facet normal -2.198135e-16 9.964319e-01 -8.440025e-02
    outer loop
      vertex -1.134590e+02 -4.039940e+01 -4.792416e+02
      vertex -1.116912e+02 -4.299168e+01 -5.098460e+02
      vertex -1.260497e+02 -4.122757e+01 -4.890190e+02
    endloop
  endfacet
  facet normal 1.169546e-14 9.964319e-01 -8.440025e-02
    outer loop
      vertex -1.113507e+02 -4.158584e+01 -4.932487e+02
      vertex -1.113714e+02 -4.287613e+01 -5.084819e+02
      vertex -1.116912e+02 -4.299168e+01 -5.098460e+02
    endloop
  endfacet
  facet normal 4.968056e-01 8.472051e-01 -1.882223e-01
    outer loop
      vertex -1.104787e+02 -4.368895e+01 -5.097844e+02
      vertex -1.116912e+02 -4.299168e+01 -5.098460e+02
      vertex -1.113714e+02 -4.287613e+01 -5.084819e+02
    endloop
  endfacet
  facet normal 1.424536e-15 9.964319e-01 -8.440025e-02
    outer loop
      vertex -1.134590e+02 -4.039940e+01 -4.792416e+02
      vertex -1.113507e+02 -4.158584e+01 -4.932487e+02
      vertex -1.116912e+02 -4.299168e+01 -5.098460e+02
    endloop
  endfacet
  facet normal -1.669300e-15 9.964319e-01 -8.440025e-02
    outer loop
      vertex -2.199333e+02 -4.129183e+01 -4.897776e+02
      vertex -2.194787e+02 -4.129723e+01 -4.898413e+02
      vertex -2.442472e+02 -4.299168e+01 -5.098460e+02
    endloop
  endfacet
  facet normal 1.539147e-16 9.964319e-01 -8.440025e-02
    outer loop
      vertex -1.274787e+02 -4.129723e+01 -4.898413e+02
      vertex -2.442472e+02 -4.299168e+01 -5.098460e+02
      vertex -2.194787e+02 -4.129723e+01 -4.898413e+02
    endloop
  endfacet
  facet normal -7.004524e-15 9.964319e-01 -8.440025e-02
    outer loop
      vertex -2.203519e+02 -4.127612e+01 -4.895922e+02
      vertex -2.199333e+02 -4.129183e+01 -4.897776e+02
      vertex -2.442472e+02 -4.299168e+01 -5.098460e+02
    endloop
  endfacet
  facet normal 5.484307e-16 9.964319e-01 -8.440025e-02
    outer loop
      vertex -2.292252e+02 -4.148702e+01 -4.920820e+02
      vertex -2.203519e+02 -4.127612e+01 -4.895922e+02
      vertex -2.442472e+02 -4.299168e+01 -5.098460e+02
    endloop
  endfacet
  facet normal 7.191347e-16 9.964319e-01 -8.440025e-02
    outer loop
      vertex -2.307273e+02 -4.148702e+01 -4.920820e+02
      vertex -2.292252e+02 -4.148702e+01 -4.920820e+02
      vertex -2.442472e+02 -4.299168e+01 -5.098460e+02
    endloop
  endfacet
  facet normal -1.590638e-15 9.964319e-01 -8.440025e-02
    outer loop
      vertex -2.314787e+02 -4.137720e+01 -4.907854e+02
      vertex -2.307273e+02 -4.148702e+01 -4.920820e+02
      vertex -2.442472e+02 -4.299168e+01 -5.098460e+02
    endloop
  endfacet
  facet normal 6.962615e-16 9.964319e-01 -8.440025e-02
    outer loop
      vertex -2.314787e+02 -4.093873e+01 -4.856089e+02
      vertex -2.314787e+02 -4.137720e+01 -4.907854e+02
      vertex -2.442472e+02 -4.299168e+01 -5.098460e+02
    endloop
  endfacet
  facet normal -2.954504e-15 9.964319e-01 -8.440025e-02
    outer loop
      vertex -2.445777e+02 -4.287392e+01 -5.084558e+02
      vertex -2.314787e+02 -4.093873e+01 -4.856089e+02
      vertex -2.442472e+02 -4.299168e+01 -5.098460e+02
    endloop
  endfacet
  facet normal -4.790214e-01 8.577564e-01 -1.865275e-01
    outer loop
      vertex -2.454787e+02 -4.341957e+01 -5.086511e+02
      vertex -2.445777e+02 -4.287392e+01 -5.084558e+02
      vertex -2.442472e+02 -4.299168e+01 -5.098460e+02
    endloop
  endfacet
  facet normal -4.955139e-01 8.431402e-01 -2.087595e-01
    outer loop
      vertex -2.454787e+02 -4.341957e+01 -5.086511e+02
      vertex -2.442472e+02 -4.299168e+01 -5.098460e+02
      vertex -2.454787e+02 -4.369991e+01 -5.097834e+02
    endloop
  endfacet
  facet normal 8.718243e-16 9.964319e-01 -8.440025e-02
    outer loop
      vertex -2.284737e+02 -4.137720e+01 -4.907854e+02
      vertex -2.284737e+02 -4.127612e+01 -4.895922e+02
      vertex -2.203519e+02 -4.127612e+01 -4.895922e+02
    endloop
  endfacet
  facet normal 8.611981e-17 9.964319e-01 -8.440025e-02
    outer loop
      vertex -2.292252e+02 -4.148702e+01 -4.920820e+02
      vertex -2.284737e+02 -4.137720e+01 -4.907854e+02
      vertex -2.203519e+02 -4.127612e+01 -4.895922e+02
    endloop
  endfacet
  facet normal 1.000000e+00 0.000000e+00 0.000000e+00
    outer loop
      vertex -2.314787e+02 -4.154190e+01 -4.881577e+02
      vertex -2.314787e+02 -4.137720e+01 -4.907854e+02
      vertex -2.314787e+02 -4.093873e+01 -4.856089e+02
    endloop
  endfacet
  facet normal 1.000000e+00 0.000000e+00 0.000000e+00
    outer loop
      vertex -2.314787e+02 -4.211664e+01 -4.889834e+02
      vertex -2.314787e+02 -4.137720e+01 -4.907854e+02
      vertex -2.314787e+02 -4.154190e+01 -4.881577e+02
    endloop
  endfacet
  facet normal -2.335901e-14 9.964319e-01 -8.440025e-02
    outer loop
      vertex -2.454787e+02 -4.277984e+01 -5.073451e+02
      vertex -2.307273e+02 -4.082890e+01 -4.843123e+02
      vertex -2.314787e+02 -4.093873e+01 -4.856089e+02
    endloop
  endfacet
  facet normal -1.045350e-15 9.964319e-01 -8.440025e-02
    outer loop
      vertex -2.445777e+02 -4.287392e+01 -5.084558e+02
      vertex -2.454787e+02 -4.277984e+01 -5.073451e+02
      vertex -2.314787e+02 -4.093873e+01 -4.856089e+02
    endloop
  endfacet
  facet normal 1.000000e+00 0.000000e+00 0.000000e+00
    outer loop
      vertex -2.314787e+02 -4.196957e+01 -4.872471e+02
      vertex -2.314787e+02 -4.154190e+01 -4.881577e+02
      vertex -2.314787e+02 -4.093873e+01 -4.856089e+02
    endloop
  endfacet
  facet normal 1.000000e+00 0.000000e+00 0.000000e+00
    outer loop
      vertex -2.314787e+02 -4.196957e+01 -4.872471e+02
      vertex -2.314787e+02 -4.093873e+01 -4.856089e+02
      vertex -2.314787e+02 -4.297247e+01 -4.871621e+02
    endloop
  endfacet
  facet normal 6.952390e-16 9.964319e-01 -8.440025e-02
    outer loop
      vertex -1.135658e+02 -4.036231e+01 -4.788037e+02
      vertex -2.292252e+02 -4.082890e+01 -4.843123e+02
      vertex -2.307273e+02 -4.082890e+01 -4.843123e+02
    endloop
  endfacet
  facet normal 1.073447e-16 9.964319e-01 -8.440025e-02
    outer loop
      vertex -2.454787e+02 -4.036231e+01 -4.788037e+02
      vertex -1.135658e+02 -4.036231e+01 -4.788037e+02
      vertex -2.307273e+02 -4.082890e+01 -4.843123e+02
    endloop
  endfacet
  facet normal 2.690587e-16 9.964319e-01 -8.440025e-02
    outer loop
      vertex -2.454787e+02 -4.277984e+01 -5.073451e+02
      vertex -2.454787e+02 -4.036231e+01 -4.788037e+02
      vertex -2.307273e+02 -4.082890e+01 -4.843123e+02
    endloop
  endfacet
  facet normal -3.158571e-17 9.964319e-01 -8.440025e-02
    outer loop
      vertex -1.135658e+02 -4.036231e+01 -4.788037e+02
      vertex -2.284737e+02 -4.093873e+01 -4.856089e+02
      vertex -2.292252e+02 -4.082890e+01 -4.843123e+02
    endloop
  endfacet
  facet normal -1.290921e-17 9.964319e-01 -8.440025e-02
    outer loop
      vertex -1.135658e+02 -4.036231e+01 -4.788037e+02
      vertex -2.284737e+02 -4.103980e+01 -4.868021e+02
      vertex -2.284737e+02 -4.093873e+01 -4.856089e+02
    endloop
  endfacet
  facet normal 0.000000e+00 9.964319e-01 -8.440025e-02
    outer loop
      vertex -2.199333e+02 -4.102409e+01 -4.866167e+02
      vertex -2.203519e+02 -4.103980e+01 -4.868021e+02
      vertex -2.284737e+02 -4.103980e+01 -4.868021e+02
    endloop
  endfacet
  facet normal -2.198756e-15 9.964319e-01 -8.440025e-02
    outer loop
      vertex -2.194787e+02 -4.101870e+01 -4.865530e+02
      vertex -2.199333e+02 -4.102409e+01 -4.866167e+02
      vertex -2.284737e+02 -4.103980e+01 -4.868021e+02
    endloop
  endfacet
  facet normal 9.193034e-16 9.964319e-01 -8.440025e-02
    outer loop
      vertex -1.135658e+02 -4.036231e+01 -4.788037e+02
      vertex -2.194787e+02 -4.101870e+01 -4.865530e+02
      vertex -2.284737e+02 -4.103980e+01 -4.868021e+02
    endloop
  endfacet
  facet normal 7.696383e-17 9.964319e-01 -8.440025e-02
    outer loop
      vertex -1.135658e+02 -4.036231e+01 -4.788037e+02
      vertex -1.274787e+02 -4.101870e+01 -4.865530e+02
      vertex -2.194787e+02 -4.101870e+01 -4.865530e+02
    endloop
  endfacet
  facet normal 7.075582e-16 9.964319e-01 -8.440025e-02
    outer loop
      vertex -1.135658e+02 -4.036231e+01 -4.788037e+02
      vertex -1.260497e+02 -4.108835e+01 -4.873753e+02
      vertex -1.274787e+02 -4.101870e+01 -4.865530e+02
    endloop
  endfacet
  facet normal 2.113392e-15 9.964319e-01 -8.440025e-02
    outer loop
      vertex -1.135658e+02 -4.036231e+01 -4.788037e+02
      vertex -1.260497e+02 -4.122757e+01 -4.890190e+02
      vertex -1.260497e+02 -4.108835e+01 -4.873753e+02
    endloop
  endfacet
  facet normal -1.843844e-15 9.964319e-01 -8.440025e-02
    outer loop
      vertex -1.135074e+02 -4.038076e+01 -4.790214e+02
      vertex -1.260497e+02 -4.122757e+01 -4.890190e+02
      vertex -1.135658e+02 -4.036231e+01 -4.788037e+02
    endloop
  endfacet
  facet normal 1.496291e-14 9.964319e-01 -8.440025e-02
    outer loop
      vertex -1.135074e+02 -4.038076e+01 -4.790214e+02
      vertex -1.134590e+02 -4.039940e+01 -4.792416e+02
      vertex -1.260497e+02 -4.122757e+01 -4.890190e+02
    endloop
  endfacet
  facet normal 9.732640e-18 8.933476e-02 9.960017e-01
    outer loop
      vertex -1.135658e+02 -4.174039e+01 -4.786801e+02
      vertex -1.135658e+02 -4.036231e+01 -4.788037e+02
      vertex -2.454787e+02 -4.036231e+01 -4.788037e+02
    endloop
  endfacet
  facet normal -1.000000e+00 0.000000e+00 0.000000e+00
    outer loop
      vertex -2.454787e+02 -4.040973e+01 -4.787994e+02
      vertex -2.454787e+02 -4.036231e+01 -4.788037e+02
      vertex -2.454787e+02 -4.277984e+01 -5.073451e+02
    endloop
  endfacet
  facet normal 4.267886e-15 8.933476e-02 9.960017e-01
    outer loop
      vertex -2.454787e+02 -4.040973e+01 -4.787994e+02
      vertex -1.135658e+02 -4.174039e+01 -4.786801e+02
      vertex -2.454787e+02 -4.036231e+01 -4.788037e+02
    endloop
  endfacet
  facet normal -4.092245e-01 8.194156e-01 -4.013644e-01
    outer loop
      vertex -2.454787e+02 -4.341957e+01 -5.086511e+02
      vertex -2.454787e+02 -4.277984e+01 -5.073451e+02
      vertex -2.445777e+02 -4.287392e+01 -5.084558e+02
    endloop
  endfacet
  facet normal -1.000000e+00 0.000000e+00 0.000000e+00
    outer loop
      vertex -2.454787e+02 -4.099934e+01 -4.853730e+02
      vertex -2.454787e+02 -4.040973e+01 -4.787994e+02
      vertex -2.454787e+02 -4.277984e+01 -5.073451e+02
    endloop
  endfacet
  facet normal -1.000000e+00 0.000000e+00 0.000000e+00
    outer loop
      vertex -2.454787e+02 -4.211664e+01 -4.889834e+02
      vertex -2.454787e+02 -4.154190e+01 -4.881577e+02
      vertex -2.454787e+02 -4.277984e+01 -5.073451e+02
    endloop
  endfacet
  facet normal -1.000000e+00 0.000000e+00 0.000000e+00
    outer loop
      vertex -2.454787e+02 -4.099934e+01 -4.853730e+02
      vertex -2.454787e+02 -4.277984e+01 -5.073451e+02
      vertex -2.454787e+02 -4.154190e+01 -4.881577e+02
    endloop
  endfacet
  facet normal -1.000000e+00 0.000000e+00 0.000000e+00
    outer loop
      vertex -2.454787e+02 -4.311954e+01 -4.888985e+02
      vertex -2.454787e+02 -4.211664e+01 -4.889834e+02
      vertex -2.454787e+02 -4.277984e+01 -5.073451e+02
    endloop
  endfacet
  facet normal -1.000000e+00 0.000000e+00 0.000000e+00
    outer loop
      vertex -2.454787e+02 -4.341957e+01 -5.086511e+02
      vertex -2.454787e+02 -4.524939e+01 -5.084865e+02
      vertex -2.454787e+02 -4.277984e+01 -5.073451e+02
    endloop
  endfacet
  facet normal 5.065060e-15 9.964319e-01 -8.440025e-02
    outer loop
      vertex -1.113507e+02 -4.158584e+01 -4.932487e+02
      vertex -1.104982e+02 -4.278319e+01 -5.073847e+02
      vertex -1.113714e+02 -4.287613e+01 -5.084819e+02
    endloop
  endfacet
  facet normal 4.124726e-01 8.195855e-01 -3.976758e-01
    outer loop
      vertex -1.104830e+02 -4.340876e+01 -5.086582e+02
      vertex -1.113714e+02 -4.287613e+01 -5.084819e+02
      vertex -1.104982e+02 -4.278319e+01 -5.073847e+02
    endloop
  endfacet
  facet normal 4.714332e-01 8.562284e-01 -2.112433e-01
    outer loop
      vertex -1.104787e+02 -4.368895e+01 -5.097844e+02
      vertex -1.113714e+02 -4.287613e+01 -5.084819e+02
      vertex -1.104830e+02 -4.340876e+01 -5.086582e+02
    endloop
  endfacet
  facet normal 9.999346e-01 1.047896e-03 1.139106e-02
    outer loop
      vertex -1.104830e+02 -4.340876e+01 -5.086582e+02
      vertex -1.104982e+02 -4.278319e+01 -5.073847e+02
      vertex -1.104831e+02 -4.525259e+01 -5.084810e+02
    endloop
  endfacet
  facet normal 0.000000e+00 9.960017e-01 -8.933476e-02
    outer loop
      vertex -2.504787e+02 -4.055266e+01 -4.803930e+02
      vertex -2.887846e+02 -4.055266e+01 -4.803930e+02
      vertex -2.454787e+02 -4.040973e+01 -4.787994e+02
    endloop
  endfacet
  facet normal 5.326962e-16 9.960017e-01 -8.933476e-02
    outer loop
      vertex -2.895622e+02 -4.050638e+01 -4.798770e+02
      vertex -2.454787e+02 -4.040973e+01 -4.787994e+02
      vertex -2.887846e+02 -4.055266e+01 -4.803930e+02
    endloop
  endfacet
  facet normal 6.073128e-16 9.960017e-01 -8.933476e-02
    outer loop
      vertex -2.469433e+02 -4.068350e+01 -4.818517e+02
      vertex -2.504787e+02 -4.055266e+01 -4.803930e+02
      vertex -2.454787e+02 -4.040973e+01 -4.787994e+02
    endloop
  endfacet
  facet normal -1.217503e-15 9.960017e-01 -8.933476e-02
    outer loop
      vertex -2.469433e+02 -4.068350e+01 -4.818517e+02
      vertex -2.454787e+02 -4.040973e+01 -4.787994e+02
      vertex -2.454787e+02 -4.099934e+01 -4.853730e+02
    endloop
  endfacet
  facet normal -9.553457e-16 9.960017e-01 -8.933476e-02
    outer loop
      vertex -2.895622e+02 -4.050638e+01 -4.798770e+02
      vertex -2.904787e+02 -4.049013e+01 -4.796958e+02
      vertex -2.454787e+02 -4.040973e+01 -4.787994e+02
    endloop
  endfacet
  facet normal 0.000000e+00 9.960017e-01 -8.933476e-02
    outer loop
      vertex -1.194787e+02 -4.150401e+01 -4.760446e+02
      vertex -1.194787e+02 -4.141878e+01 -4.750945e+02
      vertex -1.183658e+02 -4.141878e+01 -4.750945e+02
    endloop
  endfacet
  facet normal -2.561791e-16 9.960017e-01 -8.933476e-02
    outer loop
      vertex -1.153658e+02 -4.150812e+01 -4.760905e+02
      vertex -1.194787e+02 -4.150401e+01 -4.760446e+02
      vertex -1.183658e+02 -4.141878e+01 -4.750945e+02
    endloop
  endfacet
  facet normal 1.000000e+00 0.000000e+00 0.000000e+00
    outer loop
      vertex -1.194787e+02 -4.013899e+01 -4.761671e+02
      vertex -1.194787e+02 -4.141878e+01 -4.750945e+02
      vertex -1.194787e+02 -4.150401e+01 -4.760446e+02
    endloop
  endfacet
  facet normal 1.000000e+00 0.000000e+00 0.000000e+00
    outer loop
      vertex -1.194787e+02 -4.005847e+01 -4.752165e+02
      vertex -1.194787e+02 -4.141878e+01 -4.750945e+02
      vertex -1.194787e+02 -4.013899e+01 -4.761671e+02
    endloop
  endfacet
  facet normal 0.000000e+00 -8.207542e-01 5.712815e-01
    outer loop
      vertex -2.314787e+02 -4.154190e+01 -4.881577e+02
      vertex -2.454787e+02 -4.154190e+01 -4.881577e+02
      vertex -2.454787e+02 -4.211664e+01 -4.889834e+02
    endloop
  endfacet
  facet normal -1.000000e+00 0.000000e+00 0.000000e+00
    outer loop
      vertex -2.454787e+02 -4.099934e+01 -4.853730e+02
      vertex -2.454787e+02 -4.154190e+01 -4.881577e+02
      vertex -2.454787e+02 -4.196957e+01 -4.872471e+02
    endloop
  endfacet
  facet normal -4.593910e-16 -9.051496e-01 -4.250932e-01
    outer loop
      vertex -2.314787e+02 -4.196957e+01 -4.872471e+02
      vertex -2.454787e+02 -4.196957e+01 -4.872471e+02
      vertex -2.454787e+02 -4.154190e+01 -4.881577e+02
    endloop
  endfacet
  facet normal 0.000000e+00 -9.051496e-01 -4.250932e-01
    outer loop
      vertex -2.314787e+02 -4.196957e+01 -4.872471e+02
      vertex -2.454787e+02 -4.154190e+01 -4.881577e+02
      vertex -2.314787e+02 -4.154190e+01 -4.881577e+02
    endloop
  endfacet
  facet normal 0.000000e+00 8.440025e-02 9.964319e-01
    outer loop
      vertex -2.314787e+02 -4.211664e+01 -4.889834e+02
      vertex -2.454787e+02 -4.211664e+01 -4.889834e+02
      vertex -2.454787e+02 -4.311954e+01 -4.888985e+02
    endloop
  endfacet
  facet normal 0.000000e+00 -8.207542e-01 5.712815e-01
    outer loop
      vertex -2.314787e+02 -4.211664e+01 -4.889834e+02
      vertex -2.314787e+02 -4.154190e+01 -4.881577e+02
      vertex -2.454787e+02 -4.211664e+01 -4.889834e+02
    endloop
  endfacet
  facet normal 2.185373e-15 9.051496e-01 4.250932e-01
    outer loop
      vertex -2.314787e+02 -4.311954e+01 -4.888985e+02
      vertex -2.454787e+02 -4.311954e+01 -4.888985e+02
      vertex -2.454787e+02 -4.354721e+01 -4.879879e+02
    endloop
  endfacet
  facet normal 4.088593e-15 8.440025e-02 9.964319e-01
    outer loop
      vertex -2.314787e+02 -4.311954e+01 -4.888985e+02
      vertex -2.314787e+02 -4.211664e+01 -4.889834e+02
      vertex -2.454787e+02 -4.311954e+01 -4.888985e+02
    endloop
  endfacet
  facet normal 4.165578e-16 8.207542e-01 -5.712815e-01
    outer loop
      vertex -2.314787e+02 -4.354721e+01 -4.879879e+02
      vertex -2.454787e+02 -4.354721e+01 -4.879879e+02
      vertex -2.454787e+02 -4.297247e+01 -4.871621e+02
    endloop
  endfacet
  facet normal 4.571764e-16 9.051496e-01 4.250932e-01
    outer loop
      vertex -2.314787e+02 -4.311954e+01 -4.888985e+02
      vertex -2.454787e+02 -4.354721e+01 -4.879879e+02
      vertex -2.314787e+02 -4.354721e+01 -4.879879e+02
    endloop
  endfacet
  facet normal 0.000000e+00 -8.440025e-02 -9.964319e-01
    outer loop
      vertex -2.314787e+02 -4.297247e+01 -4.871621e+02
      vertex -2.454787e+02 -4.297247e+01 -4.871621e+02
      vertex -2.454787e+02 -4.196957e+01 -4.872471e+02
    endloop
  endfacet
  facet normal 0.000000e+00 8.207542e-01 -5.712815e-01
    outer loop
      vertex -2.314787e+02 -4.297247e+01 -4.871621e+02
      vertex -2.314787e+02 -4.354721e+01 -4.879879e+02
      vertex -2.454787e+02 -4.297247e+01 -4.871621e+02
    endloop
  endfacet
  facet normal -4.283570e-17 -8.440025e-02 -9.964319e-01
    outer loop
      vertex -2.314787e+02 -4.196957e+01 -4.872471e+02
      vertex -2.314787e+02 -4.297247e+01 -4.871621e+02
      vertex -2.454787e+02 -4.196957e+01 -4.872471e+02
    endloop
  endfacet
  facet normal -1.000000e+00 0.000000e+00 0.000000e+00
    outer loop
      vertex -2.454787e+02 -4.369991e+01 -5.097834e+02
      vertex -2.454787e+02 -4.517491e+01 -5.096511e+02
      vertex -2.454787e+02 -4.524939e+01 -5.084865e+02
    endloop
  endfacet
  facet normal -1.000000e+00 0.000000e+00 0.000000e+00
    outer loop
      vertex -2.454787e+02 -4.341957e+01 -5.086511e+02
      vertex -2.454787e+02 -4.369991e+01 -5.097834e+02
      vertex -2.454787e+02 -4.524939e+01 -5.084865e+02
    endloop
  endfacet
  facet normal -1.000000e+00 0.000000e+00 0.000000e+00
    outer loop
      vertex -2.454787e+02 -4.369991e+01 -5.097834e+02
      vertex -2.454787e+02 -4.653200e+01 -5.413586e+02
      vertex -2.454787e+02 -4.517491e+01 -5.096511e+02
    endloop
  endfacet
  facet normal -9.301907e-01 -3.279270e-02 -3.656089e-01
    outer loop
      vertex -2.453440e+02 -4.648502e+01 -5.417056e+02
      vertex -2.454787e+02 -4.691644e+01 -5.413241e+02
      vertex -2.454787e+02 -4.653200e+01 -5.413586e+02
    endloop
  endfacet
  facet normal -9.501732e-01 2.177527e-02 -3.109609e-01
    outer loop
      vertex -2.453886e+02 -4.699243e+01 -5.416048e+02
      vertex -2.454787e+02 -4.691644e+01 -5.413241e+02
      vertex -2.453440e+02 -4.648502e+01 -5.417056e+02
    endloop
  endfacet
  facet normal 9.997992e-01 -1.790054e-03 -1.995749e-02
    outer loop
      vertex -1.104787e+02 -4.368895e+01 -5.097844e+02
      vertex -1.104787e+02 -4.517491e+01 -5.096511e+02
      vertex -1.106081e+02 -4.582613e+01 -5.160753e+02
    endloop
  endfacet
  facet normal 9.997148e-01 6.827752e-03 -2.288340e-02
    outer loop
      vertex -1.106388e+02 -4.423823e+01 -5.169431e+02
      vertex -1.104787e+02 -4.368895e+01 -5.097844e+02
      vertex -1.106081e+02 -4.582613e+01 -5.160753e+02
    endloop
  endfacet
  facet normal 9.999929e-01 3.131635e-04 3.747493e-03
    outer loop
      vertex -1.104830e+02 -4.340876e+01 -5.086582e+02
      vertex -1.104831e+02 -4.525259e+01 -5.084810e+02
      vertex -1.104787e+02 -4.517491e+01 -5.096511e+02
    endloop
  endfacet
  facet normal 9.999931e-01 3.329660e-04 3.712269e-03
    outer loop
      vertex -1.104787e+02 -4.368895e+01 -5.097844e+02
      vertex -1.104830e+02 -4.340876e+01 -5.086582e+02
      vertex -1.104787e+02 -4.517491e+01 -5.096511e+02
    endloop
  endfacet
  facet normal -5.650298e-01 -1.127114e-01 -8.173356e-01
    outer loop
      vertex -2.453886e+02 -4.699243e+01 -5.416048e+02
      vertex -2.453440e+02 -4.648502e+01 -5.417056e+02
      vertex -2.451824e+02 -4.640242e+01 -5.418287e+02
    endloop
  endfacet
endsolid 156_100022596-16
